<?xml version="1.0" encoding="UTF-8"?><!--Generator: https://SymbolKit.app--><!DOCTYPE svg PUBLIC "-//W3C//DTD SVG 1.1//EN" "http://www.w3.org/Graphics/SVG/1.1/DTD/svg11.dtd"><svg xmlns="http://www.w3.org/2000/svg" xmlns:xlink="http://www.w3.org/1999/xlink" version="1.1" viewBox="0 0 3300 2200">
 <!--glyph: "100092", point size: 100.0, font version: "20.0d10e1", template writer version: "138.0.0"-->
 <style>.SFSymbolsPreviewWireframe {fill:none;opacity:1.0;stroke:black;stroke-width:0.5}
</style>
 <g id="Notes">
  <rect height="2200" id="artboard" style="fill:white;opacity:1" width="3300" x="0" y="0"/>
  <line style="fill:none;stroke:black;opacity:1;stroke-width:0.5;" x1="263" x2="3036" y1="292" y2="292"/>
  <text style="stroke:none;fill:black;font-family:sans-serif;font-size:13;font-weight:bold;" transform="matrix(1 0 0 1 263 322)">Weight/Scale Variations</text>
  <text style="stroke:none;fill:black;font-family:sans-serif;font-size:13;text-anchor:middle;" transform="matrix(1 0 0 1 559.711 322)">Ultralight</text>
  <text style="stroke:none;fill:black;font-family:sans-serif;font-size:13;text-anchor:middle;" transform="matrix(1 0 0 1 856.422 322)">Thin</text>
  <text style="stroke:none;fill:black;font-family:sans-serif;font-size:13;text-anchor:middle;" transform="matrix(1 0 0 1 1153.13 322)">Light</text>
  <text style="stroke:none;fill:black;font-family:sans-serif;font-size:13;text-anchor:middle;" transform="matrix(1 0 0 1 1449.84 322)">Regular</text>
  <text style="stroke:none;fill:black;font-family:sans-serif;font-size:13;text-anchor:middle;" transform="matrix(1 0 0 1 1746.56 322)">Medium</text>
  <text style="stroke:none;fill:black;font-family:sans-serif;font-size:13;text-anchor:middle;" transform="matrix(1 0 0 1 2043.27 322)">Semibold</text>
  <text style="stroke:none;fill:black;font-family:sans-serif;font-size:13;text-anchor:middle;" transform="matrix(1 0 0 1 2339.98 322)">Bold</text>
  <text style="stroke:none;fill:black;font-family:sans-serif;font-size:13;text-anchor:middle;" transform="matrix(1 0 0 1 2636.69 322)">Heavy</text>
  <text style="stroke:none;fill:black;font-family:sans-serif;font-size:13;text-anchor:middle;" transform="matrix(1 0 0 1 2933.4 322)">Black</text>
  <line style="fill:none;stroke:black;opacity:1;stroke-width:0.5;" x1="263" x2="3036" y1="1903" y2="1903"/>
  <g transform="matrix(0.2 0 0 0.2 263 1933)">
   <path d="m46.2402 4.15039c21.7773 0 39.4531-17.627 39.4531-39.4043s-17.6758-39.4043-39.4531-39.4043c-21.7285 0-39.4043 17.627-39.4043 39.4043s17.6758 39.4043 39.4043 39.4043Zm0-7.42188c-17.6758 0-31.9336-14.3066-31.9336-31.9824s14.2578-31.9824 31.9336-31.9824 31.9824 14.3066 31.9824 31.9824-14.3066 31.9824-31.9824 31.9824Zm-17.9688-31.9824c0 2.14844 1.51367 3.61328 3.75977 3.61328h10.498v10.5957c0 2.19727 1.46484 3.71094 3.61328 3.71094 2.24609 0 3.71094-1.51367 3.71094-3.71094v-10.5957h10.5957c2.19727 0 3.71094-1.46484 3.71094-3.61328 0-2.19727-1.51367-3.71094-3.71094-3.71094h-10.5957v-10.5469c0-2.24609-1.46484-3.75977-3.71094-3.75977-2.14844 0-3.61328 1.51367-3.61328 3.75977v10.5469h-10.498c-2.24609 0-3.75977 1.51367-3.75977 3.71094Z"/>
  </g>
  <g transform="matrix(0.2 0 0 0.2 281.506 1933)">
   <path d="m58.5449 14.5508c27.4902 0 49.8047-22.3145 49.8047-49.8047s-22.3145-49.8047-49.8047-49.8047-49.8047 22.3145-49.8047 49.8047 22.3145 49.8047 49.8047 49.8047Zm0-8.30078c-22.9492 0-41.5039-18.5547-41.5039-41.5039s18.5547-41.5039 41.5039-41.5039 41.5039 18.5547 41.5039 41.5039-18.5547 41.5039-41.5039 41.5039Zm-22.6562-41.5039c0 2.39258 1.66016 4.00391 4.15039 4.00391h14.3555v14.4043c0 2.44141 1.66016 4.15039 4.05273 4.15039 2.44141 0 4.15039-1.66016 4.15039-4.15039v-14.4043h14.4043c2.44141 0 4.15039-1.61133 4.15039-4.00391 0-2.44141-1.70898-4.15039-4.15039-4.15039h-14.4043v-14.3555c0-2.49023-1.70898-4.19922-4.15039-4.19922-2.39258 0-4.05273 1.70898-4.05273 4.19922v14.3555h-14.3555c-2.49023 0-4.15039 1.70898-4.15039 4.15039Z"/>
  </g>
  <g transform="matrix(0.2 0 0 0.2 304.924 1933)">
   <path d="m74.8535 28.3203c35.1074 0 63.623-28.4668 63.623-63.5742s-28.5156-63.623-63.623-63.623-63.5742 28.5156-63.5742 63.623 28.4668 63.5742 63.5742 63.5742Zm0-9.08203c-30.127 0-54.4922-24.3652-54.4922-54.4922s24.3652-54.4922 54.4922-54.4922 54.4922 24.3652 54.4922 54.4922-24.3652 54.4922-54.4922 54.4922Zm-28.8574-54.4922c0 2.58789 1.85547 4.39453 4.58984 4.39453h19.7266v19.7754c0 2.68555 1.85547 4.58984 4.44336 4.58984 2.68555 0 4.54102-1.85547 4.54102-4.58984v-19.7754h19.7754c2.68555 0 4.58984-1.80664 4.58984-4.39453 0-2.73438-1.85547-4.58984-4.58984-4.58984h-19.7754v-19.7266c0-2.73438-1.85547-4.63867-4.54102-4.63867-2.58789 0-4.44336 1.9043-4.44336 4.63867v19.7266h-19.7266c-2.73438 0-4.58984 1.85547-4.58984 4.58984Z"/>
  </g>
  <text style="stroke:none;fill:black;font-family:sans-serif;font-size:13;font-weight:bold;" transform="matrix(1 0 0 1 263 1953)">Design Variations</text>
  <text style="stroke:none;fill:black;font-family:sans-serif;font-size:13;" transform="matrix(1 0 0 1 263 1971)">Symbols are supported in up to nine weights and three scales.</text>
  <text style="stroke:none;fill:black;font-family:sans-serif;font-size:13;" transform="matrix(1 0 0 1 263 1989)">For optimal layout with text and other symbols, vertically align</text>
  <text style="stroke:none;fill:black;font-family:sans-serif;font-size:13;" transform="matrix(1 0 0 1 263 2007)">symbols with the adjacent text.</text>
  <line style="fill:none;stroke:#00AEEF;stroke-width:0.5;opacity:1.0;" x1="776" x2="776" y1="1919" y2="1933"/>
  <g transform="matrix(0.2 0 0 0.2 776 1933)">
   <path d="m16.5527 0.78125c2.58789 0 3.85742-0.976562 4.78516-3.71094l6.29883-17.2363h28.8086l6.29883 17.2363c0.927734 2.73438 2.19727 3.71094 4.73633 3.71094 2.58789 0 4.24805-1.5625 4.24805-4.00391 0-0.830078-0.146484-1.61133-0.537109-2.63672l-22.9004-60.9863c-1.12305-2.97852-3.125-4.49219-6.25-4.49219-3.02734 0-5.07812 1.46484-6.15234 4.44336l-22.9004 61.084c-0.390625 1.02539-0.537109 1.80664-0.537109 2.63672 0 2.44141 1.5625 3.95508 4.10156 3.95508Zm13.4766-28.3691 11.8652-32.8613h0.244141l11.8652 32.8613Z"/>
  </g>
  <line style="fill:none;stroke:#00AEEF;stroke-width:0.5;opacity:1.0;" x1="792.836" x2="792.836" y1="1919" y2="1933"/>
  <text style="stroke:none;fill:black;font-family:sans-serif;font-size:13;font-weight:bold;" transform="matrix(1 0 0 1 776 1953)">Margins</text>
  <text style="stroke:none;fill:black;font-family:sans-serif;font-size:13;" transform="matrix(1 0 0 1 776 1971)">Leading and trailing margins on the left and right side of each symbol</text>
  <text style="stroke:none;fill:black;font-family:sans-serif;font-size:13;" transform="matrix(1 0 0 1 776 1989)">can be adjusted by modifying the x-location of the margin guidelines.</text>
  <text style="stroke:none;fill:black;font-family:sans-serif;font-size:13;" transform="matrix(1 0 0 1 776 2007)">Modifications are automatically applied proportionally to all</text>
  <text style="stroke:none;fill:black;font-family:sans-serif;font-size:13;" transform="matrix(1 0 0 1 776 2025)">scales and weights.</text>
  <g transform="matrix(0.2 0 0 0.2 1289 1933)">
   <path d="m14.209 9.32617 8.49609 8.54492c4.29688 4.3457 9.22852 4.05273 13.8672-1.07422l53.4668-58.9355-4.83398-4.88281-53.0762 58.3984c-1.75781 2.00195-3.41797 2.49023-5.76172 0.146484l-5.85938-5.81055c-2.34375-2.29492-1.80664-4.00391 0.195312-5.81055l57.373-54.0039-4.88281-4.83398-57.959 54.4434c-4.93164 4.58984-5.32227 9.47266-1.02539 13.8184Zm32.0801-90.9668c-2.09961 2.05078-2.24609 4.93164-1.07422 6.88477 1.17188 1.80664 3.4668 2.97852 6.68945 2.14844 7.32422-1.70898 14.9414-2.00195 22.0703 2.68555l-2.92969 7.27539c-1.70898 4.15039-0.830078 7.08008 1.85547 9.81445l11.4746 11.5723c2.44141 2.44141 4.49219 2.53906 7.32422 2.05078l5.32227-0.976562 3.32031 3.36914-0.195312 2.7832c-0.195312 2.49023 0.439453 4.39453 2.88086 6.78711l3.80859 3.71094c2.39258 2.39258 5.46875 2.53906 7.8125 0.195312l14.5508-14.5996c2.34375-2.34375 2.24609-5.32227-0.146484-7.71484l-3.85742-3.80859c-2.39258-2.39258-4.24805-3.17383-6.64062-2.97852l-2.88086 0.244141-3.22266-3.17383 1.2207-5.61523c0.634766-2.83203-0.146484-5.0293-3.07617-7.95898l-10.9863-10.9375c-16.6992-16.6016-38.8672-16.2109-53.3203-1.75781Zm7.4707 1.85547c12.1582-8.88672 28.6133-7.37305 39.7461 3.75977l12.1582 12.0605c1.17188 1.17188 1.36719 2.09961 1.02539 3.80859l-1.61133 7.42188 7.51953 7.42188 4.93164-0.292969c1.26953-0.0488281 1.66016 0.0488281 2.63672 1.02539l2.88086 2.88086-12.207 12.207-2.88086-2.88086c-0.976562-0.976562-1.12305-1.36719-1.07422-2.68555l0.341797-4.88281-7.4707-7.42188-7.61719 1.26953c-1.61133 0.341797-2.34375 0.195312-3.56445-0.976562l-10.0098-10.0098c-1.26953-1.17188-1.41602-2.00195-0.634766-3.85742l4.39453-10.4492c-7.8125-7.27539-17.9688-10.4004-28.125-7.42188-0.78125 0.195312-1.07422-0.439453-0.439453-0.976562Z"/>
  </g>
  <text style="stroke:none;fill:black;font-family:sans-serif;font-size:13;font-weight:bold;" transform="matrix(1 0 0 1 1289 1953)">Exporting</text>
  <text style="stroke:none;fill:black;font-family:sans-serif;font-size:13;" transform="matrix(1 0 0 1 1289 1971)">Symbols should be outlined when exporting to ensure the</text>
  <text style="stroke:none;fill:black;font-family:sans-serif;font-size:13;" transform="matrix(1 0 0 1 1289 1989)">design is preserved when submitting to Xcode.</text>
  <text id="template-version" style="stroke:none;fill:black;font-family:sans-serif;font-size:13;text-anchor:end;" transform="matrix(1 0 0 1 3036 1933)">Template v.6.0</text>
  <text style="stroke:none;fill:black;font-family:sans-serif;font-size:13;text-anchor:end;" transform="matrix(1 0 0 1 3036 1951)">Requires Xcode 16 or greater</text>
  <text id="descriptive-name" style="stroke:none;fill:black;font-family:sans-serif;font-size:13;text-anchor:end;" transform="matrix(1 0 0 1 3036 1969)">Generated from square</text>
  <text style="stroke:none;fill:black;font-family:sans-serif;font-size:13;text-anchor:end;" transform="matrix(1 0 0 1 3036 1987)">Typeset at 100.0 points</text>
  <text style="stroke:none;fill:black;font-family:sans-serif;font-size:13;" transform="matrix(1 0 0 1 263 726)">Small</text>
  <text style="stroke:none;fill:black;font-family:sans-serif;font-size:13;" transform="matrix(1 0 0 1 263 1156)">Medium</text>
  <text style="stroke:none;fill:black;font-family:sans-serif;font-size:13;" transform="matrix(1 0 0 1 263 1586)">Large</text>
 </g>
 <g id="Guides">
  <g id="H-reference" style="fill:#27AAE1;stroke:none;" transform="matrix(1 0 0 1 339 696)">
   <path d="M0.993654 0L3.63775 0L29.3281-67.1323L30.0303-67.1323L30.0303-70.459L28.1226-70.459ZM11.6885-24.4799L46.9815-24.4799L46.2315-26.7285L12.4385-26.7285ZM55.1196 0L57.7637 0L30.6382-70.459L29.4326-70.459L29.4326-67.1323Z"/>
  </g>
  <line id="Baseline-S" style="fill:none;stroke:#27AAE1;opacity:1;stroke-width:0.5;" x1="263" x2="3036" y1="696" y2="696"/>
  <line id="Capline-S" style="fill:none;stroke:#27AAE1;opacity:1;stroke-width:0.5;" x1="263" x2="3036" y1="625.541" y2="625.541"/>
  <g id="H-reference" style="fill:#27AAE1;stroke:none;" transform="matrix(1 0 0 1 339 1126)">
   <path d="M0.993654 0L3.63775 0L29.3281-67.1323L30.0303-67.1323L30.0303-70.459L28.1226-70.459ZM11.6885-24.4799L46.9815-24.4799L46.2315-26.7285L12.4385-26.7285ZM55.1196 0L57.7637 0L30.6382-70.459L29.4326-70.459L29.4326-67.1323Z"/>
  </g>
  <line id="Baseline-M" style="fill:none;stroke:#27AAE1;opacity:1;stroke-width:0.5;" x1="263" x2="3036" y1="1126" y2="1126"/>
  <line id="Capline-M" style="fill:none;stroke:#27AAE1;opacity:1;stroke-width:0.5;" x1="263" x2="3036" y1="1055.54" y2="1055.54"/>
  <g id="H-reference" style="fill:#27AAE1;stroke:none;" transform="matrix(1 0 0 1 339 1556)">
   <path d="M0.993654 0L3.63775 0L29.3281-67.1323L30.0303-67.1323L30.0303-70.459L28.1226-70.459ZM11.6885-24.4799L46.9815-24.4799L46.2315-26.7285L12.4385-26.7285ZM55.1196 0L57.7637 0L30.6382-70.459L29.4326-70.459L29.4326-67.1323Z"/>
  </g>
  <line id="Baseline-L" style="fill:none;stroke:#27AAE1;opacity:1;stroke-width:0.5;" x1="263" x2="3036" y1="1556" y2="1556"/>
  <line id="Capline-L" style="fill:none;stroke:#27AAE1;opacity:1;stroke-width:0.5;" x1="263" x2="3036" y1="1485.54" y2="1485.54"/>
  <line id="right-margin-Black-S" style="fill:none;stroke:#00AEEF;stroke-width:0.5;opacity:1.0;" x1="2981.3" x2="2981.3" y1="600.785" y2="720.121"/>
  <line id="left-margin-Black-S" style="fill:none;stroke:#00AEEF;stroke-width:0.5;opacity:1.0;" x1="2885.5" x2="2885.5" y1="600.785" y2="720.121"/>
  <line id="right-margin-Regular-S" style="fill:none;stroke:#00AEEF;stroke-width:0.5;opacity:1.0;" x1="1495.18" x2="1495.18" y1="600.785" y2="720.121"/>
  <line id="left-margin-Regular-S" style="fill:none;stroke:#00AEEF;stroke-width:0.5;opacity:1.0;" x1="1404.51" x2="1404.51" y1="600.785" y2="720.121"/>
  <line id="right-margin-Ultralight-S" style="fill:none;stroke:#00AEEF;stroke-width:0.5;opacity:1.0;" x1="603.073" x2="603.073" y1="600.785" y2="720.121"/>
  <line id="left-margin-Ultralight-S" style="fill:none;stroke:#00AEEF;stroke-width:0.5;opacity:1.0;" x1="516.35" x2="516.35" y1="600.785" y2="720.121"/>
 </g>
 <g id="Symbols">
  <g id="Black-S"><path d="M2906.0092,641.10071v1.79083l-2.08441,0.88074v-1.79083l2.08441,-0.88074M2906.0092,658.53931v1.82019l-2.08441,0.85138v-1.73212l2.08441,-0.93945M2906.0092,676.24213v1.82019l-2.08441,0.85138v-1.73212l2.08441,-0.93945M2905.8037,646.94293v1.61469l-1.6734,0.76331v-1.58533l1.6734,-0.79266M2905.8037,652.78516v1.58533l-1.6734,0.76331v-1.58533l1.6734,-0.76331M2905.8037,664.61639v1.55597l-1.6734,0.76331v-1.58533l1.6734,-0.73395M2905.8037,670.54669v1.58533l-1.6734,0.76331v-1.55597l1.6734,-0.79266M2911.3817,642.09888v2.11377l-2.93579,1.08624v-2.14313l2.93579,-1.05688M2911.3817,659.77234v2.08441l-2.93579,1.08624v-2.08441l2.93579,-1.08624M2911.3817,677.50452v2.08441l-2.93579,1.17432v-2.08441l2.93579,-1.17432M2911.17619,648.20532v1.93762l-2.31927,0.88074v-1.99634l2.31927,-0.82202M2911.17619,654.10626v1.87891l-2.28992,0.88074v-1.96698l2.28992,-0.79266M2911.17619,665.87878v1.87891l-2.28992,0.9101v-1.93762l2.28992,-0.85138M2911.17619,671.80908v1.90826l-2.28992,0.9101v-1.93762l2.28992,-0.88074M2916.69548,643.41998v2.49542l-3.6991,1.43854v-2.46606l3.6991,-1.4679M2916.69548,661.09344v2.49542l-3.6991,1.43854v-2.46606l3.6991,-1.4679M2916.69548,678.62012v2.49542l-3.6991,1.4679v-2.49542l3.6991,-1.4679M2916.51933,649.55579v2.2312l-3.11194,1.17432v-2.14313l3.11194,-1.26239M2916.51933,655.42737v2.20184l-3.11194,1.23303v-2.20184l3.11194,-1.23303M2916.51933,667.19989v2.20184l-3.11194,1.26239v-2.20184l3.11194,-1.26239M2916.51933,672.92468v2.2312l-3.11194,1.23303v-2.20184l3.11194,-1.26239M2922.50835,643.27319v3.28809l-4.60919,1.82019v-3.25873l4.60919,-1.84955M2922.50835,660.94666v3.31744l-4.60919,1.79083v-3.28809l4.60919,-1.82019M2922.50835,678.47333v3.28809l-4.60919,1.82019v-3.25873l4.60919,-1.84955M2922.24413,649.409v3.02386l-3.84589,1.55597v-3.02386l3.84589,-1.55597M2922.24413,655.28058v2.99451l-3.84589,1.55597v-3.02386l3.84589,-1.52661M2922.24413,667.08246v3.02386l-3.84589,1.52661v-3.02386l3.84589,-1.52661M2922.24413,672.80725v2.99451l-3.84589,1.52661v-2.96515l3.84589,-1.55597M2928.52672,642.71539v4.31561l-5.07892,1.99634v-4.22754l5.07892,-2.08441M2928.52672,660.38885v4.28625l-5.07892,2.05505v-4.31561l5.07892,-2.0257M2928.52672,677.91553v4.28625l-5.07892,2.05505v-4.28625l5.07892,-2.05505M2928.29185,649.17413v3.61102l-4.34497,1.73212v-3.61102l4.34497,-1.73212M2928.29185,654.81085v3.61102l-4.34497,1.70276v-3.58167l4.34497,-1.73212M2928.29185,666.81824v3.66974l-4.34497,1.6734v-3.61102l4.34497,-1.73212M2928.29185,672.51367v3.66974l-4.34497,1.73212v-3.64038l4.34497,-1.76147M2934.72124,640.57227v5.87158l-5.46057,2.26056v-5.54865c1.87891,-1.02753 3.6991,-1.90826 5.46057,-2.5835M2934.72124,647.06036v5.07892l-5.46057,2.28992v-5.10828l5.46057,-2.26056M2934.72124,652.78516v5.16699l-5.46057,2.28992v-5.16699l5.46057,-2.28992M2934.72124,658.56866v5.13763l-5.46057,2.26056v-5.19635l5.46057,-2.20184M2934.72124,664.32281v5.25507l-5.46057,2.28992v-5.22571l5.46057,-2.31927M2934.72124,670.1944v5.13763l-5.46057,2.34863v-5.16699l5.46057,-2.31927M2934.72124,675.94855v5.48993c-2.14313,0.82202 -3.96332,1.61469 -5.46057,2.34863v-5.51929l5.46057,-2.31927M2962.87547,640.74841v41.24786c-3.49359,-2.31927 -7.83856,-3.46423 -13.06427,-3.46423c-4.31561,0 -9.15967,0.88074 -14.50281,2.67157v-5.578c2.84772,-1.08624 5.95966,-1.87891 9.36517,-2.34863v-13.41656c-2.87708,0.35229 -5.98901,1.35046 -9.36517,2.99451v-3.84589c2.90643,-1.35046 6.04773,-2.26056 9.36517,-2.75964v-13.09363c-2.99451,0.52844 -6.10645,1.55597 -9.36517,2.93579v-5.78351c4.75598,-2.0257 9.42389,-3.02386 13.97437,-3.02386c4.93213,0 9.45325,1.14496 13.59271,3.46423M2957.32683,644.35944c-2.2312,-1.20367 -4.84406,-1.73212 -8.01471,-1.73212c-0.38165,0 -0.73395,0.02936 -1.08624,0.05872v13.32849l1.20367,-0.02936c2.67157,0 5.31378,0.38165 7.89728,1.26239v-12.88812M2957.32683,661.06409c-2.37799,-1.05688 -5.04956,-1.58533 -7.95599,-1.58533c-0.38165,0 -0.76331,0.02936 -1.14496,0.05872v13.44592h1.20367c2.90643,0 5.54865,0.35229 7.89728,1.08624z" className="SFSymbolsPreviewWireframe"/></g>
  <g id="Regular-S"><path d="M1422.45415,641.10071v1.79083l-2.08441,0.88074v-1.79083l2.08441,-0.88074M1422.45415,658.53931v1.82019l-2.08441,0.85138v-1.73212l2.08441,-0.93945M1422.45415,676.24213v1.82019l-2.08441,0.85138v-1.73212l2.08441,-0.93945M1422.24865,646.94293v1.61469l-1.6734,0.76331v-1.58533l1.6734,-0.79266M1422.24865,652.78516v1.58533l-1.6734,0.76331v-1.58533l1.6734,-0.76331M1422.24865,664.61639v1.55597l-1.6734,0.76331v-1.58533l1.6734,-0.73395M1422.24865,670.54669v1.58533l-1.6734,0.76331v-1.55597l1.6734,-0.79266M1427.82665,642.09888v2.11377l-2.93579,1.08624v-2.14313l2.93579,-1.05688M1427.82665,659.77234v2.08441l-2.93579,1.08624v-2.08441l2.93579,-1.08624M1427.82665,677.50452v2.08441l-2.93579,1.17432v-2.08441l2.93579,-1.17432M1427.62114,648.20532v1.93762l-2.31927,0.88074v-1.99634l2.31927,-0.82202M1427.62114,654.10626v1.87891l-2.28992,0.88074v-1.96698l2.28992,-0.79266M1427.62114,665.87878v1.87891l-2.28992,0.9101v-1.93762l2.28992,-0.85138M1427.62114,671.80908v1.90826l-2.28992,0.9101v-1.93762l2.28992,-0.88074M1433.14043,643.41998v2.49542l-3.6991,1.43854v-2.46606l3.6991,-1.4679M1433.14043,661.09344v2.49542l-3.6991,1.43854v-2.46606l3.6991,-1.4679M1433.14043,678.62012v2.49542l-3.6991,1.4679v-2.49542l3.6991,-1.4679M1432.96428,649.55579v2.2312l-3.11194,1.17432v-2.14313l3.11194,-1.26239M1432.96428,655.42737v2.20184l-3.11194,1.23303v-2.20184l3.11194,-1.23303M1432.96428,667.19989v2.20184l-3.11194,1.26239v-2.20184l3.11194,-1.26239M1432.96428,672.92468v2.2312l-3.11194,1.23303v-2.20184l3.11194,-1.26239M1438.9533,643.27319v3.28809l-4.60919,1.82019v-3.25873l4.60919,-1.84955M1438.9533,660.94666v3.31744l-4.60919,1.79083v-3.28809l4.60919,-1.82019M1438.9533,678.47333v3.28809l-4.60919,1.82019v-3.25873l4.60919,-1.84955M1438.68908,649.409v3.02386l-3.84589,1.55597v-3.02386l3.84589,-1.55597M1438.68908,655.28058v2.99451l-3.84589,1.55597v-3.02386l3.84589,-1.52661M1438.68908,667.08246v3.02386l-3.84589,1.52661v-3.02386l3.84589,-1.52661M1438.68908,672.80725v2.99451l-3.84589,1.52661v-2.96515l3.84589,-1.55597M1444.97167,642.71539v4.31561l-5.07892,1.99634v-4.22754l5.07892,-2.08441M1444.97167,660.38885v4.28625l-5.07892,2.05505v-4.31561l5.07892,-2.0257M1444.97167,677.91553v4.28625l-5.07892,2.05505v-4.28625l5.07892,-2.05505M1444.73681,649.17413v3.61102l-4.34497,1.73212v-3.61102l4.34497,-1.73212M1444.73681,654.81085v3.61102l-4.34497,1.70276v-3.58167l4.34497,-1.73212M1444.73681,666.81824v3.66974l-4.34497,1.6734v-3.61102l4.34497,-1.73212M1444.73681,672.51367v3.66974l-4.34497,1.73212v-3.64038l4.34497,-1.76147M1451.16619,640.57227v5.87158l-5.46057,2.26056v-5.54865c1.87891,-1.02753 3.6991,-1.90826 5.46057,-2.5835M1451.16619,647.06036v5.07892l-5.46057,2.28992v-5.10828l5.46057,-2.26056M1451.16619,652.78516v5.16699l-5.46057,2.28992v-5.16699l5.46057,-2.28992M1451.16619,658.56866v5.13763l-5.46057,2.26056v-5.19635l5.46057,-2.20184M1451.16619,664.32281v5.25507l-5.46057,2.28992v-5.22571l5.46057,-2.31927M1451.16619,670.1944v5.13763l-5.46057,2.34863v-5.16699l5.46057,-2.31927M1451.16619,675.94855v5.48993c-2.14313,0.82202 -3.96332,1.61469 -5.46057,2.34863v-5.51929l5.46057,-2.31927M1479.32042,640.74841v41.24786c-3.49359,-2.31927 -7.83856,-3.46423 -13.06427,-3.46423c-4.31561,0 -9.15967,0.88074 -14.50281,2.67157v-5.578c2.84772,-1.08624 5.95966,-1.87891 9.36517,-2.34863v-13.41656c-2.87708,0.35229 -5.98901,1.35046 -9.36517,2.99451v-3.84589c2.90643,-1.35046 6.04773,-2.26056 9.36517,-2.75964v-13.09363c-2.99451,0.52844 -6.10645,1.55597 -9.36517,2.93579v-5.78351c4.75598,-2.0257 9.42389,-3.02386 13.97437,-3.02386c4.93213,0 9.45325,1.14496 13.59271,3.46423M1473.77178,644.35944c-2.2312,-1.20367 -4.84406,-1.73212 -8.01471,-1.73212c-0.38165,0 -0.73395,0.02936 -1.08624,0.05872v13.32849l1.20367,-0.02936c2.67157,0 5.31378,0.38165 7.89728,1.26239v-12.88812M1473.77178,661.06409c-2.37799,-1.05688 -5.04956,-1.58533 -7.95599,-1.58533c-0.38165,0 -0.76331,0.02936 -1.14496,0.05872v13.44592h1.20367c2.90643,0 5.54865,0.35229 7.89728,1.08624z" className="SFSymbolsPreviewWireframe"/></g>
  <g id="Ultralight-S"><path d="M532.32056,641.10071v1.79083l-2.08441,0.88074v-1.79083l2.08441,-0.88074M532.32056,658.53931v1.82019l-2.08441,0.85138v-1.73212l2.08441,-0.93945M532.32056,676.24213v1.82019l-2.08441,0.85138v-1.73212l2.08441,-0.93945M532.11506,646.94293v1.61469l-1.6734,0.76331v-1.58533l1.6734,-0.79266M532.11506,652.78516v1.58533l-1.6734,0.76331v-1.58533l1.6734,-0.76331M532.11506,664.61639v1.55597l-1.6734,0.76331v-1.58533l1.6734,-0.73395M532.11506,670.54669v1.58533l-1.6734,0.76331v-1.55597l1.6734,-0.79266M537.69306,642.09888v2.11377l-2.93579,1.08624v-2.14313l2.93579,-1.05688M537.69306,659.77234v2.08441l-2.93579,1.08624v-2.08441l2.93579,-1.08624M537.69306,677.50452v2.08441l-2.93579,1.17432v-2.08441l2.93579,-1.17432M537.48755,648.20532v1.93762l-2.31927,0.88074v-1.99634l2.31927,-0.82202M537.48755,654.10626v1.87891l-2.28992,0.88074v-1.96698l2.28992,-0.79266M537.48755,665.87878v1.87891l-2.28992,0.9101v-1.93762l2.28992,-0.85138M537.48755,671.80908v1.90826l-2.28992,0.9101v-1.93762l2.28992,-0.88074M543.00684,643.41998v2.49542l-3.6991,1.43854v-2.46606l3.6991,-1.4679M543.00684,661.09344v2.49542l-3.6991,1.43854v-2.46606l3.6991,-1.4679M543.00684,678.62012v2.49542l-3.6991,1.4679v-2.49542l3.6991,-1.4679M542.83069,649.55579v2.2312l-3.11194,1.17432v-2.14313l3.11194,-1.26239M542.83069,655.42737v2.20184l-3.11194,1.23303v-2.20184l3.11194,-1.23303M542.83069,667.19989v2.20184l-3.11194,1.26239v-2.20184l3.11194,-1.26239M542.83069,672.92468v2.2312l-3.11194,1.23303v-2.20184l3.11194,-1.26239M548.81971,643.27319v3.28809l-4.60919,1.82019v-3.25873l4.60919,-1.84955M548.81971,660.94666v3.31744l-4.60919,1.79083v-3.28809l4.60919,-1.82019M548.81971,678.47333v3.28809l-4.60919,1.82019v-3.25873l4.60919,-1.84955M548.55549,649.409v3.02386l-3.84589,1.55597v-3.02386l3.84589,-1.55597M548.55549,655.28058v2.99451l-3.84589,1.55597v-3.02386l3.84589,-1.52661M548.55549,667.08246v3.02386l-3.84589,1.52661v-3.02386l3.84589,-1.52661M548.55549,672.80725v2.99451l-3.84589,1.52661v-2.96515l3.84589,-1.55597M554.83808,642.71539v4.31561l-5.07892,1.99634v-4.22754l5.07892,-2.08441M554.83808,660.38885v4.28625l-5.07892,2.05505v-4.31561l5.07892,-2.0257M554.83808,677.91553v4.28625l-5.07892,2.05505v-4.28625l5.07892,-2.05505M554.60322,649.17413v3.61102l-4.34497,1.73212v-3.61102l4.34497,-1.73212M554.60322,654.81085v3.61102l-4.34497,1.70276v-3.58167l4.34497,-1.73212M554.60322,666.81824v3.66974l-4.34497,1.6734v-3.61102l4.34497,-1.73212M554.60322,672.51367v3.66974l-4.34497,1.73212v-3.64038l4.34497,-1.76147M561.0326,640.57227v5.87158l-5.46057,2.26056v-5.54865c1.87891,-1.02753 3.6991,-1.90826 5.46057,-2.5835M561.0326,647.06036v5.07892l-5.46057,2.28992v-5.10828l5.46057,-2.26056M561.0326,652.78516v5.16699l-5.46057,2.28992v-5.16699l5.46057,-2.28992M561.0326,658.56866v5.13763l-5.46057,2.26056v-5.19635l5.46057,-2.20184M561.0326,664.32281v5.25507l-5.46057,2.28992v-5.22571l5.46057,-2.31927M561.0326,670.1944v5.13763l-5.46057,2.34863v-5.16699l5.46057,-2.31927M561.0326,675.94855v5.48993c-2.14313,0.82202 -3.96332,1.61469 -5.46057,2.34863v-5.51929l5.46057,-2.31927M589.18683,640.74841v41.24786c-3.49359,-2.31927 -7.83856,-3.46423 -13.06427,-3.46423c-4.31561,0 -9.15967,0.88074 -14.50281,2.67157v-5.578c2.84772,-1.08624 5.95966,-1.87891 9.36517,-2.34863v-13.41656c-2.87708,0.35229 -5.98901,1.35046 -9.36517,2.99451v-3.84589c2.90643,-1.35046 6.04773,-2.26056 9.36517,-2.75964v-13.09363c-2.99451,0.52844 -6.10645,1.55597 -9.36517,2.93579v-5.78351c4.75598,-2.0257 9.42389,-3.02386 13.97437,-3.02386c4.93213,0 9.45325,1.14496 13.59271,3.46423M583.63819,644.35944c-2.2312,-1.20367 -4.84406,-1.73212 -8.01471,-1.73212c-0.38165,0 -0.73395,0.02936 -1.08624,0.05872v13.32849l1.20367,-0.02936c2.67157,0 5.31378,0.38165 7.89728,1.26239v-12.88812M583.63819,661.06409c-2.37799,-1.05688 -5.04956,-1.58533 -7.95599,-1.58533c-0.38165,0 -0.76331,0.02936 -1.14496,0.05872v13.44592h1.20367c2.90643,0 5.54865,0.35229 7.89728,1.08624z" className="SFSymbolsPreviewWireframe"/></g>
 </g>
</svg>