<?xml version="1.0" encoding="UTF-8"?><!--Generator: SymbolKit.app--><!DOCTYPE svg PUBLIC "-//W3C//DTD SVG 1.1//EN" "http://www.w3.org/Graphics/SVG/1.1/DTD/svg11.dtd"><svg xmlns="http://www.w3.org/2000/svg" xmlns:xlink="http://www.w3.org/1999/xlink" version="1.1" viewBox="0 0 3300 2200">
 <!--glyph: "100092", point size: 100.0, font version: "20.0d10e1", template writer version: "138.0.0"-->
 <style>.SFSymbolsPreviewWireframe {fill:none;opacity:1.0;stroke:black;stroke-width:0.5}
</style>
 <g id="Notes">
  <rect height="2200" id="artboard" style="fill:white;opacity:1" width="3300" x="0" y="0"/>
  <line style="fill:none;stroke:black;opacity:1;stroke-width:0.5;" x1="263" x2="3036" y1="292" y2="292"/>
  <text style="stroke:none;fill:black;font-family:sans-serif;font-size:13;font-weight:bold;" transform="matrix(1 0 0 1 263 322)">Weight/Scale Variations</text>
  <text style="stroke:none;fill:black;font-family:sans-serif;font-size:13;text-anchor:middle;" transform="matrix(1 0 0 1 559.711 322)">Ultralight</text>
  <text style="stroke:none;fill:black;font-family:sans-serif;font-size:13;text-anchor:middle;" transform="matrix(1 0 0 1 856.422 322)">Thin</text>
  <text style="stroke:none;fill:black;font-family:sans-serif;font-size:13;text-anchor:middle;" transform="matrix(1 0 0 1 1153.13 322)">Light</text>
  <text style="stroke:none;fill:black;font-family:sans-serif;font-size:13;text-anchor:middle;" transform="matrix(1 0 0 1 1449.84 322)">Regular</text>
  <text style="stroke:none;fill:black;font-family:sans-serif;font-size:13;text-anchor:middle;" transform="matrix(1 0 0 1 1746.56 322)">Medium</text>
  <text style="stroke:none;fill:black;font-family:sans-serif;font-size:13;text-anchor:middle;" transform="matrix(1 0 0 1 2043.27 322)">Semibold</text>
  <text style="stroke:none;fill:black;font-family:sans-serif;font-size:13;text-anchor:middle;" transform="matrix(1 0 0 1 2339.98 322)">Bold</text>
  <text style="stroke:none;fill:black;font-family:sans-serif;font-size:13;text-anchor:middle;" transform="matrix(1 0 0 1 2636.69 322)">Heavy</text>
  <text style="stroke:none;fill:black;font-family:sans-serif;font-size:13;text-anchor:middle;" transform="matrix(1 0 0 1 2933.4 322)">Black</text>
  <line style="fill:none;stroke:black;opacity:1;stroke-width:0.5;" x1="263" x2="3036" y1="1903" y2="1903"/>
  <g transform="matrix(0.2 0 0 0.2 263 1933)">
   <path d="m46.2402 4.15039c21.7773 0 39.4531-17.627 39.4531-39.4043s-17.6758-39.4043-39.4531-39.4043c-21.7285 0-39.4043 17.627-39.4043 39.4043s17.6758 39.4043 39.4043 39.4043Zm0-7.42188c-17.6758 0-31.9336-14.3066-31.9336-31.9824s14.2578-31.9824 31.9336-31.9824 31.9824 14.3066 31.9824 31.9824-14.3066 31.9824-31.9824 31.9824Zm-17.9688-31.9824c0 2.14844 1.51367 3.61328 3.75977 3.61328h10.498v10.5957c0 2.19727 1.46484 3.71094 3.61328 3.71094 2.24609 0 3.71094-1.51367 3.71094-3.71094v-10.5957h10.5957c2.19727 0 3.71094-1.46484 3.71094-3.61328 0-2.19727-1.51367-3.71094-3.71094-3.71094h-10.5957v-10.5469c0-2.24609-1.46484-3.75977-3.71094-3.75977-2.14844 0-3.61328 1.51367-3.61328 3.75977v10.5469h-10.498c-2.24609 0-3.75977 1.51367-3.75977 3.71094Z"/>
  </g>
  <g transform="matrix(0.2 0 0 0.2 281.506 1933)">
   <path d="m58.5449 14.5508c27.4902 0 49.8047-22.3145 49.8047-49.8047s-22.3145-49.8047-49.8047-49.8047-49.8047 22.3145-49.8047 49.8047 22.3145 49.8047 49.8047 49.8047Zm0-8.30078c-22.9492 0-41.5039-18.5547-41.5039-41.5039s18.5547-41.5039 41.5039-41.5039 41.5039 18.5547 41.5039 41.5039-18.5547 41.5039-41.5039 41.5039Zm-22.6562-41.5039c0 2.39258 1.66016 4.00391 4.15039 4.00391h14.3555v14.4043c0 2.44141 1.66016 4.15039 4.05273 4.15039 2.44141 0 4.15039-1.66016 4.15039-4.15039v-14.4043h14.4043c2.44141 0 4.15039-1.61133 4.15039-4.00391 0-2.44141-1.70898-4.15039-4.15039-4.15039h-14.4043v-14.3555c0-2.49023-1.70898-4.19922-4.15039-4.19922-2.39258 0-4.05273 1.70898-4.05273 4.19922v14.3555h-14.3555c-2.49023 0-4.15039 1.70898-4.15039 4.15039Z"/>
  </g>
  <g transform="matrix(0.2 0 0 0.2 304.924 1933)">
   <path d="m74.8535 28.3203c35.1074 0 63.623-28.4668 63.623-63.5742s-28.5156-63.623-63.623-63.623-63.5742 28.5156-63.5742 63.623 28.4668 63.5742 63.5742 63.5742Zm0-9.08203c-30.127 0-54.4922-24.3652-54.4922-54.4922s24.3652-54.4922 54.4922-54.4922 54.4922 24.3652 54.4922 54.4922-24.3652 54.4922-54.4922 54.4922Zm-28.8574-54.4922c0 2.58789 1.85547 4.39453 4.58984 4.39453h19.7266v19.7754c0 2.68555 1.85547 4.58984 4.44336 4.58984 2.68555 0 4.54102-1.85547 4.54102-4.58984v-19.7754h19.7754c2.68555 0 4.58984-1.80664 4.58984-4.39453 0-2.73438-1.85547-4.58984-4.58984-4.58984h-19.7754v-19.7266c0-2.73438-1.85547-4.63867-4.54102-4.63867-2.58789 0-4.44336 1.9043-4.44336 4.63867v19.7266h-19.7266c-2.73438 0-4.58984 1.85547-4.58984 4.58984Z"/>
  </g>
  <text style="stroke:none;fill:black;font-family:sans-serif;font-size:13;font-weight:bold;" transform="matrix(1 0 0 1 263 1953)">Design Variations</text>
  <text style="stroke:none;fill:black;font-family:sans-serif;font-size:13;" transform="matrix(1 0 0 1 263 1971)">Symbols are supported in up to nine weights and three scales.</text>
  <text style="stroke:none;fill:black;font-family:sans-serif;font-size:13;" transform="matrix(1 0 0 1 263 1989)">For optimal layout with text and other symbols, vertically align</text>
  <text style="stroke:none;fill:black;font-family:sans-serif;font-size:13;" transform="matrix(1 0 0 1 263 2007)">symbols with the adjacent text.</text>
  <line style="fill:none;stroke:#00AEEF;stroke-width:0.5;opacity:1.0;" x1="776" x2="776" y1="1919" y2="1933"/>
  <g transform="matrix(0.2 0 0 0.2 776 1933)">
   <path d="m16.5527 0.78125c2.58789 0 3.85742-0.976562 4.78516-3.71094l6.29883-17.2363h28.8086l6.29883 17.2363c0.927734 2.73438 2.19727 3.71094 4.73633 3.71094 2.58789 0 4.24805-1.5625 4.24805-4.00391 0-0.830078-0.146484-1.61133-0.537109-2.63672l-22.9004-60.9863c-1.12305-2.97852-3.125-4.49219-6.25-4.49219-3.02734 0-5.07812 1.46484-6.15234 4.44336l-22.9004 61.084c-0.390625 1.02539-0.537109 1.80664-0.537109 2.63672 0 2.44141 1.5625 3.95508 4.10156 3.95508Zm13.4766-28.3691 11.8652-32.8613h0.244141l11.8652 32.8613Z"/>
  </g>
  <line style="fill:none;stroke:#00AEEF;stroke-width:0.5;opacity:1.0;" x1="792.836" x2="792.836" y1="1919" y2="1933"/>
  <text style="stroke:none;fill:black;font-family:sans-serif;font-size:13;font-weight:bold;" transform="matrix(1 0 0 1 776 1953)">Margins</text>
  <text style="stroke:none;fill:black;font-family:sans-serif;font-size:13;" transform="matrix(1 0 0 1 776 1971)">Leading and trailing margins on the left and right side of each symbol</text>
  <text style="stroke:none;fill:black;font-family:sans-serif;font-size:13;" transform="matrix(1 0 0 1 776 1989)">can be adjusted by modifying the x-location of the margin guidelines.</text>
  <text style="stroke:none;fill:black;font-family:sans-serif;font-size:13;" transform="matrix(1 0 0 1 776 2007)">Modifications are automatically applied proportionally to all</text>
  <text style="stroke:none;fill:black;font-family:sans-serif;font-size:13;" transform="matrix(1 0 0 1 776 2025)">scales and weights.</text>
  <g transform="matrix(0.2 0 0 0.2 1289 1933)">
   <path d="m14.209 9.32617 8.49609 8.54492c4.29688 4.3457 9.22852 4.05273 13.8672-1.07422l53.4668-58.9355-4.83398-4.88281-53.0762 58.3984c-1.75781 2.00195-3.41797 2.49023-5.76172 0.146484l-5.85938-5.81055c-2.34375-2.29492-1.80664-4.00391 0.195312-5.81055l57.373-54.0039-4.88281-4.83398-57.959 54.4434c-4.93164 4.58984-5.32227 9.47266-1.02539 13.8184Zm32.0801-90.9668c-2.09961 2.05078-2.24609 4.93164-1.07422 6.88477 1.17188 1.80664 3.4668 2.97852 6.68945 2.14844 7.32422-1.70898 14.9414-2.00195 22.0703 2.68555l-2.92969 7.27539c-1.70898 4.15039-0.830078 7.08008 1.85547 9.81445l11.4746 11.5723c2.44141 2.44141 4.49219 2.53906 7.32422 2.05078l5.32227-0.976562 3.32031 3.36914-0.195312 2.7832c-0.195312 2.49023 0.439453 4.39453 2.88086 6.78711l3.80859 3.71094c2.39258 2.39258 5.46875 2.53906 7.8125 0.195312l14.5508-14.5996c2.34375-2.34375 2.24609-5.32227-0.146484-7.71484l-3.85742-3.80859c-2.39258-2.39258-4.24805-3.17383-6.64062-2.97852l-2.88086 0.244141-3.22266-3.17383 1.2207-5.61523c0.634766-2.83203-0.146484-5.0293-3.07617-7.95898l-10.9863-10.9375c-16.6992-16.6016-38.8672-16.2109-53.3203-1.75781Zm7.4707 1.85547c12.1582-8.88672 28.6133-7.37305 39.7461 3.75977l12.1582 12.0605c1.17188 1.17188 1.36719 2.09961 1.02539 3.80859l-1.61133 7.42188 7.51953 7.42188 4.93164-0.292969c1.26953-0.0488281 1.66016 0.0488281 2.63672 1.02539l2.88086 2.88086-12.207 12.207-2.88086-2.88086c-0.976562-0.976562-1.12305-1.36719-1.07422-2.68555l0.341797-4.88281-7.4707-7.42188-7.61719 1.26953c-1.61133 0.341797-2.34375 0.195312-3.56445-0.976562l-10.0098-10.0098c-1.26953-1.17188-1.41602-2.00195-0.634766-3.85742l4.39453-10.4492c-7.8125-7.27539-17.9688-10.4004-28.125-7.42188-0.78125 0.195312-1.07422-0.439453-0.439453-0.976562Z"/>
  </g>
  <text style="stroke:none;fill:black;font-family:sans-serif;font-size:13;font-weight:bold;" transform="matrix(1 0 0 1 1289 1953)">Exporting</text>
  <text style="stroke:none;fill:black;font-family:sans-serif;font-size:13;" transform="matrix(1 0 0 1 1289 1971)">Symbols should be outlined when exporting to ensure the</text>
  <text style="stroke:none;fill:black;font-family:sans-serif;font-size:13;" transform="matrix(1 0 0 1 1289 1989)">design is preserved when submitting to Xcode.</text>
  <text id="template-version" style="stroke:none;fill:black;font-family:sans-serif;font-size:13;text-anchor:end;" transform="matrix(1 0 0 1 3036 1933)">Template v.6.0</text>
  <text style="stroke:none;fill:black;font-family:sans-serif;font-size:13;text-anchor:end;" transform="matrix(1 0 0 1 3036 1951)">Requires Xcode 16 or greater</text>
  <text id="descriptive-name" style="stroke:none;fill:black;font-family:sans-serif;font-size:13;text-anchor:end;" transform="matrix(1 0 0 1 3036 1969)">Generated from square</text>
  <text style="stroke:none;fill:black;font-family:sans-serif;font-size:13;text-anchor:end;" transform="matrix(1 0 0 1 3036 1987)">Typeset at 100.0 points</text>
  <text style="stroke:none;fill:black;font-family:sans-serif;font-size:13;" transform="matrix(1 0 0 1 263 726)">Small</text>
  <text style="stroke:none;fill:black;font-family:sans-serif;font-size:13;" transform="matrix(1 0 0 1 263 1156)">Medium</text>
  <text style="stroke:none;fill:black;font-family:sans-serif;font-size:13;" transform="matrix(1 0 0 1 263 1586)">Large</text>
 </g>
 <g id="Guides">
  <g id="H-reference" style="fill:#27AAE1;stroke:none;" transform="matrix(1 0 0 1 339 696)">
   <path d="M0.993654 0L3.63775 0L29.3281-67.1323L30.0303-67.1323L30.0303-70.459L28.1226-70.459ZM11.6885-24.4799L46.9815-24.4799L46.2315-26.7285L12.4385-26.7285ZM55.1196 0L57.7637 0L30.6382-70.459L29.4326-70.459L29.4326-67.1323Z"/>
  </g>
  <line id="Baseline-S" style="fill:none;stroke:#27AAE1;opacity:1;stroke-width:0.5;" x1="263" x2="3036" y1="696" y2="696"/>
  <line id="Capline-S" style="fill:none;stroke:#27AAE1;opacity:1;stroke-width:0.5;" x1="263" x2="3036" y1="625.541" y2="625.541"/>
  <g id="H-reference" style="fill:#27AAE1;stroke:none;" transform="matrix(1 0 0 1 339 1126)">
   <path d="M0.993654 0L3.63775 0L29.3281-67.1323L30.0303-67.1323L30.0303-70.459L28.1226-70.459ZM11.6885-24.4799L46.9815-24.4799L46.2315-26.7285L12.4385-26.7285ZM55.1196 0L57.7637 0L30.6382-70.459L29.4326-70.459L29.4326-67.1323Z"/>
  </g>
  <line id="Baseline-M" style="fill:none;stroke:#27AAE1;opacity:1;stroke-width:0.5;" x1="263" x2="3036" y1="1126" y2="1126"/>
  <line id="Capline-M" style="fill:none;stroke:#27AAE1;opacity:1;stroke-width:0.5;" x1="263" x2="3036" y1="1055.54" y2="1055.54"/>
  <g id="H-reference" style="fill:#27AAE1;stroke:none;" transform="matrix(1 0 0 1 339 1556)">
   <path d="M0.993654 0L3.63775 0L29.3281-67.1323L30.0303-67.1323L30.0303-70.459L28.1226-70.459ZM11.6885-24.4799L46.9815-24.4799L46.2315-26.7285L12.4385-26.7285ZM55.1196 0L57.7637 0L30.6382-70.459L29.4326-70.459L29.4326-67.1323Z"/>
  </g>
  <line id="Baseline-L" style="fill:none;stroke:#27AAE1;opacity:1;stroke-width:0.5;" x1="263" x2="3036" y1="1556" y2="1556"/>
  <line id="Capline-L" style="fill:none;stroke:#27AAE1;opacity:1;stroke-width:0.5;" x1="263" x2="3036" y1="1485.54" y2="1485.54"/>
  <line id="right-margin-Black-S" style="fill:none;stroke:#00AEEF;stroke-width:0.5;opacity:1.0;" x1="2981.3" x2="2981.3" y1="600.785" y2="720.121"/>
  <line id="left-margin-Black-S" style="fill:none;stroke:#00AEEF;stroke-width:0.5;opacity:1.0;" x1="2885.5" x2="2885.5" y1="600.785" y2="720.121"/>
  <line id="right-margin-Regular-S" style="fill:none;stroke:#00AEEF;stroke-width:0.5;opacity:1.0;" x1="1495.18" x2="1495.18" y1="600.785" y2="720.121"/>
  <line id="left-margin-Regular-S" style="fill:none;stroke:#00AEEF;stroke-width:0.5;opacity:1.0;" x1="1404.51" x2="1404.51" y1="600.785" y2="720.121"/>
  <line id="right-margin-Ultralight-S" style="fill:none;stroke:#00AEEF;stroke-width:0.5;opacity:1.0;" x1="603.073" x2="603.073" y1="600.785" y2="720.121"/>
  <line id="left-margin-Ultralight-S" style="fill:none;stroke:#00AEEF;stroke-width:0.5;opacity:1.0;" x1="516.35" x2="516.35" y1="600.785" y2="720.121"/>
 </g>
 <g id="Symbols">
  <g id="Black-S"><path d="M2923.18829,628.56502c-1.31817,0.13798 -2.98864,0.67523 -4.17469,1.33872c-3.1912,1.78203 -5.22571,4.58571 -5.97727,8.22609c-0.04991,0.25248 -0.28184,0.42863 -1.19487,0.9189c-3.9046,2.08441 -6.57324,5.67195 -7.5215,10.10206c-0.15853,0.73982 -0.21138,1.48551 -0.20844,2.87708c0.00587,1.87303 0.13211,2.77726 0.59009,4.1835l0.17615,0.54019l-0.81615,1.08624c-2.89175,3.85176 -3.71378,8.91013 -2.18423,13.46354c0.76331,2.28405 1.83193,3.96038 3.69616,5.81287l1.37395,1.36808l0.0822,1.0745c0.25541,3.41726 1.96111,6.99893 4.45359,9.36811c4.06313,3.86057 9.80554,5.12589 14.97253,3.30276c2.28698,-0.80734 3.91341,-1.84661 5.68663,-3.63451l1.26239,-1.27413l1.26239,1.27413c0.69578,0.70165 1.65872,1.53835 2.14313,1.86129c5.9303,3.95157 13.39601,3.33506 18.51603,-1.52955c2.47781,-2.3545 4.19818,-5.96846 4.45359,-9.36224l0.0822,-1.08037l1.37395,-1.36808c2.87414,-2.8624 4.26277,-5.98021 4.43011,-9.9494c0.14092,-3.34093 -0.88661,-6.62314 -2.91818,-9.32701l-0.81615,-1.08624l0.17615,-0.54019c0.45798,-1.40624 0.58422,-2.31047 0.59009,-4.1835c0.00294,-1.39156 -0.04991,-2.13726 -0.20844,-2.87708c-0.95413,-4.46534 -3.64038,-8.0382 -7.63012,-10.16077c-0.81615,-0.4345 -1.03633,-0.60771 -1.08624,-0.85725c-0.75156,-3.64332 -2.78607,-6.447 -5.97727,-8.22902c-1.47083,-0.82496 -3.04735,-1.26533 -4.93213,-1.37982c-3.1912,-0.1967 -6.24736,0.90716 -8.66646,3.12662l-0.79266,0.72808l-0.79266,-0.72808c-2.58937,-2.37505 -5.90094,-3.45836 -9.42389,-3.08552M2926.0683,634.53642c2.11671,0.55193 3.88699,2.44258 4.27451,4.56516c0.16734,0.92477 0.17028,12.75895 0.00294,13.80703c-0.58716,3.66093 -3.13249,6.69948 -6.74645,8.05287c-1.24771,0.46679 -2.03744,1.74386 -1.90239,3.06497c0.1644,1.58239 1.60001,2.75377 3.17653,2.58937c1.04808,-0.10862 3.54056,-1.30643 4.94094,-2.37505c0.29651,-0.22606 0.56661,-0.41101 0.60184,-0.41101c0.03523,0 0.04697,3.60515 0.02349,8.01471c-0.04404,8.88077 -0.01174,8.49911 -0.84551,10.26646c-1.52955,3.24405 -4.89984,5.27268 -8.38168,5.04662c-3.11781,-0.20257 -5.90975,-1.97872 -7.27489,-4.62681c-0.7545,-1.46496 -0.76037,-1.41799 0.17615,-1.28881c1.31817,0.17908 2.49249,0.06165 3.13249,-0.31413c0.64,-0.37285 1.19193,-1.08037 1.37689,-1.76147c0.29064,-1.07744 -0.14092,-2.39267 -0.99817,-3.04735c-0.5989,-0.45505 -0.93945,-0.55486 -2.29285,-0.67523c-3.82534,-0.34055 -6.68186,-2.55707 -7.91196,-6.14755c-0.32881,-0.96294 -0.36404,-1.20074 -0.36697,-2.53065c-0.00294,-1.7556 0.17321,-2.53946 0.92184,-4.05139c0.78092,-1.58533 1.65285,-2.52772 3.37616,-3.66387c1.1978,-0.78973 1.67047,-1.54716 1.67047,-2.67744c0,-1.42679 -1.01285,-2.61579 -2.43377,-2.85946c-0.44624,-0.07633 -0.49028,-0.11743 -0.58716,-0.54899c-0.13211,-0.5989 -0.01761,-2.39267 0.20551,-3.22643c0.24073,-0.89542 1.13322,-2.64808 1.68808,-3.31451c0.25541,-0.30532 0.77505,-0.81909 1.15377,-1.14202l0.68698,-0.58716l0.3934,0.78973c0.71633,1.43854 1.58533,2.0668 2.83891,2.05505c2.14313,-0.02055 3.53469,-2.21652 2.6246,-4.1424c-0.77211,-1.63524 -0.98936,-2.83597 -0.75743,-4.1835c0.38165,-2.21065 2.09909,-4.09249 4.26864,-4.67672c0.82202,-0.22312 2.11083,-0.22312 2.96515,0M2943.65662,634.53054c2.76258,0.71927 4.66791,3.42607 4.3802,6.22681c-0.07927,0.79266 -0.33468,1.61469 -0.81909,2.63928c-0.9101,1.92588 0.48147,4.12185 2.6246,4.1424c1.25358,0.01174 2.12258,-0.61652 2.83891,-2.05505l0.3934,-0.78973l0.68698,0.58716c0.37872,0.32294 0.89835,0.8367 1.15377,1.14202c0.53725,0.64 1.53835,2.64515 1.72918,3.45836c0.19083,0.81028 0.28184,2.5424 0.1644,3.08258c-0.09688,0.43156 -0.14092,0.47266 -0.58716,0.54899c-1.4356,0.24661 -2.39267,1.35046 -2.42496,2.80074c-0.02349,1.16844 0.43743,1.92881 1.66166,2.73616c1.72331,1.13615 2.59524,2.08148 3.37616,3.66387c1.13322,2.29579 1.27707,4.57396 0.44037,6.91085c-1.18312,3.29396 -4.13066,5.49286 -7.79746,5.81874c-1.3534,0.12037 -1.69395,0.22018 -2.29285,0.67523c-0.85725,0.65468 -1.28881,1.96992 -0.99817,3.04735c0.18495,0.6811 0.73688,1.38863 1.37689,1.76147c0.64,0.37578 1.81432,0.49321 3.13249,0.31413c0.93652,-0.12917 0.93065,-0.17615 0.17615,1.28881c-0.77211,1.50019 -2.26056,2.95047 -3.80185,3.71378c-4.44185,2.19597 -9.74095,0.34642 -11.85472,-4.13359c-0.83376,-1.76735 -0.80147,-1.38569 -0.84551,-10.26646c-0.02349,-4.40956 -0.01174,-8.01471 0.02349,-8.01471c0.03523,0 0.30532,0.18495 0.60184,0.41101c1.39744,1.06569 3.89286,2.26643 4.93506,2.37505c1.29175,0.13211 2.61285,-0.69872 3.02386,-1.90533c0.57542,-1.69395 -0.1967,-3.13542 -2.09615,-3.90167c-1.48257,-0.5989 -2.38386,-1.189 -3.4613,-2.26937c-1.56478,-1.56771 -2.59818,-3.54937 -2.93286,-5.63085c-0.07339,-0.46092 -0.1233,-3.24992 -0.1233,-7.02241c0,-5.24919 0.02936,-6.38828 0.18202,-7.06351c0.44624,-1.96404 2.18423,-3.74607 4.16589,-4.28038c0.84257,-0.22606 2.12845,-0.23193 2.96808,-0.01174" className="SFSymbolsPreviewWireframe"/></g>
  <g id="Regular-S"><path d="M1439.63324,628.56502c-1.31817,0.13798 -2.98864,0.67523 -4.17469,1.33872c-3.1912,1.78203 -5.22571,4.58571 -5.97727,8.22609c-0.04991,0.25248 -0.28184,0.42863 -1.19487,0.9189c-3.9046,2.08441 -6.57324,5.67195 -7.5215,10.10206c-0.15853,0.73982 -0.21138,1.48551 -0.20844,2.87708c0.00587,1.87303 0.13211,2.77726 0.59009,4.1835l0.17615,0.54019l-0.81615,1.08624c-2.89175,3.85176 -3.71378,8.91013 -2.18423,13.46354c0.76331,2.28405 1.83193,3.96038 3.69616,5.81287l1.37395,1.36808l0.0822,1.0745c0.25541,3.41726 1.96111,6.99893 4.45359,9.36811c4.06313,3.86057 9.80554,5.12589 14.97253,3.30276c2.28698,-0.80734 3.91341,-1.84661 5.68663,-3.63451l1.26239,-1.27413l1.26239,1.27413c0.69578,0.70165 1.65872,1.53835 2.14313,1.86129c5.9303,3.95157 13.39601,3.33506 18.51603,-1.52955c2.47781,-2.3545 4.19818,-5.96846 4.45359,-9.36224l0.0822,-1.08037l1.37395,-1.36808c2.87414,-2.8624 4.26277,-5.98021 4.43011,-9.9494c0.14092,-3.34093 -0.88661,-6.62314 -2.91818,-9.32701l-0.81615,-1.08624l0.17615,-0.54019c0.45798,-1.40624 0.58422,-2.31047 0.59009,-4.1835c0.00294,-1.39156 -0.04991,-2.13726 -0.20844,-2.87708c-0.95413,-4.46534 -3.64038,-8.0382 -7.63012,-10.16077c-0.81615,-0.4345 -1.03633,-0.60771 -1.08624,-0.85725c-0.75156,-3.64332 -2.78607,-6.447 -5.97727,-8.22902c-1.47083,-0.82496 -3.04735,-1.26533 -4.93213,-1.37982c-3.1912,-0.1967 -6.24736,0.90716 -8.66646,3.12662l-0.79266,0.72808l-0.79266,-0.72808c-2.58937,-2.37505 -5.90094,-3.45836 -9.42389,-3.08552M1442.51325,634.53642c2.11671,0.55193 3.88699,2.44258 4.27451,4.56516c0.16734,0.92477 0.17028,12.75895 0.00294,13.80703c-0.58716,3.66093 -3.13249,6.69948 -6.74645,8.05287c-1.24771,0.46679 -2.03744,1.74386 -1.90239,3.06497c0.1644,1.58239 1.60001,2.75377 3.17653,2.58937c1.04808,-0.10862 3.54056,-1.30643 4.94094,-2.37505c0.29651,-0.22606 0.56661,-0.41101 0.60184,-0.41101c0.03523,0 0.04697,3.60515 0.02349,8.01471c-0.04404,8.88077 -0.01174,8.49911 -0.84551,10.26646c-1.52955,3.24405 -4.89984,5.27268 -8.38168,5.04662c-3.11781,-0.20257 -5.90975,-1.97872 -7.27489,-4.62681c-0.7545,-1.46496 -0.76037,-1.41799 0.17615,-1.28881c1.31817,0.17908 2.49249,0.06165 3.13249,-0.31413c0.64,-0.37285 1.19193,-1.08037 1.37689,-1.76147c0.29064,-1.07744 -0.14092,-2.39267 -0.99817,-3.04735c-0.5989,-0.45505 -0.93945,-0.55486 -2.29285,-0.67523c-3.82534,-0.34055 -6.68186,-2.55707 -7.91196,-6.14755c-0.32881,-0.96294 -0.36404,-1.20074 -0.36697,-2.53065c-0.00294,-1.7556 0.17321,-2.53946 0.92184,-4.05139c0.78092,-1.58533 1.65285,-2.52772 3.37616,-3.66387c1.1978,-0.78973 1.67047,-1.54716 1.67047,-2.67744c0,-1.42679 -1.01285,-2.61579 -2.43377,-2.85946c-0.44624,-0.07633 -0.49028,-0.11743 -0.58716,-0.54899c-0.13211,-0.5989 -0.01761,-2.39267 0.20551,-3.22643c0.24073,-0.89542 1.13322,-2.64808 1.68808,-3.31451c0.25541,-0.30532 0.77505,-0.81909 1.15377,-1.14202l0.68698,-0.58716l0.3934,0.78973c0.71633,1.43854 1.58533,2.0668 2.83891,2.05505c2.14313,-0.02055 3.53469,-2.21652 2.6246,-4.1424c-0.77211,-1.63524 -0.98936,-2.83597 -0.75743,-4.1835c0.38165,-2.21065 2.09909,-4.09249 4.26864,-4.67672c0.82202,-0.22312 2.11083,-0.22312 2.96515,0M1460.10157,634.53054c2.76258,0.71927 4.66791,3.42607 4.3802,6.22681c-0.07927,0.79266 -0.33468,1.61469 -0.81909,2.63928c-0.9101,1.92588 0.48147,4.12185 2.6246,4.1424c1.25358,0.01174 2.12258,-0.61652 2.83891,-2.05505l0.3934,-0.78973l0.68698,0.58716c0.37872,0.32294 0.89835,0.8367 1.15377,1.14202c0.53725,0.64 1.53835,2.64515 1.72918,3.45836c0.19083,0.81028 0.28184,2.5424 0.1644,3.08258c-0.09688,0.43156 -0.14092,0.47266 -0.58716,0.54899c-1.4356,0.24661 -2.39267,1.35046 -2.42496,2.80074c-0.02349,1.16844 0.43743,1.92881 1.66166,2.73616c1.72331,1.13615 2.59524,2.08148 3.37616,3.66387c1.13322,2.29579 1.27707,4.57396 0.44037,6.91085c-1.18312,3.29396 -4.13066,5.49286 -7.79746,5.81874c-1.3534,0.12037 -1.69395,0.22018 -2.29285,0.67523c-0.85725,0.65468 -1.28881,1.96992 -0.99817,3.04735c0.18495,0.6811 0.73688,1.38863 1.37689,1.76147c0.64,0.37578 1.81432,0.49321 3.13249,0.31413c0.93652,-0.12917 0.93065,-0.17615 0.17615,1.28881c-0.77211,1.50019 -2.26056,2.95047 -3.80185,3.71378c-4.44185,2.19597 -9.74095,0.34642 -11.85472,-4.13359c-0.83376,-1.76735 -0.80147,-1.38569 -0.84551,-10.26646c-0.02349,-4.40956 -0.01174,-8.01471 0.02349,-8.01471c0.03523,0 0.30532,0.18495 0.60184,0.41101c1.39744,1.06569 3.89286,2.26643 4.93506,2.37505c1.29175,0.13211 2.61285,-0.69872 3.02386,-1.90533c0.57542,-1.69395 -0.1967,-3.13542 -2.09615,-3.90167c-1.48257,-0.5989 -2.38386,-1.189 -3.4613,-2.26937c-1.56478,-1.56771 -2.59818,-3.54937 -2.93286,-5.63085c-0.07339,-0.46092 -0.1233,-3.24992 -0.1233,-7.02241c0,-5.24919 0.02936,-6.38828 0.18202,-7.06351c0.44624,-1.96404 2.18423,-3.74607 4.16589,-4.28038c0.84257,-0.22606 2.12845,-0.23193 2.96808,-0.01174" className="SFSymbolsPreviewWireframe"/></g>
  <g id="Ultralight-S"><path d="M549.49965,628.56502c-1.31817,0.13798 -2.98864,0.67523 -4.17469,1.33872c-3.1912,1.78203 -5.22571,4.58571 -5.97727,8.22609c-0.04991,0.25248 -0.28184,0.42863 -1.19487,0.9189c-3.9046,2.08441 -6.57324,5.67195 -7.5215,10.10206c-0.15853,0.73982 -0.21138,1.48551 -0.20844,2.87708c0.00587,1.87303 0.13211,2.77726 0.59009,4.1835l0.17615,0.54019l-0.81615,1.08624c-2.89175,3.85176 -3.71378,8.91013 -2.18423,13.46354c0.76331,2.28405 1.83193,3.96038 3.69616,5.81287l1.37395,1.36808l0.0822,1.0745c0.25541,3.41726 1.96111,6.99893 4.45359,9.36811c4.06313,3.86057 9.80554,5.12589 14.97253,3.30276c2.28698,-0.80734 3.91341,-1.84661 5.68663,-3.63451l1.26239,-1.27413l1.26239,1.27413c0.69578,0.70165 1.65872,1.53835 2.14313,1.86129c5.9303,3.95157 13.39601,3.33506 18.51603,-1.52955c2.47781,-2.3545 4.19818,-5.96846 4.45359,-9.36224l0.0822,-1.08037l1.37395,-1.36808c2.87414,-2.8624 4.26277,-5.98021 4.43011,-9.9494c0.14092,-3.34093 -0.88661,-6.62314 -2.91818,-9.32701l-0.81615,-1.08624l0.17615,-0.54019c0.45798,-1.40624 0.58422,-2.31047 0.59009,-4.1835c0.00294,-1.39156 -0.04991,-2.13726 -0.20844,-2.87708c-0.95413,-4.46534 -3.64038,-8.0382 -7.63012,-10.16077c-0.81615,-0.4345 -1.03633,-0.60771 -1.08624,-0.85725c-0.75156,-3.64332 -2.78607,-6.447 -5.97727,-8.22902c-1.47083,-0.82496 -3.04735,-1.26533 -4.93213,-1.37982c-3.1912,-0.1967 -6.24736,0.90716 -8.66646,3.12662l-0.79266,0.72808l-0.79266,-0.72808c-2.58937,-2.37505 -5.90094,-3.45836 -9.42389,-3.08552M552.37966,634.53642c2.11671,0.55193 3.88699,2.44258 4.27451,4.56516c0.16734,0.92477 0.17028,12.75895 0.00294,13.80703c-0.58716,3.66093 -3.13249,6.69948 -6.74645,8.05287c-1.24771,0.46679 -2.03744,1.74386 -1.90239,3.06497c0.1644,1.58239 1.60001,2.75377 3.17653,2.58937c1.04808,-0.10862 3.54056,-1.30643 4.94094,-2.37505c0.29651,-0.22606 0.56661,-0.41101 0.60184,-0.41101c0.03523,0 0.04697,3.60515 0.02349,8.01471c-0.04404,8.88077 -0.01174,8.49911 -0.84551,10.26646c-1.52955,3.24405 -4.89984,5.27268 -8.38168,5.04662c-3.11781,-0.20257 -5.90975,-1.97872 -7.27489,-4.62681c-0.7545,-1.46496 -0.76037,-1.41799 0.17615,-1.28881c1.31817,0.17908 2.49249,0.06165 3.13249,-0.31413c0.64,-0.37285 1.19193,-1.08037 1.37689,-1.76147c0.29064,-1.07744 -0.14092,-2.39267 -0.99817,-3.04735c-0.5989,-0.45505 -0.93945,-0.55486 -2.29285,-0.67523c-3.82534,-0.34055 -6.68186,-2.55707 -7.91196,-6.14755c-0.32881,-0.96294 -0.36404,-1.20074 -0.36697,-2.53065c-0.00294,-1.7556 0.17321,-2.53946 0.92184,-4.05139c0.78092,-1.58533 1.65285,-2.52772 3.37616,-3.66387c1.1978,-0.78973 1.67047,-1.54716 1.67047,-2.67744c0,-1.42679 -1.01285,-2.61579 -2.43377,-2.85946c-0.44624,-0.07633 -0.49028,-0.11743 -0.58716,-0.54899c-0.13211,-0.5989 -0.01761,-2.39267 0.20551,-3.22643c0.24073,-0.89542 1.13322,-2.64808 1.68808,-3.31451c0.25541,-0.30532 0.77505,-0.81909 1.15377,-1.14202l0.68698,-0.58716l0.3934,0.78973c0.71633,1.43854 1.58533,2.0668 2.83891,2.05505c2.14313,-0.02055 3.53469,-2.21652 2.6246,-4.1424c-0.77211,-1.63524 -0.98936,-2.83597 -0.75743,-4.1835c0.38165,-2.21065 2.09909,-4.09249 4.26864,-4.67672c0.82202,-0.22312 2.11083,-0.22312 2.96515,0M569.96798,634.53054c2.76258,0.71927 4.66791,3.42607 4.3802,6.22681c-0.07927,0.79266 -0.33468,1.61469 -0.81909,2.63928c-0.9101,1.92588 0.48147,4.12185 2.6246,4.1424c1.25358,0.01174 2.12258,-0.61652 2.83891,-2.05505l0.3934,-0.78973l0.68698,0.58716c0.37872,0.32294 0.89835,0.8367 1.15377,1.14202c0.53725,0.64 1.53835,2.64515 1.72918,3.45836c0.19083,0.81028 0.28184,2.5424 0.1644,3.08258c-0.09688,0.43156 -0.14092,0.47266 -0.58716,0.54899c-1.4356,0.24661 -2.39267,1.35046 -2.42496,2.80074c-0.02349,1.16844 0.43743,1.92881 1.66166,2.73616c1.72331,1.13615 2.59524,2.08148 3.37616,3.66387c1.13322,2.29579 1.27707,4.57396 0.44037,6.91085c-1.18312,3.29396 -4.13066,5.49286 -7.79746,5.81874c-1.3534,0.12037 -1.69395,0.22018 -2.29285,0.67523c-0.85725,0.65468 -1.28881,1.96992 -0.99817,3.04735c0.18495,0.6811 0.73688,1.38863 1.37689,1.76147c0.64,0.37578 1.81432,0.49321 3.13249,0.31413c0.93652,-0.12917 0.93065,-0.17615 0.17615,1.28881c-0.77211,1.50019 -2.26056,2.95047 -3.80185,3.71378c-4.44185,2.19597 -9.74095,0.34642 -11.85472,-4.13359c-0.83376,-1.76735 -0.80147,-1.38569 -0.84551,-10.26646c-0.02349,-4.40956 -0.01174,-8.01471 0.02349,-8.01471c0.03523,0 0.30532,0.18495 0.60184,0.41101c1.39744,1.06569 3.89286,2.26643 4.93506,2.37505c1.29175,0.13211 2.61285,-0.69872 3.02386,-1.90533c0.57542,-1.69395 -0.1967,-3.13542 -2.09615,-3.90167c-1.48257,-0.5989 -2.38386,-1.189 -3.4613,-2.26937c-1.56478,-1.56771 -2.59818,-3.54937 -2.93286,-5.63085c-0.07339,-0.46092 -0.1233,-3.24992 -0.1233,-7.02241c0,-5.24919 0.02936,-6.38828 0.18202,-7.06351c0.44624,-1.96404 2.18423,-3.74607 4.16589,-4.28038c0.84257,-0.22606 2.12845,-0.23193 2.96808,-0.01174" className="SFSymbolsPreviewWireframe"/></g>
 </g>
</svg>