<?xml version="1.0" encoding="UTF-8"?><!--Generator: SymbolKit.app--><!DOCTYPE svg PUBLIC "-//W3C//DTD SVG 1.1//EN" "http://www.w3.org/Graphics/SVG/1.1/DTD/svg11.dtd"><svg xmlns="http://www.w3.org/2000/svg" xmlns:xlink="http://www.w3.org/1999/xlink" version="1.1" viewBox="0 0 3300 2200">
 <!--glyph: "100092", point size: 100.0, font version: "20.0d10e1", template writer version: "138.0.0"-->
 <style>.SFSymbolsPreviewWireframe {fill:none;opacity:1.0;stroke:black;stroke-width:0.5}
</style>
 <g id="Notes">
  <rect height="2200" id="artboard" style="fill:white;opacity:1" width="3300" x="0" y="0"/>
  <line style="fill:none;stroke:black;opacity:1;stroke-width:0.5;" x1="263" x2="3036" y1="292" y2="292"/>
  <text style="stroke:none;fill:black;font-family:sans-serif;font-size:13;font-weight:bold;" transform="matrix(1 0 0 1 263 322)">Weight/Scale Variations</text>
  <text style="stroke:none;fill:black;font-family:sans-serif;font-size:13;text-anchor:middle;" transform="matrix(1 0 0 1 559.711 322)">Ultralight</text>
  <text style="stroke:none;fill:black;font-family:sans-serif;font-size:13;text-anchor:middle;" transform="matrix(1 0 0 1 856.422 322)">Thin</text>
  <text style="stroke:none;fill:black;font-family:sans-serif;font-size:13;text-anchor:middle;" transform="matrix(1 0 0 1 1153.13 322)">Light</text>
  <text style="stroke:none;fill:black;font-family:sans-serif;font-size:13;text-anchor:middle;" transform="matrix(1 0 0 1 1449.84 322)">Regular</text>
  <text style="stroke:none;fill:black;font-family:sans-serif;font-size:13;text-anchor:middle;" transform="matrix(1 0 0 1 1746.56 322)">Medium</text>
  <text style="stroke:none;fill:black;font-family:sans-serif;font-size:13;text-anchor:middle;" transform="matrix(1 0 0 1 2043.27 322)">Semibold</text>
  <text style="stroke:none;fill:black;font-family:sans-serif;font-size:13;text-anchor:middle;" transform="matrix(1 0 0 1 2339.98 322)">Bold</text>
  <text style="stroke:none;fill:black;font-family:sans-serif;font-size:13;text-anchor:middle;" transform="matrix(1 0 0 1 2636.69 322)">Heavy</text>
  <text style="stroke:none;fill:black;font-family:sans-serif;font-size:13;text-anchor:middle;" transform="matrix(1 0 0 1 2933.4 322)">Black</text>
  <line style="fill:none;stroke:black;opacity:1;stroke-width:0.5;" x1="263" x2="3036" y1="1903" y2="1903"/>
  <g transform="matrix(0.2 0 0 0.2 263 1933)">
   <path d="m46.2402 4.15039c21.7773 0 39.4531-17.627 39.4531-39.4043s-17.6758-39.4043-39.4531-39.4043c-21.7285 0-39.4043 17.627-39.4043 39.4043s17.6758 39.4043 39.4043 39.4043Zm0-7.42188c-17.6758 0-31.9336-14.3066-31.9336-31.9824s14.2578-31.9824 31.9336-31.9824 31.9824 14.3066 31.9824 31.9824-14.3066 31.9824-31.9824 31.9824Zm-17.9688-31.9824c0 2.14844 1.51367 3.61328 3.75977 3.61328h10.498v10.5957c0 2.19727 1.46484 3.71094 3.61328 3.71094 2.24609 0 3.71094-1.51367 3.71094-3.71094v-10.5957h10.5957c2.19727 0 3.71094-1.46484 3.71094-3.61328 0-2.19727-1.51367-3.71094-3.71094-3.71094h-10.5957v-10.5469c0-2.24609-1.46484-3.75977-3.71094-3.75977-2.14844 0-3.61328 1.51367-3.61328 3.75977v10.5469h-10.498c-2.24609 0-3.75977 1.51367-3.75977 3.71094Z"/>
  </g>
  <g transform="matrix(0.2 0 0 0.2 281.506 1933)">
   <path d="m58.5449 14.5508c27.4902 0 49.8047-22.3145 49.8047-49.8047s-22.3145-49.8047-49.8047-49.8047-49.8047 22.3145-49.8047 49.8047 22.3145 49.8047 49.8047 49.8047Zm0-8.30078c-22.9492 0-41.5039-18.5547-41.5039-41.5039s18.5547-41.5039 41.5039-41.5039 41.5039 18.5547 41.5039 41.5039-18.5547 41.5039-41.5039 41.5039Zm-22.6562-41.5039c0 2.39258 1.66016 4.00391 4.15039 4.00391h14.3555v14.4043c0 2.44141 1.66016 4.15039 4.05273 4.15039 2.44141 0 4.15039-1.66016 4.15039-4.15039v-14.4043h14.4043c2.44141 0 4.15039-1.61133 4.15039-4.00391 0-2.44141-1.70898-4.15039-4.15039-4.15039h-14.4043v-14.3555c0-2.49023-1.70898-4.19922-4.15039-4.19922-2.39258 0-4.05273 1.70898-4.05273 4.19922v14.3555h-14.3555c-2.49023 0-4.15039 1.70898-4.15039 4.15039Z"/>
  </g>
  <g transform="matrix(0.2 0 0 0.2 304.924 1933)">
   <path d="m74.8535 28.3203c35.1074 0 63.623-28.4668 63.623-63.5742s-28.5156-63.623-63.623-63.623-63.5742 28.5156-63.5742 63.623 28.4668 63.5742 63.5742 63.5742Zm0-9.08203c-30.127 0-54.4922-24.3652-54.4922-54.4922s24.3652-54.4922 54.4922-54.4922 54.4922 24.3652 54.4922 54.4922-24.3652 54.4922-54.4922 54.4922Zm-28.8574-54.4922c0 2.58789 1.85547 4.39453 4.58984 4.39453h19.7266v19.7754c0 2.68555 1.85547 4.58984 4.44336 4.58984 2.68555 0 4.54102-1.85547 4.54102-4.58984v-19.7754h19.7754c2.68555 0 4.58984-1.80664 4.58984-4.39453 0-2.73438-1.85547-4.58984-4.58984-4.58984h-19.7754v-19.7266c0-2.73438-1.85547-4.63867-4.54102-4.63867-2.58789 0-4.44336 1.9043-4.44336 4.63867v19.7266h-19.7266c-2.73438 0-4.58984 1.85547-4.58984 4.58984Z"/>
  </g>
  <text style="stroke:none;fill:black;font-family:sans-serif;font-size:13;font-weight:bold;" transform="matrix(1 0 0 1 263 1953)">Design Variations</text>
  <text style="stroke:none;fill:black;font-family:sans-serif;font-size:13;" transform="matrix(1 0 0 1 263 1971)">Symbols are supported in up to nine weights and three scales.</text>
  <text style="stroke:none;fill:black;font-family:sans-serif;font-size:13;" transform="matrix(1 0 0 1 263 1989)">For optimal layout with text and other symbols, vertically align</text>
  <text style="stroke:none;fill:black;font-family:sans-serif;font-size:13;" transform="matrix(1 0 0 1 263 2007)">symbols with the adjacent text.</text>
  <line style="fill:none;stroke:#00AEEF;stroke-width:0.5;opacity:1.0;" x1="776" x2="776" y1="1919" y2="1933"/>
  <g transform="matrix(0.2 0 0 0.2 776 1933)">
   <path d="m16.5527 0.78125c2.58789 0 3.85742-0.976562 4.78516-3.71094l6.29883-17.2363h28.8086l6.29883 17.2363c0.927734 2.73438 2.19727 3.71094 4.73633 3.71094 2.58789 0 4.24805-1.5625 4.24805-4.00391 0-0.830078-0.146484-1.61133-0.537109-2.63672l-22.9004-60.9863c-1.12305-2.97852-3.125-4.49219-6.25-4.49219-3.02734 0-5.07812 1.46484-6.15234 4.44336l-22.9004 61.084c-0.390625 1.02539-0.537109 1.80664-0.537109 2.63672 0 2.44141 1.5625 3.95508 4.10156 3.95508Zm13.4766-28.3691 11.8652-32.8613h0.244141l11.8652 32.8613Z"/>
  </g>
  <line style="fill:none;stroke:#00AEEF;stroke-width:0.5;opacity:1.0;" x1="792.836" x2="792.836" y1="1919" y2="1933"/>
  <text style="stroke:none;fill:black;font-family:sans-serif;font-size:13;font-weight:bold;" transform="matrix(1 0 0 1 776 1953)">Margins</text>
  <text style="stroke:none;fill:black;font-family:sans-serif;font-size:13;" transform="matrix(1 0 0 1 776 1971)">Leading and trailing margins on the left and right side of each symbol</text>
  <text style="stroke:none;fill:black;font-family:sans-serif;font-size:13;" transform="matrix(1 0 0 1 776 1989)">can be adjusted by modifying the x-location of the margin guidelines.</text>
  <text style="stroke:none;fill:black;font-family:sans-serif;font-size:13;" transform="matrix(1 0 0 1 776 2007)">Modifications are automatically applied proportionally to all</text>
  <text style="stroke:none;fill:black;font-family:sans-serif;font-size:13;" transform="matrix(1 0 0 1 776 2025)">scales and weights.</text>
  <g transform="matrix(0.2 0 0 0.2 1289 1933)">
   <path d="m14.209 9.32617 8.49609 8.54492c4.29688 4.3457 9.22852 4.05273 13.8672-1.07422l53.4668-58.9355-4.83398-4.88281-53.0762 58.3984c-1.75781 2.00195-3.41797 2.49023-5.76172 0.146484l-5.85938-5.81055c-2.34375-2.29492-1.80664-4.00391 0.195312-5.81055l57.373-54.0039-4.88281-4.83398-57.959 54.4434c-4.93164 4.58984-5.32227 9.47266-1.02539 13.8184Zm32.0801-90.9668c-2.09961 2.05078-2.24609 4.93164-1.07422 6.88477 1.17188 1.80664 3.4668 2.97852 6.68945 2.14844 7.32422-1.70898 14.9414-2.00195 22.0703 2.68555l-2.92969 7.27539c-1.70898 4.15039-0.830078 7.08008 1.85547 9.81445l11.4746 11.5723c2.44141 2.44141 4.49219 2.53906 7.32422 2.05078l5.32227-0.976562 3.32031 3.36914-0.195312 2.7832c-0.195312 2.49023 0.439453 4.39453 2.88086 6.78711l3.80859 3.71094c2.39258 2.39258 5.46875 2.53906 7.8125 0.195312l14.5508-14.5996c2.34375-2.34375 2.24609-5.32227-0.146484-7.71484l-3.85742-3.80859c-2.39258-2.39258-4.24805-3.17383-6.64062-2.97852l-2.88086 0.244141-3.22266-3.17383 1.2207-5.61523c0.634766-2.83203-0.146484-5.0293-3.07617-7.95898l-10.9863-10.9375c-16.6992-16.6016-38.8672-16.2109-53.3203-1.75781Zm7.4707 1.85547c12.1582-8.88672 28.6133-7.37305 39.7461 3.75977l12.1582 12.0605c1.17188 1.17188 1.36719 2.09961 1.02539 3.80859l-1.61133 7.42188 7.51953 7.42188 4.93164-0.292969c1.26953-0.0488281 1.66016 0.0488281 2.63672 1.02539l2.88086 2.88086-12.207 12.207-2.88086-2.88086c-0.976562-0.976562-1.12305-1.36719-1.07422-2.68555l0.341797-4.88281-7.4707-7.42188-7.61719 1.26953c-1.61133 0.341797-2.34375 0.195312-3.56445-0.976562l-10.0098-10.0098c-1.26953-1.17188-1.41602-2.00195-0.634766-3.85742l4.39453-10.4492c-7.8125-7.27539-17.9688-10.4004-28.125-7.42188-0.78125 0.195312-1.07422-0.439453-0.439453-0.976562Z"/>
  </g>
  <text style="stroke:none;fill:black;font-family:sans-serif;font-size:13;font-weight:bold;" transform="matrix(1 0 0 1 1289 1953)">Exporting</text>
  <text style="stroke:none;fill:black;font-family:sans-serif;font-size:13;" transform="matrix(1 0 0 1 1289 1971)">Symbols should be outlined when exporting to ensure the</text>
  <text style="stroke:none;fill:black;font-family:sans-serif;font-size:13;" transform="matrix(1 0 0 1 1289 1989)">design is preserved when submitting to Xcode.</text>
  <text id="template-version" style="stroke:none;fill:black;font-family:sans-serif;font-size:13;text-anchor:end;" transform="matrix(1 0 0 1 3036 1933)">Template v.6.0</text>
  <text style="stroke:none;fill:black;font-family:sans-serif;font-size:13;text-anchor:end;" transform="matrix(1 0 0 1 3036 1951)">Requires Xcode 16 or greater</text>
  <text id="descriptive-name" style="stroke:none;fill:black;font-family:sans-serif;font-size:13;text-anchor:end;" transform="matrix(1 0 0 1 3036 1969)">Generated from square</text>
  <text style="stroke:none;fill:black;font-family:sans-serif;font-size:13;text-anchor:end;" transform="matrix(1 0 0 1 3036 1987)">Typeset at 100.0 points</text>
  <text style="stroke:none;fill:black;font-family:sans-serif;font-size:13;" transform="matrix(1 0 0 1 263 726)">Small</text>
  <text style="stroke:none;fill:black;font-family:sans-serif;font-size:13;" transform="matrix(1 0 0 1 263 1156)">Medium</text>
  <text style="stroke:none;fill:black;font-family:sans-serif;font-size:13;" transform="matrix(1 0 0 1 263 1586)">Large</text>
 </g>
 <g id="Guides">
  <g id="H-reference" style="fill:#27AAE1;stroke:none;" transform="matrix(1 0 0 1 339 696)">
   <path d="M0.993654 0L3.63775 0L29.3281-67.1323L30.0303-67.1323L30.0303-70.459L28.1226-70.459ZM11.6885-24.4799L46.9815-24.4799L46.2315-26.7285L12.4385-26.7285ZM55.1196 0L57.7637 0L30.6382-70.459L29.4326-70.459L29.4326-67.1323Z"/>
  </g>
  <line id="Baseline-S" style="fill:none;stroke:#27AAE1;opacity:1;stroke-width:0.5;" x1="263" x2="3036" y1="696" y2="696"/>
  <line id="Capline-S" style="fill:none;stroke:#27AAE1;opacity:1;stroke-width:0.5;" x1="263" x2="3036" y1="625.541" y2="625.541"/>
  <g id="H-reference" style="fill:#27AAE1;stroke:none;" transform="matrix(1 0 0 1 339 1126)">
   <path d="M0.993654 0L3.63775 0L29.3281-67.1323L30.0303-67.1323L30.0303-70.459L28.1226-70.459ZM11.6885-24.4799L46.9815-24.4799L46.2315-26.7285L12.4385-26.7285ZM55.1196 0L57.7637 0L30.6382-70.459L29.4326-70.459L29.4326-67.1323Z"/>
  </g>
  <line id="Baseline-M" style="fill:none;stroke:#27AAE1;opacity:1;stroke-width:0.5;" x1="263" x2="3036" y1="1126" y2="1126"/>
  <line id="Capline-M" style="fill:none;stroke:#27AAE1;opacity:1;stroke-width:0.5;" x1="263" x2="3036" y1="1055.54" y2="1055.54"/>
  <g id="H-reference" style="fill:#27AAE1;stroke:none;" transform="matrix(1 0 0 1 339 1556)">
   <path d="M0.993654 0L3.63775 0L29.3281-67.1323L30.0303-67.1323L30.0303-70.459L28.1226-70.459ZM11.6885-24.4799L46.9815-24.4799L46.2315-26.7285L12.4385-26.7285ZM55.1196 0L57.7637 0L30.6382-70.459L29.4326-70.459L29.4326-67.1323Z"/>
  </g>
  <line id="Baseline-L" style="fill:none;stroke:#27AAE1;opacity:1;stroke-width:0.5;" x1="263" x2="3036" y1="1556" y2="1556"/>
  <line id="Capline-L" style="fill:none;stroke:#27AAE1;opacity:1;stroke-width:0.5;" x1="263" x2="3036" y1="1485.54" y2="1485.54"/>
  <line id="right-margin-Black-S" style="fill:none;stroke:#00AEEF;stroke-width:0.5;opacity:1.0;" x1="2981.3" x2="2981.3" y1="600.785" y2="720.121"/>
  <line id="left-margin-Black-S" style="fill:none;stroke:#00AEEF;stroke-width:0.5;opacity:1.0;" x1="2885.5" x2="2885.5" y1="600.785" y2="720.121"/>
  <line id="right-margin-Regular-S" style="fill:none;stroke:#00AEEF;stroke-width:0.5;opacity:1.0;" x1="1495.18" x2="1495.18" y1="600.785" y2="720.121"/>
  <line id="left-margin-Regular-S" style="fill:none;stroke:#00AEEF;stroke-width:0.5;opacity:1.0;" x1="1404.51" x2="1404.51" y1="600.785" y2="720.121"/>
  <line id="right-margin-Ultralight-S" style="fill:none;stroke:#00AEEF;stroke-width:0.5;opacity:1.0;" x1="603.073" x2="603.073" y1="600.785" y2="720.121"/>
  <line id="left-margin-Ultralight-S" style="fill:none;stroke:#00AEEF;stroke-width:0.5;opacity:1.0;" x1="516.35" x2="516.35" y1="600.785" y2="720.121"/>
 </g>
 <g id="Symbols">
  <g id="Black-S"><path d="M2931.95109,628.70251c-2.12258,0.38459 -3.89579,1.42092 -5.30497,3.09432l-0.52257,0.62239l-1.60588,0.4433c-6.25323,1.71744 -12.15417,5.59268 -16.23786,10.66279c-2.6334,3.27047 -4.7325,7.3248 -5.91562,11.42316c-1.16257,4.0191 -1.56478,9.22132 -0.88367,11.39087c0.52551,1.6734 1.45909,3.05616 2.88588,4.27451c0.65468,0.5578 0.67523,0.59597 1.16551,2.08148c2.90056,8.78389 9.62352,15.59492 18.36924,18.60998c7.94425,2.73909 16.66061,1.94349 23.96193,-2.19304c5.04662,-2.85652 9.33582,-7.39526 11.85766,-12.5417c0.7545,-1.53835 1.7556,-4.1013 1.93762,-4.96442c0.05284,-0.25248 0.29358,-0.54899 0.77505,-0.95707c1.4767,-1.24771 2.40441,-2.62166 2.94753,-4.36846c0.24954,-0.7956 0.27596,-1.09211 0.27009,-3.05322c-0.01468,-4.82938 -1.04221,-9.11563 -3.27928,-13.68079c-4.04552,-8.25544 -11.37325,-14.31785 -20.22173,-16.73401c-1.42092,-0.38752 -1.42973,-0.3934 -1.9523,-1.01285c-1.69689,-2.01689 -3.81946,-3.06203 -6.42351,-3.15891c-0.67817,-0.02349 -1.50019,0.00294 -1.82313,0.06165M2934.32614,634.6328c0.78973,0.23486 1.4356,0.87193 1.77028,1.7468c0.30239,0.79266 0.32294,1.12734 0.09982,1.86423c-0.21431,0.7134 -0.69872,1.32111 -1.3534,1.70863c-0.45798,0.26716 -0.67523,0.31707 -1.42092,0.31707c-0.74569,0 -0.96294,-0.04991 -1.42092,-0.31707c-0.62532,-0.36697 -1.10092,-0.94532 -1.34459,-1.6323c-0.23486,-0.6723 -0.21431,-1.14496 0.09101,-1.94056c0.58129,-1.52074 2.00221,-2.21359 3.57873,-1.7468M2925.65088,641.56127c1.05395,1.96992 3.07377,3.60809 5.30497,4.30387c1.27413,0.39633 3.658,0.39633 4.93213,0c1.73212,-0.54019 3.09432,-1.45322 4.34791,-2.92111c0.73395,-0.85725 1.25358,-1.82313 1.63524,-3.05029l0.30239,-0.96588l1.11266,0.44918c3.48185,1.40037 6.30021,3.25579 8.86315,5.83048c4.70607,4.72662 7.26315,10.58353 7.63306,17.49144c0.12037,2.21359 -0.27596,3.08552 -1.69689,3.72845c-0.64881,0.29358 -0.86899,0.33762 -1.44147,0.28771c-1.08331,-0.09688 -2.02863,-0.78973 -2.46019,-1.80551c-0.08514,-0.20257 -0.17028,-1.38276 -0.21725,-3.03267c-0.07046,-2.33102 -0.11743,-2.81249 -0.34349,-3.52295c-0.90422,-2.83891 -3.13542,-5.06424 -5.9303,-5.91562c-0.80147,-0.24367 -1.18312,-0.28771 -2.52772,-0.28771c-1.34459,0 -1.72625,0.04404 -2.52772,0.28771c-2.789,0.85138 -4.99084,3.04148 -5.94204,5.91562c-0.26716,0.81321 -0.27009,0.90422 -0.33468,7.92664c-0.04697,5.28736 -0.09982,7.18975 -0.20844,7.43636c-0.25835,0.58129 -0.7545,1.13909 -1.30936,1.46496c-0.45798,0.26716 -0.67523,0.31707 -1.42092,0.31707c-0.74569,0 -0.96294,-0.04991 -1.42092,-0.31707c-0.55193,-0.32587 -1.05101,-0.88074 -1.30936,-1.46496c-0.10862,-0.24954 -0.16147,-2.11964 -0.20844,-7.43636c-0.06165,-7.02828 -0.06752,-7.11342 -0.33468,-7.92664c-0.9512,-2.87414 -3.15304,-5.06424 -5.94204,-5.91562c-0.80147,-0.24367 -1.18312,-0.28771 -2.52772,-0.28771c-1.34459,0 -1.72625,0.04404 -2.52772,0.28771c-2.79487,0.85138 -5.02901,3.07964 -5.9303,5.91562c-0.22606,0.70753 -0.27303,1.20367 -0.34349,3.52295c-0.04991,1.60881 -0.13798,2.83597 -0.22018,3.03267c-0.42275,1.00991 -1.37395,1.70863 -2.45726,1.80551c-0.57248,0.04991 -0.79266,0.00587 -1.44147,-0.28771c-0.83964,-0.38165 -1.29468,-0.86606 -1.59707,-1.69982c-0.29945,-0.83376 -0.05872,-4.10717 0.49028,-6.62608c1.07156,-4.92332 3.4613,-9.29471 7.04296,-12.89399c2.56295,-2.57469 5.3813,-4.43011 8.86315,-5.83048l1.11266,-0.44918l0.30239,0.96588c0.1644,0.52844 0.46973,1.28 0.67817,1.66753M2922.58298,658.11913c0.38165,0.1145 0.77211,0.34936 1.08918,0.65468c0.92184,0.89835 0.87487,0.48441 0.94532,8.44627c0.06459,7.02535 0.06752,7.11342 0.33468,7.92664c0.95707,2.89469 3.13836,5.05543 6.00369,5.94791c1.27413,0.39633 3.658,0.39633 4.93213,0c2.86533,-0.89248 5.04662,-3.05322 6.00369,-5.94791c0.26716,-0.81321 0.27009,-0.90129 0.33468,-7.92664c0.07046,-7.96187 0.02349,-7.54792 0.94532,-8.44627c0.49615,-0.47853 1.33872,-0.83083 1.9934,-0.83083c0.65468,0 1.49725,0.35229 1.9934,0.83083c0.81321,0.78973 0.86019,0.99817 0.9512,4.04258c0.06752,2.32515 0.1145,2.81542 0.34055,3.52295c0.88954,2.79487 3.0679,5.00259 5.81287,5.88626c0.52844,0.17028 0.81028,0.32 0.78679,0.41982c-0.02055,0.0822 -0.29358,0.6811 -0.61064,1.32698c-1.93469,3.9457 -5.06424,7.35122 -8.92187,9.70866c-3.01212,1.84368 -6.55856,2.96221 -10.40151,3.27928c-4.64149,0.38752 -9.80261,-0.84257 -13.78941,-3.27928c-3.85763,-2.35744 -6.98718,-5.76296 -8.92187,-9.70866c-0.31707,-0.64587 -0.59009,-1.24478 -0.61064,-1.32698c-0.02349,-0.09982 0.25835,-0.24954 0.78679,-0.41982c2.74496,-0.88367 4.92332,-3.09139 5.81287,-5.88626c0.22606,-0.70753 0.27303,-1.1978 0.34055,-3.52295c0.09101,-3.04735 0.13798,-3.25286 0.95413,-4.04258c0.78092,-0.76037 1.77909,-0.98643 2.89469,-0.65468" className="SFSymbolsPreviewWireframe"/></g>
  <g id="Regular-S"><path d="M1448.39604,628.70251c-2.12258,0.38459 -3.89579,1.42092 -5.30497,3.09432l-0.52257,0.62239l-1.60588,0.4433c-6.25323,1.71744 -12.15417,5.59268 -16.23786,10.66279c-2.6334,3.27047 -4.7325,7.3248 -5.91562,11.42316c-1.16257,4.0191 -1.56478,9.22132 -0.88367,11.39087c0.52551,1.6734 1.45909,3.05616 2.88588,4.27451c0.65468,0.5578 0.67523,0.59597 1.16551,2.08148c2.90056,8.78389 9.62352,15.59492 18.36924,18.60998c7.94425,2.73909 16.66061,1.94349 23.96193,-2.19304c5.04662,-2.85652 9.33582,-7.39526 11.85766,-12.5417c0.7545,-1.53835 1.7556,-4.1013 1.93762,-4.96442c0.05284,-0.25248 0.29358,-0.54899 0.77505,-0.95707c1.4767,-1.24771 2.40441,-2.62166 2.94753,-4.36846c0.24954,-0.7956 0.27596,-1.09211 0.27009,-3.05322c-0.01468,-4.82938 -1.04221,-9.11563 -3.27928,-13.68079c-4.04552,-8.25544 -11.37325,-14.31785 -20.22173,-16.73401c-1.42092,-0.38752 -1.42973,-0.3934 -1.9523,-1.01285c-1.69689,-2.01689 -3.81946,-3.06203 -6.42351,-3.15891c-0.67817,-0.02349 -1.50019,0.00294 -1.82313,0.06165M1450.7711,634.6328c0.78973,0.23486 1.4356,0.87193 1.77028,1.7468c0.30239,0.79266 0.32294,1.12734 0.09982,1.86423c-0.21431,0.7134 -0.69872,1.32111 -1.3534,1.70863c-0.45798,0.26716 -0.67523,0.31707 -1.42092,0.31707c-0.74569,0 -0.96294,-0.04991 -1.42092,-0.31707c-0.62532,-0.36697 -1.10092,-0.94532 -1.34459,-1.6323c-0.23486,-0.6723 -0.21431,-1.14496 0.09101,-1.94056c0.58129,-1.52074 2.00221,-2.21359 3.57873,-1.7468M1442.09583,641.56127c1.05395,1.96992 3.07377,3.60809 5.30497,4.30387c1.27413,0.39633 3.658,0.39633 4.93213,0c1.73212,-0.54019 3.09432,-1.45322 4.34791,-2.92111c0.73395,-0.85725 1.25358,-1.82313 1.63524,-3.05029l0.30239,-0.96588l1.11266,0.44918c3.48185,1.40037 6.30021,3.25579 8.86315,5.83048c4.70607,4.72662 7.26315,10.58353 7.63306,17.49144c0.12037,2.21359 -0.27596,3.08552 -1.69689,3.72845c-0.64881,0.29358 -0.86899,0.33762 -1.44147,0.28771c-1.08331,-0.09688 -2.02863,-0.78973 -2.46019,-1.80551c-0.08514,-0.20257 -0.17028,-1.38276 -0.21725,-3.03267c-0.07046,-2.33102 -0.11743,-2.81249 -0.34349,-3.52295c-0.90422,-2.83891 -3.13542,-5.06424 -5.9303,-5.91562c-0.80147,-0.24367 -1.18312,-0.28771 -2.52772,-0.28771c-1.34459,0 -1.72625,0.04404 -2.52772,0.28771c-2.789,0.85138 -4.99084,3.04148 -5.94204,5.91562c-0.26716,0.81321 -0.27009,0.90422 -0.33468,7.92664c-0.04697,5.28736 -0.09982,7.18975 -0.20844,7.43636c-0.25835,0.58129 -0.7545,1.13909 -1.30936,1.46496c-0.45798,0.26716 -0.67523,0.31707 -1.42092,0.31707c-0.74569,0 -0.96294,-0.04991 -1.42092,-0.31707c-0.55193,-0.32587 -1.05101,-0.88074 -1.30936,-1.46496c-0.10862,-0.24954 -0.16147,-2.11964 -0.20844,-7.43636c-0.06165,-7.02828 -0.06752,-7.11342 -0.33468,-7.92664c-0.9512,-2.87414 -3.15304,-5.06424 -5.94204,-5.91562c-0.80147,-0.24367 -1.18312,-0.28771 -2.52772,-0.28771c-1.34459,0 -1.72625,0.04404 -2.52772,0.28771c-2.79487,0.85138 -5.02901,3.07964 -5.9303,5.91562c-0.22606,0.70753 -0.27303,1.20367 -0.34349,3.52295c-0.04991,1.60881 -0.13798,2.83597 -0.22018,3.03267c-0.42275,1.00991 -1.37395,1.70863 -2.45726,1.80551c-0.57248,0.04991 -0.79266,0.00587 -1.44147,-0.28771c-0.83964,-0.38165 -1.29468,-0.86606 -1.59707,-1.69982c-0.29945,-0.83376 -0.05872,-4.10717 0.49028,-6.62608c1.07156,-4.92332 3.4613,-9.29471 7.04296,-12.89399c2.56295,-2.57469 5.3813,-4.43011 8.86315,-5.83048l1.11266,-0.44918l0.30239,0.96588c0.1644,0.52844 0.46973,1.28 0.67817,1.66753M1439.02793,658.11913c0.38165,0.1145 0.77211,0.34936 1.08918,0.65468c0.92184,0.89835 0.87487,0.48441 0.94532,8.44627c0.06459,7.02535 0.06752,7.11342 0.33468,7.92664c0.95707,2.89469 3.13836,5.05543 6.00369,5.94791c1.27413,0.39633 3.658,0.39633 4.93213,0c2.86533,-0.89248 5.04662,-3.05322 6.00369,-5.94791c0.26716,-0.81321 0.27009,-0.90129 0.33468,-7.92664c0.07046,-7.96187 0.02349,-7.54792 0.94532,-8.44627c0.49615,-0.47853 1.33872,-0.83083 1.9934,-0.83083c0.65468,0 1.49725,0.35229 1.9934,0.83083c0.81321,0.78973 0.86019,0.99817 0.9512,4.04258c0.06752,2.32515 0.1145,2.81542 0.34055,3.52295c0.88954,2.79487 3.0679,5.00259 5.81287,5.88626c0.52844,0.17028 0.81028,0.32 0.78679,0.41982c-0.02055,0.0822 -0.29358,0.6811 -0.61064,1.32698c-1.93469,3.9457 -5.06424,7.35122 -8.92187,9.70866c-3.01212,1.84368 -6.55856,2.96221 -10.40151,3.27928c-4.64149,0.38752 -9.80261,-0.84257 -13.78941,-3.27928c-3.85763,-2.35744 -6.98718,-5.76296 -8.92187,-9.70866c-0.31707,-0.64587 -0.59009,-1.24478 -0.61064,-1.32698c-0.02349,-0.09982 0.25835,-0.24954 0.78679,-0.41982c2.74496,-0.88367 4.92332,-3.09139 5.81287,-5.88626c0.22606,-0.70753 0.27303,-1.1978 0.34055,-3.52295c0.09101,-3.04735 0.13798,-3.25286 0.95413,-4.04258c0.78092,-0.76037 1.77909,-0.98643 2.89469,-0.65468" className="SFSymbolsPreviewWireframe"/></g>
  <g id="Ultralight-S"><path d="M558.26245,628.70251c-2.12258,0.38459 -3.89579,1.42092 -5.30497,3.09432l-0.52257,0.62239l-1.60588,0.4433c-6.25323,1.71744 -12.15417,5.59268 -16.23786,10.66279c-2.6334,3.27047 -4.7325,7.3248 -5.91562,11.42316c-1.16257,4.0191 -1.56478,9.22132 -0.88367,11.39087c0.52551,1.6734 1.45909,3.05616 2.88588,4.27451c0.65468,0.5578 0.67523,0.59597 1.16551,2.08148c2.90056,8.78389 9.62352,15.59492 18.36924,18.60998c7.94425,2.73909 16.66061,1.94349 23.96193,-2.19304c5.04662,-2.85652 9.33582,-7.39526 11.85766,-12.5417c0.7545,-1.53835 1.7556,-4.1013 1.93762,-4.96442c0.05284,-0.25248 0.29358,-0.54899 0.77505,-0.95707c1.4767,-1.24771 2.40441,-2.62166 2.94753,-4.36846c0.24954,-0.7956 0.27596,-1.09211 0.27009,-3.05322c-0.01468,-4.82938 -1.04221,-9.11563 -3.27928,-13.68079c-4.04552,-8.25544 -11.37325,-14.31785 -20.22173,-16.73401c-1.42092,-0.38752 -1.42973,-0.3934 -1.9523,-1.01285c-1.69689,-2.01689 -3.81946,-3.06203 -6.42351,-3.15891c-0.67817,-0.02349 -1.50019,0.00294 -1.82313,0.06165M560.6375,634.6328c0.78973,0.23486 1.4356,0.87193 1.77028,1.7468c0.30239,0.79266 0.32294,1.12734 0.09982,1.86423c-0.21431,0.7134 -0.69872,1.32111 -1.3534,1.70863c-0.45798,0.26716 -0.67523,0.31707 -1.42092,0.31707c-0.74569,0 -0.96294,-0.04991 -1.42092,-0.31707c-0.62532,-0.36697 -1.10092,-0.94532 -1.34459,-1.6323c-0.23486,-0.6723 -0.21431,-1.14496 0.09101,-1.94056c0.58129,-1.52074 2.00221,-2.21359 3.57873,-1.7468M551.96224,641.56127c1.05395,1.96992 3.07377,3.60809 5.30497,4.30387c1.27413,0.39633 3.658,0.39633 4.93213,0c1.73212,-0.54019 3.09432,-1.45322 4.34791,-2.92111c0.73395,-0.85725 1.25358,-1.82313 1.63524,-3.05029l0.30239,-0.96588l1.11266,0.44918c3.48185,1.40037 6.30021,3.25579 8.86315,5.83048c4.70607,4.72662 7.26315,10.58353 7.63306,17.49144c0.12037,2.21359 -0.27596,3.08552 -1.69689,3.72845c-0.64881,0.29358 -0.86899,0.33762 -1.44147,0.28771c-1.08331,-0.09688 -2.02863,-0.78973 -2.46019,-1.80551c-0.08514,-0.20257 -0.17028,-1.38276 -0.21725,-3.03267c-0.07046,-2.33102 -0.11743,-2.81249 -0.34349,-3.52295c-0.90422,-2.83891 -3.13542,-5.06424 -5.9303,-5.91562c-0.80147,-0.24367 -1.18312,-0.28771 -2.52772,-0.28771c-1.34459,0 -1.72625,0.04404 -2.52772,0.28771c-2.789,0.85138 -4.99084,3.04148 -5.94204,5.91562c-0.26716,0.81321 -0.27009,0.90422 -0.33468,7.92664c-0.04697,5.28736 -0.09982,7.18975 -0.20844,7.43636c-0.25835,0.58129 -0.7545,1.13909 -1.30936,1.46496c-0.45798,0.26716 -0.67523,0.31707 -1.42092,0.31707c-0.74569,0 -0.96294,-0.04991 -1.42092,-0.31707c-0.55193,-0.32587 -1.05101,-0.88074 -1.30936,-1.46496c-0.10862,-0.24954 -0.16147,-2.11964 -0.20844,-7.43636c-0.06165,-7.02828 -0.06752,-7.11342 -0.33468,-7.92664c-0.9512,-2.87414 -3.15304,-5.06424 -5.94204,-5.91562c-0.80147,-0.24367 -1.18312,-0.28771 -2.52772,-0.28771c-1.34459,0 -1.72625,0.04404 -2.52772,0.28771c-2.79487,0.85138 -5.02901,3.07964 -5.9303,5.91562c-0.22606,0.70753 -0.27303,1.20367 -0.34349,3.52295c-0.04991,1.60881 -0.13798,2.83597 -0.22018,3.03267c-0.42275,1.00991 -1.37395,1.70863 -2.45726,1.80551c-0.57248,0.04991 -0.79266,0.00587 -1.44147,-0.28771c-0.83964,-0.38165 -1.29468,-0.86606 -1.59707,-1.69982c-0.29945,-0.83376 -0.05872,-4.10717 0.49028,-6.62608c1.07156,-4.92332 3.4613,-9.29471 7.04296,-12.89399c2.56295,-2.57469 5.3813,-4.43011 8.86315,-5.83048l1.11266,-0.44918l0.30239,0.96588c0.1644,0.52844 0.46973,1.28 0.67817,1.66753M548.89434,658.11913c0.38165,0.1145 0.77211,0.34936 1.08918,0.65468c0.92184,0.89835 0.87487,0.48441 0.94532,8.44627c0.06459,7.02535 0.06752,7.11342 0.33468,7.92664c0.95707,2.89469 3.13836,5.05543 6.00369,5.94791c1.27413,0.39633 3.658,0.39633 4.93213,0c2.86533,-0.89248 5.04662,-3.05322 6.00369,-5.94791c0.26716,-0.81321 0.27009,-0.90129 0.33468,-7.92664c0.07046,-7.96187 0.02349,-7.54792 0.94532,-8.44627c0.49615,-0.47853 1.33872,-0.83083 1.9934,-0.83083c0.65468,0 1.49725,0.35229 1.9934,0.83083c0.81321,0.78973 0.86019,0.99817 0.9512,4.04258c0.06752,2.32515 0.1145,2.81542 0.34055,3.52295c0.88954,2.79487 3.0679,5.00259 5.81287,5.88626c0.52844,0.17028 0.81028,0.32 0.78679,0.41982c-0.02055,0.0822 -0.29358,0.6811 -0.61064,1.32698c-1.93469,3.9457 -5.06424,7.35122 -8.92187,9.70866c-3.01212,1.84368 -6.55856,2.96221 -10.40151,3.27928c-4.64149,0.38752 -9.80261,-0.84257 -13.78941,-3.27928c-3.85763,-2.35744 -6.98718,-5.76296 -8.92187,-9.70866c-0.31707,-0.64587 -0.59009,-1.24478 -0.61064,-1.32698c-0.02349,-0.09982 0.25835,-0.24954 0.78679,-0.41982c2.74496,-0.88367 4.92332,-3.09139 5.81287,-5.88626c0.22606,-0.70753 0.27303,-1.1978 0.34055,-3.52295c0.09101,-3.04735 0.13798,-3.25286 0.95413,-4.04258c0.78092,-0.76037 1.77909,-0.98643 2.89469,-0.65468" className="SFSymbolsPreviewWireframe"/></g>
 </g>
</svg>