<?xml version="1.0" encoding="UTF-8"?><!--Generator: SymbolKit.app--><!DOCTYPE svg PUBLIC "-//W3C//DTD SVG 1.1//EN" "http://www.w3.org/Graphics/SVG/1.1/DTD/svg11.dtd"><svg xmlns="http://www.w3.org/2000/svg" xmlns:xlink="http://www.w3.org/1999/xlink" version="1.1" viewBox="0 0 3300 2200">
 <!--glyph: "100092", point size: 100.0, font version: "20.0d10e1", template writer version: "138.0.0"-->
 <style>.SFSymbolsPreviewWireframe {fill:none;opacity:1.0;stroke:black;stroke-width:0.5}
</style>
 <g id="Notes">
  <rect height="2200" id="artboard" style="fill:white;opacity:1" width="3300" x="0" y="0"/>
  <line style="fill:none;stroke:black;opacity:1;stroke-width:0.5;" x1="263" x2="3036" y1="292" y2="292"/>
  <text style="stroke:none;fill:black;font-family:sans-serif;font-size:13;font-weight:bold;" transform="matrix(1 0 0 1 263 322)">Weight/Scale Variations</text>
  <text style="stroke:none;fill:black;font-family:sans-serif;font-size:13;text-anchor:middle;" transform="matrix(1 0 0 1 559.711 322)">Ultralight</text>
  <text style="stroke:none;fill:black;font-family:sans-serif;font-size:13;text-anchor:middle;" transform="matrix(1 0 0 1 856.422 322)">Thin</text>
  <text style="stroke:none;fill:black;font-family:sans-serif;font-size:13;text-anchor:middle;" transform="matrix(1 0 0 1 1153.13 322)">Light</text>
  <text style="stroke:none;fill:black;font-family:sans-serif;font-size:13;text-anchor:middle;" transform="matrix(1 0 0 1 1449.84 322)">Regular</text>
  <text style="stroke:none;fill:black;font-family:sans-serif;font-size:13;text-anchor:middle;" transform="matrix(1 0 0 1 1746.56 322)">Medium</text>
  <text style="stroke:none;fill:black;font-family:sans-serif;font-size:13;text-anchor:middle;" transform="matrix(1 0 0 1 2043.27 322)">Semibold</text>
  <text style="stroke:none;fill:black;font-family:sans-serif;font-size:13;text-anchor:middle;" transform="matrix(1 0 0 1 2339.98 322)">Bold</text>
  <text style="stroke:none;fill:black;font-family:sans-serif;font-size:13;text-anchor:middle;" transform="matrix(1 0 0 1 2636.69 322)">Heavy</text>
  <text style="stroke:none;fill:black;font-family:sans-serif;font-size:13;text-anchor:middle;" transform="matrix(1 0 0 1 2933.4 322)">Black</text>
  <line style="fill:none;stroke:black;opacity:1;stroke-width:0.5;" x1="263" x2="3036" y1="1903" y2="1903"/>
  <g transform="matrix(0.2 0 0 0.2 263 1933)">
   <path d="m46.2402 4.15039c21.7773 0 39.4531-17.627 39.4531-39.4043s-17.6758-39.4043-39.4531-39.4043c-21.7285 0-39.4043 17.627-39.4043 39.4043s17.6758 39.4043 39.4043 39.4043Zm0-7.42188c-17.6758 0-31.9336-14.3066-31.9336-31.9824s14.2578-31.9824 31.9336-31.9824 31.9824 14.3066 31.9824 31.9824-14.3066 31.9824-31.9824 31.9824Zm-17.9688-31.9824c0 2.14844 1.51367 3.61328 3.75977 3.61328h10.498v10.5957c0 2.19727 1.46484 3.71094 3.61328 3.71094 2.24609 0 3.71094-1.51367 3.71094-3.71094v-10.5957h10.5957c2.19727 0 3.71094-1.46484 3.71094-3.61328 0-2.19727-1.51367-3.71094-3.71094-3.71094h-10.5957v-10.5469c0-2.24609-1.46484-3.75977-3.71094-3.75977-2.14844 0-3.61328 1.51367-3.61328 3.75977v10.5469h-10.498c-2.24609 0-3.75977 1.51367-3.75977 3.71094Z"/>
  </g>
  <g transform="matrix(0.2 0 0 0.2 281.506 1933)">
   <path d="m58.5449 14.5508c27.4902 0 49.8047-22.3145 49.8047-49.8047s-22.3145-49.8047-49.8047-49.8047-49.8047 22.3145-49.8047 49.8047 22.3145 49.8047 49.8047 49.8047Zm0-8.30078c-22.9492 0-41.5039-18.5547-41.5039-41.5039s18.5547-41.5039 41.5039-41.5039 41.5039 18.5547 41.5039 41.5039-18.5547 41.5039-41.5039 41.5039Zm-22.6562-41.5039c0 2.39258 1.66016 4.00391 4.15039 4.00391h14.3555v14.4043c0 2.44141 1.66016 4.15039 4.05273 4.15039 2.44141 0 4.15039-1.66016 4.15039-4.15039v-14.4043h14.4043c2.44141 0 4.15039-1.61133 4.15039-4.00391 0-2.44141-1.70898-4.15039-4.15039-4.15039h-14.4043v-14.3555c0-2.49023-1.70898-4.19922-4.15039-4.19922-2.39258 0-4.05273 1.70898-4.05273 4.19922v14.3555h-14.3555c-2.49023 0-4.15039 1.70898-4.15039 4.15039Z"/>
  </g>
  <g transform="matrix(0.2 0 0 0.2 304.924 1933)">
   <path d="m74.8535 28.3203c35.1074 0 63.623-28.4668 63.623-63.5742s-28.5156-63.623-63.623-63.623-63.5742 28.5156-63.5742 63.623 28.4668 63.5742 63.5742 63.5742Zm0-9.08203c-30.127 0-54.4922-24.3652-54.4922-54.4922s24.3652-54.4922 54.4922-54.4922 54.4922 24.3652 54.4922 54.4922-24.3652 54.4922-54.4922 54.4922Zm-28.8574-54.4922c0 2.58789 1.85547 4.39453 4.58984 4.39453h19.7266v19.7754c0 2.68555 1.85547 4.58984 4.44336 4.58984 2.68555 0 4.54102-1.85547 4.54102-4.58984v-19.7754h19.7754c2.68555 0 4.58984-1.80664 4.58984-4.39453 0-2.73438-1.85547-4.58984-4.58984-4.58984h-19.7754v-19.7266c0-2.73438-1.85547-4.63867-4.54102-4.63867-2.58789 0-4.44336 1.9043-4.44336 4.63867v19.7266h-19.7266c-2.73438 0-4.58984 1.85547-4.58984 4.58984Z"/>
  </g>
  <text style="stroke:none;fill:black;font-family:sans-serif;font-size:13;font-weight:bold;" transform="matrix(1 0 0 1 263 1953)">Design Variations</text>
  <text style="stroke:none;fill:black;font-family:sans-serif;font-size:13;" transform="matrix(1 0 0 1 263 1971)">Symbols are supported in up to nine weights and three scales.</text>
  <text style="stroke:none;fill:black;font-family:sans-serif;font-size:13;" transform="matrix(1 0 0 1 263 1989)">For optimal layout with text and other symbols, vertically align</text>
  <text style="stroke:none;fill:black;font-family:sans-serif;font-size:13;" transform="matrix(1 0 0 1 263 2007)">symbols with the adjacent text.</text>
  <line style="fill:none;stroke:#00AEEF;stroke-width:0.5;opacity:1.0;" x1="776" x2="776" y1="1919" y2="1933"/>
  <g transform="matrix(0.2 0 0 0.2 776 1933)">
   <path d="m16.5527 0.78125c2.58789 0 3.85742-0.976562 4.78516-3.71094l6.29883-17.2363h28.8086l6.29883 17.2363c0.927734 2.73438 2.19727 3.71094 4.73633 3.71094 2.58789 0 4.24805-1.5625 4.24805-4.00391 0-0.830078-0.146484-1.61133-0.537109-2.63672l-22.9004-60.9863c-1.12305-2.97852-3.125-4.49219-6.25-4.49219-3.02734 0-5.07812 1.46484-6.15234 4.44336l-22.9004 61.084c-0.390625 1.02539-0.537109 1.80664-0.537109 2.63672 0 2.44141 1.5625 3.95508 4.10156 3.95508Zm13.4766-28.3691 11.8652-32.8613h0.244141l11.8652 32.8613Z"/>
  </g>
  <line style="fill:none;stroke:#00AEEF;stroke-width:0.5;opacity:1.0;" x1="792.836" x2="792.836" y1="1919" y2="1933"/>
  <text style="stroke:none;fill:black;font-family:sans-serif;font-size:13;font-weight:bold;" transform="matrix(1 0 0 1 776 1953)">Margins</text>
  <text style="stroke:none;fill:black;font-family:sans-serif;font-size:13;" transform="matrix(1 0 0 1 776 1971)">Leading and trailing margins on the left and right side of each symbol</text>
  <text style="stroke:none;fill:black;font-family:sans-serif;font-size:13;" transform="matrix(1 0 0 1 776 1989)">can be adjusted by modifying the x-location of the margin guidelines.</text>
  <text style="stroke:none;fill:black;font-family:sans-serif;font-size:13;" transform="matrix(1 0 0 1 776 2007)">Modifications are automatically applied proportionally to all</text>
  <text style="stroke:none;fill:black;font-family:sans-serif;font-size:13;" transform="matrix(1 0 0 1 776 2025)">scales and weights.</text>
  <g transform="matrix(0.2 0 0 0.2 1289 1933)">
   <path d="m14.209 9.32617 8.49609 8.54492c4.29688 4.3457 9.22852 4.05273 13.8672-1.07422l53.4668-58.9355-4.83398-4.88281-53.0762 58.3984c-1.75781 2.00195-3.41797 2.49023-5.76172 0.146484l-5.85938-5.81055c-2.34375-2.29492-1.80664-4.00391 0.195312-5.81055l57.373-54.0039-4.88281-4.83398-57.959 54.4434c-4.93164 4.58984-5.32227 9.47266-1.02539 13.8184Zm32.0801-90.9668c-2.09961 2.05078-2.24609 4.93164-1.07422 6.88477 1.17188 1.80664 3.4668 2.97852 6.68945 2.14844 7.32422-1.70898 14.9414-2.00195 22.0703 2.68555l-2.92969 7.27539c-1.70898 4.15039-0.830078 7.08008 1.85547 9.81445l11.4746 11.5723c2.44141 2.44141 4.49219 2.53906 7.32422 2.05078l5.32227-0.976562 3.32031 3.36914-0.195312 2.7832c-0.195312 2.49023 0.439453 4.39453 2.88086 6.78711l3.80859 3.71094c2.39258 2.39258 5.46875 2.53906 7.8125 0.195312l14.5508-14.5996c2.34375-2.34375 2.24609-5.32227-0.146484-7.71484l-3.85742-3.80859c-2.39258-2.39258-4.24805-3.17383-6.64062-2.97852l-2.88086 0.244141-3.22266-3.17383 1.2207-5.61523c0.634766-2.83203-0.146484-5.0293-3.07617-7.95898l-10.9863-10.9375c-16.6992-16.6016-38.8672-16.2109-53.3203-1.75781Zm7.4707 1.85547c12.1582-8.88672 28.6133-7.37305 39.7461 3.75977l12.1582 12.0605c1.17188 1.17188 1.36719 2.09961 1.02539 3.80859l-1.61133 7.42188 7.51953 7.42188 4.93164-0.292969c1.26953-0.0488281 1.66016 0.0488281 2.63672 1.02539l2.88086 2.88086-12.207 12.207-2.88086-2.88086c-0.976562-0.976562-1.12305-1.36719-1.07422-2.68555l0.341797-4.88281-7.4707-7.42188-7.61719 1.26953c-1.61133 0.341797-2.34375 0.195312-3.56445-0.976562l-10.0098-10.0098c-1.26953-1.17188-1.41602-2.00195-0.634766-3.85742l4.39453-10.4492c-7.8125-7.27539-17.9688-10.4004-28.125-7.42188-0.78125 0.195312-1.07422-0.439453-0.439453-0.976562Z"/>
  </g>
  <text style="stroke:none;fill:black;font-family:sans-serif;font-size:13;font-weight:bold;" transform="matrix(1 0 0 1 1289 1953)">Exporting</text>
  <text style="stroke:none;fill:black;font-family:sans-serif;font-size:13;" transform="matrix(1 0 0 1 1289 1971)">Symbols should be outlined when exporting to ensure the</text>
  <text style="stroke:none;fill:black;font-family:sans-serif;font-size:13;" transform="matrix(1 0 0 1 1289 1989)">design is preserved when submitting to Xcode.</text>
  <text id="template-version" style="stroke:none;fill:black;font-family:sans-serif;font-size:13;text-anchor:end;" transform="matrix(1 0 0 1 3036 1933)">Template v.6.0</text>
  <text style="stroke:none;fill:black;font-family:sans-serif;font-size:13;text-anchor:end;" transform="matrix(1 0 0 1 3036 1951)">Requires Xcode 16 or greater</text>
  <text id="descriptive-name" style="stroke:none;fill:black;font-family:sans-serif;font-size:13;text-anchor:end;" transform="matrix(1 0 0 1 3036 1969)">Generated from square</text>
  <text style="stroke:none;fill:black;font-family:sans-serif;font-size:13;text-anchor:end;" transform="matrix(1 0 0 1 3036 1987)">Typeset at 100.0 points</text>
  <text style="stroke:none;fill:black;font-family:sans-serif;font-size:13;" transform="matrix(1 0 0 1 263 726)">Small</text>
  <text style="stroke:none;fill:black;font-family:sans-serif;font-size:13;" transform="matrix(1 0 0 1 263 1156)">Medium</text>
  <text style="stroke:none;fill:black;font-family:sans-serif;font-size:13;" transform="matrix(1 0 0 1 263 1586)">Large</text>
 </g>
 <g id="Guides">
  <g id="H-reference" style="fill:#27AAE1;stroke:none;" transform="matrix(1 0 0 1 339 696)">
   <path d="M0.993654 0L3.63775 0L29.3281-67.1323L30.0303-67.1323L30.0303-70.459L28.1226-70.459ZM11.6885-24.4799L46.9815-24.4799L46.2315-26.7285L12.4385-26.7285ZM55.1196 0L57.7637 0L30.6382-70.459L29.4326-70.459L29.4326-67.1323Z"/>
  </g>
  <line id="Baseline-S" style="fill:none;stroke:#27AAE1;opacity:1;stroke-width:0.5;" x1="263" x2="3036" y1="696" y2="696"/>
  <line id="Capline-S" style="fill:none;stroke:#27AAE1;opacity:1;stroke-width:0.5;" x1="263" x2="3036" y1="625.541" y2="625.541"/>
  <g id="H-reference" style="fill:#27AAE1;stroke:none;" transform="matrix(1 0 0 1 339 1126)">
   <path d="M0.993654 0L3.63775 0L29.3281-67.1323L30.0303-67.1323L30.0303-70.459L28.1226-70.459ZM11.6885-24.4799L46.9815-24.4799L46.2315-26.7285L12.4385-26.7285ZM55.1196 0L57.7637 0L30.6382-70.459L29.4326-70.459L29.4326-67.1323Z"/>
  </g>
  <line id="Baseline-M" style="fill:none;stroke:#27AAE1;opacity:1;stroke-width:0.5;" x1="263" x2="3036" y1="1126" y2="1126"/>
  <line id="Capline-M" style="fill:none;stroke:#27AAE1;opacity:1;stroke-width:0.5;" x1="263" x2="3036" y1="1055.54" y2="1055.54"/>
  <g id="H-reference" style="fill:#27AAE1;stroke:none;" transform="matrix(1 0 0 1 339 1556)">
   <path d="M0.993654 0L3.63775 0L29.3281-67.1323L30.0303-67.1323L30.0303-70.459L28.1226-70.459ZM11.6885-24.4799L46.9815-24.4799L46.2315-26.7285L12.4385-26.7285ZM55.1196 0L57.7637 0L30.6382-70.459L29.4326-70.459L29.4326-67.1323Z"/>
  </g>
  <line id="Baseline-L" style="fill:none;stroke:#27AAE1;opacity:1;stroke-width:0.5;" x1="263" x2="3036" y1="1556" y2="1556"/>
  <line id="Capline-L" style="fill:none;stroke:#27AAE1;opacity:1;stroke-width:0.5;" x1="263" x2="3036" y1="1485.54" y2="1485.54"/>
  <line id="right-margin-Black-S" style="fill:none;stroke:#00AEEF;stroke-width:0.5;opacity:1.0;" x1="2981.3" x2="2981.3" y1="600.785" y2="720.121"/>
  <line id="left-margin-Black-S" style="fill:none;stroke:#00AEEF;stroke-width:0.5;opacity:1.0;" x1="2885.5" x2="2885.5" y1="600.785" y2="720.121"/>
  <line id="right-margin-Regular-S" style="fill:none;stroke:#00AEEF;stroke-width:0.5;opacity:1.0;" x1="1495.18" x2="1495.18" y1="600.785" y2="720.121"/>
  <line id="left-margin-Regular-S" style="fill:none;stroke:#00AEEF;stroke-width:0.5;opacity:1.0;" x1="1404.51" x2="1404.51" y1="600.785" y2="720.121"/>
  <line id="right-margin-Ultralight-S" style="fill:none;stroke:#00AEEF;stroke-width:0.5;opacity:1.0;" x1="603.073" x2="603.073" y1="600.785" y2="720.121"/>
  <line id="left-margin-Ultralight-S" style="fill:none;stroke:#00AEEF;stroke-width:0.5;opacity:1.0;" x1="516.35" x2="516.35" y1="600.785" y2="720.121"/>
 </g>
 <g id="Symbols">
  <g id="Black-S"><path d="M2942.00833,628.5899c-1.25652,0.07339 -4.1835,0.39633 -5.26681,0.58422c-6.44406,1.10386 -10.3927,3.87231 -11.71674,8.21141c-0.31413,1.02166 -0.32294,1.14789 -0.33174,3.84882l-0.00587,2.79194l-0.46973,0.1233c-1.1156,0.29064 -3.29396,1.07156 -4.84406,1.73799c-5.63378,2.41028 -10.46022,5.50461 -13.84225,8.86902c-1.59413,1.58826 -2.58056,2.90643 -3.33506,4.4624c-0.86312,1.77322 -1.10092,2.75964 -1.10679,4.52993c-0.00587,2.5512 0.40807,3.61102 3.04735,7.82682c5.61323,8.96003 12.18647,15.47162 19.00631,18.82723c3.93983,1.93469 6.99305,2.67157 10.58646,2.55414c2.01395,-0.06752 3.24405,-0.31707 4.68846,-0.95707c1.65285,-0.73101 3.5024,-2.36625 4.60919,-4.07781c1.41212,-2.18423 2.57469,-5.3725 2.97396,-8.14388c0.21431,-1.50313 0.19963,-1.4679 0.56661,-1.4679c0.9101,0 3.15891,-0.81028 4.6591,-1.67634c6.89617,-3.98974 11.89289,-13.04959 13.67491,-24.8045c0.84551,-5.58681 1.06863,-12.2217 0.47853,-14.26794c-0.98936,-3.43781 -3.59634,-5.9303 -7.69471,-7.35709c-3.07964,-1.06863 -6.55269,-1.55303 -11.62573,-1.61762c-1.80845,-0.02055 -3.63157,-0.02055 -4.05139,0.00294M2950.78341,634.67873c4.89103,0.56074 7.727,1.83487 8.69875,3.90754c0.31707,0.67523 0.31707,0.68991 0.30239,3.20295c-0.05872,9.32114 -2.00221,17.69695 -5.41947,23.36302c-2.41616,4.00148 -6.01544,7.0459 -8.70756,7.3659c-0.62826,0.07339 -1.90826,-0.18202 -2.78313,-0.55486c-0.97468,-0.41688 -2.5101,-1.53542 -3.63157,-2.63634c-4.18937,-4.12772 -7.06058,-11.07968 -8.15856,-19.77255c-0.12624,-1.00991 -0.25248,-2.17836 -0.2789,-2.59818c-0.02642,-0.41982 -0.10862,-1.82019 -0.18789,-3.11194c-0.19083,-3.16772 -0.12917,-4.39488 0.27009,-5.26387c1.06276,-2.32515 4.50644,-3.64332 10.65105,-4.07781c1.93762,-0.13505 7.42168,-0.03229 9.24481,0.17615M2938.41198,640.42407c-0.67817,0.22018 -1.29175,0.71927 -1.66459,1.3534c-0.26716,0.45798 -0.31707,0.67523 -0.31707,1.42092c0,0.7545 0.04697,0.96 0.33174,1.44441c1.52074,2.58937 5.47525,1.54423 5.47525,-1.44441c0,-1.10679 -0.60477,-2.11083 -1.57065,-2.60698c-0.58129,-0.29945 -1.62056,-0.37578 -2.25469,-0.16734M2950.15515,640.42407c-0.67817,0.22018 -1.29175,0.71927 -1.66459,1.3534c-0.26716,0.45798 -0.31707,0.67523 -0.31707,1.42092c0,0.7545 0.04697,0.96 0.33174,1.44441c1.52074,2.58937 5.47525,1.54423 5.47525,-1.44441c0,-1.10679 -0.60477,-2.11083 -1.57065,-2.60698c-0.58129,-0.29945 -1.62056,-0.37578 -2.25469,-0.16734M2925.33303,651.03696c0.07927,0.56661 0.24661,1.58239 0.36991,2.26056c0.40807,2.19597 0.40807,2.04625 -0.00294,2.33983c-0.20257,0.14092 -0.51083,0.50789 -0.68991,0.81028c-0.27596,0.46973 -0.32294,0.67817 -0.32294,1.43854c0,0.78679 0.0411,0.95707 0.35523,1.46496c0.44037,0.7134 1.13615,1.21248 1.94056,1.3945l0.61652,0.13798l0.49028,1.28588c0.61358,1.60881 1.0334,2.5923 1.54423,3.60222c0.21725,0.4345 0.39633,0.84257 0.39633,0.9101c0,0.06752 -0.19963,0.12037 -0.4433,0.12037c-0.64,0 -2.0345,0.41395 -2.94166,0.87193c-1.71157,0.86312 -3.10313,2.25175 -3.89873,3.88405c-0.53431,1.09505 -0.85138,2.33102 -0.74276,2.89469c0.2789,1.46496 1.53835,2.51304 2.98864,2.48368c1.25358,-0.02349 2.149,-0.68991 2.69212,-2.00515c0.48441,-1.17725 0.77211,-1.54423 1.52661,-1.95524c0.59009,-0.32 0.65762,-0.33174 1.57065,-0.24367c1.37982,0.13505 1.82019,0.09395 2.46019,-0.22312l0.57248,-0.28184l1.14202,1.15083c1.27413,1.28294 3.00625,2.60992 4.44772,3.40552c0.73395,0.40514 0.95707,0.58716 0.95707,0.78092c0.00294,0.13798 -0.10275,0.87193 -0.23193,1.62643c-0.5578,3.27047 -1.95817,6.03599 -3.61689,7.14572c-1.60001,1.06863 -5.08185,1.02459 -8.25544,-0.10862c-6.27672,-2.23707 -12.42133,-7.70939 -17.9964,-16.02061c-1.59413,-2.37799 -2.99744,-4.78828 -3.20588,-5.50461c-0.78973,-2.71854 2.22239,-6.37947 8.41985,-10.2283c1.57358,-0.98055 4.28038,-2.37505 6.17103,-3.18533c1.27707,-0.54606 3.20001,-1.26533 3.41139,-1.27413c0.0822,-0.00294 0.19083,0.4022 0.27596,1.02166M2939.89456,651.9588c-0.97762,0.42275 -1.75854,1.61762 -1.75854,2.68918c0,0.8778 0.40807,1.63817 1.33578,2.48955c2.58937,2.37212 6.51452,2.85946 9.69692,1.20367c1.18312,-0.61652 2.41322,-1.72918 2.78019,-2.51597c0.3611,-0.77798 0.3611,-1.58239 -0.00294,-2.35157c-0.53725,-1.13322 -1.42679,-1.70276 -2.65689,-1.70276c-0.87193,0 -1.3123,0.17615 -2.149,0.85725c-0.70459,0.57248 -1.29468,0.81909 -1.96111,0.81909c-0.66642,0 -1.25652,-0.24661 -1.96111,-0.81909c-0.35523,-0.29064 -0.82496,-0.60184 -1.04221,-0.69285c-0.51376,-0.21431 -1.75854,-0.20257 -2.28111,0.02349M2915.95025,661.4737c-2.44258,1.21835 -1.90239,4.93213 0.78973,5.42241c1.64111,0.29651 3.10607,-0.69285 3.44368,-2.32515c0.48734,-2.34863 -2.03157,-4.19231 -4.23341,-3.09726" className="SFSymbolsPreviewWireframe"/></g>
  <g id="Regular-S"><path d="M1458.45328,628.5899c-1.25652,0.07339 -4.1835,0.39633 -5.26681,0.58422c-6.44406,1.10386 -10.3927,3.87231 -11.71674,8.21141c-0.31413,1.02166 -0.32294,1.14789 -0.33174,3.84882l-0.00587,2.79194l-0.46973,0.1233c-1.1156,0.29064 -3.29396,1.07156 -4.84406,1.73799c-5.63378,2.41028 -10.46022,5.50461 -13.84225,8.86902c-1.59413,1.58826 -2.58056,2.90643 -3.33506,4.4624c-0.86312,1.77322 -1.10092,2.75964 -1.10679,4.52993c-0.00587,2.5512 0.40807,3.61102 3.04735,7.82682c5.61323,8.96003 12.18647,15.47162 19.00631,18.82723c3.93983,1.93469 6.99305,2.67157 10.58646,2.55414c2.01395,-0.06752 3.24405,-0.31707 4.68846,-0.95707c1.65285,-0.73101 3.5024,-2.36625 4.60919,-4.07781c1.41212,-2.18423 2.57469,-5.3725 2.97396,-8.14388c0.21431,-1.50313 0.19963,-1.4679 0.56661,-1.4679c0.9101,0 3.15891,-0.81028 4.6591,-1.67634c6.89617,-3.98974 11.89289,-13.04959 13.67491,-24.8045c0.84551,-5.58681 1.06863,-12.2217 0.47853,-14.26794c-0.98936,-3.43781 -3.59634,-5.9303 -7.69471,-7.35709c-3.07964,-1.06863 -6.55269,-1.55303 -11.62573,-1.61762c-1.80845,-0.02055 -3.63157,-0.02055 -4.05139,0.00294M1467.22836,634.67873c4.89103,0.56074 7.727,1.83487 8.69875,3.90754c0.31707,0.67523 0.31707,0.68991 0.30239,3.20295c-0.05872,9.32114 -2.00221,17.69695 -5.41947,23.36302c-2.41616,4.00148 -6.01544,7.0459 -8.70756,7.3659c-0.62826,0.07339 -1.90826,-0.18202 -2.78313,-0.55486c-0.97468,-0.41688 -2.5101,-1.53542 -3.63157,-2.63634c-4.18937,-4.12772 -7.06058,-11.07968 -8.15856,-19.77255c-0.12624,-1.00991 -0.25248,-2.17836 -0.2789,-2.59818c-0.02642,-0.41982 -0.10862,-1.82019 -0.18789,-3.11194c-0.19083,-3.16772 -0.12917,-4.39488 0.27009,-5.26387c1.06276,-2.32515 4.50644,-3.64332 10.65105,-4.07781c1.93762,-0.13505 7.42168,-0.03229 9.24481,0.17615M1454.85693,640.42407c-0.67817,0.22018 -1.29175,0.71927 -1.66459,1.3534c-0.26716,0.45798 -0.31707,0.67523 -0.31707,1.42092c0,0.7545 0.04697,0.96 0.33174,1.44441c1.52074,2.58937 5.47525,1.54423 5.47525,-1.44441c0,-1.10679 -0.60477,-2.11083 -1.57065,-2.60698c-0.58129,-0.29945 -1.62056,-0.37578 -2.25469,-0.16734M1466.6001,640.42407c-0.67817,0.22018 -1.29175,0.71927 -1.66459,1.3534c-0.26716,0.45798 -0.31707,0.67523 -0.31707,1.42092c0,0.7545 0.04697,0.96 0.33174,1.44441c1.52074,2.58937 5.47525,1.54423 5.47525,-1.44441c0,-1.10679 -0.60477,-2.11083 -1.57065,-2.60698c-0.58129,-0.29945 -1.62056,-0.37578 -2.25469,-0.16734M1441.77798,651.03696c0.07927,0.56661 0.24661,1.58239 0.36991,2.26056c0.40807,2.19597 0.40807,2.04625 -0.00294,2.33983c-0.20257,0.14092 -0.51083,0.50789 -0.68991,0.81028c-0.27596,0.46973 -0.32294,0.67817 -0.32294,1.43854c0,0.78679 0.0411,0.95707 0.35523,1.46496c0.44037,0.7134 1.13615,1.21248 1.94056,1.3945l0.61652,0.13798l0.49028,1.28588c0.61358,1.60881 1.0334,2.5923 1.54423,3.60222c0.21725,0.4345 0.39633,0.84257 0.39633,0.9101c0,0.06752 -0.19963,0.12037 -0.4433,0.12037c-0.64,0 -2.0345,0.41395 -2.94166,0.87193c-1.71157,0.86312 -3.10313,2.25175 -3.89873,3.88405c-0.53431,1.09505 -0.85138,2.33102 -0.74276,2.89469c0.2789,1.46496 1.53835,2.51304 2.98864,2.48368c1.25358,-0.02349 2.149,-0.68991 2.69212,-2.00515c0.48441,-1.17725 0.77211,-1.54423 1.52661,-1.95524c0.59009,-0.32 0.65762,-0.33174 1.57065,-0.24367c1.37982,0.13505 1.82019,0.09395 2.46019,-0.22312l0.57248,-0.28184l1.14202,1.15083c1.27413,1.28294 3.00625,2.60992 4.44772,3.40552c0.73395,0.40514 0.95707,0.58716 0.95707,0.78092c0.00294,0.13798 -0.10275,0.87193 -0.23193,1.62643c-0.5578,3.27047 -1.95817,6.03599 -3.61689,7.14572c-1.60001,1.06863 -5.08185,1.02459 -8.25544,-0.10862c-6.27672,-2.23707 -12.42133,-7.70939 -17.9964,-16.02061c-1.59413,-2.37799 -2.99744,-4.78828 -3.20588,-5.50461c-0.78973,-2.71854 2.22239,-6.37947 8.41985,-10.2283c1.57358,-0.98055 4.28038,-2.37505 6.17103,-3.18533c1.27707,-0.54606 3.20001,-1.26533 3.41139,-1.27413c0.0822,-0.00294 0.19083,0.4022 0.27596,1.02166M1456.33951,651.9588c-0.97762,0.42275 -1.75854,1.61762 -1.75854,2.68918c0,0.8778 0.40807,1.63817 1.33578,2.48955c2.58937,2.37212 6.51452,2.85946 9.69692,1.20367c1.18312,-0.61652 2.41322,-1.72918 2.78019,-2.51597c0.3611,-0.77798 0.3611,-1.58239 -0.00294,-2.35157c-0.53725,-1.13322 -1.42679,-1.70276 -2.65689,-1.70276c-0.87193,0 -1.3123,0.17615 -2.149,0.85725c-0.70459,0.57248 -1.29468,0.81909 -1.96111,0.81909c-0.66642,0 -1.25652,-0.24661 -1.96111,-0.81909c-0.35523,-0.29064 -0.82496,-0.60184 -1.04221,-0.69285c-0.51376,-0.21431 -1.75854,-0.20257 -2.28111,0.02349M1432.3952,661.4737c-2.44258,1.21835 -1.90239,4.93213 0.78973,5.42241c1.64111,0.29651 3.10607,-0.69285 3.44368,-2.32515c0.48734,-2.34863 -2.03157,-4.19231 -4.23341,-3.09726" className="SFSymbolsPreviewWireframe"/></g>
  <g id="Ultralight-S"><path d="M568.31969,628.5899c-1.25652,0.07339 -4.1835,0.39633 -5.26681,0.58422c-6.44406,1.10386 -10.3927,3.87231 -11.71674,8.21141c-0.31413,1.02166 -0.32294,1.14789 -0.33174,3.84882l-0.00587,2.79194l-0.46973,0.1233c-1.1156,0.29064 -3.29396,1.07156 -4.84406,1.73799c-5.63378,2.41028 -10.46022,5.50461 -13.84225,8.86902c-1.59413,1.58826 -2.58056,2.90643 -3.33506,4.4624c-0.86312,1.77322 -1.10092,2.75964 -1.10679,4.52993c-0.00587,2.5512 0.40807,3.61102 3.04735,7.82682c5.61323,8.96003 12.18647,15.47162 19.00631,18.82723c3.93983,1.93469 6.99305,2.67157 10.58646,2.55414c2.01395,-0.06752 3.24405,-0.31707 4.68846,-0.95707c1.65285,-0.73101 3.5024,-2.36625 4.60919,-4.07781c1.41212,-2.18423 2.57469,-5.3725 2.97396,-8.14388c0.21431,-1.50313 0.19963,-1.4679 0.56661,-1.4679c0.9101,0 3.15891,-0.81028 4.6591,-1.67634c6.89617,-3.98974 11.89289,-13.04959 13.67491,-24.8045c0.84551,-5.58681 1.06863,-12.2217 0.47853,-14.26794c-0.98936,-3.43781 -3.59634,-5.9303 -7.69471,-7.35709c-3.07964,-1.06863 -6.55269,-1.55303 -11.62573,-1.61762c-1.80845,-0.02055 -3.63157,-0.02055 -4.05139,0.00294M577.09477,634.67873c4.89103,0.56074 7.727,1.83487 8.69875,3.90754c0.31707,0.67523 0.31707,0.68991 0.30239,3.20295c-0.05872,9.32114 -2.00221,17.69695 -5.41947,23.36302c-2.41616,4.00148 -6.01544,7.0459 -8.70756,7.3659c-0.62826,0.07339 -1.90826,-0.18202 -2.78313,-0.55486c-0.97468,-0.41688 -2.5101,-1.53542 -3.63157,-2.63634c-4.18937,-4.12772 -7.06058,-11.07968 -8.15856,-19.77255c-0.12624,-1.00991 -0.25248,-2.17836 -0.2789,-2.59818c-0.02642,-0.41982 -0.10862,-1.82019 -0.18789,-3.11194c-0.19083,-3.16772 -0.12917,-4.39488 0.27009,-5.26387c1.06276,-2.32515 4.50644,-3.64332 10.65105,-4.07781c1.93762,-0.13505 7.42168,-0.03229 9.24481,0.17615M564.72334,640.42407c-0.67817,0.22018 -1.29175,0.71927 -1.66459,1.3534c-0.26716,0.45798 -0.31707,0.67523 -0.31707,1.42092c0,0.7545 0.04697,0.96 0.33174,1.44441c1.52074,2.58937 5.47525,1.54423 5.47525,-1.44441c0,-1.10679 -0.60477,-2.11083 -1.57065,-2.60698c-0.58129,-0.29945 -1.62056,-0.37578 -2.25469,-0.16734M576.46651,640.42407c-0.67817,0.22018 -1.29175,0.71927 -1.66459,1.3534c-0.26716,0.45798 -0.31707,0.67523 -0.31707,1.42092c0,0.7545 0.04697,0.96 0.33174,1.44441c1.52074,2.58937 5.47525,1.54423 5.47525,-1.44441c0,-1.10679 -0.60477,-2.11083 -1.57065,-2.60698c-0.58129,-0.29945 -1.62056,-0.37578 -2.25469,-0.16734M551.64439,651.03696c0.07927,0.56661 0.24661,1.58239 0.36991,2.26056c0.40807,2.19597 0.40807,2.04625 -0.00294,2.33983c-0.20257,0.14092 -0.51083,0.50789 -0.68991,0.81028c-0.27596,0.46973 -0.32294,0.67817 -0.32294,1.43854c0,0.78679 0.0411,0.95707 0.35523,1.46496c0.44037,0.7134 1.13615,1.21248 1.94056,1.3945l0.61652,0.13798l0.49028,1.28588c0.61358,1.60881 1.0334,2.5923 1.54423,3.60222c0.21725,0.4345 0.39633,0.84257 0.39633,0.9101c0,0.06752 -0.19963,0.12037 -0.4433,0.12037c-0.64,0 -2.0345,0.41395 -2.94166,0.87193c-1.71157,0.86312 -3.10313,2.25175 -3.89873,3.88405c-0.53431,1.09505 -0.85138,2.33102 -0.74276,2.89469c0.2789,1.46496 1.53835,2.51304 2.98864,2.48368c1.25358,-0.02349 2.149,-0.68991 2.69212,-2.00515c0.48441,-1.17725 0.77211,-1.54423 1.52661,-1.95524c0.59009,-0.32 0.65762,-0.33174 1.57065,-0.24367c1.37982,0.13505 1.82019,0.09395 2.46019,-0.22312l0.57248,-0.28184l1.14202,1.15083c1.27413,1.28294 3.00625,2.60992 4.44772,3.40552c0.73395,0.40514 0.95707,0.58716 0.95707,0.78092c0.00294,0.13798 -0.10275,0.87193 -0.23193,1.62643c-0.5578,3.27047 -1.95817,6.03599 -3.61689,7.14572c-1.60001,1.06863 -5.08185,1.02459 -8.25544,-0.10862c-6.27672,-2.23707 -12.42133,-7.70939 -17.9964,-16.02061c-1.59413,-2.37799 -2.99744,-4.78828 -3.20588,-5.50461c-0.78973,-2.71854 2.22239,-6.37947 8.41985,-10.2283c1.57358,-0.98055 4.28038,-2.37505 6.17103,-3.18533c1.27707,-0.54606 3.20001,-1.26533 3.41139,-1.27413c0.0822,-0.00294 0.19083,0.4022 0.27596,1.02166M566.20592,651.9588c-0.97762,0.42275 -1.75854,1.61762 -1.75854,2.68918c0,0.8778 0.40807,1.63817 1.33578,2.48955c2.58937,2.37212 6.51452,2.85946 9.69692,1.20367c1.18312,-0.61652 2.41322,-1.72918 2.78019,-2.51597c0.3611,-0.77798 0.3611,-1.58239 -0.00294,-2.35157c-0.53725,-1.13322 -1.42679,-1.70276 -2.65689,-1.70276c-0.87193,0 -1.3123,0.17615 -2.149,0.85725c-0.70459,0.57248 -1.29468,0.81909 -1.96111,0.81909c-0.66642,0 -1.25652,-0.24661 -1.96111,-0.81909c-0.35523,-0.29064 -0.82496,-0.60184 -1.04221,-0.69285c-0.51376,-0.21431 -1.75854,-0.20257 -2.28111,0.02349M542.26161,661.4737c-2.44258,1.21835 -1.90239,4.93213 0.78973,5.42241c1.64111,0.29651 3.10607,-0.69285 3.44368,-2.32515c0.48734,-2.34863 -2.03157,-4.19231 -4.23341,-3.09726" className="SFSymbolsPreviewWireframe"/></g>
 </g>
</svg>