<?xml version="1.0" encoding="UTF-8"?><!--Generator: SymbolKit.app--><!DOCTYPE svg PUBLIC "-//W3C//DTD SVG 1.1//EN" "http://www.w3.org/Graphics/SVG/1.1/DTD/svg11.dtd"><svg xmlns="http://www.w3.org/2000/svg" xmlns:xlink="http://www.w3.org/1999/xlink" version="1.1" viewBox="0 0 3300 2200">
 <!--glyph: "100092", point size: 100.0, font version: "20.0d10e1", template writer version: "138.0.0"-->
 <style>.SFSymbolsPreviewWireframe {fill:none;opacity:1.0;stroke:black;stroke-width:0.5}
</style>
 <g id="Notes">
  <rect height="2200" id="artboard" style="fill:white;opacity:1" width="3300" x="0" y="0"/>
  <line style="fill:none;stroke:black;opacity:1;stroke-width:0.5;" x1="263" x2="3036" y1="292" y2="292"/>
  <text style="stroke:none;fill:black;font-family:sans-serif;font-size:13;font-weight:bold;" transform="matrix(1 0 0 1 263 322)">Weight/Scale Variations</text>
  <text style="stroke:none;fill:black;font-family:sans-serif;font-size:13;text-anchor:middle;" transform="matrix(1 0 0 1 559.711 322)">Ultralight</text>
  <text style="stroke:none;fill:black;font-family:sans-serif;font-size:13;text-anchor:middle;" transform="matrix(1 0 0 1 856.422 322)">Thin</text>
  <text style="stroke:none;fill:black;font-family:sans-serif;font-size:13;text-anchor:middle;" transform="matrix(1 0 0 1 1153.13 322)">Light</text>
  <text style="stroke:none;fill:black;font-family:sans-serif;font-size:13;text-anchor:middle;" transform="matrix(1 0 0 1 1449.84 322)">Regular</text>
  <text style="stroke:none;fill:black;font-family:sans-serif;font-size:13;text-anchor:middle;" transform="matrix(1 0 0 1 1746.56 322)">Medium</text>
  <text style="stroke:none;fill:black;font-family:sans-serif;font-size:13;text-anchor:middle;" transform="matrix(1 0 0 1 2043.27 322)">Semibold</text>
  <text style="stroke:none;fill:black;font-family:sans-serif;font-size:13;text-anchor:middle;" transform="matrix(1 0 0 1 2339.98 322)">Bold</text>
  <text style="stroke:none;fill:black;font-family:sans-serif;font-size:13;text-anchor:middle;" transform="matrix(1 0 0 1 2636.69 322)">Heavy</text>
  <text style="stroke:none;fill:black;font-family:sans-serif;font-size:13;text-anchor:middle;" transform="matrix(1 0 0 1 2933.4 322)">Black</text>
  <line style="fill:none;stroke:black;opacity:1;stroke-width:0.5;" x1="263" x2="3036" y1="1903" y2="1903"/>
  <g transform="matrix(0.2 0 0 0.2 263 1933)">
   <path d="m46.2402 4.15039c21.7773 0 39.4531-17.627 39.4531-39.4043s-17.6758-39.4043-39.4531-39.4043c-21.7285 0-39.4043 17.627-39.4043 39.4043s17.6758 39.4043 39.4043 39.4043Zm0-7.42188c-17.6758 0-31.9336-14.3066-31.9336-31.9824s14.2578-31.9824 31.9336-31.9824 31.9824 14.3066 31.9824 31.9824-14.3066 31.9824-31.9824 31.9824Zm-17.9688-31.9824c0 2.14844 1.51367 3.61328 3.75977 3.61328h10.498v10.5957c0 2.19727 1.46484 3.71094 3.61328 3.71094 2.24609 0 3.71094-1.51367 3.71094-3.71094v-10.5957h10.5957c2.19727 0 3.71094-1.46484 3.71094-3.61328 0-2.19727-1.51367-3.71094-3.71094-3.71094h-10.5957v-10.5469c0-2.24609-1.46484-3.75977-3.71094-3.75977-2.14844 0-3.61328 1.51367-3.61328 3.75977v10.5469h-10.498c-2.24609 0-3.75977 1.51367-3.75977 3.71094Z"/>
  </g>
  <g transform="matrix(0.2 0 0 0.2 281.506 1933)">
   <path d="m58.5449 14.5508c27.4902 0 49.8047-22.3145 49.8047-49.8047s-22.3145-49.8047-49.8047-49.8047-49.8047 22.3145-49.8047 49.8047 22.3145 49.8047 49.8047 49.8047Zm0-8.30078c-22.9492 0-41.5039-18.5547-41.5039-41.5039s18.5547-41.5039 41.5039-41.5039 41.5039 18.5547 41.5039 41.5039-18.5547 41.5039-41.5039 41.5039Zm-22.6562-41.5039c0 2.39258 1.66016 4.00391 4.15039 4.00391h14.3555v14.4043c0 2.44141 1.66016 4.15039 4.05273 4.15039 2.44141 0 4.15039-1.66016 4.15039-4.15039v-14.4043h14.4043c2.44141 0 4.15039-1.61133 4.15039-4.00391 0-2.44141-1.70898-4.15039-4.15039-4.15039h-14.4043v-14.3555c0-2.49023-1.70898-4.19922-4.15039-4.19922-2.39258 0-4.05273 1.70898-4.05273 4.19922v14.3555h-14.3555c-2.49023 0-4.15039 1.70898-4.15039 4.15039Z"/>
  </g>
  <g transform="matrix(0.2 0 0 0.2 304.924 1933)">
   <path d="m74.8535 28.3203c35.1074 0 63.623-28.4668 63.623-63.5742s-28.5156-63.623-63.623-63.623-63.5742 28.5156-63.5742 63.623 28.4668 63.5742 63.5742 63.5742Zm0-9.08203c-30.127 0-54.4922-24.3652-54.4922-54.4922s24.3652-54.4922 54.4922-54.4922 54.4922 24.3652 54.4922 54.4922-24.3652 54.4922-54.4922 54.4922Zm-28.8574-54.4922c0 2.58789 1.85547 4.39453 4.58984 4.39453h19.7266v19.7754c0 2.68555 1.85547 4.58984 4.44336 4.58984 2.68555 0 4.54102-1.85547 4.54102-4.58984v-19.7754h19.7754c2.68555 0 4.58984-1.80664 4.58984-4.39453 0-2.73438-1.85547-4.58984-4.58984-4.58984h-19.7754v-19.7266c0-2.73438-1.85547-4.63867-4.54102-4.63867-2.58789 0-4.44336 1.9043-4.44336 4.63867v19.7266h-19.7266c-2.73438 0-4.58984 1.85547-4.58984 4.58984Z"/>
  </g>
  <text style="stroke:none;fill:black;font-family:sans-serif;font-size:13;font-weight:bold;" transform="matrix(1 0 0 1 263 1953)">Design Variations</text>
  <text style="stroke:none;fill:black;font-family:sans-serif;font-size:13;" transform="matrix(1 0 0 1 263 1971)">Symbols are supported in up to nine weights and three scales.</text>
  <text style="stroke:none;fill:black;font-family:sans-serif;font-size:13;" transform="matrix(1 0 0 1 263 1989)">For optimal layout with text and other symbols, vertically align</text>
  <text style="stroke:none;fill:black;font-family:sans-serif;font-size:13;" transform="matrix(1 0 0 1 263 2007)">symbols with the adjacent text.</text>
  <line style="fill:none;stroke:#00AEEF;stroke-width:0.5;opacity:1.0;" x1="776" x2="776" y1="1919" y2="1933"/>
  <g transform="matrix(0.2 0 0 0.2 776 1933)">
   <path d="m16.5527 0.78125c2.58789 0 3.85742-0.976562 4.78516-3.71094l6.29883-17.2363h28.8086l6.29883 17.2363c0.927734 2.73438 2.19727 3.71094 4.73633 3.71094 2.58789 0 4.24805-1.5625 4.24805-4.00391 0-0.830078-0.146484-1.61133-0.537109-2.63672l-22.9004-60.9863c-1.12305-2.97852-3.125-4.49219-6.25-4.49219-3.02734 0-5.07812 1.46484-6.15234 4.44336l-22.9004 61.084c-0.390625 1.02539-0.537109 1.80664-0.537109 2.63672 0 2.44141 1.5625 3.95508 4.10156 3.95508Zm13.4766-28.3691 11.8652-32.8613h0.244141l11.8652 32.8613Z"/>
  </g>
  <line style="fill:none;stroke:#00AEEF;stroke-width:0.5;opacity:1.0;" x1="792.836" x2="792.836" y1="1919" y2="1933"/>
  <text style="stroke:none;fill:black;font-family:sans-serif;font-size:13;font-weight:bold;" transform="matrix(1 0 0 1 776 1953)">Margins</text>
  <text style="stroke:none;fill:black;font-family:sans-serif;font-size:13;" transform="matrix(1 0 0 1 776 1971)">Leading and trailing margins on the left and right side of each symbol</text>
  <text style="stroke:none;fill:black;font-family:sans-serif;font-size:13;" transform="matrix(1 0 0 1 776 1989)">can be adjusted by modifying the x-location of the margin guidelines.</text>
  <text style="stroke:none;fill:black;font-family:sans-serif;font-size:13;" transform="matrix(1 0 0 1 776 2007)">Modifications are automatically applied proportionally to all</text>
  <text style="stroke:none;fill:black;font-family:sans-serif;font-size:13;" transform="matrix(1 0 0 1 776 2025)">scales and weights.</text>
  <g transform="matrix(0.2 0 0 0.2 1289 1933)">
   <path d="m14.209 9.32617 8.49609 8.54492c4.29688 4.3457 9.22852 4.05273 13.8672-1.07422l53.4668-58.9355-4.83398-4.88281-53.0762 58.3984c-1.75781 2.00195-3.41797 2.49023-5.76172 0.146484l-5.85938-5.81055c-2.34375-2.29492-1.80664-4.00391 0.195312-5.81055l57.373-54.0039-4.88281-4.83398-57.959 54.4434c-4.93164 4.58984-5.32227 9.47266-1.02539 13.8184Zm32.0801-90.9668c-2.09961 2.05078-2.24609 4.93164-1.07422 6.88477 1.17188 1.80664 3.4668 2.97852 6.68945 2.14844 7.32422-1.70898 14.9414-2.00195 22.0703 2.68555l-2.92969 7.27539c-1.70898 4.15039-0.830078 7.08008 1.85547 9.81445l11.4746 11.5723c2.44141 2.44141 4.49219 2.53906 7.32422 2.05078l5.32227-0.976562 3.32031 3.36914-0.195312 2.7832c-0.195312 2.49023 0.439453 4.39453 2.88086 6.78711l3.80859 3.71094c2.39258 2.39258 5.46875 2.53906 7.8125 0.195312l14.5508-14.5996c2.34375-2.34375 2.24609-5.32227-0.146484-7.71484l-3.85742-3.80859c-2.39258-2.39258-4.24805-3.17383-6.64062-2.97852l-2.88086 0.244141-3.22266-3.17383 1.2207-5.61523c0.634766-2.83203-0.146484-5.0293-3.07617-7.95898l-10.9863-10.9375c-16.6992-16.6016-38.8672-16.2109-53.3203-1.75781Zm7.4707 1.85547c12.1582-8.88672 28.6133-7.37305 39.7461 3.75977l12.1582 12.0605c1.17188 1.17188 1.36719 2.09961 1.02539 3.80859l-1.61133 7.42188 7.51953 7.42188 4.93164-0.292969c1.26953-0.0488281 1.66016 0.0488281 2.63672 1.02539l2.88086 2.88086-12.207 12.207-2.88086-2.88086c-0.976562-0.976562-1.12305-1.36719-1.07422-2.68555l0.341797-4.88281-7.4707-7.42188-7.61719 1.26953c-1.61133 0.341797-2.34375 0.195312-3.56445-0.976562l-10.0098-10.0098c-1.26953-1.17188-1.41602-2.00195-0.634766-3.85742l4.39453-10.4492c-7.8125-7.27539-17.9688-10.4004-28.125-7.42188-0.78125 0.195312-1.07422-0.439453-0.439453-0.976562Z"/>
  </g>
  <text style="stroke:none;fill:black;font-family:sans-serif;font-size:13;font-weight:bold;" transform="matrix(1 0 0 1 1289 1953)">Exporting</text>
  <text style="stroke:none;fill:black;font-family:sans-serif;font-size:13;" transform="matrix(1 0 0 1 1289 1971)">Symbols should be outlined when exporting to ensure the</text>
  <text style="stroke:none;fill:black;font-family:sans-serif;font-size:13;" transform="matrix(1 0 0 1 1289 1989)">design is preserved when submitting to Xcode.</text>
  <text id="template-version" style="stroke:none;fill:black;font-family:sans-serif;font-size:13;text-anchor:end;" transform="matrix(1 0 0 1 3036 1933)">Template v.6.0</text>
  <text style="stroke:none;fill:black;font-family:sans-serif;font-size:13;text-anchor:end;" transform="matrix(1 0 0 1 3036 1951)">Requires Xcode 16 or greater</text>
  <text id="descriptive-name" style="stroke:none;fill:black;font-family:sans-serif;font-size:13;text-anchor:end;" transform="matrix(1 0 0 1 3036 1969)">Generated from square</text>
  <text style="stroke:none;fill:black;font-family:sans-serif;font-size:13;text-anchor:end;" transform="matrix(1 0 0 1 3036 1987)">Typeset at 100.0 points</text>
  <text style="stroke:none;fill:black;font-family:sans-serif;font-size:13;" transform="matrix(1 0 0 1 263 726)">Small</text>
  <text style="stroke:none;fill:black;font-family:sans-serif;font-size:13;" transform="matrix(1 0 0 1 263 1156)">Medium</text>
  <text style="stroke:none;fill:black;font-family:sans-serif;font-size:13;" transform="matrix(1 0 0 1 263 1586)">Large</text>
 </g>
 <g id="Guides">
  <g id="H-reference" style="fill:#27AAE1;stroke:none;" transform="matrix(1 0 0 1 339 696)">
   <path d="M0.993654 0L3.63775 0L29.3281-67.1323L30.0303-67.1323L30.0303-70.459L28.1226-70.459ZM11.6885-24.4799L46.9815-24.4799L46.2315-26.7285L12.4385-26.7285ZM55.1196 0L57.7637 0L30.6382-70.459L29.4326-70.459L29.4326-67.1323Z"/>
  </g>
  <line id="Baseline-S" style="fill:none;stroke:#27AAE1;opacity:1;stroke-width:0.5;" x1="263" x2="3036" y1="696" y2="696"/>
  <line id="Capline-S" style="fill:none;stroke:#27AAE1;opacity:1;stroke-width:0.5;" x1="263" x2="3036" y1="625.541" y2="625.541"/>
  <g id="H-reference" style="fill:#27AAE1;stroke:none;" transform="matrix(1 0 0 1 339 1126)">
   <path d="M0.993654 0L3.63775 0L29.3281-67.1323L30.0303-67.1323L30.0303-70.459L28.1226-70.459ZM11.6885-24.4799L46.9815-24.4799L46.2315-26.7285L12.4385-26.7285ZM55.1196 0L57.7637 0L30.6382-70.459L29.4326-70.459L29.4326-67.1323Z"/>
  </g>
  <line id="Baseline-M" style="fill:none;stroke:#27AAE1;opacity:1;stroke-width:0.5;" x1="263" x2="3036" y1="1126" y2="1126"/>
  <line id="Capline-M" style="fill:none;stroke:#27AAE1;opacity:1;stroke-width:0.5;" x1="263" x2="3036" y1="1055.54" y2="1055.54"/>
  <g id="H-reference" style="fill:#27AAE1;stroke:none;" transform="matrix(1 0 0 1 339 1556)">
   <path d="M0.993654 0L3.63775 0L29.3281-67.1323L30.0303-67.1323L30.0303-70.459L28.1226-70.459ZM11.6885-24.4799L46.9815-24.4799L46.2315-26.7285L12.4385-26.7285ZM55.1196 0L57.7637 0L30.6382-70.459L29.4326-70.459L29.4326-67.1323Z"/>
  </g>
  <line id="Baseline-L" style="fill:none;stroke:#27AAE1;opacity:1;stroke-width:0.5;" x1="263" x2="3036" y1="1556" y2="1556"/>
  <line id="Capline-L" style="fill:none;stroke:#27AAE1;opacity:1;stroke-width:0.5;" x1="263" x2="3036" y1="1485.54" y2="1485.54"/>
  <line id="right-margin-Black-S" style="fill:none;stroke:#00AEEF;stroke-width:0.5;opacity:1.0;" x1="2981.3" x2="2981.3" y1="600.785" y2="720.121"/>
  <line id="left-margin-Black-S" style="fill:none;stroke:#00AEEF;stroke-width:0.5;opacity:1.0;" x1="2885.5" x2="2885.5" y1="600.785" y2="720.121"/>
  <line id="right-margin-Regular-S" style="fill:none;stroke:#00AEEF;stroke-width:0.5;opacity:1.0;" x1="1495.18" x2="1495.18" y1="600.785" y2="720.121"/>
  <line id="left-margin-Regular-S" style="fill:none;stroke:#00AEEF;stroke-width:0.5;opacity:1.0;" x1="1404.51" x2="1404.51" y1="600.785" y2="720.121"/>
  <line id="right-margin-Ultralight-S" style="fill:none;stroke:#00AEEF;stroke-width:0.5;opacity:1.0;" x1="603.073" x2="603.073" y1="600.785" y2="720.121"/>
  <line id="left-margin-Ultralight-S" style="fill:none;stroke:#00AEEF;stroke-width:0.5;opacity:1.0;" x1="516.35" x2="516.35" y1="600.785" y2="720.121"/>
 </g>
 <g id="Symbols">
  <g id="Black-S"><path d="M2931.69882,628.52221c-7.22498,0.53138 -13.40189,2.96221 -18.78906,7.39232c-7.10461,5.84516 -11.56702,15.04886 -11.61693,23.96193l-0.00881,1.77028l0.35523,0.57835c1.17138,1.90533 3.8635,1.91707 5.02607,0.02642c0.32294,-0.52257 0.34936,-0.66936 0.49908,-2.73322c0.22312,-3.13249 0.56074,-4.93213 1.36221,-7.2837c4.47121,-13.11418 18.2753,-20.5065 31.74471,-17.0041c5.35782,1.3945 10.17252,4.52405 13.83932,8.9982c1.06863,1.30349 1.64698,1.70863 2.56588,1.80258c2.13432,0.22018 3.76956,-1.78496 3.1002,-3.79598c-0.41395,-1.25065 -4.01616,-5.12589 -6.54388,-7.04003c-4.73543,-3.5846 -9.76738,-5.66314 -15.62722,-6.447c-1.26826,-0.17028 -4.81763,-0.30532 -5.90681,-0.22606M2931.17038,640.32702c-2.3134,0.26422 -4.67672,0.97468 -6.85801,2.06386c-1.50312,0.7545 -2.0668,1.26826 -2.36331,2.16074c-0.53138,1.60294 0.36404,3.29102 1.9934,3.74607c0.82202,0.23193 1.45909,0.09688 2.9123,-0.61358c1.6323,-0.80147 2.85652,-1.19193 4.45947,-1.42973c4.54754,-0.67817 8.9982,0.7222 12.29216,3.8635c2.18716,2.08735 3.64332,4.70607 4.30974,7.75342c0.1644,0.75743 0.21725,1.77615 0.27303,5.29323l0.06752,4.35671l0.35523,0.57542c1.18019,1.91707 3.8635,1.91707 5.04369,0l0.35523,-0.57835l-0.00294,-4.64736c-0.00587,-4.60038 -0.00881,-4.66204 -0.32294,-6.1358c-0.60184,-2.81836 -1.83193,-5.6514 -3.4613,-7.9648c-1.0011,-1.42092 -3.28515,-3.70497 -4.72662,-4.72369c-1.40037,-0.98936 -3.69029,-2.17542 -5.23745,-2.71267c-2.81836,-0.97762 -6.11525,-1.34166 -9.08921,-1.00698M2916.13913,652.04964c-1.1567,0.35229 -1.7556,1.04808 -2.21065,2.55414c-0.69872,2.32221 -0.95413,3.97506 -0.96,6.20333c-0.01174,6.57911 -1.01285,14.67896 -2.46019,19.92521c-0.54899,1.9934 -0.57542,2.40735 -0.1967,3.20882c0.53138,1.11854 1.48845,1.74092 2.65689,1.72918c1.09211,-0.01174 2.11377,-0.62826 2.5923,-1.57358c0.96881,-1.89946 2.39854,-9.42976 2.91524,-15.36299c0.23193,-2.67744 0.26129,-3.16185 0.36404,-6.57617c0.10862,-3.60515 0.16147,-3.98387 0.88074,-6.57617c0.57835,-2.08441 -1.52368,-4.15708 -3.58167,-3.53176M2932.04818,652.06725c-3.25286,0.54606 -5.98314,2.95341 -6.98131,6.15635c-0.21431,0.68404 -0.27596,1.27413 -0.3611,3.52295c-0.1233,3.20588 -0.28477,5.66314 -0.57542,8.67233c-0.26422,2.75377 -0.1967,3.15304 0.68404,4.11011c0.7222,0.78386 2.04331,1.09799 3.0268,0.7222c0.70459,-0.27009 1.42973,-0.92771 1.70569,-1.54423c0.34642,-0.78386 0.87193,-6.50278 0.98936,-10.78316c0.07927,-2.92992 0.19083,-3.4613 0.8778,-4.16589c0.59009,-0.61064 1.03633,-0.80147 2.18716,-0.94826c1.06863,-0.13505 1.77028,-0.50496 2.2723,-1.1978c1.189,-1.64111 0.42569,-3.92809 -1.50313,-4.50937c-0.58716,-0.17615 -1.40624,-0.18789 -2.32221,-0.03523M2961.30334,652.12597c-0.66936,0.24367 -1.19487,0.68698 -1.56184,1.3123c-0.38459,0.65762 -0.39633,0.94239 -0.1644,4.49176c0.18202,2.78019 0.12037,10.24004 -0.11156,13.09363c-0.15853,1.9934 -0.09688,2.41909 0.46973,3.20295c0.19083,0.26422 0.60184,0.62826 0.9101,0.81028c0.48441,0.28477 0.68991,0.33174 1.44441,0.33174c0.75156,0 0.96294,-0.04697 1.4356,-0.32587c1.63524,-0.96 1.79377,-2.02276 1.79083,-11.8283c0,-8.3171 -0.12037,-9.36517 -1.18606,-10.40151c-0.82789,-0.80441 -1.99047,-1.06863 -3.0268,-0.68698M2938.49518,661.26802c-0.6723,0.21138 -1.28881,0.71046 -1.66459,1.34753c-0.30239,0.51376 -0.31707,0.62532 -0.34642,2.30166c-0.20844,12.66207 -0.77211,18.10796 -2.38093,23.01073c-0.32,0.98055 -0.58422,1.96992 -0.58422,2.19597c0,1.53248 1.3945,2.91818 2.94166,2.91818c0.93065,0 1.98166,-0.57835 2.46019,-1.35046c0.38752,-0.62826 1.22129,-3.2235 1.68808,-5.24919c1.13322,-4.92332 1.61762,-10.38096 1.64404,-18.472l0.01468,-4.8147l-0.31707,-0.54019c-0.71633,-1.21835 -2.11964,-1.76441 -3.45543,-1.34753M2903.26568,669.71723c-0.67817,0.22018 -1.29175,0.71927 -1.66459,1.3534c-0.26716,0.45798 -0.31707,0.67523 -0.31707,1.42092c0,0.7545 0.04697,0.96 0.33174,1.44441c1.52074,2.58937 5.47525,1.54423 5.47525,-1.44441c0,-1.10679 -0.60477,-2.11083 -1.57065,-2.60698c-0.58129,-0.29945 -1.62056,-0.37578 -2.25469,-0.16734M2949.57779,675.59468c-0.53725,0.19083 -1.16844,0.66055 -1.47377,1.09505c-0.33174,0.4756 -0.46385,0.98055 -0.6723,2.60405c-0.1644,1.28 -0.4345,2.88295 -1.19193,7.02535c-0.18789,1.03046 -0.18789,1.12147 0.00881,1.74092c0.53138,1.68514 2.37799,2.5424 3.96038,1.84368c0.57248,-0.25541 1.19193,-0.81909 1.45615,-1.32991c0.47266,-0.91303 1.92881,-9.75563 1.75854,-10.66866c-0.32881,-1.74973 -2.22239,-2.88882 -3.84589,-2.31047M2924.59421,681.40167c-0.76037,0.24954 -1.54423,0.8778 -1.85248,1.48257c-0.06752,0.12917 -0.28477,0.89542 -0.48441,1.70276c-0.19963,0.80734 -0.6312,2.3134 -0.96,3.3468c-0.66055,2.07267 -0.69285,2.5512 -0.23486,3.44955c0.89835,1.75854 3.04148,2.18129 4.56516,0.89835c0.51376,-0.4345 0.71927,-0.86312 1.36514,-2.87708c0.76331,-2.36918 1.26239,-4.40662 1.26826,-5.16993c0.01174,-1.10973 -0.58716,-2.08441 -1.60294,-2.60698c-0.50496,-0.25835 -1.59707,-0.37872 -2.06386,-0.22606" className="SFSymbolsPreviewWireframe"/></g>
  <g id="Regular-S"><path d="M1448.14377,628.52221c-7.22498,0.53138 -13.40189,2.96221 -18.78906,7.39232c-7.10461,5.84516 -11.56702,15.04886 -11.61693,23.96193l-0.00881,1.77028l0.35523,0.57835c1.17138,1.90533 3.8635,1.91707 5.02607,0.02642c0.32294,-0.52257 0.34936,-0.66936 0.49908,-2.73322c0.22312,-3.13249 0.56074,-4.93213 1.36221,-7.2837c4.47121,-13.11418 18.2753,-20.5065 31.74471,-17.0041c5.35782,1.3945 10.17252,4.52405 13.83932,8.9982c1.06863,1.30349 1.64698,1.70863 2.56588,1.80258c2.13432,0.22018 3.76956,-1.78496 3.1002,-3.79598c-0.41395,-1.25065 -4.01616,-5.12589 -6.54388,-7.04003c-4.73543,-3.5846 -9.76738,-5.66314 -15.62722,-6.447c-1.26826,-0.17028 -4.81763,-0.30532 -5.90681,-0.22606M1447.61533,640.32702c-2.3134,0.26422 -4.67672,0.97468 -6.85801,2.06386c-1.50312,0.7545 -2.0668,1.26826 -2.36331,2.16074c-0.53138,1.60294 0.36404,3.29102 1.9934,3.74607c0.82202,0.23193 1.45909,0.09688 2.9123,-0.61358c1.6323,-0.80147 2.85652,-1.19193 4.45947,-1.42973c4.54754,-0.67817 8.9982,0.7222 12.29216,3.8635c2.18716,2.08735 3.64332,4.70607 4.30974,7.75342c0.1644,0.75743 0.21725,1.77615 0.27303,5.29323l0.06752,4.35671l0.35523,0.57542c1.18019,1.91707 3.8635,1.91707 5.04369,0l0.35523,-0.57835l-0.00294,-4.64736c-0.00587,-4.60038 -0.00881,-4.66204 -0.32294,-6.1358c-0.60184,-2.81836 -1.83193,-5.6514 -3.4613,-7.9648c-1.0011,-1.42092 -3.28515,-3.70497 -4.72662,-4.72369c-1.40037,-0.98936 -3.69029,-2.17542 -5.23745,-2.71267c-2.81836,-0.97762 -6.11525,-1.34166 -9.08921,-1.00698M1432.58408,652.04964c-1.1567,0.35229 -1.7556,1.04808 -2.21065,2.55414c-0.69872,2.32221 -0.95413,3.97506 -0.96,6.20333c-0.01174,6.57911 -1.01285,14.67896 -2.46019,19.92521c-0.54899,1.9934 -0.57542,2.40735 -0.1967,3.20882c0.53138,1.11854 1.48845,1.74092 2.65689,1.72918c1.09211,-0.01174 2.11377,-0.62826 2.5923,-1.57358c0.96881,-1.89946 2.39854,-9.42976 2.91524,-15.36299c0.23193,-2.67744 0.26129,-3.16185 0.36404,-6.57617c0.10862,-3.60515 0.16147,-3.98387 0.88074,-6.57617c0.57835,-2.08441 -1.52368,-4.15708 -3.58167,-3.53176M1448.49313,652.06725c-3.25286,0.54606 -5.98314,2.95341 -6.98131,6.15635c-0.21431,0.68404 -0.27596,1.27413 -0.3611,3.52295c-0.1233,3.20588 -0.28477,5.66314 -0.57542,8.67233c-0.26422,2.75377 -0.1967,3.15304 0.68404,4.11011c0.7222,0.78386 2.04331,1.09799 3.0268,0.7222c0.70459,-0.27009 1.42973,-0.92771 1.70569,-1.54423c0.34642,-0.78386 0.87193,-6.50278 0.98936,-10.78316c0.07927,-2.92992 0.19083,-3.4613 0.8778,-4.16589c0.59009,-0.61064 1.03633,-0.80147 2.18716,-0.94826c1.06863,-0.13505 1.77028,-0.50496 2.2723,-1.1978c1.189,-1.64111 0.42569,-3.92809 -1.50312,-4.50937c-0.58716,-0.17615 -1.40624,-0.18789 -2.32221,-0.03523M1477.74829,652.12597c-0.66936,0.24367 -1.19487,0.68698 -1.56184,1.3123c-0.38459,0.65762 -0.39633,0.94239 -0.1644,4.49176c0.18202,2.78019 0.12037,10.24004 -0.11156,13.09363c-0.15853,1.9934 -0.09688,2.41909 0.46973,3.20295c0.19083,0.26422 0.60184,0.62826 0.9101,0.81028c0.48441,0.28477 0.68991,0.33174 1.44441,0.33174c0.75156,0 0.96294,-0.04697 1.4356,-0.32587c1.63524,-0.96 1.79377,-2.02276 1.79083,-11.8283c0,-8.3171 -0.12037,-9.36517 -1.18606,-10.40151c-0.82789,-0.80441 -1.99047,-1.06863 -3.0268,-0.68698M1454.94013,661.26802c-0.6723,0.21138 -1.28881,0.71046 -1.66459,1.34753c-0.30239,0.51376 -0.31707,0.62532 -0.34642,2.30166c-0.20844,12.66207 -0.77211,18.10796 -2.38093,23.01073c-0.32,0.98055 -0.58422,1.96992 -0.58422,2.19597c0,1.53248 1.3945,2.91818 2.94166,2.91818c0.93065,0 1.98166,-0.57835 2.46019,-1.35046c0.38752,-0.62826 1.22129,-3.2235 1.68808,-5.24919c1.13322,-4.92332 1.61762,-10.38096 1.64404,-18.472l0.01468,-4.8147l-0.31707,-0.54019c-0.71633,-1.21835 -2.11964,-1.76441 -3.45543,-1.34753M1419.71064,669.71723c-0.67817,0.22018 -1.29175,0.71927 -1.66459,1.3534c-0.26716,0.45798 -0.31707,0.67523 -0.31707,1.42092c0,0.7545 0.04697,0.96 0.33174,1.44441c1.52074,2.58937 5.47525,1.54423 5.47525,-1.44441c0,-1.10679 -0.60477,-2.11083 -1.57065,-2.60698c-0.58129,-0.29945 -1.62056,-0.37578 -2.25469,-0.16734M1466.02274,675.59468c-0.53725,0.19083 -1.16844,0.66055 -1.47377,1.09505c-0.33174,0.4756 -0.46385,0.98055 -0.6723,2.60405c-0.1644,1.28 -0.4345,2.88295 -1.19193,7.02535c-0.18789,1.03046 -0.18789,1.12147 0.00881,1.74092c0.53138,1.68514 2.37799,2.5424 3.96038,1.84368c0.57248,-0.25541 1.19193,-0.81909 1.45615,-1.32991c0.47266,-0.91303 1.92881,-9.75563 1.75854,-10.66866c-0.32881,-1.74973 -2.22239,-2.88882 -3.84589,-2.31047M1441.03916,681.40167c-0.76037,0.24954 -1.54423,0.8778 -1.85248,1.48257c-0.06752,0.12917 -0.28477,0.89542 -0.48441,1.70276c-0.19963,0.80734 -0.6312,2.3134 -0.96,3.3468c-0.66055,2.07267 -0.69285,2.5512 -0.23486,3.44955c0.89835,1.75854 3.04148,2.18129 4.56516,0.89835c0.51376,-0.4345 0.71927,-0.86312 1.36514,-2.87708c0.76331,-2.36918 1.26239,-4.40662 1.26826,-5.16993c0.01174,-1.10973 -0.58716,-2.08441 -1.60294,-2.60698c-0.50496,-0.25835 -1.59707,-0.37872 -2.06386,-0.22606" className="SFSymbolsPreviewWireframe"/></g>
  <g id="Ultralight-S"><path d="M558.01018,628.52221c-7.22498,0.53138 -13.40189,2.96221 -18.78906,7.39232c-7.10461,5.84516 -11.56702,15.04886 -11.61693,23.96193l-0.00881,1.77028l0.35523,0.57835c1.17138,1.90533 3.8635,1.91707 5.02607,0.02642c0.32294,-0.52257 0.34936,-0.66936 0.49908,-2.73322c0.22312,-3.13249 0.56074,-4.93213 1.36221,-7.2837c4.47121,-13.11418 18.2753,-20.5065 31.74471,-17.0041c5.35782,1.3945 10.17252,4.52405 13.83932,8.9982c1.06863,1.30349 1.64698,1.70863 2.56588,1.80258c2.13432,0.22018 3.76956,-1.78496 3.1002,-3.79598c-0.41395,-1.25065 -4.01616,-5.12589 -6.54388,-7.04003c-4.73543,-3.5846 -9.76738,-5.66314 -15.62722,-6.447c-1.26826,-0.17028 -4.81763,-0.30532 -5.90681,-0.22606M557.48174,640.32702c-2.3134,0.26422 -4.67672,0.97468 -6.85801,2.06386c-1.50313,0.7545 -2.0668,1.26826 -2.36331,2.16074c-0.53138,1.60294 0.36404,3.29102 1.9934,3.74607c0.82202,0.23193 1.45909,0.09688 2.9123,-0.61358c1.6323,-0.80147 2.85652,-1.19193 4.45947,-1.42973c4.54754,-0.67817 8.9982,0.7222 12.29216,3.8635c2.18716,2.08735 3.64332,4.70607 4.30974,7.75342c0.1644,0.75743 0.21725,1.77615 0.27303,5.29323l0.06752,4.35671l0.35523,0.57542c1.18019,1.91707 3.8635,1.91707 5.04369,0l0.35523,-0.57835l-0.00294,-4.64736c-0.00587,-4.60038 -0.00881,-4.66204 -0.32294,-6.1358c-0.60184,-2.81836 -1.83193,-5.6514 -3.4613,-7.9648c-1.0011,-1.42092 -3.28515,-3.70497 -4.72662,-4.72369c-1.40037,-0.98936 -3.69029,-2.17542 -5.23745,-2.71267c-2.81836,-0.97762 -6.11525,-1.34166 -9.08921,-1.00698M542.45049,652.04964c-1.1567,0.35229 -1.7556,1.04808 -2.21065,2.55414c-0.69872,2.32221 -0.95413,3.97506 -0.96,6.20333c-0.01174,6.57911 -1.01285,14.67896 -2.46019,19.92521c-0.54899,1.9934 -0.57542,2.40735 -0.1967,3.20882c0.53138,1.11854 1.48845,1.74092 2.65689,1.72918c1.09211,-0.01174 2.11377,-0.62826 2.5923,-1.57358c0.96881,-1.89946 2.39854,-9.42976 2.91524,-15.36299c0.23193,-2.67744 0.26129,-3.16185 0.36404,-6.57617c0.10862,-3.60515 0.16147,-3.98387 0.88074,-6.57617c0.57835,-2.08441 -1.52368,-4.15708 -3.58167,-3.53176M558.35954,652.06725c-3.25286,0.54606 -5.98314,2.95341 -6.98131,6.15635c-0.21431,0.68404 -0.27596,1.27413 -0.3611,3.52295c-0.1233,3.20588 -0.28477,5.66314 -0.57542,8.67233c-0.26422,2.75377 -0.1967,3.15304 0.68404,4.11011c0.7222,0.78386 2.04331,1.09799 3.0268,0.7222c0.70459,-0.27009 1.42973,-0.92771 1.70569,-1.54423c0.34642,-0.78386 0.87193,-6.50278 0.98936,-10.78316c0.07927,-2.92992 0.19083,-3.4613 0.8778,-4.16589c0.59009,-0.61064 1.03633,-0.80147 2.18716,-0.94826c1.06863,-0.13505 1.77028,-0.50496 2.2723,-1.1978c1.189,-1.64111 0.42569,-3.92809 -1.50312,-4.50937c-0.58716,-0.17615 -1.40624,-0.18789 -2.32221,-0.03523M587.6147,652.12597c-0.66936,0.24367 -1.19487,0.68698 -1.56184,1.3123c-0.38459,0.65762 -0.39633,0.94239 -0.1644,4.49176c0.18202,2.78019 0.12037,10.24004 -0.11156,13.09363c-0.15853,1.9934 -0.09688,2.41909 0.46973,3.20295c0.19083,0.26422 0.60184,0.62826 0.9101,0.81028c0.48441,0.28477 0.68991,0.33174 1.44441,0.33174c0.75156,0 0.96294,-0.04697 1.4356,-0.32587c1.63524,-0.96 1.79377,-2.02276 1.79083,-11.8283c0,-8.3171 -0.12037,-9.36517 -1.18606,-10.40151c-0.82789,-0.80441 -1.99047,-1.06863 -3.0268,-0.68698M564.80654,661.26802c-0.6723,0.21138 -1.28881,0.71046 -1.66459,1.34753c-0.30239,0.51376 -0.31707,0.62532 -0.34642,2.30166c-0.20844,12.66207 -0.77211,18.10796 -2.38093,23.01073c-0.32,0.98055 -0.58422,1.96992 -0.58422,2.19597c0,1.53248 1.3945,2.91818 2.94166,2.91818c0.93065,0 1.98166,-0.57835 2.46019,-1.35046c0.38752,-0.62826 1.22129,-3.2235 1.68808,-5.24919c1.13322,-4.92332 1.61762,-10.38096 1.64404,-18.472l0.01468,-4.8147l-0.31707,-0.54019c-0.71633,-1.21835 -2.11964,-1.76441 -3.45543,-1.34753M529.57705,669.71723c-0.67817,0.22018 -1.29175,0.71927 -1.66459,1.3534c-0.26716,0.45798 -0.31707,0.67523 -0.31707,1.42092c0,0.7545 0.04697,0.96 0.33174,1.44441c1.52074,2.58937 5.47525,1.54423 5.47525,-1.44441c0,-1.10679 -0.60477,-2.11083 -1.57065,-2.60698c-0.58129,-0.29945 -1.62056,-0.37578 -2.25469,-0.16734M575.88915,675.59468c-0.53725,0.19083 -1.16844,0.66055 -1.47377,1.09505c-0.33174,0.4756 -0.46385,0.98055 -0.6723,2.60405c-0.1644,1.28 -0.4345,2.88295 -1.19193,7.02535c-0.18789,1.03046 -0.18789,1.12147 0.00881,1.74092c0.53138,1.68514 2.37799,2.5424 3.96038,1.84368c0.57248,-0.25541 1.19193,-0.81909 1.45615,-1.32991c0.47266,-0.91303 1.92881,-9.75563 1.75854,-10.66866c-0.32881,-1.74973 -2.22239,-2.88882 -3.84589,-2.31047M550.90557,681.40167c-0.76037,0.24954 -1.54423,0.8778 -1.85248,1.48257c-0.06752,0.12917 -0.28477,0.89542 -0.48441,1.70276c-0.19963,0.80734 -0.6312,2.3134 -0.96,3.3468c-0.66055,2.07267 -0.69285,2.5512 -0.23486,3.44955c0.89835,1.75854 3.04148,2.18129 4.56516,0.89835c0.51376,-0.4345 0.71927,-0.86312 1.36514,-2.87708c0.76331,-2.36918 1.26239,-4.40662 1.26826,-5.16993c0.01174,-1.10973 -0.58716,-2.08441 -1.60294,-2.60698c-0.50496,-0.25835 -1.59707,-0.37872 -2.06386,-0.22606" className="SFSymbolsPreviewWireframe"/></g>
 </g>
</svg>