<?xml version="1.0" encoding="UTF-8"?><!--Generator: SymbolKit.app--><!DOCTYPE svg PUBLIC "-//W3C//DTD SVG 1.1//EN" "http://www.w3.org/Graphics/SVG/1.1/DTD/svg11.dtd"><svg xmlns="http://www.w3.org/2000/svg" xmlns:xlink="http://www.w3.org/1999/xlink" version="1.1" viewBox="0 0 3300 2200">
 <!--glyph: "100092", point size: 100.0, font version: "20.0d10e1", template writer version: "138.0.0"-->
 <style>.SFSymbolsPreviewWireframe {fill:none;opacity:1.0;stroke:black;stroke-width:0.5}
</style>
 <g id="Notes">
  <rect height="2200" id="artboard" style="fill:white;opacity:1" width="3300" x="0" y="0"/>
  <line style="fill:none;stroke:black;opacity:1;stroke-width:0.5;" x1="263" x2="3036" y1="292" y2="292"/>
  <text style="stroke:none;fill:black;font-family:sans-serif;font-size:13;font-weight:bold;" transform="matrix(1 0 0 1 263 322)">Weight/Scale Variations</text>
  <text style="stroke:none;fill:black;font-family:sans-serif;font-size:13;text-anchor:middle;" transform="matrix(1 0 0 1 559.711 322)">Ultralight</text>
  <text style="stroke:none;fill:black;font-family:sans-serif;font-size:13;text-anchor:middle;" transform="matrix(1 0 0 1 856.422 322)">Thin</text>
  <text style="stroke:none;fill:black;font-family:sans-serif;font-size:13;text-anchor:middle;" transform="matrix(1 0 0 1 1153.13 322)">Light</text>
  <text style="stroke:none;fill:black;font-family:sans-serif;font-size:13;text-anchor:middle;" transform="matrix(1 0 0 1 1449.84 322)">Regular</text>
  <text style="stroke:none;fill:black;font-family:sans-serif;font-size:13;text-anchor:middle;" transform="matrix(1 0 0 1 1746.56 322)">Medium</text>
  <text style="stroke:none;fill:black;font-family:sans-serif;font-size:13;text-anchor:middle;" transform="matrix(1 0 0 1 2043.27 322)">Semibold</text>
  <text style="stroke:none;fill:black;font-family:sans-serif;font-size:13;text-anchor:middle;" transform="matrix(1 0 0 1 2339.98 322)">Bold</text>
  <text style="stroke:none;fill:black;font-family:sans-serif;font-size:13;text-anchor:middle;" transform="matrix(1 0 0 1 2636.69 322)">Heavy</text>
  <text style="stroke:none;fill:black;font-family:sans-serif;font-size:13;text-anchor:middle;" transform="matrix(1 0 0 1 2933.4 322)">Black</text>
  <line style="fill:none;stroke:black;opacity:1;stroke-width:0.5;" x1="263" x2="3036" y1="1903" y2="1903"/>
  <g transform="matrix(0.2 0 0 0.2 263 1933)">
   <path d="m46.2402 4.15039c21.7773 0 39.4531-17.627 39.4531-39.4043s-17.6758-39.4043-39.4531-39.4043c-21.7285 0-39.4043 17.627-39.4043 39.4043s17.6758 39.4043 39.4043 39.4043Zm0-7.42188c-17.6758 0-31.9336-14.3066-31.9336-31.9824s14.2578-31.9824 31.9336-31.9824 31.9824 14.3066 31.9824 31.9824-14.3066 31.9824-31.9824 31.9824Zm-17.9688-31.9824c0 2.14844 1.51367 3.61328 3.75977 3.61328h10.498v10.5957c0 2.19727 1.46484 3.71094 3.61328 3.71094 2.24609 0 3.71094-1.51367 3.71094-3.71094v-10.5957h10.5957c2.19727 0 3.71094-1.46484 3.71094-3.61328 0-2.19727-1.51367-3.71094-3.71094-3.71094h-10.5957v-10.5469c0-2.24609-1.46484-3.75977-3.71094-3.75977-2.14844 0-3.61328 1.51367-3.61328 3.75977v10.5469h-10.498c-2.24609 0-3.75977 1.51367-3.75977 3.71094Z"/>
  </g>
  <g transform="matrix(0.2 0 0 0.2 281.506 1933)">
   <path d="m58.5449 14.5508c27.4902 0 49.8047-22.3145 49.8047-49.8047s-22.3145-49.8047-49.8047-49.8047-49.8047 22.3145-49.8047 49.8047 22.3145 49.8047 49.8047 49.8047Zm0-8.30078c-22.9492 0-41.5039-18.5547-41.5039-41.5039s18.5547-41.5039 41.5039-41.5039 41.5039 18.5547 41.5039 41.5039-18.5547 41.5039-41.5039 41.5039Zm-22.6562-41.5039c0 2.39258 1.66016 4.00391 4.15039 4.00391h14.3555v14.4043c0 2.44141 1.66016 4.15039 4.05273 4.15039 2.44141 0 4.15039-1.66016 4.15039-4.15039v-14.4043h14.4043c2.44141 0 4.15039-1.61133 4.15039-4.00391 0-2.44141-1.70898-4.15039-4.15039-4.15039h-14.4043v-14.3555c0-2.49023-1.70898-4.19922-4.15039-4.19922-2.39258 0-4.05273 1.70898-4.05273 4.19922v14.3555h-14.3555c-2.49023 0-4.15039 1.70898-4.15039 4.15039Z"/>
  </g>
  <g transform="matrix(0.2 0 0 0.2 304.924 1933)">
   <path d="m74.8535 28.3203c35.1074 0 63.623-28.4668 63.623-63.5742s-28.5156-63.623-63.623-63.623-63.5742 28.5156-63.5742 63.623 28.4668 63.5742 63.5742 63.5742Zm0-9.08203c-30.127 0-54.4922-24.3652-54.4922-54.4922s24.3652-54.4922 54.4922-54.4922 54.4922 24.3652 54.4922 54.4922-24.3652 54.4922-54.4922 54.4922Zm-28.8574-54.4922c0 2.58789 1.85547 4.39453 4.58984 4.39453h19.7266v19.7754c0 2.68555 1.85547 4.58984 4.44336 4.58984 2.68555 0 4.54102-1.85547 4.54102-4.58984v-19.7754h19.7754c2.68555 0 4.58984-1.80664 4.58984-4.39453 0-2.73438-1.85547-4.58984-4.58984-4.58984h-19.7754v-19.7266c0-2.73438-1.85547-4.63867-4.54102-4.63867-2.58789 0-4.44336 1.9043-4.44336 4.63867v19.7266h-19.7266c-2.73438 0-4.58984 1.85547-4.58984 4.58984Z"/>
  </g>
  <text style="stroke:none;fill:black;font-family:sans-serif;font-size:13;font-weight:bold;" transform="matrix(1 0 0 1 263 1953)">Design Variations</text>
  <text style="stroke:none;fill:black;font-family:sans-serif;font-size:13;" transform="matrix(1 0 0 1 263 1971)">Symbols are supported in up to nine weights and three scales.</text>
  <text style="stroke:none;fill:black;font-family:sans-serif;font-size:13;" transform="matrix(1 0 0 1 263 1989)">For optimal layout with text and other symbols, vertically align</text>
  <text style="stroke:none;fill:black;font-family:sans-serif;font-size:13;" transform="matrix(1 0 0 1 263 2007)">symbols with the adjacent text.</text>
  <line style="fill:none;stroke:#00AEEF;stroke-width:0.5;opacity:1.0;" x1="776" x2="776" y1="1919" y2="1933"/>
  <g transform="matrix(0.2 0 0 0.2 776 1933)">
   <path d="m16.5527 0.78125c2.58789 0 3.85742-0.976562 4.78516-3.71094l6.29883-17.2363h28.8086l6.29883 17.2363c0.927734 2.73438 2.19727 3.71094 4.73633 3.71094 2.58789 0 4.24805-1.5625 4.24805-4.00391 0-0.830078-0.146484-1.61133-0.537109-2.63672l-22.9004-60.9863c-1.12305-2.97852-3.125-4.49219-6.25-4.49219-3.02734 0-5.07812 1.46484-6.15234 4.44336l-22.9004 61.084c-0.390625 1.02539-0.537109 1.80664-0.537109 2.63672 0 2.44141 1.5625 3.95508 4.10156 3.95508Zm13.4766-28.3691 11.8652-32.8613h0.244141l11.8652 32.8613Z"/>
  </g>
  <line style="fill:none;stroke:#00AEEF;stroke-width:0.5;opacity:1.0;" x1="792.836" x2="792.836" y1="1919" y2="1933"/>
  <text style="stroke:none;fill:black;font-family:sans-serif;font-size:13;font-weight:bold;" transform="matrix(1 0 0 1 776 1953)">Margins</text>
  <text style="stroke:none;fill:black;font-family:sans-serif;font-size:13;" transform="matrix(1 0 0 1 776 1971)">Leading and trailing margins on the left and right side of each symbol</text>
  <text style="stroke:none;fill:black;font-family:sans-serif;font-size:13;" transform="matrix(1 0 0 1 776 1989)">can be adjusted by modifying the x-location of the margin guidelines.</text>
  <text style="stroke:none;fill:black;font-family:sans-serif;font-size:13;" transform="matrix(1 0 0 1 776 2007)">Modifications are automatically applied proportionally to all</text>
  <text style="stroke:none;fill:black;font-family:sans-serif;font-size:13;" transform="matrix(1 0 0 1 776 2025)">scales and weights.</text>
  <g transform="matrix(0.2 0 0 0.2 1289 1933)">
   <path d="m14.209 9.32617 8.49609 8.54492c4.29688 4.3457 9.22852 4.05273 13.8672-1.07422l53.4668-58.9355-4.83398-4.88281-53.0762 58.3984c-1.75781 2.00195-3.41797 2.49023-5.76172 0.146484l-5.85938-5.81055c-2.34375-2.29492-1.80664-4.00391 0.195312-5.81055l57.373-54.0039-4.88281-4.83398-57.959 54.4434c-4.93164 4.58984-5.32227 9.47266-1.02539 13.8184Zm32.0801-90.9668c-2.09961 2.05078-2.24609 4.93164-1.07422 6.88477 1.17188 1.80664 3.4668 2.97852 6.68945 2.14844 7.32422-1.70898 14.9414-2.00195 22.0703 2.68555l-2.92969 7.27539c-1.70898 4.15039-0.830078 7.08008 1.85547 9.81445l11.4746 11.5723c2.44141 2.44141 4.49219 2.53906 7.32422 2.05078l5.32227-0.976562 3.32031 3.36914-0.195312 2.7832c-0.195312 2.49023 0.439453 4.39453 2.88086 6.78711l3.80859 3.71094c2.39258 2.39258 5.46875 2.53906 7.8125 0.195312l14.5508-14.5996c2.34375-2.34375 2.24609-5.32227-0.146484-7.71484l-3.85742-3.80859c-2.39258-2.39258-4.24805-3.17383-6.64062-2.97852l-2.88086 0.244141-3.22266-3.17383 1.2207-5.61523c0.634766-2.83203-0.146484-5.0293-3.07617-7.95898l-10.9863-10.9375c-16.6992-16.6016-38.8672-16.2109-53.3203-1.75781Zm7.4707 1.85547c12.1582-8.88672 28.6133-7.37305 39.7461 3.75977l12.1582 12.0605c1.17188 1.17188 1.36719 2.09961 1.02539 3.80859l-1.61133 7.42188 7.51953 7.42188 4.93164-0.292969c1.26953-0.0488281 1.66016 0.0488281 2.63672 1.02539l2.88086 2.88086-12.207 12.207-2.88086-2.88086c-0.976562-0.976562-1.12305-1.36719-1.07422-2.68555l0.341797-4.88281-7.4707-7.42188-7.61719 1.26953c-1.61133 0.341797-2.34375 0.195312-3.56445-0.976562l-10.0098-10.0098c-1.26953-1.17188-1.41602-2.00195-0.634766-3.85742l4.39453-10.4492c-7.8125-7.27539-17.9688-10.4004-28.125-7.42188-0.78125 0.195312-1.07422-0.439453-0.439453-0.976562Z"/>
  </g>
  <text style="stroke:none;fill:black;font-family:sans-serif;font-size:13;font-weight:bold;" transform="matrix(1 0 0 1 1289 1953)">Exporting</text>
  <text style="stroke:none;fill:black;font-family:sans-serif;font-size:13;" transform="matrix(1 0 0 1 1289 1971)">Symbols should be outlined when exporting to ensure the</text>
  <text style="stroke:none;fill:black;font-family:sans-serif;font-size:13;" transform="matrix(1 0 0 1 1289 1989)">design is preserved when submitting to Xcode.</text>
  <text id="template-version" style="stroke:none;fill:black;font-family:sans-serif;font-size:13;text-anchor:end;" transform="matrix(1 0 0 1 3036 1933)">Template v.6.0</text>
  <text style="stroke:none;fill:black;font-family:sans-serif;font-size:13;text-anchor:end;" transform="matrix(1 0 0 1 3036 1951)">Requires Xcode 16 or greater</text>
  <text id="descriptive-name" style="stroke:none;fill:black;font-family:sans-serif;font-size:13;text-anchor:end;" transform="matrix(1 0 0 1 3036 1969)">Generated from square</text>
  <text style="stroke:none;fill:black;font-family:sans-serif;font-size:13;text-anchor:end;" transform="matrix(1 0 0 1 3036 1987)">Typeset at 100.0 points</text>
  <text style="stroke:none;fill:black;font-family:sans-serif;font-size:13;" transform="matrix(1 0 0 1 263 726)">Small</text>
  <text style="stroke:none;fill:black;font-family:sans-serif;font-size:13;" transform="matrix(1 0 0 1 263 1156)">Medium</text>
  <text style="stroke:none;fill:black;font-family:sans-serif;font-size:13;" transform="matrix(1 0 0 1 263 1586)">Large</text>
 </g>
 <g id="Guides">
  <g id="H-reference" style="fill:#27AAE1;stroke:none;" transform="matrix(1 0 0 1 339 696)">
   <path d="M0.993654 0L3.63775 0L29.3281-67.1323L30.0303-67.1323L30.0303-70.459L28.1226-70.459ZM11.6885-24.4799L46.9815-24.4799L46.2315-26.7285L12.4385-26.7285ZM55.1196 0L57.7637 0L30.6382-70.459L29.4326-70.459L29.4326-67.1323Z"/>
  </g>
  <line id="Baseline-S" style="fill:none;stroke:#27AAE1;opacity:1;stroke-width:0.5;" x1="263" x2="3036" y1="696" y2="696"/>
  <line id="Capline-S" style="fill:none;stroke:#27AAE1;opacity:1;stroke-width:0.5;" x1="263" x2="3036" y1="625.541" y2="625.541"/>
  <g id="H-reference" style="fill:#27AAE1;stroke:none;" transform="matrix(1 0 0 1 339 1126)">
   <path d="M0.993654 0L3.63775 0L29.3281-67.1323L30.0303-67.1323L30.0303-70.459L28.1226-70.459ZM11.6885-24.4799L46.9815-24.4799L46.2315-26.7285L12.4385-26.7285ZM55.1196 0L57.7637 0L30.6382-70.459L29.4326-70.459L29.4326-67.1323Z"/>
  </g>
  <line id="Baseline-M" style="fill:none;stroke:#27AAE1;opacity:1;stroke-width:0.5;" x1="263" x2="3036" y1="1126" y2="1126"/>
  <line id="Capline-M" style="fill:none;stroke:#27AAE1;opacity:1;stroke-width:0.5;" x1="263" x2="3036" y1="1055.54" y2="1055.54"/>
  <g id="H-reference" style="fill:#27AAE1;stroke:none;" transform="matrix(1 0 0 1 339 1556)">
   <path d="M0.993654 0L3.63775 0L29.3281-67.1323L30.0303-67.1323L30.0303-70.459L28.1226-70.459ZM11.6885-24.4799L46.9815-24.4799L46.2315-26.7285L12.4385-26.7285ZM55.1196 0L57.7637 0L30.6382-70.459L29.4326-70.459L29.4326-67.1323Z"/>
  </g>
  <line id="Baseline-L" style="fill:none;stroke:#27AAE1;opacity:1;stroke-width:0.5;" x1="263" x2="3036" y1="1556" y2="1556"/>
  <line id="Capline-L" style="fill:none;stroke:#27AAE1;opacity:1;stroke-width:0.5;" x1="263" x2="3036" y1="1485.54" y2="1485.54"/>
  <line id="right-margin-Black-S" style="fill:none;stroke:#00AEEF;stroke-width:0.5;opacity:1.0;" x1="2981.3" x2="2981.3" y1="600.785" y2="720.121"/>
  <line id="left-margin-Black-S" style="fill:none;stroke:#00AEEF;stroke-width:0.5;opacity:1.0;" x1="2885.5" x2="2885.5" y1="600.785" y2="720.121"/>
  <line id="right-margin-Regular-S" style="fill:none;stroke:#00AEEF;stroke-width:0.5;opacity:1.0;" x1="1495.18" x2="1495.18" y1="600.785" y2="720.121"/>
  <line id="left-margin-Regular-S" style="fill:none;stroke:#00AEEF;stroke-width:0.5;opacity:1.0;" x1="1404.51" x2="1404.51" y1="600.785" y2="720.121"/>
  <line id="right-margin-Ultralight-S" style="fill:none;stroke:#00AEEF;stroke-width:0.5;opacity:1.0;" x1="603.073" x2="603.073" y1="600.785" y2="720.121"/>
  <line id="left-margin-Ultralight-S" style="fill:none;stroke:#00AEEF;stroke-width:0.5;opacity:1.0;" x1="516.35" x2="516.35" y1="600.785" y2="720.121"/>
 </g>
 <g id="Symbols">
  <g id="Black-S"><path d="M2961.96416,628.61216c-0.22312,0.06165 -0.61945,0.26422 -0.88074,0.44918c-0.26422,0.18495 -2.77432,2.63634 -5.58094,5.44883l-5.10534,5.11121l-0.37872,-1.00698c-1.56184,-4.15414 -5.41066,-7.11342 -9.81141,-7.54498c-2.98276,-0.29358 -5.898,0.53138 -8.31416,2.35157c-1.05395,0.7956 -2.24882,2.11377 -2.9035,3.21176c-0.23486,0.39046 -0.44037,0.73101 -0.46385,0.75743c-0.02055,0.02642 -0.50202,-0.19376 -1.06569,-0.48734c-4.50938,-2.36331 -9.89068,-1.59707 -13.61033,1.93762c-1.46202,1.38863 -2.51891,3.15598 -3.17065,5.31085c-0.29651,0.97762 -0.32,1.21248 -0.32,3.11194c0,1.89359 0.02642,2.13726 0.31707,3.11194c0.17615,0.58129 0.56661,1.55891 0.87487,2.17249c0.30532,0.61358 0.57248,1.15377 0.59303,1.1978c0.02055,0.04404 -0.17321,0.18789 -0.42863,0.31707c-0.25541,0.13211 -0.89835,0.56661 -1.42973,0.96294c-3.48772,2.63047 -5.2169,7.22205 -4.3391,11.53179c0.25248,1.2301 0.83964,2.80368 1.34459,3.60809c0.16147,0.25248 0.29358,0.51376 0.29358,0.57835c0,0.06459 -0.20551,0.22312 -0.45798,0.35229c-0.85725,0.43743 -2.38093,1.68221 -3.12662,2.55414c-5.24919,6.15342 -2.97396,15.5274 4.50057,18.54246c2.81542,1.13322 5.92149,1.13322 8.73691,0c2.38093,-0.96 4.45947,-2.73029 5.70131,-4.8558c0.2378,-0.4022 0.47266,-0.73395 0.52551,-0.73395c0.05284,0 0.30826,0.13505 0.56954,0.29945c1.3945,0.88074 3.98974,1.57946 5.86277,1.57946c1.93469,0 4.36846,-0.6723 6.00076,-1.65579c1.59413,-0.96 3.17946,-2.54533 4.06901,-4.06901c0.2378,-0.40514 0.46092,-0.7222 0.49615,-0.70459c0.03229,0.01468 0.56367,0.2789 1.17725,0.58422c0.61358,0.30826 1.5912,0.69872 2.17249,0.87487c0.97468,0.29064 1.21835,0.31707 3.11194,0.31707c1.89946,0 2.13432,-0.02349 3.11194,-0.32c4.48002,-1.35634 7.47746,-4.61506 8.39636,-9.12444c0.52844,-2.5923 0.12624,-5.23158 -1.18019,-7.74168c-0.27303,-0.52257 -0.4756,-0.96588 -0.44918,-0.98643c0.02349,-0.01761 0.3611,-0.22312 0.75156,-0.45798c2.52184,-1.509 4.51231,-4.20992 5.2991,-7.18975c0.39046,-1.48845 0.43743,-3.79011 0.10862,-5.28442c-0.89542,-4.05726 -3.88112,-7.38351 -7.80627,-8.68701l-0.62826,-0.20844l2.62753,-2.62753l2.62753,-2.63047l0.06165,1.28c0.05872,1.1567 0.09688,1.33285 0.41688,1.84955c1.17432,1.9112 3.86057,1.90826 5.03782,-0.00587l0.35523,-0.57835v-5.29323v-5.29323l-0.31707,-0.54019c-0.69578,-1.18312 -2.08148,-1.74973 -3.37322,-1.37689M2939.93692,636.93219c3.07377,0.43156 5.31672,3.44368 4.87635,6.54681c-0.21725,1.52955 -0.74276,2.5424 -1.84955,3.55524c-1.509,1.37689 -3.56699,1.86129 -5.5692,1.30643c-2.48955,-0.68991 -4.20992,-2.98864 -4.20992,-5.6191c0,-2.92405 2.0756,-5.35782 4.93213,-5.78351c0.89835,-0.13505 0.90129,-0.13505 1.82019,-0.00587M2923.15301,641.5179c2.33689,0.42569 4.28919,2.48955 4.62681,4.89396c0.58129,4.1424 -3.19414,7.57141 -7.2015,6.53801c-2.08441,-0.53725 -3.86057,-2.34863 -4.28919,-4.37139c-0.42569,-1.99927 0.11743,-3.9046 1.53248,-5.37837c1.40624,-1.46496 3.27928,-2.05505 5.3314,-1.68221M2952.38468,649.37995c3.07377,0.43156 5.31672,3.44368 4.87635,6.54681c-0.21725,1.52955 -0.74276,2.5424 -1.84955,3.55524c-1.509,1.37689 -3.56699,1.86129 -5.5692,1.30643c-2.48955,-0.68991 -4.20992,-2.98864 -4.20992,-5.6191c0,-2.92405 2.0756,-5.35782 4.93213,-5.78351c0.89835,-0.13505 0.90129,-0.13505 1.82019,-0.00587M2935.35709,653.95978c3.07377,0.43156 5.31672,3.44368 4.87635,6.54681c-0.21725,1.52955 -0.74276,2.5424 -1.84955,3.55524c-1.5178,1.38569 -3.43781,1.83781 -5.51929,1.29468c-1.05982,-0.27303 -1.7468,-0.66936 -2.54533,-1.47083c-1.12441,-1.12441 -1.7145,-2.56588 -1.7145,-4.18644c0,-2.84478 2.05505,-5.26094 4.87341,-5.7336c0.81321,-0.13798 0.94532,-0.13798 1.87891,-0.00587M2918.98418,658.63356c1.01285,0.26422 1.98166,0.86019 2.75084,1.68808c0.77211,0.83083 1.18606,1.65872 1.43854,2.88588c0.39927,1.92881 -0.1644,3.76075 -1.60588,5.20516c-1.17138,1.17725 -2.51597,1.74973 -4.09836,1.74973c-1.51193,0 -2.85652,-0.53138 -3.97506,-1.57065c-3.9046,-3.62864 -1.36221,-10.15784 3.95451,-10.15784c0.41982,0 1.10973,0.09101 1.53542,0.19963M2948.5065,666.54258c0.87487,0.22312 1.8701,0.82202 2.58643,1.55303c1.77028,1.80551 2.18129,4.41837 1.05688,6.72003c-0.70459,1.44147 -2.31634,2.74203 -3.82827,3.09139c-0.66349,0.15266 -2.13138,0.15266 -2.79487,0c-1.51193,-0.34936 -3.12368,-1.64991 -3.82827,-3.09139c-2.23707,-4.5769 1.84955,-9.54426 6.8081,-8.27306M2931.40258,671.09306c3.53469,0.9189 5.36663,4.92332 3.75781,8.22902c-0.45505,0.93358 -1.66166,2.18716 -2.53359,2.62753c-2.26349,1.14789 -4.84699,0.7956 -6.6848,-0.9101c-2.46019,-2.28698 -2.55414,-6.01837 -0.20551,-8.41691c1.47377,-1.50606 3.57286,-2.07267 5.66608,-1.52955M2914.40435,675.66115c2.16955,0.56661 3.89579,2.49836 4.23928,4.74717c0.29358,1.91707 -0.27596,3.64919 -1.65579,5.03195c-1.17725,1.18312 -2.51304,1.74973 -4.11891,1.74973c-1.51193,0 -2.82423,-0.52257 -3.95451,-1.57065c-3.9046,-3.62864 -1.36221,-10.15784 3.95451,-10.15784c0.41982,0 1.10973,0.09101 1.53542,0.19963" className="SFSymbolsPreviewWireframe"/></g>
  <g id="Regular-S"><path d="M1478.40911,628.61216c-0.22312,0.06165 -0.61945,0.26422 -0.88074,0.44918c-0.26422,0.18495 -2.77432,2.63634 -5.58094,5.44883l-5.10534,5.11121l-0.37872,-1.00698c-1.56184,-4.15414 -5.41066,-7.11342 -9.81141,-7.54498c-2.98276,-0.29358 -5.898,0.53138 -8.31416,2.35157c-1.05395,0.7956 -2.24882,2.11377 -2.9035,3.21176c-0.23486,0.39046 -0.44037,0.73101 -0.46385,0.75743c-0.02055,0.02642 -0.50202,-0.19376 -1.06569,-0.48734c-4.50938,-2.36331 -9.89068,-1.59707 -13.61033,1.93762c-1.46202,1.38863 -2.51891,3.15598 -3.17065,5.31085c-0.29651,0.97762 -0.32,1.21248 -0.32,3.11194c0,1.89359 0.02642,2.13726 0.31707,3.11194c0.17615,0.58129 0.56661,1.55891 0.87487,2.17249c0.30532,0.61358 0.57248,1.15377 0.59303,1.1978c0.02055,0.04404 -0.17321,0.18789 -0.42863,0.31707c-0.25541,0.13211 -0.89835,0.56661 -1.42973,0.96294c-3.48772,2.63047 -5.2169,7.22205 -4.3391,11.53179c0.25248,1.2301 0.83964,2.80368 1.34459,3.60809c0.16147,0.25248 0.29358,0.51376 0.29358,0.57835c0,0.06459 -0.20551,0.22312 -0.45798,0.35229c-0.85725,0.43743 -2.38093,1.68221 -3.12662,2.55414c-5.24919,6.15342 -2.97396,15.5274 4.50057,18.54246c2.81542,1.13322 5.92149,1.13322 8.73691,0c2.38093,-0.96 4.45947,-2.73029 5.70131,-4.8558c0.2378,-0.4022 0.47266,-0.73395 0.52551,-0.73395c0.05284,0 0.30826,0.13505 0.56954,0.29945c1.3945,0.88074 3.98974,1.57946 5.86277,1.57946c1.93469,0 4.36846,-0.6723 6.00076,-1.65579c1.59413,-0.96 3.17946,-2.54533 4.06901,-4.06901c0.2378,-0.40514 0.46092,-0.7222 0.49615,-0.70459c0.03229,0.01468 0.56367,0.2789 1.17725,0.58422c0.61358,0.30826 1.5912,0.69872 2.17249,0.87487c0.97468,0.29064 1.21835,0.31707 3.11194,0.31707c1.89946,0 2.13432,-0.02349 3.11194,-0.32c4.48002,-1.35634 7.47746,-4.61506 8.39636,-9.12444c0.52844,-2.5923 0.12624,-5.23158 -1.18019,-7.74168c-0.27303,-0.52257 -0.4756,-0.96588 -0.44918,-0.98643c0.02349,-0.01761 0.3611,-0.22312 0.75156,-0.45798c2.52184,-1.509 4.51231,-4.20992 5.2991,-7.18975c0.39046,-1.48845 0.43743,-3.79011 0.10862,-5.28442c-0.89542,-4.05726 -3.88112,-7.38351 -7.80627,-8.68701l-0.62826,-0.20844l2.62753,-2.62753l2.62753,-2.63047l0.06165,1.28c0.05872,1.1567 0.09688,1.33285 0.41688,1.84955c1.17432,1.9112 3.86057,1.90826 5.03782,-0.00587l0.35523,-0.57835v-5.29323v-5.29323l-0.31707,-0.54019c-0.69578,-1.18312 -2.08148,-1.74973 -3.37322,-1.37689M1456.38187,636.93219c3.07377,0.43156 5.31672,3.44368 4.87635,6.54681c-0.21725,1.52955 -0.74276,2.5424 -1.84955,3.55524c-1.509,1.37689 -3.56699,1.86129 -5.5692,1.30643c-2.48955,-0.68991 -4.20992,-2.98864 -4.20992,-5.6191c0,-2.92405 2.0756,-5.35782 4.93213,-5.78351c0.89835,-0.13505 0.90129,-0.13505 1.82019,-0.00587M1439.59796,641.5179c2.33689,0.42569 4.28919,2.48955 4.62681,4.89396c0.58129,4.1424 -3.19414,7.57141 -7.2015,6.53801c-2.08441,-0.53725 -3.86057,-2.34863 -4.28919,-4.37139c-0.42569,-1.99927 0.11743,-3.9046 1.53248,-5.37837c1.40624,-1.46496 3.27928,-2.05505 5.3314,-1.68221M1468.82963,649.37995c3.07377,0.43156 5.31672,3.44368 4.87635,6.54681c-0.21725,1.52955 -0.74276,2.5424 -1.84955,3.55524c-1.509,1.37689 -3.56699,1.86129 -5.5692,1.30643c-2.48955,-0.68991 -4.20992,-2.98864 -4.20992,-5.6191c0,-2.92405 2.0756,-5.35782 4.93213,-5.78351c0.89835,-0.13505 0.90129,-0.13505 1.82019,-0.00587M1451.80204,653.95978c3.07377,0.43156 5.31672,3.44368 4.87635,6.54681c-0.21725,1.52955 -0.74276,2.5424 -1.84955,3.55524c-1.5178,1.38569 -3.43781,1.83781 -5.51929,1.29468c-1.05982,-0.27303 -1.7468,-0.66936 -2.54533,-1.47083c-1.12441,-1.12441 -1.7145,-2.56588 -1.7145,-4.18644c0,-2.84478 2.05505,-5.26094 4.87341,-5.7336c0.81321,-0.13798 0.94532,-0.13798 1.87891,-0.00587M1435.42913,658.63356c1.01285,0.26422 1.98166,0.86019 2.75084,1.68808c0.77211,0.83083 1.18606,1.65872 1.43854,2.88588c0.39927,1.92881 -0.1644,3.76075 -1.60588,5.20516c-1.17138,1.17725 -2.51597,1.74973 -4.09836,1.74973c-1.51193,0 -2.85652,-0.53138 -3.97506,-1.57065c-3.9046,-3.62864 -1.36221,-10.15784 3.95451,-10.15784c0.41982,0 1.10973,0.09101 1.53542,0.19963M1464.95145,666.54258c0.87487,0.22312 1.8701,0.82202 2.58643,1.55303c1.77028,1.80551 2.18129,4.41837 1.05688,6.72003c-0.70459,1.44147 -2.31634,2.74203 -3.82827,3.09139c-0.66349,0.15266 -2.13138,0.15266 -2.79487,0c-1.51193,-0.34936 -3.12368,-1.64991 -3.82827,-3.09139c-2.23707,-4.5769 1.84955,-9.54426 6.8081,-8.27306M1447.84753,671.09306c3.53469,0.9189 5.36663,4.92332 3.75781,8.22902c-0.45505,0.93358 -1.66166,2.18716 -2.53359,2.62753c-2.26349,1.14789 -4.84699,0.7956 -6.6848,-0.9101c-2.46019,-2.28698 -2.55414,-6.01837 -0.20551,-8.41691c1.47377,-1.50606 3.57286,-2.07267 5.66608,-1.52955M1430.8493,675.66115c2.16955,0.56661 3.89579,2.49836 4.23928,4.74717c0.29358,1.91707 -0.27596,3.64919 -1.65579,5.03195c-1.17725,1.18312 -2.51304,1.74973 -4.11891,1.74973c-1.51193,0 -2.82423,-0.52257 -3.95451,-1.57065c-3.9046,-3.62864 -1.36221,-10.15784 3.95451,-10.15784c0.41982,0 1.10973,0.09101 1.53542,0.19963" className="SFSymbolsPreviewWireframe"/></g>
  <g id="Ultralight-S"><path d="M588.27552,628.61216c-0.22312,0.06165 -0.61945,0.26422 -0.88074,0.44918c-0.26422,0.18495 -2.77432,2.63634 -5.58094,5.44883l-5.10534,5.11121l-0.37872,-1.00698c-1.56184,-4.15414 -5.41066,-7.11342 -9.81141,-7.54498c-2.98276,-0.29358 -5.898,0.53138 -8.31416,2.35157c-1.05395,0.7956 -2.24882,2.11377 -2.9035,3.21176c-0.23486,0.39046 -0.44037,0.73101 -0.46385,0.75743c-0.02055,0.02642 -0.50202,-0.19376 -1.06569,-0.48734c-4.50937,-2.36331 -9.89068,-1.59707 -13.61033,1.93762c-1.46202,1.38863 -2.51891,3.15598 -3.17065,5.31085c-0.29651,0.97762 -0.32,1.21248 -0.32,3.11194c0,1.89359 0.02642,2.13726 0.31707,3.11194c0.17615,0.58129 0.56661,1.55891 0.87487,2.17249c0.30532,0.61358 0.57248,1.15377 0.59303,1.1978c0.02055,0.04404 -0.17321,0.18789 -0.42863,0.31707c-0.25541,0.13211 -0.89835,0.56661 -1.42973,0.96294c-3.48772,2.63047 -5.2169,7.22205 -4.3391,11.53179c0.25248,1.2301 0.83964,2.80368 1.34459,3.60809c0.16147,0.25248 0.29358,0.51376 0.29358,0.57835c0,0.06459 -0.20551,0.22312 -0.45798,0.35229c-0.85725,0.43743 -2.38093,1.68221 -3.12662,2.55414c-5.24919,6.15342 -2.97396,15.5274 4.50057,18.54246c2.81542,1.13322 5.92149,1.13322 8.73691,0c2.38093,-0.96 4.45947,-2.73029 5.70131,-4.8558c0.2378,-0.4022 0.47266,-0.73395 0.52551,-0.73395c0.05284,0 0.30826,0.13505 0.56954,0.29945c1.3945,0.88074 3.98974,1.57946 5.86277,1.57946c1.93469,0 4.36846,-0.6723 6.00076,-1.65579c1.59413,-0.96 3.17946,-2.54533 4.06901,-4.06901c0.2378,-0.40514 0.46092,-0.7222 0.49615,-0.70459c0.03229,0.01468 0.56367,0.2789 1.17725,0.58422c0.61358,0.30826 1.5912,0.69872 2.17249,0.87487c0.97468,0.29064 1.21835,0.31707 3.11194,0.31707c1.89946,0 2.13432,-0.02349 3.11194,-0.32c4.48002,-1.35634 7.47746,-4.61506 8.39636,-9.12444c0.52844,-2.5923 0.12624,-5.23158 -1.18019,-7.74168c-0.27303,-0.52257 -0.4756,-0.96588 -0.44918,-0.98643c0.02349,-0.01761 0.3611,-0.22312 0.75156,-0.45798c2.52184,-1.509 4.51231,-4.20992 5.2991,-7.18975c0.39046,-1.48845 0.43743,-3.79011 0.10862,-5.28442c-0.89542,-4.05726 -3.88112,-7.38351 -7.80627,-8.68701l-0.62826,-0.20844l2.62753,-2.62753l2.62753,-2.63047l0.06165,1.28c0.05872,1.1567 0.09688,1.33285 0.41688,1.84955c1.17432,1.9112 3.86057,1.90826 5.03782,-0.00587l0.35523,-0.57835v-5.29323v-5.29323l-0.31707,-0.54019c-0.69578,-1.18312 -2.08148,-1.74973 -3.37322,-1.37689M566.24828,636.93219c3.07377,0.43156 5.31672,3.44368 4.87635,6.54681c-0.21725,1.52955 -0.74276,2.5424 -1.84955,3.55524c-1.509,1.37689 -3.56699,1.86129 -5.5692,1.30643c-2.48955,-0.68991 -4.20992,-2.98864 -4.20992,-5.6191c0,-2.92405 2.0756,-5.35782 4.93213,-5.78351c0.89835,-0.13505 0.90129,-0.13505 1.82019,-0.00587M549.46437,641.5179c2.33689,0.42569 4.28919,2.48955 4.62681,4.89396c0.58129,4.1424 -3.19414,7.57141 -7.2015,6.53801c-2.08441,-0.53725 -3.86057,-2.34863 -4.28919,-4.37139c-0.42569,-1.99927 0.11743,-3.9046 1.53248,-5.37837c1.40624,-1.46496 3.27928,-2.05505 5.3314,-1.68221M578.69604,649.37995c3.07377,0.43156 5.31672,3.44368 4.87635,6.54681c-0.21725,1.52955 -0.74276,2.5424 -1.84955,3.55524c-1.509,1.37689 -3.56699,1.86129 -5.5692,1.30643c-2.48955,-0.68991 -4.20992,-2.98864 -4.20992,-5.6191c0,-2.92405 2.0756,-5.35782 4.93213,-5.78351c0.89835,-0.13505 0.90129,-0.13505 1.82019,-0.00587M561.66845,653.95978c3.07377,0.43156 5.31672,3.44368 4.87635,6.54681c-0.21725,1.52955 -0.74276,2.5424 -1.84955,3.55524c-1.5178,1.38569 -3.43781,1.83781 -5.51929,1.29468c-1.05982,-0.27303 -1.7468,-0.66936 -2.54533,-1.47083c-1.12441,-1.12441 -1.7145,-2.56588 -1.7145,-4.18644c0,-2.84478 2.05505,-5.26094 4.87341,-5.7336c0.81321,-0.13798 0.94532,-0.13798 1.87891,-0.00587M545.29554,658.63356c1.01285,0.26422 1.98166,0.86019 2.75084,1.68808c0.77211,0.83083 1.18606,1.65872 1.43854,2.88588c0.39927,1.92881 -0.1644,3.76075 -1.60588,5.20516c-1.17138,1.17725 -2.51597,1.74973 -4.09836,1.74973c-1.51193,0 -2.85652,-0.53138 -3.97506,-1.57065c-3.9046,-3.62864 -1.36221,-10.15784 3.95451,-10.15784c0.41982,0 1.10973,0.09101 1.53542,0.19963M574.81786,666.54258c0.87487,0.22312 1.8701,0.82202 2.58643,1.55303c1.77028,1.80551 2.18129,4.41837 1.05688,6.72003c-0.70459,1.44147 -2.31634,2.74203 -3.82827,3.09139c-0.66349,0.15266 -2.13138,0.15266 -2.79487,0c-1.51193,-0.34936 -3.12368,-1.64991 -3.82827,-3.09139c-2.23707,-4.5769 1.84955,-9.54426 6.8081,-8.27306M557.71394,671.09306c3.53469,0.9189 5.36663,4.92332 3.75781,8.22902c-0.45505,0.93358 -1.66166,2.18716 -2.53359,2.62753c-2.26349,1.14789 -4.84699,0.7956 -6.6848,-0.9101c-2.46019,-2.28698 -2.55414,-6.01837 -0.20551,-8.41691c1.47377,-1.50606 3.57286,-2.07267 5.66608,-1.52955M540.71571,675.66115c2.16955,0.56661 3.89579,2.49836 4.23928,4.74717c0.29358,1.91707 -0.27596,3.64919 -1.65579,5.03195c-1.17725,1.18312 -2.51304,1.74973 -4.11891,1.74973c-1.51193,0 -2.82423,-0.52257 -3.95451,-1.57065c-3.9046,-3.62864 -1.36221,-10.15784 3.95451,-10.15784c0.41982,0 1.10973,0.09101 1.53542,0.19963" className="SFSymbolsPreviewWireframe"/></g>
 </g>
</svg>