<?xml version="1.0" encoding="UTF-8"?><!--Generator: SymbolKit.app--><!DOCTYPE svg PUBLIC "-//W3C//DTD SVG 1.1//EN" "http://www.w3.org/Graphics/SVG/1.1/DTD/svg11.dtd"><svg xmlns="http://www.w3.org/2000/svg" xmlns:xlink="http://www.w3.org/1999/xlink" version="1.1" viewBox="0 0 3300 2200">
 <!--glyph: "100092", point size: 100.0, font version: "20.0d10e1", template writer version: "138.0.0"-->
 <style>.SFSymbolsPreviewWireframe {fill:none;opacity:1.0;stroke:black;stroke-width:0.5}
</style>
 <g id="Notes">
  <rect height="2200" id="artboard" style="fill:white;opacity:1" width="3300" x="0" y="0"/>
  <line style="fill:none;stroke:black;opacity:1;stroke-width:0.5;" x1="263" x2="3036" y1="292" y2="292"/>
  <text style="stroke:none;fill:black;font-family:sans-serif;font-size:13;font-weight:bold;" transform="matrix(1 0 0 1 263 322)">Weight/Scale Variations</text>
  <text style="stroke:none;fill:black;font-family:sans-serif;font-size:13;text-anchor:middle;" transform="matrix(1 0 0 1 559.711 322)">Ultralight</text>
  <text style="stroke:none;fill:black;font-family:sans-serif;font-size:13;text-anchor:middle;" transform="matrix(1 0 0 1 856.422 322)">Thin</text>
  <text style="stroke:none;fill:black;font-family:sans-serif;font-size:13;text-anchor:middle;" transform="matrix(1 0 0 1 1153.13 322)">Light</text>
  <text style="stroke:none;fill:black;font-family:sans-serif;font-size:13;text-anchor:middle;" transform="matrix(1 0 0 1 1449.84 322)">Regular</text>
  <text style="stroke:none;fill:black;font-family:sans-serif;font-size:13;text-anchor:middle;" transform="matrix(1 0 0 1 1746.56 322)">Medium</text>
  <text style="stroke:none;fill:black;font-family:sans-serif;font-size:13;text-anchor:middle;" transform="matrix(1 0 0 1 2043.27 322)">Semibold</text>
  <text style="stroke:none;fill:black;font-family:sans-serif;font-size:13;text-anchor:middle;" transform="matrix(1 0 0 1 2339.98 322)">Bold</text>
  <text style="stroke:none;fill:black;font-family:sans-serif;font-size:13;text-anchor:middle;" transform="matrix(1 0 0 1 2636.69 322)">Heavy</text>
  <text style="stroke:none;fill:black;font-family:sans-serif;font-size:13;text-anchor:middle;" transform="matrix(1 0 0 1 2933.4 322)">Black</text>
  <line style="fill:none;stroke:black;opacity:1;stroke-width:0.5;" x1="263" x2="3036" y1="1903" y2="1903"/>
  <g transform="matrix(0.2 0 0 0.2 263 1933)">
   <path d="m46.2402 4.15039c21.7773 0 39.4531-17.627 39.4531-39.4043s-17.6758-39.4043-39.4531-39.4043c-21.7285 0-39.4043 17.627-39.4043 39.4043s17.6758 39.4043 39.4043 39.4043Zm0-7.42188c-17.6758 0-31.9336-14.3066-31.9336-31.9824s14.2578-31.9824 31.9336-31.9824 31.9824 14.3066 31.9824 31.9824-14.3066 31.9824-31.9824 31.9824Zm-17.9688-31.9824c0 2.14844 1.51367 3.61328 3.75977 3.61328h10.498v10.5957c0 2.19727 1.46484 3.71094 3.61328 3.71094 2.24609 0 3.71094-1.51367 3.71094-3.71094v-10.5957h10.5957c2.19727 0 3.71094-1.46484 3.71094-3.61328 0-2.19727-1.51367-3.71094-3.71094-3.71094h-10.5957v-10.5469c0-2.24609-1.46484-3.75977-3.71094-3.75977-2.14844 0-3.61328 1.51367-3.61328 3.75977v10.5469h-10.498c-2.24609 0-3.75977 1.51367-3.75977 3.71094Z"/>
  </g>
  <g transform="matrix(0.2 0 0 0.2 281.506 1933)">
   <path d="m58.5449 14.5508c27.4902 0 49.8047-22.3145 49.8047-49.8047s-22.3145-49.8047-49.8047-49.8047-49.8047 22.3145-49.8047 49.8047 22.3145 49.8047 49.8047 49.8047Zm0-8.30078c-22.9492 0-41.5039-18.5547-41.5039-41.5039s18.5547-41.5039 41.5039-41.5039 41.5039 18.5547 41.5039 41.5039-18.5547 41.5039-41.5039 41.5039Zm-22.6562-41.5039c0 2.39258 1.66016 4.00391 4.15039 4.00391h14.3555v14.4043c0 2.44141 1.66016 4.15039 4.05273 4.15039 2.44141 0 4.15039-1.66016 4.15039-4.15039v-14.4043h14.4043c2.44141 0 4.15039-1.61133 4.15039-4.00391 0-2.44141-1.70898-4.15039-4.15039-4.15039h-14.4043v-14.3555c0-2.49023-1.70898-4.19922-4.15039-4.19922-2.39258 0-4.05273 1.70898-4.05273 4.19922v14.3555h-14.3555c-2.49023 0-4.15039 1.70898-4.15039 4.15039Z"/>
  </g>
  <g transform="matrix(0.2 0 0 0.2 304.924 1933)">
   <path d="m74.8535 28.3203c35.1074 0 63.623-28.4668 63.623-63.5742s-28.5156-63.623-63.623-63.623-63.5742 28.5156-63.5742 63.623 28.4668 63.5742 63.5742 63.5742Zm0-9.08203c-30.127 0-54.4922-24.3652-54.4922-54.4922s24.3652-54.4922 54.4922-54.4922 54.4922 24.3652 54.4922 54.4922-24.3652 54.4922-54.4922 54.4922Zm-28.8574-54.4922c0 2.58789 1.85547 4.39453 4.58984 4.39453h19.7266v19.7754c0 2.68555 1.85547 4.58984 4.44336 4.58984 2.68555 0 4.54102-1.85547 4.54102-4.58984v-19.7754h19.7754c2.68555 0 4.58984-1.80664 4.58984-4.39453 0-2.73438-1.85547-4.58984-4.58984-4.58984h-19.7754v-19.7266c0-2.73438-1.85547-4.63867-4.54102-4.63867-2.58789 0-4.44336 1.9043-4.44336 4.63867v19.7266h-19.7266c-2.73438 0-4.58984 1.85547-4.58984 4.58984Z"/>
  </g>
  <text style="stroke:none;fill:black;font-family:sans-serif;font-size:13;font-weight:bold;" transform="matrix(1 0 0 1 263 1953)">Design Variations</text>
  <text style="stroke:none;fill:black;font-family:sans-serif;font-size:13;" transform="matrix(1 0 0 1 263 1971)">Symbols are supported in up to nine weights and three scales.</text>
  <text style="stroke:none;fill:black;font-family:sans-serif;font-size:13;" transform="matrix(1 0 0 1 263 1989)">For optimal layout with text and other symbols, vertically align</text>
  <text style="stroke:none;fill:black;font-family:sans-serif;font-size:13;" transform="matrix(1 0 0 1 263 2007)">symbols with the adjacent text.</text>
  <line style="fill:none;stroke:#00AEEF;stroke-width:0.5;opacity:1.0;" x1="776" x2="776" y1="1919" y2="1933"/>
  <g transform="matrix(0.2 0 0 0.2 776 1933)">
   <path d="m16.5527 0.78125c2.58789 0 3.85742-0.976562 4.78516-3.71094l6.29883-17.2363h28.8086l6.29883 17.2363c0.927734 2.73438 2.19727 3.71094 4.73633 3.71094 2.58789 0 4.24805-1.5625 4.24805-4.00391 0-0.830078-0.146484-1.61133-0.537109-2.63672l-22.9004-60.9863c-1.12305-2.97852-3.125-4.49219-6.25-4.49219-3.02734 0-5.07812 1.46484-6.15234 4.44336l-22.9004 61.084c-0.390625 1.02539-0.537109 1.80664-0.537109 2.63672 0 2.44141 1.5625 3.95508 4.10156 3.95508Zm13.4766-28.3691 11.8652-32.8613h0.244141l11.8652 32.8613Z"/>
  </g>
  <line style="fill:none;stroke:#00AEEF;stroke-width:0.5;opacity:1.0;" x1="792.836" x2="792.836" y1="1919" y2="1933"/>
  <text style="stroke:none;fill:black;font-family:sans-serif;font-size:13;font-weight:bold;" transform="matrix(1 0 0 1 776 1953)">Margins</text>
  <text style="stroke:none;fill:black;font-family:sans-serif;font-size:13;" transform="matrix(1 0 0 1 776 1971)">Leading and trailing margins on the left and right side of each symbol</text>
  <text style="stroke:none;fill:black;font-family:sans-serif;font-size:13;" transform="matrix(1 0 0 1 776 1989)">can be adjusted by modifying the x-location of the margin guidelines.</text>
  <text style="stroke:none;fill:black;font-family:sans-serif;font-size:13;" transform="matrix(1 0 0 1 776 2007)">Modifications are automatically applied proportionally to all</text>
  <text style="stroke:none;fill:black;font-family:sans-serif;font-size:13;" transform="matrix(1 0 0 1 776 2025)">scales and weights.</text>
  <g transform="matrix(0.2 0 0 0.2 1289 1933)">
   <path d="m14.209 9.32617 8.49609 8.54492c4.29688 4.3457 9.22852 4.05273 13.8672-1.07422l53.4668-58.9355-4.83398-4.88281-53.0762 58.3984c-1.75781 2.00195-3.41797 2.49023-5.76172 0.146484l-5.85938-5.81055c-2.34375-2.29492-1.80664-4.00391 0.195312-5.81055l57.373-54.0039-4.88281-4.83398-57.959 54.4434c-4.93164 4.58984-5.32227 9.47266-1.02539 13.8184Zm32.0801-90.9668c-2.09961 2.05078-2.24609 4.93164-1.07422 6.88477 1.17188 1.80664 3.4668 2.97852 6.68945 2.14844 7.32422-1.70898 14.9414-2.00195 22.0703 2.68555l-2.92969 7.27539c-1.70898 4.15039-0.830078 7.08008 1.85547 9.81445l11.4746 11.5723c2.44141 2.44141 4.49219 2.53906 7.32422 2.05078l5.32227-0.976562 3.32031 3.36914-0.195312 2.7832c-0.195312 2.49023 0.439453 4.39453 2.88086 6.78711l3.80859 3.71094c2.39258 2.39258 5.46875 2.53906 7.8125 0.195312l14.5508-14.5996c2.34375-2.34375 2.24609-5.32227-0.146484-7.71484l-3.85742-3.80859c-2.39258-2.39258-4.24805-3.17383-6.64062-2.97852l-2.88086 0.244141-3.22266-3.17383 1.2207-5.61523c0.634766-2.83203-0.146484-5.0293-3.07617-7.95898l-10.9863-10.9375c-16.6992-16.6016-38.8672-16.2109-53.3203-1.75781Zm7.4707 1.85547c12.1582-8.88672 28.6133-7.37305 39.7461 3.75977l12.1582 12.0605c1.17188 1.17188 1.36719 2.09961 1.02539 3.80859l-1.61133 7.42188 7.51953 7.42188 4.93164-0.292969c1.26953-0.0488281 1.66016 0.0488281 2.63672 1.02539l2.88086 2.88086-12.207 12.207-2.88086-2.88086c-0.976562-0.976562-1.12305-1.36719-1.07422-2.68555l0.341797-4.88281-7.4707-7.42188-7.61719 1.26953c-1.61133 0.341797-2.34375 0.195312-3.56445-0.976562l-10.0098-10.0098c-1.26953-1.17188-1.41602-2.00195-0.634766-3.85742l4.39453-10.4492c-7.8125-7.27539-17.9688-10.4004-28.125-7.42188-0.78125 0.195312-1.07422-0.439453-0.439453-0.976562Z"/>
  </g>
  <text style="stroke:none;fill:black;font-family:sans-serif;font-size:13;font-weight:bold;" transform="matrix(1 0 0 1 1289 1953)">Exporting</text>
  <text style="stroke:none;fill:black;font-family:sans-serif;font-size:13;" transform="matrix(1 0 0 1 1289 1971)">Symbols should be outlined when exporting to ensure the</text>
  <text style="stroke:none;fill:black;font-family:sans-serif;font-size:13;" transform="matrix(1 0 0 1 1289 1989)">design is preserved when submitting to Xcode.</text>
  <text id="template-version" style="stroke:none;fill:black;font-family:sans-serif;font-size:13;text-anchor:end;" transform="matrix(1 0 0 1 3036 1933)">Template v.6.0</text>
  <text style="stroke:none;fill:black;font-family:sans-serif;font-size:13;text-anchor:end;" transform="matrix(1 0 0 1 3036 1951)">Requires Xcode 16 or greater</text>
  <text id="descriptive-name" style="stroke:none;fill:black;font-family:sans-serif;font-size:13;text-anchor:end;" transform="matrix(1 0 0 1 3036 1969)">Generated from square</text>
  <text style="stroke:none;fill:black;font-family:sans-serif;font-size:13;text-anchor:end;" transform="matrix(1 0 0 1 3036 1987)">Typeset at 100.0 points</text>
  <text style="stroke:none;fill:black;font-family:sans-serif;font-size:13;" transform="matrix(1 0 0 1 263 726)">Small</text>
  <text style="stroke:none;fill:black;font-family:sans-serif;font-size:13;" transform="matrix(1 0 0 1 263 1156)">Medium</text>
  <text style="stroke:none;fill:black;font-family:sans-serif;font-size:13;" transform="matrix(1 0 0 1 263 1586)">Large</text>
 </g>
 <g id="Guides">
  <g id="H-reference" style="fill:#27AAE1;stroke:none;" transform="matrix(1 0 0 1 339 696)">
   <path d="M0.993654 0L3.63775 0L29.3281-67.1323L30.0303-67.1323L30.0303-70.459L28.1226-70.459ZM11.6885-24.4799L46.9815-24.4799L46.2315-26.7285L12.4385-26.7285ZM55.1196 0L57.7637 0L30.6382-70.459L29.4326-70.459L29.4326-67.1323Z"/>
  </g>
  <line id="Baseline-S" style="fill:none;stroke:#27AAE1;opacity:1;stroke-width:0.5;" x1="263" x2="3036" y1="696" y2="696"/>
  <line id="Capline-S" style="fill:none;stroke:#27AAE1;opacity:1;stroke-width:0.5;" x1="263" x2="3036" y1="625.541" y2="625.541"/>
  <g id="H-reference" style="fill:#27AAE1;stroke:none;" transform="matrix(1 0 0 1 339 1126)">
   <path d="M0.993654 0L3.63775 0L29.3281-67.1323L30.0303-67.1323L30.0303-70.459L28.1226-70.459ZM11.6885-24.4799L46.9815-24.4799L46.2315-26.7285L12.4385-26.7285ZM55.1196 0L57.7637 0L30.6382-70.459L29.4326-70.459L29.4326-67.1323Z"/>
  </g>
  <line id="Baseline-M" style="fill:none;stroke:#27AAE1;opacity:1;stroke-width:0.5;" x1="263" x2="3036" y1="1126" y2="1126"/>
  <line id="Capline-M" style="fill:none;stroke:#27AAE1;opacity:1;stroke-width:0.5;" x1="263" x2="3036" y1="1055.54" y2="1055.54"/>
  <g id="H-reference" style="fill:#27AAE1;stroke:none;" transform="matrix(1 0 0 1 339 1556)">
   <path d="M0.993654 0L3.63775 0L29.3281-67.1323L30.0303-67.1323L30.0303-70.459L28.1226-70.459ZM11.6885-24.4799L46.9815-24.4799L46.2315-26.7285L12.4385-26.7285ZM55.1196 0L57.7637 0L30.6382-70.459L29.4326-70.459L29.4326-67.1323Z"/>
  </g>
  <line id="Baseline-L" style="fill:none;stroke:#27AAE1;opacity:1;stroke-width:0.5;" x1="263" x2="3036" y1="1556" y2="1556"/>
  <line id="Capline-L" style="fill:none;stroke:#27AAE1;opacity:1;stroke-width:0.5;" x1="263" x2="3036" y1="1485.54" y2="1485.54"/>
  <line id="right-margin-Black-S" style="fill:none;stroke:#00AEEF;stroke-width:0.5;opacity:1.0;" x1="2981.3" x2="2981.3" y1="600.785" y2="720.121"/>
  <line id="left-margin-Black-S" style="fill:none;stroke:#00AEEF;stroke-width:0.5;opacity:1.0;" x1="2885.5" x2="2885.5" y1="600.785" y2="720.121"/>
  <line id="right-margin-Regular-S" style="fill:none;stroke:#00AEEF;stroke-width:0.5;opacity:1.0;" x1="1495.18" x2="1495.18" y1="600.785" y2="720.121"/>
  <line id="left-margin-Regular-S" style="fill:none;stroke:#00AEEF;stroke-width:0.5;opacity:1.0;" x1="1404.51" x2="1404.51" y1="600.785" y2="720.121"/>
  <line id="right-margin-Ultralight-S" style="fill:none;stroke:#00AEEF;stroke-width:0.5;opacity:1.0;" x1="603.073" x2="603.073" y1="600.785" y2="720.121"/>
  <line id="left-margin-Ultralight-S" style="fill:none;stroke:#00AEEF;stroke-width:0.5;opacity:1.0;" x1="516.35" x2="516.35" y1="600.785" y2="720.121"/>
 </g>
 <g id="Symbols">
  <g id="Black-S"><path d="M2903.05446,628.68752c-0.65175,0.2378 -1.23303,0.72808 -1.5912,1.33578c-0.27009,0.45798 -0.31707,0.6723 -0.31413,1.42092c0,0.62532 0.06459,1.0011 0.21725,1.29175c0.12037,0.22606 1.77615,1.97872 3.68148,3.89286c2.49249,2.50423 3.43781,3.52589 3.36735,3.64038c-0.05284,0.08807 -0.49908,0.69578 -0.9923,1.35046c-3.05909,4.06313 -5.16993,9.17141 -6.00663,14.54391c-0.37285,2.39267 -0.36991,6.89911 0.00587,9.3182c0.88661,5.71305 3.1413,10.92995 6.61727,15.30721c0.88074,1.11266 1.7879,1.80845 2.8213,2.16661c0.86899,0.30239 2.28405,0.27303 3.17065,-0.06752c0.37578,-0.14385 0.73982,-0.22018 0.82202,-0.16734c0.0822,0.04991 0.65175,0.49028 1.26533,0.98055c3.52882,2.81249 7.82388,5.58681 10.21655,6.59672c1.62056,0.68404 3.70203,0.55486 4.97617,-0.31119c0.24073,-0.1644 0.49028,-0.29651 0.5578,-0.29651c0.06752,0 0.84551,0.28477 1.72625,0.6312c3.08845,1.21542 6.00076,2.08441 8.35526,2.48661c1.89946,0.32587 3.44075,-0.07046 4.71488,-1.21542l0.59009,-0.53138l1.48845,0.36697c3.61396,0.88661 8.68994,1.5501 11.96335,1.56184c0.69578,0.00294 1.64111,0.01174 2.09322,0.02349c0.71046,0.01468 0.90422,-0.02936 1.38569,-0.31119c1.3945,-0.81615 1.89359,-2.63928 1.09211,-3.9868c-0.16147,-0.27009 -13.65143,-13.84225 -29.9803,-30.15938c-27.45845,-27.4379 -29.73369,-29.68085 -30.26801,-29.85699c-0.69285,-0.22899 -1.37689,-0.23193 -1.97579,-0.01174M2930.73897,628.57889c-2.39561,0.24661 -4.16295,0.57542 -6.22975,1.16257c-3.07084,0.86899 -3.96038,1.35927 -4.47415,2.46606c-0.7134,1.53248 0.01174,3.34974 1.57065,3.93396c0.88954,0.33174 1.33285,0.29651 2.85652,-0.22899c2.86827,-0.9923 5.02901,-1.39744 7.97948,-1.49432c2.22827,-0.07339 4.2569,0.09982 6.47342,0.55193c2.80955,0.57248 6.30314,2.01982 8.79269,3.64625c1.30056,0.84844 1.37101,0.74569 -0.89542,1.28881c-3.02093,0.72514 -7.56553,1.38276 -11.61693,1.67927c-2.45726,0.18202 -2.82717,0.29064 -3.54056,1.0334c-0.51083,0.53431 -0.76331,1.19193 -0.76331,1.98753c0,1.2389 0.75156,2.29579 1.95817,2.75671c0.52844,0.19963 0.7134,0.20551 2.80955,0.07046c4.28919,-0.2789 9.50316,-1.05982 13.12592,-1.96404c0.62532,-0.1556 1.16551,-0.28477 1.1978,-0.28477c0.09688,0 1.58826,1.81138 2.56295,3.11194c1.96992,2.62166 4.65029,6.9725 4.39781,7.13104c-0.40514,0.25835 -4.70314,0.02936 -7.47452,-0.39633c-3.1002,-0.47853 -3.67561,-0.43743 -4.56809,0.32587c-0.93358,0.80147 -1.30056,2.10203 -0.89248,3.17359c0.2378,0.62239 0.87487,1.37982 1.38276,1.64111c1.00698,0.52257 6.69948,1.21835 9.96407,1.21835h1.37689l0.70165,1.79083c0.84844,2.15487 1.55303,4.3391 1.90533,5.91268l0.26129,1.16257l-0.39046,0.61945c-0.7222,1.15964 -0.5989,2.52478 0.31707,3.54644c0.58716,0.65175 1.26826,0.94239 2.21065,0.94239c1.66166,0 3.36148,-1.84074 3.72258,-4.02791c0.10275,-0.61064 0.08807,-0.98936 -0.06752,-1.92001c-0.39046,-2.33689 -1.26239,-5.27562 -2.49249,-8.3993c-0.34642,-0.88074 -0.6312,-1.65872 -0.6312,-1.72625c0,-0.06752 0.13211,-0.31707 0.29651,-0.5578c0.51964,-0.76624 0.7956,-1.91414 0.73982,-3.08845c-0.04404,-0.91303 -0.10569,-1.14496 -0.53725,-2.04625c-1.44147,-3.00331 -4.47415,-7.63012 -7.26315,-11.07968l-0.30239,-0.37578l0.26129,-0.6811c0.19963,-0.51376 0.26422,-0.92477 0.26422,-1.67927c0,-1.81725 -0.71046,-3.05322 -2.5835,-4.48882c-4.70314,-3.60222 -9.62059,-5.66021 -15.53621,-6.49984c-1.18019,-0.16734 -5.88626,-0.31413 -6.86975,-0.21431M2926.26189,658.31552c-0.94532,0.0822 -4.43598,-0.61945 -6.89911,-1.38863c-1.84955,-0.57835 -2.56295,-0.61064 -3.46717,-0.16147c-0.78386,0.39046 -1.35046,1.14202 -1.52661,2.0257c-0.07046,0.35229 -0.12917,1.20074 -0.12917,1.88478c-0.00294,3.15891 -0.87487,9.89068 -1.7556,13.55748c-0.54019,2.25469 -0.45211,2.17836 -1.20955,1.01285c-5.74828,-8.83673 -5.70424,-20.32448 0.1145,-29.04965c0.48147,-0.71927 0.98643,-1.42679 1.12441,-1.57358l0.24954,-0.27009l6.9637,6.9637l6.9637,6.96076l-0.42863,0.03817M2921.87288,663.62343c0.93652,0.19083 1.82019,0.34642 1.96404,0.34936c0.33762,0 0.44918,0.22899 1.2389,2.52478c1.36221,3.97506 2.26937,7.93544 2.73322,11.92225c0.19963,1.70569 0.29945,5.89507 0.14679,6.04773c-0.30239,0.30532 -7.35416,-4.48002 -9.64114,-6.54094l-0.56661,-0.50789l0.41101,-1.70276c0.73982,-3.06203 1.31523,-6.61727 1.67927,-10.36334c0.11156,-1.14496 0.23193,-2.08441 0.26716,-2.08148c0.03523,0.00294 0.83083,0.15853 1.76735,0.35229M2936.43441,668.02418c2.76552,2.76845 3.97506,4.05139 3.81653,4.05139c-0.95707,-0.00294 -5.76883,-0.86899 -7.33361,-1.32404l-0.51083,-0.14679l-0.50496,-1.85542c-0.27596,-1.01872 -0.69578,-2.43377 -0.93065,-3.14423c-0.2378,-0.7134 -0.41395,-1.3123 -0.39046,-1.33285c0.03229,-0.03229 1.08037,-0.20844 1.68514,-0.28477c0.06459,-0.00881 1.94056,1.80845 4.16882,4.03671M2936.08211,677.42752c0.87193,0.14973 2.469,0.36991 3.54937,0.48147l1.96111,0.20844l0.12917,0.59009c0.4022,1.85248 0.7222,4.40369 0.78386,6.2503c0.06752,1.93762 0.05872,2.01689 -0.15266,1.96698c-2.56882,-0.57835 -4.96149,-1.36808 -8.23783,-2.71854c-0.10569,-0.04404 -0.14679,-0.44624 -0.14973,-1.42679c-0.00294,-1.32698 -0.14385,-3.69616 -0.30532,-5.11415l-0.07927,-0.68991l0.45798,0.08807c0.25248,0.04697 1.17138,0.21138 2.04331,0.36404M2954.93576,686.61068c-0.08807,0.08807 -3.12075,-0.48147 -4.76185,-0.89542l-1.70276,-0.42863l-0.08514,-1.29175c-0.0822,-1.27707 -0.3934,-3.88992 -0.51964,-4.34497c-0.03523,-0.12917 1.5501,1.37395 3.52589,3.34093c1.97285,1.96698 3.56699,3.59634 3.5435,3.61983" className="SFSymbolsPreviewWireframe"/></g>
  <g id="Regular-S"><path d="M1419.49941,628.68752c-0.65175,0.2378 -1.23303,0.72808 -1.5912,1.33578c-0.27009,0.45798 -0.31707,0.6723 -0.31413,1.42092c0,0.62532 0.06459,1.0011 0.21725,1.29175c0.12037,0.22606 1.77615,1.97872 3.68148,3.89286c2.49249,2.50423 3.43781,3.52589 3.36735,3.64038c-0.05284,0.08807 -0.49908,0.69578 -0.9923,1.35046c-3.05909,4.06313 -5.16993,9.17141 -6.00663,14.54391c-0.37285,2.39267 -0.36991,6.89911 0.00587,9.3182c0.88661,5.71305 3.1413,10.92995 6.61727,15.30721c0.88074,1.11266 1.7879,1.80845 2.8213,2.16661c0.86899,0.30239 2.28405,0.27303 3.17065,-0.06752c0.37578,-0.14385 0.73982,-0.22018 0.82202,-0.16734c0.0822,0.04991 0.65175,0.49028 1.26533,0.98055c3.52882,2.81249 7.82388,5.58681 10.21655,6.59672c1.62056,0.68404 3.70203,0.55486 4.97617,-0.31119c0.24073,-0.1644 0.49028,-0.29651 0.5578,-0.29651c0.06752,0 0.84551,0.28477 1.72625,0.6312c3.08845,1.21542 6.00076,2.08441 8.35526,2.48661c1.89946,0.32587 3.44075,-0.07046 4.71488,-1.21542l0.59009,-0.53138l1.48845,0.36697c3.61396,0.88661 8.68994,1.5501 11.96335,1.56184c0.69578,0.00294 1.64111,0.01174 2.09322,0.02349c0.71046,0.01468 0.90422,-0.02936 1.38569,-0.31119c1.3945,-0.81615 1.89359,-2.63928 1.09211,-3.9868c-0.16147,-0.27009 -13.65143,-13.84225 -29.9803,-30.15938c-27.45845,-27.4379 -29.73369,-29.68085 -30.26801,-29.85699c-0.69285,-0.22899 -1.37689,-0.23193 -1.97579,-0.01174M1447.18392,628.57889c-2.39561,0.24661 -4.16295,0.57542 -6.22975,1.16257c-3.07084,0.86899 -3.96038,1.35927 -4.47415,2.46606c-0.7134,1.53248 0.01174,3.34974 1.57065,3.93396c0.88954,0.33174 1.33285,0.29651 2.85652,-0.22899c2.86827,-0.9923 5.02901,-1.39744 7.97948,-1.49432c2.22827,-0.07339 4.2569,0.09982 6.47342,0.55193c2.80955,0.57248 6.30314,2.01982 8.79269,3.64625c1.30056,0.84844 1.37101,0.74569 -0.89542,1.28881c-3.02093,0.72514 -7.56553,1.38276 -11.61693,1.67927c-2.45726,0.18202 -2.82717,0.29064 -3.54056,1.0334c-0.51083,0.53431 -0.76331,1.19193 -0.76331,1.98753c0,1.2389 0.75156,2.29579 1.95817,2.75671c0.52844,0.19963 0.7134,0.20551 2.80955,0.07046c4.28919,-0.2789 9.50316,-1.05982 13.12592,-1.96404c0.62532,-0.1556 1.16551,-0.28477 1.1978,-0.28477c0.09688,0 1.58826,1.81138 2.56295,3.11194c1.96992,2.62166 4.65029,6.9725 4.39781,7.13104c-0.40514,0.25835 -4.70314,0.02936 -7.47452,-0.39633c-3.1002,-0.47853 -3.67561,-0.43743 -4.56809,0.32587c-0.93358,0.80147 -1.30056,2.10203 -0.89248,3.17359c0.2378,0.62239 0.87487,1.37982 1.38276,1.64111c1.00698,0.52257 6.69948,1.21835 9.96407,1.21835h1.37689l0.70165,1.79083c0.84844,2.15487 1.55303,4.3391 1.90533,5.91268l0.26129,1.16257l-0.39046,0.61945c-0.7222,1.15964 -0.5989,2.52478 0.31707,3.54644c0.58716,0.65175 1.26826,0.94239 2.21065,0.94239c1.66166,0 3.36148,-1.84074 3.72258,-4.02791c0.10275,-0.61064 0.08807,-0.98936 -0.06752,-1.92001c-0.39046,-2.33689 -1.26239,-5.27562 -2.49249,-8.3993c-0.34642,-0.88074 -0.6312,-1.65872 -0.6312,-1.72625c0,-0.06752 0.13211,-0.31707 0.29651,-0.5578c0.51964,-0.76624 0.7956,-1.91414 0.73982,-3.08845c-0.04404,-0.91303 -0.10569,-1.14496 -0.53725,-2.04625c-1.44147,-3.00331 -4.47415,-7.63012 -7.26315,-11.07968l-0.30239,-0.37578l0.26129,-0.6811c0.19963,-0.51376 0.26422,-0.92477 0.26422,-1.67927c0,-1.81725 -0.71046,-3.05322 -2.5835,-4.48882c-4.70314,-3.60222 -9.62059,-5.66021 -15.53621,-6.49984c-1.18019,-0.16734 -5.88626,-0.31413 -6.86975,-0.21431M1442.70684,658.31552c-0.94532,0.0822 -4.43598,-0.61945 -6.89911,-1.38863c-1.84955,-0.57835 -2.56295,-0.61064 -3.46717,-0.16147c-0.78386,0.39046 -1.35046,1.14202 -1.52661,2.0257c-0.07046,0.35229 -0.12917,1.20074 -0.12917,1.88478c-0.00294,3.15891 -0.87487,9.89068 -1.7556,13.55748c-0.54019,2.25469 -0.45211,2.17836 -1.20955,1.01285c-5.74828,-8.83673 -5.70424,-20.32448 0.1145,-29.04965c0.48147,-0.71927 0.98643,-1.42679 1.12441,-1.57358l0.24954,-0.27009l6.9637,6.9637l6.9637,6.96076l-0.42863,0.03817M1438.31783,663.62343c0.93652,0.19083 1.82019,0.34642 1.96404,0.34936c0.33762,0 0.44918,0.22899 1.2389,2.52478c1.36221,3.97506 2.26937,7.93544 2.73322,11.92225c0.19963,1.70569 0.29945,5.89507 0.14679,6.04773c-0.30239,0.30532 -7.35416,-4.48002 -9.64114,-6.54094l-0.56661,-0.50789l0.41101,-1.70276c0.73982,-3.06203 1.31523,-6.61727 1.67927,-10.36334c0.11156,-1.14496 0.23193,-2.08441 0.26716,-2.08148c0.03523,0.00294 0.83083,0.15853 1.76735,0.35229M1452.87936,668.02418c2.76552,2.76845 3.97506,4.05139 3.81653,4.05139c-0.95707,-0.00294 -5.76883,-0.86899 -7.33361,-1.32404l-0.51083,-0.14679l-0.50496,-1.85542c-0.27596,-1.01872 -0.69578,-2.43377 -0.93065,-3.14423c-0.2378,-0.7134 -0.41395,-1.3123 -0.39046,-1.33285c0.03229,-0.03229 1.08037,-0.20844 1.68514,-0.28477c0.06459,-0.00881 1.94056,1.80845 4.16882,4.03671M1452.52706,677.42752c0.87193,0.14973 2.469,0.36991 3.54937,0.48147l1.96111,0.20844l0.12917,0.59009c0.4022,1.85248 0.7222,4.40369 0.78386,6.2503c0.06752,1.93762 0.05872,2.01689 -0.15266,1.96698c-2.56882,-0.57835 -4.96149,-1.36808 -8.23783,-2.71854c-0.10569,-0.04404 -0.14679,-0.44624 -0.14973,-1.42679c-0.00294,-1.32698 -0.14385,-3.69616 -0.30532,-5.11415l-0.07927,-0.68991l0.45798,0.08807c0.25248,0.04697 1.17138,0.21138 2.04331,0.36404M1471.38071,686.61068c-0.08807,0.08807 -3.12075,-0.48147 -4.76185,-0.89542l-1.70276,-0.42863l-0.08514,-1.29175c-0.0822,-1.27707 -0.3934,-3.88992 -0.51964,-4.34497c-0.03523,-0.12917 1.5501,1.37395 3.52589,3.34093c1.97285,1.96698 3.56699,3.59634 3.5435,3.61983" className="SFSymbolsPreviewWireframe"/></g>
  <g id="Ultralight-S"><path d="M529.36582,628.68752c-0.65175,0.2378 -1.23303,0.72808 -1.5912,1.33578c-0.27009,0.45798 -0.31707,0.6723 -0.31413,1.42092c0,0.62532 0.06459,1.0011 0.21725,1.29175c0.12037,0.22606 1.77615,1.97872 3.68148,3.89286c2.49249,2.50423 3.43781,3.52589 3.36735,3.64038c-0.05284,0.08807 -0.49908,0.69578 -0.9923,1.35046c-3.05909,4.06313 -5.16993,9.17141 -6.00663,14.54391c-0.37285,2.39267 -0.36991,6.89911 0.00587,9.3182c0.88661,5.71305 3.1413,10.92995 6.61727,15.30721c0.88074,1.11266 1.7879,1.80845 2.8213,2.16661c0.86899,0.30239 2.28405,0.27303 3.17065,-0.06752c0.37578,-0.14385 0.73982,-0.22018 0.82202,-0.16734c0.0822,0.04991 0.65175,0.49028 1.26533,0.98055c3.52882,2.81249 7.82388,5.58681 10.21655,6.59672c1.62056,0.68404 3.70203,0.55486 4.97617,-0.31119c0.24073,-0.1644 0.49028,-0.29651 0.5578,-0.29651c0.06752,0 0.84551,0.28477 1.72625,0.6312c3.08845,1.21542 6.00076,2.08441 8.35526,2.48661c1.89946,0.32587 3.44075,-0.07046 4.71488,-1.21542l0.59009,-0.53138l1.48845,0.36697c3.61396,0.88661 8.68994,1.5501 11.96335,1.56184c0.69578,0.00294 1.64111,0.01174 2.09322,0.02349c0.71046,0.01468 0.90422,-0.02936 1.38569,-0.31119c1.3945,-0.81615 1.89359,-2.63928 1.09211,-3.9868c-0.16147,-0.27009 -13.65143,-13.84225 -29.9803,-30.15938c-27.45845,-27.4379 -29.73369,-29.68085 -30.26801,-29.85699c-0.69285,-0.22899 -1.37689,-0.23193 -1.97579,-0.01174M557.05033,628.57889c-2.39561,0.24661 -4.16295,0.57542 -6.22975,1.16257c-3.07084,0.86899 -3.96038,1.35927 -4.47415,2.46606c-0.7134,1.53248 0.01174,3.34974 1.57065,3.93396c0.88954,0.33174 1.33285,0.29651 2.85652,-0.22899c2.86827,-0.9923 5.02901,-1.39744 7.97948,-1.49432c2.22827,-0.07339 4.2569,0.09982 6.47342,0.55193c2.80955,0.57248 6.30314,2.01982 8.79269,3.64625c1.30056,0.84844 1.37101,0.74569 -0.89542,1.28881c-3.02093,0.72514 -7.56553,1.38276 -11.61693,1.67927c-2.45726,0.18202 -2.82717,0.29064 -3.54056,1.0334c-0.51083,0.53431 -0.76331,1.19193 -0.76331,1.98753c0,1.2389 0.75156,2.29579 1.95817,2.75671c0.52844,0.19963 0.7134,0.20551 2.80955,0.07046c4.28919,-0.2789 9.50316,-1.05982 13.12592,-1.96404c0.62532,-0.1556 1.16551,-0.28477 1.1978,-0.28477c0.09688,0 1.58826,1.81138 2.56295,3.11194c1.96992,2.62166 4.65029,6.9725 4.39781,7.13104c-0.40514,0.25835 -4.70314,0.02936 -7.47452,-0.39633c-3.1002,-0.47853 -3.67561,-0.43743 -4.56809,0.32587c-0.93358,0.80147 -1.30056,2.10203 -0.89248,3.17359c0.2378,0.62239 0.87487,1.37982 1.38276,1.64111c1.00698,0.52257 6.69948,1.21835 9.96407,1.21835h1.37689l0.70165,1.79083c0.84844,2.15487 1.55303,4.3391 1.90533,5.91268l0.26129,1.16257l-0.39046,0.61945c-0.7222,1.15964 -0.5989,2.52478 0.31707,3.54644c0.58716,0.65175 1.26826,0.94239 2.21065,0.94239c1.66166,0 3.36148,-1.84074 3.72258,-4.02791c0.10275,-0.61064 0.08807,-0.98936 -0.06752,-1.92001c-0.39046,-2.33689 -1.26239,-5.27562 -2.49249,-8.3993c-0.34642,-0.88074 -0.6312,-1.65872 -0.6312,-1.72625c0,-0.06752 0.13211,-0.31707 0.29651,-0.5578c0.51964,-0.76624 0.7956,-1.91414 0.73982,-3.08845c-0.04404,-0.91303 -0.10569,-1.14496 -0.53725,-2.04625c-1.44147,-3.00331 -4.47415,-7.63012 -7.26315,-11.07968l-0.30239,-0.37578l0.26129,-0.6811c0.19963,-0.51376 0.26422,-0.92477 0.26422,-1.67927c0,-1.81725 -0.71046,-3.05322 -2.5835,-4.48882c-4.70314,-3.60222 -9.62059,-5.66021 -15.53621,-6.49984c-1.18019,-0.16734 -5.88626,-0.31413 -6.86975,-0.21431M552.57325,658.31552c-0.94532,0.0822 -4.43598,-0.61945 -6.89911,-1.38863c-1.84955,-0.57835 -2.56295,-0.61064 -3.46717,-0.16147c-0.78386,0.39046 -1.35046,1.14202 -1.52661,2.0257c-0.07046,0.35229 -0.12917,1.20074 -0.12917,1.88478c-0.00294,3.15891 -0.87487,9.89068 -1.7556,13.55748c-0.54019,2.25469 -0.45211,2.17836 -1.20955,1.01285c-5.74828,-8.83673 -5.70424,-20.32448 0.1145,-29.04965c0.48147,-0.71927 0.98643,-1.42679 1.12441,-1.57358l0.24954,-0.27009l6.9637,6.9637l6.9637,6.96076l-0.42863,0.03817M548.18424,663.62343c0.93652,0.19083 1.82019,0.34642 1.96404,0.34936c0.33762,0 0.44918,0.22899 1.2389,2.52478c1.36221,3.97506 2.26937,7.93544 2.73322,11.92225c0.19963,1.70569 0.29945,5.89507 0.14679,6.04773c-0.30239,0.30532 -7.35416,-4.48002 -9.64114,-6.54094l-0.56661,-0.50789l0.41101,-1.70276c0.73982,-3.06203 1.31523,-6.61727 1.67927,-10.36334c0.11156,-1.14496 0.23193,-2.08441 0.26716,-2.08148c0.03523,0.00294 0.83083,0.15853 1.76735,0.35229M562.74577,668.02418c2.76552,2.76845 3.97506,4.05139 3.81653,4.05139c-0.95707,-0.00294 -5.76883,-0.86899 -7.33361,-1.32404l-0.51083,-0.14679l-0.50496,-1.85542c-0.27596,-1.01872 -0.69578,-2.43377 -0.93065,-3.14423c-0.2378,-0.7134 -0.41395,-1.3123 -0.39046,-1.33285c0.03229,-0.03229 1.08037,-0.20844 1.68514,-0.28477c0.06459,-0.00881 1.94056,1.80845 4.16882,4.03671M562.39347,677.42752c0.87193,0.14973 2.469,0.36991 3.54937,0.48147l1.96111,0.20844l0.12917,0.59009c0.4022,1.85248 0.7222,4.40369 0.78386,6.2503c0.06752,1.93762 0.05872,2.01689 -0.15266,1.96698c-2.56882,-0.57835 -4.96149,-1.36808 -8.23783,-2.71854c-0.10569,-0.04404 -0.14679,-0.44624 -0.14973,-1.42679c-0.00294,-1.32698 -0.14385,-3.69616 -0.30532,-5.11415l-0.07927,-0.68991l0.45798,0.08807c0.25248,0.04697 1.17138,0.21138 2.04331,0.36404M581.24712,686.61068c-0.08807,0.08807 -3.12075,-0.48147 -4.76185,-0.89542l-1.70276,-0.42863l-0.08514,-1.29175c-0.0822,-1.27707 -0.3934,-3.88992 -0.51964,-4.34497c-0.03523,-0.12917 1.5501,1.37395 3.52589,3.34093c1.97285,1.96698 3.56699,3.59634 3.5435,3.61983" className="SFSymbolsPreviewWireframe"/></g>
 </g>
</svg>