<?xml version="1.0" encoding="UTF-8"?><!--Generator: SymbolKit.app--><!DOCTYPE svg PUBLIC "-//W3C//DTD SVG 1.1//EN" "http://www.w3.org/Graphics/SVG/1.1/DTD/svg11.dtd"><svg xmlns="http://www.w3.org/2000/svg" xmlns:xlink="http://www.w3.org/1999/xlink" version="1.1" viewBox="0 0 3300 2200">
 <!--glyph: "100092", point size: 100.0, font version: "20.0d10e1", template writer version: "138.0.0"-->
 <style>.SFSymbolsPreviewWireframe {fill:none;opacity:1.0;stroke:black;stroke-width:0.5}
</style>
 <g id="Notes">
  <rect height="2200" id="artboard" style="fill:white;opacity:1" width="3300" x="0" y="0"/>
  <line style="fill:none;stroke:black;opacity:1;stroke-width:0.5;" x1="263" x2="3036" y1="292" y2="292"/>
  <text style="stroke:none;fill:black;font-family:sans-serif;font-size:13;font-weight:bold;" transform="matrix(1 0 0 1 263 322)">Weight/Scale Variations</text>
  <text style="stroke:none;fill:black;font-family:sans-serif;font-size:13;text-anchor:middle;" transform="matrix(1 0 0 1 559.711 322)">Ultralight</text>
  <text style="stroke:none;fill:black;font-family:sans-serif;font-size:13;text-anchor:middle;" transform="matrix(1 0 0 1 856.422 322)">Thin</text>
  <text style="stroke:none;fill:black;font-family:sans-serif;font-size:13;text-anchor:middle;" transform="matrix(1 0 0 1 1153.13 322)">Light</text>
  <text style="stroke:none;fill:black;font-family:sans-serif;font-size:13;text-anchor:middle;" transform="matrix(1 0 0 1 1449.84 322)">Regular</text>
  <text style="stroke:none;fill:black;font-family:sans-serif;font-size:13;text-anchor:middle;" transform="matrix(1 0 0 1 1746.56 322)">Medium</text>
  <text style="stroke:none;fill:black;font-family:sans-serif;font-size:13;text-anchor:middle;" transform="matrix(1 0 0 1 2043.27 322)">Semibold</text>
  <text style="stroke:none;fill:black;font-family:sans-serif;font-size:13;text-anchor:middle;" transform="matrix(1 0 0 1 2339.98 322)">Bold</text>
  <text style="stroke:none;fill:black;font-family:sans-serif;font-size:13;text-anchor:middle;" transform="matrix(1 0 0 1 2636.69 322)">Heavy</text>
  <text style="stroke:none;fill:black;font-family:sans-serif;font-size:13;text-anchor:middle;" transform="matrix(1 0 0 1 2933.4 322)">Black</text>
  <line style="fill:none;stroke:black;opacity:1;stroke-width:0.5;" x1="263" x2="3036" y1="1903" y2="1903"/>
  <g transform="matrix(0.2 0 0 0.2 263 1933)">
   <path d="m46.2402 4.15039c21.7773 0 39.4531-17.627 39.4531-39.4043s-17.6758-39.4043-39.4531-39.4043c-21.7285 0-39.4043 17.627-39.4043 39.4043s17.6758 39.4043 39.4043 39.4043Zm0-7.42188c-17.6758 0-31.9336-14.3066-31.9336-31.9824s14.2578-31.9824 31.9336-31.9824 31.9824 14.3066 31.9824 31.9824-14.3066 31.9824-31.9824 31.9824Zm-17.9688-31.9824c0 2.14844 1.51367 3.61328 3.75977 3.61328h10.498v10.5957c0 2.19727 1.46484 3.71094 3.61328 3.71094 2.24609 0 3.71094-1.51367 3.71094-3.71094v-10.5957h10.5957c2.19727 0 3.71094-1.46484 3.71094-3.61328 0-2.19727-1.51367-3.71094-3.71094-3.71094h-10.5957v-10.5469c0-2.24609-1.46484-3.75977-3.71094-3.75977-2.14844 0-3.61328 1.51367-3.61328 3.75977v10.5469h-10.498c-2.24609 0-3.75977 1.51367-3.75977 3.71094Z"/>
  </g>
  <g transform="matrix(0.2 0 0 0.2 281.506 1933)">
   <path d="m58.5449 14.5508c27.4902 0 49.8047-22.3145 49.8047-49.8047s-22.3145-49.8047-49.8047-49.8047-49.8047 22.3145-49.8047 49.8047 22.3145 49.8047 49.8047 49.8047Zm0-8.30078c-22.9492 0-41.5039-18.5547-41.5039-41.5039s18.5547-41.5039 41.5039-41.5039 41.5039 18.5547 41.5039 41.5039-18.5547 41.5039-41.5039 41.5039Zm-22.6562-41.5039c0 2.39258 1.66016 4.00391 4.15039 4.00391h14.3555v14.4043c0 2.44141 1.66016 4.15039 4.05273 4.15039 2.44141 0 4.15039-1.66016 4.15039-4.15039v-14.4043h14.4043c2.44141 0 4.15039-1.61133 4.15039-4.00391 0-2.44141-1.70898-4.15039-4.15039-4.15039h-14.4043v-14.3555c0-2.49023-1.70898-4.19922-4.15039-4.19922-2.39258 0-4.05273 1.70898-4.05273 4.19922v14.3555h-14.3555c-2.49023 0-4.15039 1.70898-4.15039 4.15039Z"/>
  </g>
  <g transform="matrix(0.2 0 0 0.2 304.924 1933)">
   <path d="m74.8535 28.3203c35.1074 0 63.623-28.4668 63.623-63.5742s-28.5156-63.623-63.623-63.623-63.5742 28.5156-63.5742 63.623 28.4668 63.5742 63.5742 63.5742Zm0-9.08203c-30.127 0-54.4922-24.3652-54.4922-54.4922s24.3652-54.4922 54.4922-54.4922 54.4922 24.3652 54.4922 54.4922-24.3652 54.4922-54.4922 54.4922Zm-28.8574-54.4922c0 2.58789 1.85547 4.39453 4.58984 4.39453h19.7266v19.7754c0 2.68555 1.85547 4.58984 4.44336 4.58984 2.68555 0 4.54102-1.85547 4.54102-4.58984v-19.7754h19.7754c2.68555 0 4.58984-1.80664 4.58984-4.39453 0-2.73438-1.85547-4.58984-4.58984-4.58984h-19.7754v-19.7266c0-2.73438-1.85547-4.63867-4.54102-4.63867-2.58789 0-4.44336 1.9043-4.44336 4.63867v19.7266h-19.7266c-2.73438 0-4.58984 1.85547-4.58984 4.58984Z"/>
  </g>
  <text style="stroke:none;fill:black;font-family:sans-serif;font-size:13;font-weight:bold;" transform="matrix(1 0 0 1 263 1953)">Design Variations</text>
  <text style="stroke:none;fill:black;font-family:sans-serif;font-size:13;" transform="matrix(1 0 0 1 263 1971)">Symbols are supported in up to nine weights and three scales.</text>
  <text style="stroke:none;fill:black;font-family:sans-serif;font-size:13;" transform="matrix(1 0 0 1 263 1989)">For optimal layout with text and other symbols, vertically align</text>
  <text style="stroke:none;fill:black;font-family:sans-serif;font-size:13;" transform="matrix(1 0 0 1 263 2007)">symbols with the adjacent text.</text>
  <line style="fill:none;stroke:#00AEEF;stroke-width:0.5;opacity:1.0;" x1="776" x2="776" y1="1919" y2="1933"/>
  <g transform="matrix(0.2 0 0 0.2 776 1933)">
   <path d="m16.5527 0.78125c2.58789 0 3.85742-0.976562 4.78516-3.71094l6.29883-17.2363h28.8086l6.29883 17.2363c0.927734 2.73438 2.19727 3.71094 4.73633 3.71094 2.58789 0 4.24805-1.5625 4.24805-4.00391 0-0.830078-0.146484-1.61133-0.537109-2.63672l-22.9004-60.9863c-1.12305-2.97852-3.125-4.49219-6.25-4.49219-3.02734 0-5.07812 1.46484-6.15234 4.44336l-22.9004 61.084c-0.390625 1.02539-0.537109 1.80664-0.537109 2.63672 0 2.44141 1.5625 3.95508 4.10156 3.95508Zm13.4766-28.3691 11.8652-32.8613h0.244141l11.8652 32.8613Z"/>
  </g>
  <line style="fill:none;stroke:#00AEEF;stroke-width:0.5;opacity:1.0;" x1="792.836" x2="792.836" y1="1919" y2="1933"/>
  <text style="stroke:none;fill:black;font-family:sans-serif;font-size:13;font-weight:bold;" transform="matrix(1 0 0 1 776 1953)">Margins</text>
  <text style="stroke:none;fill:black;font-family:sans-serif;font-size:13;" transform="matrix(1 0 0 1 776 1971)">Leading and trailing margins on the left and right side of each symbol</text>
  <text style="stroke:none;fill:black;font-family:sans-serif;font-size:13;" transform="matrix(1 0 0 1 776 1989)">can be adjusted by modifying the x-location of the margin guidelines.</text>
  <text style="stroke:none;fill:black;font-family:sans-serif;font-size:13;" transform="matrix(1 0 0 1 776 2007)">Modifications are automatically applied proportionally to all</text>
  <text style="stroke:none;fill:black;font-family:sans-serif;font-size:13;" transform="matrix(1 0 0 1 776 2025)">scales and weights.</text>
  <g transform="matrix(0.2 0 0 0.2 1289 1933)">
   <path d="m14.209 9.32617 8.49609 8.54492c4.29688 4.3457 9.22852 4.05273 13.8672-1.07422l53.4668-58.9355-4.83398-4.88281-53.0762 58.3984c-1.75781 2.00195-3.41797 2.49023-5.76172 0.146484l-5.85938-5.81055c-2.34375-2.29492-1.80664-4.00391 0.195312-5.81055l57.373-54.0039-4.88281-4.83398-57.959 54.4434c-4.93164 4.58984-5.32227 9.47266-1.02539 13.8184Zm32.0801-90.9668c-2.09961 2.05078-2.24609 4.93164-1.07422 6.88477 1.17188 1.80664 3.4668 2.97852 6.68945 2.14844 7.32422-1.70898 14.9414-2.00195 22.0703 2.68555l-2.92969 7.27539c-1.70898 4.15039-0.830078 7.08008 1.85547 9.81445l11.4746 11.5723c2.44141 2.44141 4.49219 2.53906 7.32422 2.05078l5.32227-0.976562 3.32031 3.36914-0.195312 2.7832c-0.195312 2.49023 0.439453 4.39453 2.88086 6.78711l3.80859 3.71094c2.39258 2.39258 5.46875 2.53906 7.8125 0.195312l14.5508-14.5996c2.34375-2.34375 2.24609-5.32227-0.146484-7.71484l-3.85742-3.80859c-2.39258-2.39258-4.24805-3.17383-6.64062-2.97852l-2.88086 0.244141-3.22266-3.17383 1.2207-5.61523c0.634766-2.83203-0.146484-5.0293-3.07617-7.95898l-10.9863-10.9375c-16.6992-16.6016-38.8672-16.2109-53.3203-1.75781Zm7.4707 1.85547c12.1582-8.88672 28.6133-7.37305 39.7461 3.75977l12.1582 12.0605c1.17188 1.17188 1.36719 2.09961 1.02539 3.80859l-1.61133 7.42188 7.51953 7.42188 4.93164-0.292969c1.26953-0.0488281 1.66016 0.0488281 2.63672 1.02539l2.88086 2.88086-12.207 12.207-2.88086-2.88086c-0.976562-0.976562-1.12305-1.36719-1.07422-2.68555l0.341797-4.88281-7.4707-7.42188-7.61719 1.26953c-1.61133 0.341797-2.34375 0.195312-3.56445-0.976562l-10.0098-10.0098c-1.26953-1.17188-1.41602-2.00195-0.634766-3.85742l4.39453-10.4492c-7.8125-7.27539-17.9688-10.4004-28.125-7.42188-0.78125 0.195312-1.07422-0.439453-0.439453-0.976562Z"/>
  </g>
  <text style="stroke:none;fill:black;font-family:sans-serif;font-size:13;font-weight:bold;" transform="matrix(1 0 0 1 1289 1953)">Exporting</text>
  <text style="stroke:none;fill:black;font-family:sans-serif;font-size:13;" transform="matrix(1 0 0 1 1289 1971)">Symbols should be outlined when exporting to ensure the</text>
  <text style="stroke:none;fill:black;font-family:sans-serif;font-size:13;" transform="matrix(1 0 0 1 1289 1989)">design is preserved when submitting to Xcode.</text>
  <text id="template-version" style="stroke:none;fill:black;font-family:sans-serif;font-size:13;text-anchor:end;" transform="matrix(1 0 0 1 3036 1933)">Template v.6.0</text>
  <text style="stroke:none;fill:black;font-family:sans-serif;font-size:13;text-anchor:end;" transform="matrix(1 0 0 1 3036 1951)">Requires Xcode 16 or greater</text>
  <text id="descriptive-name" style="stroke:none;fill:black;font-family:sans-serif;font-size:13;text-anchor:end;" transform="matrix(1 0 0 1 3036 1969)">Generated from square</text>
  <text style="stroke:none;fill:black;font-family:sans-serif;font-size:13;text-anchor:end;" transform="matrix(1 0 0 1 3036 1987)">Typeset at 100.0 points</text>
  <text style="stroke:none;fill:black;font-family:sans-serif;font-size:13;" transform="matrix(1 0 0 1 263 726)">Small</text>
  <text style="stroke:none;fill:black;font-family:sans-serif;font-size:13;" transform="matrix(1 0 0 1 263 1156)">Medium</text>
  <text style="stroke:none;fill:black;font-family:sans-serif;font-size:13;" transform="matrix(1 0 0 1 263 1586)">Large</text>
 </g>
 <g id="Guides">
  <g id="H-reference" style="fill:#27AAE1;stroke:none;" transform="matrix(1 0 0 1 339 696)">
   <path d="M0.993654 0L3.63775 0L29.3281-67.1323L30.0303-67.1323L30.0303-70.459L28.1226-70.459ZM11.6885-24.4799L46.9815-24.4799L46.2315-26.7285L12.4385-26.7285ZM55.1196 0L57.7637 0L30.6382-70.459L29.4326-70.459L29.4326-67.1323Z"/>
  </g>
  <line id="Baseline-S" style="fill:none;stroke:#27AAE1;opacity:1;stroke-width:0.5;" x1="263" x2="3036" y1="696" y2="696"/>
  <line id="Capline-S" style="fill:none;stroke:#27AAE1;opacity:1;stroke-width:0.5;" x1="263" x2="3036" y1="625.541" y2="625.541"/>
  <g id="H-reference" style="fill:#27AAE1;stroke:none;" transform="matrix(1 0 0 1 339 1126)">
   <path d="M0.993654 0L3.63775 0L29.3281-67.1323L30.0303-67.1323L30.0303-70.459L28.1226-70.459ZM11.6885-24.4799L46.9815-24.4799L46.2315-26.7285L12.4385-26.7285ZM55.1196 0L57.7637 0L30.6382-70.459L29.4326-70.459L29.4326-67.1323Z"/>
  </g>
  <line id="Baseline-M" style="fill:none;stroke:#27AAE1;opacity:1;stroke-width:0.5;" x1="263" x2="3036" y1="1126" y2="1126"/>
  <line id="Capline-M" style="fill:none;stroke:#27AAE1;opacity:1;stroke-width:0.5;" x1="263" x2="3036" y1="1055.54" y2="1055.54"/>
  <g id="H-reference" style="fill:#27AAE1;stroke:none;" transform="matrix(1 0 0 1 339 1556)">
   <path d="M0.993654 0L3.63775 0L29.3281-67.1323L30.0303-67.1323L30.0303-70.459L28.1226-70.459ZM11.6885-24.4799L46.9815-24.4799L46.2315-26.7285L12.4385-26.7285ZM55.1196 0L57.7637 0L30.6382-70.459L29.4326-70.459L29.4326-67.1323Z"/>
  </g>
  <line id="Baseline-L" style="fill:none;stroke:#27AAE1;opacity:1;stroke-width:0.5;" x1="263" x2="3036" y1="1556" y2="1556"/>
  <line id="Capline-L" style="fill:none;stroke:#27AAE1;opacity:1;stroke-width:0.5;" x1="263" x2="3036" y1="1485.54" y2="1485.54"/>
  <line id="right-margin-Black-S" style="fill:none;stroke:#00AEEF;stroke-width:0.5;opacity:1.0;" x1="2981.3" x2="2981.3" y1="600.785" y2="720.121"/>
  <line id="left-margin-Black-S" style="fill:none;stroke:#00AEEF;stroke-width:0.5;opacity:1.0;" x1="2885.5" x2="2885.5" y1="600.785" y2="720.121"/>
  <line id="right-margin-Regular-S" style="fill:none;stroke:#00AEEF;stroke-width:0.5;opacity:1.0;" x1="1495.18" x2="1495.18" y1="600.785" y2="720.121"/>
  <line id="left-margin-Regular-S" style="fill:none;stroke:#00AEEF;stroke-width:0.5;opacity:1.0;" x1="1404.51" x2="1404.51" y1="600.785" y2="720.121"/>
  <line id="right-margin-Ultralight-S" style="fill:none;stroke:#00AEEF;stroke-width:0.5;opacity:1.0;" x1="603.073" x2="603.073" y1="600.785" y2="720.121"/>
  <line id="left-margin-Ultralight-S" style="fill:none;stroke:#00AEEF;stroke-width:0.5;opacity:1.0;" x1="516.35" x2="516.35" y1="600.785" y2="720.121"/>
 </g>
 <g id="Symbols">
  <g id="Black-S"><path d="M2906.00101,628.72636c-0.59303,0.21138 -1.56184,1.13028 -1.91414,1.82019c-0.78092,1.53542 -0.77505,3.25286 0.01761,4.80589c0.15266,0.29945 1.1567,1.42092 2.40735,2.68918l2.14606,2.17249l-0.35229,0.41101c-1.15377,1.35634 -2.6334,3.66387 -3.658,5.71011c-1.91707,3.8224 -2.99157,7.65948 -3.36735,12.02206c-0.59009,6.8492 1.29762,14.23565 5.13176,20.08081c1.89359,2.88588 3.02093,4.01616 4.52405,4.53873c0.87487,0.30532 2.28405,0.27303 3.17946,-0.07046l0.6811,-0.26129l0.37578,0.30239c3.44955,2.789 8.07636,5.82167 11.07968,7.26315c0.90129,0.43156 1.13322,0.49321 2.04625,0.53725c1.17432,0.05578 2.32221,-0.22018 3.08845,-0.73982c0.24073,-0.1644 0.48441,-0.29651 0.54606,-0.29651c0.06165,0 0.65175,0.21725 1.31523,0.48147c2.58937,1.03046 6.43525,2.16368 8.93361,2.63047c0.81909,0.15266 1.19193,0.16734 1.80258,0.07339c0.98643,-0.15266 2.11083,-0.68404 2.79781,-1.31523l0.54312,-0.50202l1.49138,0.36697c4.13066,1.01285 10.72151,1.7967 12.30684,1.46202c2.05505,-0.42863 3.68148,-1.92294 4.29213,-3.9369c0.22606,-0.74276 0.24367,-0.99523 0.17615,-2.48074c-0.14092,-3.11781 -0.6811,-6.767 -1.47964,-10.01398l-0.44037,-1.78496l0.34936,-0.32881c0.76037,-0.7134 1.36514,-1.94643 1.55303,-3.16478c0.19376,-1.26239 -1.24771,-6.81397 -2.7479,-10.58353c-0.26422,-0.66349 -0.48147,-1.25358 -0.48147,-1.31523c0,-0.06165 0.13211,-0.30532 0.29651,-0.54606c0.51964,-0.76624 0.7956,-1.91414 0.73982,-3.08845c-0.04404,-0.91303 -0.10569,-1.14496 -0.53725,-2.04625c-1.44147,-3.00331 -4.47415,-7.63012 -7.26315,-11.07968l-0.30239,-0.37578l0.26129,-0.6811c0.34055,-0.88367 0.36991,-2.29285 0.06752,-3.17946c-0.49321,-1.44147 -1.39156,-2.37505 -4.01323,-4.16295c-5.40186,-3.68442 -11.39674,-5.51048 -18.13732,-5.52222c-5.33727,-0.00881 -9.95233,1.09505 -14.72006,3.51708c-1.53248,0.78092 -4.30974,2.56001 -5.3402,3.42313l-0.56661,0.47266l-1.59413,-1.60588l-1.59413,-1.60881l0.17321,-0.46973c0.24367,-0.66055 0.14092,-1.68514 -0.2378,-2.33102c-0.71633,-1.22129 -2.22533,-1.76735 -3.57579,-1.28881M2935.15928,634.51868c3.41139,0.23193 6.23268,0.93065 9.23306,2.28405c1.34459,0.60771 3.49653,1.82019 4.15121,2.34276l0.33468,0.26716l-0.92771,0.25835c-3.56992,0.98349 -9.37104,1.78496 -15.2162,2.10203c-1.62349,0.09101 -1.74973,0.1145 -2.28698,0.44624c-0.70165,0.43156 -1.16844,1.09505 -1.33872,1.89652c-0.14385,0.67523 -0.12624,0.75156 0.82496,3.84882c0.93065,3.02093 1.26239,5.41653 1.13028,8.1615c-0.11156,2.33983 -0.04404,2.19597 -1.11266,2.29872c-2.7479,0.25835 -6.89911,-0.33468 -10.68334,-1.52661c-1.66753,-0.52551 -2.41322,-0.54899 -3.29689,-0.11156c-0.78386,0.39046 -1.35046,1.14202 -1.52661,2.0257c-0.07046,0.35229 -0.12917,1.20074 -0.12917,1.88478c-0.00294,3.15891 -0.87487,9.89068 -1.7556,13.55748c-0.54019,2.25469 -0.45211,2.17836 -1.20955,1.01285c-2.2723,-3.49359 -3.71084,-7.58902 -4.14534,-11.80188c-0.11743,-1.14496 -0.07339,-4.7413 0.07046,-5.87158c0.37578,-2.9446 1.22422,-5.76296 2.52184,-8.37581c1.44734,-2.91524 2.74203,-4.72075 5.03782,-7.01654c2.29285,-2.29285 4.1013,-3.59047 7.00186,-5.02901c3.4701,-1.72331 6.9314,-2.57175 11.20885,-2.7479c0.25835,-0.01174 1.20955,0.02936 2.11377,0.09395M2950.93035,646.17377c0.44624,0.53138 1.20661,1.49725 1.69102,2.14313c1.76735,2.35157 4.61506,6.91379 4.46827,7.15159c-0.09101,0.14973 -4.49176,0 -6.21801,-0.21138c-3.73139,-0.45798 -7.8004,-1.40037 -11.60225,-2.69212c-2.5923,-0.88074 -2.48368,-0.81909 -2.57469,-1.52368c-0.07633,-0.58716 -0.61652,-3.13249 -0.72514,-3.41726c-0.03817,-0.09982 0.53725,-0.1967 1.98166,-0.33762c3.76956,-0.36404 8.6048,-1.16844 11.065,-1.83781c0.45211,-0.1233 0.88661,-0.22606 0.96294,-0.23193c0.07633,-0.00587 0.50496,0.42569 0.9512,0.95707M2938.27709,658.41895c0.67523,0.22606 1.91414,0.5989 2.75377,0.82789c2.52184,0.68698 2.20771,0.45505 2.56588,1.90239c0.59303,2.40441 1.15377,6.15342 1.30936,8.71636c0.03523,0.61358 0.09395,1.45028 0.13211,1.86129l0.06459,0.74569l-1.21248,-0.07339c-3.98974,-0.24073 -8.367,-0.89248 -10.89766,-1.62643l-0.51083,-0.14679l-0.50496,-1.85542c-0.27596,-1.01872 -0.69578,-2.43377 -0.93065,-3.14423c-0.2378,-0.7134 -0.41395,-1.30936 -0.39046,-1.32698c0.02349,-0.01761 0.54312,-0.11156 1.1567,-0.20844c1.38863,-0.22312 2.26349,-0.62826 3.17653,-1.47083c1.08037,-1.0011 1.50606,-1.98753 1.829,-4.23341c0.02936,-0.21138 0.09395,-0.38165 0.14385,-0.38165c0.04991,0 0.64,0.18495 1.31523,0.41395M2952.42173,661.29309c0.77505,0.06165 2.0756,0.1145 2.89175,0.1145l1.48257,0.00294l0.24073,0.5578c1.02753,2.39854 2.61873,7.70939 2.41322,8.04407c-0.07633,0.12037 -1.65872,0.05284 -3.7402,-0.15853c-1.10679,-0.1145 -4.37139,-0.62826 -4.75598,-0.75156c-0.13798,-0.04404 -0.22606,-0.50202 -0.38752,-1.99634c-0.18202,-1.66459 -0.57835,-4.28919 -0.86019,-5.68369l-0.07927,-0.39927l0.69285,0.07633c0.38165,0.04404 1.32698,0.12917 2.10203,0.19376M2921.94822,663.64466c0.93652,0.19083 1.82019,0.34642 1.96404,0.34936c0.33468,0 0.44918,0.22606 1.20074,2.40735c1.35927,3.94277 2.31634,8.07343 2.75671,11.91931c0.21725,1.91707 0.33468,4.95855 0.22018,5.66608l-0.09395,0.56074l-1.17432,-0.68698c-3.12368,-1.82019 -6.14461,-3.93396 -8.62242,-6.03892l-0.38165,-0.32294l0.41395,-1.73212c0.74863,-3.13836 1.31817,-6.65837 1.68221,-10.3927c0.11156,-1.14496 0.23193,-2.08441 0.26716,-2.08148c0.03523,0.00294 0.83083,0.15853 1.76735,0.35229M2953.30247,675.44948c1.06569,0.15853 2.53359,0.32294 3.25873,0.36404l1.32404,0.07633l0.17615,0.59597c0.30532,1.0334 0.97468,4.18937 1.17432,5.53397c0.20257,1.37395 0.54899,5.00846 0.48147,5.07305c-0.06752,0.07046 -2.90643,-0.1967 -4.71194,-0.4433c-1.84661,-0.25248 -3.7813,-0.63413 -5.46057,-1.07744l-0.99817,-0.26422l-0.07927,-1.23303c-0.09101,-1.44441 -0.25835,-2.80368 -0.58129,-4.75305c-0.15853,-0.95707 -0.19376,-1.42092 -0.10862,-1.45028c0.06752,-0.02055 0.43156,-0.26716 0.80734,-0.54312c0.69578,-0.51376 1.33285,-1.21835 1.73505,-1.92294c0.20257,-0.35817 0.25835,-0.38752 0.63413,-0.32c0.22606,0.0411 1.28294,0.20257 2.34863,0.36404M2936.15745,677.44875c0.87193,0.14973 2.469,0.36991 3.54937,0.48147l1.96111,0.20844l0.12917,0.59009c0.3934,1.80845 0.7222,4.41249 0.78386,6.19745c0.03817,1.08037 0.0411,1.96698 0.00294,1.96698c-0.03523,0 -0.53431,-0.10862 -1.10386,-0.24367c-1.99047,-0.46679 -4.56222,-1.30056 -6.58498,-2.12845l-0.85138,-0.34936l-0.00294,-1.37101c-0.00294,-1.32404 -0.14385,-3.69616 -0.30532,-5.11415l-0.07927,-0.68991l0.45798,0.08807c0.25248,0.04697 1.17138,0.21138 2.04331,0.36404" className="SFSymbolsPreviewWireframe"/></g>
  <g id="Regular-S"><path d="M1422.44596,628.72636c-0.59303,0.21138 -1.56184,1.13028 -1.91414,1.82019c-0.78092,1.53542 -0.77505,3.25286 0.01761,4.80589c0.15266,0.29945 1.1567,1.42092 2.40735,2.68918l2.14606,2.17249l-0.35229,0.41101c-1.15377,1.35634 -2.6334,3.66387 -3.658,5.71011c-1.91707,3.8224 -2.99157,7.65948 -3.36735,12.02206c-0.59009,6.8492 1.29762,14.23565 5.13176,20.08081c1.89359,2.88588 3.02093,4.01616 4.52405,4.53873c0.87487,0.30532 2.28405,0.27303 3.17946,-0.07046l0.6811,-0.26129l0.37578,0.30239c3.44955,2.789 8.07636,5.82167 11.07968,7.26315c0.90129,0.43156 1.13322,0.49321 2.04625,0.53725c1.17432,0.05578 2.32221,-0.22018 3.08845,-0.73982c0.24073,-0.1644 0.48441,-0.29651 0.54606,-0.29651c0.06165,0 0.65175,0.21725 1.31523,0.48147c2.58937,1.03046 6.43525,2.16368 8.93361,2.63047c0.81909,0.15266 1.19193,0.16734 1.80258,0.07339c0.98643,-0.15266 2.11083,-0.68404 2.79781,-1.31523l0.54312,-0.50202l1.49138,0.36697c4.13066,1.01285 10.72151,1.7967 12.30684,1.46202c2.05505,-0.42863 3.68148,-1.92294 4.29213,-3.9369c0.22606,-0.74276 0.24367,-0.99523 0.17615,-2.48074c-0.14092,-3.11781 -0.6811,-6.767 -1.47964,-10.01398l-0.44037,-1.78496l0.34936,-0.32881c0.76037,-0.7134 1.36514,-1.94643 1.55303,-3.16478c0.19376,-1.26239 -1.24771,-6.81397 -2.7479,-10.58353c-0.26422,-0.66349 -0.48147,-1.25358 -0.48147,-1.31523c0,-0.06165 0.13211,-0.30532 0.29651,-0.54606c0.51964,-0.76624 0.7956,-1.91414 0.73982,-3.08845c-0.04404,-0.91303 -0.10569,-1.14496 -0.53725,-2.04625c-1.44147,-3.00331 -4.47415,-7.63012 -7.26315,-11.07968l-0.30239,-0.37578l0.26129,-0.6811c0.34055,-0.88367 0.36991,-2.29285 0.06752,-3.17946c-0.49321,-1.44147 -1.39156,-2.37505 -4.01323,-4.16295c-5.40186,-3.68442 -11.39674,-5.51048 -18.13732,-5.52222c-5.33727,-0.00881 -9.95233,1.09505 -14.72006,3.51708c-1.53248,0.78092 -4.30974,2.56001 -5.3402,3.42313l-0.56661,0.47266l-1.59413,-1.60588l-1.59413,-1.60881l0.17321,-0.46973c0.24367,-0.66055 0.14092,-1.68514 -0.2378,-2.33102c-0.71633,-1.22129 -2.22533,-1.76735 -3.57579,-1.28881M1451.60423,634.51868c3.41139,0.23193 6.23268,0.93065 9.23306,2.28405c1.34459,0.60771 3.49653,1.82019 4.15121,2.34276l0.33468,0.26716l-0.92771,0.25835c-3.56992,0.98349 -9.37104,1.78496 -15.2162,2.10203c-1.62349,0.09101 -1.74973,0.1145 -2.28698,0.44624c-0.70165,0.43156 -1.16844,1.09505 -1.33872,1.89652c-0.14385,0.67523 -0.12624,0.75156 0.82496,3.84882c0.93065,3.02093 1.26239,5.41653 1.13028,8.1615c-0.11156,2.33983 -0.04404,2.19597 -1.11266,2.29872c-2.7479,0.25835 -6.89911,-0.33468 -10.68334,-1.52661c-1.66753,-0.52551 -2.41322,-0.54899 -3.29689,-0.11156c-0.78386,0.39046 -1.35046,1.14202 -1.52661,2.0257c-0.07046,0.35229 -0.12917,1.20074 -0.12917,1.88478c-0.00294,3.15891 -0.87487,9.89068 -1.7556,13.55748c-0.54019,2.25469 -0.45211,2.17836 -1.20955,1.01285c-2.2723,-3.49359 -3.71084,-7.58902 -4.14534,-11.80188c-0.11743,-1.14496 -0.07339,-4.7413 0.07046,-5.87158c0.37578,-2.9446 1.22422,-5.76296 2.52184,-8.37581c1.44734,-2.91524 2.74203,-4.72075 5.03782,-7.01654c2.29285,-2.29285 4.1013,-3.59047 7.00186,-5.02901c3.4701,-1.72331 6.9314,-2.57175 11.20885,-2.7479c0.25835,-0.01174 1.20955,0.02936 2.11377,0.09395M1467.3753,646.17377c0.44624,0.53138 1.20661,1.49725 1.69102,2.14313c1.76735,2.35157 4.61506,6.91379 4.46827,7.15159c-0.09101,0.14973 -4.49176,0 -6.21801,-0.21138c-3.73139,-0.45798 -7.8004,-1.40037 -11.60225,-2.69212c-2.5923,-0.88074 -2.48368,-0.81909 -2.57469,-1.52368c-0.07633,-0.58716 -0.61652,-3.13249 -0.72514,-3.41726c-0.03817,-0.09982 0.53725,-0.1967 1.98166,-0.33762c3.76956,-0.36404 8.6048,-1.16844 11.065,-1.83781c0.45211,-0.1233 0.88661,-0.22606 0.96294,-0.23193c0.07633,-0.00587 0.50496,0.42569 0.9512,0.95707M1454.72204,658.41895c0.67523,0.22606 1.91414,0.5989 2.75377,0.82789c2.52184,0.68698 2.20771,0.45505 2.56588,1.90239c0.59303,2.40441 1.15377,6.15342 1.30936,8.71636c0.03523,0.61358 0.09395,1.45028 0.13211,1.86129l0.06459,0.74569l-1.21248,-0.07339c-3.98974,-0.24073 -8.367,-0.89248 -10.89766,-1.62643l-0.51083,-0.14679l-0.50496,-1.85542c-0.27596,-1.01872 -0.69578,-2.43377 -0.93065,-3.14423c-0.2378,-0.7134 -0.41395,-1.30936 -0.39046,-1.32698c0.02349,-0.01761 0.54312,-0.11156 1.1567,-0.20844c1.38863,-0.22312 2.26349,-0.62826 3.17653,-1.47083c1.08037,-1.0011 1.50606,-1.98753 1.829,-4.23341c0.02936,-0.21138 0.09395,-0.38165 0.14385,-0.38165c0.04991,0 0.64,0.18495 1.31523,0.41395M1468.86668,661.29309c0.77505,0.06165 2.0756,0.1145 2.89175,0.1145l1.48257,0.00294l0.24073,0.5578c1.02753,2.39854 2.61873,7.70939 2.41322,8.04407c-0.07633,0.12037 -1.65872,0.05284 -3.7402,-0.15853c-1.10679,-0.1145 -4.37139,-0.62826 -4.75598,-0.75156c-0.13798,-0.04404 -0.22606,-0.50202 -0.38752,-1.99634c-0.18202,-1.66459 -0.57835,-4.28919 -0.86019,-5.68369l-0.07927,-0.39927l0.69285,0.07633c0.38165,0.04404 1.32698,0.12917 2.10203,0.19376M1438.39317,663.64466c0.93652,0.19083 1.82019,0.34642 1.96404,0.34936c0.33468,0 0.44918,0.22606 1.20074,2.40735c1.35927,3.94277 2.31634,8.07343 2.75671,11.91931c0.21725,1.91707 0.33468,4.95855 0.22018,5.66608l-0.09395,0.56074l-1.17432,-0.68698c-3.12368,-1.82019 -6.14461,-3.93396 -8.62242,-6.03892l-0.38165,-0.32294l0.41395,-1.73212c0.74863,-3.13836 1.31817,-6.65837 1.68221,-10.3927c0.11156,-1.14496 0.23193,-2.08441 0.26716,-2.08148c0.03523,0.00294 0.83083,0.15853 1.76735,0.35229M1469.74742,675.44948c1.06569,0.15853 2.53359,0.32294 3.25873,0.36404l1.32404,0.07633l0.17615,0.59597c0.30532,1.0334 0.97468,4.18937 1.17432,5.53397c0.20257,1.37395 0.54899,5.00846 0.48147,5.07305c-0.06752,0.07046 -2.90643,-0.1967 -4.71194,-0.4433c-1.84661,-0.25248 -3.7813,-0.63413 -5.46057,-1.07744l-0.99817,-0.26422l-0.07927,-1.23303c-0.09101,-1.44441 -0.25835,-2.80368 -0.58129,-4.75305c-0.15853,-0.95707 -0.19376,-1.42092 -0.10862,-1.45028c0.06752,-0.02055 0.43156,-0.26716 0.80734,-0.54312c0.69578,-0.51376 1.33285,-1.21835 1.73505,-1.92294c0.20257,-0.35817 0.25835,-0.38752 0.63413,-0.32c0.22606,0.0411 1.28294,0.20257 2.34863,0.36404M1452.6024,677.44875c0.87193,0.14973 2.469,0.36991 3.54937,0.48147l1.96111,0.20844l0.12917,0.59009c0.3934,1.80845 0.7222,4.41249 0.78386,6.19745c0.03817,1.08037 0.0411,1.96698 0.00294,1.96698c-0.03523,0 -0.53431,-0.10862 -1.10386,-0.24367c-1.99047,-0.46679 -4.56222,-1.30056 -6.58498,-2.12845l-0.85138,-0.34936l-0.00294,-1.37101c-0.00294,-1.32404 -0.14385,-3.69616 -0.30532,-5.11415l-0.07927,-0.68991l0.45798,0.08807c0.25248,0.04697 1.17138,0.21138 2.04331,0.36404" className="SFSymbolsPreviewWireframe"/></g>
  <g id="Ultralight-S"><path d="M532.31237,628.72636c-0.59303,0.21138 -1.56184,1.13028 -1.91414,1.82019c-0.78092,1.53542 -0.77505,3.25286 0.01761,4.80589c0.15266,0.29945 1.1567,1.42092 2.40735,2.68918l2.14606,2.17249l-0.35229,0.41101c-1.15377,1.35634 -2.6334,3.66387 -3.658,5.71011c-1.91707,3.8224 -2.99157,7.65948 -3.36735,12.02206c-0.59009,6.8492 1.29762,14.23565 5.13176,20.08081c1.89359,2.88588 3.02093,4.01616 4.52405,4.53873c0.87487,0.30532 2.28405,0.27303 3.17946,-0.07046l0.6811,-0.26129l0.37578,0.30239c3.44955,2.789 8.07636,5.82167 11.07968,7.26315c0.90129,0.43156 1.13322,0.49321 2.04625,0.53725c1.17432,0.05578 2.32221,-0.22018 3.08845,-0.73982c0.24073,-0.1644 0.48441,-0.29651 0.54606,-0.29651c0.06165,0 0.65175,0.21725 1.31523,0.48147c2.58937,1.03046 6.43525,2.16368 8.93361,2.63047c0.81909,0.15266 1.19193,0.16734 1.80258,0.07339c0.98643,-0.15266 2.11083,-0.68404 2.79781,-1.31523l0.54312,-0.50202l1.49138,0.36697c4.13066,1.01285 10.72151,1.7967 12.30684,1.46202c2.05505,-0.42863 3.68148,-1.92294 4.29213,-3.9369c0.22606,-0.74276 0.24367,-0.99523 0.17615,-2.48074c-0.14092,-3.11781 -0.6811,-6.767 -1.47964,-10.01398l-0.44037,-1.78496l0.34936,-0.32881c0.76037,-0.7134 1.36514,-1.94643 1.55303,-3.16478c0.19376,-1.26239 -1.24771,-6.81397 -2.7479,-10.58353c-0.26422,-0.66349 -0.48147,-1.25358 -0.48147,-1.31523c0,-0.06165 0.13211,-0.30532 0.29651,-0.54606c0.51964,-0.76624 0.7956,-1.91414 0.73982,-3.08845c-0.04404,-0.91303 -0.10569,-1.14496 -0.53725,-2.04625c-1.44147,-3.00331 -4.47415,-7.63012 -7.26315,-11.07968l-0.30239,-0.37578l0.26129,-0.6811c0.34055,-0.88367 0.36991,-2.29285 0.06752,-3.17946c-0.49321,-1.44147 -1.39156,-2.37505 -4.01323,-4.16295c-5.40186,-3.68442 -11.39674,-5.51048 -18.13732,-5.52222c-5.33727,-0.00881 -9.95233,1.09505 -14.72006,3.51708c-1.53248,0.78092 -4.30974,2.56001 -5.3402,3.42313l-0.56661,0.47266l-1.59413,-1.60588l-1.59413,-1.60881l0.17321,-0.46973c0.24367,-0.66055 0.14092,-1.68514 -0.2378,-2.33102c-0.71633,-1.22129 -2.22533,-1.76735 -3.57579,-1.28881M561.47064,634.51868c3.41139,0.23193 6.23268,0.93065 9.23306,2.28405c1.34459,0.60771 3.49653,1.82019 4.15121,2.34276l0.33468,0.26716l-0.92771,0.25835c-3.56992,0.98349 -9.37104,1.78496 -15.2162,2.10203c-1.62349,0.09101 -1.74973,0.1145 -2.28698,0.44624c-0.70165,0.43156 -1.16844,1.09505 -1.33872,1.89652c-0.14385,0.67523 -0.12624,0.75156 0.82496,3.84882c0.93065,3.02093 1.26239,5.41653 1.13028,8.1615c-0.11156,2.33983 -0.04404,2.19597 -1.11266,2.29872c-2.7479,0.25835 -6.89911,-0.33468 -10.68334,-1.52661c-1.66753,-0.52551 -2.41322,-0.54899 -3.29689,-0.11156c-0.78386,0.39046 -1.35046,1.14202 -1.52661,2.0257c-0.07046,0.35229 -0.12917,1.20074 -0.12917,1.88478c-0.00294,3.15891 -0.87487,9.89068 -1.7556,13.55748c-0.54019,2.25469 -0.45211,2.17836 -1.20955,1.01285c-2.2723,-3.49359 -3.71084,-7.58902 -4.14534,-11.80188c-0.11743,-1.14496 -0.07339,-4.7413 0.07046,-5.87158c0.37578,-2.9446 1.22422,-5.76296 2.52184,-8.37581c1.44734,-2.91524 2.74203,-4.72075 5.03782,-7.01654c2.29285,-2.29285 4.1013,-3.59047 7.00186,-5.02901c3.4701,-1.72331 6.9314,-2.57175 11.20885,-2.7479c0.25835,-0.01174 1.20955,0.02936 2.11377,0.09395M577.24171,646.17377c0.44624,0.53138 1.20661,1.49725 1.69102,2.14313c1.76735,2.35157 4.61506,6.91379 4.46827,7.15159c-0.09101,0.14973 -4.49176,0 -6.21801,-0.21138c-3.73139,-0.45798 -7.8004,-1.40037 -11.60225,-2.69212c-2.5923,-0.88074 -2.48368,-0.81909 -2.57469,-1.52368c-0.07633,-0.58716 -0.61652,-3.13249 -0.72514,-3.41726c-0.03817,-0.09982 0.53725,-0.1967 1.98166,-0.33762c3.76956,-0.36404 8.6048,-1.16844 11.065,-1.83781c0.45211,-0.1233 0.88661,-0.22606 0.96294,-0.23193c0.07633,-0.00587 0.50496,0.42569 0.9512,0.95707M564.58845,658.41895c0.67523,0.22606 1.91414,0.5989 2.75377,0.82789c2.52184,0.68698 2.20771,0.45505 2.56588,1.90239c0.59303,2.40441 1.15377,6.15342 1.30936,8.71636c0.03523,0.61358 0.09395,1.45028 0.13211,1.86129l0.06459,0.74569l-1.21248,-0.07339c-3.98974,-0.24073 -8.367,-0.89248 -10.89766,-1.62643l-0.51083,-0.14679l-0.50496,-1.85542c-0.27596,-1.01872 -0.69578,-2.43377 -0.93065,-3.14423c-0.2378,-0.7134 -0.41395,-1.30936 -0.39046,-1.32698c0.02349,-0.01761 0.54312,-0.11156 1.1567,-0.20844c1.38863,-0.22312 2.26349,-0.62826 3.17653,-1.47083c1.08037,-1.0011 1.50606,-1.98753 1.829,-4.23341c0.02936,-0.21138 0.09395,-0.38165 0.14385,-0.38165c0.04991,0 0.64,0.18495 1.31523,0.41395M578.73309,661.29309c0.77505,0.06165 2.0756,0.1145 2.89175,0.1145l1.48257,0.00294l0.24073,0.5578c1.02753,2.39854 2.61873,7.70939 2.41322,8.04407c-0.07633,0.12037 -1.65872,0.05284 -3.7402,-0.15853c-1.10679,-0.1145 -4.37139,-0.62826 -4.75598,-0.75156c-0.13798,-0.04404 -0.22606,-0.50202 -0.38752,-1.99634c-0.18202,-1.66459 -0.57835,-4.28919 -0.86019,-5.68369l-0.07927,-0.39927l0.69285,0.07633c0.38165,0.04404 1.32698,0.12917 2.10203,0.19376M548.25958,663.64466c0.93652,0.19083 1.82019,0.34642 1.96404,0.34936c0.33468,0 0.44918,0.22606 1.20074,2.40735c1.35927,3.94277 2.31634,8.07343 2.75671,11.91931c0.21725,1.91707 0.33468,4.95855 0.22018,5.66608l-0.09395,0.56074l-1.17432,-0.68698c-3.12368,-1.82019 -6.14461,-3.93396 -8.62242,-6.03892l-0.38165,-0.32294l0.41395,-1.73212c0.74863,-3.13836 1.31817,-6.65837 1.68221,-10.3927c0.11156,-1.14496 0.23193,-2.08441 0.26716,-2.08148c0.03523,0.00294 0.83083,0.15853 1.76735,0.35229M579.61383,675.44948c1.06569,0.15853 2.53359,0.32294 3.25873,0.36404l1.32404,0.07633l0.17615,0.59597c0.30532,1.0334 0.97468,4.18937 1.17432,5.53397c0.20257,1.37395 0.54899,5.00846 0.48147,5.07305c-0.06752,0.07046 -2.90643,-0.1967 -4.71194,-0.4433c-1.84661,-0.25248 -3.7813,-0.63413 -5.46057,-1.07744l-0.99817,-0.26422l-0.07927,-1.23303c-0.09101,-1.44441 -0.25835,-2.80368 -0.58129,-4.75305c-0.15853,-0.95707 -0.19376,-1.42092 -0.10862,-1.45028c0.06752,-0.02055 0.43156,-0.26716 0.80734,-0.54312c0.69578,-0.51376 1.33285,-1.21835 1.73505,-1.92294c0.20257,-0.35817 0.25835,-0.38752 0.63413,-0.32c0.22606,0.0411 1.28294,0.20257 2.34863,0.36404M562.46881,677.44875c0.87193,0.14973 2.469,0.36991 3.54937,0.48147l1.96111,0.20844l0.12917,0.59009c0.3934,1.80845 0.7222,4.41249 0.78386,6.19745c0.03817,1.08037 0.0411,1.96698 0.00294,1.96698c-0.03523,0 -0.53431,-0.10862 -1.10386,-0.24367c-1.99047,-0.46679 -4.56222,-1.30056 -6.58498,-2.12845l-0.85138,-0.34936l-0.00294,-1.37101c-0.00294,-1.32404 -0.14385,-3.69616 -0.30532,-5.11415l-0.07927,-0.68991l0.45798,0.08807c0.25248,0.04697 1.17138,0.21138 2.04331,0.36404" className="SFSymbolsPreviewWireframe"/></g>
 </g>
</svg>