<?xml version="1.0" encoding="UTF-8"?><!--Generator: SymbolKit.app--><!DOCTYPE svg PUBLIC "-//W3C//DTD SVG 1.1//EN" "http://www.w3.org/Graphics/SVG/1.1/DTD/svg11.dtd"><svg xmlns="http://www.w3.org/2000/svg" xmlns:xlink="http://www.w3.org/1999/xlink" version="1.1" viewBox="0 0 3300 2200">
 <!--glyph: "100092", point size: 100.0, font version: "20.0d10e1", template writer version: "138.0.0"-->
 <style>.SFSymbolsPreviewWireframe {fill:none;opacity:1.0;stroke:black;stroke-width:0.5}
</style>
 <g id="Notes">
  <rect height="2200" id="artboard" style="fill:white;opacity:1" width="3300" x="0" y="0"/>
  <line style="fill:none;stroke:black;opacity:1;stroke-width:0.5;" x1="263" x2="3036" y1="292" y2="292"/>
  <text style="stroke:none;fill:black;font-family:sans-serif;font-size:13;font-weight:bold;" transform="matrix(1 0 0 1 263 322)">Weight/Scale Variations</text>
  <text style="stroke:none;fill:black;font-family:sans-serif;font-size:13;text-anchor:middle;" transform="matrix(1 0 0 1 559.711 322)">Ultralight</text>
  <text style="stroke:none;fill:black;font-family:sans-serif;font-size:13;text-anchor:middle;" transform="matrix(1 0 0 1 856.422 322)">Thin</text>
  <text style="stroke:none;fill:black;font-family:sans-serif;font-size:13;text-anchor:middle;" transform="matrix(1 0 0 1 1153.13 322)">Light</text>
  <text style="stroke:none;fill:black;font-family:sans-serif;font-size:13;text-anchor:middle;" transform="matrix(1 0 0 1 1449.84 322)">Regular</text>
  <text style="stroke:none;fill:black;font-family:sans-serif;font-size:13;text-anchor:middle;" transform="matrix(1 0 0 1 1746.56 322)">Medium</text>
  <text style="stroke:none;fill:black;font-family:sans-serif;font-size:13;text-anchor:middle;" transform="matrix(1 0 0 1 2043.27 322)">Semibold</text>
  <text style="stroke:none;fill:black;font-family:sans-serif;font-size:13;text-anchor:middle;" transform="matrix(1 0 0 1 2339.98 322)">Bold</text>
  <text style="stroke:none;fill:black;font-family:sans-serif;font-size:13;text-anchor:middle;" transform="matrix(1 0 0 1 2636.69 322)">Heavy</text>
  <text style="stroke:none;fill:black;font-family:sans-serif;font-size:13;text-anchor:middle;" transform="matrix(1 0 0 1 2933.4 322)">Black</text>
  <line style="fill:none;stroke:black;opacity:1;stroke-width:0.5;" x1="263" x2="3036" y1="1903" y2="1903"/>
  <g transform="matrix(0.2 0 0 0.2 263 1933)">
   <path d="m46.2402 4.15039c21.7773 0 39.4531-17.627 39.4531-39.4043s-17.6758-39.4043-39.4531-39.4043c-21.7285 0-39.4043 17.627-39.4043 39.4043s17.6758 39.4043 39.4043 39.4043Zm0-7.42188c-17.6758 0-31.9336-14.3066-31.9336-31.9824s14.2578-31.9824 31.9336-31.9824 31.9824 14.3066 31.9824 31.9824-14.3066 31.9824-31.9824 31.9824Zm-17.9688-31.9824c0 2.14844 1.51367 3.61328 3.75977 3.61328h10.498v10.5957c0 2.19727 1.46484 3.71094 3.61328 3.71094 2.24609 0 3.71094-1.51367 3.71094-3.71094v-10.5957h10.5957c2.19727 0 3.71094-1.46484 3.71094-3.61328 0-2.19727-1.51367-3.71094-3.71094-3.71094h-10.5957v-10.5469c0-2.24609-1.46484-3.75977-3.71094-3.75977-2.14844 0-3.61328 1.51367-3.61328 3.75977v10.5469h-10.498c-2.24609 0-3.75977 1.51367-3.75977 3.71094Z"/>
  </g>
  <g transform="matrix(0.2 0 0 0.2 281.506 1933)">
   <path d="m58.5449 14.5508c27.4902 0 49.8047-22.3145 49.8047-49.8047s-22.3145-49.8047-49.8047-49.8047-49.8047 22.3145-49.8047 49.8047 22.3145 49.8047 49.8047 49.8047Zm0-8.30078c-22.9492 0-41.5039-18.5547-41.5039-41.5039s18.5547-41.5039 41.5039-41.5039 41.5039 18.5547 41.5039 41.5039-18.5547 41.5039-41.5039 41.5039Zm-22.6562-41.5039c0 2.39258 1.66016 4.00391 4.15039 4.00391h14.3555v14.4043c0 2.44141 1.66016 4.15039 4.05273 4.15039 2.44141 0 4.15039-1.66016 4.15039-4.15039v-14.4043h14.4043c2.44141 0 4.15039-1.61133 4.15039-4.00391 0-2.44141-1.70898-4.15039-4.15039-4.15039h-14.4043v-14.3555c0-2.49023-1.70898-4.19922-4.15039-4.19922-2.39258 0-4.05273 1.70898-4.05273 4.19922v14.3555h-14.3555c-2.49023 0-4.15039 1.70898-4.15039 4.15039Z"/>
  </g>
  <g transform="matrix(0.2 0 0 0.2 304.924 1933)">
   <path d="m74.8535 28.3203c35.1074 0 63.623-28.4668 63.623-63.5742s-28.5156-63.623-63.623-63.623-63.5742 28.5156-63.5742 63.623 28.4668 63.5742 63.5742 63.5742Zm0-9.08203c-30.127 0-54.4922-24.3652-54.4922-54.4922s24.3652-54.4922 54.4922-54.4922 54.4922 24.3652 54.4922 54.4922-24.3652 54.4922-54.4922 54.4922Zm-28.8574-54.4922c0 2.58789 1.85547 4.39453 4.58984 4.39453h19.7266v19.7754c0 2.68555 1.85547 4.58984 4.44336 4.58984 2.68555 0 4.54102-1.85547 4.54102-4.58984v-19.7754h19.7754c2.68555 0 4.58984-1.80664 4.58984-4.39453 0-2.73438-1.85547-4.58984-4.58984-4.58984h-19.7754v-19.7266c0-2.73438-1.85547-4.63867-4.54102-4.63867-2.58789 0-4.44336 1.9043-4.44336 4.63867v19.7266h-19.7266c-2.73438 0-4.58984 1.85547-4.58984 4.58984Z"/>
  </g>
  <text style="stroke:none;fill:black;font-family:sans-serif;font-size:13;font-weight:bold;" transform="matrix(1 0 0 1 263 1953)">Design Variations</text>
  <text style="stroke:none;fill:black;font-family:sans-serif;font-size:13;" transform="matrix(1 0 0 1 263 1971)">Symbols are supported in up to nine weights and three scales.</text>
  <text style="stroke:none;fill:black;font-family:sans-serif;font-size:13;" transform="matrix(1 0 0 1 263 1989)">For optimal layout with text and other symbols, vertically align</text>
  <text style="stroke:none;fill:black;font-family:sans-serif;font-size:13;" transform="matrix(1 0 0 1 263 2007)">symbols with the adjacent text.</text>
  <line style="fill:none;stroke:#00AEEF;stroke-width:0.5;opacity:1.0;" x1="776" x2="776" y1="1919" y2="1933"/>
  <g transform="matrix(0.2 0 0 0.2 776 1933)">
   <path d="m16.5527 0.78125c2.58789 0 3.85742-0.976562 4.78516-3.71094l6.29883-17.2363h28.8086l6.29883 17.2363c0.927734 2.73438 2.19727 3.71094 4.73633 3.71094 2.58789 0 4.24805-1.5625 4.24805-4.00391 0-0.830078-0.146484-1.61133-0.537109-2.63672l-22.9004-60.9863c-1.12305-2.97852-3.125-4.49219-6.25-4.49219-3.02734 0-5.07812 1.46484-6.15234 4.44336l-22.9004 61.084c-0.390625 1.02539-0.537109 1.80664-0.537109 2.63672 0 2.44141 1.5625 3.95508 4.10156 3.95508Zm13.4766-28.3691 11.8652-32.8613h0.244141l11.8652 32.8613Z"/>
  </g>
  <line style="fill:none;stroke:#00AEEF;stroke-width:0.5;opacity:1.0;" x1="792.836" x2="792.836" y1="1919" y2="1933"/>
  <text style="stroke:none;fill:black;font-family:sans-serif;font-size:13;font-weight:bold;" transform="matrix(1 0 0 1 776 1953)">Margins</text>
  <text style="stroke:none;fill:black;font-family:sans-serif;font-size:13;" transform="matrix(1 0 0 1 776 1971)">Leading and trailing margins on the left and right side of each symbol</text>
  <text style="stroke:none;fill:black;font-family:sans-serif;font-size:13;" transform="matrix(1 0 0 1 776 1989)">can be adjusted by modifying the x-location of the margin guidelines.</text>
  <text style="stroke:none;fill:black;font-family:sans-serif;font-size:13;" transform="matrix(1 0 0 1 776 2007)">Modifications are automatically applied proportionally to all</text>
  <text style="stroke:none;fill:black;font-family:sans-serif;font-size:13;" transform="matrix(1 0 0 1 776 2025)">scales and weights.</text>
  <g transform="matrix(0.2 0 0 0.2 1289 1933)">
   <path d="m14.209 9.32617 8.49609 8.54492c4.29688 4.3457 9.22852 4.05273 13.8672-1.07422l53.4668-58.9355-4.83398-4.88281-53.0762 58.3984c-1.75781 2.00195-3.41797 2.49023-5.76172 0.146484l-5.85938-5.81055c-2.34375-2.29492-1.80664-4.00391 0.195312-5.81055l57.373-54.0039-4.88281-4.83398-57.959 54.4434c-4.93164 4.58984-5.32227 9.47266-1.02539 13.8184Zm32.0801-90.9668c-2.09961 2.05078-2.24609 4.93164-1.07422 6.88477 1.17188 1.80664 3.4668 2.97852 6.68945 2.14844 7.32422-1.70898 14.9414-2.00195 22.0703 2.68555l-2.92969 7.27539c-1.70898 4.15039-0.830078 7.08008 1.85547 9.81445l11.4746 11.5723c2.44141 2.44141 4.49219 2.53906 7.32422 2.05078l5.32227-0.976562 3.32031 3.36914-0.195312 2.7832c-0.195312 2.49023 0.439453 4.39453 2.88086 6.78711l3.80859 3.71094c2.39258 2.39258 5.46875 2.53906 7.8125 0.195312l14.5508-14.5996c2.34375-2.34375 2.24609-5.32227-0.146484-7.71484l-3.85742-3.80859c-2.39258-2.39258-4.24805-3.17383-6.64062-2.97852l-2.88086 0.244141-3.22266-3.17383 1.2207-5.61523c0.634766-2.83203-0.146484-5.0293-3.07617-7.95898l-10.9863-10.9375c-16.6992-16.6016-38.8672-16.2109-53.3203-1.75781Zm7.4707 1.85547c12.1582-8.88672 28.6133-7.37305 39.7461 3.75977l12.1582 12.0605c1.17188 1.17188 1.36719 2.09961 1.02539 3.80859l-1.61133 7.42188 7.51953 7.42188 4.93164-0.292969c1.26953-0.0488281 1.66016 0.0488281 2.63672 1.02539l2.88086 2.88086-12.207 12.207-2.88086-2.88086c-0.976562-0.976562-1.12305-1.36719-1.07422-2.68555l0.341797-4.88281-7.4707-7.42188-7.61719 1.26953c-1.61133 0.341797-2.34375 0.195312-3.56445-0.976562l-10.0098-10.0098c-1.26953-1.17188-1.41602-2.00195-0.634766-3.85742l4.39453-10.4492c-7.8125-7.27539-17.9688-10.4004-28.125-7.42188-0.78125 0.195312-1.07422-0.439453-0.439453-0.976562Z"/>
  </g>
  <text style="stroke:none;fill:black;font-family:sans-serif;font-size:13;font-weight:bold;" transform="matrix(1 0 0 1 1289 1953)">Exporting</text>
  <text style="stroke:none;fill:black;font-family:sans-serif;font-size:13;" transform="matrix(1 0 0 1 1289 1971)">Symbols should be outlined when exporting to ensure the</text>
  <text style="stroke:none;fill:black;font-family:sans-serif;font-size:13;" transform="matrix(1 0 0 1 1289 1989)">design is preserved when submitting to Xcode.</text>
  <text id="template-version" style="stroke:none;fill:black;font-family:sans-serif;font-size:13;text-anchor:end;" transform="matrix(1 0 0 1 3036 1933)">Template v.6.0</text>
  <text style="stroke:none;fill:black;font-family:sans-serif;font-size:13;text-anchor:end;" transform="matrix(1 0 0 1 3036 1951)">Requires Xcode 16 or greater</text>
  <text id="descriptive-name" style="stroke:none;fill:black;font-family:sans-serif;font-size:13;text-anchor:end;" transform="matrix(1 0 0 1 3036 1969)">Generated from square</text>
  <text style="stroke:none;fill:black;font-family:sans-serif;font-size:13;text-anchor:end;" transform="matrix(1 0 0 1 3036 1987)">Typeset at 100.0 points</text>
  <text style="stroke:none;fill:black;font-family:sans-serif;font-size:13;" transform="matrix(1 0 0 1 263 726)">Small</text>
  <text style="stroke:none;fill:black;font-family:sans-serif;font-size:13;" transform="matrix(1 0 0 1 263 1156)">Medium</text>
  <text style="stroke:none;fill:black;font-family:sans-serif;font-size:13;" transform="matrix(1 0 0 1 263 1586)">Large</text>
 </g>
 <g id="Guides">
  <g id="H-reference" style="fill:#27AAE1;stroke:none;" transform="matrix(1 0 0 1 339 696)">
   <path d="M0.993654 0L3.63775 0L29.3281-67.1323L30.0303-67.1323L30.0303-70.459L28.1226-70.459ZM11.6885-24.4799L46.9815-24.4799L46.2315-26.7285L12.4385-26.7285ZM55.1196 0L57.7637 0L30.6382-70.459L29.4326-70.459L29.4326-67.1323Z"/>
  </g>
  <line id="Baseline-S" style="fill:none;stroke:#27AAE1;opacity:1;stroke-width:0.5;" x1="263" x2="3036" y1="696" y2="696"/>
  <line id="Capline-S" style="fill:none;stroke:#27AAE1;opacity:1;stroke-width:0.5;" x1="263" x2="3036" y1="625.541" y2="625.541"/>
  <g id="H-reference" style="fill:#27AAE1;stroke:none;" transform="matrix(1 0 0 1 339 1126)">
   <path d="M0.993654 0L3.63775 0L29.3281-67.1323L30.0303-67.1323L30.0303-70.459L28.1226-70.459ZM11.6885-24.4799L46.9815-24.4799L46.2315-26.7285L12.4385-26.7285ZM55.1196 0L57.7637 0L30.6382-70.459L29.4326-70.459L29.4326-67.1323Z"/>
  </g>
  <line id="Baseline-M" style="fill:none;stroke:#27AAE1;opacity:1;stroke-width:0.5;" x1="263" x2="3036" y1="1126" y2="1126"/>
  <line id="Capline-M" style="fill:none;stroke:#27AAE1;opacity:1;stroke-width:0.5;" x1="263" x2="3036" y1="1055.54" y2="1055.54"/>
  <g id="H-reference" style="fill:#27AAE1;stroke:none;" transform="matrix(1 0 0 1 339 1556)">
   <path d="M0.993654 0L3.63775 0L29.3281-67.1323L30.0303-67.1323L30.0303-70.459L28.1226-70.459ZM11.6885-24.4799L46.9815-24.4799L46.2315-26.7285L12.4385-26.7285ZM55.1196 0L57.7637 0L30.6382-70.459L29.4326-70.459L29.4326-67.1323Z"/>
  </g>
  <line id="Baseline-L" style="fill:none;stroke:#27AAE1;opacity:1;stroke-width:0.5;" x1="263" x2="3036" y1="1556" y2="1556"/>
  <line id="Capline-L" style="fill:none;stroke:#27AAE1;opacity:1;stroke-width:0.5;" x1="263" x2="3036" y1="1485.54" y2="1485.54"/>
  <line id="right-margin-Black-S" style="fill:none;stroke:#00AEEF;stroke-width:0.5;opacity:1.0;" x1="2981.3" x2="2981.3" y1="600.785" y2="720.121"/>
  <line id="left-margin-Black-S" style="fill:none;stroke:#00AEEF;stroke-width:0.5;opacity:1.0;" x1="2885.5" x2="2885.5" y1="600.785" y2="720.121"/>
  <line id="right-margin-Regular-S" style="fill:none;stroke:#00AEEF;stroke-width:0.5;opacity:1.0;" x1="1495.18" x2="1495.18" y1="600.785" y2="720.121"/>
  <line id="left-margin-Regular-S" style="fill:none;stroke:#00AEEF;stroke-width:0.5;opacity:1.0;" x1="1404.51" x2="1404.51" y1="600.785" y2="720.121"/>
  <line id="right-margin-Ultralight-S" style="fill:none;stroke:#00AEEF;stroke-width:0.5;opacity:1.0;" x1="603.073" x2="603.073" y1="600.785" y2="720.121"/>
  <line id="left-margin-Ultralight-S" style="fill:none;stroke:#00AEEF;stroke-width:0.5;opacity:1.0;" x1="516.35" x2="516.35" y1="600.785" y2="720.121"/>
 </g>
 <g id="Symbols">
  <g id="Black-S"><path d="M2903.05,628.64876c-0.65175,0.2378 -1.23303,0.72808 -1.5912,1.33578c-0.26716,0.45798 -0.31707,0.67523 -0.31707,1.42092c0,0.74569 0.04697,0.96 0.31413,1.40918c0.17615,0.29064 2.24294,2.45139 4.59745,4.80002l4.28038,4.27158l-0.74569,1.54129c-2.49542,5.15525 -3.21763,10.57766 -2.15781,16.19382c1.5501,8.24077 7.39819,17.61768 16.89548,27.09735c3.1413,3.13836 5.54571,5.27562 6.4059,5.69543c1.74386,0.85432 3.54644,0.85432 5.2903,0c1.62349,-0.79266 8.54315,-7.57141 12.06023,-11.80775l0.4345,-0.52551l6.25911,6.24149c3.44075,3.43194 6.44113,6.33837 6.66718,6.4558c0.29064,0.15266 0.66936,0.21725 1.29175,0.21725c0.75743,0.00294 0.96,-0.04404 1.44441,-0.32881c1.39744,-0.82202 1.89946,-2.64221 1.09505,-3.98974c-0.16147,-0.27009 -13.65143,-13.84225 -29.9803,-30.15938c-27.45845,-27.4379 -29.73369,-29.68085 -30.26801,-29.85699c-0.69285,-0.22899 -1.37689,-0.23193 -1.97579,-0.01174M2931.32167,628.54013c-2.59818,0.26129 -4.95855,0.78092 -6.95782,1.52661c-2.76845,1.03633 -3.71378,1.66753 -4.07488,2.72441c-0.37578,1.09799 -0.17028,2.09615 0.60184,2.95928c0.60184,0.66642 1.26533,0.96294 2.15193,0.96c0.51376,-0.00294 0.93065,-0.1233 2.0345,-0.60184c4.7002,-2.0257 9.55306,-2.29872 14.46464,-0.81321c1.36221,0.41101 3.83708,1.58239 5.10828,2.41909c5.12589,3.36442 8.51086,8.93655 9.15673,15.08409c0.35817,3.39671 -0.18495,6.67892 -1.77322,10.69802c-0.30532,0.76918 -0.45505,1.33285 -0.45505,1.71157c0,2.21359 2.24294,3.6257 4.20405,2.64808c0.78679,-0.39046 1.17432,-0.87193 1.65872,-2.05799c2.32221,-5.67488 2.90056,-10.8272 1.82019,-16.17914c-1.13615,-5.63085 -4.37433,-11.1472 -8.66058,-14.75822c-3.88405,-3.26754 -8.54902,-5.39892 -13.37546,-6.10351c-1.18019,-0.17028 -4.97323,-0.31119 -5.90388,-0.21725M2934.82994,643.50386c-1.22129,0.37578 -2.15781,1.56184 -2.15781,2.73616c0,0.93945 0.22606,1.48551 0.8778,2.13432c0.47266,0.46973 0.75743,0.64294 1.42679,0.85432c1.96111,0.62239 3.43194,2.09028 4.06607,4.0602c0.47266,1.4679 1.52074,2.30753 2.87708,2.30753c1.29762,-0.00294 2.34863,-0.76918 2.77432,-2.02863c0.23486,-0.69578 0.2378,-0.91597 0.01174,-1.77615c-0.27596,-1.06276 -0.84844,-2.34276 -1.49138,-3.33506c-0.78679,-1.20955 -2.49542,-2.86827 -3.71084,-3.59341c-1.77909,-1.06276 -3.76368,-1.63817 -4.67378,-1.35927M2921.66292,654.47491c-0.12037,2.38386 0.59009,4.88809 1.97579,6.95195c2.25762,3.36442 6.26791,5.39011 10.25472,5.18167l1.10386,-0.05578l4.67084,4.67084l4.67084,4.67084l-0.69578,0.85138c-1.28881,1.57652 -2.66863,3.08845 -4.7413,5.19635c-2.30753,2.3457 -5.30497,5.12589 -5.52809,5.12589c-0.19376,0 -1.72625,-1.38863 -4.15121,-3.75781c-9.14499,-8.93948 -14.76116,-17.72043 -16.11162,-25.19496c-0.29358,-1.61175 -0.29358,-4.80589 -0.00587,-6.5703c0.23193,-1.40918 0.83376,-3.52589 1.30936,-4.59745l0.29945,-0.67817l3.50533,3.50533l3.50533,3.5024l-0.06165,1.1978" className="SFSymbolsPreviewWireframe"/></g>
  <g id="Regular-S"><path d="M1419.49495,628.64876c-0.65175,0.2378 -1.23303,0.72808 -1.5912,1.33578c-0.26716,0.45798 -0.31707,0.67523 -0.31707,1.42092c0,0.74569 0.04697,0.96 0.31413,1.40918c0.17615,0.29064 2.24294,2.45139 4.59745,4.80002l4.28038,4.27158l-0.74569,1.54129c-2.49542,5.15525 -3.21763,10.57766 -2.15781,16.19382c1.5501,8.24077 7.39819,17.61768 16.89548,27.09735c3.1413,3.13836 5.54571,5.27562 6.4059,5.69543c1.74386,0.85432 3.54644,0.85432 5.2903,0c1.62349,-0.79266 8.54315,-7.57141 12.06023,-11.80775l0.4345,-0.52551l6.25911,6.24149c3.44075,3.43194 6.44113,6.33837 6.66718,6.4558c0.29064,0.15266 0.66936,0.21725 1.29175,0.21725c0.75743,0.00294 0.96,-0.04404 1.44441,-0.32881c1.39744,-0.82202 1.89946,-2.64221 1.09505,-3.98974c-0.16147,-0.27009 -13.65143,-13.84225 -29.9803,-30.15938c-27.45845,-27.4379 -29.73369,-29.68085 -30.26801,-29.85699c-0.69285,-0.22899 -1.37689,-0.23193 -1.97579,-0.01174M1447.76662,628.54013c-2.59818,0.26129 -4.95855,0.78092 -6.95782,1.52661c-2.76845,1.03633 -3.71378,1.66753 -4.07488,2.72441c-0.37578,1.09799 -0.17028,2.09615 0.60184,2.95928c0.60184,0.66642 1.26533,0.96294 2.15193,0.96c0.51376,-0.00294 0.93065,-0.1233 2.0345,-0.60184c4.7002,-2.0257 9.55306,-2.29872 14.46464,-0.81321c1.36221,0.41101 3.83708,1.58239 5.10828,2.41909c5.12589,3.36442 8.51086,8.93655 9.15673,15.08409c0.35817,3.39671 -0.18495,6.67892 -1.77322,10.69802c-0.30532,0.76918 -0.45505,1.33285 -0.45505,1.71157c0,2.21359 2.24294,3.6257 4.20405,2.64808c0.78679,-0.39046 1.17432,-0.87193 1.65872,-2.05799c2.32221,-5.67488 2.90056,-10.8272 1.82019,-16.17914c-1.13615,-5.63085 -4.37433,-11.1472 -8.66058,-14.75822c-3.88405,-3.26754 -8.54902,-5.39892 -13.37546,-6.10351c-1.18019,-0.17028 -4.97323,-0.31119 -5.90388,-0.21725M1451.27489,643.50386c-1.22129,0.37578 -2.15781,1.56184 -2.15781,2.73616c0,0.93945 0.22606,1.48551 0.8778,2.13432c0.47266,0.46973 0.75743,0.64294 1.42679,0.85432c1.96111,0.62239 3.43194,2.09028 4.06607,4.0602c0.47266,1.4679 1.52074,2.30753 2.87708,2.30753c1.29762,-0.00294 2.34863,-0.76918 2.77432,-2.02863c0.23486,-0.69578 0.2378,-0.91597 0.01174,-1.77615c-0.27596,-1.06276 -0.84844,-2.34276 -1.49138,-3.33506c-0.78679,-1.20955 -2.49542,-2.86827 -3.71084,-3.59341c-1.77909,-1.06276 -3.76368,-1.63817 -4.67378,-1.35927M1438.10787,654.47491c-0.12037,2.38386 0.59009,4.88809 1.97579,6.95195c2.25762,3.36442 6.26791,5.39011 10.25472,5.18167l1.10386,-0.05578l4.67084,4.67084l4.67084,4.67084l-0.69578,0.85138c-1.28881,1.57652 -2.66863,3.08845 -4.7413,5.19635c-2.30753,2.3457 -5.30497,5.12589 -5.52809,5.12589c-0.19376,0 -1.72625,-1.38863 -4.15121,-3.75781c-9.14499,-8.93948 -14.76116,-17.72043 -16.11162,-25.19496c-0.29358,-1.61175 -0.29358,-4.80589 -0.00587,-6.5703c0.23193,-1.40918 0.83376,-3.52589 1.30936,-4.59745l0.29945,-0.67817l3.50533,3.50533l3.50533,3.5024l-0.06165,1.1978" className="SFSymbolsPreviewWireframe"/></g>
  <g id="Ultralight-S"><path d="M529.36136,628.64876c-0.65175,0.2378 -1.23303,0.72808 -1.5912,1.33578c-0.26716,0.45798 -0.31707,0.67523 -0.31707,1.42092c0,0.74569 0.04697,0.96 0.31413,1.40918c0.17615,0.29064 2.24294,2.45139 4.59745,4.80002l4.28038,4.27158l-0.74569,1.54129c-2.49542,5.15525 -3.21763,10.57766 -2.15781,16.19382c1.5501,8.24077 7.39819,17.61768 16.89548,27.09735c3.1413,3.13836 5.54571,5.27562 6.4059,5.69543c1.74386,0.85432 3.54644,0.85432 5.2903,0c1.62349,-0.79266 8.54315,-7.57141 12.06023,-11.80775l0.4345,-0.52551l6.25911,6.24149c3.44075,3.43194 6.44113,6.33837 6.66718,6.4558c0.29064,0.15266 0.66936,0.21725 1.29175,0.21725c0.75743,0.00294 0.96,-0.04404 1.44441,-0.32881c1.39744,-0.82202 1.89946,-2.64221 1.09505,-3.98974c-0.16147,-0.27009 -13.65143,-13.84225 -29.9803,-30.15938c-27.45845,-27.4379 -29.73369,-29.68085 -30.26801,-29.85699c-0.69285,-0.22899 -1.37689,-0.23193 -1.97579,-0.01174M557.63303,628.54013c-2.59818,0.26129 -4.95855,0.78092 -6.95782,1.52661c-2.76845,1.03633 -3.71378,1.66753 -4.07488,2.72441c-0.37578,1.09799 -0.17028,2.09615 0.60184,2.95928c0.60184,0.66642 1.26533,0.96294 2.15193,0.96c0.51376,-0.00294 0.93065,-0.1233 2.0345,-0.60184c4.7002,-2.0257 9.55306,-2.29872 14.46464,-0.81321c1.36221,0.41101 3.83708,1.58239 5.10828,2.41909c5.12589,3.36442 8.51086,8.93655 9.15673,15.08409c0.35817,3.39671 -0.18495,6.67892 -1.77322,10.69802c-0.30532,0.76918 -0.45505,1.33285 -0.45505,1.71157c0,2.21359 2.24294,3.6257 4.20405,2.64808c0.78679,-0.39046 1.17432,-0.87193 1.65872,-2.05799c2.32221,-5.67488 2.90056,-10.8272 1.82019,-16.17914c-1.13615,-5.63085 -4.37433,-11.1472 -8.66058,-14.75822c-3.88405,-3.26754 -8.54902,-5.39892 -13.37546,-6.10351c-1.18019,-0.17028 -4.97323,-0.31119 -5.90388,-0.21725M561.1413,643.50386c-1.22129,0.37578 -2.15781,1.56184 -2.15781,2.73616c0,0.93945 0.22606,1.48551 0.8778,2.13432c0.47266,0.46973 0.75743,0.64294 1.42679,0.85432c1.96111,0.62239 3.43194,2.09028 4.06607,4.0602c0.47266,1.4679 1.52074,2.30753 2.87708,2.30753c1.29762,-0.00294 2.34863,-0.76918 2.77432,-2.02863c0.23486,-0.69578 0.2378,-0.91597 0.01174,-1.77615c-0.27596,-1.06276 -0.84844,-2.34276 -1.49138,-3.33506c-0.78679,-1.20955 -2.49542,-2.86827 -3.71084,-3.59341c-1.77909,-1.06276 -3.76368,-1.63817 -4.67378,-1.35927M547.97428,654.47491c-0.12037,2.38386 0.59009,4.88809 1.97579,6.95195c2.25762,3.36442 6.26791,5.39011 10.25472,5.18167l1.10386,-0.05578l4.67084,4.67084l4.67084,4.67084l-0.69578,0.85138c-1.28881,1.57652 -2.66863,3.08845 -4.7413,5.19635c-2.30753,2.3457 -5.30497,5.12589 -5.52809,5.12589c-0.19376,0 -1.72625,-1.38863 -4.15121,-3.75781c-9.14499,-8.93948 -14.76116,-17.72043 -16.11162,-25.19496c-0.29358,-1.61175 -0.29358,-4.80589 -0.00587,-6.5703c0.23193,-1.40918 0.83376,-3.52589 1.30936,-4.59745l0.29945,-0.67817l3.50533,3.50533l3.50533,3.5024l-0.06165,1.1978" className="SFSymbolsPreviewWireframe"/></g>
 </g>
</svg>