<?xml version="1.0" encoding="UTF-8"?><!--Generator: SymbolKit.app--><!DOCTYPE svg PUBLIC "-//W3C//DTD SVG 1.1//EN" "http://www.w3.org/Graphics/SVG/1.1/DTD/svg11.dtd"><svg xmlns="http://www.w3.org/2000/svg" xmlns:xlink="http://www.w3.org/1999/xlink" version="1.1" viewBox="0 0 3300 2200">
 <!--glyph: "100092", point size: 100.0, font version: "20.0d10e1", template writer version: "138.0.0"-->
 <style>.SFSymbolsPreviewWireframe {fill:none;opacity:1.0;stroke:black;stroke-width:0.5}
</style>
 <g id="Notes">
  <rect height="2200" id="artboard" style="fill:white;opacity:1" width="3300" x="0" y="0"/>
  <line style="fill:none;stroke:black;opacity:1;stroke-width:0.5;" x1="263" x2="3036" y1="292" y2="292"/>
  <text style="stroke:none;fill:black;font-family:sans-serif;font-size:13;font-weight:bold;" transform="matrix(1 0 0 1 263 322)">Weight/Scale Variations</text>
  <text style="stroke:none;fill:black;font-family:sans-serif;font-size:13;text-anchor:middle;" transform="matrix(1 0 0 1 559.711 322)">Ultralight</text>
  <text style="stroke:none;fill:black;font-family:sans-serif;font-size:13;text-anchor:middle;" transform="matrix(1 0 0 1 856.422 322)">Thin</text>
  <text style="stroke:none;fill:black;font-family:sans-serif;font-size:13;text-anchor:middle;" transform="matrix(1 0 0 1 1153.13 322)">Light</text>
  <text style="stroke:none;fill:black;font-family:sans-serif;font-size:13;text-anchor:middle;" transform="matrix(1 0 0 1 1449.84 322)">Regular</text>
  <text style="stroke:none;fill:black;font-family:sans-serif;font-size:13;text-anchor:middle;" transform="matrix(1 0 0 1 1746.56 322)">Medium</text>
  <text style="stroke:none;fill:black;font-family:sans-serif;font-size:13;text-anchor:middle;" transform="matrix(1 0 0 1 2043.27 322)">Semibold</text>
  <text style="stroke:none;fill:black;font-family:sans-serif;font-size:13;text-anchor:middle;" transform="matrix(1 0 0 1 2339.98 322)">Bold</text>
  <text style="stroke:none;fill:black;font-family:sans-serif;font-size:13;text-anchor:middle;" transform="matrix(1 0 0 1 2636.69 322)">Heavy</text>
  <text style="stroke:none;fill:black;font-family:sans-serif;font-size:13;text-anchor:middle;" transform="matrix(1 0 0 1 2933.4 322)">Black</text>
  <line style="fill:none;stroke:black;opacity:1;stroke-width:0.5;" x1="263" x2="3036" y1="1903" y2="1903"/>
  <g transform="matrix(0.2 0 0 0.2 263 1933)">
   <path d="m46.2402 4.15039c21.7773 0 39.4531-17.627 39.4531-39.4043s-17.6758-39.4043-39.4531-39.4043c-21.7285 0-39.4043 17.627-39.4043 39.4043s17.6758 39.4043 39.4043 39.4043Zm0-7.42188c-17.6758 0-31.9336-14.3066-31.9336-31.9824s14.2578-31.9824 31.9336-31.9824 31.9824 14.3066 31.9824 31.9824-14.3066 31.9824-31.9824 31.9824Zm-17.9688-31.9824c0 2.14844 1.51367 3.61328 3.75977 3.61328h10.498v10.5957c0 2.19727 1.46484 3.71094 3.61328 3.71094 2.24609 0 3.71094-1.51367 3.71094-3.71094v-10.5957h10.5957c2.19727 0 3.71094-1.46484 3.71094-3.61328 0-2.19727-1.51367-3.71094-3.71094-3.71094h-10.5957v-10.5469c0-2.24609-1.46484-3.75977-3.71094-3.75977-2.14844 0-3.61328 1.51367-3.61328 3.75977v10.5469h-10.498c-2.24609 0-3.75977 1.51367-3.75977 3.71094Z"/>
  </g>
  <g transform="matrix(0.2 0 0 0.2 281.506 1933)">
   <path d="m58.5449 14.5508c27.4902 0 49.8047-22.3145 49.8047-49.8047s-22.3145-49.8047-49.8047-49.8047-49.8047 22.3145-49.8047 49.8047 22.3145 49.8047 49.8047 49.8047Zm0-8.30078c-22.9492 0-41.5039-18.5547-41.5039-41.5039s18.5547-41.5039 41.5039-41.5039 41.5039 18.5547 41.5039 41.5039-18.5547 41.5039-41.5039 41.5039Zm-22.6562-41.5039c0 2.39258 1.66016 4.00391 4.15039 4.00391h14.3555v14.4043c0 2.44141 1.66016 4.15039 4.05273 4.15039 2.44141 0 4.15039-1.66016 4.15039-4.15039v-14.4043h14.4043c2.44141 0 4.15039-1.61133 4.15039-4.00391 0-2.44141-1.70898-4.15039-4.15039-4.15039h-14.4043v-14.3555c0-2.49023-1.70898-4.19922-4.15039-4.19922-2.39258 0-4.05273 1.70898-4.05273 4.19922v14.3555h-14.3555c-2.49023 0-4.15039 1.70898-4.15039 4.15039Z"/>
  </g>
  <g transform="matrix(0.2 0 0 0.2 304.924 1933)">
   <path d="m74.8535 28.3203c35.1074 0 63.623-28.4668 63.623-63.5742s-28.5156-63.623-63.623-63.623-63.5742 28.5156-63.5742 63.623 28.4668 63.5742 63.5742 63.5742Zm0-9.08203c-30.127 0-54.4922-24.3652-54.4922-54.4922s24.3652-54.4922 54.4922-54.4922 54.4922 24.3652 54.4922 54.4922-24.3652 54.4922-54.4922 54.4922Zm-28.8574-54.4922c0 2.58789 1.85547 4.39453 4.58984 4.39453h19.7266v19.7754c0 2.68555 1.85547 4.58984 4.44336 4.58984 2.68555 0 4.54102-1.85547 4.54102-4.58984v-19.7754h19.7754c2.68555 0 4.58984-1.80664 4.58984-4.39453 0-2.73438-1.85547-4.58984-4.58984-4.58984h-19.7754v-19.7266c0-2.73438-1.85547-4.63867-4.54102-4.63867-2.58789 0-4.44336 1.9043-4.44336 4.63867v19.7266h-19.7266c-2.73438 0-4.58984 1.85547-4.58984 4.58984Z"/>
  </g>
  <text style="stroke:none;fill:black;font-family:sans-serif;font-size:13;font-weight:bold;" transform="matrix(1 0 0 1 263 1953)">Design Variations</text>
  <text style="stroke:none;fill:black;font-family:sans-serif;font-size:13;" transform="matrix(1 0 0 1 263 1971)">Symbols are supported in up to nine weights and three scales.</text>
  <text style="stroke:none;fill:black;font-family:sans-serif;font-size:13;" transform="matrix(1 0 0 1 263 1989)">For optimal layout with text and other symbols, vertically align</text>
  <text style="stroke:none;fill:black;font-family:sans-serif;font-size:13;" transform="matrix(1 0 0 1 263 2007)">symbols with the adjacent text.</text>
  <line style="fill:none;stroke:#00AEEF;stroke-width:0.5;opacity:1.0;" x1="776" x2="776" y1="1919" y2="1933"/>
  <g transform="matrix(0.2 0 0 0.2 776 1933)">
   <path d="m16.5527 0.78125c2.58789 0 3.85742-0.976562 4.78516-3.71094l6.29883-17.2363h28.8086l6.29883 17.2363c0.927734 2.73438 2.19727 3.71094 4.73633 3.71094 2.58789 0 4.24805-1.5625 4.24805-4.00391 0-0.830078-0.146484-1.61133-0.537109-2.63672l-22.9004-60.9863c-1.12305-2.97852-3.125-4.49219-6.25-4.49219-3.02734 0-5.07812 1.46484-6.15234 4.44336l-22.9004 61.084c-0.390625 1.02539-0.537109 1.80664-0.537109 2.63672 0 2.44141 1.5625 3.95508 4.10156 3.95508Zm13.4766-28.3691 11.8652-32.8613h0.244141l11.8652 32.8613Z"/>
  </g>
  <line style="fill:none;stroke:#00AEEF;stroke-width:0.5;opacity:1.0;" x1="792.836" x2="792.836" y1="1919" y2="1933"/>
  <text style="stroke:none;fill:black;font-family:sans-serif;font-size:13;font-weight:bold;" transform="matrix(1 0 0 1 776 1953)">Margins</text>
  <text style="stroke:none;fill:black;font-family:sans-serif;font-size:13;" transform="matrix(1 0 0 1 776 1971)">Leading and trailing margins on the left and right side of each symbol</text>
  <text style="stroke:none;fill:black;font-family:sans-serif;font-size:13;" transform="matrix(1 0 0 1 776 1989)">can be adjusted by modifying the x-location of the margin guidelines.</text>
  <text style="stroke:none;fill:black;font-family:sans-serif;font-size:13;" transform="matrix(1 0 0 1 776 2007)">Modifications are automatically applied proportionally to all</text>
  <text style="stroke:none;fill:black;font-family:sans-serif;font-size:13;" transform="matrix(1 0 0 1 776 2025)">scales and weights.</text>
  <g transform="matrix(0.2 0 0 0.2 1289 1933)">
   <path d="m14.209 9.32617 8.49609 8.54492c4.29688 4.3457 9.22852 4.05273 13.8672-1.07422l53.4668-58.9355-4.83398-4.88281-53.0762 58.3984c-1.75781 2.00195-3.41797 2.49023-5.76172 0.146484l-5.85938-5.81055c-2.34375-2.29492-1.80664-4.00391 0.195312-5.81055l57.373-54.0039-4.88281-4.83398-57.959 54.4434c-4.93164 4.58984-5.32227 9.47266-1.02539 13.8184Zm32.0801-90.9668c-2.09961 2.05078-2.24609 4.93164-1.07422 6.88477 1.17188 1.80664 3.4668 2.97852 6.68945 2.14844 7.32422-1.70898 14.9414-2.00195 22.0703 2.68555l-2.92969 7.27539c-1.70898 4.15039-0.830078 7.08008 1.85547 9.81445l11.4746 11.5723c2.44141 2.44141 4.49219 2.53906 7.32422 2.05078l5.32227-0.976562 3.32031 3.36914-0.195312 2.7832c-0.195312 2.49023 0.439453 4.39453 2.88086 6.78711l3.80859 3.71094c2.39258 2.39258 5.46875 2.53906 7.8125 0.195312l14.5508-14.5996c2.34375-2.34375 2.24609-5.32227-0.146484-7.71484l-3.85742-3.80859c-2.39258-2.39258-4.24805-3.17383-6.64062-2.97852l-2.88086 0.244141-3.22266-3.17383 1.2207-5.61523c0.634766-2.83203-0.146484-5.0293-3.07617-7.95898l-10.9863-10.9375c-16.6992-16.6016-38.8672-16.2109-53.3203-1.75781Zm7.4707 1.85547c12.1582-8.88672 28.6133-7.37305 39.7461 3.75977l12.1582 12.0605c1.17188 1.17188 1.36719 2.09961 1.02539 3.80859l-1.61133 7.42188 7.51953 7.42188 4.93164-0.292969c1.26953-0.0488281 1.66016 0.0488281 2.63672 1.02539l2.88086 2.88086-12.207 12.207-2.88086-2.88086c-0.976562-0.976562-1.12305-1.36719-1.07422-2.68555l0.341797-4.88281-7.4707-7.42188-7.61719 1.26953c-1.61133 0.341797-2.34375 0.195312-3.56445-0.976562l-10.0098-10.0098c-1.26953-1.17188-1.41602-2.00195-0.634766-3.85742l4.39453-10.4492c-7.8125-7.27539-17.9688-10.4004-28.125-7.42188-0.78125 0.195312-1.07422-0.439453-0.439453-0.976562Z"/>
  </g>
  <text style="stroke:none;fill:black;font-family:sans-serif;font-size:13;font-weight:bold;" transform="matrix(1 0 0 1 1289 1953)">Exporting</text>
  <text style="stroke:none;fill:black;font-family:sans-serif;font-size:13;" transform="matrix(1 0 0 1 1289 1971)">Symbols should be outlined when exporting to ensure the</text>
  <text style="stroke:none;fill:black;font-family:sans-serif;font-size:13;" transform="matrix(1 0 0 1 1289 1989)">design is preserved when submitting to Xcode.</text>
  <text id="template-version" style="stroke:none;fill:black;font-family:sans-serif;font-size:13;text-anchor:end;" transform="matrix(1 0 0 1 3036 1933)">Template v.6.0</text>
  <text style="stroke:none;fill:black;font-family:sans-serif;font-size:13;text-anchor:end;" transform="matrix(1 0 0 1 3036 1951)">Requires Xcode 16 or greater</text>
  <text id="descriptive-name" style="stroke:none;fill:black;font-family:sans-serif;font-size:13;text-anchor:end;" transform="matrix(1 0 0 1 3036 1969)">Generated from square</text>
  <text style="stroke:none;fill:black;font-family:sans-serif;font-size:13;text-anchor:end;" transform="matrix(1 0 0 1 3036 1987)">Typeset at 100.0 points</text>
  <text style="stroke:none;fill:black;font-family:sans-serif;font-size:13;" transform="matrix(1 0 0 1 263 726)">Small</text>
  <text style="stroke:none;fill:black;font-family:sans-serif;font-size:13;" transform="matrix(1 0 0 1 263 1156)">Medium</text>
  <text style="stroke:none;fill:black;font-family:sans-serif;font-size:13;" transform="matrix(1 0 0 1 263 1586)">Large</text>
 </g>
 <g id="Guides">
  <g id="H-reference" style="fill:#27AAE1;stroke:none;" transform="matrix(1 0 0 1 339 696)">
   <path d="M0.993654 0L3.63775 0L29.3281-67.1323L30.0303-67.1323L30.0303-70.459L28.1226-70.459ZM11.6885-24.4799L46.9815-24.4799L46.2315-26.7285L12.4385-26.7285ZM55.1196 0L57.7637 0L30.6382-70.459L29.4326-70.459L29.4326-67.1323Z"/>
  </g>
  <line id="Baseline-S" style="fill:none;stroke:#27AAE1;opacity:1;stroke-width:0.5;" x1="263" x2="3036" y1="696" y2="696"/>
  <line id="Capline-S" style="fill:none;stroke:#27AAE1;opacity:1;stroke-width:0.5;" x1="263" x2="3036" y1="625.541" y2="625.541"/>
  <g id="H-reference" style="fill:#27AAE1;stroke:none;" transform="matrix(1 0 0 1 339 1126)">
   <path d="M0.993654 0L3.63775 0L29.3281-67.1323L30.0303-67.1323L30.0303-70.459L28.1226-70.459ZM11.6885-24.4799L46.9815-24.4799L46.2315-26.7285L12.4385-26.7285ZM55.1196 0L57.7637 0L30.6382-70.459L29.4326-70.459L29.4326-67.1323Z"/>
  </g>
  <line id="Baseline-M" style="fill:none;stroke:#27AAE1;opacity:1;stroke-width:0.5;" x1="263" x2="3036" y1="1126" y2="1126"/>
  <line id="Capline-M" style="fill:none;stroke:#27AAE1;opacity:1;stroke-width:0.5;" x1="263" x2="3036" y1="1055.54" y2="1055.54"/>
  <g id="H-reference" style="fill:#27AAE1;stroke:none;" transform="matrix(1 0 0 1 339 1556)">
   <path d="M0.993654 0L3.63775 0L29.3281-67.1323L30.0303-67.1323L30.0303-70.459L28.1226-70.459ZM11.6885-24.4799L46.9815-24.4799L46.2315-26.7285L12.4385-26.7285ZM55.1196 0L57.7637 0L30.6382-70.459L29.4326-70.459L29.4326-67.1323Z"/>
  </g>
  <line id="Baseline-L" style="fill:none;stroke:#27AAE1;opacity:1;stroke-width:0.5;" x1="263" x2="3036" y1="1556" y2="1556"/>
  <line id="Capline-L" style="fill:none;stroke:#27AAE1;opacity:1;stroke-width:0.5;" x1="263" x2="3036" y1="1485.54" y2="1485.54"/>
  <line id="right-margin-Black-S" style="fill:none;stroke:#00AEEF;stroke-width:0.5;opacity:1.0;" x1="2981.3" x2="2981.3" y1="600.785" y2="720.121"/>
  <line id="left-margin-Black-S" style="fill:none;stroke:#00AEEF;stroke-width:0.5;opacity:1.0;" x1="2885.5" x2="2885.5" y1="600.785" y2="720.121"/>
  <line id="right-margin-Regular-S" style="fill:none;stroke:#00AEEF;stroke-width:0.5;opacity:1.0;" x1="1495.18" x2="1495.18" y1="600.785" y2="720.121"/>
  <line id="left-margin-Regular-S" style="fill:none;stroke:#00AEEF;stroke-width:0.5;opacity:1.0;" x1="1404.51" x2="1404.51" y1="600.785" y2="720.121"/>
  <line id="right-margin-Ultralight-S" style="fill:none;stroke:#00AEEF;stroke-width:0.5;opacity:1.0;" x1="603.073" x2="603.073" y1="600.785" y2="720.121"/>
  <line id="left-margin-Ultralight-S" style="fill:none;stroke:#00AEEF;stroke-width:0.5;opacity:1.0;" x1="516.35" x2="516.35" y1="600.785" y2="720.121"/>
 </g>
 <g id="Symbols">
  <g id="Black-S"><path d="M2916.20191,631.13346c-0.80147,0.25541 -1.37395,0.60184 -2.64515,1.60881c-2.29579,1.81725 -4.94681,4.64442 -6.70535,7.15159c-3.20001,4.55635 -5.46644,10.70683 -5.69837,15.44226c-0.05284,1.1156 -0.02642,1.38863 0.18495,1.98753c0.66642,1.88478 2.19597,3.26166 4.19231,3.76662c0.62239,0.15853 1.81725,0.17908 8.86609,0.14973l8.14682,-0.03229l0.56367,-0.33174c0.64,-0.37578 1.20955,-1.09211 1.35927,-1.71157c0.05578,-0.23193 0.15853,-0.97762 0.22899,-1.65579c0.15266,-1.49138 0.45505,-2.50717 1.04514,-3.52295c0.58422,-1.00698 1.88184,-2.29579 2.93579,-2.91524c0.92477,-0.54312 1.34166,-1.0011 1.61469,-1.77615c0.22312,-0.62826 0.22899,-1.24771 0.01761,-1.84074c-0.09101,-0.24954 -1.40037,-2.62166 -2.9123,-5.26974c-1.51487,-2.64808 -3.24992,-5.71011 -3.86057,-6.80516c-1.51193,-2.71561 -2.5101,-3.68735 -4.33029,-4.22167c-0.76037,-0.22312 -2.33395,-0.23486 -3.00331,-0.02349M2948.00534,631.25677c-1.94643,0.44037 -2.5835,0.9923 -4.28919,3.72552c-1.83193,2.93286 -6.88443,11.41729 -7.15159,12.00739c-0.12037,0.26422 -0.22018,0.71046 -0.22018,0.9923c-0.00587,1.16551 0.52257,1.99927 1.79964,2.85359c1.42679,0.94826 2.51891,2.21359 3.24992,3.76368c0.40807,0.86019 0.65762,1.9523 0.81028,3.53469c0.12624,1.30349 0.42275,1.96111 1.12734,2.49542c0.8367,0.64 0.66055,0.62826 9.33288,0.62532c7.22205,-0.00294 8.12333,-0.02349 8.81618,-0.20257c2.09322,-0.54606 3.72552,-2.33102 4.11304,-4.4947c0.17908,-1.00991 0.04991,-2.43671 -0.43156,-4.77066c-1.20955,-5.8892 -4.08075,-11.41436 -8.14976,-15.70061c-1.94349,-2.04331 -4.94094,-4.34791 -6.10645,-4.69433c-0.89542,-0.26716 -2.07854,-0.32 -2.90056,-0.13505M2918.60926,638.63147c0.47853,0.85725 1.78496,3.16185 2.90056,5.12589c1.11854,1.96404 2.03157,3.59634 2.03157,3.62864c0,0.02936 -0.38459,0.45798 -0.85432,0.9512c-1.53835,1.60881 -2.67157,3.56111 -3.31451,5.70718c-0.17321,0.58129 -0.33468,1.12147 -0.3611,1.20367c-0.03229,0.1145 -1.34166,0.14679 -6.02718,0.14679h-5.98608l0.06165,-0.44037c0.4022,-2.80074 1.21542,-5.44589 2.44845,-7.95599c1.37395,-2.79487 2.84478,-4.92039 4.87048,-7.03416c1.13615,-1.18606 3.04148,-2.88882 3.23231,-2.88882c0.07046,0 0.51964,0.69872 0.99817,1.55597M2950.41562,638.00322c4.76772,3.80479 8.2437,9.876 9.18315,16.04116c0.06752,0.45211 0.14973,0.94239 0.17908,1.08624l0.05578,0.26422h-5.99489c-4.69433,0 -6.00663,-0.03229 -6.03892,-0.14679c-0.02642,-0.0822 -0.18789,-0.62239 -0.3611,-1.20367c-0.64881,-2.17249 -1.829,-4.22754 -3.3879,-5.89507l-0.85725,-0.91597l2.65102,-4.41543c3.09726,-5.15525 3.3879,-5.62498 3.48478,-5.62498c0.0411,0 0.52844,0.36404 1.08624,0.81028M2932.51023,655.55631c-0.67817,0.22018 -1.29175,0.71927 -1.66459,1.3534c-0.26716,0.45798 -0.31707,0.67523 -0.31707,1.42092c0,0.7545 0.04697,0.96 0.33174,1.44441c1.52074,2.58937 5.47525,1.54423 5.47525,-1.44441c0,-1.10679 -0.60477,-2.11083 -1.57065,-2.60698c-0.58129,-0.29945 -1.62056,-0.37578 -2.25469,-0.16734M2926.40966,665.89617c-0.79854,0.34642 -1.2389,0.92771 -3.20882,4.2246c-2.65689,4.45359 -5.63378,9.71453 -5.98608,10.58059c-0.93065,2.28405 0.00587,5.25507 2.06973,6.55856c1.78203,1.12441 6.32663,2.5512 9.85839,3.09432c1.77615,0.27303 6.74938,0.27303 8.52554,0c3.53176,-0.54312 8.07636,-1.96992 9.85839,-3.09432c2.06386,-1.30349 3.00038,-4.27451 2.06973,-6.55856c-0.35229,-0.86606 -3.32919,-6.127 -5.98608,-10.58059c-2.42496,-4.05726 -2.75377,-4.39194 -4.33323,-4.39194c-0.59597,0 -0.90422,0.08807 -1.85542,0.52257c-1.51193,0.69285 -2.49249,0.91597 -4.01616,0.91597c-1.52368,0 -2.50423,-0.22312 -4.01616,-0.91597c-0.97468,-0.44624 -1.25065,-0.52257 -1.87891,-0.5167c-0.40807,0 -0.90129,0.07339 -1.10092,0.16147M2930.68417,672.85399c1.98459,0.38752 5.28442,0.21431 6.93434,-0.36697l0.46973,-0.16734l1.22716,2.07854c0.6723,1.14202 1.89946,3.2646 2.72148,4.71782c0.82496,1.45322 1.60001,2.80955 1.72037,3.01506l0.22312,0.36991l-1.20661,0.47266c-5.08185,1.98753 -10.51013,2.3134 -15.83272,0.95413c-1.01872,-0.25835 -3.28515,-1.04221 -3.7813,-1.30349l-0.30239,-0.16147l0.43743,-0.76331c0.24367,-0.41982 1.01285,-1.76735 1.70863,-2.99451c0.69872,-1.22716 1.82019,-3.16478 2.49542,-4.30681l1.22422,-2.07854l0.46973,0.16734c0.26129,0.09101 0.93065,0.25541 1.49138,0.36697" className="SFSymbolsPreviewWireframe"/></g>
  <g id="Regular-S"><path d="M1432.64686,631.13346c-0.80147,0.25541 -1.37395,0.60184 -2.64515,1.60881c-2.29579,1.81725 -4.94681,4.64442 -6.70535,7.15159c-3.20001,4.55635 -5.46644,10.70683 -5.69837,15.44226c-0.05284,1.1156 -0.02642,1.38863 0.18495,1.98753c0.66642,1.88478 2.19597,3.26166 4.19231,3.76662c0.62239,0.15853 1.81725,0.17908 8.86609,0.14973l8.14682,-0.03229l0.56367,-0.33174c0.64,-0.37578 1.20955,-1.09211 1.35927,-1.71157c0.05578,-0.23193 0.15853,-0.97762 0.22899,-1.65579c0.15266,-1.49138 0.45505,-2.50717 1.04514,-3.52295c0.58422,-1.00698 1.88184,-2.29579 2.93579,-2.91524c0.92477,-0.54312 1.34166,-1.0011 1.61469,-1.77615c0.22312,-0.62826 0.22899,-1.24771 0.01761,-1.84074c-0.09101,-0.24954 -1.40037,-2.62166 -2.9123,-5.26974c-1.51487,-2.64808 -3.24992,-5.71011 -3.86057,-6.80516c-1.51193,-2.71561 -2.5101,-3.68735 -4.33029,-4.22167c-0.76037,-0.22312 -2.33395,-0.23486 -3.00331,-0.02349M1464.45029,631.25677c-1.94643,0.44037 -2.5835,0.9923 -4.28919,3.72552c-1.83193,2.93286 -6.88443,11.41729 -7.15159,12.00739c-0.12037,0.26422 -0.22018,0.71046 -0.22018,0.9923c-0.00587,1.16551 0.52257,1.99927 1.79964,2.85359c1.42679,0.94826 2.51891,2.21359 3.24992,3.76368c0.40807,0.86019 0.65762,1.9523 0.81028,3.53469c0.12624,1.30349 0.42275,1.96111 1.12734,2.49542c0.8367,0.64 0.66055,0.62826 9.33288,0.62532c7.22205,-0.00294 8.12333,-0.02349 8.81618,-0.20257c2.09322,-0.54606 3.72552,-2.33102 4.11304,-4.4947c0.17908,-1.00991 0.04991,-2.43671 -0.43156,-4.77066c-1.20955,-5.8892 -4.08075,-11.41436 -8.14976,-15.70061c-1.94349,-2.04331 -4.94094,-4.34791 -6.10645,-4.69433c-0.89542,-0.26716 -2.07854,-0.32 -2.90056,-0.13505M1435.05421,638.63147c0.47853,0.85725 1.78496,3.16185 2.90056,5.12589c1.11854,1.96404 2.03157,3.59634 2.03157,3.62864c0,0.02936 -0.38459,0.45798 -0.85432,0.9512c-1.53835,1.60881 -2.67157,3.56111 -3.31451,5.70718c-0.17321,0.58129 -0.33468,1.12147 -0.3611,1.20367c-0.03229,0.1145 -1.34166,0.14679 -6.02718,0.14679h-5.98608l0.06165,-0.44037c0.4022,-2.80074 1.21542,-5.44589 2.44845,-7.95599c1.37395,-2.79487 2.84478,-4.92039 4.87048,-7.03416c1.13615,-1.18606 3.04148,-2.88882 3.23231,-2.88882c0.07046,0 0.51964,0.69872 0.99817,1.55597M1466.86057,638.00322c4.76772,3.80479 8.2437,9.876 9.18315,16.04116c0.06752,0.45211 0.14973,0.94239 0.17908,1.08624l0.05578,0.26422h-5.99489c-4.69433,0 -6.00663,-0.03229 -6.03892,-0.14679c-0.02642,-0.0822 -0.18789,-0.62239 -0.3611,-1.20367c-0.64881,-2.17249 -1.829,-4.22754 -3.3879,-5.89507l-0.85725,-0.91597l2.65102,-4.41543c3.09726,-5.15525 3.3879,-5.62498 3.48478,-5.62498c0.0411,0 0.52844,0.36404 1.08624,0.81028M1448.95518,655.55631c-0.67817,0.22018 -1.29175,0.71927 -1.66459,1.3534c-0.26716,0.45798 -0.31707,0.67523 -0.31707,1.42092c0,0.7545 0.04697,0.96 0.33174,1.44441c1.52074,2.58937 5.47525,1.54423 5.47525,-1.44441c0,-1.10679 -0.60477,-2.11083 -1.57065,-2.60698c-0.58129,-0.29945 -1.62056,-0.37578 -2.25469,-0.16734M1442.85461,665.89617c-0.79854,0.34642 -1.2389,0.92771 -3.20882,4.2246c-2.65689,4.45359 -5.63378,9.71453 -5.98608,10.58059c-0.93065,2.28405 0.00587,5.25507 2.06973,6.55856c1.78203,1.12441 6.32663,2.5512 9.85839,3.09432c1.77615,0.27303 6.74938,0.27303 8.52554,0c3.53176,-0.54312 8.07636,-1.96992 9.85839,-3.09432c2.06386,-1.30349 3.00038,-4.27451 2.06973,-6.55856c-0.35229,-0.86606 -3.32919,-6.127 -5.98608,-10.58059c-2.42496,-4.05726 -2.75377,-4.39194 -4.33323,-4.39194c-0.59597,0 -0.90422,0.08807 -1.85542,0.52257c-1.51193,0.69285 -2.49249,0.91597 -4.01616,0.91597c-1.52368,0 -2.50423,-0.22312 -4.01616,-0.91597c-0.97468,-0.44624 -1.25065,-0.52257 -1.87891,-0.5167c-0.40807,0 -0.90129,0.07339 -1.10092,0.16147M1447.12912,672.85399c1.98459,0.38752 5.28442,0.21431 6.93434,-0.36697l0.46973,-0.16734l1.22716,2.07854c0.6723,1.14202 1.89946,3.2646 2.72148,4.71782c0.82496,1.45322 1.60001,2.80955 1.72037,3.01506l0.22312,0.36991l-1.20661,0.47266c-5.08185,1.98753 -10.51013,2.3134 -15.83272,0.95413c-1.01872,-0.25835 -3.28515,-1.04221 -3.7813,-1.30349l-0.30239,-0.16147l0.43743,-0.76331c0.24367,-0.41982 1.01285,-1.76735 1.70863,-2.99451c0.69872,-1.22716 1.82019,-3.16478 2.49542,-4.30681l1.22422,-2.07854l0.46973,0.16734c0.26129,0.09101 0.93065,0.25541 1.49138,0.36697" className="SFSymbolsPreviewWireframe"/></g>
  <g id="Ultralight-S"><path d="M542.51327,631.13346c-0.80147,0.25541 -1.37395,0.60184 -2.64515,1.60881c-2.29579,1.81725 -4.94681,4.64442 -6.70535,7.15159c-3.20001,4.55635 -5.46644,10.70683 -5.69837,15.44226c-0.05284,1.1156 -0.02642,1.38863 0.18495,1.98753c0.66642,1.88478 2.19597,3.26166 4.19231,3.76662c0.62239,0.15853 1.81725,0.17908 8.86609,0.14973l8.14682,-0.03229l0.56367,-0.33174c0.64,-0.37578 1.20955,-1.09211 1.35927,-1.71157c0.05578,-0.23193 0.15853,-0.97762 0.22899,-1.65579c0.15266,-1.49138 0.45505,-2.50717 1.04514,-3.52295c0.58422,-1.00698 1.88184,-2.29579 2.93579,-2.91524c0.92477,-0.54312 1.34166,-1.0011 1.61469,-1.77615c0.22312,-0.62826 0.22899,-1.24771 0.01761,-1.84074c-0.09101,-0.24954 -1.40037,-2.62166 -2.9123,-5.26974c-1.51487,-2.64808 -3.24992,-5.71011 -3.86057,-6.80516c-1.51193,-2.71561 -2.5101,-3.68735 -4.33029,-4.22167c-0.76037,-0.22312 -2.33395,-0.23486 -3.00331,-0.02349M574.3167,631.25677c-1.94643,0.44037 -2.5835,0.9923 -4.28919,3.72552c-1.83193,2.93286 -6.88443,11.41729 -7.15159,12.00739c-0.12037,0.26422 -0.22018,0.71046 -0.22018,0.9923c-0.00587,1.16551 0.52257,1.99927 1.79964,2.85359c1.42679,0.94826 2.51891,2.21359 3.24992,3.76368c0.40807,0.86019 0.65762,1.9523 0.81028,3.53469c0.12624,1.30349 0.42275,1.96111 1.12734,2.49542c0.8367,0.64 0.66055,0.62826 9.33288,0.62532c7.22205,-0.00294 8.12333,-0.02349 8.81618,-0.20257c2.09322,-0.54606 3.72552,-2.33102 4.11304,-4.4947c0.17908,-1.00991 0.04991,-2.43671 -0.43156,-4.77066c-1.20955,-5.8892 -4.08075,-11.41436 -8.14976,-15.70061c-1.94349,-2.04331 -4.94094,-4.34791 -6.10645,-4.69433c-0.89542,-0.26716 -2.07854,-0.32 -2.90056,-0.13505M544.92062,638.63147c0.47853,0.85725 1.78496,3.16185 2.90056,5.12589c1.11854,1.96404 2.03157,3.59634 2.03157,3.62864c0,0.02936 -0.38459,0.45798 -0.85432,0.9512c-1.53835,1.60881 -2.67157,3.56111 -3.31451,5.70718c-0.17321,0.58129 -0.33468,1.12147 -0.3611,1.20367c-0.03229,0.1145 -1.34166,0.14679 -6.02718,0.14679h-5.98608l0.06165,-0.44037c0.4022,-2.80074 1.21542,-5.44589 2.44845,-7.95599c1.37395,-2.79487 2.84478,-4.92039 4.87048,-7.03416c1.13615,-1.18606 3.04148,-2.88882 3.23231,-2.88882c0.07046,0 0.51964,0.69872 0.99817,1.55597M576.72698,638.00322c4.76772,3.80479 8.2437,9.876 9.18315,16.04116c0.06752,0.45211 0.14973,0.94239 0.17908,1.08624l0.05578,0.26422h-5.99489c-4.69433,0 -6.00663,-0.03229 -6.03892,-0.14679c-0.02642,-0.0822 -0.18789,-0.62239 -0.3611,-1.20367c-0.64881,-2.17249 -1.829,-4.22754 -3.3879,-5.89507l-0.85725,-0.91597l2.65102,-4.41543c3.09726,-5.15525 3.3879,-5.62498 3.48478,-5.62498c0.0411,0 0.52844,0.36404 1.08624,0.81028M558.82159,655.55631c-0.67817,0.22018 -1.29175,0.71927 -1.66459,1.3534c-0.26716,0.45798 -0.31707,0.67523 -0.31707,1.42092c0,0.7545 0.04697,0.96 0.33174,1.44441c1.52074,2.58937 5.47525,1.54423 5.47525,-1.44441c0,-1.10679 -0.60477,-2.11083 -1.57065,-2.60698c-0.58129,-0.29945 -1.62056,-0.37578 -2.25469,-0.16734M552.72102,665.89617c-0.79854,0.34642 -1.2389,0.92771 -3.20882,4.2246c-2.65689,4.45359 -5.63378,9.71453 -5.98608,10.58059c-0.93065,2.28405 0.00587,5.25507 2.06973,6.55856c1.78203,1.12441 6.32663,2.5512 9.85839,3.09432c1.77615,0.27303 6.74938,0.27303 8.52554,0c3.53176,-0.54312 8.07636,-1.96992 9.85839,-3.09432c2.06386,-1.30349 3.00038,-4.27451 2.06973,-6.55856c-0.35229,-0.86606 -3.32919,-6.127 -5.98608,-10.58059c-2.42496,-4.05726 -2.75377,-4.39194 -4.33323,-4.39194c-0.59597,0 -0.90422,0.08807 -1.85542,0.52257c-1.51193,0.69285 -2.49249,0.91597 -4.01616,0.91597c-1.52368,0 -2.50423,-0.22312 -4.01616,-0.91597c-0.97468,-0.44624 -1.25065,-0.52257 -1.87891,-0.5167c-0.40807,0 -0.90129,0.07339 -1.10092,0.16147M556.99553,672.85399c1.98459,0.38752 5.28442,0.21431 6.93434,-0.36697l0.46973,-0.16734l1.22716,2.07854c0.6723,1.14202 1.89946,3.2646 2.72148,4.71782c0.82496,1.45322 1.60001,2.80955 1.72037,3.01506l0.22312,0.36991l-1.20661,0.47266c-5.08185,1.98753 -10.51013,2.3134 -15.83272,0.95413c-1.01872,-0.25835 -3.28515,-1.04221 -3.7813,-1.30349l-0.30239,-0.16147l0.43743,-0.76331c0.24367,-0.41982 1.01285,-1.76735 1.70863,-2.99451c0.69872,-1.22716 1.82019,-3.16478 2.49542,-4.30681l1.22422,-2.07854l0.46973,0.16734c0.26129,0.09101 0.93065,0.25541 1.49138,0.36697" className="SFSymbolsPreviewWireframe"/></g>
 </g>
</svg>