<?xml version="1.0" encoding="UTF-8"?><!--Generator: SymbolKit.app--><!DOCTYPE svg PUBLIC "-//W3C//DTD SVG 1.1//EN" "http://www.w3.org/Graphics/SVG/1.1/DTD/svg11.dtd"><svg xmlns="http://www.w3.org/2000/svg" xmlns:xlink="http://www.w3.org/1999/xlink" version="1.1" viewBox="0 0 3300 2200">
 <!--glyph: "100092", point size: 100.0, font version: "20.0d10e1", template writer version: "138.0.0"-->
 <style>.SFSymbolsPreviewWireframe {fill:none;opacity:1.0;stroke:black;stroke-width:0.5}
</style>
 <g id="Notes">
  <rect height="2200" id="artboard" style="fill:white;opacity:1" width="3300" x="0" y="0"/>
  <line style="fill:none;stroke:black;opacity:1;stroke-width:0.5;" x1="263" x2="3036" y1="292" y2="292"/>
  <text style="stroke:none;fill:black;font-family:sans-serif;font-size:13;font-weight:bold;" transform="matrix(1 0 0 1 263 322)">Weight/Scale Variations</text>
  <text style="stroke:none;fill:black;font-family:sans-serif;font-size:13;text-anchor:middle;" transform="matrix(1 0 0 1 559.711 322)">Ultralight</text>
  <text style="stroke:none;fill:black;font-family:sans-serif;font-size:13;text-anchor:middle;" transform="matrix(1 0 0 1 856.422 322)">Thin</text>
  <text style="stroke:none;fill:black;font-family:sans-serif;font-size:13;text-anchor:middle;" transform="matrix(1 0 0 1 1153.13 322)">Light</text>
  <text style="stroke:none;fill:black;font-family:sans-serif;font-size:13;text-anchor:middle;" transform="matrix(1 0 0 1 1449.84 322)">Regular</text>
  <text style="stroke:none;fill:black;font-family:sans-serif;font-size:13;text-anchor:middle;" transform="matrix(1 0 0 1 1746.56 322)">Medium</text>
  <text style="stroke:none;fill:black;font-family:sans-serif;font-size:13;text-anchor:middle;" transform="matrix(1 0 0 1 2043.27 322)">Semibold</text>
  <text style="stroke:none;fill:black;font-family:sans-serif;font-size:13;text-anchor:middle;" transform="matrix(1 0 0 1 2339.98 322)">Bold</text>
  <text style="stroke:none;fill:black;font-family:sans-serif;font-size:13;text-anchor:middle;" transform="matrix(1 0 0 1 2636.69 322)">Heavy</text>
  <text style="stroke:none;fill:black;font-family:sans-serif;font-size:13;text-anchor:middle;" transform="matrix(1 0 0 1 2933.4 322)">Black</text>
  <line style="fill:none;stroke:black;opacity:1;stroke-width:0.5;" x1="263" x2="3036" y1="1903" y2="1903"/>
  <g transform="matrix(0.2 0 0 0.2 263 1933)">
   <path d="m46.2402 4.15039c21.7773 0 39.4531-17.627 39.4531-39.4043s-17.6758-39.4043-39.4531-39.4043c-21.7285 0-39.4043 17.627-39.4043 39.4043s17.6758 39.4043 39.4043 39.4043Zm0-7.42188c-17.6758 0-31.9336-14.3066-31.9336-31.9824s14.2578-31.9824 31.9336-31.9824 31.9824 14.3066 31.9824 31.9824-14.3066 31.9824-31.9824 31.9824Zm-17.9688-31.9824c0 2.14844 1.51367 3.61328 3.75977 3.61328h10.498v10.5957c0 2.19727 1.46484 3.71094 3.61328 3.71094 2.24609 0 3.71094-1.51367 3.71094-3.71094v-10.5957h10.5957c2.19727 0 3.71094-1.46484 3.71094-3.61328 0-2.19727-1.51367-3.71094-3.71094-3.71094h-10.5957v-10.5469c0-2.24609-1.46484-3.75977-3.71094-3.75977-2.14844 0-3.61328 1.51367-3.61328 3.75977v10.5469h-10.498c-2.24609 0-3.75977 1.51367-3.75977 3.71094Z"/>
  </g>
  <g transform="matrix(0.2 0 0 0.2 281.506 1933)">
   <path d="m58.5449 14.5508c27.4902 0 49.8047-22.3145 49.8047-49.8047s-22.3145-49.8047-49.8047-49.8047-49.8047 22.3145-49.8047 49.8047 22.3145 49.8047 49.8047 49.8047Zm0-8.30078c-22.9492 0-41.5039-18.5547-41.5039-41.5039s18.5547-41.5039 41.5039-41.5039 41.5039 18.5547 41.5039 41.5039-18.5547 41.5039-41.5039 41.5039Zm-22.6562-41.5039c0 2.39258 1.66016 4.00391 4.15039 4.00391h14.3555v14.4043c0 2.44141 1.66016 4.15039 4.05273 4.15039 2.44141 0 4.15039-1.66016 4.15039-4.15039v-14.4043h14.4043c2.44141 0 4.15039-1.61133 4.15039-4.00391 0-2.44141-1.70898-4.15039-4.15039-4.15039h-14.4043v-14.3555c0-2.49023-1.70898-4.19922-4.15039-4.19922-2.39258 0-4.05273 1.70898-4.05273 4.19922v14.3555h-14.3555c-2.49023 0-4.15039 1.70898-4.15039 4.15039Z"/>
  </g>
  <g transform="matrix(0.2 0 0 0.2 304.924 1933)">
   <path d="m74.8535 28.3203c35.1074 0 63.623-28.4668 63.623-63.5742s-28.5156-63.623-63.623-63.623-63.5742 28.5156-63.5742 63.623 28.4668 63.5742 63.5742 63.5742Zm0-9.08203c-30.127 0-54.4922-24.3652-54.4922-54.4922s24.3652-54.4922 54.4922-54.4922 54.4922 24.3652 54.4922 54.4922-24.3652 54.4922-54.4922 54.4922Zm-28.8574-54.4922c0 2.58789 1.85547 4.39453 4.58984 4.39453h19.7266v19.7754c0 2.68555 1.85547 4.58984 4.44336 4.58984 2.68555 0 4.54102-1.85547 4.54102-4.58984v-19.7754h19.7754c2.68555 0 4.58984-1.80664 4.58984-4.39453 0-2.73438-1.85547-4.58984-4.58984-4.58984h-19.7754v-19.7266c0-2.73438-1.85547-4.63867-4.54102-4.63867-2.58789 0-4.44336 1.9043-4.44336 4.63867v19.7266h-19.7266c-2.73438 0-4.58984 1.85547-4.58984 4.58984Z"/>
  </g>
  <text style="stroke:none;fill:black;font-family:sans-serif;font-size:13;font-weight:bold;" transform="matrix(1 0 0 1 263 1953)">Design Variations</text>
  <text style="stroke:none;fill:black;font-family:sans-serif;font-size:13;" transform="matrix(1 0 0 1 263 1971)">Symbols are supported in up to nine weights and three scales.</text>
  <text style="stroke:none;fill:black;font-family:sans-serif;font-size:13;" transform="matrix(1 0 0 1 263 1989)">For optimal layout with text and other symbols, vertically align</text>
  <text style="stroke:none;fill:black;font-family:sans-serif;font-size:13;" transform="matrix(1 0 0 1 263 2007)">symbols with the adjacent text.</text>
  <line style="fill:none;stroke:#00AEEF;stroke-width:0.5;opacity:1.0;" x1="776" x2="776" y1="1919" y2="1933"/>
  <g transform="matrix(0.2 0 0 0.2 776 1933)">
   <path d="m16.5527 0.78125c2.58789 0 3.85742-0.976562 4.78516-3.71094l6.29883-17.2363h28.8086l6.29883 17.2363c0.927734 2.73438 2.19727 3.71094 4.73633 3.71094 2.58789 0 4.24805-1.5625 4.24805-4.00391 0-0.830078-0.146484-1.61133-0.537109-2.63672l-22.9004-60.9863c-1.12305-2.97852-3.125-4.49219-6.25-4.49219-3.02734 0-5.07812 1.46484-6.15234 4.44336l-22.9004 61.084c-0.390625 1.02539-0.537109 1.80664-0.537109 2.63672 0 2.44141 1.5625 3.95508 4.10156 3.95508Zm13.4766-28.3691 11.8652-32.8613h0.244141l11.8652 32.8613Z"/>
  </g>
  <line style="fill:none;stroke:#00AEEF;stroke-width:0.5;opacity:1.0;" x1="792.836" x2="792.836" y1="1919" y2="1933"/>
  <text style="stroke:none;fill:black;font-family:sans-serif;font-size:13;font-weight:bold;" transform="matrix(1 0 0 1 776 1953)">Margins</text>
  <text style="stroke:none;fill:black;font-family:sans-serif;font-size:13;" transform="matrix(1 0 0 1 776 1971)">Leading and trailing margins on the left and right side of each symbol</text>
  <text style="stroke:none;fill:black;font-family:sans-serif;font-size:13;" transform="matrix(1 0 0 1 776 1989)">can be adjusted by modifying the x-location of the margin guidelines.</text>
  <text style="stroke:none;fill:black;font-family:sans-serif;font-size:13;" transform="matrix(1 0 0 1 776 2007)">Modifications are automatically applied proportionally to all</text>
  <text style="stroke:none;fill:black;font-family:sans-serif;font-size:13;" transform="matrix(1 0 0 1 776 2025)">scales and weights.</text>
  <g transform="matrix(0.2 0 0 0.2 1289 1933)">
   <path d="m14.209 9.32617 8.49609 8.54492c4.29688 4.3457 9.22852 4.05273 13.8672-1.07422l53.4668-58.9355-4.83398-4.88281-53.0762 58.3984c-1.75781 2.00195-3.41797 2.49023-5.76172 0.146484l-5.85938-5.81055c-2.34375-2.29492-1.80664-4.00391 0.195312-5.81055l57.373-54.0039-4.88281-4.83398-57.959 54.4434c-4.93164 4.58984-5.32227 9.47266-1.02539 13.8184Zm32.0801-90.9668c-2.09961 2.05078-2.24609 4.93164-1.07422 6.88477 1.17188 1.80664 3.4668 2.97852 6.68945 2.14844 7.32422-1.70898 14.9414-2.00195 22.0703 2.68555l-2.92969 7.27539c-1.70898 4.15039-0.830078 7.08008 1.85547 9.81445l11.4746 11.5723c2.44141 2.44141 4.49219 2.53906 7.32422 2.05078l5.32227-0.976562 3.32031 3.36914-0.195312 2.7832c-0.195312 2.49023 0.439453 4.39453 2.88086 6.78711l3.80859 3.71094c2.39258 2.39258 5.46875 2.53906 7.8125 0.195312l14.5508-14.5996c2.34375-2.34375 2.24609-5.32227-0.146484-7.71484l-3.85742-3.80859c-2.39258-2.39258-4.24805-3.17383-6.64062-2.97852l-2.88086 0.244141-3.22266-3.17383 1.2207-5.61523c0.634766-2.83203-0.146484-5.0293-3.07617-7.95898l-10.9863-10.9375c-16.6992-16.6016-38.8672-16.2109-53.3203-1.75781Zm7.4707 1.85547c12.1582-8.88672 28.6133-7.37305 39.7461 3.75977l12.1582 12.0605c1.17188 1.17188 1.36719 2.09961 1.02539 3.80859l-1.61133 7.42188 7.51953 7.42188 4.93164-0.292969c1.26953-0.0488281 1.66016 0.0488281 2.63672 1.02539l2.88086 2.88086-12.207 12.207-2.88086-2.88086c-0.976562-0.976562-1.12305-1.36719-1.07422-2.68555l0.341797-4.88281-7.4707-7.42188-7.61719 1.26953c-1.61133 0.341797-2.34375 0.195312-3.56445-0.976562l-10.0098-10.0098c-1.26953-1.17188-1.41602-2.00195-0.634766-3.85742l4.39453-10.4492c-7.8125-7.27539-17.9688-10.4004-28.125-7.42188-0.78125 0.195312-1.07422-0.439453-0.439453-0.976562Z"/>
  </g>
  <text style="stroke:none;fill:black;font-family:sans-serif;font-size:13;font-weight:bold;" transform="matrix(1 0 0 1 1289 1953)">Exporting</text>
  <text style="stroke:none;fill:black;font-family:sans-serif;font-size:13;" transform="matrix(1 0 0 1 1289 1971)">Symbols should be outlined when exporting to ensure the</text>
  <text style="stroke:none;fill:black;font-family:sans-serif;font-size:13;" transform="matrix(1 0 0 1 1289 1989)">design is preserved when submitting to Xcode.</text>
  <text id="template-version" style="stroke:none;fill:black;font-family:sans-serif;font-size:13;text-anchor:end;" transform="matrix(1 0 0 1 3036 1933)">Template v.6.0</text>
  <text style="stroke:none;fill:black;font-family:sans-serif;font-size:13;text-anchor:end;" transform="matrix(1 0 0 1 3036 1951)">Requires Xcode 16 or greater</text>
  <text id="descriptive-name" style="stroke:none;fill:black;font-family:sans-serif;font-size:13;text-anchor:end;" transform="matrix(1 0 0 1 3036 1969)">Generated from square</text>
  <text style="stroke:none;fill:black;font-family:sans-serif;font-size:13;text-anchor:end;" transform="matrix(1 0 0 1 3036 1987)">Typeset at 100.0 points</text>
  <text style="stroke:none;fill:black;font-family:sans-serif;font-size:13;" transform="matrix(1 0 0 1 263 726)">Small</text>
  <text style="stroke:none;fill:black;font-family:sans-serif;font-size:13;" transform="matrix(1 0 0 1 263 1156)">Medium</text>
  <text style="stroke:none;fill:black;font-family:sans-serif;font-size:13;" transform="matrix(1 0 0 1 263 1586)">Large</text>
 </g>
 <g id="Guides">
  <g id="H-reference" style="fill:#27AAE1;stroke:none;" transform="matrix(1 0 0 1 339 696)">
   <path d="M0.993654 0L3.63775 0L29.3281-67.1323L30.0303-67.1323L30.0303-70.459L28.1226-70.459ZM11.6885-24.4799L46.9815-24.4799L46.2315-26.7285L12.4385-26.7285ZM55.1196 0L57.7637 0L30.6382-70.459L29.4326-70.459L29.4326-67.1323Z"/>
  </g>
  <line id="Baseline-S" style="fill:none;stroke:#27AAE1;opacity:1;stroke-width:0.5;" x1="263" x2="3036" y1="696" y2="696"/>
  <line id="Capline-S" style="fill:none;stroke:#27AAE1;opacity:1;stroke-width:0.5;" x1="263" x2="3036" y1="625.541" y2="625.541"/>
  <g id="H-reference" style="fill:#27AAE1;stroke:none;" transform="matrix(1 0 0 1 339 1126)">
   <path d="M0.993654 0L3.63775 0L29.3281-67.1323L30.0303-67.1323L30.0303-70.459L28.1226-70.459ZM11.6885-24.4799L46.9815-24.4799L46.2315-26.7285L12.4385-26.7285ZM55.1196 0L57.7637 0L30.6382-70.459L29.4326-70.459L29.4326-67.1323Z"/>
  </g>
  <line id="Baseline-M" style="fill:none;stroke:#27AAE1;opacity:1;stroke-width:0.5;" x1="263" x2="3036" y1="1126" y2="1126"/>
  <line id="Capline-M" style="fill:none;stroke:#27AAE1;opacity:1;stroke-width:0.5;" x1="263" x2="3036" y1="1055.54" y2="1055.54"/>
  <g id="H-reference" style="fill:#27AAE1;stroke:none;" transform="matrix(1 0 0 1 339 1556)">
   <path d="M0.993654 0L3.63775 0L29.3281-67.1323L30.0303-67.1323L30.0303-70.459L28.1226-70.459ZM11.6885-24.4799L46.9815-24.4799L46.2315-26.7285L12.4385-26.7285ZM55.1196 0L57.7637 0L30.6382-70.459L29.4326-70.459L29.4326-67.1323Z"/>
  </g>
  <line id="Baseline-L" style="fill:none;stroke:#27AAE1;opacity:1;stroke-width:0.5;" x1="263" x2="3036" y1="1556" y2="1556"/>
  <line id="Capline-L" style="fill:none;stroke:#27AAE1;opacity:1;stroke-width:0.5;" x1="263" x2="3036" y1="1485.54" y2="1485.54"/>
  <line id="right-margin-Black-S" style="fill:none;stroke:#00AEEF;stroke-width:0.5;opacity:1.0;" x1="2981.3" x2="2981.3" y1="600.785" y2="720.121"/>
  <line id="left-margin-Black-S" style="fill:none;stroke:#00AEEF;stroke-width:0.5;opacity:1.0;" x1="2885.5" x2="2885.5" y1="600.785" y2="720.121"/>
  <line id="right-margin-Regular-S" style="fill:none;stroke:#00AEEF;stroke-width:0.5;opacity:1.0;" x1="1495.18" x2="1495.18" y1="600.785" y2="720.121"/>
  <line id="left-margin-Regular-S" style="fill:none;stroke:#00AEEF;stroke-width:0.5;opacity:1.0;" x1="1404.51" x2="1404.51" y1="600.785" y2="720.121"/>
  <line id="right-margin-Ultralight-S" style="fill:none;stroke:#00AEEF;stroke-width:0.5;opacity:1.0;" x1="603.073" x2="603.073" y1="600.785" y2="720.121"/>
  <line id="left-margin-Ultralight-S" style="fill:none;stroke:#00AEEF;stroke-width:0.5;opacity:1.0;" x1="516.35" x2="516.35" y1="600.785" y2="720.121"/>
 </g>
 <g id="Symbols">
  <g id="Black-S"><path d="M2908.92459,628.645c-0.67817,0.25835 -1.1978,0.70165 -1.56478,1.32404l-0.32587,0.55486l-0.02936,29.98911c-0.02055,19.81072 0.00881,30.13589 0.08807,30.4236c0.17321,0.64587 0.73688,1.3534 1.37395,1.72918c0.4756,0.2789 0.69285,0.33174 1.40037,0.33174c0.83083,0 0.86606,-0.01468 3.37616,-1.25945l2.53946,-1.25945l2.53652,1.25945c2.47487,1.22716 2.56001,1.25945 3.33506,1.25945c0.77505,0 0.86019,-0.03229 3.33506,-1.25945l2.53652,-1.25945l2.53652,1.25945c2.47487,1.22716 2.56001,1.25945 3.33506,1.25945c0.77505,0 0.86019,-0.03229 3.33506,-1.25945l2.53652,-1.25945l2.53652,1.25945c2.47487,1.22716 2.56001,1.25945 3.33506,1.25945c0.77505,0 0.86019,-0.03229 3.33506,-1.25945l2.53652,-1.25945l2.5101,1.24478c2.80955,1.3945 3.23818,1.509 4.30681,1.15377c0.80147,-0.26422 1.54129,-0.9923 1.79964,-1.77322c0.17615,-0.53138 0.19083,-3.02974 0.16147,-30.5792l-0.02936,-30.00085l-0.32,-0.54606c-0.60477,-1.03046 -1.829,-1.62643 -2.97983,-1.45615c-0.31413,0.04991 -1.53248,0.57835 -2.98864,1.30349l-2.46019,1.22129l-2.53652,-1.25945c-2.47487,-1.22716 -2.56001,-1.25945 -3.33506,-1.25945c-0.77505,0 -0.86019,0.03229 -3.33506,1.25945l-2.53652,1.25945l-2.53652,-1.25945c-2.47487,-1.22716 -2.56001,-1.25945 -3.33506,-1.25945c-0.77505,0 -0.86019,0.03229 -3.33506,1.25945l-2.53652,1.25945l-2.53652,-1.25945c-2.47487,-1.22716 -2.56001,-1.25945 -3.33506,-1.25945c-0.77505,0 -0.86019,0.03229 -3.33506,1.25945l-2.53652,1.25945l-2.49542,-1.2389c-2.15781,-1.07156 -2.5923,-1.24478 -3.20001,-1.28881c-0.45211,-0.02936 -0.86899,0.01468 -1.16257,0.12624M2924.18776,635.95512c2.47781,1.2301 2.56295,1.26239 3.33799,1.26239c0.77505,0 0.86019,-0.03229 3.33506,-1.25945l2.53652,-1.25945l2.53652,1.25945c2.47487,1.22716 2.56001,1.25945 3.33506,1.25945c0.77505,0 0.86019,-0.03229 3.33506,-1.25945l2.53652,-1.25945l2.53652,1.25945c2.46019,1.22129 2.56295,1.25945 3.31744,1.25945c0.67817,0 0.9189,-0.06752 1.82019,-0.49908c0.56954,-0.27596 1.05982,-0.49908 1.08624,-0.49908c0.02642,0 0.04697,11.04445 0.04697,24.54321c0,13.49877 -0.02055,24.54321 -0.04697,24.54321c-0.02642,0 -0.5167,-0.22312 -1.08624,-0.49908c-0.90129,-0.43156 -1.14202,-0.49908 -1.82019,-0.49908c-0.7545,0 -0.85725,0.03817 -3.31744,1.25945l-2.53652,1.25945l-2.53652,-1.25945c-2.47487,-1.22716 -2.56001,-1.25945 -3.33506,-1.25945c-0.77505,0 -0.86019,0.03229 -3.33506,1.25945l-2.53652,1.25945l-2.53652,-1.25945c-2.47487,-1.22716 -2.56001,-1.25945 -3.33506,-1.25945c-0.77505,0 -0.86019,0.03229 -3.33506,1.25945l-2.53652,1.25945l-2.53652,-1.25945c-2.46019,-1.22129 -2.56295,-1.25945 -3.31744,-1.25945c-0.67817,0 -0.9189,0.06752 -1.82019,0.49908c-0.56954,0.27596 -1.05982,0.49908 -1.08624,0.49908c-0.02642,0 -0.04697,-11.04445 -0.04697,-24.54321c0,-13.49877 0.02055,-24.54321 0.04697,-24.54321c0.02642,0 0.5167,0.22312 1.08624,0.49908c0.90129,0.43156 1.14202,0.49908 1.82019,0.49908c0.7545,0 0.85432,-0.03817 3.28809,-1.25358c1.37982,-0.68991 2.51891,-1.25945 2.53065,-1.26239c0.01468,-0.00587 1.16844,0.56074 2.56882,1.25358M2932.22302,641.92652c-0.59009,0.25541 -1.15964,0.8367 -1.48257,1.51487c-0.22312,0.4756 -0.27596,0.78092 -0.2789,1.60001v1.01578l-2.26056,0.05578c-1.94643,0.04991 -2.38973,0.09688 -3.20295,0.34055c-2.81249,0.84844 -5.04956,3.09432 -5.94498,5.9714c-0.39633,1.27413 -0.39633,3.658 0,4.93213c0.89248,2.86827 3.08552,5.07892 5.94791,5.99489c0.70165,0.22312 1.16257,0.27009 3.1413,0.31707l2.31927,0.05578v2.92405v2.92111h-4.56222c-4.95562,0 -5.24919,0.03229 -6.05947,0.64881c-0.23486,0.17908 -0.57248,0.56954 -0.74569,0.86606c-0.26716,0.45798 -0.31707,0.67523 -0.31707,1.42092c0,0.75156 0.04697,0.96294 0.32587,1.4356c0.17908,0.30239 0.50789,0.69285 0.73395,0.86312c0.80147,0.61064 0.93652,0.62532 5.95672,0.6312l4.66791,0.00587v1.02753c0.00294,0.8367 0.05284,1.13615 0.2789,1.61469c0.53138,1.11854 1.4679,1.72625 2.65689,1.72625c1.189,0 2.12551,-0.60771 2.65689,-1.72625c0.22312,-0.4756 0.27596,-0.78092 0.2789,-1.60001v-1.01578l2.31927,-0.05578c1.97872,-0.04697 2.43964,-0.09395 3.1413,-0.31707c2.8624,-0.91597 5.05543,-3.12662 5.94791,-5.99489c0.39633,-1.27413 0.39633,-3.658 0,-4.93213c-0.89542,-2.87708 -3.13249,-5.12296 -5.94498,-5.9714c-0.81321,-0.24367 -1.25652,-0.29064 -3.20295,-0.34055l-2.26056,-0.05578v-2.92405v-2.92111l4.66791,-0.00587c5.0202,-0.00587 5.15525,-0.02055 5.95672,-0.6312c0.22606,-0.17028 0.55486,-0.56074 0.73395,-0.86312c0.2789,-0.47266 0.32587,-0.68404 0.32587,-1.4356c0,-0.74569 -0.04991,-0.96294 -0.31707,-1.42092c-0.17321,-0.29651 -0.51083,-0.68698 -0.74569,-0.86606c-0.81028,-0.61652 -1.10386,-0.64881 -6.05947,-0.64881h-4.56222v-1.02753c-0.00294,-0.8367 -0.05284,-1.13615 -0.2789,-1.61469c-0.32881,-0.68991 -0.89835,-1.26533 -1.509,-1.52074c-0.55193,-0.23193 -1.78496,-0.22899 -2.32221,0.00587M2930.46155,654.89978v2.94753l-1.90826,-0.0411c-1.82606,-0.03523 -1.93175,-0.05284 -2.44845,-0.35523c-1.70569,-1.00404 -2.00515,-3.2235 -0.62239,-4.60626c0.73395,-0.73688 1.24184,-0.87193 3.3057,-0.88074l1.6734,-0.00881v2.9446M2940.17902,663.87743c1.10973,0.32881 2.0257,1.57652 2.0257,2.75964c0,0.96881 -0.63413,2.04037 -1.51487,2.55707c-0.5167,0.30239 -0.62239,0.32 -2.44845,0.35523l-1.90826,0.0411v-2.94753v-2.9446h1.62349c1.10973,0 1.81138,0.05578 2.22239,0.17908" className="SFSymbolsPreviewWireframe"/></g>
  <g id="Regular-S"><path d="M1425.36954,628.645c-0.67817,0.25835 -1.1978,0.70165 -1.56478,1.32404l-0.32587,0.55486l-0.02936,29.98911c-0.02055,19.81072 0.00881,30.13589 0.08807,30.4236c0.17321,0.64587 0.73688,1.3534 1.37395,1.72918c0.4756,0.2789 0.69285,0.33174 1.40037,0.33174c0.83083,0 0.86606,-0.01468 3.37616,-1.25945l2.53946,-1.25945l2.53652,1.25945c2.47487,1.22716 2.56001,1.25945 3.33506,1.25945c0.77505,0 0.86019,-0.03229 3.33506,-1.25945l2.53652,-1.25945l2.53652,1.25945c2.47487,1.22716 2.56001,1.25945 3.33506,1.25945c0.77505,0 0.86019,-0.03229 3.33506,-1.25945l2.53652,-1.25945l2.53652,1.25945c2.47487,1.22716 2.56001,1.25945 3.33506,1.25945c0.77505,0 0.86019,-0.03229 3.33506,-1.25945l2.53652,-1.25945l2.5101,1.24478c2.80955,1.3945 3.23818,1.509 4.30681,1.15377c0.80147,-0.26422 1.54129,-0.9923 1.79964,-1.77322c0.17615,-0.53138 0.19083,-3.02974 0.16147,-30.5792l-0.02936,-30.00085l-0.32,-0.54606c-0.60477,-1.03046 -1.829,-1.62643 -2.97983,-1.45615c-0.31413,0.04991 -1.53248,0.57835 -2.98864,1.30349l-2.46019,1.22129l-2.53652,-1.25945c-2.47487,-1.22716 -2.56001,-1.25945 -3.33506,-1.25945c-0.77505,0 -0.86019,0.03229 -3.33506,1.25945l-2.53652,1.25945l-2.53652,-1.25945c-2.47487,-1.22716 -2.56001,-1.25945 -3.33506,-1.25945c-0.77505,0 -0.86019,0.03229 -3.33506,1.25945l-2.53652,1.25945l-2.53652,-1.25945c-2.47487,-1.22716 -2.56001,-1.25945 -3.33506,-1.25945c-0.77505,0 -0.86019,0.03229 -3.33506,1.25945l-2.53652,1.25945l-2.49542,-1.2389c-2.15781,-1.07156 -2.5923,-1.24478 -3.20001,-1.28881c-0.45211,-0.02936 -0.86899,0.01468 -1.16257,0.12624M1440.63272,635.95512c2.47781,1.2301 2.56295,1.26239 3.33799,1.26239c0.77505,0 0.86019,-0.03229 3.33506,-1.25945l2.53652,-1.25945l2.53652,1.25945c2.47487,1.22716 2.56001,1.25945 3.33506,1.25945c0.77505,0 0.86019,-0.03229 3.33506,-1.25945l2.53652,-1.25945l2.53652,1.25945c2.46019,1.22129 2.56295,1.25945 3.31744,1.25945c0.67817,0 0.9189,-0.06752 1.82019,-0.49908c0.56954,-0.27596 1.05982,-0.49908 1.08624,-0.49908c0.02642,0 0.04697,11.04445 0.04697,24.54321c0,13.49877 -0.02055,24.54321 -0.04697,24.54321c-0.02642,0 -0.5167,-0.22312 -1.08624,-0.49908c-0.90129,-0.43156 -1.14202,-0.49908 -1.82019,-0.49908c-0.7545,0 -0.85725,0.03817 -3.31744,1.25945l-2.53652,1.25945l-2.53652,-1.25945c-2.47487,-1.22716 -2.56001,-1.25945 -3.33506,-1.25945c-0.77505,0 -0.86019,0.03229 -3.33506,1.25945l-2.53652,1.25945l-2.53652,-1.25945c-2.47487,-1.22716 -2.56001,-1.25945 -3.33506,-1.25945c-0.77505,0 -0.86019,0.03229 -3.33506,1.25945l-2.53652,1.25945l-2.53652,-1.25945c-2.46019,-1.22129 -2.56295,-1.25945 -3.31744,-1.25945c-0.67817,0 -0.9189,0.06752 -1.82019,0.49908c-0.56954,0.27596 -1.05982,0.49908 -1.08624,0.49908c-0.02642,0 -0.04697,-11.04445 -0.04697,-24.54321c0,-13.49877 0.02055,-24.54321 0.04697,-24.54321c0.02642,0 0.5167,0.22312 1.08624,0.49908c0.90129,0.43156 1.14202,0.49908 1.82019,0.49908c0.7545,0 0.85432,-0.03817 3.28809,-1.25358c1.37982,-0.68991 2.51891,-1.25945 2.53065,-1.26239c0.01468,-0.00587 1.16844,0.56074 2.56882,1.25358M1448.66798,641.92652c-0.59009,0.25541 -1.15964,0.8367 -1.48257,1.51487c-0.22312,0.4756 -0.27596,0.78092 -0.2789,1.60001v1.01578l-2.26056,0.05578c-1.94643,0.04991 -2.38973,0.09688 -3.20295,0.34055c-2.81249,0.84844 -5.04956,3.09432 -5.94498,5.9714c-0.39633,1.27413 -0.39633,3.658 0,4.93213c0.89248,2.86827 3.08552,5.07892 5.94791,5.99489c0.70165,0.22312 1.16257,0.27009 3.1413,0.31707l2.31927,0.05578v2.92405v2.92111h-4.56222c-4.95562,0 -5.24919,0.03229 -6.05947,0.64881c-0.23486,0.17908 -0.57248,0.56954 -0.74569,0.86606c-0.26716,0.45798 -0.31707,0.67523 -0.31707,1.42092c0,0.75156 0.04697,0.96294 0.32587,1.4356c0.17908,0.30239 0.50789,0.69285 0.73395,0.86312c0.80147,0.61064 0.93652,0.62532 5.95672,0.6312l4.66791,0.00587v1.02753c0.00294,0.8367 0.05284,1.13615 0.2789,1.61469c0.53138,1.11854 1.4679,1.72625 2.65689,1.72625c1.189,0 2.12551,-0.60771 2.65689,-1.72625c0.22312,-0.4756 0.27596,-0.78092 0.2789,-1.60001v-1.01578l2.31927,-0.05578c1.97872,-0.04697 2.43964,-0.09395 3.1413,-0.31707c2.8624,-0.91597 5.05543,-3.12662 5.94791,-5.99489c0.39633,-1.27413 0.39633,-3.658 0,-4.93213c-0.89542,-2.87708 -3.13249,-5.12296 -5.94498,-5.9714c-0.81321,-0.24367 -1.25652,-0.29064 -3.20295,-0.34055l-2.26056,-0.05578v-2.92405v-2.92111l4.66791,-0.00587c5.0202,-0.00587 5.15525,-0.02055 5.95672,-0.6312c0.22606,-0.17028 0.55486,-0.56074 0.73395,-0.86312c0.2789,-0.47266 0.32587,-0.68404 0.32587,-1.4356c0,-0.74569 -0.04991,-0.96294 -0.31707,-1.42092c-0.17321,-0.29651 -0.51083,-0.68698 -0.74569,-0.86606c-0.81028,-0.61652 -1.10386,-0.64881 -6.05947,-0.64881h-4.56222v-1.02753c-0.00294,-0.8367 -0.05284,-1.13615 -0.2789,-1.61469c-0.32881,-0.68991 -0.89835,-1.26533 -1.509,-1.52074c-0.55193,-0.23193 -1.78496,-0.22899 -2.32221,0.00587M1446.9065,654.89978v2.94753l-1.90826,-0.0411c-1.82606,-0.03523 -1.93175,-0.05284 -2.44845,-0.35523c-1.70569,-1.00404 -2.00515,-3.2235 -0.62239,-4.60626c0.73395,-0.73688 1.24184,-0.87193 3.3057,-0.88074l1.6734,-0.00881v2.9446M1456.62397,663.87743c1.10973,0.32881 2.0257,1.57652 2.0257,2.75964c0,0.96881 -0.63413,2.04037 -1.51487,2.55707c-0.5167,0.30239 -0.62239,0.32 -2.44845,0.35523l-1.90826,0.0411v-2.94753v-2.9446h1.62349c1.10973,0 1.81138,0.05578 2.22239,0.17908" className="SFSymbolsPreviewWireframe"/></g>
  <g id="Ultralight-S"><path d="M535.23595,628.645c-0.67817,0.25835 -1.1978,0.70165 -1.56478,1.32404l-0.32587,0.55486l-0.02936,29.98911c-0.02055,19.81072 0.00881,30.13589 0.08807,30.4236c0.17321,0.64587 0.73688,1.3534 1.37395,1.72918c0.4756,0.2789 0.69285,0.33174 1.40037,0.33174c0.83083,0 0.86606,-0.01468 3.37616,-1.25945l2.53946,-1.25945l2.53652,1.25945c2.47487,1.22716 2.56001,1.25945 3.33506,1.25945c0.77505,0 0.86019,-0.03229 3.33506,-1.25945l2.53652,-1.25945l2.53652,1.25945c2.47487,1.22716 2.56001,1.25945 3.33506,1.25945c0.77505,0 0.86019,-0.03229 3.33506,-1.25945l2.53652,-1.25945l2.53652,1.25945c2.47487,1.22716 2.56001,1.25945 3.33506,1.25945c0.77505,0 0.86019,-0.03229 3.33506,-1.25945l2.53652,-1.25945l2.5101,1.24478c2.80955,1.3945 3.23818,1.509 4.30681,1.15377c0.80147,-0.26422 1.54129,-0.9923 1.79964,-1.77322c0.17615,-0.53138 0.19083,-3.02974 0.16147,-30.5792l-0.02936,-30.00085l-0.32,-0.54606c-0.60477,-1.03046 -1.829,-1.62643 -2.97983,-1.45615c-0.31413,0.04991 -1.53248,0.57835 -2.98864,1.30349l-2.46019,1.22129l-2.53652,-1.25945c-2.47487,-1.22716 -2.56001,-1.25945 -3.33506,-1.25945c-0.77505,0 -0.86019,0.03229 -3.33506,1.25945l-2.53652,1.25945l-2.53652,-1.25945c-2.47487,-1.22716 -2.56001,-1.25945 -3.33506,-1.25945c-0.77505,0 -0.86019,0.03229 -3.33506,1.25945l-2.53652,1.25945l-2.53652,-1.25945c-2.47487,-1.22716 -2.56001,-1.25945 -3.33506,-1.25945c-0.77505,0 -0.86019,0.03229 -3.33506,1.25945l-2.53652,1.25945l-2.49542,-1.2389c-2.15781,-1.07156 -2.5923,-1.24478 -3.20001,-1.28881c-0.45211,-0.02936 -0.86899,0.01468 -1.16257,0.12624M550.49912,635.95512c2.47781,1.2301 2.56295,1.26239 3.33799,1.26239c0.77505,0 0.86019,-0.03229 3.33506,-1.25945l2.53652,-1.25945l2.53652,1.25945c2.47487,1.22716 2.56001,1.25945 3.33506,1.25945c0.77505,0 0.86019,-0.03229 3.33506,-1.25945l2.53652,-1.25945l2.53652,1.25945c2.46019,1.22129 2.56295,1.25945 3.31744,1.25945c0.67817,0 0.9189,-0.06752 1.82019,-0.49908c0.56954,-0.27596 1.05982,-0.49908 1.08624,-0.49908c0.02642,0 0.04697,11.04445 0.04697,24.54321c0,13.49877 -0.02055,24.54321 -0.04697,24.54321c-0.02642,0 -0.5167,-0.22312 -1.08624,-0.49908c-0.90129,-0.43156 -1.14202,-0.49908 -1.82019,-0.49908c-0.7545,0 -0.85725,0.03817 -3.31744,1.25945l-2.53652,1.25945l-2.53652,-1.25945c-2.47487,-1.22716 -2.56001,-1.25945 -3.33506,-1.25945c-0.77505,0 -0.86019,0.03229 -3.33506,1.25945l-2.53652,1.25945l-2.53652,-1.25945c-2.47487,-1.22716 -2.56001,-1.25945 -3.33506,-1.25945c-0.77505,0 -0.86019,0.03229 -3.33506,1.25945l-2.53652,1.25945l-2.53652,-1.25945c-2.46019,-1.22129 -2.56295,-1.25945 -3.31744,-1.25945c-0.67817,0 -0.9189,0.06752 -1.82019,0.49908c-0.56954,0.27596 -1.05982,0.49908 -1.08624,0.49908c-0.02642,0 -0.04697,-11.04445 -0.04697,-24.54321c0,-13.49877 0.02055,-24.54321 0.04697,-24.54321c0.02642,0 0.5167,0.22312 1.08624,0.49908c0.90129,0.43156 1.14202,0.49908 1.82019,0.49908c0.7545,0 0.85432,-0.03817 3.28809,-1.25358c1.37982,-0.68991 2.51891,-1.25945 2.53065,-1.26239c0.01468,-0.00587 1.16844,0.56074 2.56882,1.25358M558.53438,641.92652c-0.59009,0.25541 -1.15964,0.8367 -1.48257,1.51487c-0.22312,0.4756 -0.27596,0.78092 -0.2789,1.60001v1.01578l-2.26056,0.05578c-1.94643,0.04991 -2.38973,0.09688 -3.20295,0.34055c-2.81249,0.84844 -5.04956,3.09432 -5.94498,5.9714c-0.39633,1.27413 -0.39633,3.658 0,4.93213c0.89248,2.86827 3.08552,5.07892 5.94791,5.99489c0.70165,0.22312 1.16257,0.27009 3.1413,0.31707l2.31927,0.05578v2.92405v2.92111h-4.56222c-4.95562,0 -5.24919,0.03229 -6.05947,0.64881c-0.23486,0.17908 -0.57248,0.56954 -0.74569,0.86606c-0.26716,0.45798 -0.31707,0.67523 -0.31707,1.42092c0,0.75156 0.04697,0.96294 0.32587,1.4356c0.17908,0.30239 0.50789,0.69285 0.73395,0.86312c0.80147,0.61064 0.93652,0.62532 5.95672,0.6312l4.66791,0.00587v1.02753c0.00294,0.8367 0.05284,1.13615 0.2789,1.61469c0.53138,1.11854 1.4679,1.72625 2.65689,1.72625c1.189,0 2.12551,-0.60771 2.65689,-1.72625c0.22312,-0.4756 0.27596,-0.78092 0.2789,-1.60001v-1.01578l2.31927,-0.05578c1.97872,-0.04697 2.43964,-0.09395 3.1413,-0.31707c2.8624,-0.91597 5.05543,-3.12662 5.94791,-5.99489c0.39633,-1.27413 0.39633,-3.658 0,-4.93213c-0.89542,-2.87708 -3.13249,-5.12296 -5.94498,-5.9714c-0.81321,-0.24367 -1.25652,-0.29064 -3.20295,-0.34055l-2.26056,-0.05578v-2.92405v-2.92111l4.66791,-0.00587c5.0202,-0.00587 5.15525,-0.02055 5.95672,-0.6312c0.22606,-0.17028 0.55486,-0.56074 0.73395,-0.86312c0.2789,-0.47266 0.32587,-0.68404 0.32587,-1.4356c0,-0.74569 -0.04991,-0.96294 -0.31707,-1.42092c-0.17321,-0.29651 -0.51083,-0.68698 -0.74569,-0.86606c-0.81028,-0.61652 -1.10386,-0.64881 -6.05947,-0.64881h-4.56222v-1.02753c-0.00294,-0.8367 -0.05284,-1.13615 -0.2789,-1.61469c-0.32881,-0.68991 -0.89835,-1.26533 -1.509,-1.52074c-0.55193,-0.23193 -1.78496,-0.22899 -2.32221,0.00587M556.77291,654.89978v2.94753l-1.90826,-0.0411c-1.82606,-0.03523 -1.93175,-0.05284 -2.44845,-0.35523c-1.70569,-1.00404 -2.00515,-3.2235 -0.62239,-4.60626c0.73395,-0.73688 1.24184,-0.87193 3.3057,-0.88074l1.6734,-0.00881v2.9446M566.49038,663.87743c1.10973,0.32881 2.0257,1.57652 2.0257,2.75964c0,0.96881 -0.63413,2.04037 -1.51487,2.55707c-0.5167,0.30239 -0.62239,0.32 -2.44845,0.35523l-1.90826,0.0411v-2.94753v-2.9446h1.62349c1.10973,0 1.81138,0.05578 2.22239,0.17908" className="SFSymbolsPreviewWireframe"/></g>
 </g>
</svg>