<?xml version="1.0" encoding="UTF-8"?><!--Generator: SymbolKit.app--><!DOCTYPE svg PUBLIC "-//W3C//DTD SVG 1.1//EN" "http://www.w3.org/Graphics/SVG/1.1/DTD/svg11.dtd"><svg xmlns="http://www.w3.org/2000/svg" xmlns:xlink="http://www.w3.org/1999/xlink" version="1.1" viewBox="0 0 3300 2200">
 <!--glyph: "100092", point size: 100.0, font version: "20.0d10e1", template writer version: "138.0.0"-->
 <style>.SFSymbolsPreviewWireframe {fill:none;opacity:1.0;stroke:black;stroke-width:0.5}
</style>
 <g id="Notes">
  <rect height="2200" id="artboard" style="fill:white;opacity:1" width="3300" x="0" y="0"/>
  <line style="fill:none;stroke:black;opacity:1;stroke-width:0.5;" x1="263" x2="3036" y1="292" y2="292"/>
  <text style="stroke:none;fill:black;font-family:sans-serif;font-size:13;font-weight:bold;" transform="matrix(1 0 0 1 263 322)">Weight/Scale Variations</text>
  <text style="stroke:none;fill:black;font-family:sans-serif;font-size:13;text-anchor:middle;" transform="matrix(1 0 0 1 559.711 322)">Ultralight</text>
  <text style="stroke:none;fill:black;font-family:sans-serif;font-size:13;text-anchor:middle;" transform="matrix(1 0 0 1 856.422 322)">Thin</text>
  <text style="stroke:none;fill:black;font-family:sans-serif;font-size:13;text-anchor:middle;" transform="matrix(1 0 0 1 1153.13 322)">Light</text>
  <text style="stroke:none;fill:black;font-family:sans-serif;font-size:13;text-anchor:middle;" transform="matrix(1 0 0 1 1449.84 322)">Regular</text>
  <text style="stroke:none;fill:black;font-family:sans-serif;font-size:13;text-anchor:middle;" transform="matrix(1 0 0 1 1746.56 322)">Medium</text>
  <text style="stroke:none;fill:black;font-family:sans-serif;font-size:13;text-anchor:middle;" transform="matrix(1 0 0 1 2043.27 322)">Semibold</text>
  <text style="stroke:none;fill:black;font-family:sans-serif;font-size:13;text-anchor:middle;" transform="matrix(1 0 0 1 2339.98 322)">Bold</text>
  <text style="stroke:none;fill:black;font-family:sans-serif;font-size:13;text-anchor:middle;" transform="matrix(1 0 0 1 2636.69 322)">Heavy</text>
  <text style="stroke:none;fill:black;font-family:sans-serif;font-size:13;text-anchor:middle;" transform="matrix(1 0 0 1 2933.4 322)">Black</text>
  <line style="fill:none;stroke:black;opacity:1;stroke-width:0.5;" x1="263" x2="3036" y1="1903" y2="1903"/>
  <g transform="matrix(0.2 0 0 0.2 263 1933)">
   <path d="m46.2402 4.15039c21.7773 0 39.4531-17.627 39.4531-39.4043s-17.6758-39.4043-39.4531-39.4043c-21.7285 0-39.4043 17.627-39.4043 39.4043s17.6758 39.4043 39.4043 39.4043Zm0-7.42188c-17.6758 0-31.9336-14.3066-31.9336-31.9824s14.2578-31.9824 31.9336-31.9824 31.9824 14.3066 31.9824 31.9824-14.3066 31.9824-31.9824 31.9824Zm-17.9688-31.9824c0 2.14844 1.51367 3.61328 3.75977 3.61328h10.498v10.5957c0 2.19727 1.46484 3.71094 3.61328 3.71094 2.24609 0 3.71094-1.51367 3.71094-3.71094v-10.5957h10.5957c2.19727 0 3.71094-1.46484 3.71094-3.61328 0-2.19727-1.51367-3.71094-3.71094-3.71094h-10.5957v-10.5469c0-2.24609-1.46484-3.75977-3.71094-3.75977-2.14844 0-3.61328 1.51367-3.61328 3.75977v10.5469h-10.498c-2.24609 0-3.75977 1.51367-3.75977 3.71094Z"/>
  </g>
  <g transform="matrix(0.2 0 0 0.2 281.506 1933)">
   <path d="m58.5449 14.5508c27.4902 0 49.8047-22.3145 49.8047-49.8047s-22.3145-49.8047-49.8047-49.8047-49.8047 22.3145-49.8047 49.8047 22.3145 49.8047 49.8047 49.8047Zm0-8.30078c-22.9492 0-41.5039-18.5547-41.5039-41.5039s18.5547-41.5039 41.5039-41.5039 41.5039 18.5547 41.5039 41.5039-18.5547 41.5039-41.5039 41.5039Zm-22.6562-41.5039c0 2.39258 1.66016 4.00391 4.15039 4.00391h14.3555v14.4043c0 2.44141 1.66016 4.15039 4.05273 4.15039 2.44141 0 4.15039-1.66016 4.15039-4.15039v-14.4043h14.4043c2.44141 0 4.15039-1.61133 4.15039-4.00391 0-2.44141-1.70898-4.15039-4.15039-4.15039h-14.4043v-14.3555c0-2.49023-1.70898-4.19922-4.15039-4.19922-2.39258 0-4.05273 1.70898-4.05273 4.19922v14.3555h-14.3555c-2.49023 0-4.15039 1.70898-4.15039 4.15039Z"/>
  </g>
  <g transform="matrix(0.2 0 0 0.2 304.924 1933)">
   <path d="m74.8535 28.3203c35.1074 0 63.623-28.4668 63.623-63.5742s-28.5156-63.623-63.623-63.623-63.5742 28.5156-63.5742 63.623 28.4668 63.5742 63.5742 63.5742Zm0-9.08203c-30.127 0-54.4922-24.3652-54.4922-54.4922s24.3652-54.4922 54.4922-54.4922 54.4922 24.3652 54.4922 54.4922-24.3652 54.4922-54.4922 54.4922Zm-28.8574-54.4922c0 2.58789 1.85547 4.39453 4.58984 4.39453h19.7266v19.7754c0 2.68555 1.85547 4.58984 4.44336 4.58984 2.68555 0 4.54102-1.85547 4.54102-4.58984v-19.7754h19.7754c2.68555 0 4.58984-1.80664 4.58984-4.39453 0-2.73438-1.85547-4.58984-4.58984-4.58984h-19.7754v-19.7266c0-2.73438-1.85547-4.63867-4.54102-4.63867-2.58789 0-4.44336 1.9043-4.44336 4.63867v19.7266h-19.7266c-2.73438 0-4.58984 1.85547-4.58984 4.58984Z"/>
  </g>
  <text style="stroke:none;fill:black;font-family:sans-serif;font-size:13;font-weight:bold;" transform="matrix(1 0 0 1 263 1953)">Design Variations</text>
  <text style="stroke:none;fill:black;font-family:sans-serif;font-size:13;" transform="matrix(1 0 0 1 263 1971)">Symbols are supported in up to nine weights and three scales.</text>
  <text style="stroke:none;fill:black;font-family:sans-serif;font-size:13;" transform="matrix(1 0 0 1 263 1989)">For optimal layout with text and other symbols, vertically align</text>
  <text style="stroke:none;fill:black;font-family:sans-serif;font-size:13;" transform="matrix(1 0 0 1 263 2007)">symbols with the adjacent text.</text>
  <line style="fill:none;stroke:#00AEEF;stroke-width:0.5;opacity:1.0;" x1="776" x2="776" y1="1919" y2="1933"/>
  <g transform="matrix(0.2 0 0 0.2 776 1933)">
   <path d="m16.5527 0.78125c2.58789 0 3.85742-0.976562 4.78516-3.71094l6.29883-17.2363h28.8086l6.29883 17.2363c0.927734 2.73438 2.19727 3.71094 4.73633 3.71094 2.58789 0 4.24805-1.5625 4.24805-4.00391 0-0.830078-0.146484-1.61133-0.537109-2.63672l-22.9004-60.9863c-1.12305-2.97852-3.125-4.49219-6.25-4.49219-3.02734 0-5.07812 1.46484-6.15234 4.44336l-22.9004 61.084c-0.390625 1.02539-0.537109 1.80664-0.537109 2.63672 0 2.44141 1.5625 3.95508 4.10156 3.95508Zm13.4766-28.3691 11.8652-32.8613h0.244141l11.8652 32.8613Z"/>
  </g>
  <line style="fill:none;stroke:#00AEEF;stroke-width:0.5;opacity:1.0;" x1="792.836" x2="792.836" y1="1919" y2="1933"/>
  <text style="stroke:none;fill:black;font-family:sans-serif;font-size:13;font-weight:bold;" transform="matrix(1 0 0 1 776 1953)">Margins</text>
  <text style="stroke:none;fill:black;font-family:sans-serif;font-size:13;" transform="matrix(1 0 0 1 776 1971)">Leading and trailing margins on the left and right side of each symbol</text>
  <text style="stroke:none;fill:black;font-family:sans-serif;font-size:13;" transform="matrix(1 0 0 1 776 1989)">can be adjusted by modifying the x-location of the margin guidelines.</text>
  <text style="stroke:none;fill:black;font-family:sans-serif;font-size:13;" transform="matrix(1 0 0 1 776 2007)">Modifications are automatically applied proportionally to all</text>
  <text style="stroke:none;fill:black;font-family:sans-serif;font-size:13;" transform="matrix(1 0 0 1 776 2025)">scales and weights.</text>
  <g transform="matrix(0.2 0 0 0.2 1289 1933)">
   <path d="m14.209 9.32617 8.49609 8.54492c4.29688 4.3457 9.22852 4.05273 13.8672-1.07422l53.4668-58.9355-4.83398-4.88281-53.0762 58.3984c-1.75781 2.00195-3.41797 2.49023-5.76172 0.146484l-5.85938-5.81055c-2.34375-2.29492-1.80664-4.00391 0.195312-5.81055l57.373-54.0039-4.88281-4.83398-57.959 54.4434c-4.93164 4.58984-5.32227 9.47266-1.02539 13.8184Zm32.0801-90.9668c-2.09961 2.05078-2.24609 4.93164-1.07422 6.88477 1.17188 1.80664 3.4668 2.97852 6.68945 2.14844 7.32422-1.70898 14.9414-2.00195 22.0703 2.68555l-2.92969 7.27539c-1.70898 4.15039-0.830078 7.08008 1.85547 9.81445l11.4746 11.5723c2.44141 2.44141 4.49219 2.53906 7.32422 2.05078l5.32227-0.976562 3.32031 3.36914-0.195312 2.7832c-0.195312 2.49023 0.439453 4.39453 2.88086 6.78711l3.80859 3.71094c2.39258 2.39258 5.46875 2.53906 7.8125 0.195312l14.5508-14.5996c2.34375-2.34375 2.24609-5.32227-0.146484-7.71484l-3.85742-3.80859c-2.39258-2.39258-4.24805-3.17383-6.64062-2.97852l-2.88086 0.244141-3.22266-3.17383 1.2207-5.61523c0.634766-2.83203-0.146484-5.0293-3.07617-7.95898l-10.9863-10.9375c-16.6992-16.6016-38.8672-16.2109-53.3203-1.75781Zm7.4707 1.85547c12.1582-8.88672 28.6133-7.37305 39.7461 3.75977l12.1582 12.0605c1.17188 1.17188 1.36719 2.09961 1.02539 3.80859l-1.61133 7.42188 7.51953 7.42188 4.93164-0.292969c1.26953-0.0488281 1.66016 0.0488281 2.63672 1.02539l2.88086 2.88086-12.207 12.207-2.88086-2.88086c-0.976562-0.976562-1.12305-1.36719-1.07422-2.68555l0.341797-4.88281-7.4707-7.42188-7.61719 1.26953c-1.61133 0.341797-2.34375 0.195312-3.56445-0.976562l-10.0098-10.0098c-1.26953-1.17188-1.41602-2.00195-0.634766-3.85742l4.39453-10.4492c-7.8125-7.27539-17.9688-10.4004-28.125-7.42188-0.78125 0.195312-1.07422-0.439453-0.439453-0.976562Z"/>
  </g>
  <text style="stroke:none;fill:black;font-family:sans-serif;font-size:13;font-weight:bold;" transform="matrix(1 0 0 1 1289 1953)">Exporting</text>
  <text style="stroke:none;fill:black;font-family:sans-serif;font-size:13;" transform="matrix(1 0 0 1 1289 1971)">Symbols should be outlined when exporting to ensure the</text>
  <text style="stroke:none;fill:black;font-family:sans-serif;font-size:13;" transform="matrix(1 0 0 1 1289 1989)">design is preserved when submitting to Xcode.</text>
  <text id="template-version" style="stroke:none;fill:black;font-family:sans-serif;font-size:13;text-anchor:end;" transform="matrix(1 0 0 1 3036 1933)">Template v.6.0</text>
  <text style="stroke:none;fill:black;font-family:sans-serif;font-size:13;text-anchor:end;" transform="matrix(1 0 0 1 3036 1951)">Requires Xcode 16 or greater</text>
  <text id="descriptive-name" style="stroke:none;fill:black;font-family:sans-serif;font-size:13;text-anchor:end;" transform="matrix(1 0 0 1 3036 1969)">Generated from square</text>
  <text style="stroke:none;fill:black;font-family:sans-serif;font-size:13;text-anchor:end;" transform="matrix(1 0 0 1 3036 1987)">Typeset at 100.0 points</text>
  <text style="stroke:none;fill:black;font-family:sans-serif;font-size:13;" transform="matrix(1 0 0 1 263 726)">Small</text>
  <text style="stroke:none;fill:black;font-family:sans-serif;font-size:13;" transform="matrix(1 0 0 1 263 1156)">Medium</text>
  <text style="stroke:none;fill:black;font-family:sans-serif;font-size:13;" transform="matrix(1 0 0 1 263 1586)">Large</text>
 </g>
 <g id="Guides">
  <g id="H-reference" style="fill:#27AAE1;stroke:none;" transform="matrix(1 0 0 1 339 696)">
   <path d="M0.993654 0L3.63775 0L29.3281-67.1323L30.0303-67.1323L30.0303-70.459L28.1226-70.459ZM11.6885-24.4799L46.9815-24.4799L46.2315-26.7285L12.4385-26.7285ZM55.1196 0L57.7637 0L30.6382-70.459L29.4326-70.459L29.4326-67.1323Z"/>
  </g>
  <line id="Baseline-S" style="fill:none;stroke:#27AAE1;opacity:1;stroke-width:0.5;" x1="263" x2="3036" y1="696" y2="696"/>
  <line id="Capline-S" style="fill:none;stroke:#27AAE1;opacity:1;stroke-width:0.5;" x1="263" x2="3036" y1="625.541" y2="625.541"/>
  <g id="H-reference" style="fill:#27AAE1;stroke:none;" transform="matrix(1 0 0 1 339 1126)">
   <path d="M0.993654 0L3.63775 0L29.3281-67.1323L30.0303-67.1323L30.0303-70.459L28.1226-70.459ZM11.6885-24.4799L46.9815-24.4799L46.2315-26.7285L12.4385-26.7285ZM55.1196 0L57.7637 0L30.6382-70.459L29.4326-70.459L29.4326-67.1323Z"/>
  </g>
  <line id="Baseline-M" style="fill:none;stroke:#27AAE1;opacity:1;stroke-width:0.5;" x1="263" x2="3036" y1="1126" y2="1126"/>
  <line id="Capline-M" style="fill:none;stroke:#27AAE1;opacity:1;stroke-width:0.5;" x1="263" x2="3036" y1="1055.54" y2="1055.54"/>
  <g id="H-reference" style="fill:#27AAE1;stroke:none;" transform="matrix(1 0 0 1 339 1556)">
   <path d="M0.993654 0L3.63775 0L29.3281-67.1323L30.0303-67.1323L30.0303-70.459L28.1226-70.459ZM11.6885-24.4799L46.9815-24.4799L46.2315-26.7285L12.4385-26.7285ZM55.1196 0L57.7637 0L30.6382-70.459L29.4326-70.459L29.4326-67.1323Z"/>
  </g>
  <line id="Baseline-L" style="fill:none;stroke:#27AAE1;opacity:1;stroke-width:0.5;" x1="263" x2="3036" y1="1556" y2="1556"/>
  <line id="Capline-L" style="fill:none;stroke:#27AAE1;opacity:1;stroke-width:0.5;" x1="263" x2="3036" y1="1485.54" y2="1485.54"/>
  <line id="right-margin-Black-S" style="fill:none;stroke:#00AEEF;stroke-width:0.5;opacity:1.0;" x1="2981.3" x2="2981.3" y1="600.785" y2="720.121"/>
  <line id="left-margin-Black-S" style="fill:none;stroke:#00AEEF;stroke-width:0.5;opacity:1.0;" x1="2885.5" x2="2885.5" y1="600.785" y2="720.121"/>
  <line id="right-margin-Regular-S" style="fill:none;stroke:#00AEEF;stroke-width:0.5;opacity:1.0;" x1="1495.18" x2="1495.18" y1="600.785" y2="720.121"/>
  <line id="left-margin-Regular-S" style="fill:none;stroke:#00AEEF;stroke-width:0.5;opacity:1.0;" x1="1404.51" x2="1404.51" y1="600.785" y2="720.121"/>
  <line id="right-margin-Ultralight-S" style="fill:none;stroke:#00AEEF;stroke-width:0.5;opacity:1.0;" x1="603.073" x2="603.073" y1="600.785" y2="720.121"/>
  <line id="left-margin-Ultralight-S" style="fill:none;stroke:#00AEEF;stroke-width:0.5;opacity:1.0;" x1="516.35" x2="516.35" y1="600.785" y2="720.121"/>
 </g>
 <g id="Symbols">
  <g id="Black-S"><path d="M2959.75656,629.29528c-6.37654,0.38459 -11.81069,1.89065 -17.07456,4.7325c-2.58643,1.3945 -3.9046,2.25469 -6.29434,4.1013c-1.64404,1.2712 -5.10828,4.73837 -6.40296,6.4059c-0.54606,0.70459 -1.10092,1.40918 -1.2301,1.56478l-0.2378,0.2789l-1.17138,-0.2378c-2.32515,-0.47266 -4.03084,-0.64294 -6.40002,-0.64294c-2.57175,0 -3.9868,0.22312 -5.63085,0.88074c-2.69506,1.07744 -4.74717,3.24111 -6.447,6.79636c-1.48551,3.1002 -2.75964,7.50975 -2.55414,8.8338c0.1145,0.74569 0.70165,1.58826 1.41212,2.0257l0.57835,0.35523l7.17507,0.03229l7.17801,0.03229l3.54644,3.54937l3.5435,3.54937l0.03229,7.17214l0.03229,7.17214l0.35523,0.57835c0.43743,0.71046 1.28,1.29762 2.0257,1.41212c0.78973,0.1233 2.66863,-0.28477 5.25213,-1.13615c4.56222,-1.50606 7.76223,-3.5435 9.3916,-5.98021c2.03157,-3.03854 2.46313,-7.59196 1.28881,-13.61913c-0.1556,-0.80441 -0.24661,-1.49725 -0.1967,-1.54129c0.04697,-0.0411 0.77211,-0.62532 1.60881,-1.29468c2.73322,-2.18129 5.63672,-5.17286 7.61838,-7.83856c4.87635,-6.57324 7.72994,-15.06061 7.7593,-23.09c0.00881,-2.09322 0.00587,-2.11964 -0.30826,-2.65396c-0.78679,-1.33578 -1.75267,-1.62349 -4.84993,-1.43854M2958.99326,635.24026c0,0.01761 -0.0822,0.69285 -0.17908,1.49725c-0.97762,7.94719 -4.34497,14.77584 -10.05215,20.39494c-3.10607,3.05909 -6.05067,5.14644 -10.49545,7.44517c-2.04037,1.05688 -4.55635,2.21946 -4.80002,2.21946c-0.07339,0 -1.47377,-1.34166 -3.11194,-2.97983c-2.65102,-2.65102 -2.96808,-3.00919 -2.89175,-3.25873c0.13798,-0.4433 1.69395,-3.69029 2.38973,-4.97617c3.57873,-6.62902 7.02828,-10.7127 11.94573,-14.15932c4.31561,-3.01799 9.1215,-4.98204 14.31785,-5.85103c0.77505,-0.12917 1.64698,-0.25541 1.93762,-0.2789c0.29064,-0.02349 0.62239,-0.05284 0.73395,-0.06459c0.11156,-0.01174 0.20551,-0.00587 0.20551,0.01174M2924.14542,651.53977c0.56661,0.07633 1.02753,0.18789 1.02753,0.24367c0,0.05872 -0.2789,0.61945 -0.61945,1.24771c-0.59009,1.08624 -1.89652,3.78717 -2.41616,4.98791l-0.24073,0.5578h-4.40956c-2.64515,0 -4.40956,-0.04404 -4.40956,-0.10862c0,-0.24367 0.75156,-2.12845 1.24184,-3.12075c1.30936,-2.63928 2.38973,-3.5024 4.98204,-3.98093c0.49908,-0.09101 3.76075,0.02349 4.84406,0.17321M2942.68494,670.23195c0.2378,1.83193 0.21138,4.65029 -0.05578,5.69837c-0.40807,1.58826 -1.32111,2.62166 -3.29689,3.72552c-0.72514,0.40514 -2.79781,1.2712 -3.38497,1.41505l-0.32587,0.07927l0.03229,-4.43598l0.02936,-4.43304l0.96881,-0.40514c0.53138,-0.22312 2.03744,-0.94826 3.3468,-1.61175c1.30643,-0.66349 2.41028,-1.21248 2.45432,-1.22129c0.0411,-0.00881 0.14385,0.52844 0.23193,1.189M2912.84262,670.49617c-3.89873,0.78092 -6.81104,4.04552 -8.86609,9.93472c-1.21248,3.47891 -2.29579,8.49031 -2.06093,9.53839c0.25541,1.12147 1.189,2.05212 2.31047,2.28992c1.15377,0.24661 5.91562,-0.76918 9.54426,-2.0345c6.87269,-2.39854 10.11967,-5.88039 10.12261,-10.86243c0,-1.65285 -0.26422,-2.80368 -0.97762,-4.22754c-0.39927,-0.7956 -0.71633,-1.21248 -1.55891,-2.05505c-1.44441,-1.44441 -2.79781,-2.20478 -4.618,-2.58937c-0.96,-0.20257 -2.86827,-0.20257 -3.89579,0.00587M2916.18942,676.47051c0.64881,0.30239 1.09799,0.71046 1.49725,1.3534c0.22606,0.3611 0.26422,0.58716 0.26422,1.53835c0,1.0011 -0.03229,1.17138 -0.31707,1.65579c-0.54899,0.93065 -1.60001,1.7879 -3.14717,2.56295c-1.28881,0.64294 -4.3802,1.75267 -5.45764,1.9523l-0.44624,0.08514l0.08514,-0.45798c0.19083,-1.0334 1.28588,-4.07194 1.94056,-5.39305c0.94826,-1.91414 2.05505,-3.12955 3.14717,-3.45836c0.67523,-0.20551 1.81725,-0.12917 2.43377,0.16147" className="SFSymbolsPreviewWireframe"/></g>
  <g id="Regular-S"><path d="M1476.20151,629.29528c-6.37654,0.38459 -11.81069,1.89065 -17.07456,4.7325c-2.58643,1.3945 -3.9046,2.25469 -6.29434,4.1013c-1.64404,1.2712 -5.10828,4.73837 -6.40296,6.4059c-0.54606,0.70459 -1.10092,1.40918 -1.2301,1.56478l-0.2378,0.2789l-1.17138,-0.2378c-2.32515,-0.47266 -4.03084,-0.64294 -6.40002,-0.64294c-2.57175,0 -3.9868,0.22312 -5.63085,0.88074c-2.69506,1.07744 -4.74717,3.24111 -6.447,6.79636c-1.48551,3.1002 -2.75964,7.50975 -2.55414,8.8338c0.1145,0.74569 0.70165,1.58826 1.41212,2.0257l0.57835,0.35523l7.17507,0.03229l7.17801,0.03229l3.54644,3.54937l3.5435,3.54937l0.03229,7.17214l0.03229,7.17214l0.35523,0.57835c0.43743,0.71046 1.28,1.29762 2.0257,1.41212c0.78973,0.1233 2.66863,-0.28477 5.25213,-1.13615c4.56222,-1.50606 7.76223,-3.5435 9.3916,-5.98021c2.03157,-3.03854 2.46313,-7.59196 1.28881,-13.61913c-0.1556,-0.80441 -0.24661,-1.49725 -0.1967,-1.54129c0.04697,-0.0411 0.77211,-0.62532 1.60881,-1.29468c2.73322,-2.18129 5.63672,-5.17286 7.61838,-7.83856c4.87635,-6.57324 7.72994,-15.06061 7.7593,-23.09c0.00881,-2.09322 0.00587,-2.11964 -0.30826,-2.65396c-0.78679,-1.33578 -1.75267,-1.62349 -4.84993,-1.43854M1475.43821,635.24026c0,0.01761 -0.0822,0.69285 -0.17908,1.49725c-0.97762,7.94719 -4.34497,14.77584 -10.05215,20.39494c-3.10607,3.05909 -6.05067,5.14644 -10.49545,7.44517c-2.04037,1.05688 -4.55635,2.21946 -4.80002,2.21946c-0.07339,0 -1.47377,-1.34166 -3.11194,-2.97983c-2.65102,-2.65102 -2.96808,-3.00919 -2.89175,-3.25873c0.13798,-0.4433 1.69395,-3.69029 2.38973,-4.97617c3.57873,-6.62902 7.02828,-10.7127 11.94573,-14.15932c4.31561,-3.01799 9.1215,-4.98204 14.31785,-5.85103c0.77505,-0.12917 1.64698,-0.25541 1.93762,-0.2789c0.29064,-0.02349 0.62239,-0.05284 0.73395,-0.06459c0.11156,-0.01174 0.20551,-0.00587 0.20551,0.01174M1440.59037,651.53977c0.56661,0.07633 1.02753,0.18789 1.02753,0.24367c0,0.05872 -0.2789,0.61945 -0.61945,1.24771c-0.59009,1.08624 -1.89652,3.78717 -2.41616,4.98791l-0.24073,0.5578h-4.40956c-2.64515,0 -4.40956,-0.04404 -4.40956,-0.10862c0,-0.24367 0.75156,-2.12845 1.24184,-3.12075c1.30936,-2.63928 2.38973,-3.5024 4.98204,-3.98093c0.49908,-0.09101 3.76075,0.02349 4.84406,0.17321M1459.12989,670.23195c0.2378,1.83193 0.21138,4.65029 -0.05578,5.69837c-0.40807,1.58826 -1.32111,2.62166 -3.29689,3.72552c-0.72514,0.40514 -2.79781,1.2712 -3.38497,1.41505l-0.32587,0.07927l0.03229,-4.43598l0.02936,-4.43304l0.96881,-0.40514c0.53138,-0.22312 2.03744,-0.94826 3.3468,-1.61175c1.30643,-0.66349 2.41028,-1.21248 2.45432,-1.22129c0.0411,-0.00881 0.14385,0.52844 0.23193,1.189M1429.28757,670.49617c-3.89873,0.78092 -6.81104,4.04552 -8.86609,9.93472c-1.21248,3.47891 -2.29579,8.49031 -2.06093,9.53839c0.25541,1.12147 1.189,2.05212 2.31047,2.28992c1.15377,0.24661 5.91562,-0.76918 9.54426,-2.0345c6.87269,-2.39854 10.11967,-5.88039 10.12261,-10.86243c0,-1.65285 -0.26422,-2.80368 -0.97762,-4.22754c-0.39927,-0.7956 -0.71633,-1.21248 -1.55891,-2.05505c-1.44441,-1.44441 -2.79781,-2.20478 -4.618,-2.58937c-0.96,-0.20257 -2.86827,-0.20257 -3.89579,0.00587M1432.63437,676.47051c0.64881,0.30239 1.09799,0.71046 1.49725,1.3534c0.22606,0.3611 0.26422,0.58716 0.26422,1.53835c0,1.0011 -0.03229,1.17138 -0.31707,1.65579c-0.54899,0.93065 -1.60001,1.7879 -3.14717,2.56295c-1.28881,0.64294 -4.3802,1.75267 -5.45764,1.9523l-0.44624,0.08514l0.08514,-0.45798c0.19083,-1.0334 1.28588,-4.07194 1.94056,-5.39305c0.94826,-1.91414 2.05505,-3.12955 3.14717,-3.45836c0.67523,-0.20551 1.81725,-0.12917 2.43377,0.16147" className="SFSymbolsPreviewWireframe"/></g>
  <g id="Ultralight-S"><path d="M586.06792,629.29528c-6.37654,0.38459 -11.81069,1.89065 -17.07456,4.7325c-2.58643,1.3945 -3.9046,2.25469 -6.29434,4.1013c-1.64404,1.2712 -5.10828,4.73837 -6.40296,6.4059c-0.54606,0.70459 -1.10092,1.40918 -1.2301,1.56478l-0.2378,0.2789l-1.17138,-0.2378c-2.32515,-0.47266 -4.03084,-0.64294 -6.40002,-0.64294c-2.57175,0 -3.9868,0.22312 -5.63085,0.88074c-2.69506,1.07744 -4.74717,3.24111 -6.447,6.79636c-1.48551,3.1002 -2.75964,7.50975 -2.55414,8.8338c0.1145,0.74569 0.70165,1.58826 1.41212,2.0257l0.57835,0.35523l7.17507,0.03229l7.17801,0.03229l3.54644,3.54937l3.5435,3.54937l0.03229,7.17214l0.03229,7.17214l0.35523,0.57835c0.43743,0.71046 1.28,1.29762 2.0257,1.41212c0.78973,0.1233 2.66863,-0.28477 5.25213,-1.13615c4.56222,-1.50606 7.76223,-3.5435 9.3916,-5.98021c2.03157,-3.03854 2.46313,-7.59196 1.28881,-13.61913c-0.1556,-0.80441 -0.24661,-1.49725 -0.1967,-1.54129c0.04697,-0.0411 0.77211,-0.62532 1.60881,-1.29468c2.73322,-2.18129 5.63672,-5.17286 7.61838,-7.83856c4.87635,-6.57324 7.72994,-15.06061 7.7593,-23.09c0.00881,-2.09322 0.00587,-2.11964 -0.30826,-2.65396c-0.78679,-1.33578 -1.75267,-1.62349 -4.84993,-1.43854M585.30462,635.24026c0,0.01761 -0.0822,0.69285 -0.17908,1.49725c-0.97762,7.94719 -4.34497,14.77584 -10.05215,20.39494c-3.10607,3.05909 -6.05067,5.14644 -10.49545,7.44517c-2.04037,1.05688 -4.55635,2.21946 -4.80002,2.21946c-0.07339,0 -1.47377,-1.34166 -3.11194,-2.97983c-2.65102,-2.65102 -2.96808,-3.00919 -2.89175,-3.25873c0.13798,-0.4433 1.69395,-3.69029 2.38973,-4.97617c3.57873,-6.62902 7.02828,-10.7127 11.94573,-14.15932c4.31561,-3.01799 9.1215,-4.98204 14.31785,-5.85103c0.77505,-0.12917 1.64698,-0.25541 1.93762,-0.2789c0.29064,-0.02349 0.62239,-0.05284 0.73395,-0.06459c0.11156,-0.01174 0.20551,-0.00587 0.20551,0.01174M550.45678,651.53977c0.56661,0.07633 1.02753,0.18789 1.02753,0.24367c0,0.05872 -0.2789,0.61945 -0.61945,1.24771c-0.59009,1.08624 -1.89652,3.78717 -2.41616,4.98791l-0.24073,0.5578h-4.40956c-2.64515,0 -4.40956,-0.04404 -4.40956,-0.10862c0,-0.24367 0.75156,-2.12845 1.24184,-3.12075c1.30936,-2.63928 2.38973,-3.5024 4.98204,-3.98093c0.49908,-0.09101 3.76075,0.02349 4.84406,0.17321M568.9963,670.23195c0.2378,1.83193 0.21138,4.65029 -0.05578,5.69837c-0.40807,1.58826 -1.32111,2.62166 -3.29689,3.72552c-0.72514,0.40514 -2.79781,1.2712 -3.38497,1.41505l-0.32587,0.07927l0.03229,-4.43598l0.02936,-4.43304l0.96881,-0.40514c0.53138,-0.22312 2.03744,-0.94826 3.3468,-1.61175c1.30643,-0.66349 2.41028,-1.21248 2.45432,-1.22129c0.0411,-0.00881 0.14385,0.52844 0.23193,1.189M539.15398,670.49617c-3.89873,0.78092 -6.81104,4.04552 -8.86609,9.93472c-1.21248,3.47891 -2.29579,8.49031 -2.06093,9.53839c0.25541,1.12147 1.189,2.05212 2.31047,2.28992c1.15377,0.24661 5.91562,-0.76918 9.54426,-2.0345c6.87269,-2.39854 10.11967,-5.88039 10.12261,-10.86243c0,-1.65285 -0.26422,-2.80368 -0.97762,-4.22754c-0.39927,-0.7956 -0.71633,-1.21248 -1.55891,-2.05505c-1.44441,-1.44441 -2.79781,-2.20478 -4.618,-2.58937c-0.96,-0.20257 -2.86827,-0.20257 -3.89579,0.00587M542.50078,676.47051c0.64881,0.30239 1.09799,0.71046 1.49725,1.3534c0.22606,0.3611 0.26422,0.58716 0.26422,1.53835c0,1.0011 -0.03229,1.17138 -0.31707,1.65579c-0.54899,0.93065 -1.60001,1.7879 -3.14717,2.56295c-1.28881,0.64294 -4.3802,1.75267 -5.45764,1.9523l-0.44624,0.08514l0.08514,-0.45798c0.19083,-1.0334 1.28588,-4.07194 1.94056,-5.39305c0.94826,-1.91414 2.05505,-3.12955 3.14717,-3.45836c0.67523,-0.20551 1.81725,-0.12917 2.43377,0.16147" className="SFSymbolsPreviewWireframe"/></g>
 </g>
</svg>