<?xml version="1.0" encoding="UTF-8"?><!--Generator: SymbolKit.app--><!DOCTYPE svg PUBLIC "-//W3C//DTD SVG 1.1//EN" "http://www.w3.org/Graphics/SVG/1.1/DTD/svg11.dtd"><svg xmlns="http://www.w3.org/2000/svg" xmlns:xlink="http://www.w3.org/1999/xlink" version="1.1" viewBox="0 0 3300 2200">
 <!--glyph: "100092", point size: 100.0, font version: "20.0d10e1", template writer version: "138.0.0"-->
 <style>.SFSymbolsPreviewWireframe {fill:none;opacity:1.0;stroke:black;stroke-width:0.5}
</style>
 <g id="Notes">
  <rect height="2200" id="artboard" style="fill:white;opacity:1" width="3300" x="0" y="0"/>
  <line style="fill:none;stroke:black;opacity:1;stroke-width:0.5;" x1="263" x2="3036" y1="292" y2="292"/>
  <text style="stroke:none;fill:black;font-family:sans-serif;font-size:13;font-weight:bold;" transform="matrix(1 0 0 1 263 322)">Weight/Scale Variations</text>
  <text style="stroke:none;fill:black;font-family:sans-serif;font-size:13;text-anchor:middle;" transform="matrix(1 0 0 1 559.711 322)">Ultralight</text>
  <text style="stroke:none;fill:black;font-family:sans-serif;font-size:13;text-anchor:middle;" transform="matrix(1 0 0 1 856.422 322)">Thin</text>
  <text style="stroke:none;fill:black;font-family:sans-serif;font-size:13;text-anchor:middle;" transform="matrix(1 0 0 1 1153.13 322)">Light</text>
  <text style="stroke:none;fill:black;font-family:sans-serif;font-size:13;text-anchor:middle;" transform="matrix(1 0 0 1 1449.84 322)">Regular</text>
  <text style="stroke:none;fill:black;font-family:sans-serif;font-size:13;text-anchor:middle;" transform="matrix(1 0 0 1 1746.56 322)">Medium</text>
  <text style="stroke:none;fill:black;font-family:sans-serif;font-size:13;text-anchor:middle;" transform="matrix(1 0 0 1 2043.27 322)">Semibold</text>
  <text style="stroke:none;fill:black;font-family:sans-serif;font-size:13;text-anchor:middle;" transform="matrix(1 0 0 1 2339.98 322)">Bold</text>
  <text style="stroke:none;fill:black;font-family:sans-serif;font-size:13;text-anchor:middle;" transform="matrix(1 0 0 1 2636.69 322)">Heavy</text>
  <text style="stroke:none;fill:black;font-family:sans-serif;font-size:13;text-anchor:middle;" transform="matrix(1 0 0 1 2933.4 322)">Black</text>
  <line style="fill:none;stroke:black;opacity:1;stroke-width:0.5;" x1="263" x2="3036" y1="1903" y2="1903"/>
  <g transform="matrix(0.2 0 0 0.2 263 1933)">
   <path d="m46.2402 4.15039c21.7773 0 39.4531-17.627 39.4531-39.4043s-17.6758-39.4043-39.4531-39.4043c-21.7285 0-39.4043 17.627-39.4043 39.4043s17.6758 39.4043 39.4043 39.4043Zm0-7.42188c-17.6758 0-31.9336-14.3066-31.9336-31.9824s14.2578-31.9824 31.9336-31.9824 31.9824 14.3066 31.9824 31.9824-14.3066 31.9824-31.9824 31.9824Zm-17.9688-31.9824c0 2.14844 1.51367 3.61328 3.75977 3.61328h10.498v10.5957c0 2.19727 1.46484 3.71094 3.61328 3.71094 2.24609 0 3.71094-1.51367 3.71094-3.71094v-10.5957h10.5957c2.19727 0 3.71094-1.46484 3.71094-3.61328 0-2.19727-1.51367-3.71094-3.71094-3.71094h-10.5957v-10.5469c0-2.24609-1.46484-3.75977-3.71094-3.75977-2.14844 0-3.61328 1.51367-3.61328 3.75977v10.5469h-10.498c-2.24609 0-3.75977 1.51367-3.75977 3.71094Z"/>
  </g>
  <g transform="matrix(0.2 0 0 0.2 281.506 1933)">
   <path d="m58.5449 14.5508c27.4902 0 49.8047-22.3145 49.8047-49.8047s-22.3145-49.8047-49.8047-49.8047-49.8047 22.3145-49.8047 49.8047 22.3145 49.8047 49.8047 49.8047Zm0-8.30078c-22.9492 0-41.5039-18.5547-41.5039-41.5039s18.5547-41.5039 41.5039-41.5039 41.5039 18.5547 41.5039 41.5039-18.5547 41.5039-41.5039 41.5039Zm-22.6562-41.5039c0 2.39258 1.66016 4.00391 4.15039 4.00391h14.3555v14.4043c0 2.44141 1.66016 4.15039 4.05273 4.15039 2.44141 0 4.15039-1.66016 4.15039-4.15039v-14.4043h14.4043c2.44141 0 4.15039-1.61133 4.15039-4.00391 0-2.44141-1.70898-4.15039-4.15039-4.15039h-14.4043v-14.3555c0-2.49023-1.70898-4.19922-4.15039-4.19922-2.39258 0-4.05273 1.70898-4.05273 4.19922v14.3555h-14.3555c-2.49023 0-4.15039 1.70898-4.15039 4.15039Z"/>
  </g>
  <g transform="matrix(0.2 0 0 0.2 304.924 1933)">
   <path d="m74.8535 28.3203c35.1074 0 63.623-28.4668 63.623-63.5742s-28.5156-63.623-63.623-63.623-63.5742 28.5156-63.5742 63.623 28.4668 63.5742 63.5742 63.5742Zm0-9.08203c-30.127 0-54.4922-24.3652-54.4922-54.4922s24.3652-54.4922 54.4922-54.4922 54.4922 24.3652 54.4922 54.4922-24.3652 54.4922-54.4922 54.4922Zm-28.8574-54.4922c0 2.58789 1.85547 4.39453 4.58984 4.39453h19.7266v19.7754c0 2.68555 1.85547 4.58984 4.44336 4.58984 2.68555 0 4.54102-1.85547 4.54102-4.58984v-19.7754h19.7754c2.68555 0 4.58984-1.80664 4.58984-4.39453 0-2.73438-1.85547-4.58984-4.58984-4.58984h-19.7754v-19.7266c0-2.73438-1.85547-4.63867-4.54102-4.63867-2.58789 0-4.44336 1.9043-4.44336 4.63867v19.7266h-19.7266c-2.73438 0-4.58984 1.85547-4.58984 4.58984Z"/>
  </g>
  <text style="stroke:none;fill:black;font-family:sans-serif;font-size:13;font-weight:bold;" transform="matrix(1 0 0 1 263 1953)">Design Variations</text>
  <text style="stroke:none;fill:black;font-family:sans-serif;font-size:13;" transform="matrix(1 0 0 1 263 1971)">Symbols are supported in up to nine weights and three scales.</text>
  <text style="stroke:none;fill:black;font-family:sans-serif;font-size:13;" transform="matrix(1 0 0 1 263 1989)">For optimal layout with text and other symbols, vertically align</text>
  <text style="stroke:none;fill:black;font-family:sans-serif;font-size:13;" transform="matrix(1 0 0 1 263 2007)">symbols with the adjacent text.</text>
  <line style="fill:none;stroke:#00AEEF;stroke-width:0.5;opacity:1.0;" x1="776" x2="776" y1="1919" y2="1933"/>
  <g transform="matrix(0.2 0 0 0.2 776 1933)">
   <path d="m16.5527 0.78125c2.58789 0 3.85742-0.976562 4.78516-3.71094l6.29883-17.2363h28.8086l6.29883 17.2363c0.927734 2.73438 2.19727 3.71094 4.73633 3.71094 2.58789 0 4.24805-1.5625 4.24805-4.00391 0-0.830078-0.146484-1.61133-0.537109-2.63672l-22.9004-60.9863c-1.12305-2.97852-3.125-4.49219-6.25-4.49219-3.02734 0-5.07812 1.46484-6.15234 4.44336l-22.9004 61.084c-0.390625 1.02539-0.537109 1.80664-0.537109 2.63672 0 2.44141 1.5625 3.95508 4.10156 3.95508Zm13.4766-28.3691 11.8652-32.8613h0.244141l11.8652 32.8613Z"/>
  </g>
  <line style="fill:none;stroke:#00AEEF;stroke-width:0.5;opacity:1.0;" x1="792.836" x2="792.836" y1="1919" y2="1933"/>
  <text style="stroke:none;fill:black;font-family:sans-serif;font-size:13;font-weight:bold;" transform="matrix(1 0 0 1 776 1953)">Margins</text>
  <text style="stroke:none;fill:black;font-family:sans-serif;font-size:13;" transform="matrix(1 0 0 1 776 1971)">Leading and trailing margins on the left and right side of each symbol</text>
  <text style="stroke:none;fill:black;font-family:sans-serif;font-size:13;" transform="matrix(1 0 0 1 776 1989)">can be adjusted by modifying the x-location of the margin guidelines.</text>
  <text style="stroke:none;fill:black;font-family:sans-serif;font-size:13;" transform="matrix(1 0 0 1 776 2007)">Modifications are automatically applied proportionally to all</text>
  <text style="stroke:none;fill:black;font-family:sans-serif;font-size:13;" transform="matrix(1 0 0 1 776 2025)">scales and weights.</text>
  <g transform="matrix(0.2 0 0 0.2 1289 1933)">
   <path d="m14.209 9.32617 8.49609 8.54492c4.29688 4.3457 9.22852 4.05273 13.8672-1.07422l53.4668-58.9355-4.83398-4.88281-53.0762 58.3984c-1.75781 2.00195-3.41797 2.49023-5.76172 0.146484l-5.85938-5.81055c-2.34375-2.29492-1.80664-4.00391 0.195312-5.81055l57.373-54.0039-4.88281-4.83398-57.959 54.4434c-4.93164 4.58984-5.32227 9.47266-1.02539 13.8184Zm32.0801-90.9668c-2.09961 2.05078-2.24609 4.93164-1.07422 6.88477 1.17188 1.80664 3.4668 2.97852 6.68945 2.14844 7.32422-1.70898 14.9414-2.00195 22.0703 2.68555l-2.92969 7.27539c-1.70898 4.15039-0.830078 7.08008 1.85547 9.81445l11.4746 11.5723c2.44141 2.44141 4.49219 2.53906 7.32422 2.05078l5.32227-0.976562 3.32031 3.36914-0.195312 2.7832c-0.195312 2.49023 0.439453 4.39453 2.88086 6.78711l3.80859 3.71094c2.39258 2.39258 5.46875 2.53906 7.8125 0.195312l14.5508-14.5996c2.34375-2.34375 2.24609-5.32227-0.146484-7.71484l-3.85742-3.80859c-2.39258-2.39258-4.24805-3.17383-6.64062-2.97852l-2.88086 0.244141-3.22266-3.17383 1.2207-5.61523c0.634766-2.83203-0.146484-5.0293-3.07617-7.95898l-10.9863-10.9375c-16.6992-16.6016-38.8672-16.2109-53.3203-1.75781Zm7.4707 1.85547c12.1582-8.88672 28.6133-7.37305 39.7461 3.75977l12.1582 12.0605c1.17188 1.17188 1.36719 2.09961 1.02539 3.80859l-1.61133 7.42188 7.51953 7.42188 4.93164-0.292969c1.26953-0.0488281 1.66016 0.0488281 2.63672 1.02539l2.88086 2.88086-12.207 12.207-2.88086-2.88086c-0.976562-0.976562-1.12305-1.36719-1.07422-2.68555l0.341797-4.88281-7.4707-7.42188-7.61719 1.26953c-1.61133 0.341797-2.34375 0.195312-3.56445-0.976562l-10.0098-10.0098c-1.26953-1.17188-1.41602-2.00195-0.634766-3.85742l4.39453-10.4492c-7.8125-7.27539-17.9688-10.4004-28.125-7.42188-0.78125 0.195312-1.07422-0.439453-0.439453-0.976562Z"/>
  </g>
  <text style="stroke:none;fill:black;font-family:sans-serif;font-size:13;font-weight:bold;" transform="matrix(1 0 0 1 1289 1953)">Exporting</text>
  <text style="stroke:none;fill:black;font-family:sans-serif;font-size:13;" transform="matrix(1 0 0 1 1289 1971)">Symbols should be outlined when exporting to ensure the</text>
  <text style="stroke:none;fill:black;font-family:sans-serif;font-size:13;" transform="matrix(1 0 0 1 1289 1989)">design is preserved when submitting to Xcode.</text>
  <text id="template-version" style="stroke:none;fill:black;font-family:sans-serif;font-size:13;text-anchor:end;" transform="matrix(1 0 0 1 3036 1933)">Template v.6.0</text>
  <text style="stroke:none;fill:black;font-family:sans-serif;font-size:13;text-anchor:end;" transform="matrix(1 0 0 1 3036 1951)">Requires Xcode 16 or greater</text>
  <text id="descriptive-name" style="stroke:none;fill:black;font-family:sans-serif;font-size:13;text-anchor:end;" transform="matrix(1 0 0 1 3036 1969)">Generated from square</text>
  <text style="stroke:none;fill:black;font-family:sans-serif;font-size:13;text-anchor:end;" transform="matrix(1 0 0 1 3036 1987)">Typeset at 100.0 points</text>
  <text style="stroke:none;fill:black;font-family:sans-serif;font-size:13;" transform="matrix(1 0 0 1 263 726)">Small</text>
  <text style="stroke:none;fill:black;font-family:sans-serif;font-size:13;" transform="matrix(1 0 0 1 263 1156)">Medium</text>
  <text style="stroke:none;fill:black;font-family:sans-serif;font-size:13;" transform="matrix(1 0 0 1 263 1586)">Large</text>
 </g>
 <g id="Guides">
  <g id="H-reference" style="fill:#27AAE1;stroke:none;" transform="matrix(1 0 0 1 339 696)">
   <path d="M0.993654 0L3.63775 0L29.3281-67.1323L30.0303-67.1323L30.0303-70.459L28.1226-70.459ZM11.6885-24.4799L46.9815-24.4799L46.2315-26.7285L12.4385-26.7285ZM55.1196 0L57.7637 0L30.6382-70.459L29.4326-70.459L29.4326-67.1323Z"/>
  </g>
  <line id="Baseline-S" style="fill:none;stroke:#27AAE1;opacity:1;stroke-width:0.5;" x1="263" x2="3036" y1="696" y2="696"/>
  <line id="Capline-S" style="fill:none;stroke:#27AAE1;opacity:1;stroke-width:0.5;" x1="263" x2="3036" y1="625.541" y2="625.541"/>
  <g id="H-reference" style="fill:#27AAE1;stroke:none;" transform="matrix(1 0 0 1 339 1126)">
   <path d="M0.993654 0L3.63775 0L29.3281-67.1323L30.0303-67.1323L30.0303-70.459L28.1226-70.459ZM11.6885-24.4799L46.9815-24.4799L46.2315-26.7285L12.4385-26.7285ZM55.1196 0L57.7637 0L30.6382-70.459L29.4326-70.459L29.4326-67.1323Z"/>
  </g>
  <line id="Baseline-M" style="fill:none;stroke:#27AAE1;opacity:1;stroke-width:0.5;" x1="263" x2="3036" y1="1126" y2="1126"/>
  <line id="Capline-M" style="fill:none;stroke:#27AAE1;opacity:1;stroke-width:0.5;" x1="263" x2="3036" y1="1055.54" y2="1055.54"/>
  <g id="H-reference" style="fill:#27AAE1;stroke:none;" transform="matrix(1 0 0 1 339 1556)">
   <path d="M0.993654 0L3.63775 0L29.3281-67.1323L30.0303-67.1323L30.0303-70.459L28.1226-70.459ZM11.6885-24.4799L46.9815-24.4799L46.2315-26.7285L12.4385-26.7285ZM55.1196 0L57.7637 0L30.6382-70.459L29.4326-70.459L29.4326-67.1323Z"/>
  </g>
  <line id="Baseline-L" style="fill:none;stroke:#27AAE1;opacity:1;stroke-width:0.5;" x1="263" x2="3036" y1="1556" y2="1556"/>
  <line id="Capline-L" style="fill:none;stroke:#27AAE1;opacity:1;stroke-width:0.5;" x1="263" x2="3036" y1="1485.54" y2="1485.54"/>
  <line id="right-margin-Black-S" style="fill:none;stroke:#00AEEF;stroke-width:0.5;opacity:1.0;" x1="2981.3" x2="2981.3" y1="600.785" y2="720.121"/>
  <line id="left-margin-Black-S" style="fill:none;stroke:#00AEEF;stroke-width:0.5;opacity:1.0;" x1="2885.5" x2="2885.5" y1="600.785" y2="720.121"/>
  <line id="right-margin-Regular-S" style="fill:none;stroke:#00AEEF;stroke-width:0.5;opacity:1.0;" x1="1495.18" x2="1495.18" y1="600.785" y2="720.121"/>
  <line id="left-margin-Regular-S" style="fill:none;stroke:#00AEEF;stroke-width:0.5;opacity:1.0;" x1="1404.51" x2="1404.51" y1="600.785" y2="720.121"/>
  <line id="right-margin-Ultralight-S" style="fill:none;stroke:#00AEEF;stroke-width:0.5;opacity:1.0;" x1="603.073" x2="603.073" y1="600.785" y2="720.121"/>
  <line id="left-margin-Ultralight-S" style="fill:none;stroke:#00AEEF;stroke-width:0.5;opacity:1.0;" x1="516.35" x2="516.35" y1="600.785" y2="720.121"/>
 </g>
 <g id="Symbols">
  <g id="Black-S"><path d="M2914.02885,631.47211c-1.43854,0.31413 -3.35854,1.40331 -4.35965,2.47781c-0.66055,0.70459 -1.82313,2.29872 -2.70386,3.69616c-5.53984,8.80737 -7.29544,19.82833 -4.63268,29.07901c1.59413,5.5369 4.17469,9.90536 8.28187,14.00959c2.8213,2.82423 5.4136,4.68259 8.75453,6.28553c11.00041,5.27268 23.68596,4.01323 33.51793,-3.32625c1.7879,-1.33285 4.92919,-4.47415 6.26204,-6.26204c3.09432,-4.14534 5.13176,-8.79269 6.01837,-13.72482c1.13615,-6.31195 0.41688,-12.06023 -2.16074,-17.32704c-3.87231,-7.90315 -11.17362,-13.23161 -19.97512,-14.57914c-1.86129,-0.28477 -5.65433,-0.28477 -7.51562,0c-1.72331,0.26422 -3.49946,0.69578 -4.99084,1.21542c-1.47377,0.51376 -4.18644,1.82606 -5.34314,2.5835c-0.48441,0.31707 -0.94239,0.61358 -1.01578,0.65762c-0.0822,0.04991 -0.31707,-0.22899 -0.61652,-0.73395c-1.15377,-1.94349 -3.15304,-3.41726 -5.40773,-3.98387c-1.16551,-0.29358 -2.92992,-0.32294 -4.11304,-0.06752M2917.30519,637.45231c1.09505,0.55193 1.77028,1.81432 1.59413,2.97689c-0.09982,0.67523 -0.26716,1.00404 -1.05101,2.06386c-4.83231,6.56149 -6.31489,15.74465 -3.658,22.70541c2.6657,6.98131 8.72517,11.87234 16.21731,13.08188c1.20955,0.19376 4.77653,0.19376 5.98901,0c9.06866,-1.46202 15.89731,-8.29361 17.33585,-17.33878c0.23193,-1.4679 0.20551,-4.61213 -0.05284,-5.81287c-1.08037,-5.04956 -4.51231,-9.09802 -9.25948,-10.92114c-3.09432,-1.189 -7.19562,-1.189 -10.28995,0c-3.46717,1.33285 -6.38828,3.978 -7.99122,7.23672c-1.06276,2.16074 -1.48551,3.978 -1.48551,6.38535c0.00294,1.45322 0.0411,1.83193 0.27596,2.5835c0.90129,2.89469 3.11194,5.10534 6.00663,6.00663c1.27413,0.39633 3.658,0.39633 4.93213,0c2.89763,-0.90129 5.12002,-3.12662 6.00369,-6.00663c0.20551,-0.6723 0.27009,-1.17432 0.27303,-2.11377c0.00587,-1.13615 -0.02055,-1.27413 -0.31413,-1.77909c-0.88954,-1.51487 -2.90056,-1.93762 -4.30387,-0.90716c-0.69285,0.51083 -1.05101,1.18606 -1.18312,2.23414c-0.06165,0.48147 -0.16734,1.02166 -0.23486,1.20074c-0.20844,0.54606 -0.71927,1.12441 -1.28588,1.45909c-0.45798,0.26716 -0.67523,0.31707 -1.42092,0.31707c-0.74569,0 -0.96294,-0.04991 -1.42092,-0.31707c-1.11854,-0.65762 -1.57065,-1.62643 -1.47083,-3.15304c0.24367,-3.65506 2.72441,-6.77581 6.23562,-7.84737c0.80147,-0.24367 1.18312,-0.28771 2.52772,-0.28771c1.34459,0 1.72625,0.04404 2.52772,0.28771c3.45543,1.05395 5.93617,4.11891 6.23268,7.71232c0.08807,1.0745 -0.11156,3.13836 -0.42569,4.36846c-1.0334,4.06313 -3.9457,7.64774 -7.71232,9.50022c-2.18716,1.0745 -3.96332,1.47964 -6.49397,1.47964c-1.96698,0 -3.06497,-0.17028 -4.69727,-0.72808c-4.13066,-1.41212 -7.46278,-4.63561 -9.04224,-8.74866c-1.30349,-3.39377 -1.18606,-7.9648 0.31413,-12.13069c2.56295,-7.11929 8.90132,-12.26867 16.41988,-13.34023c2.24001,-0.32 5.53984,-0.15853 7.75049,0.37872c8.10865,1.96992 14.2562,8.7604 15.45694,17.07162c0.22312,1.54423 0.19376,4.99378 -0.05578,6.63489c-0.88661,5.83048 -3.47891,10.9505 -7.6037,15.03125c-2.11377,2.09028 -4.13359,3.52589 -6.85801,4.87635c-7.43636,3.68735 -16.13217,3.6668 -23.48633,-0.05578c-2.7479,-1.38863 -4.69727,-2.78607 -6.79636,-4.87341c-2.149,-2.13432 -3.81066,-4.45947 -5.12296,-7.1692c-1.25652,-2.5923 -1.96404,-4.84993 -2.42203,-7.75049c-0.26716,-1.68808 -0.27009,-5.84516 -0.00294,-7.86792c0.65762,-5.01727 2.33689,-9.56187 5.04075,-13.64262c1.73212,-2.61873 2.29285,-3.08258 3.6991,-3.08845c0.55486,-0.00294 0.88074,0.06752 1.30936,0.28771" className="SFSymbolsPreviewWireframe"/></g>
  <g id="Regular-S"><path d="M1430.4738,631.47211c-1.43854,0.31413 -3.35854,1.40331 -4.35965,2.47781c-0.66055,0.70459 -1.82313,2.29872 -2.70386,3.69616c-5.53984,8.80737 -7.29544,19.82833 -4.63268,29.07901c1.59413,5.5369 4.17469,9.90536 8.28187,14.00959c2.8213,2.82423 5.4136,4.68259 8.75453,6.28553c11.00041,5.27268 23.68596,4.01323 33.51793,-3.32625c1.7879,-1.33285 4.92919,-4.47415 6.26204,-6.26204c3.09432,-4.14534 5.13176,-8.79269 6.01837,-13.72482c1.13615,-6.31195 0.41688,-12.06023 -2.16074,-17.32704c-3.87231,-7.90315 -11.17362,-13.23161 -19.97512,-14.57914c-1.86129,-0.28477 -5.65433,-0.28477 -7.51562,0c-1.72331,0.26422 -3.49946,0.69578 -4.99084,1.21542c-1.47377,0.51376 -4.18644,1.82606 -5.34314,2.5835c-0.48441,0.31707 -0.94239,0.61358 -1.01578,0.65762c-0.0822,0.04991 -0.31707,-0.22899 -0.61652,-0.73395c-1.15377,-1.94349 -3.15304,-3.41726 -5.40773,-3.98387c-1.16551,-0.29358 -2.92992,-0.32294 -4.11304,-0.06752M1433.75014,637.45231c1.09505,0.55193 1.77028,1.81432 1.59413,2.97689c-0.09982,0.67523 -0.26716,1.00404 -1.05101,2.06386c-4.83231,6.56149 -6.31489,15.74465 -3.658,22.70541c2.6657,6.98131 8.72517,11.87234 16.21731,13.08188c1.20955,0.19376 4.77653,0.19376 5.98901,0c9.06866,-1.46202 15.89731,-8.29361 17.33585,-17.33878c0.23193,-1.4679 0.20551,-4.61213 -0.05284,-5.81287c-1.08037,-5.04956 -4.51231,-9.09802 -9.25948,-10.92114c-3.09432,-1.189 -7.19562,-1.189 -10.28995,0c-3.46717,1.33285 -6.38828,3.978 -7.99122,7.23672c-1.06276,2.16074 -1.48551,3.978 -1.48551,6.38535c0.00294,1.45322 0.0411,1.83193 0.27596,2.5835c0.90129,2.89469 3.11194,5.10534 6.00663,6.00663c1.27413,0.39633 3.658,0.39633 4.93213,0c2.89763,-0.90129 5.12002,-3.12662 6.00369,-6.00663c0.20551,-0.6723 0.27009,-1.17432 0.27303,-2.11377c0.00587,-1.13615 -0.02055,-1.27413 -0.31413,-1.77909c-0.88954,-1.51487 -2.90056,-1.93762 -4.30387,-0.90716c-0.69285,0.51083 -1.05101,1.18606 -1.18312,2.23414c-0.06165,0.48147 -0.16734,1.02166 -0.23486,1.20074c-0.20844,0.54606 -0.71927,1.12441 -1.28588,1.45909c-0.45798,0.26716 -0.67523,0.31707 -1.42092,0.31707c-0.74569,0 -0.96294,-0.04991 -1.42092,-0.31707c-1.11854,-0.65762 -1.57065,-1.62643 -1.47083,-3.15304c0.24367,-3.65506 2.72441,-6.77581 6.23562,-7.84737c0.80147,-0.24367 1.18312,-0.28771 2.52772,-0.28771c1.34459,0 1.72625,0.04404 2.52772,0.28771c3.45543,1.05395 5.93617,4.11891 6.23268,7.71232c0.08807,1.0745 -0.11156,3.13836 -0.42569,4.36846c-1.0334,4.06313 -3.9457,7.64774 -7.71232,9.50022c-2.18716,1.0745 -3.96332,1.47964 -6.49397,1.47964c-1.96698,0 -3.06497,-0.17028 -4.69727,-0.72808c-4.13066,-1.41212 -7.46278,-4.63561 -9.04224,-8.74866c-1.30349,-3.39377 -1.18606,-7.9648 0.31413,-12.13069c2.56295,-7.11929 8.90132,-12.26867 16.41988,-13.34023c2.24001,-0.32 5.53984,-0.15853 7.75049,0.37872c8.10865,1.96992 14.2562,8.7604 15.45694,17.07162c0.22312,1.54423 0.19376,4.99378 -0.05578,6.63489c-0.88661,5.83048 -3.47891,10.9505 -7.6037,15.03125c-2.11377,2.09028 -4.13359,3.52589 -6.85801,4.87635c-7.43636,3.68735 -16.13217,3.6668 -23.48633,-0.05578c-2.7479,-1.38863 -4.69727,-2.78607 -6.79636,-4.87341c-2.149,-2.13432 -3.81066,-4.45947 -5.12296,-7.1692c-1.25652,-2.5923 -1.96404,-4.84993 -2.42203,-7.75049c-0.26716,-1.68808 -0.27009,-5.84516 -0.00294,-7.86792c0.65762,-5.01727 2.33689,-9.56187 5.04075,-13.64262c1.73212,-2.61873 2.29285,-3.08258 3.6991,-3.08845c0.55486,-0.00294 0.88074,0.06752 1.30936,0.28771" className="SFSymbolsPreviewWireframe"/></g>
  <g id="Ultralight-S"><path d="M540.34021,631.47211c-1.43854,0.31413 -3.35854,1.40331 -4.35965,2.47781c-0.66055,0.70459 -1.82313,2.29872 -2.70386,3.69616c-5.53984,8.80737 -7.29544,19.82833 -4.63268,29.07901c1.59413,5.5369 4.17469,9.90536 8.28187,14.00959c2.8213,2.82423 5.4136,4.68259 8.75453,6.28553c11.00041,5.27268 23.68596,4.01323 33.51793,-3.32625c1.7879,-1.33285 4.92919,-4.47415 6.26204,-6.26204c3.09432,-4.14534 5.13176,-8.79269 6.01837,-13.72482c1.13615,-6.31195 0.41688,-12.06023 -2.16074,-17.32704c-3.87231,-7.90315 -11.17362,-13.23161 -19.97512,-14.57914c-1.86129,-0.28477 -5.65433,-0.28477 -7.51562,0c-1.72331,0.26422 -3.49946,0.69578 -4.99084,1.21542c-1.47377,0.51376 -4.18644,1.82606 -5.34314,2.5835c-0.48441,0.31707 -0.94239,0.61358 -1.01578,0.65762c-0.0822,0.04991 -0.31707,-0.22899 -0.61652,-0.73395c-1.15377,-1.94349 -3.15304,-3.41726 -5.40773,-3.98387c-1.16551,-0.29358 -2.92992,-0.32294 -4.11304,-0.06752M543.61655,637.45231c1.09505,0.55193 1.77028,1.81432 1.59413,2.97689c-0.09982,0.67523 -0.26716,1.00404 -1.05101,2.06386c-4.83231,6.56149 -6.31489,15.74465 -3.658,22.70541c2.6657,6.98131 8.72517,11.87234 16.21731,13.08188c1.20955,0.19376 4.77653,0.19376 5.98901,0c9.06866,-1.46202 15.89731,-8.29361 17.33585,-17.33878c0.23193,-1.4679 0.20551,-4.61213 -0.05284,-5.81287c-1.08037,-5.04956 -4.51231,-9.09802 -9.25948,-10.92114c-3.09432,-1.189 -7.19562,-1.189 -10.28995,0c-3.46717,1.33285 -6.38828,3.978 -7.99122,7.23672c-1.06276,2.16074 -1.48551,3.978 -1.48551,6.38535c0.00294,1.45322 0.0411,1.83193 0.27596,2.5835c0.90129,2.89469 3.11194,5.10534 6.00663,6.00663c1.27413,0.39633 3.658,0.39633 4.93213,0c2.89763,-0.90129 5.12002,-3.12662 6.00369,-6.00663c0.20551,-0.6723 0.27009,-1.17432 0.27303,-2.11377c0.00587,-1.13615 -0.02055,-1.27413 -0.31413,-1.77909c-0.88954,-1.51487 -2.90056,-1.93762 -4.30387,-0.90716c-0.69285,0.51083 -1.05101,1.18606 -1.18312,2.23414c-0.06165,0.48147 -0.16734,1.02166 -0.23486,1.20074c-0.20844,0.54606 -0.71927,1.12441 -1.28588,1.45909c-0.45798,0.26716 -0.67523,0.31707 -1.42092,0.31707c-0.74569,0 -0.96294,-0.04991 -1.42092,-0.31707c-1.11854,-0.65762 -1.57065,-1.62643 -1.47083,-3.15304c0.24367,-3.65506 2.72441,-6.77581 6.23562,-7.84737c0.80147,-0.24367 1.18312,-0.28771 2.52772,-0.28771c1.34459,0 1.72625,0.04404 2.52772,0.28771c3.45543,1.05395 5.93617,4.11891 6.23268,7.71232c0.08807,1.0745 -0.11156,3.13836 -0.42569,4.36846c-1.0334,4.06313 -3.9457,7.64774 -7.71232,9.50022c-2.18716,1.0745 -3.96332,1.47964 -6.49397,1.47964c-1.96698,0 -3.06497,-0.17028 -4.69727,-0.72808c-4.13066,-1.41212 -7.46278,-4.63561 -9.04224,-8.74866c-1.30349,-3.39377 -1.18606,-7.9648 0.31413,-12.13069c2.56295,-7.11929 8.90132,-12.26867 16.41988,-13.34023c2.24001,-0.32 5.53984,-0.15853 7.75049,0.37872c8.10865,1.96992 14.2562,8.7604 15.45694,17.07162c0.22312,1.54423 0.19376,4.99378 -0.05578,6.63489c-0.88661,5.83048 -3.47891,10.9505 -7.6037,15.03125c-2.11377,2.09028 -4.13359,3.52589 -6.85801,4.87635c-7.43636,3.68735 -16.13217,3.6668 -23.48633,-0.05578c-2.7479,-1.38863 -4.69727,-2.78607 -6.79636,-4.87341c-2.149,-2.13432 -3.81066,-4.45947 -5.12296,-7.1692c-1.25652,-2.5923 -1.96404,-4.84993 -2.42203,-7.75049c-0.26716,-1.68808 -0.27009,-5.84516 -0.00294,-7.86792c0.65762,-5.01727 2.33689,-9.56187 5.04075,-13.64262c1.73212,-2.61873 2.29285,-3.08258 3.6991,-3.08845c0.55486,-0.00294 0.88074,0.06752 1.30936,0.28771" className="SFSymbolsPreviewWireframe"/></g>
 </g>
</svg>