<?xml version="1.0" encoding="UTF-8"?><!--Generator: SymbolKit.app--><!DOCTYPE svg PUBLIC "-//W3C//DTD SVG 1.1//EN" "http://www.w3.org/Graphics/SVG/1.1/DTD/svg11.dtd"><svg xmlns="http://www.w3.org/2000/svg" xmlns:xlink="http://www.w3.org/1999/xlink" version="1.1" viewBox="0 0 3300 2200">
 <!--glyph: "100092", point size: 100.0, font version: "20.0d10e1", template writer version: "138.0.0"-->
 <style>.SFSymbolsPreviewWireframe {fill:none;opacity:1.0;stroke:black;stroke-width:0.5}
</style>
 <g id="Notes">
  <rect height="2200" id="artboard" style="fill:white;opacity:1" width="3300" x="0" y="0"/>
  <line style="fill:none;stroke:black;opacity:1;stroke-width:0.5;" x1="263" x2="3036" y1="292" y2="292"/>
  <text style="stroke:none;fill:black;font-family:sans-serif;font-size:13;font-weight:bold;" transform="matrix(1 0 0 1 263 322)">Weight/Scale Variations</text>
  <text style="stroke:none;fill:black;font-family:sans-serif;font-size:13;text-anchor:middle;" transform="matrix(1 0 0 1 559.711 322)">Ultralight</text>
  <text style="stroke:none;fill:black;font-family:sans-serif;font-size:13;text-anchor:middle;" transform="matrix(1 0 0 1 856.422 322)">Thin</text>
  <text style="stroke:none;fill:black;font-family:sans-serif;font-size:13;text-anchor:middle;" transform="matrix(1 0 0 1 1153.13 322)">Light</text>
  <text style="stroke:none;fill:black;font-family:sans-serif;font-size:13;text-anchor:middle;" transform="matrix(1 0 0 1 1449.84 322)">Regular</text>
  <text style="stroke:none;fill:black;font-family:sans-serif;font-size:13;text-anchor:middle;" transform="matrix(1 0 0 1 1746.56 322)">Medium</text>
  <text style="stroke:none;fill:black;font-family:sans-serif;font-size:13;text-anchor:middle;" transform="matrix(1 0 0 1 2043.27 322)">Semibold</text>
  <text style="stroke:none;fill:black;font-family:sans-serif;font-size:13;text-anchor:middle;" transform="matrix(1 0 0 1 2339.98 322)">Bold</text>
  <text style="stroke:none;fill:black;font-family:sans-serif;font-size:13;text-anchor:middle;" transform="matrix(1 0 0 1 2636.69 322)">Heavy</text>
  <text style="stroke:none;fill:black;font-family:sans-serif;font-size:13;text-anchor:middle;" transform="matrix(1 0 0 1 2933.4 322)">Black</text>
  <line style="fill:none;stroke:black;opacity:1;stroke-width:0.5;" x1="263" x2="3036" y1="1903" y2="1903"/>
  <g transform="matrix(0.2 0 0 0.2 263 1933)">
   <path d="m46.2402 4.15039c21.7773 0 39.4531-17.627 39.4531-39.4043s-17.6758-39.4043-39.4531-39.4043c-21.7285 0-39.4043 17.627-39.4043 39.4043s17.6758 39.4043 39.4043 39.4043Zm0-7.42188c-17.6758 0-31.9336-14.3066-31.9336-31.9824s14.2578-31.9824 31.9336-31.9824 31.9824 14.3066 31.9824 31.9824-14.3066 31.9824-31.9824 31.9824Zm-17.9688-31.9824c0 2.14844 1.51367 3.61328 3.75977 3.61328h10.498v10.5957c0 2.19727 1.46484 3.71094 3.61328 3.71094 2.24609 0 3.71094-1.51367 3.71094-3.71094v-10.5957h10.5957c2.19727 0 3.71094-1.46484 3.71094-3.61328 0-2.19727-1.51367-3.71094-3.71094-3.71094h-10.5957v-10.5469c0-2.24609-1.46484-3.75977-3.71094-3.75977-2.14844 0-3.61328 1.51367-3.61328 3.75977v10.5469h-10.498c-2.24609 0-3.75977 1.51367-3.75977 3.71094Z"/>
  </g>
  <g transform="matrix(0.2 0 0 0.2 281.506 1933)">
   <path d="m58.5449 14.5508c27.4902 0 49.8047-22.3145 49.8047-49.8047s-22.3145-49.8047-49.8047-49.8047-49.8047 22.3145-49.8047 49.8047 22.3145 49.8047 49.8047 49.8047Zm0-8.30078c-22.9492 0-41.5039-18.5547-41.5039-41.5039s18.5547-41.5039 41.5039-41.5039 41.5039 18.5547 41.5039 41.5039-18.5547 41.5039-41.5039 41.5039Zm-22.6562-41.5039c0 2.39258 1.66016 4.00391 4.15039 4.00391h14.3555v14.4043c0 2.44141 1.66016 4.15039 4.05273 4.15039 2.44141 0 4.15039-1.66016 4.15039-4.15039v-14.4043h14.4043c2.44141 0 4.15039-1.61133 4.15039-4.00391 0-2.44141-1.70898-4.15039-4.15039-4.15039h-14.4043v-14.3555c0-2.49023-1.70898-4.19922-4.15039-4.19922-2.39258 0-4.05273 1.70898-4.05273 4.19922v14.3555h-14.3555c-2.49023 0-4.15039 1.70898-4.15039 4.15039Z"/>
  </g>
  <g transform="matrix(0.2 0 0 0.2 304.924 1933)">
   <path d="m74.8535 28.3203c35.1074 0 63.623-28.4668 63.623-63.5742s-28.5156-63.623-63.623-63.623-63.5742 28.5156-63.5742 63.623 28.4668 63.5742 63.5742 63.5742Zm0-9.08203c-30.127 0-54.4922-24.3652-54.4922-54.4922s24.3652-54.4922 54.4922-54.4922 54.4922 24.3652 54.4922 54.4922-24.3652 54.4922-54.4922 54.4922Zm-28.8574-54.4922c0 2.58789 1.85547 4.39453 4.58984 4.39453h19.7266v19.7754c0 2.68555 1.85547 4.58984 4.44336 4.58984 2.68555 0 4.54102-1.85547 4.54102-4.58984v-19.7754h19.7754c2.68555 0 4.58984-1.80664 4.58984-4.39453 0-2.73438-1.85547-4.58984-4.58984-4.58984h-19.7754v-19.7266c0-2.73438-1.85547-4.63867-4.54102-4.63867-2.58789 0-4.44336 1.9043-4.44336 4.63867v19.7266h-19.7266c-2.73438 0-4.58984 1.85547-4.58984 4.58984Z"/>
  </g>
  <text style="stroke:none;fill:black;font-family:sans-serif;font-size:13;font-weight:bold;" transform="matrix(1 0 0 1 263 1953)">Design Variations</text>
  <text style="stroke:none;fill:black;font-family:sans-serif;font-size:13;" transform="matrix(1 0 0 1 263 1971)">Symbols are supported in up to nine weights and three scales.</text>
  <text style="stroke:none;fill:black;font-family:sans-serif;font-size:13;" transform="matrix(1 0 0 1 263 1989)">For optimal layout with text and other symbols, vertically align</text>
  <text style="stroke:none;fill:black;font-family:sans-serif;font-size:13;" transform="matrix(1 0 0 1 263 2007)">symbols with the adjacent text.</text>
  <line style="fill:none;stroke:#00AEEF;stroke-width:0.5;opacity:1.0;" x1="776" x2="776" y1="1919" y2="1933"/>
  <g transform="matrix(0.2 0 0 0.2 776 1933)">
   <path d="m16.5527 0.78125c2.58789 0 3.85742-0.976562 4.78516-3.71094l6.29883-17.2363h28.8086l6.29883 17.2363c0.927734 2.73438 2.19727 3.71094 4.73633 3.71094 2.58789 0 4.24805-1.5625 4.24805-4.00391 0-0.830078-0.146484-1.61133-0.537109-2.63672l-22.9004-60.9863c-1.12305-2.97852-3.125-4.49219-6.25-4.49219-3.02734 0-5.07812 1.46484-6.15234 4.44336l-22.9004 61.084c-0.390625 1.02539-0.537109 1.80664-0.537109 2.63672 0 2.44141 1.5625 3.95508 4.10156 3.95508Zm13.4766-28.3691 11.8652-32.8613h0.244141l11.8652 32.8613Z"/>
  </g>
  <line style="fill:none;stroke:#00AEEF;stroke-width:0.5;opacity:1.0;" x1="792.836" x2="792.836" y1="1919" y2="1933"/>
  <text style="stroke:none;fill:black;font-family:sans-serif;font-size:13;font-weight:bold;" transform="matrix(1 0 0 1 776 1953)">Margins</text>
  <text style="stroke:none;fill:black;font-family:sans-serif;font-size:13;" transform="matrix(1 0 0 1 776 1971)">Leading and trailing margins on the left and right side of each symbol</text>
  <text style="stroke:none;fill:black;font-family:sans-serif;font-size:13;" transform="matrix(1 0 0 1 776 1989)">can be adjusted by modifying the x-location of the margin guidelines.</text>
  <text style="stroke:none;fill:black;font-family:sans-serif;font-size:13;" transform="matrix(1 0 0 1 776 2007)">Modifications are automatically applied proportionally to all</text>
  <text style="stroke:none;fill:black;font-family:sans-serif;font-size:13;" transform="matrix(1 0 0 1 776 2025)">scales and weights.</text>
  <g transform="matrix(0.2 0 0 0.2 1289 1933)">
   <path d="m14.209 9.32617 8.49609 8.54492c4.29688 4.3457 9.22852 4.05273 13.8672-1.07422l53.4668-58.9355-4.83398-4.88281-53.0762 58.3984c-1.75781 2.00195-3.41797 2.49023-5.76172 0.146484l-5.85938-5.81055c-2.34375-2.29492-1.80664-4.00391 0.195312-5.81055l57.373-54.0039-4.88281-4.83398-57.959 54.4434c-4.93164 4.58984-5.32227 9.47266-1.02539 13.8184Zm32.0801-90.9668c-2.09961 2.05078-2.24609 4.93164-1.07422 6.88477 1.17188 1.80664 3.4668 2.97852 6.68945 2.14844 7.32422-1.70898 14.9414-2.00195 22.0703 2.68555l-2.92969 7.27539c-1.70898 4.15039-0.830078 7.08008 1.85547 9.81445l11.4746 11.5723c2.44141 2.44141 4.49219 2.53906 7.32422 2.05078l5.32227-0.976562 3.32031 3.36914-0.195312 2.7832c-0.195312 2.49023 0.439453 4.39453 2.88086 6.78711l3.80859 3.71094c2.39258 2.39258 5.46875 2.53906 7.8125 0.195312l14.5508-14.5996c2.34375-2.34375 2.24609-5.32227-0.146484-7.71484l-3.85742-3.80859c-2.39258-2.39258-4.24805-3.17383-6.64062-2.97852l-2.88086 0.244141-3.22266-3.17383 1.2207-5.61523c0.634766-2.83203-0.146484-5.0293-3.07617-7.95898l-10.9863-10.9375c-16.6992-16.6016-38.8672-16.2109-53.3203-1.75781Zm7.4707 1.85547c12.1582-8.88672 28.6133-7.37305 39.7461 3.75977l12.1582 12.0605c1.17188 1.17188 1.36719 2.09961 1.02539 3.80859l-1.61133 7.42188 7.51953 7.42188 4.93164-0.292969c1.26953-0.0488281 1.66016 0.0488281 2.63672 1.02539l2.88086 2.88086-12.207 12.207-2.88086-2.88086c-0.976562-0.976562-1.12305-1.36719-1.07422-2.68555l0.341797-4.88281-7.4707-7.42188-7.61719 1.26953c-1.61133 0.341797-2.34375 0.195312-3.56445-0.976562l-10.0098-10.0098c-1.26953-1.17188-1.41602-2.00195-0.634766-3.85742l4.39453-10.4492c-7.8125-7.27539-17.9688-10.4004-28.125-7.42188-0.78125 0.195312-1.07422-0.439453-0.439453-0.976562Z"/>
  </g>
  <text style="stroke:none;fill:black;font-family:sans-serif;font-size:13;font-weight:bold;" transform="matrix(1 0 0 1 1289 1953)">Exporting</text>
  <text style="stroke:none;fill:black;font-family:sans-serif;font-size:13;" transform="matrix(1 0 0 1 1289 1971)">Symbols should be outlined when exporting to ensure the</text>
  <text style="stroke:none;fill:black;font-family:sans-serif;font-size:13;" transform="matrix(1 0 0 1 1289 1989)">design is preserved when submitting to Xcode.</text>
  <text id="template-version" style="stroke:none;fill:black;font-family:sans-serif;font-size:13;text-anchor:end;" transform="matrix(1 0 0 1 3036 1933)">Template v.6.0</text>
  <text style="stroke:none;fill:black;font-family:sans-serif;font-size:13;text-anchor:end;" transform="matrix(1 0 0 1 3036 1951)">Requires Xcode 16 or greater</text>
  <text id="descriptive-name" style="stroke:none;fill:black;font-family:sans-serif;font-size:13;text-anchor:end;" transform="matrix(1 0 0 1 3036 1969)">Generated from square</text>
  <text style="stroke:none;fill:black;font-family:sans-serif;font-size:13;text-anchor:end;" transform="matrix(1 0 0 1 3036 1987)">Typeset at 100.0 points</text>
  <text style="stroke:none;fill:black;font-family:sans-serif;font-size:13;" transform="matrix(1 0 0 1 263 726)">Small</text>
  <text style="stroke:none;fill:black;font-family:sans-serif;font-size:13;" transform="matrix(1 0 0 1 263 1156)">Medium</text>
  <text style="stroke:none;fill:black;font-family:sans-serif;font-size:13;" transform="matrix(1 0 0 1 263 1586)">Large</text>
 </g>
 <g id="Guides">
  <g id="H-reference" style="fill:#27AAE1;stroke:none;" transform="matrix(1 0 0 1 339 696)">
   <path d="M0.993654 0L3.63775 0L29.3281-67.1323L30.0303-67.1323L30.0303-70.459L28.1226-70.459ZM11.6885-24.4799L46.9815-24.4799L46.2315-26.7285L12.4385-26.7285ZM55.1196 0L57.7637 0L30.6382-70.459L29.4326-70.459L29.4326-67.1323Z"/>
  </g>
  <line id="Baseline-S" style="fill:none;stroke:#27AAE1;opacity:1;stroke-width:0.5;" x1="263" x2="3036" y1="696" y2="696"/>
  <line id="Capline-S" style="fill:none;stroke:#27AAE1;opacity:1;stroke-width:0.5;" x1="263" x2="3036" y1="625.541" y2="625.541"/>
  <g id="H-reference" style="fill:#27AAE1;stroke:none;" transform="matrix(1 0 0 1 339 1126)">
   <path d="M0.993654 0L3.63775 0L29.3281-67.1323L30.0303-67.1323L30.0303-70.459L28.1226-70.459ZM11.6885-24.4799L46.9815-24.4799L46.2315-26.7285L12.4385-26.7285ZM55.1196 0L57.7637 0L30.6382-70.459L29.4326-70.459L29.4326-67.1323Z"/>
  </g>
  <line id="Baseline-M" style="fill:none;stroke:#27AAE1;opacity:1;stroke-width:0.5;" x1="263" x2="3036" y1="1126" y2="1126"/>
  <line id="Capline-M" style="fill:none;stroke:#27AAE1;opacity:1;stroke-width:0.5;" x1="263" x2="3036" y1="1055.54" y2="1055.54"/>
  <g id="H-reference" style="fill:#27AAE1;stroke:none;" transform="matrix(1 0 0 1 339 1556)">
   <path d="M0.993654 0L3.63775 0L29.3281-67.1323L30.0303-67.1323L30.0303-70.459L28.1226-70.459ZM11.6885-24.4799L46.9815-24.4799L46.2315-26.7285L12.4385-26.7285ZM55.1196 0L57.7637 0L30.6382-70.459L29.4326-70.459L29.4326-67.1323Z"/>
  </g>
  <line id="Baseline-L" style="fill:none;stroke:#27AAE1;opacity:1;stroke-width:0.5;" x1="263" x2="3036" y1="1556" y2="1556"/>
  <line id="Capline-L" style="fill:none;stroke:#27AAE1;opacity:1;stroke-width:0.5;" x1="263" x2="3036" y1="1485.54" y2="1485.54"/>
  <line id="right-margin-Black-S" style="fill:none;stroke:#00AEEF;stroke-width:0.5;opacity:1.0;" x1="2981.3" x2="2981.3" y1="600.785" y2="720.121"/>
  <line id="left-margin-Black-S" style="fill:none;stroke:#00AEEF;stroke-width:0.5;opacity:1.0;" x1="2885.5" x2="2885.5" y1="600.785" y2="720.121"/>
  <line id="right-margin-Regular-S" style="fill:none;stroke:#00AEEF;stroke-width:0.5;opacity:1.0;" x1="1495.18" x2="1495.18" y1="600.785" y2="720.121"/>
  <line id="left-margin-Regular-S" style="fill:none;stroke:#00AEEF;stroke-width:0.5;opacity:1.0;" x1="1404.51" x2="1404.51" y1="600.785" y2="720.121"/>
  <line id="right-margin-Ultralight-S" style="fill:none;stroke:#00AEEF;stroke-width:0.5;opacity:1.0;" x1="603.073" x2="603.073" y1="600.785" y2="720.121"/>
  <line id="left-margin-Ultralight-S" style="fill:none;stroke:#00AEEF;stroke-width:0.5;opacity:1.0;" x1="516.35" x2="516.35" y1="600.785" y2="720.121"/>
 </g>
 <g id="Symbols">
  <g id="Black-S"><path d="M2917.74548,631.60599c-0.76624,0.23486 -1.509,0.98643 -1.77909,1.79964c-0.3611,1.08624 -0.24954,1.48257 1.27707,4.55635c1.14789,2.30753 1.32991,2.75084 1.12147,2.69506c-0.13798,-0.03523 -0.80147,-0.15853 -1.47377,-0.27303c-1.0334,-0.17615 -1.3123,-0.18789 -1.77909,-0.06459c-2.22827,0.58422 -2.99157,3.28809 -1.38276,4.8969c0.64,0.64 1.00404,0.75156 4.64149,1.40037c1.64698,0.29358 3.11487,0.56367 3.25873,0.59597c0.20844,0.04697 0.5167,0.56074 1.43854,2.40735l1.17432,2.3457l-1.4679,2.93579l-1.4679,2.93579h-2.75671h-2.75964l-1.93469,-2.57762c-2.12845,-2.8301 -2.43671,-3.109 -3.59047,-3.24405c-1.62056,-0.19083 -3.05909,0.92477 -3.24698,2.51891c-0.09982,0.83376 0.13211,1.53835 0.80441,2.46019l0.56954,0.78386l-2.55414,0.06459c-1.60588,0.03817 -2.68038,0.1145 -2.88882,0.20551c-1.76735,0.76037 -2.37799,2.91524 -1.25945,4.45947c0.19083,0.26422 0.60184,0.62826 0.9101,0.81028c0.56367,0.33174 0.56954,0.33174 3.17946,0.39046l2.61285,0.05872l-0.56954,0.78386c-0.6723,0.92184 -0.90422,1.62643 -0.80441,2.46019c0.18789,1.57946 1.61175,2.69506 3.22643,2.53065c1.14202,-0.11743 1.4767,-0.41688 3.61102,-3.25579l1.93469,-2.57762h2.75964h2.75671l1.4679,2.93579l1.4679,2.93579l-1.17432,2.3457c-0.9189,1.83487 -1.2301,2.36038 -1.43854,2.41028c-0.14385,0.03523 -1.71157,0.32587 -3.48185,0.64587c-3.46717,0.62826 -4.0191,0.81028 -4.58864,1.50019c-1.16551,1.41212 -0.80734,3.51708 0.75156,4.43304c0.83376,0.48734 1.81725,0.48441 4.02791,-0.00587c0.22899,-0.05284 0.08807,0.29651 -1.10092,2.68625c-1.03633,2.08735 -1.37689,2.88882 -1.42092,3.33506c-0.20257,2.09909 1.85836,3.70203 3.87231,3.01799c1.01872,-0.34936 1.28881,-0.70753 2.789,-3.69029l1.38569,-2.75377l0.61358,1.22716c0.3611,0.7222 0.79854,1.40624 1.05982,1.65579c0.49028,0.46679 1.32698,0.80734 1.9934,0.80734c1.19193,0 2.38093,-0.86019 2.75671,-1.99047c0.36991,-1.11266 0.27009,-1.44734 -1.52074,-5.04369l-1.61175,-3.24111l1.09505,-2.20184l1.09505,-2.20184h4.05726h4.05726l1.09505,2.20184l1.09505,2.20184l-1.61175,3.24111c-1.79083,3.59634 -1.89065,3.93102 -1.52074,5.04369c0.37578,1.13028 1.56478,1.99047 2.75671,1.99047c0.66642,0 1.50313,-0.34055 1.9934,-0.80734c0.26129,-0.24954 0.69872,-0.93358 1.05982,-1.65579l0.61358,-1.22716l1.38569,2.75377c1.50019,2.98276 1.77028,3.34093 2.789,3.69029c2.01395,0.68404 4.07488,-0.9189 3.87231,-3.01799c-0.04404,-0.44624 -0.38459,-1.24771 -1.42092,-3.33506c-1.189,-2.38973 -1.32991,-2.73909 -1.10092,-2.68625c2.21065,0.49028 3.19414,0.49321 4.02791,0.00587c1.55891,-0.91597 1.91707,-3.02093 0.75156,-4.43304c-0.56954,-0.68991 -1.12147,-0.87193 -4.58864,-1.50019c-1.77028,-0.32 -3.33799,-0.61064 -3.48185,-0.64587c-0.20844,-0.04991 -0.51964,-0.57542 -1.43854,-2.41028l-1.17432,-2.3457l1.4679,-2.93579l1.4679,-2.93579h2.75671h2.75964l1.93469,2.57762c2.13432,2.83891 2.469,3.13836 3.61102,3.25579c1.61469,0.1644 3.03854,-0.9512 3.22643,-2.53065c0.09982,-0.83376 -0.13211,-1.53835 -0.80441,-2.46019l-0.56954,-0.78386l2.61285,-0.05872c2.60992,-0.05872 2.61579,-0.05872 3.17946,-0.39046c2.11083,-1.2389 1.90826,-4.30093 -0.34936,-5.26974c-0.20844,-0.09101 -1.28294,-0.16734 -2.88882,-0.20551l-2.55414,-0.06459l0.56954,-0.78386c0.6723,-0.92184 0.90422,-1.62643 0.80441,-2.46019c-0.18789,-1.59413 -1.62643,-2.70974 -3.24698,-2.51891c-1.15377,0.13505 -1.46202,0.41395 -3.59047,3.24405l-1.93469,2.57762h-2.75964h-2.75671l-1.4679,-2.93579l-1.4679,-2.93579l1.17432,-2.3457c0.92184,-1.84661 1.2301,-2.36038 1.43854,-2.40735c0.14385,-0.03229 1.61175,-0.30239 3.25873,-0.59597c1.64698,-0.29358 3.25286,-0.61945 3.56992,-0.71927c1.08624,-0.34936 1.94937,-1.56478 1.94937,-2.73909c0,-1.15964 -0.86606,-2.37799 -1.95817,-2.7479c-0.71046,-0.24367 -1.01578,-0.2378 -2.50423,0.04697c-0.67817,0.12917 -1.24478,0.23486 -1.25945,0.23486c-0.01468,0 0.58716,-1.23597 1.33578,-2.74496c1.50606,-3.02974 1.62936,-3.4613 1.28588,-4.49763c-0.65468,-1.97579 -3.13249,-2.65689 -4.70607,-1.29468c-0.32881,0.28477 -0.76624,1.03633 -1.82019,3.13249l-1.38569,2.75377l-0.61358,-1.22716c-0.69872,-1.39744 -1.2389,-1.99047 -2.0668,-2.2723c-0.69872,-0.2378 -1.13028,-0.24073 -1.91414,-0.00587c-1.2389,0.36697 -2.10496,1.68808 -1.97872,3.01506c0.04404,0.45798 0.41982,1.32404 1.67047,3.83414l1.61175,3.24111l-1.09505,2.20184l-1.09505,2.20184h-4.05726h-4.05726l-1.09505,-2.20184l-1.09505,-2.20184l1.61175,-3.24111c1.77615,-3.56699 1.89065,-3.9369 1.53542,-4.99965c-0.66642,-2.01102 -3.24698,-2.67744 -4.76185,-1.2301c-0.26422,0.25248 -0.69872,0.93065 -1.06276,1.65872l-0.61358,1.22716l-1.38569,-2.75377c-1.50019,-2.98276 -1.77028,-3.34093 -2.789,-3.69029c-0.65762,-0.22312 -1.1978,-0.22018 -1.94349,0.00881M2938.92134,657.83728l1.46496,2.93579l-1.46496,2.93579l-1.46496,2.93579h-4.05433h-4.05433l-1.46496,-2.93579l-1.46496,-2.93579l1.46496,-2.93579l1.46496,-2.93579h4.05433h4.05433l1.46496,2.93579" className="SFSymbolsPreviewWireframe"/></g>
  <g id="Regular-S"><path d="M1434.19043,631.60599c-0.76624,0.23486 -1.509,0.98643 -1.77909,1.79964c-0.3611,1.08624 -0.24954,1.48257 1.27707,4.55635c1.14789,2.30753 1.32991,2.75084 1.12147,2.69506c-0.13798,-0.03523 -0.80147,-0.15853 -1.47377,-0.27303c-1.0334,-0.17615 -1.3123,-0.18789 -1.77909,-0.06459c-2.22827,0.58422 -2.99157,3.28809 -1.38276,4.8969c0.64,0.64 1.00404,0.75156 4.64149,1.40037c1.64698,0.29358 3.11487,0.56367 3.25873,0.59597c0.20844,0.04697 0.5167,0.56074 1.43854,2.40735l1.17432,2.3457l-1.4679,2.93579l-1.4679,2.93579h-2.75671h-2.75964l-1.93469,-2.57762c-2.12845,-2.8301 -2.43671,-3.109 -3.59047,-3.24405c-1.62056,-0.19083 -3.05909,0.92477 -3.24698,2.51891c-0.09982,0.83376 0.13211,1.53835 0.80441,2.46019l0.56954,0.78386l-2.55414,0.06459c-1.60588,0.03817 -2.68038,0.1145 -2.88882,0.20551c-1.76735,0.76037 -2.37799,2.91524 -1.25945,4.45947c0.19083,0.26422 0.60184,0.62826 0.9101,0.81028c0.56367,0.33174 0.56954,0.33174 3.17946,0.39046l2.61285,0.05872l-0.56954,0.78386c-0.6723,0.92184 -0.90422,1.62643 -0.80441,2.46019c0.18789,1.57946 1.61175,2.69506 3.22643,2.53065c1.14202,-0.11743 1.4767,-0.41688 3.61102,-3.25579l1.93469,-2.57762h2.75964h2.75671l1.4679,2.93579l1.4679,2.93579l-1.17432,2.3457c-0.9189,1.83487 -1.2301,2.36038 -1.43854,2.41028c-0.14385,0.03523 -1.71157,0.32587 -3.48185,0.64587c-3.46717,0.62826 -4.0191,0.81028 -4.58864,1.50019c-1.16551,1.41212 -0.80734,3.51708 0.75156,4.43304c0.83376,0.48734 1.81725,0.48441 4.02791,-0.00587c0.22899,-0.05284 0.08807,0.29651 -1.10092,2.68625c-1.03633,2.08735 -1.37689,2.88882 -1.42092,3.33506c-0.20257,2.09909 1.85836,3.70203 3.87231,3.01799c1.01872,-0.34936 1.28881,-0.70753 2.789,-3.69029l1.38569,-2.75377l0.61358,1.22716c0.3611,0.7222 0.79854,1.40624 1.05982,1.65579c0.49028,0.46679 1.32698,0.80734 1.9934,0.80734c1.19193,0 2.38093,-0.86019 2.75671,-1.99047c0.36991,-1.11266 0.27009,-1.44734 -1.52074,-5.04369l-1.61175,-3.24111l1.09505,-2.20184l1.09505,-2.20184h4.05726h4.05726l1.09505,2.20184l1.09505,2.20184l-1.61175,3.24111c-1.79083,3.59634 -1.89065,3.93102 -1.52074,5.04369c0.37578,1.13028 1.56478,1.99047 2.75671,1.99047c0.66642,0 1.50312,-0.34055 1.9934,-0.80734c0.26129,-0.24954 0.69872,-0.93358 1.05982,-1.65579l0.61358,-1.22716l1.38569,2.75377c1.50019,2.98276 1.77028,3.34093 2.789,3.69029c2.01395,0.68404 4.07488,-0.9189 3.87231,-3.01799c-0.04404,-0.44624 -0.38459,-1.24771 -1.42092,-3.33506c-1.189,-2.38973 -1.32991,-2.73909 -1.10092,-2.68625c2.21065,0.49028 3.19414,0.49321 4.02791,0.00587c1.55891,-0.91597 1.91707,-3.02093 0.75156,-4.43304c-0.56954,-0.68991 -1.12147,-0.87193 -4.58864,-1.50019c-1.77028,-0.32 -3.33799,-0.61064 -3.48185,-0.64587c-0.20844,-0.04991 -0.51964,-0.57542 -1.43854,-2.41028l-1.17432,-2.3457l1.4679,-2.93579l1.4679,-2.93579h2.75671h2.75964l1.93469,2.57762c2.13432,2.83891 2.469,3.13836 3.61102,3.25579c1.61469,0.1644 3.03854,-0.9512 3.22643,-2.53065c0.09982,-0.83376 -0.13211,-1.53835 -0.80441,-2.46019l-0.56954,-0.78386l2.61285,-0.05872c2.60992,-0.05872 2.61579,-0.05872 3.17946,-0.39046c2.11083,-1.2389 1.90826,-4.30093 -0.34936,-5.26974c-0.20844,-0.09101 -1.28294,-0.16734 -2.88882,-0.20551l-2.55414,-0.06459l0.56954,-0.78386c0.6723,-0.92184 0.90422,-1.62643 0.80441,-2.46019c-0.18789,-1.59413 -1.62643,-2.70974 -3.24698,-2.51891c-1.15377,0.13505 -1.46202,0.41395 -3.59047,3.24405l-1.93469,2.57762h-2.75964h-2.75671l-1.4679,-2.93579l-1.4679,-2.93579l1.17432,-2.3457c0.92184,-1.84661 1.2301,-2.36038 1.43854,-2.40735c0.14385,-0.03229 1.61175,-0.30239 3.25873,-0.59597c1.64698,-0.29358 3.25286,-0.61945 3.56992,-0.71927c1.08624,-0.34936 1.94937,-1.56478 1.94937,-2.73909c0,-1.15964 -0.86606,-2.37799 -1.95817,-2.7479c-0.71046,-0.24367 -1.01578,-0.2378 -2.50423,0.04697c-0.67817,0.12917 -1.24478,0.23486 -1.25945,0.23486c-0.01468,0 0.58716,-1.23597 1.33578,-2.74496c1.50606,-3.02974 1.62936,-3.4613 1.28588,-4.49763c-0.65468,-1.97579 -3.13249,-2.65689 -4.70607,-1.29468c-0.32881,0.28477 -0.76624,1.03633 -1.82019,3.13249l-1.38569,2.75377l-0.61358,-1.22716c-0.69872,-1.39744 -1.2389,-1.99047 -2.0668,-2.2723c-0.69872,-0.2378 -1.13028,-0.24073 -1.91414,-0.00587c-1.2389,0.36697 -2.10496,1.68808 -1.97872,3.01506c0.04404,0.45798 0.41982,1.32404 1.67047,3.83414l1.61175,3.24111l-1.09505,2.20184l-1.09505,2.20184h-4.05726h-4.05726l-1.09505,-2.20184l-1.09505,-2.20184l1.61175,-3.24111c1.77615,-3.56699 1.89065,-3.9369 1.53542,-4.99965c-0.66642,-2.01102 -3.24698,-2.67744 -4.76185,-1.2301c-0.26422,0.25248 -0.69872,0.93065 -1.06276,1.65872l-0.61358,1.22716l-1.38569,-2.75377c-1.50019,-2.98276 -1.77028,-3.34093 -2.789,-3.69029c-0.65762,-0.22312 -1.1978,-0.22018 -1.94349,0.00881M1455.36629,657.83728l1.46496,2.93579l-1.46496,2.93579l-1.46496,2.93579h-4.05433h-4.05433l-1.46496,-2.93579l-1.46496,-2.93579l1.46496,-2.93579l1.46496,-2.93579h4.05433h4.05433l1.46496,2.93579" className="SFSymbolsPreviewWireframe"/></g>
  <g id="Ultralight-S"><path d="M544.05684,631.60599c-0.76624,0.23486 -1.509,0.98643 -1.77909,1.79964c-0.3611,1.08624 -0.24954,1.48257 1.27707,4.55635c1.14789,2.30753 1.32991,2.75084 1.12147,2.69506c-0.13798,-0.03523 -0.80147,-0.15853 -1.47377,-0.27303c-1.0334,-0.17615 -1.3123,-0.18789 -1.77909,-0.06459c-2.22827,0.58422 -2.99157,3.28809 -1.38276,4.8969c0.64,0.64 1.00404,0.75156 4.64149,1.40037c1.64698,0.29358 3.11487,0.56367 3.25873,0.59597c0.20844,0.04697 0.5167,0.56074 1.43854,2.40735l1.17432,2.3457l-1.4679,2.93579l-1.4679,2.93579h-2.75671h-2.75964l-1.93469,-2.57762c-2.12845,-2.8301 -2.43671,-3.109 -3.59047,-3.24405c-1.62056,-0.19083 -3.05909,0.92477 -3.24698,2.51891c-0.09982,0.83376 0.13211,1.53835 0.80441,2.46019l0.56954,0.78386l-2.55414,0.06459c-1.60588,0.03817 -2.68038,0.1145 -2.88882,0.20551c-1.76735,0.76037 -2.37799,2.91524 -1.25945,4.45947c0.19083,0.26422 0.60184,0.62826 0.9101,0.81028c0.56367,0.33174 0.56954,0.33174 3.17946,0.39046l2.61285,0.05872l-0.56954,0.78386c-0.6723,0.92184 -0.90422,1.62643 -0.80441,2.46019c0.18789,1.57946 1.61175,2.69506 3.22643,2.53065c1.14202,-0.11743 1.4767,-0.41688 3.61102,-3.25579l1.93469,-2.57762h2.75964h2.75671l1.4679,2.93579l1.4679,2.93579l-1.17432,2.3457c-0.9189,1.83487 -1.2301,2.36038 -1.43854,2.41028c-0.14385,0.03523 -1.71157,0.32587 -3.48185,0.64587c-3.46717,0.62826 -4.0191,0.81028 -4.58864,1.50019c-1.16551,1.41212 -0.80734,3.51708 0.75156,4.43304c0.83376,0.48734 1.81725,0.48441 4.02791,-0.00587c0.22899,-0.05284 0.08807,0.29651 -1.10092,2.68625c-1.03633,2.08735 -1.37689,2.88882 -1.42092,3.33506c-0.20257,2.09909 1.85836,3.70203 3.87231,3.01799c1.01872,-0.34936 1.28881,-0.70753 2.789,-3.69029l1.38569,-2.75377l0.61358,1.22716c0.3611,0.7222 0.79854,1.40624 1.05982,1.65579c0.49028,0.46679 1.32698,0.80734 1.9934,0.80734c1.19193,0 2.38093,-0.86019 2.75671,-1.99047c0.36991,-1.11266 0.27009,-1.44734 -1.52074,-5.04369l-1.61175,-3.24111l1.09505,-2.20184l1.09505,-2.20184h4.05726h4.05726l1.09505,2.20184l1.09505,2.20184l-1.61175,3.24111c-1.79083,3.59634 -1.89065,3.93102 -1.52074,5.04369c0.37578,1.13028 1.56478,1.99047 2.75671,1.99047c0.66642,0 1.50312,-0.34055 1.9934,-0.80734c0.26129,-0.24954 0.69872,-0.93358 1.05982,-1.65579l0.61358,-1.22716l1.38569,2.75377c1.50019,2.98276 1.77028,3.34093 2.789,3.69029c2.01395,0.68404 4.07488,-0.9189 3.87231,-3.01799c-0.04404,-0.44624 -0.38459,-1.24771 -1.42092,-3.33506c-1.189,-2.38973 -1.32991,-2.73909 -1.10092,-2.68625c2.21065,0.49028 3.19414,0.49321 4.02791,0.00587c1.55891,-0.91597 1.91707,-3.02093 0.75156,-4.43304c-0.56954,-0.68991 -1.12147,-0.87193 -4.58864,-1.50019c-1.77028,-0.32 -3.33799,-0.61064 -3.48185,-0.64587c-0.20844,-0.04991 -0.51964,-0.57542 -1.43854,-2.41028l-1.17432,-2.3457l1.4679,-2.93579l1.4679,-2.93579h2.75671h2.75964l1.93469,2.57762c2.13432,2.83891 2.469,3.13836 3.61102,3.25579c1.61469,0.1644 3.03854,-0.9512 3.22643,-2.53065c0.09982,-0.83376 -0.13211,-1.53835 -0.80441,-2.46019l-0.56954,-0.78386l2.61285,-0.05872c2.60992,-0.05872 2.61579,-0.05872 3.17946,-0.39046c2.11083,-1.2389 1.90826,-4.30093 -0.34936,-5.26974c-0.20844,-0.09101 -1.28294,-0.16734 -2.88882,-0.20551l-2.55414,-0.06459l0.56954,-0.78386c0.6723,-0.92184 0.90422,-1.62643 0.80441,-2.46019c-0.18789,-1.59413 -1.62643,-2.70974 -3.24698,-2.51891c-1.15377,0.13505 -1.46202,0.41395 -3.59047,3.24405l-1.93469,2.57762h-2.75964h-2.75671l-1.4679,-2.93579l-1.4679,-2.93579l1.17432,-2.3457c0.92184,-1.84661 1.2301,-2.36038 1.43854,-2.40735c0.14385,-0.03229 1.61175,-0.30239 3.25873,-0.59597c1.64698,-0.29358 3.25286,-0.61945 3.56992,-0.71927c1.08624,-0.34936 1.94937,-1.56478 1.94937,-2.73909c0,-1.15964 -0.86606,-2.37799 -1.95817,-2.7479c-0.71046,-0.24367 -1.01578,-0.2378 -2.50423,0.04697c-0.67817,0.12917 -1.24478,0.23486 -1.25945,0.23486c-0.01468,0 0.58716,-1.23597 1.33578,-2.74496c1.50606,-3.02974 1.62936,-3.4613 1.28588,-4.49763c-0.65468,-1.97579 -3.13249,-2.65689 -4.70607,-1.29468c-0.32881,0.28477 -0.76624,1.03633 -1.82019,3.13249l-1.38569,2.75377l-0.61358,-1.22716c-0.69872,-1.39744 -1.2389,-1.99047 -2.0668,-2.2723c-0.69872,-0.2378 -1.13028,-0.24073 -1.91414,-0.00587c-1.2389,0.36697 -2.10496,1.68808 -1.97872,3.01506c0.04404,0.45798 0.41982,1.32404 1.67047,3.83414l1.61175,3.24111l-1.09505,2.20184l-1.09505,2.20184h-4.05726h-4.05726l-1.09505,-2.20184l-1.09505,-2.20184l1.61175,-3.24111c1.77615,-3.56699 1.89065,-3.9369 1.53542,-4.99965c-0.66642,-2.01102 -3.24698,-2.67744 -4.76185,-1.2301c-0.26422,0.25248 -0.69872,0.93065 -1.06276,1.65872l-0.61358,1.22716l-1.38569,-2.75377c-1.50019,-2.98276 -1.77028,-3.34093 -2.789,-3.69029c-0.65762,-0.22312 -1.1978,-0.22018 -1.94349,0.00881M565.2327,657.83728l1.46496,2.93579l-1.46496,2.93579l-1.46496,2.93579h-4.05433h-4.05433l-1.46496,-2.93579l-1.46496,-2.93579l1.46496,-2.93579l1.46496,-2.93579h4.05433h4.05433l1.46496,2.93579" className="SFSymbolsPreviewWireframe"/></g>
 </g>
</svg>