<?xml version="1.0" encoding="UTF-8"?><!--Generator: SymbolKit.app--><!DOCTYPE svg PUBLIC "-//W3C//DTD SVG 1.1//EN" "http://www.w3.org/Graphics/SVG/1.1/DTD/svg11.dtd"><svg xmlns="http://www.w3.org/2000/svg" xmlns:xlink="http://www.w3.org/1999/xlink" version="1.1" viewBox="0 0 3300 2200">
 <!--glyph: "100092", point size: 100.0, font version: "20.0d10e1", template writer version: "138.0.0"-->
 <style>.SFSymbolsPreviewWireframe {fill:none;opacity:1.0;stroke:black;stroke-width:0.5}
</style>
 <g id="Notes">
  <rect height="2200" id="artboard" style="fill:white;opacity:1" width="3300" x="0" y="0"/>
  <line style="fill:none;stroke:black;opacity:1;stroke-width:0.5;" x1="263" x2="3036" y1="292" y2="292"/>
  <text style="stroke:none;fill:black;font-family:sans-serif;font-size:13;font-weight:bold;" transform="matrix(1 0 0 1 263 322)">Weight/Scale Variations</text>
  <text style="stroke:none;fill:black;font-family:sans-serif;font-size:13;text-anchor:middle;" transform="matrix(1 0 0 1 559.711 322)">Ultralight</text>
  <text style="stroke:none;fill:black;font-family:sans-serif;font-size:13;text-anchor:middle;" transform="matrix(1 0 0 1 856.422 322)">Thin</text>
  <text style="stroke:none;fill:black;font-family:sans-serif;font-size:13;text-anchor:middle;" transform="matrix(1 0 0 1 1153.13 322)">Light</text>
  <text style="stroke:none;fill:black;font-family:sans-serif;font-size:13;text-anchor:middle;" transform="matrix(1 0 0 1 1449.84 322)">Regular</text>
  <text style="stroke:none;fill:black;font-family:sans-serif;font-size:13;text-anchor:middle;" transform="matrix(1 0 0 1 1746.56 322)">Medium</text>
  <text style="stroke:none;fill:black;font-family:sans-serif;font-size:13;text-anchor:middle;" transform="matrix(1 0 0 1 2043.27 322)">Semibold</text>
  <text style="stroke:none;fill:black;font-family:sans-serif;font-size:13;text-anchor:middle;" transform="matrix(1 0 0 1 2339.98 322)">Bold</text>
  <text style="stroke:none;fill:black;font-family:sans-serif;font-size:13;text-anchor:middle;" transform="matrix(1 0 0 1 2636.69 322)">Heavy</text>
  <text style="stroke:none;fill:black;font-family:sans-serif;font-size:13;text-anchor:middle;" transform="matrix(1 0 0 1 2933.4 322)">Black</text>
  <line style="fill:none;stroke:black;opacity:1;stroke-width:0.5;" x1="263" x2="3036" y1="1903" y2="1903"/>
  <g transform="matrix(0.2 0 0 0.2 263 1933)">
   <path d="m46.2402 4.15039c21.7773 0 39.4531-17.627 39.4531-39.4043s-17.6758-39.4043-39.4531-39.4043c-21.7285 0-39.4043 17.627-39.4043 39.4043s17.6758 39.4043 39.4043 39.4043Zm0-7.42188c-17.6758 0-31.9336-14.3066-31.9336-31.9824s14.2578-31.9824 31.9336-31.9824 31.9824 14.3066 31.9824 31.9824-14.3066 31.9824-31.9824 31.9824Zm-17.9688-31.9824c0 2.14844 1.51367 3.61328 3.75977 3.61328h10.498v10.5957c0 2.19727 1.46484 3.71094 3.61328 3.71094 2.24609 0 3.71094-1.51367 3.71094-3.71094v-10.5957h10.5957c2.19727 0 3.71094-1.46484 3.71094-3.61328 0-2.19727-1.51367-3.71094-3.71094-3.71094h-10.5957v-10.5469c0-2.24609-1.46484-3.75977-3.71094-3.75977-2.14844 0-3.61328 1.51367-3.61328 3.75977v10.5469h-10.498c-2.24609 0-3.75977 1.51367-3.75977 3.71094Z"/>
  </g>
  <g transform="matrix(0.2 0 0 0.2 281.506 1933)">
   <path d="m58.5449 14.5508c27.4902 0 49.8047-22.3145 49.8047-49.8047s-22.3145-49.8047-49.8047-49.8047-49.8047 22.3145-49.8047 49.8047 22.3145 49.8047 49.8047 49.8047Zm0-8.30078c-22.9492 0-41.5039-18.5547-41.5039-41.5039s18.5547-41.5039 41.5039-41.5039 41.5039 18.5547 41.5039 41.5039-18.5547 41.5039-41.5039 41.5039Zm-22.6562-41.5039c0 2.39258 1.66016 4.00391 4.15039 4.00391h14.3555v14.4043c0 2.44141 1.66016 4.15039 4.05273 4.15039 2.44141 0 4.15039-1.66016 4.15039-4.15039v-14.4043h14.4043c2.44141 0 4.15039-1.61133 4.15039-4.00391 0-2.44141-1.70898-4.15039-4.15039-4.15039h-14.4043v-14.3555c0-2.49023-1.70898-4.19922-4.15039-4.19922-2.39258 0-4.05273 1.70898-4.05273 4.19922v14.3555h-14.3555c-2.49023 0-4.15039 1.70898-4.15039 4.15039Z"/>
  </g>
  <g transform="matrix(0.2 0 0 0.2 304.924 1933)">
   <path d="m74.8535 28.3203c35.1074 0 63.623-28.4668 63.623-63.5742s-28.5156-63.623-63.623-63.623-63.5742 28.5156-63.5742 63.623 28.4668 63.5742 63.5742 63.5742Zm0-9.08203c-30.127 0-54.4922-24.3652-54.4922-54.4922s24.3652-54.4922 54.4922-54.4922 54.4922 24.3652 54.4922 54.4922-24.3652 54.4922-54.4922 54.4922Zm-28.8574-54.4922c0 2.58789 1.85547 4.39453 4.58984 4.39453h19.7266v19.7754c0 2.68555 1.85547 4.58984 4.44336 4.58984 2.68555 0 4.54102-1.85547 4.54102-4.58984v-19.7754h19.7754c2.68555 0 4.58984-1.80664 4.58984-4.39453 0-2.73438-1.85547-4.58984-4.58984-4.58984h-19.7754v-19.7266c0-2.73438-1.85547-4.63867-4.54102-4.63867-2.58789 0-4.44336 1.9043-4.44336 4.63867v19.7266h-19.7266c-2.73438 0-4.58984 1.85547-4.58984 4.58984Z"/>
  </g>
  <text style="stroke:none;fill:black;font-family:sans-serif;font-size:13;font-weight:bold;" transform="matrix(1 0 0 1 263 1953)">Design Variations</text>
  <text style="stroke:none;fill:black;font-family:sans-serif;font-size:13;" transform="matrix(1 0 0 1 263 1971)">Symbols are supported in up to nine weights and three scales.</text>
  <text style="stroke:none;fill:black;font-family:sans-serif;font-size:13;" transform="matrix(1 0 0 1 263 1989)">For optimal layout with text and other symbols, vertically align</text>
  <text style="stroke:none;fill:black;font-family:sans-serif;font-size:13;" transform="matrix(1 0 0 1 263 2007)">symbols with the adjacent text.</text>
  <line style="fill:none;stroke:#00AEEF;stroke-width:0.5;opacity:1.0;" x1="776" x2="776" y1="1919" y2="1933"/>
  <g transform="matrix(0.2 0 0 0.2 776 1933)">
   <path d="m16.5527 0.78125c2.58789 0 3.85742-0.976562 4.78516-3.71094l6.29883-17.2363h28.8086l6.29883 17.2363c0.927734 2.73438 2.19727 3.71094 4.73633 3.71094 2.58789 0 4.24805-1.5625 4.24805-4.00391 0-0.830078-0.146484-1.61133-0.537109-2.63672l-22.9004-60.9863c-1.12305-2.97852-3.125-4.49219-6.25-4.49219-3.02734 0-5.07812 1.46484-6.15234 4.44336l-22.9004 61.084c-0.390625 1.02539-0.537109 1.80664-0.537109 2.63672 0 2.44141 1.5625 3.95508 4.10156 3.95508Zm13.4766-28.3691 11.8652-32.8613h0.244141l11.8652 32.8613Z"/>
  </g>
  <line style="fill:none;stroke:#00AEEF;stroke-width:0.5;opacity:1.0;" x1="792.836" x2="792.836" y1="1919" y2="1933"/>
  <text style="stroke:none;fill:black;font-family:sans-serif;font-size:13;font-weight:bold;" transform="matrix(1 0 0 1 776 1953)">Margins</text>
  <text style="stroke:none;fill:black;font-family:sans-serif;font-size:13;" transform="matrix(1 0 0 1 776 1971)">Leading and trailing margins on the left and right side of each symbol</text>
  <text style="stroke:none;fill:black;font-family:sans-serif;font-size:13;" transform="matrix(1 0 0 1 776 1989)">can be adjusted by modifying the x-location of the margin guidelines.</text>
  <text style="stroke:none;fill:black;font-family:sans-serif;font-size:13;" transform="matrix(1 0 0 1 776 2007)">Modifications are automatically applied proportionally to all</text>
  <text style="stroke:none;fill:black;font-family:sans-serif;font-size:13;" transform="matrix(1 0 0 1 776 2025)">scales and weights.</text>
  <g transform="matrix(0.2 0 0 0.2 1289 1933)">
   <path d="m14.209 9.32617 8.49609 8.54492c4.29688 4.3457 9.22852 4.05273 13.8672-1.07422l53.4668-58.9355-4.83398-4.88281-53.0762 58.3984c-1.75781 2.00195-3.41797 2.49023-5.76172 0.146484l-5.85938-5.81055c-2.34375-2.29492-1.80664-4.00391 0.195312-5.81055l57.373-54.0039-4.88281-4.83398-57.959 54.4434c-4.93164 4.58984-5.32227 9.47266-1.02539 13.8184Zm32.0801-90.9668c-2.09961 2.05078-2.24609 4.93164-1.07422 6.88477 1.17188 1.80664 3.4668 2.97852 6.68945 2.14844 7.32422-1.70898 14.9414-2.00195 22.0703 2.68555l-2.92969 7.27539c-1.70898 4.15039-0.830078 7.08008 1.85547 9.81445l11.4746 11.5723c2.44141 2.44141 4.49219 2.53906 7.32422 2.05078l5.32227-0.976562 3.32031 3.36914-0.195312 2.7832c-0.195312 2.49023 0.439453 4.39453 2.88086 6.78711l3.80859 3.71094c2.39258 2.39258 5.46875 2.53906 7.8125 0.195312l14.5508-14.5996c2.34375-2.34375 2.24609-5.32227-0.146484-7.71484l-3.85742-3.80859c-2.39258-2.39258-4.24805-3.17383-6.64062-2.97852l-2.88086 0.244141-3.22266-3.17383 1.2207-5.61523c0.634766-2.83203-0.146484-5.0293-3.07617-7.95898l-10.9863-10.9375c-16.6992-16.6016-38.8672-16.2109-53.3203-1.75781Zm7.4707 1.85547c12.1582-8.88672 28.6133-7.37305 39.7461 3.75977l12.1582 12.0605c1.17188 1.17188 1.36719 2.09961 1.02539 3.80859l-1.61133 7.42188 7.51953 7.42188 4.93164-0.292969c1.26953-0.0488281 1.66016 0.0488281 2.63672 1.02539l2.88086 2.88086-12.207 12.207-2.88086-2.88086c-0.976562-0.976562-1.12305-1.36719-1.07422-2.68555l0.341797-4.88281-7.4707-7.42188-7.61719 1.26953c-1.61133 0.341797-2.34375 0.195312-3.56445-0.976562l-10.0098-10.0098c-1.26953-1.17188-1.41602-2.00195-0.634766-3.85742l4.39453-10.4492c-7.8125-7.27539-17.9688-10.4004-28.125-7.42188-0.78125 0.195312-1.07422-0.439453-0.439453-0.976562Z"/>
  </g>
  <text style="stroke:none;fill:black;font-family:sans-serif;font-size:13;font-weight:bold;" transform="matrix(1 0 0 1 1289 1953)">Exporting</text>
  <text style="stroke:none;fill:black;font-family:sans-serif;font-size:13;" transform="matrix(1 0 0 1 1289 1971)">Symbols should be outlined when exporting to ensure the</text>
  <text style="stroke:none;fill:black;font-family:sans-serif;font-size:13;" transform="matrix(1 0 0 1 1289 1989)">design is preserved when submitting to Xcode.</text>
  <text id="template-version" style="stroke:none;fill:black;font-family:sans-serif;font-size:13;text-anchor:end;" transform="matrix(1 0 0 1 3036 1933)">Template v.6.0</text>
  <text style="stroke:none;fill:black;font-family:sans-serif;font-size:13;text-anchor:end;" transform="matrix(1 0 0 1 3036 1951)">Requires Xcode 16 or greater</text>
  <text id="descriptive-name" style="stroke:none;fill:black;font-family:sans-serif;font-size:13;text-anchor:end;" transform="matrix(1 0 0 1 3036 1969)">Generated from square</text>
  <text style="stroke:none;fill:black;font-family:sans-serif;font-size:13;text-anchor:end;" transform="matrix(1 0 0 1 3036 1987)">Typeset at 100.0 points</text>
  <text style="stroke:none;fill:black;font-family:sans-serif;font-size:13;" transform="matrix(1 0 0 1 263 726)">Small</text>
  <text style="stroke:none;fill:black;font-family:sans-serif;font-size:13;" transform="matrix(1 0 0 1 263 1156)">Medium</text>
  <text style="stroke:none;fill:black;font-family:sans-serif;font-size:13;" transform="matrix(1 0 0 1 263 1586)">Large</text>
 </g>
 <g id="Guides">
  <g id="H-reference" style="fill:#27AAE1;stroke:none;" transform="matrix(1 0 0 1 339 696)">
   <path d="M0.993654 0L3.63775 0L29.3281-67.1323L30.0303-67.1323L30.0303-70.459L28.1226-70.459ZM11.6885-24.4799L46.9815-24.4799L46.2315-26.7285L12.4385-26.7285ZM55.1196 0L57.7637 0L30.6382-70.459L29.4326-70.459L29.4326-67.1323Z"/>
  </g>
  <line id="Baseline-S" style="fill:none;stroke:#27AAE1;opacity:1;stroke-width:0.5;" x1="263" x2="3036" y1="696" y2="696"/>
  <line id="Capline-S" style="fill:none;stroke:#27AAE1;opacity:1;stroke-width:0.5;" x1="263" x2="3036" y1="625.541" y2="625.541"/>
  <g id="H-reference" style="fill:#27AAE1;stroke:none;" transform="matrix(1 0 0 1 339 1126)">
   <path d="M0.993654 0L3.63775 0L29.3281-67.1323L30.0303-67.1323L30.0303-70.459L28.1226-70.459ZM11.6885-24.4799L46.9815-24.4799L46.2315-26.7285L12.4385-26.7285ZM55.1196 0L57.7637 0L30.6382-70.459L29.4326-70.459L29.4326-67.1323Z"/>
  </g>
  <line id="Baseline-M" style="fill:none;stroke:#27AAE1;opacity:1;stroke-width:0.5;" x1="263" x2="3036" y1="1126" y2="1126"/>
  <line id="Capline-M" style="fill:none;stroke:#27AAE1;opacity:1;stroke-width:0.5;" x1="263" x2="3036" y1="1055.54" y2="1055.54"/>
  <g id="H-reference" style="fill:#27AAE1;stroke:none;" transform="matrix(1 0 0 1 339 1556)">
   <path d="M0.993654 0L3.63775 0L29.3281-67.1323L30.0303-67.1323L30.0303-70.459L28.1226-70.459ZM11.6885-24.4799L46.9815-24.4799L46.2315-26.7285L12.4385-26.7285ZM55.1196 0L57.7637 0L30.6382-70.459L29.4326-70.459L29.4326-67.1323Z"/>
  </g>
  <line id="Baseline-L" style="fill:none;stroke:#27AAE1;opacity:1;stroke-width:0.5;" x1="263" x2="3036" y1="1556" y2="1556"/>
  <line id="Capline-L" style="fill:none;stroke:#27AAE1;opacity:1;stroke-width:0.5;" x1="263" x2="3036" y1="1485.54" y2="1485.54"/>
  <line id="right-margin-Black-S" style="fill:none;stroke:#00AEEF;stroke-width:0.5;opacity:1.0;" x1="2981.3" x2="2981.3" y1="600.785" y2="720.121"/>
  <line id="left-margin-Black-S" style="fill:none;stroke:#00AEEF;stroke-width:0.5;opacity:1.0;" x1="2885.5" x2="2885.5" y1="600.785" y2="720.121"/>
  <line id="right-margin-Regular-S" style="fill:none;stroke:#00AEEF;stroke-width:0.5;opacity:1.0;" x1="1495.18" x2="1495.18" y1="600.785" y2="720.121"/>
  <line id="left-margin-Regular-S" style="fill:none;stroke:#00AEEF;stroke-width:0.5;opacity:1.0;" x1="1404.51" x2="1404.51" y1="600.785" y2="720.121"/>
  <line id="right-margin-Ultralight-S" style="fill:none;stroke:#00AEEF;stroke-width:0.5;opacity:1.0;" x1="603.073" x2="603.073" y1="600.785" y2="720.121"/>
  <line id="left-margin-Ultralight-S" style="fill:none;stroke:#00AEEF;stroke-width:0.5;opacity:1.0;" x1="516.35" x2="516.35" y1="600.785" y2="720.121"/>
 </g>
 <g id="Symbols">
  <g id="Black-S"><path d="M2909.88151,630.07889c-3.27928,0.54899 -6.00369,2.96808 -6.99893,6.21507c-0.20551,0.67523 -0.27009,1.17138 -0.27303,2.12258c-0.00587,1.18019 0.01174,1.26826 0.34936,1.82019c1.16257,1.89065 3.8635,1.91707 5.01433,0.04991c0.22899,-0.37578 0.35817,-0.7956 0.44037,-1.4356c0.14385,-1.13322 0.32881,-1.58533 0.88661,-2.14313c0.5578,-0.55486 1.00991,-0.74276 2.13432,-0.88661c1.06863,-0.13505 1.77028,-0.50496 2.2723,-1.1978c1.189,-1.64111 0.42569,-3.92809 -1.50313,-4.50937c-0.58716,-0.17615 -1.40624,-0.18789 -2.32221,-0.03523M2922.20009,630.11999c-0.6723,0.21138 -1.28881,0.71046 -1.66459,1.34753c-0.26716,0.45798 -0.31707,0.67523 -0.31707,1.42092c0,0.75156 0.04697,0.96294 0.32587,1.4356c0.36697,0.62532 0.93358,1.10092 1.58239,1.33285c0.61064,0.21725 4.26277,0.21725 4.87341,0c0.64881,-0.23193 1.21542,-0.70753 1.58239,-1.33285c0.2789,-0.47266 0.32587,-0.68404 0.32587,-1.4356c0,-0.74569 -0.04991,-0.96294 -0.31707,-1.42092c-0.38752,-0.65468 -0.99523,-1.13909 -1.70863,-1.3534c-0.70459,-0.21138 -3.99855,-0.20844 -4.68259,0.00587M2936.87904,630.11999c-0.6723,0.21138 -1.28881,0.71046 -1.66459,1.34753c-0.26716,0.45798 -0.31707,0.67523 -0.31707,1.42092c0,0.75156 0.04697,0.96294 0.32587,1.4356c0.36697,0.62532 0.93358,1.10092 1.58239,1.33285c0.61064,0.21725 4.26277,0.21725 4.87341,0c0.64881,-0.23193 1.21542,-0.70753 1.58239,-1.33285c0.2789,-0.47266 0.32587,-0.68404 0.32587,-1.4356c0,-0.74569 -0.04991,-0.96294 -0.31707,-1.42092c-0.38752,-0.65468 -0.99523,-1.13909 -1.70863,-1.3534c-0.70459,-0.21138 -3.99855,-0.20844 -4.68259,0.00587M2951.558,630.11119c-1.89946,0.62532 -2.63047,2.89469 -1.45909,4.51231c0.50202,0.69285 1.20367,1.06276 2.2723,1.1978c1.12441,0.14385 1.57652,0.33174 2.13432,0.88661c0.5578,0.5578 0.74276,1.00991 0.88661,2.14313c0.14092,1.11266 0.53725,1.80845 1.32404,2.33983c1.38276,0.92771 3.23524,0.49908 4.13066,-0.95413c0.33762,-0.55193 0.35523,-0.64 0.34936,-1.82019c-0.00294,-0.9512 -0.06752,-1.44734 -0.27303,-2.12258c-0.8778,-2.86533 -3.15891,-5.15525 -5.93617,-5.95966c-1.17432,-0.33762 -2.76258,-0.4433 -3.429,-0.22312M2904.58534,647.73474c-0.6723,0.21138 -1.28881,0.71046 -1.66459,1.34753c-0.31707,0.53725 -0.31707,0.54899 -0.31707,2.89763v2.35744l0.35523,0.57835c1.18019,1.91707 3.8635,1.91707 5.04369,0l0.35523,-0.57835v-2.35744c0,-2.34863 0,-2.36038 -0.31707,-2.89763c-0.71633,-1.21835 -2.11964,-1.76441 -3.45543,-1.34753M2957.42958,647.73474c-0.6723,0.21138 -1.28881,0.71046 -1.66459,1.34753l-0.31707,0.54019v3.82534v3.82534l0.35523,0.57835c1.18019,1.91707 3.8635,1.91707 5.04369,0l0.35523,-0.57835v-3.82534v-3.82534l-0.31707,-0.54019c-0.71633,-1.21835 -2.11964,-1.76441 -3.45543,-1.34753M2932.34325,656.50101c-2.03744,0.48147 -3.48478,2.43083 -3.3468,4.51231c0.04991,0.74276 0.55193,2.10496 5.30791,14.32666c2.88882,7.42755 5.39011,13.76005 5.56039,14.07418c0.6312,1.16257 2.01689,2.03744 3.41432,2.15487c1.75267,0.14679 3.51708,-0.82789 4.25983,-2.35744c0.12917,-0.26716 0.96,-2.80955 1.84368,-5.6514l1.60588,-5.16406l5.16406,-1.60588c2.84185,-0.88367 5.38424,-1.7145 5.6514,-1.84368c1.37982,-0.66936 2.39267,-2.31634 2.39267,-3.89286c0,-1.54129 -0.98643,-3.1824 -2.32221,-3.86057c-0.79854,-0.40514 -26.84781,-10.50132 -27.50543,-10.65986c-0.72514,-0.17321 -1.37395,-0.18495 -2.0257,-0.03229M2904.58534,662.41369c-0.6723,0.21138 -1.28881,0.71046 -1.66459,1.34753c-0.31707,0.53725 -0.31707,0.54899 -0.31707,2.89763v2.35744l0.35523,0.57835c1.18019,1.91707 3.8635,1.91707 5.04369,0l0.35523,-0.57835v-2.35744c0,-2.34863 0,-2.36038 -0.31707,-2.89763c-0.71633,-1.21835 -2.11964,-1.76441 -3.45543,-1.34753M2945.84495,667.20784c5.17874,2.01102 9.40334,3.67561 9.38279,3.69323c-0.02055,0.02055 -1.47377,0.48734 -3.23524,1.03633c-1.75854,0.54899 -3.45249,1.13028 -3.76368,1.28881c-0.93945,0.4756 -1.94349,1.49432 -2.40735,2.44845c-0.22606,0.46092 -0.83376,2.20771 -1.35046,3.88112c-0.51376,1.67047 -0.95413,3.05616 -0.97468,3.07671c-0.02642,0.02936 -6.7259,-17.10392 -7.43929,-19.02686c-0.07046,-0.18789 -0.04697,-0.21138 0.14092,-0.14092c0.1233,0.04404 4.46534,1.72918 9.64701,3.74313M2904.58534,677.09265c-0.6723,0.21138 -1.28881,0.71046 -1.66459,1.34753c-0.29064,0.49615 -0.31707,0.64 -0.31119,1.77322c0.00294,0.93945 0.06752,1.44147 0.27303,2.11377c0.87487,2.85359 3.12368,5.12002 5.93617,5.98021c1.00991,0.30826 2.65102,0.43743 3.30864,0.25835c0.68698,-0.18789 1.38863,-0.73688 1.77028,-1.38863c0.28477,-0.48441 0.33174,-0.68991 0.33174,-1.44441c0,-0.74569 -0.04991,-0.96294 -0.31707,-1.42092c-0.33468,-0.56661 -0.91303,-1.07744 -1.45909,-1.28588c-0.17908,-0.06752 -0.71927,-0.17321 -1.20074,-0.23486c-1.00698,-0.12624 -1.69982,-0.47853 -2.17249,-1.09505c-0.42569,-0.56074 -0.55486,-0.92771 -0.6723,-1.93469c-0.16147,-1.40331 -0.86899,-2.31047 -2.0756,-2.67451c-0.65175,-0.1967 -1.10679,-0.19376 -1.7468,0.00587M2922.20009,682.96423c-0.6723,0.21138 -1.28881,0.71046 -1.66459,1.34753c-0.26716,0.45798 -0.31707,0.67523 -0.31707,1.42092c0,0.75156 0.04697,0.96294 0.32587,1.4356c0.36697,0.62532 0.93358,1.10092 1.58239,1.33285c0.6312,0.22606 7.17801,0.22606 7.8092,0c0.64881,-0.23193 1.21542,-0.70753 1.58239,-1.33285c0.2789,-0.47266 0.32587,-0.68404 0.32587,-1.4356c0,-0.74569 -0.04991,-0.96294 -0.31707,-1.42092c-0.38752,-0.65468 -0.99523,-1.13909 -1.70863,-1.3534c-0.73688,-0.22312 -6.90792,-0.21725 -7.61838,0.00587" className="SFSymbolsPreviewWireframe"/></g>
  <g id="Regular-S"><path d="M1426.32646,630.07889c-3.27928,0.54899 -6.00369,2.96808 -6.99893,6.21507c-0.20551,0.67523 -0.27009,1.17138 -0.27303,2.12258c-0.00587,1.18019 0.01174,1.26826 0.34936,1.82019c1.16257,1.89065 3.8635,1.91707 5.01433,0.04991c0.22899,-0.37578 0.35817,-0.7956 0.44037,-1.4356c0.14385,-1.13322 0.32881,-1.58533 0.88661,-2.14313c0.5578,-0.55486 1.00991,-0.74276 2.13432,-0.88661c1.06863,-0.13505 1.77028,-0.50496 2.2723,-1.1978c1.189,-1.64111 0.42569,-3.92809 -1.50312,-4.50937c-0.58716,-0.17615 -1.40624,-0.18789 -2.32221,-0.03523M1438.64504,630.11999c-0.6723,0.21138 -1.28881,0.71046 -1.66459,1.34753c-0.26716,0.45798 -0.31707,0.67523 -0.31707,1.42092c0,0.75156 0.04697,0.96294 0.32587,1.4356c0.36697,0.62532 0.93358,1.10092 1.58239,1.33285c0.61064,0.21725 4.26277,0.21725 4.87341,0c0.64881,-0.23193 1.21542,-0.70753 1.58239,-1.33285c0.2789,-0.47266 0.32587,-0.68404 0.32587,-1.4356c0,-0.74569 -0.04991,-0.96294 -0.31707,-1.42092c-0.38752,-0.65468 -0.99523,-1.13909 -1.70863,-1.3534c-0.70459,-0.21138 -3.99855,-0.20844 -4.68259,0.00587M1453.32399,630.11999c-0.6723,0.21138 -1.28881,0.71046 -1.66459,1.34753c-0.26716,0.45798 -0.31707,0.67523 -0.31707,1.42092c0,0.75156 0.04697,0.96294 0.32587,1.4356c0.36697,0.62532 0.93358,1.10092 1.58239,1.33285c0.61064,0.21725 4.26277,0.21725 4.87341,0c0.64881,-0.23193 1.21542,-0.70753 1.58239,-1.33285c0.2789,-0.47266 0.32587,-0.68404 0.32587,-1.4356c0,-0.74569 -0.04991,-0.96294 -0.31707,-1.42092c-0.38752,-0.65468 -0.99523,-1.13909 -1.70863,-1.3534c-0.70459,-0.21138 -3.99855,-0.20844 -4.68259,0.00587M1468.00295,630.11119c-1.89946,0.62532 -2.63047,2.89469 -1.45909,4.51231c0.50202,0.69285 1.20367,1.06276 2.2723,1.1978c1.12441,0.14385 1.57652,0.33174 2.13432,0.88661c0.5578,0.5578 0.74276,1.00991 0.88661,2.14313c0.14092,1.11266 0.53725,1.80845 1.32404,2.33983c1.38276,0.92771 3.23524,0.49908 4.13066,-0.95413c0.33762,-0.55193 0.35523,-0.64 0.34936,-1.82019c-0.00294,-0.9512 -0.06752,-1.44734 -0.27303,-2.12258c-0.8778,-2.86533 -3.15891,-5.15525 -5.93617,-5.95966c-1.17432,-0.33762 -2.76258,-0.4433 -3.429,-0.22312M1421.03029,647.73474c-0.6723,0.21138 -1.28881,0.71046 -1.66459,1.34753c-0.31707,0.53725 -0.31707,0.54899 -0.31707,2.89763v2.35744l0.35523,0.57835c1.18019,1.91707 3.8635,1.91707 5.04369,0l0.35523,-0.57835v-2.35744c0,-2.34863 0,-2.36038 -0.31707,-2.89763c-0.71633,-1.21835 -2.11964,-1.76441 -3.45543,-1.34753M1473.87453,647.73474c-0.6723,0.21138 -1.28881,0.71046 -1.66459,1.34753l-0.31707,0.54019v3.82534v3.82534l0.35523,0.57835c1.18019,1.91707 3.8635,1.91707 5.04369,0l0.35523,-0.57835v-3.82534v-3.82534l-0.31707,-0.54019c-0.71633,-1.21835 -2.11964,-1.76441 -3.45543,-1.34753M1448.7882,656.50101c-2.03744,0.48147 -3.48478,2.43083 -3.3468,4.51231c0.04991,0.74276 0.55193,2.10496 5.30791,14.32666c2.88882,7.42755 5.39011,13.76005 5.56039,14.07418c0.6312,1.16257 2.01689,2.03744 3.41432,2.15487c1.75267,0.14679 3.51708,-0.82789 4.25983,-2.35744c0.12917,-0.26716 0.96,-2.80955 1.84368,-5.6514l1.60588,-5.16406l5.16406,-1.60588c2.84185,-0.88367 5.38424,-1.7145 5.6514,-1.84368c1.37982,-0.66936 2.39267,-2.31634 2.39267,-3.89286c0,-1.54129 -0.98643,-3.1824 -2.32221,-3.86057c-0.79854,-0.40514 -26.84781,-10.50132 -27.50543,-10.65986c-0.72514,-0.17321 -1.37395,-0.18495 -2.0257,-0.03229M1421.03029,662.41369c-0.6723,0.21138 -1.28881,0.71046 -1.66459,1.34753c-0.31707,0.53725 -0.31707,0.54899 -0.31707,2.89763v2.35744l0.35523,0.57835c1.18019,1.91707 3.8635,1.91707 5.04369,0l0.35523,-0.57835v-2.35744c0,-2.34863 0,-2.36038 -0.31707,-2.89763c-0.71633,-1.21835 -2.11964,-1.76441 -3.45543,-1.34753M1462.2899,667.20784c5.17874,2.01102 9.40334,3.67561 9.38279,3.69323c-0.02055,0.02055 -1.47377,0.48734 -3.23524,1.03633c-1.75854,0.54899 -3.45249,1.13028 -3.76368,1.28881c-0.93945,0.4756 -1.94349,1.49432 -2.40735,2.44845c-0.22606,0.46092 -0.83376,2.20771 -1.35046,3.88112c-0.51376,1.67047 -0.95413,3.05616 -0.97468,3.07671c-0.02642,0.02936 -6.7259,-17.10392 -7.43929,-19.02686c-0.07046,-0.18789 -0.04697,-0.21138 0.14092,-0.14092c0.1233,0.04404 4.46534,1.72918 9.64701,3.74313M1421.03029,677.09265c-0.6723,0.21138 -1.28881,0.71046 -1.66459,1.34753c-0.29064,0.49615 -0.31707,0.64 -0.31119,1.77322c0.00294,0.93945 0.06752,1.44147 0.27303,2.11377c0.87487,2.85359 3.12368,5.12002 5.93617,5.98021c1.00991,0.30826 2.65102,0.43743 3.30864,0.25835c0.68698,-0.18789 1.38863,-0.73688 1.77028,-1.38863c0.28477,-0.48441 0.33174,-0.68991 0.33174,-1.44441c0,-0.74569 -0.04991,-0.96294 -0.31707,-1.42092c-0.33468,-0.56661 -0.91303,-1.07744 -1.45909,-1.28588c-0.17908,-0.06752 -0.71927,-0.17321 -1.20074,-0.23486c-1.00698,-0.12624 -1.69982,-0.47853 -2.17249,-1.09505c-0.42569,-0.56074 -0.55486,-0.92771 -0.6723,-1.93469c-0.16147,-1.40331 -0.86899,-2.31047 -2.0756,-2.67451c-0.65175,-0.1967 -1.10679,-0.19376 -1.7468,0.00587M1438.64504,682.96423c-0.6723,0.21138 -1.28881,0.71046 -1.66459,1.34753c-0.26716,0.45798 -0.31707,0.67523 -0.31707,1.42092c0,0.75156 0.04697,0.96294 0.32587,1.4356c0.36697,0.62532 0.93358,1.10092 1.58239,1.33285c0.6312,0.22606 7.17801,0.22606 7.8092,0c0.64881,-0.23193 1.21542,-0.70753 1.58239,-1.33285c0.2789,-0.47266 0.32587,-0.68404 0.32587,-1.4356c0,-0.74569 -0.04991,-0.96294 -0.31707,-1.42092c-0.38752,-0.65468 -0.99523,-1.13909 -1.70863,-1.3534c-0.73688,-0.22312 -6.90792,-0.21725 -7.61838,0.00587" className="SFSymbolsPreviewWireframe"/></g>
  <g id="Ultralight-S"><path d="M536.19287,630.07889c-3.27928,0.54899 -6.00369,2.96808 -6.99893,6.21507c-0.20551,0.67523 -0.27009,1.17138 -0.27303,2.12258c-0.00587,1.18019 0.01174,1.26826 0.34936,1.82019c1.16257,1.89065 3.8635,1.91707 5.01433,0.04991c0.22899,-0.37578 0.35817,-0.7956 0.44037,-1.4356c0.14385,-1.13322 0.32881,-1.58533 0.88661,-2.14313c0.5578,-0.55486 1.00991,-0.74276 2.13432,-0.88661c1.06863,-0.13505 1.77028,-0.50496 2.2723,-1.1978c1.189,-1.64111 0.42569,-3.92809 -1.50312,-4.50937c-0.58716,-0.17615 -1.40624,-0.18789 -2.32221,-0.03523M548.51145,630.11999c-0.6723,0.21138 -1.28881,0.71046 -1.66459,1.34753c-0.26716,0.45798 -0.31707,0.67523 -0.31707,1.42092c0,0.75156 0.04697,0.96294 0.32587,1.4356c0.36697,0.62532 0.93358,1.10092 1.58239,1.33285c0.61064,0.21725 4.26277,0.21725 4.87341,0c0.64881,-0.23193 1.21542,-0.70753 1.58239,-1.33285c0.2789,-0.47266 0.32587,-0.68404 0.32587,-1.4356c0,-0.74569 -0.04991,-0.96294 -0.31707,-1.42092c-0.38752,-0.65468 -0.99523,-1.13909 -1.70863,-1.3534c-0.70459,-0.21138 -3.99855,-0.20844 -4.68259,0.00587M563.1904,630.11999c-0.6723,0.21138 -1.28881,0.71046 -1.66459,1.34753c-0.26716,0.45798 -0.31707,0.67523 -0.31707,1.42092c0,0.75156 0.04697,0.96294 0.32587,1.4356c0.36697,0.62532 0.93358,1.10092 1.58239,1.33285c0.61064,0.21725 4.26277,0.21725 4.87341,0c0.64881,-0.23193 1.21542,-0.70753 1.58239,-1.33285c0.2789,-0.47266 0.32587,-0.68404 0.32587,-1.4356c0,-0.74569 -0.04991,-0.96294 -0.31707,-1.42092c-0.38752,-0.65468 -0.99523,-1.13909 -1.70863,-1.3534c-0.70459,-0.21138 -3.99855,-0.20844 -4.68259,0.00587M577.86936,630.11119c-1.89946,0.62532 -2.63047,2.89469 -1.45909,4.51231c0.50202,0.69285 1.20367,1.06276 2.2723,1.1978c1.12441,0.14385 1.57652,0.33174 2.13432,0.88661c0.5578,0.5578 0.74276,1.00991 0.88661,2.14313c0.14092,1.11266 0.53725,1.80845 1.32404,2.33983c1.38276,0.92771 3.23524,0.49908 4.13066,-0.95413c0.33762,-0.55193 0.35523,-0.64 0.34936,-1.82019c-0.00294,-0.9512 -0.06752,-1.44734 -0.27303,-2.12258c-0.8778,-2.86533 -3.15891,-5.15525 -5.93617,-5.95966c-1.17432,-0.33762 -2.76258,-0.4433 -3.429,-0.22312M530.8967,647.73474c-0.6723,0.21138 -1.28881,0.71046 -1.66459,1.34753c-0.31707,0.53725 -0.31707,0.54899 -0.31707,2.89763v2.35744l0.35523,0.57835c1.18019,1.91707 3.8635,1.91707 5.04369,0l0.35523,-0.57835v-2.35744c0,-2.34863 0,-2.36038 -0.31707,-2.89763c-0.71633,-1.21835 -2.11964,-1.76441 -3.45543,-1.34753M583.74094,647.73474c-0.6723,0.21138 -1.28881,0.71046 -1.66459,1.34753l-0.31707,0.54019v3.82534v3.82534l0.35523,0.57835c1.18019,1.91707 3.8635,1.91707 5.04369,0l0.35523,-0.57835v-3.82534v-3.82534l-0.31707,-0.54019c-0.71633,-1.21835 -2.11964,-1.76441 -3.45543,-1.34753M558.65461,656.50101c-2.03744,0.48147 -3.48478,2.43083 -3.3468,4.51231c0.04991,0.74276 0.55193,2.10496 5.30791,14.32666c2.88882,7.42755 5.39011,13.76005 5.56039,14.07418c0.6312,1.16257 2.01689,2.03744 3.41432,2.15487c1.75267,0.14679 3.51708,-0.82789 4.25983,-2.35744c0.12917,-0.26716 0.96,-2.80955 1.84368,-5.6514l1.60588,-5.16406l5.16406,-1.60588c2.84185,-0.88367 5.38424,-1.7145 5.6514,-1.84368c1.37982,-0.66936 2.39267,-2.31634 2.39267,-3.89286c0,-1.54129 -0.98643,-3.1824 -2.32221,-3.86057c-0.79854,-0.40514 -26.84781,-10.50132 -27.50543,-10.65986c-0.72514,-0.17321 -1.37395,-0.18495 -2.0257,-0.03229M530.8967,662.41369c-0.6723,0.21138 -1.28881,0.71046 -1.66459,1.34753c-0.31707,0.53725 -0.31707,0.54899 -0.31707,2.89763v2.35744l0.35523,0.57835c1.18019,1.91707 3.8635,1.91707 5.04369,0l0.35523,-0.57835v-2.35744c0,-2.34863 0,-2.36038 -0.31707,-2.89763c-0.71633,-1.21835 -2.11964,-1.76441 -3.45543,-1.34753M572.15631,667.20784c5.17874,2.01102 9.40334,3.67561 9.38279,3.69323c-0.02055,0.02055 -1.47377,0.48734 -3.23524,1.03633c-1.75854,0.54899 -3.45249,1.13028 -3.76368,1.28881c-0.93945,0.4756 -1.94349,1.49432 -2.40735,2.44845c-0.22606,0.46092 -0.83376,2.20771 -1.35046,3.88112c-0.51376,1.67047 -0.95413,3.05616 -0.97468,3.07671c-0.02642,0.02936 -6.7259,-17.10392 -7.43929,-19.02686c-0.07046,-0.18789 -0.04697,-0.21138 0.14092,-0.14092c0.1233,0.04404 4.46534,1.72918 9.64701,3.74313M530.8967,677.09265c-0.6723,0.21138 -1.28881,0.71046 -1.66459,1.34753c-0.29064,0.49615 -0.31707,0.64 -0.31119,1.77322c0.00294,0.93945 0.06752,1.44147 0.27303,2.11377c0.87487,2.85359 3.12368,5.12002 5.93617,5.98021c1.00991,0.30826 2.65102,0.43743 3.30864,0.25835c0.68698,-0.18789 1.38863,-0.73688 1.77028,-1.38863c0.28477,-0.48441 0.33174,-0.68991 0.33174,-1.44441c0,-0.74569 -0.04991,-0.96294 -0.31707,-1.42092c-0.33468,-0.56661 -0.91303,-1.07744 -1.45909,-1.28588c-0.17908,-0.06752 -0.71927,-0.17321 -1.20074,-0.23486c-1.00698,-0.12624 -1.69982,-0.47853 -2.17249,-1.09505c-0.42569,-0.56074 -0.55486,-0.92771 -0.6723,-1.93469c-0.16147,-1.40331 -0.86899,-2.31047 -2.0756,-2.67451c-0.65175,-0.1967 -1.10679,-0.19376 -1.7468,0.00587M548.51145,682.96423c-0.6723,0.21138 -1.28881,0.71046 -1.66459,1.34753c-0.26716,0.45798 -0.31707,0.67523 -0.31707,1.42092c0,0.75156 0.04697,0.96294 0.32587,1.4356c0.36697,0.62532 0.93358,1.10092 1.58239,1.33285c0.6312,0.22606 7.17801,0.22606 7.8092,0c0.64881,-0.23193 1.21542,-0.70753 1.58239,-1.33285c0.2789,-0.47266 0.32587,-0.68404 0.32587,-1.4356c0,-0.74569 -0.04991,-0.96294 -0.31707,-1.42092c-0.38752,-0.65468 -0.99523,-1.13909 -1.70863,-1.3534c-0.73688,-0.22312 -6.90792,-0.21725 -7.61838,0.00587" className="SFSymbolsPreviewWireframe"/></g>
 </g>
</svg>