<?xml version="1.0" encoding="UTF-8"?><!--Generator: SymbolKit.app--><!DOCTYPE svg PUBLIC "-//W3C//DTD SVG 1.1//EN" "http://www.w3.org/Graphics/SVG/1.1/DTD/svg11.dtd"><svg xmlns="http://www.w3.org/2000/svg" xmlns:xlink="http://www.w3.org/1999/xlink" version="1.1" viewBox="0 0 3300 2200">
 <!--glyph: "100092", point size: 100.0, font version: "20.0d10e1", template writer version: "138.0.0"-->
 <style>.SFSymbolsPreviewWireframe {fill:none;opacity:1.0;stroke:black;stroke-width:0.5}
</style>
 <g id="Notes">
  <rect height="2200" id="artboard" style="fill:white;opacity:1" width="3300" x="0" y="0"/>
  <line style="fill:none;stroke:black;opacity:1;stroke-width:0.5;" x1="263" x2="3036" y1="292" y2="292"/>
  <text style="stroke:none;fill:black;font-family:sans-serif;font-size:13;font-weight:bold;" transform="matrix(1 0 0 1 263 322)">Weight/Scale Variations</text>
  <text style="stroke:none;fill:black;font-family:sans-serif;font-size:13;text-anchor:middle;" transform="matrix(1 0 0 1 559.711 322)">Ultralight</text>
  <text style="stroke:none;fill:black;font-family:sans-serif;font-size:13;text-anchor:middle;" transform="matrix(1 0 0 1 856.422 322)">Thin</text>
  <text style="stroke:none;fill:black;font-family:sans-serif;font-size:13;text-anchor:middle;" transform="matrix(1 0 0 1 1153.13 322)">Light</text>
  <text style="stroke:none;fill:black;font-family:sans-serif;font-size:13;text-anchor:middle;" transform="matrix(1 0 0 1 1449.84 322)">Regular</text>
  <text style="stroke:none;fill:black;font-family:sans-serif;font-size:13;text-anchor:middle;" transform="matrix(1 0 0 1 1746.56 322)">Medium</text>
  <text style="stroke:none;fill:black;font-family:sans-serif;font-size:13;text-anchor:middle;" transform="matrix(1 0 0 1 2043.27 322)">Semibold</text>
  <text style="stroke:none;fill:black;font-family:sans-serif;font-size:13;text-anchor:middle;" transform="matrix(1 0 0 1 2339.98 322)">Bold</text>
  <text style="stroke:none;fill:black;font-family:sans-serif;font-size:13;text-anchor:middle;" transform="matrix(1 0 0 1 2636.69 322)">Heavy</text>
  <text style="stroke:none;fill:black;font-family:sans-serif;font-size:13;text-anchor:middle;" transform="matrix(1 0 0 1 2933.4 322)">Black</text>
  <line style="fill:none;stroke:black;opacity:1;stroke-width:0.5;" x1="263" x2="3036" y1="1903" y2="1903"/>
  <g transform="matrix(0.2 0 0 0.2 263 1933)">
   <path d="m46.2402 4.15039c21.7773 0 39.4531-17.627 39.4531-39.4043s-17.6758-39.4043-39.4531-39.4043c-21.7285 0-39.4043 17.627-39.4043 39.4043s17.6758 39.4043 39.4043 39.4043Zm0-7.42188c-17.6758 0-31.9336-14.3066-31.9336-31.9824s14.2578-31.9824 31.9336-31.9824 31.9824 14.3066 31.9824 31.9824-14.3066 31.9824-31.9824 31.9824Zm-17.9688-31.9824c0 2.14844 1.51367 3.61328 3.75977 3.61328h10.498v10.5957c0 2.19727 1.46484 3.71094 3.61328 3.71094 2.24609 0 3.71094-1.51367 3.71094-3.71094v-10.5957h10.5957c2.19727 0 3.71094-1.46484 3.71094-3.61328 0-2.19727-1.51367-3.71094-3.71094-3.71094h-10.5957v-10.5469c0-2.24609-1.46484-3.75977-3.71094-3.75977-2.14844 0-3.61328 1.51367-3.61328 3.75977v10.5469h-10.498c-2.24609 0-3.75977 1.51367-3.75977 3.71094Z"/>
  </g>
  <g transform="matrix(0.2 0 0 0.2 281.506 1933)">
   <path d="m58.5449 14.5508c27.4902 0 49.8047-22.3145 49.8047-49.8047s-22.3145-49.8047-49.8047-49.8047-49.8047 22.3145-49.8047 49.8047 22.3145 49.8047 49.8047 49.8047Zm0-8.30078c-22.9492 0-41.5039-18.5547-41.5039-41.5039s18.5547-41.5039 41.5039-41.5039 41.5039 18.5547 41.5039 41.5039-18.5547 41.5039-41.5039 41.5039Zm-22.6562-41.5039c0 2.39258 1.66016 4.00391 4.15039 4.00391h14.3555v14.4043c0 2.44141 1.66016 4.15039 4.05273 4.15039 2.44141 0 4.15039-1.66016 4.15039-4.15039v-14.4043h14.4043c2.44141 0 4.15039-1.61133 4.15039-4.00391 0-2.44141-1.70898-4.15039-4.15039-4.15039h-14.4043v-14.3555c0-2.49023-1.70898-4.19922-4.15039-4.19922-2.39258 0-4.05273 1.70898-4.05273 4.19922v14.3555h-14.3555c-2.49023 0-4.15039 1.70898-4.15039 4.15039Z"/>
  </g>
  <g transform="matrix(0.2 0 0 0.2 304.924 1933)">
   <path d="m74.8535 28.3203c35.1074 0 63.623-28.4668 63.623-63.5742s-28.5156-63.623-63.623-63.623-63.5742 28.5156-63.5742 63.623 28.4668 63.5742 63.5742 63.5742Zm0-9.08203c-30.127 0-54.4922-24.3652-54.4922-54.4922s24.3652-54.4922 54.4922-54.4922 54.4922 24.3652 54.4922 54.4922-24.3652 54.4922-54.4922 54.4922Zm-28.8574-54.4922c0 2.58789 1.85547 4.39453 4.58984 4.39453h19.7266v19.7754c0 2.68555 1.85547 4.58984 4.44336 4.58984 2.68555 0 4.54102-1.85547 4.54102-4.58984v-19.7754h19.7754c2.68555 0 4.58984-1.80664 4.58984-4.39453 0-2.73438-1.85547-4.58984-4.58984-4.58984h-19.7754v-19.7266c0-2.73438-1.85547-4.63867-4.54102-4.63867-2.58789 0-4.44336 1.9043-4.44336 4.63867v19.7266h-19.7266c-2.73438 0-4.58984 1.85547-4.58984 4.58984Z"/>
  </g>
  <text style="stroke:none;fill:black;font-family:sans-serif;font-size:13;font-weight:bold;" transform="matrix(1 0 0 1 263 1953)">Design Variations</text>
  <text style="stroke:none;fill:black;font-family:sans-serif;font-size:13;" transform="matrix(1 0 0 1 263 1971)">Symbols are supported in up to nine weights and three scales.</text>
  <text style="stroke:none;fill:black;font-family:sans-serif;font-size:13;" transform="matrix(1 0 0 1 263 1989)">For optimal layout with text and other symbols, vertically align</text>
  <text style="stroke:none;fill:black;font-family:sans-serif;font-size:13;" transform="matrix(1 0 0 1 263 2007)">symbols with the adjacent text.</text>
  <line style="fill:none;stroke:#00AEEF;stroke-width:0.5;opacity:1.0;" x1="776" x2="776" y1="1919" y2="1933"/>
  <g transform="matrix(0.2 0 0 0.2 776 1933)">
   <path d="m16.5527 0.78125c2.58789 0 3.85742-0.976562 4.78516-3.71094l6.29883-17.2363h28.8086l6.29883 17.2363c0.927734 2.73438 2.19727 3.71094 4.73633 3.71094 2.58789 0 4.24805-1.5625 4.24805-4.00391 0-0.830078-0.146484-1.61133-0.537109-2.63672l-22.9004-60.9863c-1.12305-2.97852-3.125-4.49219-6.25-4.49219-3.02734 0-5.07812 1.46484-6.15234 4.44336l-22.9004 61.084c-0.390625 1.02539-0.537109 1.80664-0.537109 2.63672 0 2.44141 1.5625 3.95508 4.10156 3.95508Zm13.4766-28.3691 11.8652-32.8613h0.244141l11.8652 32.8613Z"/>
  </g>
  <line style="fill:none;stroke:#00AEEF;stroke-width:0.5;opacity:1.0;" x1="792.836" x2="792.836" y1="1919" y2="1933"/>
  <text style="stroke:none;fill:black;font-family:sans-serif;font-size:13;font-weight:bold;" transform="matrix(1 0 0 1 776 1953)">Margins</text>
  <text style="stroke:none;fill:black;font-family:sans-serif;font-size:13;" transform="matrix(1 0 0 1 776 1971)">Leading and trailing margins on the left and right side of each symbol</text>
  <text style="stroke:none;fill:black;font-family:sans-serif;font-size:13;" transform="matrix(1 0 0 1 776 1989)">can be adjusted by modifying the x-location of the margin guidelines.</text>
  <text style="stroke:none;fill:black;font-family:sans-serif;font-size:13;" transform="matrix(1 0 0 1 776 2007)">Modifications are automatically applied proportionally to all</text>
  <text style="stroke:none;fill:black;font-family:sans-serif;font-size:13;" transform="matrix(1 0 0 1 776 2025)">scales and weights.</text>
  <g transform="matrix(0.2 0 0 0.2 1289 1933)">
   <path d="m14.209 9.32617 8.49609 8.54492c4.29688 4.3457 9.22852 4.05273 13.8672-1.07422l53.4668-58.9355-4.83398-4.88281-53.0762 58.3984c-1.75781 2.00195-3.41797 2.49023-5.76172 0.146484l-5.85938-5.81055c-2.34375-2.29492-1.80664-4.00391 0.195312-5.81055l57.373-54.0039-4.88281-4.83398-57.959 54.4434c-4.93164 4.58984-5.32227 9.47266-1.02539 13.8184Zm32.0801-90.9668c-2.09961 2.05078-2.24609 4.93164-1.07422 6.88477 1.17188 1.80664 3.4668 2.97852 6.68945 2.14844 7.32422-1.70898 14.9414-2.00195 22.0703 2.68555l-2.92969 7.27539c-1.70898 4.15039-0.830078 7.08008 1.85547 9.81445l11.4746 11.5723c2.44141 2.44141 4.49219 2.53906 7.32422 2.05078l5.32227-0.976562 3.32031 3.36914-0.195312 2.7832c-0.195312 2.49023 0.439453 4.39453 2.88086 6.78711l3.80859 3.71094c2.39258 2.39258 5.46875 2.53906 7.8125 0.195312l14.5508-14.5996c2.34375-2.34375 2.24609-5.32227-0.146484-7.71484l-3.85742-3.80859c-2.39258-2.39258-4.24805-3.17383-6.64062-2.97852l-2.88086 0.244141-3.22266-3.17383 1.2207-5.61523c0.634766-2.83203-0.146484-5.0293-3.07617-7.95898l-10.9863-10.9375c-16.6992-16.6016-38.8672-16.2109-53.3203-1.75781Zm7.4707 1.85547c12.1582-8.88672 28.6133-7.37305 39.7461 3.75977l12.1582 12.0605c1.17188 1.17188 1.36719 2.09961 1.02539 3.80859l-1.61133 7.42188 7.51953 7.42188 4.93164-0.292969c1.26953-0.0488281 1.66016 0.0488281 2.63672 1.02539l2.88086 2.88086-12.207 12.207-2.88086-2.88086c-0.976562-0.976562-1.12305-1.36719-1.07422-2.68555l0.341797-4.88281-7.4707-7.42188-7.61719 1.26953c-1.61133 0.341797-2.34375 0.195312-3.56445-0.976562l-10.0098-10.0098c-1.26953-1.17188-1.41602-2.00195-0.634766-3.85742l4.39453-10.4492c-7.8125-7.27539-17.9688-10.4004-28.125-7.42188-0.78125 0.195312-1.07422-0.439453-0.439453-0.976562Z"/>
  </g>
  <text style="stroke:none;fill:black;font-family:sans-serif;font-size:13;font-weight:bold;" transform="matrix(1 0 0 1 1289 1953)">Exporting</text>
  <text style="stroke:none;fill:black;font-family:sans-serif;font-size:13;" transform="matrix(1 0 0 1 1289 1971)">Symbols should be outlined when exporting to ensure the</text>
  <text style="stroke:none;fill:black;font-family:sans-serif;font-size:13;" transform="matrix(1 0 0 1 1289 1989)">design is preserved when submitting to Xcode.</text>
  <text id="template-version" style="stroke:none;fill:black;font-family:sans-serif;font-size:13;text-anchor:end;" transform="matrix(1 0 0 1 3036 1933)">Template v.6.0</text>
  <text style="stroke:none;fill:black;font-family:sans-serif;font-size:13;text-anchor:end;" transform="matrix(1 0 0 1 3036 1951)">Requires Xcode 16 or greater</text>
  <text id="descriptive-name" style="stroke:none;fill:black;font-family:sans-serif;font-size:13;text-anchor:end;" transform="matrix(1 0 0 1 3036 1969)">Generated from square</text>
  <text style="stroke:none;fill:black;font-family:sans-serif;font-size:13;text-anchor:end;" transform="matrix(1 0 0 1 3036 1987)">Typeset at 100.0 points</text>
  <text style="stroke:none;fill:black;font-family:sans-serif;font-size:13;" transform="matrix(1 0 0 1 263 726)">Small</text>
  <text style="stroke:none;fill:black;font-family:sans-serif;font-size:13;" transform="matrix(1 0 0 1 263 1156)">Medium</text>
  <text style="stroke:none;fill:black;font-family:sans-serif;font-size:13;" transform="matrix(1 0 0 1 263 1586)">Large</text>
 </g>
 <g id="Guides">
  <g id="H-reference" style="fill:#27AAE1;stroke:none;" transform="matrix(1 0 0 1 339 696)">
   <path d="M0.993654 0L3.63775 0L29.3281-67.1323L30.0303-67.1323L30.0303-70.459L28.1226-70.459ZM11.6885-24.4799L46.9815-24.4799L46.2315-26.7285L12.4385-26.7285ZM55.1196 0L57.7637 0L30.6382-70.459L29.4326-70.459L29.4326-67.1323Z"/>
  </g>
  <line id="Baseline-S" style="fill:none;stroke:#27AAE1;opacity:1;stroke-width:0.5;" x1="263" x2="3036" y1="696" y2="696"/>
  <line id="Capline-S" style="fill:none;stroke:#27AAE1;opacity:1;stroke-width:0.5;" x1="263" x2="3036" y1="625.541" y2="625.541"/>
  <g id="H-reference" style="fill:#27AAE1;stroke:none;" transform="matrix(1 0 0 1 339 1126)">
   <path d="M0.993654 0L3.63775 0L29.3281-67.1323L30.0303-67.1323L30.0303-70.459L28.1226-70.459ZM11.6885-24.4799L46.9815-24.4799L46.2315-26.7285L12.4385-26.7285ZM55.1196 0L57.7637 0L30.6382-70.459L29.4326-70.459L29.4326-67.1323Z"/>
  </g>
  <line id="Baseline-M" style="fill:none;stroke:#27AAE1;opacity:1;stroke-width:0.5;" x1="263" x2="3036" y1="1126" y2="1126"/>
  <line id="Capline-M" style="fill:none;stroke:#27AAE1;opacity:1;stroke-width:0.5;" x1="263" x2="3036" y1="1055.54" y2="1055.54"/>
  <g id="H-reference" style="fill:#27AAE1;stroke:none;" transform="matrix(1 0 0 1 339 1556)">
   <path d="M0.993654 0L3.63775 0L29.3281-67.1323L30.0303-67.1323L30.0303-70.459L28.1226-70.459ZM11.6885-24.4799L46.9815-24.4799L46.2315-26.7285L12.4385-26.7285ZM55.1196 0L57.7637 0L30.6382-70.459L29.4326-70.459L29.4326-67.1323Z"/>
  </g>
  <line id="Baseline-L" style="fill:none;stroke:#27AAE1;opacity:1;stroke-width:0.5;" x1="263" x2="3036" y1="1556" y2="1556"/>
  <line id="Capline-L" style="fill:none;stroke:#27AAE1;opacity:1;stroke-width:0.5;" x1="263" x2="3036" y1="1485.54" y2="1485.54"/>
  <line id="right-margin-Black-S" style="fill:none;stroke:#00AEEF;stroke-width:0.5;opacity:1.0;" x1="2981.3" x2="2981.3" y1="600.785" y2="720.121"/>
  <line id="left-margin-Black-S" style="fill:none;stroke:#00AEEF;stroke-width:0.5;opacity:1.0;" x1="2885.5" x2="2885.5" y1="600.785" y2="720.121"/>
  <line id="right-margin-Regular-S" style="fill:none;stroke:#00AEEF;stroke-width:0.5;opacity:1.0;" x1="1495.18" x2="1495.18" y1="600.785" y2="720.121"/>
  <line id="left-margin-Regular-S" style="fill:none;stroke:#00AEEF;stroke-width:0.5;opacity:1.0;" x1="1404.51" x2="1404.51" y1="600.785" y2="720.121"/>
  <line id="right-margin-Ultralight-S" style="fill:none;stroke:#00AEEF;stroke-width:0.5;opacity:1.0;" x1="603.073" x2="603.073" y1="600.785" y2="720.121"/>
  <line id="left-margin-Ultralight-S" style="fill:none;stroke:#00AEEF;stroke-width:0.5;opacity:1.0;" x1="516.35" x2="516.35" y1="600.785" y2="720.121"/>
 </g>
 <g id="Symbols">
  <g id="Black-S"><path d="M2903.0486,628.67842c-0.65175,0.2378 -1.23303,0.72808 -1.5912,1.33578c-0.27009,0.45798 -0.31707,0.6723 -0.31413,1.42092c0,0.62239 0.06459,1.0011 0.21725,1.29175c0.11743,0.22606 4.92039,5.12296 10.66866,10.88004l10.45729,10.46609l0.09982,0.6312c0.10275,0.64294 0.06165,1.13322 -0.15853,1.86129c-0.06752,0.22606 -2.18423,4.2657 -4.7002,8.97765c-2.51891,4.71194 -4.65029,8.77508 -4.7413,9.02756c-0.67523,1.91707 0.97762,4.00442 3.01799,3.81066c0.73395,-0.07046 1.58239,-0.50789 1.9934,-1.03046c0.38165,-0.48441 9.62352,-17.75566 9.62352,-17.98466c0,-0.08807 2.9857,2.82717 6.63489,6.47635l6.63489,6.63489l-4.60919,0.06459c-4.60332,0.06459 -4.60919,0.06459 -5.55158,0.37872c-2.75671,0.9189 -4.8969,2.91524 -7.44223,6.94021c-1.05101,1.65872 -2.36038,2.80955 -3.94864,3.47304c-5.00846,2.08441 -10.58059,-0.64294 -11.92812,-5.83635c-0.31119,-1.20074 -0.33174,-3.0679 -0.04991,-4.19818c0.1145,-0.45211 0.44037,-1.32991 0.7222,-1.94937c0.77798,-1.70863 0.68991,-2.75377 -0.32,-3.76662c-1.06569,-1.06863 -2.54827,-1.19487 -3.81653,-0.32294c-0.36991,0.25541 -0.61945,0.58716 -1.02166,1.36808c-1.16257,2.25175 -1.65285,4.25983 -1.64111,6.7259c0.01761,3.97506 1.48257,7.47159 4.30387,10.28114c1.7468,1.73799 3.33799,2.73322 5.59268,3.49653c5.07305,1.72037 10.48077,0.59303 14.51161,-3.02974c1.05101,-0.94239 1.86423,-1.94937 2.80955,-3.46717c1.00698,-1.62056 1.45909,-2.20478 2.29872,-2.98276c1.36514,-1.26533 0.74863,-1.18019 8.91013,-1.21835l7.10168,-0.03229l2.85359,2.85065c3.16478,3.16185 3.07377,2.99157 1.60294,3.01506c-1.29175,0.02055 -2.25762,0.54019 -2.83891,1.52661c-0.26716,0.45798 -0.31707,0.67523 -0.31707,1.42092c0,0.75156 0.04697,0.96294 0.32587,1.4356c0.59597,1.01578 1.53835,1.50019 2.90937,1.50019c1.56771,0 3.59341,-0.39927 5.10828,-1.00404l0.78092,-0.31413l1.89652,1.87891c1.04221,1.0334 2.08148,1.97579 2.30753,2.09322c0.29358,0.1556 0.66349,0.22018 1.29175,0.22018c0.75743,0.00294 0.96,-0.04404 1.44441,-0.32881c1.39744,-0.82202 1.89946,-2.64221 1.09505,-3.98974c-0.16147,-0.27009 -13.65143,-13.84225 -29.9803,-30.15938c-27.45845,-27.4379 -29.73369,-29.68085 -30.26801,-29.85699c-0.69285,-0.22899 -1.37689,-0.23193 -1.97579,-0.01174M2932.0777,628.63145c-3.22643,0.28477 -6.39709,1.74092 -8.77802,4.02791c-1.17138,1.12147 -1.54129,1.70863 -1.6323,2.57469c-0.22018,2.12551 1.80258,3.74901 3.82827,3.07377c0.46973,-0.1556 0.87487,-0.44918 1.76147,-1.27707c1.96698,-1.83487 3.71084,-2.55707 6.1769,-2.56001c3.16478,-0.00587 5.85397,1.48551 7.54498,4.18644c0.76037,1.21248 1.59413,1.74092 2.73029,1.72918c0.76331,-0.00881 1.35927,-0.2378 1.94056,-0.74863c0.66349,-0.58422 0.92771,-1.19487 0.93358,-2.15487c0.00294,-0.76331 -0.03523,-0.89248 -0.5167,-1.73212c-2.02863,-3.54644 -5.99195,-6.30314 -9.9905,-6.95489c-1.40624,-0.22606 -2.69506,-0.28184 -3.99855,-0.1644M2932.34779,640.43626c-1.40624,0.49908 -2.25175,2.27817 -1.74973,3.68442c0.25248,0.71046 2.09028,3.67267 2.5512,4.12185c1.92001,1.85836 5.16406,0.22899 4.88516,-2.45432c-0.05578,-0.54899 -0.2378,-0.93358 -1.25065,-2.62166c-1.26533,-2.11083 -1.60001,-2.47487 -2.5424,-2.75671c-0.68698,-0.20844 -1.25065,-0.19963 -1.89359,0.02642M2951.76511,660.97799c-1.50019,0.54899 -2.33983,2.30166 -1.77909,3.71378c0.48441,1.21542 1.05395,1.62349 2.91524,2.08441c0.72808,0.17908 1.56184,0.44624 1.84955,0.59303c2.60405,1.32404 4.29506,3.55524 4.89103,6.44993c0.22606,1.10092 0.48441,1.62349 1.05101,2.11964c0.58422,0.51083 1.08624,0.70753 1.81725,0.70753c1.1978,0 2.05505,-0.4756 2.6334,-1.46496c0.42863,-0.73101 0.47266,-1.43267 0.17908,-2.86533c-1.17138,-5.69543 -5.64259,-10.13435 -11.43491,-11.35564c-0.98055,-0.20551 -1.52661,-0.20257 -2.12258,0.01761" className="SFSymbolsPreviewWireframe"/></g>
  <g id="Regular-S"><path d="M1419.49355,628.67842c-0.65175,0.2378 -1.23303,0.72808 -1.5912,1.33578c-0.27009,0.45798 -0.31707,0.6723 -0.31413,1.42092c0,0.62239 0.06459,1.0011 0.21725,1.29175c0.11743,0.22606 4.92039,5.12296 10.66866,10.88004l10.45729,10.46609l0.09982,0.6312c0.10275,0.64294 0.06165,1.13322 -0.15853,1.86129c-0.06752,0.22606 -2.18423,4.2657 -4.7002,8.97765c-2.51891,4.71194 -4.65029,8.77508 -4.7413,9.02756c-0.67523,1.91707 0.97762,4.00442 3.01799,3.81066c0.73395,-0.07046 1.58239,-0.50789 1.9934,-1.03046c0.38165,-0.48441 9.62352,-17.75566 9.62352,-17.98466c0,-0.08807 2.9857,2.82717 6.63489,6.47635l6.63489,6.63489l-4.60919,0.06459c-4.60332,0.06459 -4.60919,0.06459 -5.55158,0.37872c-2.75671,0.9189 -4.8969,2.91524 -7.44223,6.94021c-1.05101,1.65872 -2.36038,2.80955 -3.94864,3.47304c-5.00846,2.08441 -10.58059,-0.64294 -11.92812,-5.83635c-0.31119,-1.20074 -0.33174,-3.0679 -0.04991,-4.19818c0.1145,-0.45211 0.44037,-1.32991 0.7222,-1.94937c0.77798,-1.70863 0.68991,-2.75377 -0.32,-3.76662c-1.06569,-1.06863 -2.54827,-1.19487 -3.81653,-0.32294c-0.36991,0.25541 -0.61945,0.58716 -1.02166,1.36808c-1.16257,2.25175 -1.65285,4.25983 -1.64111,6.7259c0.01761,3.97506 1.48257,7.47159 4.30387,10.28114c1.7468,1.73799 3.33799,2.73322 5.59268,3.49653c5.07305,1.72037 10.48077,0.59303 14.51161,-3.02974c1.05101,-0.94239 1.86423,-1.94937 2.80955,-3.46717c1.00698,-1.62056 1.45909,-2.20478 2.29872,-2.98276c1.36514,-1.26533 0.74863,-1.18019 8.91013,-1.21835l7.10168,-0.03229l2.85359,2.85065c3.16478,3.16185 3.07377,2.99157 1.60294,3.01506c-1.29175,0.02055 -2.25762,0.54019 -2.83891,1.52661c-0.26716,0.45798 -0.31707,0.67523 -0.31707,1.42092c0,0.75156 0.04697,0.96294 0.32587,1.4356c0.59597,1.01578 1.53835,1.50019 2.90937,1.50019c1.56771,0 3.59341,-0.39927 5.10828,-1.00404l0.78092,-0.31413l1.89652,1.87891c1.04221,1.0334 2.08148,1.97579 2.30753,2.09322c0.29358,0.1556 0.66349,0.22018 1.29175,0.22018c0.75743,0.00294 0.96,-0.04404 1.44441,-0.32881c1.39744,-0.82202 1.89946,-2.64221 1.09505,-3.98974c-0.16147,-0.27009 -13.65143,-13.84225 -29.9803,-30.15938c-27.45845,-27.4379 -29.73369,-29.68085 -30.26801,-29.85699c-0.69285,-0.22899 -1.37689,-0.23193 -1.97579,-0.01174M1448.52265,628.63145c-3.22643,0.28477 -6.39709,1.74092 -8.77802,4.02791c-1.17138,1.12147 -1.54129,1.70863 -1.6323,2.57469c-0.22018,2.12551 1.80258,3.74901 3.82827,3.07377c0.46973,-0.1556 0.87487,-0.44918 1.76147,-1.27707c1.96698,-1.83487 3.71084,-2.55707 6.1769,-2.56001c3.16478,-0.00587 5.85397,1.48551 7.54498,4.18644c0.76037,1.21248 1.59413,1.74092 2.73029,1.72918c0.76331,-0.00881 1.35927,-0.2378 1.94056,-0.74863c0.66349,-0.58422 0.92771,-1.19487 0.93358,-2.15487c0.00294,-0.76331 -0.03523,-0.89248 -0.5167,-1.73212c-2.02863,-3.54644 -5.99195,-6.30314 -9.9905,-6.95489c-1.40624,-0.22606 -2.69506,-0.28184 -3.99855,-0.1644M1448.79274,640.43626c-1.40624,0.49908 -2.25175,2.27817 -1.74973,3.68442c0.25248,0.71046 2.09028,3.67267 2.5512,4.12185c1.92001,1.85836 5.16406,0.22899 4.88516,-2.45432c-0.05578,-0.54899 -0.2378,-0.93358 -1.25065,-2.62166c-1.26533,-2.11083 -1.60001,-2.47487 -2.5424,-2.75671c-0.68698,-0.20844 -1.25065,-0.19963 -1.89359,0.02642M1468.21006,660.97799c-1.50019,0.54899 -2.33983,2.30166 -1.77909,3.71378c0.48441,1.21542 1.05395,1.62349 2.91524,2.08441c0.72808,0.17908 1.56184,0.44624 1.84955,0.59303c2.60405,1.32404 4.29506,3.55524 4.89103,6.44993c0.22606,1.10092 0.48441,1.62349 1.05101,2.11964c0.58422,0.51083 1.08624,0.70753 1.81725,0.70753c1.1978,0 2.05505,-0.4756 2.6334,-1.46496c0.42863,-0.73101 0.47266,-1.43267 0.17908,-2.86533c-1.17138,-5.69543 -5.64259,-10.13435 -11.43491,-11.35564c-0.98055,-0.20551 -1.52661,-0.20257 -2.12258,0.01761" className="SFSymbolsPreviewWireframe"/></g>
  <g id="Ultralight-S"><path d="M529.35996,628.67842c-0.65175,0.2378 -1.23303,0.72808 -1.5912,1.33578c-0.27009,0.45798 -0.31707,0.6723 -0.31413,1.42092c0,0.62239 0.06459,1.0011 0.21725,1.29175c0.11743,0.22606 4.92039,5.12296 10.66866,10.88004l10.45729,10.46609l0.09982,0.6312c0.10275,0.64294 0.06165,1.13322 -0.15853,1.86129c-0.06752,0.22606 -2.18423,4.2657 -4.7002,8.97765c-2.51891,4.71194 -4.65029,8.77508 -4.7413,9.02756c-0.67523,1.91707 0.97762,4.00442 3.01799,3.81066c0.73395,-0.07046 1.58239,-0.50789 1.9934,-1.03046c0.38165,-0.48441 9.62352,-17.75566 9.62352,-17.98466c0,-0.08807 2.9857,2.82717 6.63489,6.47635l6.63489,6.63489l-4.60919,0.06459c-4.60332,0.06459 -4.60919,0.06459 -5.55158,0.37872c-2.75671,0.9189 -4.8969,2.91524 -7.44223,6.94021c-1.05101,1.65872 -2.36038,2.80955 -3.94864,3.47304c-5.00846,2.08441 -10.58059,-0.64294 -11.92812,-5.83635c-0.31119,-1.20074 -0.33174,-3.0679 -0.04991,-4.19818c0.1145,-0.45211 0.44037,-1.32991 0.7222,-1.94937c0.77798,-1.70863 0.68991,-2.75377 -0.32,-3.76662c-1.06569,-1.06863 -2.54827,-1.19487 -3.81653,-0.32294c-0.36991,0.25541 -0.61945,0.58716 -1.02166,1.36808c-1.16257,2.25175 -1.65285,4.25983 -1.64111,6.7259c0.01761,3.97506 1.48257,7.47159 4.30387,10.28114c1.7468,1.73799 3.33799,2.73322 5.59268,3.49653c5.07305,1.72037 10.48077,0.59303 14.51161,-3.02974c1.05101,-0.94239 1.86423,-1.94937 2.80955,-3.46717c1.00698,-1.62056 1.45909,-2.20478 2.29872,-2.98276c1.36514,-1.26533 0.74863,-1.18019 8.91013,-1.21835l7.10168,-0.03229l2.85359,2.85065c3.16478,3.16185 3.07377,2.99157 1.60294,3.01506c-1.29175,0.02055 -2.25762,0.54019 -2.83891,1.52661c-0.26716,0.45798 -0.31707,0.67523 -0.31707,1.42092c0,0.75156 0.04697,0.96294 0.32587,1.4356c0.59597,1.01578 1.53835,1.50019 2.90937,1.50019c1.56771,0 3.59341,-0.39927 5.10828,-1.00404l0.78092,-0.31413l1.89652,1.87891c1.04221,1.0334 2.08148,1.97579 2.30753,2.09322c0.29358,0.1556 0.66349,0.22018 1.29175,0.22018c0.75743,0.00294 0.96,-0.04404 1.44441,-0.32881c1.39744,-0.82202 1.89946,-2.64221 1.09505,-3.98974c-0.16147,-0.27009 -13.65143,-13.84225 -29.9803,-30.15938c-27.45845,-27.4379 -29.73369,-29.68085 -30.26801,-29.85699c-0.69285,-0.22899 -1.37689,-0.23193 -1.97579,-0.01174M558.38906,628.63145c-3.22643,0.28477 -6.39709,1.74092 -8.77802,4.02791c-1.17138,1.12147 -1.54129,1.70863 -1.6323,2.57469c-0.22018,2.12551 1.80258,3.74901 3.82827,3.07377c0.46973,-0.1556 0.87487,-0.44918 1.76147,-1.27707c1.96698,-1.83487 3.71084,-2.55707 6.1769,-2.56001c3.16478,-0.00587 5.85397,1.48551 7.54498,4.18644c0.76037,1.21248 1.59413,1.74092 2.73029,1.72918c0.76331,-0.00881 1.35927,-0.2378 1.94056,-0.74863c0.66349,-0.58422 0.92771,-1.19487 0.93358,-2.15487c0.00294,-0.76331 -0.03523,-0.89248 -0.5167,-1.73212c-2.02863,-3.54644 -5.99195,-6.30314 -9.9905,-6.95489c-1.40624,-0.22606 -2.69506,-0.28184 -3.99855,-0.1644M558.65915,640.43626c-1.40624,0.49908 -2.25175,2.27817 -1.74973,3.68442c0.25248,0.71046 2.09028,3.67267 2.5512,4.12185c1.92001,1.85836 5.16406,0.22899 4.88516,-2.45432c-0.05578,-0.54899 -0.2378,-0.93358 -1.25065,-2.62166c-1.26533,-2.11083 -1.60001,-2.47487 -2.5424,-2.75671c-0.68698,-0.20844 -1.25065,-0.19963 -1.89359,0.02642M578.07647,660.97799c-1.50019,0.54899 -2.33983,2.30166 -1.77909,3.71378c0.48441,1.21542 1.05395,1.62349 2.91524,2.08441c0.72808,0.17908 1.56184,0.44624 1.84955,0.59303c2.60405,1.32404 4.29506,3.55524 4.89103,6.44993c0.22606,1.10092 0.48441,1.62349 1.05101,2.11964c0.58422,0.51083 1.08624,0.70753 1.81725,0.70753c1.1978,0 2.05505,-0.4756 2.6334,-1.46496c0.42863,-0.73101 0.47266,-1.43267 0.17908,-2.86533c-1.17138,-5.69543 -5.64259,-10.13435 -11.43491,-11.35564c-0.98055,-0.20551 -1.52661,-0.20257 -2.12258,0.01761" className="SFSymbolsPreviewWireframe"/></g>
 </g>
</svg>