<?xml version="1.0" encoding="UTF-8"?><!--Generator: https://SymbolKit.app--><!DOCTYPE svg PUBLIC "-//W3C//DTD SVG 1.1//EN" "http://www.w3.org/Graphics/SVG/1.1/DTD/svg11.dtd"><svg xmlns="http://www.w3.org/2000/svg" xmlns:xlink="http://www.w3.org/1999/xlink" version="1.1" viewBox="0 0 3300 2200">
 <!--glyph: "100092", point size: 100.0, font version: "20.0d10e1", template writer version: "138.0.0"-->
 <style>.SFSymbolsPreviewWireframe {fill:none;opacity:1.0;stroke:black;stroke-width:0.5}
</style>
 <g id="Notes">
  <rect height="2200" id="artboard" style="fill:white;opacity:1" width="3300" x="0" y="0"/>
  <line style="fill:none;stroke:black;opacity:1;stroke-width:0.5;" x1="263" x2="3036" y1="292" y2="292"/>
  <text style="stroke:none;fill:black;font-family:sans-serif;font-size:13;font-weight:bold;" transform="matrix(1 0 0 1 263 322)">Weight/Scale Variations</text>
  <text style="stroke:none;fill:black;font-family:sans-serif;font-size:13;text-anchor:middle;" transform="matrix(1 0 0 1 559.711 322)">Ultralight</text>
  <text style="stroke:none;fill:black;font-family:sans-serif;font-size:13;text-anchor:middle;" transform="matrix(1 0 0 1 856.422 322)">Thin</text>
  <text style="stroke:none;fill:black;font-family:sans-serif;font-size:13;text-anchor:middle;" transform="matrix(1 0 0 1 1153.13 322)">Light</text>
  <text style="stroke:none;fill:black;font-family:sans-serif;font-size:13;text-anchor:middle;" transform="matrix(1 0 0 1 1449.84 322)">Regular</text>
  <text style="stroke:none;fill:black;font-family:sans-serif;font-size:13;text-anchor:middle;" transform="matrix(1 0 0 1 1746.56 322)">Medium</text>
  <text style="stroke:none;fill:black;font-family:sans-serif;font-size:13;text-anchor:middle;" transform="matrix(1 0 0 1 2043.27 322)">Semibold</text>
  <text style="stroke:none;fill:black;font-family:sans-serif;font-size:13;text-anchor:middle;" transform="matrix(1 0 0 1 2339.98 322)">Bold</text>
  <text style="stroke:none;fill:black;font-family:sans-serif;font-size:13;text-anchor:middle;" transform="matrix(1 0 0 1 2636.69 322)">Heavy</text>
  <text style="stroke:none;fill:black;font-family:sans-serif;font-size:13;text-anchor:middle;" transform="matrix(1 0 0 1 2933.4 322)">Black</text>
  <line style="fill:none;stroke:black;opacity:1;stroke-width:0.5;" x1="263" x2="3036" y1="1903" y2="1903"/>
  <g transform="matrix(0.2 0 0 0.2 263 1933)">
   <path d="m46.2402 4.15039c21.7773 0 39.4531-17.627 39.4531-39.4043s-17.6758-39.4043-39.4531-39.4043c-21.7285 0-39.4043 17.627-39.4043 39.4043s17.6758 39.4043 39.4043 39.4043Zm0-7.42188c-17.6758 0-31.9336-14.3066-31.9336-31.9824s14.2578-31.9824 31.9336-31.9824 31.9824 14.3066 31.9824 31.9824-14.3066 31.9824-31.9824 31.9824Zm-17.9688-31.9824c0 2.14844 1.51367 3.61328 3.75977 3.61328h10.498v10.5957c0 2.19727 1.46484 3.71094 3.61328 3.71094 2.24609 0 3.71094-1.51367 3.71094-3.71094v-10.5957h10.5957c2.19727 0 3.71094-1.46484 3.71094-3.61328 0-2.19727-1.51367-3.71094-3.71094-3.71094h-10.5957v-10.5469c0-2.24609-1.46484-3.75977-3.71094-3.75977-2.14844 0-3.61328 1.51367-3.61328 3.75977v10.5469h-10.498c-2.24609 0-3.75977 1.51367-3.75977 3.71094Z"/>
  </g>
  <g transform="matrix(0.2 0 0 0.2 281.506 1933)">
   <path d="m58.5449 14.5508c27.4902 0 49.8047-22.3145 49.8047-49.8047s-22.3145-49.8047-49.8047-49.8047-49.8047 22.3145-49.8047 49.8047 22.3145 49.8047 49.8047 49.8047Zm0-8.30078c-22.9492 0-41.5039-18.5547-41.5039-41.5039s18.5547-41.5039 41.5039-41.5039 41.5039 18.5547 41.5039 41.5039-18.5547 41.5039-41.5039 41.5039Zm-22.6562-41.5039c0 2.39258 1.66016 4.00391 4.15039 4.00391h14.3555v14.4043c0 2.44141 1.66016 4.15039 4.05273 4.15039 2.44141 0 4.15039-1.66016 4.15039-4.15039v-14.4043h14.4043c2.44141 0 4.15039-1.61133 4.15039-4.00391 0-2.44141-1.70898-4.15039-4.15039-4.15039h-14.4043v-14.3555c0-2.49023-1.70898-4.19922-4.15039-4.19922-2.39258 0-4.05273 1.70898-4.05273 4.19922v14.3555h-14.3555c-2.49023 0-4.15039 1.70898-4.15039 4.15039Z"/>
  </g>
  <g transform="matrix(0.2 0 0 0.2 304.924 1933)">
   <path d="m74.8535 28.3203c35.1074 0 63.623-28.4668 63.623-63.5742s-28.5156-63.623-63.623-63.623-63.5742 28.5156-63.5742 63.623 28.4668 63.5742 63.5742 63.5742Zm0-9.08203c-30.127 0-54.4922-24.3652-54.4922-54.4922s24.3652-54.4922 54.4922-54.4922 54.4922 24.3652 54.4922 54.4922-24.3652 54.4922-54.4922 54.4922Zm-28.8574-54.4922c0 2.58789 1.85547 4.39453 4.58984 4.39453h19.7266v19.7754c0 2.68555 1.85547 4.58984 4.44336 4.58984 2.68555 0 4.54102-1.85547 4.54102-4.58984v-19.7754h19.7754c2.68555 0 4.58984-1.80664 4.58984-4.39453 0-2.73438-1.85547-4.58984-4.58984-4.58984h-19.7754v-19.7266c0-2.73438-1.85547-4.63867-4.54102-4.63867-2.58789 0-4.44336 1.9043-4.44336 4.63867v19.7266h-19.7266c-2.73438 0-4.58984 1.85547-4.58984 4.58984Z"/>
  </g>
  <text style="stroke:none;fill:black;font-family:sans-serif;font-size:13;font-weight:bold;" transform="matrix(1 0 0 1 263 1953)">Design Variations</text>
  <text style="stroke:none;fill:black;font-family:sans-serif;font-size:13;" transform="matrix(1 0 0 1 263 1971)">Symbols are supported in up to nine weights and three scales.</text>
  <text style="stroke:none;fill:black;font-family:sans-serif;font-size:13;" transform="matrix(1 0 0 1 263 1989)">For optimal layout with text and other symbols, vertically align</text>
  <text style="stroke:none;fill:black;font-family:sans-serif;font-size:13;" transform="matrix(1 0 0 1 263 2007)">symbols with the adjacent text.</text>
  <line style="fill:none;stroke:#00AEEF;stroke-width:0.5;opacity:1.0;" x1="776" x2="776" y1="1919" y2="1933"/>
  <g transform="matrix(0.2 0 0 0.2 776 1933)">
   <path d="m16.5527 0.78125c2.58789 0 3.85742-0.976562 4.78516-3.71094l6.29883-17.2363h28.8086l6.29883 17.2363c0.927734 2.73438 2.19727 3.71094 4.73633 3.71094 2.58789 0 4.24805-1.5625 4.24805-4.00391 0-0.830078-0.146484-1.61133-0.537109-2.63672l-22.9004-60.9863c-1.12305-2.97852-3.125-4.49219-6.25-4.49219-3.02734 0-5.07812 1.46484-6.15234 4.44336l-22.9004 61.084c-0.390625 1.02539-0.537109 1.80664-0.537109 2.63672 0 2.44141 1.5625 3.95508 4.10156 3.95508Zm13.4766-28.3691 11.8652-32.8613h0.244141l11.8652 32.8613Z"/>
  </g>
  <line style="fill:none;stroke:#00AEEF;stroke-width:0.5;opacity:1.0;" x1="792.836" x2="792.836" y1="1919" y2="1933"/>
  <text style="stroke:none;fill:black;font-family:sans-serif;font-size:13;font-weight:bold;" transform="matrix(1 0 0 1 776 1953)">Margins</text>
  <text style="stroke:none;fill:black;font-family:sans-serif;font-size:13;" transform="matrix(1 0 0 1 776 1971)">Leading and trailing margins on the left and right side of each symbol</text>
  <text style="stroke:none;fill:black;font-family:sans-serif;font-size:13;" transform="matrix(1 0 0 1 776 1989)">can be adjusted by modifying the x-location of the margin guidelines.</text>
  <text style="stroke:none;fill:black;font-family:sans-serif;font-size:13;" transform="matrix(1 0 0 1 776 2007)">Modifications are automatically applied proportionally to all</text>
  <text style="stroke:none;fill:black;font-family:sans-serif;font-size:13;" transform="matrix(1 0 0 1 776 2025)">scales and weights.</text>
  <g transform="matrix(0.2 0 0 0.2 1289 1933)">
   <path d="m14.209 9.32617 8.49609 8.54492c4.29688 4.3457 9.22852 4.05273 13.8672-1.07422l53.4668-58.9355-4.83398-4.88281-53.0762 58.3984c-1.75781 2.00195-3.41797 2.49023-5.76172 0.146484l-5.85938-5.81055c-2.34375-2.29492-1.80664-4.00391 0.195312-5.81055l57.373-54.0039-4.88281-4.83398-57.959 54.4434c-4.93164 4.58984-5.32227 9.47266-1.02539 13.8184Zm32.0801-90.9668c-2.09961 2.05078-2.24609 4.93164-1.07422 6.88477 1.17188 1.80664 3.4668 2.97852 6.68945 2.14844 7.32422-1.70898 14.9414-2.00195 22.0703 2.68555l-2.92969 7.27539c-1.70898 4.15039-0.830078 7.08008 1.85547 9.81445l11.4746 11.5723c2.44141 2.44141 4.49219 2.53906 7.32422 2.05078l5.32227-0.976562 3.32031 3.36914-0.195312 2.7832c-0.195312 2.49023 0.439453 4.39453 2.88086 6.78711l3.80859 3.71094c2.39258 2.39258 5.46875 2.53906 7.8125 0.195312l14.5508-14.5996c2.34375-2.34375 2.24609-5.32227-0.146484-7.71484l-3.85742-3.80859c-2.39258-2.39258-4.24805-3.17383-6.64062-2.97852l-2.88086 0.244141-3.22266-3.17383 1.2207-5.61523c0.634766-2.83203-0.146484-5.0293-3.07617-7.95898l-10.9863-10.9375c-16.6992-16.6016-38.8672-16.2109-53.3203-1.75781Zm7.4707 1.85547c12.1582-8.88672 28.6133-7.37305 39.7461 3.75977l12.1582 12.0605c1.17188 1.17188 1.36719 2.09961 1.02539 3.80859l-1.61133 7.42188 7.51953 7.42188 4.93164-0.292969c1.26953-0.0488281 1.66016 0.0488281 2.63672 1.02539l2.88086 2.88086-12.207 12.207-2.88086-2.88086c-0.976562-0.976562-1.12305-1.36719-1.07422-2.68555l0.341797-4.88281-7.4707-7.42188-7.61719 1.26953c-1.61133 0.341797-2.34375 0.195312-3.56445-0.976562l-10.0098-10.0098c-1.26953-1.17188-1.41602-2.00195-0.634766-3.85742l4.39453-10.4492c-7.8125-7.27539-17.9688-10.4004-28.125-7.42188-0.78125 0.195312-1.07422-0.439453-0.439453-0.976562Z"/>
  </g>
  <text style="stroke:none;fill:black;font-family:sans-serif;font-size:13;font-weight:bold;" transform="matrix(1 0 0 1 1289 1953)">Exporting</text>
  <text style="stroke:none;fill:black;font-family:sans-serif;font-size:13;" transform="matrix(1 0 0 1 1289 1971)">Symbols should be outlined when exporting to ensure the</text>
  <text style="stroke:none;fill:black;font-family:sans-serif;font-size:13;" transform="matrix(1 0 0 1 1289 1989)">design is preserved when submitting to Xcode.</text>
  <text id="template-version" style="stroke:none;fill:black;font-family:sans-serif;font-size:13;text-anchor:end;" transform="matrix(1 0 0 1 3036 1933)">Template v.6.0</text>
  <text style="stroke:none;fill:black;font-family:sans-serif;font-size:13;text-anchor:end;" transform="matrix(1 0 0 1 3036 1951)">Requires Xcode 16 or greater</text>
  <text id="descriptive-name" style="stroke:none;fill:black;font-family:sans-serif;font-size:13;text-anchor:end;" transform="matrix(1 0 0 1 3036 1969)">Generated from square</text>
  <text style="stroke:none;fill:black;font-family:sans-serif;font-size:13;text-anchor:end;" transform="matrix(1 0 0 1 3036 1987)">Typeset at 100.0 points</text>
  <text style="stroke:none;fill:black;font-family:sans-serif;font-size:13;" transform="matrix(1 0 0 1 263 726)">Small</text>
  <text style="stroke:none;fill:black;font-family:sans-serif;font-size:13;" transform="matrix(1 0 0 1 263 1156)">Medium</text>
  <text style="stroke:none;fill:black;font-family:sans-serif;font-size:13;" transform="matrix(1 0 0 1 263 1586)">Large</text>
 </g>
 <g id="Guides">
  <g id="H-reference" style="fill:#27AAE1;stroke:none;" transform="matrix(1 0 0 1 339 696)">
   <path d="M0.993654 0L3.63775 0L29.3281-67.1323L30.0303-67.1323L30.0303-70.459L28.1226-70.459ZM11.6885-24.4799L46.9815-24.4799L46.2315-26.7285L12.4385-26.7285ZM55.1196 0L57.7637 0L30.6382-70.459L29.4326-70.459L29.4326-67.1323Z"/>
  </g>
  <line id="Baseline-S" style="fill:none;stroke:#27AAE1;opacity:1;stroke-width:0.5;" x1="263" x2="3036" y1="696" y2="696"/>
  <line id="Capline-S" style="fill:none;stroke:#27AAE1;opacity:1;stroke-width:0.5;" x1="263" x2="3036" y1="625.541" y2="625.541"/>
  <g id="H-reference" style="fill:#27AAE1;stroke:none;" transform="matrix(1 0 0 1 339 1126)">
   <path d="M0.993654 0L3.63775 0L29.3281-67.1323L30.0303-67.1323L30.0303-70.459L28.1226-70.459ZM11.6885-24.4799L46.9815-24.4799L46.2315-26.7285L12.4385-26.7285ZM55.1196 0L57.7637 0L30.6382-70.459L29.4326-70.459L29.4326-67.1323Z"/>
  </g>
  <line id="Baseline-M" style="fill:none;stroke:#27AAE1;opacity:1;stroke-width:0.5;" x1="263" x2="3036" y1="1126" y2="1126"/>
  <line id="Capline-M" style="fill:none;stroke:#27AAE1;opacity:1;stroke-width:0.5;" x1="263" x2="3036" y1="1055.54" y2="1055.54"/>
  <g id="H-reference" style="fill:#27AAE1;stroke:none;" transform="matrix(1 0 0 1 339 1556)">
   <path d="M0.993654 0L3.63775 0L29.3281-67.1323L30.0303-67.1323L30.0303-70.459L28.1226-70.459ZM11.6885-24.4799L46.9815-24.4799L46.2315-26.7285L12.4385-26.7285ZM55.1196 0L57.7637 0L30.6382-70.459L29.4326-70.459L29.4326-67.1323Z"/>
  </g>
  <line id="Baseline-L" style="fill:none;stroke:#27AAE1;opacity:1;stroke-width:0.5;" x1="263" x2="3036" y1="1556" y2="1556"/>
  <line id="Capline-L" style="fill:none;stroke:#27AAE1;opacity:1;stroke-width:0.5;" x1="263" x2="3036" y1="1485.54" y2="1485.54"/>
  <line id="right-margin-Black-S" style="fill:none;stroke:#00AEEF;stroke-width:0.5;opacity:1.0;" x1="2981.3" x2="2981.3" y1="600.785" y2="720.121"/>
  <line id="left-margin-Black-S" style="fill:none;stroke:#00AEEF;stroke-width:0.5;opacity:1.0;" x1="2885.5" x2="2885.5" y1="600.785" y2="720.121"/>
  <line id="right-margin-Regular-S" style="fill:none;stroke:#00AEEF;stroke-width:0.5;opacity:1.0;" x1="1495.18" x2="1495.18" y1="600.785" y2="720.121"/>
  <line id="left-margin-Regular-S" style="fill:none;stroke:#00AEEF;stroke-width:0.5;opacity:1.0;" x1="1404.51" x2="1404.51" y1="600.785" y2="720.121"/>
  <line id="right-margin-Ultralight-S" style="fill:none;stroke:#00AEEF;stroke-width:0.5;opacity:1.0;" x1="603.073" x2="603.073" y1="600.785" y2="720.121"/>
  <line id="left-margin-Ultralight-S" style="fill:none;stroke:#00AEEF;stroke-width:0.5;opacity:1.0;" x1="516.35" x2="516.35" y1="600.785" y2="720.121"/>
 </g>
 <g id="Symbols">
  <g id="Black-S"><path d="M2914.18998,653.47957c-0.09908,3.11698 1.45872,4.49726 1.49725,5.37387c-0.03722,0.36202 -0.2475,0.68359 -0.56422,0.86285l-1.76147,1.23303c-0.22796,0.1598 -0.49668,0.25145 -0.77477,0.26422c-0.05917,-0.00275 -1.12707,0.25184 -2.81836,-3.52433c-2.0911,2.61022 -5.27198,4.10642 -8.61609,4.05277c-2.24038,0.12248 -8.31196,-1.27156 -7.99957,-7.73535c-0.21881,-5.26791 4.68717,-8.5404 9.76105,-8.26379c0.97707,0.00275 2.97249,0.05092 6.46654,0.86285v-2.14955c0.37018,-3.6413 -2.02294,-6.46654 -6.16654,-6.04268c-0.33028,0.00138 -2.66973,-0.06881 -6.30828,1.39129c-1.01285,0.46514 -1.14221,0.38807 -1.47936,0.38807c-1.01973,0 -0.6,-2.95597 -0.40459,-3.33029c0.71698,-0.88074 4.93488,-2.52524 9.07435,-2.50184c2.76778,-0.24478 5.52073,0.60943 7.66379,2.37799c1.76038,1.96909 2.63893,4.57242 2.43166,7.20553zM2902.29727,657.93693c4.46286,-0.06468 6.35232,-2.74818 6.78305,-4.19314c0.33853,-1.38303 0.28211,-2.25827 0.28211,-3.77066c-1.33074,-0.31927 -3.24634,-0.66743 -5.44406,-0.67019c-2.08487,-0.15688 -5.89268,0.77477 -5.74406,4.43947c-0.17064,2.31056 1.53028,4.32112 4.12295,4.19451zM2925.81846,661.10896c-1.08166,0.09908 -1.58533,-0.66881 -1.74496,-1.42707l-6.85324,-22.65834c-0.13349,-0.38257 -0.22156,-0.77753 -0.26422,-1.18074c-0.05264,-0.34615 0.1851,-0.6695 0.53119,-0.72248c0.03303,-0.0055 -0.29312,0 3.06194,0c1.20826,-0.1211 1.60184,0.82982 1.72707,1.42707l4.91562,19.38035l4.56332,-19.38035c0.07294,-0.44312 0.40459,-1.5234 1.76147,-1.40918h2.36148c0.29862,-0.02477 1.5289,-0.06881 1.74496,1.42707l4.5991,19.62806l5.07387,-19.62806c0.06606,-0.3 0.37431,-1.56468 1.74496,-1.42707h2.71377c0.11697,-0.01789 0.84633,-0.11147 0.72248,1.18074c-0.05917,0.25459 0.46927,-1.46698 -7.2592,23.38082c-0.15826,0.75826 -0.66331,1.52615 -1.74496,1.42707h-2.57203c-1.50551,0.15826 -1.72157,-1.32936 -1.74496,-1.47936l-4.56332,-18.87117l-4.51103,18.85191c-0.02202,0.15 -0.23807,1.63762 -1.74496,1.47936h-2.51836zM2963.45347,661.88373c-0.80918,0.00138 -4.66791,-0.04128 -7.89361,-1.69129c-0.65714,-0.27824 -1.08153,-0.92541 -1.07477,-1.639v-1.47936c0,-1.16285 0.85321,-0.94954 1.21514,-0.81055c1.38166,0.55872 2.2679,0.98257 3.96469,1.32111c5.0436,1.03624 7.26195,-0.31651 7.80553,-0.61652c1.80964,-1.07477 1.95276,-3.53396 0.72248,-4.80965c-1.44221,-1.20964 -2.13028,-1.25505 -7.3115,-2.88992c-0.63853,-0.17752 -6.01378,-1.87294 -6.02617,-7.20553c-0.08395,-3.88625 3.44726,-7.73122 9.56701,-7.69957c1.74358,-0.00138 6.38947,0.56835 7.64728,2.14955c0.18578,0.28762 0.27798,0.62615 0.26422,0.96881v1.39129c0,0.61101 -0.22294,0.91652 -0.67019,0.91652c-1.06101,-0.11835 -2.94359,-1.53716 -6.76516,-1.47936c-0.94817,-0.04954 -5.48947,0.12523 -5.2858,3.43625c-0.05917,2.60918 3.66194,3.58763 4.08717,3.70047c5.01745,1.50964 6.69498,1.7601 8.68627,4.07066c2.35872,3.06194 1.08716,6.64681 0.59863,7.62939c-2.6257,5.15919 -9.41563,4.73947 -9.53123,4.73672zM2968.9856,676.31406c-9.63719,7.11746 -23.62715,10.906 -35.57215,10.906c-16.11742,0.10629 -31.69167,-5.82014 -43.66118,-16.61428c-0.89863,-0.81055 -0.10596,-1.92111 0.9867,-1.30322c13.27774,7.5952 28.31093,11.58596 43.60751,11.57619c11.42307,-0.06126 22.72152,-2.37856 33.24646,-6.81883c1.62111,-0.68808 2.99588,1.0734 1.39267,2.25414zM2973.00259,671.73285c-1.23303,-1.58533 -8.15783,-0.74037 -11.2583,-0.37018c-0.93441,0.10596 -1.09266,-0.70459 -0.24633,-1.30322c5.51424,-3.87662 14.5707,-2.76607 15.61107,-1.46285c1.03899,1.30322 -0.28211,10.37756 -5.44406,14.71244c-0.79266,0.67019 -1.55092,0.31651 -1.19863,-0.56422c1.16147,-2.92432 3.76928,-9.42527 2.53625,-11.01197z" className="SFSymbolsPreviewWireframe"/></g>
  <g id="Regular-S"><path d="M1430.63493,653.47957c-0.09908,3.11698 1.45872,4.49726 1.49725,5.37387c-0.03722,0.36202 -0.2475,0.68359 -0.56422,0.86285l-1.76147,1.23303c-0.22796,0.1598 -0.49668,0.25145 -0.77477,0.26422c-0.05917,-0.00275 -1.12707,0.25184 -2.81836,-3.52433c-2.0911,2.61022 -5.27198,4.10642 -8.61609,4.05277c-2.24038,0.12248 -8.31196,-1.27156 -7.99957,-7.73535c-0.21881,-5.26791 4.68717,-8.5404 9.76105,-8.26379c0.97707,0.00275 2.97249,0.05092 6.46654,0.86285v-2.14955c0.37018,-3.6413 -2.02294,-6.46654 -6.16654,-6.04268c-0.33028,0.00138 -2.66973,-0.06881 -6.30828,1.39129c-1.01285,0.46514 -1.14221,0.38807 -1.47936,0.38807c-1.01973,0 -0.6,-2.95597 -0.40459,-3.33029c0.71698,-0.88074 4.93488,-2.52524 9.07435,-2.50184c2.76778,-0.24478 5.52073,0.60943 7.66379,2.37799c1.76038,1.96909 2.63893,4.57242 2.43166,7.20553zM1418.74222,657.93693c4.46286,-0.06468 6.35232,-2.74818 6.78305,-4.19314c0.33853,-1.38303 0.28211,-2.25827 0.28211,-3.77066c-1.33074,-0.31927 -3.24634,-0.66743 -5.44406,-0.67019c-2.08487,-0.15688 -5.89268,0.77477 -5.74406,4.43947c-0.17064,2.31056 1.53028,4.32112 4.12295,4.19451zM1442.26341,661.10896c-1.08166,0.09908 -1.58533,-0.66881 -1.74496,-1.42707l-6.85324,-22.65834c-0.13349,-0.38257 -0.22156,-0.77753 -0.26422,-1.18074c-0.05264,-0.34615 0.1851,-0.6695 0.53119,-0.72248c0.03303,-0.0055 -0.29312,0 3.06194,0c1.20826,-0.1211 1.60184,0.82982 1.72707,1.42707l4.91562,19.38035l4.56332,-19.38035c0.07294,-0.44312 0.40459,-1.5234 1.76147,-1.40918h2.36148c0.29862,-0.02477 1.5289,-0.06881 1.74496,1.42707l4.5991,19.62806l5.07387,-19.62806c0.06606,-0.3 0.37431,-1.56468 1.74496,-1.42707h2.71377c0.11697,-0.01789 0.84633,-0.11147 0.72248,1.18074c-0.05917,0.25459 0.46927,-1.46698 -7.2592,23.38082c-0.15826,0.75826 -0.66331,1.52615 -1.74496,1.42707h-2.57203c-1.50551,0.15826 -1.72157,-1.32936 -1.74496,-1.47936l-4.56332,-18.87117l-4.51103,18.85191c-0.02202,0.15 -0.23807,1.63762 -1.74496,1.47936h-2.51836zM1479.89842,661.88373c-0.80918,0.00138 -4.66791,-0.04128 -7.89361,-1.69129c-0.65714,-0.27824 -1.08153,-0.92541 -1.07477,-1.639v-1.47936c0,-1.16285 0.85321,-0.94954 1.21514,-0.81055c1.38166,0.55872 2.2679,0.98257 3.96469,1.32111c5.0436,1.03624 7.26195,-0.31651 7.80553,-0.61652c1.80964,-1.07477 1.95276,-3.53396 0.72248,-4.80965c-1.44221,-1.20964 -2.13028,-1.25505 -7.3115,-2.88992c-0.63853,-0.17752 -6.01378,-1.87294 -6.02617,-7.20553c-0.08395,-3.88625 3.44726,-7.73122 9.56701,-7.69957c1.74358,-0.00138 6.38947,0.56835 7.64728,2.14955c0.18578,0.28762 0.27798,0.62615 0.26422,0.96881v1.39129c0,0.61101 -0.22294,0.91652 -0.67019,0.91652c-1.06101,-0.11835 -2.94359,-1.53716 -6.76516,-1.47936c-0.94817,-0.04954 -5.48947,0.12523 -5.2858,3.43625c-0.05917,2.60918 3.66194,3.58763 4.08717,3.70047c5.01745,1.50964 6.69498,1.7601 8.68627,4.07066c2.35872,3.06194 1.08716,6.64681 0.59863,7.62939c-2.6257,5.15919 -9.41563,4.73947 -9.53123,4.73672zM1485.43055,676.31406c-9.63719,7.11746 -23.62715,10.906 -35.57215,10.906c-16.11742,0.10629 -31.69167,-5.82014 -43.66118,-16.61428c-0.89863,-0.81055 -0.10596,-1.92111 0.9867,-1.30322c13.27774,7.5952 28.31093,11.58596 43.60751,11.57619c11.42307,-0.06126 22.72152,-2.37856 33.24646,-6.81883c1.62111,-0.68808 2.99588,1.0734 1.39267,2.25414zM1489.44754,671.73285c-1.23303,-1.58533 -8.15783,-0.74037 -11.2583,-0.37018c-0.93441,0.10596 -1.09266,-0.70459 -0.24633,-1.30322c5.51424,-3.87662 14.5707,-2.76607 15.61107,-1.46285c1.03899,1.30322 -0.28211,10.37756 -5.44406,14.71244c-0.79266,0.67019 -1.55092,0.31651 -1.19863,-0.56422c1.16147,-2.92432 3.76928,-9.42527 2.53625,-11.01197z" className="SFSymbolsPreviewWireframe"/></g>
  <g id="Ultralight-S"><path d="M540.50134,653.47957c-0.09908,3.11698 1.45872,4.49726 1.49725,5.37387c-0.03722,0.36202 -0.2475,0.68359 -0.56422,0.86285l-1.76147,1.23303c-0.22796,0.1598 -0.49668,0.25145 -0.77477,0.26422c-0.05917,-0.00275 -1.12707,0.25184 -2.81836,-3.52433c-2.0911,2.61022 -5.27198,4.10642 -8.61609,4.05277c-2.24038,0.12248 -8.31196,-1.27156 -7.99957,-7.73535c-0.21881,-5.26791 4.68717,-8.5404 9.76105,-8.26379c0.97707,0.00275 2.97249,0.05092 6.46654,0.86285v-2.14955c0.37018,-3.6413 -2.02294,-6.46654 -6.16654,-6.04268c-0.33028,0.00138 -2.66973,-0.06881 -6.30828,1.39129c-1.01285,0.46514 -1.14221,0.38807 -1.47936,0.38807c-1.01973,0 -0.6,-2.95597 -0.40459,-3.33029c0.71698,-0.88074 4.93488,-2.52524 9.07435,-2.50184c2.76778,-0.24478 5.52073,0.60943 7.66379,2.37799c1.76038,1.96909 2.63893,4.57242 2.43166,7.20553zM528.60863,657.93693c4.46286,-0.06468 6.35232,-2.74818 6.78305,-4.19314c0.33853,-1.38303 0.28211,-2.25827 0.28211,-3.77066c-1.33074,-0.31927 -3.24634,-0.66743 -5.44406,-0.67019c-2.08487,-0.15688 -5.89268,0.77477 -5.74406,4.43947c-0.17064,2.31056 1.53028,4.32112 4.12295,4.19451zM552.12982,661.10896c-1.08166,0.09908 -1.58533,-0.66881 -1.74496,-1.42707l-6.85324,-22.65834c-0.13349,-0.38257 -0.22156,-0.77753 -0.26422,-1.18074c-0.05264,-0.34615 0.1851,-0.6695 0.53119,-0.72248c0.03303,-0.0055 -0.29312,0 3.06194,0c1.20826,-0.1211 1.60184,0.82982 1.72707,1.42707l4.91562,19.38035l4.56332,-19.38035c0.07294,-0.44312 0.40459,-1.5234 1.76147,-1.40918h2.36148c0.29862,-0.02477 1.5289,-0.06881 1.74496,1.42707l4.5991,19.62806l5.07387,-19.62806c0.06606,-0.3 0.37431,-1.56468 1.74496,-1.42707h2.71377c0.11697,-0.01789 0.84633,-0.11147 0.72248,1.18074c-0.05917,0.25459 0.46927,-1.46698 -7.2592,23.38082c-0.15826,0.75826 -0.66331,1.52615 -1.74496,1.42707h-2.57203c-1.50551,0.15826 -1.72157,-1.32936 -1.74496,-1.47936l-4.56332,-18.87117l-4.51103,18.85191c-0.02202,0.15 -0.23807,1.63762 -1.74496,1.47936h-2.51836zM589.76483,661.88373c-0.80918,0.00138 -4.66791,-0.04128 -7.89361,-1.69129c-0.65714,-0.27824 -1.08153,-0.92541 -1.07477,-1.639v-1.47936c0,-1.16285 0.85321,-0.94954 1.21514,-0.81055c1.38166,0.55872 2.2679,0.98257 3.96469,1.32111c5.0436,1.03624 7.26195,-0.31651 7.80553,-0.61652c1.80964,-1.07477 1.95276,-3.53396 0.72248,-4.80965c-1.44221,-1.20964 -2.13028,-1.25505 -7.3115,-2.88992c-0.63853,-0.17752 -6.01378,-1.87294 -6.02617,-7.20553c-0.08395,-3.88625 3.44726,-7.73122 9.56701,-7.69957c1.74358,-0.00138 6.38947,0.56835 7.64728,2.14955c0.18578,0.28762 0.27798,0.62615 0.26422,0.96881v1.39129c0,0.61101 -0.22294,0.91652 -0.67019,0.91652c-1.06101,-0.11835 -2.94359,-1.53716 -6.76516,-1.47936c-0.94817,-0.04954 -5.48947,0.12523 -5.2858,3.43625c-0.05917,2.60918 3.66194,3.58763 4.08717,3.70047c5.01745,1.50964 6.69498,1.7601 8.68627,4.07066c2.35872,3.06194 1.08716,6.64681 0.59863,7.62939c-2.6257,5.15919 -9.41563,4.73947 -9.53123,4.73672zM595.29696,676.31406c-9.63719,7.11746 -23.62715,10.906 -35.57215,10.906c-16.11742,0.10629 -31.69167,-5.82014 -43.66118,-16.61428c-0.89863,-0.81055 -0.10596,-1.92111 0.9867,-1.30322c13.27774,7.5952 28.31093,11.58596 43.60751,11.57619c11.42307,-0.06126 22.72152,-2.37856 33.24646,-6.81883c1.62111,-0.68808 2.99588,1.0734 1.39267,2.25414zM599.31395,671.73285c-1.23303,-1.58533 -8.15783,-0.74037 -11.2583,-0.37018c-0.93441,0.10596 -1.09266,-0.70459 -0.24633,-1.30322c5.51424,-3.87662 14.5707,-2.76607 15.61107,-1.46285c1.03899,1.30322 -0.28211,10.37756 -5.44406,14.71244c-0.79266,0.67019 -1.55092,0.31651 -1.19863,-0.56422c1.16147,-2.92432 3.76928,-9.42527 2.53625,-11.01197z" className="SFSymbolsPreviewWireframe"/></g>
 </g>
</svg>