<?xml version="1.0" encoding="UTF-8"?><!--Generator: https://SymbolKit.app--><!DOCTYPE svg PUBLIC "-//W3C//DTD SVG 1.1//EN" "http://www.w3.org/Graphics/SVG/1.1/DTD/svg11.dtd"><svg xmlns="http://www.w3.org/2000/svg" xmlns:xlink="http://www.w3.org/1999/xlink" version="1.1" viewBox="0 0 3300 2200">
 <!--glyph: "100092", point size: 100.0, font version: "20.0d10e1", template writer version: "138.0.0"-->
 <style>.SFSymbolsPreviewWireframe {fill:none;opacity:1.0;stroke:black;stroke-width:0.5}
</style>
 <g id="Notes">
  <rect height="2200" id="artboard" style="fill:white;opacity:1" width="3300" x="0" y="0"/>
  <line style="fill:none;stroke:black;opacity:1;stroke-width:0.5;" x1="263" x2="3036" y1="292" y2="292"/>
  <text style="stroke:none;fill:black;font-family:sans-serif;font-size:13;font-weight:bold;" transform="matrix(1 0 0 1 263 322)">Weight/Scale Variations</text>
  <text style="stroke:none;fill:black;font-family:sans-serif;font-size:13;text-anchor:middle;" transform="matrix(1 0 0 1 559.711 322)">Ultralight</text>
  <text style="stroke:none;fill:black;font-family:sans-serif;font-size:13;text-anchor:middle;" transform="matrix(1 0 0 1 856.422 322)">Thin</text>
  <text style="stroke:none;fill:black;font-family:sans-serif;font-size:13;text-anchor:middle;" transform="matrix(1 0 0 1 1153.13 322)">Light</text>
  <text style="stroke:none;fill:black;font-family:sans-serif;font-size:13;text-anchor:middle;" transform="matrix(1 0 0 1 1449.84 322)">Regular</text>
  <text style="stroke:none;fill:black;font-family:sans-serif;font-size:13;text-anchor:middle;" transform="matrix(1 0 0 1 1746.56 322)">Medium</text>
  <text style="stroke:none;fill:black;font-family:sans-serif;font-size:13;text-anchor:middle;" transform="matrix(1 0 0 1 2043.27 322)">Semibold</text>
  <text style="stroke:none;fill:black;font-family:sans-serif;font-size:13;text-anchor:middle;" transform="matrix(1 0 0 1 2339.98 322)">Bold</text>
  <text style="stroke:none;fill:black;font-family:sans-serif;font-size:13;text-anchor:middle;" transform="matrix(1 0 0 1 2636.69 322)">Heavy</text>
  <text style="stroke:none;fill:black;font-family:sans-serif;font-size:13;text-anchor:middle;" transform="matrix(1 0 0 1 2933.4 322)">Black</text>
  <line style="fill:none;stroke:black;opacity:1;stroke-width:0.5;" x1="263" x2="3036" y1="1903" y2="1903"/>
  <g transform="matrix(0.2 0 0 0.2 263 1933)">
   <path d="m46.2402 4.15039c21.7773 0 39.4531-17.627 39.4531-39.4043s-17.6758-39.4043-39.4531-39.4043c-21.7285 0-39.4043 17.627-39.4043 39.4043s17.6758 39.4043 39.4043 39.4043Zm0-7.42188c-17.6758 0-31.9336-14.3066-31.9336-31.9824s14.2578-31.9824 31.9336-31.9824 31.9824 14.3066 31.9824 31.9824-14.3066 31.9824-31.9824 31.9824Zm-17.9688-31.9824c0 2.14844 1.51367 3.61328 3.75977 3.61328h10.498v10.5957c0 2.19727 1.46484 3.71094 3.61328 3.71094 2.24609 0 3.71094-1.51367 3.71094-3.71094v-10.5957h10.5957c2.19727 0 3.71094-1.46484 3.71094-3.61328 0-2.19727-1.51367-3.71094-3.71094-3.71094h-10.5957v-10.5469c0-2.24609-1.46484-3.75977-3.71094-3.75977-2.14844 0-3.61328 1.51367-3.61328 3.75977v10.5469h-10.498c-2.24609 0-3.75977 1.51367-3.75977 3.71094Z"/>
  </g>
  <g transform="matrix(0.2 0 0 0.2 281.506 1933)">
   <path d="m58.5449 14.5508c27.4902 0 49.8047-22.3145 49.8047-49.8047s-22.3145-49.8047-49.8047-49.8047-49.8047 22.3145-49.8047 49.8047 22.3145 49.8047 49.8047 49.8047Zm0-8.30078c-22.9492 0-41.5039-18.5547-41.5039-41.5039s18.5547-41.5039 41.5039-41.5039 41.5039 18.5547 41.5039 41.5039-18.5547 41.5039-41.5039 41.5039Zm-22.6562-41.5039c0 2.39258 1.66016 4.00391 4.15039 4.00391h14.3555v14.4043c0 2.44141 1.66016 4.15039 4.05273 4.15039 2.44141 0 4.15039-1.66016 4.15039-4.15039v-14.4043h14.4043c2.44141 0 4.15039-1.61133 4.15039-4.00391 0-2.44141-1.70898-4.15039-4.15039-4.15039h-14.4043v-14.3555c0-2.49023-1.70898-4.19922-4.15039-4.19922-2.39258 0-4.05273 1.70898-4.05273 4.19922v14.3555h-14.3555c-2.49023 0-4.15039 1.70898-4.15039 4.15039Z"/>
  </g>
  <g transform="matrix(0.2 0 0 0.2 304.924 1933)">
   <path d="m74.8535 28.3203c35.1074 0 63.623-28.4668 63.623-63.5742s-28.5156-63.623-63.623-63.623-63.5742 28.5156-63.5742 63.623 28.4668 63.5742 63.5742 63.5742Zm0-9.08203c-30.127 0-54.4922-24.3652-54.4922-54.4922s24.3652-54.4922 54.4922-54.4922 54.4922 24.3652 54.4922 54.4922-24.3652 54.4922-54.4922 54.4922Zm-28.8574-54.4922c0 2.58789 1.85547 4.39453 4.58984 4.39453h19.7266v19.7754c0 2.68555 1.85547 4.58984 4.44336 4.58984 2.68555 0 4.54102-1.85547 4.54102-4.58984v-19.7754h19.7754c2.68555 0 4.58984-1.80664 4.58984-4.39453 0-2.73438-1.85547-4.58984-4.58984-4.58984h-19.7754v-19.7266c0-2.73438-1.85547-4.63867-4.54102-4.63867-2.58789 0-4.44336 1.9043-4.44336 4.63867v19.7266h-19.7266c-2.73438 0-4.58984 1.85547-4.58984 4.58984Z"/>
  </g>
  <text style="stroke:none;fill:black;font-family:sans-serif;font-size:13;font-weight:bold;" transform="matrix(1 0 0 1 263 1953)">Design Variations</text>
  <text style="stroke:none;fill:black;font-family:sans-serif;font-size:13;" transform="matrix(1 0 0 1 263 1971)">Symbols are supported in up to nine weights and three scales.</text>
  <text style="stroke:none;fill:black;font-family:sans-serif;font-size:13;" transform="matrix(1 0 0 1 263 1989)">For optimal layout with text and other symbols, vertically align</text>
  <text style="stroke:none;fill:black;font-family:sans-serif;font-size:13;" transform="matrix(1 0 0 1 263 2007)">symbols with the adjacent text.</text>
  <line style="fill:none;stroke:#00AEEF;stroke-width:0.5;opacity:1.0;" x1="776" x2="776" y1="1919" y2="1933"/>
  <g transform="matrix(0.2 0 0 0.2 776 1933)">
   <path d="m16.5527 0.78125c2.58789 0 3.85742-0.976562 4.78516-3.71094l6.29883-17.2363h28.8086l6.29883 17.2363c0.927734 2.73438 2.19727 3.71094 4.73633 3.71094 2.58789 0 4.24805-1.5625 4.24805-4.00391 0-0.830078-0.146484-1.61133-0.537109-2.63672l-22.9004-60.9863c-1.12305-2.97852-3.125-4.49219-6.25-4.49219-3.02734 0-5.07812 1.46484-6.15234 4.44336l-22.9004 61.084c-0.390625 1.02539-0.537109 1.80664-0.537109 2.63672 0 2.44141 1.5625 3.95508 4.10156 3.95508Zm13.4766-28.3691 11.8652-32.8613h0.244141l11.8652 32.8613Z"/>
  </g>
  <line style="fill:none;stroke:#00AEEF;stroke-width:0.5;opacity:1.0;" x1="792.836" x2="792.836" y1="1919" y2="1933"/>
  <text style="stroke:none;fill:black;font-family:sans-serif;font-size:13;font-weight:bold;" transform="matrix(1 0 0 1 776 1953)">Margins</text>
  <text style="stroke:none;fill:black;font-family:sans-serif;font-size:13;" transform="matrix(1 0 0 1 776 1971)">Leading and trailing margins on the left and right side of each symbol</text>
  <text style="stroke:none;fill:black;font-family:sans-serif;font-size:13;" transform="matrix(1 0 0 1 776 1989)">can be adjusted by modifying the x-location of the margin guidelines.</text>
  <text style="stroke:none;fill:black;font-family:sans-serif;font-size:13;" transform="matrix(1 0 0 1 776 2007)">Modifications are automatically applied proportionally to all</text>
  <text style="stroke:none;fill:black;font-family:sans-serif;font-size:13;" transform="matrix(1 0 0 1 776 2025)">scales and weights.</text>
  <g transform="matrix(0.2 0 0 0.2 1289 1933)">
   <path d="m14.209 9.32617 8.49609 8.54492c4.29688 4.3457 9.22852 4.05273 13.8672-1.07422l53.4668-58.9355-4.83398-4.88281-53.0762 58.3984c-1.75781 2.00195-3.41797 2.49023-5.76172 0.146484l-5.85938-5.81055c-2.34375-2.29492-1.80664-4.00391 0.195312-5.81055l57.373-54.0039-4.88281-4.83398-57.959 54.4434c-4.93164 4.58984-5.32227 9.47266-1.02539 13.8184Zm32.0801-90.9668c-2.09961 2.05078-2.24609 4.93164-1.07422 6.88477 1.17188 1.80664 3.4668 2.97852 6.68945 2.14844 7.32422-1.70898 14.9414-2.00195 22.0703 2.68555l-2.92969 7.27539c-1.70898 4.15039-0.830078 7.08008 1.85547 9.81445l11.4746 11.5723c2.44141 2.44141 4.49219 2.53906 7.32422 2.05078l5.32227-0.976562 3.32031 3.36914-0.195312 2.7832c-0.195312 2.49023 0.439453 4.39453 2.88086 6.78711l3.80859 3.71094c2.39258 2.39258 5.46875 2.53906 7.8125 0.195312l14.5508-14.5996c2.34375-2.34375 2.24609-5.32227-0.146484-7.71484l-3.85742-3.80859c-2.39258-2.39258-4.24805-3.17383-6.64062-2.97852l-2.88086 0.244141-3.22266-3.17383 1.2207-5.61523c0.634766-2.83203-0.146484-5.0293-3.07617-7.95898l-10.9863-10.9375c-16.6992-16.6016-38.8672-16.2109-53.3203-1.75781Zm7.4707 1.85547c12.1582-8.88672 28.6133-7.37305 39.7461 3.75977l12.1582 12.0605c1.17188 1.17188 1.36719 2.09961 1.02539 3.80859l-1.61133 7.42188 7.51953 7.42188 4.93164-0.292969c1.26953-0.0488281 1.66016 0.0488281 2.63672 1.02539l2.88086 2.88086-12.207 12.207-2.88086-2.88086c-0.976562-0.976562-1.12305-1.36719-1.07422-2.68555l0.341797-4.88281-7.4707-7.42188-7.61719 1.26953c-1.61133 0.341797-2.34375 0.195312-3.56445-0.976562l-10.0098-10.0098c-1.26953-1.17188-1.41602-2.00195-0.634766-3.85742l4.39453-10.4492c-7.8125-7.27539-17.9688-10.4004-28.125-7.42188-0.78125 0.195312-1.07422-0.439453-0.439453-0.976562Z"/>
  </g>
  <text style="stroke:none;fill:black;font-family:sans-serif;font-size:13;font-weight:bold;" transform="matrix(1 0 0 1 1289 1953)">Exporting</text>
  <text style="stroke:none;fill:black;font-family:sans-serif;font-size:13;" transform="matrix(1 0 0 1 1289 1971)">Symbols should be outlined when exporting to ensure the</text>
  <text style="stroke:none;fill:black;font-family:sans-serif;font-size:13;" transform="matrix(1 0 0 1 1289 1989)">design is preserved when submitting to Xcode.</text>
  <text id="template-version" style="stroke:none;fill:black;font-family:sans-serif;font-size:13;text-anchor:end;" transform="matrix(1 0 0 1 3036 1933)">Template v.6.0</text>
  <text style="stroke:none;fill:black;font-family:sans-serif;font-size:13;text-anchor:end;" transform="matrix(1 0 0 1 3036 1951)">Requires Xcode 16 or greater</text>
  <text id="descriptive-name" style="stroke:none;fill:black;font-family:sans-serif;font-size:13;text-anchor:end;" transform="matrix(1 0 0 1 3036 1969)">Generated from square</text>
  <text style="stroke:none;fill:black;font-family:sans-serif;font-size:13;text-anchor:end;" transform="matrix(1 0 0 1 3036 1987)">Typeset at 100.0 points</text>
  <text style="stroke:none;fill:black;font-family:sans-serif;font-size:13;" transform="matrix(1 0 0 1 263 726)">Small</text>
  <text style="stroke:none;fill:black;font-family:sans-serif;font-size:13;" transform="matrix(1 0 0 1 263 1156)">Medium</text>
  <text style="stroke:none;fill:black;font-family:sans-serif;font-size:13;" transform="matrix(1 0 0 1 263 1586)">Large</text>
 </g>
 <g id="Guides">
  <g id="H-reference" style="fill:#27AAE1;stroke:none;" transform="matrix(1 0 0 1 339 696)">
   <path d="M0.993654 0L3.63775 0L29.3281-67.1323L30.0303-67.1323L30.0303-70.459L28.1226-70.459ZM11.6885-24.4799L46.9815-24.4799L46.2315-26.7285L12.4385-26.7285ZM55.1196 0L57.7637 0L30.6382-70.459L29.4326-70.459L29.4326-67.1323Z"/>
  </g>
  <line id="Baseline-S" style="fill:none;stroke:#27AAE1;opacity:1;stroke-width:0.5;" x1="263" x2="3036" y1="696" y2="696"/>
  <line id="Capline-S" style="fill:none;stroke:#27AAE1;opacity:1;stroke-width:0.5;" x1="263" x2="3036" y1="625.541" y2="625.541"/>
  <g id="H-reference" style="fill:#27AAE1;stroke:none;" transform="matrix(1 0 0 1 339 1126)">
   <path d="M0.993654 0L3.63775 0L29.3281-67.1323L30.0303-67.1323L30.0303-70.459L28.1226-70.459ZM11.6885-24.4799L46.9815-24.4799L46.2315-26.7285L12.4385-26.7285ZM55.1196 0L57.7637 0L30.6382-70.459L29.4326-70.459L29.4326-67.1323Z"/>
  </g>
  <line id="Baseline-M" style="fill:none;stroke:#27AAE1;opacity:1;stroke-width:0.5;" x1="263" x2="3036" y1="1126" y2="1126"/>
  <line id="Capline-M" style="fill:none;stroke:#27AAE1;opacity:1;stroke-width:0.5;" x1="263" x2="3036" y1="1055.54" y2="1055.54"/>
  <g id="H-reference" style="fill:#27AAE1;stroke:none;" transform="matrix(1 0 0 1 339 1556)">
   <path d="M0.993654 0L3.63775 0L29.3281-67.1323L30.0303-67.1323L30.0303-70.459L28.1226-70.459ZM11.6885-24.4799L46.9815-24.4799L46.2315-26.7285L12.4385-26.7285ZM55.1196 0L57.7637 0L30.6382-70.459L29.4326-70.459L29.4326-67.1323Z"/>
  </g>
  <line id="Baseline-L" style="fill:none;stroke:#27AAE1;opacity:1;stroke-width:0.5;" x1="263" x2="3036" y1="1556" y2="1556"/>
  <line id="Capline-L" style="fill:none;stroke:#27AAE1;opacity:1;stroke-width:0.5;" x1="263" x2="3036" y1="1485.54" y2="1485.54"/>
  <line id="right-margin-Black-S" style="fill:none;stroke:#00AEEF;stroke-width:0.5;opacity:1.0;" x1="2981.3" x2="2981.3" y1="600.785" y2="720.121"/>
  <line id="left-margin-Black-S" style="fill:none;stroke:#00AEEF;stroke-width:0.5;opacity:1.0;" x1="2885.5" x2="2885.5" y1="600.785" y2="720.121"/>
  <line id="right-margin-Regular-S" style="fill:none;stroke:#00AEEF;stroke-width:0.5;opacity:1.0;" x1="1495.18" x2="1495.18" y1="600.785" y2="720.121"/>
  <line id="left-margin-Regular-S" style="fill:none;stroke:#00AEEF;stroke-width:0.5;opacity:1.0;" x1="1404.51" x2="1404.51" y1="600.785" y2="720.121"/>
  <line id="right-margin-Ultralight-S" style="fill:none;stroke:#00AEEF;stroke-width:0.5;opacity:1.0;" x1="603.073" x2="603.073" y1="600.785" y2="720.121"/>
  <line id="left-margin-Ultralight-S" style="fill:none;stroke:#00AEEF;stroke-width:0.5;opacity:1.0;" x1="516.35" x2="516.35" y1="600.785" y2="720.121"/>
 </g>
 <g id="Symbols">
  <g id="Black-S"><path d="M2933.67513,625.54102c0.03578,0.02064 29.80332,17.13447 29.87901,17.16337c0.41285,0.16239 0.50918,0.47615 0.50918,0.90276c-0.01009,11.48353 -0.01009,22.96798 0,34.45334c0.02579,0.33615 -0.15953,0.65306 -0.46514,0.79542c-2.94084,1.65138 -28.6047,16.2785 -30.1281,17.1441h-0.41285c-10.91701,-6.28351 -30.03452,-17.26245 -30.05516,-17.27346c-0.17069,-0.08023 -0.27376,-0.25787 -0.25872,-0.44587c0,-0.11973 0,-31.09278 -0.00688,-34.83041c-0.02154,-0.28841 0.13958,-0.55951 0.40321,-0.67844c3.20093,-1.80276 28.79873,-16.40511 30.29461,-17.2308zM2932.24118,628.35112l-0.03028,-0.02202c-8.91013,5.0725 -17.8175,10.14637 -26.72212,15.22162c0,0.01651 0.01101,0.03165 0.01789,0.04817l4.24681,1.60184c-1.06101,0.82569 -1.14496,0.82569 -1.4656,0.70597c-0.01376,0 -3.32616,-1.27707 -3.68809,-1.37615v31.71067c0.1211,-0.19404 8.81701,-15.2629 8.82526,-15.27529c0.22294,-0.38807 0.41285,-0.26422 1.25505,-0.20918c0.19266,0.01239 0.20367,0.03028 0.10734,0.19541c-5.66837,9.81609 -5.00919,8.66976 -9.28627,16.09272c-0.11147,0.19266 -0.08395,0.15551 0.17202,0.15551h25.66524c0.19817,0 0.23257,-0.03165 0.23395,-0.22569v-1.22202c0,-0.1844 0.32477,-0.11147 -2.52799,-0.13762c-1.02661,-0.00963 -1.94588,-0.44312 -2.94221,-1.74771c-1.0156,-1.32936 -2.01193,-2.67386 -3.00689,-4.01974c-0.31376,-0.42385 -0.47477,-0.32752 -2.30643,-0.32752c-0.24083,0 -0.24496,0 -0.2422,0.25046c0.03991,3.60689 0.02064,3.47754 0.13762,4.49451c0.07156,0.60138 0.29725,0.57798 1.33349,0.66193c0.43211,0.03578 0.53395,0.56147 0.07156,0.67707c-0.21606,0.05367 -4.34864,0.07018 -4.6335,-0.01376c-0.15229,-0.04173 -0.25434,-0.18468 -0.24434,-0.34227c0.00999,-0.15759 0.12928,-0.28649 0.28563,-0.30865c0.45275,-0.10459 0.84771,0.11147 0.91652,-0.61101c0.1789,-1.87982 0.16101,-1.23854 0.15138,-10.9294c0,-1.489 -0.04817,-1.7312 -0.73762,-1.86469c-0.16789,-0.03303 -0.48716,-0.02202 -0.64542,-0.07569c-0.39633,-0.13762 -0.27523,-0.66606 0.24358,-0.66743c4.6335,0 6.34131,-0.14725 7.71471,0.66881c1.06514,0.63441 1.65138,1.57982 1.72157,2.80735c0.1211,2.00781 -0.89587,3.0757 -2.06423,4.48488c-0.04468,0.03817 -0.0704,0.09399 -0.0704,0.15275c0,0.05876 0.02573,0.11458 0.0704,0.15275c0.3578,0.44725 0.68808,0.91239 1.06101,1.35276c3.79268,4.57295 3.3179,4.20277 5.68076,4.54956c0.12248,0.01789 0.13762,-0.0578 0.13762,-0.15826v-1.51377c0,-0.13762 0.04404,-0.19679 0.19404,-0.1734c1.07664,0.16375 2.17284,0.1498 3.24497,-0.04128c0.14862,-0.02064 0.20642,0.02752 0.20367,0.18303c0,0.01514 0.1211,3.67295 0.11973,3.68809c-0.00688,0.20918 0.0922,0.22294 0.26009,0.22294h25.69413c-3.73671,-6.4725 -7.46333,-12.93216 -11.17986,-19.37897c0.31101,-0.09083 -0.05505,0 0.92065,-0.19129c0.27523,-0.05367 0.28211,-0.05642 0.42798,0.19817c1.00597,1.73946 10.63903,18.44044 10.64729,18.44869v-31.71205c-0.2367,0.06881 -14.21565,5.32846 -14.55418,5.46057c-0.14862,0.0578 -0.2133,0.02752 -0.26285,-0.1211c-0.0867,-0.26147 -0.1844,-0.51743 -0.28762,-0.7734c-0.04404,-0.10872 -0.01239,-0.15551 0.08945,-0.19129c0.01376,0 13.14638,-4.93351 14.17437,-5.33534c-9.00279,-5.1702 -17.96704,-10.32114 -26.97258,-15.49547l11.94775,20.69595l-0.03853,0.04541c-1.31698,-0.12385 -1.43946,-0.22018 -1.62386,-0.5422c-0.13762,-0.23257 -10.11472,-17.57484 -11.28445,-19.56338c-1.2523,2.01882 -11.49913,20.12072 -11.74821,20.13586c-0.40321,0.02339 -0.80918,0.01101 -1.27294,0.01101c3.9679,-6.85691 7.92113,-13.69179 11.85968,-20.50467zM2939.38754,646.23009c0.25668,-0.02001 0.51152,-0.05911 0.76239,-0.11697c0.23257,-0.04128 0.34817,0.02752 0.3578,0.26422c0,0.01514 0.00963,2.62295 -0.11835,2.81423c-0.12798,0.19129 -0.25872,0.16789 -0.3578,-0.02615c-0.68808,-1.33349 0.85597,-1.32936 -5.38351,-1.65138c-0.09633,0 -0.13762,0.03165 -0.13762,0.12798c0,0.01789 0.51193,16.78905 0.5133,16.80419c0,0.12248 0.07156,0.16514 0.16651,0.2078c0.40939,0.16279 0.80913,0.34888 1.19725,0.55734c1.00597,0.59587 1.56606,1.49175 1.7078,2.65735c0.19817,1.62386 -0.38119,4.9225 -4.43259,5.11103c-0.37844,0.01789 -3.88901,0.14862 -4.69818,-3.19955c-0.64129,-2.65047 1.1367,-4.50002 2.73717,-5.00919c0.17326,-0.03143 0.29315,-0.19089 0.27523,-0.36606c0.01376,-0.77477 0.41285,-14.73859 0.51055,-16.6996c0.00688,-0.14862 -0.08532,-0.15963 -0.18578,-0.15826c-4.45185,0.07156 -5.05736,-0.04679 -5.53488,1.17248c-0.33303,0.85046 -0.56973,0.18165 -0.54358,0.03165c0.14587,-0.82569 0.29771,-1.65138 0.45551,-2.47707c0.05505,-0.29037 0.19679,-0.35918 0.47202,-0.25596c0.76927,0.29037 0.92477,0.23395 5.12617,0.26422c0.23807,0 0.24496,-0.01101 0.25046,-0.25459c0.09358,-3.78304 0.07982,-3.10873 0.13762,-4.06653c0.01964,-0.16411 -0.0719,-0.32136 -0.22431,-0.38532c-0.77065,-0.40046 -1.20413,-1.03899 -1.22478,-1.90872c-0.04817,-2.03808 2.43854,-2.98212 3.7679,-1.58395c0.94129,0.98945 0.79817,2.6023 -0.33716,3.32341c-0.2143,0.11796 -0.33527,0.35445 -0.30551,0.59725c0,0.08119 -0.01514,-0.59312 0.13762,4.13534c0,0.12385 0.05917,0.15413 0.17064,0.15275c0.01376,0 3.16515,-0.01239 4.7436,-0.05092zM2911.99385,645.04109c2.73029,-0.62064 4.49726,-0.07706 7.22342,0.23257c0.37982,0.04266 0.51468,0.16789 0.49817,0.55046c-0.0289,0.68808 -0.15963,3.07295 -0.17064,3.18579c-0.00572,0.14185 -0.09324,0.26749 -0.22431,0.32202c-0.55872,0.23395 -0.49679,-0.61239 -0.55046,-1.00321c-0.43074,-3.08671 -10.16564,-4.50002 -10.27022,3.49543c-0.04266,3.29176 2.33946,7.3803 7.44223,7.00186c3.74864,-0.27523 2.61469,-2.77845 3.41836,-2.81698c0.12309,-0.01655 0.24636,0.02904 0.32908,0.12168c0.08271,0.09264 0.1141,0.22028 0.08377,0.34071c-0.25184,1.49312 -0.47064,2.60781 -0.47477,2.63533c-0.21193,1.26193 -11.93124,3.03992 -12.84638,-5.7881c-0.37294,-3.55735 1.4367,-7.34452 5.54176,-8.27755zM2923.00307,657.10581h-2.68212c-0.16456,0.0134 -0.31649,-0.08884 -0.36606,-0.24633c0.32752,-0.51606 0.81055,0.12661 0.80643,-0.84496c-0.01101,-3.54359 0.0289,-5.22938 0.03165,-5.51837c0,-0.47064 -0.07294,-0.63991 -0.45688,-0.67982c-0.96331,-0.09908 -0.42798,-0.46376 -0.15275,-0.46514c1.62936,-0.01376 3.11286,-0.02477 4.13534,0.09908c1.20689,0.14725 2.29955,1.73808 1.09129,3.11286c-0.27523,0.30963 -0.55046,0.60826 -0.84496,0.92615c0.13073,0.15826 0.94954,1.21377 2.37799,2.70827c0.36606,0.38257 0.84633,0.48303 1.35964,0.43074c0.16431,0.00162 0.3002,-0.12756 0.30688,-0.29174c0.04128,-0.47064 0.03578,0.65092 0.06193,-5.58442c0,-0.77753 -0.04679,-0.90551 -0.4445,-0.93991c-0.54358,-0.04817 -0.55046,-0.31101 -0.09495,-0.46376l2.62707,-0.01239c0.04404,0 0.61789,0.07294 0.13762,0.46514c0,0.00688 -0.02202,0 -0.03303,0c-0.49679,0.03578 -0.5422,0.13762 -0.55046,0.63578c-0.03716,6.04544 0.00963,5.53626 0.05642,5.89268c0.01514,0.1156 0.03716,0.30688 0.70184,0.2945c0.34266,0 0.53119,0.46376 0,0.46789c-1.42707,0.01101 -2.85414,0 -4.28121,0.00963c-1.46835,0 -1.85368,-0.85321 -3.33166,-2.86515c-0.22018,-0.3 -1.14358,-0.32477 -1.12844,-0.05092c0.1211,2.26652 0,2.4468 0.55046,2.43166c0.65367,-0.01376 0.65092,0.49129 0.11422,0.48853zM2960.84725,655.70902c-0.16651,0.9812 0.02339,1.42845 -0.72936,1.42294c-8.47022,-0.0578 -6.58076,-0.03028 -6.97984,-0.04266c-0.16947,-0.0166 -0.33683,-0.05026 -0.49954,-0.10046c-0.34817,-0.08257 0.20367,-0.16927 -0.05229,-0.77065c-0.19679,-0.46376 -0.38257,-0.93303 -0.5656,-1.4023c-0.03262,-0.12333 -0.14793,-0.20635 -0.27523,-0.19817c-0.66851,-0.03215 -1.33826,-0.02893 -2.00643,0.00963c-0.09264,0.01215 -0.17471,0.06584 -0.22294,0.14587c-0.21743,0.49817 -0.42248,1.00321 -0.62064,1.51377c-0.17477,0.4445 1.08166,0.18165 1.67753,0.29725c0.41285,0.07844 0.6234,0.51193 0.09083,0.5133h-3.62891c-0.40184,0 -0.42523,-0.43349 -0.10184,-0.44174c0.34203,0.01566 0.66124,-0.17145 0.81468,-0.47752c0.20642,-0.41285 0.38532,-0.82569 0.5656,-1.25092c2.50184,-5.7991 2.34772,-5.528 2.53487,-5.72617c0.04711,-0.06741 0.12418,-0.10758 0.20642,-0.10758c0.08225,0 0.15931,0.04016 0.20642,0.10758c0.40321,0.45963 2.53212,6.15278 3.25047,7.14498c0.27523,0.37156 0.78991,0.27523 0.87523,0.27523c0.49679,0.01789 0.55046,-0.15275 0.56835,-0.59037c0.01239,-0.25734 0.01101,0.16101 0.00963,-5.67525c0,-0.61376 -0.32477,-0.51468 -0.76376,-0.58762c-0.03578,0 -0.35229,-0.0867 -0.01101,-0.4211c0.0289,-0.02752 -0.12248,-0.03303 2.98625,-0.02064c0.31927,0 0.73211,0.37844 -0.16651,0.47477c-0.10261,-0.0046 -0.20212,0.03582 -0.27246,0.11066c-0.07035,0.07484 -0.10453,0.17666 -0.09359,0.27879c-0.00963,0.22431 -0.02615,5.35186 0.03991,5.67112c0.04299,0.20739 0.23332,0.35058 0.4445,0.3344c1.8234,0.05917 2.05322,0.06055 2.20184,-0.46927c0.22982,-0.79542 0.56835,-0.34679 0.5133,-0.02615zM2946.43619,664.56731c-0.58349,0 -0.60826,-0.46652 -0.08395,-0.46927c4.94176,-0.02202 3.86836,0.05229 5.11791,-0.08945c0.23119,-0.02615 0.32752,0.03303 0.30963,0.26009c-0.03578,0.46652 -0.08807,0.93303 -0.13762,1.39817c-0.0344,0.29725 -0.44037,0.35918 -0.46789,-0.02064c-0.05229,-0.73074 -0.29587,-0.61239 -2.15093,-0.69909c-0.21743,-0.00963 -0.22569,0 -0.22569,0.20918v2.21973c0,0.22707 0,0.22018 0.22294,0.20229c0.42936,-0.0344 1.41881,0.04679 2.15918,-0.20918c0.06468,-0.02202 0.45413,-0.24633 0.42248,0.2422c0,0.0289 -0.10459,1.42432 -0.16239,1.56744c-0.07294,0.17752 -0.25872,0.2078 -0.35505,0.04404c-0.16101,-0.27523 0,-0.69909 -0.51055,-0.72936c-2.12203,-0.12385 -1.77661,-0.35092 -1.77661,0.82569c0,1.68579 -0.10459,2.21698 0.53532,2.23487c2.28992,0.06606 1.98166,0 2.26102,-0.78578c0.1156,-0.32615 0.48165,-0.24358 0.43762,0.07982c-0.06055,0.44174 -0.11697,0.88487 -0.16927,1.32661c0,0.04954 -0.02202,0.33028 -0.64129,0.3289c-5.11378,-0.01101 -4.75323,-0.02615 -4.84543,-0.04266c-0.37431,-0.07018 -0.30275,-0.41285 0.03028,-0.47477c0.15138,-0.02615 0.55046,0.07431 0.57248,-0.35229c0.33578,-7.73673 -0.00963,-7.06516 -0.53808,-7.06379zM2946.37977,649.49569c0.33853,0.08395 0.43074,0.2422 0.40596,0.63991c-0.04541,0.72936 -0.04679,1.23854 -0.07569,1.33349c-0.09083,0.30688 -0.43349,0.29174 -0.45963,-0.03716c-0.05229,-0.66193 -0.41973,-1.07615 -1.04175,-1.25918c-3.61653,-1.06377 -4.51515,2.12753 -3.73901,4.15873c0.80918,2.12065 3.02753,2.19083 3.97157,1.89634c0.81468,-0.25459 0.80918,-0.8945 0.95092,-1.04312c0.16927,-0.1789 0.30963,-0.25321 0.42936,0.15138c0,0.01376 0.07844,1.63624 -0.82569,1.75459c-0.22018,0.0289 -2.66698,0.5078 -4.49726,-0.46652c-2.88992,-1.53991 -2.30368,-4.88121 -0.94679,-6.2381c1.92661,-1.93487 5.49222,-0.97156 5.82388,-0.89037zM2942.47975,664.09254c0.45138,0 0.50367,0.41285 0.02202,0.47202c-0.35918,0.04404 -0.68808,-0.0578 -0.68808,0.75138c0,0.27523 -0.02615,3.99772 0.05505,5.70415c0.01514,0.31514 0.15826,0.48441 0.4734,0.5023c3.02753,0.16651 2.05735,-0.22707 2.58579,-0.87248c0.25184,-0.30826 0.37982,0.1156 0.37982,0.14862c0.04817,1.87432 -0.55046,1.70505 -0.71422,1.70643l-5.2514,-0.02615c-0.2656,-0.03165 -0.28349,-0.41285 -0.0578,-0.46514c0.27523,-0.06606 0.67982,0.05505 0.70597,-0.38532c0.13762,-2.18395 0.07844,-6.14452 0.04679,-6.57938c-0.03716,-0.51881 -0.38532,-0.45 -0.78165,-0.51055c-0.33991,-0.05229 -0.27523,-0.44312 0.04679,-0.44312c0.19954,-0.00275 2.47295,-0.00413 3.17754,-0.00275zM2938.12698,656.13976c0.00963,0.56147 0.39358,0.47615 0.82569,0.49266c0.35918,0.01376 0.34817,0.46927 -0.00963,0.47202c-0.89175,0 -1.88533,0 -2.97386,-0.00826c-0.52844,0 -0.46514,-0.46101 0,-0.46376c0.61789,0 0.44587,0.22156 0.46927,-6.267c0,-0.69909 -0.45,-0.48716 -0.64954,-0.58211c-0.35505,-0.16927 -0.18716,-0.42523 0.05642,-0.43349c0.17752,0 2.77845,-0.05642 2.91331,0.0289c0.13486,0.08532 0.25734,0.22707 -0.0578,0.39358c-0.13762,0.07156 -0.53119,-0.03853 -0.5711,0.33991c0,0.0289 -0.11284,0.22431 -0.00963,6.02755zM2933.0476,693.88348c0.13574,0.09087 0.31289,0.09087 0.44863,0c2.33946,-1.34725 25.04597,-14.25281 27.16799,-15.48309c-0.01927,-0.05917 1.54955,-0.02477 -24.97991,-0.03716c-0.16789,0 -0.21606,0.05092 -0.21055,0.21468c0,0.01376 0.17202,6.12525 0.16789,6.93305c-0.01298,0.36063 -0.07597,0.71771 -0.18716,1.06101c-0.07569,0.25184 0.05229,-0.06881 -1.85781,4.43534c-0.10046,0.2367 -0.13762,0.30413 -0.27523,-0.01101c-0.57661,-1.42294 -1.13945,-2.85139 -1.72982,-4.26607c-0.20714,-0.46645 -0.30144,-0.97516 -0.27523,-1.48487c0.02202,-0.33853 0.11009,-2.21836 0.2078,-6.60553c0,-0.26835 0,-0.27523 -0.27523,-0.27523h-25.18358c0.35505,0.22431 24.53954,14.11519 26.97258,15.51749zM2920.53838,667.90861c0,0.33028 0.04954,0.38395 0.37982,0.41285c1.58808,0.16101 2.88992,0.51468 3.52845,-1.00734c0.82569,-1.98992 0.36606,-4.73534 -1.71744,-5.34497c-0.27523,-0.08119 -2.20184,-0.37982 -2.19359,0.2078c0.00688,1.10643 0.00138,1.59771 0.00275,5.73167zM2935.09119,665.8375c0,0.29312 0.14725,5.32296 0.15,5.38488c0.04679,1.3679 -3.5202,0.79404 -3.47203,-0.35642c0.01101,-0.27523 0.18853,-5.14956 0.15138,-5.42617c-1.94037,1.02386 -1.98441,5.53351 0.88624,6.71562c1.12602,0.48868 2.44001,0.07377 3.0812,-0.97294c0.67569,-1.06789 0.94129,-4.05552 -0.74725,-5.36699c-0.01608,0.00674 -0.03264,0.01226 -0.04954,0.01651zM2933.40128,638.58969c-1.35276,0 -1.339,2.02982 -0.00963,2.04634c1.32936,0.01651 1.38991,-2.04771 0.00963,-2.05184zM2922.37142,652.87828c0,0.24771 0.05642,0.33028 0.29862,0.35505c1.87432,0.19129 1.72157,-1.51377 1.6734,-1.83854c-0.23257,-1.54404 -1.97891,-1.40368 -1.97478,-1.07477c0.00688,0.61927 -0.00413,1.88258 0.00275,2.55827zM2951.58988,653.75901l-0.83945,-2.17982c-0.29725,0.75413 -0.57248,1.45459 -0.85734,2.17982z" className="SFSymbolsPreviewWireframe"/></g>
  <g id="Regular-S"><path d="M1450.12008,625.54102c0.03578,0.02064 29.80332,17.13447 29.87901,17.16337c0.41285,0.16239 0.50918,0.47615 0.50918,0.90276c-0.01009,11.48353 -0.01009,22.96798 0,34.45334c0.02579,0.33615 -0.15953,0.65306 -0.46514,0.79542c-2.94084,1.65138 -28.6047,16.2785 -30.1281,17.1441h-0.41285c-10.91701,-6.28351 -30.03452,-17.26245 -30.05516,-17.27346c-0.17069,-0.08023 -0.27376,-0.25787 -0.25872,-0.44587c0,-0.11973 0,-31.09278 -0.00688,-34.83041c-0.02154,-0.28841 0.13958,-0.55951 0.40321,-0.67844c3.20093,-1.80276 28.79873,-16.40511 30.29461,-17.2308zM1448.68613,628.35112l-0.03028,-0.02202c-8.91013,5.0725 -17.8175,10.14637 -26.72212,15.22162c0,0.01651 0.01101,0.03165 0.01789,0.04817l4.24681,1.60184c-1.06101,0.82569 -1.14496,0.82569 -1.4656,0.70597c-0.01376,0 -3.32616,-1.27707 -3.68809,-1.37615v31.71067c0.1211,-0.19404 8.81701,-15.2629 8.82526,-15.27529c0.22294,-0.38807 0.41285,-0.26422 1.25505,-0.20918c0.19266,0.01239 0.20367,0.03028 0.10734,0.19541c-5.66837,9.81609 -5.00919,8.66976 -9.28627,16.09272c-0.11147,0.19266 -0.08395,0.15551 0.17202,0.15551h25.66524c0.19817,0 0.23257,-0.03165 0.23395,-0.22569v-1.22202c0,-0.1844 0.32477,-0.11147 -2.52799,-0.13762c-1.02661,-0.00963 -1.94588,-0.44312 -2.94221,-1.74771c-1.0156,-1.32936 -2.01193,-2.67386 -3.00689,-4.01974c-0.31376,-0.42385 -0.47477,-0.32752 -2.30643,-0.32752c-0.24083,0 -0.24496,0 -0.2422,0.25046c0.03991,3.60689 0.02064,3.47754 0.13762,4.49451c0.07156,0.60138 0.29725,0.57798 1.33349,0.66193c0.43211,0.03578 0.53395,0.56147 0.07156,0.67707c-0.21606,0.05367 -4.34864,0.07018 -4.6335,-0.01376c-0.15229,-0.04173 -0.25434,-0.18468 -0.24434,-0.34227c0.00999,-0.15759 0.12928,-0.28649 0.28563,-0.30865c0.45275,-0.10459 0.84771,0.11147 0.91652,-0.61101c0.1789,-1.87982 0.16101,-1.23854 0.15138,-10.9294c0,-1.489 -0.04817,-1.7312 -0.73762,-1.86469c-0.16789,-0.03303 -0.48716,-0.02202 -0.64542,-0.07569c-0.39633,-0.13762 -0.27523,-0.66606 0.24358,-0.66743c4.6335,0 6.34131,-0.14725 7.71471,0.66881c1.06514,0.63441 1.65138,1.57982 1.72157,2.80735c0.1211,2.00781 -0.89587,3.0757 -2.06423,4.48488c-0.04468,0.03817 -0.0704,0.09399 -0.0704,0.15275c0,0.05876 0.02573,0.11458 0.0704,0.15275c0.3578,0.44725 0.68808,0.91239 1.06101,1.35276c3.79268,4.57295 3.3179,4.20277 5.68076,4.54956c0.12248,0.01789 0.13762,-0.0578 0.13762,-0.15826v-1.51377c0,-0.13762 0.04404,-0.19679 0.19404,-0.1734c1.07664,0.16375 2.17284,0.1498 3.24497,-0.04128c0.14862,-0.02064 0.20642,0.02752 0.20367,0.18303c0,0.01514 0.1211,3.67295 0.11973,3.68809c-0.00688,0.20918 0.0922,0.22294 0.26009,0.22294h25.69413c-3.73671,-6.4725 -7.46333,-12.93216 -11.17986,-19.37897c0.31101,-0.09083 -0.05505,0 0.92065,-0.19129c0.27523,-0.05367 0.28211,-0.05642 0.42798,0.19817c1.00597,1.73946 10.63903,18.44044 10.64729,18.44869v-31.71205c-0.2367,0.06881 -14.21565,5.32846 -14.55418,5.46057c-0.14862,0.0578 -0.2133,0.02752 -0.26285,-0.1211c-0.0867,-0.26147 -0.1844,-0.51743 -0.28762,-0.7734c-0.04404,-0.10872 -0.01239,-0.15551 0.08945,-0.19129c0.01376,0 13.14638,-4.93351 14.17437,-5.33534c-9.00279,-5.1702 -17.96704,-10.32114 -26.97258,-15.49547l11.94775,20.69595l-0.03853,0.04541c-1.31698,-0.12385 -1.43946,-0.22018 -1.62386,-0.5422c-0.13762,-0.23257 -10.11472,-17.57484 -11.28445,-19.56338c-1.2523,2.01882 -11.49913,20.12072 -11.74821,20.13586c-0.40321,0.02339 -0.80918,0.01101 -1.27294,0.01101c3.9679,-6.85691 7.92113,-13.69179 11.85968,-20.50467zM1455.83249,646.23009c0.25668,-0.02001 0.51152,-0.05911 0.76239,-0.11697c0.23257,-0.04128 0.34817,0.02752 0.3578,0.26422c0,0.01514 0.00963,2.62295 -0.11835,2.81423c-0.12798,0.19129 -0.25872,0.16789 -0.3578,-0.02615c-0.68808,-1.33349 0.85597,-1.32936 -5.38351,-1.65138c-0.09633,0 -0.13762,0.03165 -0.13762,0.12798c0,0.01789 0.51193,16.78905 0.5133,16.80419c0,0.12248 0.07156,0.16514 0.16651,0.2078c0.40939,0.16279 0.80913,0.34888 1.19725,0.55734c1.00597,0.59587 1.56606,1.49175 1.7078,2.65735c0.19817,1.62386 -0.38119,4.9225 -4.43259,5.11103c-0.37844,0.01789 -3.88901,0.14862 -4.69818,-3.19955c-0.64129,-2.65047 1.1367,-4.50002 2.73717,-5.00919c0.17326,-0.03143 0.29315,-0.19089 0.27523,-0.36606c0.01376,-0.77477 0.41285,-14.73859 0.51055,-16.6996c0.00688,-0.14862 -0.08532,-0.15963 -0.18578,-0.15826c-4.45185,0.07156 -5.05736,-0.04679 -5.53488,1.17248c-0.33303,0.85046 -0.56973,0.18165 -0.54358,0.03165c0.14587,-0.82569 0.29771,-1.65138 0.45551,-2.47707c0.05505,-0.29037 0.19679,-0.35918 0.47202,-0.25596c0.76927,0.29037 0.92477,0.23395 5.12617,0.26422c0.23807,0 0.24496,-0.01101 0.25046,-0.25459c0.09358,-3.78304 0.07982,-3.10873 0.13762,-4.06653c0.01964,-0.16411 -0.0719,-0.32136 -0.22431,-0.38532c-0.77065,-0.40046 -1.20413,-1.03899 -1.22478,-1.90872c-0.04817,-2.03808 2.43854,-2.98212 3.7679,-1.58395c0.94129,0.98945 0.79817,2.6023 -0.33716,3.32341c-0.2143,0.11796 -0.33527,0.35445 -0.30551,0.59725c0,0.08119 -0.01514,-0.59312 0.13762,4.13534c0,0.12385 0.05917,0.15413 0.17064,0.15275c0.01376,0 3.16515,-0.01239 4.7436,-0.05092zM1428.43881,645.04109c2.73029,-0.62064 4.49726,-0.07706 7.22342,0.23257c0.37982,0.04266 0.51468,0.16789 0.49817,0.55046c-0.0289,0.68808 -0.15963,3.07295 -0.17064,3.18579c-0.00572,0.14185 -0.09324,0.26749 -0.22431,0.32202c-0.55872,0.23395 -0.49679,-0.61239 -0.55046,-1.00321c-0.43074,-3.08671 -10.16564,-4.50002 -10.27022,3.49543c-0.04266,3.29176 2.33946,7.3803 7.44223,7.00186c3.74864,-0.27523 2.61469,-2.77845 3.41836,-2.81698c0.12309,-0.01655 0.24636,0.02904 0.32908,0.12168c0.08271,0.09264 0.1141,0.22028 0.08377,0.34071c-0.25184,1.49312 -0.47064,2.60781 -0.47477,2.63533c-0.21193,1.26193 -11.93124,3.03992 -12.84638,-5.7881c-0.37294,-3.55735 1.4367,-7.34452 5.54176,-8.27755zM1439.44802,657.10581h-2.68212c-0.16456,0.0134 -0.31649,-0.08884 -0.36606,-0.24633c0.32752,-0.51606 0.81055,0.12661 0.80643,-0.84496c-0.01101,-3.54359 0.0289,-5.22938 0.03165,-5.51837c0,-0.47064 -0.07294,-0.63991 -0.45688,-0.67982c-0.96331,-0.09908 -0.42798,-0.46376 -0.15275,-0.46514c1.62936,-0.01376 3.11286,-0.02477 4.13534,0.09908c1.20689,0.14725 2.29955,1.73808 1.09129,3.11286c-0.27523,0.30963 -0.55046,0.60826 -0.84496,0.92615c0.13073,0.15826 0.94954,1.21377 2.37799,2.70827c0.36606,0.38257 0.84633,0.48303 1.35964,0.43074c0.16431,0.00162 0.3002,-0.12756 0.30688,-0.29174c0.04128,-0.47064 0.03578,0.65092 0.06193,-5.58442c0,-0.77753 -0.04679,-0.90551 -0.4445,-0.93991c-0.54358,-0.04817 -0.55046,-0.31101 -0.09495,-0.46376l2.62707,-0.01239c0.04404,0 0.61789,0.07294 0.13762,0.46514c0,0.00688 -0.02202,0 -0.03303,0c-0.49679,0.03578 -0.5422,0.13762 -0.55046,0.63578c-0.03716,6.04544 0.00963,5.53626 0.05642,5.89268c0.01514,0.1156 0.03716,0.30688 0.70184,0.2945c0.34266,0 0.53119,0.46376 0,0.46789c-1.42707,0.01101 -2.85414,0 -4.28121,0.00963c-1.46835,0 -1.85368,-0.85321 -3.33166,-2.86515c-0.22018,-0.3 -1.14358,-0.32477 -1.12844,-0.05092c0.1211,2.26652 0,2.4468 0.55046,2.43166c0.65367,-0.01376 0.65092,0.49129 0.11422,0.48853zM1477.2922,655.70902c-0.16651,0.9812 0.02339,1.42845 -0.72936,1.42294c-8.47022,-0.0578 -6.58076,-0.03028 -6.97984,-0.04266c-0.16947,-0.0166 -0.33683,-0.05026 -0.49954,-0.10046c-0.34817,-0.08257 0.20367,-0.16927 -0.05229,-0.77065c-0.19679,-0.46376 -0.38257,-0.93303 -0.5656,-1.4023c-0.03262,-0.12333 -0.14793,-0.20635 -0.27523,-0.19817c-0.66851,-0.03215 -1.33826,-0.02893 -2.00643,0.00963c-0.09264,0.01215 -0.17471,0.06584 -0.22294,0.14587c-0.21743,0.49817 -0.42248,1.00321 -0.62064,1.51377c-0.17477,0.4445 1.08166,0.18165 1.67753,0.29725c0.41285,0.07844 0.6234,0.51193 0.09083,0.5133h-3.62891c-0.40184,0 -0.42523,-0.43349 -0.10184,-0.44174c0.34203,0.01566 0.66124,-0.17145 0.81468,-0.47752c0.20642,-0.41285 0.38532,-0.82569 0.5656,-1.25092c2.50184,-5.7991 2.34772,-5.528 2.53487,-5.72617c0.04711,-0.06741 0.12418,-0.10758 0.20642,-0.10758c0.08225,0 0.15931,0.04016 0.20642,0.10758c0.40321,0.45963 2.53212,6.15278 3.25047,7.14498c0.27523,0.37156 0.78991,0.27523 0.87523,0.27523c0.49679,0.01789 0.55046,-0.15275 0.56835,-0.59037c0.01239,-0.25734 0.01101,0.16101 0.00963,-5.67525c0,-0.61376 -0.32477,-0.51468 -0.76376,-0.58762c-0.03578,0 -0.35229,-0.0867 -0.01101,-0.4211c0.0289,-0.02752 -0.12248,-0.03303 2.98625,-0.02064c0.31927,0 0.73211,0.37844 -0.16651,0.47477c-0.10261,-0.0046 -0.20212,0.03582 -0.27246,0.11066c-0.07035,0.07484 -0.10453,0.17666 -0.09359,0.27879c-0.00963,0.22431 -0.02615,5.35186 0.03991,5.67112c0.04299,0.20739 0.23332,0.35058 0.4445,0.3344c1.8234,0.05917 2.05322,0.06055 2.20184,-0.46927c0.22982,-0.79542 0.56835,-0.34679 0.5133,-0.02615zM1462.88114,664.56731c-0.58349,0 -0.60826,-0.46652 -0.08395,-0.46927c4.94176,-0.02202 3.86836,0.05229 5.11791,-0.08945c0.23119,-0.02615 0.32752,0.03303 0.30963,0.26009c-0.03578,0.46652 -0.08807,0.93303 -0.13762,1.39817c-0.0344,0.29725 -0.44037,0.35918 -0.46789,-0.02064c-0.05229,-0.73074 -0.29587,-0.61239 -2.15093,-0.69909c-0.21743,-0.00963 -0.22569,0 -0.22569,0.20918v2.21973c0,0.22707 0,0.22018 0.22294,0.20229c0.42936,-0.0344 1.41881,0.04679 2.15918,-0.20918c0.06468,-0.02202 0.45413,-0.24633 0.42248,0.2422c0,0.0289 -0.10459,1.42432 -0.16239,1.56744c-0.07294,0.17752 -0.25872,0.2078 -0.35505,0.04404c-0.16101,-0.27523 0,-0.69909 -0.51055,-0.72936c-2.12203,-0.12385 -1.77661,-0.35092 -1.77661,0.82569c0,1.68579 -0.10459,2.21698 0.53532,2.23487c2.28992,0.06606 1.98166,0 2.26102,-0.78578c0.1156,-0.32615 0.48165,-0.24358 0.43762,0.07982c-0.06055,0.44174 -0.11697,0.88487 -0.16927,1.32661c0,0.04954 -0.02202,0.33028 -0.64129,0.3289c-5.11378,-0.01101 -4.75323,-0.02615 -4.84543,-0.04266c-0.37431,-0.07018 -0.30275,-0.41285 0.03028,-0.47477c0.15138,-0.02615 0.55046,0.07431 0.57248,-0.35229c0.33578,-7.73673 -0.00963,-7.06516 -0.53808,-7.06379zM1462.82472,649.49569c0.33853,0.08395 0.43074,0.2422 0.40596,0.63991c-0.04541,0.72936 -0.04679,1.23854 -0.07569,1.33349c-0.09083,0.30688 -0.43349,0.29174 -0.45963,-0.03716c-0.05229,-0.66193 -0.41973,-1.07615 -1.04175,-1.25918c-3.61653,-1.06377 -4.51515,2.12753 -3.73901,4.15873c0.80918,2.12065 3.02753,2.19083 3.97157,1.89634c0.81468,-0.25459 0.80918,-0.8945 0.95092,-1.04312c0.16927,-0.1789 0.30963,-0.25321 0.42936,0.15138c0,0.01376 0.07844,1.63624 -0.82569,1.75459c-0.22018,0.0289 -2.66698,0.5078 -4.49726,-0.46652c-2.88992,-1.53991 -2.30368,-4.88121 -0.94679,-6.2381c1.92661,-1.93487 5.49222,-0.97156 5.82388,-0.89037zM1458.9247,664.09254c0.45138,0 0.50367,0.41285 0.02202,0.47202c-0.35918,0.04404 -0.68808,-0.0578 -0.68808,0.75138c0,0.27523 -0.02615,3.99772 0.05505,5.70415c0.01514,0.31514 0.15826,0.48441 0.4734,0.5023c3.02753,0.16651 2.05735,-0.22707 2.58579,-0.87248c0.25184,-0.30826 0.37982,0.1156 0.37982,0.14862c0.04817,1.87432 -0.55046,1.70505 -0.71422,1.70643l-5.2514,-0.02615c-0.2656,-0.03165 -0.28349,-0.41285 -0.0578,-0.46514c0.27523,-0.06606 0.67982,0.05505 0.70597,-0.38532c0.13762,-2.18395 0.07844,-6.14452 0.04679,-6.57938c-0.03716,-0.51881 -0.38532,-0.45 -0.78165,-0.51055c-0.33991,-0.05229 -0.27523,-0.44312 0.04679,-0.44312c0.19954,-0.00275 2.47295,-0.00413 3.17754,-0.00275zM1454.57193,656.13976c0.00963,0.56147 0.39358,0.47615 0.82569,0.49266c0.35918,0.01376 0.34817,0.46927 -0.00963,0.47202c-0.89175,0 -1.88533,0 -2.97386,-0.00826c-0.52844,0 -0.46514,-0.46101 0,-0.46376c0.61789,0 0.44587,0.22156 0.46927,-6.267c0,-0.69909 -0.45,-0.48716 -0.64954,-0.58211c-0.35505,-0.16927 -0.18716,-0.42523 0.05642,-0.43349c0.17752,0 2.77845,-0.05642 2.91331,0.0289c0.13486,0.08532 0.25734,0.22707 -0.0578,0.39358c-0.13762,0.07156 -0.53119,-0.03853 -0.5711,0.33991c0,0.0289 -0.11284,0.22431 -0.00963,6.02755zM1449.49256,693.88348c0.13574,0.09087 0.31289,0.09087 0.44863,0c2.33946,-1.34725 25.04597,-14.25281 27.16799,-15.48309c-0.01927,-0.05917 1.54955,-0.02477 -24.97991,-0.03716c-0.16789,0 -0.21606,0.05092 -0.21055,0.21468c0,0.01376 0.17202,6.12525 0.16789,6.93305c-0.01298,0.36063 -0.07597,0.71771 -0.18716,1.06101c-0.07569,0.25184 0.05229,-0.06881 -1.85781,4.43534c-0.10046,0.2367 -0.13762,0.30413 -0.27523,-0.01101c-0.57661,-1.42294 -1.13945,-2.85139 -1.72982,-4.26607c-0.20714,-0.46645 -0.30144,-0.97516 -0.27523,-1.48487c0.02202,-0.33853 0.11009,-2.21836 0.2078,-6.60553c0,-0.26835 0,-0.27523 -0.27523,-0.27523h-25.18358c0.35505,0.22431 24.53954,14.11519 26.97258,15.51749zM1436.98333,667.90861c0,0.33028 0.04954,0.38395 0.37982,0.41285c1.58808,0.16101 2.88992,0.51468 3.52845,-1.00734c0.82569,-1.98992 0.36606,-4.73534 -1.71744,-5.34497c-0.27523,-0.08119 -2.20184,-0.37982 -2.19359,0.2078c0.00688,1.10643 0.00138,1.59771 0.00275,5.73167zM1451.53614,665.8375c0,0.29312 0.14725,5.32296 0.15,5.38488c0.04679,1.3679 -3.5202,0.79404 -3.47203,-0.35642c0.01101,-0.27523 0.18853,-5.14956 0.15138,-5.42617c-1.94037,1.02386 -1.98441,5.53351 0.88624,6.71562c1.12602,0.48868 2.44001,0.07377 3.0812,-0.97294c0.67569,-1.06789 0.94129,-4.05552 -0.74725,-5.36699c-0.01608,0.00674 -0.03264,0.01226 -0.04954,0.01651zM1449.84623,638.58969c-1.35276,0 -1.339,2.02982 -0.00963,2.04634c1.32936,0.01651 1.38991,-2.04771 0.00963,-2.05184zM1438.81637,652.87828c0,0.24771 0.05642,0.33028 0.29862,0.35505c1.87432,0.19129 1.72157,-1.51377 1.6734,-1.83854c-0.23257,-1.54404 -1.97891,-1.40368 -1.97478,-1.07477c0.00688,0.61927 -0.00413,1.88258 0.00275,2.55827zM1468.03483,653.75901l-0.83945,-2.17982c-0.29725,0.75413 -0.57248,1.45459 -0.85734,2.17982z" className="SFSymbolsPreviewWireframe"/></g>
  <g id="Ultralight-S"><path d="M559.98649,625.54102c0.03578,0.02064 29.80332,17.13447 29.87901,17.16337c0.41285,0.16239 0.50918,0.47615 0.50918,0.90276c-0.01009,11.48353 -0.01009,22.96798 0,34.45334c0.02579,0.33615 -0.15953,0.65306 -0.46514,0.79542c-2.94084,1.65138 -28.6047,16.2785 -30.1281,17.1441h-0.41285c-10.91701,-6.28351 -30.03452,-17.26245 -30.05516,-17.27346c-0.17069,-0.08023 -0.27376,-0.25787 -0.25872,-0.44587c0,-0.11973 0,-31.09278 -0.00688,-34.83041c-0.02154,-0.28841 0.13958,-0.55951 0.40321,-0.67844c3.20093,-1.80276 28.79873,-16.40511 30.29461,-17.2308zM558.55254,628.35112l-0.03028,-0.02202c-8.91013,5.0725 -17.8175,10.14637 -26.72212,15.22162c0,0.01651 0.01101,0.03165 0.01789,0.04817l4.24681,1.60184c-1.06101,0.82569 -1.14496,0.82569 -1.4656,0.70597c-0.01376,0 -3.32616,-1.27707 -3.68809,-1.37615v31.71067c0.1211,-0.19404 8.81701,-15.2629 8.82526,-15.27529c0.22294,-0.38807 0.41285,-0.26422 1.25505,-0.20918c0.19266,0.01239 0.20367,0.03028 0.10734,0.19541c-5.66837,9.81609 -5.00919,8.66976 -9.28627,16.09272c-0.11147,0.19266 -0.08395,0.15551 0.17202,0.15551h25.66524c0.19817,0 0.23257,-0.03165 0.23395,-0.22569v-1.22202c0,-0.1844 0.32477,-0.11147 -2.52799,-0.13762c-1.02661,-0.00963 -1.94588,-0.44312 -2.94221,-1.74771c-1.0156,-1.32936 -2.01193,-2.67386 -3.00689,-4.01974c-0.31376,-0.42385 -0.47477,-0.32752 -2.30643,-0.32752c-0.24083,0 -0.24496,0 -0.2422,0.25046c0.03991,3.60689 0.02064,3.47754 0.13762,4.49451c0.07156,0.60138 0.29725,0.57798 1.33349,0.66193c0.43211,0.03578 0.53395,0.56147 0.07156,0.67707c-0.21606,0.05367 -4.34864,0.07018 -4.6335,-0.01376c-0.15229,-0.04173 -0.25434,-0.18468 -0.24434,-0.34227c0.00999,-0.15759 0.12928,-0.28649 0.28563,-0.30865c0.45275,-0.10459 0.84771,0.11147 0.91652,-0.61101c0.1789,-1.87982 0.16101,-1.23854 0.15138,-10.9294c0,-1.489 -0.04817,-1.7312 -0.73762,-1.86469c-0.16789,-0.03303 -0.48716,-0.02202 -0.64542,-0.07569c-0.39633,-0.13762 -0.27523,-0.66606 0.24358,-0.66743c4.6335,0 6.34131,-0.14725 7.71471,0.66881c1.06514,0.63441 1.65138,1.57982 1.72157,2.80735c0.1211,2.00781 -0.89587,3.0757 -2.06423,4.48488c-0.04468,0.03817 -0.0704,0.09399 -0.0704,0.15275c0,0.05876 0.02573,0.11458 0.0704,0.15275c0.3578,0.44725 0.68808,0.91239 1.06101,1.35276c3.79268,4.57295 3.3179,4.20277 5.68076,4.54956c0.12248,0.01789 0.13762,-0.0578 0.13762,-0.15826v-1.51377c0,-0.13762 0.04404,-0.19679 0.19404,-0.1734c1.07664,0.16375 2.17284,0.1498 3.24497,-0.04128c0.14862,-0.02064 0.20642,0.02752 0.20367,0.18303c0,0.01514 0.1211,3.67295 0.11973,3.68809c-0.00688,0.20918 0.0922,0.22294 0.26009,0.22294h25.69413c-3.73671,-6.4725 -7.46333,-12.93216 -11.17986,-19.37897c0.31101,-0.09083 -0.05505,0 0.92065,-0.19129c0.27523,-0.05367 0.28211,-0.05642 0.42798,0.19817c1.00597,1.73946 10.63903,18.44044 10.64729,18.44869v-31.71205c-0.2367,0.06881 -14.21565,5.32846 -14.55418,5.46057c-0.14862,0.0578 -0.2133,0.02752 -0.26285,-0.1211c-0.0867,-0.26147 -0.1844,-0.51743 -0.28762,-0.7734c-0.04404,-0.10872 -0.01239,-0.15551 0.08945,-0.19129c0.01376,0 13.14638,-4.93351 14.17437,-5.33534c-9.00279,-5.1702 -17.96704,-10.32114 -26.97258,-15.49547l11.94775,20.69595l-0.03853,0.04541c-1.31698,-0.12385 -1.43946,-0.22018 -1.62386,-0.5422c-0.13762,-0.23257 -10.11472,-17.57484 -11.28445,-19.56338c-1.2523,2.01882 -11.49913,20.12072 -11.74821,20.13586c-0.40321,0.02339 -0.80918,0.01101 -1.27294,0.01101c3.9679,-6.85691 7.92113,-13.69179 11.85968,-20.50467zM565.6989,646.23009c0.25668,-0.02001 0.51152,-0.05911 0.76239,-0.11697c0.23257,-0.04128 0.34817,0.02752 0.3578,0.26422c0,0.01514 0.00963,2.62295 -0.11835,2.81423c-0.12798,0.19129 -0.25872,0.16789 -0.3578,-0.02615c-0.68808,-1.33349 0.85597,-1.32936 -5.38351,-1.65138c-0.09633,0 -0.13762,0.03165 -0.13762,0.12798c0,0.01789 0.51193,16.78905 0.5133,16.80419c0,0.12248 0.07156,0.16514 0.16651,0.2078c0.40939,0.16279 0.80913,0.34888 1.19725,0.55734c1.00597,0.59587 1.56606,1.49175 1.7078,2.65735c0.19817,1.62386 -0.38119,4.9225 -4.43259,5.11103c-0.37844,0.01789 -3.88901,0.14862 -4.69818,-3.19955c-0.64129,-2.65047 1.1367,-4.50002 2.73717,-5.00919c0.17326,-0.03143 0.29315,-0.19089 0.27523,-0.36606c0.01376,-0.77477 0.41285,-14.73859 0.51055,-16.6996c0.00688,-0.14862 -0.08532,-0.15963 -0.18578,-0.15826c-4.45185,0.07156 -5.05736,-0.04679 -5.53488,1.17248c-0.33303,0.85046 -0.56973,0.18165 -0.54358,0.03165c0.14587,-0.82569 0.29771,-1.65138 0.45551,-2.47707c0.05505,-0.29037 0.19679,-0.35918 0.47202,-0.25596c0.76927,0.29037 0.92477,0.23395 5.12617,0.26422c0.23807,0 0.24496,-0.01101 0.25046,-0.25459c0.09358,-3.78304 0.07982,-3.10873 0.13762,-4.06653c0.01964,-0.16411 -0.0719,-0.32136 -0.22431,-0.38532c-0.77065,-0.40046 -1.20413,-1.03899 -1.22478,-1.90872c-0.04817,-2.03808 2.43854,-2.98212 3.7679,-1.58395c0.94129,0.98945 0.79817,2.6023 -0.33716,3.32341c-0.2143,0.11796 -0.33527,0.35445 -0.30551,0.59725c0,0.08119 -0.01514,-0.59312 0.13762,4.13534c0,0.12385 0.05917,0.15413 0.17064,0.15275c0.01376,0 3.16515,-0.01239 4.7436,-0.05092zM538.30521,645.04109c2.73029,-0.62064 4.49726,-0.07706 7.22342,0.23257c0.37982,0.04266 0.51468,0.16789 0.49817,0.55046c-0.0289,0.68808 -0.15963,3.07295 -0.17064,3.18579c-0.00572,0.14185 -0.09324,0.26749 -0.22431,0.32202c-0.55872,0.23395 -0.49679,-0.61239 -0.55046,-1.00321c-0.43074,-3.08671 -10.16564,-4.50002 -10.27022,3.49543c-0.04266,3.29176 2.33946,7.3803 7.44223,7.00186c3.74864,-0.27523 2.61469,-2.77845 3.41836,-2.81698c0.12309,-0.01655 0.24636,0.02904 0.32908,0.12168c0.08271,0.09264 0.1141,0.22028 0.08377,0.34071c-0.25184,1.49312 -0.47064,2.60781 -0.47477,2.63533c-0.21193,1.26193 -11.93124,3.03992 -12.84638,-5.7881c-0.37294,-3.55735 1.4367,-7.34452 5.54176,-8.27755zM549.31443,657.10581h-2.68212c-0.16456,0.0134 -0.31649,-0.08884 -0.36606,-0.24633c0.32752,-0.51606 0.81055,0.12661 0.80643,-0.84496c-0.01101,-3.54359 0.0289,-5.22938 0.03165,-5.51837c0,-0.47064 -0.07294,-0.63991 -0.45688,-0.67982c-0.96331,-0.09908 -0.42798,-0.46376 -0.15275,-0.46514c1.62936,-0.01376 3.11286,-0.02477 4.13534,0.09908c1.20689,0.14725 2.29955,1.73808 1.09129,3.11286c-0.27523,0.30963 -0.55046,0.60826 -0.84496,0.92615c0.13073,0.15826 0.94954,1.21377 2.37799,2.70827c0.36606,0.38257 0.84633,0.48303 1.35964,0.43074c0.16431,0.00162 0.3002,-0.12756 0.30688,-0.29174c0.04128,-0.47064 0.03578,0.65092 0.06193,-5.58442c0,-0.77753 -0.04679,-0.90551 -0.4445,-0.93991c-0.54358,-0.04817 -0.55046,-0.31101 -0.09495,-0.46376l2.62707,-0.01239c0.04404,0 0.61789,0.07294 0.13762,0.46514c0,0.00688 -0.02202,0 -0.03303,0c-0.49679,0.03578 -0.5422,0.13762 -0.55046,0.63578c-0.03716,6.04544 0.00963,5.53626 0.05642,5.89268c0.01514,0.1156 0.03716,0.30688 0.70184,0.2945c0.34266,0 0.53119,0.46376 0,0.46789c-1.42707,0.01101 -2.85414,0 -4.28121,0.00963c-1.46835,0 -1.85368,-0.85321 -3.33166,-2.86515c-0.22018,-0.3 -1.14358,-0.32477 -1.12844,-0.05092c0.1211,2.26652 0,2.4468 0.55046,2.43166c0.65367,-0.01376 0.65092,0.49129 0.11422,0.48853zM587.15861,655.70902c-0.16651,0.9812 0.02339,1.42845 -0.72936,1.42294c-8.47022,-0.0578 -6.58076,-0.03028 -6.97984,-0.04266c-0.16947,-0.0166 -0.33683,-0.05026 -0.49954,-0.10046c-0.34817,-0.08257 0.20367,-0.16927 -0.05229,-0.77065c-0.19679,-0.46376 -0.38257,-0.93303 -0.5656,-1.4023c-0.03262,-0.12333 -0.14793,-0.20635 -0.27523,-0.19817c-0.66851,-0.03215 -1.33826,-0.02893 -2.00643,0.00963c-0.09264,0.01215 -0.17471,0.06584 -0.22294,0.14587c-0.21743,0.49817 -0.42248,1.00321 -0.62064,1.51377c-0.17477,0.4445 1.08166,0.18165 1.67753,0.29725c0.41285,0.07844 0.6234,0.51193 0.09083,0.5133h-3.62891c-0.40184,0 -0.42523,-0.43349 -0.10184,-0.44174c0.34203,0.01566 0.66124,-0.17145 0.81468,-0.47752c0.20642,-0.41285 0.38532,-0.82569 0.5656,-1.25092c2.50184,-5.7991 2.34772,-5.528 2.53487,-5.72617c0.04711,-0.06741 0.12418,-0.10758 0.20642,-0.10758c0.08225,0 0.15931,0.04016 0.20642,0.10758c0.40321,0.45963 2.53212,6.15278 3.25047,7.14498c0.27523,0.37156 0.78991,0.27523 0.87523,0.27523c0.49679,0.01789 0.55046,-0.15275 0.56835,-0.59037c0.01239,-0.25734 0.01101,0.16101 0.00963,-5.67525c0,-0.61376 -0.32477,-0.51468 -0.76376,-0.58762c-0.03578,0 -0.35229,-0.0867 -0.01101,-0.4211c0.0289,-0.02752 -0.12248,-0.03303 2.98625,-0.02064c0.31927,0 0.73211,0.37844 -0.16651,0.47477c-0.10261,-0.0046 -0.20212,0.03582 -0.27246,0.11066c-0.07035,0.07484 -0.10453,0.17666 -0.09359,0.27879c-0.00963,0.22431 -0.02615,5.35186 0.03991,5.67112c0.04299,0.20739 0.23332,0.35058 0.4445,0.3344c1.8234,0.05917 2.05322,0.06055 2.20184,-0.46927c0.22982,-0.79542 0.56835,-0.34679 0.5133,-0.02615zM572.74755,664.56731c-0.58349,0 -0.60826,-0.46652 -0.08395,-0.46927c4.94176,-0.02202 3.86836,0.05229 5.11791,-0.08945c0.23119,-0.02615 0.32752,0.03303 0.30963,0.26009c-0.03578,0.46652 -0.08807,0.93303 -0.13762,1.39817c-0.0344,0.29725 -0.44037,0.35918 -0.46789,-0.02064c-0.05229,-0.73074 -0.29587,-0.61239 -2.15093,-0.69909c-0.21743,-0.00963 -0.22569,0 -0.22569,0.20918v2.21973c0,0.22707 0,0.22018 0.22294,0.20229c0.42936,-0.0344 1.41881,0.04679 2.15918,-0.20918c0.06468,-0.02202 0.45413,-0.24633 0.42248,0.2422c0,0.0289 -0.10459,1.42432 -0.16239,1.56744c-0.07294,0.17752 -0.25872,0.2078 -0.35505,0.04404c-0.16101,-0.27523 0,-0.69909 -0.51055,-0.72936c-2.12203,-0.12385 -1.77661,-0.35092 -1.77661,0.82569c0,1.68579 -0.10459,2.21698 0.53532,2.23487c2.28992,0.06606 1.98166,0 2.26102,-0.78578c0.1156,-0.32615 0.48165,-0.24358 0.43762,0.07982c-0.06055,0.44174 -0.11697,0.88487 -0.16927,1.32661c0,0.04954 -0.02202,0.33028 -0.64129,0.3289c-5.11378,-0.01101 -4.75323,-0.02615 -4.84543,-0.04266c-0.37431,-0.07018 -0.30275,-0.41285 0.03028,-0.47477c0.15138,-0.02615 0.55046,0.07431 0.57248,-0.35229c0.33578,-7.73673 -0.00963,-7.06516 -0.53808,-7.06379zM572.69113,649.49569c0.33853,0.08395 0.43074,0.2422 0.40596,0.63991c-0.04541,0.72936 -0.04679,1.23854 -0.07569,1.33349c-0.09083,0.30688 -0.43349,0.29174 -0.45963,-0.03716c-0.05229,-0.66193 -0.41973,-1.07615 -1.04175,-1.25918c-3.61653,-1.06377 -4.51515,2.12753 -3.73901,4.15873c0.80918,2.12065 3.02753,2.19083 3.97157,1.89634c0.81468,-0.25459 0.80918,-0.8945 0.95092,-1.04312c0.16927,-0.1789 0.30963,-0.25321 0.42936,0.15138c0,0.01376 0.07844,1.63624 -0.82569,1.75459c-0.22018,0.0289 -2.66698,0.5078 -4.49726,-0.46652c-2.88992,-1.53991 -2.30368,-4.88121 -0.94679,-6.2381c1.92661,-1.93487 5.49222,-0.97156 5.82388,-0.89037zM568.79111,664.09254c0.45138,0 0.50367,0.41285 0.02202,0.47202c-0.35918,0.04404 -0.68808,-0.0578 -0.68808,0.75138c0,0.27523 -0.02615,3.99772 0.05505,5.70415c0.01514,0.31514 0.15826,0.48441 0.4734,0.5023c3.02753,0.16651 2.05735,-0.22707 2.58579,-0.87248c0.25184,-0.30826 0.37982,0.1156 0.37982,0.14862c0.04817,1.87432 -0.55046,1.70505 -0.71422,1.70643l-5.2514,-0.02615c-0.2656,-0.03165 -0.28349,-0.41285 -0.0578,-0.46514c0.27523,-0.06606 0.67982,0.05505 0.70597,-0.38532c0.13762,-2.18395 0.07844,-6.14452 0.04679,-6.57938c-0.03716,-0.51881 -0.38532,-0.45 -0.78165,-0.51055c-0.33991,-0.05229 -0.27523,-0.44312 0.04679,-0.44312c0.19954,-0.00275 2.47295,-0.00413 3.17754,-0.00275zM564.43834,656.13976c0.00963,0.56147 0.39358,0.47615 0.82569,0.49266c0.35918,0.01376 0.34817,0.46927 -0.00963,0.47202c-0.89175,0 -1.88533,0 -2.97386,-0.00826c-0.52844,0 -0.46514,-0.46101 0,-0.46376c0.61789,0 0.44587,0.22156 0.46927,-6.267c0,-0.69909 -0.45,-0.48716 -0.64954,-0.58211c-0.35505,-0.16927 -0.18716,-0.42523 0.05642,-0.43349c0.17752,0 2.77845,-0.05642 2.91331,0.0289c0.13486,0.08532 0.25734,0.22707 -0.0578,0.39358c-0.13762,0.07156 -0.53119,-0.03853 -0.5711,0.33991c0,0.0289 -0.11284,0.22431 -0.00963,6.02755zM559.35896,693.88348c0.13574,0.09087 0.31289,0.09087 0.44863,0c2.33946,-1.34725 25.04597,-14.25281 27.16799,-15.48309c-0.01927,-0.05917 1.54955,-0.02477 -24.97991,-0.03716c-0.16789,0 -0.21606,0.05092 -0.21055,0.21468c0,0.01376 0.17202,6.12525 0.16789,6.93305c-0.01298,0.36063 -0.07597,0.71771 -0.18716,1.06101c-0.07569,0.25184 0.05229,-0.06881 -1.85781,4.43534c-0.10046,0.2367 -0.13762,0.30413 -0.27523,-0.01101c-0.57661,-1.42294 -1.13945,-2.85139 -1.72982,-4.26607c-0.20714,-0.46645 -0.30144,-0.97516 -0.27523,-1.48487c0.02202,-0.33853 0.11009,-2.21836 0.2078,-6.60553c0,-0.26835 0,-0.27523 -0.27523,-0.27523h-25.18358c0.35505,0.22431 24.53954,14.11519 26.97258,15.51749zM546.84974,667.90861c0,0.33028 0.04954,0.38395 0.37982,0.41285c1.58808,0.16101 2.88992,0.51468 3.52845,-1.00734c0.82569,-1.98992 0.36606,-4.73534 -1.71744,-5.34497c-0.27523,-0.08119 -2.20184,-0.37982 -2.19359,0.2078c0.00688,1.10643 0.00138,1.59771 0.00275,5.73167zM561.40255,665.8375c0,0.29312 0.14725,5.32296 0.15,5.38488c0.04679,1.3679 -3.5202,0.79404 -3.47203,-0.35642c0.01101,-0.27523 0.18853,-5.14956 0.15138,-5.42617c-1.94037,1.02386 -1.98441,5.53351 0.88624,6.71562c1.12602,0.48868 2.44001,0.07377 3.0812,-0.97294c0.67569,-1.06789 0.94129,-4.05552 -0.74725,-5.36699c-0.01608,0.00674 -0.03264,0.01226 -0.04954,0.01651zM559.71264,638.58969c-1.35276,0 -1.339,2.02982 -0.00963,2.04634c1.32936,0.01651 1.38991,-2.04771 0.00963,-2.05184zM548.68278,652.87828c0,0.24771 0.05642,0.33028 0.29862,0.35505c1.87432,0.19129 1.72157,-1.51377 1.6734,-1.83854c-0.23257,-1.54404 -1.97891,-1.40368 -1.97478,-1.07477c0.00688,0.61927 -0.00413,1.88258 0.00275,2.55827zM577.90124,653.75901l-0.83945,-2.17982c-0.29725,0.75413 -0.57248,1.45459 -0.85734,2.17982z" className="SFSymbolsPreviewWireframe"/></g>
 </g>
</svg>