<?xml version="1.0" encoding="UTF-8"?><!--Generator: https://SymbolKit.app--><!DOCTYPE svg PUBLIC "-//W3C//DTD SVG 1.1//EN" "http://www.w3.org/Graphics/SVG/1.1/DTD/svg11.dtd"><svg xmlns="http://www.w3.org/2000/svg" xmlns:xlink="http://www.w3.org/1999/xlink" version="1.1" viewBox="0 0 3300 2200">
 <!--glyph: "100092", point size: 100.0, font version: "20.0d10e1", template writer version: "138.0.0"-->
 <style>.SFSymbolsPreviewWireframe {fill:none;opacity:1.0;stroke:black;stroke-width:0.5}
</style>
 <g id="Notes">
  <rect height="2200" id="artboard" style="fill:white;opacity:1" width="3300" x="0" y="0"/>
  <line style="fill:none;stroke:black;opacity:1;stroke-width:0.5;" x1="263" x2="3036" y1="292" y2="292"/>
  <text style="stroke:none;fill:black;font-family:sans-serif;font-size:13;font-weight:bold;" transform="matrix(1 0 0 1 263 322)">Weight/Scale Variations</text>
  <text style="stroke:none;fill:black;font-family:sans-serif;font-size:13;text-anchor:middle;" transform="matrix(1 0 0 1 559.711 322)">Ultralight</text>
  <text style="stroke:none;fill:black;font-family:sans-serif;font-size:13;text-anchor:middle;" transform="matrix(1 0 0 1 856.422 322)">Thin</text>
  <text style="stroke:none;fill:black;font-family:sans-serif;font-size:13;text-anchor:middle;" transform="matrix(1 0 0 1 1153.13 322)">Light</text>
  <text style="stroke:none;fill:black;font-family:sans-serif;font-size:13;text-anchor:middle;" transform="matrix(1 0 0 1 1449.84 322)">Regular</text>
  <text style="stroke:none;fill:black;font-family:sans-serif;font-size:13;text-anchor:middle;" transform="matrix(1 0 0 1 1746.56 322)">Medium</text>
  <text style="stroke:none;fill:black;font-family:sans-serif;font-size:13;text-anchor:middle;" transform="matrix(1 0 0 1 2043.27 322)">Semibold</text>
  <text style="stroke:none;fill:black;font-family:sans-serif;font-size:13;text-anchor:middle;" transform="matrix(1 0 0 1 2339.98 322)">Bold</text>
  <text style="stroke:none;fill:black;font-family:sans-serif;font-size:13;text-anchor:middle;" transform="matrix(1 0 0 1 2636.69 322)">Heavy</text>
  <text style="stroke:none;fill:black;font-family:sans-serif;font-size:13;text-anchor:middle;" transform="matrix(1 0 0 1 2933.4 322)">Black</text>
  <line style="fill:none;stroke:black;opacity:1;stroke-width:0.5;" x1="263" x2="3036" y1="1903" y2="1903"/>
  <g transform="matrix(0.2 0 0 0.2 263 1933)">
   <path d="m46.2402 4.15039c21.7773 0 39.4531-17.627 39.4531-39.4043s-17.6758-39.4043-39.4531-39.4043c-21.7285 0-39.4043 17.627-39.4043 39.4043s17.6758 39.4043 39.4043 39.4043Zm0-7.42188c-17.6758 0-31.9336-14.3066-31.9336-31.9824s14.2578-31.9824 31.9336-31.9824 31.9824 14.3066 31.9824 31.9824-14.3066 31.9824-31.9824 31.9824Zm-17.9688-31.9824c0 2.14844 1.51367 3.61328 3.75977 3.61328h10.498v10.5957c0 2.19727 1.46484 3.71094 3.61328 3.71094 2.24609 0 3.71094-1.51367 3.71094-3.71094v-10.5957h10.5957c2.19727 0 3.71094-1.46484 3.71094-3.61328 0-2.19727-1.51367-3.71094-3.71094-3.71094h-10.5957v-10.5469c0-2.24609-1.46484-3.75977-3.71094-3.75977-2.14844 0-3.61328 1.51367-3.61328 3.75977v10.5469h-10.498c-2.24609 0-3.75977 1.51367-3.75977 3.71094Z"/>
  </g>
  <g transform="matrix(0.2 0 0 0.2 281.506 1933)">
   <path d="m58.5449 14.5508c27.4902 0 49.8047-22.3145 49.8047-49.8047s-22.3145-49.8047-49.8047-49.8047-49.8047 22.3145-49.8047 49.8047 22.3145 49.8047 49.8047 49.8047Zm0-8.30078c-22.9492 0-41.5039-18.5547-41.5039-41.5039s18.5547-41.5039 41.5039-41.5039 41.5039 18.5547 41.5039 41.5039-18.5547 41.5039-41.5039 41.5039Zm-22.6562-41.5039c0 2.39258 1.66016 4.00391 4.15039 4.00391h14.3555v14.4043c0 2.44141 1.66016 4.15039 4.05273 4.15039 2.44141 0 4.15039-1.66016 4.15039-4.15039v-14.4043h14.4043c2.44141 0 4.15039-1.61133 4.15039-4.00391 0-2.44141-1.70898-4.15039-4.15039-4.15039h-14.4043v-14.3555c0-2.49023-1.70898-4.19922-4.15039-4.19922-2.39258 0-4.05273 1.70898-4.05273 4.19922v14.3555h-14.3555c-2.49023 0-4.15039 1.70898-4.15039 4.15039Z"/>
  </g>
  <g transform="matrix(0.2 0 0 0.2 304.924 1933)">
   <path d="m74.8535 28.3203c35.1074 0 63.623-28.4668 63.623-63.5742s-28.5156-63.623-63.623-63.623-63.5742 28.5156-63.5742 63.623 28.4668 63.5742 63.5742 63.5742Zm0-9.08203c-30.127 0-54.4922-24.3652-54.4922-54.4922s24.3652-54.4922 54.4922-54.4922 54.4922 24.3652 54.4922 54.4922-24.3652 54.4922-54.4922 54.4922Zm-28.8574-54.4922c0 2.58789 1.85547 4.39453 4.58984 4.39453h19.7266v19.7754c0 2.68555 1.85547 4.58984 4.44336 4.58984 2.68555 0 4.54102-1.85547 4.54102-4.58984v-19.7754h19.7754c2.68555 0 4.58984-1.80664 4.58984-4.39453 0-2.73438-1.85547-4.58984-4.58984-4.58984h-19.7754v-19.7266c0-2.73438-1.85547-4.63867-4.54102-4.63867-2.58789 0-4.44336 1.9043-4.44336 4.63867v19.7266h-19.7266c-2.73438 0-4.58984 1.85547-4.58984 4.58984Z"/>
  </g>
  <text style="stroke:none;fill:black;font-family:sans-serif;font-size:13;font-weight:bold;" transform="matrix(1 0 0 1 263 1953)">Design Variations</text>
  <text style="stroke:none;fill:black;font-family:sans-serif;font-size:13;" transform="matrix(1 0 0 1 263 1971)">Symbols are supported in up to nine weights and three scales.</text>
  <text style="stroke:none;fill:black;font-family:sans-serif;font-size:13;" transform="matrix(1 0 0 1 263 1989)">For optimal layout with text and other symbols, vertically align</text>
  <text style="stroke:none;fill:black;font-family:sans-serif;font-size:13;" transform="matrix(1 0 0 1 263 2007)">symbols with the adjacent text.</text>
  <line style="fill:none;stroke:#00AEEF;stroke-width:0.5;opacity:1.0;" x1="776" x2="776" y1="1919" y2="1933"/>
  <g transform="matrix(0.2 0 0 0.2 776 1933)">
   <path d="m16.5527 0.78125c2.58789 0 3.85742-0.976562 4.78516-3.71094l6.29883-17.2363h28.8086l6.29883 17.2363c0.927734 2.73438 2.19727 3.71094 4.73633 3.71094 2.58789 0 4.24805-1.5625 4.24805-4.00391 0-0.830078-0.146484-1.61133-0.537109-2.63672l-22.9004-60.9863c-1.12305-2.97852-3.125-4.49219-6.25-4.49219-3.02734 0-5.07812 1.46484-6.15234 4.44336l-22.9004 61.084c-0.390625 1.02539-0.537109 1.80664-0.537109 2.63672 0 2.44141 1.5625 3.95508 4.10156 3.95508Zm13.4766-28.3691 11.8652-32.8613h0.244141l11.8652 32.8613Z"/>
  </g>
  <line style="fill:none;stroke:#00AEEF;stroke-width:0.5;opacity:1.0;" x1="792.836" x2="792.836" y1="1919" y2="1933"/>
  <text style="stroke:none;fill:black;font-family:sans-serif;font-size:13;font-weight:bold;" transform="matrix(1 0 0 1 776 1953)">Margins</text>
  <text style="stroke:none;fill:black;font-family:sans-serif;font-size:13;" transform="matrix(1 0 0 1 776 1971)">Leading and trailing margins on the left and right side of each symbol</text>
  <text style="stroke:none;fill:black;font-family:sans-serif;font-size:13;" transform="matrix(1 0 0 1 776 1989)">can be adjusted by modifying the x-location of the margin guidelines.</text>
  <text style="stroke:none;fill:black;font-family:sans-serif;font-size:13;" transform="matrix(1 0 0 1 776 2007)">Modifications are automatically applied proportionally to all</text>
  <text style="stroke:none;fill:black;font-family:sans-serif;font-size:13;" transform="matrix(1 0 0 1 776 2025)">scales and weights.</text>
  <g transform="matrix(0.2 0 0 0.2 1289 1933)">
   <path d="m14.209 9.32617 8.49609 8.54492c4.29688 4.3457 9.22852 4.05273 13.8672-1.07422l53.4668-58.9355-4.83398-4.88281-53.0762 58.3984c-1.75781 2.00195-3.41797 2.49023-5.76172 0.146484l-5.85938-5.81055c-2.34375-2.29492-1.80664-4.00391 0.195312-5.81055l57.373-54.0039-4.88281-4.83398-57.959 54.4434c-4.93164 4.58984-5.32227 9.47266-1.02539 13.8184Zm32.0801-90.9668c-2.09961 2.05078-2.24609 4.93164-1.07422 6.88477 1.17188 1.80664 3.4668 2.97852 6.68945 2.14844 7.32422-1.70898 14.9414-2.00195 22.0703 2.68555l-2.92969 7.27539c-1.70898 4.15039-0.830078 7.08008 1.85547 9.81445l11.4746 11.5723c2.44141 2.44141 4.49219 2.53906 7.32422 2.05078l5.32227-0.976562 3.32031 3.36914-0.195312 2.7832c-0.195312 2.49023 0.439453 4.39453 2.88086 6.78711l3.80859 3.71094c2.39258 2.39258 5.46875 2.53906 7.8125 0.195312l14.5508-14.5996c2.34375-2.34375 2.24609-5.32227-0.146484-7.71484l-3.85742-3.80859c-2.39258-2.39258-4.24805-3.17383-6.64062-2.97852l-2.88086 0.244141-3.22266-3.17383 1.2207-5.61523c0.634766-2.83203-0.146484-5.0293-3.07617-7.95898l-10.9863-10.9375c-16.6992-16.6016-38.8672-16.2109-53.3203-1.75781Zm7.4707 1.85547c12.1582-8.88672 28.6133-7.37305 39.7461 3.75977l12.1582 12.0605c1.17188 1.17188 1.36719 2.09961 1.02539 3.80859l-1.61133 7.42188 7.51953 7.42188 4.93164-0.292969c1.26953-0.0488281 1.66016 0.0488281 2.63672 1.02539l2.88086 2.88086-12.207 12.207-2.88086-2.88086c-0.976562-0.976562-1.12305-1.36719-1.07422-2.68555l0.341797-4.88281-7.4707-7.42188-7.61719 1.26953c-1.61133 0.341797-2.34375 0.195312-3.56445-0.976562l-10.0098-10.0098c-1.26953-1.17188-1.41602-2.00195-0.634766-3.85742l4.39453-10.4492c-7.8125-7.27539-17.9688-10.4004-28.125-7.42188-0.78125 0.195312-1.07422-0.439453-0.439453-0.976562Z"/>
  </g>
  <text style="stroke:none;fill:black;font-family:sans-serif;font-size:13;font-weight:bold;" transform="matrix(1 0 0 1 1289 1953)">Exporting</text>
  <text style="stroke:none;fill:black;font-family:sans-serif;font-size:13;" transform="matrix(1 0 0 1 1289 1971)">Symbols should be outlined when exporting to ensure the</text>
  <text style="stroke:none;fill:black;font-family:sans-serif;font-size:13;" transform="matrix(1 0 0 1 1289 1989)">design is preserved when submitting to Xcode.</text>
  <text id="template-version" style="stroke:none;fill:black;font-family:sans-serif;font-size:13;text-anchor:end;" transform="matrix(1 0 0 1 3036 1933)">Template v.6.0</text>
  <text style="stroke:none;fill:black;font-family:sans-serif;font-size:13;text-anchor:end;" transform="matrix(1 0 0 1 3036 1951)">Requires Xcode 16 or greater</text>
  <text id="descriptive-name" style="stroke:none;fill:black;font-family:sans-serif;font-size:13;text-anchor:end;" transform="matrix(1 0 0 1 3036 1969)">Generated from square</text>
  <text style="stroke:none;fill:black;font-family:sans-serif;font-size:13;text-anchor:end;" transform="matrix(1 0 0 1 3036 1987)">Typeset at 100.0 points</text>
  <text style="stroke:none;fill:black;font-family:sans-serif;font-size:13;" transform="matrix(1 0 0 1 263 726)">Small</text>
  <text style="stroke:none;fill:black;font-family:sans-serif;font-size:13;" transform="matrix(1 0 0 1 263 1156)">Medium</text>
  <text style="stroke:none;fill:black;font-family:sans-serif;font-size:13;" transform="matrix(1 0 0 1 263 1586)">Large</text>
 </g>
 <g id="Guides">
  <g id="H-reference" style="fill:#27AAE1;stroke:none;" transform="matrix(1 0 0 1 339 696)">
   <path d="M0.993654 0L3.63775 0L29.3281-67.1323L30.0303-67.1323L30.0303-70.459L28.1226-70.459ZM11.6885-24.4799L46.9815-24.4799L46.2315-26.7285L12.4385-26.7285ZM55.1196 0L57.7637 0L30.6382-70.459L29.4326-70.459L29.4326-67.1323Z"/>
  </g>
  <line id="Baseline-S" style="fill:none;stroke:#27AAE1;opacity:1;stroke-width:0.5;" x1="263" x2="3036" y1="696" y2="696"/>
  <line id="Capline-S" style="fill:none;stroke:#27AAE1;opacity:1;stroke-width:0.5;" x1="263" x2="3036" y1="625.541" y2="625.541"/>
  <g id="H-reference" style="fill:#27AAE1;stroke:none;" transform="matrix(1 0 0 1 339 1126)">
   <path d="M0.993654 0L3.63775 0L29.3281-67.1323L30.0303-67.1323L30.0303-70.459L28.1226-70.459ZM11.6885-24.4799L46.9815-24.4799L46.2315-26.7285L12.4385-26.7285ZM55.1196 0L57.7637 0L30.6382-70.459L29.4326-70.459L29.4326-67.1323Z"/>
  </g>
  <line id="Baseline-M" style="fill:none;stroke:#27AAE1;opacity:1;stroke-width:0.5;" x1="263" x2="3036" y1="1126" y2="1126"/>
  <line id="Capline-M" style="fill:none;stroke:#27AAE1;opacity:1;stroke-width:0.5;" x1="263" x2="3036" y1="1055.54" y2="1055.54"/>
  <g id="H-reference" style="fill:#27AAE1;stroke:none;" transform="matrix(1 0 0 1 339 1556)">
   <path d="M0.993654 0L3.63775 0L29.3281-67.1323L30.0303-67.1323L30.0303-70.459L28.1226-70.459ZM11.6885-24.4799L46.9815-24.4799L46.2315-26.7285L12.4385-26.7285ZM55.1196 0L57.7637 0L30.6382-70.459L29.4326-70.459L29.4326-67.1323Z"/>
  </g>
  <line id="Baseline-L" style="fill:none;stroke:#27AAE1;opacity:1;stroke-width:0.5;" x1="263" x2="3036" y1="1556" y2="1556"/>
  <line id="Capline-L" style="fill:none;stroke:#27AAE1;opacity:1;stroke-width:0.5;" x1="263" x2="3036" y1="1485.54" y2="1485.54"/>
  <line id="right-margin-Black-S" style="fill:none;stroke:#00AEEF;stroke-width:0.5;opacity:1.0;" x1="2981.3" x2="2981.3" y1="600.785" y2="720.121"/>
  <line id="left-margin-Black-S" style="fill:none;stroke:#00AEEF;stroke-width:0.5;opacity:1.0;" x1="2885.5" x2="2885.5" y1="600.785" y2="720.121"/>
  <line id="right-margin-Regular-S" style="fill:none;stroke:#00AEEF;stroke-width:0.5;opacity:1.0;" x1="1495.18" x2="1495.18" y1="600.785" y2="720.121"/>
  <line id="left-margin-Regular-S" style="fill:none;stroke:#00AEEF;stroke-width:0.5;opacity:1.0;" x1="1404.51" x2="1404.51" y1="600.785" y2="720.121"/>
  <line id="right-margin-Ultralight-S" style="fill:none;stroke:#00AEEF;stroke-width:0.5;opacity:1.0;" x1="603.073" x2="603.073" y1="600.785" y2="720.121"/>
  <line id="left-margin-Ultralight-S" style="fill:none;stroke:#00AEEF;stroke-width:0.5;opacity:1.0;" x1="516.35" x2="516.35" y1="600.785" y2="720.121"/>
 </g>
 <g id="Symbols">
  <g id="Black-S"><path d="M2932.54692,658.77051c1.89909,0 2.88992,-1.38991 3.41286,-2.46331c-0.13762,-0.15138 -0.68808,-0.57798 -1.01835,-0.90826c-0.33028,0.59175 -1.12844,1.47248 -1.91285,1.47248c-1.40368,0 -2.11927,-2.02294 -0.44037,-3.66056c-0.06881,-0.02752 -0.59175,-0.24771 -1.10092,0.33028c0,-0.41285 0.13762,-0.70184 0.28899,-0.90826c-0.48165,0.1789 -1.34863,0.77065 -1.56881,1.08716c0.02752,-0.79817 0.22018,-1.03211 0.08257,-1.23854l-0.02752,-0.02752c0,0 -1.16973,0.77065 -1.27982,2.02294c0,0 0.15138,-0.22018 0.28899,-0.26147c0.08257,-0.04128 0.1789,0 0.08257,0.26147c-0.02752,0.08257 -0.79817,2.16056 0.70184,3.578c-0.08257,-0.22018 -0.26147,-1.04588 0.33028,-0.26147c-0.04128,0.01376 0.79817,0.97707 2.16056,0.97707zM2939.75795,655.86683c0,-0.55046 -0.67431,-0.60551 -0.77065,-0.61927c0.27523,0.5367 0.12385,1.03211 0.02752,1.23854c0.34404,-0.05505 0.74312,-0.22018 0.74312,-0.61927zM2941.17539,656.58243c0,-0.88074 -0.85321,-1.56881 -1.85781,-1.47248c1.10092,0.1789 0.77065,1.89909 -0.68808,1.56881c0.50918,-0.3578 0.44037,-1.36239 -0.1789,-1.72019c0.19266,0.57798 -0.41285,1.12844 -1.01835,0.63303c-0.33028,-0.26147 -1.10092,-0.90826 -1.45872,-1.18349c-0.33028,-0.28899 -0.75688,-0.13762 -0.90826,-0.24771c-0.1789,-0.15138 -0.06881,-0.52294 -0.30275,-0.68808c-0.22018,-0.11009 -0.41285,-0.04128 -0.66055,-0.13762c-0.22018,-0.08257 -0.37156,-0.26147 -0.3578,-0.48165c-0.34404,0.60551 0.46789,0.86698 0.61927,1.16973c0.13762,0.26147 -0.11009,0.66055 0.55046,1.16973c2.03671,1.59634 1.2523,1.10092 1.4312,2.49084c0.08257,0.59175 0.57798,0.92202 0.88074,1.01835c-0.28899,-0.26147 -0.39908,-0.88074 0,-1.27982c0,1.91285 2.64221,1.83028 3.17891,0.88074c-0.33028,0.15138 -0.96331,-0.02752 -1.23854,-0.26147c1.05964,0.13762 1.95414,-0.56422 2.00918,-1.45872zM2935.75335,654.05031c0.27523,0.11009 0.22018,0.09633 0.88074,0.61927c1.40368,-3.37157 2.98625,-2.16056 3.02753,-2.13304c0.30275,-0.26147 1.34863,-0.52294 1.89909,-0.37156c-0.33028,-0.37156 -1.03211,-0.85321 -1.83028,-0.85321c-0.64679,0 -1.01835,0.30275 -1.10092,0.1789c-0.11009,-0.19266 0.44037,-0.46789 0.44037,-0.46789c-0.74312,0.02752 -1.32111,0.92202 -1.54129,0.81193c-0.15138,-0.06881 0.19266,-0.50918 0.19266,-0.50918c-0.70184,0.39908 -1.27982,1.2523 -1.40368,1.789c0.63303,-0.79817 1.89909,-1.34863 2.71102,-1.23854c-1.44496,0.06881 -2.6835,1.33487 -3.27524,2.17432zM2969.12504,661.19254c-2.84863,0 -5.50461,0.1789 -6.92204,0.28899l1.01835,1.12844v10.62389l-1.01835,1.12844c1.4312,0.11009 4.25231,0.28899 7.10094,0.28899c5.7936,0 8.13306,-2.84863 8.13306,-6.72938c0,-4.03213 -3.19267,-6.72938 -8.31196,-6.72938zM2967.04705,671.59625v-7.33489c4.14222,-0.45413 6.44039,0.52294 6.44039,3.61928c0,3.52295 -2.94497,4.15598 -6.44039,3.71561zM2930.86801,650.44479c-0.13762,-0.46789 -0.02752,-0.94954 0.15138,-1.29358c0.13762,0.41285 0.3578,0.88074 1.03211,1.23854c-0.06881,-0.33028 -0.02752,-0.77065 0.06881,-1.10092c-0.19266,-0.74312 0.28899,-1.36239 0.88074,-1.36239c0.94954,0 1.16973,1.21101 0.64679,1.98166c0.28899,0.44037 0.75688,0.77065 1.05964,1.0734c0.44037,-0.50918 0.75688,-1.30734 0.75688,-1.89909c0,-1.12844 -0.75688,-2.18808 -2.29817,-2.27065c-2.7523,-0.12385 -2.77983,2.28441 -2.7523,2.60093c0.06881,0.7156 0.46789,1.0734 0.45413,1.03211zM2930.81297,651.27048c-0.06881,0.24771 -0.96331,0.50918 -1.40368,0.94954c0.66055,-0.13762 0.96331,-0.02752 1.0734,0.24771c0.06881,0.19266 -0.02752,0.46789 -0.06881,0.77065c0.22018,-0.24771 0.96331,-0.75688 1.51377,-0.85321c-0.13762,-0.04128 -0.46789,-0.11009 -0.59175,-0.11009c0.39908,-0.46789 1.27982,-0.61927 1.76147,-0.50918c-0.30275,-0.02752 -0.92202,0.15138 -1.16973,0.3578c0.22018,0.04128 0.41285,0.08257 0.59175,0.15138c-0.28899,0.11009 -0.66055,0.46789 -0.79817,0.83945c0.96331,-0.68808 1.80276,0.7156 0.96331,1.12844c0.11009,0.02752 0.37156,0 0.48165,-0.06881c-0.04128,0.15138 -0.26147,0.41285 -0.41285,0.46789c0.39908,0 0.96331,-0.26147 1.12844,-0.63303c0,0 -0.24771,0.08257 -0.3578,-0.02752c-0.11009,-0.11009 0.04128,-0.59175 0.04128,-0.59175c-0.31651,0.39908 -0.46789,-0.1789 -0.1789,-0.57798c-0.13762,-0.04128 -0.48165,-0.08257 -0.63303,-0.06881c0.44037,-0.15138 1.4312,-0.24771 1.54129,-0.04128c0.08257,0.15138 -0.13762,0.46789 -0.13762,0.46789c0.55046,-0.06881 1.14221,0.15138 0.92202,0.70184c0.39908,-0.19266 0.75688,-0.81193 0.66055,-1.4312c-0.04128,0.13762 -0.22018,0.33028 -0.39908,0.37156c0.02752,-0.19266 -0.13762,-0.30275 -0.26147,-0.3578c0.23395,-1.32111 -2.00918,-1.95414 -1.94037,-3.289c-0.13762,0.1789 -0.24771,0.68808 -0.11009,0.97707c0.37156,0.44037 1.19725,0.92202 1.38991,1.67891c-0.3578,-0.88074 -2.07799,-1.56881 -2.00918,-2.77983c-0.22018,0.22018 -0.3578,1.0734 -0.1789,1.51377c0.33028,0.19266 0.61927,0.52294 0.66055,0.83945c-0.30275,-0.70184 -1.56881,-0.83945 -1.91285,-1.67891c-0.08257,0.30275 -0.04128,0.68808 0.13762,0.92202c0,0 -0.30275,-0.11009 -0.96331,-0.08257c0.23395,0.08257 0.70184,0.48165 0.66055,0.7156zM2934.3772,652.28884c-0.37156,0 -0.48165,-0.28899 -0.57798,-0.59175c0.45413,0.1789 0.57798,0.59175 0.57798,0.59175zM2939.73043,652.79801l-0.13762,-0.08257c-0.15138,-0.13762 -0.39908,-0.19266 -0.64679,-0.19266c-0.39908,0 -0.79817,0.1789 -1.03211,0.46789c-0.11009,0.11009 -0.19266,0.24771 -0.28899,0.3578v2.16056c0.48165,0.3578 0.97707,-0.39908 0.41285,-0.99083c0.20642,0.04128 0.63303,0.37156 0.70184,0.44037c0,0 0.3578,-0.06881 0.68808,-0.06881c0.28899,0 0.5367,0.04128 0.77065,0.15138v-2.53212c-0.15138,0.06881 -0.30275,0.13762 -0.37156,0.19266zM2900.35872,667.63293c2.36698,-0.63303 2.22937,-2.47707 2.22937,-2.73854c0,-2.83487 -3.31653,-3.44038 -5.09176,-3.44038h-7.72021l1.14221,1.18349v4.05965h-1.55505l1.56881,2.00918v4.44497l-1.15597,1.18349c8.49086,0 10.156,0.20642 11.88995,-0.81193c0.92202,-0.55046 1.36239,-1.34863 1.36239,-2.42203c0,-0.70184 0.3578,-2.58717 -2.66973,-3.4679zM2894.67521,663.84851c2.7523,0 4.07341,-0.11009 4.07341,1.2523v0.41285c0,1.66514 -2.61469,1.21101 -4.07341,1.21101zM2894.67521,671.99533v-3.1101c1.67891,0 4.50002,-0.31651 4.50002,1.21101v0.61927h0.02752c0,1.54129 -1.72019,1.27982 -4.52754,1.27982zM2908.60187,669.33936l3.17891,0.02752v-0.02752l1.94037,-2.91744h-5.11929v-2.05047h7.21104l-1.94037,-2.88992v-0.02752l-10.11472,0.02752l1.01835,1.12844v10.61013l-1.01835,1.12844h11.17435l1.94037,-2.91744l-8.27067,0.02752zM2938.14786,661.06869c-10.16976,0 -10.66518,13.66519 -0.04128,13.66519c10.72022,0 10.19729,-13.66519 0.04128,-13.66519zM2938.10657,671.73387c-5.14681,0 -5.078,-7.61012 0.02752,-7.61012c5.06424,0.01376 5.33947,7.61012 -0.02752,7.61012zM2925.5423,670.59166l6.06883,-9.11013h-5.73855l0.83945,0.99083l-2.82111,5.11929h-0.04128l-2.88992,-5.11929l0.88074,-0.99083h-6.17892l6.06883,9.05508l0.02752,2.66973l-1.05964,1.12844h5.86241l-0.99083,-1.12844zM2921.63403,649.77048c0.22018,0.1789 0.39908,0.33028 0.39908,0.90826v5.33947c0,0.57798 -0.11009,0.72936 -0.37156,0.88074c-0.01376,0.01376 -1.03211,0.61927 -1.08716,0.63303h4.83029c1.37615,0 2.3945,-0.20642 3.578,-1.18349c-0.08257,-0.68808 0.02752,-1.30734 0.11009,-1.65138c0,-0.02752 -0.24771,0.19266 -0.37156,0.48165c0,-0.78441 0.22018,-2.11927 1.32111,-2.82111c-0.01376,0 -0.50918,-0.11009 -1.23854,0.15138c0.27523,-0.42661 1.37615,-1.08716 1.4312,-1.08716c-1.12844,-3.578 -5.22938,-3.15139 -4.43121,-3.15139c-4.25231,0 -4.48626,0.04128 -5.49085,-0.55046c0.01376,0.11009 0.06881,1.12844 1.32111,2.05047zM2924.59276,650.52736c0.63303,0 3.17891,-0.45413 3.17891,2.38074c0,2.84863 -2.53212,2.38074 -3.17891,2.38074zM2956.09288,661.48153l0.96331,1.14221v5.84865h-0.04128c-0.74312,-1.98166 -5.82112,-5.71103 -6.22021,-7.00461h-4.34864l1.01835,1.16973v10.58261l-0.99083,1.14221h5.36699l-1.01835,-1.12844v-6.52296h0.04128c0.50918,1.45872 6.12388,5.90369 6.67434,7.65141h2.9312v-11.72482l1.01835,-1.14221zM2941.40934,648.25671c-4.43121,0 -4.51378,0.02752 -5.49085,-0.55046c0.01376,0.09633 0.06881,1.14221 1.32111,2.05047c0.42661,0.27523 0.39908,0.59175 0.39908,1.30734c0.24771,-0.15138 0.52294,-0.30275 0.83945,-0.41285c-0.15138,0.15138 -0.37156,0.37156 -0.48165,0.61927c0.13762,-0.15138 1.03211,-0.70184 2.00918,-0.48165c-0.22018,0.04128 -0.55046,0.15138 -0.83945,0.39908c0.01376,0 0.28899,-0.15138 1.03211,-0.04128v-0.59175c0.64679,0 3.17891,-0.46789 3.17891,2.38074c0,2.82111 -2.54588,2.38074 -2.71102,2.38074c0.78441,0.60551 0.79817,1.65138 0.30275,2.24313h0.04128c4.59635,0 5.05048,-3.7569 5.05048,-4.67892c0,-0.52294 -0.15138,-4.40369 -4.65139,-4.62387z" className="SFSymbolsPreviewWireframe"/></g>
  <g id="Regular-S"><path d="M1448.99187,658.77051c1.89909,0 2.88992,-1.38991 3.41286,-2.46331c-0.13762,-0.15138 -0.68808,-0.57798 -1.01835,-0.90826c-0.33028,0.59175 -1.12844,1.47248 -1.91285,1.47248c-1.40368,0 -2.11927,-2.02294 -0.44037,-3.66056c-0.06881,-0.02752 -0.59175,-0.24771 -1.10092,0.33028c0,-0.41285 0.13762,-0.70184 0.28899,-0.90826c-0.48165,0.1789 -1.34863,0.77065 -1.56881,1.08716c0.02752,-0.79817 0.22018,-1.03211 0.08257,-1.23854l-0.02752,-0.02752c0,0 -1.16973,0.77065 -1.27982,2.02294c0,0 0.15138,-0.22018 0.28899,-0.26147c0.08257,-0.04128 0.1789,0 0.08257,0.26147c-0.02752,0.08257 -0.79817,2.16056 0.70184,3.578c-0.08257,-0.22018 -0.26147,-1.04588 0.33028,-0.26147c-0.04128,0.01376 0.79817,0.97707 2.16056,0.97707zM1456.2029,655.86683c0,-0.55046 -0.67431,-0.60551 -0.77065,-0.61927c0.27523,0.5367 0.12385,1.03211 0.02752,1.23854c0.34404,-0.05505 0.74312,-0.22018 0.74312,-0.61927zM1457.62034,656.58243c0,-0.88074 -0.85321,-1.56881 -1.85781,-1.47248c1.10092,0.1789 0.77065,1.89909 -0.68808,1.56881c0.50918,-0.3578 0.44037,-1.36239 -0.1789,-1.72019c0.19266,0.57798 -0.41285,1.12844 -1.01835,0.63303c-0.33028,-0.26147 -1.10092,-0.90826 -1.45872,-1.18349c-0.33028,-0.28899 -0.75688,-0.13762 -0.90826,-0.24771c-0.1789,-0.15138 -0.06881,-0.52294 -0.30275,-0.68808c-0.22018,-0.11009 -0.41285,-0.04128 -0.66055,-0.13762c-0.22018,-0.08257 -0.37156,-0.26147 -0.3578,-0.48165c-0.34404,0.60551 0.46789,0.86698 0.61927,1.16973c0.13762,0.26147 -0.11009,0.66055 0.55046,1.16973c2.03671,1.59634 1.2523,1.10092 1.4312,2.49084c0.08257,0.59175 0.57798,0.92202 0.88074,1.01835c-0.28899,-0.26147 -0.39908,-0.88074 0,-1.27982c0,1.91285 2.64221,1.83028 3.17891,0.88074c-0.33028,0.15138 -0.96331,-0.02752 -1.23854,-0.26147c1.05964,0.13762 1.95414,-0.56422 2.00918,-1.45872zM1452.1983,654.05031c0.27523,0.11009 0.22018,0.09633 0.88074,0.61927c1.40368,-3.37157 2.98625,-2.16056 3.02753,-2.13304c0.30275,-0.26147 1.34863,-0.52294 1.89909,-0.37156c-0.33028,-0.37156 -1.03211,-0.85321 -1.83028,-0.85321c-0.64679,0 -1.01835,0.30275 -1.10092,0.1789c-0.11009,-0.19266 0.44037,-0.46789 0.44037,-0.46789c-0.74312,0.02752 -1.32111,0.92202 -1.54129,0.81193c-0.15138,-0.06881 0.19266,-0.50918 0.19266,-0.50918c-0.70184,0.39908 -1.27982,1.2523 -1.40368,1.789c0.63303,-0.79817 1.89909,-1.34863 2.71102,-1.23854c-1.44496,0.06881 -2.6835,1.33487 -3.27524,2.17432zM1485.56999,661.19254c-2.84863,0 -5.50461,0.1789 -6.92204,0.28899l1.01835,1.12844v10.62389l-1.01835,1.12844c1.4312,0.11009 4.25231,0.28899 7.10094,0.28899c5.7936,0 8.13306,-2.84863 8.13306,-6.72938c0,-4.03213 -3.19267,-6.72938 -8.31196,-6.72938zM1483.492,671.59625v-7.33489c4.14222,-0.45413 6.44039,0.52294 6.44039,3.61928c0,3.52295 -2.94497,4.15598 -6.44039,3.71561zM1447.31296,650.44479c-0.13762,-0.46789 -0.02752,-0.94954 0.15138,-1.29358c0.13762,0.41285 0.3578,0.88074 1.03211,1.23854c-0.06881,-0.33028 -0.02752,-0.77065 0.06881,-1.10092c-0.19266,-0.74312 0.28899,-1.36239 0.88074,-1.36239c0.94954,0 1.16973,1.21101 0.64679,1.98166c0.28899,0.44037 0.75688,0.77065 1.05964,1.0734c0.44037,-0.50918 0.75688,-1.30734 0.75688,-1.89909c0,-1.12844 -0.75688,-2.18808 -2.29817,-2.27065c-2.7523,-0.12385 -2.77983,2.28441 -2.7523,2.60093c0.06881,0.7156 0.46789,1.0734 0.45413,1.03211zM1447.25792,651.27048c-0.06881,0.24771 -0.96331,0.50918 -1.40368,0.94954c0.66055,-0.13762 0.96331,-0.02752 1.0734,0.24771c0.06881,0.19266 -0.02752,0.46789 -0.06881,0.77065c0.22018,-0.24771 0.96331,-0.75688 1.51377,-0.85321c-0.13762,-0.04128 -0.46789,-0.11009 -0.59175,-0.11009c0.39908,-0.46789 1.27982,-0.61927 1.76147,-0.50918c-0.30275,-0.02752 -0.92202,0.15138 -1.16973,0.3578c0.22018,0.04128 0.41285,0.08257 0.59175,0.15138c-0.28899,0.11009 -0.66055,0.46789 -0.79817,0.83945c0.96331,-0.68808 1.80276,0.7156 0.96331,1.12844c0.11009,0.02752 0.37156,0 0.48165,-0.06881c-0.04128,0.15138 -0.26147,0.41285 -0.41285,0.46789c0.39908,0 0.96331,-0.26147 1.12844,-0.63303c0,0 -0.24771,0.08257 -0.3578,-0.02752c-0.11009,-0.11009 0.04128,-0.59175 0.04128,-0.59175c-0.31651,0.39908 -0.46789,-0.1789 -0.1789,-0.57798c-0.13762,-0.04128 -0.48165,-0.08257 -0.63303,-0.06881c0.44037,-0.15138 1.4312,-0.24771 1.54129,-0.04128c0.08257,0.15138 -0.13762,0.46789 -0.13762,0.46789c0.55046,-0.06881 1.14221,0.15138 0.92202,0.70184c0.39908,-0.19266 0.75688,-0.81193 0.66055,-1.4312c-0.04128,0.13762 -0.22018,0.33028 -0.39908,0.37156c0.02752,-0.19266 -0.13762,-0.30275 -0.26147,-0.3578c0.23395,-1.32111 -2.00918,-1.95414 -1.94037,-3.289c-0.13762,0.1789 -0.24771,0.68808 -0.11009,0.97707c0.37156,0.44037 1.19725,0.92202 1.38991,1.67891c-0.3578,-0.88074 -2.07799,-1.56881 -2.00918,-2.77983c-0.22018,0.22018 -0.3578,1.0734 -0.1789,1.51377c0.33028,0.19266 0.61927,0.52294 0.66055,0.83945c-0.30275,-0.70184 -1.56881,-0.83945 -1.91285,-1.67891c-0.08257,0.30275 -0.04128,0.68808 0.13762,0.92202c0,0 -0.30275,-0.11009 -0.96331,-0.08257c0.23395,0.08257 0.70184,0.48165 0.66055,0.7156zM1450.82215,652.28884c-0.37156,0 -0.48165,-0.28899 -0.57798,-0.59175c0.45413,0.1789 0.57798,0.59175 0.57798,0.59175zM1456.17538,652.79801l-0.13762,-0.08257c-0.15138,-0.13762 -0.39908,-0.19266 -0.64679,-0.19266c-0.39908,0 -0.79817,0.1789 -1.03211,0.46789c-0.11009,0.11009 -0.19266,0.24771 -0.28899,0.3578v2.16056c0.48165,0.3578 0.97707,-0.39908 0.41285,-0.99083c0.20642,0.04128 0.63303,0.37156 0.70184,0.44037c0,0 0.3578,-0.06881 0.68808,-0.06881c0.28899,0 0.5367,0.04128 0.77065,0.15138v-2.53212c-0.15138,0.06881 -0.30275,0.13762 -0.37156,0.19266zM1416.80367,667.63293c2.36698,-0.63303 2.22937,-2.47707 2.22937,-2.73854c0,-2.83487 -3.31653,-3.44038 -5.09176,-3.44038h-7.72021l1.14221,1.18349v4.05965h-1.55505l1.56881,2.00918v4.44497l-1.15597,1.18349c8.49086,0 10.156,0.20642 11.88995,-0.81193c0.92202,-0.55046 1.36239,-1.34863 1.36239,-2.42203c0,-0.70184 0.3578,-2.58717 -2.66973,-3.4679zM1411.12016,663.84851c2.7523,0 4.07341,-0.11009 4.07341,1.2523v0.41285c0,1.66514 -2.61469,1.21101 -4.07341,1.21101zM1411.12016,671.99533v-3.1101c1.67891,0 4.50002,-0.31651 4.50002,1.21101v0.61927h0.02752c0,1.54129 -1.72019,1.27982 -4.52754,1.27982zM1425.04682,669.33936l3.17891,0.02752v-0.02752l1.94037,-2.91744h-5.11929v-2.05047h7.21104l-1.94037,-2.88992v-0.02752l-10.11472,0.02752l1.01835,1.12844v10.61013l-1.01835,1.12844h11.17435l1.94037,-2.91744l-8.27067,0.02752zM1454.59281,661.06869c-10.16976,0 -10.66518,13.66519 -0.04128,13.66519c10.72022,0 10.19729,-13.66519 0.04128,-13.66519zM1454.55152,671.73387c-5.14681,0 -5.078,-7.61012 0.02752,-7.61012c5.06424,0.01376 5.33947,7.61012 -0.02752,7.61012zM1441.98725,670.59166l6.06883,-9.11013h-5.73855l0.83945,0.99083l-2.82111,5.11929h-0.04128l-2.88992,-5.11929l0.88074,-0.99083h-6.17892l6.06883,9.05508l0.02752,2.66973l-1.05964,1.12844h5.86241l-0.99083,-1.12844zM1438.07898,649.77048c0.22018,0.1789 0.39908,0.33028 0.39908,0.90826v5.33947c0,0.57798 -0.11009,0.72936 -0.37156,0.88074c-0.01376,0.01376 -1.03211,0.61927 -1.08716,0.63303h4.83029c1.37615,0 2.3945,-0.20642 3.578,-1.18349c-0.08257,-0.68808 0.02752,-1.30734 0.11009,-1.65138c0,-0.02752 -0.24771,0.19266 -0.37156,0.48165c0,-0.78441 0.22018,-2.11927 1.32111,-2.82111c-0.01376,0 -0.50918,-0.11009 -1.23854,0.15138c0.27523,-0.42661 1.37615,-1.08716 1.4312,-1.08716c-1.12844,-3.578 -5.22938,-3.15139 -4.43121,-3.15139c-4.25231,0 -4.48626,0.04128 -5.49085,-0.55046c0.01376,0.11009 0.06881,1.12844 1.32111,2.05047zM1441.03771,650.52736c0.63303,0 3.17891,-0.45413 3.17891,2.38074c0,2.84863 -2.53212,2.38074 -3.17891,2.38074zM1472.53783,661.48153l0.96331,1.14221v5.84865h-0.04128c-0.74312,-1.98166 -5.82112,-5.71103 -6.22021,-7.00461h-4.34864l1.01835,1.16973v10.58261l-0.99083,1.14221h5.36699l-1.01835,-1.12844v-6.52296h0.04128c0.50918,1.45872 6.12388,5.90369 6.67434,7.65141h2.9312v-11.72482l1.01835,-1.14221zM1457.85429,648.25671c-4.43121,0 -4.51378,0.02752 -5.49085,-0.55046c0.01376,0.09633 0.06881,1.14221 1.32111,2.05047c0.42661,0.27523 0.39908,0.59175 0.39908,1.30734c0.24771,-0.15138 0.52294,-0.30275 0.83945,-0.41285c-0.15138,0.15138 -0.37156,0.37156 -0.48165,0.61927c0.13762,-0.15138 1.03211,-0.70184 2.00918,-0.48165c-0.22018,0.04128 -0.55046,0.15138 -0.83945,0.39908c0.01376,0 0.28899,-0.15138 1.03211,-0.04128v-0.59175c0.64679,0 3.17891,-0.46789 3.17891,2.38074c0,2.82111 -2.54588,2.38074 -2.71102,2.38074c0.78441,0.60551 0.79817,1.65138 0.30275,2.24313h0.04128c4.59635,0 5.05048,-3.7569 5.05048,-4.67892c0,-0.52294 -0.15138,-4.40369 -4.65139,-4.62387z" className="SFSymbolsPreviewWireframe"/></g>
  <g id="Ultralight-S"><path d="M558.85828,658.77051c1.89909,0 2.88992,-1.38991 3.41286,-2.46331c-0.13762,-0.15138 -0.68808,-0.57798 -1.01835,-0.90826c-0.33028,0.59175 -1.12844,1.47248 -1.91285,1.47248c-1.40368,0 -2.11927,-2.02294 -0.44037,-3.66056c-0.06881,-0.02752 -0.59175,-0.24771 -1.10092,0.33028c0,-0.41285 0.13762,-0.70184 0.28899,-0.90826c-0.48165,0.1789 -1.34863,0.77065 -1.56881,1.08716c0.02752,-0.79817 0.22018,-1.03211 0.08257,-1.23854l-0.02752,-0.02752c0,0 -1.16973,0.77065 -1.27982,2.02294c0,0 0.15138,-0.22018 0.28899,-0.26147c0.08257,-0.04128 0.1789,0 0.08257,0.26147c-0.02752,0.08257 -0.79817,2.16056 0.70184,3.578c-0.08257,-0.22018 -0.26147,-1.04588 0.33028,-0.26147c-0.04128,0.01376 0.79817,0.97707 2.16056,0.97707zM566.06931,655.86683c0,-0.55046 -0.67431,-0.60551 -0.77065,-0.61927c0.27523,0.5367 0.12385,1.03211 0.02752,1.23854c0.34404,-0.05505 0.74312,-0.22018 0.74312,-0.61927zM567.48675,656.58243c0,-0.88074 -0.85321,-1.56881 -1.85781,-1.47248c1.10092,0.1789 0.77065,1.89909 -0.68808,1.56881c0.50918,-0.3578 0.44037,-1.36239 -0.1789,-1.72019c0.19266,0.57798 -0.41285,1.12844 -1.01835,0.63303c-0.33028,-0.26147 -1.10092,-0.90826 -1.45872,-1.18349c-0.33028,-0.28899 -0.75688,-0.13762 -0.90826,-0.24771c-0.1789,-0.15138 -0.06881,-0.52294 -0.30275,-0.68808c-0.22018,-0.11009 -0.41285,-0.04128 -0.66055,-0.13762c-0.22018,-0.08257 -0.37156,-0.26147 -0.3578,-0.48165c-0.34404,0.60551 0.46789,0.86698 0.61927,1.16973c0.13762,0.26147 -0.11009,0.66055 0.55046,1.16973c2.03671,1.59634 1.2523,1.10092 1.4312,2.49084c0.08257,0.59175 0.57798,0.92202 0.88074,1.01835c-0.28899,-0.26147 -0.39908,-0.88074 0,-1.27982c0,1.91285 2.64221,1.83028 3.17891,0.88074c-0.33028,0.15138 -0.96331,-0.02752 -1.23854,-0.26147c1.05964,0.13762 1.95414,-0.56422 2.00918,-1.45872zM562.06471,654.05031c0.27523,0.11009 0.22018,0.09633 0.88074,0.61927c1.40368,-3.37157 2.98625,-2.16056 3.02753,-2.13304c0.30275,-0.26147 1.34863,-0.52294 1.89909,-0.37156c-0.33028,-0.37156 -1.03211,-0.85321 -1.83028,-0.85321c-0.64679,0 -1.01835,0.30275 -1.10092,0.1789c-0.11009,-0.19266 0.44037,-0.46789 0.44037,-0.46789c-0.74312,0.02752 -1.32111,0.92202 -1.54129,0.81193c-0.15138,-0.06881 0.19266,-0.50918 0.19266,-0.50918c-0.70184,0.39908 -1.27982,1.2523 -1.40368,1.789c0.63303,-0.79817 1.89909,-1.34863 2.71102,-1.23854c-1.44496,0.06881 -2.6835,1.33487 -3.27524,2.17432zM595.4364,661.19254c-2.84863,0 -5.50461,0.1789 -6.92204,0.28899l1.01835,1.12844v10.62389l-1.01835,1.12844c1.4312,0.11009 4.25231,0.28899 7.10094,0.28899c5.7936,0 8.13306,-2.84863 8.13306,-6.72938c0,-4.03213 -3.19267,-6.72938 -8.31196,-6.72938zM593.35841,671.59625v-7.33489c4.14222,-0.45413 6.44039,0.52294 6.44039,3.61928c0,3.52295 -2.94497,4.15598 -6.44039,3.71561zM557.17937,650.44479c-0.13762,-0.46789 -0.02752,-0.94954 0.15138,-1.29358c0.13762,0.41285 0.3578,0.88074 1.03211,1.23854c-0.06881,-0.33028 -0.02752,-0.77065 0.06881,-1.10092c-0.19266,-0.74312 0.28899,-1.36239 0.88074,-1.36239c0.94954,0 1.16973,1.21101 0.64679,1.98166c0.28899,0.44037 0.75688,0.77065 1.05964,1.0734c0.44037,-0.50918 0.75688,-1.30734 0.75688,-1.89909c0,-1.12844 -0.75688,-2.18808 -2.29817,-2.27065c-2.7523,-0.12385 -2.77983,2.28441 -2.7523,2.60093c0.06881,0.7156 0.46789,1.0734 0.45413,1.03211zM557.12433,651.27048c-0.06881,0.24771 -0.96331,0.50918 -1.40368,0.94954c0.66055,-0.13762 0.96331,-0.02752 1.0734,0.24771c0.06881,0.19266 -0.02752,0.46789 -0.06881,0.77065c0.22018,-0.24771 0.96331,-0.75688 1.51377,-0.85321c-0.13762,-0.04128 -0.46789,-0.11009 -0.59175,-0.11009c0.39908,-0.46789 1.27982,-0.61927 1.76147,-0.50918c-0.30275,-0.02752 -0.92202,0.15138 -1.16973,0.3578c0.22018,0.04128 0.41285,0.08257 0.59175,0.15138c-0.28899,0.11009 -0.66055,0.46789 -0.79817,0.83945c0.96331,-0.68808 1.80276,0.7156 0.96331,1.12844c0.11009,0.02752 0.37156,0 0.48165,-0.06881c-0.04128,0.15138 -0.26147,0.41285 -0.41285,0.46789c0.39908,0 0.96331,-0.26147 1.12844,-0.63303c0,0 -0.24771,0.08257 -0.3578,-0.02752c-0.11009,-0.11009 0.04128,-0.59175 0.04128,-0.59175c-0.31651,0.39908 -0.46789,-0.1789 -0.1789,-0.57798c-0.13762,-0.04128 -0.48165,-0.08257 -0.63303,-0.06881c0.44037,-0.15138 1.4312,-0.24771 1.54129,-0.04128c0.08257,0.15138 -0.13762,0.46789 -0.13762,0.46789c0.55046,-0.06881 1.14221,0.15138 0.92202,0.70184c0.39908,-0.19266 0.75688,-0.81193 0.66055,-1.4312c-0.04128,0.13762 -0.22018,0.33028 -0.39908,0.37156c0.02752,-0.19266 -0.13762,-0.30275 -0.26147,-0.3578c0.23395,-1.32111 -2.00918,-1.95414 -1.94037,-3.289c-0.13762,0.1789 -0.24771,0.68808 -0.11009,0.97707c0.37156,0.44037 1.19725,0.92202 1.38991,1.67891c-0.3578,-0.88074 -2.07799,-1.56881 -2.00918,-2.77983c-0.22018,0.22018 -0.3578,1.0734 -0.1789,1.51377c0.33028,0.19266 0.61927,0.52294 0.66055,0.83945c-0.30275,-0.70184 -1.56881,-0.83945 -1.91285,-1.67891c-0.08257,0.30275 -0.04128,0.68808 0.13762,0.92202c0,0 -0.30275,-0.11009 -0.96331,-0.08257c0.23395,0.08257 0.70184,0.48165 0.66055,0.7156zM560.68856,652.28884c-0.37156,0 -0.48165,-0.28899 -0.57798,-0.59175c0.45413,0.1789 0.57798,0.59175 0.57798,0.59175zM566.04179,652.79801l-0.13762,-0.08257c-0.15138,-0.13762 -0.39908,-0.19266 -0.64679,-0.19266c-0.39908,0 -0.79817,0.1789 -1.03211,0.46789c-0.11009,0.11009 -0.19266,0.24771 -0.28899,0.3578v2.16056c0.48165,0.3578 0.97707,-0.39908 0.41285,-0.99083c0.20642,0.04128 0.63303,0.37156 0.70184,0.44037c0,0 0.3578,-0.06881 0.68808,-0.06881c0.28899,0 0.5367,0.04128 0.77065,0.15138v-2.53212c-0.15138,0.06881 -0.30275,0.13762 -0.37156,0.19266zM526.67008,667.63293c2.36698,-0.63303 2.22937,-2.47707 2.22937,-2.73854c0,-2.83487 -3.31653,-3.44038 -5.09176,-3.44038h-7.72021l1.14221,1.18349v4.05965h-1.55505l1.56881,2.00918v4.44497l-1.15597,1.18349c8.49086,0 10.156,0.20642 11.88995,-0.81193c0.92202,-0.55046 1.36239,-1.34863 1.36239,-2.42203c0,-0.70184 0.3578,-2.58717 -2.66973,-3.4679zM520.98657,663.84851c2.7523,0 4.07341,-0.11009 4.07341,1.2523v0.41285c0,1.66514 -2.61469,1.21101 -4.07341,1.21101zM520.98657,671.99533v-3.1101c1.67891,0 4.50002,-0.31651 4.50002,1.21101v0.61927h0.02752c0,1.54129 -1.72019,1.27982 -4.52754,1.27982zM534.91323,669.33936l3.17891,0.02752v-0.02752l1.94037,-2.91744h-5.11929v-2.05047h7.21104l-1.94037,-2.88992v-0.02752l-10.11472,0.02752l1.01835,1.12844v10.61013l-1.01835,1.12844h11.17435l1.94037,-2.91744l-8.27067,0.02752zM564.45922,661.06869c-10.16976,0 -10.66518,13.66519 -0.04128,13.66519c10.72022,0 10.19729,-13.66519 0.04128,-13.66519zM564.41793,671.73387c-5.14681,0 -5.078,-7.61012 0.02752,-7.61012c5.06424,0.01376 5.33947,7.61012 -0.02752,7.61012zM551.85366,670.59166l6.06883,-9.11013h-5.73855l0.83945,0.99083l-2.82111,5.11929h-0.04128l-2.88992,-5.11929l0.88074,-0.99083h-6.17892l6.06883,9.05508l0.02752,2.66973l-1.05964,1.12844h5.86241l-0.99083,-1.12844zM547.94539,649.77048c0.22018,0.1789 0.39908,0.33028 0.39908,0.90826v5.33947c0,0.57798 -0.11009,0.72936 -0.37156,0.88074c-0.01376,0.01376 -1.03211,0.61927 -1.08716,0.63303h4.83029c1.37615,0 2.3945,-0.20642 3.578,-1.18349c-0.08257,-0.68808 0.02752,-1.30734 0.11009,-1.65138c0,-0.02752 -0.24771,0.19266 -0.37156,0.48165c0,-0.78441 0.22018,-2.11927 1.32111,-2.82111c-0.01376,0 -0.50918,-0.11009 -1.23854,0.15138c0.27523,-0.42661 1.37615,-1.08716 1.4312,-1.08716c-1.12844,-3.578 -5.22938,-3.15139 -4.43121,-3.15139c-4.25231,0 -4.48626,0.04128 -5.49085,-0.55046c0.01376,0.11009 0.06881,1.12844 1.32111,2.05047zM550.90412,650.52736c0.63303,0 3.17891,-0.45413 3.17891,2.38074c0,2.84863 -2.53212,2.38074 -3.17891,2.38074zM582.40424,661.48153l0.96331,1.14221v5.84865h-0.04128c-0.74312,-1.98166 -5.82112,-5.71103 -6.22021,-7.00461h-4.34864l1.01835,1.16973v10.58261l-0.99083,1.14221h5.36699l-1.01835,-1.12844v-6.52296h0.04128c0.50918,1.45872 6.12388,5.90369 6.67434,7.65141h2.9312v-11.72482l1.01835,-1.14221zM567.7207,648.25671c-4.43121,0 -4.51378,0.02752 -5.49085,-0.55046c0.01376,0.09633 0.06881,1.14221 1.32111,2.05047c0.42661,0.27523 0.39908,0.59175 0.39908,1.30734c0.24771,-0.15138 0.52294,-0.30275 0.83945,-0.41285c-0.15138,0.15138 -0.37156,0.37156 -0.48165,0.61927c0.13762,-0.15138 1.03211,-0.70184 2.00918,-0.48165c-0.22018,0.04128 -0.55046,0.15138 -0.83945,0.39908c0.01376,0 0.28899,-0.15138 1.03211,-0.04128v-0.59175c0.64679,0 3.17891,-0.46789 3.17891,2.38074c0,2.82111 -2.54588,2.38074 -2.71102,2.38074c0.78441,0.60551 0.79817,1.65138 0.30275,2.24313h0.04128c4.59635,0 5.05048,-3.7569 5.05048,-4.67892c0,-0.52294 -0.15138,-4.40369 -4.65139,-4.62387z" className="SFSymbolsPreviewWireframe"/></g>
 </g>
</svg>