<?xml version="1.0" encoding="UTF-8"?><!--Generator: https://SymbolKit.app--><!DOCTYPE svg PUBLIC "-//W3C//DTD SVG 1.1//EN" "http://www.w3.org/Graphics/SVG/1.1/DTD/svg11.dtd"><svg xmlns="http://www.w3.org/2000/svg" xmlns:xlink="http://www.w3.org/1999/xlink" version="1.1" viewBox="0 0 3300 2200">
 <!--glyph: "100092", point size: 100.0, font version: "20.0d10e1", template writer version: "138.0.0"-->
 <style>.SFSymbolsPreviewWireframe {fill:none;opacity:1.0;stroke:black;stroke-width:0.5}
</style>
 <g id="Notes">
  <rect height="2200" id="artboard" style="fill:white;opacity:1" width="3300" x="0" y="0"/>
  <line style="fill:none;stroke:black;opacity:1;stroke-width:0.5;" x1="263" x2="3036" y1="292" y2="292"/>
  <text style="stroke:none;fill:black;font-family:sans-serif;font-size:13;font-weight:bold;" transform="matrix(1 0 0 1 263 322)">Weight/Scale Variations</text>
  <text style="stroke:none;fill:black;font-family:sans-serif;font-size:13;text-anchor:middle;" transform="matrix(1 0 0 1 559.711 322)">Ultralight</text>
  <text style="stroke:none;fill:black;font-family:sans-serif;font-size:13;text-anchor:middle;" transform="matrix(1 0 0 1 856.422 322)">Thin</text>
  <text style="stroke:none;fill:black;font-family:sans-serif;font-size:13;text-anchor:middle;" transform="matrix(1 0 0 1 1153.13 322)">Light</text>
  <text style="stroke:none;fill:black;font-family:sans-serif;font-size:13;text-anchor:middle;" transform="matrix(1 0 0 1 1449.84 322)">Regular</text>
  <text style="stroke:none;fill:black;font-family:sans-serif;font-size:13;text-anchor:middle;" transform="matrix(1 0 0 1 1746.56 322)">Medium</text>
  <text style="stroke:none;fill:black;font-family:sans-serif;font-size:13;text-anchor:middle;" transform="matrix(1 0 0 1 2043.27 322)">Semibold</text>
  <text style="stroke:none;fill:black;font-family:sans-serif;font-size:13;text-anchor:middle;" transform="matrix(1 0 0 1 2339.98 322)">Bold</text>
  <text style="stroke:none;fill:black;font-family:sans-serif;font-size:13;text-anchor:middle;" transform="matrix(1 0 0 1 2636.69 322)">Heavy</text>
  <text style="stroke:none;fill:black;font-family:sans-serif;font-size:13;text-anchor:middle;" transform="matrix(1 0 0 1 2933.4 322)">Black</text>
  <line style="fill:none;stroke:black;opacity:1;stroke-width:0.5;" x1="263" x2="3036" y1="1903" y2="1903"/>
  <g transform="matrix(0.2 0 0 0.2 263 1933)">
   <path d="m46.2402 4.15039c21.7773 0 39.4531-17.627 39.4531-39.4043s-17.6758-39.4043-39.4531-39.4043c-21.7285 0-39.4043 17.627-39.4043 39.4043s17.6758 39.4043 39.4043 39.4043Zm0-7.42188c-17.6758 0-31.9336-14.3066-31.9336-31.9824s14.2578-31.9824 31.9336-31.9824 31.9824 14.3066 31.9824 31.9824-14.3066 31.9824-31.9824 31.9824Zm-17.9688-31.9824c0 2.14844 1.51367 3.61328 3.75977 3.61328h10.498v10.5957c0 2.19727 1.46484 3.71094 3.61328 3.71094 2.24609 0 3.71094-1.51367 3.71094-3.71094v-10.5957h10.5957c2.19727 0 3.71094-1.46484 3.71094-3.61328 0-2.19727-1.51367-3.71094-3.71094-3.71094h-10.5957v-10.5469c0-2.24609-1.46484-3.75977-3.71094-3.75977-2.14844 0-3.61328 1.51367-3.61328 3.75977v10.5469h-10.498c-2.24609 0-3.75977 1.51367-3.75977 3.71094Z"/>
  </g>
  <g transform="matrix(0.2 0 0 0.2 281.506 1933)">
   <path d="m58.5449 14.5508c27.4902 0 49.8047-22.3145 49.8047-49.8047s-22.3145-49.8047-49.8047-49.8047-49.8047 22.3145-49.8047 49.8047 22.3145 49.8047 49.8047 49.8047Zm0-8.30078c-22.9492 0-41.5039-18.5547-41.5039-41.5039s18.5547-41.5039 41.5039-41.5039 41.5039 18.5547 41.5039 41.5039-18.5547 41.5039-41.5039 41.5039Zm-22.6562-41.5039c0 2.39258 1.66016 4.00391 4.15039 4.00391h14.3555v14.4043c0 2.44141 1.66016 4.15039 4.05273 4.15039 2.44141 0 4.15039-1.66016 4.15039-4.15039v-14.4043h14.4043c2.44141 0 4.15039-1.61133 4.15039-4.00391 0-2.44141-1.70898-4.15039-4.15039-4.15039h-14.4043v-14.3555c0-2.49023-1.70898-4.19922-4.15039-4.19922-2.39258 0-4.05273 1.70898-4.05273 4.19922v14.3555h-14.3555c-2.49023 0-4.15039 1.70898-4.15039 4.15039Z"/>
  </g>
  <g transform="matrix(0.2 0 0 0.2 304.924 1933)">
   <path d="m74.8535 28.3203c35.1074 0 63.623-28.4668 63.623-63.5742s-28.5156-63.623-63.623-63.623-63.5742 28.5156-63.5742 63.623 28.4668 63.5742 63.5742 63.5742Zm0-9.08203c-30.127 0-54.4922-24.3652-54.4922-54.4922s24.3652-54.4922 54.4922-54.4922 54.4922 24.3652 54.4922 54.4922-24.3652 54.4922-54.4922 54.4922Zm-28.8574-54.4922c0 2.58789 1.85547 4.39453 4.58984 4.39453h19.7266v19.7754c0 2.68555 1.85547 4.58984 4.44336 4.58984 2.68555 0 4.54102-1.85547 4.54102-4.58984v-19.7754h19.7754c2.68555 0 4.58984-1.80664 4.58984-4.39453 0-2.73438-1.85547-4.58984-4.58984-4.58984h-19.7754v-19.7266c0-2.73438-1.85547-4.63867-4.54102-4.63867-2.58789 0-4.44336 1.9043-4.44336 4.63867v19.7266h-19.7266c-2.73438 0-4.58984 1.85547-4.58984 4.58984Z"/>
  </g>
  <text style="stroke:none;fill:black;font-family:sans-serif;font-size:13;font-weight:bold;" transform="matrix(1 0 0 1 263 1953)">Design Variations</text>
  <text style="stroke:none;fill:black;font-family:sans-serif;font-size:13;" transform="matrix(1 0 0 1 263 1971)">Symbols are supported in up to nine weights and three scales.</text>
  <text style="stroke:none;fill:black;font-family:sans-serif;font-size:13;" transform="matrix(1 0 0 1 263 1989)">For optimal layout with text and other symbols, vertically align</text>
  <text style="stroke:none;fill:black;font-family:sans-serif;font-size:13;" transform="matrix(1 0 0 1 263 2007)">symbols with the adjacent text.</text>
  <line style="fill:none;stroke:#00AEEF;stroke-width:0.5;opacity:1.0;" x1="776" x2="776" y1="1919" y2="1933"/>
  <g transform="matrix(0.2 0 0 0.2 776 1933)">
   <path d="m16.5527 0.78125c2.58789 0 3.85742-0.976562 4.78516-3.71094l6.29883-17.2363h28.8086l6.29883 17.2363c0.927734 2.73438 2.19727 3.71094 4.73633 3.71094 2.58789 0 4.24805-1.5625 4.24805-4.00391 0-0.830078-0.146484-1.61133-0.537109-2.63672l-22.9004-60.9863c-1.12305-2.97852-3.125-4.49219-6.25-4.49219-3.02734 0-5.07812 1.46484-6.15234 4.44336l-22.9004 61.084c-0.390625 1.02539-0.537109 1.80664-0.537109 2.63672 0 2.44141 1.5625 3.95508 4.10156 3.95508Zm13.4766-28.3691 11.8652-32.8613h0.244141l11.8652 32.8613Z"/>
  </g>
  <line style="fill:none;stroke:#00AEEF;stroke-width:0.5;opacity:1.0;" x1="792.836" x2="792.836" y1="1919" y2="1933"/>
  <text style="stroke:none;fill:black;font-family:sans-serif;font-size:13;font-weight:bold;" transform="matrix(1 0 0 1 776 1953)">Margins</text>
  <text style="stroke:none;fill:black;font-family:sans-serif;font-size:13;" transform="matrix(1 0 0 1 776 1971)">Leading and trailing margins on the left and right side of each symbol</text>
  <text style="stroke:none;fill:black;font-family:sans-serif;font-size:13;" transform="matrix(1 0 0 1 776 1989)">can be adjusted by modifying the x-location of the margin guidelines.</text>
  <text style="stroke:none;fill:black;font-family:sans-serif;font-size:13;" transform="matrix(1 0 0 1 776 2007)">Modifications are automatically applied proportionally to all</text>
  <text style="stroke:none;fill:black;font-family:sans-serif;font-size:13;" transform="matrix(1 0 0 1 776 2025)">scales and weights.</text>
  <g transform="matrix(0.2 0 0 0.2 1289 1933)">
   <path d="m14.209 9.32617 8.49609 8.54492c4.29688 4.3457 9.22852 4.05273 13.8672-1.07422l53.4668-58.9355-4.83398-4.88281-53.0762 58.3984c-1.75781 2.00195-3.41797 2.49023-5.76172 0.146484l-5.85938-5.81055c-2.34375-2.29492-1.80664-4.00391 0.195312-5.81055l57.373-54.0039-4.88281-4.83398-57.959 54.4434c-4.93164 4.58984-5.32227 9.47266-1.02539 13.8184Zm32.0801-90.9668c-2.09961 2.05078-2.24609 4.93164-1.07422 6.88477 1.17188 1.80664 3.4668 2.97852 6.68945 2.14844 7.32422-1.70898 14.9414-2.00195 22.0703 2.68555l-2.92969 7.27539c-1.70898 4.15039-0.830078 7.08008 1.85547 9.81445l11.4746 11.5723c2.44141 2.44141 4.49219 2.53906 7.32422 2.05078l5.32227-0.976562 3.32031 3.36914-0.195312 2.7832c-0.195312 2.49023 0.439453 4.39453 2.88086 6.78711l3.80859 3.71094c2.39258 2.39258 5.46875 2.53906 7.8125 0.195312l14.5508-14.5996c2.34375-2.34375 2.24609-5.32227-0.146484-7.71484l-3.85742-3.80859c-2.39258-2.39258-4.24805-3.17383-6.64062-2.97852l-2.88086 0.244141-3.22266-3.17383 1.2207-5.61523c0.634766-2.83203-0.146484-5.0293-3.07617-7.95898l-10.9863-10.9375c-16.6992-16.6016-38.8672-16.2109-53.3203-1.75781Zm7.4707 1.85547c12.1582-8.88672 28.6133-7.37305 39.7461 3.75977l12.1582 12.0605c1.17188 1.17188 1.36719 2.09961 1.02539 3.80859l-1.61133 7.42188 7.51953 7.42188 4.93164-0.292969c1.26953-0.0488281 1.66016 0.0488281 2.63672 1.02539l2.88086 2.88086-12.207 12.207-2.88086-2.88086c-0.976562-0.976562-1.12305-1.36719-1.07422-2.68555l0.341797-4.88281-7.4707-7.42188-7.61719 1.26953c-1.61133 0.341797-2.34375 0.195312-3.56445-0.976562l-10.0098-10.0098c-1.26953-1.17188-1.41602-2.00195-0.634766-3.85742l4.39453-10.4492c-7.8125-7.27539-17.9688-10.4004-28.125-7.42188-0.78125 0.195312-1.07422-0.439453-0.439453-0.976562Z"/>
  </g>
  <text style="stroke:none;fill:black;font-family:sans-serif;font-size:13;font-weight:bold;" transform="matrix(1 0 0 1 1289 1953)">Exporting</text>
  <text style="stroke:none;fill:black;font-family:sans-serif;font-size:13;" transform="matrix(1 0 0 1 1289 1971)">Symbols should be outlined when exporting to ensure the</text>
  <text style="stroke:none;fill:black;font-family:sans-serif;font-size:13;" transform="matrix(1 0 0 1 1289 1989)">design is preserved when submitting to Xcode.</text>
  <text id="template-version" style="stroke:none;fill:black;font-family:sans-serif;font-size:13;text-anchor:end;" transform="matrix(1 0 0 1 3036 1933)">Template v.6.0</text>
  <text style="stroke:none;fill:black;font-family:sans-serif;font-size:13;text-anchor:end;" transform="matrix(1 0 0 1 3036 1951)">Requires Xcode 16 or greater</text>
  <text id="descriptive-name" style="stroke:none;fill:black;font-family:sans-serif;font-size:13;text-anchor:end;" transform="matrix(1 0 0 1 3036 1969)">Generated from square</text>
  <text style="stroke:none;fill:black;font-family:sans-serif;font-size:13;text-anchor:end;" transform="matrix(1 0 0 1 3036 1987)">Typeset at 100.0 points</text>
  <text style="stroke:none;fill:black;font-family:sans-serif;font-size:13;" transform="matrix(1 0 0 1 263 726)">Small</text>
  <text style="stroke:none;fill:black;font-family:sans-serif;font-size:13;" transform="matrix(1 0 0 1 263 1156)">Medium</text>
  <text style="stroke:none;fill:black;font-family:sans-serif;font-size:13;" transform="matrix(1 0 0 1 263 1586)">Large</text>
 </g>
 <g id="Guides">
  <g id="H-reference" style="fill:#27AAE1;stroke:none;" transform="matrix(1 0 0 1 339 696)">
   <path d="M0.993654 0L3.63775 0L29.3281-67.1323L30.0303-67.1323L30.0303-70.459L28.1226-70.459ZM11.6885-24.4799L46.9815-24.4799L46.2315-26.7285L12.4385-26.7285ZM55.1196 0L57.7637 0L30.6382-70.459L29.4326-70.459L29.4326-67.1323Z"/>
  </g>
  <line id="Baseline-S" style="fill:none;stroke:#27AAE1;opacity:1;stroke-width:0.5;" x1="263" x2="3036" y1="696" y2="696"/>
  <line id="Capline-S" style="fill:none;stroke:#27AAE1;opacity:1;stroke-width:0.5;" x1="263" x2="3036" y1="625.541" y2="625.541"/>
  <g id="H-reference" style="fill:#27AAE1;stroke:none;" transform="matrix(1 0 0 1 339 1126)">
   <path d="M0.993654 0L3.63775 0L29.3281-67.1323L30.0303-67.1323L30.0303-70.459L28.1226-70.459ZM11.6885-24.4799L46.9815-24.4799L46.2315-26.7285L12.4385-26.7285ZM55.1196 0L57.7637 0L30.6382-70.459L29.4326-70.459L29.4326-67.1323Z"/>
  </g>
  <line id="Baseline-M" style="fill:none;stroke:#27AAE1;opacity:1;stroke-width:0.5;" x1="263" x2="3036" y1="1126" y2="1126"/>
  <line id="Capline-M" style="fill:none;stroke:#27AAE1;opacity:1;stroke-width:0.5;" x1="263" x2="3036" y1="1055.54" y2="1055.54"/>
  <g id="H-reference" style="fill:#27AAE1;stroke:none;" transform="matrix(1 0 0 1 339 1556)">
   <path d="M0.993654 0L3.63775 0L29.3281-67.1323L30.0303-67.1323L30.0303-70.459L28.1226-70.459ZM11.6885-24.4799L46.9815-24.4799L46.2315-26.7285L12.4385-26.7285ZM55.1196 0L57.7637 0L30.6382-70.459L29.4326-70.459L29.4326-67.1323Z"/>
  </g>
  <line id="Baseline-L" style="fill:none;stroke:#27AAE1;opacity:1;stroke-width:0.5;" x1="263" x2="3036" y1="1556" y2="1556"/>
  <line id="Capline-L" style="fill:none;stroke:#27AAE1;opacity:1;stroke-width:0.5;" x1="263" x2="3036" y1="1485.54" y2="1485.54"/>
  <line id="right-margin-Black-S" style="fill:none;stroke:#00AEEF;stroke-width:0.5;opacity:1.0;" x1="2981.3" x2="2981.3" y1="600.785" y2="720.121"/>
  <line id="left-margin-Black-S" style="fill:none;stroke:#00AEEF;stroke-width:0.5;opacity:1.0;" x1="2885.5" x2="2885.5" y1="600.785" y2="720.121"/>
  <line id="right-margin-Regular-S" style="fill:none;stroke:#00AEEF;stroke-width:0.5;opacity:1.0;" x1="1495.18" x2="1495.18" y1="600.785" y2="720.121"/>
  <line id="left-margin-Regular-S" style="fill:none;stroke:#00AEEF;stroke-width:0.5;opacity:1.0;" x1="1404.51" x2="1404.51" y1="600.785" y2="720.121"/>
  <line id="right-margin-Ultralight-S" style="fill:none;stroke:#00AEEF;stroke-width:0.5;opacity:1.0;" x1="603.073" x2="603.073" y1="600.785" y2="720.121"/>
  <line id="left-margin-Ultralight-S" style="fill:none;stroke:#00AEEF;stroke-width:0.5;opacity:1.0;" x1="516.35" x2="516.35" y1="600.785" y2="720.121"/>
 </g>
 <g id="Symbols">
  <g id="Black-S"><path d="M2915.40694,651.61222c-0.15138,1.37615 0.7156,2.62845 0.7156,2.62845c0.09633,-1.03211 0.30275,-1.76147 0.55046,-2.28441c0.05505,1.41744 0.44037,3.23396 1.76147,4.69268c0.94954,1.04588 4.8991,3.20643 7.55507,0.83945c0.13762,0.33028 0.28899,0.72936 0.41285,1.16973c0.39908,1.41744 -0.37156,3.48166 -0.37156,3.48166c0,0 2.07799,-2.35322 1.91285,-4.47249c1.48624,-0.06881 2.94497,-1.15597 2.90368,-2.6835c0,0 -2.60093,1.4312 -4.88534,-1.21101c-1.33487,-1.54129 -5.62846,-5.77984 -11.43582,-4.37616c0.59175,0.13762 1.22478,0.33028 1.85781,0.56422h-0.01376c-0.57798,0.27523 -0.8945,0.97707 -0.96331,1.65138zM2919.30145,651.36451c2.6835,1.51377 5.14681,3.53671 6.17892,5.09176c-0.78441,0.45413 -2.98625,1.4312 -5.22938,-0.23395c-1.41744,-1.04588 -1.34863,-3.60552 -0.94954,-4.85782zM2938.85657,657.66728c-0.16514,2.13304 1.91285,4.47249 1.91285,4.47249c0,0 -0.77065,-2.06423 -0.37156,-3.48166c0.12385,-0.44037 0.27523,-0.82569 0.41285,-1.16973c2.65597,2.38074 6.60553,0.20642 7.54131,-0.83945c1.32111,-1.45872 1.69267,-3.27524 1.76147,-4.69268c0.24771,0.52294 0.46789,1.2523 0.55046,2.28441c0,0 0.88074,-1.2523 0.7156,-2.62845c-0.08257,-0.68808 -0.39908,-1.37615 -0.96331,-1.62386h-0.01376c0.63303,-0.24771 1.26606,-0.44037 1.85781,-0.56422c-5.82112,-1.40368 -10.10096,2.83487 -11.43582,4.37616c-2.29817,2.64221 -4.88534,1.21101 -4.88534,1.21101c-0.02752,1.50001 1.4312,2.60093 2.91744,2.65597zM2947.48505,651.36451c0.41285,1.2523 0.46789,3.81194 -0.96331,4.87158c-2.24313,1.66514 -4.43121,0.68808 -5.21562,0.22018c1.03211,-1.56881 3.49543,-3.578 6.17892,-5.09176zM2928.98956,683.15362h-4.04589c-0.75688,0 -1.12844,0.22018 -1.30734,0.39908c-0.26147,0.27523 -0.30275,0.64679 -0.12385,1.11468c0.48165,1.2523 1.56881,2.27065 1.88533,2.55964c0.42661,0.37156 1.03211,0.59175 1.62386,0.59175c0.60551,0 1.14221,-0.23395 1.51377,-0.63303c1.03211,-1.12844 1.63762,-2.35322 1.789,-2.72478c0.08257,-0.20642 0.1789,-0.61927 -0.12385,-0.93578c-0.24771,-0.24771 -0.64679,-0.37156 -1.21101,-0.37156zM2955.02636,669.22696c-0.33028,2.46331 -1.789,4.65139 -3.38533,6.01378c-0.42661,-3.12387 -0.50918,-7.63764 -0.50918,-8.58719c0,-2.02294 1.30734,-3.37157 1.67891,-3.59176c0.34404,-0.20642 0.74312,-0.41285 1.14221,-0.63303c2.47707,-1.32111 5.55965,-2.97249 5.55965,-6.01378c0,-2.22937 -1.27982,-3.19267 -2.11927,-3.8257c-0.11009,-0.08257 -0.20642,-0.15138 -0.30275,-0.23395c-0.28899,-0.23395 -0.50918,-0.41285 -0.59175,-0.60551c-0.60551,-1.34863 -0.49541,-4.70644 -0.23395,-5.17433c0.08257,-0.08257 2.29817,-2.87616 1.62386,-5.39452c-0.27523,-1.01835 -0.94954,-1.83028 -1.94037,-2.33946c-0.72936,-0.37156 -1.63762,-0.57798 -2.6835,-0.61927c-0.01376,-0.27523 -0.06881,-0.5367 -0.12385,-0.81193c-0.08257,-0.3578 -0.15138,-0.72936 -0.12385,-1.11468c0.05505,-0.64679 0.11009,-1.23854 0.30275,-1.55505c1.15597,-1.83028 3.96332,-2.42203 3.99084,-2.42203l1.69267,-0.33028l-1.11468,-1.30734c-0.01376,-0.02752 -2.38074,-2.40827 -6.37158,-2.40827c-1.08716,0 -2.20184,0.1789 -3.31653,0.5367c-3.33029,1.0734 -5.90369,4.19726 -6.79819,5.40828c-0.42661,-0.13762 -0.86698,-0.26147 -1.32111,-0.37156c-0.57798,-2.17432 1.23854,-5.29819 1.23854,-5.29819c0,0 -1.87157,-0.41285 -4.63763,2.09175c-0.3578,-0.8945 -1.11468,-2.82111 -0.24771,-5.11929c-4.05965,1.4312 -5.078,3.61928 -5.38075,5.60094c-1.04588,-0.74312 -0.92202,-3.17891 -0.99083,-3.79818c-1.03211,0.12385 -4.01836,3.01377 -3.88075,6.64681c-0.27523,0.06881 -0.5367,0.15138 -0.81193,0.23395c-0.8945,-1.21101 -3.45414,-4.33488 -6.79819,-5.40828c-1.08716,-0.30275 -2.20184,-0.48165 -3.289,-0.48165c-3.99084,0 -6.34406,2.38074 -6.37158,2.40827l-1.11468,1.29358l1.69267,0.33028c0.02752,0 2.83487,0.59175 3.99084,2.42203c0.19266,0.30275 0.24771,0.90826 0.30275,1.55505c0.02752,0.38532 -0.05505,0.75688 -0.12385,1.11468c-0.05505,0.26147 -0.11009,0.5367 -0.12385,0.81193c-1.05964,0.04128 -1.95414,0.24771 -2.6835,0.61927c-0.99083,0.50918 -1.66514,1.32111 -1.94037,2.33946c-0.68808,2.5046 1.54129,5.29819 1.62386,5.39452c0.26147,0.46789 0.37156,3.8257 -0.23395,5.17433c-0.08257,0.19266 -0.30275,0.37156 -0.59175,0.60551c-0.09633,0.06881 -0.19266,0.15138 -0.30275,0.23395c-0.83945,0.63303 -2.11927,1.6101 -2.11927,3.8257c0,3.0413 3.08258,4.69268 5.55965,6.01378c0.41285,0.22018 0.79817,0.42661 1.14221,0.63303c0.37156,0.22018 1.67891,1.56881 1.67891,3.59176c0,0.94954 -0.08257,5.46332 -0.50918,8.58719c-1.59634,-1.36239 -3.05506,-3.56423 -3.38533,-6.02755c0,0 -4.01836,3.1101 -2.83487,9.74316c0.7156,4.05965 3.19267,6.34406 6.46791,7.52755c1.21101,2.62845 4.04589,6.28901 9.2615,6.82571c1.98166,1.62386 4.73396,2.6835 8.75233,2.6835h0.02752c4.0046,0 6.75691,-1.05964 8.75233,-2.6835c5.21562,-0.5367 8.05049,-4.19726 9.2615,-6.82571c3.27524,-1.19725 5.73855,-3.4679 6.46791,-7.52755c1.12844,-6.66058 -2.90368,-9.75692 -2.90368,-9.75692zM2949.0401,630.74975c0.77065,-0.24771 1.59634,-0.37156 2.43579,-0.37156c1.51377,0 2.73854,0.41285 3.3991,0.68808c-0.42661,0.19266 -0.88074,0.44037 -1.33487,0.72936c-0.33028,-0.05505 -0.77065,-0.11009 -1.26606,-0.11009c-1.44496,0 -2.82111,0.42661 -3.94956,1.22478c-1.69267,1.19725 -2.47707,2.3257 -2.84863,3.08258c-0.30275,-0.1789 -0.61927,-0.34404 -0.97707,-0.50918c-0.22018,-0.11009 -0.42661,-0.20642 -0.64679,-0.30275c0.83945,-1.2523 2.73854,-3.6468 5.18809,-4.43121zM2951.93002,633.25435c-0.11009,0.13762 -0.22018,0.28899 -0.31651,0.44037c-0.45413,0.7156 -0.5367,1.59634 -0.60551,2.44955c-0.06881,0.88074 -0.15138,1.72019 -0.60551,2.33946c-0.57798,0.11009 -1.11468,0.23395 -1.58257,0.37156c-0.31651,-0.42661 -0.77065,-0.96331 -1.44496,-1.54129c0.19266,-0.66055 0.75688,-2.2156 1.85781,-3.09634c0.77065,-0.59175 1.67891,-0.92202 2.69726,-0.96331zM2913.24638,631.79563c-0.45413,-0.30275 -0.90826,-0.55046 -1.33487,-0.72936c0.66055,-0.27523 1.88533,-0.68808 3.3991,-0.68808c0.83945,0 1.65138,0.12385 2.43579,0.37156c2.44955,0.79817 4.34864,3.19267 5.18809,4.41745c-0.22018,0.09633 -0.44037,0.19266 -0.66055,0.30275c-0.34404,0.16514 -0.67431,0.34404 -0.97707,0.50918c-0.3578,-0.74312 -1.14221,-1.88533 -2.84863,-3.08258c-1.14221,-0.79817 -2.5046,-1.22478 -3.96332,-1.22478c-0.46789,0.01376 -0.90826,0.06881 -1.23854,0.12385zM2919.39778,637.314c-0.67431,0.57798 -1.14221,1.10092 -1.44496,1.54129c-0.46789,-0.12385 -1.00459,-0.26147 -1.58257,-0.37156c-0.45413,-0.60551 -0.52294,-1.44496 -0.59175,-2.3257c-0.06881,-0.85321 -0.15138,-1.73395 -0.60551,-2.44955c-0.09633,-0.15138 -0.20642,-0.30275 -0.31651,-0.44037c1.01835,0.04128 1.92661,0.3578 2.6835,0.96331c1.10092,0.86698 1.66514,2.42203 1.85781,3.08258zM2914.96657,661.32785c-0.37156,-0.22018 -0.77065,-0.42661 -1.15597,-0.63303c-2.05047,-1.10092 -4.15598,-2.24313 -4.15598,-4.19726c0,-1.52753 0.59175,-2.00918 1.22478,-2.5046l0.06881,-0.05505c0.09633,-0.08257 0.19266,-0.16514 0.30275,-0.24771c-0.12385,0.99083 -0.26147,1.83028 -0.37156,2.05047c0,0 1.66514,-2.06423 2.16056,-6.09635c0.19266,-1.58257 -0.15138,-4.7202 -0.70184,-5.91745c0.02752,0.67431 0,1.34863 -0.04128,1.98166c-0.05505,-0.11009 -0.11009,-0.22018 -0.1789,-0.30275c-0.44037,-0.55046 -1.62386,-2.40827 -1.29358,-3.66056c0.12385,-0.48165 0.42661,-0.82569 0.92202,-1.0734c0.52294,-0.26147 1.21101,-0.39908 2.07799,-0.39908c1.69267,0 3.56423,0.50918 4.52754,0.82569c3.45414,1.10092 7.62388,4.25231 8.82113,5.18809c0.02752,0.02752 0.05505,0.04128 0.05505,0.04128l0.77065,0.5367l-0.48165,-0.79817c-0.02752,-0.04128 -2.62845,-4.32112 -7.32113,-6.39911c0.27523,-0.39908 1.01835,-1.11468 2.97249,-2.07799c2.94497,-1.44496 6.39911,-2.17432 10.22481,-2.17432c3.83946,0 7.27984,0.72936 10.22481,2.17432c1.95414,0.94954 2.69726,1.67891 2.97249,2.07799c-4.67892,2.07799 -7.27984,6.35782 -7.30737,6.39911l-0.48165,0.79817l0.77065,-0.5367c0,0 0.02752,-0.01376 0.05505,-0.04128c1.19725,-0.93578 5.36699,-4.10093 8.82113,-5.18809c0.96331,-0.30275 2.83487,-0.82569 4.52754,-0.82569c0.86698,0 1.55505,0.13762 2.07799,0.39908c0.48165,0.24771 0.78441,0.60551 0.92202,1.0734c0.34404,1.2523 -0.83945,3.1101 -1.29358,3.66056c-0.06881,0.08257 -0.12385,0.1789 -0.1789,0.30275c-0.04128,-0.63303 -0.06881,-1.30734 -0.04128,-1.98166c-0.55046,1.21101 -0.8945,4.33488 -0.70184,5.91745c0.49541,4.03213 2.16056,6.09635 2.16056,6.09635c-0.11009,-0.22018 -0.24771,-1.05964 -0.37156,-2.05047c0.09633,0.08257 0.20642,0.16514 0.30275,0.24771l0.06881,0.05505c0.63303,0.50918 1.22478,0.97707 1.22478,2.5046c0,1.95414 -2.11927,3.09634 -4.15598,4.19726c-0.39908,0.20642 -0.78441,0.42661 -1.15597,0.63303c-1.19725,0.68808 -2.47707,2.29817 -2.62845,4.70644c-0.12385,2.00918 0.12385,6.867 0.46789,10.44499c-1.70643,0.66055 -3.67433,0.88074 -5.46332,0.93578c-0.27523,-0.56422 -0.5367,-1.16973 -0.75688,-1.80276c-0.09633,-0.27523 -2.69726,-7.03214 -3.63304,-8.55967c0.75688,5.36699 2.40827,10.14224 3.23396,12.33032c-0.48165,-0.06881 -1.00459,-0.09633 -1.6101,-0.09633h-16.10098c-0.60551,0 -1.14221,0.04128 -1.6101,0.09633c0.82569,-2.18808 2.49084,-6.96333 3.23396,-12.33032c-0.93578,1.54129 -3.53671,8.2982 -3.63304,8.55967c-0.22018,0.63303 -0.48165,1.23854 -0.75688,1.80276c-1.789,-0.05505 -3.74313,-0.27523 -5.46332,-0.93578c0.34404,-3.578 0.59175,-8.42205 0.46789,-10.44499c-0.12385,-2.3945 -1.41744,-4.01836 -2.61469,-4.70644zM2911.76014,681.24077c-1.66514,-2.7523 -1.19725,-7.44498 -0.50918,-8.13306c1.50001,4.73396 6.49544,6.09635 10.23857,6.24773c-0.37156,0.57798 -0.7156,1.04588 -0.96331,1.37615l-0.19266,0.19266c-0.99083,1.0734 -1.18349,2.54588 -0.56422,4.37616c-3.12387,-0.01376 -6.37158,-1.34863 -8.0092,-4.05965zM2918.04916,687.22703c0.82569,0.15138 1.67891,0.26147 2.55964,0.33028c0.48165,1.10092 1.01835,2.18808 1.69267,3.17891c-1.98166,-0.81193 -3.35781,-2.20184 -4.25231,-3.50919zM2933.39325,694.12155c-8.33948,-0.01376 -10.77527,-6.30278 -11.68353,-8.9037c-0.50918,-1.44496 -0.46789,-2.5046 0.12385,-3.17891c0.39908,-0.45413 1.30734,-0.99083 3.38533,-0.99083h16.34869c2.07799,0 3.00001,0.5367 3.38533,0.99083c0.57798,0.66055 0.61927,1.73395 0.12385,3.17891c-0.90826,2.58717 -3.34405,8.88994 -11.68353,8.9037zM2944.48504,690.73622c0.67431,-0.99083 1.21101,-2.07799 1.69267,-3.17891c0.88074,-0.06881 1.73395,-0.1789 2.55964,-0.33028c-0.8945,1.30734 -2.27065,2.69726 -4.25231,3.50919zM2955.02636,681.24077c-1.65138,2.71102 -4.8991,4.03213 -7.99544,4.08717c0.61927,-1.83028 0.42661,-3.31653 -0.56422,-4.37616c-0.05505,-0.06881 -0.12385,-0.13762 -0.19266,-0.20642c-0.24771,-0.33028 -0.59175,-0.79817 -0.96331,-1.37615c3.74313,-0.16514 8.73857,-1.51377 10.23857,-6.24773c0.68808,0.68808 1.15597,5.38075 -0.52294,8.1193zM2933.37949,651.39203h0.02752c1.74771,-0.01376 3.74313,-2.44955 3.74313,-2.44955c-1.36239,0.82569 -2.58717,1.11468 -3.7569,1.14221c-1.16973,-0.02752 -2.3945,-0.31651 -3.7569,-1.14221c0,0 1.99542,2.42203 3.74313,2.44955zM2941.87035,683.13986h-4.04589c-0.57798,0 -0.99083,0.12385 -1.22478,0.37156c-0.30275,0.31651 -0.20642,0.7156 -0.12385,0.92202c0.13762,0.3578 0.75688,1.55505 1.789,2.65597c0.37156,0.39908 0.90826,0.61927 1.51377,0.61927c0.60551,0 1.19725,-0.22018 1.62386,-0.57798c0.31651,-0.27523 1.40368,-1.26606 1.88533,-2.49084c0.1789,-0.45413 0.13762,-0.82569 -0.12385,-1.08716c-0.1789,-0.1789 -0.55046,-0.39908 -1.29358,-0.41285z" className="SFSymbolsPreviewWireframe"/></g>
  <g id="Regular-S"><path d="M1431.85189,651.61222c-0.15138,1.37615 0.7156,2.62845 0.7156,2.62845c0.09633,-1.03211 0.30275,-1.76147 0.55046,-2.28441c0.05505,1.41744 0.44037,3.23396 1.76147,4.69268c0.94954,1.04588 4.8991,3.20643 7.55507,0.83945c0.13762,0.33028 0.28899,0.72936 0.41285,1.16973c0.39908,1.41744 -0.37156,3.48166 -0.37156,3.48166c0,0 2.07799,-2.35322 1.91285,-4.47249c1.48624,-0.06881 2.94497,-1.15597 2.90368,-2.6835c0,0 -2.60093,1.4312 -4.88534,-1.21101c-1.33487,-1.54129 -5.62846,-5.77984 -11.43582,-4.37616c0.59175,0.13762 1.22478,0.33028 1.85781,0.56422h-0.01376c-0.57798,0.27523 -0.8945,0.97707 -0.96331,1.65138zM1435.7464,651.36451c2.6835,1.51377 5.14681,3.53671 6.17892,5.09176c-0.78441,0.45413 -2.98625,1.4312 -5.22938,-0.23395c-1.41744,-1.04588 -1.34863,-3.60552 -0.94954,-4.85782zM1455.30152,657.66728c-0.16514,2.13304 1.91285,4.47249 1.91285,4.47249c0,0 -0.77065,-2.06423 -0.37156,-3.48166c0.12385,-0.44037 0.27523,-0.82569 0.41285,-1.16973c2.65597,2.38074 6.60553,0.20642 7.54131,-0.83945c1.32111,-1.45872 1.69267,-3.27524 1.76147,-4.69268c0.24771,0.52294 0.46789,1.2523 0.55046,2.28441c0,0 0.88074,-1.2523 0.7156,-2.62845c-0.08257,-0.68808 -0.39908,-1.37615 -0.96331,-1.62386h-0.01376c0.63303,-0.24771 1.26606,-0.44037 1.85781,-0.56422c-5.82112,-1.40368 -10.10096,2.83487 -11.43582,4.37616c-2.29817,2.64221 -4.88534,1.21101 -4.88534,1.21101c-0.02752,1.50001 1.4312,2.60093 2.91744,2.65597zM1463.93,651.36451c0.41285,1.2523 0.46789,3.81194 -0.96331,4.87158c-2.24313,1.66514 -4.43121,0.68808 -5.21562,0.22018c1.03211,-1.56881 3.49543,-3.578 6.17892,-5.09176zM1445.43451,683.15362h-4.04589c-0.75688,0 -1.12844,0.22018 -1.30734,0.39908c-0.26147,0.27523 -0.30275,0.64679 -0.12385,1.11468c0.48165,1.2523 1.56881,2.27065 1.88533,2.55964c0.42661,0.37156 1.03211,0.59175 1.62386,0.59175c0.60551,0 1.14221,-0.23395 1.51377,-0.63303c1.03211,-1.12844 1.63762,-2.35322 1.789,-2.72478c0.08257,-0.20642 0.1789,-0.61927 -0.12385,-0.93578c-0.24771,-0.24771 -0.64679,-0.37156 -1.21101,-0.37156zM1471.47131,669.22696c-0.33028,2.46331 -1.789,4.65139 -3.38533,6.01378c-0.42661,-3.12387 -0.50918,-7.63764 -0.50918,-8.58719c0,-2.02294 1.30734,-3.37157 1.67891,-3.59176c0.34404,-0.20642 0.74312,-0.41285 1.14221,-0.63303c2.47707,-1.32111 5.55965,-2.97249 5.55965,-6.01378c0,-2.22937 -1.27982,-3.19267 -2.11927,-3.8257c-0.11009,-0.08257 -0.20642,-0.15138 -0.30275,-0.23395c-0.28899,-0.23395 -0.50918,-0.41285 -0.59175,-0.60551c-0.60551,-1.34863 -0.49541,-4.70644 -0.23395,-5.17433c0.08257,-0.08257 2.29817,-2.87616 1.62386,-5.39452c-0.27523,-1.01835 -0.94954,-1.83028 -1.94037,-2.33946c-0.72936,-0.37156 -1.63762,-0.57798 -2.6835,-0.61927c-0.01376,-0.27523 -0.06881,-0.5367 -0.12385,-0.81193c-0.08257,-0.3578 -0.15138,-0.72936 -0.12385,-1.11468c0.05505,-0.64679 0.11009,-1.23854 0.30275,-1.55505c1.15597,-1.83028 3.96332,-2.42203 3.99084,-2.42203l1.69267,-0.33028l-1.11468,-1.30734c-0.01376,-0.02752 -2.38074,-2.40827 -6.37158,-2.40827c-1.08716,0 -2.20184,0.1789 -3.31653,0.5367c-3.33029,1.0734 -5.90369,4.19726 -6.79819,5.40828c-0.42661,-0.13762 -0.86698,-0.26147 -1.32111,-0.37156c-0.57798,-2.17432 1.23854,-5.29819 1.23854,-5.29819c0,0 -1.87157,-0.41285 -4.63763,2.09175c-0.3578,-0.8945 -1.11468,-2.82111 -0.24771,-5.11929c-4.05965,1.4312 -5.078,3.61928 -5.38075,5.60094c-1.04588,-0.74312 -0.92202,-3.17891 -0.99083,-3.79818c-1.03211,0.12385 -4.01836,3.01377 -3.88075,6.64681c-0.27523,0.06881 -0.5367,0.15138 -0.81193,0.23395c-0.8945,-1.21101 -3.45414,-4.33488 -6.79819,-5.40828c-1.08716,-0.30275 -2.20184,-0.48165 -3.289,-0.48165c-3.99084,0 -6.34406,2.38074 -6.37158,2.40827l-1.11468,1.29358l1.69267,0.33028c0.02752,0 2.83487,0.59175 3.99084,2.42203c0.19266,0.30275 0.24771,0.90826 0.30275,1.55505c0.02752,0.38532 -0.05505,0.75688 -0.12385,1.11468c-0.05505,0.26147 -0.11009,0.5367 -0.12385,0.81193c-1.05964,0.04128 -1.95414,0.24771 -2.6835,0.61927c-0.99083,0.50918 -1.66514,1.32111 -1.94037,2.33946c-0.68808,2.5046 1.54129,5.29819 1.62386,5.39452c0.26147,0.46789 0.37156,3.8257 -0.23395,5.17433c-0.08257,0.19266 -0.30275,0.37156 -0.59175,0.60551c-0.09633,0.06881 -0.19266,0.15138 -0.30275,0.23395c-0.83945,0.63303 -2.11927,1.6101 -2.11927,3.8257c0,3.0413 3.08258,4.69268 5.55965,6.01378c0.41285,0.22018 0.79817,0.42661 1.14221,0.63303c0.37156,0.22018 1.67891,1.56881 1.67891,3.59176c0,0.94954 -0.08257,5.46332 -0.50918,8.58719c-1.59634,-1.36239 -3.05506,-3.56423 -3.38533,-6.02755c0,0 -4.01836,3.1101 -2.83487,9.74316c0.7156,4.05965 3.19267,6.34406 6.46791,7.52755c1.21101,2.62845 4.04589,6.28901 9.2615,6.82571c1.98166,1.62386 4.73396,2.6835 8.75233,2.6835h0.02752c4.0046,0 6.75691,-1.05964 8.75233,-2.6835c5.21562,-0.5367 8.05049,-4.19726 9.2615,-6.82571c3.27524,-1.19725 5.73855,-3.4679 6.46791,-7.52755c1.12844,-6.66058 -2.90368,-9.75692 -2.90368,-9.75692zM1465.48505,630.74975c0.77065,-0.24771 1.59634,-0.37156 2.43579,-0.37156c1.51377,0 2.73854,0.41285 3.3991,0.68808c-0.42661,0.19266 -0.88074,0.44037 -1.33487,0.72936c-0.33028,-0.05505 -0.77065,-0.11009 -1.26606,-0.11009c-1.44496,0 -2.82111,0.42661 -3.94956,1.22478c-1.69267,1.19725 -2.47707,2.3257 -2.84863,3.08258c-0.30275,-0.1789 -0.61927,-0.34404 -0.97707,-0.50918c-0.22018,-0.11009 -0.42661,-0.20642 -0.64679,-0.30275c0.83945,-1.2523 2.73854,-3.6468 5.18809,-4.43121zM1468.37497,633.25435c-0.11009,0.13762 -0.22018,0.28899 -0.31651,0.44037c-0.45413,0.7156 -0.5367,1.59634 -0.60551,2.44955c-0.06881,0.88074 -0.15138,1.72019 -0.60551,2.33946c-0.57798,0.11009 -1.11468,0.23395 -1.58257,0.37156c-0.31651,-0.42661 -0.77065,-0.96331 -1.44496,-1.54129c0.19266,-0.66055 0.75688,-2.2156 1.85781,-3.09634c0.77065,-0.59175 1.67891,-0.92202 2.69726,-0.96331zM1429.69134,631.79563c-0.45413,-0.30275 -0.90826,-0.55046 -1.33487,-0.72936c0.66055,-0.27523 1.88533,-0.68808 3.3991,-0.68808c0.83945,0 1.65138,0.12385 2.43579,0.37156c2.44955,0.79817 4.34864,3.19267 5.18809,4.41745c-0.22018,0.09633 -0.44037,0.19266 -0.66055,0.30275c-0.34404,0.16514 -0.67431,0.34404 -0.97707,0.50918c-0.3578,-0.74312 -1.14221,-1.88533 -2.84863,-3.08258c-1.14221,-0.79817 -2.5046,-1.22478 -3.96332,-1.22478c-0.46789,0.01376 -0.90826,0.06881 -1.23854,0.12385zM1435.84273,637.314c-0.67431,0.57798 -1.14221,1.10092 -1.44496,1.54129c-0.46789,-0.12385 -1.00459,-0.26147 -1.58257,-0.37156c-0.45413,-0.60551 -0.52294,-1.44496 -0.59175,-2.3257c-0.06881,-0.85321 -0.15138,-1.73395 -0.60551,-2.44955c-0.09633,-0.15138 -0.20642,-0.30275 -0.31651,-0.44037c1.01835,0.04128 1.92661,0.3578 2.6835,0.96331c1.10092,0.86698 1.66514,2.42203 1.85781,3.08258zM1431.41153,661.32785c-0.37156,-0.22018 -0.77065,-0.42661 -1.15597,-0.63303c-2.05047,-1.10092 -4.15598,-2.24313 -4.15598,-4.19726c0,-1.52753 0.59175,-2.00918 1.22478,-2.5046l0.06881,-0.05505c0.09633,-0.08257 0.19266,-0.16514 0.30275,-0.24771c-0.12385,0.99083 -0.26147,1.83028 -0.37156,2.05047c0,0 1.66514,-2.06423 2.16056,-6.09635c0.19266,-1.58257 -0.15138,-4.7202 -0.70184,-5.91745c0.02752,0.67431 0,1.34863 -0.04128,1.98166c-0.05505,-0.11009 -0.11009,-0.22018 -0.1789,-0.30275c-0.44037,-0.55046 -1.62386,-2.40827 -1.29358,-3.66056c0.12385,-0.48165 0.42661,-0.82569 0.92202,-1.0734c0.52294,-0.26147 1.21101,-0.39908 2.07799,-0.39908c1.69267,0 3.56423,0.50918 4.52754,0.82569c3.45414,1.10092 7.62388,4.25231 8.82113,5.18809c0.02752,0.02752 0.05505,0.04128 0.05505,0.04128l0.77065,0.5367l-0.48165,-0.79817c-0.02752,-0.04128 -2.62845,-4.32112 -7.32113,-6.39911c0.27523,-0.39908 1.01835,-1.11468 2.97249,-2.07799c2.94497,-1.44496 6.39911,-2.17432 10.22481,-2.17432c3.83946,0 7.27984,0.72936 10.22481,2.17432c1.95414,0.94954 2.69726,1.67891 2.97249,2.07799c-4.67892,2.07799 -7.27984,6.35782 -7.30737,6.39911l-0.48165,0.79817l0.77065,-0.5367c0,0 0.02752,-0.01376 0.05505,-0.04128c1.19725,-0.93578 5.36699,-4.10093 8.82113,-5.18809c0.96331,-0.30275 2.83487,-0.82569 4.52754,-0.82569c0.86698,0 1.55505,0.13762 2.07799,0.39908c0.48165,0.24771 0.78441,0.60551 0.92202,1.0734c0.34404,1.2523 -0.83945,3.1101 -1.29358,3.66056c-0.06881,0.08257 -0.12385,0.1789 -0.1789,0.30275c-0.04128,-0.63303 -0.06881,-1.30734 -0.04128,-1.98166c-0.55046,1.21101 -0.8945,4.33488 -0.70184,5.91745c0.49541,4.03213 2.16056,6.09635 2.16056,6.09635c-0.11009,-0.22018 -0.24771,-1.05964 -0.37156,-2.05047c0.09633,0.08257 0.20642,0.16514 0.30275,0.24771l0.06881,0.05505c0.63303,0.50918 1.22478,0.97707 1.22478,2.5046c0,1.95414 -2.11927,3.09634 -4.15598,4.19726c-0.39908,0.20642 -0.78441,0.42661 -1.15597,0.63303c-1.19725,0.68808 -2.47707,2.29817 -2.62845,4.70644c-0.12385,2.00918 0.12385,6.867 0.46789,10.44499c-1.70643,0.66055 -3.67433,0.88074 -5.46332,0.93578c-0.27523,-0.56422 -0.5367,-1.16973 -0.75688,-1.80276c-0.09633,-0.27523 -2.69726,-7.03214 -3.63304,-8.55967c0.75688,5.36699 2.40827,10.14224 3.23396,12.33032c-0.48165,-0.06881 -1.00459,-0.09633 -1.6101,-0.09633h-16.10098c-0.60551,0 -1.14221,0.04128 -1.6101,0.09633c0.82569,-2.18808 2.49084,-6.96333 3.23396,-12.33032c-0.93578,1.54129 -3.53671,8.2982 -3.63304,8.55967c-0.22018,0.63303 -0.48165,1.23854 -0.75688,1.80276c-1.789,-0.05505 -3.74313,-0.27523 -5.46332,-0.93578c0.34404,-3.578 0.59175,-8.42205 0.46789,-10.44499c-0.12385,-2.3945 -1.41744,-4.01836 -2.61469,-4.70644zM1428.20509,681.24077c-1.66514,-2.7523 -1.19725,-7.44498 -0.50918,-8.13306c1.50001,4.73396 6.49544,6.09635 10.23857,6.24773c-0.37156,0.57798 -0.7156,1.04588 -0.96331,1.37615l-0.19266,0.19266c-0.99083,1.0734 -1.18349,2.54588 -0.56422,4.37616c-3.12387,-0.01376 -6.37158,-1.34863 -8.0092,-4.05965zM1434.49411,687.22703c0.82569,0.15138 1.67891,0.26147 2.55964,0.33028c0.48165,1.10092 1.01835,2.18808 1.69267,3.17891c-1.98166,-0.81193 -3.35781,-2.20184 -4.25231,-3.50919zM1449.8382,694.12155c-8.33948,-0.01376 -10.77527,-6.30278 -11.68353,-8.9037c-0.50918,-1.44496 -0.46789,-2.5046 0.12385,-3.17891c0.39908,-0.45413 1.30734,-0.99083 3.38533,-0.99083h16.34869c2.07799,0 3.00001,0.5367 3.38533,0.99083c0.57798,0.66055 0.61927,1.73395 0.12385,3.17891c-0.90826,2.58717 -3.34405,8.88994 -11.68353,8.9037zM1460.92999,690.73622c0.67431,-0.99083 1.21101,-2.07799 1.69267,-3.17891c0.88074,-0.06881 1.73395,-0.1789 2.55964,-0.33028c-0.8945,1.30734 -2.27065,2.69726 -4.25231,3.50919zM1471.47131,681.24077c-1.65138,2.71102 -4.8991,4.03213 -7.99544,4.08717c0.61927,-1.83028 0.42661,-3.31653 -0.56422,-4.37616c-0.05505,-0.06881 -0.12385,-0.13762 -0.19266,-0.20642c-0.24771,-0.33028 -0.59175,-0.79817 -0.96331,-1.37615c3.74313,-0.16514 8.73857,-1.51377 10.23857,-6.24773c0.68808,0.68808 1.15597,5.38075 -0.52294,8.1193zM1449.82444,651.39203h0.02752c1.74771,-0.01376 3.74313,-2.44955 3.74313,-2.44955c-1.36239,0.82569 -2.58717,1.11468 -3.7569,1.14221c-1.16973,-0.02752 -2.3945,-0.31651 -3.7569,-1.14221c0,0 1.99542,2.42203 3.74313,2.44955zM1458.3153,683.13986h-4.04589c-0.57798,0 -0.99083,0.12385 -1.22478,0.37156c-0.30275,0.31651 -0.20642,0.7156 -0.12385,0.92202c0.13762,0.3578 0.75688,1.55505 1.789,2.65597c0.37156,0.39908 0.90826,0.61927 1.51377,0.61927c0.60551,0 1.19725,-0.22018 1.62386,-0.57798c0.31651,-0.27523 1.40368,-1.26606 1.88533,-2.49084c0.1789,-0.45413 0.13762,-0.82569 -0.12385,-1.08716c-0.1789,-0.1789 -0.55046,-0.39908 -1.29358,-0.41285z" className="SFSymbolsPreviewWireframe"/></g>
  <g id="Ultralight-S"><path d="M541.7183,651.61222c-0.15138,1.37615 0.7156,2.62845 0.7156,2.62845c0.09633,-1.03211 0.30275,-1.76147 0.55046,-2.28441c0.05505,1.41744 0.44037,3.23396 1.76147,4.69268c0.94954,1.04588 4.8991,3.20643 7.55507,0.83945c0.13762,0.33028 0.28899,0.72936 0.41285,1.16973c0.39908,1.41744 -0.37156,3.48166 -0.37156,3.48166c0,0 2.07799,-2.35322 1.91285,-4.47249c1.48624,-0.06881 2.94497,-1.15597 2.90368,-2.6835c0,0 -2.60093,1.4312 -4.88534,-1.21101c-1.33487,-1.54129 -5.62846,-5.77984 -11.43582,-4.37616c0.59175,0.13762 1.22478,0.33028 1.85781,0.56422h-0.01376c-0.57798,0.27523 -0.8945,0.97707 -0.96331,1.65138zM545.61281,651.36451c2.6835,1.51377 5.14681,3.53671 6.17892,5.09176c-0.78441,0.45413 -2.98625,1.4312 -5.22938,-0.23395c-1.41744,-1.04588 -1.34863,-3.60552 -0.94954,-4.85782zM565.16793,657.66728c-0.16514,2.13304 1.91285,4.47249 1.91285,4.47249c0,0 -0.77065,-2.06423 -0.37156,-3.48166c0.12385,-0.44037 0.27523,-0.82569 0.41285,-1.16973c2.65597,2.38074 6.60553,0.20642 7.54131,-0.83945c1.32111,-1.45872 1.69267,-3.27524 1.76147,-4.69268c0.24771,0.52294 0.46789,1.2523 0.55046,2.28441c0,0 0.88074,-1.2523 0.7156,-2.62845c-0.08257,-0.68808 -0.39908,-1.37615 -0.96331,-1.62386h-0.01376c0.63303,-0.24771 1.26606,-0.44037 1.85781,-0.56422c-5.82112,-1.40368 -10.10096,2.83487 -11.43582,4.37616c-2.29817,2.64221 -4.88534,1.21101 -4.88534,1.21101c-0.02752,1.50001 1.4312,2.60093 2.91744,2.65597zM573.79641,651.36451c0.41285,1.2523 0.46789,3.81194 -0.96331,4.87158c-2.24313,1.66514 -4.43121,0.68808 -5.21562,0.22018c1.03211,-1.56881 3.49543,-3.578 6.17892,-5.09176zM555.30092,683.15362h-4.04589c-0.75688,0 -1.12844,0.22018 -1.30734,0.39908c-0.26147,0.27523 -0.30275,0.64679 -0.12385,1.11468c0.48165,1.2523 1.56881,2.27065 1.88533,2.55964c0.42661,0.37156 1.03211,0.59175 1.62386,0.59175c0.60551,0 1.14221,-0.23395 1.51377,-0.63303c1.03211,-1.12844 1.63762,-2.35322 1.789,-2.72478c0.08257,-0.20642 0.1789,-0.61927 -0.12385,-0.93578c-0.24771,-0.24771 -0.64679,-0.37156 -1.21101,-0.37156zM581.33772,669.22696c-0.33028,2.46331 -1.789,4.65139 -3.38533,6.01378c-0.42661,-3.12387 -0.50918,-7.63764 -0.50918,-8.58719c0,-2.02294 1.30734,-3.37157 1.67891,-3.59176c0.34404,-0.20642 0.74312,-0.41285 1.14221,-0.63303c2.47707,-1.32111 5.55965,-2.97249 5.55965,-6.01378c0,-2.22937 -1.27982,-3.19267 -2.11927,-3.8257c-0.11009,-0.08257 -0.20642,-0.15138 -0.30275,-0.23395c-0.28899,-0.23395 -0.50918,-0.41285 -0.59175,-0.60551c-0.60551,-1.34863 -0.49541,-4.70644 -0.23395,-5.17433c0.08257,-0.08257 2.29817,-2.87616 1.62386,-5.39452c-0.27523,-1.01835 -0.94954,-1.83028 -1.94037,-2.33946c-0.72936,-0.37156 -1.63762,-0.57798 -2.6835,-0.61927c-0.01376,-0.27523 -0.06881,-0.5367 -0.12385,-0.81193c-0.08257,-0.3578 -0.15138,-0.72936 -0.12385,-1.11468c0.05505,-0.64679 0.11009,-1.23854 0.30275,-1.55505c1.15597,-1.83028 3.96332,-2.42203 3.99084,-2.42203l1.69267,-0.33028l-1.11468,-1.30734c-0.01376,-0.02752 -2.38074,-2.40827 -6.37158,-2.40827c-1.08716,0 -2.20184,0.1789 -3.31653,0.5367c-3.33029,1.0734 -5.90369,4.19726 -6.79819,5.40828c-0.42661,-0.13762 -0.86698,-0.26147 -1.32111,-0.37156c-0.57798,-2.17432 1.23854,-5.29819 1.23854,-5.29819c0,0 -1.87157,-0.41285 -4.63763,2.09175c-0.3578,-0.8945 -1.11468,-2.82111 -0.24771,-5.11929c-4.05965,1.4312 -5.078,3.61928 -5.38075,5.60094c-1.04588,-0.74312 -0.92202,-3.17891 -0.99083,-3.79818c-1.03211,0.12385 -4.01836,3.01377 -3.88075,6.64681c-0.27523,0.06881 -0.5367,0.15138 -0.81193,0.23395c-0.8945,-1.21101 -3.45414,-4.33488 -6.79819,-5.40828c-1.08716,-0.30275 -2.20184,-0.48165 -3.289,-0.48165c-3.99084,0 -6.34406,2.38074 -6.37158,2.40827l-1.11468,1.29358l1.69267,0.33028c0.02752,0 2.83487,0.59175 3.99084,2.42203c0.19266,0.30275 0.24771,0.90826 0.30275,1.55505c0.02752,0.38532 -0.05505,0.75688 -0.12385,1.11468c-0.05505,0.26147 -0.11009,0.5367 -0.12385,0.81193c-1.05964,0.04128 -1.95414,0.24771 -2.6835,0.61927c-0.99083,0.50918 -1.66514,1.32111 -1.94037,2.33946c-0.68808,2.5046 1.54129,5.29819 1.62386,5.39452c0.26147,0.46789 0.37156,3.8257 -0.23395,5.17433c-0.08257,0.19266 -0.30275,0.37156 -0.59175,0.60551c-0.09633,0.06881 -0.19266,0.15138 -0.30275,0.23395c-0.83945,0.63303 -2.11927,1.6101 -2.11927,3.8257c0,3.0413 3.08258,4.69268 5.55965,6.01378c0.41285,0.22018 0.79817,0.42661 1.14221,0.63303c0.37156,0.22018 1.67891,1.56881 1.67891,3.59176c0,0.94954 -0.08257,5.46332 -0.50918,8.58719c-1.59634,-1.36239 -3.05506,-3.56423 -3.38533,-6.02755c0,0 -4.01836,3.1101 -2.83487,9.74316c0.7156,4.05965 3.19267,6.34406 6.46791,7.52755c1.21101,2.62845 4.04589,6.28901 9.2615,6.82571c1.98166,1.62386 4.73396,2.6835 8.75233,2.6835h0.02752c4.0046,0 6.75691,-1.05964 8.75233,-2.6835c5.21562,-0.5367 8.05049,-4.19726 9.2615,-6.82571c3.27524,-1.19725 5.73855,-3.4679 6.46791,-7.52755c1.12844,-6.66058 -2.90368,-9.75692 -2.90368,-9.75692zM575.35146,630.74975c0.77065,-0.24771 1.59634,-0.37156 2.43579,-0.37156c1.51377,0 2.73854,0.41285 3.3991,0.68808c-0.42661,0.19266 -0.88074,0.44037 -1.33487,0.72936c-0.33028,-0.05505 -0.77065,-0.11009 -1.26606,-0.11009c-1.44496,0 -2.82111,0.42661 -3.94956,1.22478c-1.69267,1.19725 -2.47707,2.3257 -2.84863,3.08258c-0.30275,-0.1789 -0.61927,-0.34404 -0.97707,-0.50918c-0.22018,-0.11009 -0.42661,-0.20642 -0.64679,-0.30275c0.83945,-1.2523 2.73854,-3.6468 5.18809,-4.43121zM578.24138,633.25435c-0.11009,0.13762 -0.22018,0.28899 -0.31651,0.44037c-0.45413,0.7156 -0.5367,1.59634 -0.60551,2.44955c-0.06881,0.88074 -0.15138,1.72019 -0.60551,2.33946c-0.57798,0.11009 -1.11468,0.23395 -1.58257,0.37156c-0.31651,-0.42661 -0.77065,-0.96331 -1.44496,-1.54129c0.19266,-0.66055 0.75688,-2.2156 1.85781,-3.09634c0.77065,-0.59175 1.67891,-0.92202 2.69726,-0.96331zM539.55774,631.79563c-0.45413,-0.30275 -0.90826,-0.55046 -1.33487,-0.72936c0.66055,-0.27523 1.88533,-0.68808 3.3991,-0.68808c0.83945,0 1.65138,0.12385 2.43579,0.37156c2.44955,0.79817 4.34864,3.19267 5.18809,4.41745c-0.22018,0.09633 -0.44037,0.19266 -0.66055,0.30275c-0.34404,0.16514 -0.67431,0.34404 -0.97707,0.50918c-0.3578,-0.74312 -1.14221,-1.88533 -2.84863,-3.08258c-1.14221,-0.79817 -2.5046,-1.22478 -3.96332,-1.22478c-0.46789,0.01376 -0.90826,0.06881 -1.23854,0.12385zM545.70914,637.314c-0.67431,0.57798 -1.14221,1.10092 -1.44496,1.54129c-0.46789,-0.12385 -1.00459,-0.26147 -1.58257,-0.37156c-0.45413,-0.60551 -0.52294,-1.44496 -0.59175,-2.3257c-0.06881,-0.85321 -0.15138,-1.73395 -0.60551,-2.44955c-0.09633,-0.15138 -0.20642,-0.30275 -0.31651,-0.44037c1.01835,0.04128 1.92661,0.3578 2.6835,0.96331c1.10092,0.86698 1.66514,2.42203 1.85781,3.08258zM541.27793,661.32785c-0.37156,-0.22018 -0.77065,-0.42661 -1.15597,-0.63303c-2.05047,-1.10092 -4.15598,-2.24313 -4.15598,-4.19726c0,-1.52753 0.59175,-2.00918 1.22478,-2.5046l0.06881,-0.05505c0.09633,-0.08257 0.19266,-0.16514 0.30275,-0.24771c-0.12385,0.99083 -0.26147,1.83028 -0.37156,2.05047c0,0 1.66514,-2.06423 2.16056,-6.09635c0.19266,-1.58257 -0.15138,-4.7202 -0.70184,-5.91745c0.02752,0.67431 0,1.34863 -0.04128,1.98166c-0.05505,-0.11009 -0.11009,-0.22018 -0.1789,-0.30275c-0.44037,-0.55046 -1.62386,-2.40827 -1.29358,-3.66056c0.12385,-0.48165 0.42661,-0.82569 0.92202,-1.0734c0.52294,-0.26147 1.21101,-0.39908 2.07799,-0.39908c1.69267,0 3.56423,0.50918 4.52754,0.82569c3.45414,1.10092 7.62388,4.25231 8.82113,5.18809c0.02752,0.02752 0.05505,0.04128 0.05505,0.04128l0.77065,0.5367l-0.48165,-0.79817c-0.02752,-0.04128 -2.62845,-4.32112 -7.32113,-6.39911c0.27523,-0.39908 1.01835,-1.11468 2.97249,-2.07799c2.94497,-1.44496 6.39911,-2.17432 10.22481,-2.17432c3.83946,0 7.27984,0.72936 10.22481,2.17432c1.95414,0.94954 2.69726,1.67891 2.97249,2.07799c-4.67892,2.07799 -7.27984,6.35782 -7.30737,6.39911l-0.48165,0.79817l0.77065,-0.5367c0,0 0.02752,-0.01376 0.05505,-0.04128c1.19725,-0.93578 5.36699,-4.10093 8.82113,-5.18809c0.96331,-0.30275 2.83487,-0.82569 4.52754,-0.82569c0.86698,0 1.55505,0.13762 2.07799,0.39908c0.48165,0.24771 0.78441,0.60551 0.92202,1.0734c0.34404,1.2523 -0.83945,3.1101 -1.29358,3.66056c-0.06881,0.08257 -0.12385,0.1789 -0.1789,0.30275c-0.04128,-0.63303 -0.06881,-1.30734 -0.04128,-1.98166c-0.55046,1.21101 -0.8945,4.33488 -0.70184,5.91745c0.49541,4.03213 2.16056,6.09635 2.16056,6.09635c-0.11009,-0.22018 -0.24771,-1.05964 -0.37156,-2.05047c0.09633,0.08257 0.20642,0.16514 0.30275,0.24771l0.06881,0.05505c0.63303,0.50918 1.22478,0.97707 1.22478,2.5046c0,1.95414 -2.11927,3.09634 -4.15598,4.19726c-0.39908,0.20642 -0.78441,0.42661 -1.15597,0.63303c-1.19725,0.68808 -2.47707,2.29817 -2.62845,4.70644c-0.12385,2.00918 0.12385,6.867 0.46789,10.44499c-1.70643,0.66055 -3.67433,0.88074 -5.46332,0.93578c-0.27523,-0.56422 -0.5367,-1.16973 -0.75688,-1.80276c-0.09633,-0.27523 -2.69726,-7.03214 -3.63304,-8.55967c0.75688,5.36699 2.40827,10.14224 3.23396,12.33032c-0.48165,-0.06881 -1.00459,-0.09633 -1.6101,-0.09633h-16.10098c-0.60551,0 -1.14221,0.04128 -1.6101,0.09633c0.82569,-2.18808 2.49084,-6.96333 3.23396,-12.33032c-0.93578,1.54129 -3.53671,8.2982 -3.63304,8.55967c-0.22018,0.63303 -0.48165,1.23854 -0.75688,1.80276c-1.789,-0.05505 -3.74313,-0.27523 -5.46332,-0.93578c0.34404,-3.578 0.59175,-8.42205 0.46789,-10.44499c-0.12385,-2.3945 -1.41744,-4.01836 -2.61469,-4.70644zM538.0715,681.24077c-1.66514,-2.7523 -1.19725,-7.44498 -0.50918,-8.13306c1.50001,4.73396 6.49544,6.09635 10.23857,6.24773c-0.37156,0.57798 -0.7156,1.04588 -0.96331,1.37615l-0.19266,0.19266c-0.99083,1.0734 -1.18349,2.54588 -0.56422,4.37616c-3.12387,-0.01376 -6.37158,-1.34863 -8.0092,-4.05965zM544.36052,687.22703c0.82569,0.15138 1.67891,0.26147 2.55964,0.33028c0.48165,1.10092 1.01835,2.18808 1.69267,3.17891c-1.98166,-0.81193 -3.35781,-2.20184 -4.25231,-3.50919zM559.70461,694.12155c-8.33948,-0.01376 -10.77527,-6.30278 -11.68353,-8.9037c-0.50918,-1.44496 -0.46789,-2.5046 0.12385,-3.17891c0.39908,-0.45413 1.30734,-0.99083 3.38533,-0.99083h16.34869c2.07799,0 3.00001,0.5367 3.38533,0.99083c0.57798,0.66055 0.61927,1.73395 0.12385,3.17891c-0.90826,2.58717 -3.34405,8.88994 -11.68353,8.9037zM570.7964,690.73622c0.67431,-0.99083 1.21101,-2.07799 1.69267,-3.17891c0.88074,-0.06881 1.73395,-0.1789 2.55964,-0.33028c-0.8945,1.30734 -2.27065,2.69726 -4.25231,3.50919zM581.33772,681.24077c-1.65138,2.71102 -4.8991,4.03213 -7.99544,4.08717c0.61927,-1.83028 0.42661,-3.31653 -0.56422,-4.37616c-0.05505,-0.06881 -0.12385,-0.13762 -0.19266,-0.20642c-0.24771,-0.33028 -0.59175,-0.79817 -0.96331,-1.37615c3.74313,-0.16514 8.73857,-1.51377 10.23857,-6.24773c0.68808,0.68808 1.15597,5.38075 -0.52294,8.1193zM559.69085,651.39203h0.02752c1.74771,-0.01376 3.74313,-2.44955 3.74313,-2.44955c-1.36239,0.82569 -2.58717,1.11468 -3.7569,1.14221c-1.16973,-0.02752 -2.3945,-0.31651 -3.7569,-1.14221c0,0 1.99542,2.42203 3.74313,2.44955zM568.18171,683.13986h-4.04589c-0.57798,0 -0.99083,0.12385 -1.22478,0.37156c-0.30275,0.31651 -0.20642,0.7156 -0.12385,0.92202c0.13762,0.3578 0.75688,1.55505 1.789,2.65597c0.37156,0.39908 0.90826,0.61927 1.51377,0.61927c0.60551,0 1.19725,-0.22018 1.62386,-0.57798c0.31651,-0.27523 1.40368,-1.26606 1.88533,-2.49084c0.1789,-0.45413 0.13762,-0.82569 -0.12385,-1.08716c-0.1789,-0.1789 -0.55046,-0.39908 -1.29358,-0.41285z" className="SFSymbolsPreviewWireframe"/></g>
 </g>
</svg>