<?xml version="1.0" encoding="UTF-8"?><!--Generator: https://SymbolKit.app--><!DOCTYPE svg PUBLIC "-//W3C//DTD SVG 1.1//EN" "http://www.w3.org/Graphics/SVG/1.1/DTD/svg11.dtd"><svg xmlns="http://www.w3.org/2000/svg" xmlns:xlink="http://www.w3.org/1999/xlink" version="1.1" viewBox="0 0 3300 2200">
 <!--glyph: "100092", point size: 100.0, font version: "20.0d10e1", template writer version: "138.0.0"-->
 <style>.SFSymbolsPreviewWireframe {fill:none;opacity:1.0;stroke:black;stroke-width:0.5}
</style>
 <g id="Notes">
  <rect height="2200" id="artboard" style="fill:white;opacity:1" width="3300" x="0" y="0"/>
  <line style="fill:none;stroke:black;opacity:1;stroke-width:0.5;" x1="263" x2="3036" y1="292" y2="292"/>
  <text style="stroke:none;fill:black;font-family:sans-serif;font-size:13;font-weight:bold;" transform="matrix(1 0 0 1 263 322)">Weight/Scale Variations</text>
  <text style="stroke:none;fill:black;font-family:sans-serif;font-size:13;text-anchor:middle;" transform="matrix(1 0 0 1 559.711 322)">Ultralight</text>
  <text style="stroke:none;fill:black;font-family:sans-serif;font-size:13;text-anchor:middle;" transform="matrix(1 0 0 1 856.422 322)">Thin</text>
  <text style="stroke:none;fill:black;font-family:sans-serif;font-size:13;text-anchor:middle;" transform="matrix(1 0 0 1 1153.13 322)">Light</text>
  <text style="stroke:none;fill:black;font-family:sans-serif;font-size:13;text-anchor:middle;" transform="matrix(1 0 0 1 1449.84 322)">Regular</text>
  <text style="stroke:none;fill:black;font-family:sans-serif;font-size:13;text-anchor:middle;" transform="matrix(1 0 0 1 1746.56 322)">Medium</text>
  <text style="stroke:none;fill:black;font-family:sans-serif;font-size:13;text-anchor:middle;" transform="matrix(1 0 0 1 2043.27 322)">Semibold</text>
  <text style="stroke:none;fill:black;font-family:sans-serif;font-size:13;text-anchor:middle;" transform="matrix(1 0 0 1 2339.98 322)">Bold</text>
  <text style="stroke:none;fill:black;font-family:sans-serif;font-size:13;text-anchor:middle;" transform="matrix(1 0 0 1 2636.69 322)">Heavy</text>
  <text style="stroke:none;fill:black;font-family:sans-serif;font-size:13;text-anchor:middle;" transform="matrix(1 0 0 1 2933.4 322)">Black</text>
  <line style="fill:none;stroke:black;opacity:1;stroke-width:0.5;" x1="263" x2="3036" y1="1903" y2="1903"/>
  <g transform="matrix(0.2 0 0 0.2 263 1933)">
   <path d="m46.2402 4.15039c21.7773 0 39.4531-17.627 39.4531-39.4043s-17.6758-39.4043-39.4531-39.4043c-21.7285 0-39.4043 17.627-39.4043 39.4043s17.6758 39.4043 39.4043 39.4043Zm0-7.42188c-17.6758 0-31.9336-14.3066-31.9336-31.9824s14.2578-31.9824 31.9336-31.9824 31.9824 14.3066 31.9824 31.9824-14.3066 31.9824-31.9824 31.9824Zm-17.9688-31.9824c0 2.14844 1.51367 3.61328 3.75977 3.61328h10.498v10.5957c0 2.19727 1.46484 3.71094 3.61328 3.71094 2.24609 0 3.71094-1.51367 3.71094-3.71094v-10.5957h10.5957c2.19727 0 3.71094-1.46484 3.71094-3.61328 0-2.19727-1.51367-3.71094-3.71094-3.71094h-10.5957v-10.5469c0-2.24609-1.46484-3.75977-3.71094-3.75977-2.14844 0-3.61328 1.51367-3.61328 3.75977v10.5469h-10.498c-2.24609 0-3.75977 1.51367-3.75977 3.71094Z"/>
  </g>
  <g transform="matrix(0.2 0 0 0.2 281.506 1933)">
   <path d="m58.5449 14.5508c27.4902 0 49.8047-22.3145 49.8047-49.8047s-22.3145-49.8047-49.8047-49.8047-49.8047 22.3145-49.8047 49.8047 22.3145 49.8047 49.8047 49.8047Zm0-8.30078c-22.9492 0-41.5039-18.5547-41.5039-41.5039s18.5547-41.5039 41.5039-41.5039 41.5039 18.5547 41.5039 41.5039-18.5547 41.5039-41.5039 41.5039Zm-22.6562-41.5039c0 2.39258 1.66016 4.00391 4.15039 4.00391h14.3555v14.4043c0 2.44141 1.66016 4.15039 4.05273 4.15039 2.44141 0 4.15039-1.66016 4.15039-4.15039v-14.4043h14.4043c2.44141 0 4.15039-1.61133 4.15039-4.00391 0-2.44141-1.70898-4.15039-4.15039-4.15039h-14.4043v-14.3555c0-2.49023-1.70898-4.19922-4.15039-4.19922-2.39258 0-4.05273 1.70898-4.05273 4.19922v14.3555h-14.3555c-2.49023 0-4.15039 1.70898-4.15039 4.15039Z"/>
  </g>
  <g transform="matrix(0.2 0 0 0.2 304.924 1933)">
   <path d="m74.8535 28.3203c35.1074 0 63.623-28.4668 63.623-63.5742s-28.5156-63.623-63.623-63.623-63.5742 28.5156-63.5742 63.623 28.4668 63.5742 63.5742 63.5742Zm0-9.08203c-30.127 0-54.4922-24.3652-54.4922-54.4922s24.3652-54.4922 54.4922-54.4922 54.4922 24.3652 54.4922 54.4922-24.3652 54.4922-54.4922 54.4922Zm-28.8574-54.4922c0 2.58789 1.85547 4.39453 4.58984 4.39453h19.7266v19.7754c0 2.68555 1.85547 4.58984 4.44336 4.58984 2.68555 0 4.54102-1.85547 4.54102-4.58984v-19.7754h19.7754c2.68555 0 4.58984-1.80664 4.58984-4.39453 0-2.73438-1.85547-4.58984-4.58984-4.58984h-19.7754v-19.7266c0-2.73438-1.85547-4.63867-4.54102-4.63867-2.58789 0-4.44336 1.9043-4.44336 4.63867v19.7266h-19.7266c-2.73438 0-4.58984 1.85547-4.58984 4.58984Z"/>
  </g>
  <text style="stroke:none;fill:black;font-family:sans-serif;font-size:13;font-weight:bold;" transform="matrix(1 0 0 1 263 1953)">Design Variations</text>
  <text style="stroke:none;fill:black;font-family:sans-serif;font-size:13;" transform="matrix(1 0 0 1 263 1971)">Symbols are supported in up to nine weights and three scales.</text>
  <text style="stroke:none;fill:black;font-family:sans-serif;font-size:13;" transform="matrix(1 0 0 1 263 1989)">For optimal layout with text and other symbols, vertically align</text>
  <text style="stroke:none;fill:black;font-family:sans-serif;font-size:13;" transform="matrix(1 0 0 1 263 2007)">symbols with the adjacent text.</text>
  <line style="fill:none;stroke:#00AEEF;stroke-width:0.5;opacity:1.0;" x1="776" x2="776" y1="1919" y2="1933"/>
  <g transform="matrix(0.2 0 0 0.2 776 1933)">
   <path d="m16.5527 0.78125c2.58789 0 3.85742-0.976562 4.78516-3.71094l6.29883-17.2363h28.8086l6.29883 17.2363c0.927734 2.73438 2.19727 3.71094 4.73633 3.71094 2.58789 0 4.24805-1.5625 4.24805-4.00391 0-0.830078-0.146484-1.61133-0.537109-2.63672l-22.9004-60.9863c-1.12305-2.97852-3.125-4.49219-6.25-4.49219-3.02734 0-5.07812 1.46484-6.15234 4.44336l-22.9004 61.084c-0.390625 1.02539-0.537109 1.80664-0.537109 2.63672 0 2.44141 1.5625 3.95508 4.10156 3.95508Zm13.4766-28.3691 11.8652-32.8613h0.244141l11.8652 32.8613Z"/>
  </g>
  <line style="fill:none;stroke:#00AEEF;stroke-width:0.5;opacity:1.0;" x1="792.836" x2="792.836" y1="1919" y2="1933"/>
  <text style="stroke:none;fill:black;font-family:sans-serif;font-size:13;font-weight:bold;" transform="matrix(1 0 0 1 776 1953)">Margins</text>
  <text style="stroke:none;fill:black;font-family:sans-serif;font-size:13;" transform="matrix(1 0 0 1 776 1971)">Leading and trailing margins on the left and right side of each symbol</text>
  <text style="stroke:none;fill:black;font-family:sans-serif;font-size:13;" transform="matrix(1 0 0 1 776 1989)">can be adjusted by modifying the x-location of the margin guidelines.</text>
  <text style="stroke:none;fill:black;font-family:sans-serif;font-size:13;" transform="matrix(1 0 0 1 776 2007)">Modifications are automatically applied proportionally to all</text>
  <text style="stroke:none;fill:black;font-family:sans-serif;font-size:13;" transform="matrix(1 0 0 1 776 2025)">scales and weights.</text>
  <g transform="matrix(0.2 0 0 0.2 1289 1933)">
   <path d="m14.209 9.32617 8.49609 8.54492c4.29688 4.3457 9.22852 4.05273 13.8672-1.07422l53.4668-58.9355-4.83398-4.88281-53.0762 58.3984c-1.75781 2.00195-3.41797 2.49023-5.76172 0.146484l-5.85938-5.81055c-2.34375-2.29492-1.80664-4.00391 0.195312-5.81055l57.373-54.0039-4.88281-4.83398-57.959 54.4434c-4.93164 4.58984-5.32227 9.47266-1.02539 13.8184Zm32.0801-90.9668c-2.09961 2.05078-2.24609 4.93164-1.07422 6.88477 1.17188 1.80664 3.4668 2.97852 6.68945 2.14844 7.32422-1.70898 14.9414-2.00195 22.0703 2.68555l-2.92969 7.27539c-1.70898 4.15039-0.830078 7.08008 1.85547 9.81445l11.4746 11.5723c2.44141 2.44141 4.49219 2.53906 7.32422 2.05078l5.32227-0.976562 3.32031 3.36914-0.195312 2.7832c-0.195312 2.49023 0.439453 4.39453 2.88086 6.78711l3.80859 3.71094c2.39258 2.39258 5.46875 2.53906 7.8125 0.195312l14.5508-14.5996c2.34375-2.34375 2.24609-5.32227-0.146484-7.71484l-3.85742-3.80859c-2.39258-2.39258-4.24805-3.17383-6.64062-2.97852l-2.88086 0.244141-3.22266-3.17383 1.2207-5.61523c0.634766-2.83203-0.146484-5.0293-3.07617-7.95898l-10.9863-10.9375c-16.6992-16.6016-38.8672-16.2109-53.3203-1.75781Zm7.4707 1.85547c12.1582-8.88672 28.6133-7.37305 39.7461 3.75977l12.1582 12.0605c1.17188 1.17188 1.36719 2.09961 1.02539 3.80859l-1.61133 7.42188 7.51953 7.42188 4.93164-0.292969c1.26953-0.0488281 1.66016 0.0488281 2.63672 1.02539l2.88086 2.88086-12.207 12.207-2.88086-2.88086c-0.976562-0.976562-1.12305-1.36719-1.07422-2.68555l0.341797-4.88281-7.4707-7.42188-7.61719 1.26953c-1.61133 0.341797-2.34375 0.195312-3.56445-0.976562l-10.0098-10.0098c-1.26953-1.17188-1.41602-2.00195-0.634766-3.85742l4.39453-10.4492c-7.8125-7.27539-17.9688-10.4004-28.125-7.42188-0.78125 0.195312-1.07422-0.439453-0.439453-0.976562Z"/>
  </g>
  <text style="stroke:none;fill:black;font-family:sans-serif;font-size:13;font-weight:bold;" transform="matrix(1 0 0 1 1289 1953)">Exporting</text>
  <text style="stroke:none;fill:black;font-family:sans-serif;font-size:13;" transform="matrix(1 0 0 1 1289 1971)">Symbols should be outlined when exporting to ensure the</text>
  <text style="stroke:none;fill:black;font-family:sans-serif;font-size:13;" transform="matrix(1 0 0 1 1289 1989)">design is preserved when submitting to Xcode.</text>
  <text id="template-version" style="stroke:none;fill:black;font-family:sans-serif;font-size:13;text-anchor:end;" transform="matrix(1 0 0 1 3036 1933)">Template v.6.0</text>
  <text style="stroke:none;fill:black;font-family:sans-serif;font-size:13;text-anchor:end;" transform="matrix(1 0 0 1 3036 1951)">Requires Xcode 16 or greater</text>
  <text id="descriptive-name" style="stroke:none;fill:black;font-family:sans-serif;font-size:13;text-anchor:end;" transform="matrix(1 0 0 1 3036 1969)">Generated from square</text>
  <text style="stroke:none;fill:black;font-family:sans-serif;font-size:13;text-anchor:end;" transform="matrix(1 0 0 1 3036 1987)">Typeset at 100.0 points</text>
  <text style="stroke:none;fill:black;font-family:sans-serif;font-size:13;" transform="matrix(1 0 0 1 263 726)">Small</text>
  <text style="stroke:none;fill:black;font-family:sans-serif;font-size:13;" transform="matrix(1 0 0 1 263 1156)">Medium</text>
  <text style="stroke:none;fill:black;font-family:sans-serif;font-size:13;" transform="matrix(1 0 0 1 263 1586)">Large</text>
 </g>
 <g id="Guides">
  <g id="H-reference" style="fill:#27AAE1;stroke:none;" transform="matrix(1 0 0 1 339 696)">
   <path d="M0.993654 0L3.63775 0L29.3281-67.1323L30.0303-67.1323L30.0303-70.459L28.1226-70.459ZM11.6885-24.4799L46.9815-24.4799L46.2315-26.7285L12.4385-26.7285ZM55.1196 0L57.7637 0L30.6382-70.459L29.4326-70.459L29.4326-67.1323Z"/>
  </g>
  <line id="Baseline-S" style="fill:none;stroke:#27AAE1;opacity:1;stroke-width:0.5;" x1="263" x2="3036" y1="696" y2="696"/>
  <line id="Capline-S" style="fill:none;stroke:#27AAE1;opacity:1;stroke-width:0.5;" x1="263" x2="3036" y1="625.541" y2="625.541"/>
  <g id="H-reference" style="fill:#27AAE1;stroke:none;" transform="matrix(1 0 0 1 339 1126)">
   <path d="M0.993654 0L3.63775 0L29.3281-67.1323L30.0303-67.1323L30.0303-70.459L28.1226-70.459ZM11.6885-24.4799L46.9815-24.4799L46.2315-26.7285L12.4385-26.7285ZM55.1196 0L57.7637 0L30.6382-70.459L29.4326-70.459L29.4326-67.1323Z"/>
  </g>
  <line id="Baseline-M" style="fill:none;stroke:#27AAE1;opacity:1;stroke-width:0.5;" x1="263" x2="3036" y1="1126" y2="1126"/>
  <line id="Capline-M" style="fill:none;stroke:#27AAE1;opacity:1;stroke-width:0.5;" x1="263" x2="3036" y1="1055.54" y2="1055.54"/>
  <g id="H-reference" style="fill:#27AAE1;stroke:none;" transform="matrix(1 0 0 1 339 1556)">
   <path d="M0.993654 0L3.63775 0L29.3281-67.1323L30.0303-67.1323L30.0303-70.459L28.1226-70.459ZM11.6885-24.4799L46.9815-24.4799L46.2315-26.7285L12.4385-26.7285ZM55.1196 0L57.7637 0L30.6382-70.459L29.4326-70.459L29.4326-67.1323Z"/>
  </g>
  <line id="Baseline-L" style="fill:none;stroke:#27AAE1;opacity:1;stroke-width:0.5;" x1="263" x2="3036" y1="1556" y2="1556"/>
  <line id="Capline-L" style="fill:none;stroke:#27AAE1;opacity:1;stroke-width:0.5;" x1="263" x2="3036" y1="1485.54" y2="1485.54"/>
  <line id="right-margin-Black-S" style="fill:none;stroke:#00AEEF;stroke-width:0.5;opacity:1.0;" x1="2981.3" x2="2981.3" y1="600.785" y2="720.121"/>
  <line id="left-margin-Black-S" style="fill:none;stroke:#00AEEF;stroke-width:0.5;opacity:1.0;" x1="2885.5" x2="2885.5" y1="600.785" y2="720.121"/>
  <line id="right-margin-Regular-S" style="fill:none;stroke:#00AEEF;stroke-width:0.5;opacity:1.0;" x1="1495.18" x2="1495.18" y1="600.785" y2="720.121"/>
  <line id="left-margin-Regular-S" style="fill:none;stroke:#00AEEF;stroke-width:0.5;opacity:1.0;" x1="1404.51" x2="1404.51" y1="600.785" y2="720.121"/>
  <line id="right-margin-Ultralight-S" style="fill:none;stroke:#00AEEF;stroke-width:0.5;opacity:1.0;" x1="603.073" x2="603.073" y1="600.785" y2="720.121"/>
  <line id="left-margin-Ultralight-S" style="fill:none;stroke:#00AEEF;stroke-width:0.5;opacity:1.0;" x1="516.35" x2="516.35" y1="600.785" y2="720.121"/>
 </g>
 <g id="Symbols">
  <g id="Black-S"><path d="M2965.20392,684.03195c-0.19266,-1.54129 -2.61469,-3.17891 -3.88075,-4.38993c-0.70184,-0.68808 -3.99084,-3.17891 -4.1835,-4.11469c-0.19266,-0.90826 1.33487,-2.95873 1.83028,-3.97708c0.70184,-1.47248 1.21101,-3.26148 1.55505,-4.48626c2.58717,-9.09636 2.84863,-21.59183 -0.85321,-29.06433c-1.40368,-2.83487 -5.31195,-6.74314 -7.7615,-8.60095c-5.77984,-4.3624 -16.45878,-4.85782 -23.40835,-2.28441c-1.94037,0.7156 -3.8257,1.34863 -5.51837,2.35322c-4.55506,2.66973 -9.39912,4.47249 -10.74775,9.85325c-3.33029,1.48624 -4.33488,5.75232 -4.16974,10.70646c0.02752,0.96331 0.56422,2.17432 0.37156,3.08258c-0.09633,0.45413 -0.7156,1.04588 -0.83945,1.34863c-1.59634,3.81194 -0.31651,8.80737 1.52753,11.51839c1.11468,1.63762 2.95873,3.08258 5.39452,3.4679c0.09633,1.45872 0.45413,2.71102 1.12844,4.1835c0.42661,0.93578 2.02294,2.61469 1.4312,3.81194c-0.30275,0.60551 -2.88992,1.89909 -3.7569,2.42203c-2.90368,1.72019 -5.00919,2.79359 -7.69269,4.7202c-1.73395,1.23854 -4.44497,1.40368 -4.01836,4.27983c0.28899,1.94037 1.38991,4.34864 2.02294,6.30278c0.09633,0.27523 0.19266,0.56422 0.28899,0.82569h58.07362c0.67431,-2.10551 1.33487,-4.25231 2.00918,-6.49544c0.46789,-1.56881 1.40368,-3.8257 1.19725,-5.46332zM2926.50653,630.18312c0.24771,-0.06881 0.46789,0.09633 0.67431,0.33028c-0.02752,0.7156 -0.74312,0.70184 -1.22478,0.93578c-0.74312,0.92202 -1.84404,1.34863 -2.7523,2.36698c-0.93578,1.03211 -1.98166,3.81194 -3.2202,4.12846c-0.61927,0.15138 -1.33487,-0.11009 -1.87157,-0.06881c-1.4312,0.09633 -2.43579,0.82569 -3.89451,1.03211c1.87157,-4.11469 7.72021,-7.43122 12.28904,-8.7248zM2912.08445,643.0639c1.85781,-2.05047 4.41745,-3.31653 7.54131,-3.56423c1.6101,4.08717 -1.15597,8.94499 -0.12385,13.43124c0.31651,1.36239 1.40368,3.49543 -0.33028,3.53671c0.04128,-3.89451 -4.78901,-6.37158 -8.43581,-4.07341c-0.24771,-2.95873 -0.67431,-7.11471 1.34863,-9.33031zM2917.13493,670.61446c-0.13762,-0.56422 -0.37156,-1.77524 -0.31651,-2.07799c0.22018,-1.19725 2.35322,-1.72019 1.51377,-3.3991c-1.55505,-0.01376 -1.89909,1.40368 -3.31653,1.55505c-3.67433,0.3578 -6.27525,-4.87158 -6.11012,-8.03673c0.13762,-2.6835 2.42203,-5.2569 5.51837,-4.92662c2.20184,0.24771 2.94497,2.64221 3.37157,4.77525c1.26606,0.06881 3.09634,-0.05505 3.70185,-1.04588c-0.08257,-2.40827 -1.21101,-4.34864 -1.12844,-6.56425c0.13762,-4.16974 2.40827,-7.92664 0.66055,-12.02757c1.87157,-4.25231 7.36241,-7.61012 11.43582,-9.63306c5.03672,-2.51836 13.05968,-0.50918 17.79365,2.17432c2.71102,1.52753 4.73396,4.50002 6.64681,6.97709c-2.6835,-0.79817 -4.96791,0.57798 -4.55506,2.79359c2.24313,-2.05047 6.08259,-0.02752 7.2248,2.25689c1.08716,2.17432 1.0734,5.40828 1.23854,8.64223c0.39908,7.84407 -1.4312,15.9496 -5.38075,21.61935c-1.05964,1.51377 -1.94037,3.16515 -3.42662,4.21103c-3.578,2.5046 -9.00003,4.77525 -13.65143,3.2202c-6.1514,-2.06423 -8.94499,-6.16516 -12.31656,-10.84408c0.09633,2.5734 1.89909,4.69268 3.68809,6.66058c1.55505,1.72019 3.44038,3.66056 5.46332,4.45873c-1.69267,-0.39908 -4.27983,-0.52294 -4.98167,0.99083c-3.93579,-0.26147 -7.5826,-0.66055 -9.45416,-3.33029c-1.45872,-2.11927 -2.94497,-5.69727 -3.61928,-8.44957zM2947.68551,687.69251c0.56422,-0.41285 1.52753,-0.39908 2.3945,-0.49541c-0.74312,-0.37156 -1.789,-0.50918 -2.65597,-0.30275c-0.01376,-0.57798 -0.27523,-0.93578 -0.44037,-1.40368c1.45872,-0.52294 4.88534,-3.92203 6.82571,-2.79359c0.92202,0.5367 1.30734,3.60552 1.38991,5.09176c0.05505,1.23854 -0.11009,2.47707 -0.61927,3.13763c-2.58717,-0.08257 -4.92662,-0.38532 -6.97709,-0.96331c0.12385,-0.83945 -0.13762,-1.66514 0.08257,-2.27065zM2945.31852,684.94021c-2.31194,0.11009 -3.578,-0.16514 -5.27066,-1.48624c0.02752,-0.11009 0.19266,-0.06881 0.20642,-0.19266c2.47707,1.10092 5.6147,-0.45413 8.1193,-0.67431c-1.08716,0.70184 -2.00918,1.59634 -3.05506,2.35322zM2943.65338,689.50903c-0.22018,-1.29358 -0.48165,-1.65138 -0.38532,-2.77983c3.44038,-2.28441 4.08717,3.93579 0.38532,2.77983zM2929.27259,685.90351c-1.59634,-0.09633 -6.61929,-1.92661 -5.29819,-3.26148c1.29358,0.8945 3.78442,0.67431 5.68351,1.00459c0.11009,0.60551 -0.38532,1.40368 -0.38532,2.25689zM2906.11195,693.954c-0.59175,-1.74771 -1.26606,-3.45414 -2.03671,-5.078c4.23855,-3.27524 8.98627,-6.72938 14.06427,-8.73857c0.38532,-0.15138 3.19267,3.49543 3.60552,3.79818c2.27065,1.6101 5.09176,2.88992 7.73397,4.15598c0.16514,1.21101 0.5367,2.77983 1.19725,4.88534c0.09633,0.31651 0.19266,0.64679 0.30275,0.99083h-24.86707zM2939.22217,694.73841h-0.11009c0.04128,-0.02752 0.06881,-0.05505 0.11009,-0.06881zM2940.25428,693.954c0.28899,-0.19266 0.59175,-0.38532 0.88074,-0.59175c0.15138,0.19266 0.30275,0.38532 0.44037,0.59175zM2942.33227,690.55491c-1.48624,1.00459 -2.83487,2.51836 -4.58259,3.4679c-0.82569,0.45413 -3.71561,1.6101 -4.59635,1.40368c-0.49541,-0.11009 -0.5367,-0.72936 -0.74312,-1.30734c-0.42661,-1.23854 -1.38991,-3.2202 -1.48624,-5.09176c-0.11009,-2.36698 -0.34404,-6.3303 2.20184,-5.83488c2.05047,0.39908 4.44497,1.33487 6.04131,2.2156c0.97707,0.5367 1.52753,1.18349 3.01377,1.30734c-0.01376,0.19266 -0.01376,0.38532 -0.02752,0.59175c-0.81193,0.5367 -2.10551,0.52294 -3.00001,0.97707c1.30734,0.05505 2.33946,0.37156 3.23396,0.81193c-0.01376,0.46789 -0.04128,0.96331 -0.05505,1.45872zM2949.68093,693.954h-1.92661c-0.01376,-0.44037 -0.38532,-0.79817 -0.83945,-0.79817c-0.45413,0 -0.81193,0.3578 -0.83945,0.79817h-2.3945c-0.38532,-0.60551 -0.78441,-1.18349 -1.22478,-1.72019c0.28899,-0.30275 0.55046,-0.64679 0.82569,-0.94954c1.23854,0.50918 2.03671,-0.67431 2.98625,-0.57798c1.08716,0.11009 1.95414,1.6101 3.49543,1.51377zM2950.87818,693.954c0.02752,-0.55046 0.05505,-1.0734 0.08257,-1.58257c2.1468,-1.00459 3.99084,0.1789 4.91286,1.58257zM2962.35529,688.86224c-0.31651,1.54129 -0.79817,3.30276 -1.36239,5.10552c-0.02752,-0.01376 -0.05505,-0.01376 -0.08257,-0.01376h-3.83946c0.08257,-0.15138 0.16514,-0.30275 0.26147,-0.45413c-0.3578,-0.83945 -1.23854,-1.19725 -1.50001,-2.13304c1.66514,-3.12387 0.8945,-12.85326 -3.33029,-10.80279c0.59175,-0.86698 2.1468,-1.58257 2.8624,-2.65597c1.789,1.4312 2.8624,2.79359 4.56882,4.32112c0.93578,0.82569 2.7523,1.83028 2.94497,3.17891c0.11009,0.75688 -0.3578,2.60093 -0.52294,3.45414zM2928.74965,643.50427c0.74312,-2.05047 3.74313,-4.77525 6.19268,-4.40369c1.05964,0.16514 2.47707,1.12844 1.67891,2.43579c-4.15598,-0.96331 -6.22021,1.73395 -7.48627,4.55506c-1.11468,-0.27523 -0.67431,-1.80276 -0.38532,-2.58717zM2954.08461,652.18779c1.12844,-0.49541 3.08258,-0.09633 4.07341,-0.72936c-0.57798,-1.58257 -1.41744,-2.94497 -1.27982,-5.18809c0.06881,0 0.13762,0 0.19266,0.01376c0.93578,1.95414 1.74771,4.01836 2.94497,5.73855c-0.78441,1.85781 -6.00002,3.49543 -5.93122,0.16514zM2956.89196,646.27033zM2940.76346,652.55935c-0.93578,-1.50001 -2.61469,-4.47249 -1.99542,-6.23397c0.8945,1.63762 1.18349,3.35781 2.44955,4.58259c0.56422,0.55046 1.67891,1.23854 1.12844,2.77983c-0.12385,0.37156 -1.0734,1.18349 -1.6101,1.33487c-1.98166,0.59175 -6.59177,0.12385 -5.03672,-2.35322c1.63762,0.09633 3.83946,1.0734 5.06424,-0.11009zM2944.52036,662.19241c0.52294,0.90826 0.19266,2.5734 1.66514,2.83487c2.77983,0.46789 6.00002,-1.69267 7.99544,-2.44955c1.23854,-2.09175 -0.11009,-2.84863 -1.22478,-4.19726c-2.28441,-2.7523 -5.33947,-6.16516 -5.22938,-10.27986c0.92202,-0.67431 1.00459,1.01835 1.12844,1.33487c1.19725,2.79359 4.1835,6.35782 6.37158,8.73857c0.5367,0.59175 1.41744,1.15597 1.51377,1.54129c0.28899,1.12844 -0.74312,2.47707 -0.61927,3.23396c-2.98625,1.91285 -6.30278,4.0046 -11.20188,3.52295c-1.01835,-0.92202 -1.41744,-2.94497 -0.39908,-4.27983zM2916.81842,660.92635c-0.93578,-0.5367 -1.15597,-2.88992 -2.25689,-2.94497c-1.56881,-0.09633 -1.27982,3.05506 -1.27982,4.88534c-1.0734,-0.97707 -1.26606,-4.0046 -0.48165,-5.54589c-0.90826,-0.44037 -1.30734,0.49541 -1.80276,0.81193c0.64679,-4.69268 6.85324,-2.17432 5.82112,2.79359zM2958.04793,664.88967c-1.38991,2.64221 -3.35781,5.55965 -7.43122,5.64222c-0.08257,-0.85321 -0.15138,-2.1468 0,-2.66973c3.12387,-0.30275 5.03672,-1.88533 7.43122,-2.97249zM2938.52033,666.5961c2.60093,1.36239 7.37617,1.51377 10.91289,1.40368c0.19266,0.77065 0.1789,1.73395 0.19266,2.66973c-4.5413,0.24771 -9.90829,-0.88074 -11.10555,-4.07341zM2951.20845,673.02273c-0.23395,0.59175 -0.72936,1.27982 -1.34863,1.52753c-1.66514,0.67431 -6.27525,1.19725 -8.58719,-0.04128c-1.47248,-0.78441 -2.40827,-2.54588 -3.2202,-3.578c-0.38532,-0.49541 -2.3257,-1.77524 -0.02752,-1.77524c1.80276,4.50002 7.98168,3.99084 13.18354,3.86699z" className="SFSymbolsPreviewWireframe"/></g>
  <g id="Regular-S"><path d="M1481.64887,684.03195c-0.19266,-1.54129 -2.61469,-3.17891 -3.88075,-4.38993c-0.70184,-0.68808 -3.99084,-3.17891 -4.1835,-4.11469c-0.19266,-0.90826 1.33487,-2.95873 1.83028,-3.97708c0.70184,-1.47248 1.21101,-3.26148 1.55505,-4.48626c2.58717,-9.09636 2.84863,-21.59183 -0.85321,-29.06433c-1.40368,-2.83487 -5.31195,-6.74314 -7.7615,-8.60095c-5.77984,-4.3624 -16.45878,-4.85782 -23.40835,-2.28441c-1.94037,0.7156 -3.8257,1.34863 -5.51837,2.35322c-4.55506,2.66973 -9.39912,4.47249 -10.74775,9.85325c-3.33029,1.48624 -4.33488,5.75232 -4.16974,10.70646c0.02752,0.96331 0.56422,2.17432 0.37156,3.08258c-0.09633,0.45413 -0.7156,1.04588 -0.83945,1.34863c-1.59634,3.81194 -0.31651,8.80737 1.52753,11.51839c1.11468,1.63762 2.95873,3.08258 5.39452,3.4679c0.09633,1.45872 0.45413,2.71102 1.12844,4.1835c0.42661,0.93578 2.02294,2.61469 1.4312,3.81194c-0.30275,0.60551 -2.88992,1.89909 -3.7569,2.42203c-2.90368,1.72019 -5.00919,2.79359 -7.69269,4.7202c-1.73395,1.23854 -4.44497,1.40368 -4.01836,4.27983c0.28899,1.94037 1.38991,4.34864 2.02294,6.30278c0.09633,0.27523 0.19266,0.56422 0.28899,0.82569h58.07362c0.67431,-2.10551 1.33487,-4.25231 2.00918,-6.49544c0.46789,-1.56881 1.40368,-3.8257 1.19725,-5.46332zM1442.95148,630.18312c0.24771,-0.06881 0.46789,0.09633 0.67431,0.33028c-0.02752,0.7156 -0.74312,0.70184 -1.22478,0.93578c-0.74312,0.92202 -1.84404,1.34863 -2.7523,2.36698c-0.93578,1.03211 -1.98166,3.81194 -3.2202,4.12846c-0.61927,0.15138 -1.33487,-0.11009 -1.87157,-0.06881c-1.4312,0.09633 -2.43579,0.82569 -3.89451,1.03211c1.87157,-4.11469 7.72021,-7.43122 12.28904,-8.7248zM1428.5294,643.0639c1.85781,-2.05047 4.41745,-3.31653 7.54131,-3.56423c1.6101,4.08717 -1.15597,8.94499 -0.12385,13.43124c0.31651,1.36239 1.40368,3.49543 -0.33028,3.53671c0.04128,-3.89451 -4.78901,-6.37158 -8.43581,-4.07341c-0.24771,-2.95873 -0.67431,-7.11471 1.34863,-9.33031zM1433.57988,670.61446c-0.13762,-0.56422 -0.37156,-1.77524 -0.31651,-2.07799c0.22018,-1.19725 2.35322,-1.72019 1.51377,-3.3991c-1.55505,-0.01376 -1.89909,1.40368 -3.31653,1.55505c-3.67433,0.3578 -6.27525,-4.87158 -6.11012,-8.03673c0.13762,-2.6835 2.42203,-5.2569 5.51837,-4.92662c2.20184,0.24771 2.94497,2.64221 3.37157,4.77525c1.26606,0.06881 3.09634,-0.05505 3.70185,-1.04588c-0.08257,-2.40827 -1.21101,-4.34864 -1.12844,-6.56425c0.13762,-4.16974 2.40827,-7.92664 0.66055,-12.02757c1.87157,-4.25231 7.36241,-7.61012 11.43582,-9.63306c5.03672,-2.51836 13.05968,-0.50918 17.79365,2.17432c2.71102,1.52753 4.73396,4.50002 6.64681,6.97709c-2.6835,-0.79817 -4.96791,0.57798 -4.55506,2.79359c2.24313,-2.05047 6.08259,-0.02752 7.2248,2.25689c1.08716,2.17432 1.0734,5.40828 1.23854,8.64223c0.39908,7.84407 -1.4312,15.9496 -5.38075,21.61935c-1.05964,1.51377 -1.94037,3.16515 -3.42662,4.21103c-3.578,2.5046 -9.00003,4.77525 -13.65143,3.2202c-6.1514,-2.06423 -8.94499,-6.16516 -12.31656,-10.84408c0.09633,2.5734 1.89909,4.69268 3.68809,6.66058c1.55505,1.72019 3.44038,3.66056 5.46332,4.45873c-1.69267,-0.39908 -4.27983,-0.52294 -4.98167,0.99083c-3.93579,-0.26147 -7.5826,-0.66055 -9.45416,-3.33029c-1.45872,-2.11927 -2.94497,-5.69727 -3.61928,-8.44957zM1464.13046,687.69251c0.56422,-0.41285 1.52753,-0.39908 2.3945,-0.49541c-0.74312,-0.37156 -1.789,-0.50918 -2.65597,-0.30275c-0.01376,-0.57798 -0.27523,-0.93578 -0.44037,-1.40368c1.45872,-0.52294 4.88534,-3.92203 6.82571,-2.79359c0.92202,0.5367 1.30734,3.60552 1.38991,5.09176c0.05505,1.23854 -0.11009,2.47707 -0.61927,3.13763c-2.58717,-0.08257 -4.92662,-0.38532 -6.97709,-0.96331c0.12385,-0.83945 -0.13762,-1.66514 0.08257,-2.27065zM1461.76347,684.94021c-2.31194,0.11009 -3.578,-0.16514 -5.27066,-1.48624c0.02752,-0.11009 0.19266,-0.06881 0.20642,-0.19266c2.47707,1.10092 5.6147,-0.45413 8.1193,-0.67431c-1.08716,0.70184 -2.00918,1.59634 -3.05506,2.35322zM1460.09833,689.50903c-0.22018,-1.29358 -0.48165,-1.65138 -0.38532,-2.77983c3.44038,-2.28441 4.08717,3.93579 0.38532,2.77983zM1445.71754,685.90351c-1.59634,-0.09633 -6.61929,-1.92661 -5.29819,-3.26148c1.29358,0.8945 3.78442,0.67431 5.68351,1.00459c0.11009,0.60551 -0.38532,1.40368 -0.38532,2.25689zM1422.5569,693.954c-0.59175,-1.74771 -1.26606,-3.45414 -2.03671,-5.078c4.23855,-3.27524 8.98627,-6.72938 14.06427,-8.73857c0.38532,-0.15138 3.19267,3.49543 3.60552,3.79818c2.27065,1.6101 5.09176,2.88992 7.73397,4.15598c0.16514,1.21101 0.5367,2.77983 1.19725,4.88534c0.09633,0.31651 0.19266,0.64679 0.30275,0.99083h-24.86707zM1455.66712,694.73841h-0.11009c0.04128,-0.02752 0.06881,-0.05505 0.11009,-0.06881zM1456.69923,693.954c0.28899,-0.19266 0.59175,-0.38532 0.88074,-0.59175c0.15138,0.19266 0.30275,0.38532 0.44037,0.59175zM1458.77722,690.55491c-1.48624,1.00459 -2.83487,2.51836 -4.58259,3.4679c-0.82569,0.45413 -3.71561,1.6101 -4.59635,1.40368c-0.49541,-0.11009 -0.5367,-0.72936 -0.74312,-1.30734c-0.42661,-1.23854 -1.38991,-3.2202 -1.48624,-5.09176c-0.11009,-2.36698 -0.34404,-6.3303 2.20184,-5.83488c2.05047,0.39908 4.44497,1.33487 6.04131,2.2156c0.97707,0.5367 1.52753,1.18349 3.01377,1.30734c-0.01376,0.19266 -0.01376,0.38532 -0.02752,0.59175c-0.81193,0.5367 -2.10551,0.52294 -3.00001,0.97707c1.30734,0.05505 2.33946,0.37156 3.23396,0.81193c-0.01376,0.46789 -0.04128,0.96331 -0.05505,1.45872zM1466.12588,693.954h-1.92661c-0.01376,-0.44037 -0.38532,-0.79817 -0.83945,-0.79817c-0.45413,0 -0.81193,0.3578 -0.83945,0.79817h-2.3945c-0.38532,-0.60551 -0.78441,-1.18349 -1.22478,-1.72019c0.28899,-0.30275 0.55046,-0.64679 0.82569,-0.94954c1.23854,0.50918 2.03671,-0.67431 2.98625,-0.57798c1.08716,0.11009 1.95414,1.6101 3.49543,1.51377zM1467.32313,693.954c0.02752,-0.55046 0.05505,-1.0734 0.08257,-1.58257c2.1468,-1.00459 3.99084,0.1789 4.91286,1.58257zM1478.80024,688.86224c-0.31651,1.54129 -0.79817,3.30276 -1.36239,5.10552c-0.02752,-0.01376 -0.05505,-0.01376 -0.08257,-0.01376h-3.83946c0.08257,-0.15138 0.16514,-0.30275 0.26147,-0.45413c-0.3578,-0.83945 -1.23854,-1.19725 -1.50001,-2.13304c1.66514,-3.12387 0.8945,-12.85326 -3.33029,-10.80279c0.59175,-0.86698 2.1468,-1.58257 2.8624,-2.65597c1.789,1.4312 2.8624,2.79359 4.56882,4.32112c0.93578,0.82569 2.7523,1.83028 2.94497,3.17891c0.11009,0.75688 -0.3578,2.60093 -0.52294,3.45414zM1445.1946,643.50427c0.74312,-2.05047 3.74313,-4.77525 6.19268,-4.40369c1.05964,0.16514 2.47707,1.12844 1.67891,2.43579c-4.15598,-0.96331 -6.22021,1.73395 -7.48627,4.55506c-1.11468,-0.27523 -0.67431,-1.80276 -0.38532,-2.58717zM1470.52956,652.18779c1.12844,-0.49541 3.08258,-0.09633 4.07341,-0.72936c-0.57798,-1.58257 -1.41744,-2.94497 -1.27982,-5.18809c0.06881,0 0.13762,0 0.19266,0.01376c0.93578,1.95414 1.74771,4.01836 2.94497,5.73855c-0.78441,1.85781 -6.00002,3.49543 -5.93122,0.16514zM1473.33691,646.27033zM1457.20841,652.55935c-0.93578,-1.50001 -2.61469,-4.47249 -1.99542,-6.23397c0.8945,1.63762 1.18349,3.35781 2.44955,4.58259c0.56422,0.55046 1.67891,1.23854 1.12844,2.77983c-0.12385,0.37156 -1.0734,1.18349 -1.6101,1.33487c-1.98166,0.59175 -6.59177,0.12385 -5.03672,-2.35322c1.63762,0.09633 3.83946,1.0734 5.06424,-0.11009zM1460.96531,662.19241c0.52294,0.90826 0.19266,2.5734 1.66514,2.83487c2.77983,0.46789 6.00002,-1.69267 7.99544,-2.44955c1.23854,-2.09175 -0.11009,-2.84863 -1.22478,-4.19726c-2.28441,-2.7523 -5.33947,-6.16516 -5.22938,-10.27986c0.92202,-0.67431 1.00459,1.01835 1.12844,1.33487c1.19725,2.79359 4.1835,6.35782 6.37158,8.73857c0.5367,0.59175 1.41744,1.15597 1.51377,1.54129c0.28899,1.12844 -0.74312,2.47707 -0.61927,3.23396c-2.98625,1.91285 -6.30278,4.0046 -11.20188,3.52295c-1.01835,-0.92202 -1.41744,-2.94497 -0.39908,-4.27983zM1433.26337,660.92635c-0.93578,-0.5367 -1.15597,-2.88992 -2.25689,-2.94497c-1.56881,-0.09633 -1.27982,3.05506 -1.27982,4.88534c-1.0734,-0.97707 -1.26606,-4.0046 -0.48165,-5.54589c-0.90826,-0.44037 -1.30734,0.49541 -1.80276,0.81193c0.64679,-4.69268 6.85324,-2.17432 5.82112,2.79359zM1474.49288,664.88967c-1.38991,2.64221 -3.35781,5.55965 -7.43122,5.64222c-0.08257,-0.85321 -0.15138,-2.1468 0,-2.66973c3.12387,-0.30275 5.03672,-1.88533 7.43122,-2.97249zM1454.96528,666.5961c2.60093,1.36239 7.37617,1.51377 10.91289,1.40368c0.19266,0.77065 0.1789,1.73395 0.19266,2.66973c-4.5413,0.24771 -9.90829,-0.88074 -11.10555,-4.07341zM1467.6534,673.02273c-0.23395,0.59175 -0.72936,1.27982 -1.34863,1.52753c-1.66514,0.67431 -6.27525,1.19725 -8.58719,-0.04128c-1.47248,-0.78441 -2.40827,-2.54588 -3.2202,-3.578c-0.38532,-0.49541 -2.3257,-1.77524 -0.02752,-1.77524c1.80276,4.50002 7.98168,3.99084 13.18354,3.86699z" className="SFSymbolsPreviewWireframe"/></g>
  <g id="Ultralight-S"><path d="M591.51528,684.03195c-0.19266,-1.54129 -2.61469,-3.17891 -3.88075,-4.38993c-0.70184,-0.68808 -3.99084,-3.17891 -4.1835,-4.11469c-0.19266,-0.90826 1.33487,-2.95873 1.83028,-3.97708c0.70184,-1.47248 1.21101,-3.26148 1.55505,-4.48626c2.58717,-9.09636 2.84863,-21.59183 -0.85321,-29.06433c-1.40368,-2.83487 -5.31195,-6.74314 -7.7615,-8.60095c-5.77984,-4.3624 -16.45878,-4.85782 -23.40835,-2.28441c-1.94037,0.7156 -3.8257,1.34863 -5.51837,2.35322c-4.55506,2.66973 -9.39912,4.47249 -10.74775,9.85325c-3.33029,1.48624 -4.33488,5.75232 -4.16974,10.70646c0.02752,0.96331 0.56422,2.17432 0.37156,3.08258c-0.09633,0.45413 -0.7156,1.04588 -0.83945,1.34863c-1.59634,3.81194 -0.31651,8.80737 1.52753,11.51839c1.11468,1.63762 2.95873,3.08258 5.39452,3.4679c0.09633,1.45872 0.45413,2.71102 1.12844,4.1835c0.42661,0.93578 2.02294,2.61469 1.4312,3.81194c-0.30275,0.60551 -2.88992,1.89909 -3.7569,2.42203c-2.90368,1.72019 -5.00919,2.79359 -7.69269,4.7202c-1.73395,1.23854 -4.44497,1.40368 -4.01836,4.27983c0.28899,1.94037 1.38991,4.34864 2.02294,6.30278c0.09633,0.27523 0.19266,0.56422 0.28899,0.82569h58.07362c0.67431,-2.10551 1.33487,-4.25231 2.00918,-6.49544c0.46789,-1.56881 1.40368,-3.8257 1.19725,-5.46332zM552.81789,630.18312c0.24771,-0.06881 0.46789,0.09633 0.67431,0.33028c-0.02752,0.7156 -0.74312,0.70184 -1.22478,0.93578c-0.74312,0.92202 -1.84404,1.34863 -2.7523,2.36698c-0.93578,1.03211 -1.98166,3.81194 -3.2202,4.12846c-0.61927,0.15138 -1.33487,-0.11009 -1.87157,-0.06881c-1.4312,0.09633 -2.43579,0.82569 -3.89451,1.03211c1.87157,-4.11469 7.72021,-7.43122 12.28904,-8.7248zM538.39581,643.0639c1.85781,-2.05047 4.41745,-3.31653 7.54131,-3.56423c1.6101,4.08717 -1.15597,8.94499 -0.12385,13.43124c0.31651,1.36239 1.40368,3.49543 -0.33028,3.53671c0.04128,-3.89451 -4.78901,-6.37158 -8.43581,-4.07341c-0.24771,-2.95873 -0.67431,-7.11471 1.34863,-9.33031zM543.44629,670.61446c-0.13762,-0.56422 -0.37156,-1.77524 -0.31651,-2.07799c0.22018,-1.19725 2.35322,-1.72019 1.51377,-3.3991c-1.55505,-0.01376 -1.89909,1.40368 -3.31653,1.55505c-3.67433,0.3578 -6.27525,-4.87158 -6.11012,-8.03673c0.13762,-2.6835 2.42203,-5.2569 5.51837,-4.92662c2.20184,0.24771 2.94497,2.64221 3.37157,4.77525c1.26606,0.06881 3.09634,-0.05505 3.70185,-1.04588c-0.08257,-2.40827 -1.21101,-4.34864 -1.12844,-6.56425c0.13762,-4.16974 2.40827,-7.92664 0.66055,-12.02757c1.87157,-4.25231 7.36241,-7.61012 11.43582,-9.63306c5.03672,-2.51836 13.05968,-0.50918 17.79365,2.17432c2.71102,1.52753 4.73396,4.50002 6.64681,6.97709c-2.6835,-0.79817 -4.96791,0.57798 -4.55506,2.79359c2.24313,-2.05047 6.08259,-0.02752 7.2248,2.25689c1.08716,2.17432 1.0734,5.40828 1.23854,8.64223c0.39908,7.84407 -1.4312,15.9496 -5.38075,21.61935c-1.05964,1.51377 -1.94037,3.16515 -3.42662,4.21103c-3.578,2.5046 -9.00003,4.77525 -13.65143,3.2202c-6.1514,-2.06423 -8.94499,-6.16516 -12.31656,-10.84408c0.09633,2.5734 1.89909,4.69268 3.68809,6.66058c1.55505,1.72019 3.44038,3.66056 5.46332,4.45873c-1.69267,-0.39908 -4.27983,-0.52294 -4.98167,0.99083c-3.93579,-0.26147 -7.5826,-0.66055 -9.45416,-3.33029c-1.45872,-2.11927 -2.94497,-5.69727 -3.61928,-8.44957zM573.99687,687.69251c0.56422,-0.41285 1.52753,-0.39908 2.3945,-0.49541c-0.74312,-0.37156 -1.789,-0.50918 -2.65597,-0.30275c-0.01376,-0.57798 -0.27523,-0.93578 -0.44037,-1.40368c1.45872,-0.52294 4.88534,-3.92203 6.82571,-2.79359c0.92202,0.5367 1.30734,3.60552 1.38991,5.09176c0.05505,1.23854 -0.11009,2.47707 -0.61927,3.13763c-2.58717,-0.08257 -4.92662,-0.38532 -6.97709,-0.96331c0.12385,-0.83945 -0.13762,-1.66514 0.08257,-2.27065zM571.62988,684.94021c-2.31194,0.11009 -3.578,-0.16514 -5.27066,-1.48624c0.02752,-0.11009 0.19266,-0.06881 0.20642,-0.19266c2.47707,1.10092 5.6147,-0.45413 8.1193,-0.67431c-1.08716,0.70184 -2.00918,1.59634 -3.05506,2.35322zM569.96474,689.50903c-0.22018,-1.29358 -0.48165,-1.65138 -0.38532,-2.77983c3.44038,-2.28441 4.08717,3.93579 0.38532,2.77983zM555.58395,685.90351c-1.59634,-0.09633 -6.61929,-1.92661 -5.29819,-3.26148c1.29358,0.8945 3.78442,0.67431 5.68351,1.00459c0.11009,0.60551 -0.38532,1.40368 -0.38532,2.25689zM532.42331,693.954c-0.59175,-1.74771 -1.26606,-3.45414 -2.03671,-5.078c4.23855,-3.27524 8.98627,-6.72938 14.06427,-8.73857c0.38532,-0.15138 3.19267,3.49543 3.60552,3.79818c2.27065,1.6101 5.09176,2.88992 7.73397,4.15598c0.16514,1.21101 0.5367,2.77983 1.19725,4.88534c0.09633,0.31651 0.19266,0.64679 0.30275,0.99083h-24.86707zM565.53353,694.73841h-0.11009c0.04128,-0.02752 0.06881,-0.05505 0.11009,-0.06881zM566.56564,693.954c0.28899,-0.19266 0.59175,-0.38532 0.88074,-0.59175c0.15138,0.19266 0.30275,0.38532 0.44037,0.59175zM568.64363,690.55491c-1.48624,1.00459 -2.83487,2.51836 -4.58259,3.4679c-0.82569,0.45413 -3.71561,1.6101 -4.59635,1.40368c-0.49541,-0.11009 -0.5367,-0.72936 -0.74312,-1.30734c-0.42661,-1.23854 -1.38991,-3.2202 -1.48624,-5.09176c-0.11009,-2.36698 -0.34404,-6.3303 2.20184,-5.83488c2.05047,0.39908 4.44497,1.33487 6.04131,2.2156c0.97707,0.5367 1.52753,1.18349 3.01377,1.30734c-0.01376,0.19266 -0.01376,0.38532 -0.02752,0.59175c-0.81193,0.5367 -2.10551,0.52294 -3.00001,0.97707c1.30734,0.05505 2.33946,0.37156 3.23396,0.81193c-0.01376,0.46789 -0.04128,0.96331 -0.05505,1.45872zM575.99229,693.954h-1.92661c-0.01376,-0.44037 -0.38532,-0.79817 -0.83945,-0.79817c-0.45413,0 -0.81193,0.3578 -0.83945,0.79817h-2.3945c-0.38532,-0.60551 -0.78441,-1.18349 -1.22478,-1.72019c0.28899,-0.30275 0.55046,-0.64679 0.82569,-0.94954c1.23854,0.50918 2.03671,-0.67431 2.98625,-0.57798c1.08716,0.11009 1.95414,1.6101 3.49543,1.51377zM577.18954,693.954c0.02752,-0.55046 0.05505,-1.0734 0.08257,-1.58257c2.1468,-1.00459 3.99084,0.1789 4.91286,1.58257zM588.66665,688.86224c-0.31651,1.54129 -0.79817,3.30276 -1.36239,5.10552c-0.02752,-0.01376 -0.05505,-0.01376 -0.08257,-0.01376h-3.83946c0.08257,-0.15138 0.16514,-0.30275 0.26147,-0.45413c-0.3578,-0.83945 -1.23854,-1.19725 -1.50001,-2.13304c1.66514,-3.12387 0.8945,-12.85326 -3.33029,-10.80279c0.59175,-0.86698 2.1468,-1.58257 2.8624,-2.65597c1.789,1.4312 2.8624,2.79359 4.56882,4.32112c0.93578,0.82569 2.7523,1.83028 2.94497,3.17891c0.11009,0.75688 -0.3578,2.60093 -0.52294,3.45414zM555.06101,643.50427c0.74312,-2.05047 3.74313,-4.77525 6.19268,-4.40369c1.05964,0.16514 2.47707,1.12844 1.67891,2.43579c-4.15598,-0.96331 -6.22021,1.73395 -7.48627,4.55506c-1.11468,-0.27523 -0.67431,-1.80276 -0.38532,-2.58717zM580.39597,652.18779c1.12844,-0.49541 3.08258,-0.09633 4.07341,-0.72936c-0.57798,-1.58257 -1.41744,-2.94497 -1.27982,-5.18809c0.06881,0 0.13762,0 0.19266,0.01376c0.93578,1.95414 1.74771,4.01836 2.94497,5.73855c-0.78441,1.85781 -6.00002,3.49543 -5.93122,0.16514zM583.20332,646.27033zM567.07482,652.55935c-0.93578,-1.50001 -2.61469,-4.47249 -1.99542,-6.23397c0.8945,1.63762 1.18349,3.35781 2.44955,4.58259c0.56422,0.55046 1.67891,1.23854 1.12844,2.77983c-0.12385,0.37156 -1.0734,1.18349 -1.6101,1.33487c-1.98166,0.59175 -6.59177,0.12385 -5.03672,-2.35322c1.63762,0.09633 3.83946,1.0734 5.06424,-0.11009zM570.83172,662.19241c0.52294,0.90826 0.19266,2.5734 1.66514,2.83487c2.77983,0.46789 6.00002,-1.69267 7.99544,-2.44955c1.23854,-2.09175 -0.11009,-2.84863 -1.22478,-4.19726c-2.28441,-2.7523 -5.33947,-6.16516 -5.22938,-10.27986c0.92202,-0.67431 1.00459,1.01835 1.12844,1.33487c1.19725,2.79359 4.1835,6.35782 6.37158,8.73857c0.5367,0.59175 1.41744,1.15597 1.51377,1.54129c0.28899,1.12844 -0.74312,2.47707 -0.61927,3.23396c-2.98625,1.91285 -6.30278,4.0046 -11.20188,3.52295c-1.01835,-0.92202 -1.41744,-2.94497 -0.39908,-4.27983zM543.12978,660.92635c-0.93578,-0.5367 -1.15597,-2.88992 -2.25689,-2.94497c-1.56881,-0.09633 -1.27982,3.05506 -1.27982,4.88534c-1.0734,-0.97707 -1.26606,-4.0046 -0.48165,-5.54589c-0.90826,-0.44037 -1.30734,0.49541 -1.80276,0.81193c0.64679,-4.69268 6.85324,-2.17432 5.82112,2.79359zM584.35929,664.88967c-1.38991,2.64221 -3.35781,5.55965 -7.43122,5.64222c-0.08257,-0.85321 -0.15138,-2.1468 0,-2.66973c3.12387,-0.30275 5.03672,-1.88533 7.43122,-2.97249zM564.83169,666.5961c2.60093,1.36239 7.37617,1.51377 10.91289,1.40368c0.19266,0.77065 0.1789,1.73395 0.19266,2.66973c-4.5413,0.24771 -9.90829,-0.88074 -11.10555,-4.07341zM577.51981,673.02273c-0.23395,0.59175 -0.72936,1.27982 -1.34863,1.52753c-1.66514,0.67431 -6.27525,1.19725 -8.58719,-0.04128c-1.47248,-0.78441 -2.40827,-2.54588 -3.2202,-3.578c-0.38532,-0.49541 -2.3257,-1.77524 -0.02752,-1.77524c1.80276,4.50002 7.98168,3.99084 13.18354,3.86699z" className="SFSymbolsPreviewWireframe"/></g>
 </g>
</svg>