<?xml version="1.0" encoding="UTF-8"?><!--Generator: https://SymbolKit.app--><!DOCTYPE svg PUBLIC "-//W3C//DTD SVG 1.1//EN" "http://www.w3.org/Graphics/SVG/1.1/DTD/svg11.dtd"><svg xmlns="http://www.w3.org/2000/svg" xmlns:xlink="http://www.w3.org/1999/xlink" version="1.1" viewBox="0 0 3300 2200">
 <!--glyph: "100092", point size: 100.0, font version: "20.0d10e1", template writer version: "138.0.0"-->
 <style>.SFSymbolsPreviewWireframe {fill:none;opacity:1.0;stroke:black;stroke-width:0.5}
</style>
 <g id="Notes">
  <rect height="2200" id="artboard" style="fill:white;opacity:1" width="3300" x="0" y="0"/>
  <line style="fill:none;stroke:black;opacity:1;stroke-width:0.5;" x1="263" x2="3036" y1="292" y2="292"/>
  <text style="stroke:none;fill:black;font-family:sans-serif;font-size:13;font-weight:bold;" transform="matrix(1 0 0 1 263 322)">Weight/Scale Variations</text>
  <text style="stroke:none;fill:black;font-family:sans-serif;font-size:13;text-anchor:middle;" transform="matrix(1 0 0 1 559.711 322)">Ultralight</text>
  <text style="stroke:none;fill:black;font-family:sans-serif;font-size:13;text-anchor:middle;" transform="matrix(1 0 0 1 856.422 322)">Thin</text>
  <text style="stroke:none;fill:black;font-family:sans-serif;font-size:13;text-anchor:middle;" transform="matrix(1 0 0 1 1153.13 322)">Light</text>
  <text style="stroke:none;fill:black;font-family:sans-serif;font-size:13;text-anchor:middle;" transform="matrix(1 0 0 1 1449.84 322)">Regular</text>
  <text style="stroke:none;fill:black;font-family:sans-serif;font-size:13;text-anchor:middle;" transform="matrix(1 0 0 1 1746.56 322)">Medium</text>
  <text style="stroke:none;fill:black;font-family:sans-serif;font-size:13;text-anchor:middle;" transform="matrix(1 0 0 1 2043.27 322)">Semibold</text>
  <text style="stroke:none;fill:black;font-family:sans-serif;font-size:13;text-anchor:middle;" transform="matrix(1 0 0 1 2339.98 322)">Bold</text>
  <text style="stroke:none;fill:black;font-family:sans-serif;font-size:13;text-anchor:middle;" transform="matrix(1 0 0 1 2636.69 322)">Heavy</text>
  <text style="stroke:none;fill:black;font-family:sans-serif;font-size:13;text-anchor:middle;" transform="matrix(1 0 0 1 2933.4 322)">Black</text>
  <line style="fill:none;stroke:black;opacity:1;stroke-width:0.5;" x1="263" x2="3036" y1="1903" y2="1903"/>
  <g transform="matrix(0.2 0 0 0.2 263 1933)">
   <path d="m46.2402 4.15039c21.7773 0 39.4531-17.627 39.4531-39.4043s-17.6758-39.4043-39.4531-39.4043c-21.7285 0-39.4043 17.627-39.4043 39.4043s17.6758 39.4043 39.4043 39.4043Zm0-7.42188c-17.6758 0-31.9336-14.3066-31.9336-31.9824s14.2578-31.9824 31.9336-31.9824 31.9824 14.3066 31.9824 31.9824-14.3066 31.9824-31.9824 31.9824Zm-17.9688-31.9824c0 2.14844 1.51367 3.61328 3.75977 3.61328h10.498v10.5957c0 2.19727 1.46484 3.71094 3.61328 3.71094 2.24609 0 3.71094-1.51367 3.71094-3.71094v-10.5957h10.5957c2.19727 0 3.71094-1.46484 3.71094-3.61328 0-2.19727-1.51367-3.71094-3.71094-3.71094h-10.5957v-10.5469c0-2.24609-1.46484-3.75977-3.71094-3.75977-2.14844 0-3.61328 1.51367-3.61328 3.75977v10.5469h-10.498c-2.24609 0-3.75977 1.51367-3.75977 3.71094Z"/>
  </g>
  <g transform="matrix(0.2 0 0 0.2 281.506 1933)">
   <path d="m58.5449 14.5508c27.4902 0 49.8047-22.3145 49.8047-49.8047s-22.3145-49.8047-49.8047-49.8047-49.8047 22.3145-49.8047 49.8047 22.3145 49.8047 49.8047 49.8047Zm0-8.30078c-22.9492 0-41.5039-18.5547-41.5039-41.5039s18.5547-41.5039 41.5039-41.5039 41.5039 18.5547 41.5039 41.5039-18.5547 41.5039-41.5039 41.5039Zm-22.6562-41.5039c0 2.39258 1.66016 4.00391 4.15039 4.00391h14.3555v14.4043c0 2.44141 1.66016 4.15039 4.05273 4.15039 2.44141 0 4.15039-1.66016 4.15039-4.15039v-14.4043h14.4043c2.44141 0 4.15039-1.61133 4.15039-4.00391 0-2.44141-1.70898-4.15039-4.15039-4.15039h-14.4043v-14.3555c0-2.49023-1.70898-4.19922-4.15039-4.19922-2.39258 0-4.05273 1.70898-4.05273 4.19922v14.3555h-14.3555c-2.49023 0-4.15039 1.70898-4.15039 4.15039Z"/>
  </g>
  <g transform="matrix(0.2 0 0 0.2 304.924 1933)">
   <path d="m74.8535 28.3203c35.1074 0 63.623-28.4668 63.623-63.5742s-28.5156-63.623-63.623-63.623-63.5742 28.5156-63.5742 63.623 28.4668 63.5742 63.5742 63.5742Zm0-9.08203c-30.127 0-54.4922-24.3652-54.4922-54.4922s24.3652-54.4922 54.4922-54.4922 54.4922 24.3652 54.4922 54.4922-24.3652 54.4922-54.4922 54.4922Zm-28.8574-54.4922c0 2.58789 1.85547 4.39453 4.58984 4.39453h19.7266v19.7754c0 2.68555 1.85547 4.58984 4.44336 4.58984 2.68555 0 4.54102-1.85547 4.54102-4.58984v-19.7754h19.7754c2.68555 0 4.58984-1.80664 4.58984-4.39453 0-2.73438-1.85547-4.58984-4.58984-4.58984h-19.7754v-19.7266c0-2.73438-1.85547-4.63867-4.54102-4.63867-2.58789 0-4.44336 1.9043-4.44336 4.63867v19.7266h-19.7266c-2.73438 0-4.58984 1.85547-4.58984 4.58984Z"/>
  </g>
  <text style="stroke:none;fill:black;font-family:sans-serif;font-size:13;font-weight:bold;" transform="matrix(1 0 0 1 263 1953)">Design Variations</text>
  <text style="stroke:none;fill:black;font-family:sans-serif;font-size:13;" transform="matrix(1 0 0 1 263 1971)">Symbols are supported in up to nine weights and three scales.</text>
  <text style="stroke:none;fill:black;font-family:sans-serif;font-size:13;" transform="matrix(1 0 0 1 263 1989)">For optimal layout with text and other symbols, vertically align</text>
  <text style="stroke:none;fill:black;font-family:sans-serif;font-size:13;" transform="matrix(1 0 0 1 263 2007)">symbols with the adjacent text.</text>
  <line style="fill:none;stroke:#00AEEF;stroke-width:0.5;opacity:1.0;" x1="776" x2="776" y1="1919" y2="1933"/>
  <g transform="matrix(0.2 0 0 0.2 776 1933)">
   <path d="m16.5527 0.78125c2.58789 0 3.85742-0.976562 4.78516-3.71094l6.29883-17.2363h28.8086l6.29883 17.2363c0.927734 2.73438 2.19727 3.71094 4.73633 3.71094 2.58789 0 4.24805-1.5625 4.24805-4.00391 0-0.830078-0.146484-1.61133-0.537109-2.63672l-22.9004-60.9863c-1.12305-2.97852-3.125-4.49219-6.25-4.49219-3.02734 0-5.07812 1.46484-6.15234 4.44336l-22.9004 61.084c-0.390625 1.02539-0.537109 1.80664-0.537109 2.63672 0 2.44141 1.5625 3.95508 4.10156 3.95508Zm13.4766-28.3691 11.8652-32.8613h0.244141l11.8652 32.8613Z"/>
  </g>
  <line style="fill:none;stroke:#00AEEF;stroke-width:0.5;opacity:1.0;" x1="792.836" x2="792.836" y1="1919" y2="1933"/>
  <text style="stroke:none;fill:black;font-family:sans-serif;font-size:13;font-weight:bold;" transform="matrix(1 0 0 1 776 1953)">Margins</text>
  <text style="stroke:none;fill:black;font-family:sans-serif;font-size:13;" transform="matrix(1 0 0 1 776 1971)">Leading and trailing margins on the left and right side of each symbol</text>
  <text style="stroke:none;fill:black;font-family:sans-serif;font-size:13;" transform="matrix(1 0 0 1 776 1989)">can be adjusted by modifying the x-location of the margin guidelines.</text>
  <text style="stroke:none;fill:black;font-family:sans-serif;font-size:13;" transform="matrix(1 0 0 1 776 2007)">Modifications are automatically applied proportionally to all</text>
  <text style="stroke:none;fill:black;font-family:sans-serif;font-size:13;" transform="matrix(1 0 0 1 776 2025)">scales and weights.</text>
  <g transform="matrix(0.2 0 0 0.2 1289 1933)">
   <path d="m14.209 9.32617 8.49609 8.54492c4.29688 4.3457 9.22852 4.05273 13.8672-1.07422l53.4668-58.9355-4.83398-4.88281-53.0762 58.3984c-1.75781 2.00195-3.41797 2.49023-5.76172 0.146484l-5.85938-5.81055c-2.34375-2.29492-1.80664-4.00391 0.195312-5.81055l57.373-54.0039-4.88281-4.83398-57.959 54.4434c-4.93164 4.58984-5.32227 9.47266-1.02539 13.8184Zm32.0801-90.9668c-2.09961 2.05078-2.24609 4.93164-1.07422 6.88477 1.17188 1.80664 3.4668 2.97852 6.68945 2.14844 7.32422-1.70898 14.9414-2.00195 22.0703 2.68555l-2.92969 7.27539c-1.70898 4.15039-0.830078 7.08008 1.85547 9.81445l11.4746 11.5723c2.44141 2.44141 4.49219 2.53906 7.32422 2.05078l5.32227-0.976562 3.32031 3.36914-0.195312 2.7832c-0.195312 2.49023 0.439453 4.39453 2.88086 6.78711l3.80859 3.71094c2.39258 2.39258 5.46875 2.53906 7.8125 0.195312l14.5508-14.5996c2.34375-2.34375 2.24609-5.32227-0.146484-7.71484l-3.85742-3.80859c-2.39258-2.39258-4.24805-3.17383-6.64062-2.97852l-2.88086 0.244141-3.22266-3.17383 1.2207-5.61523c0.634766-2.83203-0.146484-5.0293-3.07617-7.95898l-10.9863-10.9375c-16.6992-16.6016-38.8672-16.2109-53.3203-1.75781Zm7.4707 1.85547c12.1582-8.88672 28.6133-7.37305 39.7461 3.75977l12.1582 12.0605c1.17188 1.17188 1.36719 2.09961 1.02539 3.80859l-1.61133 7.42188 7.51953 7.42188 4.93164-0.292969c1.26953-0.0488281 1.66016 0.0488281 2.63672 1.02539l2.88086 2.88086-12.207 12.207-2.88086-2.88086c-0.976562-0.976562-1.12305-1.36719-1.07422-2.68555l0.341797-4.88281-7.4707-7.42188-7.61719 1.26953c-1.61133 0.341797-2.34375 0.195312-3.56445-0.976562l-10.0098-10.0098c-1.26953-1.17188-1.41602-2.00195-0.634766-3.85742l4.39453-10.4492c-7.8125-7.27539-17.9688-10.4004-28.125-7.42188-0.78125 0.195312-1.07422-0.439453-0.439453-0.976562Z"/>
  </g>
  <text style="stroke:none;fill:black;font-family:sans-serif;font-size:13;font-weight:bold;" transform="matrix(1 0 0 1 1289 1953)">Exporting</text>
  <text style="stroke:none;fill:black;font-family:sans-serif;font-size:13;" transform="matrix(1 0 0 1 1289 1971)">Symbols should be outlined when exporting to ensure the</text>
  <text style="stroke:none;fill:black;font-family:sans-serif;font-size:13;" transform="matrix(1 0 0 1 1289 1989)">design is preserved when submitting to Xcode.</text>
  <text id="template-version" style="stroke:none;fill:black;font-family:sans-serif;font-size:13;text-anchor:end;" transform="matrix(1 0 0 1 3036 1933)">Template v.6.0</text>
  <text style="stroke:none;fill:black;font-family:sans-serif;font-size:13;text-anchor:end;" transform="matrix(1 0 0 1 3036 1951)">Requires Xcode 16 or greater</text>
  <text id="descriptive-name" style="stroke:none;fill:black;font-family:sans-serif;font-size:13;text-anchor:end;" transform="matrix(1 0 0 1 3036 1969)">Generated from square</text>
  <text style="stroke:none;fill:black;font-family:sans-serif;font-size:13;text-anchor:end;" transform="matrix(1 0 0 1 3036 1987)">Typeset at 100.0 points</text>
  <text style="stroke:none;fill:black;font-family:sans-serif;font-size:13;" transform="matrix(1 0 0 1 263 726)">Small</text>
  <text style="stroke:none;fill:black;font-family:sans-serif;font-size:13;" transform="matrix(1 0 0 1 263 1156)">Medium</text>
  <text style="stroke:none;fill:black;font-family:sans-serif;font-size:13;" transform="matrix(1 0 0 1 263 1586)">Large</text>
 </g>
 <g id="Guides">
  <g id="H-reference" style="fill:#27AAE1;stroke:none;" transform="matrix(1 0 0 1 339 696)">
   <path d="M0.993654 0L3.63775 0L29.3281-67.1323L30.0303-67.1323L30.0303-70.459L28.1226-70.459ZM11.6885-24.4799L46.9815-24.4799L46.2315-26.7285L12.4385-26.7285ZM55.1196 0L57.7637 0L30.6382-70.459L29.4326-70.459L29.4326-67.1323Z"/>
  </g>
  <line id="Baseline-S" style="fill:none;stroke:#27AAE1;opacity:1;stroke-width:0.5;" x1="263" x2="3036" y1="696" y2="696"/>
  <line id="Capline-S" style="fill:none;stroke:#27AAE1;opacity:1;stroke-width:0.5;" x1="263" x2="3036" y1="625.541" y2="625.541"/>
  <g id="H-reference" style="fill:#27AAE1;stroke:none;" transform="matrix(1 0 0 1 339 1126)">
   <path d="M0.993654 0L3.63775 0L29.3281-67.1323L30.0303-67.1323L30.0303-70.459L28.1226-70.459ZM11.6885-24.4799L46.9815-24.4799L46.2315-26.7285L12.4385-26.7285ZM55.1196 0L57.7637 0L30.6382-70.459L29.4326-70.459L29.4326-67.1323Z"/>
  </g>
  <line id="Baseline-M" style="fill:none;stroke:#27AAE1;opacity:1;stroke-width:0.5;" x1="263" x2="3036" y1="1126" y2="1126"/>
  <line id="Capline-M" style="fill:none;stroke:#27AAE1;opacity:1;stroke-width:0.5;" x1="263" x2="3036" y1="1055.54" y2="1055.54"/>
  <g id="H-reference" style="fill:#27AAE1;stroke:none;" transform="matrix(1 0 0 1 339 1556)">
   <path d="M0.993654 0L3.63775 0L29.3281-67.1323L30.0303-67.1323L30.0303-70.459L28.1226-70.459ZM11.6885-24.4799L46.9815-24.4799L46.2315-26.7285L12.4385-26.7285ZM55.1196 0L57.7637 0L30.6382-70.459L29.4326-70.459L29.4326-67.1323Z"/>
  </g>
  <line id="Baseline-L" style="fill:none;stroke:#27AAE1;opacity:1;stroke-width:0.5;" x1="263" x2="3036" y1="1556" y2="1556"/>
  <line id="Capline-L" style="fill:none;stroke:#27AAE1;opacity:1;stroke-width:0.5;" x1="263" x2="3036" y1="1485.54" y2="1485.54"/>
  <line id="right-margin-Black-S" style="fill:none;stroke:#00AEEF;stroke-width:0.5;opacity:1.0;" x1="2981.3" x2="2981.3" y1="600.785" y2="720.121"/>
  <line id="left-margin-Black-S" style="fill:none;stroke:#00AEEF;stroke-width:0.5;opacity:1.0;" x1="2885.5" x2="2885.5" y1="600.785" y2="720.121"/>
  <line id="right-margin-Regular-S" style="fill:none;stroke:#00AEEF;stroke-width:0.5;opacity:1.0;" x1="1495.18" x2="1495.18" y1="600.785" y2="720.121"/>
  <line id="left-margin-Regular-S" style="fill:none;stroke:#00AEEF;stroke-width:0.5;opacity:1.0;" x1="1404.51" x2="1404.51" y1="600.785" y2="720.121"/>
  <line id="right-margin-Ultralight-S" style="fill:none;stroke:#00AEEF;stroke-width:0.5;opacity:1.0;" x1="603.073" x2="603.073" y1="600.785" y2="720.121"/>
  <line id="left-margin-Ultralight-S" style="fill:none;stroke:#00AEEF;stroke-width:0.5;opacity:1.0;" x1="516.35" x2="516.35" y1="600.785" y2="720.121"/>
 </g>
 <g id="Symbols">
  <g id="Black-S"><path d="M2941.95567,683.20163c-1.36805,0 -2.47707,1.10902 -2.47707,2.47707c0,1.36805 1.10902,2.47707 2.47707,2.47707c1.36805,0 2.47707,-1.10902 2.47707,-2.47707c0,-1.36805 -1.10902,-2.47707 -2.47707,-2.47707zM2957.35756,662.88963c-1.30734,-2.01193 -5.41791,-7.21792 -12.0083,-10.14362c-0.83487,-0.37248 -1.67799,-0.70597 -2.52937,-1.00046c1.13185,-2.76691 1.06542,-5.87933 -0.18347,-8.59542c-1.24889,-2.71609 -3.56835,-4.79255 -6.40555,-5.73445c-1.7078,-0.56422 -3.21056,-0.82569 -4.46011,-0.79404c-0.08257,-0.27523 -0.26009,-1.51377 1.29358,-4.81653l-3.15139,-1.86056l-0.75413,1.04037c-1.19588,1.65964 -2.32845,3.24084 -3.34955,4.80139c-0.37491,-0.08855 -0.75648,-0.14609 -1.14083,-0.17202c-5.71516,-0.33716 -5.36699,-0.32064 -5.65048,-0.32064c-6.96471,0 -6.98397,7.1725 -6.98397,6.31379l-0.32477,5.04773c-0.22156,3.71561 2.7179,6.90966 6.55461,7.13535l1.2289,0.07431c-2.33678,1.33174 -4.48011,2.97732 -6.37021,4.89084c-8.62159,8.71104 -8.62159,18.25328 -8.62159,25.92808v4.62938l3.20919,-4.10093c0.43018,1.8059 1.10427,3.54482 2.00368,5.16883c0.79542,1.39404 2.04634,1.30046 2.70276,1.00872c0.57936,-0.25734 1.37615,-0.9523 0.51606,-2.76744c-1.09961,-2.30922 -1.83139,-4.77618 -2.16882,-7.3115l6.44314,-8.23352l-3.39359,10.19866c8.01333,-5.83488 21.65788,-8.49911 32.51159,-5.31057c4.70644,1.38303 9.28215,0.09495 11.66151,-3.28075c0.09908,-0.13762 0.16514,-0.29725 0.25459,-0.44312c0.24776,1.28961 0.37674,2.59923 0.38532,3.9124c0,3.20643 -0.5078,7.28397 -2.04771,11.23491c-0.34679,0.88899 0.2422,1.99542 1.18349,2.16606c1.0211,0.21606 2.10964,-0.42661 2.52799,-1.53441c1.32111,-3.51607 2.00918,-7.50691 2.00918,-11.86656c0,-5.30919 -1.789,-10.65967 -4.94176,-15.26428zM2922.1666,643.23543l-2.16056,-0.12798l-0.19129,2.99864l1.80689,0.10734c-0.08009,0.89676 -0.06533,1.79947 0.04404,2.69313l-3.07983,-0.1844c-0.44808,-0.01859 -0.87041,-0.21452 -1.17395,-0.54465c-0.30354,-0.33013 -0.46342,-0.76738 -0.4444,-1.21545l0.33165,-5.04497c0.13762,-1.67478 1.90872,-1.55092 1.82478,-1.5578l4.00598,0.23807c-0.38294,0.85553 -0.70485,1.7371 -0.96331,2.63808zM2942.59145,666.93001c-0.60514,0.46893 -1.47088,0.38507 -1.97478,-0.19129l-1.33212,-1.5812l-4.73672,3.71561c-0.46813,0.36807 -1.14302,0.30258 -1.53166,-0.14862l-2.17157,-2.56515c-0.34143,-0.44401 -0.25893,-1.08063 0.1844,-1.42294l4.75736,-3.74038l-1.94588,-2.30368l-2.35184,1.85092c-0.44555,0.34736 -1.08469,0.28701 -1.45735,-0.13762c0,0 -0.51193,-0.60826 -0.52294,-0.6234c-0.34051,-0.44509 -0.25613,-1.08188 0.18853,-1.42294l2.32707,-1.82891c0,0 -2.54726,-3.02753 -2.55964,-3.0468c-0.21346,-0.27653 -0.30818,-0.62662 -0.26326,-0.97306c0.04492,-0.34644 0.22578,-0.66079 0.50271,-0.87374c0.60054,-0.47452 1.46838,-0.39138 1.9679,0.18853l11.15922,13.2551c0.21361,0.27698 0.3084,0.6275 0.26349,0.97439c-0.04491,0.34689 -0.22583,0.66171 -0.50294,0.87516zM2928.36892,683.20163c-1.36805,0 -2.47707,1.10902 -2.47707,2.47707c0,1.36805 1.10902,2.47707 2.47707,2.47707c1.36805,0 2.47707,-1.10902 2.47707,-2.47707c0,-1.36805 -1.10902,-2.47707 -2.47707,-2.47707z" className="SFSymbolsPreviewWireframe"/></g>
  <g id="Regular-S"><path d="M1458.40062,683.20163c-1.36805,0 -2.47707,1.10902 -2.47707,2.47707c0,1.36805 1.10902,2.47707 2.47707,2.47707c1.36805,0 2.47707,-1.10902 2.47707,-2.47707c0,-1.36805 -1.10902,-2.47707 -2.47707,-2.47707zM1473.80251,662.88963c-1.30734,-2.01193 -5.41791,-7.21792 -12.0083,-10.14362c-0.83487,-0.37248 -1.67799,-0.70597 -2.52937,-1.00046c1.13185,-2.76691 1.06542,-5.87933 -0.18347,-8.59542c-1.24889,-2.71609 -3.56835,-4.79255 -6.40555,-5.73445c-1.7078,-0.56422 -3.21056,-0.82569 -4.46011,-0.79404c-0.08257,-0.27523 -0.26009,-1.51377 1.29358,-4.81653l-3.15139,-1.86056l-0.75413,1.04037c-1.19588,1.65964 -2.32845,3.24084 -3.34955,4.80139c-0.37491,-0.08855 -0.75648,-0.14609 -1.14083,-0.17202c-5.71516,-0.33716 -5.36699,-0.32064 -5.65048,-0.32064c-6.96471,0 -6.98397,7.1725 -6.98397,6.31379l-0.32477,5.04773c-0.22156,3.71561 2.7179,6.90966 6.55461,7.13535l1.2289,0.07431c-2.33678,1.33174 -4.48011,2.97732 -6.37021,4.89084c-8.62159,8.71104 -8.62159,18.25328 -8.62159,25.92808v4.62938l3.20919,-4.10093c0.43018,1.8059 1.10427,3.54482 2.00368,5.16883c0.79542,1.39404 2.04634,1.30046 2.70276,1.00872c0.57936,-0.25734 1.37615,-0.9523 0.51606,-2.76744c-1.09961,-2.30922 -1.83139,-4.77618 -2.16882,-7.3115l6.44314,-8.23352l-3.39359,10.19866c8.01333,-5.83488 21.65788,-8.49911 32.51159,-5.31057c4.70644,1.38303 9.28215,0.09495 11.66151,-3.28075c0.09908,-0.13762 0.16514,-0.29725 0.25459,-0.44312c0.24776,1.28961 0.37674,2.59923 0.38532,3.9124c0,3.20643 -0.5078,7.28397 -2.04771,11.23491c-0.34679,0.88899 0.2422,1.99542 1.18349,2.16606c1.0211,0.21606 2.10964,-0.42661 2.52799,-1.53441c1.32111,-3.51607 2.00918,-7.50691 2.00918,-11.86656c0,-5.30919 -1.789,-10.65967 -4.94176,-15.26428zM1438.61155,643.23543l-2.16056,-0.12798l-0.19129,2.99864l1.80689,0.10734c-0.08009,0.89676 -0.06533,1.79947 0.04404,2.69313l-3.07983,-0.1844c-0.44808,-0.01859 -0.87041,-0.21452 -1.17395,-0.54465c-0.30354,-0.33013 -0.46342,-0.76738 -0.4444,-1.21545l0.33165,-5.04497c0.13762,-1.67478 1.90872,-1.55092 1.82478,-1.5578l4.00598,0.23807c-0.38294,0.85553 -0.70485,1.7371 -0.96331,2.63808zM1459.0364,666.93001c-0.60514,0.46893 -1.47088,0.38507 -1.97478,-0.19129l-1.33212,-1.5812l-4.73672,3.71561c-0.46813,0.36807 -1.14302,0.30258 -1.53166,-0.14862l-2.17157,-2.56515c-0.34143,-0.44401 -0.25893,-1.08063 0.1844,-1.42294l4.75736,-3.74038l-1.94588,-2.30368l-2.35184,1.85092c-0.44555,0.34736 -1.08469,0.28701 -1.45735,-0.13762c0,0 -0.51193,-0.60826 -0.52294,-0.6234c-0.34051,-0.44509 -0.25613,-1.08188 0.18853,-1.42294l2.32707,-1.82891c0,0 -2.54726,-3.02753 -2.55964,-3.0468c-0.21346,-0.27653 -0.30818,-0.62662 -0.26326,-0.97306c0.04492,-0.34644 0.22578,-0.66079 0.50271,-0.87374c0.60054,-0.47452 1.46838,-0.39138 1.9679,0.18853l11.15922,13.2551c0.21361,0.27698 0.3084,0.6275 0.26349,0.97439c-0.04491,0.34689 -0.22583,0.66171 -0.50294,0.87516zM1444.81387,683.20163c-1.36805,0 -2.47707,1.10902 -2.47707,2.47707c0,1.36805 1.10902,2.47707 2.47707,2.47707c1.36805,0 2.47707,-1.10902 2.47707,-2.47707c0,-1.36805 -1.10902,-2.47707 -2.47707,-2.47707z" className="SFSymbolsPreviewWireframe"/></g>
  <g id="Ultralight-S"><path d="M568.26703,683.20163c-1.36805,0 -2.47707,1.10902 -2.47707,2.47707c0,1.36805 1.10902,2.47707 2.47707,2.47707c1.36805,0 2.47707,-1.10902 2.47707,-2.47707c0,-1.36805 -1.10902,-2.47707 -2.47707,-2.47707zM583.66892,662.88963c-1.30734,-2.01193 -5.41791,-7.21792 -12.0083,-10.14362c-0.83487,-0.37248 -1.67799,-0.70597 -2.52937,-1.00046c1.13185,-2.76691 1.06542,-5.87933 -0.18347,-8.59542c-1.24889,-2.71609 -3.56835,-4.79255 -6.40555,-5.73445c-1.7078,-0.56422 -3.21056,-0.82569 -4.46011,-0.79404c-0.08257,-0.27523 -0.26009,-1.51377 1.29358,-4.81653l-3.15139,-1.86056l-0.75413,1.04037c-1.19588,1.65964 -2.32845,3.24084 -3.34955,4.80139c-0.37491,-0.08855 -0.75648,-0.14609 -1.14083,-0.17202c-5.71516,-0.33716 -5.36699,-0.32064 -5.65048,-0.32064c-6.96471,0 -6.98397,7.1725 -6.98397,6.31379l-0.32477,5.04773c-0.22156,3.71561 2.7179,6.90966 6.55461,7.13535l1.2289,0.07431c-2.33678,1.33174 -4.48011,2.97732 -6.37021,4.89084c-8.62159,8.71104 -8.62159,18.25328 -8.62159,25.92808v4.62938l3.20919,-4.10093c0.43018,1.8059 1.10427,3.54482 2.00368,5.16883c0.79542,1.39404 2.04634,1.30046 2.70276,1.00872c0.57936,-0.25734 1.37615,-0.9523 0.51606,-2.76744c-1.09961,-2.30922 -1.83139,-4.77618 -2.16882,-7.3115l6.44314,-8.23352l-3.39359,10.19866c8.01333,-5.83488 21.65788,-8.49911 32.51159,-5.31057c4.70644,1.38303 9.28215,0.09495 11.66151,-3.28075c0.09908,-0.13762 0.16514,-0.29725 0.25459,-0.44312c0.24776,1.28961 0.37674,2.59923 0.38532,3.9124c0,3.20643 -0.5078,7.28397 -2.04771,11.23491c-0.34679,0.88899 0.2422,1.99542 1.18349,2.16606c1.0211,0.21606 2.10964,-0.42661 2.52799,-1.53441c1.32111,-3.51607 2.00918,-7.50691 2.00918,-11.86656c0,-5.30919 -1.789,-10.65967 -4.94176,-15.26428zM548.47796,643.23543l-2.16056,-0.12798l-0.19129,2.99864l1.80689,0.10734c-0.08009,0.89676 -0.06533,1.79947 0.04404,2.69313l-3.07983,-0.1844c-0.44808,-0.01859 -0.87041,-0.21452 -1.17395,-0.54465c-0.30354,-0.33013 -0.46342,-0.76738 -0.4444,-1.21545l0.33165,-5.04497c0.13762,-1.67478 1.90872,-1.55092 1.82478,-1.5578l4.00598,0.23807c-0.38294,0.85553 -0.70485,1.7371 -0.96331,2.63808zM568.90281,666.93001c-0.60514,0.46893 -1.47088,0.38507 -1.97478,-0.19129l-1.33212,-1.5812l-4.73672,3.71561c-0.46813,0.36807 -1.14302,0.30258 -1.53166,-0.14862l-2.17157,-2.56515c-0.34143,-0.44401 -0.25893,-1.08063 0.1844,-1.42294l4.75736,-3.74038l-1.94588,-2.30368l-2.35184,1.85092c-0.44555,0.34736 -1.08469,0.28701 -1.45735,-0.13762c0,0 -0.51193,-0.60826 -0.52294,-0.6234c-0.34051,-0.44509 -0.25613,-1.08188 0.18853,-1.42294l2.32707,-1.82891c0,0 -2.54726,-3.02753 -2.55964,-3.0468c-0.21346,-0.27653 -0.30818,-0.62662 -0.26326,-0.97306c0.04492,-0.34644 0.22578,-0.66079 0.50271,-0.87374c0.60054,-0.47452 1.46838,-0.39138 1.9679,0.18853l11.15922,13.2551c0.21361,0.27698 0.3084,0.6275 0.26349,0.97439c-0.04491,0.34689 -0.22583,0.66171 -0.50294,0.87516zM554.68028,683.20163c-1.36805,0 -2.47707,1.10902 -2.47707,2.47707c0,1.36805 1.10902,2.47707 2.47707,2.47707c1.36805,0 2.47707,-1.10902 2.47707,-2.47707c0,-1.36805 -1.10902,-2.47707 -2.47707,-2.47707z" className="SFSymbolsPreviewWireframe"/></g>
 </g>
</svg>