<?xml version="1.0" encoding="UTF-8"?><!--Generator: https://SymbolKit.app--><!DOCTYPE svg PUBLIC "-//W3C//DTD SVG 1.1//EN" "http://www.w3.org/Graphics/SVG/1.1/DTD/svg11.dtd"><svg xmlns="http://www.w3.org/2000/svg" xmlns:xlink="http://www.w3.org/1999/xlink" version="1.1" viewBox="0 0 3300 2200">
 <!--glyph: "100092", point size: 100.0, font version: "20.0d10e1", template writer version: "138.0.0"-->
 <style>.SFSymbolsPreviewWireframe {fill:none;opacity:1.0;stroke:black;stroke-width:0.5}
</style>
 <g id="Notes">
  <rect height="2200" id="artboard" style="fill:white;opacity:1" width="3300" x="0" y="0"/>
  <line style="fill:none;stroke:black;opacity:1;stroke-width:0.5;" x1="263" x2="3036" y1="292" y2="292"/>
  <text style="stroke:none;fill:black;font-family:sans-serif;font-size:13;font-weight:bold;" transform="matrix(1 0 0 1 263 322)">Weight/Scale Variations</text>
  <text style="stroke:none;fill:black;font-family:sans-serif;font-size:13;text-anchor:middle;" transform="matrix(1 0 0 1 559.711 322)">Ultralight</text>
  <text style="stroke:none;fill:black;font-family:sans-serif;font-size:13;text-anchor:middle;" transform="matrix(1 0 0 1 856.422 322)">Thin</text>
  <text style="stroke:none;fill:black;font-family:sans-serif;font-size:13;text-anchor:middle;" transform="matrix(1 0 0 1 1153.13 322)">Light</text>
  <text style="stroke:none;fill:black;font-family:sans-serif;font-size:13;text-anchor:middle;" transform="matrix(1 0 0 1 1449.84 322)">Regular</text>
  <text style="stroke:none;fill:black;font-family:sans-serif;font-size:13;text-anchor:middle;" transform="matrix(1 0 0 1 1746.56 322)">Medium</text>
  <text style="stroke:none;fill:black;font-family:sans-serif;font-size:13;text-anchor:middle;" transform="matrix(1 0 0 1 2043.27 322)">Semibold</text>
  <text style="stroke:none;fill:black;font-family:sans-serif;font-size:13;text-anchor:middle;" transform="matrix(1 0 0 1 2339.98 322)">Bold</text>
  <text style="stroke:none;fill:black;font-family:sans-serif;font-size:13;text-anchor:middle;" transform="matrix(1 0 0 1 2636.69 322)">Heavy</text>
  <text style="stroke:none;fill:black;font-family:sans-serif;font-size:13;text-anchor:middle;" transform="matrix(1 0 0 1 2933.4 322)">Black</text>
  <line style="fill:none;stroke:black;opacity:1;stroke-width:0.5;" x1="263" x2="3036" y1="1903" y2="1903"/>
  <g transform="matrix(0.2 0 0 0.2 263 1933)">
   <path d="m46.2402 4.15039c21.7773 0 39.4531-17.627 39.4531-39.4043s-17.6758-39.4043-39.4531-39.4043c-21.7285 0-39.4043 17.627-39.4043 39.4043s17.6758 39.4043 39.4043 39.4043Zm0-7.42188c-17.6758 0-31.9336-14.3066-31.9336-31.9824s14.2578-31.9824 31.9336-31.9824 31.9824 14.3066 31.9824 31.9824-14.3066 31.9824-31.9824 31.9824Zm-17.9688-31.9824c0 2.14844 1.51367 3.61328 3.75977 3.61328h10.498v10.5957c0 2.19727 1.46484 3.71094 3.61328 3.71094 2.24609 0 3.71094-1.51367 3.71094-3.71094v-10.5957h10.5957c2.19727 0 3.71094-1.46484 3.71094-3.61328 0-2.19727-1.51367-3.71094-3.71094-3.71094h-10.5957v-10.5469c0-2.24609-1.46484-3.75977-3.71094-3.75977-2.14844 0-3.61328 1.51367-3.61328 3.75977v10.5469h-10.498c-2.24609 0-3.75977 1.51367-3.75977 3.71094Z"/>
  </g>
  <g transform="matrix(0.2 0 0 0.2 281.506 1933)">
   <path d="m58.5449 14.5508c27.4902 0 49.8047-22.3145 49.8047-49.8047s-22.3145-49.8047-49.8047-49.8047-49.8047 22.3145-49.8047 49.8047 22.3145 49.8047 49.8047 49.8047Zm0-8.30078c-22.9492 0-41.5039-18.5547-41.5039-41.5039s18.5547-41.5039 41.5039-41.5039 41.5039 18.5547 41.5039 41.5039-18.5547 41.5039-41.5039 41.5039Zm-22.6562-41.5039c0 2.39258 1.66016 4.00391 4.15039 4.00391h14.3555v14.4043c0 2.44141 1.66016 4.15039 4.05273 4.15039 2.44141 0 4.15039-1.66016 4.15039-4.15039v-14.4043h14.4043c2.44141 0 4.15039-1.61133 4.15039-4.00391 0-2.44141-1.70898-4.15039-4.15039-4.15039h-14.4043v-14.3555c0-2.49023-1.70898-4.19922-4.15039-4.19922-2.39258 0-4.05273 1.70898-4.05273 4.19922v14.3555h-14.3555c-2.49023 0-4.15039 1.70898-4.15039 4.15039Z"/>
  </g>
  <g transform="matrix(0.2 0 0 0.2 304.924 1933)">
   <path d="m74.8535 28.3203c35.1074 0 63.623-28.4668 63.623-63.5742s-28.5156-63.623-63.623-63.623-63.5742 28.5156-63.5742 63.623 28.4668 63.5742 63.5742 63.5742Zm0-9.08203c-30.127 0-54.4922-24.3652-54.4922-54.4922s24.3652-54.4922 54.4922-54.4922 54.4922 24.3652 54.4922 54.4922-24.3652 54.4922-54.4922 54.4922Zm-28.8574-54.4922c0 2.58789 1.85547 4.39453 4.58984 4.39453h19.7266v19.7754c0 2.68555 1.85547 4.58984 4.44336 4.58984 2.68555 0 4.54102-1.85547 4.54102-4.58984v-19.7754h19.7754c2.68555 0 4.58984-1.80664 4.58984-4.39453 0-2.73438-1.85547-4.58984-4.58984-4.58984h-19.7754v-19.7266c0-2.73438-1.85547-4.63867-4.54102-4.63867-2.58789 0-4.44336 1.9043-4.44336 4.63867v19.7266h-19.7266c-2.73438 0-4.58984 1.85547-4.58984 4.58984Z"/>
  </g>
  <text style="stroke:none;fill:black;font-family:sans-serif;font-size:13;font-weight:bold;" transform="matrix(1 0 0 1 263 1953)">Design Variations</text>
  <text style="stroke:none;fill:black;font-family:sans-serif;font-size:13;" transform="matrix(1 0 0 1 263 1971)">Symbols are supported in up to nine weights and three scales.</text>
  <text style="stroke:none;fill:black;font-family:sans-serif;font-size:13;" transform="matrix(1 0 0 1 263 1989)">For optimal layout with text and other symbols, vertically align</text>
  <text style="stroke:none;fill:black;font-family:sans-serif;font-size:13;" transform="matrix(1 0 0 1 263 2007)">symbols with the adjacent text.</text>
  <line style="fill:none;stroke:#00AEEF;stroke-width:0.5;opacity:1.0;" x1="776" x2="776" y1="1919" y2="1933"/>
  <g transform="matrix(0.2 0 0 0.2 776 1933)">
   <path d="m16.5527 0.78125c2.58789 0 3.85742-0.976562 4.78516-3.71094l6.29883-17.2363h28.8086l6.29883 17.2363c0.927734 2.73438 2.19727 3.71094 4.73633 3.71094 2.58789 0 4.24805-1.5625 4.24805-4.00391 0-0.830078-0.146484-1.61133-0.537109-2.63672l-22.9004-60.9863c-1.12305-2.97852-3.125-4.49219-6.25-4.49219-3.02734 0-5.07812 1.46484-6.15234 4.44336l-22.9004 61.084c-0.390625 1.02539-0.537109 1.80664-0.537109 2.63672 0 2.44141 1.5625 3.95508 4.10156 3.95508Zm13.4766-28.3691 11.8652-32.8613h0.244141l11.8652 32.8613Z"/>
  </g>
  <line style="fill:none;stroke:#00AEEF;stroke-width:0.5;opacity:1.0;" x1="792.836" x2="792.836" y1="1919" y2="1933"/>
  <text style="stroke:none;fill:black;font-family:sans-serif;font-size:13;font-weight:bold;" transform="matrix(1 0 0 1 776 1953)">Margins</text>
  <text style="stroke:none;fill:black;font-family:sans-serif;font-size:13;" transform="matrix(1 0 0 1 776 1971)">Leading and trailing margins on the left and right side of each symbol</text>
  <text style="stroke:none;fill:black;font-family:sans-serif;font-size:13;" transform="matrix(1 0 0 1 776 1989)">can be adjusted by modifying the x-location of the margin guidelines.</text>
  <text style="stroke:none;fill:black;font-family:sans-serif;font-size:13;" transform="matrix(1 0 0 1 776 2007)">Modifications are automatically applied proportionally to all</text>
  <text style="stroke:none;fill:black;font-family:sans-serif;font-size:13;" transform="matrix(1 0 0 1 776 2025)">scales and weights.</text>
  <g transform="matrix(0.2 0 0 0.2 1289 1933)">
   <path d="m14.209 9.32617 8.49609 8.54492c4.29688 4.3457 9.22852 4.05273 13.8672-1.07422l53.4668-58.9355-4.83398-4.88281-53.0762 58.3984c-1.75781 2.00195-3.41797 2.49023-5.76172 0.146484l-5.85938-5.81055c-2.34375-2.29492-1.80664-4.00391 0.195312-5.81055l57.373-54.0039-4.88281-4.83398-57.959 54.4434c-4.93164 4.58984-5.32227 9.47266-1.02539 13.8184Zm32.0801-90.9668c-2.09961 2.05078-2.24609 4.93164-1.07422 6.88477 1.17188 1.80664 3.4668 2.97852 6.68945 2.14844 7.32422-1.70898 14.9414-2.00195 22.0703 2.68555l-2.92969 7.27539c-1.70898 4.15039-0.830078 7.08008 1.85547 9.81445l11.4746 11.5723c2.44141 2.44141 4.49219 2.53906 7.32422 2.05078l5.32227-0.976562 3.32031 3.36914-0.195312 2.7832c-0.195312 2.49023 0.439453 4.39453 2.88086 6.78711l3.80859 3.71094c2.39258 2.39258 5.46875 2.53906 7.8125 0.195312l14.5508-14.5996c2.34375-2.34375 2.24609-5.32227-0.146484-7.71484l-3.85742-3.80859c-2.39258-2.39258-4.24805-3.17383-6.64062-2.97852l-2.88086 0.244141-3.22266-3.17383 1.2207-5.61523c0.634766-2.83203-0.146484-5.0293-3.07617-7.95898l-10.9863-10.9375c-16.6992-16.6016-38.8672-16.2109-53.3203-1.75781Zm7.4707 1.85547c12.1582-8.88672 28.6133-7.37305 39.7461 3.75977l12.1582 12.0605c1.17188 1.17188 1.36719 2.09961 1.02539 3.80859l-1.61133 7.42188 7.51953 7.42188 4.93164-0.292969c1.26953-0.0488281 1.66016 0.0488281 2.63672 1.02539l2.88086 2.88086-12.207 12.207-2.88086-2.88086c-0.976562-0.976562-1.12305-1.36719-1.07422-2.68555l0.341797-4.88281-7.4707-7.42188-7.61719 1.26953c-1.61133 0.341797-2.34375 0.195312-3.56445-0.976562l-10.0098-10.0098c-1.26953-1.17188-1.41602-2.00195-0.634766-3.85742l4.39453-10.4492c-7.8125-7.27539-17.9688-10.4004-28.125-7.42188-0.78125 0.195312-1.07422-0.439453-0.439453-0.976562Z"/>
  </g>
  <text style="stroke:none;fill:black;font-family:sans-serif;font-size:13;font-weight:bold;" transform="matrix(1 0 0 1 1289 1953)">Exporting</text>
  <text style="stroke:none;fill:black;font-family:sans-serif;font-size:13;" transform="matrix(1 0 0 1 1289 1971)">Symbols should be outlined when exporting to ensure the</text>
  <text style="stroke:none;fill:black;font-family:sans-serif;font-size:13;" transform="matrix(1 0 0 1 1289 1989)">design is preserved when submitting to Xcode.</text>
  <text id="template-version" style="stroke:none;fill:black;font-family:sans-serif;font-size:13;text-anchor:end;" transform="matrix(1 0 0 1 3036 1933)">Template v.6.0</text>
  <text style="stroke:none;fill:black;font-family:sans-serif;font-size:13;text-anchor:end;" transform="matrix(1 0 0 1 3036 1951)">Requires Xcode 16 or greater</text>
  <text id="descriptive-name" style="stroke:none;fill:black;font-family:sans-serif;font-size:13;text-anchor:end;" transform="matrix(1 0 0 1 3036 1969)">Generated from square</text>
  <text style="stroke:none;fill:black;font-family:sans-serif;font-size:13;text-anchor:end;" transform="matrix(1 0 0 1 3036 1987)">Typeset at 100.0 points</text>
  <text style="stroke:none;fill:black;font-family:sans-serif;font-size:13;" transform="matrix(1 0 0 1 263 726)">Small</text>
  <text style="stroke:none;fill:black;font-family:sans-serif;font-size:13;" transform="matrix(1 0 0 1 263 1156)">Medium</text>
  <text style="stroke:none;fill:black;font-family:sans-serif;font-size:13;" transform="matrix(1 0 0 1 263 1586)">Large</text>
 </g>
 <g id="Guides">
  <g id="H-reference" style="fill:#27AAE1;stroke:none;" transform="matrix(1 0 0 1 339 696)">
   <path d="M0.993654 0L3.63775 0L29.3281-67.1323L30.0303-67.1323L30.0303-70.459L28.1226-70.459ZM11.6885-24.4799L46.9815-24.4799L46.2315-26.7285L12.4385-26.7285ZM55.1196 0L57.7637 0L30.6382-70.459L29.4326-70.459L29.4326-67.1323Z"/>
  </g>
  <line id="Baseline-S" style="fill:none;stroke:#27AAE1;opacity:1;stroke-width:0.5;" x1="263" x2="3036" y1="696" y2="696"/>
  <line id="Capline-S" style="fill:none;stroke:#27AAE1;opacity:1;stroke-width:0.5;" x1="263" x2="3036" y1="625.541" y2="625.541"/>
  <g id="H-reference" style="fill:#27AAE1;stroke:none;" transform="matrix(1 0 0 1 339 1126)">
   <path d="M0.993654 0L3.63775 0L29.3281-67.1323L30.0303-67.1323L30.0303-70.459L28.1226-70.459ZM11.6885-24.4799L46.9815-24.4799L46.2315-26.7285L12.4385-26.7285ZM55.1196 0L57.7637 0L30.6382-70.459L29.4326-70.459L29.4326-67.1323Z"/>
  </g>
  <line id="Baseline-M" style="fill:none;stroke:#27AAE1;opacity:1;stroke-width:0.5;" x1="263" x2="3036" y1="1126" y2="1126"/>
  <line id="Capline-M" style="fill:none;stroke:#27AAE1;opacity:1;stroke-width:0.5;" x1="263" x2="3036" y1="1055.54" y2="1055.54"/>
  <g id="H-reference" style="fill:#27AAE1;stroke:none;" transform="matrix(1 0 0 1 339 1556)">
   <path d="M0.993654 0L3.63775 0L29.3281-67.1323L30.0303-67.1323L30.0303-70.459L28.1226-70.459ZM11.6885-24.4799L46.9815-24.4799L46.2315-26.7285L12.4385-26.7285ZM55.1196 0L57.7637 0L30.6382-70.459L29.4326-70.459L29.4326-67.1323Z"/>
  </g>
  <line id="Baseline-L" style="fill:none;stroke:#27AAE1;opacity:1;stroke-width:0.5;" x1="263" x2="3036" y1="1556" y2="1556"/>
  <line id="Capline-L" style="fill:none;stroke:#27AAE1;opacity:1;stroke-width:0.5;" x1="263" x2="3036" y1="1485.54" y2="1485.54"/>
  <line id="right-margin-Black-S" style="fill:none;stroke:#00AEEF;stroke-width:0.5;opacity:1.0;" x1="2981.3" x2="2981.3" y1="600.785" y2="720.121"/>
  <line id="left-margin-Black-S" style="fill:none;stroke:#00AEEF;stroke-width:0.5;opacity:1.0;" x1="2885.5" x2="2885.5" y1="600.785" y2="720.121"/>
  <line id="right-margin-Regular-S" style="fill:none;stroke:#00AEEF;stroke-width:0.5;opacity:1.0;" x1="1495.18" x2="1495.18" y1="600.785" y2="720.121"/>
  <line id="left-margin-Regular-S" style="fill:none;stroke:#00AEEF;stroke-width:0.5;opacity:1.0;" x1="1404.51" x2="1404.51" y1="600.785" y2="720.121"/>
  <line id="right-margin-Ultralight-S" style="fill:none;stroke:#00AEEF;stroke-width:0.5;opacity:1.0;" x1="603.073" x2="603.073" y1="600.785" y2="720.121"/>
  <line id="left-margin-Ultralight-S" style="fill:none;stroke:#00AEEF;stroke-width:0.5;opacity:1.0;" x1="516.35" x2="516.35" y1="600.785" y2="720.121"/>
 </g>
 <g id="Symbols">
  <g id="Black-S"><path d="M2934.47925,695.98685c-0.13762,-0.44863 -0.23257,-2.17845 -0.19129,-3.38258c0.07569,-2.18671 0.13762,-3.40185 0.19266,-3.95781c0.08807,-0.85321 0.39496,-2.85139 0.45138,-2.94221c0.08257,-0.13762 0.05505,-3.83534 -0.03303,-4.55919c-0.04266,-0.35505 -0.0867,-1.63762 -0.09495,-2.85276c-0.01789,-2.26652 -0.07294,-2.76882 -0.37569,-3.40735c-0.15138,-0.31927 -0.16927,-0.52844 -0.13762,-1.57294c0.02459,-0.58341 0.00896,-1.16783 -0.04679,-1.74909c-0.27523,-1.789 -0.47615,-3.81194 -0.44725,-4.66516c0.0289,-0.85321 0.05917,-0.98395 0.28349,-1.33074c0.41973,-0.64817 0.89587,-1.92661 1.18624,-3.20231c0.31101,-1.35689 0.53395,-2.36423 0.63165,-2.85414c0.153,-0.70402 0.35627,-1.39616 0.60826,-2.07111c0.31239,-0.8601 0.34266,-2.1179 0.05092,-2.1179c-0.04128,0 -0.18991,0.16789 -0.33165,0.37294c-0.14174,0.20505 -0.65505,0.66055 -1.14083,1.01285c-1.15184,0.8367 -1.6101,1.29221 -1.74221,1.7312c-0.13211,0.43899 -0.13762,0.99496 -0.02202,1.06789c0.04679,0.0289 0.17752,0.33028 0.29037,0.67156c0.22378,0.68263 0.25803,1.4132 0.09908,2.11377c-0.05367,0.24358 -0.13762,0.75276 -0.20092,1.13257c-0.0633,0.37982 -0.13762,0.88899 -0.17202,1.1312c-0.02456,0.20934 -0.09759,0.41007 -0.2133,0.58624c-0.13762,0.13762 -0.15688,0.12523 -0.28211,-0.07294c-0.10221,-0.20525 -0.1692,-0.42622 -0.19817,-0.65367c-0.0344,-0.23945 -0.22431,-0.97844 -0.42385,-1.64175c-0.45138,-1.50001 -0.48441,-2.22249 -0.13762,-2.88992c0.11271,-0.19659 0.19047,-0.41124 0.22982,-0.63441c0,-0.3289 -0.30275,-0.73211 -1.01973,-1.36101c-0.96331,-0.85046 -1.18762,-1.08991 -1.4078,-1.55505c-0.23532,-0.49541 -0.4211,-0.55872 -0.62477,-0.21193c-0.24496,0.41285 -0.3578,1.25367 -0.41285,3.02753l-0.04679,1.67753l0.27523,0.30963c0.44174,0.50918 1.66102,2.26377 1.89634,2.72891c0.46927,0.92753 0.59725,1.60872 0.60688,3.24221c0.00963,1.63349 0.13073,3.13075 0.27523,3.40047c0.04954,0.09083 0.07018,0.18578 0.04679,0.20918c-0.02339,0.02339 0.05642,0.28762 0.17752,0.58762c0.1443,0.39984 0.23949,0.81573 0.28349,1.23854c0.05088,0.47983 0.12945,0.95631 0.23532,1.42707c0.30688,1.3156 0.38119,1.93762 0.3289,2.77157c-0.02752,0.45 -0.07294,1.5234 -0.10046,2.3835c-0.18028,5.74681 -0.25459,7.98168 -0.27523,8.42343c-0.01651,0.27523 -0.05367,1.58395 -0.08257,2.89955c-0.04954,2.24313 -0.1789,3.76653 -0.33303,3.94268c-0.08807,0.10046 -1.11055,-0.67569 -1.72294,-1.30597c-0.51606,-0.53257 -0.55046,-0.65918 -0.38945,-1.36927c0.09633,-0.41285 0.31101,-2.51698 0.45826,-4.48901c0.04954,-0.6578 0.11147,-1.44496 0.13762,-1.74909c0.11422,-1.28945 0.22844,-2.80047 0.35918,-4.78626c0.07706,-1.16422 0.18303,-2.26239 0.2367,-2.43992c0.05367,-0.17752 0.12248,-1.36101 0.15551,-2.62983l0.05917,-2.30781l-0.31101,-0.59175c-0.2367,-0.45138 -0.67019,-0.95505 -1.81927,-2.11102c-0.82569,-0.83532 -1.62936,-1.69267 -1.77661,-1.90597l-0.26835,-0.3867l0.10321,-1.50001c0.15,-2.16193 0.15138,-6.68397 0,-8.12755l-0.12248,-1.19725l-0.45138,-0.62202c-0.80643,-1.11193 -0.79817,-1.06652 -0.85597,-4.57846c-0.01376,-0.83532 -0.05229,-1.58257 -0.0867,-1.65964c-0.11422,-0.25734 -0.41973,-0.36606 -1.17523,-0.41973c-1.21927,-0.08532 -1.51377,-0.26147 -3.28212,-2.0023c-0.84633,-0.82569 -1.69817,-1.65138 -1.89221,-1.81514c-0.3867,-0.33303 -0.38395,-0.27523 -0.07706,-1.32523l0.18578,-0.63991l-0.23257,-0.41285c-0.10464,-0.19534 -0.22379,-0.38256 -0.35642,-0.56009c-0.18303,-0.2078 -0.75688,-1.49863 -0.82569,-1.85643c-0.05218,-0.18767 -0.00726,-0.389 0.11973,-0.5367c0.30688,-0.39358 0.46789,-0.78165 0.61239,-1.47661c0.32064,-1.53991 1.06514,-3.59038 1.45872,-4.02112c0.43762,-0.47752 1.05964,-0.13762 1.29496,0.68808c0.1844,0.65918 0.18853,1.34725 0.01376,2.55276c-0.07395,0.50672 -0.11989,1.01713 -0.13762,1.5289c0,0.55046 0.02615,0.64542 0.30963,1.01698c0.45826,0.60138 1.06377,1.01973 2.09175,1.44771c0.23473,0.09787 0.45363,0.23004 0.64954,0.3922c1.53716,1.47523 2.5624,2.22661 3.15827,2.31882c0.71285,0.11009 1.10092,0.62477 1.37615,1.84267c0.18028,0.77753 0.55046,1.53303 0.75138,1.53303c0.16369,-0.0335 0.31933,-0.09847 0.45826,-0.19129c0.27523,-0.16789 0.30963,-0.23807 0.30963,-0.57523c-0.0363,-0.82362 -0.12825,-1.64384 -0.27523,-2.45506c-0.05092,-0.22844 -0.10734,-0.55872 -0.12798,-0.73624c-0.02064,-0.17752 -0.08395,-0.52982 -0.13762,-0.78303c-0.35092,-1.53579 -0.5023,-2.12753 -0.56422,-2.20184c-0.2133,-0.27523 -0.56147,-1.40368 -0.67844,-2.19083c-0.22569,-1.5289 -0.55046,-1.95826 -1.77661,-2.39313c-0.67234,-0.24775 -1.2943,-0.61514 -1.83579,-1.08441c-0.15826,-0.13762 -0.55046,-0.44312 -0.87386,-0.69633c-0.3234,-0.25321 -0.60688,-0.48578 -0.63303,-0.51743c-0.11644,-0.10074 -0.24018,-0.19274 -0.37018,-0.27523c-0.85872,-0.58074 -1.21652,-0.96331 -1.54955,-1.65138l-0.33578,-0.68808l-0.03028,-1.789l-0.03028,-1.789l0.95092,-0.90138c0.54358,-0.51606 1.16698,-1.01147 1.45735,-1.1601c0.45551,-0.23257 0.61239,-0.26009 1.56468,-0.27523c1.17386,-0.02615 1.39267,0 1.60459,0.21468c0.21193,0.21468 0.18716,0.88074 -0.03991,1.16973c-0.08246,0.09283 -0.1452,0.20145 -0.1844,0.31927c0,0.07982 -0.35918,0.67569 -0.74587,1.23854c-0.14562,0.29877 -0.25511,0.61384 -0.32615,0.93854c2.81285,1.84267 2.96561,0.51881 1.93625,3.99084l1.56331,0.34679c0.42798,-1.19175 0.89037,-2.37524 1.18487,-3.60827c0.03991,-1.05 -1.65138,-0.57661 -2.11927,-1.1945c-0.32064,-0.81606 0.43074,-1.95138 0.83395,-2.64221c0.22018,-0.32202 0.91101,-0.64679 1.21377,-0.5711c0.1211,0.03028 0.57248,-0.04817 1.01422,-0.17615c0.33911,-0.10654 0.68671,-0.18389 1.03899,-0.23119c0.28064,-0.03038 0.55736,-0.08987 0.82569,-0.17752c0.5023,-0.15275 0.61927,-0.16101 0.87386,-0.05505c0.25996,0.0893 0.52831,0.15201 0.80092,0.18716c0.28842,0.03892 0.56784,0.12787 0.82569,0.26285c0.21651,0.12685 0.44754,0.22712 0.68808,0.29862c0.34541,0.09358 0.41285,0.07844 0.97019,-0.22982l0.59863,-0.33028l1.47799,-0.05367c1.4367,-0.05505 1.48762,-0.06468 2.10001,-0.36881l0.63028,-0.31927l0.33853,0.19679c0.2422,0.13762 0.43211,0.37569 0.66743,0.82569c0.32477,0.62064 0.32752,0.63028 0.18853,1.01422c-0.1211,0.33578 -0.12248,0.45413 -0.01376,0.87936c0.07232,0.27904 0.16903,0.55119 0.28899,0.81331c0.0884,0.17298 0.14922,0.3587 0.18028,0.55046c0.04266,0.59587 0,0.72936 -0.33165,0.9523c-0.29862,0.20229 -0.96331,1.08854 -0.96331,1.28533c-0.03406,0.14252 -0.08343,0.28094 -0.14725,0.41285c-0.68808,1.58395 -0.93028,1.86606 -1.96239,2.33946c-1.26606,0.57798 -1.69267,0.71422 -2.23074,0.71422c-0.42661,0 -0.55046,0.0344 -0.62477,0.1734c-0.16076,0.19763 -0.35053,0.36977 -0.56285,0.51055c-0.25094,0.16755 -0.45771,0.39321 -0.60275,0.6578c-0.06642,0.16793 -0.18702,0.30887 -0.34266,0.40046c-0.12827,0.0528 -0.24337,0.13313 -0.33716,0.23532c-0.30463,0.26751 -0.62642,0.51483 -0.96331,0.74037c-0.45826,0.32202 -0.94542,0.68808 -1.08303,0.82569c-0.0922,0.09937 -0.20363,0.17896 -0.32752,0.23395c-0.11428,0.05145 -0.21474,0.12927 -0.29312,0.22707c-0.18028,0.19129 -0.20505,0.29037 -0.15688,0.63303c0.04261,0.27467 0.10797,0.54533 0.19541,0.80918c0.18165,0.52294 0.18028,1.08166 0,1.45459c-0.18028,0.37294 -0.12248,0.91514 0.18578,1.31973c0.27523,0.36193 0.29725,0.62753 0.09771,1.21652c-0.10347,0.40031 -0.15254,0.81274 -0.14587,1.22615c0,0.67156 0.03028,0.86422 0.20092,1.15322c0.17064,0.28899 0.25046,0.34129 0.44587,0.31927c0.27523,-0.03165 0.31651,-0.1445 0.64817,-1.6679c0.3,-1.37615 0.51055,-1.64037 1.89359,-2.35047c0.40459,-0.2078 1.02661,-0.55046 1.37615,-0.74863c0.34954,-0.19817 0.93441,-0.5078 1.28945,-0.67569c0.81782,-0.35798 1.53655,-0.90907 2.0945,-1.60597c0.97844,-1.20964 1.37615,-2.23212 1.76836,-4.58259c0.04893,-0.37982 0.18351,-0.74357 0.39358,-1.06377c0.19656,-0.30635 0.33164,-0.64802 0.39771,-1.00597c0.13762,-0.72936 0.3922,-1.24955 0.76789,-1.58395c0.64679,-0.57523 0.82569,-0.15 0.63165,1.49588c-0.0633,0.53119 -0.15138,1.42157 -0.19817,1.97891l-0.08395,1.01285l0.61239,0.56285l0.61239,0.56285l0.01514,1.15872c0.00826,0.63716 0.06468,1.31147 0.12661,1.49863l0.11284,0.33991l-0.88487,0.86422c-1.17523,1.14633 -1.77248,1.91698 -2.30643,2.97386c-0.24358,0.48028 -0.51468,0.97844 -0.60275,1.10092c-0.3,0.42798 -0.88899,1.789 -1.20551,2.78808l-0.31514,0.99358l-0.96331,0.89312c-0.52707,0.49129 -1.10092,0.99771 -1.26193,1.12432c-0.41973,0.31927 -0.58624,0.70872 -0.58624,1.37615c-0.01434,0.34632 0.06103,0.69047 0.21881,0.99909c0.10967,0.21533 0.20573,0.43733 0.28762,0.66468c0.04776,0.14438 0.12093,0.27906 0.21606,0.39771c0.19266,0.21881 0.26422,2.21836 0.11422,3.19543c-0.09358,0.61652 -0.49954,1.65138 -0.64679,1.65138c-0.24633,0 -0.55872,1.27569 -0.69771,2.85414c-0.02477,0.27523 -0.08532,0.81743 -0.13762,1.19725c-0.05229,0.37982 -0.13762,1.37615 -0.18578,2.20872c-0.10596,1.68166 -0.02615,2.58304 0.27523,3.18579c0.46927,0.92065 0.07156,1.74634 -1.51377,3.14313l-0.55046,0.48028l0.00963,0.71422c0.00742,0.4114 0.06003,0.82074 0.15688,1.22065c0.63441,2.20184 0.65092,2.32845 0.60275,5.10965c-0.0633,3.63304 -0.03578,5.54176 0.0867,6.07571c0.06806,0.31797 0.11769,0.63961 0.14862,0.96331c0.02339,0.27523 0.09083,0.73349 0.14862,1.01285c0.06468,0.31101 0.10734,1.51377 0.10872,3.12937v2.62295l-0.24908,0.36193c-0.37294,0.53808 -2.07937,1.86331 -2.13166,1.69129zM2938.54303,689.77903c-0.02477,-0.04128 -0.04541,-0.94542 -0.04541,-2.00781c0,-1.93487 -0.12248,-3.78992 -0.31101,-4.74084c-0.05505,-0.27523 -0.11147,-1.33487 -0.12385,-2.34772c-0.02064,-1.64175 -0.19266,-3.35368 -0.3633,-3.63029c-0.09083,-0.14725 -0.41285,-2.43028 -0.41285,-2.9312c0,-0.58211 0.13762,-0.82569 0.72661,-1.25643c0.58899,-0.43074 0.66881,-0.43211 0.75413,-0.09908c0.03853,0.15138 0.19954,0.7734 0.3578,1.37615c0.54083,2.08074 0.56973,2.239 0.55734,2.99175c-0.01376,0.79542 -0.01789,0.84358 -0.23945,2.43992c-0.13762,0.97294 -0.16101,1.70505 -0.13762,3.9124c0.02339,2.66973 -0.08807,4.91699 -0.27523,5.67938c-0.09771,0.38257 -0.38532,0.75413 -0.47202,0.60964zM2928.77235,684.60745c-0.1061,-0.4903 -0.18557,-0.98598 -0.23807,-1.48487c-0.05237,-0.49891 -0.13184,-0.9946 -0.23807,-1.48487c-0.07188,-0.29311 -0.11793,-0.59197 -0.13762,-0.89312c-0.04266,-0.43899 -0.12523,-1.02661 -0.18303,-1.30459c-0.13762,-0.65918 -0.46101,-2.66285 -0.47064,-2.89955c0,-0.10184 -0.04679,-0.55734 -0.09633,-1.01285c-0.0922,-0.85459 -0.1156,-3.80781 -0.03028,-3.89313c0.13762,-0.13762 0.91239,0.37982 1.55918,1.02248l0.72661,0.72248l-0.06193,0.89037c-0.0344,0.48991 -0.08257,1.4078 -0.10734,2.04083c-0.02477,0.63303 -0.06743,1.35826 -0.0922,1.61147c-0.02477,0.25321 -0.08395,1.28808 -0.12936,2.30093c-0.10872,2.39588 -0.26697,4.30598 -0.36468,4.40369c-0.01897,0.02003 -0.04645,0.02965 -0.07377,0.02582c-0.02732,-0.00382 -0.0511,-0.02062 -0.06384,-0.04509zM2916.77506,647.92061c2.89955,1.7601 2.45506,1.94726 3.92066,2.43028c1.789,0.59037 2.5968,0.9812 3.18579,2.32157c-6.00828,4.97341 -9.49683,7.96242 -10.55646,9.75141c-4.26607,7.15599 -0.82569,13.98033 8.63535,12.00142c-1.95138,4.02249 -10.73399,3.93992 -13.57987,-0.67431c-3.39634,-5.49773 -3.03992,-16.27988 8.39453,-25.82487zM2945.78296,672.55374c7.79728,0.94679 11.32848,-5.1936 6.40461,-12.2794c0,0 -3.69772,-4.03763 -8.84591,-9.35783c0.41285,-2.12615 1.30597,-4.4202 4.2069,-7.40645c12.27528,8.73994 12.6606,19.48769 12.7239,20.55421c0.59175,9.72114 -10.83032,12.54775 -14.4895,8.49223z" className="SFSymbolsPreviewWireframe"/></g>
  <g id="Regular-S"><path d="M1450.9242,695.98685c-0.13762,-0.44863 -0.23257,-2.17845 -0.19129,-3.38258c0.07569,-2.18671 0.13762,-3.40185 0.19266,-3.95781c0.08807,-0.85321 0.39496,-2.85139 0.45138,-2.94221c0.08257,-0.13762 0.05505,-3.83534 -0.03303,-4.55919c-0.04266,-0.35505 -0.0867,-1.63762 -0.09495,-2.85276c-0.01789,-2.26652 -0.07294,-2.76882 -0.37569,-3.40735c-0.15138,-0.31927 -0.16927,-0.52844 -0.13762,-1.57294c0.02459,-0.58341 0.00896,-1.16783 -0.04679,-1.74909c-0.27523,-1.789 -0.47615,-3.81194 -0.44725,-4.66516c0.0289,-0.85321 0.05917,-0.98395 0.28349,-1.33074c0.41973,-0.64817 0.89587,-1.92661 1.18624,-3.20231c0.31101,-1.35689 0.53395,-2.36423 0.63165,-2.85414c0.153,-0.70402 0.35627,-1.39616 0.60826,-2.07111c0.31239,-0.8601 0.34266,-2.1179 0.05092,-2.1179c-0.04128,0 -0.18991,0.16789 -0.33165,0.37294c-0.14174,0.20505 -0.65505,0.66055 -1.14083,1.01285c-1.15184,0.8367 -1.6101,1.29221 -1.74221,1.7312c-0.13211,0.43899 -0.13762,0.99496 -0.02202,1.06789c0.04679,0.0289 0.17752,0.33028 0.29037,0.67156c0.22378,0.68263 0.25803,1.4132 0.09908,2.11377c-0.05367,0.24358 -0.13762,0.75276 -0.20092,1.13257c-0.0633,0.37982 -0.13762,0.88899 -0.17202,1.1312c-0.02456,0.20934 -0.09759,0.41007 -0.2133,0.58624c-0.13762,0.13762 -0.15688,0.12523 -0.28211,-0.07294c-0.10221,-0.20525 -0.1692,-0.42622 -0.19817,-0.65367c-0.0344,-0.23945 -0.22431,-0.97844 -0.42385,-1.64175c-0.45138,-1.50001 -0.48441,-2.22249 -0.13762,-2.88992c0.11271,-0.19659 0.19047,-0.41124 0.22982,-0.63441c0,-0.3289 -0.30275,-0.73211 -1.01973,-1.36101c-0.96331,-0.85046 -1.18762,-1.08991 -1.4078,-1.55505c-0.23532,-0.49541 -0.4211,-0.55872 -0.62477,-0.21193c-0.24496,0.41285 -0.3578,1.25367 -0.41285,3.02753l-0.04679,1.67753l0.27523,0.30963c0.44174,0.50918 1.66102,2.26377 1.89634,2.72891c0.46927,0.92753 0.59725,1.60872 0.60688,3.24221c0.00963,1.63349 0.13073,3.13075 0.27523,3.40047c0.04954,0.09083 0.07018,0.18578 0.04679,0.20918c-0.02339,0.02339 0.05642,0.28762 0.17752,0.58762c0.1443,0.39984 0.23949,0.81573 0.28349,1.23854c0.05088,0.47983 0.12945,0.95631 0.23532,1.42707c0.30688,1.3156 0.38119,1.93762 0.3289,2.77157c-0.02752,0.45 -0.07294,1.5234 -0.10046,2.3835c-0.18028,5.74681 -0.25459,7.98168 -0.27523,8.42343c-0.01651,0.27523 -0.05367,1.58395 -0.08257,2.89955c-0.04954,2.24313 -0.1789,3.76653 -0.33303,3.94268c-0.08807,0.10046 -1.11055,-0.67569 -1.72294,-1.30597c-0.51606,-0.53257 -0.55046,-0.65918 -0.38945,-1.36927c0.09633,-0.41285 0.31101,-2.51698 0.45826,-4.48901c0.04954,-0.6578 0.11147,-1.44496 0.13762,-1.74909c0.11422,-1.28945 0.22844,-2.80047 0.35918,-4.78626c0.07706,-1.16422 0.18303,-2.26239 0.2367,-2.43992c0.05367,-0.17752 0.12248,-1.36101 0.15551,-2.62983l0.05917,-2.30781l-0.31101,-0.59175c-0.2367,-0.45138 -0.67019,-0.95505 -1.81927,-2.11102c-0.82569,-0.83532 -1.62936,-1.69267 -1.77661,-1.90597l-0.26835,-0.3867l0.10321,-1.50001c0.15,-2.16193 0.15138,-6.68397 0,-8.12755l-0.12248,-1.19725l-0.45138,-0.62202c-0.80643,-1.11193 -0.79817,-1.06652 -0.85597,-4.57846c-0.01376,-0.83532 -0.05229,-1.58257 -0.0867,-1.65964c-0.11422,-0.25734 -0.41973,-0.36606 -1.17523,-0.41973c-1.21927,-0.08532 -1.51377,-0.26147 -3.28212,-2.0023c-0.84633,-0.82569 -1.69817,-1.65138 -1.89221,-1.81514c-0.3867,-0.33303 -0.38395,-0.27523 -0.07706,-1.32523l0.18578,-0.63991l-0.23257,-0.41285c-0.10464,-0.19534 -0.22379,-0.38256 -0.35642,-0.56009c-0.18303,-0.2078 -0.75688,-1.49863 -0.82569,-1.85643c-0.05218,-0.18767 -0.00726,-0.389 0.11973,-0.5367c0.30688,-0.39358 0.46789,-0.78165 0.61239,-1.47661c0.32064,-1.53991 1.06514,-3.59038 1.45872,-4.02112c0.43762,-0.47752 1.05964,-0.13762 1.29496,0.68808c0.1844,0.65918 0.18853,1.34725 0.01376,2.55276c-0.07395,0.50672 -0.11989,1.01713 -0.13762,1.5289c0,0.55046 0.02615,0.64542 0.30963,1.01698c0.45826,0.60138 1.06377,1.01973 2.09175,1.44771c0.23473,0.09787 0.45363,0.23004 0.64954,0.3922c1.53716,1.47523 2.5624,2.22661 3.15827,2.31882c0.71285,0.11009 1.10092,0.62477 1.37615,1.84267c0.18028,0.77753 0.55046,1.53303 0.75138,1.53303c0.16369,-0.0335 0.31933,-0.09847 0.45826,-0.19129c0.27523,-0.16789 0.30963,-0.23807 0.30963,-0.57523c-0.0363,-0.82362 -0.12825,-1.64384 -0.27523,-2.45506c-0.05092,-0.22844 -0.10734,-0.55872 -0.12798,-0.73624c-0.02064,-0.17752 -0.08395,-0.52982 -0.13762,-0.78303c-0.35092,-1.53579 -0.5023,-2.12753 -0.56422,-2.20184c-0.2133,-0.27523 -0.56147,-1.40368 -0.67844,-2.19083c-0.22569,-1.5289 -0.55046,-1.95826 -1.77661,-2.39313c-0.67234,-0.24775 -1.2943,-0.61514 -1.83579,-1.08441c-0.15826,-0.13762 -0.55046,-0.44312 -0.87386,-0.69633c-0.3234,-0.25321 -0.60688,-0.48578 -0.63303,-0.51743c-0.11644,-0.10074 -0.24018,-0.19274 -0.37018,-0.27523c-0.85872,-0.58074 -1.21652,-0.96331 -1.54955,-1.65138l-0.33578,-0.68808l-0.03028,-1.789l-0.03028,-1.789l0.95092,-0.90138c0.54358,-0.51606 1.16698,-1.01147 1.45735,-1.1601c0.45551,-0.23257 0.61239,-0.26009 1.56468,-0.27523c1.17386,-0.02615 1.39267,0 1.60459,0.21468c0.21193,0.21468 0.18716,0.88074 -0.03991,1.16973c-0.08246,0.09283 -0.1452,0.20145 -0.1844,0.31927c0,0.07982 -0.35918,0.67569 -0.74587,1.23854c-0.14562,0.29877 -0.25511,0.61384 -0.32615,0.93854c2.81285,1.84267 2.96561,0.51881 1.93625,3.99084l1.56331,0.34679c0.42798,-1.19175 0.89037,-2.37524 1.18487,-3.60827c0.03991,-1.05 -1.65138,-0.57661 -2.11927,-1.1945c-0.32064,-0.81606 0.43074,-1.95138 0.83395,-2.64221c0.22018,-0.32202 0.91101,-0.64679 1.21377,-0.5711c0.1211,0.03028 0.57248,-0.04817 1.01422,-0.17615c0.33911,-0.10654 0.68671,-0.18389 1.03899,-0.23119c0.28064,-0.03038 0.55736,-0.08987 0.82569,-0.17752c0.5023,-0.15275 0.61927,-0.16101 0.87386,-0.05505c0.25996,0.0893 0.52831,0.15201 0.80092,0.18716c0.28842,0.03892 0.56784,0.12787 0.82569,0.26285c0.21651,0.12685 0.44754,0.22712 0.68808,0.29862c0.34541,0.09358 0.41285,0.07844 0.97019,-0.22982l0.59863,-0.33028l1.47799,-0.05367c1.4367,-0.05505 1.48762,-0.06468 2.10001,-0.36881l0.63028,-0.31927l0.33853,0.19679c0.2422,0.13762 0.43211,0.37569 0.66743,0.82569c0.32477,0.62064 0.32752,0.63028 0.18853,1.01422c-0.1211,0.33578 -0.12248,0.45413 -0.01376,0.87936c0.07232,0.27904 0.16903,0.55119 0.28899,0.81331c0.0884,0.17298 0.14922,0.3587 0.18028,0.55046c0.04266,0.59587 0,0.72936 -0.33165,0.9523c-0.29862,0.20229 -0.96331,1.08854 -0.96331,1.28533c-0.03406,0.14252 -0.08343,0.28094 -0.14725,0.41285c-0.68808,1.58395 -0.93028,1.86606 -1.96239,2.33946c-1.26606,0.57798 -1.69267,0.71422 -2.23074,0.71422c-0.42661,0 -0.55046,0.0344 -0.62477,0.1734c-0.16076,0.19763 -0.35053,0.36977 -0.56285,0.51055c-0.25094,0.16755 -0.45771,0.39321 -0.60275,0.6578c-0.06642,0.16793 -0.18702,0.30887 -0.34266,0.40046c-0.12827,0.0528 -0.24337,0.13313 -0.33716,0.23532c-0.30463,0.26751 -0.62642,0.51483 -0.96331,0.74037c-0.45826,0.32202 -0.94542,0.68808 -1.08303,0.82569c-0.0922,0.09937 -0.20363,0.17896 -0.32752,0.23395c-0.11428,0.05145 -0.21474,0.12927 -0.29312,0.22707c-0.18028,0.19129 -0.20505,0.29037 -0.15688,0.63303c0.04261,0.27467 0.10797,0.54533 0.19541,0.80918c0.18165,0.52294 0.18028,1.08166 0,1.45459c-0.18028,0.37294 -0.12248,0.91514 0.18578,1.31973c0.27523,0.36193 0.29725,0.62753 0.09771,1.21652c-0.10347,0.40031 -0.15254,0.81274 -0.14587,1.22615c0,0.67156 0.03028,0.86422 0.20092,1.15322c0.17064,0.28899 0.25046,0.34129 0.44587,0.31927c0.27523,-0.03165 0.31651,-0.1445 0.64817,-1.6679c0.3,-1.37615 0.51055,-1.64037 1.89359,-2.35047c0.40459,-0.2078 1.02661,-0.55046 1.37615,-0.74863c0.34954,-0.19817 0.93441,-0.5078 1.28945,-0.67569c0.81782,-0.35798 1.53655,-0.90907 2.0945,-1.60597c0.97844,-1.20964 1.37615,-2.23212 1.76836,-4.58259c0.04893,-0.37982 0.18351,-0.74357 0.39358,-1.06377c0.19656,-0.30635 0.33164,-0.64802 0.39771,-1.00597c0.13762,-0.72936 0.3922,-1.24955 0.76789,-1.58395c0.64679,-0.57523 0.82569,-0.15 0.63165,1.49588c-0.0633,0.53119 -0.15138,1.42157 -0.19817,1.97891l-0.08395,1.01285l0.61239,0.56285l0.61239,0.56285l0.01514,1.15872c0.00826,0.63716 0.06468,1.31147 0.12661,1.49863l0.11284,0.33991l-0.88487,0.86422c-1.17523,1.14633 -1.77248,1.91698 -2.30643,2.97386c-0.24358,0.48028 -0.51468,0.97844 -0.60275,1.10092c-0.3,0.42798 -0.88899,1.789 -1.20551,2.78808l-0.31514,0.99358l-0.96331,0.89312c-0.52707,0.49129 -1.10092,0.99771 -1.26193,1.12432c-0.41973,0.31927 -0.58624,0.70872 -0.58624,1.37615c-0.01434,0.34632 0.06103,0.69047 0.21881,0.99909c0.10967,0.21533 0.20573,0.43733 0.28762,0.66468c0.04776,0.14438 0.12093,0.27906 0.21606,0.39771c0.19266,0.21881 0.26422,2.21836 0.11422,3.19543c-0.09358,0.61652 -0.49954,1.65138 -0.64679,1.65138c-0.24633,0 -0.55872,1.27569 -0.69771,2.85414c-0.02477,0.27523 -0.08532,0.81743 -0.13762,1.19725c-0.05229,0.37982 -0.13762,1.37615 -0.18578,2.20872c-0.10596,1.68166 -0.02615,2.58304 0.27523,3.18579c0.46927,0.92065 0.07156,1.74634 -1.51377,3.14313l-0.55046,0.48028l0.00963,0.71422c0.00742,0.4114 0.06003,0.82074 0.15688,1.22065c0.63441,2.20184 0.65092,2.32845 0.60275,5.10965c-0.0633,3.63304 -0.03578,5.54176 0.0867,6.07571c0.06806,0.31797 0.11769,0.63961 0.14862,0.96331c0.02339,0.27523 0.09083,0.73349 0.14862,1.01285c0.06468,0.31101 0.10734,1.51377 0.10872,3.12937v2.62295l-0.24908,0.36193c-0.37294,0.53808 -2.07937,1.86331 -2.13166,1.69129zM1454.98798,689.77903c-0.02477,-0.04128 -0.04541,-0.94542 -0.04541,-2.00781c0,-1.93487 -0.12248,-3.78992 -0.31101,-4.74084c-0.05505,-0.27523 -0.11147,-1.33487 -0.12385,-2.34772c-0.02064,-1.64175 -0.19266,-3.35368 -0.3633,-3.63029c-0.09083,-0.14725 -0.41285,-2.43028 -0.41285,-2.9312c0,-0.58211 0.13762,-0.82569 0.72661,-1.25643c0.58899,-0.43074 0.66881,-0.43211 0.75413,-0.09908c0.03853,0.15138 0.19954,0.7734 0.3578,1.37615c0.54083,2.08074 0.56973,2.239 0.55734,2.99175c-0.01376,0.79542 -0.01789,0.84358 -0.23945,2.43992c-0.13762,0.97294 -0.16101,1.70505 -0.13762,3.9124c0.02339,2.66973 -0.08807,4.91699 -0.27523,5.67938c-0.09771,0.38257 -0.38532,0.75413 -0.47202,0.60964zM1445.2173,684.60745c-0.1061,-0.4903 -0.18557,-0.98598 -0.23807,-1.48487c-0.05237,-0.49891 -0.13184,-0.9946 -0.23807,-1.48487c-0.07188,-0.29311 -0.11793,-0.59197 -0.13762,-0.89312c-0.04266,-0.43899 -0.12523,-1.02661 -0.18303,-1.30459c-0.13762,-0.65918 -0.46101,-2.66285 -0.47064,-2.89955c0,-0.10184 -0.04679,-0.55734 -0.09633,-1.01285c-0.0922,-0.85459 -0.1156,-3.80781 -0.03028,-3.89313c0.13762,-0.13762 0.91239,0.37982 1.55918,1.02248l0.72661,0.72248l-0.06193,0.89037c-0.0344,0.48991 -0.08257,1.4078 -0.10734,2.04083c-0.02477,0.63303 -0.06743,1.35826 -0.0922,1.61147c-0.02477,0.25321 -0.08395,1.28808 -0.12936,2.30093c-0.10872,2.39588 -0.26697,4.30598 -0.36468,4.40369c-0.01897,0.02003 -0.04645,0.02965 -0.07377,0.02582c-0.02732,-0.00382 -0.0511,-0.02062 -0.06384,-0.04509zM1433.22001,647.92061c2.89955,1.7601 2.45506,1.94726 3.92066,2.43028c1.789,0.59037 2.5968,0.9812 3.18579,2.32157c-6.00828,4.97341 -9.49683,7.96242 -10.55646,9.75141c-4.26607,7.15599 -0.82569,13.98033 8.63535,12.00142c-1.95138,4.02249 -10.73399,3.93992 -13.57987,-0.67431c-3.39634,-5.49773 -3.03992,-16.27988 8.39453,-25.82487zM1462.22791,672.55374c7.79728,0.94679 11.32848,-5.1936 6.40461,-12.2794c0,0 -3.69772,-4.03763 -8.84591,-9.35783c0.41285,-2.12615 1.30597,-4.4202 4.2069,-7.40645c12.27528,8.73994 12.6606,19.48769 12.7239,20.55421c0.59175,9.72114 -10.83032,12.54775 -14.4895,8.49223z" className="SFSymbolsPreviewWireframe"/></g>
  <g id="Ultralight-S"><path d="M560.79061,695.98685c-0.13762,-0.44863 -0.23257,-2.17845 -0.19129,-3.38258c0.07569,-2.18671 0.13762,-3.40185 0.19266,-3.95781c0.08807,-0.85321 0.39496,-2.85139 0.45138,-2.94221c0.08257,-0.13762 0.05505,-3.83534 -0.03303,-4.55919c-0.04266,-0.35505 -0.0867,-1.63762 -0.09495,-2.85276c-0.01789,-2.26652 -0.07294,-2.76882 -0.37569,-3.40735c-0.15138,-0.31927 -0.16927,-0.52844 -0.13762,-1.57294c0.02459,-0.58341 0.00896,-1.16783 -0.04679,-1.74909c-0.27523,-1.789 -0.47615,-3.81194 -0.44725,-4.66516c0.0289,-0.85321 0.05917,-0.98395 0.28349,-1.33074c0.41973,-0.64817 0.89587,-1.92661 1.18624,-3.20231c0.31101,-1.35689 0.53395,-2.36423 0.63165,-2.85414c0.153,-0.70402 0.35627,-1.39616 0.60826,-2.07111c0.31239,-0.8601 0.34266,-2.1179 0.05092,-2.1179c-0.04128,0 -0.18991,0.16789 -0.33165,0.37294c-0.14174,0.20505 -0.65505,0.66055 -1.14083,1.01285c-1.15184,0.8367 -1.6101,1.29221 -1.74221,1.7312c-0.13211,0.43899 -0.13762,0.99496 -0.02202,1.06789c0.04679,0.0289 0.17752,0.33028 0.29037,0.67156c0.22378,0.68263 0.25803,1.4132 0.09908,2.11377c-0.05367,0.24358 -0.13762,0.75276 -0.20092,1.13257c-0.0633,0.37982 -0.13762,0.88899 -0.17202,1.1312c-0.02456,0.20934 -0.09759,0.41007 -0.2133,0.58624c-0.13762,0.13762 -0.15688,0.12523 -0.28211,-0.07294c-0.10221,-0.20525 -0.1692,-0.42622 -0.19817,-0.65367c-0.0344,-0.23945 -0.22431,-0.97844 -0.42385,-1.64175c-0.45138,-1.50001 -0.48441,-2.22249 -0.13762,-2.88992c0.11271,-0.19659 0.19047,-0.41124 0.22982,-0.63441c0,-0.3289 -0.30275,-0.73211 -1.01973,-1.36101c-0.96331,-0.85046 -1.18762,-1.08991 -1.4078,-1.55505c-0.23532,-0.49541 -0.4211,-0.55872 -0.62477,-0.21193c-0.24496,0.41285 -0.3578,1.25367 -0.41285,3.02753l-0.04679,1.67753l0.27523,0.30963c0.44174,0.50918 1.66102,2.26377 1.89634,2.72891c0.46927,0.92753 0.59725,1.60872 0.60688,3.24221c0.00963,1.63349 0.13073,3.13075 0.27523,3.40047c0.04954,0.09083 0.07018,0.18578 0.04679,0.20918c-0.02339,0.02339 0.05642,0.28762 0.17752,0.58762c0.1443,0.39984 0.23949,0.81573 0.28349,1.23854c0.05088,0.47983 0.12945,0.95631 0.23532,1.42707c0.30688,1.3156 0.38119,1.93762 0.3289,2.77157c-0.02752,0.45 -0.07294,1.5234 -0.10046,2.3835c-0.18028,5.74681 -0.25459,7.98168 -0.27523,8.42343c-0.01651,0.27523 -0.05367,1.58395 -0.08257,2.89955c-0.04954,2.24313 -0.1789,3.76653 -0.33303,3.94268c-0.08807,0.10046 -1.11055,-0.67569 -1.72294,-1.30597c-0.51606,-0.53257 -0.55046,-0.65918 -0.38945,-1.36927c0.09633,-0.41285 0.31101,-2.51698 0.45826,-4.48901c0.04954,-0.6578 0.11147,-1.44496 0.13762,-1.74909c0.11422,-1.28945 0.22844,-2.80047 0.35918,-4.78626c0.07706,-1.16422 0.18303,-2.26239 0.2367,-2.43992c0.05367,-0.17752 0.12248,-1.36101 0.15551,-2.62983l0.05917,-2.30781l-0.31101,-0.59175c-0.2367,-0.45138 -0.67019,-0.95505 -1.81927,-2.11102c-0.82569,-0.83532 -1.62936,-1.69267 -1.77661,-1.90597l-0.26835,-0.3867l0.10321,-1.50001c0.15,-2.16193 0.15138,-6.68397 0,-8.12755l-0.12248,-1.19725l-0.45138,-0.62202c-0.80643,-1.11193 -0.79817,-1.06652 -0.85597,-4.57846c-0.01376,-0.83532 -0.05229,-1.58257 -0.0867,-1.65964c-0.11422,-0.25734 -0.41973,-0.36606 -1.17523,-0.41973c-1.21927,-0.08532 -1.51377,-0.26147 -3.28212,-2.0023c-0.84633,-0.82569 -1.69817,-1.65138 -1.89221,-1.81514c-0.3867,-0.33303 -0.38395,-0.27523 -0.07706,-1.32523l0.18578,-0.63991l-0.23257,-0.41285c-0.10464,-0.19534 -0.22379,-0.38256 -0.35642,-0.56009c-0.18303,-0.2078 -0.75688,-1.49863 -0.82569,-1.85643c-0.05218,-0.18767 -0.00726,-0.389 0.11973,-0.5367c0.30688,-0.39358 0.46789,-0.78165 0.61239,-1.47661c0.32064,-1.53991 1.06514,-3.59038 1.45872,-4.02112c0.43762,-0.47752 1.05964,-0.13762 1.29496,0.68808c0.1844,0.65918 0.18853,1.34725 0.01376,2.55276c-0.07395,0.50672 -0.11989,1.01713 -0.13762,1.5289c0,0.55046 0.02615,0.64542 0.30963,1.01698c0.45826,0.60138 1.06377,1.01973 2.09175,1.44771c0.23473,0.09787 0.45363,0.23004 0.64954,0.3922c1.53716,1.47523 2.5624,2.22661 3.15827,2.31882c0.71285,0.11009 1.10092,0.62477 1.37615,1.84267c0.18028,0.77753 0.55046,1.53303 0.75138,1.53303c0.16369,-0.0335 0.31933,-0.09847 0.45826,-0.19129c0.27523,-0.16789 0.30963,-0.23807 0.30963,-0.57523c-0.0363,-0.82362 -0.12825,-1.64384 -0.27523,-2.45506c-0.05092,-0.22844 -0.10734,-0.55872 -0.12798,-0.73624c-0.02064,-0.17752 -0.08395,-0.52982 -0.13762,-0.78303c-0.35092,-1.53579 -0.5023,-2.12753 -0.56422,-2.20184c-0.2133,-0.27523 -0.56147,-1.40368 -0.67844,-2.19083c-0.22569,-1.5289 -0.55046,-1.95826 -1.77661,-2.39313c-0.67234,-0.24775 -1.2943,-0.61514 -1.83579,-1.08441c-0.15826,-0.13762 -0.55046,-0.44312 -0.87386,-0.69633c-0.3234,-0.25321 -0.60688,-0.48578 -0.63303,-0.51743c-0.11644,-0.10074 -0.24018,-0.19274 -0.37018,-0.27523c-0.85872,-0.58074 -1.21652,-0.96331 -1.54955,-1.65138l-0.33578,-0.68808l-0.03028,-1.789l-0.03028,-1.789l0.95092,-0.90138c0.54358,-0.51606 1.16698,-1.01147 1.45735,-1.1601c0.45551,-0.23257 0.61239,-0.26009 1.56468,-0.27523c1.17386,-0.02615 1.39267,0 1.60459,0.21468c0.21193,0.21468 0.18716,0.88074 -0.03991,1.16973c-0.08246,0.09283 -0.1452,0.20145 -0.1844,0.31927c0,0.07982 -0.35918,0.67569 -0.74587,1.23854c-0.14562,0.29877 -0.25511,0.61384 -0.32615,0.93854c2.81285,1.84267 2.96561,0.51881 1.93625,3.99084l1.56331,0.34679c0.42798,-1.19175 0.89037,-2.37524 1.18487,-3.60827c0.03991,-1.05 -1.65138,-0.57661 -2.11927,-1.1945c-0.32064,-0.81606 0.43074,-1.95138 0.83395,-2.64221c0.22018,-0.32202 0.91101,-0.64679 1.21377,-0.5711c0.1211,0.03028 0.57248,-0.04817 1.01422,-0.17615c0.33911,-0.10654 0.68671,-0.18389 1.03899,-0.23119c0.28064,-0.03038 0.55736,-0.08987 0.82569,-0.17752c0.5023,-0.15275 0.61927,-0.16101 0.87386,-0.05505c0.25996,0.0893 0.52831,0.15201 0.80092,0.18716c0.28842,0.03892 0.56784,0.12787 0.82569,0.26285c0.21651,0.12685 0.44754,0.22712 0.68808,0.29862c0.34541,0.09358 0.41285,0.07844 0.97019,-0.22982l0.59863,-0.33028l1.47799,-0.05367c1.4367,-0.05505 1.48762,-0.06468 2.10001,-0.36881l0.63028,-0.31927l0.33853,0.19679c0.2422,0.13762 0.43211,0.37569 0.66743,0.82569c0.32477,0.62064 0.32752,0.63028 0.18853,1.01422c-0.1211,0.33578 -0.12248,0.45413 -0.01376,0.87936c0.07232,0.27904 0.16903,0.55119 0.28899,0.81331c0.0884,0.17298 0.14922,0.3587 0.18028,0.55046c0.04266,0.59587 0,0.72936 -0.33165,0.9523c-0.29862,0.20229 -0.96331,1.08854 -0.96331,1.28533c-0.03406,0.14252 -0.08343,0.28094 -0.14725,0.41285c-0.68808,1.58395 -0.93028,1.86606 -1.96239,2.33946c-1.26606,0.57798 -1.69267,0.71422 -2.23074,0.71422c-0.42661,0 -0.55046,0.0344 -0.62477,0.1734c-0.16076,0.19763 -0.35053,0.36977 -0.56285,0.51055c-0.25094,0.16755 -0.45771,0.39321 -0.60275,0.6578c-0.06642,0.16793 -0.18702,0.30887 -0.34266,0.40046c-0.12827,0.0528 -0.24337,0.13313 -0.33716,0.23532c-0.30463,0.26751 -0.62642,0.51483 -0.96331,0.74037c-0.45826,0.32202 -0.94542,0.68808 -1.08303,0.82569c-0.0922,0.09937 -0.20363,0.17896 -0.32752,0.23395c-0.11428,0.05145 -0.21474,0.12927 -0.29312,0.22707c-0.18028,0.19129 -0.20505,0.29037 -0.15688,0.63303c0.04261,0.27467 0.10797,0.54533 0.19541,0.80918c0.18165,0.52294 0.18028,1.08166 0,1.45459c-0.18028,0.37294 -0.12248,0.91514 0.18578,1.31973c0.27523,0.36193 0.29725,0.62753 0.09771,1.21652c-0.10347,0.40031 -0.15254,0.81274 -0.14587,1.22615c0,0.67156 0.03028,0.86422 0.20092,1.15322c0.17064,0.28899 0.25046,0.34129 0.44587,0.31927c0.27523,-0.03165 0.31651,-0.1445 0.64817,-1.6679c0.3,-1.37615 0.51055,-1.64037 1.89359,-2.35047c0.40459,-0.2078 1.02661,-0.55046 1.37615,-0.74863c0.34954,-0.19817 0.93441,-0.5078 1.28945,-0.67569c0.81782,-0.35798 1.53655,-0.90907 2.0945,-1.60597c0.97844,-1.20964 1.37615,-2.23212 1.76836,-4.58259c0.04893,-0.37982 0.18351,-0.74357 0.39358,-1.06377c0.19656,-0.30635 0.33164,-0.64802 0.39771,-1.00597c0.13762,-0.72936 0.3922,-1.24955 0.76789,-1.58395c0.64679,-0.57523 0.82569,-0.15 0.63165,1.49588c-0.0633,0.53119 -0.15138,1.42157 -0.19817,1.97891l-0.08395,1.01285l0.61239,0.56285l0.61239,0.56285l0.01514,1.15872c0.00826,0.63716 0.06468,1.31147 0.12661,1.49863l0.11284,0.33991l-0.88487,0.86422c-1.17523,1.14633 -1.77248,1.91698 -2.30643,2.97386c-0.24358,0.48028 -0.51468,0.97844 -0.60275,1.10092c-0.3,0.42798 -0.88899,1.789 -1.20551,2.78808l-0.31514,0.99358l-0.96331,0.89312c-0.52707,0.49129 -1.10092,0.99771 -1.26193,1.12432c-0.41973,0.31927 -0.58624,0.70872 -0.58624,1.37615c-0.01434,0.34632 0.06103,0.69047 0.21881,0.99909c0.10967,0.21533 0.20573,0.43733 0.28762,0.66468c0.04776,0.14438 0.12093,0.27906 0.21606,0.39771c0.19266,0.21881 0.26422,2.21836 0.11422,3.19543c-0.09358,0.61652 -0.49954,1.65138 -0.64679,1.65138c-0.24633,0 -0.55872,1.27569 -0.69771,2.85414c-0.02477,0.27523 -0.08532,0.81743 -0.13762,1.19725c-0.05229,0.37982 -0.13762,1.37615 -0.18578,2.20872c-0.10596,1.68166 -0.02615,2.58304 0.27523,3.18579c0.46927,0.92065 0.07156,1.74634 -1.51377,3.14313l-0.55046,0.48028l0.00963,0.71422c0.00742,0.4114 0.06003,0.82074 0.15688,1.22065c0.63441,2.20184 0.65092,2.32845 0.60275,5.10965c-0.0633,3.63304 -0.03578,5.54176 0.0867,6.07571c0.06806,0.31797 0.11769,0.63961 0.14862,0.96331c0.02339,0.27523 0.09083,0.73349 0.14862,1.01285c0.06468,0.31101 0.10734,1.51377 0.10872,3.12937v2.62295l-0.24908,0.36193c-0.37294,0.53808 -2.07937,1.86331 -2.13166,1.69129zM564.85439,689.77903c-0.02477,-0.04128 -0.04541,-0.94542 -0.04541,-2.00781c0,-1.93487 -0.12248,-3.78992 -0.31101,-4.74084c-0.05505,-0.27523 -0.11147,-1.33487 -0.12385,-2.34772c-0.02064,-1.64175 -0.19266,-3.35368 -0.3633,-3.63029c-0.09083,-0.14725 -0.41285,-2.43028 -0.41285,-2.9312c0,-0.58211 0.13762,-0.82569 0.72661,-1.25643c0.58899,-0.43074 0.66881,-0.43211 0.75413,-0.09908c0.03853,0.15138 0.19954,0.7734 0.3578,1.37615c0.54083,2.08074 0.56973,2.239 0.55734,2.99175c-0.01376,0.79542 -0.01789,0.84358 -0.23945,2.43992c-0.13762,0.97294 -0.16101,1.70505 -0.13762,3.9124c0.02339,2.66973 -0.08807,4.91699 -0.27523,5.67938c-0.09771,0.38257 -0.38532,0.75413 -0.47202,0.60964zM555.08371,684.60745c-0.1061,-0.4903 -0.18557,-0.98598 -0.23807,-1.48487c-0.05237,-0.49891 -0.13184,-0.9946 -0.23807,-1.48487c-0.07188,-0.29311 -0.11793,-0.59197 -0.13762,-0.89312c-0.04266,-0.43899 -0.12523,-1.02661 -0.18303,-1.30459c-0.13762,-0.65918 -0.46101,-2.66285 -0.47064,-2.89955c0,-0.10184 -0.04679,-0.55734 -0.09633,-1.01285c-0.0922,-0.85459 -0.1156,-3.80781 -0.03028,-3.89313c0.13762,-0.13762 0.91239,0.37982 1.55918,1.02248l0.72661,0.72248l-0.06193,0.89037c-0.0344,0.48991 -0.08257,1.4078 -0.10734,2.04083c-0.02477,0.63303 -0.06743,1.35826 -0.0922,1.61147c-0.02477,0.25321 -0.08395,1.28808 -0.12936,2.30093c-0.10872,2.39588 -0.26697,4.30598 -0.36468,4.40369c-0.01897,0.02003 -0.04645,0.02965 -0.07377,0.02582c-0.02732,-0.00382 -0.0511,-0.02062 -0.06384,-0.04509zM543.08642,647.92061c2.89955,1.7601 2.45506,1.94726 3.92066,2.43028c1.789,0.59037 2.5968,0.9812 3.18579,2.32157c-6.00828,4.97341 -9.49683,7.96242 -10.55646,9.75141c-4.26607,7.15599 -0.82569,13.98033 8.63535,12.00142c-1.95138,4.02249 -10.73399,3.93992 -13.57987,-0.67431c-3.39634,-5.49773 -3.03992,-16.27988 8.39453,-25.82487zM572.09432,672.55374c7.79728,0.94679 11.32848,-5.1936 6.40461,-12.2794c0,0 -3.69772,-4.03763 -8.84591,-9.35783c0.41285,-2.12615 1.30597,-4.4202 4.2069,-7.40645c12.27528,8.73994 12.6606,19.48769 12.7239,20.55421c0.59175,9.72114 -10.83032,12.54775 -14.4895,8.49223z" className="SFSymbolsPreviewWireframe"/></g>
 </g>
</svg>