<?xml version="1.0" encoding="UTF-8"?><!--Generator: https://SymbolKit.app--><!DOCTYPE svg PUBLIC "-//W3C//DTD SVG 1.1//EN" "http://www.w3.org/Graphics/SVG/1.1/DTD/svg11.dtd"><svg xmlns="http://www.w3.org/2000/svg" xmlns:xlink="http://www.w3.org/1999/xlink" version="1.1" viewBox="0 0 3300 2200">
 <!--glyph: "100092", point size: 100.0, font version: "20.0d10e1", template writer version: "138.0.0"-->
 <style>.SFSymbolsPreviewWireframe {fill:none;opacity:1.0;stroke:black;stroke-width:0.5}
</style>
 <g id="Notes">
  <rect height="2200" id="artboard" style="fill:white;opacity:1" width="3300" x="0" y="0"/>
  <line style="fill:none;stroke:black;opacity:1;stroke-width:0.5;" x1="263" x2="3036" y1="292" y2="292"/>
  <text style="stroke:none;fill:black;font-family:sans-serif;font-size:13;font-weight:bold;" transform="matrix(1 0 0 1 263 322)">Weight/Scale Variations</text>
  <text style="stroke:none;fill:black;font-family:sans-serif;font-size:13;text-anchor:middle;" transform="matrix(1 0 0 1 559.711 322)">Ultralight</text>
  <text style="stroke:none;fill:black;font-family:sans-serif;font-size:13;text-anchor:middle;" transform="matrix(1 0 0 1 856.422 322)">Thin</text>
  <text style="stroke:none;fill:black;font-family:sans-serif;font-size:13;text-anchor:middle;" transform="matrix(1 0 0 1 1153.13 322)">Light</text>
  <text style="stroke:none;fill:black;font-family:sans-serif;font-size:13;text-anchor:middle;" transform="matrix(1 0 0 1 1449.84 322)">Regular</text>
  <text style="stroke:none;fill:black;font-family:sans-serif;font-size:13;text-anchor:middle;" transform="matrix(1 0 0 1 1746.56 322)">Medium</text>
  <text style="stroke:none;fill:black;font-family:sans-serif;font-size:13;text-anchor:middle;" transform="matrix(1 0 0 1 2043.27 322)">Semibold</text>
  <text style="stroke:none;fill:black;font-family:sans-serif;font-size:13;text-anchor:middle;" transform="matrix(1 0 0 1 2339.98 322)">Bold</text>
  <text style="stroke:none;fill:black;font-family:sans-serif;font-size:13;text-anchor:middle;" transform="matrix(1 0 0 1 2636.69 322)">Heavy</text>
  <text style="stroke:none;fill:black;font-family:sans-serif;font-size:13;text-anchor:middle;" transform="matrix(1 0 0 1 2933.4 322)">Black</text>
  <line style="fill:none;stroke:black;opacity:1;stroke-width:0.5;" x1="263" x2="3036" y1="1903" y2="1903"/>
  <g transform="matrix(0.2 0 0 0.2 263 1933)">
   <path d="m46.2402 4.15039c21.7773 0 39.4531-17.627 39.4531-39.4043s-17.6758-39.4043-39.4531-39.4043c-21.7285 0-39.4043 17.627-39.4043 39.4043s17.6758 39.4043 39.4043 39.4043Zm0-7.42188c-17.6758 0-31.9336-14.3066-31.9336-31.9824s14.2578-31.9824 31.9336-31.9824 31.9824 14.3066 31.9824 31.9824-14.3066 31.9824-31.9824 31.9824Zm-17.9688-31.9824c0 2.14844 1.51367 3.61328 3.75977 3.61328h10.498v10.5957c0 2.19727 1.46484 3.71094 3.61328 3.71094 2.24609 0 3.71094-1.51367 3.71094-3.71094v-10.5957h10.5957c2.19727 0 3.71094-1.46484 3.71094-3.61328 0-2.19727-1.51367-3.71094-3.71094-3.71094h-10.5957v-10.5469c0-2.24609-1.46484-3.75977-3.71094-3.75977-2.14844 0-3.61328 1.51367-3.61328 3.75977v10.5469h-10.498c-2.24609 0-3.75977 1.51367-3.75977 3.71094Z"/>
  </g>
  <g transform="matrix(0.2 0 0 0.2 281.506 1933)">
   <path d="m58.5449 14.5508c27.4902 0 49.8047-22.3145 49.8047-49.8047s-22.3145-49.8047-49.8047-49.8047-49.8047 22.3145-49.8047 49.8047 22.3145 49.8047 49.8047 49.8047Zm0-8.30078c-22.9492 0-41.5039-18.5547-41.5039-41.5039s18.5547-41.5039 41.5039-41.5039 41.5039 18.5547 41.5039 41.5039-18.5547 41.5039-41.5039 41.5039Zm-22.6562-41.5039c0 2.39258 1.66016 4.00391 4.15039 4.00391h14.3555v14.4043c0 2.44141 1.66016 4.15039 4.05273 4.15039 2.44141 0 4.15039-1.66016 4.15039-4.15039v-14.4043h14.4043c2.44141 0 4.15039-1.61133 4.15039-4.00391 0-2.44141-1.70898-4.15039-4.15039-4.15039h-14.4043v-14.3555c0-2.49023-1.70898-4.19922-4.15039-4.19922-2.39258 0-4.05273 1.70898-4.05273 4.19922v14.3555h-14.3555c-2.49023 0-4.15039 1.70898-4.15039 4.15039Z"/>
  </g>
  <g transform="matrix(0.2 0 0 0.2 304.924 1933)">
   <path d="m74.8535 28.3203c35.1074 0 63.623-28.4668 63.623-63.5742s-28.5156-63.623-63.623-63.623-63.5742 28.5156-63.5742 63.623 28.4668 63.5742 63.5742 63.5742Zm0-9.08203c-30.127 0-54.4922-24.3652-54.4922-54.4922s24.3652-54.4922 54.4922-54.4922 54.4922 24.3652 54.4922 54.4922-24.3652 54.4922-54.4922 54.4922Zm-28.8574-54.4922c0 2.58789 1.85547 4.39453 4.58984 4.39453h19.7266v19.7754c0 2.68555 1.85547 4.58984 4.44336 4.58984 2.68555 0 4.54102-1.85547 4.54102-4.58984v-19.7754h19.7754c2.68555 0 4.58984-1.80664 4.58984-4.39453 0-2.73438-1.85547-4.58984-4.58984-4.58984h-19.7754v-19.7266c0-2.73438-1.85547-4.63867-4.54102-4.63867-2.58789 0-4.44336 1.9043-4.44336 4.63867v19.7266h-19.7266c-2.73438 0-4.58984 1.85547-4.58984 4.58984Z"/>
  </g>
  <text style="stroke:none;fill:black;font-family:sans-serif;font-size:13;font-weight:bold;" transform="matrix(1 0 0 1 263 1953)">Design Variations</text>
  <text style="stroke:none;fill:black;font-family:sans-serif;font-size:13;" transform="matrix(1 0 0 1 263 1971)">Symbols are supported in up to nine weights and three scales.</text>
  <text style="stroke:none;fill:black;font-family:sans-serif;font-size:13;" transform="matrix(1 0 0 1 263 1989)">For optimal layout with text and other symbols, vertically align</text>
  <text style="stroke:none;fill:black;font-family:sans-serif;font-size:13;" transform="matrix(1 0 0 1 263 2007)">symbols with the adjacent text.</text>
  <line style="fill:none;stroke:#00AEEF;stroke-width:0.5;opacity:1.0;" x1="776" x2="776" y1="1919" y2="1933"/>
  <g transform="matrix(0.2 0 0 0.2 776 1933)">
   <path d="m16.5527 0.78125c2.58789 0 3.85742-0.976562 4.78516-3.71094l6.29883-17.2363h28.8086l6.29883 17.2363c0.927734 2.73438 2.19727 3.71094 4.73633 3.71094 2.58789 0 4.24805-1.5625 4.24805-4.00391 0-0.830078-0.146484-1.61133-0.537109-2.63672l-22.9004-60.9863c-1.12305-2.97852-3.125-4.49219-6.25-4.49219-3.02734 0-5.07812 1.46484-6.15234 4.44336l-22.9004 61.084c-0.390625 1.02539-0.537109 1.80664-0.537109 2.63672 0 2.44141 1.5625 3.95508 4.10156 3.95508Zm13.4766-28.3691 11.8652-32.8613h0.244141l11.8652 32.8613Z"/>
  </g>
  <line style="fill:none;stroke:#00AEEF;stroke-width:0.5;opacity:1.0;" x1="792.836" x2="792.836" y1="1919" y2="1933"/>
  <text style="stroke:none;fill:black;font-family:sans-serif;font-size:13;font-weight:bold;" transform="matrix(1 0 0 1 776 1953)">Margins</text>
  <text style="stroke:none;fill:black;font-family:sans-serif;font-size:13;" transform="matrix(1 0 0 1 776 1971)">Leading and trailing margins on the left and right side of each symbol</text>
  <text style="stroke:none;fill:black;font-family:sans-serif;font-size:13;" transform="matrix(1 0 0 1 776 1989)">can be adjusted by modifying the x-location of the margin guidelines.</text>
  <text style="stroke:none;fill:black;font-family:sans-serif;font-size:13;" transform="matrix(1 0 0 1 776 2007)">Modifications are automatically applied proportionally to all</text>
  <text style="stroke:none;fill:black;font-family:sans-serif;font-size:13;" transform="matrix(1 0 0 1 776 2025)">scales and weights.</text>
  <g transform="matrix(0.2 0 0 0.2 1289 1933)">
   <path d="m14.209 9.32617 8.49609 8.54492c4.29688 4.3457 9.22852 4.05273 13.8672-1.07422l53.4668-58.9355-4.83398-4.88281-53.0762 58.3984c-1.75781 2.00195-3.41797 2.49023-5.76172 0.146484l-5.85938-5.81055c-2.34375-2.29492-1.80664-4.00391 0.195312-5.81055l57.373-54.0039-4.88281-4.83398-57.959 54.4434c-4.93164 4.58984-5.32227 9.47266-1.02539 13.8184Zm32.0801-90.9668c-2.09961 2.05078-2.24609 4.93164-1.07422 6.88477 1.17188 1.80664 3.4668 2.97852 6.68945 2.14844 7.32422-1.70898 14.9414-2.00195 22.0703 2.68555l-2.92969 7.27539c-1.70898 4.15039-0.830078 7.08008 1.85547 9.81445l11.4746 11.5723c2.44141 2.44141 4.49219 2.53906 7.32422 2.05078l5.32227-0.976562 3.32031 3.36914-0.195312 2.7832c-0.195312 2.49023 0.439453 4.39453 2.88086 6.78711l3.80859 3.71094c2.39258 2.39258 5.46875 2.53906 7.8125 0.195312l14.5508-14.5996c2.34375-2.34375 2.24609-5.32227-0.146484-7.71484l-3.85742-3.80859c-2.39258-2.39258-4.24805-3.17383-6.64062-2.97852l-2.88086 0.244141-3.22266-3.17383 1.2207-5.61523c0.634766-2.83203-0.146484-5.0293-3.07617-7.95898l-10.9863-10.9375c-16.6992-16.6016-38.8672-16.2109-53.3203-1.75781Zm7.4707 1.85547c12.1582-8.88672 28.6133-7.37305 39.7461 3.75977l12.1582 12.0605c1.17188 1.17188 1.36719 2.09961 1.02539 3.80859l-1.61133 7.42188 7.51953 7.42188 4.93164-0.292969c1.26953-0.0488281 1.66016 0.0488281 2.63672 1.02539l2.88086 2.88086-12.207 12.207-2.88086-2.88086c-0.976562-0.976562-1.12305-1.36719-1.07422-2.68555l0.341797-4.88281-7.4707-7.42188-7.61719 1.26953c-1.61133 0.341797-2.34375 0.195312-3.56445-0.976562l-10.0098-10.0098c-1.26953-1.17188-1.41602-2.00195-0.634766-3.85742l4.39453-10.4492c-7.8125-7.27539-17.9688-10.4004-28.125-7.42188-0.78125 0.195312-1.07422-0.439453-0.439453-0.976562Z"/>
  </g>
  <text style="stroke:none;fill:black;font-family:sans-serif;font-size:13;font-weight:bold;" transform="matrix(1 0 0 1 1289 1953)">Exporting</text>
  <text style="stroke:none;fill:black;font-family:sans-serif;font-size:13;" transform="matrix(1 0 0 1 1289 1971)">Symbols should be outlined when exporting to ensure the</text>
  <text style="stroke:none;fill:black;font-family:sans-serif;font-size:13;" transform="matrix(1 0 0 1 1289 1989)">design is preserved when submitting to Xcode.</text>
  <text id="template-version" style="stroke:none;fill:black;font-family:sans-serif;font-size:13;text-anchor:end;" transform="matrix(1 0 0 1 3036 1933)">Template v.6.0</text>
  <text style="stroke:none;fill:black;font-family:sans-serif;font-size:13;text-anchor:end;" transform="matrix(1 0 0 1 3036 1951)">Requires Xcode 16 or greater</text>
  <text id="descriptive-name" style="stroke:none;fill:black;font-family:sans-serif;font-size:13;text-anchor:end;" transform="matrix(1 0 0 1 3036 1969)">Generated from square</text>
  <text style="stroke:none;fill:black;font-family:sans-serif;font-size:13;text-anchor:end;" transform="matrix(1 0 0 1 3036 1987)">Typeset at 100.0 points</text>
  <text style="stroke:none;fill:black;font-family:sans-serif;font-size:13;" transform="matrix(1 0 0 1 263 726)">Small</text>
  <text style="stroke:none;fill:black;font-family:sans-serif;font-size:13;" transform="matrix(1 0 0 1 263 1156)">Medium</text>
  <text style="stroke:none;fill:black;font-family:sans-serif;font-size:13;" transform="matrix(1 0 0 1 263 1586)">Large</text>
 </g>
 <g id="Guides">
  <g id="H-reference" style="fill:#27AAE1;stroke:none;" transform="matrix(1 0 0 1 339 696)">
   <path d="M0.993654 0L3.63775 0L29.3281-67.1323L30.0303-67.1323L30.0303-70.459L28.1226-70.459ZM11.6885-24.4799L46.9815-24.4799L46.2315-26.7285L12.4385-26.7285ZM55.1196 0L57.7637 0L30.6382-70.459L29.4326-70.459L29.4326-67.1323Z"/>
  </g>
  <line id="Baseline-S" style="fill:none;stroke:#27AAE1;opacity:1;stroke-width:0.5;" x1="263" x2="3036" y1="696" y2="696"/>
  <line id="Capline-S" style="fill:none;stroke:#27AAE1;opacity:1;stroke-width:0.5;" x1="263" x2="3036" y1="625.541" y2="625.541"/>
  <g id="H-reference" style="fill:#27AAE1;stroke:none;" transform="matrix(1 0 0 1 339 1126)">
   <path d="M0.993654 0L3.63775 0L29.3281-67.1323L30.0303-67.1323L30.0303-70.459L28.1226-70.459ZM11.6885-24.4799L46.9815-24.4799L46.2315-26.7285L12.4385-26.7285ZM55.1196 0L57.7637 0L30.6382-70.459L29.4326-70.459L29.4326-67.1323Z"/>
  </g>
  <line id="Baseline-M" style="fill:none;stroke:#27AAE1;opacity:1;stroke-width:0.5;" x1="263" x2="3036" y1="1126" y2="1126"/>
  <line id="Capline-M" style="fill:none;stroke:#27AAE1;opacity:1;stroke-width:0.5;" x1="263" x2="3036" y1="1055.54" y2="1055.54"/>
  <g id="H-reference" style="fill:#27AAE1;stroke:none;" transform="matrix(1 0 0 1 339 1556)">
   <path d="M0.993654 0L3.63775 0L29.3281-67.1323L30.0303-67.1323L30.0303-70.459L28.1226-70.459ZM11.6885-24.4799L46.9815-24.4799L46.2315-26.7285L12.4385-26.7285ZM55.1196 0L57.7637 0L30.6382-70.459L29.4326-70.459L29.4326-67.1323Z"/>
  </g>
  <line id="Baseline-L" style="fill:none;stroke:#27AAE1;opacity:1;stroke-width:0.5;" x1="263" x2="3036" y1="1556" y2="1556"/>
  <line id="Capline-L" style="fill:none;stroke:#27AAE1;opacity:1;stroke-width:0.5;" x1="263" x2="3036" y1="1485.54" y2="1485.54"/>
  <line id="right-margin-Black-S" style="fill:none;stroke:#00AEEF;stroke-width:0.5;opacity:1.0;" x1="2981.3" x2="2981.3" y1="600.785" y2="720.121"/>
  <line id="left-margin-Black-S" style="fill:none;stroke:#00AEEF;stroke-width:0.5;opacity:1.0;" x1="2885.5" x2="2885.5" y1="600.785" y2="720.121"/>
  <line id="right-margin-Regular-S" style="fill:none;stroke:#00AEEF;stroke-width:0.5;opacity:1.0;" x1="1495.18" x2="1495.18" y1="600.785" y2="720.121"/>
  <line id="left-margin-Regular-S" style="fill:none;stroke:#00AEEF;stroke-width:0.5;opacity:1.0;" x1="1404.51" x2="1404.51" y1="600.785" y2="720.121"/>
  <line id="right-margin-Ultralight-S" style="fill:none;stroke:#00AEEF;stroke-width:0.5;opacity:1.0;" x1="603.073" x2="603.073" y1="600.785" y2="720.121"/>
  <line id="left-margin-Ultralight-S" style="fill:none;stroke:#00AEEF;stroke-width:0.5;opacity:1.0;" x1="516.35" x2="516.35" y1="600.785" y2="720.121"/>
 </g>
 <g id="Symbols">
  <g id="Black-S"><path d="M2903.71983,662.58324h3.58722v-3.60249h-3.58722zM2910.93995,658.98075l-0.00757,-3.60249v-0.1295c-0.04484,-2.98199 -2.49374,-5.36565 -5.47585,-5.32997c-2.98211,0.03568 -5.37328,2.47726 -5.34676,5.45947v0.02284h3.63304v-0.02284c0.0171,-0.97414 0.81168,-1.75489 1.78597,-1.75489c0.97429,0 1.76887,0.78075 1.78597,1.75489v3.60249zM2918.14494,662.53755c0,6.92385 -5.61289,12.53675 -12.53675,12.53675h-0.08381c-6.92385,0 -12.53675,-5.61289 -12.53675,-12.53675h-3.62437v0.02284c0.00204,4.28358 1.70616,8.39079 4.73725,11.4176c3.03109,3.0268 7.14071,4.72511 11.42428,4.72109h0.10665c4.28359,-0.00204 8.39082,-1.70615 11.41764,-4.73724c3.02683,-3.03108 4.72516,-7.1407 4.72118,-11.42429v-3.57965h-3.62533zM2896.50728,662.53755c0.01938,4.95392 4.04078,8.95962 8.99474,8.95962c4.95396,0 8.97536,-4.0057 8.99474,-8.95962h-3.62533c-0.0492,2.93029 -2.43869,5.28 -5.3694,5.28c-2.93071,0 -5.3202,-2.34971 -5.3694,-5.28v-3.57208h-3.61777v-3.66332c0.07566,-4.95051 4.1346,-8.91087 9.08548,-8.86482c4.95087,0.04605 8.93544,4.08124 8.919,9.0323v3.4807h3.62533v-3.4807c0,-6.97409 -5.65362,-12.62771 -12.62771,-12.62771c-6.97409,0 -12.62771,5.65362 -12.62771,12.62771v3.49543h3.61804zM2954.08549,652.74307c1.8812,0 3.38162,0.91404 4.13561,2.5134l0.09895,0.21317l3.19887,-1.58409l-0.08381,-0.19803c-1.10436,-2.65047 -3.92203,-4.30323 -7.34962,-4.30323c-3.18359,0 -6.00154,1.56881 -7.01452,3.91474c-0.01693,3.69855 -0.02174,3.289 0,3.41974c0.64679,1.51556 2.00299,2.66561 3.94515,3.33593c0.88847,0.27253 1.80181,0.45619 2.72657,0.54826c0.75399,0.09908 1.4623,0.19046 2.17831,0.42661c0.87578,0.28899 1.43946,0.72344 1.76698,1.35565v1.35565c-0.51028,1.03583 -1.89648,1.69845 -3.54923,1.69845c-1.97258,0 -3.57194,-0.95202 -4.39447,-2.62006l-0.09908,-0.2056l-3.16804,1.58354l0.0761,0.19803c1.08922,2.67331 4.07465,4.40974 7.60861,4.40974c3.25212,0 6.13874,-1.56881 7.19728,-3.91474l0.02284,-3.56423l-0.02284,-0.09138c-0.67019,-1.51569 -2.09437,-2.70373 -3.98313,-3.33593c-1.05867,-0.37321 -1.97271,-0.49541 -2.84863,-0.60922c-0.69091,-0.07027 -1.37406,-0.20283 -2.04111,-0.39606c-0.86835,-0.26656 -1.4312,-0.70074 -1.73657,-1.32523v-1.15762c0.46473,-1.01244 1.77469,-1.66748 3.33607,-1.66748zM2928.937,668.38675h3.58722v-9.41288h-3.58722zM2977.41415,661.05186c-0.40363,-0.86065 -1.14221,-1.65276 -2.12492,-2.3001c0.77528,-0.52971 1.39358,-1.25845 1.78996,-2.10964l0.02284,-3.48813l-0.02284,-0.09138c-1.01312,-2.20033 -3.67887,-3.67832 -6.62617,-3.67832c-2.9473,0 -5.61319,1.47799 -6.62617,3.67873l-0.02284,3.48813l0.02284,0.09138c0.40541,0.84537 1.02184,1.572 1.78982,2.10978c-0.99083,0.64679 -1.72129,1.43946 -2.12492,2.3001l-0.02284,3.97557l0.02284,0.09908c1.0434,2.20102 3.8385,3.67859 6.96127,3.67859c3.12276,0 5.9253,-1.47757 6.96113,-3.67859l0.02284,-3.9757zM2967.33797,654.06018c0.49541,-0.86835 1.72886,-1.44716 3.10735,-1.44716c1.37849,0 2.61992,0.57881 3.11506,1.44716v1.88877c-0.48743,0.85321 -1.72886,1.42418 -3.11506,1.42418c-1.3862,0 -2.62762,-0.5711 -3.10735,-1.42418zM2973.84978,663.99173c-0.51798,0.9139 -1.83551,1.50001 -3.39676,1.50001c-1.53097,0 -2.88662,-0.60165 -3.39689,-1.50001v-2.22345c0.51028,-0.86821 1.85781,-1.44702 3.39689,-1.44702c1.56124,0 2.87877,0.5711 3.39676,1.44702zM2941.16163,662.1415l-8.2331,-12.34587h-3.99084v5.59034h3.64818v0.05326l8.60632,12.94753h3.53368v-18.59113h-3.56423z" className="SFSymbolsPreviewWireframe"/></g>
  <g id="Regular-S"><path d="M1420.16479,662.58324h3.58722v-3.60249h-3.58722zM1427.3849,658.98075l-0.00757,-3.60249v-0.1295c-0.04484,-2.98199 -2.49374,-5.36565 -5.47585,-5.32997c-2.98211,0.03568 -5.37328,2.47726 -5.34676,5.45947v0.02284h3.63304v-0.02284c0.0171,-0.97414 0.81168,-1.75489 1.78597,-1.75489c0.97429,0 1.76887,0.78075 1.78597,1.75489v3.60249zM1434.58989,662.53755c0,6.92385 -5.61289,12.53675 -12.53675,12.53675h-0.08381c-6.92385,0 -12.53675,-5.61289 -12.53675,-12.53675h-3.62437v0.02284c0.00204,4.28358 1.70616,8.39079 4.73725,11.4176c3.03109,3.0268 7.14071,4.72511 11.42428,4.72109h0.10665c4.28359,-0.00204 8.39082,-1.70615 11.41764,-4.73724c3.02683,-3.03108 4.72516,-7.1407 4.72118,-11.42429v-3.57965h-3.62533zM1412.95223,662.53755c0.01938,4.95392 4.04078,8.95962 8.99474,8.95962c4.95396,0 8.97536,-4.0057 8.99474,-8.95962h-3.62533c-0.0492,2.93029 -2.43869,5.28 -5.3694,5.28c-2.93071,0 -5.3202,-2.34971 -5.3694,-5.28v-3.57208h-3.61777v-3.66332c0.07566,-4.95051 4.1346,-8.91087 9.08548,-8.86482c4.95087,0.04605 8.93544,4.08124 8.919,9.0323v3.4807h3.62533v-3.4807c0,-6.97409 -5.65362,-12.62771 -12.62771,-12.62771c-6.97409,0 -12.62771,5.65362 -12.62771,12.62771v3.49543h3.61804zM1470.53044,652.74307c1.8812,0 3.38162,0.91404 4.13561,2.5134l0.09895,0.21317l3.19887,-1.58409l-0.08381,-0.19803c-1.10436,-2.65047 -3.92203,-4.30323 -7.34962,-4.30323c-3.18359,0 -6.00154,1.56881 -7.01452,3.91474c-0.01693,3.69855 -0.02174,3.289 0,3.41974c0.64679,1.51556 2.00299,2.66561 3.94515,3.33593c0.88847,0.27253 1.80181,0.45619 2.72657,0.54826c0.75399,0.09908 1.4623,0.19046 2.17831,0.42661c0.87578,0.28899 1.43946,0.72344 1.76698,1.35565v1.35565c-0.51028,1.03583 -1.89648,1.69845 -3.54923,1.69845c-1.97258,0 -3.57194,-0.95202 -4.39447,-2.62006l-0.09908,-0.2056l-3.16804,1.58354l0.0761,0.19803c1.08922,2.67331 4.07465,4.40974 7.60861,4.40974c3.25212,0 6.13874,-1.56881 7.19728,-3.91474l0.02284,-3.56423l-0.02284,-0.09138c-0.67019,-1.51569 -2.09437,-2.70373 -3.98313,-3.33593c-1.05867,-0.37321 -1.97271,-0.49541 -2.84863,-0.60922c-0.69091,-0.07027 -1.37406,-0.20283 -2.04111,-0.39606c-0.86835,-0.26656 -1.4312,-0.70074 -1.73657,-1.32523v-1.15762c0.46473,-1.01244 1.77469,-1.66748 3.33607,-1.66748zM1445.38195,668.38675h3.58722v-9.41288h-3.58722zM1493.8591,661.05186c-0.40363,-0.86065 -1.14221,-1.65276 -2.12492,-2.3001c0.77528,-0.52971 1.39358,-1.25845 1.78996,-2.10964l0.02284,-3.48813l-0.02284,-0.09138c-1.01312,-2.20033 -3.67887,-3.67832 -6.62617,-3.67832c-2.9473,0 -5.61319,1.47799 -6.62617,3.67873l-0.02284,3.48813l0.02284,0.09138c0.40541,0.84537 1.02184,1.572 1.78982,2.10978c-0.99083,0.64679 -1.72129,1.43946 -2.12492,2.3001l-0.02284,3.97557l0.02284,0.09908c1.0434,2.20102 3.8385,3.67859 6.96127,3.67859c3.12276,0 5.9253,-1.47757 6.96113,-3.67859l0.02284,-3.9757zM1483.78292,654.06018c0.49541,-0.86835 1.72886,-1.44716 3.10735,-1.44716c1.37849,0 2.61992,0.57881 3.11506,1.44716v1.88877c-0.48743,0.85321 -1.72886,1.42418 -3.11506,1.42418c-1.3862,0 -2.62762,-0.5711 -3.10735,-1.42418zM1490.29473,663.99173c-0.51798,0.9139 -1.83551,1.50001 -3.39676,1.50001c-1.53097,0 -2.88662,-0.60165 -3.39689,-1.50001v-2.22345c0.51028,-0.86821 1.85781,-1.44702 3.39689,-1.44702c1.56124,0 2.87877,0.5711 3.39676,1.44702zM1457.60658,662.1415l-8.2331,-12.34587h-3.99084v5.59034h3.64818v0.05326l8.60632,12.94753h3.53368v-18.59113h-3.56423z" className="SFSymbolsPreviewWireframe"/></g>
  <g id="Ultralight-S"><path d="M530.03119,662.58324h3.58722v-3.60249h-3.58722zM537.25131,658.98075l-0.00757,-3.60249v-0.1295c-0.04484,-2.98199 -2.49374,-5.36565 -5.47585,-5.32997c-2.98211,0.03568 -5.37328,2.47726 -5.34676,5.45947v0.02284h3.63304v-0.02284c0.0171,-0.97414 0.81168,-1.75489 1.78597,-1.75489c0.97429,0 1.76887,0.78075 1.78597,1.75489v3.60249zM544.4563,662.53755c0,6.92385 -5.61289,12.53675 -12.53675,12.53675h-0.08381c-6.92385,0 -12.53675,-5.61289 -12.53675,-12.53675h-3.62437v0.02284c0.00204,4.28358 1.70616,8.39079 4.73725,11.4176c3.03109,3.0268 7.14071,4.72511 11.42428,4.72109h0.10665c4.28359,-0.00204 8.39082,-1.70615 11.41764,-4.73724c3.02683,-3.03108 4.72516,-7.1407 4.72118,-11.42429v-3.57965h-3.62533zM522.81864,662.53755c0.01938,4.95392 4.04078,8.95962 8.99474,8.95962c4.95396,0 8.97536,-4.0057 8.99474,-8.95962h-3.62533c-0.0492,2.93029 -2.43869,5.28 -5.3694,5.28c-2.93071,0 -5.3202,-2.34971 -5.3694,-5.28v-3.57208h-3.61777v-3.66332c0.07566,-4.95051 4.1346,-8.91087 9.08548,-8.86482c4.95087,0.04605 8.93544,4.08124 8.919,9.0323v3.4807h3.62533v-3.4807c0,-6.97409 -5.65362,-12.62771 -12.62771,-12.62771c-6.97409,0 -12.62771,5.65362 -12.62771,12.62771v3.49543h3.61804zM580.39685,652.74307c1.8812,0 3.38162,0.91404 4.13561,2.5134l0.09895,0.21317l3.19887,-1.58409l-0.08381,-0.19803c-1.10436,-2.65047 -3.92203,-4.30323 -7.34962,-4.30323c-3.18359,0 -6.00154,1.56881 -7.01452,3.91474c-0.01693,3.69855 -0.02174,3.289 0,3.41974c0.64679,1.51556 2.00299,2.66561 3.94515,3.33593c0.88847,0.27253 1.80181,0.45619 2.72657,0.54826c0.75399,0.09908 1.4623,0.19046 2.17831,0.42661c0.87578,0.28899 1.43946,0.72344 1.76698,1.35565v1.35565c-0.51028,1.03583 -1.89648,1.69845 -3.54923,1.69845c-1.97258,0 -3.57194,-0.95202 -4.39447,-2.62006l-0.09908,-0.2056l-3.16804,1.58354l0.0761,0.19803c1.08922,2.67331 4.07465,4.40974 7.60861,4.40974c3.25212,0 6.13874,-1.56881 7.19728,-3.91474l0.02284,-3.56423l-0.02284,-0.09138c-0.67019,-1.51569 -2.09437,-2.70373 -3.98313,-3.33593c-1.05867,-0.37321 -1.97271,-0.49541 -2.84863,-0.60922c-0.69091,-0.07027 -1.37406,-0.20283 -2.04111,-0.39606c-0.86835,-0.26656 -1.4312,-0.70074 -1.73657,-1.32523v-1.15762c0.46473,-1.01244 1.77469,-1.66748 3.33607,-1.66748zM555.24836,668.38675h3.58722v-9.41288h-3.58722zM603.72551,661.05186c-0.40363,-0.86065 -1.14221,-1.65276 -2.12492,-2.3001c0.77528,-0.52971 1.39358,-1.25845 1.78996,-2.10964l0.02284,-3.48813l-0.02284,-0.09138c-1.01312,-2.20033 -3.67887,-3.67832 -6.62617,-3.67832c-2.9473,0 -5.61319,1.47799 -6.62617,3.67873l-0.02284,3.48813l0.02284,0.09138c0.40541,0.84537 1.02184,1.572 1.78982,2.10978c-0.99083,0.64679 -1.72129,1.43946 -2.12492,2.3001l-0.02284,3.97557l0.02284,0.09908c1.0434,2.20102 3.8385,3.67859 6.96127,3.67859c3.12276,0 5.9253,-1.47757 6.96113,-3.67859l0.02284,-3.9757zM593.64933,654.06018c0.49541,-0.86835 1.72886,-1.44716 3.10735,-1.44716c1.37849,0 2.61992,0.57881 3.11506,1.44716v1.88877c-0.48743,0.85321 -1.72886,1.42418 -3.11506,1.42418c-1.3862,0 -2.62762,-0.5711 -3.10735,-1.42418zM600.16114,663.99173c-0.51798,0.9139 -1.83551,1.50001 -3.39676,1.50001c-1.53097,0 -2.88662,-0.60165 -3.39689,-1.50001v-2.22345c0.51028,-0.86821 1.85781,-1.44702 3.39689,-1.44702c1.56124,0 2.87877,0.5711 3.39676,1.44702zM567.47299,662.1415l-8.2331,-12.34587h-3.99084v5.59034h3.64818v0.05326l8.60632,12.94753h3.53368v-18.59113h-3.56423z" className="SFSymbolsPreviewWireframe"/></g>
 </g>
</svg>