<?xml version="1.0" encoding="UTF-8"?><!--Generator: https://SymbolKit.app--><!DOCTYPE svg PUBLIC "-//W3C//DTD SVG 1.1//EN" "http://www.w3.org/Graphics/SVG/1.1/DTD/svg11.dtd"><svg xmlns="http://www.w3.org/2000/svg" xmlns:xlink="http://www.w3.org/1999/xlink" version="1.1" viewBox="0 0 3300 2200">
 <!--glyph: "100092", point size: 100.0, font version: "20.0d10e1", template writer version: "138.0.0"-->
 <style>.SFSymbolsPreviewWireframe {fill:none;opacity:1.0;stroke:black;stroke-width:0.5}
</style>
 <g id="Notes">
  <rect height="2200" id="artboard" style="fill:white;opacity:1" width="3300" x="0" y="0"/>
  <line style="fill:none;stroke:black;opacity:1;stroke-width:0.5;" x1="263" x2="3036" y1="292" y2="292"/>
  <text style="stroke:none;fill:black;font-family:sans-serif;font-size:13;font-weight:bold;" transform="matrix(1 0 0 1 263 322)">Weight/Scale Variations</text>
  <text style="stroke:none;fill:black;font-family:sans-serif;font-size:13;text-anchor:middle;" transform="matrix(1 0 0 1 559.711 322)">Ultralight</text>
  <text style="stroke:none;fill:black;font-family:sans-serif;font-size:13;text-anchor:middle;" transform="matrix(1 0 0 1 856.422 322)">Thin</text>
  <text style="stroke:none;fill:black;font-family:sans-serif;font-size:13;text-anchor:middle;" transform="matrix(1 0 0 1 1153.13 322)">Light</text>
  <text style="stroke:none;fill:black;font-family:sans-serif;font-size:13;text-anchor:middle;" transform="matrix(1 0 0 1 1449.84 322)">Regular</text>
  <text style="stroke:none;fill:black;font-family:sans-serif;font-size:13;text-anchor:middle;" transform="matrix(1 0 0 1 1746.56 322)">Medium</text>
  <text style="stroke:none;fill:black;font-family:sans-serif;font-size:13;text-anchor:middle;" transform="matrix(1 0 0 1 2043.27 322)">Semibold</text>
  <text style="stroke:none;fill:black;font-family:sans-serif;font-size:13;text-anchor:middle;" transform="matrix(1 0 0 1 2339.98 322)">Bold</text>
  <text style="stroke:none;fill:black;font-family:sans-serif;font-size:13;text-anchor:middle;" transform="matrix(1 0 0 1 2636.69 322)">Heavy</text>
  <text style="stroke:none;fill:black;font-family:sans-serif;font-size:13;text-anchor:middle;" transform="matrix(1 0 0 1 2933.4 322)">Black</text>
  <line style="fill:none;stroke:black;opacity:1;stroke-width:0.5;" x1="263" x2="3036" y1="1903" y2="1903"/>
  <g transform="matrix(0.2 0 0 0.2 263 1933)">
   <path d="m46.2402 4.15039c21.7773 0 39.4531-17.627 39.4531-39.4043s-17.6758-39.4043-39.4531-39.4043c-21.7285 0-39.4043 17.627-39.4043 39.4043s17.6758 39.4043 39.4043 39.4043Zm0-7.42188c-17.6758 0-31.9336-14.3066-31.9336-31.9824s14.2578-31.9824 31.9336-31.9824 31.9824 14.3066 31.9824 31.9824-14.3066 31.9824-31.9824 31.9824Zm-17.9688-31.9824c0 2.14844 1.51367 3.61328 3.75977 3.61328h10.498v10.5957c0 2.19727 1.46484 3.71094 3.61328 3.71094 2.24609 0 3.71094-1.51367 3.71094-3.71094v-10.5957h10.5957c2.19727 0 3.71094-1.46484 3.71094-3.61328 0-2.19727-1.51367-3.71094-3.71094-3.71094h-10.5957v-10.5469c0-2.24609-1.46484-3.75977-3.71094-3.75977-2.14844 0-3.61328 1.51367-3.61328 3.75977v10.5469h-10.498c-2.24609 0-3.75977 1.51367-3.75977 3.71094Z"/>
  </g>
  <g transform="matrix(0.2 0 0 0.2 281.506 1933)">
   <path d="m58.5449 14.5508c27.4902 0 49.8047-22.3145 49.8047-49.8047s-22.3145-49.8047-49.8047-49.8047-49.8047 22.3145-49.8047 49.8047 22.3145 49.8047 49.8047 49.8047Zm0-8.30078c-22.9492 0-41.5039-18.5547-41.5039-41.5039s18.5547-41.5039 41.5039-41.5039 41.5039 18.5547 41.5039 41.5039-18.5547 41.5039-41.5039 41.5039Zm-22.6562-41.5039c0 2.39258 1.66016 4.00391 4.15039 4.00391h14.3555v14.4043c0 2.44141 1.66016 4.15039 4.05273 4.15039 2.44141 0 4.15039-1.66016 4.15039-4.15039v-14.4043h14.4043c2.44141 0 4.15039-1.61133 4.15039-4.00391 0-2.44141-1.70898-4.15039-4.15039-4.15039h-14.4043v-14.3555c0-2.49023-1.70898-4.19922-4.15039-4.19922-2.39258 0-4.05273 1.70898-4.05273 4.19922v14.3555h-14.3555c-2.49023 0-4.15039 1.70898-4.15039 4.15039Z"/>
  </g>
  <g transform="matrix(0.2 0 0 0.2 304.924 1933)">
   <path d="m74.8535 28.3203c35.1074 0 63.623-28.4668 63.623-63.5742s-28.5156-63.623-63.623-63.623-63.5742 28.5156-63.5742 63.623 28.4668 63.5742 63.5742 63.5742Zm0-9.08203c-30.127 0-54.4922-24.3652-54.4922-54.4922s24.3652-54.4922 54.4922-54.4922 54.4922 24.3652 54.4922 54.4922-24.3652 54.4922-54.4922 54.4922Zm-28.8574-54.4922c0 2.58789 1.85547 4.39453 4.58984 4.39453h19.7266v19.7754c0 2.68555 1.85547 4.58984 4.44336 4.58984 2.68555 0 4.54102-1.85547 4.54102-4.58984v-19.7754h19.7754c2.68555 0 4.58984-1.80664 4.58984-4.39453 0-2.73438-1.85547-4.58984-4.58984-4.58984h-19.7754v-19.7266c0-2.73438-1.85547-4.63867-4.54102-4.63867-2.58789 0-4.44336 1.9043-4.44336 4.63867v19.7266h-19.7266c-2.73438 0-4.58984 1.85547-4.58984 4.58984Z"/>
  </g>
  <text style="stroke:none;fill:black;font-family:sans-serif;font-size:13;font-weight:bold;" transform="matrix(1 0 0 1 263 1953)">Design Variations</text>
  <text style="stroke:none;fill:black;font-family:sans-serif;font-size:13;" transform="matrix(1 0 0 1 263 1971)">Symbols are supported in up to nine weights and three scales.</text>
  <text style="stroke:none;fill:black;font-family:sans-serif;font-size:13;" transform="matrix(1 0 0 1 263 1989)">For optimal layout with text and other symbols, vertically align</text>
  <text style="stroke:none;fill:black;font-family:sans-serif;font-size:13;" transform="matrix(1 0 0 1 263 2007)">symbols with the adjacent text.</text>
  <line style="fill:none;stroke:#00AEEF;stroke-width:0.5;opacity:1.0;" x1="776" x2="776" y1="1919" y2="1933"/>
  <g transform="matrix(0.2 0 0 0.2 776 1933)">
   <path d="m16.5527 0.78125c2.58789 0 3.85742-0.976562 4.78516-3.71094l6.29883-17.2363h28.8086l6.29883 17.2363c0.927734 2.73438 2.19727 3.71094 4.73633 3.71094 2.58789 0 4.24805-1.5625 4.24805-4.00391 0-0.830078-0.146484-1.61133-0.537109-2.63672l-22.9004-60.9863c-1.12305-2.97852-3.125-4.49219-6.25-4.49219-3.02734 0-5.07812 1.46484-6.15234 4.44336l-22.9004 61.084c-0.390625 1.02539-0.537109 1.80664-0.537109 2.63672 0 2.44141 1.5625 3.95508 4.10156 3.95508Zm13.4766-28.3691 11.8652-32.8613h0.244141l11.8652 32.8613Z"/>
  </g>
  <line style="fill:none;stroke:#00AEEF;stroke-width:0.5;opacity:1.0;" x1="792.836" x2="792.836" y1="1919" y2="1933"/>
  <text style="stroke:none;fill:black;font-family:sans-serif;font-size:13;font-weight:bold;" transform="matrix(1 0 0 1 776 1953)">Margins</text>
  <text style="stroke:none;fill:black;font-family:sans-serif;font-size:13;" transform="matrix(1 0 0 1 776 1971)">Leading and trailing margins on the left and right side of each symbol</text>
  <text style="stroke:none;fill:black;font-family:sans-serif;font-size:13;" transform="matrix(1 0 0 1 776 1989)">can be adjusted by modifying the x-location of the margin guidelines.</text>
  <text style="stroke:none;fill:black;font-family:sans-serif;font-size:13;" transform="matrix(1 0 0 1 776 2007)">Modifications are automatically applied proportionally to all</text>
  <text style="stroke:none;fill:black;font-family:sans-serif;font-size:13;" transform="matrix(1 0 0 1 776 2025)">scales and weights.</text>
  <g transform="matrix(0.2 0 0 0.2 1289 1933)">
   <path d="m14.209 9.32617 8.49609 8.54492c4.29688 4.3457 9.22852 4.05273 13.8672-1.07422l53.4668-58.9355-4.83398-4.88281-53.0762 58.3984c-1.75781 2.00195-3.41797 2.49023-5.76172 0.146484l-5.85938-5.81055c-2.34375-2.29492-1.80664-4.00391 0.195312-5.81055l57.373-54.0039-4.88281-4.83398-57.959 54.4434c-4.93164 4.58984-5.32227 9.47266-1.02539 13.8184Zm32.0801-90.9668c-2.09961 2.05078-2.24609 4.93164-1.07422 6.88477 1.17188 1.80664 3.4668 2.97852 6.68945 2.14844 7.32422-1.70898 14.9414-2.00195 22.0703 2.68555l-2.92969 7.27539c-1.70898 4.15039-0.830078 7.08008 1.85547 9.81445l11.4746 11.5723c2.44141 2.44141 4.49219 2.53906 7.32422 2.05078l5.32227-0.976562 3.32031 3.36914-0.195312 2.7832c-0.195312 2.49023 0.439453 4.39453 2.88086 6.78711l3.80859 3.71094c2.39258 2.39258 5.46875 2.53906 7.8125 0.195312l14.5508-14.5996c2.34375-2.34375 2.24609-5.32227-0.146484-7.71484l-3.85742-3.80859c-2.39258-2.39258-4.24805-3.17383-6.64062-2.97852l-2.88086 0.244141-3.22266-3.17383 1.2207-5.61523c0.634766-2.83203-0.146484-5.0293-3.07617-7.95898l-10.9863-10.9375c-16.6992-16.6016-38.8672-16.2109-53.3203-1.75781Zm7.4707 1.85547c12.1582-8.88672 28.6133-7.37305 39.7461 3.75977l12.1582 12.0605c1.17188 1.17188 1.36719 2.09961 1.02539 3.80859l-1.61133 7.42188 7.51953 7.42188 4.93164-0.292969c1.26953-0.0488281 1.66016 0.0488281 2.63672 1.02539l2.88086 2.88086-12.207 12.207-2.88086-2.88086c-0.976562-0.976562-1.12305-1.36719-1.07422-2.68555l0.341797-4.88281-7.4707-7.42188-7.61719 1.26953c-1.61133 0.341797-2.34375 0.195312-3.56445-0.976562l-10.0098-10.0098c-1.26953-1.17188-1.41602-2.00195-0.634766-3.85742l4.39453-10.4492c-7.8125-7.27539-17.9688-10.4004-28.125-7.42188-0.78125 0.195312-1.07422-0.439453-0.439453-0.976562Z"/>
  </g>
  <text style="stroke:none;fill:black;font-family:sans-serif;font-size:13;font-weight:bold;" transform="matrix(1 0 0 1 1289 1953)">Exporting</text>
  <text style="stroke:none;fill:black;font-family:sans-serif;font-size:13;" transform="matrix(1 0 0 1 1289 1971)">Symbols should be outlined when exporting to ensure the</text>
  <text style="stroke:none;fill:black;font-family:sans-serif;font-size:13;" transform="matrix(1 0 0 1 1289 1989)">design is preserved when submitting to Xcode.</text>
  <text id="template-version" style="stroke:none;fill:black;font-family:sans-serif;font-size:13;text-anchor:end;" transform="matrix(1 0 0 1 3036 1933)">Template v.6.0</text>
  <text style="stroke:none;fill:black;font-family:sans-serif;font-size:13;text-anchor:end;" transform="matrix(1 0 0 1 3036 1951)">Requires Xcode 16 or greater</text>
  <text id="descriptive-name" style="stroke:none;fill:black;font-family:sans-serif;font-size:13;text-anchor:end;" transform="matrix(1 0 0 1 3036 1969)">Generated from square</text>
  <text style="stroke:none;fill:black;font-family:sans-serif;font-size:13;text-anchor:end;" transform="matrix(1 0 0 1 3036 1987)">Typeset at 100.0 points</text>
  <text style="stroke:none;fill:black;font-family:sans-serif;font-size:13;" transform="matrix(1 0 0 1 263 726)">Small</text>
  <text style="stroke:none;fill:black;font-family:sans-serif;font-size:13;" transform="matrix(1 0 0 1 263 1156)">Medium</text>
  <text style="stroke:none;fill:black;font-family:sans-serif;font-size:13;" transform="matrix(1 0 0 1 263 1586)">Large</text>
 </g>
 <g id="Guides">
  <g id="H-reference" style="fill:#27AAE1;stroke:none;" transform="matrix(1 0 0 1 339 696)">
   <path d="M0.993654 0L3.63775 0L29.3281-67.1323L30.0303-67.1323L30.0303-70.459L28.1226-70.459ZM11.6885-24.4799L46.9815-24.4799L46.2315-26.7285L12.4385-26.7285ZM55.1196 0L57.7637 0L30.6382-70.459L29.4326-70.459L29.4326-67.1323Z"/>
  </g>
  <line id="Baseline-S" style="fill:none;stroke:#27AAE1;opacity:1;stroke-width:0.5;" x1="263" x2="3036" y1="696" y2="696"/>
  <line id="Capline-S" style="fill:none;stroke:#27AAE1;opacity:1;stroke-width:0.5;" x1="263" x2="3036" y1="625.541" y2="625.541"/>
  <g id="H-reference" style="fill:#27AAE1;stroke:none;" transform="matrix(1 0 0 1 339 1126)">
   <path d="M0.993654 0L3.63775 0L29.3281-67.1323L30.0303-67.1323L30.0303-70.459L28.1226-70.459ZM11.6885-24.4799L46.9815-24.4799L46.2315-26.7285L12.4385-26.7285ZM55.1196 0L57.7637 0L30.6382-70.459L29.4326-70.459L29.4326-67.1323Z"/>
  </g>
  <line id="Baseline-M" style="fill:none;stroke:#27AAE1;opacity:1;stroke-width:0.5;" x1="263" x2="3036" y1="1126" y2="1126"/>
  <line id="Capline-M" style="fill:none;stroke:#27AAE1;opacity:1;stroke-width:0.5;" x1="263" x2="3036" y1="1055.54" y2="1055.54"/>
  <g id="H-reference" style="fill:#27AAE1;stroke:none;" transform="matrix(1 0 0 1 339 1556)">
   <path d="M0.993654 0L3.63775 0L29.3281-67.1323L30.0303-67.1323L30.0303-70.459L28.1226-70.459ZM11.6885-24.4799L46.9815-24.4799L46.2315-26.7285L12.4385-26.7285ZM55.1196 0L57.7637 0L30.6382-70.459L29.4326-70.459L29.4326-67.1323Z"/>
  </g>
  <line id="Baseline-L" style="fill:none;stroke:#27AAE1;opacity:1;stroke-width:0.5;" x1="263" x2="3036" y1="1556" y2="1556"/>
  <line id="Capline-L" style="fill:none;stroke:#27AAE1;opacity:1;stroke-width:0.5;" x1="263" x2="3036" y1="1485.54" y2="1485.54"/>
  <line id="right-margin-Black-S" style="fill:none;stroke:#00AEEF;stroke-width:0.5;opacity:1.0;" x1="2981.3" x2="2981.3" y1="600.785" y2="720.121"/>
  <line id="left-margin-Black-S" style="fill:none;stroke:#00AEEF;stroke-width:0.5;opacity:1.0;" x1="2885.5" x2="2885.5" y1="600.785" y2="720.121"/>
  <line id="right-margin-Regular-S" style="fill:none;stroke:#00AEEF;stroke-width:0.5;opacity:1.0;" x1="1495.18" x2="1495.18" y1="600.785" y2="720.121"/>
  <line id="left-margin-Regular-S" style="fill:none;stroke:#00AEEF;stroke-width:0.5;opacity:1.0;" x1="1404.51" x2="1404.51" y1="600.785" y2="720.121"/>
  <line id="right-margin-Ultralight-S" style="fill:none;stroke:#00AEEF;stroke-width:0.5;opacity:1.0;" x1="603.073" x2="603.073" y1="600.785" y2="720.121"/>
  <line id="left-margin-Ultralight-S" style="fill:none;stroke:#00AEEF;stroke-width:0.5;opacity:1.0;" x1="516.35" x2="516.35" y1="600.785" y2="720.121"/>
 </g>
 <g id="Symbols">
  <g id="Black-S"><path d="M2931.71785,626.67425c1.03211,-0.04266 2.06423,-0.03853 3.09634,-0.01239c0.49679,0.01927 0.99083,0.05505 1.48487,0.10046c0.67707,0.03716 1.34725,0.14174 2.01882,0.22294c0.40321,0.05917 0.8023,0.13486 1.20413,0.20092c1.08716,0.18303 2.15643,0.45138 3.21882,0.74312c1.68441,0.47752 3.32891,1.08991 4.92112,1.8179c3.65506,1.68441 7.01012,4.01974 9.85738,6.86425c2.75643,2.76469 5.05323,5.99314 6.72801,9.5216c0.15551,0.35642 0.33578,0.70184 0.47752,1.06514c0.3867,0.88487 0.74175,1.78487 1.04312,2.70139c0.56973,1.6968 1.0101,3.439 1.29634,5.20598c0.07844,0.43211 0.14312,0.86698 0.19266,1.30322c0.07569,0.52707 0.12936,1.05826 0.16239,1.59083c0.11422,1.14771 0.1156,2.3023 0.10596,3.45414c-0.00963,0.68395 -0.03578,1.3679 -0.10321,2.04909c-0.03303,0.46514 -0.07018,0.93028 -0.13486,1.39267c-0.05367,0.37431 -0.0867,0.75138 -0.15275,1.12432c-0.12385,0.70872 -0.23395,1.41881 -0.39496,2.12065c-0.56422,2.54588 -1.41744,5.02984 -2.54726,7.3803c-2.17019,4.51791 -5.3436,8.55554 -9.23673,11.71381c-2.38102,1.94672 -5.01572,3.5606 -7.83168,4.79727c-0.85459,0.36881 -1.71469,0.72248 -2.5968,1.01973c-0.48303,0.15963 -0.96468,0.32752 -1.45459,0.46652c-0.91101,0.25872 -1.82891,0.50092 -2.75781,0.68808c-0.64129,0.12523 -1.28533,0.23807 -1.93074,0.34129c-0.72248,0.09083 -1.44496,0.19817 -2.17294,0.23945c-0.92065,0.09083 -1.84542,0.1156 -2.76882,0.11147c-0.93854,0.00413 -1.87845,-0.01651 -2.81423,-0.10872c-0.45275,-0.03165 -0.90413,-0.06881 -1.35276,-0.13073c-0.37431,-0.05367 -0.75138,-0.0867 -1.12432,-0.15275c-0.56697,-0.09908 -1.13533,-0.18853 -1.69955,-0.30551c-0.58486,-0.12936 -1.16835,-0.26009 -1.74634,-0.4156c-1.18762,-0.29862 -2.35047,-0.68945 -3.4968,-1.11881c-1.44358,-0.56697 -2.86102,-1.20413 -4.21653,-1.96102c-0.2945,-0.15826 -0.58899,-0.31514 -0.87386,-0.49129c-1.54404,-0.90551 -3.00827,-1.94037 -4.39268,-3.07432c-4.7725,-3.90965 -8.45095,-9.14178 -10.50692,-14.95877c-0.42523,-1.20276 -0.78578,-2.42891 -1.0734,-3.67157c-0.20367,-0.84771 -0.34679,-1.70918 -0.49266,-2.5679c-0.05505,-0.3234 -0.08395,-0.65092 -0.13073,-0.97569c-0.08257,-0.54496 -0.10321,-1.09542 -0.16101,-1.64313c-0.11009,-1.30322 -0.09771,-2.61331 -0.07018,-3.92066c0.01927,-0.48303 0.04679,-0.96468 0.09633,-1.44634c0.04266,-0.43624 0.0633,-0.87661 0.12661,-1.3101c0.05642,-0.3867 0.08945,-0.77753 0.15963,-1.16147c0.09633,-0.5422 0.1789,-1.08716 0.29174,-1.62661c0.47202,-2.2734 1.1656,-4.50415 2.10001,-6.6303c0.15826,-0.40184 0.35642,-0.78716 0.53119,-1.18211c1.1078,-2.29955 2.46331,-4.48075 4.05827,-6.47617c2.7523,-3.49267 6.20645,-6.42388 10.08307,-8.59682c1.03211,-0.5711 2.08625,-1.1078 3.17478,-1.56468c2.17707,-0.94679 4.46011,-1.6445 6.78581,-2.11652c0.48303,-0.0922 0.96881,-0.17064 1.45322,-0.25459c0.36055,-0.06468 0.72661,-0.09633 1.08854,-0.14862c0.48578,-0.07294 0.97707,-0.09358 1.4656,-0.14312c0.33853,-0.03303 0.67569,-0.04954 1.01285,-0.07018M2932.90684,630.03344c-1.27019,0.01376 -2.53625,0.13624 -3.79405,0.30688c-1.00459,0.14862 -1.99955,0.3578 -2.98763,0.59175c-1.91423,0.48165 -3.78167,1.14771 -5.56791,1.98441c-1.43946,0.6867 -2.8335,1.47248 -4.15323,2.36973c-0.57523,0.40184 -1.15597,0.79817 -1.69817,1.24267c-0.69909,0.54633 -1.3734,1.12432 -2.02019,1.73258c-0.34541,0.30826 -0.66193,0.64679 -0.99358,0.97156c-3.8835,3.96194 -6.66608,8.99866 -7.91287,14.40694c-0.28074,1.16147 -0.48716,2.34221 -0.61101,3.52983c-0.15138,1.2234 -0.19817,2.45643 -0.19404,3.68809c0.01514,0.98257 0.05229,1.96515 0.16789,2.94084c0.08532,0.97982 0.25734,1.94863 0.44037,2.91469c0.14725,0.63991 0.27936,1.28257 0.45826,1.91423c0.8656,3.21744 2.27065,6.28901 4.13809,9.0482c1.189,1.78625 2.58441,3.43075 4.1257,4.9225c2.24038,2.17707 4.82341,3.99635 7.61563,5.39727c1.00184,0.48441 2.01744,0.94542 3.06469,1.32523c0.69358,0.2422 1.38441,0.49129 2.0945,0.68532c1.54955,0.4445 3.1335,0.77065 4.73259,0.97156c0.40046,0.03991 0.79954,0.08395 1.2,0.12385c1.90184,0.14862 3.81745,0.13762 5.71654,-0.05917c0.61239,-0.08257 1.22753,-0.13624 1.83716,-0.24496c0.49954,-0.0922 1.00184,-0.17202 1.49588,-0.28899c0.56835,-0.13486 1.13945,-0.26285 1.70092,-0.42248c3.6468,-1.0101 7.09819,-2.7124 10.12573,-4.98167c2.17157,-1.62661 4.12295,-3.54497 5.79635,-5.68076c0.44863,-0.55321 0.84909,-1.14358 1.25643,-1.72707c0.46652,-0.69633 0.90551,-1.41056 1.32111,-2.13854c0.33028,-0.61101 0.6523,-1.22615 0.95643,-1.85092c0.78303,-1.65826 1.41468,-3.38809 1.89221,-5.15919c0.35642,-1.37753 0.65367,-2.77432 0.81193,-4.19038c0.24358,-1.85368 0.26697,-3.72937 0.17752,-5.59406c-0.03991,-0.53532 -0.0922,-1.06927 -0.13762,-1.60459c-0.30688,-2.6257 -0.93441,-5.21699 -1.90184,-7.67893c-0.81881,-2.08212 -1.86193,-4.07754 -3.11148,-5.93534c-1.74634,-2.58717 -3.88625,-4.91011 -6.32617,-6.85737c-3.44726,-2.7523 -7.4959,-4.75461 -11.78674,-5.79085c-1.07065,-0.2656 -2.15918,-0.45963 -3.25185,-0.61239c-0.53808,-0.08119 -1.08028,-0.11284 -1.61973,-0.17064c-1.01698,-0.07844 -2.03808,-0.09908 -3.05781,-0.07982zM2918.43798,636.76144c1.83028,-1.2234 3.86423,-2.11652 5.95874,-2.77707c-0.43624,0.24358 -0.88624,0.46514 -1.31147,0.72798c-1.54267,0.91927 -2.96148,2.05047 -4.18075,3.3702c-0.93578,1.02248 -1.75597,2.16469 -2.34083,3.42524c-0.45275,0.94404 -0.77615,1.95276 -0.94404,2.98763c-0.12798,0.66743 -0.1789,1.35001 -0.16101,2.02982c0.01789,1.87982 0.61101,3.72662 1.55368,5.34222c0.81468,1.40643 1.8757,2.6601 3.07708,3.75139c0.66743,0.6 1.40918,1.11331 2.05735,1.73395c0.31101,0.30138 0.61789,0.60826 0.88487,0.95092c0.36055,0.45551 0.67294,0.96193 0.82432,1.52753c0.12385,0.4156 0.09083,0.85321 0.09495,1.2812c0.00275,0.56422 -0.0055,1.12844 0.00413,1.69267c0.01927,0.48716 -0.00275,0.97569 0.01514,1.46285c0.01101,0.32752 0.00275,0.65505 0.00688,0.98257c0.02202,0.79404 0.00826,1.5867 0.02064,2.38074c0.01514,0.40046 0.00275,0.80092 0.01789,1.20276c0.00413,0.22431 0.01789,0.45138 -0.00413,0.67569c-0.12523,0.01651 -0.25046,0.02477 -0.37569,0.02202c-1.51239,0 -3.01102,-0.36193 -4.39681,-0.95367c-0.82569,-0.37156 -1.62524,-0.81055 -2.35184,-1.35276c-0.79129,-0.57661 -1.52615,-1.23303 -2.17294,-1.96927c-0.89863,-0.99633 -1.64863,-2.1179 -2.28716,-3.29588c-0.14725,-0.27936 -0.30826,-0.55321 -0.43762,-0.84221c-0.15963,-0.3633 -0.36055,-0.70734 -0.50505,-1.07615c-0.55734,-1.33212 -0.90413,-2.74405 -1.11193,-4.17112c-0.06743,-0.61101 -0.15,-1.22202 -0.16514,-1.83716c-0.09633,-2.16469 0.1156,-4.34176 0.64266,-6.44314c0.29174,-1.12156 0.65642,-2.22661 1.14358,-3.27937c0.86973,-1.95414 2.11102,-3.74038 3.61928,-5.25552c0.86422,-0.85321 1.80689,-1.62936 2.82524,-2.29405zM2942.57156,633.99263c0.37707,0.10184 0.7445,0.23945 1.11331,0.36881c0.87523,0.32064 1.74496,0.66606 2.57478,1.09542c1.80414,0.88624 3.48304,2.03808 4.92938,3.43625c1.40368,1.36927 2.57891,2.97249 3.45965,4.72571c0.17615,0.37844 0.3633,0.75138 0.52431,1.1367c0.86835,2.07799 1.37615,4.30185 1.54542,6.54636c0.05642,0.62477 0.06055,1.25092 0.06193,1.87707c0.00963,1.60184 -0.20505,3.19955 -0.59175,4.75185c-0.2711,1.00046 -0.59863,1.99404 -1.08166,2.91469c-0.43762,0.91376 -0.91927,1.81102 -1.49175,2.64772c-0.95505,1.44083 -2.1468,2.73441 -3.55322,3.74589c-1.44221,1.05138 -3.11561,1.79175 -4.87158,2.11652c-0.48303,0.09495 -0.97432,0.14862 -1.46698,0.16651c-0.25459,0.00826 -0.51193,0.02202 -0.76514,-0.01376c-0.03853,-0.29587 0,-0.59312 -0.00138,-0.88899c-0.00413,-0.5133 0.01927,-1.02523 0.01376,-1.53716c0.02615,-0.96606 0.00275,-1.93349 0.0289,-2.89955c0.00413,-0.32752 -0.00413,-0.65505 0.00413,-0.98257c0.02339,-0.69771 -0.0055,-1.39542 0.01927,-2.09313c0.01376,-0.41147 -0.03303,-0.8312 0.07018,-1.23303c0.09083,-0.34404 0.24496,-0.66881 0.42523,-0.97432c0.61376,-1.00597 1.52202,-1.78349 2.43304,-2.51285c0.74037,-0.57523 1.44083,-1.20689 2.06698,-1.90459c1.05688,-1.15184 1.95001,-2.46056 2.58441,-3.89038c0.34404,-0.81606 0.62202,-1.66514 0.76376,-2.54038c0.11835,-0.60138 0.14587,-1.21514 0.13899,-1.82615c-0.00275,-1.08028 -0.19266,-2.15368 -0.50092,-3.18854c-0.24083,-0.78854 -0.58762,-1.53854 -0.97569,-2.26377c-0.53257,-0.95367 -1.19037,-1.83166 -1.92111,-2.64221c-1.3679,-1.49312 -2.99313,-2.74405 -4.76149,-3.72937c-0.25459,-0.14037 -0.52844,-0.25046 -0.77477,-0.40872zM2928.69994,642.03623c0.13486,-0.16239 0.27385,-0.32064 0.42936,-0.46514c-0.08395,0.12798 -0.17477,0.24908 -0.26835,0.36881c-0.42661,0.53395 -0.76239,1.14358 -0.96743,1.79725c-0.11973,0.45 -0.23119,0.90826 -0.23807,1.37615c-0.00963,0.34679 -0.01101,0.69771 0.04404,1.04175c0.15551,1.05 0.59587,2.04359 1.20689,2.90643c0.27523,0.37156 0.58486,0.72523 0.9523,1.00872c0.22294,0.17477 0.48578,0.28762 0.73487,0.41973c0.42798,0.23119 0.86973,0.4445 1.24817,0.75413c0.36743,0.28762 0.62615,0.73349 0.60551,1.20964c-0.00138,10.13811 0,20.27622 -0.00138,30.41571c0,0.18578 -0.01101,0.37156 0.0055,0.55597c0.01789,0.20367 0.11284,0.38945 0.20229,0.5711c0.11835,0.22844 0.24496,0.45963 0.43762,0.63578c0.11697,0.10596 0.2711,0.19266 0.43349,0.17064c0.20642,-0.02752 0.36606,-0.18578 0.47477,-0.35367c0.13211,-0.2078 0.23119,-0.43486 0.31376,-0.66743c0.10459,-0.29312 0.06055,-0.60826 0.07431,-0.91239c0.01927,-0.55459 -0.00275,-1.10918 0.01927,-1.66377c0.00413,-0.81055 0.00413,-1.61973 0.00826,-2.43028c0.01927,-0.49817 0.00413,-0.99633 0.01514,-1.4945c0.02064,-0.55459 -0.00275,-1.10918 0.01927,-1.66377c0.00413,-0.82432 0.00413,-1.64863 0.00963,-2.47295c0.01927,-0.49817 0.00275,-0.99633 0.01514,-1.4945c0.01927,-0.54083 -0.00275,-1.08166 0.01927,-1.62111c0.00413,-0.82432 0.00413,-1.64863 0.00826,-2.47295c0.02202,-0.5422 -0.00138,-1.08441 0.02615,-1.62661c0.03991,0.19817 0.01789,0.40184 0.03028,0.60275c0.02615,0.49679 0.0578,0.99496 0.10459,1.49175c0.04404,0.4734 0.06055,0.94817 0.11835,1.42019c0.05092,0.42661 0.07018,0.85597 0.13073,1.2812c0.07844,0.56285 0.11973,1.12982 0.21193,1.69129c0.20092,1.24404 0.38945,2.49221 0.70046,3.71423c0.15551,0.66331 0.33028,1.32248 0.55046,1.9679c0.34954,1.08716 0.78716,2.15643 1.41881,3.11286c0.23807,0.3633 0.53257,0.68532 0.83945,0.99221c0.03716,0.0344 0.07569,0.07018 0.1211,0.09771c0.08257,0.0344 0.18028,-0.00963 0.23395,-0.07844c0.09771,-0.1211 0.16101,-0.26697 0.23395,-0.40321c0.55734,-1.0734 1.12569,-2.14129 1.69817,-3.20781c0.09633,-0.18028 0.19817,-0.36055 0.35229,-0.49679c0.24083,-0.21606 0.52844,-0.37018 0.82294,-0.49954c0.39633,-0.16789 0.81193,-0.30138 1.24267,-0.33303c0.90551,-0.08532 1.80414,0.10321 2.69175,0.25459c0.5078,0.07982 1.01835,0.16101 1.53166,0.19404c0.51468,0.01376 1.02936,0.00688 1.54267,-0.03853c1.17661,-0.12661 2.33808,-0.40734 3.43212,-0.8601c0.72936,-0.30826 1.43946,-0.66468 2.10689,-1.09129c1.57707,-0.99221 2.95322,-2.28028 4.13396,-3.71699c0.16101,-0.19541 0.30963,-0.39908 0.47615,-0.58899c-0.16514,0.44587 -0.36743,0.87661 -0.57248,1.30459c-0.17202,0.39908 -0.39083,0.77202 -0.58762,1.15872c-0.71009,1.32523 -1.51652,2.6023 -2.44267,3.78717c-0.55459,0.71698 -1.17386,1.38303 -1.83441,2.00505c-0.91376,0.83257 -1.93625,1.56468 -3.08671,2.0312c-1.12982,0.46376 -2.38212,0.63716 -3.59038,0.45275c-0.48991,-0.07982 -0.96468,-0.23257 -1.43257,-0.39633c-0.38395,-0.13349 -0.74175,-0.32752 -1.10505,-0.5078c-0.47202,-0.23532 -0.91376,-0.52431 -1.33624,-0.8367c0.37294,0.4211 0.78303,0.80643 1.19725,1.18487c0.58762,0.51743 1.20276,1.00597 1.8757,1.4078c0.54771,0.33716 1.14083,0.60551 1.76698,0.75826c0.20092,0.05092 0.40734,0.0633 0.61239,0.08257c-0.17202,0.15138 -0.36193,0.28074 -0.54908,0.41009c-1.32248,0.9 -2.75368,1.63212 -4.22341,2.26102c-2.87065,1.19725 -5.94085,1.92248 -9.04682,2.11102c-0.64129,0.03303 -1.28257,0.04954 -1.92386,0.04954c-0.68532,-0.01514 -1.37202,-0.01789 -2.05322,-0.08945c-1.54129,-0.10459 -3.06744,-0.37569 -4.5647,-0.74725c-1.42432,-0.37294 -2.82799,-0.84221 -4.16974,-1.45184c-1.19863,-0.53119 -2.35597,-1.15872 -3.439,-1.89771c-0.25184,-0.18028 -0.51468,-0.34817 -0.73899,-0.56147c0.90826,-0.16376 1.79313,-0.46652 2.61331,-0.89175c0.78991,-0.39358 1.51239,-0.91652 2.15093,-1.5234c0.30826,-0.30138 0.59037,-0.63165 0.85184,-0.97569c-0.47202,0.29312 -0.95367,0.5711 -1.46147,0.79542c-0.60688,0.29725 -1.24817,0.51881 -1.90047,0.69083c-0.78854,0.20918 -1.6156,0.23807 -2.4234,0.15688c-1.11881,-0.13073 -2.18258,-0.58762 -3.09772,-1.23578c-0.5945,-0.40459 -1.1312,-0.88487 -1.64588,-1.38441c-1.36652,-1.39817 -2.5046,-3.00139 -3.53121,-4.65965c-0.5422,-0.86285 -1.03624,-1.75459 -1.53028,-2.64496c-0.1445,-0.28074 -0.29587,-0.55734 -0.43762,-0.83945c0.3922,0.40184 0.76652,0.82156 1.1601,1.22202c1.23716,1.23441 2.55414,2.40001 4.01286,3.36882c1.03899,0.67431 2.15643,1.27019 3.37983,1.5179c0.42798,0.10046 0.86973,0.06468 1.30322,0.11147c0.38119,0.03853 0.76514,0.02752 1.14771,0.04128c0.69496,0.00826 1.39129,0.0055 2.08625,-0.02202c0.5023,-0.02202 1.00046,-0.09083 1.49863,-0.15c0.28486,-0.0344 0.5656,-0.09771 0.84496,-0.16514c0.53395,-0.13073 1.11606,-0.13211 1.62799,0.08395c0.65505,0.25459 1.16147,0.77615 1.56606,1.33624c0.29725,0.4156 0.55872,0.85597 0.7789,1.31835c0.15963,0.3344 0.33853,0.65918 0.48853,0.99909c0.13762,0.30826 0.29587,0.60826 0.47064,0.89725c0.0922,0.14037 0.19266,0.29587 0.36055,0.35092c0.14587,-0.10321 0.23532,-0.26285 0.31376,-0.41697c0.28899,-0.57248 0.47064,-1.19037 0.67294,-1.79588c0.27798,-0.90688 0.52019,-1.82615 0.71422,-2.75506c0.30413,-1.27294 0.44725,-2.57616 0.62477,-3.87112c0.07706,-0.54771 0.11422,-1.09955 0.18028,-1.64725c0.11973,-1.46423 0.26147,-2.92708 0.30826,-4.39543c0.01101,-0.25596 0.03303,-0.51055 0.0344,-0.76652c0.00138,-0.59863 0.0344,-1.19588 0.03028,-1.79313c-0.00138,-0.32752 -0.00138,-0.65505 0,-0.9812c0.00688,-0.69771 -0.02752,-1.39542 -0.03028,-2.09313c-0.02752,-0.90964 -0.09771,-1.81652 -0.17752,-2.72203c-0.10046,-0.80918 -0.2133,-1.62111 -0.42936,-2.40964c-0.28211,-1.06652 -0.76927,-2.06836 -1.34863,-3.00276c-0.43486,-0.69771 -0.93441,-1.35964 -1.52615,-1.93074c-0.53395,-0.53119 -1.18074,-0.97432 -1.91836,-1.16285c-0.20642,-0.05642 -0.4211,-0.06193 -0.63165,-0.08807c0.00963,-0.41147 0.09633,-0.81606 0.1734,-1.21789c0.21881,-1.06101 0.52294,-2.10551 0.93028,-3.1101c0.20918,-0.55459 0.46927,-1.08716 0.74175,-1.61285c0.47477,-0.90276 1.04863,-1.7601 1.71469,-2.54038zM2933.00317,642.27018c0.04817,-0.00826 0.09771,-0.01651 0.14725,-0.02615c0.02615,0.24633 0.01239,0.49266 0.01376,0.73899v5.24727c-0.00138,0.23945 0.01789,0.48028 -0.02064,0.71835c-0.04954,-0.00413 -0.09771,-0.00688 -0.14587,-0.00688c-0.13073,-0.51606 -0.2367,-1.03899 -0.36055,-1.55643c-0.05229,-0.21055 -0.07982,-0.42523 -0.14725,-0.63165c-0.23395,-0.03303 -0.47202,-0.02339 -0.70872,-0.02752c-0.69633,-0.00138 -1.39404,0 -2.09037,-0.00138c-0.22844,-0.00138 -0.45688,0.01239 -0.68532,-0.00413c-0.00413,-0.05367 -0.03578,-0.12523 0.02202,-0.16239c0.17615,-0.08945 0.37431,-0.1211 0.55872,-0.18578c0.47202,-0.15688 0.94679,-0.29725 1.41881,-0.45551c0.19129,-0.06606 0.39908,-0.09908 0.57248,-0.21193c0.0055,-0.07706 0.00275,-0.15551 -0.00688,-0.23119c-0.16927,-0.07569 -0.34817,-0.11973 -0.52431,-0.17615c-0.43074,-0.14174 -0.8656,-0.26973 -1.29496,-0.4156c-0.24633,-0.08532 -0.50505,-0.13762 -0.7445,-0.24633c-0.00413,-0.05092 -0.00963,-0.10046 -0.01514,-0.15c0.70046,-0.02615 1.40368,0.00826 2.10551,-0.01651c0.46239,-0.01789 0.92615,0.01101 1.38854,-0.00963c0.01651,-0.05367 0.03578,-0.10596 0.05092,-0.15963c0.14862,-0.67982 0.32064,-1.35276 0.46652,-2.02982zM2933.82473,642.24266c0.04954,0.00688 0.09908,0.01651 0.14862,0.02752c0.13486,0.52982 0.23807,1.06789 0.37294,1.59771c0.04954,0.19541 0.07706,0.39633 0.14174,0.58762c0.34817,0.02477 0.69771,-0.00138 1.04725,0.00688c0.71009,0.01651 1.42157,0.01651 2.13166,0.00963c0.10459,-0.00138 0.20918,0.00413 0.31376,0.01101c-0.0055,0.04954 -0.00963,0.09908 -0.01376,0.14862c-0.25046,0.11422 -0.52019,0.17202 -0.78028,0.26009c-0.5133,0.16927 -1.02936,0.3289 -1.54404,0.49129c-0.07844,0.02339 -0.15413,0.0578 -0.22982,0.08807c-0.02064,0.07569 -0.02477,0.15413 -0.01651,0.23257c0.11973,0.06606 0.25046,0.11147 0.38119,0.15c0.67156,0.20918 1.339,0.43211 2.01331,0.63303c0.05229,0.01789 0.10734,0.03716 0.15551,0.06743c0.05505,0.03716 0.03165,0.10872 0.02064,0.16239c-0.22844,0.01789 -0.45551,0.00413 -0.68395,0.0055c-0.71147,0.00138 -1.42157,-0.00138 -2.13304,0.00138c-0.22156,0.00413 -0.44312,-0.00275 -0.66331,0.0289c-0.07156,0.22982 -0.09908,0.47064 -0.16101,0.70321c-0.12936,0.49129 -0.20918,0.99633 -0.34954,1.48349c-0.04954,0.00138 -0.09771,0.00275 -0.14587,0.00826c-0.03991,-0.23807 -0.02064,-0.4789 -0.02064,-0.71835v-5.24727c0.00275,-0.24496 -0.01101,-0.49266 0.01514,-0.73899zM2908.22555,648.43121c0.15413,-0.29587 0.28624,-0.60551 0.46376,-0.88899c-0.25046,1.04037 -0.40046,2.10138 -0.49817,3.16515c-0.11009,1.06101 -0.11697,2.13166 -0.07431,3.1968c0.1445,2.74405 0.76239,5.48121 1.95826,7.96517c0.41147,0.82432 0.87386,1.62799 1.44496,2.3546c0.84221,1.02799 1.72432,2.0312 2.73029,2.9023c0.66055,0.56422 1.37478,1.07065 2.13854,1.48624c0.45,0.22707 0.89587,0.46652 1.3679,0.64404c0.68945,0.27936 1.4023,0.49679 2.12203,0.67982c0.52707,0.13211 1.07065,0.19404 1.58533,0.37294c0.68808,0.21606 1.30322,0.63441 1.79313,1.1601c0.67844,0.71973 1.11331,1.63349 1.40368,2.56928c0.13624,0.39908 0.21881,0.81331 0.29862,1.22753c0.02064,0.10321 0.03028,0.20918 0.02202,0.31514c-0.8945,0.38257 -1.82478,0.69633 -2.78808,0.85046c-0.5656,0.10734 -1.14083,0.13624 -1.71469,0.14862c-1.41056,0.03303 -2.81698,-0.2422 -4.14497,-0.70459c-0.51468,-0.19541 -1.03074,-0.3922 -1.5179,-0.64954c-1.10918,-0.52844 -2.1523,-1.19725 -3.09084,-1.98992c-0.40184,-0.35092 -0.8023,-0.70597 -1.15597,-1.10505c-1.26056,-1.35276 -2.24313,-2.94634 -2.99864,-4.63075c-0.3289,-0.76376 -0.63441,-1.53854 -0.87661,-2.33395c-0.16101,-0.5422 -0.32477,-1.08578 -0.44863,-1.639c-0.10321,-0.40459 -0.16789,-0.81881 -0.25734,-1.22753c-0.0633,-0.2945 -0.09495,-0.5945 -0.14174,-0.89175c-0.11697,-0.74725 -0.17615,-1.50413 -0.18303,-2.26102c0.01514,-0.85046 0.0344,-1.7023 0.14725,-2.54588c0.05505,-0.39358 0.0922,-0.78991 0.15826,-1.18349c0.13486,-0.78441 0.2945,-1.56468 0.51055,-2.32983c0.42523,-1.60322 1.02936,-3.15827 1.74634,-4.6569zM2958.28033,647.54497c0.15138,0.22844 0.26285,0.4789 0.38257,0.72386c0.28899,0.61239 0.58349,1.22478 0.82844,1.85643c1.04725,2.58166 1.69267,5.33809 1.7945,8.12618c0.00275,0.2422 0.00963,0.48441 0.01514,0.72798c0.01789,1.31698 -0.17477,2.62707 -0.43762,3.91515c-0.10046,0.49404 -0.21193,0.9867 -0.35505,1.47111c-0.55597,2.0257 -1.37615,3.99084 -2.5335,5.74956c-1.12982,1.72982 -2.61607,3.24084 -4.38167,4.32249c-0.78854,0.49404 -1.62248,0.91376 -2.48395,1.26468c-0.79542,0.30138 -1.61147,0.55459 -2.44955,0.70321c-0.88074,0.1445 -1.77661,0.20918 -2.66973,0.16927c-1.08991,-0.06606 -2.17157,-0.28486 -3.19405,-0.66743c-0.26697,-0.11009 -0.5422,-0.20092 -0.80367,-0.32064c-0.0289,-0.2078 0.0344,-0.41147 0.07294,-0.61376c0.15963,-0.78991 0.41697,-1.56331 0.78441,-2.28166c0.32615,-0.62064 0.75964,-1.19037 1.30184,-1.63762c0.3344,-0.28211 0.7211,-0.49679 1.12294,-0.66468c0.49266,-0.20642 1.02799,-0.2711 1.54679,-0.38945c0.99496,-0.23532 1.97753,-0.54083 2.91056,-0.96331c1.42432,-0.63991 2.7124,-1.56606 3.80506,-2.67799c0.21881,-0.22156 0.4445,-0.43762 0.6523,-0.67019c0.46376,-0.51743 0.9234,-1.04175 1.35551,-1.5867c1.02936,-1.38579 1.76423,-2.97111 2.29955,-4.60736c0.21743,-0.72936 0.44174,-1.45872 0.57936,-2.20872c0.0867,-0.39496 0.14312,-0.79542 0.20918,-1.1945c0.11973,-0.83808 0.21881,-1.68166 0.23119,-2.52937c0.01651,-0.91514 0.01927,-1.83303 -0.07294,-2.74405c-0.10046,-1.09955 -0.25734,-2.19634 -0.51055,-3.27249z" className="SFSymbolsPreviewWireframe"/></g>
  <g id="Regular-S"><path d="M1448.1628,626.67425c1.03211,-0.04266 2.06423,-0.03853 3.09634,-0.01239c0.49679,0.01927 0.99083,0.05505 1.48487,0.10046c0.67707,0.03716 1.34725,0.14174 2.01882,0.22294c0.40321,0.05917 0.8023,0.13486 1.20413,0.20092c1.08716,0.18303 2.15643,0.45138 3.21882,0.74312c1.68441,0.47752 3.32891,1.08991 4.92112,1.8179c3.65506,1.68441 7.01012,4.01974 9.85738,6.86425c2.75643,2.76469 5.05323,5.99314 6.72801,9.5216c0.15551,0.35642 0.33578,0.70184 0.47752,1.06514c0.3867,0.88487 0.74175,1.78487 1.04312,2.70139c0.56973,1.6968 1.0101,3.439 1.29634,5.20598c0.07844,0.43211 0.14312,0.86698 0.19266,1.30322c0.07569,0.52707 0.12936,1.05826 0.16239,1.59083c0.11422,1.14771 0.1156,2.3023 0.10596,3.45414c-0.00963,0.68395 -0.03578,1.3679 -0.10321,2.04909c-0.03303,0.46514 -0.07018,0.93028 -0.13486,1.39267c-0.05367,0.37431 -0.0867,0.75138 -0.15275,1.12432c-0.12385,0.70872 -0.23395,1.41881 -0.39496,2.12065c-0.56422,2.54588 -1.41744,5.02984 -2.54726,7.3803c-2.17019,4.51791 -5.3436,8.55554 -9.23673,11.71381c-2.38102,1.94672 -5.01572,3.5606 -7.83168,4.79727c-0.85459,0.36881 -1.71469,0.72248 -2.5968,1.01973c-0.48303,0.15963 -0.96468,0.32752 -1.45459,0.46652c-0.91101,0.25872 -1.82891,0.50092 -2.75781,0.68808c-0.64129,0.12523 -1.28533,0.23807 -1.93074,0.34129c-0.72248,0.09083 -1.44496,0.19817 -2.17294,0.23945c-0.92065,0.09083 -1.84542,0.1156 -2.76882,0.11147c-0.93854,0.00413 -1.87845,-0.01651 -2.81423,-0.10872c-0.45275,-0.03165 -0.90413,-0.06881 -1.35276,-0.13073c-0.37431,-0.05367 -0.75138,-0.0867 -1.12432,-0.15275c-0.56697,-0.09908 -1.13533,-0.18853 -1.69955,-0.30551c-0.58486,-0.12936 -1.16835,-0.26009 -1.74634,-0.4156c-1.18762,-0.29862 -2.35047,-0.68945 -3.4968,-1.11881c-1.44358,-0.56697 -2.86102,-1.20413 -4.21653,-1.96102c-0.2945,-0.15826 -0.58899,-0.31514 -0.87386,-0.49129c-1.54404,-0.90551 -3.00827,-1.94037 -4.39268,-3.07432c-4.7725,-3.90965 -8.45095,-9.14178 -10.50692,-14.95877c-0.42523,-1.20276 -0.78578,-2.42891 -1.0734,-3.67157c-0.20367,-0.84771 -0.34679,-1.70918 -0.49266,-2.5679c-0.05505,-0.3234 -0.08395,-0.65092 -0.13073,-0.97569c-0.08257,-0.54496 -0.10321,-1.09542 -0.16101,-1.64313c-0.11009,-1.30322 -0.09771,-2.61331 -0.07018,-3.92066c0.01927,-0.48303 0.04679,-0.96468 0.09633,-1.44634c0.04266,-0.43624 0.0633,-0.87661 0.12661,-1.3101c0.05642,-0.3867 0.08945,-0.77753 0.15963,-1.16147c0.09633,-0.5422 0.1789,-1.08716 0.29174,-1.62661c0.47202,-2.2734 1.1656,-4.50415 2.10001,-6.6303c0.15826,-0.40184 0.35642,-0.78716 0.53119,-1.18211c1.1078,-2.29955 2.46331,-4.48075 4.05827,-6.47617c2.7523,-3.49267 6.20645,-6.42388 10.08307,-8.59682c1.03211,-0.5711 2.08625,-1.1078 3.17478,-1.56468c2.17707,-0.94679 4.46011,-1.6445 6.78581,-2.11652c0.48303,-0.0922 0.96881,-0.17064 1.45322,-0.25459c0.36055,-0.06468 0.72661,-0.09633 1.08854,-0.14862c0.48578,-0.07294 0.97707,-0.09358 1.4656,-0.14312c0.33853,-0.03303 0.67569,-0.04954 1.01285,-0.07018M1449.35179,630.03344c-1.27019,0.01376 -2.53625,0.13624 -3.79405,0.30688c-1.00459,0.14862 -1.99955,0.3578 -2.98763,0.59175c-1.91423,0.48165 -3.78167,1.14771 -5.56791,1.98441c-1.43946,0.6867 -2.8335,1.47248 -4.15323,2.36973c-0.57523,0.40184 -1.15597,0.79817 -1.69817,1.24267c-0.69909,0.54633 -1.3734,1.12432 -2.02019,1.73258c-0.34541,0.30826 -0.66193,0.64679 -0.99358,0.97156c-3.8835,3.96194 -6.66608,8.99866 -7.91287,14.40694c-0.28074,1.16147 -0.48716,2.34221 -0.61101,3.52983c-0.15138,1.2234 -0.19817,2.45643 -0.19404,3.68809c0.01514,0.98257 0.05229,1.96515 0.16789,2.94084c0.08532,0.97982 0.25734,1.94863 0.44037,2.91469c0.14725,0.63991 0.27936,1.28257 0.45826,1.91423c0.8656,3.21744 2.27065,6.28901 4.13809,9.0482c1.189,1.78625 2.58441,3.43075 4.1257,4.9225c2.24038,2.17707 4.82341,3.99635 7.61563,5.39727c1.00184,0.48441 2.01744,0.94542 3.06469,1.32523c0.69358,0.2422 1.38441,0.49129 2.0945,0.68532c1.54955,0.4445 3.1335,0.77065 4.73259,0.97156c0.40046,0.03991 0.79954,0.08395 1.2,0.12385c1.90184,0.14862 3.81745,0.13762 5.71654,-0.05917c0.61239,-0.08257 1.22753,-0.13624 1.83716,-0.24496c0.49954,-0.0922 1.00184,-0.17202 1.49588,-0.28899c0.56835,-0.13486 1.13945,-0.26285 1.70092,-0.42248c3.6468,-1.0101 7.09819,-2.7124 10.12573,-4.98167c2.17157,-1.62661 4.12295,-3.54497 5.79635,-5.68076c0.44863,-0.55321 0.84909,-1.14358 1.25643,-1.72707c0.46652,-0.69633 0.90551,-1.41056 1.32111,-2.13854c0.33028,-0.61101 0.6523,-1.22615 0.95643,-1.85092c0.78303,-1.65826 1.41468,-3.38809 1.89221,-5.15919c0.35642,-1.37753 0.65367,-2.77432 0.81193,-4.19038c0.24358,-1.85368 0.26697,-3.72937 0.17752,-5.59406c-0.03991,-0.53532 -0.0922,-1.06927 -0.13762,-1.60459c-0.30688,-2.6257 -0.93441,-5.21699 -1.90184,-7.67893c-0.81881,-2.08212 -1.86193,-4.07754 -3.11148,-5.93534c-1.74634,-2.58717 -3.88625,-4.91011 -6.32617,-6.85737c-3.44726,-2.7523 -7.4959,-4.75461 -11.78674,-5.79085c-1.07065,-0.2656 -2.15918,-0.45963 -3.25185,-0.61239c-0.53808,-0.08119 -1.08028,-0.11284 -1.61973,-0.17064c-1.01698,-0.07844 -2.03808,-0.09908 -3.05781,-0.07982zM1434.88293,636.76144c1.83028,-1.2234 3.86423,-2.11652 5.95874,-2.77707c-0.43624,0.24358 -0.88624,0.46514 -1.31147,0.72798c-1.54267,0.91927 -2.96148,2.05047 -4.18075,3.3702c-0.93578,1.02248 -1.75597,2.16469 -2.34083,3.42524c-0.45275,0.94404 -0.77615,1.95276 -0.94404,2.98763c-0.12798,0.66743 -0.1789,1.35001 -0.16101,2.02982c0.01789,1.87982 0.61101,3.72662 1.55368,5.34222c0.81468,1.40643 1.8757,2.6601 3.07708,3.75139c0.66743,0.6 1.40918,1.11331 2.05735,1.73395c0.31101,0.30138 0.61789,0.60826 0.88487,0.95092c0.36055,0.45551 0.67294,0.96193 0.82432,1.52753c0.12385,0.4156 0.09083,0.85321 0.09495,1.2812c0.00275,0.56422 -0.0055,1.12844 0.00413,1.69267c0.01927,0.48716 -0.00275,0.97569 0.01514,1.46285c0.01101,0.32752 0.00275,0.65505 0.00688,0.98257c0.02202,0.79404 0.00826,1.5867 0.02064,2.38074c0.01514,0.40046 0.00275,0.80092 0.01789,1.20276c0.00413,0.22431 0.01789,0.45138 -0.00413,0.67569c-0.12523,0.01651 -0.25046,0.02477 -0.37569,0.02202c-1.51239,0 -3.01102,-0.36193 -4.39681,-0.95367c-0.82569,-0.37156 -1.62524,-0.81055 -2.35184,-1.35276c-0.79129,-0.57661 -1.52615,-1.23303 -2.17294,-1.96927c-0.89863,-0.99633 -1.64863,-2.1179 -2.28716,-3.29588c-0.14725,-0.27936 -0.30826,-0.55321 -0.43762,-0.84221c-0.15963,-0.3633 -0.36055,-0.70734 -0.50505,-1.07615c-0.55734,-1.33212 -0.90413,-2.74405 -1.11193,-4.17112c-0.06743,-0.61101 -0.15,-1.22202 -0.16514,-1.83716c-0.09633,-2.16469 0.1156,-4.34176 0.64266,-6.44314c0.29174,-1.12156 0.65642,-2.22661 1.14358,-3.27937c0.86973,-1.95414 2.11102,-3.74038 3.61928,-5.25552c0.86422,-0.85321 1.80689,-1.62936 2.82524,-2.29405zM1459.01651,633.99263c0.37707,0.10184 0.7445,0.23945 1.11331,0.36881c0.87523,0.32064 1.74496,0.66606 2.57478,1.09542c1.80414,0.88624 3.48304,2.03808 4.92938,3.43625c1.40368,1.36927 2.57891,2.97249 3.45965,4.72571c0.17615,0.37844 0.3633,0.75138 0.52431,1.1367c0.86835,2.07799 1.37615,4.30185 1.54542,6.54636c0.05642,0.62477 0.06055,1.25092 0.06193,1.87707c0.00963,1.60184 -0.20505,3.19955 -0.59175,4.75185c-0.2711,1.00046 -0.59863,1.99404 -1.08166,2.91469c-0.43762,0.91376 -0.91927,1.81102 -1.49175,2.64772c-0.95505,1.44083 -2.1468,2.73441 -3.55322,3.74589c-1.44221,1.05138 -3.11561,1.79175 -4.87158,2.11652c-0.48303,0.09495 -0.97432,0.14862 -1.46698,0.16651c-0.25459,0.00826 -0.51193,0.02202 -0.76514,-0.01376c-0.03853,-0.29587 0,-0.59312 -0.00138,-0.88899c-0.00413,-0.5133 0.01927,-1.02523 0.01376,-1.53716c0.02615,-0.96606 0.00275,-1.93349 0.0289,-2.89955c0.00413,-0.32752 -0.00413,-0.65505 0.00413,-0.98257c0.02339,-0.69771 -0.0055,-1.39542 0.01927,-2.09313c0.01376,-0.41147 -0.03303,-0.8312 0.07018,-1.23303c0.09083,-0.34404 0.24496,-0.66881 0.42523,-0.97432c0.61376,-1.00597 1.52202,-1.78349 2.43304,-2.51285c0.74037,-0.57523 1.44083,-1.20689 2.06698,-1.90459c1.05688,-1.15184 1.95001,-2.46056 2.58441,-3.89038c0.34404,-0.81606 0.62202,-1.66514 0.76376,-2.54038c0.11835,-0.60138 0.14587,-1.21514 0.13899,-1.82615c-0.00275,-1.08028 -0.19266,-2.15368 -0.50092,-3.18854c-0.24083,-0.78854 -0.58762,-1.53854 -0.97569,-2.26377c-0.53257,-0.95367 -1.19037,-1.83166 -1.92111,-2.64221c-1.3679,-1.49312 -2.99313,-2.74405 -4.76149,-3.72937c-0.25459,-0.14037 -0.52844,-0.25046 -0.77477,-0.40872zM1445.14489,642.03623c0.13486,-0.16239 0.27385,-0.32064 0.42936,-0.46514c-0.08395,0.12798 -0.17477,0.24908 -0.26835,0.36881c-0.42661,0.53395 -0.76239,1.14358 -0.96743,1.79725c-0.11973,0.45 -0.23119,0.90826 -0.23807,1.37615c-0.00963,0.34679 -0.01101,0.69771 0.04404,1.04175c0.15551,1.05 0.59587,2.04359 1.20689,2.90643c0.27523,0.37156 0.58486,0.72523 0.9523,1.00872c0.22294,0.17477 0.48578,0.28762 0.73487,0.41973c0.42798,0.23119 0.86973,0.4445 1.24817,0.75413c0.36743,0.28762 0.62615,0.73349 0.60551,1.20964c-0.00138,10.13811 0,20.27622 -0.00138,30.41571c0,0.18578 -0.01101,0.37156 0.0055,0.55597c0.01789,0.20367 0.11284,0.38945 0.20229,0.5711c0.11835,0.22844 0.24496,0.45963 0.43762,0.63578c0.11697,0.10596 0.2711,0.19266 0.43349,0.17064c0.20642,-0.02752 0.36606,-0.18578 0.47477,-0.35367c0.13211,-0.2078 0.23119,-0.43486 0.31376,-0.66743c0.10459,-0.29312 0.06055,-0.60826 0.07431,-0.91239c0.01927,-0.55459 -0.00275,-1.10918 0.01927,-1.66377c0.00413,-0.81055 0.00413,-1.61973 0.00826,-2.43028c0.01927,-0.49817 0.00413,-0.99633 0.01514,-1.4945c0.02064,-0.55459 -0.00275,-1.10918 0.01927,-1.66377c0.00413,-0.82432 0.00413,-1.64863 0.00963,-2.47295c0.01927,-0.49817 0.00275,-0.99633 0.01514,-1.4945c0.01927,-0.54083 -0.00275,-1.08166 0.01927,-1.62111c0.00413,-0.82432 0.00413,-1.64863 0.00826,-2.47295c0.02202,-0.5422 -0.00138,-1.08441 0.02615,-1.62661c0.03991,0.19817 0.01789,0.40184 0.03028,0.60275c0.02615,0.49679 0.0578,0.99496 0.10459,1.49175c0.04404,0.4734 0.06055,0.94817 0.11835,1.42019c0.05092,0.42661 0.07018,0.85597 0.13073,1.2812c0.07844,0.56285 0.11973,1.12982 0.21193,1.69129c0.20092,1.24404 0.38945,2.49221 0.70046,3.71423c0.15551,0.66331 0.33028,1.32248 0.55046,1.9679c0.34954,1.08716 0.78716,2.15643 1.41881,3.11286c0.23807,0.3633 0.53257,0.68532 0.83945,0.99221c0.03716,0.0344 0.07569,0.07018 0.1211,0.09771c0.08257,0.0344 0.18028,-0.00963 0.23395,-0.07844c0.09771,-0.1211 0.16101,-0.26697 0.23395,-0.40321c0.55734,-1.0734 1.12569,-2.14129 1.69817,-3.20781c0.09633,-0.18028 0.19817,-0.36055 0.35229,-0.49679c0.24083,-0.21606 0.52844,-0.37018 0.82294,-0.49954c0.39633,-0.16789 0.81193,-0.30138 1.24267,-0.33303c0.90551,-0.08532 1.80414,0.10321 2.69175,0.25459c0.5078,0.07982 1.01835,0.16101 1.53166,0.19404c0.51468,0.01376 1.02936,0.00688 1.54267,-0.03853c1.17661,-0.12661 2.33808,-0.40734 3.43212,-0.8601c0.72936,-0.30826 1.43946,-0.66468 2.10689,-1.09129c1.57707,-0.99221 2.95322,-2.28028 4.13396,-3.71699c0.16101,-0.19541 0.30963,-0.39908 0.47615,-0.58899c-0.16514,0.44587 -0.36743,0.87661 -0.57248,1.30459c-0.17202,0.39908 -0.39083,0.77202 -0.58762,1.15872c-0.71009,1.32523 -1.51652,2.6023 -2.44267,3.78717c-0.55459,0.71698 -1.17386,1.38303 -1.83441,2.00505c-0.91376,0.83257 -1.93625,1.56468 -3.08671,2.0312c-1.12982,0.46376 -2.38212,0.63716 -3.59038,0.45275c-0.48991,-0.07982 -0.96468,-0.23257 -1.43257,-0.39633c-0.38395,-0.13349 -0.74175,-0.32752 -1.10505,-0.5078c-0.47202,-0.23532 -0.91376,-0.52431 -1.33624,-0.8367c0.37294,0.4211 0.78303,0.80643 1.19725,1.18487c0.58762,0.51743 1.20276,1.00597 1.8757,1.4078c0.54771,0.33716 1.14083,0.60551 1.76698,0.75826c0.20092,0.05092 0.40734,0.0633 0.61239,0.08257c-0.17202,0.15138 -0.36193,0.28074 -0.54908,0.41009c-1.32248,0.9 -2.75368,1.63212 -4.22341,2.26102c-2.87065,1.19725 -5.94085,1.92248 -9.04682,2.11102c-0.64129,0.03303 -1.28257,0.04954 -1.92386,0.04954c-0.68532,-0.01514 -1.37202,-0.01789 -2.05322,-0.08945c-1.54129,-0.10459 -3.06744,-0.37569 -4.5647,-0.74725c-1.42432,-0.37294 -2.82799,-0.84221 -4.16974,-1.45184c-1.19863,-0.53119 -2.35597,-1.15872 -3.439,-1.89771c-0.25184,-0.18028 -0.51468,-0.34817 -0.73899,-0.56147c0.90826,-0.16376 1.79313,-0.46652 2.61331,-0.89175c0.78991,-0.39358 1.51239,-0.91652 2.15093,-1.5234c0.30826,-0.30138 0.59037,-0.63165 0.85184,-0.97569c-0.47202,0.29312 -0.95367,0.5711 -1.46147,0.79542c-0.60688,0.29725 -1.24817,0.51881 -1.90047,0.69083c-0.78854,0.20918 -1.6156,0.23807 -2.4234,0.15688c-1.11881,-0.13073 -2.18258,-0.58762 -3.09772,-1.23578c-0.5945,-0.40459 -1.1312,-0.88487 -1.64588,-1.38441c-1.36652,-1.39817 -2.5046,-3.00139 -3.53121,-4.65965c-0.5422,-0.86285 -1.03624,-1.75459 -1.53028,-2.64496c-0.1445,-0.28074 -0.29587,-0.55734 -0.43762,-0.83945c0.3922,0.40184 0.76652,0.82156 1.1601,1.22202c1.23716,1.23441 2.55414,2.40001 4.01286,3.36882c1.03899,0.67431 2.15643,1.27019 3.37983,1.5179c0.42798,0.10046 0.86973,0.06468 1.30322,0.11147c0.38119,0.03853 0.76514,0.02752 1.14771,0.04128c0.69496,0.00826 1.39129,0.0055 2.08625,-0.02202c0.5023,-0.02202 1.00046,-0.09083 1.49863,-0.15c0.28486,-0.0344 0.5656,-0.09771 0.84496,-0.16514c0.53395,-0.13073 1.11606,-0.13211 1.62799,0.08395c0.65505,0.25459 1.16147,0.77615 1.56606,1.33624c0.29725,0.4156 0.55872,0.85597 0.7789,1.31835c0.15963,0.3344 0.33853,0.65918 0.48853,0.99909c0.13762,0.30826 0.29587,0.60826 0.47064,0.89725c0.0922,0.14037 0.19266,0.29587 0.36055,0.35092c0.14587,-0.10321 0.23532,-0.26285 0.31376,-0.41697c0.28899,-0.57248 0.47064,-1.19037 0.67294,-1.79588c0.27798,-0.90688 0.52019,-1.82615 0.71422,-2.75506c0.30413,-1.27294 0.44725,-2.57616 0.62477,-3.87112c0.07706,-0.54771 0.11422,-1.09955 0.18028,-1.64725c0.11973,-1.46423 0.26147,-2.92708 0.30826,-4.39543c0.01101,-0.25596 0.03303,-0.51055 0.0344,-0.76652c0.00138,-0.59863 0.0344,-1.19588 0.03028,-1.79313c-0.00138,-0.32752 -0.00138,-0.65505 0,-0.9812c0.00688,-0.69771 -0.02752,-1.39542 -0.03028,-2.09313c-0.02752,-0.90964 -0.09771,-1.81652 -0.17752,-2.72203c-0.10046,-0.80918 -0.2133,-1.62111 -0.42936,-2.40964c-0.28211,-1.06652 -0.76927,-2.06836 -1.34863,-3.00276c-0.43486,-0.69771 -0.93441,-1.35964 -1.52615,-1.93074c-0.53395,-0.53119 -1.18074,-0.97432 -1.91836,-1.16285c-0.20642,-0.05642 -0.4211,-0.06193 -0.63165,-0.08807c0.00963,-0.41147 0.09633,-0.81606 0.1734,-1.21789c0.21881,-1.06101 0.52294,-2.10551 0.93028,-3.1101c0.20918,-0.55459 0.46927,-1.08716 0.74175,-1.61285c0.47477,-0.90276 1.04863,-1.7601 1.71469,-2.54038zM1449.44812,642.27018c0.04817,-0.00826 0.09771,-0.01651 0.14725,-0.02615c0.02615,0.24633 0.01239,0.49266 0.01376,0.73899v5.24727c-0.00138,0.23945 0.01789,0.48028 -0.02064,0.71835c-0.04954,-0.00413 -0.09771,-0.00688 -0.14587,-0.00688c-0.13073,-0.51606 -0.2367,-1.03899 -0.36055,-1.55643c-0.05229,-0.21055 -0.07982,-0.42523 -0.14725,-0.63165c-0.23395,-0.03303 -0.47202,-0.02339 -0.70872,-0.02752c-0.69633,-0.00138 -1.39404,0 -2.09037,-0.00138c-0.22844,-0.00138 -0.45688,0.01239 -0.68532,-0.00413c-0.00413,-0.05367 -0.03578,-0.12523 0.02202,-0.16239c0.17615,-0.08945 0.37431,-0.1211 0.55872,-0.18578c0.47202,-0.15688 0.94679,-0.29725 1.41881,-0.45551c0.19129,-0.06606 0.39908,-0.09908 0.57248,-0.21193c0.0055,-0.07706 0.00275,-0.15551 -0.00688,-0.23119c-0.16927,-0.07569 -0.34817,-0.11973 -0.52431,-0.17615c-0.43074,-0.14174 -0.8656,-0.26973 -1.29496,-0.4156c-0.24633,-0.08532 -0.50505,-0.13762 -0.7445,-0.24633c-0.00413,-0.05092 -0.00963,-0.10046 -0.01514,-0.15c0.70046,-0.02615 1.40368,0.00826 2.10551,-0.01651c0.46239,-0.01789 0.92615,0.01101 1.38854,-0.00963c0.01651,-0.05367 0.03578,-0.10596 0.05092,-0.15963c0.14862,-0.67982 0.32064,-1.35276 0.46652,-2.02982zM1450.26968,642.24266c0.04954,0.00688 0.09908,0.01651 0.14862,0.02752c0.13486,0.52982 0.23807,1.06789 0.37294,1.59771c0.04954,0.19541 0.07706,0.39633 0.14174,0.58762c0.34817,0.02477 0.69771,-0.00138 1.04725,0.00688c0.71009,0.01651 1.42157,0.01651 2.13166,0.00963c0.10459,-0.00138 0.20918,0.00413 0.31376,0.01101c-0.0055,0.04954 -0.00963,0.09908 -0.01376,0.14862c-0.25046,0.11422 -0.52019,0.17202 -0.78028,0.26009c-0.5133,0.16927 -1.02936,0.3289 -1.54404,0.49129c-0.07844,0.02339 -0.15413,0.0578 -0.22982,0.08807c-0.02064,0.07569 -0.02477,0.15413 -0.01651,0.23257c0.11973,0.06606 0.25046,0.11147 0.38119,0.15c0.67156,0.20918 1.339,0.43211 2.01331,0.63303c0.05229,0.01789 0.10734,0.03716 0.15551,0.06743c0.05505,0.03716 0.03165,0.10872 0.02064,0.16239c-0.22844,0.01789 -0.45551,0.00413 -0.68395,0.0055c-0.71147,0.00138 -1.42157,-0.00138 -2.13304,0.00138c-0.22156,0.00413 -0.44312,-0.00275 -0.66331,0.0289c-0.07156,0.22982 -0.09908,0.47064 -0.16101,0.70321c-0.12936,0.49129 -0.20918,0.99633 -0.34954,1.48349c-0.04954,0.00138 -0.09771,0.00275 -0.14587,0.00826c-0.03991,-0.23807 -0.02064,-0.4789 -0.02064,-0.71835v-5.24727c0.00275,-0.24496 -0.01101,-0.49266 0.01514,-0.73899zM1424.6705,648.43121c0.15413,-0.29587 0.28624,-0.60551 0.46376,-0.88899c-0.25046,1.04037 -0.40046,2.10138 -0.49817,3.16515c-0.11009,1.06101 -0.11697,2.13166 -0.07431,3.1968c0.1445,2.74405 0.76239,5.48121 1.95826,7.96517c0.41147,0.82432 0.87386,1.62799 1.44496,2.3546c0.84221,1.02799 1.72432,2.0312 2.73029,2.9023c0.66055,0.56422 1.37478,1.07065 2.13854,1.48624c0.45,0.22707 0.89587,0.46652 1.3679,0.64404c0.68945,0.27936 1.4023,0.49679 2.12203,0.67982c0.52707,0.13211 1.07065,0.19404 1.58533,0.37294c0.68808,0.21606 1.30322,0.63441 1.79313,1.1601c0.67844,0.71973 1.11331,1.63349 1.40368,2.56928c0.13624,0.39908 0.21881,0.81331 0.29862,1.22753c0.02064,0.10321 0.03028,0.20918 0.02202,0.31514c-0.8945,0.38257 -1.82478,0.69633 -2.78808,0.85046c-0.5656,0.10734 -1.14083,0.13624 -1.71469,0.14862c-1.41056,0.03303 -2.81698,-0.2422 -4.14497,-0.70459c-0.51468,-0.19541 -1.03074,-0.3922 -1.5179,-0.64954c-1.10918,-0.52844 -2.1523,-1.19725 -3.09084,-1.98992c-0.40184,-0.35092 -0.8023,-0.70597 -1.15597,-1.10505c-1.26056,-1.35276 -2.24313,-2.94634 -2.99864,-4.63075c-0.3289,-0.76376 -0.63441,-1.53854 -0.87661,-2.33395c-0.16101,-0.5422 -0.32477,-1.08578 -0.44863,-1.639c-0.10321,-0.40459 -0.16789,-0.81881 -0.25734,-1.22753c-0.0633,-0.2945 -0.09495,-0.5945 -0.14174,-0.89175c-0.11697,-0.74725 -0.17615,-1.50413 -0.18303,-2.26102c0.01514,-0.85046 0.0344,-1.7023 0.14725,-2.54588c0.05505,-0.39358 0.0922,-0.78991 0.15826,-1.18349c0.13486,-0.78441 0.2945,-1.56468 0.51055,-2.32983c0.42523,-1.60322 1.02936,-3.15827 1.74634,-4.6569zM1474.72528,647.54497c0.15138,0.22844 0.26285,0.4789 0.38257,0.72386c0.28899,0.61239 0.58349,1.22478 0.82844,1.85643c1.04725,2.58166 1.69267,5.33809 1.7945,8.12618c0.00275,0.2422 0.00963,0.48441 0.01514,0.72798c0.01789,1.31698 -0.17477,2.62707 -0.43762,3.91515c-0.10046,0.49404 -0.21193,0.9867 -0.35505,1.47111c-0.55597,2.0257 -1.37615,3.99084 -2.5335,5.74956c-1.12982,1.72982 -2.61607,3.24084 -4.38167,4.32249c-0.78854,0.49404 -1.62248,0.91376 -2.48395,1.26468c-0.79542,0.30138 -1.61147,0.55459 -2.44955,0.70321c-0.88074,0.1445 -1.77661,0.20918 -2.66973,0.16927c-1.08991,-0.06606 -2.17157,-0.28486 -3.19405,-0.66743c-0.26697,-0.11009 -0.5422,-0.20092 -0.80367,-0.32064c-0.0289,-0.2078 0.0344,-0.41147 0.07294,-0.61376c0.15963,-0.78991 0.41697,-1.56331 0.78441,-2.28166c0.32615,-0.62064 0.75964,-1.19037 1.30184,-1.63762c0.3344,-0.28211 0.7211,-0.49679 1.12294,-0.66468c0.49266,-0.20642 1.02799,-0.2711 1.54679,-0.38945c0.99496,-0.23532 1.97753,-0.54083 2.91056,-0.96331c1.42432,-0.63991 2.7124,-1.56606 3.80506,-2.67799c0.21881,-0.22156 0.4445,-0.43762 0.6523,-0.67019c0.46376,-0.51743 0.9234,-1.04175 1.35551,-1.5867c1.02936,-1.38579 1.76423,-2.97111 2.29955,-4.60736c0.21743,-0.72936 0.44174,-1.45872 0.57936,-2.20872c0.0867,-0.39496 0.14312,-0.79542 0.20918,-1.1945c0.11973,-0.83808 0.21881,-1.68166 0.23119,-2.52937c0.01651,-0.91514 0.01927,-1.83303 -0.07294,-2.74405c-0.10046,-1.09955 -0.25734,-2.19634 -0.51055,-3.27249z" className="SFSymbolsPreviewWireframe"/></g>
  <g id="Ultralight-S"><path d="M558.02921,626.67425c1.03211,-0.04266 2.06423,-0.03853 3.09634,-0.01239c0.49679,0.01927 0.99083,0.05505 1.48487,0.10046c0.67707,0.03716 1.34725,0.14174 2.01882,0.22294c0.40321,0.05917 0.8023,0.13486 1.20413,0.20092c1.08716,0.18303 2.15643,0.45138 3.21882,0.74312c1.68441,0.47752 3.32891,1.08991 4.92112,1.8179c3.65506,1.68441 7.01012,4.01974 9.85738,6.86425c2.75643,2.76469 5.05323,5.99314 6.72801,9.5216c0.15551,0.35642 0.33578,0.70184 0.47752,1.06514c0.3867,0.88487 0.74175,1.78487 1.04312,2.70139c0.56973,1.6968 1.0101,3.439 1.29634,5.20598c0.07844,0.43211 0.14312,0.86698 0.19266,1.30322c0.07569,0.52707 0.12936,1.05826 0.16239,1.59083c0.11422,1.14771 0.1156,2.3023 0.10596,3.45414c-0.00963,0.68395 -0.03578,1.3679 -0.10321,2.04909c-0.03303,0.46514 -0.07018,0.93028 -0.13486,1.39267c-0.05367,0.37431 -0.0867,0.75138 -0.15275,1.12432c-0.12385,0.70872 -0.23395,1.41881 -0.39496,2.12065c-0.56422,2.54588 -1.41744,5.02984 -2.54726,7.3803c-2.17019,4.51791 -5.3436,8.55554 -9.23673,11.71381c-2.38102,1.94672 -5.01572,3.5606 -7.83168,4.79727c-0.85459,0.36881 -1.71469,0.72248 -2.5968,1.01973c-0.48303,0.15963 -0.96468,0.32752 -1.45459,0.46652c-0.91101,0.25872 -1.82891,0.50092 -2.75781,0.68808c-0.64129,0.12523 -1.28533,0.23807 -1.93074,0.34129c-0.72248,0.09083 -1.44496,0.19817 -2.17294,0.23945c-0.92065,0.09083 -1.84542,0.1156 -2.76882,0.11147c-0.93854,0.00413 -1.87845,-0.01651 -2.81423,-0.10872c-0.45275,-0.03165 -0.90413,-0.06881 -1.35276,-0.13073c-0.37431,-0.05367 -0.75138,-0.0867 -1.12432,-0.15275c-0.56697,-0.09908 -1.13533,-0.18853 -1.69955,-0.30551c-0.58486,-0.12936 -1.16835,-0.26009 -1.74634,-0.4156c-1.18762,-0.29862 -2.35047,-0.68945 -3.4968,-1.11881c-1.44358,-0.56697 -2.86102,-1.20413 -4.21653,-1.96102c-0.2945,-0.15826 -0.58899,-0.31514 -0.87386,-0.49129c-1.54404,-0.90551 -3.00827,-1.94037 -4.39268,-3.07432c-4.7725,-3.90965 -8.45095,-9.14178 -10.50692,-14.95877c-0.42523,-1.20276 -0.78578,-2.42891 -1.0734,-3.67157c-0.20367,-0.84771 -0.34679,-1.70918 -0.49266,-2.5679c-0.05505,-0.3234 -0.08395,-0.65092 -0.13073,-0.97569c-0.08257,-0.54496 -0.10321,-1.09542 -0.16101,-1.64313c-0.11009,-1.30322 -0.09771,-2.61331 -0.07018,-3.92066c0.01927,-0.48303 0.04679,-0.96468 0.09633,-1.44634c0.04266,-0.43624 0.0633,-0.87661 0.12661,-1.3101c0.05642,-0.3867 0.08945,-0.77753 0.15963,-1.16147c0.09633,-0.5422 0.1789,-1.08716 0.29174,-1.62661c0.47202,-2.2734 1.1656,-4.50415 2.10001,-6.6303c0.15826,-0.40184 0.35642,-0.78716 0.53119,-1.18211c1.1078,-2.29955 2.46331,-4.48075 4.05827,-6.47617c2.7523,-3.49267 6.20645,-6.42388 10.08307,-8.59682c1.03211,-0.5711 2.08625,-1.1078 3.17478,-1.56468c2.17707,-0.94679 4.46011,-1.6445 6.78581,-2.11652c0.48303,-0.0922 0.96881,-0.17064 1.45322,-0.25459c0.36055,-0.06468 0.72661,-0.09633 1.08854,-0.14862c0.48578,-0.07294 0.97707,-0.09358 1.4656,-0.14312c0.33853,-0.03303 0.67569,-0.04954 1.01285,-0.07018M559.2182,630.03344c-1.27019,0.01376 -2.53625,0.13624 -3.79405,0.30688c-1.00459,0.14862 -1.99955,0.3578 -2.98763,0.59175c-1.91423,0.48165 -3.78167,1.14771 -5.56791,1.98441c-1.43946,0.6867 -2.8335,1.47248 -4.15323,2.36973c-0.57523,0.40184 -1.15597,0.79817 -1.69817,1.24267c-0.69909,0.54633 -1.3734,1.12432 -2.02019,1.73258c-0.34541,0.30826 -0.66193,0.64679 -0.99358,0.97156c-3.8835,3.96194 -6.66608,8.99866 -7.91287,14.40694c-0.28074,1.16147 -0.48716,2.34221 -0.61101,3.52983c-0.15138,1.2234 -0.19817,2.45643 -0.19404,3.68809c0.01514,0.98257 0.05229,1.96515 0.16789,2.94084c0.08532,0.97982 0.25734,1.94863 0.44037,2.91469c0.14725,0.63991 0.27936,1.28257 0.45826,1.91423c0.8656,3.21744 2.27065,6.28901 4.13809,9.0482c1.189,1.78625 2.58441,3.43075 4.1257,4.9225c2.24038,2.17707 4.82341,3.99635 7.61563,5.39727c1.00184,0.48441 2.01744,0.94542 3.06469,1.32523c0.69358,0.2422 1.38441,0.49129 2.0945,0.68532c1.54955,0.4445 3.1335,0.77065 4.73259,0.97156c0.40046,0.03991 0.79954,0.08395 1.2,0.12385c1.90184,0.14862 3.81745,0.13762 5.71654,-0.05917c0.61239,-0.08257 1.22753,-0.13624 1.83716,-0.24496c0.49954,-0.0922 1.00184,-0.17202 1.49588,-0.28899c0.56835,-0.13486 1.13945,-0.26285 1.70092,-0.42248c3.6468,-1.0101 7.09819,-2.7124 10.12573,-4.98167c2.17157,-1.62661 4.12295,-3.54497 5.79635,-5.68076c0.44863,-0.55321 0.84909,-1.14358 1.25643,-1.72707c0.46652,-0.69633 0.90551,-1.41056 1.32111,-2.13854c0.33028,-0.61101 0.6523,-1.22615 0.95643,-1.85092c0.78303,-1.65826 1.41468,-3.38809 1.89221,-5.15919c0.35642,-1.37753 0.65367,-2.77432 0.81193,-4.19038c0.24358,-1.85368 0.26697,-3.72937 0.17752,-5.59406c-0.03991,-0.53532 -0.0922,-1.06927 -0.13762,-1.60459c-0.30688,-2.6257 -0.93441,-5.21699 -1.90184,-7.67893c-0.81881,-2.08212 -1.86193,-4.07754 -3.11148,-5.93534c-1.74634,-2.58717 -3.88625,-4.91011 -6.32617,-6.85737c-3.44726,-2.7523 -7.4959,-4.75461 -11.78674,-5.79085c-1.07065,-0.2656 -2.15918,-0.45963 -3.25185,-0.61239c-0.53808,-0.08119 -1.08028,-0.11284 -1.61973,-0.17064c-1.01698,-0.07844 -2.03808,-0.09908 -3.05781,-0.07982zM544.74934,636.76144c1.83028,-1.2234 3.86423,-2.11652 5.95874,-2.77707c-0.43624,0.24358 -0.88624,0.46514 -1.31147,0.72798c-1.54267,0.91927 -2.96148,2.05047 -4.18075,3.3702c-0.93578,1.02248 -1.75597,2.16469 -2.34083,3.42524c-0.45275,0.94404 -0.77615,1.95276 -0.94404,2.98763c-0.12798,0.66743 -0.1789,1.35001 -0.16101,2.02982c0.01789,1.87982 0.61101,3.72662 1.55368,5.34222c0.81468,1.40643 1.8757,2.6601 3.07708,3.75139c0.66743,0.6 1.40918,1.11331 2.05735,1.73395c0.31101,0.30138 0.61789,0.60826 0.88487,0.95092c0.36055,0.45551 0.67294,0.96193 0.82432,1.52753c0.12385,0.4156 0.09083,0.85321 0.09495,1.2812c0.00275,0.56422 -0.0055,1.12844 0.00413,1.69267c0.01927,0.48716 -0.00275,0.97569 0.01514,1.46285c0.01101,0.32752 0.00275,0.65505 0.00688,0.98257c0.02202,0.79404 0.00826,1.5867 0.02064,2.38074c0.01514,0.40046 0.00275,0.80092 0.01789,1.20276c0.00413,0.22431 0.01789,0.45138 -0.00413,0.67569c-0.12523,0.01651 -0.25046,0.02477 -0.37569,0.02202c-1.51239,0 -3.01102,-0.36193 -4.39681,-0.95367c-0.82569,-0.37156 -1.62524,-0.81055 -2.35184,-1.35276c-0.79129,-0.57661 -1.52615,-1.23303 -2.17294,-1.96927c-0.89863,-0.99633 -1.64863,-2.1179 -2.28716,-3.29588c-0.14725,-0.27936 -0.30826,-0.55321 -0.43762,-0.84221c-0.15963,-0.3633 -0.36055,-0.70734 -0.50505,-1.07615c-0.55734,-1.33212 -0.90413,-2.74405 -1.11193,-4.17112c-0.06743,-0.61101 -0.15,-1.22202 -0.16514,-1.83716c-0.09633,-2.16469 0.1156,-4.34176 0.64266,-6.44314c0.29174,-1.12156 0.65642,-2.22661 1.14358,-3.27937c0.86973,-1.95414 2.11102,-3.74038 3.61928,-5.25552c0.86422,-0.85321 1.80689,-1.62936 2.82524,-2.29405zM568.88292,633.99263c0.37707,0.10184 0.7445,0.23945 1.11331,0.36881c0.87523,0.32064 1.74496,0.66606 2.57478,1.09542c1.80414,0.88624 3.48304,2.03808 4.92938,3.43625c1.40368,1.36927 2.57891,2.97249 3.45965,4.72571c0.17615,0.37844 0.3633,0.75138 0.52431,1.1367c0.86835,2.07799 1.37615,4.30185 1.54542,6.54636c0.05642,0.62477 0.06055,1.25092 0.06193,1.87707c0.00963,1.60184 -0.20505,3.19955 -0.59175,4.75185c-0.2711,1.00046 -0.59863,1.99404 -1.08166,2.91469c-0.43762,0.91376 -0.91927,1.81102 -1.49175,2.64772c-0.95505,1.44083 -2.1468,2.73441 -3.55322,3.74589c-1.44221,1.05138 -3.11561,1.79175 -4.87158,2.11652c-0.48303,0.09495 -0.97432,0.14862 -1.46698,0.16651c-0.25459,0.00826 -0.51193,0.02202 -0.76514,-0.01376c-0.03853,-0.29587 0,-0.59312 -0.00138,-0.88899c-0.00413,-0.5133 0.01927,-1.02523 0.01376,-1.53716c0.02615,-0.96606 0.00275,-1.93349 0.0289,-2.89955c0.00413,-0.32752 -0.00413,-0.65505 0.00413,-0.98257c0.02339,-0.69771 -0.0055,-1.39542 0.01927,-2.09313c0.01376,-0.41147 -0.03303,-0.8312 0.07018,-1.23303c0.09083,-0.34404 0.24496,-0.66881 0.42523,-0.97432c0.61376,-1.00597 1.52202,-1.78349 2.43304,-2.51285c0.74037,-0.57523 1.44083,-1.20689 2.06698,-1.90459c1.05688,-1.15184 1.95001,-2.46056 2.58441,-3.89038c0.34404,-0.81606 0.62202,-1.66514 0.76376,-2.54038c0.11835,-0.60138 0.14587,-1.21514 0.13899,-1.82615c-0.00275,-1.08028 -0.19266,-2.15368 -0.50092,-3.18854c-0.24083,-0.78854 -0.58762,-1.53854 -0.97569,-2.26377c-0.53257,-0.95367 -1.19037,-1.83166 -1.92111,-2.64221c-1.3679,-1.49312 -2.99313,-2.74405 -4.76149,-3.72937c-0.25459,-0.14037 -0.52844,-0.25046 -0.77477,-0.40872zM555.0113,642.03623c0.13486,-0.16239 0.27385,-0.32064 0.42936,-0.46514c-0.08395,0.12798 -0.17477,0.24908 -0.26835,0.36881c-0.42661,0.53395 -0.76239,1.14358 -0.96743,1.79725c-0.11973,0.45 -0.23119,0.90826 -0.23807,1.37615c-0.00963,0.34679 -0.01101,0.69771 0.04404,1.04175c0.15551,1.05 0.59587,2.04359 1.20689,2.90643c0.27523,0.37156 0.58486,0.72523 0.9523,1.00872c0.22294,0.17477 0.48578,0.28762 0.73487,0.41973c0.42798,0.23119 0.86973,0.4445 1.24817,0.75413c0.36743,0.28762 0.62615,0.73349 0.60551,1.20964c-0.00138,10.13811 0,20.27622 -0.00138,30.41571c0,0.18578 -0.01101,0.37156 0.0055,0.55597c0.01789,0.20367 0.11284,0.38945 0.20229,0.5711c0.11835,0.22844 0.24496,0.45963 0.43762,0.63578c0.11697,0.10596 0.2711,0.19266 0.43349,0.17064c0.20642,-0.02752 0.36606,-0.18578 0.47477,-0.35367c0.13211,-0.2078 0.23119,-0.43486 0.31376,-0.66743c0.10459,-0.29312 0.06055,-0.60826 0.07431,-0.91239c0.01927,-0.55459 -0.00275,-1.10918 0.01927,-1.66377c0.00413,-0.81055 0.00413,-1.61973 0.00826,-2.43028c0.01927,-0.49817 0.00413,-0.99633 0.01514,-1.4945c0.02064,-0.55459 -0.00275,-1.10918 0.01927,-1.66377c0.00413,-0.82432 0.00413,-1.64863 0.00963,-2.47295c0.01927,-0.49817 0.00275,-0.99633 0.01514,-1.4945c0.01927,-0.54083 -0.00275,-1.08166 0.01927,-1.62111c0.00413,-0.82432 0.00413,-1.64863 0.00826,-2.47295c0.02202,-0.5422 -0.00138,-1.08441 0.02615,-1.62661c0.03991,0.19817 0.01789,0.40184 0.03028,0.60275c0.02615,0.49679 0.0578,0.99496 0.10459,1.49175c0.04404,0.4734 0.06055,0.94817 0.11835,1.42019c0.05092,0.42661 0.07018,0.85597 0.13073,1.2812c0.07844,0.56285 0.11973,1.12982 0.21193,1.69129c0.20092,1.24404 0.38945,2.49221 0.70046,3.71423c0.15551,0.66331 0.33028,1.32248 0.55046,1.9679c0.34954,1.08716 0.78716,2.15643 1.41881,3.11286c0.23807,0.3633 0.53257,0.68532 0.83945,0.99221c0.03716,0.0344 0.07569,0.07018 0.1211,0.09771c0.08257,0.0344 0.18028,-0.00963 0.23395,-0.07844c0.09771,-0.1211 0.16101,-0.26697 0.23395,-0.40321c0.55734,-1.0734 1.12569,-2.14129 1.69817,-3.20781c0.09633,-0.18028 0.19817,-0.36055 0.35229,-0.49679c0.24083,-0.21606 0.52844,-0.37018 0.82294,-0.49954c0.39633,-0.16789 0.81193,-0.30138 1.24267,-0.33303c0.90551,-0.08532 1.80414,0.10321 2.69175,0.25459c0.5078,0.07982 1.01835,0.16101 1.53166,0.19404c0.51468,0.01376 1.02936,0.00688 1.54267,-0.03853c1.17661,-0.12661 2.33808,-0.40734 3.43212,-0.8601c0.72936,-0.30826 1.43946,-0.66468 2.10689,-1.09129c1.57707,-0.99221 2.95322,-2.28028 4.13396,-3.71699c0.16101,-0.19541 0.30963,-0.39908 0.47615,-0.58899c-0.16514,0.44587 -0.36743,0.87661 -0.57248,1.30459c-0.17202,0.39908 -0.39083,0.77202 -0.58762,1.15872c-0.71009,1.32523 -1.51652,2.6023 -2.44267,3.78717c-0.55459,0.71698 -1.17386,1.38303 -1.83441,2.00505c-0.91376,0.83257 -1.93625,1.56468 -3.08671,2.0312c-1.12982,0.46376 -2.38212,0.63716 -3.59038,0.45275c-0.48991,-0.07982 -0.96468,-0.23257 -1.43257,-0.39633c-0.38395,-0.13349 -0.74175,-0.32752 -1.10505,-0.5078c-0.47202,-0.23532 -0.91376,-0.52431 -1.33624,-0.8367c0.37294,0.4211 0.78303,0.80643 1.19725,1.18487c0.58762,0.51743 1.20276,1.00597 1.8757,1.4078c0.54771,0.33716 1.14083,0.60551 1.76698,0.75826c0.20092,0.05092 0.40734,0.0633 0.61239,0.08257c-0.17202,0.15138 -0.36193,0.28074 -0.54908,0.41009c-1.32248,0.9 -2.75368,1.63212 -4.22341,2.26102c-2.87065,1.19725 -5.94085,1.92248 -9.04682,2.11102c-0.64129,0.03303 -1.28257,0.04954 -1.92386,0.04954c-0.68532,-0.01514 -1.37202,-0.01789 -2.05322,-0.08945c-1.54129,-0.10459 -3.06744,-0.37569 -4.5647,-0.74725c-1.42432,-0.37294 -2.82799,-0.84221 -4.16974,-1.45184c-1.19863,-0.53119 -2.35597,-1.15872 -3.439,-1.89771c-0.25184,-0.18028 -0.51468,-0.34817 -0.73899,-0.56147c0.90826,-0.16376 1.79313,-0.46652 2.61331,-0.89175c0.78991,-0.39358 1.51239,-0.91652 2.15093,-1.5234c0.30826,-0.30138 0.59037,-0.63165 0.85184,-0.97569c-0.47202,0.29312 -0.95367,0.5711 -1.46147,0.79542c-0.60688,0.29725 -1.24817,0.51881 -1.90047,0.69083c-0.78854,0.20918 -1.6156,0.23807 -2.4234,0.15688c-1.11881,-0.13073 -2.18258,-0.58762 -3.09772,-1.23578c-0.5945,-0.40459 -1.1312,-0.88487 -1.64588,-1.38441c-1.36652,-1.39817 -2.5046,-3.00139 -3.53121,-4.65965c-0.5422,-0.86285 -1.03624,-1.75459 -1.53028,-2.64496c-0.1445,-0.28074 -0.29587,-0.55734 -0.43762,-0.83945c0.3922,0.40184 0.76652,0.82156 1.1601,1.22202c1.23716,1.23441 2.55414,2.40001 4.01286,3.36882c1.03899,0.67431 2.15643,1.27019 3.37983,1.5179c0.42798,0.10046 0.86973,0.06468 1.30322,0.11147c0.38119,0.03853 0.76514,0.02752 1.14771,0.04128c0.69496,0.00826 1.39129,0.0055 2.08625,-0.02202c0.5023,-0.02202 1.00046,-0.09083 1.49863,-0.15c0.28486,-0.0344 0.5656,-0.09771 0.84496,-0.16514c0.53395,-0.13073 1.11606,-0.13211 1.62799,0.08395c0.65505,0.25459 1.16147,0.77615 1.56606,1.33624c0.29725,0.4156 0.55872,0.85597 0.7789,1.31835c0.15963,0.3344 0.33853,0.65918 0.48853,0.99909c0.13762,0.30826 0.29587,0.60826 0.47064,0.89725c0.0922,0.14037 0.19266,0.29587 0.36055,0.35092c0.14587,-0.10321 0.23532,-0.26285 0.31376,-0.41697c0.28899,-0.57248 0.47064,-1.19037 0.67294,-1.79588c0.27798,-0.90688 0.52019,-1.82615 0.71422,-2.75506c0.30413,-1.27294 0.44725,-2.57616 0.62477,-3.87112c0.07706,-0.54771 0.11422,-1.09955 0.18028,-1.64725c0.11973,-1.46423 0.26147,-2.92708 0.30826,-4.39543c0.01101,-0.25596 0.03303,-0.51055 0.0344,-0.76652c0.00138,-0.59863 0.0344,-1.19588 0.03028,-1.79313c-0.00138,-0.32752 -0.00138,-0.65505 0,-0.9812c0.00688,-0.69771 -0.02752,-1.39542 -0.03028,-2.09313c-0.02752,-0.90964 -0.09771,-1.81652 -0.17752,-2.72203c-0.10046,-0.80918 -0.2133,-1.62111 -0.42936,-2.40964c-0.28211,-1.06652 -0.76927,-2.06836 -1.34863,-3.00276c-0.43486,-0.69771 -0.93441,-1.35964 -1.52615,-1.93074c-0.53395,-0.53119 -1.18074,-0.97432 -1.91836,-1.16285c-0.20642,-0.05642 -0.4211,-0.06193 -0.63165,-0.08807c0.00963,-0.41147 0.09633,-0.81606 0.1734,-1.21789c0.21881,-1.06101 0.52294,-2.10551 0.93028,-3.1101c0.20918,-0.55459 0.46927,-1.08716 0.74175,-1.61285c0.47477,-0.90276 1.04863,-1.7601 1.71469,-2.54038zM559.31453,642.27018c0.04817,-0.00826 0.09771,-0.01651 0.14725,-0.02615c0.02615,0.24633 0.01239,0.49266 0.01376,0.73899v5.24727c-0.00138,0.23945 0.01789,0.48028 -0.02064,0.71835c-0.04954,-0.00413 -0.09771,-0.00688 -0.14587,-0.00688c-0.13073,-0.51606 -0.2367,-1.03899 -0.36055,-1.55643c-0.05229,-0.21055 -0.07982,-0.42523 -0.14725,-0.63165c-0.23395,-0.03303 -0.47202,-0.02339 -0.70872,-0.02752c-0.69633,-0.00138 -1.39404,0 -2.09037,-0.00138c-0.22844,-0.00138 -0.45688,0.01239 -0.68532,-0.00413c-0.00413,-0.05367 -0.03578,-0.12523 0.02202,-0.16239c0.17615,-0.08945 0.37431,-0.1211 0.55872,-0.18578c0.47202,-0.15688 0.94679,-0.29725 1.41881,-0.45551c0.19129,-0.06606 0.39908,-0.09908 0.57248,-0.21193c0.0055,-0.07706 0.00275,-0.15551 -0.00688,-0.23119c-0.16927,-0.07569 -0.34817,-0.11973 -0.52431,-0.17615c-0.43074,-0.14174 -0.8656,-0.26973 -1.29496,-0.4156c-0.24633,-0.08532 -0.50505,-0.13762 -0.7445,-0.24633c-0.00413,-0.05092 -0.00963,-0.10046 -0.01514,-0.15c0.70046,-0.02615 1.40368,0.00826 2.10551,-0.01651c0.46239,-0.01789 0.92615,0.01101 1.38854,-0.00963c0.01651,-0.05367 0.03578,-0.10596 0.05092,-0.15963c0.14862,-0.67982 0.32064,-1.35276 0.46652,-2.02982zM560.13609,642.24266c0.04954,0.00688 0.09908,0.01651 0.14862,0.02752c0.13486,0.52982 0.23807,1.06789 0.37294,1.59771c0.04954,0.19541 0.07706,0.39633 0.14174,0.58762c0.34817,0.02477 0.69771,-0.00138 1.04725,0.00688c0.71009,0.01651 1.42157,0.01651 2.13166,0.00963c0.10459,-0.00138 0.20918,0.00413 0.31376,0.01101c-0.0055,0.04954 -0.00963,0.09908 -0.01376,0.14862c-0.25046,0.11422 -0.52019,0.17202 -0.78028,0.26009c-0.5133,0.16927 -1.02936,0.3289 -1.54404,0.49129c-0.07844,0.02339 -0.15413,0.0578 -0.22982,0.08807c-0.02064,0.07569 -0.02477,0.15413 -0.01651,0.23257c0.11973,0.06606 0.25046,0.11147 0.38119,0.15c0.67156,0.20918 1.339,0.43211 2.01331,0.63303c0.05229,0.01789 0.10734,0.03716 0.15551,0.06743c0.05505,0.03716 0.03165,0.10872 0.02064,0.16239c-0.22844,0.01789 -0.45551,0.00413 -0.68395,0.0055c-0.71147,0.00138 -1.42157,-0.00138 -2.13304,0.00138c-0.22156,0.00413 -0.44312,-0.00275 -0.66331,0.0289c-0.07156,0.22982 -0.09908,0.47064 -0.16101,0.70321c-0.12936,0.49129 -0.20918,0.99633 -0.34954,1.48349c-0.04954,0.00138 -0.09771,0.00275 -0.14587,0.00826c-0.03991,-0.23807 -0.02064,-0.4789 -0.02064,-0.71835v-5.24727c0.00275,-0.24496 -0.01101,-0.49266 0.01514,-0.73899zM534.53691,648.43121c0.15413,-0.29587 0.28624,-0.60551 0.46376,-0.88899c-0.25046,1.04037 -0.40046,2.10138 -0.49817,3.16515c-0.11009,1.06101 -0.11697,2.13166 -0.07431,3.1968c0.1445,2.74405 0.76239,5.48121 1.95826,7.96517c0.41147,0.82432 0.87386,1.62799 1.44496,2.3546c0.84221,1.02799 1.72432,2.0312 2.73029,2.9023c0.66055,0.56422 1.37478,1.07065 2.13854,1.48624c0.45,0.22707 0.89587,0.46652 1.3679,0.64404c0.68945,0.27936 1.4023,0.49679 2.12203,0.67982c0.52707,0.13211 1.07065,0.19404 1.58533,0.37294c0.68808,0.21606 1.30322,0.63441 1.79313,1.1601c0.67844,0.71973 1.11331,1.63349 1.40368,2.56928c0.13624,0.39908 0.21881,0.81331 0.29862,1.22753c0.02064,0.10321 0.03028,0.20918 0.02202,0.31514c-0.8945,0.38257 -1.82478,0.69633 -2.78808,0.85046c-0.5656,0.10734 -1.14083,0.13624 -1.71469,0.14862c-1.41056,0.03303 -2.81698,-0.2422 -4.14497,-0.70459c-0.51468,-0.19541 -1.03074,-0.3922 -1.5179,-0.64954c-1.10918,-0.52844 -2.1523,-1.19725 -3.09084,-1.98992c-0.40184,-0.35092 -0.8023,-0.70597 -1.15597,-1.10505c-1.26056,-1.35276 -2.24313,-2.94634 -2.99864,-4.63075c-0.3289,-0.76376 -0.63441,-1.53854 -0.87661,-2.33395c-0.16101,-0.5422 -0.32477,-1.08578 -0.44863,-1.639c-0.10321,-0.40459 -0.16789,-0.81881 -0.25734,-1.22753c-0.0633,-0.2945 -0.09495,-0.5945 -0.14174,-0.89175c-0.11697,-0.74725 -0.17615,-1.50413 -0.18303,-2.26102c0.01514,-0.85046 0.0344,-1.7023 0.14725,-2.54588c0.05505,-0.39358 0.0922,-0.78991 0.15826,-1.18349c0.13486,-0.78441 0.2945,-1.56468 0.51055,-2.32983c0.42523,-1.60322 1.02936,-3.15827 1.74634,-4.6569zM584.59169,647.54497c0.15138,0.22844 0.26285,0.4789 0.38257,0.72386c0.28899,0.61239 0.58349,1.22478 0.82844,1.85643c1.04725,2.58166 1.69267,5.33809 1.7945,8.12618c0.00275,0.2422 0.00963,0.48441 0.01514,0.72798c0.01789,1.31698 -0.17477,2.62707 -0.43762,3.91515c-0.10046,0.49404 -0.21193,0.9867 -0.35505,1.47111c-0.55597,2.0257 -1.37615,3.99084 -2.5335,5.74956c-1.12982,1.72982 -2.61607,3.24084 -4.38167,4.32249c-0.78854,0.49404 -1.62248,0.91376 -2.48395,1.26468c-0.79542,0.30138 -1.61147,0.55459 -2.44955,0.70321c-0.88074,0.1445 -1.77661,0.20918 -2.66973,0.16927c-1.08991,-0.06606 -2.17157,-0.28486 -3.19405,-0.66743c-0.26697,-0.11009 -0.5422,-0.20092 -0.80367,-0.32064c-0.0289,-0.2078 0.0344,-0.41147 0.07294,-0.61376c0.15963,-0.78991 0.41697,-1.56331 0.78441,-2.28166c0.32615,-0.62064 0.75964,-1.19037 1.30184,-1.63762c0.3344,-0.28211 0.7211,-0.49679 1.12294,-0.66468c0.49266,-0.20642 1.02799,-0.2711 1.54679,-0.38945c0.99496,-0.23532 1.97753,-0.54083 2.91056,-0.96331c1.42432,-0.63991 2.7124,-1.56606 3.80506,-2.67799c0.21881,-0.22156 0.4445,-0.43762 0.6523,-0.67019c0.46376,-0.51743 0.9234,-1.04175 1.35551,-1.5867c1.02936,-1.38579 1.76423,-2.97111 2.29955,-4.60736c0.21743,-0.72936 0.44174,-1.45872 0.57936,-2.20872c0.0867,-0.39496 0.14312,-0.79542 0.20918,-1.1945c0.11973,-0.83808 0.21881,-1.68166 0.23119,-2.52937c0.01651,-0.91514 0.01927,-1.83303 -0.07294,-2.74405c-0.10046,-1.09955 -0.25734,-2.19634 -0.51055,-3.27249z" className="SFSymbolsPreviewWireframe"/></g>
 </g>
</svg>