<?xml version="1.0" encoding="UTF-8"?><!--Generator: https://SymbolKit.app--><!DOCTYPE svg PUBLIC "-//W3C//DTD SVG 1.1//EN" "http://www.w3.org/Graphics/SVG/1.1/DTD/svg11.dtd"><svg xmlns="http://www.w3.org/2000/svg" xmlns:xlink="http://www.w3.org/1999/xlink" version="1.1" viewBox="0 0 3300 2200">
 <!--glyph: "100092", point size: 100.0, font version: "20.0d10e1", template writer version: "138.0.0"-->
 <style>.SFSymbolsPreviewWireframe {fill:none;opacity:1.0;stroke:black;stroke-width:0.5}
</style>
 <g id="Notes">
  <rect height="2200" id="artboard" style="fill:white;opacity:1" width="3300" x="0" y="0"/>
  <line style="fill:none;stroke:black;opacity:1;stroke-width:0.5;" x1="263" x2="3036" y1="292" y2="292"/>
  <text style="stroke:none;fill:black;font-family:sans-serif;font-size:13;font-weight:bold;" transform="matrix(1 0 0 1 263 322)">Weight/Scale Variations</text>
  <text style="stroke:none;fill:black;font-family:sans-serif;font-size:13;text-anchor:middle;" transform="matrix(1 0 0 1 559.711 322)">Ultralight</text>
  <text style="stroke:none;fill:black;font-family:sans-serif;font-size:13;text-anchor:middle;" transform="matrix(1 0 0 1 856.422 322)">Thin</text>
  <text style="stroke:none;fill:black;font-family:sans-serif;font-size:13;text-anchor:middle;" transform="matrix(1 0 0 1 1153.13 322)">Light</text>
  <text style="stroke:none;fill:black;font-family:sans-serif;font-size:13;text-anchor:middle;" transform="matrix(1 0 0 1 1449.84 322)">Regular</text>
  <text style="stroke:none;fill:black;font-family:sans-serif;font-size:13;text-anchor:middle;" transform="matrix(1 0 0 1 1746.56 322)">Medium</text>
  <text style="stroke:none;fill:black;font-family:sans-serif;font-size:13;text-anchor:middle;" transform="matrix(1 0 0 1 2043.27 322)">Semibold</text>
  <text style="stroke:none;fill:black;font-family:sans-serif;font-size:13;text-anchor:middle;" transform="matrix(1 0 0 1 2339.98 322)">Bold</text>
  <text style="stroke:none;fill:black;font-family:sans-serif;font-size:13;text-anchor:middle;" transform="matrix(1 0 0 1 2636.69 322)">Heavy</text>
  <text style="stroke:none;fill:black;font-family:sans-serif;font-size:13;text-anchor:middle;" transform="matrix(1 0 0 1 2933.4 322)">Black</text>
  <line style="fill:none;stroke:black;opacity:1;stroke-width:0.5;" x1="263" x2="3036" y1="1903" y2="1903"/>
  <g transform="matrix(0.2 0 0 0.2 263 1933)">
   <path d="m46.2402 4.15039c21.7773 0 39.4531-17.627 39.4531-39.4043s-17.6758-39.4043-39.4531-39.4043c-21.7285 0-39.4043 17.627-39.4043 39.4043s17.6758 39.4043 39.4043 39.4043Zm0-7.42188c-17.6758 0-31.9336-14.3066-31.9336-31.9824s14.2578-31.9824 31.9336-31.9824 31.9824 14.3066 31.9824 31.9824-14.3066 31.9824-31.9824 31.9824Zm-17.9688-31.9824c0 2.14844 1.51367 3.61328 3.75977 3.61328h10.498v10.5957c0 2.19727 1.46484 3.71094 3.61328 3.71094 2.24609 0 3.71094-1.51367 3.71094-3.71094v-10.5957h10.5957c2.19727 0 3.71094-1.46484 3.71094-3.61328 0-2.19727-1.51367-3.71094-3.71094-3.71094h-10.5957v-10.5469c0-2.24609-1.46484-3.75977-3.71094-3.75977-2.14844 0-3.61328 1.51367-3.61328 3.75977v10.5469h-10.498c-2.24609 0-3.75977 1.51367-3.75977 3.71094Z"/>
  </g>
  <g transform="matrix(0.2 0 0 0.2 281.506 1933)">
   <path d="m58.5449 14.5508c27.4902 0 49.8047-22.3145 49.8047-49.8047s-22.3145-49.8047-49.8047-49.8047-49.8047 22.3145-49.8047 49.8047 22.3145 49.8047 49.8047 49.8047Zm0-8.30078c-22.9492 0-41.5039-18.5547-41.5039-41.5039s18.5547-41.5039 41.5039-41.5039 41.5039 18.5547 41.5039 41.5039-18.5547 41.5039-41.5039 41.5039Zm-22.6562-41.5039c0 2.39258 1.66016 4.00391 4.15039 4.00391h14.3555v14.4043c0 2.44141 1.66016 4.15039 4.05273 4.15039 2.44141 0 4.15039-1.66016 4.15039-4.15039v-14.4043h14.4043c2.44141 0 4.15039-1.61133 4.15039-4.00391 0-2.44141-1.70898-4.15039-4.15039-4.15039h-14.4043v-14.3555c0-2.49023-1.70898-4.19922-4.15039-4.19922-2.39258 0-4.05273 1.70898-4.05273 4.19922v14.3555h-14.3555c-2.49023 0-4.15039 1.70898-4.15039 4.15039Z"/>
  </g>
  <g transform="matrix(0.2 0 0 0.2 304.924 1933)">
   <path d="m74.8535 28.3203c35.1074 0 63.623-28.4668 63.623-63.5742s-28.5156-63.623-63.623-63.623-63.5742 28.5156-63.5742 63.623 28.4668 63.5742 63.5742 63.5742Zm0-9.08203c-30.127 0-54.4922-24.3652-54.4922-54.4922s24.3652-54.4922 54.4922-54.4922 54.4922 24.3652 54.4922 54.4922-24.3652 54.4922-54.4922 54.4922Zm-28.8574-54.4922c0 2.58789 1.85547 4.39453 4.58984 4.39453h19.7266v19.7754c0 2.68555 1.85547 4.58984 4.44336 4.58984 2.68555 0 4.54102-1.85547 4.54102-4.58984v-19.7754h19.7754c2.68555 0 4.58984-1.80664 4.58984-4.39453 0-2.73438-1.85547-4.58984-4.58984-4.58984h-19.7754v-19.7266c0-2.73438-1.85547-4.63867-4.54102-4.63867-2.58789 0-4.44336 1.9043-4.44336 4.63867v19.7266h-19.7266c-2.73438 0-4.58984 1.85547-4.58984 4.58984Z"/>
  </g>
  <text style="stroke:none;fill:black;font-family:sans-serif;font-size:13;font-weight:bold;" transform="matrix(1 0 0 1 263 1953)">Design Variations</text>
  <text style="stroke:none;fill:black;font-family:sans-serif;font-size:13;" transform="matrix(1 0 0 1 263 1971)">Symbols are supported in up to nine weights and three scales.</text>
  <text style="stroke:none;fill:black;font-family:sans-serif;font-size:13;" transform="matrix(1 0 0 1 263 1989)">For optimal layout with text and other symbols, vertically align</text>
  <text style="stroke:none;fill:black;font-family:sans-serif;font-size:13;" transform="matrix(1 0 0 1 263 2007)">symbols with the adjacent text.</text>
  <line style="fill:none;stroke:#00AEEF;stroke-width:0.5;opacity:1.0;" x1="776" x2="776" y1="1919" y2="1933"/>
  <g transform="matrix(0.2 0 0 0.2 776 1933)">
   <path d="m16.5527 0.78125c2.58789 0 3.85742-0.976562 4.78516-3.71094l6.29883-17.2363h28.8086l6.29883 17.2363c0.927734 2.73438 2.19727 3.71094 4.73633 3.71094 2.58789 0 4.24805-1.5625 4.24805-4.00391 0-0.830078-0.146484-1.61133-0.537109-2.63672l-22.9004-60.9863c-1.12305-2.97852-3.125-4.49219-6.25-4.49219-3.02734 0-5.07812 1.46484-6.15234 4.44336l-22.9004 61.084c-0.390625 1.02539-0.537109 1.80664-0.537109 2.63672 0 2.44141 1.5625 3.95508 4.10156 3.95508Zm13.4766-28.3691 11.8652-32.8613h0.244141l11.8652 32.8613Z"/>
  </g>
  <line style="fill:none;stroke:#00AEEF;stroke-width:0.5;opacity:1.0;" x1="792.836" x2="792.836" y1="1919" y2="1933"/>
  <text style="stroke:none;fill:black;font-family:sans-serif;font-size:13;font-weight:bold;" transform="matrix(1 0 0 1 776 1953)">Margins</text>
  <text style="stroke:none;fill:black;font-family:sans-serif;font-size:13;" transform="matrix(1 0 0 1 776 1971)">Leading and trailing margins on the left and right side of each symbol</text>
  <text style="stroke:none;fill:black;font-family:sans-serif;font-size:13;" transform="matrix(1 0 0 1 776 1989)">can be adjusted by modifying the x-location of the margin guidelines.</text>
  <text style="stroke:none;fill:black;font-family:sans-serif;font-size:13;" transform="matrix(1 0 0 1 776 2007)">Modifications are automatically applied proportionally to all</text>
  <text style="stroke:none;fill:black;font-family:sans-serif;font-size:13;" transform="matrix(1 0 0 1 776 2025)">scales and weights.</text>
  <g transform="matrix(0.2 0 0 0.2 1289 1933)">
   <path d="m14.209 9.32617 8.49609 8.54492c4.29688 4.3457 9.22852 4.05273 13.8672-1.07422l53.4668-58.9355-4.83398-4.88281-53.0762 58.3984c-1.75781 2.00195-3.41797 2.49023-5.76172 0.146484l-5.85938-5.81055c-2.34375-2.29492-1.80664-4.00391 0.195312-5.81055l57.373-54.0039-4.88281-4.83398-57.959 54.4434c-4.93164 4.58984-5.32227 9.47266-1.02539 13.8184Zm32.0801-90.9668c-2.09961 2.05078-2.24609 4.93164-1.07422 6.88477 1.17188 1.80664 3.4668 2.97852 6.68945 2.14844 7.32422-1.70898 14.9414-2.00195 22.0703 2.68555l-2.92969 7.27539c-1.70898 4.15039-0.830078 7.08008 1.85547 9.81445l11.4746 11.5723c2.44141 2.44141 4.49219 2.53906 7.32422 2.05078l5.32227-0.976562 3.32031 3.36914-0.195312 2.7832c-0.195312 2.49023 0.439453 4.39453 2.88086 6.78711l3.80859 3.71094c2.39258 2.39258 5.46875 2.53906 7.8125 0.195312l14.5508-14.5996c2.34375-2.34375 2.24609-5.32227-0.146484-7.71484l-3.85742-3.80859c-2.39258-2.39258-4.24805-3.17383-6.64062-2.97852l-2.88086 0.244141-3.22266-3.17383 1.2207-5.61523c0.634766-2.83203-0.146484-5.0293-3.07617-7.95898l-10.9863-10.9375c-16.6992-16.6016-38.8672-16.2109-53.3203-1.75781Zm7.4707 1.85547c12.1582-8.88672 28.6133-7.37305 39.7461 3.75977l12.1582 12.0605c1.17188 1.17188 1.36719 2.09961 1.02539 3.80859l-1.61133 7.42188 7.51953 7.42188 4.93164-0.292969c1.26953-0.0488281 1.66016 0.0488281 2.63672 1.02539l2.88086 2.88086-12.207 12.207-2.88086-2.88086c-0.976562-0.976562-1.12305-1.36719-1.07422-2.68555l0.341797-4.88281-7.4707-7.42188-7.61719 1.26953c-1.61133 0.341797-2.34375 0.195312-3.56445-0.976562l-10.0098-10.0098c-1.26953-1.17188-1.41602-2.00195-0.634766-3.85742l4.39453-10.4492c-7.8125-7.27539-17.9688-10.4004-28.125-7.42188-0.78125 0.195312-1.07422-0.439453-0.439453-0.976562Z"/>
  </g>
  <text style="stroke:none;fill:black;font-family:sans-serif;font-size:13;font-weight:bold;" transform="matrix(1 0 0 1 1289 1953)">Exporting</text>
  <text style="stroke:none;fill:black;font-family:sans-serif;font-size:13;" transform="matrix(1 0 0 1 1289 1971)">Symbols should be outlined when exporting to ensure the</text>
  <text style="stroke:none;fill:black;font-family:sans-serif;font-size:13;" transform="matrix(1 0 0 1 1289 1989)">design is preserved when submitting to Xcode.</text>
  <text id="template-version" style="stroke:none;fill:black;font-family:sans-serif;font-size:13;text-anchor:end;" transform="matrix(1 0 0 1 3036 1933)">Template v.6.0</text>
  <text style="stroke:none;fill:black;font-family:sans-serif;font-size:13;text-anchor:end;" transform="matrix(1 0 0 1 3036 1951)">Requires Xcode 16 or greater</text>
  <text id="descriptive-name" style="stroke:none;fill:black;font-family:sans-serif;font-size:13;text-anchor:end;" transform="matrix(1 0 0 1 3036 1969)">Generated from square</text>
  <text style="stroke:none;fill:black;font-family:sans-serif;font-size:13;text-anchor:end;" transform="matrix(1 0 0 1 3036 1987)">Typeset at 100.0 points</text>
  <text style="stroke:none;fill:black;font-family:sans-serif;font-size:13;" transform="matrix(1 0 0 1 263 726)">Small</text>
  <text style="stroke:none;fill:black;font-family:sans-serif;font-size:13;" transform="matrix(1 0 0 1 263 1156)">Medium</text>
  <text style="stroke:none;fill:black;font-family:sans-serif;font-size:13;" transform="matrix(1 0 0 1 263 1586)">Large</text>
 </g>
 <g id="Guides">
  <g id="H-reference" style="fill:#27AAE1;stroke:none;" transform="matrix(1 0 0 1 339 696)">
   <path d="M0.993654 0L3.63775 0L29.3281-67.1323L30.0303-67.1323L30.0303-70.459L28.1226-70.459ZM11.6885-24.4799L46.9815-24.4799L46.2315-26.7285L12.4385-26.7285ZM55.1196 0L57.7637 0L30.6382-70.459L29.4326-70.459L29.4326-67.1323Z"/>
  </g>
  <line id="Baseline-S" style="fill:none;stroke:#27AAE1;opacity:1;stroke-width:0.5;" x1="263" x2="3036" y1="696" y2="696"/>
  <line id="Capline-S" style="fill:none;stroke:#27AAE1;opacity:1;stroke-width:0.5;" x1="263" x2="3036" y1="625.541" y2="625.541"/>
  <g id="H-reference" style="fill:#27AAE1;stroke:none;" transform="matrix(1 0 0 1 339 1126)">
   <path d="M0.993654 0L3.63775 0L29.3281-67.1323L30.0303-67.1323L30.0303-70.459L28.1226-70.459ZM11.6885-24.4799L46.9815-24.4799L46.2315-26.7285L12.4385-26.7285ZM55.1196 0L57.7637 0L30.6382-70.459L29.4326-70.459L29.4326-67.1323Z"/>
  </g>
  <line id="Baseline-M" style="fill:none;stroke:#27AAE1;opacity:1;stroke-width:0.5;" x1="263" x2="3036" y1="1126" y2="1126"/>
  <line id="Capline-M" style="fill:none;stroke:#27AAE1;opacity:1;stroke-width:0.5;" x1="263" x2="3036" y1="1055.54" y2="1055.54"/>
  <g id="H-reference" style="fill:#27AAE1;stroke:none;" transform="matrix(1 0 0 1 339 1556)">
   <path d="M0.993654 0L3.63775 0L29.3281-67.1323L30.0303-67.1323L30.0303-70.459L28.1226-70.459ZM11.6885-24.4799L46.9815-24.4799L46.2315-26.7285L12.4385-26.7285ZM55.1196 0L57.7637 0L30.6382-70.459L29.4326-70.459L29.4326-67.1323Z"/>
  </g>
  <line id="Baseline-L" style="fill:none;stroke:#27AAE1;opacity:1;stroke-width:0.5;" x1="263" x2="3036" y1="1556" y2="1556"/>
  <line id="Capline-L" style="fill:none;stroke:#27AAE1;opacity:1;stroke-width:0.5;" x1="263" x2="3036" y1="1485.54" y2="1485.54"/>
  <line id="right-margin-Black-S" style="fill:none;stroke:#00AEEF;stroke-width:0.5;opacity:1.0;" x1="2981.3" x2="2981.3" y1="600.785" y2="720.121"/>
  <line id="left-margin-Black-S" style="fill:none;stroke:#00AEEF;stroke-width:0.5;opacity:1.0;" x1="2885.5" x2="2885.5" y1="600.785" y2="720.121"/>
  <line id="right-margin-Regular-S" style="fill:none;stroke:#00AEEF;stroke-width:0.5;opacity:1.0;" x1="1495.18" x2="1495.18" y1="600.785" y2="720.121"/>
  <line id="left-margin-Regular-S" style="fill:none;stroke:#00AEEF;stroke-width:0.5;opacity:1.0;" x1="1404.51" x2="1404.51" y1="600.785" y2="720.121"/>
  <line id="right-margin-Ultralight-S" style="fill:none;stroke:#00AEEF;stroke-width:0.5;opacity:1.0;" x1="603.073" x2="603.073" y1="600.785" y2="720.121"/>
  <line id="left-margin-Ultralight-S" style="fill:none;stroke:#00AEEF;stroke-width:0.5;opacity:1.0;" x1="516.35" x2="516.35" y1="600.785" y2="720.121"/>
 </g>
 <g id="Symbols">
  <g id="Black-S"><path d="M2956.58965,657.54621l-0.50918,-0.8945c0.01376,-6.38535 -2.94497,-8.98627 -6.39911,-10.96793c1.04588,-0.27523 2.11927,-0.49541 2.42203,-1.81652c1.80276,-0.45413 2.17432,-1.29358 2.35322,-2.17432c0.46789,-0.31651 2.03671,-1.19725 1.87157,-2.71102c0.88074,-0.60551 1.37615,-1.38991 1.11468,-2.49084c0.94954,-1.03211 1.19725,-1.88533 0.79817,-2.66973c1.14221,-1.41744 0.63303,-2.1468 0.15138,-2.87616c0.85321,-1.54129 0.09633,-3.19267 -2.28441,-2.91744c-0.94954,-1.38991 -3.01377,-1.0734 -3.33029,-1.0734c-0.3578,-0.44037 -0.82569,-0.82569 -2.27065,-0.64679c-0.93578,-0.83945 -1.98166,-0.68808 -3.06882,-0.28899c-1.27982,-1.00459 -2.13304,-0.19266 -3.1101,0.11009c-1.55505,-0.49541 -1.91285,0.1789 -2.66973,0.46789c-1.69267,-0.3578 -2.2156,0.41285 -3.02753,1.22478l-0.94954,-0.01376c-2.55964,1.48624 -3.8257,4.51378 -4.27983,6.06883c-0.45413,-1.55505 -1.72019,-4.58259 -4.27983,-6.06883l-0.94954,0.01376c-0.81193,-0.81193 -1.33487,-1.58257 -3.02753,-1.22478c-0.77065,-0.27523 -1.11468,-0.96331 -2.66973,-0.46789c-0.63303,-0.19266 -1.22478,-0.60551 -1.91285,-0.59175c-0.3578,0.01376 -0.75688,0.13762 -1.19725,0.48165c-1.08716,-0.41285 -2.13304,-0.55046 -3.06882,0.28899c-1.44496,-0.1789 -1.92661,0.19266 -2.27065,0.64679c-0.31651,0 -2.38074,-0.31651 -3.33029,1.0734c-2.38074,-0.27523 -3.12387,1.37615 -2.27065,2.91744c-0.48165,0.74312 -0.99083,1.47248 0.15138,2.87616c-0.39908,0.78441 -0.15138,1.63762 0.79817,2.66973c-0.24771,1.10092 0.24771,1.88533 1.11468,2.49084c-0.16514,1.51377 1.40368,2.3945 1.87157,2.71102c0.1789,0.88074 0.55046,1.70643 2.35322,2.17432c0.30275,1.30734 1.37615,1.54129 2.42203,1.81652c-3.45414,1.98166 -6.41287,4.58259 -6.39911,10.96793l-0.50918,0.8945c-3.96332,2.36698 -7.52755,10.00463 -1.95414,16.19731c0.3578,1.94037 0.97707,3.33029 1.51377,4.87158c0.81193,6.22021 6.12388,9.12389 7.51379,9.46793c2.05047,1.54129 4.23855,3.00001 7.18351,4.01836c2.79359,2.83487 5.82112,3.90827 8.84866,3.90827h0.13762c3.0413,0 6.05507,-1.0734 8.8349,-3.90827c2.95873,-1.01835 5.13305,-2.47707 7.18351,-4.01836c1.40368,-0.34404 6.70186,-3.24772 7.51379,-9.46793c0.5367,-1.54129 1.15597,-2.9312 1.51377,-4.87158c5.58718,-6.20645 2.02294,-13.83033 -1.92661,-16.19731zM2953.5346,656.44529c-0.20642,2.5734 -13.61014,-8.95875 -11.29821,-9.34407c6.28901,-1.03211 11.50463,2.64221 11.29821,9.34407zM2947.61714,669.25726c-3.37157,2.17432 -8.22939,0.77065 -10.84408,-3.13763c-2.61469,-3.90827 -2.00918,-8.8349 1.36239,-11.00922c3.37157,-2.17432 8.22939,-0.77065 10.84408,3.13763c2.61469,3.90827 2.00918,8.8349 -1.36239,11.00922zM2938.27307,629.5828c0.11009,0.57798 0.24771,0.93578 0.39908,1.04588c0.74312,-0.79817 1.34863,-1.6101 2.31194,-2.38074c0,0.45413 -0.23395,0.93578 0.34404,1.29358c0.50918,-0.68808 1.21101,-1.30734 2.13304,-1.83028c-0.44037,0.77065 -0.08257,1.00459 0.16514,1.32111c0.70184,-0.60551 1.37615,-1.21101 2.66973,-1.69267c-0.3578,0.42661 -0.85321,0.85321 -0.33028,1.34863c0.72936,-0.45413 1.45872,-0.90826 3.17891,-1.22478c-0.38532,0.42661 -1.19725,0.86698 -0.70184,1.29358c0.90826,-0.34404 1.92661,-0.60551 3.0413,-0.74312c-0.5367,0.44037 -0.97707,0.86698 -0.5367,1.21101c0.97707,-0.30275 2.3257,-0.70184 3.63304,-0.3578l-0.82569,0.83945c-0.09633,0.11009 1.94037,0.08257 3.289,0.11009c-0.49541,0.68808 -0.99083,1.33487 -1.27982,2.5046c0.13762,0.13762 0.79817,0.05505 1.4312,0c-0.64679,1.36239 -1.76147,1.69267 -2.02294,2.28441c0.39908,0.30275 0.93578,0.22018 1.54129,0.01376c-0.46789,0.94954 -1.4312,1.6101 -2.20184,2.38074c0.19266,0.13762 0.5367,0.22018 1.33487,0.12385c-0.7156,0.75688 -1.56881,1.44496 -2.58717,2.06423c0.1789,0.20642 0.79817,0.20642 1.37615,0.22018c-0.92202,0.8945 -2.10551,1.36239 -3.2202,1.95414c0.55046,0.37156 0.94954,0.28899 1.37615,0.28899c-0.78441,0.64679 -2.11927,0.97707 -3.35781,1.37615c0.23395,0.37156 0.46789,0.46789 0.97707,0.56422c-1.30734,0.72936 -3.19267,0.39908 -3.71561,0.77065c0.12385,0.37156 0.49541,0.60551 0.92202,0.79817c-2.11927,0.12385 -7.88535,-0.08257 -9.00003,-4.44497c2.16056,-2.38074 6.11012,-5.16057 12.89454,-8.61471c-5.28442,1.76147 -10.04591,4.12846 -14.03675,7.36241c-4.7202,-2.18808 -1.48624,-7.69269 0.79817,-9.88077zM2933.53911,645.3535c3.33029,-0.04128 7.44498,2.44955 7.43122,4.77525c-0.01376,2.06423 -2.88992,3.72937 -7.4037,3.70185c-4.41745,-0.05505 -7.38994,-2.09175 -7.37617,-4.10093c0,-1.63762 3.60552,-4.47249 7.34865,-4.37616zM2916.61244,643.59203c0.50918,-0.09633 0.74312,-0.20642 0.97707,-0.56422c-1.23854,-0.38532 -2.5734,-0.72936 -3.35781,-1.37615c0.42661,0 0.82569,0.09633 1.37615,-0.28899c-1.11468,-0.59175 -2.29817,-1.05964 -3.2202,-1.95414c0.57798,-0.01376 1.19725,0 1.37615,-0.22018c-1.01835,-0.61927 -1.87157,-1.30734 -2.58717,-2.06423c0.79817,0.09633 1.14221,0.01376 1.33487,-0.12385c-0.77065,-0.77065 -1.74771,-1.4312 -2.20184,-2.38074c0.59175,0.20642 1.14221,0.27523 1.54129,-0.01376c-0.26147,-0.57798 -1.37615,-0.92202 -2.02294,-2.28441c0.63303,0.05505 1.29358,0.13762 1.4312,0c-0.28899,-1.16973 -0.79817,-1.83028 -1.27982,-2.5046c1.34863,-0.01376 3.38533,0 3.289,-0.11009l-0.82569,-0.83945c1.30734,-0.34404 2.65597,0.05505 3.63304,0.3578c0.44037,-0.34404 -0.01376,-0.77065 -0.5367,-1.21101c1.11468,0.15138 2.11927,0.39908 3.0413,0.74312c0.48165,-0.42661 -0.31651,-0.86698 -0.70184,-1.29358c1.72019,0.31651 2.44955,0.77065 3.17891,1.22478c0.52294,-0.49541 0.02752,-0.92202 -0.33028,-1.34863c1.29358,0.46789 1.9679,1.08716 2.66973,1.69267c0.23395,-0.31651 0.60551,-0.55046 0.16514,-1.32111c0.92202,0.52294 1.62386,1.14221 2.13304,1.83028c0.56422,-0.3578 0.34404,-0.85321 0.34404,-1.29358c0.96331,0.77065 1.56881,1.58257 2.31194,2.38074c0.15138,-0.11009 0.27523,-0.46789 0.39908,-1.04588c2.28441,2.18808 5.51837,7.69269 0.82569,9.88077c-3.99084,-3.23396 -8.75233,-5.60094 -14.03675,-7.36241c6.78443,3.44038 10.73399,6.23397 12.89454,8.61471c-1.10092,4.37616 -6.88076,4.56882 -9.00003,4.44497c0.42661,-0.19266 0.79817,-0.44037 0.92202,-0.79817c-0.55046,-0.38532 -2.42203,-0.05505 -3.74313,-0.77065zM2924.88311,646.90855c2.31194,0.38532 -11.09179,11.90372 -11.29821,9.34407c-0.20642,-6.70186 5.02295,-10.38995 11.29821,-9.34407zM2910.6537,672.61507c-3.26148,-2.58717 -4.30736,-10.14224 1.73395,-13.52757c3.6468,-0.96331 1.23854,14.83492 -1.73395,13.52757zM2923.17668,686.12889c-1.83028,1.08716 -6.30278,0.64679 -9.46793,-3.83946c-2.13304,-3.77066 -1.85781,-7.59636 -0.3578,-8.7248c2.24313,-1.34863 5.71103,0.46789 8.38077,3.52295c2.3257,2.7523 3.38533,7.61012 1.44496,9.04132zM2919.54364,669.65635c-3.37157,-2.17432 -3.97708,-7.10094 -1.36239,-11.00922c2.61469,-3.90827 7.47251,-5.31195 10.84408,-3.13763c3.37157,2.17432 3.97708,7.10094 1.36239,11.00922c-2.62845,3.90827 -7.48627,5.31195 -10.84408,3.13763zM2933.60792,693.80781c-4.04589,0.16514 -8.0092,-3.26148 -7.95416,-4.44497c-0.05505,-1.74771 4.92662,-3.1101 8.16058,-3.02753c3.26148,-0.13762 7.65141,1.03211 7.66517,2.60093c0.06881,1.51377 -3.96332,4.94039 -7.87159,4.87158zM2941.71345,676.61967c0.02752,4.08717 -3.60552,7.4037 -8.09177,7.43122c-4.48626,0.02752 -8.14682,-3.27524 -8.17434,-7.34865v-0.08257c-0.02752,-4.08717 3.60552,-7.4037 8.09177,-7.43122c4.48626,-0.02752 8.14682,3.27524 8.17434,7.34865zM2953.02542,682.49584c-3.48166,4.76149 -8.20187,4.94039 -9.94958,3.61928c-1.83028,-1.70643 -0.44037,-7.00461 2.07799,-9.90829c2.87616,-3.20643 5.95874,-5.29819 8.10554,-3.66056c1.44496,1.41744 2.29817,6.75691 -0.23395,9.94958zM2956.17681,672.42241c-2.95873,1.29358 -5.36699,-14.49088 -1.73395,-13.52757c6.04131,3.3991 4.99543,10.95417 1.73395,13.52757z" className="SFSymbolsPreviewWireframe"/></g>
  <g id="Regular-S"><path d="M1473.0346,657.54621l-0.50918,-0.8945c0.01376,-6.38535 -2.94497,-8.98627 -6.39911,-10.96793c1.04588,-0.27523 2.11927,-0.49541 2.42203,-1.81652c1.80276,-0.45413 2.17432,-1.29358 2.35322,-2.17432c0.46789,-0.31651 2.03671,-1.19725 1.87157,-2.71102c0.88074,-0.60551 1.37615,-1.38991 1.11468,-2.49084c0.94954,-1.03211 1.19725,-1.88533 0.79817,-2.66973c1.14221,-1.41744 0.63303,-2.1468 0.15138,-2.87616c0.85321,-1.54129 0.09633,-3.19267 -2.28441,-2.91744c-0.94954,-1.38991 -3.01377,-1.0734 -3.33029,-1.0734c-0.3578,-0.44037 -0.82569,-0.82569 -2.27065,-0.64679c-0.93578,-0.83945 -1.98166,-0.68808 -3.06882,-0.28899c-1.27982,-1.00459 -2.13304,-0.19266 -3.1101,0.11009c-1.55505,-0.49541 -1.91285,0.1789 -2.66973,0.46789c-1.69267,-0.3578 -2.2156,0.41285 -3.02753,1.22478l-0.94954,-0.01376c-2.55964,1.48624 -3.8257,4.51378 -4.27983,6.06883c-0.45413,-1.55505 -1.72019,-4.58259 -4.27983,-6.06883l-0.94954,0.01376c-0.81193,-0.81193 -1.33487,-1.58257 -3.02753,-1.22478c-0.77065,-0.27523 -1.11468,-0.96331 -2.66973,-0.46789c-0.63303,-0.19266 -1.22478,-0.60551 -1.91285,-0.59175c-0.3578,0.01376 -0.75688,0.13762 -1.19725,0.48165c-1.08716,-0.41285 -2.13304,-0.55046 -3.06882,0.28899c-1.44496,-0.1789 -1.92661,0.19266 -2.27065,0.64679c-0.31651,0 -2.38074,-0.31651 -3.33029,1.0734c-2.38074,-0.27523 -3.12387,1.37615 -2.27065,2.91744c-0.48165,0.74312 -0.99083,1.47248 0.15138,2.87616c-0.39908,0.78441 -0.15138,1.63762 0.79817,2.66973c-0.24771,1.10092 0.24771,1.88533 1.11468,2.49084c-0.16514,1.51377 1.40368,2.3945 1.87157,2.71102c0.1789,0.88074 0.55046,1.70643 2.35322,2.17432c0.30275,1.30734 1.37615,1.54129 2.42203,1.81652c-3.45414,1.98166 -6.41287,4.58259 -6.39911,10.96793l-0.50918,0.8945c-3.96332,2.36698 -7.52755,10.00463 -1.95414,16.19731c0.3578,1.94037 0.97707,3.33029 1.51377,4.87158c0.81193,6.22021 6.12388,9.12389 7.51379,9.46793c2.05047,1.54129 4.23855,3.00001 7.18351,4.01836c2.79359,2.83487 5.82112,3.90827 8.84866,3.90827h0.13762c3.0413,0 6.05507,-1.0734 8.8349,-3.90827c2.95873,-1.01835 5.13305,-2.47707 7.18351,-4.01836c1.40368,-0.34404 6.70186,-3.24772 7.51379,-9.46793c0.5367,-1.54129 1.15597,-2.9312 1.51377,-4.87158c5.58718,-6.20645 2.02294,-13.83033 -1.92661,-16.19731zM1469.97955,656.44529c-0.20642,2.5734 -13.61014,-8.95875 -11.29821,-9.34407c6.28901,-1.03211 11.50463,2.64221 11.29821,9.34407zM1464.06209,669.25726c-3.37157,2.17432 -8.22939,0.77065 -10.84408,-3.13763c-2.61469,-3.90827 -2.00918,-8.8349 1.36239,-11.00922c3.37157,-2.17432 8.22939,-0.77065 10.84408,3.13763c2.61469,3.90827 2.00918,8.8349 -1.36239,11.00922zM1454.71802,629.5828c0.11009,0.57798 0.24771,0.93578 0.39908,1.04588c0.74312,-0.79817 1.34863,-1.6101 2.31194,-2.38074c0,0.45413 -0.23395,0.93578 0.34404,1.29358c0.50918,-0.68808 1.21101,-1.30734 2.13304,-1.83028c-0.44037,0.77065 -0.08257,1.00459 0.16514,1.32111c0.70184,-0.60551 1.37615,-1.21101 2.66973,-1.69267c-0.3578,0.42661 -0.85321,0.85321 -0.33028,1.34863c0.72936,-0.45413 1.45872,-0.90826 3.17891,-1.22478c-0.38532,0.42661 -1.19725,0.86698 -0.70184,1.29358c0.90826,-0.34404 1.92661,-0.60551 3.0413,-0.74312c-0.5367,0.44037 -0.97707,0.86698 -0.5367,1.21101c0.97707,-0.30275 2.3257,-0.70184 3.63304,-0.3578l-0.82569,0.83945c-0.09633,0.11009 1.94037,0.08257 3.289,0.11009c-0.49541,0.68808 -0.99083,1.33487 -1.27982,2.5046c0.13762,0.13762 0.79817,0.05505 1.4312,0c-0.64679,1.36239 -1.76147,1.69267 -2.02294,2.28441c0.39908,0.30275 0.93578,0.22018 1.54129,0.01376c-0.46789,0.94954 -1.4312,1.6101 -2.20184,2.38074c0.19266,0.13762 0.5367,0.22018 1.33487,0.12385c-0.7156,0.75688 -1.56881,1.44496 -2.58717,2.06423c0.1789,0.20642 0.79817,0.20642 1.37615,0.22018c-0.92202,0.8945 -2.10551,1.36239 -3.2202,1.95414c0.55046,0.37156 0.94954,0.28899 1.37615,0.28899c-0.78441,0.64679 -2.11927,0.97707 -3.35781,1.37615c0.23395,0.37156 0.46789,0.46789 0.97707,0.56422c-1.30734,0.72936 -3.19267,0.39908 -3.71561,0.77065c0.12385,0.37156 0.49541,0.60551 0.92202,0.79817c-2.11927,0.12385 -7.88535,-0.08257 -9.00003,-4.44497c2.16056,-2.38074 6.11012,-5.16057 12.89454,-8.61471c-5.28442,1.76147 -10.04591,4.12846 -14.03675,7.36241c-4.7202,-2.18808 -1.48624,-7.69269 0.79817,-9.88077zM1449.98406,645.3535c3.33029,-0.04128 7.44498,2.44955 7.43122,4.77525c-0.01376,2.06423 -2.88992,3.72937 -7.4037,3.70185c-4.41745,-0.05505 -7.38994,-2.09175 -7.37617,-4.10093c0,-1.63762 3.60552,-4.47249 7.34865,-4.37616zM1433.05739,643.59203c0.50918,-0.09633 0.74312,-0.20642 0.97707,-0.56422c-1.23854,-0.38532 -2.5734,-0.72936 -3.35781,-1.37615c0.42661,0 0.82569,0.09633 1.37615,-0.28899c-1.11468,-0.59175 -2.29817,-1.05964 -3.2202,-1.95414c0.57798,-0.01376 1.19725,0 1.37615,-0.22018c-1.01835,-0.61927 -1.87157,-1.30734 -2.58717,-2.06423c0.79817,0.09633 1.14221,0.01376 1.33487,-0.12385c-0.77065,-0.77065 -1.74771,-1.4312 -2.20184,-2.38074c0.59175,0.20642 1.14221,0.27523 1.54129,-0.01376c-0.26147,-0.57798 -1.37615,-0.92202 -2.02294,-2.28441c0.63303,0.05505 1.29358,0.13762 1.4312,0c-0.28899,-1.16973 -0.79817,-1.83028 -1.27982,-2.5046c1.34863,-0.01376 3.38533,0 3.289,-0.11009l-0.82569,-0.83945c1.30734,-0.34404 2.65597,0.05505 3.63304,0.3578c0.44037,-0.34404 -0.01376,-0.77065 -0.5367,-1.21101c1.11468,0.15138 2.11927,0.39908 3.0413,0.74312c0.48165,-0.42661 -0.31651,-0.86698 -0.70184,-1.29358c1.72019,0.31651 2.44955,0.77065 3.17891,1.22478c0.52294,-0.49541 0.02752,-0.92202 -0.33028,-1.34863c1.29358,0.46789 1.9679,1.08716 2.66973,1.69267c0.23395,-0.31651 0.60551,-0.55046 0.16514,-1.32111c0.92202,0.52294 1.62386,1.14221 2.13304,1.83028c0.56422,-0.3578 0.34404,-0.85321 0.34404,-1.29358c0.96331,0.77065 1.56881,1.58257 2.31194,2.38074c0.15138,-0.11009 0.27523,-0.46789 0.39908,-1.04588c2.28441,2.18808 5.51837,7.69269 0.82569,9.88077c-3.99084,-3.23396 -8.75233,-5.60094 -14.03675,-7.36241c6.78443,3.44038 10.73399,6.23397 12.89454,8.61471c-1.10092,4.37616 -6.88076,4.56882 -9.00003,4.44497c0.42661,-0.19266 0.79817,-0.44037 0.92202,-0.79817c-0.55046,-0.38532 -2.42203,-0.05505 -3.74313,-0.77065zM1441.32806,646.90855c2.31194,0.38532 -11.09179,11.90372 -11.29821,9.34407c-0.20642,-6.70186 5.02295,-10.38995 11.29821,-9.34407zM1427.09865,672.61507c-3.26148,-2.58717 -4.30736,-10.14224 1.73395,-13.52757c3.6468,-0.96331 1.23854,14.83492 -1.73395,13.52757zM1439.62163,686.12889c-1.83028,1.08716 -6.30278,0.64679 -9.46793,-3.83946c-2.13304,-3.77066 -1.85781,-7.59636 -0.3578,-8.7248c2.24313,-1.34863 5.71103,0.46789 8.38077,3.52295c2.3257,2.7523 3.38533,7.61012 1.44496,9.04132zM1435.98859,669.65635c-3.37157,-2.17432 -3.97708,-7.10094 -1.36239,-11.00922c2.61469,-3.90827 7.47251,-5.31195 10.84408,-3.13763c3.37157,2.17432 3.97708,7.10094 1.36239,11.00922c-2.62845,3.90827 -7.48627,5.31195 -10.84408,3.13763zM1450.05287,693.80781c-4.04589,0.16514 -8.0092,-3.26148 -7.95416,-4.44497c-0.05505,-1.74771 4.92662,-3.1101 8.16058,-3.02753c3.26148,-0.13762 7.65141,1.03211 7.66517,2.60093c0.06881,1.51377 -3.96332,4.94039 -7.87159,4.87158zM1458.1584,676.61967c0.02752,4.08717 -3.60552,7.4037 -8.09177,7.43122c-4.48626,0.02752 -8.14682,-3.27524 -8.17434,-7.34865v-0.08257c-0.02752,-4.08717 3.60552,-7.4037 8.09177,-7.43122c4.48626,-0.02752 8.14682,3.27524 8.17434,7.34865zM1469.47037,682.49584c-3.48166,4.76149 -8.20187,4.94039 -9.94958,3.61928c-1.83028,-1.70643 -0.44037,-7.00461 2.07799,-9.90829c2.87616,-3.20643 5.95874,-5.29819 8.10554,-3.66056c1.44496,1.41744 2.29817,6.75691 -0.23395,9.94958zM1472.62176,672.42241c-2.95873,1.29358 -5.36699,-14.49088 -1.73395,-13.52757c6.04131,3.3991 4.99543,10.95417 1.73395,13.52757z" className="SFSymbolsPreviewWireframe"/></g>
  <g id="Ultralight-S"><path d="M582.90101,657.54621l-0.50918,-0.8945c0.01376,-6.38535 -2.94497,-8.98627 -6.39911,-10.96793c1.04588,-0.27523 2.11927,-0.49541 2.42203,-1.81652c1.80276,-0.45413 2.17432,-1.29358 2.35322,-2.17432c0.46789,-0.31651 2.03671,-1.19725 1.87157,-2.71102c0.88074,-0.60551 1.37615,-1.38991 1.11468,-2.49084c0.94954,-1.03211 1.19725,-1.88533 0.79817,-2.66973c1.14221,-1.41744 0.63303,-2.1468 0.15138,-2.87616c0.85321,-1.54129 0.09633,-3.19267 -2.28441,-2.91744c-0.94954,-1.38991 -3.01377,-1.0734 -3.33029,-1.0734c-0.3578,-0.44037 -0.82569,-0.82569 -2.27065,-0.64679c-0.93578,-0.83945 -1.98166,-0.68808 -3.06882,-0.28899c-1.27982,-1.00459 -2.13304,-0.19266 -3.1101,0.11009c-1.55505,-0.49541 -1.91285,0.1789 -2.66973,0.46789c-1.69267,-0.3578 -2.2156,0.41285 -3.02753,1.22478l-0.94954,-0.01376c-2.55964,1.48624 -3.8257,4.51378 -4.27983,6.06883c-0.45413,-1.55505 -1.72019,-4.58259 -4.27983,-6.06883l-0.94954,0.01376c-0.81193,-0.81193 -1.33487,-1.58257 -3.02753,-1.22478c-0.77065,-0.27523 -1.11468,-0.96331 -2.66973,-0.46789c-0.63303,-0.19266 -1.22478,-0.60551 -1.91285,-0.59175c-0.3578,0.01376 -0.75688,0.13762 -1.19725,0.48165c-1.08716,-0.41285 -2.13304,-0.55046 -3.06882,0.28899c-1.44496,-0.1789 -1.92661,0.19266 -2.27065,0.64679c-0.31651,0 -2.38074,-0.31651 -3.33029,1.0734c-2.38074,-0.27523 -3.12387,1.37615 -2.27065,2.91744c-0.48165,0.74312 -0.99083,1.47248 0.15138,2.87616c-0.39908,0.78441 -0.15138,1.63762 0.79817,2.66973c-0.24771,1.10092 0.24771,1.88533 1.11468,2.49084c-0.16514,1.51377 1.40368,2.3945 1.87157,2.71102c0.1789,0.88074 0.55046,1.70643 2.35322,2.17432c0.30275,1.30734 1.37615,1.54129 2.42203,1.81652c-3.45414,1.98166 -6.41287,4.58259 -6.39911,10.96793l-0.50918,0.8945c-3.96332,2.36698 -7.52755,10.00463 -1.95414,16.19731c0.3578,1.94037 0.97707,3.33029 1.51377,4.87158c0.81193,6.22021 6.12388,9.12389 7.51379,9.46793c2.05047,1.54129 4.23855,3.00001 7.18351,4.01836c2.79359,2.83487 5.82112,3.90827 8.84866,3.90827h0.13762c3.0413,0 6.05507,-1.0734 8.8349,-3.90827c2.95873,-1.01835 5.13305,-2.47707 7.18351,-4.01836c1.40368,-0.34404 6.70186,-3.24772 7.51379,-9.46793c0.5367,-1.54129 1.15597,-2.9312 1.51377,-4.87158c5.58718,-6.20645 2.02294,-13.83033 -1.92661,-16.19731zM579.84596,656.44529c-0.20642,2.5734 -13.61014,-8.95875 -11.29821,-9.34407c6.28901,-1.03211 11.50463,2.64221 11.29821,9.34407zM573.9285,669.25726c-3.37157,2.17432 -8.22939,0.77065 -10.84408,-3.13763c-2.61469,-3.90827 -2.00918,-8.8349 1.36239,-11.00922c3.37157,-2.17432 8.22939,-0.77065 10.84408,3.13763c2.61469,3.90827 2.00918,8.8349 -1.36239,11.00922zM564.58443,629.5828c0.11009,0.57798 0.24771,0.93578 0.39908,1.04588c0.74312,-0.79817 1.34863,-1.6101 2.31194,-2.38074c0,0.45413 -0.23395,0.93578 0.34404,1.29358c0.50918,-0.68808 1.21101,-1.30734 2.13304,-1.83028c-0.44037,0.77065 -0.08257,1.00459 0.16514,1.32111c0.70184,-0.60551 1.37615,-1.21101 2.66973,-1.69267c-0.3578,0.42661 -0.85321,0.85321 -0.33028,1.34863c0.72936,-0.45413 1.45872,-0.90826 3.17891,-1.22478c-0.38532,0.42661 -1.19725,0.86698 -0.70184,1.29358c0.90826,-0.34404 1.92661,-0.60551 3.0413,-0.74312c-0.5367,0.44037 -0.97707,0.86698 -0.5367,1.21101c0.97707,-0.30275 2.3257,-0.70184 3.63304,-0.3578l-0.82569,0.83945c-0.09633,0.11009 1.94037,0.08257 3.289,0.11009c-0.49541,0.68808 -0.99083,1.33487 -1.27982,2.5046c0.13762,0.13762 0.79817,0.05505 1.4312,0c-0.64679,1.36239 -1.76147,1.69267 -2.02294,2.28441c0.39908,0.30275 0.93578,0.22018 1.54129,0.01376c-0.46789,0.94954 -1.4312,1.6101 -2.20184,2.38074c0.19266,0.13762 0.5367,0.22018 1.33487,0.12385c-0.7156,0.75688 -1.56881,1.44496 -2.58717,2.06423c0.1789,0.20642 0.79817,0.20642 1.37615,0.22018c-0.92202,0.8945 -2.10551,1.36239 -3.2202,1.95414c0.55046,0.37156 0.94954,0.28899 1.37615,0.28899c-0.78441,0.64679 -2.11927,0.97707 -3.35781,1.37615c0.23395,0.37156 0.46789,0.46789 0.97707,0.56422c-1.30734,0.72936 -3.19267,0.39908 -3.71561,0.77065c0.12385,0.37156 0.49541,0.60551 0.92202,0.79817c-2.11927,0.12385 -7.88535,-0.08257 -9.00003,-4.44497c2.16056,-2.38074 6.11012,-5.16057 12.89454,-8.61471c-5.28442,1.76147 -10.04591,4.12846 -14.03675,7.36241c-4.7202,-2.18808 -1.48624,-7.69269 0.79817,-9.88077zM559.85047,645.3535c3.33029,-0.04128 7.44498,2.44955 7.43122,4.77525c-0.01376,2.06423 -2.88992,3.72937 -7.4037,3.70185c-4.41745,-0.05505 -7.38994,-2.09175 -7.37617,-4.10093c0,-1.63762 3.60552,-4.47249 7.34865,-4.37616zM542.9238,643.59203c0.50918,-0.09633 0.74312,-0.20642 0.97707,-0.56422c-1.23854,-0.38532 -2.5734,-0.72936 -3.35781,-1.37615c0.42661,0 0.82569,0.09633 1.37615,-0.28899c-1.11468,-0.59175 -2.29817,-1.05964 -3.2202,-1.95414c0.57798,-0.01376 1.19725,0 1.37615,-0.22018c-1.01835,-0.61927 -1.87157,-1.30734 -2.58717,-2.06423c0.79817,0.09633 1.14221,0.01376 1.33487,-0.12385c-0.77065,-0.77065 -1.74771,-1.4312 -2.20184,-2.38074c0.59175,0.20642 1.14221,0.27523 1.54129,-0.01376c-0.26147,-0.57798 -1.37615,-0.92202 -2.02294,-2.28441c0.63303,0.05505 1.29358,0.13762 1.4312,0c-0.28899,-1.16973 -0.79817,-1.83028 -1.27982,-2.5046c1.34863,-0.01376 3.38533,0 3.289,-0.11009l-0.82569,-0.83945c1.30734,-0.34404 2.65597,0.05505 3.63304,0.3578c0.44037,-0.34404 -0.01376,-0.77065 -0.5367,-1.21101c1.11468,0.15138 2.11927,0.39908 3.0413,0.74312c0.48165,-0.42661 -0.31651,-0.86698 -0.70184,-1.29358c1.72019,0.31651 2.44955,0.77065 3.17891,1.22478c0.52294,-0.49541 0.02752,-0.92202 -0.33028,-1.34863c1.29358,0.46789 1.9679,1.08716 2.66973,1.69267c0.23395,-0.31651 0.60551,-0.55046 0.16514,-1.32111c0.92202,0.52294 1.62386,1.14221 2.13304,1.83028c0.56422,-0.3578 0.34404,-0.85321 0.34404,-1.29358c0.96331,0.77065 1.56881,1.58257 2.31194,2.38074c0.15138,-0.11009 0.27523,-0.46789 0.39908,-1.04588c2.28441,2.18808 5.51837,7.69269 0.82569,9.88077c-3.99084,-3.23396 -8.75233,-5.60094 -14.03675,-7.36241c6.78443,3.44038 10.73399,6.23397 12.89454,8.61471c-1.10092,4.37616 -6.88076,4.56882 -9.00003,4.44497c0.42661,-0.19266 0.79817,-0.44037 0.92202,-0.79817c-0.55046,-0.38532 -2.42203,-0.05505 -3.74313,-0.77065zM551.19447,646.90855c2.31194,0.38532 -11.09179,11.90372 -11.29821,9.34407c-0.20642,-6.70186 5.02295,-10.38995 11.29821,-9.34407zM536.96506,672.61507c-3.26148,-2.58717 -4.30736,-10.14224 1.73395,-13.52757c3.6468,-0.96331 1.23854,14.83492 -1.73395,13.52757zM549.48804,686.12889c-1.83028,1.08716 -6.30278,0.64679 -9.46793,-3.83946c-2.13304,-3.77066 -1.85781,-7.59636 -0.3578,-8.7248c2.24313,-1.34863 5.71103,0.46789 8.38077,3.52295c2.3257,2.7523 3.38533,7.61012 1.44496,9.04132zM545.855,669.65635c-3.37157,-2.17432 -3.97708,-7.10094 -1.36239,-11.00922c2.61469,-3.90827 7.47251,-5.31195 10.84408,-3.13763c3.37157,2.17432 3.97708,7.10094 1.36239,11.00922c-2.62845,3.90827 -7.48627,5.31195 -10.84408,3.13763zM559.91928,693.80781c-4.04589,0.16514 -8.0092,-3.26148 -7.95416,-4.44497c-0.05505,-1.74771 4.92662,-3.1101 8.16058,-3.02753c3.26148,-0.13762 7.65141,1.03211 7.66517,2.60093c0.06881,1.51377 -3.96332,4.94039 -7.87159,4.87158zM568.02481,676.61967c0.02752,4.08717 -3.60552,7.4037 -8.09177,7.43122c-4.48626,0.02752 -8.14682,-3.27524 -8.17434,-7.34865v-0.08257c-0.02752,-4.08717 3.60552,-7.4037 8.09177,-7.43122c4.48626,-0.02752 8.14682,3.27524 8.17434,7.34865zM579.33678,682.49584c-3.48166,4.76149 -8.20187,4.94039 -9.94958,3.61928c-1.83028,-1.70643 -0.44037,-7.00461 2.07799,-9.90829c2.87616,-3.20643 5.95874,-5.29819 8.10554,-3.66056c1.44496,1.41744 2.29817,6.75691 -0.23395,9.94958zM582.48817,672.42241c-2.95873,1.29358 -5.36699,-14.49088 -1.73395,-13.52757c6.04131,3.3991 4.99543,10.95417 1.73395,13.52757z" className="SFSymbolsPreviewWireframe"/></g>
 </g>
</svg>