<?xml version="1.0" encoding="UTF-8"?><!--Generator: https://SymbolKit.app--><!DOCTYPE svg PUBLIC "-//W3C//DTD SVG 1.1//EN" "http://www.w3.org/Graphics/SVG/1.1/DTD/svg11.dtd"><svg xmlns="http://www.w3.org/2000/svg" xmlns:xlink="http://www.w3.org/1999/xlink" version="1.1" viewBox="0 0 3300 2200">
 <!--glyph: "100092", point size: 100.0, font version: "20.0d10e1", template writer version: "138.0.0"-->
 <style>.SFSymbolsPreviewWireframe {fill:none;opacity:1.0;stroke:black;stroke-width:0.5}
</style>
 <g id="Notes">
  <rect height="2200" id="artboard" style="fill:white;opacity:1" width="3300" x="0" y="0"/>
  <line style="fill:none;stroke:black;opacity:1;stroke-width:0.5;" x1="263" x2="3036" y1="292" y2="292"/>
  <text style="stroke:none;fill:black;font-family:sans-serif;font-size:13;font-weight:bold;" transform="matrix(1 0 0 1 263 322)">Weight/Scale Variations</text>
  <text style="stroke:none;fill:black;font-family:sans-serif;font-size:13;text-anchor:middle;" transform="matrix(1 0 0 1 559.711 322)">Ultralight</text>
  <text style="stroke:none;fill:black;font-family:sans-serif;font-size:13;text-anchor:middle;" transform="matrix(1 0 0 1 856.422 322)">Thin</text>
  <text style="stroke:none;fill:black;font-family:sans-serif;font-size:13;text-anchor:middle;" transform="matrix(1 0 0 1 1153.13 322)">Light</text>
  <text style="stroke:none;fill:black;font-family:sans-serif;font-size:13;text-anchor:middle;" transform="matrix(1 0 0 1 1449.84 322)">Regular</text>
  <text style="stroke:none;fill:black;font-family:sans-serif;font-size:13;text-anchor:middle;" transform="matrix(1 0 0 1 1746.56 322)">Medium</text>
  <text style="stroke:none;fill:black;font-family:sans-serif;font-size:13;text-anchor:middle;" transform="matrix(1 0 0 1 2043.27 322)">Semibold</text>
  <text style="stroke:none;fill:black;font-family:sans-serif;font-size:13;text-anchor:middle;" transform="matrix(1 0 0 1 2339.98 322)">Bold</text>
  <text style="stroke:none;fill:black;font-family:sans-serif;font-size:13;text-anchor:middle;" transform="matrix(1 0 0 1 2636.69 322)">Heavy</text>
  <text style="stroke:none;fill:black;font-family:sans-serif;font-size:13;text-anchor:middle;" transform="matrix(1 0 0 1 2933.4 322)">Black</text>
  <line style="fill:none;stroke:black;opacity:1;stroke-width:0.5;" x1="263" x2="3036" y1="1903" y2="1903"/>
  <g transform="matrix(0.2 0 0 0.2 263 1933)">
   <path d="m46.2402 4.15039c21.7773 0 39.4531-17.627 39.4531-39.4043s-17.6758-39.4043-39.4531-39.4043c-21.7285 0-39.4043 17.627-39.4043 39.4043s17.6758 39.4043 39.4043 39.4043Zm0-7.42188c-17.6758 0-31.9336-14.3066-31.9336-31.9824s14.2578-31.9824 31.9336-31.9824 31.9824 14.3066 31.9824 31.9824-14.3066 31.9824-31.9824 31.9824Zm-17.9688-31.9824c0 2.14844 1.51367 3.61328 3.75977 3.61328h10.498v10.5957c0 2.19727 1.46484 3.71094 3.61328 3.71094 2.24609 0 3.71094-1.51367 3.71094-3.71094v-10.5957h10.5957c2.19727 0 3.71094-1.46484 3.71094-3.61328 0-2.19727-1.51367-3.71094-3.71094-3.71094h-10.5957v-10.5469c0-2.24609-1.46484-3.75977-3.71094-3.75977-2.14844 0-3.61328 1.51367-3.61328 3.75977v10.5469h-10.498c-2.24609 0-3.75977 1.51367-3.75977 3.71094Z"/>
  </g>
  <g transform="matrix(0.2 0 0 0.2 281.506 1933)">
   <path d="m58.5449 14.5508c27.4902 0 49.8047-22.3145 49.8047-49.8047s-22.3145-49.8047-49.8047-49.8047-49.8047 22.3145-49.8047 49.8047 22.3145 49.8047 49.8047 49.8047Zm0-8.30078c-22.9492 0-41.5039-18.5547-41.5039-41.5039s18.5547-41.5039 41.5039-41.5039 41.5039 18.5547 41.5039 41.5039-18.5547 41.5039-41.5039 41.5039Zm-22.6562-41.5039c0 2.39258 1.66016 4.00391 4.15039 4.00391h14.3555v14.4043c0 2.44141 1.66016 4.15039 4.05273 4.15039 2.44141 0 4.15039-1.66016 4.15039-4.15039v-14.4043h14.4043c2.44141 0 4.15039-1.61133 4.15039-4.00391 0-2.44141-1.70898-4.15039-4.15039-4.15039h-14.4043v-14.3555c0-2.49023-1.70898-4.19922-4.15039-4.19922-2.39258 0-4.05273 1.70898-4.05273 4.19922v14.3555h-14.3555c-2.49023 0-4.15039 1.70898-4.15039 4.15039Z"/>
  </g>
  <g transform="matrix(0.2 0 0 0.2 304.924 1933)">
   <path d="m74.8535 28.3203c35.1074 0 63.623-28.4668 63.623-63.5742s-28.5156-63.623-63.623-63.623-63.5742 28.5156-63.5742 63.623 28.4668 63.5742 63.5742 63.5742Zm0-9.08203c-30.127 0-54.4922-24.3652-54.4922-54.4922s24.3652-54.4922 54.4922-54.4922 54.4922 24.3652 54.4922 54.4922-24.3652 54.4922-54.4922 54.4922Zm-28.8574-54.4922c0 2.58789 1.85547 4.39453 4.58984 4.39453h19.7266v19.7754c0 2.68555 1.85547 4.58984 4.44336 4.58984 2.68555 0 4.54102-1.85547 4.54102-4.58984v-19.7754h19.7754c2.68555 0 4.58984-1.80664 4.58984-4.39453 0-2.73438-1.85547-4.58984-4.58984-4.58984h-19.7754v-19.7266c0-2.73438-1.85547-4.63867-4.54102-4.63867-2.58789 0-4.44336 1.9043-4.44336 4.63867v19.7266h-19.7266c-2.73438 0-4.58984 1.85547-4.58984 4.58984Z"/>
  </g>
  <text style="stroke:none;fill:black;font-family:sans-serif;font-size:13;font-weight:bold;" transform="matrix(1 0 0 1 263 1953)">Design Variations</text>
  <text style="stroke:none;fill:black;font-family:sans-serif;font-size:13;" transform="matrix(1 0 0 1 263 1971)">Symbols are supported in up to nine weights and three scales.</text>
  <text style="stroke:none;fill:black;font-family:sans-serif;font-size:13;" transform="matrix(1 0 0 1 263 1989)">For optimal layout with text and other symbols, vertically align</text>
  <text style="stroke:none;fill:black;font-family:sans-serif;font-size:13;" transform="matrix(1 0 0 1 263 2007)">symbols with the adjacent text.</text>
  <line style="fill:none;stroke:#00AEEF;stroke-width:0.5;opacity:1.0;" x1="776" x2="776" y1="1919" y2="1933"/>
  <g transform="matrix(0.2 0 0 0.2 776 1933)">
   <path d="m16.5527 0.78125c2.58789 0 3.85742-0.976562 4.78516-3.71094l6.29883-17.2363h28.8086l6.29883 17.2363c0.927734 2.73438 2.19727 3.71094 4.73633 3.71094 2.58789 0 4.24805-1.5625 4.24805-4.00391 0-0.830078-0.146484-1.61133-0.537109-2.63672l-22.9004-60.9863c-1.12305-2.97852-3.125-4.49219-6.25-4.49219-3.02734 0-5.07812 1.46484-6.15234 4.44336l-22.9004 61.084c-0.390625 1.02539-0.537109 1.80664-0.537109 2.63672 0 2.44141 1.5625 3.95508 4.10156 3.95508Zm13.4766-28.3691 11.8652-32.8613h0.244141l11.8652 32.8613Z"/>
  </g>
  <line style="fill:none;stroke:#00AEEF;stroke-width:0.5;opacity:1.0;" x1="792.836" x2="792.836" y1="1919" y2="1933"/>
  <text style="stroke:none;fill:black;font-family:sans-serif;font-size:13;font-weight:bold;" transform="matrix(1 0 0 1 776 1953)">Margins</text>
  <text style="stroke:none;fill:black;font-family:sans-serif;font-size:13;" transform="matrix(1 0 0 1 776 1971)">Leading and trailing margins on the left and right side of each symbol</text>
  <text style="stroke:none;fill:black;font-family:sans-serif;font-size:13;" transform="matrix(1 0 0 1 776 1989)">can be adjusted by modifying the x-location of the margin guidelines.</text>
  <text style="stroke:none;fill:black;font-family:sans-serif;font-size:13;" transform="matrix(1 0 0 1 776 2007)">Modifications are automatically applied proportionally to all</text>
  <text style="stroke:none;fill:black;font-family:sans-serif;font-size:13;" transform="matrix(1 0 0 1 776 2025)">scales and weights.</text>
  <g transform="matrix(0.2 0 0 0.2 1289 1933)">
   <path d="m14.209 9.32617 8.49609 8.54492c4.29688 4.3457 9.22852 4.05273 13.8672-1.07422l53.4668-58.9355-4.83398-4.88281-53.0762 58.3984c-1.75781 2.00195-3.41797 2.49023-5.76172 0.146484l-5.85938-5.81055c-2.34375-2.29492-1.80664-4.00391 0.195312-5.81055l57.373-54.0039-4.88281-4.83398-57.959 54.4434c-4.93164 4.58984-5.32227 9.47266-1.02539 13.8184Zm32.0801-90.9668c-2.09961 2.05078-2.24609 4.93164-1.07422 6.88477 1.17188 1.80664 3.4668 2.97852 6.68945 2.14844 7.32422-1.70898 14.9414-2.00195 22.0703 2.68555l-2.92969 7.27539c-1.70898 4.15039-0.830078 7.08008 1.85547 9.81445l11.4746 11.5723c2.44141 2.44141 4.49219 2.53906 7.32422 2.05078l5.32227-0.976562 3.32031 3.36914-0.195312 2.7832c-0.195312 2.49023 0.439453 4.39453 2.88086 6.78711l3.80859 3.71094c2.39258 2.39258 5.46875 2.53906 7.8125 0.195312l14.5508-14.5996c2.34375-2.34375 2.24609-5.32227-0.146484-7.71484l-3.85742-3.80859c-2.39258-2.39258-4.24805-3.17383-6.64062-2.97852l-2.88086 0.244141-3.22266-3.17383 1.2207-5.61523c0.634766-2.83203-0.146484-5.0293-3.07617-7.95898l-10.9863-10.9375c-16.6992-16.6016-38.8672-16.2109-53.3203-1.75781Zm7.4707 1.85547c12.1582-8.88672 28.6133-7.37305 39.7461 3.75977l12.1582 12.0605c1.17188 1.17188 1.36719 2.09961 1.02539 3.80859l-1.61133 7.42188 7.51953 7.42188 4.93164-0.292969c1.26953-0.0488281 1.66016 0.0488281 2.63672 1.02539l2.88086 2.88086-12.207 12.207-2.88086-2.88086c-0.976562-0.976562-1.12305-1.36719-1.07422-2.68555l0.341797-4.88281-7.4707-7.42188-7.61719 1.26953c-1.61133 0.341797-2.34375 0.195312-3.56445-0.976562l-10.0098-10.0098c-1.26953-1.17188-1.41602-2.00195-0.634766-3.85742l4.39453-10.4492c-7.8125-7.27539-17.9688-10.4004-28.125-7.42188-0.78125 0.195312-1.07422-0.439453-0.439453-0.976562Z"/>
  </g>
  <text style="stroke:none;fill:black;font-family:sans-serif;font-size:13;font-weight:bold;" transform="matrix(1 0 0 1 1289 1953)">Exporting</text>
  <text style="stroke:none;fill:black;font-family:sans-serif;font-size:13;" transform="matrix(1 0 0 1 1289 1971)">Symbols should be outlined when exporting to ensure the</text>
  <text style="stroke:none;fill:black;font-family:sans-serif;font-size:13;" transform="matrix(1 0 0 1 1289 1989)">design is preserved when submitting to Xcode.</text>
  <text id="template-version" style="stroke:none;fill:black;font-family:sans-serif;font-size:13;text-anchor:end;" transform="matrix(1 0 0 1 3036 1933)">Template v.6.0</text>
  <text style="stroke:none;fill:black;font-family:sans-serif;font-size:13;text-anchor:end;" transform="matrix(1 0 0 1 3036 1951)">Requires Xcode 16 or greater</text>
  <text id="descriptive-name" style="stroke:none;fill:black;font-family:sans-serif;font-size:13;text-anchor:end;" transform="matrix(1 0 0 1 3036 1969)">Generated from square</text>
  <text style="stroke:none;fill:black;font-family:sans-serif;font-size:13;text-anchor:end;" transform="matrix(1 0 0 1 3036 1987)">Typeset at 100.0 points</text>
  <text style="stroke:none;fill:black;font-family:sans-serif;font-size:13;" transform="matrix(1 0 0 1 263 726)">Small</text>
  <text style="stroke:none;fill:black;font-family:sans-serif;font-size:13;" transform="matrix(1 0 0 1 263 1156)">Medium</text>
  <text style="stroke:none;fill:black;font-family:sans-serif;font-size:13;" transform="matrix(1 0 0 1 263 1586)">Large</text>
 </g>
 <g id="Guides">
  <g id="H-reference" style="fill:#27AAE1;stroke:none;" transform="matrix(1 0 0 1 339 696)">
   <path d="M0.993654 0L3.63775 0L29.3281-67.1323L30.0303-67.1323L30.0303-70.459L28.1226-70.459ZM11.6885-24.4799L46.9815-24.4799L46.2315-26.7285L12.4385-26.7285ZM55.1196 0L57.7637 0L30.6382-70.459L29.4326-70.459L29.4326-67.1323Z"/>
  </g>
  <line id="Baseline-S" style="fill:none;stroke:#27AAE1;opacity:1;stroke-width:0.5;" x1="263" x2="3036" y1="696" y2="696"/>
  <line id="Capline-S" style="fill:none;stroke:#27AAE1;opacity:1;stroke-width:0.5;" x1="263" x2="3036" y1="625.541" y2="625.541"/>
  <g id="H-reference" style="fill:#27AAE1;stroke:none;" transform="matrix(1 0 0 1 339 1126)">
   <path d="M0.993654 0L3.63775 0L29.3281-67.1323L30.0303-67.1323L30.0303-70.459L28.1226-70.459ZM11.6885-24.4799L46.9815-24.4799L46.2315-26.7285L12.4385-26.7285ZM55.1196 0L57.7637 0L30.6382-70.459L29.4326-70.459L29.4326-67.1323Z"/>
  </g>
  <line id="Baseline-M" style="fill:none;stroke:#27AAE1;opacity:1;stroke-width:0.5;" x1="263" x2="3036" y1="1126" y2="1126"/>
  <line id="Capline-M" style="fill:none;stroke:#27AAE1;opacity:1;stroke-width:0.5;" x1="263" x2="3036" y1="1055.54" y2="1055.54"/>
  <g id="H-reference" style="fill:#27AAE1;stroke:none;" transform="matrix(1 0 0 1 339 1556)">
   <path d="M0.993654 0L3.63775 0L29.3281-67.1323L30.0303-67.1323L30.0303-70.459L28.1226-70.459ZM11.6885-24.4799L46.9815-24.4799L46.2315-26.7285L12.4385-26.7285ZM55.1196 0L57.7637 0L30.6382-70.459L29.4326-70.459L29.4326-67.1323Z"/>
  </g>
  <line id="Baseline-L" style="fill:none;stroke:#27AAE1;opacity:1;stroke-width:0.5;" x1="263" x2="3036" y1="1556" y2="1556"/>
  <line id="Capline-L" style="fill:none;stroke:#27AAE1;opacity:1;stroke-width:0.5;" x1="263" x2="3036" y1="1485.54" y2="1485.54"/>
  <line id="right-margin-Black-S" style="fill:none;stroke:#00AEEF;stroke-width:0.5;opacity:1.0;" x1="2981.3" x2="2981.3" y1="600.785" y2="720.121"/>
  <line id="left-margin-Black-S" style="fill:none;stroke:#00AEEF;stroke-width:0.5;opacity:1.0;" x1="2885.5" x2="2885.5" y1="600.785" y2="720.121"/>
  <line id="right-margin-Regular-S" style="fill:none;stroke:#00AEEF;stroke-width:0.5;opacity:1.0;" x1="1495.18" x2="1495.18" y1="600.785" y2="720.121"/>
  <line id="left-margin-Regular-S" style="fill:none;stroke:#00AEEF;stroke-width:0.5;opacity:1.0;" x1="1404.51" x2="1404.51" y1="600.785" y2="720.121"/>
  <line id="right-margin-Ultralight-S" style="fill:none;stroke:#00AEEF;stroke-width:0.5;opacity:1.0;" x1="603.073" x2="603.073" y1="600.785" y2="720.121"/>
  <line id="left-margin-Ultralight-S" style="fill:none;stroke:#00AEEF;stroke-width:0.5;opacity:1.0;" x1="516.35" x2="516.35" y1="600.785" y2="720.121"/>
 </g>
 <g id="Symbols">
  <g id="Black-S"><path d="M2928.21126,654.68613l0.79817,-0.56422l0.79817,0.56422l-0.28899,-0.93578l0.78441,-0.59175l-0.97707,-0.01376l-0.31651,-0.93578l-0.31651,0.93578l-0.99083,0.01376l0.78441,0.59175zM2936.97735,654.68613l0.79817,-0.56422l0.79817,0.56422l-0.28899,-0.93578l0.78441,-0.59175l-0.99083,-0.01376l-0.31651,-0.93578l-0.31651,0.93578l-0.99083,0.01376l0.78441,0.59175zM2924.41308,661.6357h-0.46789c-0.66055,0 -0.52294,0.55046 -0.52294,1.66514c0,0.64679 -0.31651,0.83945 -0.79817,0.83945c-0.48165,0 -0.79817,-0.19266 -0.79817,-0.83945v-5.03672c0,-0.64679 0.31651,-0.83945 0.79817,-0.83945c0.48165,0 0.79817,0.19266 0.79817,0.83945c0,0.99083 -0.09633,1.44496 0.52294,1.44496h0.46789c0.64679,-0.01376 0.52294,-0.5367 0.52294,-1.69267c0,-1.36239 -0.92202,-1.94037 -2.31194,-1.94037h-0.02752c-1.38991,0 -2.31194,0.57798 -2.31194,1.94037v5.51287c0,1.4312 0.92202,1.94037 2.31194,1.94037h0.02752c1.38991,0 2.31194,-0.52294 2.31194,-1.94037c0,-1.35689 0.15138,-1.89359 -0.52294,-1.89359zM2913.30753,664.0302h-2.02294v-2.65597h1.56881c0.34404,0 0.52294,-0.1789 0.52294,-0.52294v-0.28899c0,-0.34404 -0.1789,-0.52294 -0.52294,-0.52294h-1.56881v-2.51836h1.98166c0.34404,0 0.52294,-0.1789 0.52294,-0.52294v-0.28899c0,-0.34404 -0.1789,-0.52294 -0.52294,-0.52294h-2.98625c-0.33028,-0.01376 -0.50918,0.1789 -0.50918,0.52294v8.13306c0,0.34404 0.1789,0.52294 0.52294,0.52294h3.01377c0.34404,0 0.52294,-0.1789 0.52294,-0.52294v-0.28899c0,-0.34404 -0.1789,-0.52294 -0.52294,-0.52294zM2907.52769,661.48432c0.63303,-0.27523 1.00459,-0.82569 1.00459,-1.70643v-1.63762c0,-1.38991 -0.92202,-1.94037 -2.31194,-1.94037h-1.84404c-0.34404,0 -0.52294,0.1789 -0.52294,0.52294v8.13306c0,0.34404 0.1789,0.52294 0.52294,0.52294h0.46789c0.34404,0 0.52294,-0.1789 0.52294,-0.52294v-3.15139h0.77065l1.01835,3.23396c0.06071,0.27325 0.31257,0.46068 0.59175,0.44037h0.45413c0.38532,0 0.55046,-0.24771 0.44037,-0.60551zM2907.00475,659.55771c0,0.66055 -0.34404,0.83945 -0.83945,0.83945h-0.79817v-2.87616h0.79817c0.49541,0 0.83945,0.1789 0.83945,0.83945zM2917.94516,656.64852c-0.01456,-0.13871 -0.08365,-0.26594 -0.19205,-0.35369c-0.1084,-0.08775 -0.24723,-0.12883 -0.38593,-0.1142h-0.94954c-0.13531,-0.01217 -0.26983,0.03054 -0.37334,0.11853c-0.10351,0.08798 -0.16733,0.21387 -0.17712,0.34937l-1.51377,8.14682c-0.06881,0.37156 0.12385,0.56422 0.46789,0.56422h0.41285c0.13929,0.01372 0.27816,-0.02988 0.38461,-0.12075c0.10645,-0.09087 0.1713,-0.22118 0.17961,-0.3609l0.24771,-1.55505h1.67891l0.24771,1.55505c0.00831,0.13972 0.07316,0.27003 0.17961,0.3609c0.10645,0.09087 0.24532,0.13447 0.38461,0.12075h0.48165c0.3578,0 0.5367,-0.19266 0.46789,-0.56422zM2916.2525,662.0568l0.64679,-4.08717l0.64679,4.08717zM2928.54153,664.83663v-7.32113h1.03211c0.34404,0 0.52294,-0.1789 0.52294,-0.52294v-0.28899c0,-0.34404 -0.1789,-0.52294 -0.52294,-0.52294h-3.55047c-0.34404,0 -0.52294,0.1789 -0.52294,0.52294v0.28899c0,0.34404 0.1789,0.52294 0.52294,0.52294h1.00459v7.32113c0,0.34404 0.1789,0.52294 0.52294,0.52294h0.46789c0.34404,0.0055 0.52294,-0.1789 0.52294,-0.51743zM2962.6701,664.72654h-2.66973v-3.67433h2.2156c0.07428,0.00446 0.1469,-0.0231 0.19952,-0.07571c0.05261,-0.05261 0.08018,-0.12524 0.07571,-0.19952v-0.11009c0.00446,-0.07428 -0.0231,-0.1469 -0.07571,-0.19952c-0.05261,-0.05261 -0.12524,-0.08018 -0.19952,-0.07571h-2.2156v-3.55047h2.62845c0.07428,0.00446 0.1469,-0.0231 0.19952,-0.07571c0.05261,-0.05261 0.08018,-0.12524 0.07571,-0.19952v-0.11009c0.00608,-0.07353 -0.0215,-0.14585 -0.07499,-0.19666c-0.05349,-0.05081 -0.12713,-0.07465 -0.20024,-0.06481h-3.05506c-0.07206,-0.01818 -0.14844,0.00074 -0.20367,0.05046c-0.05524,0.04971 -0.08207,0.12368 -0.07156,0.19725v8.66976c-0.00405,0.07298 0.02416,0.14405 0.07714,0.19439c0.05299,0.05034 0.12541,0.07487 0.19809,0.06708h3.09634c0.07267,0.00778 0.1451,-0.01674 0.19809,-0.06708c0.05299,-0.05034 0.08119,-0.12141 0.07714,-0.19439v-0.11009c0.00513,-0.07397 -0.02242,-0.14647 -0.07537,-0.19837c-0.05296,-0.0519 -0.126,-0.07798 -0.19986,-0.07135zM2949.85813,656.07054h-0.11009c-1.38991,0 -2.10551,0.64679 -2.10551,1.94037v5.51837c0,1.27982 0.7156,1.94037 2.10551,1.94037h0.11009c1.38991,0 2.10551,-0.66055 2.10551,-1.94037v-5.51837c0,-1.28808 -0.7156,-1.93487 -2.10551,-1.93487zM2951.2618,663.28158c-0.01376,1.10092 -0.41285,1.52753 -1.44496,1.52753c-1.03211,0 -1.44496,-0.42661 -1.44496,-1.52753v-5.03672c0,-1.08716 0.41285,-1.52753 1.44496,-1.52753c1.03211,0 1.44496,0.44037 1.44496,1.52753zM2944.8627,661.28616c0.83945,-0.22018 1.26606,-0.83945 1.26606,-1.83028v-1.33487c0,-1.29358 -0.7156,-1.94037 -2.10551,-1.94037h-1.88533c-0.07267,-0.00778 -0.1451,0.01674 -0.19809,0.06708c-0.05299,0.05034 -0.08119,0.12141 -0.07714,0.19439v8.66976c-0.00405,0.07298 0.02416,0.14405 0.07714,0.19439c0.05299,0.05034 0.12541,0.07487 0.19809,0.06708h0.16514c0.07124,0.00692 0.14184,-0.0184 0.19246,-0.06901c0.05061,-0.05061 0.07593,-0.12121 0.06901,-0.19246v-3.70185h1.59634l1.4312,3.74313c0.04909,0.13056 0.17725,0.21414 0.31651,0.20642h0.20642c0.19266,0 0.27523,-0.13762 0.20642,-0.31651zM2943.98196,660.74946h-1.40368v-3.92203h1.40368c1.03211,0 1.44496,0.42661 1.44496,1.52753v0.88074c0,1.0789 -0.41285,1.51927 -1.44496,1.51927zM2955.80311,656.19439h-1.88533c-0.07206,-0.01818 -0.14844,0.00074 -0.20367,0.05046c-0.05524,0.04971 -0.08207,0.12368 -0.07156,0.19725v8.66976c-0.00405,0.07298 0.02416,0.14405 0.07714,0.19439c0.05299,0.05034 0.12541,0.07487 0.19809,0.06708h0.16514c0.07124,0.00692 0.14184,-0.0184 0.19246,-0.06901c0.05061,-0.05061 0.07593,-0.12121 0.06901,-0.19246v-3.59176h1.45872c1.38991,0 2.10551,-0.66055 2.10551,-1.94037v-1.44496c0,-1.29358 -0.7156,-1.94037 -2.10551,-1.94037zM2957.20678,659.33202c0,1.08716 -0.41285,1.52753 -1.44496,1.52753h-1.40368v-4.01836h1.40368c1.03211,-0.01376 1.44496,0.42661 1.44496,1.51377zM2929.43603,667.93297l-0.31651,-0.93578l-0.31651,0.93578l-0.97707,0.01376l0.78441,0.59175l-0.28899,0.93578l0.79817,-0.56422l0.79817,0.56422l-0.28899,-0.93578l0.78441,-0.59175zM2960.75725,649.20354c-1.60538,-0.60175 -3.24056,-1.12078 -4.8991,-1.55505c2.69726,-10.73399 1.59634,-18.53677 -3.06882,-21.17898c-4.74772,-2.66423 -11.82115,0.59175 -19.01842,7.60186c0.46789,0.45413 0.93578,0.92202 1.40368,1.40368c11.35325,-11.00922 16.45878,-7.36241 16.63768,-7.26608c3.08258,1.74771 4.95415,7.67893 2.13304,18.96338c-3.83212,-0.87845 -7.72318,-1.47637 -11.64225,-1.789c-9.89453,-13.83033 -19.3487,-19.56063 -25.07349,-19.56063c-4.23855,0 -6.02755,2.88992 -6.55048,3.81745c-2.49084,4.40369 -1.83028,11.5872 0.01376,18.41291c-9.70187,2.79359 -16.61016,7.44498 -16.55511,13.07344c0.06881,8.20187 14.20189,12.08261 16.80282,12.77069c-2.82111,11.27069 -1.38991,18.66062 3.06882,21.17898c3.85323,2.17432 10.3349,0.82569 19.01842,-7.59636c-0.46789,-0.45413 -0.93578,-0.92202 -1.40368,-1.40368c-11.35325,11.00922 -16.47254,7.36241 -16.63768,7.26608c-3.06882,-1.73395 -4.95415,-7.65141 -2.13304,-18.97714c1.70643,0.39908 5.75232,1.30734 11.64225,1.789c9.89453,13.81657 19.3487,19.54136 25.05973,19.54136c4.23855,0 6.02755,-2.88992 6.55048,-3.81194c2.47707,-4.38993 1.83028,-11.57344 -0.01376,-18.41291c20.9588,-6.02755 21.49549,-17.9175 4.66516,-24.26156zM2912.42679,630.61723c0.39908,-0.70184 1.63762,-2.79359 4.80277,-2.79359c5.06424,0 13.59638,5.44956 22.47256,17.36704c-4.30541,-0.24232 -8.6221,-0.20094 -12.92207,0.12385c1.7862,-2.5204 3.72564,-4.92863 5.80736,-7.21104c-0.46789,-0.48074 -0.93578,-0.95046 -1.40368,-1.40918c-2.52456,2.78232 -4.8557,5.73418 -6.97709,8.8349c-3.91651,0.37732 -7.79905,1.04894 -11.61472,2.00918c-0.02752,-0.19266 -3.34405,-11.31197 -0.16514,-16.92667zM2954.37191,690.93398c-0.39908,0.70184 -1.62386,2.79359 -4.80277,2.79359c-5.05048,0 -13.58262,-5.42204 -22.47256,-17.36704c4.30523,0.24993 8.62242,0.20855 12.92207,-0.12385c-1.7862,2.5204 -3.72564,4.92863 -5.80736,7.21104c0.46789,0.48165 0.93578,0.94954 1.40368,1.40368c2.52782,-2.77955 4.85915,-5.73165 6.97709,-8.8349c6.5092,-0.64679 11.0505,-1.85781 11.61472,-2.00918c3.12387,11.61472 0.61927,16.10098 0.16514,16.92667zM2955.62421,671.86051c-0.49541,-1.63762 -1.05964,-3.31653 -1.70643,-5.00919c-0.59219,0.00557 -1.14672,-0.28984 -1.47248,-0.78441l-0.01376,0.01376c-0.21847,0.20527 -0.46962,0.3727 -0.74312,0.49541c0.78441,1.9679 1.45872,3.90827 2.02294,5.80736c-3.2581,0.82161 -6.56859,1.41934 -9.90829,1.789c0.48165,-0.72936 2.36698,-3.60552 4.43121,-7.45874c-0.29429,-0.10786 -0.57217,-0.25606 -0.82569,-0.44037c-0.15138,0.16514 -0.49541,0.57798 -1.50001,0.57798c-0.85321,1.54129 -2.3945,4.25231 -4.66516,7.59636c-5.1443,0.45348 -10.3164,0.49949 -15.46795,0.13762c-1.08716,-1.54129 -2.95873,-4.27983 -5.06424,-7.95416c-0.1429,-0.05769 -0.28095,-0.12672 -0.41285,-0.20642c-0.26147,0.22018 -0.5367,0.44037 -1.73395,0.44037c0.86698,1.54129 2.40827,4.22479 4.65139,7.51379c-3.34406,-0.31516 -6.66337,-0.85305 -9.93582,-1.6101c0.5367,-1.92661 1.18349,-3.89451 1.94037,-5.90369c-0.44037,0 -0.74312,0.02752 -1.15597,-0.13762c-0.30415,0.10881 -0.62702,0.1556 -0.94954,0.13762c-0.67431,1.84404 -1.2523,3.6468 -1.74771,5.42204c-22.00467,-5.86791 -19.30741,-17.01474 -0.20642,-22.56889c0.49541,1.63762 1.05964,3.31653 1.70643,5.00919c1.4312,0 1.77524,0.46789 1.98166,0.72936c0.09159,-0.11452 0.19804,-0.21634 0.31651,-0.30275c-0.79817,-2.02294 -1.50001,-4.01836 -2.09175,-5.95874c0.96331,-0.24771 4.45873,-1.15597 9.90829,-1.789c-2.18808,3.34405 -3.67433,6.04131 -4.51378,7.61012c0.42017,0.2448 0.73414,0.63726 0.88074,1.10092c0.34724,-0.51206 0.83453,-0.91336 1.40368,-1.15597c0.8945,-1.6101 2.46331,-4.38993 4.78901,-7.83031c5.14429,-0.45359 10.3164,-0.4996 15.46795,-0.13762c4.33488,6.13764 3.97708,6.61929 5.84865,8.87618c0.36249,-0.47701 0.86173,-0.83223 1.4312,-1.01835c-0.88074,-1.56881 -2.42203,-4.26607 -4.7202,-7.63764c5.55965,0.56422 8.94499,1.37615 9.93582,1.6101c-0.55046,1.98166 -1.22478,4.01836 -2.00918,6.08259c0.34756,0.13428 0.66547,0.33531 0.93578,0.59175l0.01376,0.01376c0.278,-0.4215 0.72448,-0.70243 1.22478,-0.77065c0.67431,-1.84404 1.26606,-3.66056 1.76147,-5.4358c1.60699,0.42456 3.19157,0.92979 4.74772,1.51377c14.60097,5.49085 10.18353,12.09638 9.99086,12.44041c-2.72478,4.83029 -11.02298,7.59636 -14.54593,8.60095zM2939.88103,656.17238h-0.16514c-0.07124,-0.00692 -0.14184,0.0184 -0.19246,0.06901c-0.05061,0.05061 -0.07593,0.12121 -0.06901,0.19246v6.85324c0,1.08716 -0.3578,1.52753 -1.38991,1.52753c-1.03211,0 -1.38991,-0.42661 -1.38991,-1.52753v-6.85324c0.00966,-0.07188 -0.01477,-0.14414 -0.06605,-0.19542c-0.05128,-0.05128 -0.12355,-0.0757 -0.19542,-0.06605h-0.16514c-0.07267,-0.00778 -0.1451,0.01674 -0.19809,0.06708c-0.05299,0.05034 -0.08119,0.12141 -0.07714,0.19439v7.08718c0,1.32111 0.68808,1.94037 2.07799,1.94037h0.05505c1.38991,0 2.07799,-0.63303 2.07799,-1.94037v-7.08718c-0.0034,-0.07561 -0.03778,-0.14648 -0.09506,-0.19595c-0.05728,-0.04947 -0.1324,-0.07317 -0.2077,-0.06552zM2937.9957,667.93297l-0.31651,-0.93578l-0.31651,0.93578l-0.97707,0.01376l0.78441,0.59175l-0.28899,0.93578l0.79817,-0.56422l0.79817,0.56422l-0.28899,-0.93578l0.78441,-0.59175zM2933.71587,668.95132l-0.31651,-0.93578l-0.31651,0.93578l-0.97707,0.01376l0.78441,0.59175l-0.28899,0.93578l0.79817,-0.56422l0.79817,0.56422l-0.28899,-0.93578l0.78441,-0.59175zM2934.4177,664.71278h-2.66973v-3.67433h2.2156c0.07428,0.00446 0.1469,-0.0231 0.19952,-0.07571c0.05261,-0.05261 0.08018,-0.12524 0.07571,-0.19952v-0.11009c0.00446,-0.07428 -0.0231,-0.1469 -0.07571,-0.19952c-0.05261,-0.05261 -0.12524,-0.08018 -0.19952,-0.07571h-2.2156v-3.55047h2.62845c0.07428,0.00446 0.1469,-0.0231 0.19952,-0.07571c0.05261,-0.05261 0.08018,-0.12524 0.07571,-0.19952v-0.11009c0.00608,-0.07353 -0.0215,-0.14585 -0.07499,-0.19666c-0.05349,-0.05081 -0.12713,-0.07465 -0.20024,-0.06481h-3.05506c-0.07267,-0.00778 -0.1451,0.01674 -0.19809,0.06708c-0.05299,0.05034 -0.08119,0.12141 -0.07714,0.19439v8.66976c-0.00405,0.07298 0.02416,0.14405 0.07714,0.19439c0.05299,0.05034 0.12541,0.07487 0.19809,0.06708h3.09634c0.07312,0.00984 0.14676,-0.014 0.20024,-0.06481c0.05349,-0.05081 0.08106,-0.12313 0.07499,-0.19666v-0.11009c0.01008,-0.07635 -0.01534,-0.15312 -0.06898,-0.20838c-0.05365,-0.05526 -0.12963,-0.08293 -0.20625,-0.07511zM2933.39935,651.03382l-0.31651,0.93578l-0.97707,0.01376l0.78441,0.59175l-0.28899,0.93578l0.79817,-0.56422l0.79817,0.56422l-0.28899,-0.93578l0.78441,-0.59175l-0.97707,-0.01376z" className="SFSymbolsPreviewWireframe"/></g>
  <g id="Regular-S"><path d="M1444.65621,654.68613l0.79817,-0.56422l0.79817,0.56422l-0.28899,-0.93578l0.78441,-0.59175l-0.97707,-0.01376l-0.31651,-0.93578l-0.31651,0.93578l-0.99083,0.01376l0.78441,0.59175zM1453.4223,654.68613l0.79817,-0.56422l0.79817,0.56422l-0.28899,-0.93578l0.78441,-0.59175l-0.99083,-0.01376l-0.31651,-0.93578l-0.31651,0.93578l-0.99083,0.01376l0.78441,0.59175zM1440.85803,661.6357h-0.46789c-0.66055,0 -0.52294,0.55046 -0.52294,1.66514c0,0.64679 -0.31651,0.83945 -0.79817,0.83945c-0.48165,0 -0.79817,-0.19266 -0.79817,-0.83945v-5.03672c0,-0.64679 0.31651,-0.83945 0.79817,-0.83945c0.48165,0 0.79817,0.19266 0.79817,0.83945c0,0.99083 -0.09633,1.44496 0.52294,1.44496h0.46789c0.64679,-0.01376 0.52294,-0.5367 0.52294,-1.69267c0,-1.36239 -0.92202,-1.94037 -2.31194,-1.94037h-0.02752c-1.38991,0 -2.31194,0.57798 -2.31194,1.94037v5.51287c0,1.4312 0.92202,1.94037 2.31194,1.94037h0.02752c1.38991,0 2.31194,-0.52294 2.31194,-1.94037c0,-1.35689 0.15138,-1.89359 -0.52294,-1.89359zM1429.75248,664.0302h-2.02294v-2.65597h1.56881c0.34404,0 0.52294,-0.1789 0.52294,-0.52294v-0.28899c0,-0.34404 -0.1789,-0.52294 -0.52294,-0.52294h-1.56881v-2.51836h1.98166c0.34404,0 0.52294,-0.1789 0.52294,-0.52294v-0.28899c0,-0.34404 -0.1789,-0.52294 -0.52294,-0.52294h-2.98625c-0.33028,-0.01376 -0.50918,0.1789 -0.50918,0.52294v8.13306c0,0.34404 0.1789,0.52294 0.52294,0.52294h3.01377c0.34404,0 0.52294,-0.1789 0.52294,-0.52294v-0.28899c0,-0.34404 -0.1789,-0.52294 -0.52294,-0.52294zM1423.97264,661.48432c0.63303,-0.27523 1.00459,-0.82569 1.00459,-1.70643v-1.63762c0,-1.38991 -0.92202,-1.94037 -2.31194,-1.94037h-1.84404c-0.34404,0 -0.52294,0.1789 -0.52294,0.52294v8.13306c0,0.34404 0.1789,0.52294 0.52294,0.52294h0.46789c0.34404,0 0.52294,-0.1789 0.52294,-0.52294v-3.15139h0.77065l1.01835,3.23396c0.06071,0.27325 0.31257,0.46068 0.59175,0.44037h0.45413c0.38532,0 0.55046,-0.24771 0.44037,-0.60551zM1423.4497,659.55771c0,0.66055 -0.34404,0.83945 -0.83945,0.83945h-0.79817v-2.87616h0.79817c0.49541,0 0.83945,0.1789 0.83945,0.83945zM1434.39011,656.64852c-0.01456,-0.13871 -0.08365,-0.26594 -0.19205,-0.35369c-0.1084,-0.08775 -0.24723,-0.12883 -0.38593,-0.1142h-0.94954c-0.13531,-0.01217 -0.26983,0.03054 -0.37334,0.11853c-0.10351,0.08798 -0.16733,0.21387 -0.17712,0.34937l-1.51377,8.14682c-0.06881,0.37156 0.12385,0.56422 0.46789,0.56422h0.41285c0.13929,0.01372 0.27816,-0.02988 0.38461,-0.12075c0.10645,-0.09087 0.1713,-0.22118 0.17961,-0.3609l0.24771,-1.55505h1.67891l0.24771,1.55505c0.00831,0.13972 0.07316,0.27003 0.17961,0.3609c0.10645,0.09087 0.24532,0.13447 0.38461,0.12075h0.48165c0.3578,0 0.5367,-0.19266 0.46789,-0.56422zM1432.69745,662.0568l0.64679,-4.08717l0.64679,4.08717zM1444.98648,664.83663v-7.32113h1.03211c0.34404,0 0.52294,-0.1789 0.52294,-0.52294v-0.28899c0,-0.34404 -0.1789,-0.52294 -0.52294,-0.52294h-3.55047c-0.34404,0 -0.52294,0.1789 -0.52294,0.52294v0.28899c0,0.34404 0.1789,0.52294 0.52294,0.52294h1.00459v7.32113c0,0.34404 0.1789,0.52294 0.52294,0.52294h0.46789c0.34404,0.0055 0.52294,-0.1789 0.52294,-0.51743zM1479.11505,664.72654h-2.66973v-3.67433h2.2156c0.07428,0.00446 0.1469,-0.0231 0.19952,-0.07571c0.05261,-0.05261 0.08018,-0.12524 0.07571,-0.19952v-0.11009c0.00446,-0.07428 -0.0231,-0.1469 -0.07571,-0.19952c-0.05261,-0.05261 -0.12524,-0.08018 -0.19952,-0.07571h-2.2156v-3.55047h2.62845c0.07428,0.00446 0.1469,-0.0231 0.19952,-0.07571c0.05261,-0.05261 0.08018,-0.12524 0.07571,-0.19952v-0.11009c0.00608,-0.07353 -0.0215,-0.14585 -0.07499,-0.19666c-0.05349,-0.05081 -0.12713,-0.07465 -0.20024,-0.06481h-3.05506c-0.07206,-0.01818 -0.14844,0.00074 -0.20367,0.05046c-0.05524,0.04971 -0.08207,0.12368 -0.07156,0.19725v8.66976c-0.00405,0.07298 0.02416,0.14405 0.07714,0.19439c0.05299,0.05034 0.12541,0.07487 0.19809,0.06708h3.09634c0.07267,0.00778 0.1451,-0.01674 0.19809,-0.06708c0.05299,-0.05034 0.08119,-0.12141 0.07714,-0.19439v-0.11009c0.00513,-0.07397 -0.02242,-0.14647 -0.07537,-0.19837c-0.05296,-0.0519 -0.126,-0.07798 -0.19986,-0.07135zM1466.30308,656.07054h-0.11009c-1.38991,0 -2.10551,0.64679 -2.10551,1.94037v5.51837c0,1.27982 0.7156,1.94037 2.10551,1.94037h0.11009c1.38991,0 2.10551,-0.66055 2.10551,-1.94037v-5.51837c0,-1.28808 -0.7156,-1.93487 -2.10551,-1.93487zM1467.70675,663.28158c-0.01376,1.10092 -0.41285,1.52753 -1.44496,1.52753c-1.03211,0 -1.44496,-0.42661 -1.44496,-1.52753v-5.03672c0,-1.08716 0.41285,-1.52753 1.44496,-1.52753c1.03211,0 1.44496,0.44037 1.44496,1.52753zM1461.30765,661.28616c0.83945,-0.22018 1.26606,-0.83945 1.26606,-1.83028v-1.33487c0,-1.29358 -0.7156,-1.94037 -2.10551,-1.94037h-1.88533c-0.07267,-0.00778 -0.1451,0.01674 -0.19809,0.06708c-0.05299,0.05034 -0.08119,0.12141 -0.07714,0.19439v8.66976c-0.00405,0.07298 0.02416,0.14405 0.07714,0.19439c0.05299,0.05034 0.12541,0.07487 0.19809,0.06708h0.16514c0.07124,0.00692 0.14184,-0.0184 0.19246,-0.06901c0.05061,-0.05061 0.07593,-0.12121 0.06901,-0.19246v-3.70185h1.59634l1.4312,3.74313c0.04909,0.13056 0.17725,0.21414 0.31651,0.20642h0.20642c0.19266,0 0.27523,-0.13762 0.20642,-0.31651zM1460.42691,660.74946h-1.40368v-3.92203h1.40368c1.03211,0 1.44496,0.42661 1.44496,1.52753v0.88074c0,1.0789 -0.41285,1.51927 -1.44496,1.51927zM1472.24806,656.19439h-1.88533c-0.07206,-0.01818 -0.14844,0.00074 -0.20367,0.05046c-0.05524,0.04971 -0.08207,0.12368 -0.07156,0.19725v8.66976c-0.00405,0.07298 0.02416,0.14405 0.07714,0.19439c0.05299,0.05034 0.12541,0.07487 0.19809,0.06708h0.16514c0.07124,0.00692 0.14184,-0.0184 0.19246,-0.06901c0.05061,-0.05061 0.07593,-0.12121 0.06901,-0.19246v-3.59176h1.45872c1.38991,0 2.10551,-0.66055 2.10551,-1.94037v-1.44496c0,-1.29358 -0.7156,-1.94037 -2.10551,-1.94037zM1473.65173,659.33202c0,1.08716 -0.41285,1.52753 -1.44496,1.52753h-1.40368v-4.01836h1.40368c1.03211,-0.01376 1.44496,0.42661 1.44496,1.51377zM1445.88098,667.93297l-0.31651,-0.93578l-0.31651,0.93578l-0.97707,0.01376l0.78441,0.59175l-0.28899,0.93578l0.79817,-0.56422l0.79817,0.56422l-0.28899,-0.93578l0.78441,-0.59175zM1477.2022,649.20354c-1.60538,-0.60175 -3.24056,-1.12078 -4.8991,-1.55505c2.69726,-10.73399 1.59634,-18.53677 -3.06882,-21.17898c-4.74772,-2.66423 -11.82115,0.59175 -19.01842,7.60186c0.46789,0.45413 0.93578,0.92202 1.40368,1.40368c11.35325,-11.00922 16.45878,-7.36241 16.63768,-7.26608c3.08258,1.74771 4.95415,7.67893 2.13304,18.96338c-3.83212,-0.87845 -7.72318,-1.47637 -11.64225,-1.789c-9.89453,-13.83033 -19.3487,-19.56063 -25.07349,-19.56063c-4.23855,0 -6.02755,2.88992 -6.55048,3.81745c-2.49084,4.40369 -1.83028,11.5872 0.01376,18.41291c-9.70187,2.79359 -16.61016,7.44498 -16.55511,13.07344c0.06881,8.20187 14.20189,12.08261 16.80282,12.77069c-2.82111,11.27069 -1.38991,18.66062 3.06882,21.17898c3.85323,2.17432 10.3349,0.82569 19.01842,-7.59636c-0.46789,-0.45413 -0.93578,-0.92202 -1.40368,-1.40368c-11.35325,11.00922 -16.47254,7.36241 -16.63768,7.26608c-3.06882,-1.73395 -4.95415,-7.65141 -2.13304,-18.97714c1.70643,0.39908 5.75232,1.30734 11.64225,1.789c9.89453,13.81657 19.3487,19.54136 25.05973,19.54136c4.23855,0 6.02755,-2.88992 6.55048,-3.81194c2.47707,-4.38993 1.83028,-11.57344 -0.01376,-18.41291c20.9588,-6.02755 21.49549,-17.9175 4.66516,-24.26156zM1428.87174,630.61723c0.39908,-0.70184 1.63762,-2.79359 4.80277,-2.79359c5.06424,0 13.59638,5.44956 22.47256,17.36704c-4.30541,-0.24232 -8.6221,-0.20094 -12.92207,0.12385c1.7862,-2.5204 3.72564,-4.92863 5.80736,-7.21104c-0.46789,-0.48074 -0.93578,-0.95046 -1.40368,-1.40918c-2.52456,2.78232 -4.8557,5.73418 -6.97709,8.8349c-3.91651,0.37732 -7.79905,1.04894 -11.61472,2.00918c-0.02752,-0.19266 -3.34405,-11.31197 -0.16514,-16.92667zM1470.81686,690.93398c-0.39908,0.70184 -1.62386,2.79359 -4.80277,2.79359c-5.05048,0 -13.58262,-5.42204 -22.47256,-17.36704c4.30523,0.24993 8.62242,0.20855 12.92207,-0.12385c-1.7862,2.5204 -3.72564,4.92863 -5.80736,7.21104c0.46789,0.48165 0.93578,0.94954 1.40368,1.40368c2.52782,-2.77955 4.85915,-5.73165 6.97709,-8.8349c6.5092,-0.64679 11.0505,-1.85781 11.61472,-2.00918c3.12387,11.61472 0.61927,16.10098 0.16514,16.92667zM1472.06916,671.86051c-0.49541,-1.63762 -1.05964,-3.31653 -1.70643,-5.00919c-0.59219,0.00557 -1.14672,-0.28984 -1.47248,-0.78441l-0.01376,0.01376c-0.21847,0.20527 -0.46962,0.3727 -0.74312,0.49541c0.78441,1.9679 1.45872,3.90827 2.02294,5.80736c-3.2581,0.82161 -6.56859,1.41934 -9.90829,1.789c0.48165,-0.72936 2.36698,-3.60552 4.43121,-7.45874c-0.29429,-0.10786 -0.57217,-0.25606 -0.82569,-0.44037c-0.15138,0.16514 -0.49541,0.57798 -1.50001,0.57798c-0.85321,1.54129 -2.3945,4.25231 -4.66516,7.59636c-5.1443,0.45348 -10.3164,0.49949 -15.46795,0.13762c-1.08716,-1.54129 -2.95873,-4.27983 -5.06424,-7.95416c-0.1429,-0.05769 -0.28095,-0.12672 -0.41285,-0.20642c-0.26147,0.22018 -0.5367,0.44037 -1.73395,0.44037c0.86698,1.54129 2.40827,4.22479 4.65139,7.51379c-3.34406,-0.31516 -6.66337,-0.85305 -9.93582,-1.6101c0.5367,-1.92661 1.18349,-3.89451 1.94037,-5.90369c-0.44037,0 -0.74312,0.02752 -1.15597,-0.13762c-0.30415,0.10881 -0.62702,0.1556 -0.94954,0.13762c-0.67431,1.84404 -1.2523,3.6468 -1.74771,5.42204c-22.00467,-5.86791 -19.30741,-17.01474 -0.20642,-22.56889c0.49541,1.63762 1.05964,3.31653 1.70643,5.00919c1.4312,0 1.77524,0.46789 1.98166,0.72936c0.09159,-0.11452 0.19804,-0.21634 0.31651,-0.30275c-0.79817,-2.02294 -1.50001,-4.01836 -2.09175,-5.95874c0.96331,-0.24771 4.45873,-1.15597 9.90829,-1.789c-2.18808,3.34405 -3.67433,6.04131 -4.51378,7.61012c0.42017,0.2448 0.73414,0.63726 0.88074,1.10092c0.34724,-0.51206 0.83453,-0.91336 1.40368,-1.15597c0.8945,-1.6101 2.46331,-4.38993 4.78901,-7.83031c5.14429,-0.45359 10.3164,-0.4996 15.46795,-0.13762c4.33488,6.13764 3.97708,6.61929 5.84865,8.87618c0.36249,-0.47701 0.86173,-0.83223 1.4312,-1.01835c-0.88074,-1.56881 -2.42203,-4.26607 -4.7202,-7.63764c5.55965,0.56422 8.94499,1.37615 9.93582,1.6101c-0.55046,1.98166 -1.22478,4.01836 -2.00918,6.08259c0.34756,0.13428 0.66547,0.33531 0.93578,0.59175l0.01376,0.01376c0.278,-0.4215 0.72448,-0.70243 1.22478,-0.77065c0.67431,-1.84404 1.26606,-3.66056 1.76147,-5.4358c1.60699,0.42456 3.19157,0.92979 4.74772,1.51377c14.60097,5.49085 10.18353,12.09638 9.99086,12.44041c-2.72478,4.83029 -11.02298,7.59636 -14.54593,8.60095zM1456.32598,656.17238h-0.16514c-0.07124,-0.00692 -0.14184,0.0184 -0.19246,0.06901c-0.05061,0.05061 -0.07593,0.12121 -0.06901,0.19246v6.85324c0,1.08716 -0.3578,1.52753 -1.38991,1.52753c-1.03211,0 -1.38991,-0.42661 -1.38991,-1.52753v-6.85324c0.00966,-0.07188 -0.01477,-0.14414 -0.06605,-0.19542c-0.05128,-0.05128 -0.12355,-0.0757 -0.19542,-0.06605h-0.16514c-0.07267,-0.00778 -0.1451,0.01674 -0.19809,0.06708c-0.05299,0.05034 -0.08119,0.12141 -0.07714,0.19439v7.08718c0,1.32111 0.68808,1.94037 2.07799,1.94037h0.05505c1.38991,0 2.07799,-0.63303 2.07799,-1.94037v-7.08718c-0.0034,-0.07561 -0.03778,-0.14648 -0.09506,-0.19595c-0.05728,-0.04947 -0.1324,-0.07317 -0.2077,-0.06552zM1454.44065,667.93297l-0.31651,-0.93578l-0.31651,0.93578l-0.97707,0.01376l0.78441,0.59175l-0.28899,0.93578l0.79817,-0.56422l0.79817,0.56422l-0.28899,-0.93578l0.78441,-0.59175zM1450.16082,668.95132l-0.31651,-0.93578l-0.31651,0.93578l-0.97707,0.01376l0.78441,0.59175l-0.28899,0.93578l0.79817,-0.56422l0.79817,0.56422l-0.28899,-0.93578l0.78441,-0.59175zM1450.86265,664.71278h-2.66973v-3.67433h2.2156c0.07428,0.00446 0.1469,-0.0231 0.19952,-0.07571c0.05261,-0.05261 0.08018,-0.12524 0.07571,-0.19952v-0.11009c0.00446,-0.07428 -0.0231,-0.1469 -0.07571,-0.19952c-0.05261,-0.05261 -0.12524,-0.08018 -0.19952,-0.07571h-2.2156v-3.55047h2.62845c0.07428,0.00446 0.1469,-0.0231 0.19952,-0.07571c0.05261,-0.05261 0.08018,-0.12524 0.07571,-0.19952v-0.11009c0.00608,-0.07353 -0.0215,-0.14585 -0.07499,-0.19666c-0.05349,-0.05081 -0.12713,-0.07465 -0.20024,-0.06481h-3.05506c-0.07267,-0.00778 -0.1451,0.01674 -0.19809,0.06708c-0.05299,0.05034 -0.08119,0.12141 -0.07714,0.19439v8.66976c-0.00405,0.07298 0.02416,0.14405 0.07714,0.19439c0.05299,0.05034 0.12541,0.07487 0.19809,0.06708h3.09634c0.07312,0.00984 0.14676,-0.014 0.20024,-0.06481c0.05349,-0.05081 0.08106,-0.12313 0.07499,-0.19666v-0.11009c0.01008,-0.07635 -0.01534,-0.15312 -0.06898,-0.20838c-0.05365,-0.05526 -0.12963,-0.08293 -0.20625,-0.07511zM1449.8443,651.03382l-0.31651,0.93578l-0.97707,0.01376l0.78441,0.59175l-0.28899,0.93578l0.79817,-0.56422l0.79817,0.56422l-0.28899,-0.93578l0.78441,-0.59175l-0.97707,-0.01376z" className="SFSymbolsPreviewWireframe"/></g>
  <g id="Ultralight-S"><path d="M554.52262,654.68613l0.79817,-0.56422l0.79817,0.56422l-0.28899,-0.93578l0.78441,-0.59175l-0.97707,-0.01376l-0.31651,-0.93578l-0.31651,0.93578l-0.99083,0.01376l0.78441,0.59175zM563.28871,654.68613l0.79817,-0.56422l0.79817,0.56422l-0.28899,-0.93578l0.78441,-0.59175l-0.99083,-0.01376l-0.31651,-0.93578l-0.31651,0.93578l-0.99083,0.01376l0.78441,0.59175zM550.72444,661.6357h-0.46789c-0.66055,0 -0.52294,0.55046 -0.52294,1.66514c0,0.64679 -0.31651,0.83945 -0.79817,0.83945c-0.48165,0 -0.79817,-0.19266 -0.79817,-0.83945v-5.03672c0,-0.64679 0.31651,-0.83945 0.79817,-0.83945c0.48165,0 0.79817,0.19266 0.79817,0.83945c0,0.99083 -0.09633,1.44496 0.52294,1.44496h0.46789c0.64679,-0.01376 0.52294,-0.5367 0.52294,-1.69267c0,-1.36239 -0.92202,-1.94037 -2.31194,-1.94037h-0.02752c-1.38991,0 -2.31194,0.57798 -2.31194,1.94037v5.51287c0,1.4312 0.92202,1.94037 2.31194,1.94037h0.02752c1.38991,0 2.31194,-0.52294 2.31194,-1.94037c0,-1.35689 0.15138,-1.89359 -0.52294,-1.89359zM539.61889,664.0302h-2.02294v-2.65597h1.56881c0.34404,0 0.52294,-0.1789 0.52294,-0.52294v-0.28899c0,-0.34404 -0.1789,-0.52294 -0.52294,-0.52294h-1.56881v-2.51836h1.98166c0.34404,0 0.52294,-0.1789 0.52294,-0.52294v-0.28899c0,-0.34404 -0.1789,-0.52294 -0.52294,-0.52294h-2.98625c-0.33028,-0.01376 -0.50918,0.1789 -0.50918,0.52294v8.13306c0,0.34404 0.1789,0.52294 0.52294,0.52294h3.01377c0.34404,0 0.52294,-0.1789 0.52294,-0.52294v-0.28899c0,-0.34404 -0.1789,-0.52294 -0.52294,-0.52294zM533.83905,661.48432c0.63303,-0.27523 1.00459,-0.82569 1.00459,-1.70643v-1.63762c0,-1.38991 -0.92202,-1.94037 -2.31194,-1.94037h-1.84404c-0.34404,0 -0.52294,0.1789 -0.52294,0.52294v8.13306c0,0.34404 0.1789,0.52294 0.52294,0.52294h0.46789c0.34404,0 0.52294,-0.1789 0.52294,-0.52294v-3.15139h0.77065l1.01835,3.23396c0.06071,0.27325 0.31257,0.46068 0.59175,0.44037h0.45413c0.38532,0 0.55046,-0.24771 0.44037,-0.60551zM533.31611,659.55771c0,0.66055 -0.34404,0.83945 -0.83945,0.83945h-0.79817v-2.87616h0.79817c0.49541,0 0.83945,0.1789 0.83945,0.83945zM544.25652,656.64852c-0.01456,-0.13871 -0.08365,-0.26594 -0.19205,-0.35369c-0.1084,-0.08775 -0.24723,-0.12883 -0.38593,-0.1142h-0.94954c-0.13531,-0.01217 -0.26983,0.03054 -0.37334,0.11853c-0.10351,0.08798 -0.16733,0.21387 -0.17712,0.34937l-1.51377,8.14682c-0.06881,0.37156 0.12385,0.56422 0.46789,0.56422h0.41285c0.13929,0.01372 0.27816,-0.02988 0.38461,-0.12075c0.10645,-0.09087 0.1713,-0.22118 0.17961,-0.3609l0.24771,-1.55505h1.67891l0.24771,1.55505c0.00831,0.13972 0.07316,0.27003 0.17961,0.3609c0.10645,0.09087 0.24532,0.13447 0.38461,0.12075h0.48165c0.3578,0 0.5367,-0.19266 0.46789,-0.56422zM542.56386,662.0568l0.64679,-4.08717l0.64679,4.08717zM554.85289,664.83663v-7.32113h1.03211c0.34404,0 0.52294,-0.1789 0.52294,-0.52294v-0.28899c0,-0.34404 -0.1789,-0.52294 -0.52294,-0.52294h-3.55047c-0.34404,0 -0.52294,0.1789 -0.52294,0.52294v0.28899c0,0.34404 0.1789,0.52294 0.52294,0.52294h1.00459v7.32113c0,0.34404 0.1789,0.52294 0.52294,0.52294h0.46789c0.34404,0.0055 0.52294,-0.1789 0.52294,-0.51743zM588.98146,664.72654h-2.66973v-3.67433h2.2156c0.07428,0.00446 0.1469,-0.0231 0.19952,-0.07571c0.05261,-0.05261 0.08018,-0.12524 0.07571,-0.19952v-0.11009c0.00446,-0.07428 -0.0231,-0.1469 -0.07571,-0.19952c-0.05261,-0.05261 -0.12524,-0.08018 -0.19952,-0.07571h-2.2156v-3.55047h2.62845c0.07428,0.00446 0.1469,-0.0231 0.19952,-0.07571c0.05261,-0.05261 0.08018,-0.12524 0.07571,-0.19952v-0.11009c0.00608,-0.07353 -0.0215,-0.14585 -0.07499,-0.19666c-0.05349,-0.05081 -0.12713,-0.07465 -0.20024,-0.06481h-3.05506c-0.07206,-0.01818 -0.14844,0.00074 -0.20367,0.05046c-0.05524,0.04971 -0.08207,0.12368 -0.07156,0.19725v8.66976c-0.00405,0.07298 0.02416,0.14405 0.07714,0.19439c0.05299,0.05034 0.12541,0.07487 0.19809,0.06708h3.09634c0.07267,0.00778 0.1451,-0.01674 0.19809,-0.06708c0.05299,-0.05034 0.08119,-0.12141 0.07714,-0.19439v-0.11009c0.00513,-0.07397 -0.02242,-0.14647 -0.07537,-0.19837c-0.05296,-0.0519 -0.126,-0.07798 -0.19986,-0.07135zM576.16949,656.07054h-0.11009c-1.38991,0 -2.10551,0.64679 -2.10551,1.94037v5.51837c0,1.27982 0.7156,1.94037 2.10551,1.94037h0.11009c1.38991,0 2.10551,-0.66055 2.10551,-1.94037v-5.51837c0,-1.28808 -0.7156,-1.93487 -2.10551,-1.93487zM577.57316,663.28158c-0.01376,1.10092 -0.41285,1.52753 -1.44496,1.52753c-1.03211,0 -1.44496,-0.42661 -1.44496,-1.52753v-5.03672c0,-1.08716 0.41285,-1.52753 1.44496,-1.52753c1.03211,0 1.44496,0.44037 1.44496,1.52753zM571.17406,661.28616c0.83945,-0.22018 1.26606,-0.83945 1.26606,-1.83028v-1.33487c0,-1.29358 -0.7156,-1.94037 -2.10551,-1.94037h-1.88533c-0.07267,-0.00778 -0.1451,0.01674 -0.19809,0.06708c-0.05299,0.05034 -0.08119,0.12141 -0.07714,0.19439v8.66976c-0.00405,0.07298 0.02416,0.14405 0.07714,0.19439c0.05299,0.05034 0.12541,0.07487 0.19809,0.06708h0.16514c0.07124,0.00692 0.14184,-0.0184 0.19246,-0.06901c0.05061,-0.05061 0.07593,-0.12121 0.06901,-0.19246v-3.70185h1.59634l1.4312,3.74313c0.04909,0.13056 0.17725,0.21414 0.31651,0.20642h0.20642c0.19266,0 0.27523,-0.13762 0.20642,-0.31651zM570.29332,660.74946h-1.40368v-3.92203h1.40368c1.03211,0 1.44496,0.42661 1.44496,1.52753v0.88074c0,1.0789 -0.41285,1.51927 -1.44496,1.51927zM582.11447,656.19439h-1.88533c-0.07206,-0.01818 -0.14844,0.00074 -0.20367,0.05046c-0.05524,0.04971 -0.08207,0.12368 -0.07156,0.19725v8.66976c-0.00405,0.07298 0.02416,0.14405 0.07714,0.19439c0.05299,0.05034 0.12541,0.07487 0.19809,0.06708h0.16514c0.07124,0.00692 0.14184,-0.0184 0.19246,-0.06901c0.05061,-0.05061 0.07593,-0.12121 0.06901,-0.19246v-3.59176h1.45872c1.38991,0 2.10551,-0.66055 2.10551,-1.94037v-1.44496c0,-1.29358 -0.7156,-1.94037 -2.10551,-1.94037zM583.51814,659.33202c0,1.08716 -0.41285,1.52753 -1.44496,1.52753h-1.40368v-4.01836h1.40368c1.03211,-0.01376 1.44496,0.42661 1.44496,1.51377zM555.74739,667.93297l-0.31651,-0.93578l-0.31651,0.93578l-0.97707,0.01376l0.78441,0.59175l-0.28899,0.93578l0.79817,-0.56422l0.79817,0.56422l-0.28899,-0.93578l0.78441,-0.59175zM587.06861,649.20354c-1.60538,-0.60175 -3.24056,-1.12078 -4.8991,-1.55505c2.69726,-10.73399 1.59634,-18.53677 -3.06882,-21.17898c-4.74772,-2.66423 -11.82115,0.59175 -19.01842,7.60186c0.46789,0.45413 0.93578,0.92202 1.40368,1.40368c11.35325,-11.00922 16.45878,-7.36241 16.63768,-7.26608c3.08258,1.74771 4.95415,7.67893 2.13304,18.96338c-3.83212,-0.87845 -7.72318,-1.47637 -11.64225,-1.789c-9.89453,-13.83033 -19.3487,-19.56063 -25.07349,-19.56063c-4.23855,0 -6.02755,2.88992 -6.55048,3.81745c-2.49084,4.40369 -1.83028,11.5872 0.01376,18.41291c-9.70187,2.79359 -16.61016,7.44498 -16.55511,13.07344c0.06881,8.20187 14.20189,12.08261 16.80282,12.77069c-2.82111,11.27069 -1.38991,18.66062 3.06882,21.17898c3.85323,2.17432 10.3349,0.82569 19.01842,-7.59636c-0.46789,-0.45413 -0.93578,-0.92202 -1.40368,-1.40368c-11.35325,11.00922 -16.47254,7.36241 -16.63768,7.26608c-3.06882,-1.73395 -4.95415,-7.65141 -2.13304,-18.97714c1.70643,0.39908 5.75232,1.30734 11.64225,1.789c9.89453,13.81657 19.3487,19.54136 25.05973,19.54136c4.23855,0 6.02755,-2.88992 6.55048,-3.81194c2.47707,-4.38993 1.83028,-11.57344 -0.01376,-18.41291c20.9588,-6.02755 21.49549,-17.9175 4.66516,-24.26156zM538.73815,630.61723c0.39908,-0.70184 1.63762,-2.79359 4.80277,-2.79359c5.06424,0 13.59638,5.44956 22.47256,17.36704c-4.30541,-0.24232 -8.6221,-0.20094 -12.92207,0.12385c1.7862,-2.5204 3.72564,-4.92863 5.80736,-7.21104c-0.46789,-0.48074 -0.93578,-0.95046 -1.40368,-1.40918c-2.52456,2.78232 -4.8557,5.73418 -6.97709,8.8349c-3.91651,0.37732 -7.79905,1.04894 -11.61472,2.00918c-0.02752,-0.19266 -3.34405,-11.31197 -0.16514,-16.92667zM580.68327,690.93398c-0.39908,0.70184 -1.62386,2.79359 -4.80277,2.79359c-5.05048,0 -13.58262,-5.42204 -22.47256,-17.36704c4.30523,0.24993 8.62242,0.20855 12.92207,-0.12385c-1.7862,2.5204 -3.72564,4.92863 -5.80736,7.21104c0.46789,0.48165 0.93578,0.94954 1.40368,1.40368c2.52782,-2.77955 4.85915,-5.73165 6.97709,-8.8349c6.5092,-0.64679 11.0505,-1.85781 11.61472,-2.00918c3.12387,11.61472 0.61927,16.10098 0.16514,16.92667zM581.93557,671.86051c-0.49541,-1.63762 -1.05964,-3.31653 -1.70643,-5.00919c-0.59219,0.00557 -1.14672,-0.28984 -1.47248,-0.78441l-0.01376,0.01376c-0.21847,0.20527 -0.46962,0.3727 -0.74312,0.49541c0.78441,1.9679 1.45872,3.90827 2.02294,5.80736c-3.2581,0.82161 -6.56859,1.41934 -9.90829,1.789c0.48165,-0.72936 2.36698,-3.60552 4.43121,-7.45874c-0.29429,-0.10786 -0.57217,-0.25606 -0.82569,-0.44037c-0.15138,0.16514 -0.49541,0.57798 -1.50001,0.57798c-0.85321,1.54129 -2.3945,4.25231 -4.66516,7.59636c-5.1443,0.45348 -10.3164,0.49949 -15.46795,0.13762c-1.08716,-1.54129 -2.95873,-4.27983 -5.06424,-7.95416c-0.1429,-0.05769 -0.28095,-0.12672 -0.41285,-0.20642c-0.26147,0.22018 -0.5367,0.44037 -1.73395,0.44037c0.86698,1.54129 2.40827,4.22479 4.65139,7.51379c-3.34406,-0.31516 -6.66337,-0.85305 -9.93582,-1.6101c0.5367,-1.92661 1.18349,-3.89451 1.94037,-5.90369c-0.44037,0 -0.74312,0.02752 -1.15597,-0.13762c-0.30415,0.10881 -0.62702,0.1556 -0.94954,0.13762c-0.67431,1.84404 -1.2523,3.6468 -1.74771,5.42204c-22.00467,-5.86791 -19.30741,-17.01474 -0.20642,-22.56889c0.49541,1.63762 1.05964,3.31653 1.70643,5.00919c1.4312,0 1.77524,0.46789 1.98166,0.72936c0.09159,-0.11452 0.19804,-0.21634 0.31651,-0.30275c-0.79817,-2.02294 -1.50001,-4.01836 -2.09175,-5.95874c0.96331,-0.24771 4.45873,-1.15597 9.90829,-1.789c-2.18808,3.34405 -3.67433,6.04131 -4.51378,7.61012c0.42017,0.2448 0.73414,0.63726 0.88074,1.10092c0.34724,-0.51206 0.83453,-0.91336 1.40368,-1.15597c0.8945,-1.6101 2.46331,-4.38993 4.78901,-7.83031c5.14429,-0.45359 10.3164,-0.4996 15.46795,-0.13762c4.33488,6.13764 3.97708,6.61929 5.84865,8.87618c0.36249,-0.47701 0.86173,-0.83223 1.4312,-1.01835c-0.88074,-1.56881 -2.42203,-4.26607 -4.7202,-7.63764c5.55965,0.56422 8.94499,1.37615 9.93582,1.6101c-0.55046,1.98166 -1.22478,4.01836 -2.00918,6.08259c0.34756,0.13428 0.66547,0.33531 0.93578,0.59175l0.01376,0.01376c0.278,-0.4215 0.72448,-0.70243 1.22478,-0.77065c0.67431,-1.84404 1.26606,-3.66056 1.76147,-5.4358c1.60699,0.42456 3.19157,0.92979 4.74772,1.51377c14.60097,5.49085 10.18353,12.09638 9.99086,12.44041c-2.72478,4.83029 -11.02298,7.59636 -14.54593,8.60095zM566.19239,656.17238h-0.16514c-0.07124,-0.00692 -0.14184,0.0184 -0.19246,0.06901c-0.05061,0.05061 -0.07593,0.12121 -0.06901,0.19246v6.85324c0,1.08716 -0.3578,1.52753 -1.38991,1.52753c-1.03211,0 -1.38991,-0.42661 -1.38991,-1.52753v-6.85324c0.00966,-0.07188 -0.01477,-0.14414 -0.06605,-0.19542c-0.05128,-0.05128 -0.12355,-0.0757 -0.19542,-0.06605h-0.16514c-0.07267,-0.00778 -0.1451,0.01674 -0.19809,0.06708c-0.05299,0.05034 -0.08119,0.12141 -0.07714,0.19439v7.08718c0,1.32111 0.68808,1.94037 2.07799,1.94037h0.05505c1.38991,0 2.07799,-0.63303 2.07799,-1.94037v-7.08718c-0.0034,-0.07561 -0.03778,-0.14648 -0.09506,-0.19595c-0.05728,-0.04947 -0.1324,-0.07317 -0.2077,-0.06552zM564.30706,667.93297l-0.31651,-0.93578l-0.31651,0.93578l-0.97707,0.01376l0.78441,0.59175l-0.28899,0.93578l0.79817,-0.56422l0.79817,0.56422l-0.28899,-0.93578l0.78441,-0.59175zM560.02723,668.95132l-0.31651,-0.93578l-0.31651,0.93578l-0.97707,0.01376l0.78441,0.59175l-0.28899,0.93578l0.79817,-0.56422l0.79817,0.56422l-0.28899,-0.93578l0.78441,-0.59175zM560.72906,664.71278h-2.66973v-3.67433h2.2156c0.07428,0.00446 0.1469,-0.0231 0.19952,-0.07571c0.05261,-0.05261 0.08018,-0.12524 0.07571,-0.19952v-0.11009c0.00446,-0.07428 -0.0231,-0.1469 -0.07571,-0.19952c-0.05261,-0.05261 -0.12524,-0.08018 -0.19952,-0.07571h-2.2156v-3.55047h2.62845c0.07428,0.00446 0.1469,-0.0231 0.19952,-0.07571c0.05261,-0.05261 0.08018,-0.12524 0.07571,-0.19952v-0.11009c0.00608,-0.07353 -0.0215,-0.14585 -0.07499,-0.19666c-0.05349,-0.05081 -0.12713,-0.07465 -0.20024,-0.06481h-3.05506c-0.07267,-0.00778 -0.1451,0.01674 -0.19809,0.06708c-0.05299,0.05034 -0.08119,0.12141 -0.07714,0.19439v8.66976c-0.00405,0.07298 0.02416,0.14405 0.07714,0.19439c0.05299,0.05034 0.12541,0.07487 0.19809,0.06708h3.09634c0.07312,0.00984 0.14676,-0.014 0.20024,-0.06481c0.05349,-0.05081 0.08106,-0.12313 0.07499,-0.19666v-0.11009c0.01008,-0.07635 -0.01534,-0.15312 -0.06898,-0.20838c-0.05365,-0.05526 -0.12963,-0.08293 -0.20625,-0.07511zM559.71071,651.03382l-0.31651,0.93578l-0.97707,0.01376l0.78441,0.59175l-0.28899,0.93578l0.79817,-0.56422l0.79817,0.56422l-0.28899,-0.93578l0.78441,-0.59175l-0.97707,-0.01376z" className="SFSymbolsPreviewWireframe"/></g>
 </g>
</svg>