<?xml version="1.0" encoding="UTF-8"?><!--Generator: https://SymbolKit.app--><!DOCTYPE svg PUBLIC "-//W3C//DTD SVG 1.1//EN" "http://www.w3.org/Graphics/SVG/1.1/DTD/svg11.dtd"><svg xmlns="http://www.w3.org/2000/svg" xmlns:xlink="http://www.w3.org/1999/xlink" version="1.1" viewBox="0 0 3300 2200">
 <!--glyph: "100092", point size: 100.0, font version: "20.0d10e1", template writer version: "138.0.0"-->
 <style>.SFSymbolsPreviewWireframe {fill:none;opacity:1.0;stroke:black;stroke-width:0.5}
</style>
 <g id="Notes">
  <rect height="2200" id="artboard" style="fill:white;opacity:1" width="3300" x="0" y="0"/>
  <line style="fill:none;stroke:black;opacity:1;stroke-width:0.5;" x1="263" x2="3036" y1="292" y2="292"/>
  <text style="stroke:none;fill:black;font-family:sans-serif;font-size:13;font-weight:bold;" transform="matrix(1 0 0 1 263 322)">Weight/Scale Variations</text>
  <text style="stroke:none;fill:black;font-family:sans-serif;font-size:13;text-anchor:middle;" transform="matrix(1 0 0 1 559.711 322)">Ultralight</text>
  <text style="stroke:none;fill:black;font-family:sans-serif;font-size:13;text-anchor:middle;" transform="matrix(1 0 0 1 856.422 322)">Thin</text>
  <text style="stroke:none;fill:black;font-family:sans-serif;font-size:13;text-anchor:middle;" transform="matrix(1 0 0 1 1153.13 322)">Light</text>
  <text style="stroke:none;fill:black;font-family:sans-serif;font-size:13;text-anchor:middle;" transform="matrix(1 0 0 1 1449.84 322)">Regular</text>
  <text style="stroke:none;fill:black;font-family:sans-serif;font-size:13;text-anchor:middle;" transform="matrix(1 0 0 1 1746.56 322)">Medium</text>
  <text style="stroke:none;fill:black;font-family:sans-serif;font-size:13;text-anchor:middle;" transform="matrix(1 0 0 1 2043.27 322)">Semibold</text>
  <text style="stroke:none;fill:black;font-family:sans-serif;font-size:13;text-anchor:middle;" transform="matrix(1 0 0 1 2339.98 322)">Bold</text>
  <text style="stroke:none;fill:black;font-family:sans-serif;font-size:13;text-anchor:middle;" transform="matrix(1 0 0 1 2636.69 322)">Heavy</text>
  <text style="stroke:none;fill:black;font-family:sans-serif;font-size:13;text-anchor:middle;" transform="matrix(1 0 0 1 2933.4 322)">Black</text>
  <line style="fill:none;stroke:black;opacity:1;stroke-width:0.5;" x1="263" x2="3036" y1="1903" y2="1903"/>
  <g transform="matrix(0.2 0 0 0.2 263 1933)">
   <path d="m46.2402 4.15039c21.7773 0 39.4531-17.627 39.4531-39.4043s-17.6758-39.4043-39.4531-39.4043c-21.7285 0-39.4043 17.627-39.4043 39.4043s17.6758 39.4043 39.4043 39.4043Zm0-7.42188c-17.6758 0-31.9336-14.3066-31.9336-31.9824s14.2578-31.9824 31.9336-31.9824 31.9824 14.3066 31.9824 31.9824-14.3066 31.9824-31.9824 31.9824Zm-17.9688-31.9824c0 2.14844 1.51367 3.61328 3.75977 3.61328h10.498v10.5957c0 2.19727 1.46484 3.71094 3.61328 3.71094 2.24609 0 3.71094-1.51367 3.71094-3.71094v-10.5957h10.5957c2.19727 0 3.71094-1.46484 3.71094-3.61328 0-2.19727-1.51367-3.71094-3.71094-3.71094h-10.5957v-10.5469c0-2.24609-1.46484-3.75977-3.71094-3.75977-2.14844 0-3.61328 1.51367-3.61328 3.75977v10.5469h-10.498c-2.24609 0-3.75977 1.51367-3.75977 3.71094Z"/>
  </g>
  <g transform="matrix(0.2 0 0 0.2 281.506 1933)">
   <path d="m58.5449 14.5508c27.4902 0 49.8047-22.3145 49.8047-49.8047s-22.3145-49.8047-49.8047-49.8047-49.8047 22.3145-49.8047 49.8047 22.3145 49.8047 49.8047 49.8047Zm0-8.30078c-22.9492 0-41.5039-18.5547-41.5039-41.5039s18.5547-41.5039 41.5039-41.5039 41.5039 18.5547 41.5039 41.5039-18.5547 41.5039-41.5039 41.5039Zm-22.6562-41.5039c0 2.39258 1.66016 4.00391 4.15039 4.00391h14.3555v14.4043c0 2.44141 1.66016 4.15039 4.05273 4.15039 2.44141 0 4.15039-1.66016 4.15039-4.15039v-14.4043h14.4043c2.44141 0 4.15039-1.61133 4.15039-4.00391 0-2.44141-1.70898-4.15039-4.15039-4.15039h-14.4043v-14.3555c0-2.49023-1.70898-4.19922-4.15039-4.19922-2.39258 0-4.05273 1.70898-4.05273 4.19922v14.3555h-14.3555c-2.49023 0-4.15039 1.70898-4.15039 4.15039Z"/>
  </g>
  <g transform="matrix(0.2 0 0 0.2 304.924 1933)">
   <path d="m74.8535 28.3203c35.1074 0 63.623-28.4668 63.623-63.5742s-28.5156-63.623-63.623-63.623-63.5742 28.5156-63.5742 63.623 28.4668 63.5742 63.5742 63.5742Zm0-9.08203c-30.127 0-54.4922-24.3652-54.4922-54.4922s24.3652-54.4922 54.4922-54.4922 54.4922 24.3652 54.4922 54.4922-24.3652 54.4922-54.4922 54.4922Zm-28.8574-54.4922c0 2.58789 1.85547 4.39453 4.58984 4.39453h19.7266v19.7754c0 2.68555 1.85547 4.58984 4.44336 4.58984 2.68555 0 4.54102-1.85547 4.54102-4.58984v-19.7754h19.7754c2.68555 0 4.58984-1.80664 4.58984-4.39453 0-2.73438-1.85547-4.58984-4.58984-4.58984h-19.7754v-19.7266c0-2.73438-1.85547-4.63867-4.54102-4.63867-2.58789 0-4.44336 1.9043-4.44336 4.63867v19.7266h-19.7266c-2.73438 0-4.58984 1.85547-4.58984 4.58984Z"/>
  </g>
  <text style="stroke:none;fill:black;font-family:sans-serif;font-size:13;font-weight:bold;" transform="matrix(1 0 0 1 263 1953)">Design Variations</text>
  <text style="stroke:none;fill:black;font-family:sans-serif;font-size:13;" transform="matrix(1 0 0 1 263 1971)">Symbols are supported in up to nine weights and three scales.</text>
  <text style="stroke:none;fill:black;font-family:sans-serif;font-size:13;" transform="matrix(1 0 0 1 263 1989)">For optimal layout with text and other symbols, vertically align</text>
  <text style="stroke:none;fill:black;font-family:sans-serif;font-size:13;" transform="matrix(1 0 0 1 263 2007)">symbols with the adjacent text.</text>
  <line style="fill:none;stroke:#00AEEF;stroke-width:0.5;opacity:1.0;" x1="776" x2="776" y1="1919" y2="1933"/>
  <g transform="matrix(0.2 0 0 0.2 776 1933)">
   <path d="m16.5527 0.78125c2.58789 0 3.85742-0.976562 4.78516-3.71094l6.29883-17.2363h28.8086l6.29883 17.2363c0.927734 2.73438 2.19727 3.71094 4.73633 3.71094 2.58789 0 4.24805-1.5625 4.24805-4.00391 0-0.830078-0.146484-1.61133-0.537109-2.63672l-22.9004-60.9863c-1.12305-2.97852-3.125-4.49219-6.25-4.49219-3.02734 0-5.07812 1.46484-6.15234 4.44336l-22.9004 61.084c-0.390625 1.02539-0.537109 1.80664-0.537109 2.63672 0 2.44141 1.5625 3.95508 4.10156 3.95508Zm13.4766-28.3691 11.8652-32.8613h0.244141l11.8652 32.8613Z"/>
  </g>
  <line style="fill:none;stroke:#00AEEF;stroke-width:0.5;opacity:1.0;" x1="792.836" x2="792.836" y1="1919" y2="1933"/>
  <text style="stroke:none;fill:black;font-family:sans-serif;font-size:13;font-weight:bold;" transform="matrix(1 0 0 1 776 1953)">Margins</text>
  <text style="stroke:none;fill:black;font-family:sans-serif;font-size:13;" transform="matrix(1 0 0 1 776 1971)">Leading and trailing margins on the left and right side of each symbol</text>
  <text style="stroke:none;fill:black;font-family:sans-serif;font-size:13;" transform="matrix(1 0 0 1 776 1989)">can be adjusted by modifying the x-location of the margin guidelines.</text>
  <text style="stroke:none;fill:black;font-family:sans-serif;font-size:13;" transform="matrix(1 0 0 1 776 2007)">Modifications are automatically applied proportionally to all</text>
  <text style="stroke:none;fill:black;font-family:sans-serif;font-size:13;" transform="matrix(1 0 0 1 776 2025)">scales and weights.</text>
  <g transform="matrix(0.2 0 0 0.2 1289 1933)">
   <path d="m14.209 9.32617 8.49609 8.54492c4.29688 4.3457 9.22852 4.05273 13.8672-1.07422l53.4668-58.9355-4.83398-4.88281-53.0762 58.3984c-1.75781 2.00195-3.41797 2.49023-5.76172 0.146484l-5.85938-5.81055c-2.34375-2.29492-1.80664-4.00391 0.195312-5.81055l57.373-54.0039-4.88281-4.83398-57.959 54.4434c-4.93164 4.58984-5.32227 9.47266-1.02539 13.8184Zm32.0801-90.9668c-2.09961 2.05078-2.24609 4.93164-1.07422 6.88477 1.17188 1.80664 3.4668 2.97852 6.68945 2.14844 7.32422-1.70898 14.9414-2.00195 22.0703 2.68555l-2.92969 7.27539c-1.70898 4.15039-0.830078 7.08008 1.85547 9.81445l11.4746 11.5723c2.44141 2.44141 4.49219 2.53906 7.32422 2.05078l5.32227-0.976562 3.32031 3.36914-0.195312 2.7832c-0.195312 2.49023 0.439453 4.39453 2.88086 6.78711l3.80859 3.71094c2.39258 2.39258 5.46875 2.53906 7.8125 0.195312l14.5508-14.5996c2.34375-2.34375 2.24609-5.32227-0.146484-7.71484l-3.85742-3.80859c-2.39258-2.39258-4.24805-3.17383-6.64062-2.97852l-2.88086 0.244141-3.22266-3.17383 1.2207-5.61523c0.634766-2.83203-0.146484-5.0293-3.07617-7.95898l-10.9863-10.9375c-16.6992-16.6016-38.8672-16.2109-53.3203-1.75781Zm7.4707 1.85547c12.1582-8.88672 28.6133-7.37305 39.7461 3.75977l12.1582 12.0605c1.17188 1.17188 1.36719 2.09961 1.02539 3.80859l-1.61133 7.42188 7.51953 7.42188 4.93164-0.292969c1.26953-0.0488281 1.66016 0.0488281 2.63672 1.02539l2.88086 2.88086-12.207 12.207-2.88086-2.88086c-0.976562-0.976562-1.12305-1.36719-1.07422-2.68555l0.341797-4.88281-7.4707-7.42188-7.61719 1.26953c-1.61133 0.341797-2.34375 0.195312-3.56445-0.976562l-10.0098-10.0098c-1.26953-1.17188-1.41602-2.00195-0.634766-3.85742l4.39453-10.4492c-7.8125-7.27539-17.9688-10.4004-28.125-7.42188-0.78125 0.195312-1.07422-0.439453-0.439453-0.976562Z"/>
  </g>
  <text style="stroke:none;fill:black;font-family:sans-serif;font-size:13;font-weight:bold;" transform="matrix(1 0 0 1 1289 1953)">Exporting</text>
  <text style="stroke:none;fill:black;font-family:sans-serif;font-size:13;" transform="matrix(1 0 0 1 1289 1971)">Symbols should be outlined when exporting to ensure the</text>
  <text style="stroke:none;fill:black;font-family:sans-serif;font-size:13;" transform="matrix(1 0 0 1 1289 1989)">design is preserved when submitting to Xcode.</text>
  <text id="template-version" style="stroke:none;fill:black;font-family:sans-serif;font-size:13;text-anchor:end;" transform="matrix(1 0 0 1 3036 1933)">Template v.6.0</text>
  <text style="stroke:none;fill:black;font-family:sans-serif;font-size:13;text-anchor:end;" transform="matrix(1 0 0 1 3036 1951)">Requires Xcode 16 or greater</text>
  <text id="descriptive-name" style="stroke:none;fill:black;font-family:sans-serif;font-size:13;text-anchor:end;" transform="matrix(1 0 0 1 3036 1969)">Generated from square</text>
  <text style="stroke:none;fill:black;font-family:sans-serif;font-size:13;text-anchor:end;" transform="matrix(1 0 0 1 3036 1987)">Typeset at 100.0 points</text>
  <text style="stroke:none;fill:black;font-family:sans-serif;font-size:13;" transform="matrix(1 0 0 1 263 726)">Small</text>
  <text style="stroke:none;fill:black;font-family:sans-serif;font-size:13;" transform="matrix(1 0 0 1 263 1156)">Medium</text>
  <text style="stroke:none;fill:black;font-family:sans-serif;font-size:13;" transform="matrix(1 0 0 1 263 1586)">Large</text>
 </g>
 <g id="Guides">
  <g id="H-reference" style="fill:#27AAE1;stroke:none;" transform="matrix(1 0 0 1 339 696)">
   <path d="M0.993654 0L3.63775 0L29.3281-67.1323L30.0303-67.1323L30.0303-70.459L28.1226-70.459ZM11.6885-24.4799L46.9815-24.4799L46.2315-26.7285L12.4385-26.7285ZM55.1196 0L57.7637 0L30.6382-70.459L29.4326-70.459L29.4326-67.1323Z"/>
  </g>
  <line id="Baseline-S" style="fill:none;stroke:#27AAE1;opacity:1;stroke-width:0.5;" x1="263" x2="3036" y1="696" y2="696"/>
  <line id="Capline-S" style="fill:none;stroke:#27AAE1;opacity:1;stroke-width:0.5;" x1="263" x2="3036" y1="625.541" y2="625.541"/>
  <g id="H-reference" style="fill:#27AAE1;stroke:none;" transform="matrix(1 0 0 1 339 1126)">
   <path d="M0.993654 0L3.63775 0L29.3281-67.1323L30.0303-67.1323L30.0303-70.459L28.1226-70.459ZM11.6885-24.4799L46.9815-24.4799L46.2315-26.7285L12.4385-26.7285ZM55.1196 0L57.7637 0L30.6382-70.459L29.4326-70.459L29.4326-67.1323Z"/>
  </g>
  <line id="Baseline-M" style="fill:none;stroke:#27AAE1;opacity:1;stroke-width:0.5;" x1="263" x2="3036" y1="1126" y2="1126"/>
  <line id="Capline-M" style="fill:none;stroke:#27AAE1;opacity:1;stroke-width:0.5;" x1="263" x2="3036" y1="1055.54" y2="1055.54"/>
  <g id="H-reference" style="fill:#27AAE1;stroke:none;" transform="matrix(1 0 0 1 339 1556)">
   <path d="M0.993654 0L3.63775 0L29.3281-67.1323L30.0303-67.1323L30.0303-70.459L28.1226-70.459ZM11.6885-24.4799L46.9815-24.4799L46.2315-26.7285L12.4385-26.7285ZM55.1196 0L57.7637 0L30.6382-70.459L29.4326-70.459L29.4326-67.1323Z"/>
  </g>
  <line id="Baseline-L" style="fill:none;stroke:#27AAE1;opacity:1;stroke-width:0.5;" x1="263" x2="3036" y1="1556" y2="1556"/>
  <line id="Capline-L" style="fill:none;stroke:#27AAE1;opacity:1;stroke-width:0.5;" x1="263" x2="3036" y1="1485.54" y2="1485.54"/>
  <line id="right-margin-Black-S" style="fill:none;stroke:#00AEEF;stroke-width:0.5;opacity:1.0;" x1="2981.3" x2="2981.3" y1="600.785" y2="720.121"/>
  <line id="left-margin-Black-S" style="fill:none;stroke:#00AEEF;stroke-width:0.5;opacity:1.0;" x1="2885.5" x2="2885.5" y1="600.785" y2="720.121"/>
  <line id="right-margin-Regular-S" style="fill:none;stroke:#00AEEF;stroke-width:0.5;opacity:1.0;" x1="1495.18" x2="1495.18" y1="600.785" y2="720.121"/>
  <line id="left-margin-Regular-S" style="fill:none;stroke:#00AEEF;stroke-width:0.5;opacity:1.0;" x1="1404.51" x2="1404.51" y1="600.785" y2="720.121"/>
  <line id="right-margin-Ultralight-S" style="fill:none;stroke:#00AEEF;stroke-width:0.5;opacity:1.0;" x1="603.073" x2="603.073" y1="600.785" y2="720.121"/>
  <line id="left-margin-Ultralight-S" style="fill:none;stroke:#00AEEF;stroke-width:0.5;opacity:1.0;" x1="516.35" x2="516.35" y1="600.785" y2="720.121"/>
 </g>
 <g id="Symbols">
  <g id="Black-S"><path d="M2968.15416,659.91385l-3.00276,-1.85918c-0.02339,-0.27523 -0.04679,-0.54083 -0.07569,-0.80918l2.57616,-2.40827c0.25555,-0.23902 0.36941,-0.59314 0.30106,-0.9363c-0.06835,-0.34316 -0.30921,-0.62663 -0.63684,-0.74949l-3.30276,-1.23854c-0.07431,-0.25872 -0.14862,-0.52019 -0.22982,-0.77615l2.06423,-2.86652c0.20413,-0.28442 0.24666,-0.65418 0.11245,-0.97752c-0.13421,-0.32334 -0.42609,-0.55429 -0.77163,-0.61056l-3.49818,-0.5711c-0.12385,-0.23807 -0.24633,-0.47477 -0.37569,-0.70872l1.46973,-3.22295c0.14513,-0.31888 0.1149,-0.69015 -0.07989,-0.98135c-0.19479,-0.29121 -0.52641,-0.46087 -0.87654,-0.44847l-3.55322,0.12523c-0.16422,-0.20367 -0.32982,-0.40551 -0.49679,-0.60551l0.80918,-3.4624c0.07956,-0.34094 -0.0226,-0.6988 -0.27016,-0.94636c-0.24756,-0.24756 -0.60542,-0.34972 -0.94636,-0.27016l-3.4624,0.81606c-0.19908,-0.16789 -0.40092,-0.33349 -0.60551,-0.49679l0.12523,-3.55322c0.01489,-0.35133 -0.15377,-0.68519 -0.44541,-0.88167c-0.29164,-0.19648 -0.66439,-0.2274 -0.98441,-0.08164l-3.22295,1.47661c-0.23395,-0.12936 -0.47202,-0.25321 -0.70872,-0.37569l-0.5711,-3.49818c-0.05627,-0.34554 -0.28722,-0.63741 -0.61056,-0.77163c-0.32334,-0.13421 -0.6931,-0.09168 -0.97752,0.11245l-2.87065,2.0601c-0.25596,-0.08119 -0.51606,-0.15551 -0.77615,-0.22982l-1.23854,-3.30276c-0.12286,-0.32763 -0.40632,-0.56849 -0.74949,-0.63684c-0.34316,-0.06835 -0.69728,0.04551 -0.9363,0.30106l-2.40827,2.57616c-0.26835,-0.0289 -0.53808,-0.05229 -0.80918,-0.07569l-1.85505,-3.00552c-0.18436,-0.29791 -0.50975,-0.4792 -0.8601,-0.4792c-0.35034,0 -0.67573,0.18129 -0.8601,0.4792l-1.85918,3.00276c-0.27523,0.02339 -0.54083,0.04679 -0.80918,0.07569l-2.40827,-2.57616c-0.23902,-0.25555 -0.59314,-0.36941 -0.9363,-0.30106c-0.34316,0.06835 -0.62663,0.30921 -0.74949,0.63684l-1.23854,3.30276c-0.26009,0.07569 -0.52156,0.14862 -0.7789,0.23119l-2.86515,-2.06423c-0.28442,-0.20413 -0.65418,-0.24666 -0.97752,-0.11245c-0.32334,0.13421 -0.55429,0.42609 -0.61056,0.77163l-0.5711,3.4968c-0.23807,0.12385 -0.47477,0.24633 -0.71009,0.37569l-3.2202,-1.46285c-0.32002,-0.14576 -0.69278,-0.11485 -0.98441,0.08164c-0.29164,0.19648 -0.4603,0.53034 -0.44541,0.88167l0.12661,3.55185c-0.20505,0.16376 -0.41285,0.3289 -0.60826,0.49679l-3.46102,-0.82156c-0.34094,-0.07956 -0.6988,0.0226 -0.94636,0.27016c-0.24756,0.24756 -0.34972,0.60542 -0.27016,0.94636l0.81606,3.4624c-0.16927,0.19954 -0.3344,0.40321 -0.49817,0.60688l-3.55185,-0.12523c-0.34977,-0.01054 -0.68058,0.15876 -0.87661,0.44863c-0.19426,0.29143 -0.22393,0.66261 -0.07844,0.9812l1.46698,3.22157c-0.12936,0.23395 -0.25184,0.47202 -0.37569,0.71009l-3.4968,0.56973c-0.34554,0.05627 -0.63741,0.28722 -0.77163,0.61056c-0.13421,0.32334 -0.09168,0.6931 0.11245,0.97752l2.06423,2.86515c-0.08119,0.25734 -0.15551,0.51881 -0.23119,0.7789l-3.30276,1.23854c-0.32763,0.12286 -0.56849,0.40632 -0.63684,0.74949c-0.06835,0.34316 0.04551,0.69728 0.30106,0.9363l2.57616,2.40827c-0.0289,0.26835 -0.05229,0.53808 -0.07569,0.80918l-3.00827,1.85781c-0.29791,0.18436 -0.4792,0.50975 -0.4792,0.8601c0,0.35034 0.18129,0.67573 0.4792,0.8601l3.00276,1.85918c0.02339,0.27523 0.04679,0.53945 0.07569,0.8078l-2.57616,2.40827c-0.25555,0.23902 -0.36941,0.59314 -0.30106,0.9363c0.06835,0.34316 0.30921,0.62663 0.63684,0.74949l3.30276,1.23854c0.07569,0.26009 0.14862,0.52019 0.23119,0.77753l-2.06423,2.86652c-0.20413,0.28442 -0.24666,0.65418 -0.11245,0.97752c0.13421,0.32334 0.42609,0.55429 0.77163,0.61056l3.49818,0.5711c0.12385,0.2367 0.24633,0.47477 0.37569,0.70734l-1.46285,3.22432c-0.14549,0.31859 -0.11582,0.68977 0.07844,0.9812c0.19058,0.29596 0.52509,0.46715 0.87661,0.44863l3.5546,-0.12523c0.16239,0.20367 0.32752,0.40551 0.49541,0.60551l-0.81606,3.4624c-0.07956,0.34094 0.0226,0.6988 0.27016,0.94636c0.24756,0.24756 0.60542,0.34972 0.94636,0.27016l3.4624,-0.81606c0.2,0.16789 0.40229,0.33349 0.60688,0.49679l-0.12661,3.55322c-0.0124,0.35013 0.15726,0.68174 0.44847,0.87654c0.29121,0.19479 0.66248,0.22502 0.98135,0.07989l3.22432,-1.46973c0.23257,0.12936 0.47064,0.25184 0.70734,0.37569l0.5711,3.49818c0.05596,0.34573 0.28701,0.6378 0.61058,0.77183c0.32357,0.13403 0.69347,0.09088 0.9775,-0.11403l2.86652,-2.06423c0.25596,0.08257 0.51743,0.15551 0.77753,0.23119l1.23854,3.30276c0.12346,0.32707 0.40687,0.56734 0.74973,0.63564c0.34286,0.06829 0.6967,-0.04506 0.93606,-0.29985l2.40827,-2.57616c0.26835,0.0289 0.53945,0.05229 0.80918,0.07569l1.85918,3.00276c0.18436,0.29791 0.50975,0.4792 0.8601,0.4792c0.35034,0 0.67573,-0.18129 0.8601,-0.4792l1.85918,-3.00276c0.27523,-0.02339 0.54083,-0.04679 0.80918,-0.07706l2.40827,2.57753c0.23936,0.2548 0.5932,0.36815 0.93606,0.29985c0.34286,-0.06829 0.62626,-0.30857 0.74973,-0.63564l1.23854,-3.30276c0.26009,-0.07569 0.52019,-0.14862 0.77753,-0.23119l2.86515,2.06423c0.28403,0.2049 0.65394,0.24805 0.9775,0.11403c0.32357,-0.13403 0.55462,-0.4261 0.61058,-0.77183l0.5711,-3.49818c0.2367,-0.12385 0.47477,-0.24633 0.70872,-0.37569l3.22295,1.46973c0.31888,0.14513 0.69015,0.1149 0.98135,-0.07989c0.29121,-0.19479 0.46087,-0.52641 0.44847,-0.87654l-0.12523,-3.55322c0.20367,-0.16422 0.40551,-0.32982 0.60551,-0.49679l3.46102,0.81606c0.34094,0.07956 0.6988,-0.0226 0.94636,-0.27016c0.24756,-0.24756 0.34972,-0.60542 0.27016,-0.94636l-0.81606,-3.4624c0.16789,-0.19908 0.33349,-0.40092 0.49679,-0.60551l3.55322,0.12523c0.35091,0.01568 0.68408,-0.15483 0.87661,-0.44863c0.19471,-0.29118 0.2249,-0.66238 0.07982,-0.9812l-1.46973,-3.22295c0.12936,-0.23395 0.25184,-0.47202 0.37569,-0.70872l3.49818,-0.5711c0.34554,-0.05627 0.63741,-0.28722 0.77163,-0.61056c0.13421,-0.32334 0.09168,-0.6931 -0.11245,-0.97752l-2.06423,-2.86652c0.08119,-0.25734 0.15551,-0.51743 0.22982,-0.77753l3.30276,-1.23854c0.32763,-0.12286 0.56849,-0.40632 0.63684,-0.74949c0.06835,-0.34316 -0.04551,-0.69728 -0.30106,-0.9363l-2.57616,-2.40827c0.0289,-0.26835 0.05229,-0.53808 0.07569,-0.8078l3.00276,-1.85918c0.29791,-0.18436 0.4792,-0.50975 0.4792,-0.8601c0,-0.35034 -0.18129,-0.67573 -0.4792,-0.8601zM2947.37427,677.67722c-1.03364,-0.22192 -2.05147,0.4361 -2.2734,1.46973l-1.05138,4.90873c-6.84516,3.10086 -14.70201,3.06368 -21.51751,-0.10184l-1.05138,-4.90736c-0.10533,-0.49536 -0.40321,-0.92854 -0.82805,-1.2042c-0.42484,-0.27565 -0.94181,-0.37117 -1.4371,-0.26553l-4.33626,0.93028c-0.80428,-0.83005 -1.55184,-1.71324 -2.23762,-2.64359h21.07852c0.2367,0 0.39771,-0.03991 0.39771,-0.26285v-7.45737c0,-0.21606 -0.16101,-0.26285 -0.39771,-0.26285h-6.16929l0.00688,-4.72708h6.67159c0.60688,0 3.25598,0.17615 4.09956,3.56011c0.26285,1.03899 0.84909,4.42295 1.24679,5.50461c0.39771,1.21377 2.00918,3.6413 3.72937,3.6413h10.87848c-0.72905,0.97683 -1.52646,1.90071 -2.38625,2.76469zM2950.92061,682.42357c-0.00001,1.15739 -0.93758,2.09598 -2.09497,2.09724c-1.15739,0.00126 -2.09701,-0.93529 -2.09954,-2.09267c-0.00253,-1.15738 0.93299,-2.09803 2.09037,-2.10183h0.06055c1.13488,0.03205 2.0379,0.96192 2.03671,2.09726zM2919.87187,682.32999c-0.00076,1.15792 -0.93979,2.09613 -2.09771,2.09588c-1.15792,-0.00025 -2.09654,-0.93887 -2.0968,-2.0968c-0.00025,-1.15792 0.93795,-2.09695 2.09588,-2.09771h0.06193c1.13209,0.03714 2.03043,0.96594 2.02982,2.09863zM2907.74797,657.76706l4.51791,-2.00918c0.46358,-0.20539 0.82647,-0.58668 1.00871,-1.05983c0.18224,-0.47316 0.16888,-0.99936 -0.03715,-1.46265l-0.93165,-2.0945h3.65506v16.47667h-7.37618c-0.91067,-3.19898 -1.19478,-6.54375 -0.8367,-9.8505zM2906.19842,652.80465c-0.00036,-0.55623 0.22024,-1.08982 0.6133,-1.48339c0.39305,-0.39357 0.92635,-0.61488 1.48258,-0.61524h0.0633c1.15002,0.03246 2.05921,0.98532 2.03772,2.1356c-0.02149,1.15028 -0.96563,2.06851 -2.11606,2.05799c-1.15043,-0.01052 -2.07763,-0.94586 -2.07808,-2.09633zM2927.5508,656.17485l0.00688,-4.86057h8.70554c0.45138,0 3.17478,0.51881 3.17478,2.5624c0,1.69129 -2.09037,2.29817 -3.80919,2.29817zM2953.08255,667.75242c-1.34863,0.15551 -2.839,-0.56697 -3.02753,-1.38854c-0.79542,-4.47112 -2.1179,-5.42204 -4.2069,-7.07342c2.59542,-1.6445 5.29268,-4.07891 5.29268,-7.32939c0,-3.51194 -2.40689,-5.72342 -4.04589,-6.8092c-2.30643,-1.51377 -4.85506,-1.82065 -5.54176,-1.82065h-27.37166c3.78475,-4.2287 8.85811,-7.09162 14.43446,-8.14544l3.22983,3.38533c0.34885,0.36714 0.82972,0.57998 1.33603,0.59135c0.50632,0.01137 0.99625,-0.17968 1.36122,-0.5308l3.61378,-3.44038c7.45081,1.39568 13.91106,5.99691 17.66566,12.58216l-2.47707,5.58305c-0.41878,0.96618 0.01575,2.08959 0.97569,2.52249l4.76011,2.10964c0.14836,1.48824 0.16677,2.98657 0.05505,4.478h-2.65322c-0.26285,0 -0.37018,0.17477 -0.37018,0.43074v1.21377c-0.00275,2.85552 -1.61147,3.48579 -3.03029,3.6413zM2931.20173,633.83027c0.00227,-1.15506 0.93807,-2.09086 2.09313,-2.09313h0.06193c1.15076,0.03173 2.06084,0.98511 2.03908,2.13611c-0.02176,1.15099 -0.96723,2.0693 -2.11837,2.0575c-1.15114,-0.0118 -2.07759,-0.94928 -2.07576,-2.10048zM2958.28991,654.99411c-1.15828,0 -2.09726,-0.93897 -2.09726,-2.09726c0,-1.15828 0.93897,-2.09726 2.09726,-2.09726h0.06055c1.15828,0.01672 2.0837,0.96925 2.06698,2.12753c-0.01672,1.15828 -0.96925,2.0837 -2.12753,2.06698z" className="SFSymbolsPreviewWireframe"/></g>
  <g id="Regular-S"><path d="M1484.59911,659.91385l-3.00276,-1.85918c-0.02339,-0.27523 -0.04679,-0.54083 -0.07569,-0.80918l2.57616,-2.40827c0.25555,-0.23902 0.36941,-0.59314 0.30106,-0.9363c-0.06835,-0.34316 -0.30921,-0.62663 -0.63684,-0.74949l-3.30276,-1.23854c-0.07431,-0.25872 -0.14862,-0.52019 -0.22982,-0.77615l2.06423,-2.86652c0.20413,-0.28442 0.24666,-0.65418 0.11245,-0.97752c-0.13421,-0.32334 -0.42609,-0.55429 -0.77163,-0.61056l-3.49818,-0.5711c-0.12385,-0.23807 -0.24633,-0.47477 -0.37569,-0.70872l1.46973,-3.22295c0.14513,-0.31888 0.1149,-0.69015 -0.07989,-0.98135c-0.19479,-0.29121 -0.52641,-0.46087 -0.87654,-0.44847l-3.55322,0.12523c-0.16422,-0.20367 -0.32982,-0.40551 -0.49679,-0.60551l0.80918,-3.4624c0.07956,-0.34094 -0.0226,-0.6988 -0.27016,-0.94636c-0.24756,-0.24756 -0.60542,-0.34972 -0.94636,-0.27016l-3.4624,0.81606c-0.19908,-0.16789 -0.40092,-0.33349 -0.60551,-0.49679l0.12523,-3.55322c0.01489,-0.35133 -0.15377,-0.68519 -0.44541,-0.88167c-0.29164,-0.19648 -0.66439,-0.2274 -0.98441,-0.08164l-3.22295,1.47661c-0.23395,-0.12936 -0.47202,-0.25321 -0.70872,-0.37569l-0.5711,-3.49818c-0.05627,-0.34554 -0.28722,-0.63741 -0.61056,-0.77163c-0.32334,-0.13421 -0.6931,-0.09168 -0.97752,0.11245l-2.87065,2.0601c-0.25596,-0.08119 -0.51606,-0.15551 -0.77615,-0.22982l-1.23854,-3.30276c-0.12286,-0.32763 -0.40632,-0.56849 -0.74949,-0.63684c-0.34316,-0.06835 -0.69728,0.04551 -0.9363,0.30106l-2.40827,2.57616c-0.26835,-0.0289 -0.53808,-0.05229 -0.80918,-0.07569l-1.85505,-3.00552c-0.18436,-0.29791 -0.50975,-0.4792 -0.8601,-0.4792c-0.35034,0 -0.67573,0.18129 -0.8601,0.4792l-1.85918,3.00276c-0.27523,0.02339 -0.54083,0.04679 -0.80918,0.07569l-2.40827,-2.57616c-0.23902,-0.25555 -0.59314,-0.36941 -0.9363,-0.30106c-0.34316,0.06835 -0.62663,0.30921 -0.74949,0.63684l-1.23854,3.30276c-0.26009,0.07569 -0.52156,0.14862 -0.7789,0.23119l-2.86515,-2.06423c-0.28442,-0.20413 -0.65418,-0.24666 -0.97752,-0.11245c-0.32334,0.13421 -0.55429,0.42609 -0.61056,0.77163l-0.5711,3.4968c-0.23807,0.12385 -0.47477,0.24633 -0.71009,0.37569l-3.2202,-1.46285c-0.32002,-0.14576 -0.69278,-0.11485 -0.98441,0.08164c-0.29164,0.19648 -0.4603,0.53034 -0.44541,0.88167l0.12661,3.55185c-0.20505,0.16376 -0.41285,0.3289 -0.60826,0.49679l-3.46102,-0.82156c-0.34094,-0.07956 -0.6988,0.0226 -0.94636,0.27016c-0.24756,0.24756 -0.34972,0.60542 -0.27016,0.94636l0.81606,3.4624c-0.16927,0.19954 -0.3344,0.40321 -0.49817,0.60688l-3.55185,-0.12523c-0.34977,-0.01054 -0.68058,0.15876 -0.87661,0.44863c-0.19426,0.29143 -0.22393,0.66261 -0.07844,0.9812l1.46698,3.22157c-0.12936,0.23395 -0.25184,0.47202 -0.37569,0.71009l-3.4968,0.56973c-0.34554,0.05627 -0.63741,0.28722 -0.77163,0.61056c-0.13421,0.32334 -0.09168,0.6931 0.11245,0.97752l2.06423,2.86515c-0.08119,0.25734 -0.15551,0.51881 -0.23119,0.7789l-3.30276,1.23854c-0.32763,0.12286 -0.56849,0.40632 -0.63684,0.74949c-0.06835,0.34316 0.04551,0.69728 0.30106,0.9363l2.57616,2.40827c-0.0289,0.26835 -0.05229,0.53808 -0.07569,0.80918l-3.00827,1.85781c-0.29791,0.18436 -0.4792,0.50975 -0.4792,0.8601c0,0.35034 0.18129,0.67573 0.4792,0.8601l3.00276,1.85918c0.02339,0.27523 0.04679,0.53945 0.07569,0.8078l-2.57616,2.40827c-0.25555,0.23902 -0.36941,0.59314 -0.30106,0.9363c0.06835,0.34316 0.30921,0.62663 0.63684,0.74949l3.30276,1.23854c0.07569,0.26009 0.14862,0.52019 0.23119,0.77753l-2.06423,2.86652c-0.20413,0.28442 -0.24666,0.65418 -0.11245,0.97752c0.13421,0.32334 0.42609,0.55429 0.77163,0.61056l3.49818,0.5711c0.12385,0.2367 0.24633,0.47477 0.37569,0.70734l-1.46285,3.22432c-0.14549,0.31859 -0.11582,0.68977 0.07844,0.9812c0.19058,0.29596 0.52509,0.46715 0.87661,0.44863l3.5546,-0.12523c0.16239,0.20367 0.32752,0.40551 0.49541,0.60551l-0.81606,3.4624c-0.07956,0.34094 0.0226,0.6988 0.27016,0.94636c0.24756,0.24756 0.60542,0.34972 0.94636,0.27016l3.4624,-0.81606c0.2,0.16789 0.40229,0.33349 0.60688,0.49679l-0.12661,3.55322c-0.0124,0.35013 0.15726,0.68174 0.44847,0.87654c0.29121,0.19479 0.66248,0.22502 0.98135,0.07989l3.22432,-1.46973c0.23257,0.12936 0.47064,0.25184 0.70734,0.37569l0.5711,3.49818c0.05596,0.34573 0.28701,0.6378 0.61058,0.77183c0.32357,0.13403 0.69347,0.09088 0.9775,-0.11403l2.86652,-2.06423c0.25596,0.08257 0.51743,0.15551 0.77753,0.23119l1.23854,3.30276c0.12346,0.32707 0.40687,0.56734 0.74973,0.63564c0.34286,0.06829 0.6967,-0.04506 0.93606,-0.29985l2.40827,-2.57616c0.26835,0.0289 0.53945,0.05229 0.80918,0.07569l1.85918,3.00276c0.18436,0.29791 0.50975,0.4792 0.8601,0.4792c0.35034,0 0.67573,-0.18129 0.8601,-0.4792l1.85918,-3.00276c0.27523,-0.02339 0.54083,-0.04679 0.80918,-0.07706l2.40827,2.57753c0.23936,0.2548 0.5932,0.36815 0.93606,0.29985c0.34286,-0.06829 0.62626,-0.30857 0.74973,-0.63564l1.23854,-3.30276c0.26009,-0.07569 0.52019,-0.14862 0.77753,-0.23119l2.86515,2.06423c0.28403,0.2049 0.65394,0.24805 0.9775,0.11403c0.32357,-0.13403 0.55462,-0.4261 0.61058,-0.77183l0.5711,-3.49818c0.2367,-0.12385 0.47477,-0.24633 0.70872,-0.37569l3.22295,1.46973c0.31888,0.14513 0.69015,0.1149 0.98135,-0.07989c0.29121,-0.19479 0.46087,-0.52641 0.44847,-0.87654l-0.12523,-3.55322c0.20367,-0.16422 0.40551,-0.32982 0.60551,-0.49679l3.46102,0.81606c0.34094,0.07956 0.6988,-0.0226 0.94636,-0.27016c0.24756,-0.24756 0.34972,-0.60542 0.27016,-0.94636l-0.81606,-3.4624c0.16789,-0.19908 0.33349,-0.40092 0.49679,-0.60551l3.55322,0.12523c0.35091,0.01568 0.68408,-0.15483 0.87661,-0.44863c0.19471,-0.29118 0.2249,-0.66238 0.07982,-0.9812l-1.46973,-3.22295c0.12936,-0.23395 0.25184,-0.47202 0.37569,-0.70872l3.49818,-0.5711c0.34554,-0.05627 0.63741,-0.28722 0.77163,-0.61056c0.13421,-0.32334 0.09168,-0.6931 -0.11245,-0.97752l-2.06423,-2.86652c0.08119,-0.25734 0.15551,-0.51743 0.22982,-0.77753l3.30276,-1.23854c0.32763,-0.12286 0.56849,-0.40632 0.63684,-0.74949c0.06835,-0.34316 -0.04551,-0.69728 -0.30106,-0.9363l-2.57616,-2.40827c0.0289,-0.26835 0.05229,-0.53808 0.07569,-0.8078l3.00276,-1.85918c0.29791,-0.18436 0.4792,-0.50975 0.4792,-0.8601c0,-0.35034 -0.18129,-0.67573 -0.4792,-0.8601zM1463.81922,677.67722c-1.03364,-0.22192 -2.05147,0.4361 -2.2734,1.46973l-1.05138,4.90873c-6.84516,3.10086 -14.70201,3.06368 -21.51751,-0.10184l-1.05138,-4.90736c-0.10533,-0.49536 -0.40321,-0.92854 -0.82805,-1.2042c-0.42484,-0.27565 -0.94181,-0.37117 -1.4371,-0.26553l-4.33626,0.93028c-0.80428,-0.83005 -1.55184,-1.71324 -2.23762,-2.64359h21.07852c0.2367,0 0.39771,-0.03991 0.39771,-0.26285v-7.45737c0,-0.21606 -0.16101,-0.26285 -0.39771,-0.26285h-6.16929l0.00688,-4.72708h6.67159c0.60688,0 3.25598,0.17615 4.09956,3.56011c0.26285,1.03899 0.84909,4.42295 1.24679,5.50461c0.39771,1.21377 2.00918,3.6413 3.72937,3.6413h10.87848c-0.72905,0.97683 -1.52646,1.90071 -2.38625,2.76469zM1467.36556,682.42357c-0.00001,1.15739 -0.93758,2.09598 -2.09497,2.09724c-1.15739,0.00126 -2.09701,-0.93529 -2.09954,-2.09267c-0.00253,-1.15738 0.93299,-2.09803 2.09037,-2.10183h0.06055c1.13488,0.03205 2.0379,0.96192 2.03671,2.09726zM1436.31682,682.32999c-0.00076,1.15792 -0.93979,2.09613 -2.09771,2.09588c-1.15792,-0.00025 -2.09654,-0.93887 -2.0968,-2.0968c-0.00025,-1.15792 0.93795,-2.09695 2.09588,-2.09771h0.06193c1.13209,0.03714 2.03043,0.96594 2.02982,2.09863zM1424.19292,657.76706l4.51791,-2.00918c0.46358,-0.20539 0.82647,-0.58668 1.00871,-1.05983c0.18224,-0.47316 0.16888,-0.99936 -0.03715,-1.46265l-0.93165,-2.0945h3.65506v16.47667h-7.37618c-0.91067,-3.19898 -1.19478,-6.54375 -0.8367,-9.8505zM1422.64337,652.80465c-0.00036,-0.55623 0.22024,-1.08982 0.6133,-1.48339c0.39305,-0.39357 0.92635,-0.61488 1.48258,-0.61524h0.0633c1.15002,0.03246 2.05921,0.98532 2.03772,2.1356c-0.02149,1.15028 -0.96563,2.06851 -2.11606,2.05799c-1.15043,-0.01052 -2.07763,-0.94586 -2.07808,-2.09633zM1443.99575,656.17485l0.00688,-4.86057h8.70554c0.45138,0 3.17478,0.51881 3.17478,2.5624c0,1.69129 -2.09037,2.29817 -3.80919,2.29817zM1469.5275,667.75242c-1.34863,0.15551 -2.839,-0.56697 -3.02753,-1.38854c-0.79542,-4.47112 -2.1179,-5.42204 -4.2069,-7.07342c2.59542,-1.6445 5.29268,-4.07891 5.29268,-7.32939c0,-3.51194 -2.40689,-5.72342 -4.04589,-6.8092c-2.30643,-1.51377 -4.85506,-1.82065 -5.54176,-1.82065h-27.37166c3.78475,-4.2287 8.85811,-7.09162 14.43446,-8.14544l3.22983,3.38533c0.34885,0.36714 0.82972,0.57998 1.33603,0.59135c0.50632,0.01137 0.99625,-0.17968 1.36122,-0.5308l3.61378,-3.44038c7.45081,1.39568 13.91106,5.99691 17.66566,12.58216l-2.47707,5.58305c-0.41878,0.96618 0.01575,2.08959 0.97569,2.52249l4.76011,2.10964c0.14836,1.48824 0.16677,2.98657 0.05505,4.478h-2.65322c-0.26285,0 -0.37018,0.17477 -0.37018,0.43074v1.21377c-0.00275,2.85552 -1.61147,3.48579 -3.03029,3.6413zM1447.64668,633.83027c0.00227,-1.15506 0.93807,-2.09086 2.09313,-2.09313h0.06193c1.15076,0.03173 2.06084,0.98511 2.03908,2.13611c-0.02176,1.15099 -0.96723,2.0693 -2.11837,2.0575c-1.15114,-0.0118 -2.07759,-0.94928 -2.07576,-2.10048zM1474.73486,654.99411c-1.15828,0 -2.09726,-0.93897 -2.09726,-2.09726c0,-1.15828 0.93897,-2.09726 2.09726,-2.09726h0.06055c1.15828,0.01672 2.0837,0.96925 2.06698,2.12753c-0.01672,1.15828 -0.96925,2.0837 -2.12753,2.06698z" className="SFSymbolsPreviewWireframe"/></g>
  <g id="Ultralight-S"><path d="M594.46552,659.91385l-3.00276,-1.85918c-0.02339,-0.27523 -0.04679,-0.54083 -0.07569,-0.80918l2.57616,-2.40827c0.25555,-0.23902 0.36941,-0.59314 0.30106,-0.9363c-0.06835,-0.34316 -0.30921,-0.62663 -0.63684,-0.74949l-3.30276,-1.23854c-0.07431,-0.25872 -0.14862,-0.52019 -0.22982,-0.77615l2.06423,-2.86652c0.20413,-0.28442 0.24666,-0.65418 0.11245,-0.97752c-0.13421,-0.32334 -0.42609,-0.55429 -0.77163,-0.61056l-3.49818,-0.5711c-0.12385,-0.23807 -0.24633,-0.47477 -0.37569,-0.70872l1.46973,-3.22295c0.14513,-0.31888 0.1149,-0.69015 -0.07989,-0.98135c-0.19479,-0.29121 -0.52641,-0.46087 -0.87654,-0.44847l-3.55322,0.12523c-0.16422,-0.20367 -0.32982,-0.40551 -0.49679,-0.60551l0.80918,-3.4624c0.07956,-0.34094 -0.0226,-0.6988 -0.27016,-0.94636c-0.24756,-0.24756 -0.60542,-0.34972 -0.94636,-0.27016l-3.4624,0.81606c-0.19908,-0.16789 -0.40092,-0.33349 -0.60551,-0.49679l0.12523,-3.55322c0.01489,-0.35133 -0.15377,-0.68519 -0.44541,-0.88167c-0.29164,-0.19648 -0.66439,-0.2274 -0.98441,-0.08164l-3.22295,1.47661c-0.23395,-0.12936 -0.47202,-0.25321 -0.70872,-0.37569l-0.5711,-3.49818c-0.05627,-0.34554 -0.28722,-0.63741 -0.61056,-0.77163c-0.32334,-0.13421 -0.6931,-0.09168 -0.97752,0.11245l-2.87065,2.0601c-0.25596,-0.08119 -0.51606,-0.15551 -0.77615,-0.22982l-1.23854,-3.30276c-0.12286,-0.32763 -0.40632,-0.56849 -0.74949,-0.63684c-0.34316,-0.06835 -0.69728,0.04551 -0.9363,0.30106l-2.40827,2.57616c-0.26835,-0.0289 -0.53808,-0.05229 -0.80918,-0.07569l-1.85505,-3.00552c-0.18436,-0.29791 -0.50975,-0.4792 -0.8601,-0.4792c-0.35034,0 -0.67573,0.18129 -0.8601,0.4792l-1.85918,3.00276c-0.27523,0.02339 -0.54083,0.04679 -0.80918,0.07569l-2.40827,-2.57616c-0.23902,-0.25555 -0.59314,-0.36941 -0.9363,-0.30106c-0.34316,0.06835 -0.62663,0.30921 -0.74949,0.63684l-1.23854,3.30276c-0.26009,0.07569 -0.52156,0.14862 -0.7789,0.23119l-2.86515,-2.06423c-0.28442,-0.20413 -0.65418,-0.24666 -0.97752,-0.11245c-0.32334,0.13421 -0.55429,0.42609 -0.61056,0.77163l-0.5711,3.4968c-0.23807,0.12385 -0.47477,0.24633 -0.71009,0.37569l-3.2202,-1.46285c-0.32002,-0.14576 -0.69278,-0.11485 -0.98441,0.08164c-0.29164,0.19648 -0.4603,0.53034 -0.44541,0.88167l0.12661,3.55185c-0.20505,0.16376 -0.41285,0.3289 -0.60826,0.49679l-3.46102,-0.82156c-0.34094,-0.07956 -0.6988,0.0226 -0.94636,0.27016c-0.24756,0.24756 -0.34972,0.60542 -0.27016,0.94636l0.81606,3.4624c-0.16927,0.19954 -0.3344,0.40321 -0.49817,0.60688l-3.55185,-0.12523c-0.34977,-0.01054 -0.68058,0.15876 -0.87661,0.44863c-0.19426,0.29143 -0.22393,0.66261 -0.07844,0.9812l1.46698,3.22157c-0.12936,0.23395 -0.25184,0.47202 -0.37569,0.71009l-3.4968,0.56973c-0.34554,0.05627 -0.63741,0.28722 -0.77163,0.61056c-0.13421,0.32334 -0.09168,0.6931 0.11245,0.97752l2.06423,2.86515c-0.08119,0.25734 -0.15551,0.51881 -0.23119,0.7789l-3.30276,1.23854c-0.32763,0.12286 -0.56849,0.40632 -0.63684,0.74949c-0.06835,0.34316 0.04551,0.69728 0.30106,0.9363l2.57616,2.40827c-0.0289,0.26835 -0.05229,0.53808 -0.07569,0.80918l-3.00827,1.85781c-0.29791,0.18436 -0.4792,0.50975 -0.4792,0.8601c0,0.35034 0.18129,0.67573 0.4792,0.8601l3.00276,1.85918c0.02339,0.27523 0.04679,0.53945 0.07569,0.8078l-2.57616,2.40827c-0.25555,0.23902 -0.36941,0.59314 -0.30106,0.9363c0.06835,0.34316 0.30921,0.62663 0.63684,0.74949l3.30276,1.23854c0.07569,0.26009 0.14862,0.52019 0.23119,0.77753l-2.06423,2.86652c-0.20413,0.28442 -0.24666,0.65418 -0.11245,0.97752c0.13421,0.32334 0.42609,0.55429 0.77163,0.61056l3.49818,0.5711c0.12385,0.2367 0.24633,0.47477 0.37569,0.70734l-1.46285,3.22432c-0.14549,0.31859 -0.11582,0.68977 0.07844,0.9812c0.19058,0.29596 0.52509,0.46715 0.87661,0.44863l3.5546,-0.12523c0.16239,0.20367 0.32752,0.40551 0.49541,0.60551l-0.81606,3.4624c-0.07956,0.34094 0.0226,0.6988 0.27016,0.94636c0.24756,0.24756 0.60542,0.34972 0.94636,0.27016l3.4624,-0.81606c0.2,0.16789 0.40229,0.33349 0.60688,0.49679l-0.12661,3.55322c-0.0124,0.35013 0.15726,0.68174 0.44847,0.87654c0.29121,0.19479 0.66248,0.22502 0.98135,0.07989l3.22432,-1.46973c0.23257,0.12936 0.47064,0.25184 0.70734,0.37569l0.5711,3.49818c0.05596,0.34573 0.28701,0.6378 0.61058,0.77183c0.32357,0.13403 0.69347,0.09088 0.9775,-0.11403l2.86652,-2.06423c0.25596,0.08257 0.51743,0.15551 0.77753,0.23119l1.23854,3.30276c0.12346,0.32707 0.40687,0.56734 0.74973,0.63564c0.34286,0.06829 0.6967,-0.04506 0.93606,-0.29985l2.40827,-2.57616c0.26835,0.0289 0.53945,0.05229 0.80918,0.07569l1.85918,3.00276c0.18436,0.29791 0.50975,0.4792 0.8601,0.4792c0.35034,0 0.67573,-0.18129 0.8601,-0.4792l1.85918,-3.00276c0.27523,-0.02339 0.54083,-0.04679 0.80918,-0.07706l2.40827,2.57753c0.23936,0.2548 0.5932,0.36815 0.93606,0.29985c0.34286,-0.06829 0.62626,-0.30857 0.74973,-0.63564l1.23854,-3.30276c0.26009,-0.07569 0.52019,-0.14862 0.77753,-0.23119l2.86515,2.06423c0.28403,0.2049 0.65394,0.24805 0.9775,0.11403c0.32357,-0.13403 0.55462,-0.4261 0.61058,-0.77183l0.5711,-3.49818c0.2367,-0.12385 0.47477,-0.24633 0.70872,-0.37569l3.22295,1.46973c0.31888,0.14513 0.69015,0.1149 0.98135,-0.07989c0.29121,-0.19479 0.46087,-0.52641 0.44847,-0.87654l-0.12523,-3.55322c0.20367,-0.16422 0.40551,-0.32982 0.60551,-0.49679l3.46102,0.81606c0.34094,0.07956 0.6988,-0.0226 0.94636,-0.27016c0.24756,-0.24756 0.34972,-0.60542 0.27016,-0.94636l-0.81606,-3.4624c0.16789,-0.19908 0.33349,-0.40092 0.49679,-0.60551l3.55322,0.12523c0.35091,0.01568 0.68408,-0.15483 0.87661,-0.44863c0.19471,-0.29118 0.2249,-0.66238 0.07982,-0.9812l-1.46973,-3.22295c0.12936,-0.23395 0.25184,-0.47202 0.37569,-0.70872l3.49818,-0.5711c0.34554,-0.05627 0.63741,-0.28722 0.77163,-0.61056c0.13421,-0.32334 0.09168,-0.6931 -0.11245,-0.97752l-2.06423,-2.86652c0.08119,-0.25734 0.15551,-0.51743 0.22982,-0.77753l3.30276,-1.23854c0.32763,-0.12286 0.56849,-0.40632 0.63684,-0.74949c0.06835,-0.34316 -0.04551,-0.69728 -0.30106,-0.9363l-2.57616,-2.40827c0.0289,-0.26835 0.05229,-0.53808 0.07569,-0.8078l3.00276,-1.85918c0.29791,-0.18436 0.4792,-0.50975 0.4792,-0.8601c0,-0.35034 -0.18129,-0.67573 -0.4792,-0.8601zM573.68563,677.67722c-1.03364,-0.22192 -2.05147,0.4361 -2.2734,1.46973l-1.05138,4.90873c-6.84516,3.10086 -14.70201,3.06368 -21.51751,-0.10184l-1.05138,-4.90736c-0.10533,-0.49536 -0.40321,-0.92854 -0.82805,-1.2042c-0.42484,-0.27565 -0.94181,-0.37117 -1.4371,-0.26553l-4.33626,0.93028c-0.80428,-0.83005 -1.55184,-1.71324 -2.23762,-2.64359h21.07852c0.2367,0 0.39771,-0.03991 0.39771,-0.26285v-7.45737c0,-0.21606 -0.16101,-0.26285 -0.39771,-0.26285h-6.16929l0.00688,-4.72708h6.67159c0.60688,0 3.25598,0.17615 4.09956,3.56011c0.26285,1.03899 0.84909,4.42295 1.24679,5.50461c0.39771,1.21377 2.00918,3.6413 3.72937,3.6413h10.87848c-0.72905,0.97683 -1.52646,1.90071 -2.38625,2.76469zM577.23197,682.42357c-0.00001,1.15739 -0.93758,2.09598 -2.09497,2.09724c-1.15739,0.00126 -2.09701,-0.93529 -2.09954,-2.09267c-0.00253,-1.15738 0.93299,-2.09803 2.09037,-2.10183h0.06055c1.13488,0.03205 2.0379,0.96192 2.03671,2.09726zM546.18323,682.32999c-0.00076,1.15792 -0.93979,2.09613 -2.09771,2.09588c-1.15792,-0.00025 -2.09654,-0.93887 -2.0968,-2.0968c-0.00025,-1.15792 0.93795,-2.09695 2.09588,-2.09771h0.06193c1.13209,0.03714 2.03043,0.96594 2.02982,2.09863zM534.05933,657.76706l4.51791,-2.00918c0.46358,-0.20539 0.82647,-0.58668 1.00871,-1.05983c0.18224,-0.47316 0.16888,-0.99936 -0.03715,-1.46265l-0.93165,-2.0945h3.65506v16.47667h-7.37618c-0.91067,-3.19898 -1.19478,-6.54375 -0.8367,-9.8505zM532.50978,652.80465c-0.00036,-0.55623 0.22024,-1.08982 0.6133,-1.48339c0.39305,-0.39357 0.92635,-0.61488 1.48258,-0.61524h0.0633c1.15002,0.03246 2.05921,0.98532 2.03772,2.1356c-0.02149,1.15028 -0.96563,2.06851 -2.11606,2.05799c-1.15043,-0.01052 -2.07763,-0.94586 -2.07808,-2.09633zM553.86216,656.17485l0.00688,-4.86057h8.70554c0.45138,0 3.17478,0.51881 3.17478,2.5624c0,1.69129 -2.09037,2.29817 -3.80919,2.29817zM579.39391,667.75242c-1.34863,0.15551 -2.839,-0.56697 -3.02753,-1.38854c-0.79542,-4.47112 -2.1179,-5.42204 -4.2069,-7.07342c2.59542,-1.6445 5.29268,-4.07891 5.29268,-7.32939c0,-3.51194 -2.40689,-5.72342 -4.04589,-6.8092c-2.30643,-1.51377 -4.85506,-1.82065 -5.54176,-1.82065h-27.37166c3.78475,-4.2287 8.85811,-7.09162 14.43446,-8.14544l3.22983,3.38533c0.34885,0.36714 0.82972,0.57998 1.33603,0.59135c0.50632,0.01137 0.99625,-0.17968 1.36122,-0.5308l3.61378,-3.44038c7.45081,1.39568 13.91106,5.99691 17.66566,12.58216l-2.47707,5.58305c-0.41878,0.96618 0.01575,2.08959 0.97569,2.52249l4.76011,2.10964c0.14836,1.48824 0.16677,2.98657 0.05505,4.478h-2.65322c-0.26285,0 -0.37018,0.17477 -0.37018,0.43074v1.21377c-0.00275,2.85552 -1.61147,3.48579 -3.03029,3.6413zM557.51309,633.83027c0.00227,-1.15506 0.93807,-2.09086 2.09313,-2.09313h0.06193c1.15076,0.03173 2.06084,0.98511 2.03908,2.13611c-0.02176,1.15099 -0.96723,2.0693 -2.11837,2.0575c-1.15114,-0.0118 -2.07759,-0.94928 -2.07576,-2.10048zM584.60127,654.99411c-1.15828,0 -2.09726,-0.93897 -2.09726,-2.09726c0,-1.15828 0.93897,-2.09726 2.09726,-2.09726h0.06055c1.15828,0.01672 2.0837,0.96925 2.06698,2.12753c-0.01672,1.15828 -0.96925,2.0837 -2.12753,2.06698z" className="SFSymbolsPreviewWireframe"/></g>
 </g>
</svg>