<?xml version="1.0" encoding="UTF-8"?><!--Generator: https://SymbolKit.app--><!DOCTYPE svg PUBLIC "-//W3C//DTD SVG 1.1//EN" "http://www.w3.org/Graphics/SVG/1.1/DTD/svg11.dtd"><svg xmlns="http://www.w3.org/2000/svg" xmlns:xlink="http://www.w3.org/1999/xlink" version="1.1" viewBox="0 0 3300 2200">
 <!--glyph: "100092", point size: 100.0, font version: "20.0d10e1", template writer version: "138.0.0"-->
 <style>.SFSymbolsPreviewWireframe {fill:none;opacity:1.0;stroke:black;stroke-width:0.5}
</style>
 <g id="Notes">
  <rect height="2200" id="artboard" style="fill:white;opacity:1" width="3300" x="0" y="0"/>
  <line style="fill:none;stroke:black;opacity:1;stroke-width:0.5;" x1="263" x2="3036" y1="292" y2="292"/>
  <text style="stroke:none;fill:black;font-family:sans-serif;font-size:13;font-weight:bold;" transform="matrix(1 0 0 1 263 322)">Weight/Scale Variations</text>
  <text style="stroke:none;fill:black;font-family:sans-serif;font-size:13;text-anchor:middle;" transform="matrix(1 0 0 1 559.711 322)">Ultralight</text>
  <text style="stroke:none;fill:black;font-family:sans-serif;font-size:13;text-anchor:middle;" transform="matrix(1 0 0 1 856.422 322)">Thin</text>
  <text style="stroke:none;fill:black;font-family:sans-serif;font-size:13;text-anchor:middle;" transform="matrix(1 0 0 1 1153.13 322)">Light</text>
  <text style="stroke:none;fill:black;font-family:sans-serif;font-size:13;text-anchor:middle;" transform="matrix(1 0 0 1 1449.84 322)">Regular</text>
  <text style="stroke:none;fill:black;font-family:sans-serif;font-size:13;text-anchor:middle;" transform="matrix(1 0 0 1 1746.56 322)">Medium</text>
  <text style="stroke:none;fill:black;font-family:sans-serif;font-size:13;text-anchor:middle;" transform="matrix(1 0 0 1 2043.27 322)">Semibold</text>
  <text style="stroke:none;fill:black;font-family:sans-serif;font-size:13;text-anchor:middle;" transform="matrix(1 0 0 1 2339.98 322)">Bold</text>
  <text style="stroke:none;fill:black;font-family:sans-serif;font-size:13;text-anchor:middle;" transform="matrix(1 0 0 1 2636.69 322)">Heavy</text>
  <text style="stroke:none;fill:black;font-family:sans-serif;font-size:13;text-anchor:middle;" transform="matrix(1 0 0 1 2933.4 322)">Black</text>
  <line style="fill:none;stroke:black;opacity:1;stroke-width:0.5;" x1="263" x2="3036" y1="1903" y2="1903"/>
  <g transform="matrix(0.2 0 0 0.2 263 1933)">
   <path d="m46.2402 4.15039c21.7773 0 39.4531-17.627 39.4531-39.4043s-17.6758-39.4043-39.4531-39.4043c-21.7285 0-39.4043 17.627-39.4043 39.4043s17.6758 39.4043 39.4043 39.4043Zm0-7.42188c-17.6758 0-31.9336-14.3066-31.9336-31.9824s14.2578-31.9824 31.9336-31.9824 31.9824 14.3066 31.9824 31.9824-14.3066 31.9824-31.9824 31.9824Zm-17.9688-31.9824c0 2.14844 1.51367 3.61328 3.75977 3.61328h10.498v10.5957c0 2.19727 1.46484 3.71094 3.61328 3.71094 2.24609 0 3.71094-1.51367 3.71094-3.71094v-10.5957h10.5957c2.19727 0 3.71094-1.46484 3.71094-3.61328 0-2.19727-1.51367-3.71094-3.71094-3.71094h-10.5957v-10.5469c0-2.24609-1.46484-3.75977-3.71094-3.75977-2.14844 0-3.61328 1.51367-3.61328 3.75977v10.5469h-10.498c-2.24609 0-3.75977 1.51367-3.75977 3.71094Z"/>
  </g>
  <g transform="matrix(0.2 0 0 0.2 281.506 1933)">
   <path d="m58.5449 14.5508c27.4902 0 49.8047-22.3145 49.8047-49.8047s-22.3145-49.8047-49.8047-49.8047-49.8047 22.3145-49.8047 49.8047 22.3145 49.8047 49.8047 49.8047Zm0-8.30078c-22.9492 0-41.5039-18.5547-41.5039-41.5039s18.5547-41.5039 41.5039-41.5039 41.5039 18.5547 41.5039 41.5039-18.5547 41.5039-41.5039 41.5039Zm-22.6562-41.5039c0 2.39258 1.66016 4.00391 4.15039 4.00391h14.3555v14.4043c0 2.44141 1.66016 4.15039 4.05273 4.15039 2.44141 0 4.15039-1.66016 4.15039-4.15039v-14.4043h14.4043c2.44141 0 4.15039-1.61133 4.15039-4.00391 0-2.44141-1.70898-4.15039-4.15039-4.15039h-14.4043v-14.3555c0-2.49023-1.70898-4.19922-4.15039-4.19922-2.39258 0-4.05273 1.70898-4.05273 4.19922v14.3555h-14.3555c-2.49023 0-4.15039 1.70898-4.15039 4.15039Z"/>
  </g>
  <g transform="matrix(0.2 0 0 0.2 304.924 1933)">
   <path d="m74.8535 28.3203c35.1074 0 63.623-28.4668 63.623-63.5742s-28.5156-63.623-63.623-63.623-63.5742 28.5156-63.5742 63.623 28.4668 63.5742 63.5742 63.5742Zm0-9.08203c-30.127 0-54.4922-24.3652-54.4922-54.4922s24.3652-54.4922 54.4922-54.4922 54.4922 24.3652 54.4922 54.4922-24.3652 54.4922-54.4922 54.4922Zm-28.8574-54.4922c0 2.58789 1.85547 4.39453 4.58984 4.39453h19.7266v19.7754c0 2.68555 1.85547 4.58984 4.44336 4.58984 2.68555 0 4.54102-1.85547 4.54102-4.58984v-19.7754h19.7754c2.68555 0 4.58984-1.80664 4.58984-4.39453 0-2.73438-1.85547-4.58984-4.58984-4.58984h-19.7754v-19.7266c0-2.73438-1.85547-4.63867-4.54102-4.63867-2.58789 0-4.44336 1.9043-4.44336 4.63867v19.7266h-19.7266c-2.73438 0-4.58984 1.85547-4.58984 4.58984Z"/>
  </g>
  <text style="stroke:none;fill:black;font-family:sans-serif;font-size:13;font-weight:bold;" transform="matrix(1 0 0 1 263 1953)">Design Variations</text>
  <text style="stroke:none;fill:black;font-family:sans-serif;font-size:13;" transform="matrix(1 0 0 1 263 1971)">Symbols are supported in up to nine weights and three scales.</text>
  <text style="stroke:none;fill:black;font-family:sans-serif;font-size:13;" transform="matrix(1 0 0 1 263 1989)">For optimal layout with text and other symbols, vertically align</text>
  <text style="stroke:none;fill:black;font-family:sans-serif;font-size:13;" transform="matrix(1 0 0 1 263 2007)">symbols with the adjacent text.</text>
  <line style="fill:none;stroke:#00AEEF;stroke-width:0.5;opacity:1.0;" x1="776" x2="776" y1="1919" y2="1933"/>
  <g transform="matrix(0.2 0 0 0.2 776 1933)">
   <path d="m16.5527 0.78125c2.58789 0 3.85742-0.976562 4.78516-3.71094l6.29883-17.2363h28.8086l6.29883 17.2363c0.927734 2.73438 2.19727 3.71094 4.73633 3.71094 2.58789 0 4.24805-1.5625 4.24805-4.00391 0-0.830078-0.146484-1.61133-0.537109-2.63672l-22.9004-60.9863c-1.12305-2.97852-3.125-4.49219-6.25-4.49219-3.02734 0-5.07812 1.46484-6.15234 4.44336l-22.9004 61.084c-0.390625 1.02539-0.537109 1.80664-0.537109 2.63672 0 2.44141 1.5625 3.95508 4.10156 3.95508Zm13.4766-28.3691 11.8652-32.8613h0.244141l11.8652 32.8613Z"/>
  </g>
  <line style="fill:none;stroke:#00AEEF;stroke-width:0.5;opacity:1.0;" x1="792.836" x2="792.836" y1="1919" y2="1933"/>
  <text style="stroke:none;fill:black;font-family:sans-serif;font-size:13;font-weight:bold;" transform="matrix(1 0 0 1 776 1953)">Margins</text>
  <text style="stroke:none;fill:black;font-family:sans-serif;font-size:13;" transform="matrix(1 0 0 1 776 1971)">Leading and trailing margins on the left and right side of each symbol</text>
  <text style="stroke:none;fill:black;font-family:sans-serif;font-size:13;" transform="matrix(1 0 0 1 776 1989)">can be adjusted by modifying the x-location of the margin guidelines.</text>
  <text style="stroke:none;fill:black;font-family:sans-serif;font-size:13;" transform="matrix(1 0 0 1 776 2007)">Modifications are automatically applied proportionally to all</text>
  <text style="stroke:none;fill:black;font-family:sans-serif;font-size:13;" transform="matrix(1 0 0 1 776 2025)">scales and weights.</text>
  <g transform="matrix(0.2 0 0 0.2 1289 1933)">
   <path d="m14.209 9.32617 8.49609 8.54492c4.29688 4.3457 9.22852 4.05273 13.8672-1.07422l53.4668-58.9355-4.83398-4.88281-53.0762 58.3984c-1.75781 2.00195-3.41797 2.49023-5.76172 0.146484l-5.85938-5.81055c-2.34375-2.29492-1.80664-4.00391 0.195312-5.81055l57.373-54.0039-4.88281-4.83398-57.959 54.4434c-4.93164 4.58984-5.32227 9.47266-1.02539 13.8184Zm32.0801-90.9668c-2.09961 2.05078-2.24609 4.93164-1.07422 6.88477 1.17188 1.80664 3.4668 2.97852 6.68945 2.14844 7.32422-1.70898 14.9414-2.00195 22.0703 2.68555l-2.92969 7.27539c-1.70898 4.15039-0.830078 7.08008 1.85547 9.81445l11.4746 11.5723c2.44141 2.44141 4.49219 2.53906 7.32422 2.05078l5.32227-0.976562 3.32031 3.36914-0.195312 2.7832c-0.195312 2.49023 0.439453 4.39453 2.88086 6.78711l3.80859 3.71094c2.39258 2.39258 5.46875 2.53906 7.8125 0.195312l14.5508-14.5996c2.34375-2.34375 2.24609-5.32227-0.146484-7.71484l-3.85742-3.80859c-2.39258-2.39258-4.24805-3.17383-6.64062-2.97852l-2.88086 0.244141-3.22266-3.17383 1.2207-5.61523c0.634766-2.83203-0.146484-5.0293-3.07617-7.95898l-10.9863-10.9375c-16.6992-16.6016-38.8672-16.2109-53.3203-1.75781Zm7.4707 1.85547c12.1582-8.88672 28.6133-7.37305 39.7461 3.75977l12.1582 12.0605c1.17188 1.17188 1.36719 2.09961 1.02539 3.80859l-1.61133 7.42188 7.51953 7.42188 4.93164-0.292969c1.26953-0.0488281 1.66016 0.0488281 2.63672 1.02539l2.88086 2.88086-12.207 12.207-2.88086-2.88086c-0.976562-0.976562-1.12305-1.36719-1.07422-2.68555l0.341797-4.88281-7.4707-7.42188-7.61719 1.26953c-1.61133 0.341797-2.34375 0.195312-3.56445-0.976562l-10.0098-10.0098c-1.26953-1.17188-1.41602-2.00195-0.634766-3.85742l4.39453-10.4492c-7.8125-7.27539-17.9688-10.4004-28.125-7.42188-0.78125 0.195312-1.07422-0.439453-0.439453-0.976562Z"/>
  </g>
  <text style="stroke:none;fill:black;font-family:sans-serif;font-size:13;font-weight:bold;" transform="matrix(1 0 0 1 1289 1953)">Exporting</text>
  <text style="stroke:none;fill:black;font-family:sans-serif;font-size:13;" transform="matrix(1 0 0 1 1289 1971)">Symbols should be outlined when exporting to ensure the</text>
  <text style="stroke:none;fill:black;font-family:sans-serif;font-size:13;" transform="matrix(1 0 0 1 1289 1989)">design is preserved when submitting to Xcode.</text>
  <text id="template-version" style="stroke:none;fill:black;font-family:sans-serif;font-size:13;text-anchor:end;" transform="matrix(1 0 0 1 3036 1933)">Template v.6.0</text>
  <text style="stroke:none;fill:black;font-family:sans-serif;font-size:13;text-anchor:end;" transform="matrix(1 0 0 1 3036 1951)">Requires Xcode 16 or greater</text>
  <text id="descriptive-name" style="stroke:none;fill:black;font-family:sans-serif;font-size:13;text-anchor:end;" transform="matrix(1 0 0 1 3036 1969)">Generated from square</text>
  <text style="stroke:none;fill:black;font-family:sans-serif;font-size:13;text-anchor:end;" transform="matrix(1 0 0 1 3036 1987)">Typeset at 100.0 points</text>
  <text style="stroke:none;fill:black;font-family:sans-serif;font-size:13;" transform="matrix(1 0 0 1 263 726)">Small</text>
  <text style="stroke:none;fill:black;font-family:sans-serif;font-size:13;" transform="matrix(1 0 0 1 263 1156)">Medium</text>
  <text style="stroke:none;fill:black;font-family:sans-serif;font-size:13;" transform="matrix(1 0 0 1 263 1586)">Large</text>
 </g>
 <g id="Guides">
  <g id="H-reference" style="fill:#27AAE1;stroke:none;" transform="matrix(1 0 0 1 339 696)">
   <path d="M0.993654 0L3.63775 0L29.3281-67.1323L30.0303-67.1323L30.0303-70.459L28.1226-70.459ZM11.6885-24.4799L46.9815-24.4799L46.2315-26.7285L12.4385-26.7285ZM55.1196 0L57.7637 0L30.6382-70.459L29.4326-70.459L29.4326-67.1323Z"/>
  </g>
  <line id="Baseline-S" style="fill:none;stroke:#27AAE1;opacity:1;stroke-width:0.5;" x1="263" x2="3036" y1="696" y2="696"/>
  <line id="Capline-S" style="fill:none;stroke:#27AAE1;opacity:1;stroke-width:0.5;" x1="263" x2="3036" y1="625.541" y2="625.541"/>
  <g id="H-reference" style="fill:#27AAE1;stroke:none;" transform="matrix(1 0 0 1 339 1126)">
   <path d="M0.993654 0L3.63775 0L29.3281-67.1323L30.0303-67.1323L30.0303-70.459L28.1226-70.459ZM11.6885-24.4799L46.9815-24.4799L46.2315-26.7285L12.4385-26.7285ZM55.1196 0L57.7637 0L30.6382-70.459L29.4326-70.459L29.4326-67.1323Z"/>
  </g>
  <line id="Baseline-M" style="fill:none;stroke:#27AAE1;opacity:1;stroke-width:0.5;" x1="263" x2="3036" y1="1126" y2="1126"/>
  <line id="Capline-M" style="fill:none;stroke:#27AAE1;opacity:1;stroke-width:0.5;" x1="263" x2="3036" y1="1055.54" y2="1055.54"/>
  <g id="H-reference" style="fill:#27AAE1;stroke:none;" transform="matrix(1 0 0 1 339 1556)">
   <path d="M0.993654 0L3.63775 0L29.3281-67.1323L30.0303-67.1323L30.0303-70.459L28.1226-70.459ZM11.6885-24.4799L46.9815-24.4799L46.2315-26.7285L12.4385-26.7285ZM55.1196 0L57.7637 0L30.6382-70.459L29.4326-70.459L29.4326-67.1323Z"/>
  </g>
  <line id="Baseline-L" style="fill:none;stroke:#27AAE1;opacity:1;stroke-width:0.5;" x1="263" x2="3036" y1="1556" y2="1556"/>
  <line id="Capline-L" style="fill:none;stroke:#27AAE1;opacity:1;stroke-width:0.5;" x1="263" x2="3036" y1="1485.54" y2="1485.54"/>
  <line id="right-margin-Black-S" style="fill:none;stroke:#00AEEF;stroke-width:0.5;opacity:1.0;" x1="2981.3" x2="2981.3" y1="600.785" y2="720.121"/>
  <line id="left-margin-Black-S" style="fill:none;stroke:#00AEEF;stroke-width:0.5;opacity:1.0;" x1="2885.5" x2="2885.5" y1="600.785" y2="720.121"/>
  <line id="right-margin-Regular-S" style="fill:none;stroke:#00AEEF;stroke-width:0.5;opacity:1.0;" x1="1495.18" x2="1495.18" y1="600.785" y2="720.121"/>
  <line id="left-margin-Regular-S" style="fill:none;stroke:#00AEEF;stroke-width:0.5;opacity:1.0;" x1="1404.51" x2="1404.51" y1="600.785" y2="720.121"/>
  <line id="right-margin-Ultralight-S" style="fill:none;stroke:#00AEEF;stroke-width:0.5;opacity:1.0;" x1="603.073" x2="603.073" y1="600.785" y2="720.121"/>
  <line id="left-margin-Ultralight-S" style="fill:none;stroke:#00AEEF;stroke-width:0.5;opacity:1.0;" x1="516.35" x2="516.35" y1="600.785" y2="720.121"/>
 </g>
 <g id="Symbols">
  <g id="Black-S"><path d="M2935.97216,663.34254l-5.14406,-5.14406l-9.81334,14.9574zM2933.40013,626.64194c-18.85328,0 -34.12857,15.27529 -34.12857,34.12857c0,18.85328 15.27529,34.12857 34.12857,34.12857c18.85328,0 34.12857,-15.27529 34.12857,-34.12857c0,-18.85328 -15.27529,-34.12857 -34.12857,-34.12857zM2954.84746,650.6957l2.03395,-0.84358c0.2699,-0.11155 0.57306,-0.11129 0.84276,0.00073c0.2697,0.11201 0.48385,0.32659 0.59532,0.59652v0c0.11206,0.26988 0.11222,0.57324 0.00045,0.84325c-0.11177,0.27 -0.3263,0.48449 -0.59632,0.59621l-2.02982,0.84083c-0.56166,0.23244 -1.20542,-0.0343 -1.43808,-0.59587v0c-0.23292,-0.56052 0.03178,-1.20381 0.59175,-1.43808zM2941.44099,638.47684l0.84221,-2.03395c0.23427,-0.55996 0.87756,-0.82466 1.43808,-0.59175v0c0.56157,0.23266 0.82832,0.87642 0.59587,1.43808l-0.84358,2.03395c-0.23266,0.56157 -0.87642,0.82832 -1.43808,0.59587v0c-0.27046,-0.11196 -0.4852,-0.32702 -0.59675,-0.59764c-0.11156,-0.27063 -0.11074,-0.57454 0.00226,-0.84456zM2933.40013,633.79793v0c0.60802,0 1.10092,0.4929 1.10092,1.10092v2.20184c0,0.60802 -0.4929,1.10092 -1.10092,1.10092v0c-0.60802,0 -1.10092,-0.4929 -1.10092,-1.10092v-2.20184c0,-0.60802 0.4929,-1.10092 1.10092,-1.10092zM2923.07899,635.85115c0.26988,-0.11206 0.57324,-0.11222 0.84325,-0.00045c0.27,0.11177 0.48449,0.3263 0.59621,0.59632l0.84083,2.02982c0.15957,0.36508 0.10944,0.7879 -0.13109,1.10554c-0.24053,0.31764 -0.63392,0.48053 -1.02859,0.42591c-0.39467,-0.05462 -0.72904,-0.31822 -0.87427,-0.68925l-0.84358,-2.03395c-0.22954,-0.5609 0.03741,-1.20183 0.59725,-1.43395zM2914.32942,641.69842v0c0.42988,-0.4296 1.12655,-0.4296 1.55643,0l1.55092,1.55643c0.42685,0.4294 0.42685,1.1229 0,1.5523v0c-0.42988,0.4296 -1.12655,0.4296 -1.55643,0l-1.55643,-1.55643c-0.42571,-0.43053 -0.42387,-1.12404 0.00413,-1.5523zM2906.42755,660.77051v0c0,-0.60802 0.4929,-1.10092 1.10092,-1.10092h2.20184c0.60802,0 1.10092,0.4929 1.10092,1.10092v0c0,0.60802 -0.4929,1.10092 -1.10092,1.10092h-2.20184c-0.60802,0 -1.10092,-0.4929 -1.10092,-1.10092zM2911.9528,670.84532l-2.03395,0.84358c-0.2699,0.11155 -0.57306,0.11129 -0.84276,-0.00073c-0.2697,-0.11201 -0.48385,-0.32659 -0.59532,-0.59652v0c-0.11206,-0.26988 -0.11222,-0.57324 -0.00045,-0.84325c0.11177,-0.27 0.3263,-0.48449 0.59632,-0.59621l2.02982,-0.84083c0.56166,-0.23244 1.20542,0.0343 1.43808,0.59587v0c0.23292,0.56052 -0.03178,1.20381 -0.59175,1.43808zM2912.54868,652.12965v0c-0.11091,0.27145 -0.32552,0.48744 -0.59626,0.60008c-0.27074,0.11264 -0.57523,0.11261 -0.84595,-0.00008l-2.03395,-0.84221c-0.55996,-0.23427 -0.82466,-0.87756 -0.59175,-1.43808v0c0.23266,-0.56157 0.87642,-0.82832 1.43808,-0.59587l2.03395,0.84358c0.56081,0.23266 0.8274,0.87542 0.59587,1.4367zM2925.35927,683.06417l-0.84221,2.03395c-0.23257,0.56204 -0.87673,0.82913 -1.43877,0.59656c-0.56204,-0.23257 -0.82913,-0.87673 -0.59656,-1.43877l0.84358,-2.03395c0.14523,-0.37103 0.47959,-0.63463 0.87427,-0.68925c0.39467,-0.05462 0.78806,0.10827 1.02859,0.42591c0.24053,0.31764 0.29067,0.74045 0.13109,1.10554zM2934.50105,686.64217c0,0.60802 -0.4929,1.10092 -1.10092,1.10092v0c-0.60802,0 -1.10092,-0.4929 -1.10092,-1.10092v-2.20184c0,-0.60802 0.4929,-1.10092 1.10092,-1.10092v0c0.60802,0 1.10092,0.4929 1.10092,1.10092zM2943.72127,685.68987v0c-0.26988,0.11206 -0.57324,0.11222 -0.84325,0.00045c-0.27,-0.11177 -0.48449,-0.3263 -0.59621,-0.59632l-0.84083,-2.02982c-0.23244,-0.56166 0.0343,-1.20542 0.59587,-1.43808v0c0.56166,-0.23244 1.20542,0.0343 1.43808,0.59587l0.84358,2.03395c0.22954,0.5609 -0.03741,1.20183 -0.59725,1.43395zM2952.47085,679.8426v0c-0.42988,0.4296 -1.12655,0.4296 -1.55643,0l-1.55092,-1.55643c-0.42685,-0.4294 -0.42685,-1.1229 0,-1.5523v0c0.42988,-0.4296 1.12655,-0.4296 1.55643,0l1.55643,1.55643c0.42571,0.43053 0.42387,1.12404 -0.00413,1.5523zM2937.56299,664.93337l-24.20789,15.88217l15.88217,-24.20789l24.20789,-15.88217zM2958.31949,671.09165v0c-0.23266,0.56157 -0.87642,0.82832 -1.43808,0.59587l-2.03395,-0.84358c-0.56157,-0.23266 -0.82832,-0.87642 -0.59587,-1.43808v0c0.11196,-0.27046 0.32702,-0.4852 0.59764,-0.59675c0.27063,-0.11156 0.57454,-0.11074 0.84456,0.00226l2.03395,0.84221c0.55996,0.23427 0.82466,0.87756 0.59175,1.43808zM2959.27179,661.87143h-2.20184c-0.60802,0 -1.10092,-0.4929 -1.10092,-1.10092v0c0,-0.60802 0.4929,-1.10092 1.10092,-1.10092h2.20184c0.60802,0 1.10092,0.4929 1.10092,1.10092v0c0,0.60802 -0.4929,1.10092 -1.10092,1.10092z" className="SFSymbolsPreviewWireframe"/></g>
  <g id="Regular-S"><path d="M1452.41711,663.34254l-5.14406,-5.14406l-9.81334,14.9574zM1449.84508,626.64194c-18.85328,0 -34.12857,15.27529 -34.12857,34.12857c0,18.85328 15.27529,34.12857 34.12857,34.12857c18.85328,0 34.12857,-15.27529 34.12857,-34.12857c0,-18.85328 -15.27529,-34.12857 -34.12857,-34.12857zM1471.29241,650.6957l2.03395,-0.84358c0.2699,-0.11155 0.57306,-0.11129 0.84276,0.00073c0.2697,0.11201 0.48385,0.32659 0.59532,0.59652v0c0.11206,0.26988 0.11222,0.57324 0.00045,0.84325c-0.11177,0.27 -0.3263,0.48449 -0.59632,0.59621l-2.02982,0.84083c-0.56166,0.23244 -1.20542,-0.0343 -1.43808,-0.59587v0c-0.23292,-0.56052 0.03178,-1.20381 0.59175,-1.43808zM1457.88594,638.47684l0.84221,-2.03395c0.23427,-0.55996 0.87756,-0.82466 1.43808,-0.59175v0c0.56157,0.23266 0.82832,0.87642 0.59587,1.43808l-0.84358,2.03395c-0.23266,0.56157 -0.87642,0.82832 -1.43808,0.59587v0c-0.27046,-0.11196 -0.4852,-0.32702 -0.59675,-0.59764c-0.11156,-0.27063 -0.11074,-0.57454 0.00226,-0.84456zM1449.84508,633.79793v0c0.60802,0 1.10092,0.4929 1.10092,1.10092v2.20184c0,0.60802 -0.4929,1.10092 -1.10092,1.10092v0c-0.60802,0 -1.10092,-0.4929 -1.10092,-1.10092v-2.20184c0,-0.60802 0.4929,-1.10092 1.10092,-1.10092zM1439.52394,635.85115c0.26988,-0.11206 0.57324,-0.11222 0.84325,-0.00045c0.27,0.11177 0.48449,0.3263 0.59621,0.59632l0.84083,2.02982c0.15957,0.36508 0.10944,0.7879 -0.13109,1.10554c-0.24053,0.31764 -0.63392,0.48053 -1.02859,0.42591c-0.39467,-0.05462 -0.72904,-0.31822 -0.87427,-0.68925l-0.84358,-2.03395c-0.22954,-0.5609 0.03741,-1.20183 0.59725,-1.43395zM1430.77437,641.69842v0c0.42988,-0.4296 1.12655,-0.4296 1.55643,0l1.55092,1.55643c0.42685,0.4294 0.42685,1.1229 0,1.5523v0c-0.42988,0.4296 -1.12655,0.4296 -1.55643,0l-1.55643,-1.55643c-0.42571,-0.43053 -0.42387,-1.12404 0.00413,-1.5523zM1422.8725,660.77051v0c0,-0.60802 0.4929,-1.10092 1.10092,-1.10092h2.20184c0.60802,0 1.10092,0.4929 1.10092,1.10092v0c0,0.60802 -0.4929,1.10092 -1.10092,1.10092h-2.20184c-0.60802,0 -1.10092,-0.4929 -1.10092,-1.10092zM1428.39775,670.84532l-2.03395,0.84358c-0.2699,0.11155 -0.57306,0.11129 -0.84276,-0.00073c-0.2697,-0.11201 -0.48385,-0.32659 -0.59532,-0.59652v0c-0.11206,-0.26988 -0.11222,-0.57324 -0.00045,-0.84325c0.11177,-0.27 0.3263,-0.48449 0.59632,-0.59621l2.02982,-0.84083c0.56166,-0.23244 1.20542,0.0343 1.43808,0.59587v0c0.23292,0.56052 -0.03178,1.20381 -0.59175,1.43808zM1428.99363,652.12965v0c-0.11091,0.27145 -0.32552,0.48744 -0.59626,0.60008c-0.27074,0.11264 -0.57523,0.11261 -0.84595,-0.00008l-2.03395,-0.84221c-0.55996,-0.23427 -0.82466,-0.87756 -0.59175,-1.43808v0c0.23266,-0.56157 0.87642,-0.82832 1.43808,-0.59587l2.03395,0.84358c0.56081,0.23266 0.8274,0.87542 0.59587,1.4367zM1441.80423,683.06417l-0.84221,2.03395c-0.23257,0.56204 -0.87673,0.82913 -1.43877,0.59656c-0.56204,-0.23257 -0.82913,-0.87673 -0.59656,-1.43877l0.84358,-2.03395c0.14523,-0.37103 0.47959,-0.63463 0.87427,-0.68925c0.39467,-0.05462 0.78806,0.10827 1.02859,0.42591c0.24053,0.31764 0.29067,0.74045 0.13109,1.10554zM1450.946,686.64217c0,0.60802 -0.4929,1.10092 -1.10092,1.10092v0c-0.60802,0 -1.10092,-0.4929 -1.10092,-1.10092v-2.20184c0,-0.60802 0.4929,-1.10092 1.10092,-1.10092v0c0.60802,0 1.10092,0.4929 1.10092,1.10092zM1460.16622,685.68987v0c-0.26988,0.11206 -0.57324,0.11222 -0.84325,0.00045c-0.27,-0.11177 -0.48449,-0.3263 -0.59621,-0.59632l-0.84083,-2.02982c-0.23244,-0.56166 0.0343,-1.20542 0.59587,-1.43808v0c0.56166,-0.23244 1.20542,0.0343 1.43808,0.59587l0.84358,2.03395c0.22954,0.5609 -0.03741,1.20183 -0.59725,1.43395zM1468.9158,679.8426v0c-0.42988,0.4296 -1.12655,0.4296 -1.55643,0l-1.55092,-1.55643c-0.42685,-0.4294 -0.42685,-1.1229 0,-1.5523v0c0.42988,-0.4296 1.12655,-0.4296 1.55643,0l1.55643,1.55643c0.42571,0.43053 0.42387,1.12404 -0.00413,1.5523zM1454.00794,664.93337l-24.20789,15.88217l15.88217,-24.20789l24.20789,-15.88217zM1474.76444,671.09165v0c-0.23266,0.56157 -0.87642,0.82832 -1.43808,0.59587l-2.03395,-0.84358c-0.56157,-0.23266 -0.82832,-0.87642 -0.59587,-1.43808v0c0.11196,-0.27046 0.32702,-0.4852 0.59764,-0.59675c0.27063,-0.11156 0.57454,-0.11074 0.84456,0.00226l2.03395,0.84221c0.55996,0.23427 0.82466,0.87756 0.59175,1.43808zM1475.71674,661.87143h-2.20184c-0.60802,0 -1.10092,-0.4929 -1.10092,-1.10092v0c0,-0.60802 0.4929,-1.10092 1.10092,-1.10092h2.20184c0.60802,0 1.10092,0.4929 1.10092,1.10092v0c0,0.60802 -0.4929,1.10092 -1.10092,1.10092z" className="SFSymbolsPreviewWireframe"/></g>
  <g id="Ultralight-S"><path d="M562.28352,663.34254l-5.14406,-5.14406l-9.81334,14.9574zM559.71149,626.64194c-18.85328,0 -34.12857,15.27529 -34.12857,34.12857c0,18.85328 15.27529,34.12857 34.12857,34.12857c18.85328,0 34.12857,-15.27529 34.12857,-34.12857c0,-18.85328 -15.27529,-34.12857 -34.12857,-34.12857zM581.15882,650.6957l2.03395,-0.84358c0.2699,-0.11155 0.57306,-0.11129 0.84276,0.00073c0.2697,0.11201 0.48385,0.32659 0.59532,0.59652v0c0.11206,0.26988 0.11222,0.57324 0.00045,0.84325c-0.11177,0.27 -0.3263,0.48449 -0.59632,0.59621l-2.02982,0.84083c-0.56166,0.23244 -1.20542,-0.0343 -1.43808,-0.59587v0c-0.23292,-0.56052 0.03178,-1.20381 0.59175,-1.43808zM567.75235,638.47684l0.84221,-2.03395c0.23427,-0.55996 0.87756,-0.82466 1.43808,-0.59175v0c0.56157,0.23266 0.82832,0.87642 0.59587,1.43808l-0.84358,2.03395c-0.23266,0.56157 -0.87642,0.82832 -1.43808,0.59587v0c-0.27046,-0.11196 -0.4852,-0.32702 -0.59675,-0.59764c-0.11156,-0.27063 -0.11074,-0.57454 0.00226,-0.84456zM559.71149,633.79793v0c0.60802,0 1.10092,0.4929 1.10092,1.10092v2.20184c0,0.60802 -0.4929,1.10092 -1.10092,1.10092v0c-0.60802,0 -1.10092,-0.4929 -1.10092,-1.10092v-2.20184c0,-0.60802 0.4929,-1.10092 1.10092,-1.10092zM549.39035,635.85115c0.26988,-0.11206 0.57324,-0.11222 0.84325,-0.00045c0.27,0.11177 0.48449,0.3263 0.59621,0.59632l0.84083,2.02982c0.15957,0.36508 0.10944,0.7879 -0.13109,1.10554c-0.24053,0.31764 -0.63392,0.48053 -1.02859,0.42591c-0.39467,-0.05462 -0.72904,-0.31822 -0.87427,-0.68925l-0.84358,-2.03395c-0.22954,-0.5609 0.03741,-1.20183 0.59725,-1.43395zM540.64078,641.69842v0c0.42988,-0.4296 1.12655,-0.4296 1.55643,0l1.55092,1.55643c0.42685,0.4294 0.42685,1.1229 0,1.5523v0c-0.42988,0.4296 -1.12655,0.4296 -1.55643,0l-1.55643,-1.55643c-0.42571,-0.43053 -0.42387,-1.12404 0.00413,-1.5523zM532.73891,660.77051v0c0,-0.60802 0.4929,-1.10092 1.10092,-1.10092h2.20184c0.60802,0 1.10092,0.4929 1.10092,1.10092v0c0,0.60802 -0.4929,1.10092 -1.10092,1.10092h-2.20184c-0.60802,0 -1.10092,-0.4929 -1.10092,-1.10092zM538.26416,670.84532l-2.03395,0.84358c-0.2699,0.11155 -0.57306,0.11129 -0.84276,-0.00073c-0.2697,-0.11201 -0.48385,-0.32659 -0.59532,-0.59652v0c-0.11206,-0.26988 -0.11222,-0.57324 -0.00045,-0.84325c0.11177,-0.27 0.3263,-0.48449 0.59632,-0.59621l2.02982,-0.84083c0.56166,-0.23244 1.20542,0.0343 1.43808,0.59587v0c0.23292,0.56052 -0.03178,1.20381 -0.59175,1.43808zM538.86004,652.12965v0c-0.11091,0.27145 -0.32552,0.48744 -0.59626,0.60008c-0.27074,0.11264 -0.57523,0.11261 -0.84595,-0.00008l-2.03395,-0.84221c-0.55996,-0.23427 -0.82466,-0.87756 -0.59175,-1.43808v0c0.23266,-0.56157 0.87642,-0.82832 1.43808,-0.59587l2.03395,0.84358c0.56081,0.23266 0.8274,0.87542 0.59587,1.4367zM551.67064,683.06417l-0.84221,2.03395c-0.23257,0.56204 -0.87673,0.82913 -1.43877,0.59656c-0.56204,-0.23257 -0.82913,-0.87673 -0.59656,-1.43877l0.84358,-2.03395c0.14523,-0.37103 0.47959,-0.63463 0.87427,-0.68925c0.39467,-0.05462 0.78806,0.10827 1.02859,0.42591c0.24053,0.31764 0.29067,0.74045 0.13109,1.10554zM560.81241,686.64217c0,0.60802 -0.4929,1.10092 -1.10092,1.10092v0c-0.60802,0 -1.10092,-0.4929 -1.10092,-1.10092v-2.20184c0,-0.60802 0.4929,-1.10092 1.10092,-1.10092v0c0.60802,0 1.10092,0.4929 1.10092,1.10092zM570.03263,685.68987v0c-0.26988,0.11206 -0.57324,0.11222 -0.84325,0.00045c-0.27,-0.11177 -0.48449,-0.3263 -0.59621,-0.59632l-0.84083,-2.02982c-0.23244,-0.56166 0.0343,-1.20542 0.59587,-1.43808v0c0.56166,-0.23244 1.20542,0.0343 1.43808,0.59587l0.84358,2.03395c0.22954,0.5609 -0.03741,1.20183 -0.59725,1.43395zM578.78221,679.8426v0c-0.42988,0.4296 -1.12655,0.4296 -1.55643,0l-1.55092,-1.55643c-0.42685,-0.4294 -0.42685,-1.1229 0,-1.5523v0c0.42988,-0.4296 1.12655,-0.4296 1.55643,0l1.55643,1.55643c0.42571,0.43053 0.42387,1.12404 -0.00413,1.5523zM563.87435,664.93337l-24.20789,15.88217l15.88217,-24.20789l24.20789,-15.88217zM584.63085,671.09165v0c-0.23266,0.56157 -0.87642,0.82832 -1.43808,0.59587l-2.03395,-0.84358c-0.56157,-0.23266 -0.82832,-0.87642 -0.59587,-1.43808v0c0.11196,-0.27046 0.32702,-0.4852 0.59764,-0.59675c0.27063,-0.11156 0.57454,-0.11074 0.84456,0.00226l2.03395,0.84221c0.55996,0.23427 0.82466,0.87756 0.59175,1.43808zM585.58315,661.87143h-2.20184c-0.60802,0 -1.10092,-0.4929 -1.10092,-1.10092v0c0,-0.60802 0.4929,-1.10092 1.10092,-1.10092h2.20184c0.60802,0 1.10092,0.4929 1.10092,1.10092v0c0,0.60802 -0.4929,1.10092 -1.10092,1.10092z" className="SFSymbolsPreviewWireframe"/></g>
 </g>
</svg>