<?xml version="1.0" encoding="UTF-8"?><!--Generator: https://SymbolKit.app--><!DOCTYPE svg PUBLIC "-//W3C//DTD SVG 1.1//EN" "http://www.w3.org/Graphics/SVG/1.1/DTD/svg11.dtd"><svg xmlns="http://www.w3.org/2000/svg" xmlns:xlink="http://www.w3.org/1999/xlink" version="1.1" viewBox="0 0 3300 2200">
 <!--glyph: "100092", point size: 100.0, font version: "20.0d10e1", template writer version: "138.0.0"-->
 <style>.SFSymbolsPreviewWireframe {fill:none;opacity:1.0;stroke:black;stroke-width:0.5}
</style>
 <g id="Notes">
  <rect height="2200" id="artboard" style="fill:white;opacity:1" width="3300" x="0" y="0"/>
  <line style="fill:none;stroke:black;opacity:1;stroke-width:0.5;" x1="263" x2="3036" y1="292" y2="292"/>
  <text style="stroke:none;fill:black;font-family:sans-serif;font-size:13;font-weight:bold;" transform="matrix(1 0 0 1 263 322)">Weight/Scale Variations</text>
  <text style="stroke:none;fill:black;font-family:sans-serif;font-size:13;text-anchor:middle;" transform="matrix(1 0 0 1 559.711 322)">Ultralight</text>
  <text style="stroke:none;fill:black;font-family:sans-serif;font-size:13;text-anchor:middle;" transform="matrix(1 0 0 1 856.422 322)">Thin</text>
  <text style="stroke:none;fill:black;font-family:sans-serif;font-size:13;text-anchor:middle;" transform="matrix(1 0 0 1 1153.13 322)">Light</text>
  <text style="stroke:none;fill:black;font-family:sans-serif;font-size:13;text-anchor:middle;" transform="matrix(1 0 0 1 1449.84 322)">Regular</text>
  <text style="stroke:none;fill:black;font-family:sans-serif;font-size:13;text-anchor:middle;" transform="matrix(1 0 0 1 1746.56 322)">Medium</text>
  <text style="stroke:none;fill:black;font-family:sans-serif;font-size:13;text-anchor:middle;" transform="matrix(1 0 0 1 2043.27 322)">Semibold</text>
  <text style="stroke:none;fill:black;font-family:sans-serif;font-size:13;text-anchor:middle;" transform="matrix(1 0 0 1 2339.98 322)">Bold</text>
  <text style="stroke:none;fill:black;font-family:sans-serif;font-size:13;text-anchor:middle;" transform="matrix(1 0 0 1 2636.69 322)">Heavy</text>
  <text style="stroke:none;fill:black;font-family:sans-serif;font-size:13;text-anchor:middle;" transform="matrix(1 0 0 1 2933.4 322)">Black</text>
  <line style="fill:none;stroke:black;opacity:1;stroke-width:0.5;" x1="263" x2="3036" y1="1903" y2="1903"/>
  <g transform="matrix(0.2 0 0 0.2 263 1933)">
   <path d="m46.2402 4.15039c21.7773 0 39.4531-17.627 39.4531-39.4043s-17.6758-39.4043-39.4531-39.4043c-21.7285 0-39.4043 17.627-39.4043 39.4043s17.6758 39.4043 39.4043 39.4043Zm0-7.42188c-17.6758 0-31.9336-14.3066-31.9336-31.9824s14.2578-31.9824 31.9336-31.9824 31.9824 14.3066 31.9824 31.9824-14.3066 31.9824-31.9824 31.9824Zm-17.9688-31.9824c0 2.14844 1.51367 3.61328 3.75977 3.61328h10.498v10.5957c0 2.19727 1.46484 3.71094 3.61328 3.71094 2.24609 0 3.71094-1.51367 3.71094-3.71094v-10.5957h10.5957c2.19727 0 3.71094-1.46484 3.71094-3.61328 0-2.19727-1.51367-3.71094-3.71094-3.71094h-10.5957v-10.5469c0-2.24609-1.46484-3.75977-3.71094-3.75977-2.14844 0-3.61328 1.51367-3.61328 3.75977v10.5469h-10.498c-2.24609 0-3.75977 1.51367-3.75977 3.71094Z"/>
  </g>
  <g transform="matrix(0.2 0 0 0.2 281.506 1933)">
   <path d="m58.5449 14.5508c27.4902 0 49.8047-22.3145 49.8047-49.8047s-22.3145-49.8047-49.8047-49.8047-49.8047 22.3145-49.8047 49.8047 22.3145 49.8047 49.8047 49.8047Zm0-8.30078c-22.9492 0-41.5039-18.5547-41.5039-41.5039s18.5547-41.5039 41.5039-41.5039 41.5039 18.5547 41.5039 41.5039-18.5547 41.5039-41.5039 41.5039Zm-22.6562-41.5039c0 2.39258 1.66016 4.00391 4.15039 4.00391h14.3555v14.4043c0 2.44141 1.66016 4.15039 4.05273 4.15039 2.44141 0 4.15039-1.66016 4.15039-4.15039v-14.4043h14.4043c2.44141 0 4.15039-1.61133 4.15039-4.00391 0-2.44141-1.70898-4.15039-4.15039-4.15039h-14.4043v-14.3555c0-2.49023-1.70898-4.19922-4.15039-4.19922-2.39258 0-4.05273 1.70898-4.05273 4.19922v14.3555h-14.3555c-2.49023 0-4.15039 1.70898-4.15039 4.15039Z"/>
  </g>
  <g transform="matrix(0.2 0 0 0.2 304.924 1933)">
   <path d="m74.8535 28.3203c35.1074 0 63.623-28.4668 63.623-63.5742s-28.5156-63.623-63.623-63.623-63.5742 28.5156-63.5742 63.623 28.4668 63.5742 63.5742 63.5742Zm0-9.08203c-30.127 0-54.4922-24.3652-54.4922-54.4922s24.3652-54.4922 54.4922-54.4922 54.4922 24.3652 54.4922 54.4922-24.3652 54.4922-54.4922 54.4922Zm-28.8574-54.4922c0 2.58789 1.85547 4.39453 4.58984 4.39453h19.7266v19.7754c0 2.68555 1.85547 4.58984 4.44336 4.58984 2.68555 0 4.54102-1.85547 4.54102-4.58984v-19.7754h19.7754c2.68555 0 4.58984-1.80664 4.58984-4.39453 0-2.73438-1.85547-4.58984-4.58984-4.58984h-19.7754v-19.7266c0-2.73438-1.85547-4.63867-4.54102-4.63867-2.58789 0-4.44336 1.9043-4.44336 4.63867v19.7266h-19.7266c-2.73438 0-4.58984 1.85547-4.58984 4.58984Z"/>
  </g>
  <text style="stroke:none;fill:black;font-family:sans-serif;font-size:13;font-weight:bold;" transform="matrix(1 0 0 1 263 1953)">Design Variations</text>
  <text style="stroke:none;fill:black;font-family:sans-serif;font-size:13;" transform="matrix(1 0 0 1 263 1971)">Symbols are supported in up to nine weights and three scales.</text>
  <text style="stroke:none;fill:black;font-family:sans-serif;font-size:13;" transform="matrix(1 0 0 1 263 1989)">For optimal layout with text and other symbols, vertically align</text>
  <text style="stroke:none;fill:black;font-family:sans-serif;font-size:13;" transform="matrix(1 0 0 1 263 2007)">symbols with the adjacent text.</text>
  <line style="fill:none;stroke:#00AEEF;stroke-width:0.5;opacity:1.0;" x1="776" x2="776" y1="1919" y2="1933"/>
  <g transform="matrix(0.2 0 0 0.2 776 1933)">
   <path d="m16.5527 0.78125c2.58789 0 3.85742-0.976562 4.78516-3.71094l6.29883-17.2363h28.8086l6.29883 17.2363c0.927734 2.73438 2.19727 3.71094 4.73633 3.71094 2.58789 0 4.24805-1.5625 4.24805-4.00391 0-0.830078-0.146484-1.61133-0.537109-2.63672l-22.9004-60.9863c-1.12305-2.97852-3.125-4.49219-6.25-4.49219-3.02734 0-5.07812 1.46484-6.15234 4.44336l-22.9004 61.084c-0.390625 1.02539-0.537109 1.80664-0.537109 2.63672 0 2.44141 1.5625 3.95508 4.10156 3.95508Zm13.4766-28.3691 11.8652-32.8613h0.244141l11.8652 32.8613Z"/>
  </g>
  <line style="fill:none;stroke:#00AEEF;stroke-width:0.5;opacity:1.0;" x1="792.836" x2="792.836" y1="1919" y2="1933"/>
  <text style="stroke:none;fill:black;font-family:sans-serif;font-size:13;font-weight:bold;" transform="matrix(1 0 0 1 776 1953)">Margins</text>
  <text style="stroke:none;fill:black;font-family:sans-serif;font-size:13;" transform="matrix(1 0 0 1 776 1971)">Leading and trailing margins on the left and right side of each symbol</text>
  <text style="stroke:none;fill:black;font-family:sans-serif;font-size:13;" transform="matrix(1 0 0 1 776 1989)">can be adjusted by modifying the x-location of the margin guidelines.</text>
  <text style="stroke:none;fill:black;font-family:sans-serif;font-size:13;" transform="matrix(1 0 0 1 776 2007)">Modifications are automatically applied proportionally to all</text>
  <text style="stroke:none;fill:black;font-family:sans-serif;font-size:13;" transform="matrix(1 0 0 1 776 2025)">scales and weights.</text>
  <g transform="matrix(0.2 0 0 0.2 1289 1933)">
   <path d="m14.209 9.32617 8.49609 8.54492c4.29688 4.3457 9.22852 4.05273 13.8672-1.07422l53.4668-58.9355-4.83398-4.88281-53.0762 58.3984c-1.75781 2.00195-3.41797 2.49023-5.76172 0.146484l-5.85938-5.81055c-2.34375-2.29492-1.80664-4.00391 0.195312-5.81055l57.373-54.0039-4.88281-4.83398-57.959 54.4434c-4.93164 4.58984-5.32227 9.47266-1.02539 13.8184Zm32.0801-90.9668c-2.09961 2.05078-2.24609 4.93164-1.07422 6.88477 1.17188 1.80664 3.4668 2.97852 6.68945 2.14844 7.32422-1.70898 14.9414-2.00195 22.0703 2.68555l-2.92969 7.27539c-1.70898 4.15039-0.830078 7.08008 1.85547 9.81445l11.4746 11.5723c2.44141 2.44141 4.49219 2.53906 7.32422 2.05078l5.32227-0.976562 3.32031 3.36914-0.195312 2.7832c-0.195312 2.49023 0.439453 4.39453 2.88086 6.78711l3.80859 3.71094c2.39258 2.39258 5.46875 2.53906 7.8125 0.195312l14.5508-14.5996c2.34375-2.34375 2.24609-5.32227-0.146484-7.71484l-3.85742-3.80859c-2.39258-2.39258-4.24805-3.17383-6.64062-2.97852l-2.88086 0.244141-3.22266-3.17383 1.2207-5.61523c0.634766-2.83203-0.146484-5.0293-3.07617-7.95898l-10.9863-10.9375c-16.6992-16.6016-38.8672-16.2109-53.3203-1.75781Zm7.4707 1.85547c12.1582-8.88672 28.6133-7.37305 39.7461 3.75977l12.1582 12.0605c1.17188 1.17188 1.36719 2.09961 1.02539 3.80859l-1.61133 7.42188 7.51953 7.42188 4.93164-0.292969c1.26953-0.0488281 1.66016 0.0488281 2.63672 1.02539l2.88086 2.88086-12.207 12.207-2.88086-2.88086c-0.976562-0.976562-1.12305-1.36719-1.07422-2.68555l0.341797-4.88281-7.4707-7.42188-7.61719 1.26953c-1.61133 0.341797-2.34375 0.195312-3.56445-0.976562l-10.0098-10.0098c-1.26953-1.17188-1.41602-2.00195-0.634766-3.85742l4.39453-10.4492c-7.8125-7.27539-17.9688-10.4004-28.125-7.42188-0.78125 0.195312-1.07422-0.439453-0.439453-0.976562Z"/>
  </g>
  <text style="stroke:none;fill:black;font-family:sans-serif;font-size:13;font-weight:bold;" transform="matrix(1 0 0 1 1289 1953)">Exporting</text>
  <text style="stroke:none;fill:black;font-family:sans-serif;font-size:13;" transform="matrix(1 0 0 1 1289 1971)">Symbols should be outlined when exporting to ensure the</text>
  <text style="stroke:none;fill:black;font-family:sans-serif;font-size:13;" transform="matrix(1 0 0 1 1289 1989)">design is preserved when submitting to Xcode.</text>
  <text id="template-version" style="stroke:none;fill:black;font-family:sans-serif;font-size:13;text-anchor:end;" transform="matrix(1 0 0 1 3036 1933)">Template v.6.0</text>
  <text style="stroke:none;fill:black;font-family:sans-serif;font-size:13;text-anchor:end;" transform="matrix(1 0 0 1 3036 1951)">Requires Xcode 16 or greater</text>
  <text id="descriptive-name" style="stroke:none;fill:black;font-family:sans-serif;font-size:13;text-anchor:end;" transform="matrix(1 0 0 1 3036 1969)">Generated from square</text>
  <text style="stroke:none;fill:black;font-family:sans-serif;font-size:13;text-anchor:end;" transform="matrix(1 0 0 1 3036 1987)">Typeset at 100.0 points</text>
  <text style="stroke:none;fill:black;font-family:sans-serif;font-size:13;" transform="matrix(1 0 0 1 263 726)">Small</text>
  <text style="stroke:none;fill:black;font-family:sans-serif;font-size:13;" transform="matrix(1 0 0 1 263 1156)">Medium</text>
  <text style="stroke:none;fill:black;font-family:sans-serif;font-size:13;" transform="matrix(1 0 0 1 263 1586)">Large</text>
 </g>
 <g id="Guides">
  <g id="H-reference" style="fill:#27AAE1;stroke:none;" transform="matrix(1 0 0 1 339 696)">
   <path d="M0.993654 0L3.63775 0L29.3281-67.1323L30.0303-67.1323L30.0303-70.459L28.1226-70.459ZM11.6885-24.4799L46.9815-24.4799L46.2315-26.7285L12.4385-26.7285ZM55.1196 0L57.7637 0L30.6382-70.459L29.4326-70.459L29.4326-67.1323Z"/>
  </g>
  <line id="Baseline-S" style="fill:none;stroke:#27AAE1;opacity:1;stroke-width:0.5;" x1="263" x2="3036" y1="696" y2="696"/>
  <line id="Capline-S" style="fill:none;stroke:#27AAE1;opacity:1;stroke-width:0.5;" x1="263" x2="3036" y1="625.541" y2="625.541"/>
  <g id="H-reference" style="fill:#27AAE1;stroke:none;" transform="matrix(1 0 0 1 339 1126)">
   <path d="M0.993654 0L3.63775 0L29.3281-67.1323L30.0303-67.1323L30.0303-70.459L28.1226-70.459ZM11.6885-24.4799L46.9815-24.4799L46.2315-26.7285L12.4385-26.7285ZM55.1196 0L57.7637 0L30.6382-70.459L29.4326-70.459L29.4326-67.1323Z"/>
  </g>
  <line id="Baseline-M" style="fill:none;stroke:#27AAE1;opacity:1;stroke-width:0.5;" x1="263" x2="3036" y1="1126" y2="1126"/>
  <line id="Capline-M" style="fill:none;stroke:#27AAE1;opacity:1;stroke-width:0.5;" x1="263" x2="3036" y1="1055.54" y2="1055.54"/>
  <g id="H-reference" style="fill:#27AAE1;stroke:none;" transform="matrix(1 0 0 1 339 1556)">
   <path d="M0.993654 0L3.63775 0L29.3281-67.1323L30.0303-67.1323L30.0303-70.459L28.1226-70.459ZM11.6885-24.4799L46.9815-24.4799L46.2315-26.7285L12.4385-26.7285ZM55.1196 0L57.7637 0L30.6382-70.459L29.4326-70.459L29.4326-67.1323Z"/>
  </g>
  <line id="Baseline-L" style="fill:none;stroke:#27AAE1;opacity:1;stroke-width:0.5;" x1="263" x2="3036" y1="1556" y2="1556"/>
  <line id="Capline-L" style="fill:none;stroke:#27AAE1;opacity:1;stroke-width:0.5;" x1="263" x2="3036" y1="1485.54" y2="1485.54"/>
  <line id="right-margin-Black-S" style="fill:none;stroke:#00AEEF;stroke-width:0.5;opacity:1.0;" x1="2981.3" x2="2981.3" y1="600.785" y2="720.121"/>
  <line id="left-margin-Black-S" style="fill:none;stroke:#00AEEF;stroke-width:0.5;opacity:1.0;" x1="2885.5" x2="2885.5" y1="600.785" y2="720.121"/>
  <line id="right-margin-Regular-S" style="fill:none;stroke:#00AEEF;stroke-width:0.5;opacity:1.0;" x1="1495.18" x2="1495.18" y1="600.785" y2="720.121"/>
  <line id="left-margin-Regular-S" style="fill:none;stroke:#00AEEF;stroke-width:0.5;opacity:1.0;" x1="1404.51" x2="1404.51" y1="600.785" y2="720.121"/>
  <line id="right-margin-Ultralight-S" style="fill:none;stroke:#00AEEF;stroke-width:0.5;opacity:1.0;" x1="603.073" x2="603.073" y1="600.785" y2="720.121"/>
  <line id="left-margin-Ultralight-S" style="fill:none;stroke:#00AEEF;stroke-width:0.5;opacity:1.0;" x1="516.35" x2="516.35" y1="600.785" y2="720.121"/>
 </g>
 <g id="Symbols">
  <g id="Black-S"><path d="M2923.61408,659.34209h-3.62616c0.09495,-0.71009 0.45688,-1.94313 1.87707,-1.94313c0.9289,0 1.64725,0.52569 1.74909,1.94313zM2942.42058,657.43199c-0.06468,0 -1.94175,-0.24358 -1.94175,2.7523c0,2.99588 1.8757,2.7523 1.94175,2.7523c1.789,0 1.94175,-1.86331 1.94175,-2.7523c0,-2.99451 -1.87982,-2.7523 -1.94175,-2.7523zM2908.94981,660.70173c-0.30612,0.24007 -0.47526,0.61484 -0.45275,1.00321c0,0.6578 0.28624,0.83257 0.45275,0.97019c0.64679,0.50918 2.07386,0.29174 2.88029,0.13073v-2.3312c-0.73211,-0.14725 -2.3023,-0.26973 -2.88029,0.22707zM2977.43677,657.46502c0,12.05234 -11.00922,21.24641 -22.75605,18.77484c-2.52799,4.5413 -9.73352,9.73628 -18.19273,5.72892c-5.66424,13.21794 -24.48037,12.68537 -29.42351,-0.71147c-16.47529,3.28763 -24.60835,-19.04182 -10.3583,-27.42396c-4.78213,-10.93078 3.11561,-23.89138 15.73079,-23.89138c5.31729,0.0033 10.33036,2.48034 13.56335,6.70186c2.84863,-2.94497 6.79819,-4.79039 11.16747,-4.79039c5.82663,0 10.8716,3.23671 13.59638,8.06012c12.77344,-5.59819 26.67258,3.88488 26.67258,17.55144zM2905.93879,661.84118c0,-1.61835 -1.60872,-2.08762 -2.45918,-2.36285c-0.72523,-0.29037 -1.84542,-0.48303 -1.84542,-1.23028c0,-1.30184 2.33946,-0.91652 3.46377,-0.29174c0,0 0.16101,0.09771 0.22569,-0.06468c0.03303,-0.09633 0.32477,-0.90551 0.35642,-1.00321c0.02563,-0.08009 -0.01704,-0.16604 -0.09633,-0.19404c-1.6968,-1.05 -5.60094,-1.17111 -5.60094,1.74771c0,1.71469 1.5812,2.12478 2.46056,2.36285c0.64954,0.21743 1.81239,0.41285 1.81239,1.19725c0,0.55046 -0.48578,0.97156 -1.26193,0.97156c-0.94301,-0.00159 -1.86022,-0.30813 -2.61469,-0.87386c-0.06468,-0.03165 -0.19541,-0.09771 -0.22707,0.09771l-0.33028,1.02799c-0.06468,0.12936 0.03165,0.16239 0.03165,0.19404c0.24083,0.19266 1.41744,0.90688 3.14038,0.90688c1.81239,0 2.94497,-0.97156 2.94497,-2.49221zM2910.34247,655.98153c-1.39404,0 -2.5679,0.43624 -2.94497,0.71285c-0.03046,0.02108 -0.05114,0.05355 -0.05735,0.09007c-0.00622,0.03652 0.00255,0.074 0.02432,0.10397l0.35642,0.97156c0.02009,0.07004 0.09129,0.11227 0.16239,0.09633c0.08945,0 0.93578,-0.55046 2.32983,-0.55046c0.55046,0 0.97156,0.09771 1.26331,0.32477c0.49541,0.38532 0.4211,1.14083 0.4211,1.45597c-0.65918,-0.04128 -2.62983,-0.4734 -4.04726,0.51743c-0.65669,0.45038 -1.03769,1.20511 -1.0101,2.00093c0,0.81193 0.2078,1.4312 0.90688,1.97478c1.68441,1.12294 4.99268,0.27523 5.24314,0.19404c0.21743,-0.04404 0.48578,-0.09083 0.48578,-0.25872v-4.6624c0.0055,-0.63441 0.04404,-2.97799 -3.13487,-2.97799zM2916.74846,653.09436c0.00287,-0.04388 -0.01332,-0.08687 -0.04442,-0.11797c-0.0311,-0.0311 -0.07409,-0.04728 -0.11797,-0.04442h-1.35138c-0.04365,-0.00246 -0.08626,0.01391 -0.11705,0.04496c-0.03078,0.03105 -0.04679,0.0738 -0.04396,0.11743v10.8716c-0.00283,0.04363 0.01318,0.08638 0.04396,0.11743c0.03078,0.03105 0.0734,0.04742 0.11705,0.04496h1.35964c0.04388,0.00287 0.08687,-0.01332 0.11797,-0.04442c0.0311,-0.0311 0.04728,-0.07409 0.04442,-0.11797zM2924.42051,657.07557c-0.28899,-0.31789 -0.93441,-1.03624 -2.42891,-1.03624c-0.48303,0 -1.94863,0.03165 -2.84863,1.23028c-0.87386,1.05 -0.90551,2.49221 -0.90551,2.94634c0,0.42936 0.02064,1.96239 0.97156,2.91331c0.3633,0.40046 1.24679,1.13257 3.139,1.13257c1.489,0 2.26652,-0.3234 2.55689,-0.51743c0.06468,-0.03303 0.09771,-0.09771 0.03303,-0.25872l-0.3234,-0.93991c-0.03419,-0.07353 -0.11479,-0.11355 -0.19404,-0.09633c-0.35642,0.12936 -0.87386,0.38807 -2.10414,0.38807c-2.39726,0 -2.31882,-2.02845 -2.3312,-2.29817h5.11516c0.07681,-0.00159 0.14291,-0.0547 0.16101,-0.12936c-0.03991,0 0.28486,-2.02294 -0.83808,-3.33442zM2929.46961,664.32651c1.81239,0 2.94634,-0.97156 2.94634,-2.49221c0,-1.61835 -1.6101,-2.08762 -2.46056,-2.36285c-0.56973,-0.22844 -1.84542,-0.46514 -1.84542,-1.23028c0,-0.51743 0.45275,-0.87386 1.1656,-0.87386c0.80045,0.01608 1.58659,0.2152 2.29817,0.58211c0,0 0.16239,0.09771 0.22707,-0.06468c0.03165,-0.09633 0.3234,-0.90551 0.35505,-1.00321c0.02563,-0.08009 -0.01704,-0.16604 -0.09633,-0.19404c-1.08854,-0.67431 -2.30368,-0.67982 -2.78396,-0.67982c-1.65138,0 -2.81561,1.00321 -2.81561,2.42753c0,1.71469 1.57982,2.12478 2.45918,2.36285c0.84083,0.27523 1.81239,0.44863 1.81239,1.19725c0,0.55046 -0.48441,0.97156 -1.26193,0.97156c-0.94295,-0.00198 -1.86003,-0.30848 -2.61469,-0.87386c-0.03987,-0.03421 -0.09575,-0.04274 -0.14401,-0.02197c-0.04826,0.02077 -0.08049,0.0672 -0.08306,0.11968l-0.3234,1.03487c-0.06468,0.12936 0.03165,0.16239 0.03165,0.19404c0.2367,0.19266 1.42157,0.90688 3.13625,0.90688zM2938.50405,656.3641c0,-0.09771 -0.03303,-0.16239 -0.16239,-0.16239h-1.61835c0,-0.01927 0.12936,-1.23028 0.61514,-1.71606c0.57248,-0.5711 1.61835,-0.22569 1.65138,-0.22569c0.16101,0.06468 0.19404,0 0.22569,-0.06468l0.38945,-1.06927c0.09633,-0.12936 0,-0.16101 -0.03303,-0.19404c-0.70046,-0.27523 -2.38762,-0.39496 -3.36607,0.58349c-0.75413,0.75413 -0.96331,1.9156 -1.10092,2.68625h-1.1656c-0.08629,0.0072 -0.15454,0.07604 -0.16101,0.16239l-0.19541,1.06789c0,0.09633 0.03303,0.16101 0.16239,0.16101h1.13257c-1.17111,6.59177 -1.20413,6.90966 -1.42432,7.6404c-0.14862,0.49817 -0.45275,0.94954 -0.80918,1.06789c-0.01239,0 -0.53395,0.23119 -1.32661,-0.03303c0,0 -0.12936,-0.06468 -0.19404,0.09771c-0.03303,0.09771 -0.35642,0.93854 -0.38945,1.03624c-0.03303,0.09771 0,0.19404 0.06468,0.19404c0.70321,0.27523 1.789,0.24358 2.46056,0c0.86422,-0.31376 1.33762,-1.08578 1.5867,-1.78074c0.37844,-1.06101 0.3867,-1.34725 1.61835,-8.22113h1.68303c0.08657,-0.00711 0.15527,-0.07582 0.16239,-0.16239zM2945.85133,658.56594c-0.07706,-0.23119 -0.70184,-2.49221 -3.46377,-2.49221c-2.09863,0 -3.16515,1.37615 -3.4624,2.49221c-0.13762,0.41285 -0.43762,1.92661 0,3.23671c0.01239,0.04128 0.60688,2.49359 3.4624,2.49359c2.05735,0 3.15139,-1.32248 3.46377,-2.49359c0.44174,-1.32248 0.13899,-2.82386 0,-3.23671zM2952.09906,656.26777c-0.68808,-0.22707 -2.28716,-0.26147 -3.04267,0.7445v-0.61514c0.00246,-0.04365 -0.01391,-0.08626 -0.04496,-0.11705c-0.03105,-0.03078 -0.0738,-0.04679 -0.11743,-0.04396h-1.29358c-0.04363,-0.00283 -0.08638,0.01318 -0.11743,0.04396c-0.03105,0.03078 -0.04742,0.0734 -0.04496,0.11705v7.60737c-0.00242,0.04376 0.01392,0.08648 0.04491,0.11748c0.03099,0.03099 0.07371,0.04732 0.11748,0.04491h1.32661c0.04376,0.00242 0.08648,-0.01392 0.11748,-0.04491c0.03099,-0.03099 0.04732,-0.07371 0.04491,-0.11748v-3.82157c0,-0.40046 0.00688,-1.56468 0.61376,-2.07111c0.67431,-0.67431 1.65138,-0.46239 1.84542,-0.4211c0.0844,-0.00151 0.16018,-0.05204 0.19404,-0.12936c0.16151,-0.35854 0.30211,-0.72613 0.4211,-1.10092c0.02815,-0.07181 0.00093,-0.15348 -0.06468,-0.19404zM2958.54082,663.71275l-0.29174,-1.00321c-0.06468,-0.16239 -0.19404,-0.09771 -0.19404,-0.09771c-0.58211,0.25046 -1.39679,0.26009 -1.55368,0.26009c-0.63853,0 -2.36285,-0.15551 -2.36285,-2.71928c0,-0.85734 0.25459,-2.71928 2.26652,-2.71928c0.53743,-0.0137 1.07335,0.06306 1.58533,0.22707c0,0 0.12936,0.06468 0.16239,-0.09771c0.12936,-0.35642 0.22569,-0.61514 0.35642,-1.03624c0.03165,-0.12936 -0.06468,-0.16101 -0.09771,-0.16101c-1.59496,-0.53257 -3.07432,-0.34817 -3.8202,0c-0.21881,0.10184 -2.23349,0.89312 -2.23349,3.78717c0,0.39908 -0.07982,4.14359 3.98258,4.14359c0.72946,-0.00143 1.45277,-0.13333 2.13579,-0.38945c0.06063,-0.04497 0.0865,-0.12315 0.06468,-0.19541zM2965.95415,658.2742c-0.11009,-0.41285 -0.73899,-2.23349 -3.0757,-2.23349c-2.20184,0 -3.23671,1.39129 -3.52845,2.55827c-0.15876,0.5245 -0.23535,1.07042 -0.22707,1.61835c0,3.56011 2.59267,4.04589 4.11194,4.04589c1.489,0 2.26515,-0.3234 2.55689,-0.51743c0.06468,-0.03303 0.09771,-0.09771 0.03303,-0.25872l-0.32477,-0.93991c-0.03419,-0.07353 -0.11479,-0.11355 -0.19404,-0.09633c-0.35642,0.12936 -0.87386,0.38807 -2.10414,0.38807c-2.39726,0 -2.31882,-2.02845 -2.32983,-2.29817h5.11378c0.07698,-0.00191 0.14331,-0.05475 0.16239,-0.12936c-0.03303,-0.00138 0.12936,-0.97294 -0.19404,-2.13854zM2962.7491,657.40034c-1.42157,0 -1.789,1.23854 -1.87707,1.94313h3.62891c-0.1211,-1.64037 -1.04863,-1.9445 -1.75184,-1.9445z" className="SFSymbolsPreviewWireframe"/></g>
  <g id="Regular-S"><path d="M1440.05903,659.34209h-3.62616c0.09495,-0.71009 0.45688,-1.94313 1.87707,-1.94313c0.9289,0 1.64725,0.52569 1.74909,1.94313zM1458.86553,657.43199c-0.06468,0 -1.94175,-0.24358 -1.94175,2.7523c0,2.99588 1.8757,2.7523 1.94175,2.7523c1.789,0 1.94175,-1.86331 1.94175,-2.7523c0,-2.99451 -1.87982,-2.7523 -1.94175,-2.7523zM1425.39476,660.70173c-0.30612,0.24007 -0.47526,0.61484 -0.45275,1.00321c0,0.6578 0.28624,0.83257 0.45275,0.97019c0.64679,0.50918 2.07386,0.29174 2.88029,0.13073v-2.3312c-0.73211,-0.14725 -2.3023,-0.26973 -2.88029,0.22707zM1493.88172,657.46502c0,12.05234 -11.00922,21.24641 -22.75605,18.77484c-2.52799,4.5413 -9.73352,9.73628 -18.19273,5.72892c-5.66424,13.21794 -24.48037,12.68537 -29.42351,-0.71147c-16.47529,3.28763 -24.60835,-19.04182 -10.3583,-27.42396c-4.78213,-10.93078 3.11561,-23.89138 15.73079,-23.89138c5.31729,0.0033 10.33036,2.48034 13.56335,6.70186c2.84863,-2.94497 6.79819,-4.79039 11.16747,-4.79039c5.82663,0 10.8716,3.23671 13.59638,8.06012c12.77344,-5.59819 26.67258,3.88488 26.67258,17.55144zM1422.38374,661.84118c0,-1.61835 -1.60872,-2.08762 -2.45918,-2.36285c-0.72523,-0.29037 -1.84542,-0.48303 -1.84542,-1.23028c0,-1.30184 2.33946,-0.91652 3.46377,-0.29174c0,0 0.16101,0.09771 0.22569,-0.06468c0.03303,-0.09633 0.32477,-0.90551 0.35642,-1.00321c0.02563,-0.08009 -0.01704,-0.16604 -0.09633,-0.19404c-1.6968,-1.05 -5.60094,-1.17111 -5.60094,1.74771c0,1.71469 1.5812,2.12478 2.46056,2.36285c0.64954,0.21743 1.81239,0.41285 1.81239,1.19725c0,0.55046 -0.48578,0.97156 -1.26193,0.97156c-0.94301,-0.00159 -1.86022,-0.30813 -2.61469,-0.87386c-0.06468,-0.03165 -0.19541,-0.09771 -0.22707,0.09771l-0.33028,1.02799c-0.06468,0.12936 0.03165,0.16239 0.03165,0.19404c0.24083,0.19266 1.41744,0.90688 3.14038,0.90688c1.81239,0 2.94497,-0.97156 2.94497,-2.49221zM1426.78742,655.98153c-1.39404,0 -2.5679,0.43624 -2.94497,0.71285c-0.03046,0.02108 -0.05114,0.05355 -0.05735,0.09007c-0.00622,0.03652 0.00255,0.074 0.02432,0.10397l0.35642,0.97156c0.02009,0.07004 0.09129,0.11227 0.16239,0.09633c0.08945,0 0.93578,-0.55046 2.32983,-0.55046c0.55046,0 0.97156,0.09771 1.26331,0.32477c0.49541,0.38532 0.4211,1.14083 0.4211,1.45597c-0.65918,-0.04128 -2.62983,-0.4734 -4.04726,0.51743c-0.65669,0.45038 -1.03769,1.20511 -1.0101,2.00093c0,0.81193 0.2078,1.4312 0.90688,1.97478c1.68441,1.12294 4.99268,0.27523 5.24314,0.19404c0.21743,-0.04404 0.48578,-0.09083 0.48578,-0.25872v-4.6624c0.0055,-0.63441 0.04404,-2.97799 -3.13487,-2.97799zM1433.19341,653.09436c0.00287,-0.04388 -0.01332,-0.08687 -0.04442,-0.11797c-0.0311,-0.0311 -0.07409,-0.04728 -0.11797,-0.04442h-1.35138c-0.04365,-0.00246 -0.08626,0.01391 -0.11705,0.04496c-0.03078,0.03105 -0.04679,0.0738 -0.04396,0.11743v10.8716c-0.00283,0.04363 0.01318,0.08638 0.04396,0.11743c0.03078,0.03105 0.0734,0.04742 0.11705,0.04496h1.35964c0.04388,0.00287 0.08687,-0.01332 0.11797,-0.04442c0.0311,-0.0311 0.04728,-0.07409 0.04442,-0.11797zM1440.86546,657.07557c-0.28899,-0.31789 -0.93441,-1.03624 -2.42891,-1.03624c-0.48303,0 -1.94863,0.03165 -2.84863,1.23028c-0.87386,1.05 -0.90551,2.49221 -0.90551,2.94634c0,0.42936 0.02064,1.96239 0.97156,2.91331c0.3633,0.40046 1.24679,1.13257 3.139,1.13257c1.489,0 2.26652,-0.3234 2.55689,-0.51743c0.06468,-0.03303 0.09771,-0.09771 0.03303,-0.25872l-0.3234,-0.93991c-0.03419,-0.07353 -0.11479,-0.11355 -0.19404,-0.09633c-0.35642,0.12936 -0.87386,0.38807 -2.10414,0.38807c-2.39726,0 -2.31882,-2.02845 -2.3312,-2.29817h5.11516c0.07681,-0.00159 0.14291,-0.0547 0.16101,-0.12936c-0.03991,0 0.28486,-2.02294 -0.83808,-3.33442zM1445.91456,664.32651c1.81239,0 2.94634,-0.97156 2.94634,-2.49221c0,-1.61835 -1.6101,-2.08762 -2.46056,-2.36285c-0.56973,-0.22844 -1.84542,-0.46514 -1.84542,-1.23028c0,-0.51743 0.45275,-0.87386 1.1656,-0.87386c0.80045,0.01608 1.58659,0.2152 2.29817,0.58211c0,0 0.16239,0.09771 0.22707,-0.06468c0.03165,-0.09633 0.3234,-0.90551 0.35505,-1.00321c0.02563,-0.08009 -0.01704,-0.16604 -0.09633,-0.19404c-1.08854,-0.67431 -2.30368,-0.67982 -2.78396,-0.67982c-1.65138,0 -2.81561,1.00321 -2.81561,2.42753c0,1.71469 1.57982,2.12478 2.45918,2.36285c0.84083,0.27523 1.81239,0.44863 1.81239,1.19725c0,0.55046 -0.48441,0.97156 -1.26193,0.97156c-0.94295,-0.00198 -1.86003,-0.30848 -2.61469,-0.87386c-0.03987,-0.03421 -0.09575,-0.04274 -0.14401,-0.02197c-0.04826,0.02077 -0.08049,0.0672 -0.08306,0.11968l-0.3234,1.03487c-0.06468,0.12936 0.03165,0.16239 0.03165,0.19404c0.2367,0.19266 1.42157,0.90688 3.13625,0.90688zM1454.949,656.3641c0,-0.09771 -0.03303,-0.16239 -0.16239,-0.16239h-1.61835c0,-0.01927 0.12936,-1.23028 0.61514,-1.71606c0.57248,-0.5711 1.61835,-0.22569 1.65138,-0.22569c0.16101,0.06468 0.19404,0 0.22569,-0.06468l0.38945,-1.06927c0.09633,-0.12936 0,-0.16101 -0.03303,-0.19404c-0.70046,-0.27523 -2.38762,-0.39496 -3.36607,0.58349c-0.75413,0.75413 -0.96331,1.9156 -1.10092,2.68625h-1.1656c-0.08629,0.0072 -0.15454,0.07604 -0.16101,0.16239l-0.19541,1.06789c0,0.09633 0.03303,0.16101 0.16239,0.16101h1.13257c-1.17111,6.59177 -1.20413,6.90966 -1.42432,7.6404c-0.14862,0.49817 -0.45275,0.94954 -0.80918,1.06789c-0.01239,0 -0.53395,0.23119 -1.32661,-0.03303c0,0 -0.12936,-0.06468 -0.19404,0.09771c-0.03303,0.09771 -0.35642,0.93854 -0.38945,1.03624c-0.03303,0.09771 0,0.19404 0.06468,0.19404c0.70321,0.27523 1.789,0.24358 2.46056,0c0.86422,-0.31376 1.33762,-1.08578 1.5867,-1.78074c0.37844,-1.06101 0.3867,-1.34725 1.61835,-8.22113h1.68303c0.08657,-0.00711 0.15527,-0.07582 0.16239,-0.16239zM1462.29628,658.56594c-0.07706,-0.23119 -0.70184,-2.49221 -3.46377,-2.49221c-2.09863,0 -3.16515,1.37615 -3.4624,2.49221c-0.13762,0.41285 -0.43762,1.92661 0,3.23671c0.01239,0.04128 0.60688,2.49359 3.4624,2.49359c2.05735,0 3.15139,-1.32248 3.46377,-2.49359c0.44174,-1.32248 0.13899,-2.82386 0,-3.23671zM1468.54401,656.26777c-0.68808,-0.22707 -2.28716,-0.26147 -3.04267,0.7445v-0.61514c0.00246,-0.04365 -0.01391,-0.08626 -0.04496,-0.11705c-0.03105,-0.03078 -0.0738,-0.04679 -0.11743,-0.04396h-1.29358c-0.04363,-0.00283 -0.08638,0.01318 -0.11743,0.04396c-0.03105,0.03078 -0.04742,0.0734 -0.04496,0.11705v7.60737c-0.00242,0.04376 0.01392,0.08648 0.04491,0.11748c0.03099,0.03099 0.07371,0.04732 0.11748,0.04491h1.32661c0.04376,0.00242 0.08648,-0.01392 0.11748,-0.04491c0.03099,-0.03099 0.04732,-0.07371 0.04491,-0.11748v-3.82157c0,-0.40046 0.00688,-1.56468 0.61376,-2.07111c0.67431,-0.67431 1.65138,-0.46239 1.84542,-0.4211c0.0844,-0.00151 0.16018,-0.05204 0.19404,-0.12936c0.16151,-0.35854 0.30211,-0.72613 0.4211,-1.10092c0.02815,-0.07181 0.00093,-0.15348 -0.06468,-0.19404zM1474.98577,663.71275l-0.29174,-1.00321c-0.06468,-0.16239 -0.19404,-0.09771 -0.19404,-0.09771c-0.58211,0.25046 -1.39679,0.26009 -1.55368,0.26009c-0.63853,0 -2.36285,-0.15551 -2.36285,-2.71928c0,-0.85734 0.25459,-2.71928 2.26652,-2.71928c0.53743,-0.0137 1.07335,0.06306 1.58533,0.22707c0,0 0.12936,0.06468 0.16239,-0.09771c0.12936,-0.35642 0.22569,-0.61514 0.35642,-1.03624c0.03165,-0.12936 -0.06468,-0.16101 -0.09771,-0.16101c-1.59496,-0.53257 -3.07432,-0.34817 -3.8202,0c-0.21881,0.10184 -2.23349,0.89312 -2.23349,3.78717c0,0.39908 -0.07982,4.14359 3.98258,4.14359c0.72946,-0.00143 1.45277,-0.13333 2.13579,-0.38945c0.06063,-0.04497 0.0865,-0.12315 0.06468,-0.19541zM1482.3991,658.2742c-0.11009,-0.41285 -0.73899,-2.23349 -3.0757,-2.23349c-2.20184,0 -3.23671,1.39129 -3.52845,2.55827c-0.15876,0.5245 -0.23535,1.07042 -0.22707,1.61835c0,3.56011 2.59267,4.04589 4.11194,4.04589c1.489,0 2.26515,-0.3234 2.55689,-0.51743c0.06468,-0.03303 0.09771,-0.09771 0.03303,-0.25872l-0.32477,-0.93991c-0.03419,-0.07353 -0.11479,-0.11355 -0.19404,-0.09633c-0.35642,0.12936 -0.87386,0.38807 -2.10414,0.38807c-2.39726,0 -2.31882,-2.02845 -2.32983,-2.29817h5.11378c0.07698,-0.00191 0.14331,-0.05475 0.16239,-0.12936c-0.03303,-0.00138 0.12936,-0.97294 -0.19404,-2.13854zM1479.19405,657.40034c-1.42157,0 -1.789,1.23854 -1.87707,1.94313h3.62891c-0.1211,-1.64037 -1.04863,-1.9445 -1.75184,-1.9445z" className="SFSymbolsPreviewWireframe"/></g>
  <g id="Ultralight-S"><path d="M549.92544,659.34209h-3.62616c0.09495,-0.71009 0.45688,-1.94313 1.87707,-1.94313c0.9289,0 1.64725,0.52569 1.74909,1.94313zM568.73194,657.43199c-0.06468,0 -1.94175,-0.24358 -1.94175,2.7523c0,2.99588 1.8757,2.7523 1.94175,2.7523c1.789,0 1.94175,-1.86331 1.94175,-2.7523c0,-2.99451 -1.87982,-2.7523 -1.94175,-2.7523zM535.26117,660.70173c-0.30612,0.24007 -0.47526,0.61484 -0.45275,1.00321c0,0.6578 0.28624,0.83257 0.45275,0.97019c0.64679,0.50918 2.07386,0.29174 2.88029,0.13073v-2.3312c-0.73211,-0.14725 -2.3023,-0.26973 -2.88029,0.22707zM603.74813,657.46502c0,12.05234 -11.00922,21.24641 -22.75605,18.77484c-2.52799,4.5413 -9.73352,9.73628 -18.19273,5.72892c-5.66424,13.21794 -24.48037,12.68537 -29.42351,-0.71147c-16.47529,3.28763 -24.60835,-19.04182 -10.3583,-27.42396c-4.78213,-10.93078 3.11561,-23.89138 15.73079,-23.89138c5.31729,0.0033 10.33036,2.48034 13.56335,6.70186c2.84863,-2.94497 6.79819,-4.79039 11.16747,-4.79039c5.82663,0 10.8716,3.23671 13.59638,8.06012c12.77344,-5.59819 26.67258,3.88488 26.67258,17.55144zM532.25015,661.84118c0,-1.61835 -1.60872,-2.08762 -2.45918,-2.36285c-0.72523,-0.29037 -1.84542,-0.48303 -1.84542,-1.23028c0,-1.30184 2.33946,-0.91652 3.46377,-0.29174c0,0 0.16101,0.09771 0.22569,-0.06468c0.03303,-0.09633 0.32477,-0.90551 0.35642,-1.00321c0.02563,-0.08009 -0.01704,-0.16604 -0.09633,-0.19404c-1.6968,-1.05 -5.60094,-1.17111 -5.60094,1.74771c0,1.71469 1.5812,2.12478 2.46056,2.36285c0.64954,0.21743 1.81239,0.41285 1.81239,1.19725c0,0.55046 -0.48578,0.97156 -1.26193,0.97156c-0.94301,-0.00159 -1.86022,-0.30813 -2.61469,-0.87386c-0.06468,-0.03165 -0.19541,-0.09771 -0.22707,0.09771l-0.33028,1.02799c-0.06468,0.12936 0.03165,0.16239 0.03165,0.19404c0.24083,0.19266 1.41744,0.90688 3.14038,0.90688c1.81239,0 2.94497,-0.97156 2.94497,-2.49221zM536.65383,655.98153c-1.39404,0 -2.5679,0.43624 -2.94497,0.71285c-0.03046,0.02108 -0.05114,0.05355 -0.05735,0.09007c-0.00622,0.03652 0.00255,0.074 0.02432,0.10397l0.35642,0.97156c0.02009,0.07004 0.09129,0.11227 0.16239,0.09633c0.08945,0 0.93578,-0.55046 2.32983,-0.55046c0.55046,0 0.97156,0.09771 1.26331,0.32477c0.49541,0.38532 0.4211,1.14083 0.4211,1.45597c-0.65918,-0.04128 -2.62983,-0.4734 -4.04726,0.51743c-0.65669,0.45038 -1.03769,1.20511 -1.0101,2.00093c0,0.81193 0.2078,1.4312 0.90688,1.97478c1.68441,1.12294 4.99268,0.27523 5.24314,0.19404c0.21743,-0.04404 0.48578,-0.09083 0.48578,-0.25872v-4.6624c0.0055,-0.63441 0.04404,-2.97799 -3.13487,-2.97799zM543.05982,653.09436c0.00287,-0.04388 -0.01332,-0.08687 -0.04442,-0.11797c-0.0311,-0.0311 -0.07409,-0.04728 -0.11797,-0.04442h-1.35138c-0.04365,-0.00246 -0.08626,0.01391 -0.11705,0.04496c-0.03078,0.03105 -0.04679,0.0738 -0.04396,0.11743v10.8716c-0.00283,0.04363 0.01318,0.08638 0.04396,0.11743c0.03078,0.03105 0.0734,0.04742 0.11705,0.04496h1.35964c0.04388,0.00287 0.08687,-0.01332 0.11797,-0.04442c0.0311,-0.0311 0.04728,-0.07409 0.04442,-0.11797zM550.73187,657.07557c-0.28899,-0.31789 -0.93441,-1.03624 -2.42891,-1.03624c-0.48303,0 -1.94863,0.03165 -2.84863,1.23028c-0.87386,1.05 -0.90551,2.49221 -0.90551,2.94634c0,0.42936 0.02064,1.96239 0.97156,2.91331c0.3633,0.40046 1.24679,1.13257 3.139,1.13257c1.489,0 2.26652,-0.3234 2.55689,-0.51743c0.06468,-0.03303 0.09771,-0.09771 0.03303,-0.25872l-0.3234,-0.93991c-0.03419,-0.07353 -0.11479,-0.11355 -0.19404,-0.09633c-0.35642,0.12936 -0.87386,0.38807 -2.10414,0.38807c-2.39726,0 -2.31882,-2.02845 -2.3312,-2.29817h5.11516c0.07681,-0.00159 0.14291,-0.0547 0.16101,-0.12936c-0.03991,0 0.28486,-2.02294 -0.83808,-3.33442zM555.78097,664.32651c1.81239,0 2.94634,-0.97156 2.94634,-2.49221c0,-1.61835 -1.6101,-2.08762 -2.46056,-2.36285c-0.56973,-0.22844 -1.84542,-0.46514 -1.84542,-1.23028c0,-0.51743 0.45275,-0.87386 1.1656,-0.87386c0.80045,0.01608 1.58659,0.2152 2.29817,0.58211c0,0 0.16239,0.09771 0.22707,-0.06468c0.03165,-0.09633 0.3234,-0.90551 0.35505,-1.00321c0.02563,-0.08009 -0.01704,-0.16604 -0.09633,-0.19404c-1.08854,-0.67431 -2.30368,-0.67982 -2.78396,-0.67982c-1.65138,0 -2.81561,1.00321 -2.81561,2.42753c0,1.71469 1.57982,2.12478 2.45918,2.36285c0.84083,0.27523 1.81239,0.44863 1.81239,1.19725c0,0.55046 -0.48441,0.97156 -1.26193,0.97156c-0.94295,-0.00198 -1.86003,-0.30848 -2.61469,-0.87386c-0.03987,-0.03421 -0.09575,-0.04274 -0.14401,-0.02197c-0.04826,0.02077 -0.08049,0.0672 -0.08306,0.11968l-0.3234,1.03487c-0.06468,0.12936 0.03165,0.16239 0.03165,0.19404c0.2367,0.19266 1.42157,0.90688 3.13625,0.90688zM564.81541,656.3641c0,-0.09771 -0.03303,-0.16239 -0.16239,-0.16239h-1.61835c0,-0.01927 0.12936,-1.23028 0.61514,-1.71606c0.57248,-0.5711 1.61835,-0.22569 1.65138,-0.22569c0.16101,0.06468 0.19404,0 0.22569,-0.06468l0.38945,-1.06927c0.09633,-0.12936 0,-0.16101 -0.03303,-0.19404c-0.70046,-0.27523 -2.38762,-0.39496 -3.36607,0.58349c-0.75413,0.75413 -0.96331,1.9156 -1.10092,2.68625h-1.1656c-0.08629,0.0072 -0.15454,0.07604 -0.16101,0.16239l-0.19541,1.06789c0,0.09633 0.03303,0.16101 0.16239,0.16101h1.13257c-1.17111,6.59177 -1.20413,6.90966 -1.42432,7.6404c-0.14862,0.49817 -0.45275,0.94954 -0.80918,1.06789c-0.01239,0 -0.53395,0.23119 -1.32661,-0.03303c0,0 -0.12936,-0.06468 -0.19404,0.09771c-0.03303,0.09771 -0.35642,0.93854 -0.38945,1.03624c-0.03303,0.09771 0,0.19404 0.06468,0.19404c0.70321,0.27523 1.789,0.24358 2.46056,0c0.86422,-0.31376 1.33762,-1.08578 1.5867,-1.78074c0.37844,-1.06101 0.3867,-1.34725 1.61835,-8.22113h1.68303c0.08657,-0.00711 0.15527,-0.07582 0.16239,-0.16239zM572.16269,658.56594c-0.07706,-0.23119 -0.70184,-2.49221 -3.46377,-2.49221c-2.09863,0 -3.16515,1.37615 -3.4624,2.49221c-0.13762,0.41285 -0.43762,1.92661 0,3.23671c0.01239,0.04128 0.60688,2.49359 3.4624,2.49359c2.05735,0 3.15139,-1.32248 3.46377,-2.49359c0.44174,-1.32248 0.13899,-2.82386 0,-3.23671zM578.41042,656.26777c-0.68808,-0.22707 -2.28716,-0.26147 -3.04267,0.7445v-0.61514c0.00246,-0.04365 -0.01391,-0.08626 -0.04496,-0.11705c-0.03105,-0.03078 -0.0738,-0.04679 -0.11743,-0.04396h-1.29358c-0.04363,-0.00283 -0.08638,0.01318 -0.11743,0.04396c-0.03105,0.03078 -0.04742,0.0734 -0.04496,0.11705v7.60737c-0.00242,0.04376 0.01392,0.08648 0.04491,0.11748c0.03099,0.03099 0.07371,0.04732 0.11748,0.04491h1.32661c0.04376,0.00242 0.08648,-0.01392 0.11748,-0.04491c0.03099,-0.03099 0.04732,-0.07371 0.04491,-0.11748v-3.82157c0,-0.40046 0.00688,-1.56468 0.61376,-2.07111c0.67431,-0.67431 1.65138,-0.46239 1.84542,-0.4211c0.0844,-0.00151 0.16018,-0.05204 0.19404,-0.12936c0.16151,-0.35854 0.30211,-0.72613 0.4211,-1.10092c0.02815,-0.07181 0.00093,-0.15348 -0.06468,-0.19404zM584.85218,663.71275l-0.29174,-1.00321c-0.06468,-0.16239 -0.19404,-0.09771 -0.19404,-0.09771c-0.58211,0.25046 -1.39679,0.26009 -1.55368,0.26009c-0.63853,0 -2.36285,-0.15551 -2.36285,-2.71928c0,-0.85734 0.25459,-2.71928 2.26652,-2.71928c0.53743,-0.0137 1.07335,0.06306 1.58533,0.22707c0,0 0.12936,0.06468 0.16239,-0.09771c0.12936,-0.35642 0.22569,-0.61514 0.35642,-1.03624c0.03165,-0.12936 -0.06468,-0.16101 -0.09771,-0.16101c-1.59496,-0.53257 -3.07432,-0.34817 -3.8202,0c-0.21881,0.10184 -2.23349,0.89312 -2.23349,3.78717c0,0.39908 -0.07982,4.14359 3.98258,4.14359c0.72946,-0.00143 1.45277,-0.13333 2.13579,-0.38945c0.06063,-0.04497 0.0865,-0.12315 0.06468,-0.19541zM592.26551,658.2742c-0.11009,-0.41285 -0.73899,-2.23349 -3.0757,-2.23349c-2.20184,0 -3.23671,1.39129 -3.52845,2.55827c-0.15876,0.5245 -0.23535,1.07042 -0.22707,1.61835c0,3.56011 2.59267,4.04589 4.11194,4.04589c1.489,0 2.26515,-0.3234 2.55689,-0.51743c0.06468,-0.03303 0.09771,-0.09771 0.03303,-0.25872l-0.32477,-0.93991c-0.03419,-0.07353 -0.11479,-0.11355 -0.19404,-0.09633c-0.35642,0.12936 -0.87386,0.38807 -2.10414,0.38807c-2.39726,0 -2.31882,-2.02845 -2.32983,-2.29817h5.11378c0.07698,-0.00191 0.14331,-0.05475 0.16239,-0.12936c-0.03303,-0.00138 0.12936,-0.97294 -0.19404,-2.13854zM589.06046,657.40034c-1.42157,0 -1.789,1.23854 -1.87707,1.94313h3.62891c-0.1211,-1.64037 -1.04863,-1.9445 -1.75184,-1.9445z" className="SFSymbolsPreviewWireframe"/></g>
 </g>
</svg>