<?xml version="1.0" encoding="UTF-8"?><!--Generator: https://SymbolKit.app--><!DOCTYPE svg PUBLIC "-//W3C//DTD SVG 1.1//EN" "http://www.w3.org/Graphics/SVG/1.1/DTD/svg11.dtd"><svg xmlns="http://www.w3.org/2000/svg" xmlns:xlink="http://www.w3.org/1999/xlink" version="1.1" viewBox="0 0 3300 2200">
 <!--glyph: "100092", point size: 100.0, font version: "20.0d10e1", template writer version: "138.0.0"-->
 <style>.SFSymbolsPreviewWireframe {fill:none;opacity:1.0;stroke:black;stroke-width:0.5}
</style>
 <g id="Notes">
  <rect height="2200" id="artboard" style="fill:white;opacity:1" width="3300" x="0" y="0"/>
  <line style="fill:none;stroke:black;opacity:1;stroke-width:0.5;" x1="263" x2="3036" y1="292" y2="292"/>
  <text style="stroke:none;fill:black;font-family:sans-serif;font-size:13;font-weight:bold;" transform="matrix(1 0 0 1 263 322)">Weight/Scale Variations</text>
  <text style="stroke:none;fill:black;font-family:sans-serif;font-size:13;text-anchor:middle;" transform="matrix(1 0 0 1 559.711 322)">Ultralight</text>
  <text style="stroke:none;fill:black;font-family:sans-serif;font-size:13;text-anchor:middle;" transform="matrix(1 0 0 1 856.422 322)">Thin</text>
  <text style="stroke:none;fill:black;font-family:sans-serif;font-size:13;text-anchor:middle;" transform="matrix(1 0 0 1 1153.13 322)">Light</text>
  <text style="stroke:none;fill:black;font-family:sans-serif;font-size:13;text-anchor:middle;" transform="matrix(1 0 0 1 1449.84 322)">Regular</text>
  <text style="stroke:none;fill:black;font-family:sans-serif;font-size:13;text-anchor:middle;" transform="matrix(1 0 0 1 1746.56 322)">Medium</text>
  <text style="stroke:none;fill:black;font-family:sans-serif;font-size:13;text-anchor:middle;" transform="matrix(1 0 0 1 2043.27 322)">Semibold</text>
  <text style="stroke:none;fill:black;font-family:sans-serif;font-size:13;text-anchor:middle;" transform="matrix(1 0 0 1 2339.98 322)">Bold</text>
  <text style="stroke:none;fill:black;font-family:sans-serif;font-size:13;text-anchor:middle;" transform="matrix(1 0 0 1 2636.69 322)">Heavy</text>
  <text style="stroke:none;fill:black;font-family:sans-serif;font-size:13;text-anchor:middle;" transform="matrix(1 0 0 1 2933.4 322)">Black</text>
  <line style="fill:none;stroke:black;opacity:1;stroke-width:0.5;" x1="263" x2="3036" y1="1903" y2="1903"/>
  <g transform="matrix(0.2 0 0 0.2 263 1933)">
   <path d="m46.2402 4.15039c21.7773 0 39.4531-17.627 39.4531-39.4043s-17.6758-39.4043-39.4531-39.4043c-21.7285 0-39.4043 17.627-39.4043 39.4043s17.6758 39.4043 39.4043 39.4043Zm0-7.42188c-17.6758 0-31.9336-14.3066-31.9336-31.9824s14.2578-31.9824 31.9336-31.9824 31.9824 14.3066 31.9824 31.9824-14.3066 31.9824-31.9824 31.9824Zm-17.9688-31.9824c0 2.14844 1.51367 3.61328 3.75977 3.61328h10.498v10.5957c0 2.19727 1.46484 3.71094 3.61328 3.71094 2.24609 0 3.71094-1.51367 3.71094-3.71094v-10.5957h10.5957c2.19727 0 3.71094-1.46484 3.71094-3.61328 0-2.19727-1.51367-3.71094-3.71094-3.71094h-10.5957v-10.5469c0-2.24609-1.46484-3.75977-3.71094-3.75977-2.14844 0-3.61328 1.51367-3.61328 3.75977v10.5469h-10.498c-2.24609 0-3.75977 1.51367-3.75977 3.71094Z"/>
  </g>
  <g transform="matrix(0.2 0 0 0.2 281.506 1933)">
   <path d="m58.5449 14.5508c27.4902 0 49.8047-22.3145 49.8047-49.8047s-22.3145-49.8047-49.8047-49.8047-49.8047 22.3145-49.8047 49.8047 22.3145 49.8047 49.8047 49.8047Zm0-8.30078c-22.9492 0-41.5039-18.5547-41.5039-41.5039s18.5547-41.5039 41.5039-41.5039 41.5039 18.5547 41.5039 41.5039-18.5547 41.5039-41.5039 41.5039Zm-22.6562-41.5039c0 2.39258 1.66016 4.00391 4.15039 4.00391h14.3555v14.4043c0 2.44141 1.66016 4.15039 4.05273 4.15039 2.44141 0 4.15039-1.66016 4.15039-4.15039v-14.4043h14.4043c2.44141 0 4.15039-1.61133 4.15039-4.00391 0-2.44141-1.70898-4.15039-4.15039-4.15039h-14.4043v-14.3555c0-2.49023-1.70898-4.19922-4.15039-4.19922-2.39258 0-4.05273 1.70898-4.05273 4.19922v14.3555h-14.3555c-2.49023 0-4.15039 1.70898-4.15039 4.15039Z"/>
  </g>
  <g transform="matrix(0.2 0 0 0.2 304.924 1933)">
   <path d="m74.8535 28.3203c35.1074 0 63.623-28.4668 63.623-63.5742s-28.5156-63.623-63.623-63.623-63.5742 28.5156-63.5742 63.623 28.4668 63.5742 63.5742 63.5742Zm0-9.08203c-30.127 0-54.4922-24.3652-54.4922-54.4922s24.3652-54.4922 54.4922-54.4922 54.4922 24.3652 54.4922 54.4922-24.3652 54.4922-54.4922 54.4922Zm-28.8574-54.4922c0 2.58789 1.85547 4.39453 4.58984 4.39453h19.7266v19.7754c0 2.68555 1.85547 4.58984 4.44336 4.58984 2.68555 0 4.54102-1.85547 4.54102-4.58984v-19.7754h19.7754c2.68555 0 4.58984-1.80664 4.58984-4.39453 0-2.73438-1.85547-4.58984-4.58984-4.58984h-19.7754v-19.7266c0-2.73438-1.85547-4.63867-4.54102-4.63867-2.58789 0-4.44336 1.9043-4.44336 4.63867v19.7266h-19.7266c-2.73438 0-4.58984 1.85547-4.58984 4.58984Z"/>
  </g>
  <text style="stroke:none;fill:black;font-family:sans-serif;font-size:13;font-weight:bold;" transform="matrix(1 0 0 1 263 1953)">Design Variations</text>
  <text style="stroke:none;fill:black;font-family:sans-serif;font-size:13;" transform="matrix(1 0 0 1 263 1971)">Symbols are supported in up to nine weights and three scales.</text>
  <text style="stroke:none;fill:black;font-family:sans-serif;font-size:13;" transform="matrix(1 0 0 1 263 1989)">For optimal layout with text and other symbols, vertically align</text>
  <text style="stroke:none;fill:black;font-family:sans-serif;font-size:13;" transform="matrix(1 0 0 1 263 2007)">symbols with the adjacent text.</text>
  <line style="fill:none;stroke:#00AEEF;stroke-width:0.5;opacity:1.0;" x1="776" x2="776" y1="1919" y2="1933"/>
  <g transform="matrix(0.2 0 0 0.2 776 1933)">
   <path d="m16.5527 0.78125c2.58789 0 3.85742-0.976562 4.78516-3.71094l6.29883-17.2363h28.8086l6.29883 17.2363c0.927734 2.73438 2.19727 3.71094 4.73633 3.71094 2.58789 0 4.24805-1.5625 4.24805-4.00391 0-0.830078-0.146484-1.61133-0.537109-2.63672l-22.9004-60.9863c-1.12305-2.97852-3.125-4.49219-6.25-4.49219-3.02734 0-5.07812 1.46484-6.15234 4.44336l-22.9004 61.084c-0.390625 1.02539-0.537109 1.80664-0.537109 2.63672 0 2.44141 1.5625 3.95508 4.10156 3.95508Zm13.4766-28.3691 11.8652-32.8613h0.244141l11.8652 32.8613Z"/>
  </g>
  <line style="fill:none;stroke:#00AEEF;stroke-width:0.5;opacity:1.0;" x1="792.836" x2="792.836" y1="1919" y2="1933"/>
  <text style="stroke:none;fill:black;font-family:sans-serif;font-size:13;font-weight:bold;" transform="matrix(1 0 0 1 776 1953)">Margins</text>
  <text style="stroke:none;fill:black;font-family:sans-serif;font-size:13;" transform="matrix(1 0 0 1 776 1971)">Leading and trailing margins on the left and right side of each symbol</text>
  <text style="stroke:none;fill:black;font-family:sans-serif;font-size:13;" transform="matrix(1 0 0 1 776 1989)">can be adjusted by modifying the x-location of the margin guidelines.</text>
  <text style="stroke:none;fill:black;font-family:sans-serif;font-size:13;" transform="matrix(1 0 0 1 776 2007)">Modifications are automatically applied proportionally to all</text>
  <text style="stroke:none;fill:black;font-family:sans-serif;font-size:13;" transform="matrix(1 0 0 1 776 2025)">scales and weights.</text>
  <g transform="matrix(0.2 0 0 0.2 1289 1933)">
   <path d="m14.209 9.32617 8.49609 8.54492c4.29688 4.3457 9.22852 4.05273 13.8672-1.07422l53.4668-58.9355-4.83398-4.88281-53.0762 58.3984c-1.75781 2.00195-3.41797 2.49023-5.76172 0.146484l-5.85938-5.81055c-2.34375-2.29492-1.80664-4.00391 0.195312-5.81055l57.373-54.0039-4.88281-4.83398-57.959 54.4434c-4.93164 4.58984-5.32227 9.47266-1.02539 13.8184Zm32.0801-90.9668c-2.09961 2.05078-2.24609 4.93164-1.07422 6.88477 1.17188 1.80664 3.4668 2.97852 6.68945 2.14844 7.32422-1.70898 14.9414-2.00195 22.0703 2.68555l-2.92969 7.27539c-1.70898 4.15039-0.830078 7.08008 1.85547 9.81445l11.4746 11.5723c2.44141 2.44141 4.49219 2.53906 7.32422 2.05078l5.32227-0.976562 3.32031 3.36914-0.195312 2.7832c-0.195312 2.49023 0.439453 4.39453 2.88086 6.78711l3.80859 3.71094c2.39258 2.39258 5.46875 2.53906 7.8125 0.195312l14.5508-14.5996c2.34375-2.34375 2.24609-5.32227-0.146484-7.71484l-3.85742-3.80859c-2.39258-2.39258-4.24805-3.17383-6.64062-2.97852l-2.88086 0.244141-3.22266-3.17383 1.2207-5.61523c0.634766-2.83203-0.146484-5.0293-3.07617-7.95898l-10.9863-10.9375c-16.6992-16.6016-38.8672-16.2109-53.3203-1.75781Zm7.4707 1.85547c12.1582-8.88672 28.6133-7.37305 39.7461 3.75977l12.1582 12.0605c1.17188 1.17188 1.36719 2.09961 1.02539 3.80859l-1.61133 7.42188 7.51953 7.42188 4.93164-0.292969c1.26953-0.0488281 1.66016 0.0488281 2.63672 1.02539l2.88086 2.88086-12.207 12.207-2.88086-2.88086c-0.976562-0.976562-1.12305-1.36719-1.07422-2.68555l0.341797-4.88281-7.4707-7.42188-7.61719 1.26953c-1.61133 0.341797-2.34375 0.195312-3.56445-0.976562l-10.0098-10.0098c-1.26953-1.17188-1.41602-2.00195-0.634766-3.85742l4.39453-10.4492c-7.8125-7.27539-17.9688-10.4004-28.125-7.42188-0.78125 0.195312-1.07422-0.439453-0.439453-0.976562Z"/>
  </g>
  <text style="stroke:none;fill:black;font-family:sans-serif;font-size:13;font-weight:bold;" transform="matrix(1 0 0 1 1289 1953)">Exporting</text>
  <text style="stroke:none;fill:black;font-family:sans-serif;font-size:13;" transform="matrix(1 0 0 1 1289 1971)">Symbols should be outlined when exporting to ensure the</text>
  <text style="stroke:none;fill:black;font-family:sans-serif;font-size:13;" transform="matrix(1 0 0 1 1289 1989)">design is preserved when submitting to Xcode.</text>
  <text id="template-version" style="stroke:none;fill:black;font-family:sans-serif;font-size:13;text-anchor:end;" transform="matrix(1 0 0 1 3036 1933)">Template v.6.0</text>
  <text style="stroke:none;fill:black;font-family:sans-serif;font-size:13;text-anchor:end;" transform="matrix(1 0 0 1 3036 1951)">Requires Xcode 16 or greater</text>
  <text id="descriptive-name" style="stroke:none;fill:black;font-family:sans-serif;font-size:13;text-anchor:end;" transform="matrix(1 0 0 1 3036 1969)">Generated from square</text>
  <text style="stroke:none;fill:black;font-family:sans-serif;font-size:13;text-anchor:end;" transform="matrix(1 0 0 1 3036 1987)">Typeset at 100.0 points</text>
  <text style="stroke:none;fill:black;font-family:sans-serif;font-size:13;" transform="matrix(1 0 0 1 263 726)">Small</text>
  <text style="stroke:none;fill:black;font-family:sans-serif;font-size:13;" transform="matrix(1 0 0 1 263 1156)">Medium</text>
  <text style="stroke:none;fill:black;font-family:sans-serif;font-size:13;" transform="matrix(1 0 0 1 263 1586)">Large</text>
 </g>
 <g id="Guides">
  <g id="H-reference" style="fill:#27AAE1;stroke:none;" transform="matrix(1 0 0 1 339 696)">
   <path d="M0.993654 0L3.63775 0L29.3281-67.1323L30.0303-67.1323L30.0303-70.459L28.1226-70.459ZM11.6885-24.4799L46.9815-24.4799L46.2315-26.7285L12.4385-26.7285ZM55.1196 0L57.7637 0L30.6382-70.459L29.4326-70.459L29.4326-67.1323Z"/>
  </g>
  <line id="Baseline-S" style="fill:none;stroke:#27AAE1;opacity:1;stroke-width:0.5;" x1="263" x2="3036" y1="696" y2="696"/>
  <line id="Capline-S" style="fill:none;stroke:#27AAE1;opacity:1;stroke-width:0.5;" x1="263" x2="3036" y1="625.541" y2="625.541"/>
  <g id="H-reference" style="fill:#27AAE1;stroke:none;" transform="matrix(1 0 0 1 339 1126)">
   <path d="M0.993654 0L3.63775 0L29.3281-67.1323L30.0303-67.1323L30.0303-70.459L28.1226-70.459ZM11.6885-24.4799L46.9815-24.4799L46.2315-26.7285L12.4385-26.7285ZM55.1196 0L57.7637 0L30.6382-70.459L29.4326-70.459L29.4326-67.1323Z"/>
  </g>
  <line id="Baseline-M" style="fill:none;stroke:#27AAE1;opacity:1;stroke-width:0.5;" x1="263" x2="3036" y1="1126" y2="1126"/>
  <line id="Capline-M" style="fill:none;stroke:#27AAE1;opacity:1;stroke-width:0.5;" x1="263" x2="3036" y1="1055.54" y2="1055.54"/>
  <g id="H-reference" style="fill:#27AAE1;stroke:none;" transform="matrix(1 0 0 1 339 1556)">
   <path d="M0.993654 0L3.63775 0L29.3281-67.1323L30.0303-67.1323L30.0303-70.459L28.1226-70.459ZM11.6885-24.4799L46.9815-24.4799L46.2315-26.7285L12.4385-26.7285ZM55.1196 0L57.7637 0L30.6382-70.459L29.4326-70.459L29.4326-67.1323Z"/>
  </g>
  <line id="Baseline-L" style="fill:none;stroke:#27AAE1;opacity:1;stroke-width:0.5;" x1="263" x2="3036" y1="1556" y2="1556"/>
  <line id="Capline-L" style="fill:none;stroke:#27AAE1;opacity:1;stroke-width:0.5;" x1="263" x2="3036" y1="1485.54" y2="1485.54"/>
  <line id="right-margin-Black-S" style="fill:none;stroke:#00AEEF;stroke-width:0.5;opacity:1.0;" x1="2981.3" x2="2981.3" y1="600.785" y2="720.121"/>
  <line id="left-margin-Black-S" style="fill:none;stroke:#00AEEF;stroke-width:0.5;opacity:1.0;" x1="2885.5" x2="2885.5" y1="600.785" y2="720.121"/>
  <line id="right-margin-Regular-S" style="fill:none;stroke:#00AEEF;stroke-width:0.5;opacity:1.0;" x1="1495.18" x2="1495.18" y1="600.785" y2="720.121"/>
  <line id="left-margin-Regular-S" style="fill:none;stroke:#00AEEF;stroke-width:0.5;opacity:1.0;" x1="1404.51" x2="1404.51" y1="600.785" y2="720.121"/>
  <line id="right-margin-Ultralight-S" style="fill:none;stroke:#00AEEF;stroke-width:0.5;opacity:1.0;" x1="603.073" x2="603.073" y1="600.785" y2="720.121"/>
  <line id="left-margin-Ultralight-S" style="fill:none;stroke:#00AEEF;stroke-width:0.5;opacity:1.0;" x1="516.35" x2="516.35" y1="600.785" y2="720.121"/>
 </g>
 <g id="Symbols">
  <g id="Black-S"><path d="M2966.5552,675.99075c-0.46418,-1.26276 -1.34863,-1.93845 -2.35487,-2.49813c-0.18936,-0.11092 -0.36344,-0.19968 -0.51193,-0.26794c-0.30028,-0.15523 -0.60743,-0.30551 -0.91294,-0.46418c-3.13763,-1.66377 -5.58842,-3.76254 -7.28796,-6.25048c-0.48272,-0.70038 -0.90134,-1.44283 -1.25078,-2.21836c-0.14505,-0.41463 -0.13762,-0.65009 -0.03413,-0.86519c0.10321,-0.16567 0.23978,-0.30805 0.40101,-0.41807c0.53918,-0.35656 1.09542,-0.71835 1.47248,-0.96234c0.67225,-0.43514 1.20468,-0.77987 1.54762,-1.02386c1.28835,-0.90097 2.18932,-1.85781 2.7523,-2.92818c0.79519,-1.49566 0.90067,-3.2632 0.28899,-4.84282c-0.85321,-2.2456 -2.97428,-3.63978 -5.5441,-3.63978c-0.54206,-0.00046 -1.08262,0.05674 -1.61257,0.17064c-0.14161,0.03083 -0.28335,0.06317 -0.42152,0.09908c0.02395,-1.53579 -0.01018,-3.15689 -0.1467,-4.7524c-0.48468,-5.60892 -2.44872,-8.54907 -4.49644,-10.89362c-1.3111,-1.46925 -2.85549,-2.71225 -4.57103,-3.679c-3.10804,-1.77469 -6.63168,-2.67565 -10.47252,-2.67565c-3.84084,0 -7.34865,0.90097 -10.45876,2.67565c-1.71983,0.96706 -3.26747,2.21253 -4.57997,3.68575c-2.04771,2.34469 -4.01176,5.28993 -4.4963,10.89376c-0.13651,1.59551 -0.17064,3.22501 -0.14849,4.75227c-0.13762,-0.03578 -0.27812,-0.06881 -0.41986,-0.09895c-0.5299,-0.11397 -1.07042,-0.17118 -1.61244,-0.17064c-2.57162,0 -4.69612,1.39418 -5.54589,3.63978c-0.61456,1.58019 -0.51181,3.34949 0.28156,4.84791c0.56491,1.06982 1.46588,2.02721 2.75423,2.92818c0.34129,0.2389 0.87537,0.58349 1.54762,1.02386c0.36344,0.23546 0.8945,0.58019 1.41468,0.92477c0.18213,0.11777 0.33697,0.27312 0.45413,0.45564c0.10927,0.22349 0.11257,0.46418 -0.04954,0.90826c-0.34477,0.75918 -0.7565,1.48614 -1.23028,2.17226c-1.66198,2.43152 -4.0408,4.49286 -7.0781,6.14301c-1.60955,0.8528 -3.28226,1.4228 -3.98836,3.34254c-0.5323,1.44881 -0.18427,3.09717 1.1689,4.48626c0.49663,0.51846 1.07265,0.95451 1.70643,1.29179c1.31867,0.72469 2.72088,1.28568 4.17552,1.67051c0.30023,0.07741 0.58524,0.20494 0.84303,0.3772c0.49308,0.4317 0.42317,1.08179 1.08014,2.03395c0.32975,0.49214 0.74876,0.91816 1.23537,1.25601c1.37877,0.95216 2.92818,1.01188 4.56979,1.07491c1.48294,0.05642 3.16364,0.12124 5.08337,0.75427c0.79514,0.26285 1.62111,0.77133 2.57836,1.36514c2.29859,1.41262 5.44516,3.34598 10.71114,3.34598c5.26598,0 8.43471,-1.94354 10.75022,-3.36166c0.95051,-0.58349 1.77138,-1.08716 2.54437,-1.34285c1.91959,-0.63482 3.60043,-0.69798 5.08337,-0.75427c1.64147,-0.06317 3.19088,-0.12289 4.56965,-1.07505c0.57633,-0.40186 1.05654,-0.92634 1.40615,-1.53579c0.47257,-0.80367 0.46074,-1.36501 0.90441,-1.75748c0.24179,-0.16405 0.50941,-0.28635 0.7917,-0.36179c1.47451,-0.3861 2.89586,-0.95234 4.23194,-1.68592c0.67333,-0.36122 1.27939,-0.83572 1.79161,-1.40271l0.01706,-0.0205c1.26964,-1.35799 1.58877,-2.95886 1.06831,-4.37176zM2961.87449,678.50594c-2.85483,1.5768 -4.75227,1.4078 -6.22833,2.35831c-1.25422,0.80711 -0.51193,2.54767 -1.42322,3.17561c-1.11936,0.77298 -4.42804,-0.05505 -8.70265,1.35661c-3.52543,1.16546 -5.77447,4.51681 -12.11537,4.51681c-6.3409,0 -8.5371,-3.34405 -12.1206,-4.52534c-4.26607,-1.41124 -7.5815,-0.58363 -8.70265,-1.35661c-0.9095,-0.62794 -0.17064,-2.3685 -1.42308,-3.17561c-1.47785,-0.95051 -3.37529,-0.78152 -6.22846,-2.34978c-1.81735,-1.00335 -0.78661,-1.62386 -0.18083,-1.91794c10.34082,-5.00658 11.99083,-12.73656 12.06417,-13.31c0.08876,-0.69441 0.18771,-1.24046 -0.57675,-1.94698c-0.73886,-0.68257 -4.01685,-2.71102 -4.92662,-3.34625c-1.5051,-1.0511 -2.16716,-2.10056 -1.67891,-3.39056c0.34129,-0.89243 1.174,-1.22863 2.04758,-1.22863c0.27616,0.00085 0.55141,0.03176 0.82087,0.0922c1.65138,0.3578 3.25584,1.18583 4.1824,1.40945c0.11158,0.0286 0.22612,0.04407 0.34129,0.0461c0.49541,0 0.66881,-0.24922 0.63468,-0.81565c-0.10569,-1.80716 -0.36165,-5.32915 -0.07679,-8.62077c0.39083,-4.52878 1.84982,-6.77273 3.5835,-8.75728c0.83271,-0.95395 4.74552,-5.08846 12.22807,-5.08846c7.48255,0 11.40555,4.11745 12.23826,5.06796c1.73547,1.98455 3.19611,4.2285 3.5835,8.75728c0.285,3.29162 0.03922,6.81539 -0.07679,8.62077c-0.03922,0.59546 0.13995,0.81565 0.63482,0.81565c0.11518,-0.0019 0.22973,-0.01737 0.34129,-0.0461c0.92821,-0.22349 2.53212,-1.0511 4.1835,-1.40945c0.26942,-0.06043 0.54462,-0.09135 0.82074,-0.0922c0.87881,0 1.70643,0.34129 2.04771,1.22863c0.48798,1.29 -0.17064,2.33946 -1.67739,3.3907c-0.9095,0.63468 -4.18749,2.66189 -4.92662,3.34611c-0.76624,0.70652 -0.66551,1.2523 -0.57675,1.94712c0.07335,0.58184 1.7217,8.31196 12.06417,13.30987c0.61184,0.30551 1.64258,0.92656 -0.17477,1.93845z" className="SFSymbolsPreviewWireframe"/></g>
  <g id="Regular-S"><path d="M1483.00015,675.99075c-0.46418,-1.26276 -1.34863,-1.93845 -2.35487,-2.49813c-0.18936,-0.11092 -0.36344,-0.19968 -0.51193,-0.26794c-0.30028,-0.15523 -0.60743,-0.30551 -0.91294,-0.46418c-3.13763,-1.66377 -5.58842,-3.76254 -7.28796,-6.25048c-0.48272,-0.70038 -0.90134,-1.44283 -1.25078,-2.21836c-0.14505,-0.41463 -0.13762,-0.65009 -0.03413,-0.86519c0.10321,-0.16567 0.23978,-0.30805 0.40101,-0.41807c0.53918,-0.35656 1.09542,-0.71835 1.47248,-0.96234c0.67225,-0.43514 1.20468,-0.77987 1.54762,-1.02386c1.28835,-0.90097 2.18932,-1.85781 2.7523,-2.92818c0.79519,-1.49566 0.90067,-3.2632 0.28899,-4.84282c-0.85321,-2.2456 -2.97428,-3.63978 -5.5441,-3.63978c-0.54206,-0.00046 -1.08262,0.05674 -1.61257,0.17064c-0.14161,0.03083 -0.28335,0.06317 -0.42152,0.09908c0.02395,-1.53579 -0.01018,-3.15689 -0.1467,-4.7524c-0.48468,-5.60892 -2.44872,-8.54907 -4.49644,-10.89362c-1.3111,-1.46925 -2.85549,-2.71225 -4.57103,-3.679c-3.10804,-1.77469 -6.63168,-2.67565 -10.47252,-2.67565c-3.84084,0 -7.34865,0.90097 -10.45876,2.67565c-1.71983,0.96706 -3.26747,2.21253 -4.57997,3.68575c-2.04771,2.34469 -4.01176,5.28993 -4.4963,10.89376c-0.13651,1.59551 -0.17064,3.22501 -0.14849,4.75227c-0.13762,-0.03578 -0.27812,-0.06881 -0.41986,-0.09895c-0.5299,-0.11397 -1.07042,-0.17118 -1.61244,-0.17064c-2.57162,0 -4.69612,1.39418 -5.54589,3.63978c-0.61456,1.58019 -0.51181,3.34949 0.28156,4.84791c0.56491,1.06982 1.46588,2.02721 2.75423,2.92818c0.34129,0.2389 0.87537,0.58349 1.54762,1.02386c0.36344,0.23546 0.8945,0.58019 1.41468,0.92477c0.18213,0.11777 0.33697,0.27312 0.45413,0.45564c0.10927,0.22349 0.11257,0.46418 -0.04954,0.90826c-0.34477,0.75918 -0.7565,1.48614 -1.23028,2.17226c-1.66198,2.43152 -4.0408,4.49286 -7.0781,6.14301c-1.60955,0.8528 -3.28226,1.4228 -3.98836,3.34254c-0.5323,1.44881 -0.18427,3.09717 1.1689,4.48626c0.49663,0.51846 1.07265,0.95451 1.70643,1.29179c1.31867,0.72469 2.72088,1.28568 4.17552,1.67051c0.30023,0.07741 0.58524,0.20494 0.84303,0.3772c0.49308,0.4317 0.42317,1.08179 1.08014,2.03395c0.32975,0.49214 0.74876,0.91816 1.23537,1.25601c1.37877,0.95216 2.92818,1.01188 4.56979,1.07491c1.48294,0.05642 3.16364,0.12124 5.08337,0.75427c0.79514,0.26285 1.62111,0.77133 2.57836,1.36514c2.29859,1.41262 5.44516,3.34598 10.71114,3.34598c5.26598,0 8.43471,-1.94354 10.75022,-3.36166c0.95051,-0.58349 1.77138,-1.08716 2.54437,-1.34285c1.91959,-0.63482 3.60043,-0.69798 5.08337,-0.75427c1.64147,-0.06317 3.19088,-0.12289 4.56965,-1.07505c0.57633,-0.40186 1.05654,-0.92634 1.40615,-1.53579c0.47257,-0.80367 0.46074,-1.36501 0.90441,-1.75748c0.24179,-0.16405 0.50941,-0.28635 0.7917,-0.36179c1.47451,-0.3861 2.89586,-0.95234 4.23194,-1.68592c0.67333,-0.36122 1.27939,-0.83572 1.79161,-1.40271l0.01706,-0.0205c1.26964,-1.35799 1.58877,-2.95886 1.06831,-4.37176zM1478.31944,678.50594c-2.85483,1.5768 -4.75227,1.4078 -6.22833,2.35831c-1.25422,0.80711 -0.51193,2.54767 -1.42322,3.17561c-1.11936,0.77298 -4.42804,-0.05505 -8.70265,1.35661c-3.52543,1.16546 -5.77447,4.51681 -12.11537,4.51681c-6.3409,0 -8.5371,-3.34405 -12.1206,-4.52534c-4.26607,-1.41124 -7.5815,-0.58363 -8.70265,-1.35661c-0.9095,-0.62794 -0.17064,-2.3685 -1.42308,-3.17561c-1.47785,-0.95051 -3.37529,-0.78152 -6.22846,-2.34978c-1.81735,-1.00335 -0.78661,-1.62386 -0.18083,-1.91794c10.34082,-5.00658 11.99083,-12.73656 12.06417,-13.31c0.08876,-0.69441 0.18771,-1.24046 -0.57675,-1.94698c-0.73886,-0.68257 -4.01685,-2.71102 -4.92662,-3.34625c-1.5051,-1.0511 -2.16716,-2.10056 -1.67891,-3.39056c0.34129,-0.89243 1.174,-1.22863 2.04758,-1.22863c0.27616,0.00085 0.55141,0.03176 0.82087,0.0922c1.65138,0.3578 3.25584,1.18583 4.1824,1.40945c0.11158,0.0286 0.22612,0.04407 0.34129,0.0461c0.49541,0 0.66881,-0.24922 0.63468,-0.81565c-0.10569,-1.80716 -0.36165,-5.32915 -0.07679,-8.62077c0.39083,-4.52878 1.84982,-6.77273 3.5835,-8.75728c0.83271,-0.95395 4.74552,-5.08846 12.22807,-5.08846c7.48255,0 11.40555,4.11745 12.23826,5.06796c1.73547,1.98455 3.19611,4.2285 3.5835,8.75728c0.285,3.29162 0.03922,6.81539 -0.07679,8.62077c-0.03922,0.59546 0.13995,0.81565 0.63482,0.81565c0.11518,-0.0019 0.22973,-0.01737 0.34129,-0.0461c0.92821,-0.22349 2.53212,-1.0511 4.1835,-1.40945c0.26942,-0.06043 0.54462,-0.09135 0.82074,-0.0922c0.87881,0 1.70643,0.34129 2.04771,1.22863c0.48798,1.29 -0.17064,2.33946 -1.67739,3.3907c-0.9095,0.63468 -4.18749,2.66189 -4.92662,3.34611c-0.76624,0.70652 -0.66551,1.2523 -0.57675,1.94712c0.07335,0.58184 1.7217,8.31196 12.06417,13.30987c0.61184,0.30551 1.64258,0.92656 -0.17477,1.93845z" className="SFSymbolsPreviewWireframe"/></g>
  <g id="Ultralight-S"><path d="M592.86656,675.99075c-0.46418,-1.26276 -1.34863,-1.93845 -2.35487,-2.49813c-0.18936,-0.11092 -0.36344,-0.19968 -0.51193,-0.26794c-0.30028,-0.15523 -0.60743,-0.30551 -0.91294,-0.46418c-3.13763,-1.66377 -5.58842,-3.76254 -7.28796,-6.25048c-0.48272,-0.70038 -0.90134,-1.44283 -1.25078,-2.21836c-0.14505,-0.41463 -0.13762,-0.65009 -0.03413,-0.86519c0.10321,-0.16567 0.23978,-0.30805 0.40101,-0.41807c0.53918,-0.35656 1.09542,-0.71835 1.47248,-0.96234c0.67225,-0.43514 1.20468,-0.77987 1.54762,-1.02386c1.28835,-0.90097 2.18932,-1.85781 2.7523,-2.92818c0.79519,-1.49566 0.90067,-3.2632 0.28899,-4.84282c-0.85321,-2.2456 -2.97428,-3.63978 -5.5441,-3.63978c-0.54206,-0.00046 -1.08262,0.05674 -1.61257,0.17064c-0.14161,0.03083 -0.28335,0.06317 -0.42152,0.09908c0.02395,-1.53579 -0.01018,-3.15689 -0.1467,-4.7524c-0.48468,-5.60892 -2.44872,-8.54907 -4.49644,-10.89362c-1.3111,-1.46925 -2.85549,-2.71225 -4.57103,-3.679c-3.10804,-1.77469 -6.63168,-2.67565 -10.47252,-2.67565c-3.84084,0 -7.34865,0.90097 -10.45876,2.67565c-1.71983,0.96706 -3.26747,2.21253 -4.57997,3.68575c-2.04771,2.34469 -4.01176,5.28993 -4.4963,10.89376c-0.13651,1.59551 -0.17064,3.22501 -0.14849,4.75227c-0.13762,-0.03578 -0.27812,-0.06881 -0.41986,-0.09895c-0.5299,-0.11397 -1.07042,-0.17118 -1.61244,-0.17064c-2.57162,0 -4.69612,1.39418 -5.54589,3.63978c-0.61456,1.58019 -0.51181,3.34949 0.28156,4.84791c0.56491,1.06982 1.46588,2.02721 2.75423,2.92818c0.34129,0.2389 0.87537,0.58349 1.54762,1.02386c0.36344,0.23546 0.8945,0.58019 1.41468,0.92477c0.18213,0.11777 0.33697,0.27312 0.45413,0.45564c0.10927,0.22349 0.11257,0.46418 -0.04954,0.90826c-0.34477,0.75918 -0.7565,1.48614 -1.23028,2.17226c-1.66198,2.43152 -4.0408,4.49286 -7.0781,6.14301c-1.60955,0.8528 -3.28226,1.4228 -3.98836,3.34254c-0.5323,1.44881 -0.18427,3.09717 1.1689,4.48626c0.49663,0.51846 1.07265,0.95451 1.70643,1.29179c1.31867,0.72469 2.72088,1.28568 4.17552,1.67051c0.30023,0.07741 0.58524,0.20494 0.84303,0.3772c0.49308,0.4317 0.42317,1.08179 1.08014,2.03395c0.32975,0.49214 0.74876,0.91816 1.23537,1.25601c1.37877,0.95216 2.92818,1.01188 4.56979,1.07491c1.48294,0.05642 3.16364,0.12124 5.08337,0.75427c0.79514,0.26285 1.62111,0.77133 2.57836,1.36514c2.29859,1.41262 5.44516,3.34598 10.71114,3.34598c5.26598,0 8.43471,-1.94354 10.75022,-3.36166c0.95051,-0.58349 1.77138,-1.08716 2.54437,-1.34285c1.91959,-0.63482 3.60043,-0.69798 5.08337,-0.75427c1.64147,-0.06317 3.19088,-0.12289 4.56965,-1.07505c0.57633,-0.40186 1.05654,-0.92634 1.40615,-1.53579c0.47257,-0.80367 0.46074,-1.36501 0.90441,-1.75748c0.24179,-0.16405 0.50941,-0.28635 0.7917,-0.36179c1.47451,-0.3861 2.89586,-0.95234 4.23194,-1.68592c0.67333,-0.36122 1.27939,-0.83572 1.79161,-1.40271l0.01706,-0.0205c1.26964,-1.35799 1.58877,-2.95886 1.06831,-4.37176zM588.18585,678.50594c-2.85483,1.5768 -4.75227,1.4078 -6.22833,2.35831c-1.25422,0.80711 -0.51193,2.54767 -1.42322,3.17561c-1.11936,0.77298 -4.42804,-0.05505 -8.70265,1.35661c-3.52543,1.16546 -5.77447,4.51681 -12.11537,4.51681c-6.3409,0 -8.5371,-3.34405 -12.1206,-4.52534c-4.26607,-1.41124 -7.5815,-0.58363 -8.70265,-1.35661c-0.9095,-0.62794 -0.17064,-2.3685 -1.42308,-3.17561c-1.47785,-0.95051 -3.37529,-0.78152 -6.22846,-2.34978c-1.81735,-1.00335 -0.78661,-1.62386 -0.18083,-1.91794c10.34082,-5.00658 11.99083,-12.73656 12.06417,-13.31c0.08876,-0.69441 0.18771,-1.24046 -0.57675,-1.94698c-0.73886,-0.68257 -4.01685,-2.71102 -4.92662,-3.34625c-1.5051,-1.0511 -2.16716,-2.10056 -1.67891,-3.39056c0.34129,-0.89243 1.174,-1.22863 2.04758,-1.22863c0.27616,0.00085 0.55141,0.03176 0.82087,0.0922c1.65138,0.3578 3.25584,1.18583 4.1824,1.40945c0.11158,0.0286 0.22612,0.04407 0.34129,0.0461c0.49541,0 0.66881,-0.24922 0.63468,-0.81565c-0.10569,-1.80716 -0.36165,-5.32915 -0.07679,-8.62077c0.39083,-4.52878 1.84982,-6.77273 3.5835,-8.75728c0.83271,-0.95395 4.74552,-5.08846 12.22807,-5.08846c7.48255,0 11.40555,4.11745 12.23826,5.06796c1.73547,1.98455 3.19611,4.2285 3.5835,8.75728c0.285,3.29162 0.03922,6.81539 -0.07679,8.62077c-0.03922,0.59546 0.13995,0.81565 0.63482,0.81565c0.11518,-0.0019 0.22973,-0.01737 0.34129,-0.0461c0.92821,-0.22349 2.53212,-1.0511 4.1835,-1.40945c0.26942,-0.06043 0.54462,-0.09135 0.82074,-0.0922c0.87881,0 1.70643,0.34129 2.04771,1.22863c0.48798,1.29 -0.17064,2.33946 -1.67739,3.3907c-0.9095,0.63468 -4.18749,2.66189 -4.92662,3.34611c-0.76624,0.70652 -0.66551,1.2523 -0.57675,1.94712c0.07335,0.58184 1.7217,8.31196 12.06417,13.30987c0.61184,0.30551 1.64258,0.92656 -0.17477,1.93845z" className="SFSymbolsPreviewWireframe"/></g>
 </g>
</svg>