<?xml version="1.0" encoding="UTF-8"?><!--Generator: https://SymbolKit.app--><!DOCTYPE svg PUBLIC "-//W3C//DTD SVG 1.1//EN" "http://www.w3.org/Graphics/SVG/1.1/DTD/svg11.dtd"><svg xmlns="http://www.w3.org/2000/svg" xmlns:xlink="http://www.w3.org/1999/xlink" version="1.1" viewBox="0 0 3300 2200">
 <!--glyph: "100092", point size: 100.0, font version: "20.0d10e1", template writer version: "138.0.0"-->
 <style>.SFSymbolsPreviewWireframe {fill:none;opacity:1.0;stroke:black;stroke-width:0.5}
</style>
 <g id="Notes">
  <rect height="2200" id="artboard" style="fill:white;opacity:1" width="3300" x="0" y="0"/>
  <line style="fill:none;stroke:black;opacity:1;stroke-width:0.5;" x1="263" x2="3036" y1="292" y2="292"/>
  <text style="stroke:none;fill:black;font-family:sans-serif;font-size:13;font-weight:bold;" transform="matrix(1 0 0 1 263 322)">Weight/Scale Variations</text>
  <text style="stroke:none;fill:black;font-family:sans-serif;font-size:13;text-anchor:middle;" transform="matrix(1 0 0 1 559.711 322)">Ultralight</text>
  <text style="stroke:none;fill:black;font-family:sans-serif;font-size:13;text-anchor:middle;" transform="matrix(1 0 0 1 856.422 322)">Thin</text>
  <text style="stroke:none;fill:black;font-family:sans-serif;font-size:13;text-anchor:middle;" transform="matrix(1 0 0 1 1153.13 322)">Light</text>
  <text style="stroke:none;fill:black;font-family:sans-serif;font-size:13;text-anchor:middle;" transform="matrix(1 0 0 1 1449.84 322)">Regular</text>
  <text style="stroke:none;fill:black;font-family:sans-serif;font-size:13;text-anchor:middle;" transform="matrix(1 0 0 1 1746.56 322)">Medium</text>
  <text style="stroke:none;fill:black;font-family:sans-serif;font-size:13;text-anchor:middle;" transform="matrix(1 0 0 1 2043.27 322)">Semibold</text>
  <text style="stroke:none;fill:black;font-family:sans-serif;font-size:13;text-anchor:middle;" transform="matrix(1 0 0 1 2339.98 322)">Bold</text>
  <text style="stroke:none;fill:black;font-family:sans-serif;font-size:13;text-anchor:middle;" transform="matrix(1 0 0 1 2636.69 322)">Heavy</text>
  <text style="stroke:none;fill:black;font-family:sans-serif;font-size:13;text-anchor:middle;" transform="matrix(1 0 0 1 2933.4 322)">Black</text>
  <line style="fill:none;stroke:black;opacity:1;stroke-width:0.5;" x1="263" x2="3036" y1="1903" y2="1903"/>
  <g transform="matrix(0.2 0 0 0.2 263 1933)">
   <path d="m46.2402 4.15039c21.7773 0 39.4531-17.627 39.4531-39.4043s-17.6758-39.4043-39.4531-39.4043c-21.7285 0-39.4043 17.627-39.4043 39.4043s17.6758 39.4043 39.4043 39.4043Zm0-7.42188c-17.6758 0-31.9336-14.3066-31.9336-31.9824s14.2578-31.9824 31.9336-31.9824 31.9824 14.3066 31.9824 31.9824-14.3066 31.9824-31.9824 31.9824Zm-17.9688-31.9824c0 2.14844 1.51367 3.61328 3.75977 3.61328h10.498v10.5957c0 2.19727 1.46484 3.71094 3.61328 3.71094 2.24609 0 3.71094-1.51367 3.71094-3.71094v-10.5957h10.5957c2.19727 0 3.71094-1.46484 3.71094-3.61328 0-2.19727-1.51367-3.71094-3.71094-3.71094h-10.5957v-10.5469c0-2.24609-1.46484-3.75977-3.71094-3.75977-2.14844 0-3.61328 1.51367-3.61328 3.75977v10.5469h-10.498c-2.24609 0-3.75977 1.51367-3.75977 3.71094Z"/>
  </g>
  <g transform="matrix(0.2 0 0 0.2 281.506 1933)">
   <path d="m58.5449 14.5508c27.4902 0 49.8047-22.3145 49.8047-49.8047s-22.3145-49.8047-49.8047-49.8047-49.8047 22.3145-49.8047 49.8047 22.3145 49.8047 49.8047 49.8047Zm0-8.30078c-22.9492 0-41.5039-18.5547-41.5039-41.5039s18.5547-41.5039 41.5039-41.5039 41.5039 18.5547 41.5039 41.5039-18.5547 41.5039-41.5039 41.5039Zm-22.6562-41.5039c0 2.39258 1.66016 4.00391 4.15039 4.00391h14.3555v14.4043c0 2.44141 1.66016 4.15039 4.05273 4.15039 2.44141 0 4.15039-1.66016 4.15039-4.15039v-14.4043h14.4043c2.44141 0 4.15039-1.61133 4.15039-4.00391 0-2.44141-1.70898-4.15039-4.15039-4.15039h-14.4043v-14.3555c0-2.49023-1.70898-4.19922-4.15039-4.19922-2.39258 0-4.05273 1.70898-4.05273 4.19922v14.3555h-14.3555c-2.49023 0-4.15039 1.70898-4.15039 4.15039Z"/>
  </g>
  <g transform="matrix(0.2 0 0 0.2 304.924 1933)">
   <path d="m74.8535 28.3203c35.1074 0 63.623-28.4668 63.623-63.5742s-28.5156-63.623-63.623-63.623-63.5742 28.5156-63.5742 63.623 28.4668 63.5742 63.5742 63.5742Zm0-9.08203c-30.127 0-54.4922-24.3652-54.4922-54.4922s24.3652-54.4922 54.4922-54.4922 54.4922 24.3652 54.4922 54.4922-24.3652 54.4922-54.4922 54.4922Zm-28.8574-54.4922c0 2.58789 1.85547 4.39453 4.58984 4.39453h19.7266v19.7754c0 2.68555 1.85547 4.58984 4.44336 4.58984 2.68555 0 4.54102-1.85547 4.54102-4.58984v-19.7754h19.7754c2.68555 0 4.58984-1.80664 4.58984-4.39453 0-2.73438-1.85547-4.58984-4.58984-4.58984h-19.7754v-19.7266c0-2.73438-1.85547-4.63867-4.54102-4.63867-2.58789 0-4.44336 1.9043-4.44336 4.63867v19.7266h-19.7266c-2.73438 0-4.58984 1.85547-4.58984 4.58984Z"/>
  </g>
  <text style="stroke:none;fill:black;font-family:sans-serif;font-size:13;font-weight:bold;" transform="matrix(1 0 0 1 263 1953)">Design Variations</text>
  <text style="stroke:none;fill:black;font-family:sans-serif;font-size:13;" transform="matrix(1 0 0 1 263 1971)">Symbols are supported in up to nine weights and three scales.</text>
  <text style="stroke:none;fill:black;font-family:sans-serif;font-size:13;" transform="matrix(1 0 0 1 263 1989)">For optimal layout with text and other symbols, vertically align</text>
  <text style="stroke:none;fill:black;font-family:sans-serif;font-size:13;" transform="matrix(1 0 0 1 263 2007)">symbols with the adjacent text.</text>
  <line style="fill:none;stroke:#00AEEF;stroke-width:0.5;opacity:1.0;" x1="776" x2="776" y1="1919" y2="1933"/>
  <g transform="matrix(0.2 0 0 0.2 776 1933)">
   <path d="m16.5527 0.78125c2.58789 0 3.85742-0.976562 4.78516-3.71094l6.29883-17.2363h28.8086l6.29883 17.2363c0.927734 2.73438 2.19727 3.71094 4.73633 3.71094 2.58789 0 4.24805-1.5625 4.24805-4.00391 0-0.830078-0.146484-1.61133-0.537109-2.63672l-22.9004-60.9863c-1.12305-2.97852-3.125-4.49219-6.25-4.49219-3.02734 0-5.07812 1.46484-6.15234 4.44336l-22.9004 61.084c-0.390625 1.02539-0.537109 1.80664-0.537109 2.63672 0 2.44141 1.5625 3.95508 4.10156 3.95508Zm13.4766-28.3691 11.8652-32.8613h0.244141l11.8652 32.8613Z"/>
  </g>
  <line style="fill:none;stroke:#00AEEF;stroke-width:0.5;opacity:1.0;" x1="792.836" x2="792.836" y1="1919" y2="1933"/>
  <text style="stroke:none;fill:black;font-family:sans-serif;font-size:13;font-weight:bold;" transform="matrix(1 0 0 1 776 1953)">Margins</text>
  <text style="stroke:none;fill:black;font-family:sans-serif;font-size:13;" transform="matrix(1 0 0 1 776 1971)">Leading and trailing margins on the left and right side of each symbol</text>
  <text style="stroke:none;fill:black;font-family:sans-serif;font-size:13;" transform="matrix(1 0 0 1 776 1989)">can be adjusted by modifying the x-location of the margin guidelines.</text>
  <text style="stroke:none;fill:black;font-family:sans-serif;font-size:13;" transform="matrix(1 0 0 1 776 2007)">Modifications are automatically applied proportionally to all</text>
  <text style="stroke:none;fill:black;font-family:sans-serif;font-size:13;" transform="matrix(1 0 0 1 776 2025)">scales and weights.</text>
  <g transform="matrix(0.2 0 0 0.2 1289 1933)">
   <path d="m14.209 9.32617 8.49609 8.54492c4.29688 4.3457 9.22852 4.05273 13.8672-1.07422l53.4668-58.9355-4.83398-4.88281-53.0762 58.3984c-1.75781 2.00195-3.41797 2.49023-5.76172 0.146484l-5.85938-5.81055c-2.34375-2.29492-1.80664-4.00391 0.195312-5.81055l57.373-54.0039-4.88281-4.83398-57.959 54.4434c-4.93164 4.58984-5.32227 9.47266-1.02539 13.8184Zm32.0801-90.9668c-2.09961 2.05078-2.24609 4.93164-1.07422 6.88477 1.17188 1.80664 3.4668 2.97852 6.68945 2.14844 7.32422-1.70898 14.9414-2.00195 22.0703 2.68555l-2.92969 7.27539c-1.70898 4.15039-0.830078 7.08008 1.85547 9.81445l11.4746 11.5723c2.44141 2.44141 4.49219 2.53906 7.32422 2.05078l5.32227-0.976562 3.32031 3.36914-0.195312 2.7832c-0.195312 2.49023 0.439453 4.39453 2.88086 6.78711l3.80859 3.71094c2.39258 2.39258 5.46875 2.53906 7.8125 0.195312l14.5508-14.5996c2.34375-2.34375 2.24609-5.32227-0.146484-7.71484l-3.85742-3.80859c-2.39258-2.39258-4.24805-3.17383-6.64062-2.97852l-2.88086 0.244141-3.22266-3.17383 1.2207-5.61523c0.634766-2.83203-0.146484-5.0293-3.07617-7.95898l-10.9863-10.9375c-16.6992-16.6016-38.8672-16.2109-53.3203-1.75781Zm7.4707 1.85547c12.1582-8.88672 28.6133-7.37305 39.7461 3.75977l12.1582 12.0605c1.17188 1.17188 1.36719 2.09961 1.02539 3.80859l-1.61133 7.42188 7.51953 7.42188 4.93164-0.292969c1.26953-0.0488281 1.66016 0.0488281 2.63672 1.02539l2.88086 2.88086-12.207 12.207-2.88086-2.88086c-0.976562-0.976562-1.12305-1.36719-1.07422-2.68555l0.341797-4.88281-7.4707-7.42188-7.61719 1.26953c-1.61133 0.341797-2.34375 0.195312-3.56445-0.976562l-10.0098-10.0098c-1.26953-1.17188-1.41602-2.00195-0.634766-3.85742l4.39453-10.4492c-7.8125-7.27539-17.9688-10.4004-28.125-7.42188-0.78125 0.195312-1.07422-0.439453-0.439453-0.976562Z"/>
  </g>
  <text style="stroke:none;fill:black;font-family:sans-serif;font-size:13;font-weight:bold;" transform="matrix(1 0 0 1 1289 1953)">Exporting</text>
  <text style="stroke:none;fill:black;font-family:sans-serif;font-size:13;" transform="matrix(1 0 0 1 1289 1971)">Symbols should be outlined when exporting to ensure the</text>
  <text style="stroke:none;fill:black;font-family:sans-serif;font-size:13;" transform="matrix(1 0 0 1 1289 1989)">design is preserved when submitting to Xcode.</text>
  <text id="template-version" style="stroke:none;fill:black;font-family:sans-serif;font-size:13;text-anchor:end;" transform="matrix(1 0 0 1 3036 1933)">Template v.6.0</text>
  <text style="stroke:none;fill:black;font-family:sans-serif;font-size:13;text-anchor:end;" transform="matrix(1 0 0 1 3036 1951)">Requires Xcode 16 or greater</text>
  <text id="descriptive-name" style="stroke:none;fill:black;font-family:sans-serif;font-size:13;text-anchor:end;" transform="matrix(1 0 0 1 3036 1969)">Generated from square</text>
  <text style="stroke:none;fill:black;font-family:sans-serif;font-size:13;text-anchor:end;" transform="matrix(1 0 0 1 3036 1987)">Typeset at 100.0 points</text>
  <text style="stroke:none;fill:black;font-family:sans-serif;font-size:13;" transform="matrix(1 0 0 1 263 726)">Small</text>
  <text style="stroke:none;fill:black;font-family:sans-serif;font-size:13;" transform="matrix(1 0 0 1 263 1156)">Medium</text>
  <text style="stroke:none;fill:black;font-family:sans-serif;font-size:13;" transform="matrix(1 0 0 1 263 1586)">Large</text>
 </g>
 <g id="Guides">
  <g id="H-reference" style="fill:#27AAE1;stroke:none;" transform="matrix(1 0 0 1 339 696)">
   <path d="M0.993654 0L3.63775 0L29.3281-67.1323L30.0303-67.1323L30.0303-70.459L28.1226-70.459ZM11.6885-24.4799L46.9815-24.4799L46.2315-26.7285L12.4385-26.7285ZM55.1196 0L57.7637 0L30.6382-70.459L29.4326-70.459L29.4326-67.1323Z"/>
  </g>
  <line id="Baseline-S" style="fill:none;stroke:#27AAE1;opacity:1;stroke-width:0.5;" x1="263" x2="3036" y1="696" y2="696"/>
  <line id="Capline-S" style="fill:none;stroke:#27AAE1;opacity:1;stroke-width:0.5;" x1="263" x2="3036" y1="625.541" y2="625.541"/>
  <g id="H-reference" style="fill:#27AAE1;stroke:none;" transform="matrix(1 0 0 1 339 1126)">
   <path d="M0.993654 0L3.63775 0L29.3281-67.1323L30.0303-67.1323L30.0303-70.459L28.1226-70.459ZM11.6885-24.4799L46.9815-24.4799L46.2315-26.7285L12.4385-26.7285ZM55.1196 0L57.7637 0L30.6382-70.459L29.4326-70.459L29.4326-67.1323Z"/>
  </g>
  <line id="Baseline-M" style="fill:none;stroke:#27AAE1;opacity:1;stroke-width:0.5;" x1="263" x2="3036" y1="1126" y2="1126"/>
  <line id="Capline-M" style="fill:none;stroke:#27AAE1;opacity:1;stroke-width:0.5;" x1="263" x2="3036" y1="1055.54" y2="1055.54"/>
  <g id="H-reference" style="fill:#27AAE1;stroke:none;" transform="matrix(1 0 0 1 339 1556)">
   <path d="M0.993654 0L3.63775 0L29.3281-67.1323L30.0303-67.1323L30.0303-70.459L28.1226-70.459ZM11.6885-24.4799L46.9815-24.4799L46.2315-26.7285L12.4385-26.7285ZM55.1196 0L57.7637 0L30.6382-70.459L29.4326-70.459L29.4326-67.1323Z"/>
  </g>
  <line id="Baseline-L" style="fill:none;stroke:#27AAE1;opacity:1;stroke-width:0.5;" x1="263" x2="3036" y1="1556" y2="1556"/>
  <line id="Capline-L" style="fill:none;stroke:#27AAE1;opacity:1;stroke-width:0.5;" x1="263" x2="3036" y1="1485.54" y2="1485.54"/>
  <line id="right-margin-Black-S" style="fill:none;stroke:#00AEEF;stroke-width:0.5;opacity:1.0;" x1="2981.3" x2="2981.3" y1="600.785" y2="720.121"/>
  <line id="left-margin-Black-S" style="fill:none;stroke:#00AEEF;stroke-width:0.5;opacity:1.0;" x1="2885.5" x2="2885.5" y1="600.785" y2="720.121"/>
  <line id="right-margin-Regular-S" style="fill:none;stroke:#00AEEF;stroke-width:0.5;opacity:1.0;" x1="1495.18" x2="1495.18" y1="600.785" y2="720.121"/>
  <line id="left-margin-Regular-S" style="fill:none;stroke:#00AEEF;stroke-width:0.5;opacity:1.0;" x1="1404.51" x2="1404.51" y1="600.785" y2="720.121"/>
  <line id="right-margin-Ultralight-S" style="fill:none;stroke:#00AEEF;stroke-width:0.5;opacity:1.0;" x1="603.073" x2="603.073" y1="600.785" y2="720.121"/>
  <line id="left-margin-Ultralight-S" style="fill:none;stroke:#00AEEF;stroke-width:0.5;opacity:1.0;" x1="516.35" x2="516.35" y1="600.785" y2="720.121"/>
 </g>
 <g id="Symbols">
  <g id="Black-S"><path d="M2965.29654,658.80261l2.84863,0.97707c-1.32111,-3.289 -3.289,-5.09176 -4.3624,-6.16516l0.97707,-2.5046c0.02752,0 1.69267,-3.8257 -0.34404,-4.22479c-0.08257,-1.55505 -0.90826,-3.71561 -2.53212,-3.71561c-1.04588,-1.45872 -2.43579,-1.69267 -4.22479,-0.81193c-1.24999,0.60999 -2.41948,1.3727 -3.48166,2.27065c-0.72936,-0.88074 -0.41285,0.05505 -0.41285,-4.10093c-5.10552,-3.34405 -6.24773,-1.6101 -10.29362,0.41285l0.06881,0.06881c-3.03155,-1.06598 -6.20277,-1.6826 -9.41288,-1.83028c-0.75688,-1.19725 -2.55964,-2.62845 -3.45414,-3.45414l3.41286,0.97707c-0.75688,-0.75688 -3.68809,-1.77524 -4.70644,-2.09175c2.5046,-0.56422 4.10093,-2.8624 5.84865,-4.5413c-4.80277,-1.38991 -9.34407,-0.81193 -13.47253,1.62386l1.65138,-6.08259l-0.25184,-0.06881c-4.34864,3.33029 -4.5413,5.76608 -4.63763,6.26149c-0.12385,-0.33028 -0.86698,-2.69726 -2.09175,-3.71561c-0.45477,1.11169 -0.4793,2.35288 -0.06881,3.48166c0.41285,1.15597 0.81193,2.03671 1.15597,2.60093c-2.20184,-0.45413 -3.89451,-0.67431 -6.77067,0h-0.50918l4.5413,1.9679c-2.77776,2.59927 -4.96877,5.76146 -6.42663,9.27526l-0.23395,1.15597l0.23395,0.23395l1.04588,-0.64679c-0.45413,1.59634 -0.72936,2.66973 -0.90826,3.55047c-1.49734,1.68514 -2.78219,3.54769 -3.8257,5.54589c-2.06423,0.13762 -4.37616,1.48624 -5.54589,1.9679l0.41285,0.46789l3.96332,0.13762c-0.06881,0.13762 -0.09633,0.30275 -0.16514,0.44037c-1.00459,0.88074 -5.47709,5.18809 -4.5413,11.10555l2.77983,-3.08258c0.06881,0.23395 0.09633,0.46789 0.16514,0.7156c0,3.50919 0.05505,12.33032 8.93123,20.71109c6.00002,5.50461 13.21106,8.28444 21.67439,8.28444c16.74777,0 30.68819,-12.01381 30.68819,-29.10562c0.93578,-1.33487 -0.16514,0.41285 2.29817,-3.45414l1.789,1.9679l0.34404,-0.06881c-0.25449,-1.60486 -0.66468,-3.18111 -1.22478,-4.70644c-0.20716,-0.65822 -0.52349,-1.27694 -0.93578,-1.83028zM2952.87952,640.84383l-0.06881,3.01377c0.75688,2.49084 2.3257,2.36698 3.08258,2.36698l-0.46789,-0.64679l3.08258,-0.74312c-1.23757,0.06902 -2.47804,0.06902 -3.71561,0c1.76147,-0.28899 4.58259,-3.99084 5.91745,-1.55505c0.46789,1.04588 0.88074,2.36698 1.27982,3.8257l0.23395,-0.81193c-0.17263,-0.68339 -0.25134,-1.38711 -0.23395,-2.09175c0.74312,0.06881 1.21101,0.46789 1.27982,1.38991c0.06881,0.88074 0.23395,2.03671 0.46789,3.48166l0.64679,-1.55505c0.63303,0 0.61927,-0.49541 -0.34404,2.84863c-2.87616,-1.19725 -4.83029,-1.15597 -6.39911,-1.15597l2.5046,-2.20184c-3.48166,1.12844 -4.5413,1.48624 -7.54131,2.87616c-0.15138,-0.74312 -0.68808,-1.85781 -2.20184,-2.73854c-0.44037,0.52294 -0.38532,0.12385 -0.09633,2.03671h-0.34404c-0.17046,-1.12587 -0.56343,-2.20652 -1.15597,-3.17891l0.57798,-0.46789c1.15597,-0.97707 1.62386,-1.9679 1.45872,-3.01377c-0.06881,-0.88074 -0.74312,-1.85781 -1.85781,-2.84863c0.77065,-0.46789 2.09175,-0.05505 3.89451,1.16973zM2947.42996,639.45391c0.37156,0.26147 1.56881,0.74312 2.60093,2.36698c0.57798,1.15597 0.55046,1.34863 0.46789,1.52753c-0.06881,0.33028 -0.06881,0.59175 -0.41285,0.97707c-0.23395,0.34404 -0.74312,0.64679 -1.62386,1.04588c-1.04588,-1.789 -2.27065,-3.24772 -3.8257,-4.29359zM2910.63166,645.23375l0.16514,-0.23395c0.16514,-0.39908 0.57798,-1.04588 1.27982,-2.09175l0.34404,-0.46789l-1.789,1.69267l0.74312,-0.64679l-1.38991,1.27982l-0.57798,0.16514c1.69267,-3.31653 3.17891,-5.68351 4.47249,-6.90828c1.27982,-1.27982 2.20184,-2.20184 2.77983,-2.66973l-0.88074,0.16514c-1.55505,-0.57798 -2.66973,-0.97707 -3.41286,-1.15597c0.34404,-0.06881 0.50918,-0.06881 0.44037,-0.06881c1.41744,0 2.40827,0.06881 2.87616,0.16514c0.71166,0.22819 1.45449,0.34426 2.20184,0.34404l0.06881,-0.23395l-1.15597,-4.92662l1.85781,3.99084c0.38768,-0.60133 0.6628,-1.26814 0.81193,-1.9679c0.23395,-0.88074 0.74312,-1.789 1.38991,-2.66973c0.64679,-0.88074 1.04588,-1.45872 1.27982,-1.55505c-0.35793,1.14332 -0.65196,2.30567 -0.88074,3.48166l-0.23395,0.97707l-0.06881,0.64679l0.34404,0.34404c3.01377,-1.85781 6.26149,-2.66973 9.81196,-2.60093l2.90368,0.06881c-1.62386,1.85781 -3.8257,3.01377 -6.67434,3.41286c-1.06468,0.19585 -2.13992,0.3291 -3.2202,0.39908l-0.02752,-0.06881l-0.34404,-0.16514c-0.65462,-0.13668 -1.33645,-0.03928 -1.92661,0.27523c-0.34404,-0.02752 -0.67431,-0.06881 -0.97707,-0.09633l-0.34404,0.23395l0.06881,0.16514c0.27523,0.02752 0.5367,0.06881 0.85321,0.09633l-0.27523,0.46789l0.46789,-0.06881l-1.45872,1.55505c-0.57798,0.41285 -0.74312,0.88074 -0.57798,1.27982l0.74312,-0.46789h0.16514c0.84569,-1.12202 2.09392,-1.87195 3.48166,-2.09175v-0.41285c0.88074,0.06881 1.789,0.13762 2.66973,0.16514c0.88074,0 1.15597,0.06881 0.74312,0.16514c0.98894,0.55666 1.9405,1.17725 2.84863,1.85781c1.85781,1.38991 3.24772,3.01377 4.12846,4.87158c1.21101,2.5046 1.85781,5.10552 1.85781,7.78902c-0.00604,1.30876 -0.14436,2.61357 -0.41285,3.89451c-0.48584,2.18839 -1.22476,4.31278 -2.20184,6.3303l0.34404,0.06881c2.5046,-2.71102 5.76608,-2.20184 6.77067,-2.20184l-0.88074,0.81193l3.08258,2.43579l-0.23395,4.22479c-0.74312,-1.69267 -2.27065,-2.90368 -4.5413,-3.8257c2.27065,2.03671 3.24772,2.90368 3.01377,2.77983c-0.66055,-0.38532 -0.48165,-0.26147 -1.48624,-0.50918c0.56422,0.56422 2.40827,2.58717 2.5046,2.84863l0.02752,0.02752l-0.02752,0.02752c0,0.24771 0.22018,-0.16514 -1.92661,3.15139c-10.34866,-2.10551 -14.62437,-5.87617 -19.43127,-8.69728l1.62386,0.16514c-1.62386,-2.54588 -2.1468,-2.43579 -5.28442,-3.59176l1.45872,-1.15597c-1.21101,-0.41285 -2.5046,-0.41285 -3.89451,0.06881l1.04588,-1.45872l-0.16514,-0.23395c-2.05047,0.59175 -2.72478,1.26606 -3.1101,1.55505c-0.15138,-0.75688 -0.38532,-1.70643 -1.69267,-3.96332l-0.16514,3.71561l-1.81652,-0.68808c0.20642,-3.4679 0.74312,-6.94957 1.81652,-10.26609zM2948.68226,690.64677c-6.867,3.44038 -7.72021,3.08258 -8.1193,3.289c-4.10093,-1.62386 -7.00461,-4.3624 -8.73857,-8.09177l4.12846,2.27065c-1.34863,-1.27982 -2.51836,-2.27065 -5.28442,-6.09635l1.62386,3.17891l-2.43579,-1.04588c1.95414,2.90368 3.23396,7.11471 9.16517,10.11472c-16.62392,3.33029 -27.38543,-9.92206 -27.64689,-10.22481c1.52731,1.26957 3.15668,2.41105 4.87158,3.41286c0.46789,0.23395 0.97707,0.34404 1.38991,0.16514l-2.20184,-2.84863c1.26606,0.57798 1.30734,0.61927 9.50921,3.99084c-5.84865,-2.84863 -10.156,-5.6147 -12.82574,-8.28444c-0.06881,0.88074 -0.16514,1.38991 -0.16514,1.38991c1.19797,1.00478 2.16893,2.25248 2.84863,3.66056c-5.36699,-2.60093 -7.92664,-6.55048 -9.81196,-11.36702c6.867,7.5826 16.36245,5.16057 16.58263,5.10552c4.78901,2.25689 9.6193,3.24772 15.67437,1.45872c0.45413,0 2.79359,2.33946 3.48166,5.38075l0.57798,-0.41285l-0.34404,-3.24772c1.23854,1.23854 3.42662,3.1101 4.73396,1.789c-2.1468,-0.72936 -3.23396,-1.30734 -4.05965,-4.3624c0.63303,0.57798 1.04588,1.23854 3.8257,2.06423l0.16514,-0.16514l-1.44496,-1.95414c1.6101,-0.66055 -0.48165,0.13762 4.40369,-1.48624c0.59175,4.7202 1.23854,6.77067 0.09633,12.31656zM2964.54929,661.14207l-0.34404,0.06881l0.41285,1.27982c-0.48165,0.81193 -3.26148,6.09635 -9.85325,10.96793c-5.4358,4.10093 -10.54132,5.38075 -11.13307,5.54589l-1.04588,-0.97707l-0.16514,0.41285l1.9679,2.20184l-0.97707,-0.64679l0.46789,0.57798h-0.16514l-3.01377,-1.85781l1.27982,3.66056l-2.61469,-3.83946l-0.16514,0.34404l1.04588,3.99084c-0.83945,-1.12844 -2.88992,-4.48626 -7.81654,-5.44956l4.47249,2.91744c-4.28809,0.65083 -8.66686,0.35014 -12.82574,-0.88074c-0.57798,-0.16514 -1.22478,-0.34404 -1.85781,-0.57798l0.16514,-0.41285l-6.16516,-3.08258l3.59176,3.08258c-7.9404,1.2523 -15.55052,-3.49543 -17.39456,-11.47711l-0.34404,-2.25689l-3.06469,3.06882c2.6835,-7.91287 3.52295,-7.96792 7.07342,-9.64683c-1.2523,-0.72936 -0.22018,-0.45413 -5.28442,-1.27982c2.17432,-0.79817 4.5413,-2.11927 10.04591,0.7156c0.1606,-0.09648 0.33136,-0.17494 0.50918,-0.23395c0.08257,-0.44037 0.05505,-0.11009 0.13762,-1.62386c0.5367,1.37615 0.49541,1.19725 0.41285,1.27982l0.23395,0.06881c1.74771,-0.8945 1.22478,-0.61927 2.33946,-1.22478l-0.74312,1.85781l3.06882,-0.79817l-1.15597,1.15597l0.34404,0.34404c0.61927,-0.24771 4.16974,0.46789 5.6147,2.20184l-3.24772,-0.34404c5.42204,3.16515 7.08718,7.43122 7.67893,9.57802l0.23395,-0.16514c-0.38532,-3.06882 -1.70643,-4.66516 -2.20184,-5.51837c0.57798,0.68808 5.39452,4.76149 15.19272,6.3303c-1.55505,-0.06881 -3.17891,0.74312 -4.80277,2.60093l6.42663,-2.77983l-1.27982,3.01377c1.04588,-1.38991 2.03671,-3.24772 2.91744,-5.44956v-0.06881l0.16514,-0.41285l-0.16514,2.20184c1.85781,-5.75232 3.48166,-10.80279 4.87158,-15.09639l1.85781,-3.8257v-0.27523l-0.74312,-0.57798h1.38991l0.81193,0.57798l0.34404,-0.16514l-0.46789,-2.20184l1.69267,2.60093l5.75232,-2.77983l-2.03671,1.789l0.06881,0.39908l2.43579,-0.06881c1.52811,0.05515 3.04809,0.2486 4.5413,0.57798l-3.24772,0.34404l-0.16514,0.41285l3.66056,3.17891c1.35752,1.36323 2.60027,2.83612 3.71561,4.40369c-1.54129,-0.45413 -1.41744,-0.46789 -2.91744,-0.46789l1.69267,4.47249zM2963.70984,651.3301l-0.5367,1.789l-1.9679,-1.62386zM2928.64549,652.30717c0.23395,1.45872 0.64679,2.43579 1.21101,3.01377c-1.27982,0.90826 -3.78442,1.91285 -6.39911,2.20184l0.06881,0.16514c1.14845,0.17395 2.32223,0.05562 3.41286,-0.34404l-0.97707,1.789c0.57798,-0.23395 1.38991,-0.97707 2.43579,-2.03671c1.63762,-0.75688 1.74771,-0.70184 2.77983,-2.20184c-1.74771,-0.88074 -2.16056,-1.88533 -2.53212,-2.58717zM2929.15466,638.22914c-0.88074,-0.46789 -1.45872,0.41285 -1.69267,2.60093c-0.23395,2.18808 0.34404,4.05965 1.62386,5.44956c1.27982,1.38991 2.5046,1.45872 3.59176,0.41285c1.08716,-1.04588 0.46789,-3.24772 -1.55505,-6.56425c-0.48259,-0.78961 -1.15845,-1.44321 -1.96377,-1.89909zM2928.50787,644.60072c0.74312,0.30275 1.44496,0.26147 1.69267,-1.45872v-0.64679l-0.16514,0.06881c-0.59175,-0.42661 -0.34404,-0.61927 -0.23395,-0.85321l0.06881,-0.06881c-0.12385,-0.16514 -0.68808,-1.11468 -1.72019,0.64679c-0.06881,-1.85781 0.06881,-3.01377 0.41285,-3.41286c0.16514,-0.34404 0.64679,-0.16514 1.55505,0.57798c0.88074,0.74312 1.55505,2.20184 2.09175,4.47249c0.8945,3.85323 -2.72478,3.60552 -3.70185,0.67431zM2922.31519,643.84384c0.22018,0.04128 1.27982,-0.15138 1.27982,-2.03671h-0.06881c-0.74312,-0.15138 -0.30275,-0.75688 -0.09633,-0.81193c-0.23395,-0.41285 -0.46789,-0.57798 -0.74312,-0.64679c-1.11468,0 -1.59634,1.74771 -1.11468,2.91744c0.1413,0.30189 0.41954,0.5171 0.74725,0.57798zM2927.83356,636.94932l-0.34404,0.06881l0.06881,0.41285c1.24943,-0.06827 2.49318,0.21288 3.59176,0.81193c-0.34404,-0.75688 -1.37615,-1.9679 -3.89451,-1.9679l0.06881,0.34404zM2917.95278,643.74751c2.98625,2.31194 2.27065,2.94497 6.39911,3.24772l-0.39908,-0.64679c1.15743,-0.98559 1.88752,-2.38164 2.03671,-3.89451c0.23395,-2.20184 -0.16514,-4.05965 -1.21101,-5.68351l1.789,-1.04588c0.00987,-0.0841 -0.01498,-0.16858 -0.06881,-0.23395c-0.61878,-0.24284 -1.31855,-0.15472 -1.85781,0.23395c-1.74771,0.92202 -3.85323,2.87616 -3.99084,3.08258c-0.23395,0.23395 -0.46789,0.81193 -0.74312,1.85781c-0.26222,1.06276 -0.39621,2.15309 -0.39908,3.24772c-0.64679,-1.10092 -1.44496,-0.88074 -2.73854,-0.81193l0.97707,1.04588c-2.27065,0 -3.20643,2.11927 -3.24772,2.20184c0.93578,0 0.63303,-1.04588 4.12846,-1.69267c-0.59175,-0.86698 -0.45413,-0.68808 -0.67431,-0.90826zM2920.52619,641.1741c0.16514,-1.04588 0.46789,-1.789 0.88074,-2.36698c0.74312,-0.88074 1.45872,-1.38991 2.20184,-1.62386c0.57798,-0.23395 0.97707,0.16514 1.38991,1.27982c0.34308,1.12687 0.48288,2.30581 0.41285,3.48166c-0.06881,1.27982 -0.46789,2.36698 -1.15597,3.17891c-0.39908,0.46789 -0.74312,0.81193 -0.88074,1.04588c-0.51895,0.05234 -1.04275,0.02917 -1.55505,-0.06881l-0.97707,-0.46789l-0.74312,-0.88074c0.11009,-1.37615 0.1789,-2.58717 0.42661,-3.578zM2926.30603,648.89432c-4.78901,1.98166 -4.77525,1.92661 -4.96791,1.9679c-2.8624,0.64679 -2.61469,-3.35781 -2.60093,-3.41286l0.81193,-0.16514l-0.06881,-0.34404c-2.77983,-0.3578 -4.26607,0.57798 -4.47249,0.67431c0.06881,0.06881 0.41285,0.46789 0.81193,1.27982c0.57798,-0.88074 1.21101,-1.38991 2.09175,-1.45872c-0.23855,1.54568 -0.15894,3.1238 0.23395,4.63763c0.01376,0.06881 0.3578,2.3945 3.78442,3.31653c1.55505,0.41285 3.71561,0.16514 6.72938,-0.74312l-1.26606,0.06881c-0.57798,-2.03671 -0.88074,-3.41286 -0.81193,-4.05965c1.55505,-1.21101 3.01377,-1.55505 4.22479,-1.04588h0.34404l-1.62386,-1.04588l-0.97707,0.06881c-0.81193,0.16514 -1.69267,0.57798 -2.66973,1.15597z" className="SFSymbolsPreviewWireframe"/></g>
  <g id="Regular-S"><path d="M1481.74149,658.80261l2.84863,0.97707c-1.32111,-3.289 -3.289,-5.09176 -4.3624,-6.16516l0.97707,-2.5046c0.02752,0 1.69267,-3.8257 -0.34404,-4.22479c-0.08257,-1.55505 -0.90826,-3.71561 -2.53212,-3.71561c-1.04588,-1.45872 -2.43579,-1.69267 -4.22479,-0.81193c-1.24999,0.60999 -2.41948,1.3727 -3.48166,2.27065c-0.72936,-0.88074 -0.41285,0.05505 -0.41285,-4.10093c-5.10552,-3.34405 -6.24773,-1.6101 -10.29362,0.41285l0.06881,0.06881c-3.03155,-1.06598 -6.20277,-1.6826 -9.41288,-1.83028c-0.75688,-1.19725 -2.55964,-2.62845 -3.45414,-3.45414l3.41286,0.97707c-0.75688,-0.75688 -3.68809,-1.77524 -4.70644,-2.09175c2.5046,-0.56422 4.10093,-2.8624 5.84865,-4.5413c-4.80277,-1.38991 -9.34407,-0.81193 -13.47253,1.62386l1.65138,-6.08259l-0.25184,-0.06881c-4.34864,3.33029 -4.5413,5.76608 -4.63763,6.26149c-0.12385,-0.33028 -0.86698,-2.69726 -2.09175,-3.71561c-0.45477,1.11169 -0.4793,2.35288 -0.06881,3.48166c0.41285,1.15597 0.81193,2.03671 1.15597,2.60093c-2.20184,-0.45413 -3.89451,-0.67431 -6.77067,0h-0.50918l4.5413,1.9679c-2.77776,2.59927 -4.96877,5.76146 -6.42663,9.27526l-0.23395,1.15597l0.23395,0.23395l1.04588,-0.64679c-0.45413,1.59634 -0.72936,2.66973 -0.90826,3.55047c-1.49734,1.68514 -2.78219,3.54769 -3.8257,5.54589c-2.06423,0.13762 -4.37616,1.48624 -5.54589,1.9679l0.41285,0.46789l3.96332,0.13762c-0.06881,0.13762 -0.09633,0.30275 -0.16514,0.44037c-1.00459,0.88074 -5.47709,5.18809 -4.5413,11.10555l2.77983,-3.08258c0.06881,0.23395 0.09633,0.46789 0.16514,0.7156c0,3.50919 0.05505,12.33032 8.93123,20.71109c6.00002,5.50461 13.21106,8.28444 21.67439,8.28444c16.74777,0 30.68819,-12.01381 30.68819,-29.10562c0.93578,-1.33487 -0.16514,0.41285 2.29817,-3.45414l1.789,1.9679l0.34404,-0.06881c-0.25449,-1.60486 -0.66468,-3.18111 -1.22478,-4.70644c-0.20716,-0.65822 -0.52349,-1.27694 -0.93578,-1.83028zM1469.32447,640.84383l-0.06881,3.01377c0.75688,2.49084 2.3257,2.36698 3.08258,2.36698l-0.46789,-0.64679l3.08258,-0.74312c-1.23757,0.06902 -2.47804,0.06902 -3.71561,0c1.76147,-0.28899 4.58259,-3.99084 5.91745,-1.55505c0.46789,1.04588 0.88074,2.36698 1.27982,3.8257l0.23395,-0.81193c-0.17263,-0.68339 -0.25134,-1.38711 -0.23395,-2.09175c0.74312,0.06881 1.21101,0.46789 1.27982,1.38991c0.06881,0.88074 0.23395,2.03671 0.46789,3.48166l0.64679,-1.55505c0.63303,0 0.61927,-0.49541 -0.34404,2.84863c-2.87616,-1.19725 -4.83029,-1.15597 -6.39911,-1.15597l2.5046,-2.20184c-3.48166,1.12844 -4.5413,1.48624 -7.54131,2.87616c-0.15138,-0.74312 -0.68808,-1.85781 -2.20184,-2.73854c-0.44037,0.52294 -0.38532,0.12385 -0.09633,2.03671h-0.34404c-0.17046,-1.12587 -0.56343,-2.20652 -1.15597,-3.17891l0.57798,-0.46789c1.15597,-0.97707 1.62386,-1.9679 1.45872,-3.01377c-0.06881,-0.88074 -0.74312,-1.85781 -1.85781,-2.84863c0.77065,-0.46789 2.09175,-0.05505 3.89451,1.16973zM1463.87491,639.45391c0.37156,0.26147 1.56881,0.74312 2.60093,2.36698c0.57798,1.15597 0.55046,1.34863 0.46789,1.52753c-0.06881,0.33028 -0.06881,0.59175 -0.41285,0.97707c-0.23395,0.34404 -0.74312,0.64679 -1.62386,1.04588c-1.04588,-1.789 -2.27065,-3.24772 -3.8257,-4.29359zM1427.07661,645.23375l0.16514,-0.23395c0.16514,-0.39908 0.57798,-1.04588 1.27982,-2.09175l0.34404,-0.46789l-1.789,1.69267l0.74312,-0.64679l-1.38991,1.27982l-0.57798,0.16514c1.69267,-3.31653 3.17891,-5.68351 4.47249,-6.90828c1.27982,-1.27982 2.20184,-2.20184 2.77983,-2.66973l-0.88074,0.16514c-1.55505,-0.57798 -2.66973,-0.97707 -3.41286,-1.15597c0.34404,-0.06881 0.50918,-0.06881 0.44037,-0.06881c1.41744,0 2.40827,0.06881 2.87616,0.16514c0.71166,0.22819 1.45449,0.34426 2.20184,0.34404l0.06881,-0.23395l-1.15597,-4.92662l1.85781,3.99084c0.38768,-0.60133 0.6628,-1.26814 0.81193,-1.9679c0.23395,-0.88074 0.74312,-1.789 1.38991,-2.66973c0.64679,-0.88074 1.04588,-1.45872 1.27982,-1.55505c-0.35793,1.14332 -0.65196,2.30567 -0.88074,3.48166l-0.23395,0.97707l-0.06881,0.64679l0.34404,0.34404c3.01377,-1.85781 6.26149,-2.66973 9.81196,-2.60093l2.90368,0.06881c-1.62386,1.85781 -3.8257,3.01377 -6.67434,3.41286c-1.06468,0.19585 -2.13992,0.3291 -3.2202,0.39908l-0.02752,-0.06881l-0.34404,-0.16514c-0.65462,-0.13668 -1.33645,-0.03928 -1.92661,0.27523c-0.34404,-0.02752 -0.67431,-0.06881 -0.97707,-0.09633l-0.34404,0.23395l0.06881,0.16514c0.27523,0.02752 0.5367,0.06881 0.85321,0.09633l-0.27523,0.46789l0.46789,-0.06881l-1.45872,1.55505c-0.57798,0.41285 -0.74312,0.88074 -0.57798,1.27982l0.74312,-0.46789h0.16514c0.84569,-1.12202 2.09392,-1.87195 3.48166,-2.09175v-0.41285c0.88074,0.06881 1.789,0.13762 2.66973,0.16514c0.88074,0 1.15597,0.06881 0.74312,0.16514c0.98894,0.55666 1.9405,1.17725 2.84863,1.85781c1.85781,1.38991 3.24772,3.01377 4.12846,4.87158c1.21101,2.5046 1.85781,5.10552 1.85781,7.78902c-0.00604,1.30876 -0.14436,2.61357 -0.41285,3.89451c-0.48584,2.18839 -1.22476,4.31278 -2.20184,6.3303l0.34404,0.06881c2.5046,-2.71102 5.76608,-2.20184 6.77067,-2.20184l-0.88074,0.81193l3.08258,2.43579l-0.23395,4.22479c-0.74312,-1.69267 -2.27065,-2.90368 -4.5413,-3.8257c2.27065,2.03671 3.24772,2.90368 3.01377,2.77983c-0.66055,-0.38532 -0.48165,-0.26147 -1.48624,-0.50918c0.56422,0.56422 2.40827,2.58717 2.5046,2.84863l0.02752,0.02752l-0.02752,0.02752c0,0.24771 0.22018,-0.16514 -1.92661,3.15139c-10.34866,-2.10551 -14.62437,-5.87617 -19.43127,-8.69728l1.62386,0.16514c-1.62386,-2.54588 -2.1468,-2.43579 -5.28442,-3.59176l1.45872,-1.15597c-1.21101,-0.41285 -2.5046,-0.41285 -3.89451,0.06881l1.04588,-1.45872l-0.16514,-0.23395c-2.05047,0.59175 -2.72478,1.26606 -3.1101,1.55505c-0.15138,-0.75688 -0.38532,-1.70643 -1.69267,-3.96332l-0.16514,3.71561l-1.81652,-0.68808c0.20642,-3.4679 0.74312,-6.94957 1.81652,-10.26609zM1465.12721,690.64677c-6.867,3.44038 -7.72021,3.08258 -8.1193,3.289c-4.10093,-1.62386 -7.00461,-4.3624 -8.73857,-8.09177l4.12846,2.27065c-1.34863,-1.27982 -2.51836,-2.27065 -5.28442,-6.09635l1.62386,3.17891l-2.43579,-1.04588c1.95414,2.90368 3.23396,7.11471 9.16517,10.11472c-16.62392,3.33029 -27.38543,-9.92206 -27.64689,-10.22481c1.52731,1.26957 3.15668,2.41105 4.87158,3.41286c0.46789,0.23395 0.97707,0.34404 1.38991,0.16514l-2.20184,-2.84863c1.26606,0.57798 1.30734,0.61927 9.50921,3.99084c-5.84865,-2.84863 -10.156,-5.6147 -12.82574,-8.28444c-0.06881,0.88074 -0.16514,1.38991 -0.16514,1.38991c1.19797,1.00478 2.16893,2.25248 2.84863,3.66056c-5.36699,-2.60093 -7.92664,-6.55048 -9.81196,-11.36702c6.867,7.5826 16.36245,5.16057 16.58263,5.10552c4.78901,2.25689 9.6193,3.24772 15.67437,1.45872c0.45413,0 2.79359,2.33946 3.48166,5.38075l0.57798,-0.41285l-0.34404,-3.24772c1.23854,1.23854 3.42662,3.1101 4.73396,1.789c-2.1468,-0.72936 -3.23396,-1.30734 -4.05965,-4.3624c0.63303,0.57798 1.04588,1.23854 3.8257,2.06423l0.16514,-0.16514l-1.44496,-1.95414c1.6101,-0.66055 -0.48165,0.13762 4.40369,-1.48624c0.59175,4.7202 1.23854,6.77067 0.09633,12.31656zM1480.99424,661.14207l-0.34404,0.06881l0.41285,1.27982c-0.48165,0.81193 -3.26148,6.09635 -9.85325,10.96793c-5.4358,4.10093 -10.54132,5.38075 -11.13307,5.54589l-1.04588,-0.97707l-0.16514,0.41285l1.9679,2.20184l-0.97707,-0.64679l0.46789,0.57798h-0.16514l-3.01377,-1.85781l1.27982,3.66056l-2.61469,-3.83946l-0.16514,0.34404l1.04588,3.99084c-0.83945,-1.12844 -2.88992,-4.48626 -7.81654,-5.44956l4.47249,2.91744c-4.28809,0.65083 -8.66686,0.35014 -12.82574,-0.88074c-0.57798,-0.16514 -1.22478,-0.34404 -1.85781,-0.57798l0.16514,-0.41285l-6.16516,-3.08258l3.59176,3.08258c-7.9404,1.2523 -15.55052,-3.49543 -17.39456,-11.47711l-0.34404,-2.25689l-3.06469,3.06882c2.6835,-7.91287 3.52295,-7.96792 7.07342,-9.64683c-1.2523,-0.72936 -0.22018,-0.45413 -5.28442,-1.27982c2.17432,-0.79817 4.5413,-2.11927 10.04591,0.7156c0.1606,-0.09648 0.33136,-0.17494 0.50918,-0.23395c0.08257,-0.44037 0.05505,-0.11009 0.13762,-1.62386c0.5367,1.37615 0.49541,1.19725 0.41285,1.27982l0.23395,0.06881c1.74771,-0.8945 1.22478,-0.61927 2.33946,-1.22478l-0.74312,1.85781l3.06882,-0.79817l-1.15597,1.15597l0.34404,0.34404c0.61927,-0.24771 4.16974,0.46789 5.6147,2.20184l-3.24772,-0.34404c5.42204,3.16515 7.08718,7.43122 7.67893,9.57802l0.23395,-0.16514c-0.38532,-3.06882 -1.70643,-4.66516 -2.20184,-5.51837c0.57798,0.68808 5.39452,4.76149 15.19272,6.3303c-1.55505,-0.06881 -3.17891,0.74312 -4.80277,2.60093l6.42663,-2.77983l-1.27982,3.01377c1.04588,-1.38991 2.03671,-3.24772 2.91744,-5.44956v-0.06881l0.16514,-0.41285l-0.16514,2.20184c1.85781,-5.75232 3.48166,-10.80279 4.87158,-15.09639l1.85781,-3.8257v-0.27523l-0.74312,-0.57798h1.38991l0.81193,0.57798l0.34404,-0.16514l-0.46789,-2.20184l1.69267,2.60093l5.75232,-2.77983l-2.03671,1.789l0.06881,0.39908l2.43579,-0.06881c1.52811,0.05515 3.04809,0.2486 4.5413,0.57798l-3.24772,0.34404l-0.16514,0.41285l3.66056,3.17891c1.35752,1.36323 2.60027,2.83612 3.71561,4.40369c-1.54129,-0.45413 -1.41744,-0.46789 -2.91744,-0.46789l1.69267,4.47249zM1480.15479,651.3301l-0.5367,1.789l-1.9679,-1.62386zM1445.09044,652.30717c0.23395,1.45872 0.64679,2.43579 1.21101,3.01377c-1.27982,0.90826 -3.78442,1.91285 -6.39911,2.20184l0.06881,0.16514c1.14845,0.17395 2.32223,0.05562 3.41286,-0.34404l-0.97707,1.789c0.57798,-0.23395 1.38991,-0.97707 2.43579,-2.03671c1.63762,-0.75688 1.74771,-0.70184 2.77983,-2.20184c-1.74771,-0.88074 -2.16056,-1.88533 -2.53212,-2.58717zM1445.59961,638.22914c-0.88074,-0.46789 -1.45872,0.41285 -1.69267,2.60093c-0.23395,2.18808 0.34404,4.05965 1.62386,5.44956c1.27982,1.38991 2.5046,1.45872 3.59176,0.41285c1.08716,-1.04588 0.46789,-3.24772 -1.55505,-6.56425c-0.48259,-0.78961 -1.15845,-1.44321 -1.96377,-1.89909zM1444.95282,644.60072c0.74312,0.30275 1.44496,0.26147 1.69267,-1.45872v-0.64679l-0.16514,0.06881c-0.59175,-0.42661 -0.34404,-0.61927 -0.23395,-0.85321l0.06881,-0.06881c-0.12385,-0.16514 -0.68808,-1.11468 -1.72019,0.64679c-0.06881,-1.85781 0.06881,-3.01377 0.41285,-3.41286c0.16514,-0.34404 0.64679,-0.16514 1.55505,0.57798c0.88074,0.74312 1.55505,2.20184 2.09175,4.47249c0.8945,3.85323 -2.72478,3.60552 -3.70185,0.67431zM1438.76014,643.84384c0.22018,0.04128 1.27982,-0.15138 1.27982,-2.03671h-0.06881c-0.74312,-0.15138 -0.30275,-0.75688 -0.09633,-0.81193c-0.23395,-0.41285 -0.46789,-0.57798 -0.74312,-0.64679c-1.11468,0 -1.59634,1.74771 -1.11468,2.91744c0.1413,0.30189 0.41954,0.5171 0.74725,0.57798zM1444.27851,636.94932l-0.34404,0.06881l0.06881,0.41285c1.24943,-0.06827 2.49318,0.21288 3.59176,0.81193c-0.34404,-0.75688 -1.37615,-1.9679 -3.89451,-1.9679l0.06881,0.34404zM1434.39773,643.74751c2.98625,2.31194 2.27065,2.94497 6.39911,3.24772l-0.39908,-0.64679c1.15743,-0.98559 1.88752,-2.38164 2.03671,-3.89451c0.23395,-2.20184 -0.16514,-4.05965 -1.21101,-5.68351l1.789,-1.04588c0.00987,-0.0841 -0.01498,-0.16858 -0.06881,-0.23395c-0.61878,-0.24284 -1.31855,-0.15472 -1.85781,0.23395c-1.74771,0.92202 -3.85323,2.87616 -3.99084,3.08258c-0.23395,0.23395 -0.46789,0.81193 -0.74312,1.85781c-0.26222,1.06276 -0.39621,2.15309 -0.39908,3.24772c-0.64679,-1.10092 -1.44496,-0.88074 -2.73854,-0.81193l0.97707,1.04588c-2.27065,0 -3.20643,2.11927 -3.24772,2.20184c0.93578,0 0.63303,-1.04588 4.12846,-1.69267c-0.59175,-0.86698 -0.45413,-0.68808 -0.67431,-0.90826zM1436.97114,641.1741c0.16514,-1.04588 0.46789,-1.789 0.88074,-2.36698c0.74312,-0.88074 1.45872,-1.38991 2.20184,-1.62386c0.57798,-0.23395 0.97707,0.16514 1.38991,1.27982c0.34308,1.12687 0.48288,2.30581 0.41285,3.48166c-0.06881,1.27982 -0.46789,2.36698 -1.15597,3.17891c-0.39908,0.46789 -0.74312,0.81193 -0.88074,1.04588c-0.51895,0.05234 -1.04275,0.02917 -1.55505,-0.06881l-0.97707,-0.46789l-0.74312,-0.88074c0.11009,-1.37615 0.1789,-2.58717 0.42661,-3.578zM1442.75098,648.89432c-4.78901,1.98166 -4.77525,1.92661 -4.96791,1.9679c-2.8624,0.64679 -2.61469,-3.35781 -2.60093,-3.41286l0.81193,-0.16514l-0.06881,-0.34404c-2.77983,-0.3578 -4.26607,0.57798 -4.47249,0.67431c0.06881,0.06881 0.41285,0.46789 0.81193,1.27982c0.57798,-0.88074 1.21101,-1.38991 2.09175,-1.45872c-0.23855,1.54568 -0.15894,3.1238 0.23395,4.63763c0.01376,0.06881 0.3578,2.3945 3.78442,3.31653c1.55505,0.41285 3.71561,0.16514 6.72938,-0.74312l-1.26606,0.06881c-0.57798,-2.03671 -0.88074,-3.41286 -0.81193,-4.05965c1.55505,-1.21101 3.01377,-1.55505 4.22479,-1.04588h0.34404l-1.62386,-1.04588l-0.97707,0.06881c-0.81193,0.16514 -1.69267,0.57798 -2.66973,1.15597z" className="SFSymbolsPreviewWireframe"/></g>
  <g id="Ultralight-S"><path d="M591.6079,658.80261l2.84863,0.97707c-1.32111,-3.289 -3.289,-5.09176 -4.3624,-6.16516l0.97707,-2.5046c0.02752,0 1.69267,-3.8257 -0.34404,-4.22479c-0.08257,-1.55505 -0.90826,-3.71561 -2.53212,-3.71561c-1.04588,-1.45872 -2.43579,-1.69267 -4.22479,-0.81193c-1.24999,0.60999 -2.41948,1.3727 -3.48166,2.27065c-0.72936,-0.88074 -0.41285,0.05505 -0.41285,-4.10093c-5.10552,-3.34405 -6.24773,-1.6101 -10.29362,0.41285l0.06881,0.06881c-3.03155,-1.06598 -6.20277,-1.6826 -9.41288,-1.83028c-0.75688,-1.19725 -2.55964,-2.62845 -3.45414,-3.45414l3.41286,0.97707c-0.75688,-0.75688 -3.68809,-1.77524 -4.70644,-2.09175c2.5046,-0.56422 4.10093,-2.8624 5.84865,-4.5413c-4.80277,-1.38991 -9.34407,-0.81193 -13.47253,1.62386l1.65138,-6.08259l-0.25184,-0.06881c-4.34864,3.33029 -4.5413,5.76608 -4.63763,6.26149c-0.12385,-0.33028 -0.86698,-2.69726 -2.09175,-3.71561c-0.45477,1.11169 -0.4793,2.35288 -0.06881,3.48166c0.41285,1.15597 0.81193,2.03671 1.15597,2.60093c-2.20184,-0.45413 -3.89451,-0.67431 -6.77067,0h-0.50918l4.5413,1.9679c-2.77776,2.59927 -4.96877,5.76146 -6.42663,9.27526l-0.23395,1.15597l0.23395,0.23395l1.04588,-0.64679c-0.45413,1.59634 -0.72936,2.66973 -0.90826,3.55047c-1.49734,1.68514 -2.78219,3.54769 -3.8257,5.54589c-2.06423,0.13762 -4.37616,1.48624 -5.54589,1.9679l0.41285,0.46789l3.96332,0.13762c-0.06881,0.13762 -0.09633,0.30275 -0.16514,0.44037c-1.00459,0.88074 -5.47709,5.18809 -4.5413,11.10555l2.77983,-3.08258c0.06881,0.23395 0.09633,0.46789 0.16514,0.7156c0,3.50919 0.05505,12.33032 8.93123,20.71109c6.00002,5.50461 13.21106,8.28444 21.67439,8.28444c16.74777,0 30.68819,-12.01381 30.68819,-29.10562c0.93578,-1.33487 -0.16514,0.41285 2.29817,-3.45414l1.789,1.9679l0.34404,-0.06881c-0.25449,-1.60486 -0.66468,-3.18111 -1.22478,-4.70644c-0.20716,-0.65822 -0.52349,-1.27694 -0.93578,-1.83028zM579.19088,640.84383l-0.06881,3.01377c0.75688,2.49084 2.3257,2.36698 3.08258,2.36698l-0.46789,-0.64679l3.08258,-0.74312c-1.23757,0.06902 -2.47804,0.06902 -3.71561,0c1.76147,-0.28899 4.58259,-3.99084 5.91745,-1.55505c0.46789,1.04588 0.88074,2.36698 1.27982,3.8257l0.23395,-0.81193c-0.17263,-0.68339 -0.25134,-1.38711 -0.23395,-2.09175c0.74312,0.06881 1.21101,0.46789 1.27982,1.38991c0.06881,0.88074 0.23395,2.03671 0.46789,3.48166l0.64679,-1.55505c0.63303,0 0.61927,-0.49541 -0.34404,2.84863c-2.87616,-1.19725 -4.83029,-1.15597 -6.39911,-1.15597l2.5046,-2.20184c-3.48166,1.12844 -4.5413,1.48624 -7.54131,2.87616c-0.15138,-0.74312 -0.68808,-1.85781 -2.20184,-2.73854c-0.44037,0.52294 -0.38532,0.12385 -0.09633,2.03671h-0.34404c-0.17046,-1.12587 -0.56343,-2.20652 -1.15597,-3.17891l0.57798,-0.46789c1.15597,-0.97707 1.62386,-1.9679 1.45872,-3.01377c-0.06881,-0.88074 -0.74312,-1.85781 -1.85781,-2.84863c0.77065,-0.46789 2.09175,-0.05505 3.89451,1.16973zM573.74132,639.45391c0.37156,0.26147 1.56881,0.74312 2.60093,2.36698c0.57798,1.15597 0.55046,1.34863 0.46789,1.52753c-0.06881,0.33028 -0.06881,0.59175 -0.41285,0.97707c-0.23395,0.34404 -0.74312,0.64679 -1.62386,1.04588c-1.04588,-1.789 -2.27065,-3.24772 -3.8257,-4.29359zM536.94302,645.23375l0.16514,-0.23395c0.16514,-0.39908 0.57798,-1.04588 1.27982,-2.09175l0.34404,-0.46789l-1.789,1.69267l0.74312,-0.64679l-1.38991,1.27982l-0.57798,0.16514c1.69267,-3.31653 3.17891,-5.68351 4.47249,-6.90828c1.27982,-1.27982 2.20184,-2.20184 2.77983,-2.66973l-0.88074,0.16514c-1.55505,-0.57798 -2.66973,-0.97707 -3.41286,-1.15597c0.34404,-0.06881 0.50918,-0.06881 0.44037,-0.06881c1.41744,0 2.40827,0.06881 2.87616,0.16514c0.71166,0.22819 1.45449,0.34426 2.20184,0.34404l0.06881,-0.23395l-1.15597,-4.92662l1.85781,3.99084c0.38768,-0.60133 0.6628,-1.26814 0.81193,-1.9679c0.23395,-0.88074 0.74312,-1.789 1.38991,-2.66973c0.64679,-0.88074 1.04588,-1.45872 1.27982,-1.55505c-0.35793,1.14332 -0.65196,2.30567 -0.88074,3.48166l-0.23395,0.97707l-0.06881,0.64679l0.34404,0.34404c3.01377,-1.85781 6.26149,-2.66973 9.81196,-2.60093l2.90368,0.06881c-1.62386,1.85781 -3.8257,3.01377 -6.67434,3.41286c-1.06468,0.19585 -2.13992,0.3291 -3.2202,0.39908l-0.02752,-0.06881l-0.34404,-0.16514c-0.65462,-0.13668 -1.33645,-0.03928 -1.92661,0.27523c-0.34404,-0.02752 -0.67431,-0.06881 -0.97707,-0.09633l-0.34404,0.23395l0.06881,0.16514c0.27523,0.02752 0.5367,0.06881 0.85321,0.09633l-0.27523,0.46789l0.46789,-0.06881l-1.45872,1.55505c-0.57798,0.41285 -0.74312,0.88074 -0.57798,1.27982l0.74312,-0.46789h0.16514c0.84569,-1.12202 2.09392,-1.87195 3.48166,-2.09175v-0.41285c0.88074,0.06881 1.789,0.13762 2.66973,0.16514c0.88074,0 1.15597,0.06881 0.74312,0.16514c0.98894,0.55666 1.9405,1.17725 2.84863,1.85781c1.85781,1.38991 3.24772,3.01377 4.12846,4.87158c1.21101,2.5046 1.85781,5.10552 1.85781,7.78902c-0.00604,1.30876 -0.14436,2.61357 -0.41285,3.89451c-0.48584,2.18839 -1.22476,4.31278 -2.20184,6.3303l0.34404,0.06881c2.5046,-2.71102 5.76608,-2.20184 6.77067,-2.20184l-0.88074,0.81193l3.08258,2.43579l-0.23395,4.22479c-0.74312,-1.69267 -2.27065,-2.90368 -4.5413,-3.8257c2.27065,2.03671 3.24772,2.90368 3.01377,2.77983c-0.66055,-0.38532 -0.48165,-0.26147 -1.48624,-0.50918c0.56422,0.56422 2.40827,2.58717 2.5046,2.84863l0.02752,0.02752l-0.02752,0.02752c0,0.24771 0.22018,-0.16514 -1.92661,3.15139c-10.34866,-2.10551 -14.62437,-5.87617 -19.43127,-8.69728l1.62386,0.16514c-1.62386,-2.54588 -2.1468,-2.43579 -5.28442,-3.59176l1.45872,-1.15597c-1.21101,-0.41285 -2.5046,-0.41285 -3.89451,0.06881l1.04588,-1.45872l-0.16514,-0.23395c-2.05047,0.59175 -2.72478,1.26606 -3.1101,1.55505c-0.15138,-0.75688 -0.38532,-1.70643 -1.69267,-3.96332l-0.16514,3.71561l-1.81652,-0.68808c0.20642,-3.4679 0.74312,-6.94957 1.81652,-10.26609zM574.99362,690.64677c-6.867,3.44038 -7.72021,3.08258 -8.1193,3.289c-4.10093,-1.62386 -7.00461,-4.3624 -8.73857,-8.09177l4.12846,2.27065c-1.34863,-1.27982 -2.51836,-2.27065 -5.28442,-6.09635l1.62386,3.17891l-2.43579,-1.04588c1.95414,2.90368 3.23396,7.11471 9.16517,10.11472c-16.62392,3.33029 -27.38543,-9.92206 -27.64689,-10.22481c1.52731,1.26957 3.15668,2.41105 4.87158,3.41286c0.46789,0.23395 0.97707,0.34404 1.38991,0.16514l-2.20184,-2.84863c1.26606,0.57798 1.30734,0.61927 9.50921,3.99084c-5.84865,-2.84863 -10.156,-5.6147 -12.82574,-8.28444c-0.06881,0.88074 -0.16514,1.38991 -0.16514,1.38991c1.19797,1.00478 2.16893,2.25248 2.84863,3.66056c-5.36699,-2.60093 -7.92664,-6.55048 -9.81196,-11.36702c6.867,7.5826 16.36245,5.16057 16.58263,5.10552c4.78901,2.25689 9.6193,3.24772 15.67437,1.45872c0.45413,0 2.79359,2.33946 3.48166,5.38075l0.57798,-0.41285l-0.34404,-3.24772c1.23854,1.23854 3.42662,3.1101 4.73396,1.789c-2.1468,-0.72936 -3.23396,-1.30734 -4.05965,-4.3624c0.63303,0.57798 1.04588,1.23854 3.8257,2.06423l0.16514,-0.16514l-1.44496,-1.95414c1.6101,-0.66055 -0.48165,0.13762 4.40369,-1.48624c0.59175,4.7202 1.23854,6.77067 0.09633,12.31656zM590.86065,661.14207l-0.34404,0.06881l0.41285,1.27982c-0.48165,0.81193 -3.26148,6.09635 -9.85325,10.96793c-5.4358,4.10093 -10.54132,5.38075 -11.13307,5.54589l-1.04588,-0.97707l-0.16514,0.41285l1.9679,2.20184l-0.97707,-0.64679l0.46789,0.57798h-0.16514l-3.01377,-1.85781l1.27982,3.66056l-2.61469,-3.83946l-0.16514,0.34404l1.04588,3.99084c-0.83945,-1.12844 -2.88992,-4.48626 -7.81654,-5.44956l4.47249,2.91744c-4.28809,0.65083 -8.66686,0.35014 -12.82574,-0.88074c-0.57798,-0.16514 -1.22478,-0.34404 -1.85781,-0.57798l0.16514,-0.41285l-6.16516,-3.08258l3.59176,3.08258c-7.9404,1.2523 -15.55052,-3.49543 -17.39456,-11.47711l-0.34404,-2.25689l-3.06469,3.06882c2.6835,-7.91287 3.52295,-7.96792 7.07342,-9.64683c-1.2523,-0.72936 -0.22018,-0.45413 -5.28442,-1.27982c2.17432,-0.79817 4.5413,-2.11927 10.04591,0.7156c0.1606,-0.09648 0.33136,-0.17494 0.50918,-0.23395c0.08257,-0.44037 0.05505,-0.11009 0.13762,-1.62386c0.5367,1.37615 0.49541,1.19725 0.41285,1.27982l0.23395,0.06881c1.74771,-0.8945 1.22478,-0.61927 2.33946,-1.22478l-0.74312,1.85781l3.06882,-0.79817l-1.15597,1.15597l0.34404,0.34404c0.61927,-0.24771 4.16974,0.46789 5.6147,2.20184l-3.24772,-0.34404c5.42204,3.16515 7.08718,7.43122 7.67893,9.57802l0.23395,-0.16514c-0.38532,-3.06882 -1.70643,-4.66516 -2.20184,-5.51837c0.57798,0.68808 5.39452,4.76149 15.19272,6.3303c-1.55505,-0.06881 -3.17891,0.74312 -4.80277,2.60093l6.42663,-2.77983l-1.27982,3.01377c1.04588,-1.38991 2.03671,-3.24772 2.91744,-5.44956v-0.06881l0.16514,-0.41285l-0.16514,2.20184c1.85781,-5.75232 3.48166,-10.80279 4.87158,-15.09639l1.85781,-3.8257v-0.27523l-0.74312,-0.57798h1.38991l0.81193,0.57798l0.34404,-0.16514l-0.46789,-2.20184l1.69267,2.60093l5.75232,-2.77983l-2.03671,1.789l0.06881,0.39908l2.43579,-0.06881c1.52811,0.05515 3.04809,0.2486 4.5413,0.57798l-3.24772,0.34404l-0.16514,0.41285l3.66056,3.17891c1.35752,1.36323 2.60027,2.83612 3.71561,4.40369c-1.54129,-0.45413 -1.41744,-0.46789 -2.91744,-0.46789l1.69267,4.47249zM590.0212,651.3301l-0.5367,1.789l-1.9679,-1.62386zM554.95685,652.30717c0.23395,1.45872 0.64679,2.43579 1.21101,3.01377c-1.27982,0.90826 -3.78442,1.91285 -6.39911,2.20184l0.06881,0.16514c1.14845,0.17395 2.32223,0.05562 3.41286,-0.34404l-0.97707,1.789c0.57798,-0.23395 1.38991,-0.97707 2.43579,-2.03671c1.63762,-0.75688 1.74771,-0.70184 2.77983,-2.20184c-1.74771,-0.88074 -2.16056,-1.88533 -2.53212,-2.58717zM555.46602,638.22914c-0.88074,-0.46789 -1.45872,0.41285 -1.69267,2.60093c-0.23395,2.18808 0.34404,4.05965 1.62386,5.44956c1.27982,1.38991 2.5046,1.45872 3.59176,0.41285c1.08716,-1.04588 0.46789,-3.24772 -1.55505,-6.56425c-0.48259,-0.78961 -1.15845,-1.44321 -1.96377,-1.89909zM554.81923,644.60072c0.74312,0.30275 1.44496,0.26147 1.69267,-1.45872v-0.64679l-0.16514,0.06881c-0.59175,-0.42661 -0.34404,-0.61927 -0.23395,-0.85321l0.06881,-0.06881c-0.12385,-0.16514 -0.68808,-1.11468 -1.72019,0.64679c-0.06881,-1.85781 0.06881,-3.01377 0.41285,-3.41286c0.16514,-0.34404 0.64679,-0.16514 1.55505,0.57798c0.88074,0.74312 1.55505,2.20184 2.09175,4.47249c0.8945,3.85323 -2.72478,3.60552 -3.70185,0.67431zM548.62655,643.84384c0.22018,0.04128 1.27982,-0.15138 1.27982,-2.03671h-0.06881c-0.74312,-0.15138 -0.30275,-0.75688 -0.09633,-0.81193c-0.23395,-0.41285 -0.46789,-0.57798 -0.74312,-0.64679c-1.11468,0 -1.59634,1.74771 -1.11468,2.91744c0.1413,0.30189 0.41954,0.5171 0.74725,0.57798zM554.14492,636.94932l-0.34404,0.06881l0.06881,0.41285c1.24943,-0.06827 2.49318,0.21288 3.59176,0.81193c-0.34404,-0.75688 -1.37615,-1.9679 -3.89451,-1.9679l0.06881,0.34404zM544.26414,643.74751c2.98625,2.31194 2.27065,2.94497 6.39911,3.24772l-0.39908,-0.64679c1.15743,-0.98559 1.88752,-2.38164 2.03671,-3.89451c0.23395,-2.20184 -0.16514,-4.05965 -1.21101,-5.68351l1.789,-1.04588c0.00987,-0.0841 -0.01498,-0.16858 -0.06881,-0.23395c-0.61878,-0.24284 -1.31855,-0.15472 -1.85781,0.23395c-1.74771,0.92202 -3.85323,2.87616 -3.99084,3.08258c-0.23395,0.23395 -0.46789,0.81193 -0.74312,1.85781c-0.26222,1.06276 -0.39621,2.15309 -0.39908,3.24772c-0.64679,-1.10092 -1.44496,-0.88074 -2.73854,-0.81193l0.97707,1.04588c-2.27065,0 -3.20643,2.11927 -3.24772,2.20184c0.93578,0 0.63303,-1.04588 4.12846,-1.69267c-0.59175,-0.86698 -0.45413,-0.68808 -0.67431,-0.90826zM546.83755,641.1741c0.16514,-1.04588 0.46789,-1.789 0.88074,-2.36698c0.74312,-0.88074 1.45872,-1.38991 2.20184,-1.62386c0.57798,-0.23395 0.97707,0.16514 1.38991,1.27982c0.34308,1.12687 0.48288,2.30581 0.41285,3.48166c-0.06881,1.27982 -0.46789,2.36698 -1.15597,3.17891c-0.39908,0.46789 -0.74312,0.81193 -0.88074,1.04588c-0.51895,0.05234 -1.04275,0.02917 -1.55505,-0.06881l-0.97707,-0.46789l-0.74312,-0.88074c0.11009,-1.37615 0.1789,-2.58717 0.42661,-3.578zM552.61739,648.89432c-4.78901,1.98166 -4.77525,1.92661 -4.96791,1.9679c-2.8624,0.64679 -2.61469,-3.35781 -2.60093,-3.41286l0.81193,-0.16514l-0.06881,-0.34404c-2.77983,-0.3578 -4.26607,0.57798 -4.47249,0.67431c0.06881,0.06881 0.41285,0.46789 0.81193,1.27982c0.57798,-0.88074 1.21101,-1.38991 2.09175,-1.45872c-0.23855,1.54568 -0.15894,3.1238 0.23395,4.63763c0.01376,0.06881 0.3578,2.3945 3.78442,3.31653c1.55505,0.41285 3.71561,0.16514 6.72938,-0.74312l-1.26606,0.06881c-0.57798,-2.03671 -0.88074,-3.41286 -0.81193,-4.05965c1.55505,-1.21101 3.01377,-1.55505 4.22479,-1.04588h0.34404l-1.62386,-1.04588l-0.97707,0.06881c-0.81193,0.16514 -1.69267,0.57798 -2.66973,1.15597z" className="SFSymbolsPreviewWireframe"/></g>
 </g>
</svg>