<?xml version="1.0" encoding="UTF-8"?><!--Generator: https://SymbolKit.app--><!DOCTYPE svg PUBLIC "-//W3C//DTD SVG 1.1//EN" "http://www.w3.org/Graphics/SVG/1.1/DTD/svg11.dtd"><svg xmlns="http://www.w3.org/2000/svg" xmlns:xlink="http://www.w3.org/1999/xlink" version="1.1" viewBox="0 0 3300 2200">
 <!--glyph: "100092", point size: 100.0, font version: "20.0d10e1", template writer version: "138.0.0"-->
 <style>.SFSymbolsPreviewWireframe {fill:none;opacity:1.0;stroke:black;stroke-width:0.5}
</style>
 <g id="Notes">
  <rect height="2200" id="artboard" style="fill:white;opacity:1" width="3300" x="0" y="0"/>
  <line style="fill:none;stroke:black;opacity:1;stroke-width:0.5;" x1="263" x2="3036" y1="292" y2="292"/>
  <text style="stroke:none;fill:black;font-family:sans-serif;font-size:13;font-weight:bold;" transform="matrix(1 0 0 1 263 322)">Weight/Scale Variations</text>
  <text style="stroke:none;fill:black;font-family:sans-serif;font-size:13;text-anchor:middle;" transform="matrix(1 0 0 1 559.711 322)">Ultralight</text>
  <text style="stroke:none;fill:black;font-family:sans-serif;font-size:13;text-anchor:middle;" transform="matrix(1 0 0 1 856.422 322)">Thin</text>
  <text style="stroke:none;fill:black;font-family:sans-serif;font-size:13;text-anchor:middle;" transform="matrix(1 0 0 1 1153.13 322)">Light</text>
  <text style="stroke:none;fill:black;font-family:sans-serif;font-size:13;text-anchor:middle;" transform="matrix(1 0 0 1 1449.84 322)">Regular</text>
  <text style="stroke:none;fill:black;font-family:sans-serif;font-size:13;text-anchor:middle;" transform="matrix(1 0 0 1 1746.56 322)">Medium</text>
  <text style="stroke:none;fill:black;font-family:sans-serif;font-size:13;text-anchor:middle;" transform="matrix(1 0 0 1 2043.27 322)">Semibold</text>
  <text style="stroke:none;fill:black;font-family:sans-serif;font-size:13;text-anchor:middle;" transform="matrix(1 0 0 1 2339.98 322)">Bold</text>
  <text style="stroke:none;fill:black;font-family:sans-serif;font-size:13;text-anchor:middle;" transform="matrix(1 0 0 1 2636.69 322)">Heavy</text>
  <text style="stroke:none;fill:black;font-family:sans-serif;font-size:13;text-anchor:middle;" transform="matrix(1 0 0 1 2933.4 322)">Black</text>
  <line style="fill:none;stroke:black;opacity:1;stroke-width:0.5;" x1="263" x2="3036" y1="1903" y2="1903"/>
  <g transform="matrix(0.2 0 0 0.2 263 1933)">
   <path d="m46.2402 4.15039c21.7773 0 39.4531-17.627 39.4531-39.4043s-17.6758-39.4043-39.4531-39.4043c-21.7285 0-39.4043 17.627-39.4043 39.4043s17.6758 39.4043 39.4043 39.4043Zm0-7.42188c-17.6758 0-31.9336-14.3066-31.9336-31.9824s14.2578-31.9824 31.9336-31.9824 31.9824 14.3066 31.9824 31.9824-14.3066 31.9824-31.9824 31.9824Zm-17.9688-31.9824c0 2.14844 1.51367 3.61328 3.75977 3.61328h10.498v10.5957c0 2.19727 1.46484 3.71094 3.61328 3.71094 2.24609 0 3.71094-1.51367 3.71094-3.71094v-10.5957h10.5957c2.19727 0 3.71094-1.46484 3.71094-3.61328 0-2.19727-1.51367-3.71094-3.71094-3.71094h-10.5957v-10.5469c0-2.24609-1.46484-3.75977-3.71094-3.75977-2.14844 0-3.61328 1.51367-3.61328 3.75977v10.5469h-10.498c-2.24609 0-3.75977 1.51367-3.75977 3.71094Z"/>
  </g>
  <g transform="matrix(0.2 0 0 0.2 281.506 1933)">
   <path d="m58.5449 14.5508c27.4902 0 49.8047-22.3145 49.8047-49.8047s-22.3145-49.8047-49.8047-49.8047-49.8047 22.3145-49.8047 49.8047 22.3145 49.8047 49.8047 49.8047Zm0-8.30078c-22.9492 0-41.5039-18.5547-41.5039-41.5039s18.5547-41.5039 41.5039-41.5039 41.5039 18.5547 41.5039 41.5039-18.5547 41.5039-41.5039 41.5039Zm-22.6562-41.5039c0 2.39258 1.66016 4.00391 4.15039 4.00391h14.3555v14.4043c0 2.44141 1.66016 4.15039 4.05273 4.15039 2.44141 0 4.15039-1.66016 4.15039-4.15039v-14.4043h14.4043c2.44141 0 4.15039-1.61133 4.15039-4.00391 0-2.44141-1.70898-4.15039-4.15039-4.15039h-14.4043v-14.3555c0-2.49023-1.70898-4.19922-4.15039-4.19922-2.39258 0-4.05273 1.70898-4.05273 4.19922v14.3555h-14.3555c-2.49023 0-4.15039 1.70898-4.15039 4.15039Z"/>
  </g>
  <g transform="matrix(0.2 0 0 0.2 304.924 1933)">
   <path d="m74.8535 28.3203c35.1074 0 63.623-28.4668 63.623-63.5742s-28.5156-63.623-63.623-63.623-63.5742 28.5156-63.5742 63.623 28.4668 63.5742 63.5742 63.5742Zm0-9.08203c-30.127 0-54.4922-24.3652-54.4922-54.4922s24.3652-54.4922 54.4922-54.4922 54.4922 24.3652 54.4922 54.4922-24.3652 54.4922-54.4922 54.4922Zm-28.8574-54.4922c0 2.58789 1.85547 4.39453 4.58984 4.39453h19.7266v19.7754c0 2.68555 1.85547 4.58984 4.44336 4.58984 2.68555 0 4.54102-1.85547 4.54102-4.58984v-19.7754h19.7754c2.68555 0 4.58984-1.80664 4.58984-4.39453 0-2.73438-1.85547-4.58984-4.58984-4.58984h-19.7754v-19.7266c0-2.73438-1.85547-4.63867-4.54102-4.63867-2.58789 0-4.44336 1.9043-4.44336 4.63867v19.7266h-19.7266c-2.73438 0-4.58984 1.85547-4.58984 4.58984Z"/>
  </g>
  <text style="stroke:none;fill:black;font-family:sans-serif;font-size:13;font-weight:bold;" transform="matrix(1 0 0 1 263 1953)">Design Variations</text>
  <text style="stroke:none;fill:black;font-family:sans-serif;font-size:13;" transform="matrix(1 0 0 1 263 1971)">Symbols are supported in up to nine weights and three scales.</text>
  <text style="stroke:none;fill:black;font-family:sans-serif;font-size:13;" transform="matrix(1 0 0 1 263 1989)">For optimal layout with text and other symbols, vertically align</text>
  <text style="stroke:none;fill:black;font-family:sans-serif;font-size:13;" transform="matrix(1 0 0 1 263 2007)">symbols with the adjacent text.</text>
  <line style="fill:none;stroke:#00AEEF;stroke-width:0.5;opacity:1.0;" x1="776" x2="776" y1="1919" y2="1933"/>
  <g transform="matrix(0.2 0 0 0.2 776 1933)">
   <path d="m16.5527 0.78125c2.58789 0 3.85742-0.976562 4.78516-3.71094l6.29883-17.2363h28.8086l6.29883 17.2363c0.927734 2.73438 2.19727 3.71094 4.73633 3.71094 2.58789 0 4.24805-1.5625 4.24805-4.00391 0-0.830078-0.146484-1.61133-0.537109-2.63672l-22.9004-60.9863c-1.12305-2.97852-3.125-4.49219-6.25-4.49219-3.02734 0-5.07812 1.46484-6.15234 4.44336l-22.9004 61.084c-0.390625 1.02539-0.537109 1.80664-0.537109 2.63672 0 2.44141 1.5625 3.95508 4.10156 3.95508Zm13.4766-28.3691 11.8652-32.8613h0.244141l11.8652 32.8613Z"/>
  </g>
  <line style="fill:none;stroke:#00AEEF;stroke-width:0.5;opacity:1.0;" x1="792.836" x2="792.836" y1="1919" y2="1933"/>
  <text style="stroke:none;fill:black;font-family:sans-serif;font-size:13;font-weight:bold;" transform="matrix(1 0 0 1 776 1953)">Margins</text>
  <text style="stroke:none;fill:black;font-family:sans-serif;font-size:13;" transform="matrix(1 0 0 1 776 1971)">Leading and trailing margins on the left and right side of each symbol</text>
  <text style="stroke:none;fill:black;font-family:sans-serif;font-size:13;" transform="matrix(1 0 0 1 776 1989)">can be adjusted by modifying the x-location of the margin guidelines.</text>
  <text style="stroke:none;fill:black;font-family:sans-serif;font-size:13;" transform="matrix(1 0 0 1 776 2007)">Modifications are automatically applied proportionally to all</text>
  <text style="stroke:none;fill:black;font-family:sans-serif;font-size:13;" transform="matrix(1 0 0 1 776 2025)">scales and weights.</text>
  <g transform="matrix(0.2 0 0 0.2 1289 1933)">
   <path d="m14.209 9.32617 8.49609 8.54492c4.29688 4.3457 9.22852 4.05273 13.8672-1.07422l53.4668-58.9355-4.83398-4.88281-53.0762 58.3984c-1.75781 2.00195-3.41797 2.49023-5.76172 0.146484l-5.85938-5.81055c-2.34375-2.29492-1.80664-4.00391 0.195312-5.81055l57.373-54.0039-4.88281-4.83398-57.959 54.4434c-4.93164 4.58984-5.32227 9.47266-1.02539 13.8184Zm32.0801-90.9668c-2.09961 2.05078-2.24609 4.93164-1.07422 6.88477 1.17188 1.80664 3.4668 2.97852 6.68945 2.14844 7.32422-1.70898 14.9414-2.00195 22.0703 2.68555l-2.92969 7.27539c-1.70898 4.15039-0.830078 7.08008 1.85547 9.81445l11.4746 11.5723c2.44141 2.44141 4.49219 2.53906 7.32422 2.05078l5.32227-0.976562 3.32031 3.36914-0.195312 2.7832c-0.195312 2.49023 0.439453 4.39453 2.88086 6.78711l3.80859 3.71094c2.39258 2.39258 5.46875 2.53906 7.8125 0.195312l14.5508-14.5996c2.34375-2.34375 2.24609-5.32227-0.146484-7.71484l-3.85742-3.80859c-2.39258-2.39258-4.24805-3.17383-6.64062-2.97852l-2.88086 0.244141-3.22266-3.17383 1.2207-5.61523c0.634766-2.83203-0.146484-5.0293-3.07617-7.95898l-10.9863-10.9375c-16.6992-16.6016-38.8672-16.2109-53.3203-1.75781Zm7.4707 1.85547c12.1582-8.88672 28.6133-7.37305 39.7461 3.75977l12.1582 12.0605c1.17188 1.17188 1.36719 2.09961 1.02539 3.80859l-1.61133 7.42188 7.51953 7.42188 4.93164-0.292969c1.26953-0.0488281 1.66016 0.0488281 2.63672 1.02539l2.88086 2.88086-12.207 12.207-2.88086-2.88086c-0.976562-0.976562-1.12305-1.36719-1.07422-2.68555l0.341797-4.88281-7.4707-7.42188-7.61719 1.26953c-1.61133 0.341797-2.34375 0.195312-3.56445-0.976562l-10.0098-10.0098c-1.26953-1.17188-1.41602-2.00195-0.634766-3.85742l4.39453-10.4492c-7.8125-7.27539-17.9688-10.4004-28.125-7.42188-0.78125 0.195312-1.07422-0.439453-0.439453-0.976562Z"/>
  </g>
  <text style="stroke:none;fill:black;font-family:sans-serif;font-size:13;font-weight:bold;" transform="matrix(1 0 0 1 1289 1953)">Exporting</text>
  <text style="stroke:none;fill:black;font-family:sans-serif;font-size:13;" transform="matrix(1 0 0 1 1289 1971)">Symbols should be outlined when exporting to ensure the</text>
  <text style="stroke:none;fill:black;font-family:sans-serif;font-size:13;" transform="matrix(1 0 0 1 1289 1989)">design is preserved when submitting to Xcode.</text>
  <text id="template-version" style="stroke:none;fill:black;font-family:sans-serif;font-size:13;text-anchor:end;" transform="matrix(1 0 0 1 3036 1933)">Template v.6.0</text>
  <text style="stroke:none;fill:black;font-family:sans-serif;font-size:13;text-anchor:end;" transform="matrix(1 0 0 1 3036 1951)">Requires Xcode 16 or greater</text>
  <text id="descriptive-name" style="stroke:none;fill:black;font-family:sans-serif;font-size:13;text-anchor:end;" transform="matrix(1 0 0 1 3036 1969)">Generated from square</text>
  <text style="stroke:none;fill:black;font-family:sans-serif;font-size:13;text-anchor:end;" transform="matrix(1 0 0 1 3036 1987)">Typeset at 100.0 points</text>
  <text style="stroke:none;fill:black;font-family:sans-serif;font-size:13;" transform="matrix(1 0 0 1 263 726)">Small</text>
  <text style="stroke:none;fill:black;font-family:sans-serif;font-size:13;" transform="matrix(1 0 0 1 263 1156)">Medium</text>
  <text style="stroke:none;fill:black;font-family:sans-serif;font-size:13;" transform="matrix(1 0 0 1 263 1586)">Large</text>
 </g>
 <g id="Guides">
  <g id="H-reference" style="fill:#27AAE1;stroke:none;" transform="matrix(1 0 0 1 339 696)">
   <path d="M0.993654 0L3.63775 0L29.3281-67.1323L30.0303-67.1323L30.0303-70.459L28.1226-70.459ZM11.6885-24.4799L46.9815-24.4799L46.2315-26.7285L12.4385-26.7285ZM55.1196 0L57.7637 0L30.6382-70.459L29.4326-70.459L29.4326-67.1323Z"/>
  </g>
  <line id="Baseline-S" style="fill:none;stroke:#27AAE1;opacity:1;stroke-width:0.5;" x1="263" x2="3036" y1="696" y2="696"/>
  <line id="Capline-S" style="fill:none;stroke:#27AAE1;opacity:1;stroke-width:0.5;" x1="263" x2="3036" y1="625.541" y2="625.541"/>
  <g id="H-reference" style="fill:#27AAE1;stroke:none;" transform="matrix(1 0 0 1 339 1126)">
   <path d="M0.993654 0L3.63775 0L29.3281-67.1323L30.0303-67.1323L30.0303-70.459L28.1226-70.459ZM11.6885-24.4799L46.9815-24.4799L46.2315-26.7285L12.4385-26.7285ZM55.1196 0L57.7637 0L30.6382-70.459L29.4326-70.459L29.4326-67.1323Z"/>
  </g>
  <line id="Baseline-M" style="fill:none;stroke:#27AAE1;opacity:1;stroke-width:0.5;" x1="263" x2="3036" y1="1126" y2="1126"/>
  <line id="Capline-M" style="fill:none;stroke:#27AAE1;opacity:1;stroke-width:0.5;" x1="263" x2="3036" y1="1055.54" y2="1055.54"/>
  <g id="H-reference" style="fill:#27AAE1;stroke:none;" transform="matrix(1 0 0 1 339 1556)">
   <path d="M0.993654 0L3.63775 0L29.3281-67.1323L30.0303-67.1323L30.0303-70.459L28.1226-70.459ZM11.6885-24.4799L46.9815-24.4799L46.2315-26.7285L12.4385-26.7285ZM55.1196 0L57.7637 0L30.6382-70.459L29.4326-70.459L29.4326-67.1323Z"/>
  </g>
  <line id="Baseline-L" style="fill:none;stroke:#27AAE1;opacity:1;stroke-width:0.5;" x1="263" x2="3036" y1="1556" y2="1556"/>
  <line id="Capline-L" style="fill:none;stroke:#27AAE1;opacity:1;stroke-width:0.5;" x1="263" x2="3036" y1="1485.54" y2="1485.54"/>
  <line id="right-margin-Black-S" style="fill:none;stroke:#00AEEF;stroke-width:0.5;opacity:1.0;" x1="2981.3" x2="2981.3" y1="600.785" y2="720.121"/>
  <line id="left-margin-Black-S" style="fill:none;stroke:#00AEEF;stroke-width:0.5;opacity:1.0;" x1="2885.5" x2="2885.5" y1="600.785" y2="720.121"/>
  <line id="right-margin-Regular-S" style="fill:none;stroke:#00AEEF;stroke-width:0.5;opacity:1.0;" x1="1495.18" x2="1495.18" y1="600.785" y2="720.121"/>
  <line id="left-margin-Regular-S" style="fill:none;stroke:#00AEEF;stroke-width:0.5;opacity:1.0;" x1="1404.51" x2="1404.51" y1="600.785" y2="720.121"/>
  <line id="right-margin-Ultralight-S" style="fill:none;stroke:#00AEEF;stroke-width:0.5;opacity:1.0;" x1="603.073" x2="603.073" y1="600.785" y2="720.121"/>
  <line id="left-margin-Ultralight-S" style="fill:none;stroke:#00AEEF;stroke-width:0.5;opacity:1.0;" x1="516.35" x2="516.35" y1="600.785" y2="720.121"/>
 </g>
 <g id="Symbols">
  <g id="Black-S"><path d="M2926.7946,637.69051c0,-1.37615 0.86505,-2.98818 2.43785,-2.98818c1.53331,0 2.43772,1.61202 2.43772,2.98818c0,1.41537 -0.90441,2.98818 -2.43772,2.98818c-1.5728,0 -2.43785,-1.5728 -2.43785,-2.98818zM2968.62962,659.70894c0,4.95428 -1.5728,14.07611 -4.99351,17.85062c-3.14561,3.42084 -12.03142,8.41421 -16.63176,9.71178l-0.15729,0.03936v4.48226c0,2.2412 -1.7301,4.20703 -4.01052,4.20703c-1.37615,0 -2.67373,-0.78633 -3.38148,-1.96597c-0.74684,1.17964 -2.04441,1.96597 -3.42056,1.96597c-1.37615,0 -2.67373,-0.78633 -3.42084,-1.96597c-0.70762,1.17964 -2.00519,1.96597 -3.38121,1.96597c-1.41551,0 -2.67373,-0.78633 -3.42084,-1.96597c-0.70775,1.17964 -2.00519,1.96597 -3.38134,1.96597c-2.59501,0 -4.04988,-2.16249 -4.04988,-4.52162c-2.2412,1.6906 -4.91493,2.67359 -7.78503,2.67359c-3.02753,0 -5.97649,-1.14014 -8.29627,-3.14547c1.41537,-0.03936 2.83088,-0.31459 4.16768,-0.78633c-2.87024,-0.78633 -5.42589,-2.59501 -7.15599,-4.99351c2.94084,0.63922 6.35906,0.23023 9.2399,-1.53345c-3.02753,-3.02753 -7.78503,-8.09962 -9.43655,-12.03142c-0.7862,-1.84803 -0.94349,-4.32511 -0.94349,-6.29094c0,-6.8414 2.79166,-22.01843 11.87427,-22.01843c1.45473,0 2.59501,0.66853 3.18483,2.04455c0.50634,-0.74095 1.05785,-1.45 1.65138,-2.12313c0.27523,-0.35395 0.78633,-0.74711 0.98299,-1.14028c1.10078,-1.72996 1.61202,-2.90946 2.98818,-4.67892c4.44291,-5.66204 11.24509,-9.55449 18.55837,-9.55449c0.82569,0 1.65138,0.03922 2.43772,0.15729c1.49409,-1.61216 3.578,-2.51643 5.74062,-2.51643c2.00519,0 4.0891,0.82569 5.50461,2.2412c0.11794,0.11807 0.19651,0.31459 0.19651,0.47174c0,0.5111 -1.41537,1.84803 -1.76932,2.2412c0.58982,0.19665 2.16249,0.94377 2.16249,1.65138c0,0.39317 -0.39317,0.70775 -0.62904,0.98299c4.32511,3.81387 6.80218,9.2399 7.74581,14.86244c0.58982,-0.70775 1.41537,-1.17964 2.35914,-1.17964c1.45473,0 2.87024,0.98312 3.9318,1.92675c2.87024,2.55565 3.53864,7.31315 3.53864,10.96986zM2924.0423,637.84767c0,2.51643 1.72996,5.11144 4.44304,5.11144c2.71295,0 4.44291,-2.59501 4.44291,-5.11144c0,-2.47707 -1.72996,-5.07208 -4.44291,-5.07208c-2.71308,0 -4.44304,2.59515 -4.44304,5.07208zM2930.8837,652.23837c0,-2.71295 0.5111,-5.38667 1.1795,-8.02104c-7.16136,10.94509 -1.86207,25.39978 9.47591,25.39978c2.94882,0 5.85842,-1.06156 8.25691,-2.7523c0.27523,-1.02234 0.5111,-2.04455 0.5111,-3.10625c0,-1.96597 -0.86505,-2.94882 -2.83102,-2.94882c-0.62904,0 -1.25822,0.11794 -1.84803,0.23587c-8.71696,1.74331 -14.74437,0.50491 -14.74437,-8.80724zM2925.22194,687.3107c0,-1.53345 -1.219,-2.87024 -2.79166,-2.87024c-1.5728,0 -2.7523,1.33693 -2.7523,2.87024v4.48226c0,1.53345 1.1795,2.90946 2.7523,2.90946c1.57267,0 2.79166,-1.33693 2.79166,-2.90946zM2931.98476,687.3107c0,-1.53345 -1.17964,-2.87024 -2.7523,-2.87024c-1.5728,0 -2.79166,1.33693 -2.79166,2.87024v4.48226c0,1.53345 1.21886,2.90946 2.79166,2.90946c1.57267,0 2.7523,-1.37615 2.7523,-2.90946zM2938.82602,687.3107c0,-1.53345 -1.21886,-2.87024 -2.79152,-2.87024c-1.5728,0 -2.79166,1.33693 -2.79166,2.87024v4.48226c0,1.53345 1.21886,2.90946 2.79166,2.90946c1.57267,0 2.79152,-1.33693 2.79152,-2.90946zM2945.66756,687.3107c0,-1.53345 -1.21886,-2.87024 -2.79166,-2.87024c-1.57267,0 -2.79166,1.33693 -2.79166,2.87024v4.48226c0,1.53345 1.219,2.90946 2.79166,2.90946c1.5728,0 2.79166,-1.37615 2.79166,-2.90946zM2956.2049,664.89896c-4.24639,8.13884 -12.42459,14.11547 -21.82178,14.11547c-13.28964,0 -22.09701,-11.63839 -22.09701,-24.29899c0,-2.31978 0.27523,-4.60034 0.82569,-6.8414c-2.7523,4.6397 -4.0891,9.98701 -4.0891,15.33432c0,8.29627 3.4207,16.74983 9.82972,22.13637c0.70775,-1.33679 2.04455,-2.2412 3.578,-2.2412c1.37615,0 2.67359,0.78633 3.38134,1.96597c0.74711,-1.1795 2.00519,-1.96597 3.42084,-1.96597c1.37615,0 2.67359,0.78633 3.38134,1.96597c0.74711,-1.1795 2.04455,-1.96597 3.42084,-1.96597c1.37615,0 2.67359,0.78633 3.4207,1.96597c0.70775,-1.1795 2.00519,-1.96597 3.38148,-1.96597c1.49409,0 2.87024,0.90441 3.53864,2.20184c5.97622,-4.99351 9.43614,-12.6606 9.8293,-20.40641zM2957.65977,651.1768c0,-7.39186 -4.7575,-14.54785 -12.73931,-14.54785c-4.16768,0 -8.06026,2.08391 -10.85192,5.07208c-2.75162,9.13531 -3.77712,18.79425 5.70126,18.79425c3.96401,0 13.3978,-3.92726 11.59904,5.07208c3.97116,-3.578 6.29094,-9.04325 6.29094,-14.39056z" className="SFSymbolsPreviewWireframe"/></g>
  <g id="Regular-S"><path d="M1443.23955,637.69051c0,-1.37615 0.86505,-2.98818 2.43785,-2.98818c1.53331,0 2.43772,1.61202 2.43772,2.98818c0,1.41537 -0.90441,2.98818 -2.43772,2.98818c-1.5728,0 -2.43785,-1.5728 -2.43785,-2.98818zM1485.07457,659.70894c0,4.95428 -1.5728,14.07611 -4.99351,17.85062c-3.14561,3.42084 -12.03142,8.41421 -16.63176,9.71178l-0.15729,0.03936v4.48226c0,2.2412 -1.7301,4.20703 -4.01052,4.20703c-1.37615,0 -2.67373,-0.78633 -3.38148,-1.96597c-0.74684,1.17964 -2.04441,1.96597 -3.42056,1.96597c-1.37615,0 -2.67373,-0.78633 -3.42084,-1.96597c-0.70762,1.17964 -2.00519,1.96597 -3.38121,1.96597c-1.41551,0 -2.67373,-0.78633 -3.42084,-1.96597c-0.70775,1.17964 -2.00519,1.96597 -3.38134,1.96597c-2.59501,0 -4.04988,-2.16249 -4.04988,-4.52162c-2.2412,1.6906 -4.91493,2.67359 -7.78503,2.67359c-3.02753,0 -5.97649,-1.14014 -8.29627,-3.14547c1.41537,-0.03936 2.83088,-0.31459 4.16768,-0.78633c-2.87024,-0.78633 -5.42589,-2.59501 -7.15599,-4.99351c2.94084,0.63922 6.35906,0.23023 9.2399,-1.53345c-3.02753,-3.02753 -7.78503,-8.09962 -9.43655,-12.03142c-0.7862,-1.84803 -0.94349,-4.32511 -0.94349,-6.29094c0,-6.8414 2.79166,-22.01843 11.87427,-22.01843c1.45473,0 2.59501,0.66853 3.18483,2.04455c0.50634,-0.74095 1.05785,-1.45 1.65138,-2.12313c0.27523,-0.35395 0.78633,-0.74711 0.98299,-1.14028c1.10078,-1.72996 1.61202,-2.90946 2.98818,-4.67892c4.44291,-5.66204 11.24509,-9.55449 18.55837,-9.55449c0.82569,0 1.65138,0.03922 2.43772,0.15729c1.49409,-1.61216 3.578,-2.51643 5.74062,-2.51643c2.00519,0 4.0891,0.82569 5.50461,2.2412c0.11794,0.11807 0.19651,0.31459 0.19651,0.47174c0,0.5111 -1.41537,1.84803 -1.76932,2.2412c0.58982,0.19665 2.16249,0.94377 2.16249,1.65138c0,0.39317 -0.39317,0.70775 -0.62904,0.98299c4.32511,3.81387 6.80218,9.2399 7.74581,14.86244c0.58982,-0.70775 1.41537,-1.17964 2.35914,-1.17964c1.45473,0 2.87024,0.98312 3.9318,1.92675c2.87024,2.55565 3.53864,7.31315 3.53864,10.96986zM1440.48725,637.84767c0,2.51643 1.72996,5.11144 4.44304,5.11144c2.71295,0 4.44291,-2.59501 4.44291,-5.11144c0,-2.47707 -1.72996,-5.07208 -4.44291,-5.07208c-2.71308,0 -4.44304,2.59515 -4.44304,5.07208zM1447.32865,652.23837c0,-2.71295 0.5111,-5.38667 1.1795,-8.02104c-7.16136,10.94509 -1.86207,25.39978 9.47591,25.39978c2.94882,0 5.85842,-1.06156 8.25691,-2.7523c0.27523,-1.02234 0.5111,-2.04455 0.5111,-3.10625c0,-1.96597 -0.86505,-2.94882 -2.83102,-2.94882c-0.62904,0 -1.25822,0.11794 -1.84803,0.23587c-8.71696,1.74331 -14.74437,0.50491 -14.74437,-8.80724zM1441.66689,687.3107c0,-1.53345 -1.219,-2.87024 -2.79166,-2.87024c-1.5728,0 -2.7523,1.33693 -2.7523,2.87024v4.48226c0,1.53345 1.1795,2.90946 2.7523,2.90946c1.57267,0 2.79166,-1.33693 2.79166,-2.90946zM1448.42971,687.3107c0,-1.53345 -1.17964,-2.87024 -2.7523,-2.87024c-1.5728,0 -2.79166,1.33693 -2.79166,2.87024v4.48226c0,1.53345 1.21886,2.90946 2.79166,2.90946c1.57267,0 2.7523,-1.37615 2.7523,-2.90946zM1455.27097,687.3107c0,-1.53345 -1.21886,-2.87024 -2.79152,-2.87024c-1.5728,0 -2.79166,1.33693 -2.79166,2.87024v4.48226c0,1.53345 1.21886,2.90946 2.79166,2.90946c1.57267,0 2.79152,-1.33693 2.79152,-2.90946zM1462.11251,687.3107c0,-1.53345 -1.21886,-2.87024 -2.79166,-2.87024c-1.57267,0 -2.79166,1.33693 -2.79166,2.87024v4.48226c0,1.53345 1.219,2.90946 2.79166,2.90946c1.5728,0 2.79166,-1.37615 2.79166,-2.90946zM1472.64985,664.89896c-4.24639,8.13884 -12.42459,14.11547 -21.82178,14.11547c-13.28964,0 -22.09701,-11.63839 -22.09701,-24.29899c0,-2.31978 0.27523,-4.60034 0.82569,-6.8414c-2.7523,4.6397 -4.0891,9.98701 -4.0891,15.33432c0,8.29627 3.4207,16.74983 9.82972,22.13637c0.70775,-1.33679 2.04455,-2.2412 3.578,-2.2412c1.37615,0 2.67359,0.78633 3.38134,1.96597c0.74711,-1.1795 2.00519,-1.96597 3.42084,-1.96597c1.37615,0 2.67359,0.78633 3.38134,1.96597c0.74711,-1.1795 2.04455,-1.96597 3.42084,-1.96597c1.37615,0 2.67359,0.78633 3.4207,1.96597c0.70775,-1.1795 2.00519,-1.96597 3.38148,-1.96597c1.49409,0 2.87024,0.90441 3.53864,2.20184c5.97622,-4.99351 9.43614,-12.6606 9.8293,-20.40641zM1474.10472,651.1768c0,-7.39186 -4.7575,-14.54785 -12.73931,-14.54785c-4.16768,0 -8.06026,2.08391 -10.85192,5.07208c-2.75162,9.13531 -3.77712,18.79425 5.70126,18.79425c3.96401,0 13.3978,-3.92726 11.59904,5.07208c3.97116,-3.578 6.29094,-9.04325 6.29094,-14.39056z" className="SFSymbolsPreviewWireframe"/></g>
  <g id="Ultralight-S"><path d="M553.10596,637.69051c0,-1.37615 0.86505,-2.98818 2.43785,-2.98818c1.53331,0 2.43772,1.61202 2.43772,2.98818c0,1.41537 -0.90441,2.98818 -2.43772,2.98818c-1.5728,0 -2.43785,-1.5728 -2.43785,-2.98818zM594.94098,659.70894c0,4.95428 -1.5728,14.07611 -4.99351,17.85062c-3.14561,3.42084 -12.03142,8.41421 -16.63176,9.71178l-0.15729,0.03936v4.48226c0,2.2412 -1.7301,4.20703 -4.01052,4.20703c-1.37615,0 -2.67373,-0.78633 -3.38148,-1.96597c-0.74684,1.17964 -2.04441,1.96597 -3.42056,1.96597c-1.37615,0 -2.67373,-0.78633 -3.42084,-1.96597c-0.70762,1.17964 -2.00519,1.96597 -3.38121,1.96597c-1.41551,0 -2.67373,-0.78633 -3.42084,-1.96597c-0.70775,1.17964 -2.00519,1.96597 -3.38134,1.96597c-2.59501,0 -4.04988,-2.16249 -4.04988,-4.52162c-2.2412,1.6906 -4.91493,2.67359 -7.78503,2.67359c-3.02753,0 -5.97649,-1.14014 -8.29627,-3.14547c1.41537,-0.03936 2.83088,-0.31459 4.16768,-0.78633c-2.87024,-0.78633 -5.42589,-2.59501 -7.15599,-4.99351c2.94084,0.63922 6.35906,0.23023 9.2399,-1.53345c-3.02753,-3.02753 -7.78503,-8.09962 -9.43655,-12.03142c-0.7862,-1.84803 -0.94349,-4.32511 -0.94349,-6.29094c0,-6.8414 2.79166,-22.01843 11.87427,-22.01843c1.45473,0 2.59501,0.66853 3.18483,2.04455c0.50634,-0.74095 1.05785,-1.45 1.65138,-2.12313c0.27523,-0.35395 0.78633,-0.74711 0.98299,-1.14028c1.10078,-1.72996 1.61202,-2.90946 2.98818,-4.67892c4.44291,-5.66204 11.24509,-9.55449 18.55837,-9.55449c0.82569,0 1.65138,0.03922 2.43772,0.15729c1.49409,-1.61216 3.578,-2.51643 5.74062,-2.51643c2.00519,0 4.0891,0.82569 5.50461,2.2412c0.11794,0.11807 0.19651,0.31459 0.19651,0.47174c0,0.5111 -1.41537,1.84803 -1.76932,2.2412c0.58982,0.19665 2.16249,0.94377 2.16249,1.65138c0,0.39317 -0.39317,0.70775 -0.62904,0.98299c4.32511,3.81387 6.80218,9.2399 7.74581,14.86244c0.58982,-0.70775 1.41537,-1.17964 2.35914,-1.17964c1.45473,0 2.87024,0.98312 3.9318,1.92675c2.87024,2.55565 3.53864,7.31315 3.53864,10.96986zM550.35366,637.84767c0,2.51643 1.72996,5.11144 4.44304,5.11144c2.71295,0 4.44291,-2.59501 4.44291,-5.11144c0,-2.47707 -1.72996,-5.07208 -4.44291,-5.07208c-2.71308,0 -4.44304,2.59515 -4.44304,5.07208zM557.19506,652.23837c0,-2.71295 0.5111,-5.38667 1.1795,-8.02104c-7.16136,10.94509 -1.86207,25.39978 9.47591,25.39978c2.94882,0 5.85842,-1.06156 8.25691,-2.7523c0.27523,-1.02234 0.5111,-2.04455 0.5111,-3.10625c0,-1.96597 -0.86505,-2.94882 -2.83102,-2.94882c-0.62904,0 -1.25822,0.11794 -1.84803,0.23587c-8.71696,1.74331 -14.74437,0.50491 -14.74437,-8.80724zM551.5333,687.3107c0,-1.53345 -1.219,-2.87024 -2.79166,-2.87024c-1.5728,0 -2.7523,1.33693 -2.7523,2.87024v4.48226c0,1.53345 1.1795,2.90946 2.7523,2.90946c1.57267,0 2.79166,-1.33693 2.79166,-2.90946zM558.29612,687.3107c0,-1.53345 -1.17964,-2.87024 -2.7523,-2.87024c-1.5728,0 -2.79166,1.33693 -2.79166,2.87024v4.48226c0,1.53345 1.21886,2.90946 2.79166,2.90946c1.57267,0 2.7523,-1.37615 2.7523,-2.90946zM565.13738,687.3107c0,-1.53345 -1.21886,-2.87024 -2.79152,-2.87024c-1.5728,0 -2.79166,1.33693 -2.79166,2.87024v4.48226c0,1.53345 1.21886,2.90946 2.79166,2.90946c1.57267,0 2.79152,-1.33693 2.79152,-2.90946zM571.97892,687.3107c0,-1.53345 -1.21886,-2.87024 -2.79166,-2.87024c-1.57267,0 -2.79166,1.33693 -2.79166,2.87024v4.48226c0,1.53345 1.219,2.90946 2.79166,2.90946c1.5728,0 2.79166,-1.37615 2.79166,-2.90946zM582.51626,664.89896c-4.24639,8.13884 -12.42459,14.11547 -21.82178,14.11547c-13.28964,0 -22.09701,-11.63839 -22.09701,-24.29899c0,-2.31978 0.27523,-4.60034 0.82569,-6.8414c-2.7523,4.6397 -4.0891,9.98701 -4.0891,15.33432c0,8.29627 3.4207,16.74983 9.82972,22.13637c0.70775,-1.33679 2.04455,-2.2412 3.578,-2.2412c1.37615,0 2.67359,0.78633 3.38134,1.96597c0.74711,-1.1795 2.00519,-1.96597 3.42084,-1.96597c1.37615,0 2.67359,0.78633 3.38134,1.96597c0.74711,-1.1795 2.04455,-1.96597 3.42084,-1.96597c1.37615,0 2.67359,0.78633 3.4207,1.96597c0.70775,-1.1795 2.00519,-1.96597 3.38148,-1.96597c1.49409,0 2.87024,0.90441 3.53864,2.20184c5.97622,-4.99351 9.43614,-12.6606 9.8293,-20.40641zM583.97113,651.1768c0,-7.39186 -4.7575,-14.54785 -12.73931,-14.54785c-4.16768,0 -8.06026,2.08391 -10.85192,5.07208c-2.75162,9.13531 -3.77712,18.79425 5.70126,18.79425c3.96401,0 13.3978,-3.92726 11.59904,5.07208c3.97116,-3.578 6.29094,-9.04325 6.29094,-14.39056z" className="SFSymbolsPreviewWireframe"/></g>
 </g>
</svg>