<?xml version="1.0" encoding="UTF-8"?><!--Generator: https://SymbolKit.app--><!DOCTYPE svg PUBLIC "-//W3C//DTD SVG 1.1//EN" "http://www.w3.org/Graphics/SVG/1.1/DTD/svg11.dtd"><svg xmlns="http://www.w3.org/2000/svg" xmlns:xlink="http://www.w3.org/1999/xlink" version="1.1" viewBox="0 0 3300 2200">
 <!--glyph: "100092", point size: 100.0, font version: "20.0d10e1", template writer version: "138.0.0"-->
 <style>.SFSymbolsPreviewWireframe {fill:none;opacity:1.0;stroke:black;stroke-width:0.5}
</style>
 <g id="Notes">
  <rect height="2200" id="artboard" style="fill:white;opacity:1" width="3300" x="0" y="0"/>
  <line style="fill:none;stroke:black;opacity:1;stroke-width:0.5;" x1="263" x2="3036" y1="292" y2="292"/>
  <text style="stroke:none;fill:black;font-family:sans-serif;font-size:13;font-weight:bold;" transform="matrix(1 0 0 1 263 322)">Weight/Scale Variations</text>
  <text style="stroke:none;fill:black;font-family:sans-serif;font-size:13;text-anchor:middle;" transform="matrix(1 0 0 1 559.711 322)">Ultralight</text>
  <text style="stroke:none;fill:black;font-family:sans-serif;font-size:13;text-anchor:middle;" transform="matrix(1 0 0 1 856.422 322)">Thin</text>
  <text style="stroke:none;fill:black;font-family:sans-serif;font-size:13;text-anchor:middle;" transform="matrix(1 0 0 1 1153.13 322)">Light</text>
  <text style="stroke:none;fill:black;font-family:sans-serif;font-size:13;text-anchor:middle;" transform="matrix(1 0 0 1 1449.84 322)">Regular</text>
  <text style="stroke:none;fill:black;font-family:sans-serif;font-size:13;text-anchor:middle;" transform="matrix(1 0 0 1 1746.56 322)">Medium</text>
  <text style="stroke:none;fill:black;font-family:sans-serif;font-size:13;text-anchor:middle;" transform="matrix(1 0 0 1 2043.27 322)">Semibold</text>
  <text style="stroke:none;fill:black;font-family:sans-serif;font-size:13;text-anchor:middle;" transform="matrix(1 0 0 1 2339.98 322)">Bold</text>
  <text style="stroke:none;fill:black;font-family:sans-serif;font-size:13;text-anchor:middle;" transform="matrix(1 0 0 1 2636.69 322)">Heavy</text>
  <text style="stroke:none;fill:black;font-family:sans-serif;font-size:13;text-anchor:middle;" transform="matrix(1 0 0 1 2933.4 322)">Black</text>
  <line style="fill:none;stroke:black;opacity:1;stroke-width:0.5;" x1="263" x2="3036" y1="1903" y2="1903"/>
  <g transform="matrix(0.2 0 0 0.2 263 1933)">
   <path d="m46.2402 4.15039c21.7773 0 39.4531-17.627 39.4531-39.4043s-17.6758-39.4043-39.4531-39.4043c-21.7285 0-39.4043 17.627-39.4043 39.4043s17.6758 39.4043 39.4043 39.4043Zm0-7.42188c-17.6758 0-31.9336-14.3066-31.9336-31.9824s14.2578-31.9824 31.9336-31.9824 31.9824 14.3066 31.9824 31.9824-14.3066 31.9824-31.9824 31.9824Zm-17.9688-31.9824c0 2.14844 1.51367 3.61328 3.75977 3.61328h10.498v10.5957c0 2.19727 1.46484 3.71094 3.61328 3.71094 2.24609 0 3.71094-1.51367 3.71094-3.71094v-10.5957h10.5957c2.19727 0 3.71094-1.46484 3.71094-3.61328 0-2.19727-1.51367-3.71094-3.71094-3.71094h-10.5957v-10.5469c0-2.24609-1.46484-3.75977-3.71094-3.75977-2.14844 0-3.61328 1.51367-3.61328 3.75977v10.5469h-10.498c-2.24609 0-3.75977 1.51367-3.75977 3.71094Z"/>
  </g>
  <g transform="matrix(0.2 0 0 0.2 281.506 1933)">
   <path d="m58.5449 14.5508c27.4902 0 49.8047-22.3145 49.8047-49.8047s-22.3145-49.8047-49.8047-49.8047-49.8047 22.3145-49.8047 49.8047 22.3145 49.8047 49.8047 49.8047Zm0-8.30078c-22.9492 0-41.5039-18.5547-41.5039-41.5039s18.5547-41.5039 41.5039-41.5039 41.5039 18.5547 41.5039 41.5039-18.5547 41.5039-41.5039 41.5039Zm-22.6562-41.5039c0 2.39258 1.66016 4.00391 4.15039 4.00391h14.3555v14.4043c0 2.44141 1.66016 4.15039 4.05273 4.15039 2.44141 0 4.15039-1.66016 4.15039-4.15039v-14.4043h14.4043c2.44141 0 4.15039-1.61133 4.15039-4.00391 0-2.44141-1.70898-4.15039-4.15039-4.15039h-14.4043v-14.3555c0-2.49023-1.70898-4.19922-4.15039-4.19922-2.39258 0-4.05273 1.70898-4.05273 4.19922v14.3555h-14.3555c-2.49023 0-4.15039 1.70898-4.15039 4.15039Z"/>
  </g>
  <g transform="matrix(0.2 0 0 0.2 304.924 1933)">
   <path d="m74.8535 28.3203c35.1074 0 63.623-28.4668 63.623-63.5742s-28.5156-63.623-63.623-63.623-63.5742 28.5156-63.5742 63.623 28.4668 63.5742 63.5742 63.5742Zm0-9.08203c-30.127 0-54.4922-24.3652-54.4922-54.4922s24.3652-54.4922 54.4922-54.4922 54.4922 24.3652 54.4922 54.4922-24.3652 54.4922-54.4922 54.4922Zm-28.8574-54.4922c0 2.58789 1.85547 4.39453 4.58984 4.39453h19.7266v19.7754c0 2.68555 1.85547 4.58984 4.44336 4.58984 2.68555 0 4.54102-1.85547 4.54102-4.58984v-19.7754h19.7754c2.68555 0 4.58984-1.80664 4.58984-4.39453 0-2.73438-1.85547-4.58984-4.58984-4.58984h-19.7754v-19.7266c0-2.73438-1.85547-4.63867-4.54102-4.63867-2.58789 0-4.44336 1.9043-4.44336 4.63867v19.7266h-19.7266c-2.73438 0-4.58984 1.85547-4.58984 4.58984Z"/>
  </g>
  <text style="stroke:none;fill:black;font-family:sans-serif;font-size:13;font-weight:bold;" transform="matrix(1 0 0 1 263 1953)">Design Variations</text>
  <text style="stroke:none;fill:black;font-family:sans-serif;font-size:13;" transform="matrix(1 0 0 1 263 1971)">Symbols are supported in up to nine weights and three scales.</text>
  <text style="stroke:none;fill:black;font-family:sans-serif;font-size:13;" transform="matrix(1 0 0 1 263 1989)">For optimal layout with text and other symbols, vertically align</text>
  <text style="stroke:none;fill:black;font-family:sans-serif;font-size:13;" transform="matrix(1 0 0 1 263 2007)">symbols with the adjacent text.</text>
  <line style="fill:none;stroke:#00AEEF;stroke-width:0.5;opacity:1.0;" x1="776" x2="776" y1="1919" y2="1933"/>
  <g transform="matrix(0.2 0 0 0.2 776 1933)">
   <path d="m16.5527 0.78125c2.58789 0 3.85742-0.976562 4.78516-3.71094l6.29883-17.2363h28.8086l6.29883 17.2363c0.927734 2.73438 2.19727 3.71094 4.73633 3.71094 2.58789 0 4.24805-1.5625 4.24805-4.00391 0-0.830078-0.146484-1.61133-0.537109-2.63672l-22.9004-60.9863c-1.12305-2.97852-3.125-4.49219-6.25-4.49219-3.02734 0-5.07812 1.46484-6.15234 4.44336l-22.9004 61.084c-0.390625 1.02539-0.537109 1.80664-0.537109 2.63672 0 2.44141 1.5625 3.95508 4.10156 3.95508Zm13.4766-28.3691 11.8652-32.8613h0.244141l11.8652 32.8613Z"/>
  </g>
  <line style="fill:none;stroke:#00AEEF;stroke-width:0.5;opacity:1.0;" x1="792.836" x2="792.836" y1="1919" y2="1933"/>
  <text style="stroke:none;fill:black;font-family:sans-serif;font-size:13;font-weight:bold;" transform="matrix(1 0 0 1 776 1953)">Margins</text>
  <text style="stroke:none;fill:black;font-family:sans-serif;font-size:13;" transform="matrix(1 0 0 1 776 1971)">Leading and trailing margins on the left and right side of each symbol</text>
  <text style="stroke:none;fill:black;font-family:sans-serif;font-size:13;" transform="matrix(1 0 0 1 776 1989)">can be adjusted by modifying the x-location of the margin guidelines.</text>
  <text style="stroke:none;fill:black;font-family:sans-serif;font-size:13;" transform="matrix(1 0 0 1 776 2007)">Modifications are automatically applied proportionally to all</text>
  <text style="stroke:none;fill:black;font-family:sans-serif;font-size:13;" transform="matrix(1 0 0 1 776 2025)">scales and weights.</text>
  <g transform="matrix(0.2 0 0 0.2 1289 1933)">
   <path d="m14.209 9.32617 8.49609 8.54492c4.29688 4.3457 9.22852 4.05273 13.8672-1.07422l53.4668-58.9355-4.83398-4.88281-53.0762 58.3984c-1.75781 2.00195-3.41797 2.49023-5.76172 0.146484l-5.85938-5.81055c-2.34375-2.29492-1.80664-4.00391 0.195312-5.81055l57.373-54.0039-4.88281-4.83398-57.959 54.4434c-4.93164 4.58984-5.32227 9.47266-1.02539 13.8184Zm32.0801-90.9668c-2.09961 2.05078-2.24609 4.93164-1.07422 6.88477 1.17188 1.80664 3.4668 2.97852 6.68945 2.14844 7.32422-1.70898 14.9414-2.00195 22.0703 2.68555l-2.92969 7.27539c-1.70898 4.15039-0.830078 7.08008 1.85547 9.81445l11.4746 11.5723c2.44141 2.44141 4.49219 2.53906 7.32422 2.05078l5.32227-0.976562 3.32031 3.36914-0.195312 2.7832c-0.195312 2.49023 0.439453 4.39453 2.88086 6.78711l3.80859 3.71094c2.39258 2.39258 5.46875 2.53906 7.8125 0.195312l14.5508-14.5996c2.34375-2.34375 2.24609-5.32227-0.146484-7.71484l-3.85742-3.80859c-2.39258-2.39258-4.24805-3.17383-6.64062-2.97852l-2.88086 0.244141-3.22266-3.17383 1.2207-5.61523c0.634766-2.83203-0.146484-5.0293-3.07617-7.95898l-10.9863-10.9375c-16.6992-16.6016-38.8672-16.2109-53.3203-1.75781Zm7.4707 1.85547c12.1582-8.88672 28.6133-7.37305 39.7461 3.75977l12.1582 12.0605c1.17188 1.17188 1.36719 2.09961 1.02539 3.80859l-1.61133 7.42188 7.51953 7.42188 4.93164-0.292969c1.26953-0.0488281 1.66016 0.0488281 2.63672 1.02539l2.88086 2.88086-12.207 12.207-2.88086-2.88086c-0.976562-0.976562-1.12305-1.36719-1.07422-2.68555l0.341797-4.88281-7.4707-7.42188-7.61719 1.26953c-1.61133 0.341797-2.34375 0.195312-3.56445-0.976562l-10.0098-10.0098c-1.26953-1.17188-1.41602-2.00195-0.634766-3.85742l4.39453-10.4492c-7.8125-7.27539-17.9688-10.4004-28.125-7.42188-0.78125 0.195312-1.07422-0.439453-0.439453-0.976562Z"/>
  </g>
  <text style="stroke:none;fill:black;font-family:sans-serif;font-size:13;font-weight:bold;" transform="matrix(1 0 0 1 1289 1953)">Exporting</text>
  <text style="stroke:none;fill:black;font-family:sans-serif;font-size:13;" transform="matrix(1 0 0 1 1289 1971)">Symbols should be outlined when exporting to ensure the</text>
  <text style="stroke:none;fill:black;font-family:sans-serif;font-size:13;" transform="matrix(1 0 0 1 1289 1989)">design is preserved when submitting to Xcode.</text>
  <text id="template-version" style="stroke:none;fill:black;font-family:sans-serif;font-size:13;text-anchor:end;" transform="matrix(1 0 0 1 3036 1933)">Template v.6.0</text>
  <text style="stroke:none;fill:black;font-family:sans-serif;font-size:13;text-anchor:end;" transform="matrix(1 0 0 1 3036 1951)">Requires Xcode 16 or greater</text>
  <text id="descriptive-name" style="stroke:none;fill:black;font-family:sans-serif;font-size:13;text-anchor:end;" transform="matrix(1 0 0 1 3036 1969)">Generated from square</text>
  <text style="stroke:none;fill:black;font-family:sans-serif;font-size:13;text-anchor:end;" transform="matrix(1 0 0 1 3036 1987)">Typeset at 100.0 points</text>
  <text style="stroke:none;fill:black;font-family:sans-serif;font-size:13;" transform="matrix(1 0 0 1 263 726)">Small</text>
  <text style="stroke:none;fill:black;font-family:sans-serif;font-size:13;" transform="matrix(1 0 0 1 263 1156)">Medium</text>
  <text style="stroke:none;fill:black;font-family:sans-serif;font-size:13;" transform="matrix(1 0 0 1 263 1586)">Large</text>
 </g>
 <g id="Guides">
  <g id="H-reference" style="fill:#27AAE1;stroke:none;" transform="matrix(1 0 0 1 339 696)">
   <path d="M0.993654 0L3.63775 0L29.3281-67.1323L30.0303-67.1323L30.0303-70.459L28.1226-70.459ZM11.6885-24.4799L46.9815-24.4799L46.2315-26.7285L12.4385-26.7285ZM55.1196 0L57.7637 0L30.6382-70.459L29.4326-70.459L29.4326-67.1323Z"/>
  </g>
  <line id="Baseline-S" style="fill:none;stroke:#27AAE1;opacity:1;stroke-width:0.5;" x1="263" x2="3036" y1="696" y2="696"/>
  <line id="Capline-S" style="fill:none;stroke:#27AAE1;opacity:1;stroke-width:0.5;" x1="263" x2="3036" y1="625.541" y2="625.541"/>
  <g id="H-reference" style="fill:#27AAE1;stroke:none;" transform="matrix(1 0 0 1 339 1126)">
   <path d="M0.993654 0L3.63775 0L29.3281-67.1323L30.0303-67.1323L30.0303-70.459L28.1226-70.459ZM11.6885-24.4799L46.9815-24.4799L46.2315-26.7285L12.4385-26.7285ZM55.1196 0L57.7637 0L30.6382-70.459L29.4326-70.459L29.4326-67.1323Z"/>
  </g>
  <line id="Baseline-M" style="fill:none;stroke:#27AAE1;opacity:1;stroke-width:0.5;" x1="263" x2="3036" y1="1126" y2="1126"/>
  <line id="Capline-M" style="fill:none;stroke:#27AAE1;opacity:1;stroke-width:0.5;" x1="263" x2="3036" y1="1055.54" y2="1055.54"/>
  <g id="H-reference" style="fill:#27AAE1;stroke:none;" transform="matrix(1 0 0 1 339 1556)">
   <path d="M0.993654 0L3.63775 0L29.3281-67.1323L30.0303-67.1323L30.0303-70.459L28.1226-70.459ZM11.6885-24.4799L46.9815-24.4799L46.2315-26.7285L12.4385-26.7285ZM55.1196 0L57.7637 0L30.6382-70.459L29.4326-70.459L29.4326-67.1323Z"/>
  </g>
  <line id="Baseline-L" style="fill:none;stroke:#27AAE1;opacity:1;stroke-width:0.5;" x1="263" x2="3036" y1="1556" y2="1556"/>
  <line id="Capline-L" style="fill:none;stroke:#27AAE1;opacity:1;stroke-width:0.5;" x1="263" x2="3036" y1="1485.54" y2="1485.54"/>
  <line id="right-margin-Black-S" style="fill:none;stroke:#00AEEF;stroke-width:0.5;opacity:1.0;" x1="2981.3" x2="2981.3" y1="600.785" y2="720.121"/>
  <line id="left-margin-Black-S" style="fill:none;stroke:#00AEEF;stroke-width:0.5;opacity:1.0;" x1="2885.5" x2="2885.5" y1="600.785" y2="720.121"/>
  <line id="right-margin-Regular-S" style="fill:none;stroke:#00AEEF;stroke-width:0.5;opacity:1.0;" x1="1495.18" x2="1495.18" y1="600.785" y2="720.121"/>
  <line id="left-margin-Regular-S" style="fill:none;stroke:#00AEEF;stroke-width:0.5;opacity:1.0;" x1="1404.51" x2="1404.51" y1="600.785" y2="720.121"/>
  <line id="right-margin-Ultralight-S" style="fill:none;stroke:#00AEEF;stroke-width:0.5;opacity:1.0;" x1="603.073" x2="603.073" y1="600.785" y2="720.121"/>
  <line id="left-margin-Ultralight-S" style="fill:none;stroke:#00AEEF;stroke-width:0.5;opacity:1.0;" x1="516.35" x2="516.35" y1="600.785" y2="720.121"/>
 </g>
 <g id="Symbols">
  <g id="Black-S"><path d="M2919.52743,673.11322c-0.26147,0.18991 -1.5234,1.16147 -0.03578,3.24359c0.63853,0.88349 1.94175,1.7601 2.99038,0.90138c0.8945,-0.67156 1.01147,-1.77799 0.03578,-3.17065c-0.75276,-1.06789 -1.96515,-1.77248 -2.99038,-0.97432zM2965.86935,683.56371c-0.04679,0.23395 -0.07569,0.22982 0.10872,0c0.28762,-0.57661 0.57661,-1.40505 0.68532,-2.73854c0.43211,-5.29681 -5.55002,-9.83811 -13.94592,-10.73811c-7.53168,-0.82844 -17.11658,1.26193 -25.98175,8.32434l-0.03578,0.21606c0.36055,0.68532 0.68532,1.47799 0.46789,2.91882l0.10872,0.03578c8.79224,-8.03673 18.05374,-10.63077 25.36936,-10.16288c8.03673,0.50505 13.76565,4.68442 13.76565,9.36884c-0.00138,1.37065 -0.36193,2.16331 -0.5422,2.7757zM2943.34725,658.62646c0.10872,0.97294 0.57661,1.40505 1.26193,1.44083c0.75688,0.03578 1.29771,-0.36055 1.44083,-0.90138c0.10872,-0.46789 0.28762,-4.10781 0.28762,-4.10781c0,0 -1.54955,0.90138 -2.05459,1.44083c-0.50367,0.50642 -1.00872,1.15459 -0.93578,2.12753zM2936.46374,637.83281c-28.14369,0 -45.29742,18.91934 -46.99146,20.901c-0.1445,0.07156 -0.18028,0.10872 0.10872,0.18028c8.32434,2.27065 21.44182,11.1716 26.99047,27.82029l0.1445,0.03578c7.60324,-9.62206 19.38723,-17.62163 32.61343,-17.62163c11.13582,0 17.91062,5.80186 17.91062,11.06289c0,2.52249 -0.90138,4.61286 -3.06331,6.37846c0,0.13211 -0.02752,0.10872 0.10872,0.10872c2.01744,-1.47799 3.78442,-3.96332 3.78442,-6.6303c0,-3.13487 -1.65826,-5.26103 -1.65826,-5.26103c0.97294,0.97294 1.47799,2.23487 1.47799,2.23487c0.79266,-5.62158 3.71148,-8.57618 3.71148,-8.57618c-0.32477,-1.33349 -0.93716,-2.45093 -0.93716,-2.45093c1.0445,1.11744 1.98166,3.78442 1.98166,5.69314c0,1.44083 -0.46789,3.13487 -1.72982,4.39681l0.03578,0.07156c1.11744,-0.68532 2.27065,-2.30643 2.27065,-5.22525c0,-2.16193 -0.64817,-3.56699 -0.64817,-3.56699c0.79266,-0.7211 1.54955,-1.26193 2.19771,-1.62111c0.10872,0.46789 0.28762,1.33349 0.32477,2.05459c0,0.1445 0.10872,0.25184 0.1445,0c0.10872,-0.79266 -0.03578,-2.23487 -0.03578,-2.27065c0.82844,-0.43211 1.33349,-0.61239 1.33349,-0.61239c-2.16469,-15.17345 -19.82209,-27.10194 -40.07492,-27.10194zM2922.8068,677.68892c-1.52202,1.23716 -3.33029,0.56147 -4.21653,-0.57661c-1.02523,-1.31835 -0.93028,-3.31515 0.57661,-4.46837c2.04359,-1.56193 3.72662,-0.06743 4.28809,0.75688c0.03853,0.05367 1.66927,2.28028 -0.64817,4.28809zM2923.09442,658.91408l1.29771,-2.45093l1.62111,9.76517l-1.72982,0.82844l-3.38809,-3.96332l1.94588,-3.6757l0.50505,0.61239zM2925.65268,675.09487l-0.03578,-0.03578c0.28211,-0.56422 -0.34404,-0.90964 -2.41377,-4.36103c-0.18028,-0.32477 -0.43211,-0.39633 -0.61239,-0.36055l-0.03578,-0.07156c1.08166,-0.79266 2.12615,-1.40505 3.49543,-2.16193l0.07156,0.03578c0.18028,0.25184 0.28762,0.39633 0.46789,0.64817l-0.03578,0.07156c-0.1445,-0.03578 -0.32477,-0.10872 -0.7211,0.03578c-0.28762,0.10872 -1.08166,0.50505 -1.69404,1.0445v0.18028c0.21606,0.32477 0.54083,0.90138 0.79266,1.33349h0.03578c1.38303,-0.86422 1.04037,-0.62615 1.58533,-1.08166h0.03578c0.07156,0.25184 0.07156,0.25184 0.25184,0.75688l-0.03578,0.03578c-0.4211,0.08395 -0.63991,0.04679 -1.58533,0.75688v0.03578c1.30184,2.34221 1.51514,2.30505 1.72982,2.19771l0.03578,0.03578c-0.32202,0.21881 -0.86285,0.57936 -1.33212,0.90413zM2933.2573,670.62651c-0.43211,0.21606 -0.82844,0.39633 -1.36927,0.68532l-0.03578,-0.03578c0.17752,-0.35642 0.15963,-0.37294 -1.62111,-4.46837l-0.03578,-0.03578c-0.02064,0 -1.22478,0.5023 -1.36927,1.00872h-0.07156l-0.1445,-0.79266l0.03578,-0.07156c1.00321,-0.62753 3.51332,-1.60184 3.8202,-1.72982l0.07156,0.03578l0.43211,0.68532l-0.03578,0.07156c-0.48578,-0.2422 -1.01147,0.10459 -1.69404,0.36055v0.03578c1.69404,4.40506 1.74358,4.21653 2.01744,4.21653zM2939.41833,668.35586c-0.57661,0.1445 -0.7211,0.18028 -1.33349,0.39633l-0.03578,-0.03578l0.07156,-0.61239c-0.1445,-0.46789 -0.43211,-1.58533 -0.50505,-1.87432l-0.03578,-0.03578c-0.46789,0.10872 -1.22478,0.36055 -1.7656,0.54083l-0.03578,0.03578c0.10872,0.36055 0.43211,1.36927 0.57661,1.9101c0.10872,0.32477 0.25184,0.39633 0.39633,0.43211v0.07156c-0.50505,0.1445 -0.97294,0.36055 -1.40505,0.54083l-0.03578,-0.03578c0.1445,-0.18028 0.1445,-0.39633 0.03578,-0.68532c-0.1445,-0.43211 -1.11744,-3.27937 -1.26193,-3.74726c-0.07156,-0.25184 -0.21606,-0.43211 -0.36055,-0.43211v-0.07156c0.43211,-0.1445 0.82844,-0.28762 1.47799,-0.46789l0.03578,0.03578l-0.03578,0.64817c0.18028,0.54083 0.32477,1.0445 0.43211,1.33349h0.03578c0.54083,-0.18028 1.29771,-0.39633 1.7656,-0.54083l0.03578,-0.03578l-0.36055,-1.29771c-0.07156,-0.25184 -0.1445,-0.46789 -0.36055,-0.54083v-0.03578c0.61239,-0.1445 1.00872,-0.25184 1.47799,-0.32477l0.03578,0.03578c-0.1445,0.18028 -0.1445,0.39633 -0.07156,0.61239c0.21606,0.86422 0.64817,2.81148 0.86422,3.63992c0.07431,0.36055 0.25459,0.46927 0.36193,0.54083zM2943.85092,667.4187l-0.03578,0.03578c-0.64817,0.07156 -1.94588,0.32477 -3.09909,0.57661l-0.03578,-0.03578l0.10872,-0.57661c-0.21606,-1.08166 -0.46789,-2.55827 -0.68532,-3.60414c-0.03578,-0.25184 -0.10872,-0.39633 -0.36055,-0.50505l0.10872,-0.07156c1.26193,-0.21606 2.77432,-0.32477 3.42387,-0.36055l0.03578,0.03578c0.07156,0.32477 0.10872,0.43211 0.21606,0.75688l-0.03578,0.03578c-0.15688,-0.15688 -0.45963,-0.44037 -2.23487,-0.10872l-0.03578,0.03578c0.03578,0.21606 0.1445,0.90138 0.21606,1.36927l0.03578,0.03578c1.3101,-0.23119 0.65505,-0.00826 1.47799,-0.32477h0.03578c0,0.21606 -0.03578,0.25184 -0.03578,0.7211h-0.03578c-0.66193,-0.14174 -0.29587,-0.12385 -1.40505,0l-0.03578,0.03578c0.03578,0.28762 0.21606,1.29771 0.28762,1.72982l0.03578,0.03578c0.15826,0.05229 1.95551,-0.08945 2.23487,-0.64817h0.03578c-0.07294,0.32752 -0.1445,0.57936 -0.21743,0.8312zM2945.32891,661.29345c-0.61239,0.32477 -1.11744,0.39633 -1.51377,0.39633c-0.0344,0.00275 -1.57019,0.15 -2.41377,-1.36927c-0.92753,-1.48487 -0.13486,-3.4679 0.75688,-4.36103c1.21101,-1.11744 3.21332,-1.38991 3.92754,-2.34221c1.10505,-1.42157 -1.7945,-3.0702 -4.07203,-0.79266l-0.36055,-0.39633l0.7211,-2.23487c3.52157,-0.21606 6.22021,-0.41835 6.88351,2.23487c0.10872,0.43211 0,1.29771 -0.03578,1.65826c0,0.36055 -0.25184,2.59405 -0.28762,3.17065c-0.07156,0.57661 -0.10872,2.52249 -0.10872,2.84726c0.03578,0.32477 0.07156,0.57661 0.21606,0.75688c0.21606,0.25184 0.79266,0.25184 0.79266,0.25184l-0.10872,0.64817c-1.62661,-0.14725 -1.41468,-0.08119 -2.81148,-0.1445c-0.44312,-0.70872 -0.30688,-0.45138 -0.57661,-1.08166c0,0.00138 -0.57661,0.5422 -1.00872,0.75826zM2950.44544,664.21226c-0.87386,-1.45597 -2.72753,-0.98532 -2.99038,0.75688c-0.36193,2.35047 1.9679,2.7234 2.84726,1.40505l0.03578,0.03578c-0.07156,0.25184 -0.25184,0.82844 -0.25184,0.86422l-0.07156,0.07156c-1.41744,0.94542 -3.92203,-0.34404 -3.53121,-2.55827c0.26697,-1.49588 1.98716,-2.60506 3.96332,-1.36927l0.03578,0.07156c0,0.14587 -0.03716,0.46927 -0.03716,0.72248zM2951.23948,652.13928v-0.90138c0.09495,0 2.70414,0.45138 3.8202,1.00872l-0.21606,2.41377c0,0 1.40505,-1.29771 2.12615,-1.47799c0.7211,-0.21606 2.05459,1.00872 2.05459,1.00872l-1.54955,1.54955c-1.66102,-0.87386 -2.69588,-0.01101 -2.84726,0.10872c-0.72798,5.32846 -1.18349,5.80323 0.61239,6.34268l-0.07156,0.64817c-2.41515,-0.59037 -2.55001,-0.61927 -5.08075,-1.00872l0.10872,-0.64817c0.99771,0 1.02936,-0.73211 1.0445,-0.93716c0,0 0.68532,-7.31562 0.68532,-7.60324c-0.00275,-0.39496 -0.6867,-0.50367 -0.6867,-0.50367zM2952.75187,667.88797c-1.11744,-0.28762 -1.94588,-1.51377 -1.47799,-2.84726c0.43211,-1.29771 1.69404,-1.69404 2.59405,-1.40505c1.26193,0.36055 1.7656,1.62111 1.47799,2.66698c-0.35918,1.22478 -1.29634,1.90872 -2.59405,1.58533zM2958.55373,669.22146c-0.32477,-0.07156 -0.97294,-0.32477 -1.189,-0.39633v-0.03578l0.21606,-0.25184c0.08119,-1.13395 0.08119,-1.00046 0.03578,-1.0445c-0.66331,-0.24908 -0.91652,-0.32477 -0.97294,-0.32477c-0.18028,0.25184 -0.39633,0.61239 -0.50505,0.75688l-0.10872,0.46789v0.03578c-0.18028,-0.03578 -0.54083,-0.18028 -0.82844,-0.21606v-0.03578l0.36055,-0.25184c0.46789,-0.64817 1.36927,-1.94588 1.9101,-2.77432v-0.28762l0.07156,-0.03578c0.28762,0.10872 0.75688,0.28762 1.0445,0.39633c0.06606,0.06606 0.02477,-0.25734 -0.1445,3.45965c-0.03303,0.24908 0.00275,0.3578 0.11009,0.53808zM2957.90556,656.86086c1.54817,-2.51423 4.23304,-2.22799 4.68442,-0.46789l1.0445,-3.60414c0.32202,-0.8601 -0.38807,-1.36239 -0.61239,-1.54955l0.25184,-0.50505c1.68166,1.42707 2.25414,1.92248 3.09909,2.81148c-3.56561,10.05554 -4.23304,11.12068 -3.38809,11.60371l-0.25184,0.61239c-0.87661,-0.46101 -1.22478,-0.60826 -2.45093,-1.189l0.28762,-0.93716c-0.03578,-0.03578 -0.54083,0.54083 -1.33349,0.50505c-2.62295,-0.1789 -3.15001,-4.36928 -1.33074,-7.27984zM2961.94181,667.77925c0,-0.78578 -0.87248,-1.08578 -1.08166,-0.7211c-0.18028,0.28762 0.1445,0.68532 0.39633,1.15322c0.21606,0.36055 0.36055,0.86422 0.1445,1.29771c-0.3633,0.87248 -1.70643,0.73074 -2.12615,-0.10872c0,-0.09633 -0.03716,0.01239 0.25184,-0.64817l0.10872,-0.03578c-0.07844,0.7789 0.83395,1.32248 1.15322,0.68532c0.1445,-0.28762 -0.07156,-0.75688 -0.28762,-1.15322c-0.21606,-0.36055 -0.50505,-0.86422 -0.25184,-1.33349c0.37431,-0.69633 1.54817,-0.61514 2.01744,0.32477v0.07156zM2964.86063,669.61779c-0.26973,-0.45 -0.12523,-0.2945 -0.61239,-0.64817h-0.03578c-0.32477,0.57661 -0.79266,1.44083 -1.189,2.23487c-0.18028,0.32477 -0.1445,0.46789 -0.10872,0.54083l-0.03578,0.03578l-0.79266,-0.61239l0.03578,-0.03578l0.28762,-0.18028c0.43211,-0.79266 0.90138,-1.65826 1.26193,-2.34221v-0.03578c-0.3633,-0.27248 -0.16789,-0.2078 -0.82844,-0.25184v-0.03578l0.43211,-0.46789h0.03578c0.50505,0.32477 1.36927,0.93716 1.69404,1.22478l0.03578,0.03578zM2968.60789,663.52694l-0.39633,-0.39633c0.10872,-0.32477 0.25184,-0.68532 0.28762,-1.0445c0.10321,-1.34037 -1.58533,-1.62936 -1.58533,-0.68532c0,0.68532 1.08166,2.66698 1.08166,3.8202c0,1.40505 -0.79266,2.16193 -1.9101,2.27065c-1.15322,0.10872 -2.77432,-1.44083 -2.77432,-1.44083l0.68532,-1.98166l0.39633,0.28762c-0.40872,2.44955 2.43304,2.80322 1.83716,0.7211c-0.14587,-0.55321 -2.58029,-4.70644 0.28762,-5.26103c1.87432,-0.32477 3.17065,2.27065 3.17065,2.27065zM2973.50975,662.12189c-1.51377,-4.18075 -8.32434,-17.55007 -26.41524,-17.83768c-7.3514,-0.1445 -12.97299,2.12615 -18.26979,5.22525l11.78399,-1.26193l-12.57665,2.84726l3.45965,2.70276l-0.54083,-2.27065c1.03211,-0.23532 5.38764,-1.16285 9.18857,-1.22478l-3.06331,11.06289c1.87294,-0.09633 2.61056,-1.23578 2.70276,-3.13487l0.68532,-0.1445l0.03578,3.6757c-3.09084,0.44174 -5.13305,0.92065 -6.81058,1.36927l1.80138,-5.94635l-8.46884,-5.04497l0.32477,1.11744l1.40505,0.68532c0.86422,2.55827 2.66698,7.78352 2.81148,8.07251c0.26835,0.58899 0.43486,0.79542 1.65826,0.61239l0.1445,0.68532c-2.21285,0.66881 -3.25598,1.04725 -5.36975,1.98166l-0.32477,-0.64817c0.60551,-0.40459 1.20138,-0.5422 0.75688,-1.7656c-3.26148,-8.60095 -2.95597,-8.00095 -3.13487,-8.17985l0.32477,-0.61239l4.61286,9.2615c-0.52844,-1.63349 0.23119,0.23257 -4.53993,-10.84683l-5.76608,12.18032l0.64817,-1.9101l-4.93763,-5.80186l3.8202,12.86427l-1.62111,1.15322c-15.39777,-13.99134 -14.56519,-13.53858 -15.64134,-13.58675c-0.75688,-0.03578 -1.87432,0.75688 -1.87432,0.75688l-0.68532,-0.82844c4.20552,-3.23809 4.35139,-3.34818 8.03673,-5.87342l0.57661,0.97294c0,0 -0.79266,0.57661 -1.08166,0.97294c-0.81193,1.27707 0.22982,1.82753 8.50462,10.41472l-2.59405,-8.10829l5.47709,-1.40505l3.53121,4.21653l0.61239,-1.69404l-0.68532,-3.38809l1.80138,-0.46789l0.07156,0.43211l0.50505,-1.44083l-12.97299,4.03625l1.54955,-0.68532l-1.87432,-5.83764l2.37799,-1.26193l4.14359,4.97341l3.92754,-1.80138c-0.19404,-1.02799 -0.33991,-1.99542 -0.64817,-2.70276l2.37799,1.9101l0.64817,-0.28762l-8.14407,-5.87342l3.17616,1.58257c2.61194,-0.83532 3.47203,-1.02799 4.43259,-1.33349l0.36055,1.51377c-1.72707,1.72707 0.19679,2.31469 0.90138,2.66698l-1.87432,-8.3959l1.65826,3.89176c0.57661,-0.18028 1.00872,-0.28762 1.00872,-0.28762l0.36055,1.189c0,0 -0.43211,0.1445 -0.86422,0.28762l1.22478,2.88304l4.64864,-9.04545l-2.84726,8.3959c5.83764,-3.31515 11.20738,-5.04497 18.16245,-4.93763c9.22572,0.1445 23.02715,5.62158 27.49552,19.24273c0.10734,0.28899 -0.00138,0.36193 -0.10872,0.03716zM2917.3655,646.5177c0,0 0.25184,-0.07156 0.57661,-0.18028l1.29771,1.0445c-0.05505,0 -0.4734,-0.0344 -1.54955,0.32477zM2937.14906,651.81589c-0.21606,-0.08257 -3.6413,-0.66193 -4.57708,2.84726l2.99038,2.34221zM2933.18437,634.77087c-8.03673,0 -14.59409,1.65826 -15.82024,1.98166v0.10872c1.15322,0.28762 1.98166,0.57661 2.91882,1.62111l0.21606,0.03578c0.90138,-0.25184 6.73902,-1.9101 15.1707,-1.9101c24.79276,0 41.51438,16.07208 41.51438,30.73911v1.36927c0,0.18028 0.10872,0.36055 0.1445,0.07156c0.07156,-0.28762 0.10872,-1.189 0.10872,-2.70276c0.03578,-11.53078 -13.29776,-31.31434 -44.25292,-31.31434zM2962.22943,658.12142c0.18028,-0.79266 0,-1.69404 -1.00872,-1.80138c-1.32386,-0.15551 -2.22111,3.27387 -2.34221,4.61286c-0.10872,0.75688 -0.18028,2.05459 0.82844,2.05459c0.64404,-0.00138 1.33762,-0.12523 2.52249,-4.86607zM2953.76197,664.03199c-0.36055,-0.10872 -1.29771,-0.10872 -1.72982,1.44083c-0.25184,0.93716 0.07156,1.83716 0.82844,2.01744c0.50505,0.1445 1.22478,0.07156 1.62111,-1.47799c0.36055,-1.3679 -0.25184,-1.87294 -0.71973,-1.98028zM2956.93262,666.91503c0.25184,0.07156 0.43211,0.1445 0.79266,0.25184c0,-0.25184 0.07156,-1.15322 0.10872,-1.65826c-0.1445,0.18028 -0.75688,1.11744 -0.90138,1.36927z" className="SFSymbolsPreviewWireframe"/></g>
  <g id="Regular-S"><path d="M1435.97238,673.11322c-0.26147,0.18991 -1.5234,1.16147 -0.03578,3.24359c0.63853,0.88349 1.94175,1.7601 2.99038,0.90138c0.8945,-0.67156 1.01147,-1.77799 0.03578,-3.17065c-0.75276,-1.06789 -1.96515,-1.77248 -2.99038,-0.97432zM1482.3143,683.56371c-0.04679,0.23395 -0.07569,0.22982 0.10872,0c0.28762,-0.57661 0.57661,-1.40505 0.68532,-2.73854c0.43211,-5.29681 -5.55002,-9.83811 -13.94592,-10.73811c-7.53168,-0.82844 -17.11658,1.26193 -25.98175,8.32434l-0.03578,0.21606c0.36055,0.68532 0.68532,1.47799 0.46789,2.91882l0.10872,0.03578c8.79224,-8.03673 18.05374,-10.63077 25.36936,-10.16288c8.03673,0.50505 13.76565,4.68442 13.76565,9.36884c-0.00138,1.37065 -0.36193,2.16331 -0.5422,2.7757zM1459.7922,658.62646c0.10872,0.97294 0.57661,1.40505 1.26193,1.44083c0.75688,0.03578 1.29771,-0.36055 1.44083,-0.90138c0.10872,-0.46789 0.28762,-4.10781 0.28762,-4.10781c0,0 -1.54955,0.90138 -2.05459,1.44083c-0.50367,0.50642 -1.00872,1.15459 -0.93578,2.12753zM1452.90869,637.83281c-28.14369,0 -45.29742,18.91934 -46.99146,20.901c-0.1445,0.07156 -0.18028,0.10872 0.10872,0.18028c8.32434,2.27065 21.44182,11.1716 26.99047,27.82029l0.1445,0.03578c7.60324,-9.62206 19.38723,-17.62163 32.61343,-17.62163c11.13582,0 17.91062,5.80186 17.91062,11.06289c0,2.52249 -0.90138,4.61286 -3.06331,6.37846c0,0.13211 -0.02752,0.10872 0.10872,0.10872c2.01744,-1.47799 3.78442,-3.96332 3.78442,-6.6303c0,-3.13487 -1.65826,-5.26103 -1.65826,-5.26103c0.97294,0.97294 1.47799,2.23487 1.47799,2.23487c0.79266,-5.62158 3.71148,-8.57618 3.71148,-8.57618c-0.32477,-1.33349 -0.93716,-2.45093 -0.93716,-2.45093c1.0445,1.11744 1.98166,3.78442 1.98166,5.69314c0,1.44083 -0.46789,3.13487 -1.72982,4.39681l0.03578,0.07156c1.11744,-0.68532 2.27065,-2.30643 2.27065,-5.22525c0,-2.16193 -0.64817,-3.56699 -0.64817,-3.56699c0.79266,-0.7211 1.54955,-1.26193 2.19771,-1.62111c0.10872,0.46789 0.28762,1.33349 0.32477,2.05459c0,0.1445 0.10872,0.25184 0.1445,0c0.10872,-0.79266 -0.03578,-2.23487 -0.03578,-2.27065c0.82844,-0.43211 1.33349,-0.61239 1.33349,-0.61239c-2.16469,-15.17345 -19.82209,-27.10194 -40.07492,-27.10194zM1439.25175,677.68892c-1.52202,1.23716 -3.33029,0.56147 -4.21653,-0.57661c-1.02523,-1.31835 -0.93028,-3.31515 0.57661,-4.46837c2.04359,-1.56193 3.72662,-0.06743 4.28809,0.75688c0.03853,0.05367 1.66927,2.28028 -0.64817,4.28809zM1439.53937,658.91408l1.29771,-2.45093l1.62111,9.76517l-1.72982,0.82844l-3.38809,-3.96332l1.94588,-3.6757l0.50505,0.61239zM1442.09764,675.09487l-0.03578,-0.03578c0.28211,-0.56422 -0.34404,-0.90964 -2.41377,-4.36103c-0.18028,-0.32477 -0.43211,-0.39633 -0.61239,-0.36055l-0.03578,-0.07156c1.08166,-0.79266 2.12615,-1.40505 3.49543,-2.16193l0.07156,0.03578c0.18028,0.25184 0.28762,0.39633 0.46789,0.64817l-0.03578,0.07156c-0.1445,-0.03578 -0.32477,-0.10872 -0.7211,0.03578c-0.28762,0.10872 -1.08166,0.50505 -1.69404,1.0445v0.18028c0.21606,0.32477 0.54083,0.90138 0.79266,1.33349h0.03578c1.38303,-0.86422 1.04037,-0.62615 1.58533,-1.08166h0.03578c0.07156,0.25184 0.07156,0.25184 0.25184,0.75688l-0.03578,0.03578c-0.4211,0.08395 -0.63991,0.04679 -1.58533,0.75688v0.03578c1.30184,2.34221 1.51514,2.30505 1.72982,2.19771l0.03578,0.03578c-0.32202,0.21881 -0.86285,0.57936 -1.33212,0.90413zM1449.70225,670.62651c-0.43211,0.21606 -0.82844,0.39633 -1.36927,0.68532l-0.03578,-0.03578c0.17752,-0.35642 0.15963,-0.37294 -1.62111,-4.46837l-0.03578,-0.03578c-0.02064,0 -1.22478,0.5023 -1.36927,1.00872h-0.07156l-0.1445,-0.79266l0.03578,-0.07156c1.00321,-0.62753 3.51332,-1.60184 3.8202,-1.72982l0.07156,0.03578l0.43211,0.68532l-0.03578,0.07156c-0.48578,-0.2422 -1.01147,0.10459 -1.69404,0.36055v0.03578c1.69404,4.40506 1.74358,4.21653 2.01744,4.21653zM1455.86328,668.35586c-0.57661,0.1445 -0.7211,0.18028 -1.33349,0.39633l-0.03578,-0.03578l0.07156,-0.61239c-0.1445,-0.46789 -0.43211,-1.58533 -0.50505,-1.87432l-0.03578,-0.03578c-0.46789,0.10872 -1.22478,0.36055 -1.7656,0.54083l-0.03578,0.03578c0.10872,0.36055 0.43211,1.36927 0.57661,1.9101c0.10872,0.32477 0.25184,0.39633 0.39633,0.43211v0.07156c-0.50505,0.1445 -0.97294,0.36055 -1.40505,0.54083l-0.03578,-0.03578c0.1445,-0.18028 0.1445,-0.39633 0.03578,-0.68532c-0.1445,-0.43211 -1.11744,-3.27937 -1.26193,-3.74726c-0.07156,-0.25184 -0.21606,-0.43211 -0.36055,-0.43211v-0.07156c0.43211,-0.1445 0.82844,-0.28762 1.47799,-0.46789l0.03578,0.03578l-0.03578,0.64817c0.18028,0.54083 0.32477,1.0445 0.43211,1.33349h0.03578c0.54083,-0.18028 1.29771,-0.39633 1.7656,-0.54083l0.03578,-0.03578l-0.36055,-1.29771c-0.07156,-0.25184 -0.1445,-0.46789 -0.36055,-0.54083v-0.03578c0.61239,-0.1445 1.00872,-0.25184 1.47799,-0.32477l0.03578,0.03578c-0.1445,0.18028 -0.1445,0.39633 -0.07156,0.61239c0.21606,0.86422 0.64817,2.81148 0.86422,3.63992c0.07431,0.36055 0.25459,0.46927 0.36193,0.54083zM1460.29587,667.4187l-0.03578,0.03578c-0.64817,0.07156 -1.94588,0.32477 -3.09909,0.57661l-0.03578,-0.03578l0.10872,-0.57661c-0.21606,-1.08166 -0.46789,-2.55827 -0.68532,-3.60414c-0.03578,-0.25184 -0.10872,-0.39633 -0.36055,-0.50505l0.10872,-0.07156c1.26193,-0.21606 2.77432,-0.32477 3.42387,-0.36055l0.03578,0.03578c0.07156,0.32477 0.10872,0.43211 0.21606,0.75688l-0.03578,0.03578c-0.15688,-0.15688 -0.45963,-0.44037 -2.23487,-0.10872l-0.03578,0.03578c0.03578,0.21606 0.1445,0.90138 0.21606,1.36927l0.03578,0.03578c1.3101,-0.23119 0.65505,-0.00826 1.47799,-0.32477h0.03578c0,0.21606 -0.03578,0.25184 -0.03578,0.7211h-0.03578c-0.66193,-0.14174 -0.29587,-0.12385 -1.40505,0l-0.03578,0.03578c0.03578,0.28762 0.21606,1.29771 0.28762,1.72982l0.03578,0.03578c0.15826,0.05229 1.95551,-0.08945 2.23487,-0.64817h0.03578c-0.07294,0.32752 -0.1445,0.57936 -0.21743,0.8312zM1461.77386,661.29345c-0.61239,0.32477 -1.11744,0.39633 -1.51377,0.39633c-0.0344,0.00275 -1.57019,0.15 -2.41377,-1.36927c-0.92753,-1.48487 -0.13486,-3.4679 0.75688,-4.36103c1.21101,-1.11744 3.21332,-1.38991 3.92754,-2.34221c1.10505,-1.42157 -1.7945,-3.0702 -4.07203,-0.79266l-0.36055,-0.39633l0.7211,-2.23487c3.52157,-0.21606 6.22021,-0.41835 6.88351,2.23487c0.10872,0.43211 0,1.29771 -0.03578,1.65826c0,0.36055 -0.25184,2.59405 -0.28762,3.17065c-0.07156,0.57661 -0.10872,2.52249 -0.10872,2.84726c0.03578,0.32477 0.07156,0.57661 0.21606,0.75688c0.21606,0.25184 0.79266,0.25184 0.79266,0.25184l-0.10872,0.64817c-1.62661,-0.14725 -1.41468,-0.08119 -2.81148,-0.1445c-0.44312,-0.70872 -0.30688,-0.45138 -0.57661,-1.08166c0,0.00138 -0.57661,0.5422 -1.00872,0.75826zM1466.89039,664.21226c-0.87386,-1.45597 -2.72753,-0.98532 -2.99038,0.75688c-0.36193,2.35047 1.9679,2.7234 2.84726,1.40505l0.03578,0.03578c-0.07156,0.25184 -0.25184,0.82844 -0.25184,0.86422l-0.07156,0.07156c-1.41744,0.94542 -3.92203,-0.34404 -3.53121,-2.55827c0.26697,-1.49588 1.98716,-2.60506 3.96332,-1.36927l0.03578,0.07156c0,0.14587 -0.03716,0.46927 -0.03716,0.72248zM1467.68443,652.13928v-0.90138c0.09495,0 2.70414,0.45138 3.8202,1.00872l-0.21606,2.41377c0,0 1.40505,-1.29771 2.12615,-1.47799c0.7211,-0.21606 2.05459,1.00872 2.05459,1.00872l-1.54955,1.54955c-1.66102,-0.87386 -2.69588,-0.01101 -2.84726,0.10872c-0.72798,5.32846 -1.18349,5.80323 0.61239,6.34268l-0.07156,0.64817c-2.41515,-0.59037 -2.55001,-0.61927 -5.08075,-1.00872l0.10872,-0.64817c0.99771,0 1.02936,-0.73211 1.0445,-0.93716c0,0 0.68532,-7.31562 0.68532,-7.60324c-0.00275,-0.39496 -0.6867,-0.50367 -0.6867,-0.50367zM1469.19682,667.88797c-1.11744,-0.28762 -1.94588,-1.51377 -1.47799,-2.84726c0.43211,-1.29771 1.69404,-1.69404 2.59405,-1.40505c1.26193,0.36055 1.7656,1.62111 1.47799,2.66698c-0.35918,1.22478 -1.29634,1.90872 -2.59405,1.58533zM1474.99868,669.22146c-0.32477,-0.07156 -0.97294,-0.32477 -1.189,-0.39633v-0.03578l0.21606,-0.25184c0.08119,-1.13395 0.08119,-1.00046 0.03578,-1.0445c-0.66331,-0.24908 -0.91652,-0.32477 -0.97294,-0.32477c-0.18028,0.25184 -0.39633,0.61239 -0.50505,0.75688l-0.10872,0.46789v0.03578c-0.18028,-0.03578 -0.54083,-0.18028 -0.82844,-0.21606v-0.03578l0.36055,-0.25184c0.46789,-0.64817 1.36927,-1.94588 1.9101,-2.77432v-0.28762l0.07156,-0.03578c0.28762,0.10872 0.75688,0.28762 1.0445,0.39633c0.06606,0.06606 0.02477,-0.25734 -0.1445,3.45965c-0.03303,0.24908 0.00275,0.3578 0.11009,0.53808zM1474.35051,656.86086c1.54817,-2.51423 4.23304,-2.22799 4.68442,-0.46789l1.0445,-3.60414c0.32202,-0.8601 -0.38807,-1.36239 -0.61239,-1.54955l0.25184,-0.50505c1.68166,1.42707 2.25414,1.92248 3.09909,2.81148c-3.56561,10.05554 -4.23304,11.12068 -3.38809,11.60371l-0.25184,0.61239c-0.87661,-0.46101 -1.22478,-0.60826 -2.45093,-1.189l0.28762,-0.93716c-0.03578,-0.03578 -0.54083,0.54083 -1.33349,0.50505c-2.62295,-0.1789 -3.15001,-4.36928 -1.33074,-7.27984zM1478.38676,667.77925c0,-0.78578 -0.87248,-1.08578 -1.08166,-0.7211c-0.18028,0.28762 0.1445,0.68532 0.39633,1.15322c0.21606,0.36055 0.36055,0.86422 0.1445,1.29771c-0.3633,0.87248 -1.70643,0.73074 -2.12615,-0.10872c0,-0.09633 -0.03716,0.01239 0.25184,-0.64817l0.10872,-0.03578c-0.07844,0.7789 0.83395,1.32248 1.15322,0.68532c0.1445,-0.28762 -0.07156,-0.75688 -0.28762,-1.15322c-0.21606,-0.36055 -0.50505,-0.86422 -0.25184,-1.33349c0.37431,-0.69633 1.54817,-0.61514 2.01744,0.32477v0.07156zM1481.30558,669.61779c-0.26973,-0.45 -0.12523,-0.2945 -0.61239,-0.64817h-0.03578c-0.32477,0.57661 -0.79266,1.44083 -1.189,2.23487c-0.18028,0.32477 -0.1445,0.46789 -0.10872,0.54083l-0.03578,0.03578l-0.79266,-0.61239l0.03578,-0.03578l0.28762,-0.18028c0.43211,-0.79266 0.90138,-1.65826 1.26193,-2.34221v-0.03578c-0.3633,-0.27248 -0.16789,-0.2078 -0.82844,-0.25184v-0.03578l0.43211,-0.46789h0.03578c0.50505,0.32477 1.36927,0.93716 1.69404,1.22478l0.03578,0.03578zM1485.05285,663.52694l-0.39633,-0.39633c0.10872,-0.32477 0.25184,-0.68532 0.28762,-1.0445c0.10321,-1.34037 -1.58533,-1.62936 -1.58533,-0.68532c0,0.68532 1.08166,2.66698 1.08166,3.8202c0,1.40505 -0.79266,2.16193 -1.9101,2.27065c-1.15322,0.10872 -2.77432,-1.44083 -2.77432,-1.44083l0.68532,-1.98166l0.39633,0.28762c-0.40872,2.44955 2.43304,2.80322 1.83716,0.7211c-0.14587,-0.55321 -2.58029,-4.70644 0.28762,-5.26103c1.87432,-0.32477 3.17065,2.27065 3.17065,2.27065zM1489.9547,662.12189c-1.51377,-4.18075 -8.32434,-17.55007 -26.41524,-17.83768c-7.3514,-0.1445 -12.97299,2.12615 -18.26979,5.22525l11.78399,-1.26193l-12.57665,2.84726l3.45965,2.70276l-0.54083,-2.27065c1.03211,-0.23532 5.38764,-1.16285 9.18857,-1.22478l-3.06331,11.06289c1.87294,-0.09633 2.61056,-1.23578 2.70276,-3.13487l0.68532,-0.1445l0.03578,3.6757c-3.09084,0.44174 -5.13305,0.92065 -6.81058,1.36927l1.80138,-5.94635l-8.46884,-5.04497l0.32477,1.11744l1.40505,0.68532c0.86422,2.55827 2.66698,7.78352 2.81148,8.07251c0.26835,0.58899 0.43486,0.79542 1.65826,0.61239l0.1445,0.68532c-2.21285,0.66881 -3.25598,1.04725 -5.36975,1.98166l-0.32477,-0.64817c0.60551,-0.40459 1.20138,-0.5422 0.75688,-1.7656c-3.26148,-8.60095 -2.95597,-8.00095 -3.13487,-8.17985l0.32477,-0.61239l4.61286,9.2615c-0.52844,-1.63349 0.23119,0.23257 -4.53993,-10.84683l-5.76608,12.18032l0.64817,-1.9101l-4.93763,-5.80186l3.8202,12.86427l-1.62111,1.15322c-15.39777,-13.99134 -14.56519,-13.53858 -15.64134,-13.58675c-0.75688,-0.03578 -1.87432,0.75688 -1.87432,0.75688l-0.68532,-0.82844c4.20552,-3.23809 4.35139,-3.34818 8.03673,-5.87342l0.57661,0.97294c0,0 -0.79266,0.57661 -1.08166,0.97294c-0.81193,1.27707 0.22982,1.82753 8.50462,10.41472l-2.59405,-8.10829l5.47709,-1.40505l3.53121,4.21653l0.61239,-1.69404l-0.68532,-3.38809l1.80138,-0.46789l0.07156,0.43211l0.50505,-1.44083l-12.97299,4.03625l1.54955,-0.68532l-1.87432,-5.83764l2.37799,-1.26193l4.14359,4.97341l3.92754,-1.80138c-0.19404,-1.02799 -0.33991,-1.99542 -0.64817,-2.70276l2.37799,1.9101l0.64817,-0.28762l-8.14407,-5.87342l3.17616,1.58257c2.61194,-0.83532 3.47203,-1.02799 4.43259,-1.33349l0.36055,1.51377c-1.72707,1.72707 0.19679,2.31469 0.90138,2.66698l-1.87432,-8.3959l1.65826,3.89176c0.57661,-0.18028 1.00872,-0.28762 1.00872,-0.28762l0.36055,1.189c0,0 -0.43211,0.1445 -0.86422,0.28762l1.22478,2.88304l4.64864,-9.04545l-2.84726,8.3959c5.83764,-3.31515 11.20738,-5.04497 18.16245,-4.93763c9.22572,0.1445 23.02715,5.62158 27.49552,19.24273c0.10734,0.28899 -0.00138,0.36193 -0.10872,0.03716zM1433.81045,646.5177c0,0 0.25184,-0.07156 0.57661,-0.18028l1.29771,1.0445c-0.05505,0 -0.4734,-0.0344 -1.54955,0.32477zM1453.59401,651.81589c-0.21606,-0.08257 -3.6413,-0.66193 -4.57708,2.84726l2.99038,2.34221zM1449.62932,634.77087c-8.03673,0 -14.59409,1.65826 -15.82024,1.98166v0.10872c1.15322,0.28762 1.98166,0.57661 2.91882,1.62111l0.21606,0.03578c0.90138,-0.25184 6.73902,-1.9101 15.1707,-1.9101c24.79276,0 41.51438,16.07208 41.51438,30.73911v1.36927c0,0.18028 0.10872,0.36055 0.1445,0.07156c0.07156,-0.28762 0.10872,-1.189 0.10872,-2.70276c0.03578,-11.53078 -13.29776,-31.31434 -44.25292,-31.31434zM1478.67438,658.12142c0.18028,-0.79266 0,-1.69404 -1.00872,-1.80138c-1.32386,-0.15551 -2.22111,3.27387 -2.34221,4.61286c-0.10872,0.75688 -0.18028,2.05459 0.82844,2.05459c0.64404,-0.00138 1.33762,-0.12523 2.52249,-4.86607zM1470.20692,664.03199c-0.36055,-0.10872 -1.29771,-0.10872 -1.72982,1.44083c-0.25184,0.93716 0.07156,1.83716 0.82844,2.01744c0.50505,0.1445 1.22478,0.07156 1.62111,-1.47799c0.36055,-1.3679 -0.25184,-1.87294 -0.71973,-1.98028zM1473.37757,666.91503c0.25184,0.07156 0.43211,0.1445 0.79266,0.25184c0,-0.25184 0.07156,-1.15322 0.10872,-1.65826c-0.1445,0.18028 -0.75688,1.11744 -0.90138,1.36927z" className="SFSymbolsPreviewWireframe"/></g>
  <g id="Ultralight-S"><path d="M545.83879,673.11322c-0.26147,0.18991 -1.5234,1.16147 -0.03578,3.24359c0.63853,0.88349 1.94175,1.7601 2.99038,0.90138c0.8945,-0.67156 1.01147,-1.77799 0.03578,-3.17065c-0.75276,-1.06789 -1.96515,-1.77248 -2.99038,-0.97432zM592.18071,683.56371c-0.04679,0.23395 -0.07569,0.22982 0.10872,0c0.28762,-0.57661 0.57661,-1.40505 0.68532,-2.73854c0.43211,-5.29681 -5.55002,-9.83811 -13.94592,-10.73811c-7.53168,-0.82844 -17.11658,1.26193 -25.98175,8.32434l-0.03578,0.21606c0.36055,0.68532 0.68532,1.47799 0.46789,2.91882l0.10872,0.03578c8.79224,-8.03673 18.05374,-10.63077 25.36936,-10.16288c8.03673,0.50505 13.76565,4.68442 13.76565,9.36884c-0.00138,1.37065 -0.36193,2.16331 -0.5422,2.7757zM569.65861,658.62646c0.10872,0.97294 0.57661,1.40505 1.26193,1.44083c0.75688,0.03578 1.29771,-0.36055 1.44083,-0.90138c0.10872,-0.46789 0.28762,-4.10781 0.28762,-4.10781c0,0 -1.54955,0.90138 -2.05459,1.44083c-0.50367,0.50642 -1.00872,1.15459 -0.93578,2.12753zM562.7751,637.83281c-28.14369,0 -45.29742,18.91934 -46.99146,20.901c-0.1445,0.07156 -0.18028,0.10872 0.10872,0.18028c8.32434,2.27065 21.44182,11.1716 26.99047,27.82029l0.1445,0.03578c7.60324,-9.62206 19.38723,-17.62163 32.61343,-17.62163c11.13582,0 17.91062,5.80186 17.91062,11.06289c0,2.52249 -0.90138,4.61286 -3.06331,6.37846c0,0.13211 -0.02752,0.10872 0.10872,0.10872c2.01744,-1.47799 3.78442,-3.96332 3.78442,-6.6303c0,-3.13487 -1.65826,-5.26103 -1.65826,-5.26103c0.97294,0.97294 1.47799,2.23487 1.47799,2.23487c0.79266,-5.62158 3.71148,-8.57618 3.71148,-8.57618c-0.32477,-1.33349 -0.93716,-2.45093 -0.93716,-2.45093c1.0445,1.11744 1.98166,3.78442 1.98166,5.69314c0,1.44083 -0.46789,3.13487 -1.72982,4.39681l0.03578,0.07156c1.11744,-0.68532 2.27065,-2.30643 2.27065,-5.22525c0,-2.16193 -0.64817,-3.56699 -0.64817,-3.56699c0.79266,-0.7211 1.54955,-1.26193 2.19771,-1.62111c0.10872,0.46789 0.28762,1.33349 0.32477,2.05459c0,0.1445 0.10872,0.25184 0.1445,0c0.10872,-0.79266 -0.03578,-2.23487 -0.03578,-2.27065c0.82844,-0.43211 1.33349,-0.61239 1.33349,-0.61239c-2.16469,-15.17345 -19.82209,-27.10194 -40.07492,-27.10194zM549.11816,677.68892c-1.52202,1.23716 -3.33029,0.56147 -4.21653,-0.57661c-1.02523,-1.31835 -0.93028,-3.31515 0.57661,-4.46837c2.04359,-1.56193 3.72662,-0.06743 4.28809,0.75688c0.03853,0.05367 1.66927,2.28028 -0.64817,4.28809zM549.40578,658.91408l1.29771,-2.45093l1.62111,9.76517l-1.72982,0.82844l-3.38809,-3.96332l1.94588,-3.6757l0.50505,0.61239zM551.96405,675.09487l-0.03578,-0.03578c0.28211,-0.56422 -0.34404,-0.90964 -2.41377,-4.36103c-0.18028,-0.32477 -0.43211,-0.39633 -0.61239,-0.36055l-0.03578,-0.07156c1.08166,-0.79266 2.12615,-1.40505 3.49543,-2.16193l0.07156,0.03578c0.18028,0.25184 0.28762,0.39633 0.46789,0.64817l-0.03578,0.07156c-0.1445,-0.03578 -0.32477,-0.10872 -0.7211,0.03578c-0.28762,0.10872 -1.08166,0.50505 -1.69404,1.0445v0.18028c0.21606,0.32477 0.54083,0.90138 0.79266,1.33349h0.03578c1.38303,-0.86422 1.04037,-0.62615 1.58533,-1.08166h0.03578c0.07156,0.25184 0.07156,0.25184 0.25184,0.75688l-0.03578,0.03578c-0.4211,0.08395 -0.63991,0.04679 -1.58533,0.75688v0.03578c1.30184,2.34221 1.51514,2.30505 1.72982,2.19771l0.03578,0.03578c-0.32202,0.21881 -0.86285,0.57936 -1.33212,0.90413zM559.56866,670.62651c-0.43211,0.21606 -0.82844,0.39633 -1.36927,0.68532l-0.03578,-0.03578c0.17752,-0.35642 0.15963,-0.37294 -1.62111,-4.46837l-0.03578,-0.03578c-0.02064,0 -1.22478,0.5023 -1.36927,1.00872h-0.07156l-0.1445,-0.79266l0.03578,-0.07156c1.00321,-0.62753 3.51332,-1.60184 3.8202,-1.72982l0.07156,0.03578l0.43211,0.68532l-0.03578,0.07156c-0.48578,-0.2422 -1.01147,0.10459 -1.69404,0.36055v0.03578c1.69404,4.40506 1.74358,4.21653 2.01744,4.21653zM565.72969,668.35586c-0.57661,0.1445 -0.7211,0.18028 -1.33349,0.39633l-0.03578,-0.03578l0.07156,-0.61239c-0.1445,-0.46789 -0.43211,-1.58533 -0.50505,-1.87432l-0.03578,-0.03578c-0.46789,0.10872 -1.22478,0.36055 -1.7656,0.54083l-0.03578,0.03578c0.10872,0.36055 0.43211,1.36927 0.57661,1.9101c0.10872,0.32477 0.25184,0.39633 0.39633,0.43211v0.07156c-0.50505,0.1445 -0.97294,0.36055 -1.40505,0.54083l-0.03578,-0.03578c0.1445,-0.18028 0.1445,-0.39633 0.03578,-0.68532c-0.1445,-0.43211 -1.11744,-3.27937 -1.26193,-3.74726c-0.07156,-0.25184 -0.21606,-0.43211 -0.36055,-0.43211v-0.07156c0.43211,-0.1445 0.82844,-0.28762 1.47799,-0.46789l0.03578,0.03578l-0.03578,0.64817c0.18028,0.54083 0.32477,1.0445 0.43211,1.33349h0.03578c0.54083,-0.18028 1.29771,-0.39633 1.7656,-0.54083l0.03578,-0.03578l-0.36055,-1.29771c-0.07156,-0.25184 -0.1445,-0.46789 -0.36055,-0.54083v-0.03578c0.61239,-0.1445 1.00872,-0.25184 1.47799,-0.32477l0.03578,0.03578c-0.1445,0.18028 -0.1445,0.39633 -0.07156,0.61239c0.21606,0.86422 0.64817,2.81148 0.86422,3.63992c0.07431,0.36055 0.25459,0.46927 0.36193,0.54083zM570.16228,667.4187l-0.03578,0.03578c-0.64817,0.07156 -1.94588,0.32477 -3.09909,0.57661l-0.03578,-0.03578l0.10872,-0.57661c-0.21606,-1.08166 -0.46789,-2.55827 -0.68532,-3.60414c-0.03578,-0.25184 -0.10872,-0.39633 -0.36055,-0.50505l0.10872,-0.07156c1.26193,-0.21606 2.77432,-0.32477 3.42387,-0.36055l0.03578,0.03578c0.07156,0.32477 0.10872,0.43211 0.21606,0.75688l-0.03578,0.03578c-0.15688,-0.15688 -0.45963,-0.44037 -2.23487,-0.10872l-0.03578,0.03578c0.03578,0.21606 0.1445,0.90138 0.21606,1.36927l0.03578,0.03578c1.3101,-0.23119 0.65505,-0.00826 1.47799,-0.32477h0.03578c0,0.21606 -0.03578,0.25184 -0.03578,0.7211h-0.03578c-0.66193,-0.14174 -0.29587,-0.12385 -1.40505,0l-0.03578,0.03578c0.03578,0.28762 0.21606,1.29771 0.28762,1.72982l0.03578,0.03578c0.15826,0.05229 1.95551,-0.08945 2.23487,-0.64817h0.03578c-0.07294,0.32752 -0.1445,0.57936 -0.21743,0.8312zM571.64027,661.29345c-0.61239,0.32477 -1.11744,0.39633 -1.51377,0.39633c-0.0344,0.00275 -1.57019,0.15 -2.41377,-1.36927c-0.92753,-1.48487 -0.13486,-3.4679 0.75688,-4.36103c1.21101,-1.11744 3.21332,-1.38991 3.92754,-2.34221c1.10505,-1.42157 -1.7945,-3.0702 -4.07203,-0.79266l-0.36055,-0.39633l0.7211,-2.23487c3.52157,-0.21606 6.22021,-0.41835 6.88351,2.23487c0.10872,0.43211 0,1.29771 -0.03578,1.65826c0,0.36055 -0.25184,2.59405 -0.28762,3.17065c-0.07156,0.57661 -0.10872,2.52249 -0.10872,2.84726c0.03578,0.32477 0.07156,0.57661 0.21606,0.75688c0.21606,0.25184 0.79266,0.25184 0.79266,0.25184l-0.10872,0.64817c-1.62661,-0.14725 -1.41468,-0.08119 -2.81148,-0.1445c-0.44312,-0.70872 -0.30688,-0.45138 -0.57661,-1.08166c0,0.00138 -0.57661,0.5422 -1.00872,0.75826zM576.7568,664.21226c-0.87386,-1.45597 -2.72753,-0.98532 -2.99038,0.75688c-0.36193,2.35047 1.9679,2.7234 2.84726,1.40505l0.03578,0.03578c-0.07156,0.25184 -0.25184,0.82844 -0.25184,0.86422l-0.07156,0.07156c-1.41744,0.94542 -3.92203,-0.34404 -3.53121,-2.55827c0.26697,-1.49588 1.98716,-2.60506 3.96332,-1.36927l0.03578,0.07156c0,0.14587 -0.03716,0.46927 -0.03716,0.72248zM577.55084,652.13928v-0.90138c0.09495,0 2.70414,0.45138 3.8202,1.00872l-0.21606,2.41377c0,0 1.40505,-1.29771 2.12615,-1.47799c0.7211,-0.21606 2.05459,1.00872 2.05459,1.00872l-1.54955,1.54955c-1.66102,-0.87386 -2.69588,-0.01101 -2.84726,0.10872c-0.72798,5.32846 -1.18349,5.80323 0.61239,6.34268l-0.07156,0.64817c-2.41515,-0.59037 -2.55001,-0.61927 -5.08075,-1.00872l0.10872,-0.64817c0.99771,0 1.02936,-0.73211 1.0445,-0.93716c0,0 0.68532,-7.31562 0.68532,-7.60324c-0.00275,-0.39496 -0.6867,-0.50367 -0.6867,-0.50367zM579.06323,667.88797c-1.11744,-0.28762 -1.94588,-1.51377 -1.47799,-2.84726c0.43211,-1.29771 1.69404,-1.69404 2.59405,-1.40505c1.26193,0.36055 1.7656,1.62111 1.47799,2.66698c-0.35918,1.22478 -1.29634,1.90872 -2.59405,1.58533zM584.86509,669.22146c-0.32477,-0.07156 -0.97294,-0.32477 -1.189,-0.39633v-0.03578l0.21606,-0.25184c0.08119,-1.13395 0.08119,-1.00046 0.03578,-1.0445c-0.66331,-0.24908 -0.91652,-0.32477 -0.97294,-0.32477c-0.18028,0.25184 -0.39633,0.61239 -0.50505,0.75688l-0.10872,0.46789v0.03578c-0.18028,-0.03578 -0.54083,-0.18028 -0.82844,-0.21606v-0.03578l0.36055,-0.25184c0.46789,-0.64817 1.36927,-1.94588 1.9101,-2.77432v-0.28762l0.07156,-0.03578c0.28762,0.10872 0.75688,0.28762 1.0445,0.39633c0.06606,0.06606 0.02477,-0.25734 -0.1445,3.45965c-0.03303,0.24908 0.00275,0.3578 0.11009,0.53808zM584.21692,656.86086c1.54817,-2.51423 4.23304,-2.22799 4.68442,-0.46789l1.0445,-3.60414c0.32202,-0.8601 -0.38807,-1.36239 -0.61239,-1.54955l0.25184,-0.50505c1.68166,1.42707 2.25414,1.92248 3.09909,2.81148c-3.56561,10.05554 -4.23304,11.12068 -3.38809,11.60371l-0.25184,0.61239c-0.87661,-0.46101 -1.22478,-0.60826 -2.45093,-1.189l0.28762,-0.93716c-0.03578,-0.03578 -0.54083,0.54083 -1.33349,0.50505c-2.62295,-0.1789 -3.15001,-4.36928 -1.33074,-7.27984zM588.25317,667.77925c0,-0.78578 -0.87248,-1.08578 -1.08166,-0.7211c-0.18028,0.28762 0.1445,0.68532 0.39633,1.15322c0.21606,0.36055 0.36055,0.86422 0.1445,1.29771c-0.3633,0.87248 -1.70643,0.73074 -2.12615,-0.10872c0,-0.09633 -0.03716,0.01239 0.25184,-0.64817l0.10872,-0.03578c-0.07844,0.7789 0.83395,1.32248 1.15322,0.68532c0.1445,-0.28762 -0.07156,-0.75688 -0.28762,-1.15322c-0.21606,-0.36055 -0.50505,-0.86422 -0.25184,-1.33349c0.37431,-0.69633 1.54817,-0.61514 2.01744,0.32477v0.07156zM591.17199,669.61779c-0.26973,-0.45 -0.12523,-0.2945 -0.61239,-0.64817h-0.03578c-0.32477,0.57661 -0.79266,1.44083 -1.189,2.23487c-0.18028,0.32477 -0.1445,0.46789 -0.10872,0.54083l-0.03578,0.03578l-0.79266,-0.61239l0.03578,-0.03578l0.28762,-0.18028c0.43211,-0.79266 0.90138,-1.65826 1.26193,-2.34221v-0.03578c-0.3633,-0.27248 -0.16789,-0.2078 -0.82844,-0.25184v-0.03578l0.43211,-0.46789h0.03578c0.50505,0.32477 1.36927,0.93716 1.69404,1.22478l0.03578,0.03578zM594.91925,663.52694l-0.39633,-0.39633c0.10872,-0.32477 0.25184,-0.68532 0.28762,-1.0445c0.10321,-1.34037 -1.58533,-1.62936 -1.58533,-0.68532c0,0.68532 1.08166,2.66698 1.08166,3.8202c0,1.40505 -0.79266,2.16193 -1.9101,2.27065c-1.15322,0.10872 -2.77432,-1.44083 -2.77432,-1.44083l0.68532,-1.98166l0.39633,0.28762c-0.40872,2.44955 2.43304,2.80322 1.83716,0.7211c-0.14587,-0.55321 -2.58029,-4.70644 0.28762,-5.26103c1.87432,-0.32477 3.17065,2.27065 3.17065,2.27065zM599.82111,662.12189c-1.51377,-4.18075 -8.32434,-17.55007 -26.41524,-17.83768c-7.3514,-0.1445 -12.97299,2.12615 -18.26979,5.22525l11.78399,-1.26193l-12.57665,2.84726l3.45965,2.70276l-0.54083,-2.27065c1.03211,-0.23532 5.38764,-1.16285 9.18857,-1.22478l-3.06331,11.06289c1.87294,-0.09633 2.61056,-1.23578 2.70276,-3.13487l0.68532,-0.1445l0.03578,3.6757c-3.09084,0.44174 -5.13305,0.92065 -6.81058,1.36927l1.80138,-5.94635l-8.46884,-5.04497l0.32477,1.11744l1.40505,0.68532c0.86422,2.55827 2.66698,7.78352 2.81148,8.07251c0.26835,0.58899 0.43486,0.79542 1.65826,0.61239l0.1445,0.68532c-2.21285,0.66881 -3.25598,1.04725 -5.36975,1.98166l-0.32477,-0.64817c0.60551,-0.40459 1.20138,-0.5422 0.75688,-1.7656c-3.26148,-8.60095 -2.95597,-8.00095 -3.13487,-8.17985l0.32477,-0.61239l4.61286,9.2615c-0.52844,-1.63349 0.23119,0.23257 -4.53993,-10.84683l-5.76608,12.18032l0.64817,-1.9101l-4.93763,-5.80186l3.8202,12.86427l-1.62111,1.15322c-15.39777,-13.99134 -14.56519,-13.53858 -15.64134,-13.58675c-0.75688,-0.03578 -1.87432,0.75688 -1.87432,0.75688l-0.68532,-0.82844c4.20552,-3.23809 4.35139,-3.34818 8.03673,-5.87342l0.57661,0.97294c0,0 -0.79266,0.57661 -1.08166,0.97294c-0.81193,1.27707 0.22982,1.82753 8.50462,10.41472l-2.59405,-8.10829l5.47709,-1.40505l3.53121,4.21653l0.61239,-1.69404l-0.68532,-3.38809l1.80138,-0.46789l0.07156,0.43211l0.50505,-1.44083l-12.97299,4.03625l1.54955,-0.68532l-1.87432,-5.83764l2.37799,-1.26193l4.14359,4.97341l3.92754,-1.80138c-0.19404,-1.02799 -0.33991,-1.99542 -0.64817,-2.70276l2.37799,1.9101l0.64817,-0.28762l-8.14407,-5.87342l3.17616,1.58257c2.61194,-0.83532 3.47203,-1.02799 4.43259,-1.33349l0.36055,1.51377c-1.72707,1.72707 0.19679,2.31469 0.90138,2.66698l-1.87432,-8.3959l1.65826,3.89176c0.57661,-0.18028 1.00872,-0.28762 1.00872,-0.28762l0.36055,1.189c0,0 -0.43211,0.1445 -0.86422,0.28762l1.22478,2.88304l4.64864,-9.04545l-2.84726,8.3959c5.83764,-3.31515 11.20738,-5.04497 18.16245,-4.93763c9.22572,0.1445 23.02715,5.62158 27.49552,19.24273c0.10734,0.28899 -0.00138,0.36193 -0.10872,0.03716zM543.67686,646.5177c0,0 0.25184,-0.07156 0.57661,-0.18028l1.29771,1.0445c-0.05505,0 -0.4734,-0.0344 -1.54955,0.32477zM563.46042,651.81589c-0.21606,-0.08257 -3.6413,-0.66193 -4.57708,2.84726l2.99038,2.34221zM559.49573,634.77087c-8.03673,0 -14.59409,1.65826 -15.82024,1.98166v0.10872c1.15322,0.28762 1.98166,0.57661 2.91882,1.62111l0.21606,0.03578c0.90138,-0.25184 6.73902,-1.9101 15.1707,-1.9101c24.79276,0 41.51438,16.07208 41.51438,30.73911v1.36927c0,0.18028 0.10872,0.36055 0.1445,0.07156c0.07156,-0.28762 0.10872,-1.189 0.10872,-2.70276c0.03578,-11.53078 -13.29776,-31.31434 -44.25292,-31.31434zM588.54079,658.12142c0.18028,-0.79266 0,-1.69404 -1.00872,-1.80138c-1.32386,-0.15551 -2.22111,3.27387 -2.34221,4.61286c-0.10872,0.75688 -0.18028,2.05459 0.82844,2.05459c0.64404,-0.00138 1.33762,-0.12523 2.52249,-4.86607zM580.07333,664.03199c-0.36055,-0.10872 -1.29771,-0.10872 -1.72982,1.44083c-0.25184,0.93716 0.07156,1.83716 0.82844,2.01744c0.50505,0.1445 1.22478,0.07156 1.62111,-1.47799c0.36055,-1.3679 -0.25184,-1.87294 -0.71973,-1.98028zM583.24398,666.91503c0.25184,0.07156 0.43211,0.1445 0.79266,0.25184c0,-0.25184 0.07156,-1.15322 0.10872,-1.65826c-0.1445,0.18028 -0.75688,1.11744 -0.90138,1.36927z" className="SFSymbolsPreviewWireframe"/></g>
 </g>
</svg>