<?xml version="1.0" encoding="UTF-8"?><!--Generator: https://SymbolKit.app--><!DOCTYPE svg PUBLIC "-//W3C//DTD SVG 1.1//EN" "http://www.w3.org/Graphics/SVG/1.1/DTD/svg11.dtd"><svg xmlns="http://www.w3.org/2000/svg" xmlns:xlink="http://www.w3.org/1999/xlink" version="1.1" viewBox="0 0 3300 2200">
 <!--glyph: "100092", point size: 100.0, font version: "20.0d10e1", template writer version: "138.0.0"-->
 <style>.SFSymbolsPreviewWireframe {fill:none;opacity:1.0;stroke:black;stroke-width:0.5}
</style>
 <g id="Notes">
  <rect height="2200" id="artboard" style="fill:white;opacity:1" width="3300" x="0" y="0"/>
  <line style="fill:none;stroke:black;opacity:1;stroke-width:0.5;" x1="263" x2="3036" y1="292" y2="292"/>
  <text style="stroke:none;fill:black;font-family:sans-serif;font-size:13;font-weight:bold;" transform="matrix(1 0 0 1 263 322)">Weight/Scale Variations</text>
  <text style="stroke:none;fill:black;font-family:sans-serif;font-size:13;text-anchor:middle;" transform="matrix(1 0 0 1 559.711 322)">Ultralight</text>
  <text style="stroke:none;fill:black;font-family:sans-serif;font-size:13;text-anchor:middle;" transform="matrix(1 0 0 1 856.422 322)">Thin</text>
  <text style="stroke:none;fill:black;font-family:sans-serif;font-size:13;text-anchor:middle;" transform="matrix(1 0 0 1 1153.13 322)">Light</text>
  <text style="stroke:none;fill:black;font-family:sans-serif;font-size:13;text-anchor:middle;" transform="matrix(1 0 0 1 1449.84 322)">Regular</text>
  <text style="stroke:none;fill:black;font-family:sans-serif;font-size:13;text-anchor:middle;" transform="matrix(1 0 0 1 1746.56 322)">Medium</text>
  <text style="stroke:none;fill:black;font-family:sans-serif;font-size:13;text-anchor:middle;" transform="matrix(1 0 0 1 2043.27 322)">Semibold</text>
  <text style="stroke:none;fill:black;font-family:sans-serif;font-size:13;text-anchor:middle;" transform="matrix(1 0 0 1 2339.98 322)">Bold</text>
  <text style="stroke:none;fill:black;font-family:sans-serif;font-size:13;text-anchor:middle;" transform="matrix(1 0 0 1 2636.69 322)">Heavy</text>
  <text style="stroke:none;fill:black;font-family:sans-serif;font-size:13;text-anchor:middle;" transform="matrix(1 0 0 1 2933.4 322)">Black</text>
  <line style="fill:none;stroke:black;opacity:1;stroke-width:0.5;" x1="263" x2="3036" y1="1903" y2="1903"/>
  <g transform="matrix(0.2 0 0 0.2 263 1933)">
   <path d="m46.2402 4.15039c21.7773 0 39.4531-17.627 39.4531-39.4043s-17.6758-39.4043-39.4531-39.4043c-21.7285 0-39.4043 17.627-39.4043 39.4043s17.6758 39.4043 39.4043 39.4043Zm0-7.42188c-17.6758 0-31.9336-14.3066-31.9336-31.9824s14.2578-31.9824 31.9336-31.9824 31.9824 14.3066 31.9824 31.9824-14.3066 31.9824-31.9824 31.9824Zm-17.9688-31.9824c0 2.14844 1.51367 3.61328 3.75977 3.61328h10.498v10.5957c0 2.19727 1.46484 3.71094 3.61328 3.71094 2.24609 0 3.71094-1.51367 3.71094-3.71094v-10.5957h10.5957c2.19727 0 3.71094-1.46484 3.71094-3.61328 0-2.19727-1.51367-3.71094-3.71094-3.71094h-10.5957v-10.5469c0-2.24609-1.46484-3.75977-3.71094-3.75977-2.14844 0-3.61328 1.51367-3.61328 3.75977v10.5469h-10.498c-2.24609 0-3.75977 1.51367-3.75977 3.71094Z"/>
  </g>
  <g transform="matrix(0.2 0 0 0.2 281.506 1933)">
   <path d="m58.5449 14.5508c27.4902 0 49.8047-22.3145 49.8047-49.8047s-22.3145-49.8047-49.8047-49.8047-49.8047 22.3145-49.8047 49.8047 22.3145 49.8047 49.8047 49.8047Zm0-8.30078c-22.9492 0-41.5039-18.5547-41.5039-41.5039s18.5547-41.5039 41.5039-41.5039 41.5039 18.5547 41.5039 41.5039-18.5547 41.5039-41.5039 41.5039Zm-22.6562-41.5039c0 2.39258 1.66016 4.00391 4.15039 4.00391h14.3555v14.4043c0 2.44141 1.66016 4.15039 4.05273 4.15039 2.44141 0 4.15039-1.66016 4.15039-4.15039v-14.4043h14.4043c2.44141 0 4.15039-1.61133 4.15039-4.00391 0-2.44141-1.70898-4.15039-4.15039-4.15039h-14.4043v-14.3555c0-2.49023-1.70898-4.19922-4.15039-4.19922-2.39258 0-4.05273 1.70898-4.05273 4.19922v14.3555h-14.3555c-2.49023 0-4.15039 1.70898-4.15039 4.15039Z"/>
  </g>
  <g transform="matrix(0.2 0 0 0.2 304.924 1933)">
   <path d="m74.8535 28.3203c35.1074 0 63.623-28.4668 63.623-63.5742s-28.5156-63.623-63.623-63.623-63.5742 28.5156-63.5742 63.623 28.4668 63.5742 63.5742 63.5742Zm0-9.08203c-30.127 0-54.4922-24.3652-54.4922-54.4922s24.3652-54.4922 54.4922-54.4922 54.4922 24.3652 54.4922 54.4922-24.3652 54.4922-54.4922 54.4922Zm-28.8574-54.4922c0 2.58789 1.85547 4.39453 4.58984 4.39453h19.7266v19.7754c0 2.68555 1.85547 4.58984 4.44336 4.58984 2.68555 0 4.54102-1.85547 4.54102-4.58984v-19.7754h19.7754c2.68555 0 4.58984-1.80664 4.58984-4.39453 0-2.73438-1.85547-4.58984-4.58984-4.58984h-19.7754v-19.7266c0-2.73438-1.85547-4.63867-4.54102-4.63867-2.58789 0-4.44336 1.9043-4.44336 4.63867v19.7266h-19.7266c-2.73438 0-4.58984 1.85547-4.58984 4.58984Z"/>
  </g>
  <text style="stroke:none;fill:black;font-family:sans-serif;font-size:13;font-weight:bold;" transform="matrix(1 0 0 1 263 1953)">Design Variations</text>
  <text style="stroke:none;fill:black;font-family:sans-serif;font-size:13;" transform="matrix(1 0 0 1 263 1971)">Symbols are supported in up to nine weights and three scales.</text>
  <text style="stroke:none;fill:black;font-family:sans-serif;font-size:13;" transform="matrix(1 0 0 1 263 1989)">For optimal layout with text and other symbols, vertically align</text>
  <text style="stroke:none;fill:black;font-family:sans-serif;font-size:13;" transform="matrix(1 0 0 1 263 2007)">symbols with the adjacent text.</text>
  <line style="fill:none;stroke:#00AEEF;stroke-width:0.5;opacity:1.0;" x1="776" x2="776" y1="1919" y2="1933"/>
  <g transform="matrix(0.2 0 0 0.2 776 1933)">
   <path d="m16.5527 0.78125c2.58789 0 3.85742-0.976562 4.78516-3.71094l6.29883-17.2363h28.8086l6.29883 17.2363c0.927734 2.73438 2.19727 3.71094 4.73633 3.71094 2.58789 0 4.24805-1.5625 4.24805-4.00391 0-0.830078-0.146484-1.61133-0.537109-2.63672l-22.9004-60.9863c-1.12305-2.97852-3.125-4.49219-6.25-4.49219-3.02734 0-5.07812 1.46484-6.15234 4.44336l-22.9004 61.084c-0.390625 1.02539-0.537109 1.80664-0.537109 2.63672 0 2.44141 1.5625 3.95508 4.10156 3.95508Zm13.4766-28.3691 11.8652-32.8613h0.244141l11.8652 32.8613Z"/>
  </g>
  <line style="fill:none;stroke:#00AEEF;stroke-width:0.5;opacity:1.0;" x1="792.836" x2="792.836" y1="1919" y2="1933"/>
  <text style="stroke:none;fill:black;font-family:sans-serif;font-size:13;font-weight:bold;" transform="matrix(1 0 0 1 776 1953)">Margins</text>
  <text style="stroke:none;fill:black;font-family:sans-serif;font-size:13;" transform="matrix(1 0 0 1 776 1971)">Leading and trailing margins on the left and right side of each symbol</text>
  <text style="stroke:none;fill:black;font-family:sans-serif;font-size:13;" transform="matrix(1 0 0 1 776 1989)">can be adjusted by modifying the x-location of the margin guidelines.</text>
  <text style="stroke:none;fill:black;font-family:sans-serif;font-size:13;" transform="matrix(1 0 0 1 776 2007)">Modifications are automatically applied proportionally to all</text>
  <text style="stroke:none;fill:black;font-family:sans-serif;font-size:13;" transform="matrix(1 0 0 1 776 2025)">scales and weights.</text>
  <g transform="matrix(0.2 0 0 0.2 1289 1933)">
   <path d="m14.209 9.32617 8.49609 8.54492c4.29688 4.3457 9.22852 4.05273 13.8672-1.07422l53.4668-58.9355-4.83398-4.88281-53.0762 58.3984c-1.75781 2.00195-3.41797 2.49023-5.76172 0.146484l-5.85938-5.81055c-2.34375-2.29492-1.80664-4.00391 0.195312-5.81055l57.373-54.0039-4.88281-4.83398-57.959 54.4434c-4.93164 4.58984-5.32227 9.47266-1.02539 13.8184Zm32.0801-90.9668c-2.09961 2.05078-2.24609 4.93164-1.07422 6.88477 1.17188 1.80664 3.4668 2.97852 6.68945 2.14844 7.32422-1.70898 14.9414-2.00195 22.0703 2.68555l-2.92969 7.27539c-1.70898 4.15039-0.830078 7.08008 1.85547 9.81445l11.4746 11.5723c2.44141 2.44141 4.49219 2.53906 7.32422 2.05078l5.32227-0.976562 3.32031 3.36914-0.195312 2.7832c-0.195312 2.49023 0.439453 4.39453 2.88086 6.78711l3.80859 3.71094c2.39258 2.39258 5.46875 2.53906 7.8125 0.195312l14.5508-14.5996c2.34375-2.34375 2.24609-5.32227-0.146484-7.71484l-3.85742-3.80859c-2.39258-2.39258-4.24805-3.17383-6.64062-2.97852l-2.88086 0.244141-3.22266-3.17383 1.2207-5.61523c0.634766-2.83203-0.146484-5.0293-3.07617-7.95898l-10.9863-10.9375c-16.6992-16.6016-38.8672-16.2109-53.3203-1.75781Zm7.4707 1.85547c12.1582-8.88672 28.6133-7.37305 39.7461 3.75977l12.1582 12.0605c1.17188 1.17188 1.36719 2.09961 1.02539 3.80859l-1.61133 7.42188 7.51953 7.42188 4.93164-0.292969c1.26953-0.0488281 1.66016 0.0488281 2.63672 1.02539l2.88086 2.88086-12.207 12.207-2.88086-2.88086c-0.976562-0.976562-1.12305-1.36719-1.07422-2.68555l0.341797-4.88281-7.4707-7.42188-7.61719 1.26953c-1.61133 0.341797-2.34375 0.195312-3.56445-0.976562l-10.0098-10.0098c-1.26953-1.17188-1.41602-2.00195-0.634766-3.85742l4.39453-10.4492c-7.8125-7.27539-17.9688-10.4004-28.125-7.42188-0.78125 0.195312-1.07422-0.439453-0.439453-0.976562Z"/>
  </g>
  <text style="stroke:none;fill:black;font-family:sans-serif;font-size:13;font-weight:bold;" transform="matrix(1 0 0 1 1289 1953)">Exporting</text>
  <text style="stroke:none;fill:black;font-family:sans-serif;font-size:13;" transform="matrix(1 0 0 1 1289 1971)">Symbols should be outlined when exporting to ensure the</text>
  <text style="stroke:none;fill:black;font-family:sans-serif;font-size:13;" transform="matrix(1 0 0 1 1289 1989)">design is preserved when submitting to Xcode.</text>
  <text id="template-version" style="stroke:none;fill:black;font-family:sans-serif;font-size:13;text-anchor:end;" transform="matrix(1 0 0 1 3036 1933)">Template v.6.0</text>
  <text style="stroke:none;fill:black;font-family:sans-serif;font-size:13;text-anchor:end;" transform="matrix(1 0 0 1 3036 1951)">Requires Xcode 16 or greater</text>
  <text id="descriptive-name" style="stroke:none;fill:black;font-family:sans-serif;font-size:13;text-anchor:end;" transform="matrix(1 0 0 1 3036 1969)">Generated from square</text>
  <text style="stroke:none;fill:black;font-family:sans-serif;font-size:13;text-anchor:end;" transform="matrix(1 0 0 1 3036 1987)">Typeset at 100.0 points</text>
  <text style="stroke:none;fill:black;font-family:sans-serif;font-size:13;" transform="matrix(1 0 0 1 263 726)">Small</text>
  <text style="stroke:none;fill:black;font-family:sans-serif;font-size:13;" transform="matrix(1 0 0 1 263 1156)">Medium</text>
  <text style="stroke:none;fill:black;font-family:sans-serif;font-size:13;" transform="matrix(1 0 0 1 263 1586)">Large</text>
 </g>
 <g id="Guides">
  <g id="H-reference" style="fill:#27AAE1;stroke:none;" transform="matrix(1 0 0 1 339 696)">
   <path d="M0.993654 0L3.63775 0L29.3281-67.1323L30.0303-67.1323L30.0303-70.459L28.1226-70.459ZM11.6885-24.4799L46.9815-24.4799L46.2315-26.7285L12.4385-26.7285ZM55.1196 0L57.7637 0L30.6382-70.459L29.4326-70.459L29.4326-67.1323Z"/>
  </g>
  <line id="Baseline-S" style="fill:none;stroke:#27AAE1;opacity:1;stroke-width:0.5;" x1="263" x2="3036" y1="696" y2="696"/>
  <line id="Capline-S" style="fill:none;stroke:#27AAE1;opacity:1;stroke-width:0.5;" x1="263" x2="3036" y1="625.541" y2="625.541"/>
  <g id="H-reference" style="fill:#27AAE1;stroke:none;" transform="matrix(1 0 0 1 339 1126)">
   <path d="M0.993654 0L3.63775 0L29.3281-67.1323L30.0303-67.1323L30.0303-70.459L28.1226-70.459ZM11.6885-24.4799L46.9815-24.4799L46.2315-26.7285L12.4385-26.7285ZM55.1196 0L57.7637 0L30.6382-70.459L29.4326-70.459L29.4326-67.1323Z"/>
  </g>
  <line id="Baseline-M" style="fill:none;stroke:#27AAE1;opacity:1;stroke-width:0.5;" x1="263" x2="3036" y1="1126" y2="1126"/>
  <line id="Capline-M" style="fill:none;stroke:#27AAE1;opacity:1;stroke-width:0.5;" x1="263" x2="3036" y1="1055.54" y2="1055.54"/>
  <g id="H-reference" style="fill:#27AAE1;stroke:none;" transform="matrix(1 0 0 1 339 1556)">
   <path d="M0.993654 0L3.63775 0L29.3281-67.1323L30.0303-67.1323L30.0303-70.459L28.1226-70.459ZM11.6885-24.4799L46.9815-24.4799L46.2315-26.7285L12.4385-26.7285ZM55.1196 0L57.7637 0L30.6382-70.459L29.4326-70.459L29.4326-67.1323Z"/>
  </g>
  <line id="Baseline-L" style="fill:none;stroke:#27AAE1;opacity:1;stroke-width:0.5;" x1="263" x2="3036" y1="1556" y2="1556"/>
  <line id="Capline-L" style="fill:none;stroke:#27AAE1;opacity:1;stroke-width:0.5;" x1="263" x2="3036" y1="1485.54" y2="1485.54"/>
  <line id="right-margin-Black-S" style="fill:none;stroke:#00AEEF;stroke-width:0.5;opacity:1.0;" x1="2981.3" x2="2981.3" y1="600.785" y2="720.121"/>
  <line id="left-margin-Black-S" style="fill:none;stroke:#00AEEF;stroke-width:0.5;opacity:1.0;" x1="2885.5" x2="2885.5" y1="600.785" y2="720.121"/>
  <line id="right-margin-Regular-S" style="fill:none;stroke:#00AEEF;stroke-width:0.5;opacity:1.0;" x1="1495.18" x2="1495.18" y1="600.785" y2="720.121"/>
  <line id="left-margin-Regular-S" style="fill:none;stroke:#00AEEF;stroke-width:0.5;opacity:1.0;" x1="1404.51" x2="1404.51" y1="600.785" y2="720.121"/>
  <line id="right-margin-Ultralight-S" style="fill:none;stroke:#00AEEF;stroke-width:0.5;opacity:1.0;" x1="603.073" x2="603.073" y1="600.785" y2="720.121"/>
  <line id="left-margin-Ultralight-S" style="fill:none;stroke:#00AEEF;stroke-width:0.5;opacity:1.0;" x1="516.35" x2="516.35" y1="600.785" y2="720.121"/>
 </g>
 <g id="Symbols">
  <g id="Black-S"><path d="M2930.7166,631.56307c-4.618,0.40807 -9.38572,2.07267 -13.32849,4.65323c-1.86423,1.21835 -3.05616,2.19597 -4.75892,3.89873c-5.78057,5.78644 -8.80737,13.45179 -8.53141,21.61329c0.20844,6.22094 2.16955,11.76665 5.9303,16.79272c1.16551,1.55597 3.73433,4.18057 5.18754,5.30497c4.23341,3.27047 8.76921,5.2169 14.0918,6.04773c1.89946,0.29651 6.32076,0.29651 8.22021,0c6.5703,-1.02753 12.04849,-3.77836 16.62245,-8.35233c4.57396,-4.5769 7.33067,-10.06096 8.34939,-16.62245c0.26129,-1.6734 0.29945,-6.19452 0.06459,-7.8092c-0.79854,-5.51929 -2.75964,-10.16958 -6.10938,-14.50281c-0.98936,-1.27707 -3.54644,-3.83414 -4.83525,-4.83231c-6.06828,-4.69433 -13.36959,-6.85801 -20.90283,-6.19158M2930.4788,641.08971l-0.00587,3.55231l-4.06313,2.93579c-2.23707,1.61469 -4.81763,3.47891 -5.73654,4.1424l-1.66753,1.20661l-3.21763,-1.25065c-1.76735,-0.68404 -3.25579,-1.2712 -3.30864,-1.30349c-0.20844,-0.12624 1.47377,-2.8624 2.6334,-4.28332c3.44955,-4.22754 8.25544,-7.18682 13.43124,-8.26719c0.71046,-0.14679 1.43854,-0.27303 1.61469,-0.27596l0.32294,-0.00881l-0.00294,3.55231M2938.07369,637.78107c3.43781,0.66349 7.33067,2.48368 10.02279,4.68552c1.74973,1.42973 3.62864,3.4701 4.79415,5.19929c0.77211,1.15083 1.57946,2.63928 1.46496,2.7068c-0.05284,0.03229 -1.54129,0.61945 -3.30864,1.30349l-3.21763,1.25065l-1.67047,-1.20661c-0.9189,-0.66349 -3.49946,-2.52772 -5.7336,-4.1424l-4.06313,-2.93579l-0.00587,-3.55231c-0.00294,-3.44368 0.00294,-3.55231 0.22606,-3.55231c0.12624,0 0.7956,0.10862 1.49138,0.24367M2938.69608,653.56389l5.26094,3.81653l-0.55486,1.73212c-0.30532,0.95413 -1.18019,3.70497 -1.94056,6.10938l-1.38863,4.37433h-6.65544h-6.65544l-1.38863,-4.37433c-0.76037,-2.40441 -1.63524,-5.15525 -1.94056,-6.10645l-0.55486,-1.73505l5.24039,-3.80772c2.88295,-2.09615 5.258,-3.81359 5.27855,-3.81653c0.02055,-0.00294 2.40441,1.71157 5.2991,3.80772M2913.827,657.21307c1.75854,0.6811 3.21176,1.25065 3.22643,1.26533c0.06752,0.06459 4.26864,13.41656 4.26864,13.55748c0,0.08514 -1.00991,1.31817 -2.24588,2.73909l-2.24588,2.58643l-0.29358,-0.27303c-0.1644,-0.14679 -0.69578,-0.74569 -1.18312,-1.32698c-3.83708,-4.57983 -5.80993,-10.74206 -5.3314,-16.64594c0.15266,-1.88184 0.35523,-3.1413 0.50202,-3.1413c0.05578,0 1.54129,0.5578 3.30276,1.2389M2956.54275,656.70812c0.46973,2.57762 0.42569,5.94791 -0.11156,8.71343c-0.51964,2.67744 -1.84661,5.91562 -3.36735,8.22609c-0.68404,1.03633 -2.19597,2.92111 -2.7479,3.42607l-0.28184,0.25835l-2.05505,-2.46606c-1.13028,-1.35634 -2.14606,-2.58643 -2.25762,-2.73322c-0.1967,-0.26422 -0.14385,-0.45211 1.91414,-6.94902c1.16551,-3.67267 2.12845,-6.69067 2.14606,-6.70535c0.06459,-0.06752 6.37067,-2.49249 6.49397,-2.49836c0.07339,-0.00294 0.19376,0.32587 0.26716,0.72808M2943.12913,678.1893c1.24184,1.49725 2.22533,2.76845 2.18716,2.8301c-0.03817,0.06165 -0.76331,0.44918 -1.60881,0.86019c-6.60259,3.20001 -13.98317,3.19708 -20.59457,-0.00881c-0.85432,-0.41395 -1.55597,-0.80734 -1.55597,-0.87487c0,-0.10569 1.83487,-2.26937 3.96332,-4.67672l0.7545,-0.85138l7.30131,0.00294l7.29838,0.00294l2.25469,2.71561" className="SFSymbolsPreviewWireframe"/></g>
  <g id="Regular-S"><path d="M1447.16155,631.56307c-4.618,0.40807 -9.38572,2.07267 -13.32849,4.65323c-1.86423,1.21835 -3.05616,2.19597 -4.75892,3.89873c-5.78057,5.78644 -8.80737,13.45179 -8.53141,21.61329c0.20844,6.22094 2.16955,11.76665 5.9303,16.79272c1.16551,1.55597 3.73433,4.18057 5.18754,5.30497c4.23341,3.27047 8.76921,5.2169 14.0918,6.04773c1.89946,0.29651 6.32076,0.29651 8.22021,0c6.5703,-1.02753 12.04849,-3.77836 16.62245,-8.35233c4.57396,-4.5769 7.33067,-10.06096 8.34939,-16.62245c0.26129,-1.6734 0.29945,-6.19452 0.06459,-7.8092c-0.79854,-5.51929 -2.75964,-10.16958 -6.10938,-14.50281c-0.98936,-1.27707 -3.54644,-3.83414 -4.83525,-4.83231c-6.06828,-4.69433 -13.36959,-6.85801 -20.90283,-6.19158M1446.92375,641.08971l-0.00587,3.55231l-4.06313,2.93579c-2.23707,1.61469 -4.81763,3.47891 -5.73654,4.1424l-1.66753,1.20661l-3.21763,-1.25065c-1.76735,-0.68404 -3.25579,-1.2712 -3.30864,-1.30349c-0.20844,-0.12624 1.47377,-2.8624 2.6334,-4.28332c3.44955,-4.22754 8.25544,-7.18682 13.43124,-8.26719c0.71046,-0.14679 1.43854,-0.27303 1.61469,-0.27596l0.32294,-0.00881l-0.00294,3.55231M1454.51864,637.78107c3.43781,0.66349 7.33067,2.48368 10.02279,4.68552c1.74973,1.42973 3.62864,3.4701 4.79415,5.19929c0.77211,1.15083 1.57946,2.63928 1.46496,2.7068c-0.05284,0.03229 -1.54129,0.61945 -3.30864,1.30349l-3.21763,1.25065l-1.67047,-1.20661c-0.9189,-0.66349 -3.49946,-2.52772 -5.7336,-4.1424l-4.06313,-2.93579l-0.00587,-3.55231c-0.00294,-3.44368 0.00294,-3.55231 0.22606,-3.55231c0.12624,0 0.7956,0.10862 1.49138,0.24367M1455.14103,653.56389l5.26094,3.81653l-0.55486,1.73212c-0.30532,0.95413 -1.18019,3.70497 -1.94056,6.10938l-1.38863,4.37433h-6.65544h-6.65544l-1.38863,-4.37433c-0.76037,-2.40441 -1.63524,-5.15525 -1.94056,-6.10645l-0.55486,-1.73505l5.24039,-3.80772c2.88295,-2.09615 5.258,-3.81359 5.27855,-3.81653c0.02055,-0.00294 2.40441,1.71157 5.2991,3.80772M1430.27195,657.21307c1.75854,0.6811 3.21176,1.25065 3.22643,1.26533c0.06752,0.06459 4.26864,13.41656 4.26864,13.55748c0,0.08514 -1.00991,1.31817 -2.24588,2.73909l-2.24588,2.58643l-0.29358,-0.27303c-0.1644,-0.14679 -0.69578,-0.74569 -1.18312,-1.32698c-3.83708,-4.57983 -5.80993,-10.74206 -5.3314,-16.64594c0.15266,-1.88184 0.35523,-3.1413 0.50202,-3.1413c0.05578,0 1.54129,0.5578 3.30276,1.2389M1472.98771,656.70812c0.46973,2.57762 0.42569,5.94791 -0.11156,8.71343c-0.51964,2.67744 -1.84661,5.91562 -3.36735,8.22609c-0.68404,1.03633 -2.19597,2.92111 -2.7479,3.42607l-0.28184,0.25835l-2.05505,-2.46606c-1.13028,-1.35634 -2.14606,-2.58643 -2.25762,-2.73322c-0.1967,-0.26422 -0.14385,-0.45211 1.91414,-6.94902c1.16551,-3.67267 2.12845,-6.69067 2.14606,-6.70535c0.06459,-0.06752 6.37067,-2.49249 6.49397,-2.49836c0.07339,-0.00294 0.19376,0.32587 0.26716,0.72808M1459.57408,678.1893c1.24184,1.49725 2.22533,2.76845 2.18716,2.8301c-0.03817,0.06165 -0.76331,0.44918 -1.60881,0.86019c-6.60259,3.20001 -13.98317,3.19708 -20.59457,-0.00881c-0.85432,-0.41395 -1.55597,-0.80734 -1.55597,-0.87487c0,-0.10569 1.83487,-2.26937 3.96332,-4.67672l0.7545,-0.85138l7.30131,0.00294l7.29838,0.00294l2.25469,2.71561" className="SFSymbolsPreviewWireframe"/></g>
  <g id="Ultralight-S"><path d="M557.02796,631.56307c-4.618,0.40807 -9.38572,2.07267 -13.32849,4.65323c-1.86423,1.21835 -3.05616,2.19597 -4.75892,3.89873c-5.78057,5.78644 -8.80737,13.45179 -8.53141,21.61329c0.20844,6.22094 2.16955,11.76665 5.9303,16.79272c1.16551,1.55597 3.73433,4.18057 5.18754,5.30497c4.23341,3.27047 8.76921,5.2169 14.0918,6.04773c1.89946,0.29651 6.32076,0.29651 8.22021,0c6.5703,-1.02753 12.04849,-3.77836 16.62245,-8.35233c4.57396,-4.5769 7.33067,-10.06096 8.34939,-16.62245c0.26129,-1.6734 0.29945,-6.19452 0.06459,-7.8092c-0.79854,-5.51929 -2.75964,-10.16958 -6.10938,-14.50281c-0.98936,-1.27707 -3.54644,-3.83414 -4.83525,-4.83231c-6.06828,-4.69433 -13.36959,-6.85801 -20.90283,-6.19158M556.79016,641.08971l-0.00587,3.55231l-4.06313,2.93579c-2.23707,1.61469 -4.81763,3.47891 -5.73654,4.1424l-1.66753,1.20661l-3.21763,-1.25065c-1.76735,-0.68404 -3.25579,-1.2712 -3.30864,-1.30349c-0.20844,-0.12624 1.47377,-2.8624 2.6334,-4.28332c3.44955,-4.22754 8.25544,-7.18682 13.43124,-8.26719c0.71046,-0.14679 1.43854,-0.27303 1.61469,-0.27596l0.32294,-0.00881l-0.00294,3.55231M564.38505,637.78107c3.43781,0.66349 7.33067,2.48368 10.02279,4.68552c1.74973,1.42973 3.62864,3.4701 4.79415,5.19929c0.77211,1.15083 1.57946,2.63928 1.46496,2.7068c-0.05284,0.03229 -1.54129,0.61945 -3.30864,1.30349l-3.21763,1.25065l-1.67047,-1.20661c-0.9189,-0.66349 -3.49946,-2.52772 -5.7336,-4.1424l-4.06313,-2.93579l-0.00587,-3.55231c-0.00294,-3.44368 0.00294,-3.55231 0.22606,-3.55231c0.12624,0 0.7956,0.10862 1.49138,0.24367M565.00744,653.56389l5.26094,3.81653l-0.55486,1.73212c-0.30532,0.95413 -1.18019,3.70497 -1.94056,6.10938l-1.38863,4.37433h-6.65544h-6.65544l-1.38863,-4.37433c-0.76037,-2.40441 -1.63524,-5.15525 -1.94056,-6.10645l-0.55486,-1.73505l5.24039,-3.80772c2.88295,-2.09615 5.258,-3.81359 5.27855,-3.81653c0.02055,-0.00294 2.40441,1.71157 5.2991,3.80772M540.13836,657.21307c1.75854,0.6811 3.21176,1.25065 3.22643,1.26533c0.06752,0.06459 4.26864,13.41656 4.26864,13.55748c0,0.08514 -1.00991,1.31817 -2.24588,2.73909l-2.24588,2.58643l-0.29358,-0.27303c-0.1644,-0.14679 -0.69578,-0.74569 -1.18312,-1.32698c-3.83708,-4.57983 -5.80993,-10.74206 -5.3314,-16.64594c0.15266,-1.88184 0.35523,-3.1413 0.50202,-3.1413c0.05578,0 1.54129,0.5578 3.30276,1.2389M582.85412,656.70812c0.46973,2.57762 0.42569,5.94791 -0.11156,8.71343c-0.51964,2.67744 -1.84661,5.91562 -3.36735,8.22609c-0.68404,1.03633 -2.19597,2.92111 -2.7479,3.42607l-0.28184,0.25835l-2.05505,-2.46606c-1.13028,-1.35634 -2.14606,-2.58643 -2.25762,-2.73322c-0.1967,-0.26422 -0.14385,-0.45211 1.91414,-6.94902c1.16551,-3.67267 2.12845,-6.69067 2.14606,-6.70535c0.06459,-0.06752 6.37067,-2.49249 6.49397,-2.49836c0.07339,-0.00294 0.19376,0.32587 0.26716,0.72808M569.44049,678.1893c1.24184,1.49725 2.22533,2.76845 2.18716,2.8301c-0.03817,0.06165 -0.76331,0.44918 -1.60881,0.86019c-6.60259,3.20001 -13.98317,3.19708 -20.59457,-0.00881c-0.85432,-0.41395 -1.55597,-0.80734 -1.55597,-0.87487c0,-0.10569 1.83487,-2.26937 3.96332,-4.67672l0.7545,-0.85138l7.30131,0.00294l7.29838,0.00294l2.25469,2.71561" className="SFSymbolsPreviewWireframe"/></g>
 </g>
</svg>