<?xml version="1.0" encoding="UTF-8"?><!--Generator: https://SymbolKit.app--><!DOCTYPE svg PUBLIC "-//W3C//DTD SVG 1.1//EN" "http://www.w3.org/Graphics/SVG/1.1/DTD/svg11.dtd"><svg xmlns="http://www.w3.org/2000/svg" xmlns:xlink="http://www.w3.org/1999/xlink" version="1.1" viewBox="0 0 3300 2200">
 <!--glyph: "100092", point size: 100.0, font version: "20.0d10e1", template writer version: "138.0.0"-->
 <style>.SFSymbolsPreviewWireframe {fill:none;opacity:1.0;stroke:black;stroke-width:0.5}
</style>
 <g id="Notes">
  <rect height="2200" id="artboard" style="fill:white;opacity:1" width="3300" x="0" y="0"/>
  <line style="fill:none;stroke:black;opacity:1;stroke-width:0.5;" x1="263" x2="3036" y1="292" y2="292"/>
  <text style="stroke:none;fill:black;font-family:sans-serif;font-size:13;font-weight:bold;" transform="matrix(1 0 0 1 263 322)">Weight/Scale Variations</text>
  <text style="stroke:none;fill:black;font-family:sans-serif;font-size:13;text-anchor:middle;" transform="matrix(1 0 0 1 559.711 322)">Ultralight</text>
  <text style="stroke:none;fill:black;font-family:sans-serif;font-size:13;text-anchor:middle;" transform="matrix(1 0 0 1 856.422 322)">Thin</text>
  <text style="stroke:none;fill:black;font-family:sans-serif;font-size:13;text-anchor:middle;" transform="matrix(1 0 0 1 1153.13 322)">Light</text>
  <text style="stroke:none;fill:black;font-family:sans-serif;font-size:13;text-anchor:middle;" transform="matrix(1 0 0 1 1449.84 322)">Regular</text>
  <text style="stroke:none;fill:black;font-family:sans-serif;font-size:13;text-anchor:middle;" transform="matrix(1 0 0 1 1746.56 322)">Medium</text>
  <text style="stroke:none;fill:black;font-family:sans-serif;font-size:13;text-anchor:middle;" transform="matrix(1 0 0 1 2043.27 322)">Semibold</text>
  <text style="stroke:none;fill:black;font-family:sans-serif;font-size:13;text-anchor:middle;" transform="matrix(1 0 0 1 2339.98 322)">Bold</text>
  <text style="stroke:none;fill:black;font-family:sans-serif;font-size:13;text-anchor:middle;" transform="matrix(1 0 0 1 2636.69 322)">Heavy</text>
  <text style="stroke:none;fill:black;font-family:sans-serif;font-size:13;text-anchor:middle;" transform="matrix(1 0 0 1 2933.4 322)">Black</text>
  <line style="fill:none;stroke:black;opacity:1;stroke-width:0.5;" x1="263" x2="3036" y1="1903" y2="1903"/>
  <g transform="matrix(0.2 0 0 0.2 263 1933)">
   <path d="m46.2402 4.15039c21.7773 0 39.4531-17.627 39.4531-39.4043s-17.6758-39.4043-39.4531-39.4043c-21.7285 0-39.4043 17.627-39.4043 39.4043s17.6758 39.4043 39.4043 39.4043Zm0-7.42188c-17.6758 0-31.9336-14.3066-31.9336-31.9824s14.2578-31.9824 31.9336-31.9824 31.9824 14.3066 31.9824 31.9824-14.3066 31.9824-31.9824 31.9824Zm-17.9688-31.9824c0 2.14844 1.51367 3.61328 3.75977 3.61328h10.498v10.5957c0 2.19727 1.46484 3.71094 3.61328 3.71094 2.24609 0 3.71094-1.51367 3.71094-3.71094v-10.5957h10.5957c2.19727 0 3.71094-1.46484 3.71094-3.61328 0-2.19727-1.51367-3.71094-3.71094-3.71094h-10.5957v-10.5469c0-2.24609-1.46484-3.75977-3.71094-3.75977-2.14844 0-3.61328 1.51367-3.61328 3.75977v10.5469h-10.498c-2.24609 0-3.75977 1.51367-3.75977 3.71094Z"/>
  </g>
  <g transform="matrix(0.2 0 0 0.2 281.506 1933)">
   <path d="m58.5449 14.5508c27.4902 0 49.8047-22.3145 49.8047-49.8047s-22.3145-49.8047-49.8047-49.8047-49.8047 22.3145-49.8047 49.8047 22.3145 49.8047 49.8047 49.8047Zm0-8.30078c-22.9492 0-41.5039-18.5547-41.5039-41.5039s18.5547-41.5039 41.5039-41.5039 41.5039 18.5547 41.5039 41.5039-18.5547 41.5039-41.5039 41.5039Zm-22.6562-41.5039c0 2.39258 1.66016 4.00391 4.15039 4.00391h14.3555v14.4043c0 2.44141 1.66016 4.15039 4.05273 4.15039 2.44141 0 4.15039-1.66016 4.15039-4.15039v-14.4043h14.4043c2.44141 0 4.15039-1.61133 4.15039-4.00391 0-2.44141-1.70898-4.15039-4.15039-4.15039h-14.4043v-14.3555c0-2.49023-1.70898-4.19922-4.15039-4.19922-2.39258 0-4.05273 1.70898-4.05273 4.19922v14.3555h-14.3555c-2.49023 0-4.15039 1.70898-4.15039 4.15039Z"/>
  </g>
  <g transform="matrix(0.2 0 0 0.2 304.924 1933)">
   <path d="m74.8535 28.3203c35.1074 0 63.623-28.4668 63.623-63.5742s-28.5156-63.623-63.623-63.623-63.5742 28.5156-63.5742 63.623 28.4668 63.5742 63.5742 63.5742Zm0-9.08203c-30.127 0-54.4922-24.3652-54.4922-54.4922s24.3652-54.4922 54.4922-54.4922 54.4922 24.3652 54.4922 54.4922-24.3652 54.4922-54.4922 54.4922Zm-28.8574-54.4922c0 2.58789 1.85547 4.39453 4.58984 4.39453h19.7266v19.7754c0 2.68555 1.85547 4.58984 4.44336 4.58984 2.68555 0 4.54102-1.85547 4.54102-4.58984v-19.7754h19.7754c2.68555 0 4.58984-1.80664 4.58984-4.39453 0-2.73438-1.85547-4.58984-4.58984-4.58984h-19.7754v-19.7266c0-2.73438-1.85547-4.63867-4.54102-4.63867-2.58789 0-4.44336 1.9043-4.44336 4.63867v19.7266h-19.7266c-2.73438 0-4.58984 1.85547-4.58984 4.58984Z"/>
  </g>
  <text style="stroke:none;fill:black;font-family:sans-serif;font-size:13;font-weight:bold;" transform="matrix(1 0 0 1 263 1953)">Design Variations</text>
  <text style="stroke:none;fill:black;font-family:sans-serif;font-size:13;" transform="matrix(1 0 0 1 263 1971)">Symbols are supported in up to nine weights and three scales.</text>
  <text style="stroke:none;fill:black;font-family:sans-serif;font-size:13;" transform="matrix(1 0 0 1 263 1989)">For optimal layout with text and other symbols, vertically align</text>
  <text style="stroke:none;fill:black;font-family:sans-serif;font-size:13;" transform="matrix(1 0 0 1 263 2007)">symbols with the adjacent text.</text>
  <line style="fill:none;stroke:#00AEEF;stroke-width:0.5;opacity:1.0;" x1="776" x2="776" y1="1919" y2="1933"/>
  <g transform="matrix(0.2 0 0 0.2 776 1933)">
   <path d="m16.5527 0.78125c2.58789 0 3.85742-0.976562 4.78516-3.71094l6.29883-17.2363h28.8086l6.29883 17.2363c0.927734 2.73438 2.19727 3.71094 4.73633 3.71094 2.58789 0 4.24805-1.5625 4.24805-4.00391 0-0.830078-0.146484-1.61133-0.537109-2.63672l-22.9004-60.9863c-1.12305-2.97852-3.125-4.49219-6.25-4.49219-3.02734 0-5.07812 1.46484-6.15234 4.44336l-22.9004 61.084c-0.390625 1.02539-0.537109 1.80664-0.537109 2.63672 0 2.44141 1.5625 3.95508 4.10156 3.95508Zm13.4766-28.3691 11.8652-32.8613h0.244141l11.8652 32.8613Z"/>
  </g>
  <line style="fill:none;stroke:#00AEEF;stroke-width:0.5;opacity:1.0;" x1="792.836" x2="792.836" y1="1919" y2="1933"/>
  <text style="stroke:none;fill:black;font-family:sans-serif;font-size:13;font-weight:bold;" transform="matrix(1 0 0 1 776 1953)">Margins</text>
  <text style="stroke:none;fill:black;font-family:sans-serif;font-size:13;" transform="matrix(1 0 0 1 776 1971)">Leading and trailing margins on the left and right side of each symbol</text>
  <text style="stroke:none;fill:black;font-family:sans-serif;font-size:13;" transform="matrix(1 0 0 1 776 1989)">can be adjusted by modifying the x-location of the margin guidelines.</text>
  <text style="stroke:none;fill:black;font-family:sans-serif;font-size:13;" transform="matrix(1 0 0 1 776 2007)">Modifications are automatically applied proportionally to all</text>
  <text style="stroke:none;fill:black;font-family:sans-serif;font-size:13;" transform="matrix(1 0 0 1 776 2025)">scales and weights.</text>
  <g transform="matrix(0.2 0 0 0.2 1289 1933)">
   <path d="m14.209 9.32617 8.49609 8.54492c4.29688 4.3457 9.22852 4.05273 13.8672-1.07422l53.4668-58.9355-4.83398-4.88281-53.0762 58.3984c-1.75781 2.00195-3.41797 2.49023-5.76172 0.146484l-5.85938-5.81055c-2.34375-2.29492-1.80664-4.00391 0.195312-5.81055l57.373-54.0039-4.88281-4.83398-57.959 54.4434c-4.93164 4.58984-5.32227 9.47266-1.02539 13.8184Zm32.0801-90.9668c-2.09961 2.05078-2.24609 4.93164-1.07422 6.88477 1.17188 1.80664 3.4668 2.97852 6.68945 2.14844 7.32422-1.70898 14.9414-2.00195 22.0703 2.68555l-2.92969 7.27539c-1.70898 4.15039-0.830078 7.08008 1.85547 9.81445l11.4746 11.5723c2.44141 2.44141 4.49219 2.53906 7.32422 2.05078l5.32227-0.976562 3.32031 3.36914-0.195312 2.7832c-0.195312 2.49023 0.439453 4.39453 2.88086 6.78711l3.80859 3.71094c2.39258 2.39258 5.46875 2.53906 7.8125 0.195312l14.5508-14.5996c2.34375-2.34375 2.24609-5.32227-0.146484-7.71484l-3.85742-3.80859c-2.39258-2.39258-4.24805-3.17383-6.64062-2.97852l-2.88086 0.244141-3.22266-3.17383 1.2207-5.61523c0.634766-2.83203-0.146484-5.0293-3.07617-7.95898l-10.9863-10.9375c-16.6992-16.6016-38.8672-16.2109-53.3203-1.75781Zm7.4707 1.85547c12.1582-8.88672 28.6133-7.37305 39.7461 3.75977l12.1582 12.0605c1.17188 1.17188 1.36719 2.09961 1.02539 3.80859l-1.61133 7.42188 7.51953 7.42188 4.93164-0.292969c1.26953-0.0488281 1.66016 0.0488281 2.63672 1.02539l2.88086 2.88086-12.207 12.207-2.88086-2.88086c-0.976562-0.976562-1.12305-1.36719-1.07422-2.68555l0.341797-4.88281-7.4707-7.42188-7.61719 1.26953c-1.61133 0.341797-2.34375 0.195312-3.56445-0.976562l-10.0098-10.0098c-1.26953-1.17188-1.41602-2.00195-0.634766-3.85742l4.39453-10.4492c-7.8125-7.27539-17.9688-10.4004-28.125-7.42188-0.78125 0.195312-1.07422-0.439453-0.439453-0.976562Z"/>
  </g>
  <text style="stroke:none;fill:black;font-family:sans-serif;font-size:13;font-weight:bold;" transform="matrix(1 0 0 1 1289 1953)">Exporting</text>
  <text style="stroke:none;fill:black;font-family:sans-serif;font-size:13;" transform="matrix(1 0 0 1 1289 1971)">Symbols should be outlined when exporting to ensure the</text>
  <text style="stroke:none;fill:black;font-family:sans-serif;font-size:13;" transform="matrix(1 0 0 1 1289 1989)">design is preserved when submitting to Xcode.</text>
  <text id="template-version" style="stroke:none;fill:black;font-family:sans-serif;font-size:13;text-anchor:end;" transform="matrix(1 0 0 1 3036 1933)">Template v.6.0</text>
  <text style="stroke:none;fill:black;font-family:sans-serif;font-size:13;text-anchor:end;" transform="matrix(1 0 0 1 3036 1951)">Requires Xcode 16 or greater</text>
  <text id="descriptive-name" style="stroke:none;fill:black;font-family:sans-serif;font-size:13;text-anchor:end;" transform="matrix(1 0 0 1 3036 1969)">Generated from square</text>
  <text style="stroke:none;fill:black;font-family:sans-serif;font-size:13;text-anchor:end;" transform="matrix(1 0 0 1 3036 1987)">Typeset at 100.0 points</text>
  <text style="stroke:none;fill:black;font-family:sans-serif;font-size:13;" transform="matrix(1 0 0 1 263 726)">Small</text>
  <text style="stroke:none;fill:black;font-family:sans-serif;font-size:13;" transform="matrix(1 0 0 1 263 1156)">Medium</text>
  <text style="stroke:none;fill:black;font-family:sans-serif;font-size:13;" transform="matrix(1 0 0 1 263 1586)">Large</text>
 </g>
 <g id="Guides">
  <g id="H-reference" style="fill:#27AAE1;stroke:none;" transform="matrix(1 0 0 1 339 696)">
   <path d="M0.993654 0L3.63775 0L29.3281-67.1323L30.0303-67.1323L30.0303-70.459L28.1226-70.459ZM11.6885-24.4799L46.9815-24.4799L46.2315-26.7285L12.4385-26.7285ZM55.1196 0L57.7637 0L30.6382-70.459L29.4326-70.459L29.4326-67.1323Z"/>
  </g>
  <line id="Baseline-S" style="fill:none;stroke:#27AAE1;opacity:1;stroke-width:0.5;" x1="263" x2="3036" y1="696" y2="696"/>
  <line id="Capline-S" style="fill:none;stroke:#27AAE1;opacity:1;stroke-width:0.5;" x1="263" x2="3036" y1="625.541" y2="625.541"/>
  <g id="H-reference" style="fill:#27AAE1;stroke:none;" transform="matrix(1 0 0 1 339 1126)">
   <path d="M0.993654 0L3.63775 0L29.3281-67.1323L30.0303-67.1323L30.0303-70.459L28.1226-70.459ZM11.6885-24.4799L46.9815-24.4799L46.2315-26.7285L12.4385-26.7285ZM55.1196 0L57.7637 0L30.6382-70.459L29.4326-70.459L29.4326-67.1323Z"/>
  </g>
  <line id="Baseline-M" style="fill:none;stroke:#27AAE1;opacity:1;stroke-width:0.5;" x1="263" x2="3036" y1="1126" y2="1126"/>
  <line id="Capline-M" style="fill:none;stroke:#27AAE1;opacity:1;stroke-width:0.5;" x1="263" x2="3036" y1="1055.54" y2="1055.54"/>
  <g id="H-reference" style="fill:#27AAE1;stroke:none;" transform="matrix(1 0 0 1 339 1556)">
   <path d="M0.993654 0L3.63775 0L29.3281-67.1323L30.0303-67.1323L30.0303-70.459L28.1226-70.459ZM11.6885-24.4799L46.9815-24.4799L46.2315-26.7285L12.4385-26.7285ZM55.1196 0L57.7637 0L30.6382-70.459L29.4326-70.459L29.4326-67.1323Z"/>
  </g>
  <line id="Baseline-L" style="fill:none;stroke:#27AAE1;opacity:1;stroke-width:0.5;" x1="263" x2="3036" y1="1556" y2="1556"/>
  <line id="Capline-L" style="fill:none;stroke:#27AAE1;opacity:1;stroke-width:0.5;" x1="263" x2="3036" y1="1485.54" y2="1485.54"/>
  <line id="right-margin-Black-S" style="fill:none;stroke:#00AEEF;stroke-width:0.5;opacity:1.0;" x1="2981.3" x2="2981.3" y1="600.785" y2="720.121"/>
  <line id="left-margin-Black-S" style="fill:none;stroke:#00AEEF;stroke-width:0.5;opacity:1.0;" x1="2885.5" x2="2885.5" y1="600.785" y2="720.121"/>
  <line id="right-margin-Regular-S" style="fill:none;stroke:#00AEEF;stroke-width:0.5;opacity:1.0;" x1="1495.18" x2="1495.18" y1="600.785" y2="720.121"/>
  <line id="left-margin-Regular-S" style="fill:none;stroke:#00AEEF;stroke-width:0.5;opacity:1.0;" x1="1404.51" x2="1404.51" y1="600.785" y2="720.121"/>
  <line id="right-margin-Ultralight-S" style="fill:none;stroke:#00AEEF;stroke-width:0.5;opacity:1.0;" x1="603.073" x2="603.073" y1="600.785" y2="720.121"/>
  <line id="left-margin-Ultralight-S" style="fill:none;stroke:#00AEEF;stroke-width:0.5;opacity:1.0;" x1="516.35" x2="516.35" y1="600.785" y2="720.121"/>
 </g>
 <g id="Symbols">
  <g id="Black-S"><path d="M2917.89686,631.56581c-4.1835,0.66642 -7.63599,2.61579 -10.21362,5.76296c-2.3046,2.81542 -3.47304,5.96846 -3.60515,9.74683c-0.06752,1.98753 0.09688,3.32332 0.61945,5.00846l0.31119,1.00404l-0.36404,1.80845c-0.1967,0.99523 -0.42275,2.41322 -0.49908,3.15304c-0.16734,1.62349 -0.07339,5.35488 0.17321,6.87562c1.04808,6.45874 3.63745,11.72261 7.99709,16.2496c4.40075,4.57103 10.01692,7.4892 16.55493,8.60187c1.82313,0.30826 5.56626,0.42569 7.32186,0.22899c1.23597,-0.13798 4.06607,-0.65175 4.52405,-0.82202c0.14679,-0.05284 0.62239,0.03523 1.25065,0.23193c3.12368,0.97762 6.6437,0.91303 9.92591,-0.18789c5.25507,-1.76147 9.27123,-6.32663 10.52481,-11.97216c0.52551,-2.36038 0.39633,-5.53397 -0.32,-7.83856l-0.32,-1.02753l0.25248,-1.14496c0.56661,-2.57469 0.65175,-3.3879 0.66055,-6.31195c0.00881,-3.79011 -0.35523,-6.1358 -1.47964,-9.51196c-1.46496,-4.40369 -3.76075,-8.08517 -7.13691,-11.45252c-5.04369,-5.02901 -11.34977,-7.90021 -18.5953,-8.46976c-2.72148,-0.21138 -6.96663,0.14385 -9.11857,0.76918c-0.47266,0.13505 -0.60771,0.1233 -1.40918,-0.13505c-0.49028,-0.1556 -1.25945,-0.35817 -1.71157,-0.45211c-1.1978,-0.24367 -4.13066,-0.30826 -5.34314,-0.1145M2921.77211,637.39335c0.41982,0.06752 1.36808,0.33174 2.1079,0.58716c0.73982,0.25541 1.49432,0.46385 1.67927,0.46385c0.18495,0 0.97175,-0.16147 1.74973,-0.35817c4.618,-1.16551 9.1215,-1.04221 13.41363,0.36697c6.72003,2.20771 12.19821,7.46572 14.67015,14.08299c1.0334,2.76845 1.41799,5.0114 1.42092,8.27893c0,2.64515 -0.1556,3.86057 -0.80734,6.29727c-0.1644,0.60477 -0.29651,1.26239 -0.29651,1.45909c0,0.1967 0.20844,0.96294 0.46385,1.70276c0.59303,1.70863 0.76037,2.78313 0.66936,4.28919c-0.27303,4.50937 -3.32919,8.19966 -7.78278,9.38866c-0.98055,0.26129 -2.99157,0.35229 -3.98387,0.18202c-0.44918,-0.07927 -1.43267,-0.34936 -2.1901,-0.60477c-0.7545,-0.25248 -1.52074,-0.46092 -1.70276,-0.46092c-0.17908,0 -0.83083,0.13798 -1.44441,0.30239c-2.77139,0.75156 -6.11232,1.04808 -8.66939,0.76918c-4.31561,-0.47266 -8.38168,-2.05212 -11.7461,-4.56516c-1.10973,-0.83083 -3.08845,-2.73029 -4.06313,-3.9046c-3.25286,-3.91635 -5.1024,-8.82499 -5.31085,-14.0918c-0.09688,-2.44258 0.15853,-4.60919 0.85432,-7.22205c0.1556,-0.58129 0.28184,-1.21835 0.28184,-1.41505c0,-0.1967 -0.20844,-0.96294 -0.46385,-1.70276c-0.58716,-1.69689 -0.75743,-2.78019 -0.6723,-4.28038c0.14973,-2.61579 1.25945,-5.0202 3.14717,-6.81691c1.59707,-1.52074 3.48478,-2.43964 5.73947,-2.79194c0.61358,-0.09688 2.20184,-0.07339 2.93579,0.04404M2930.74388,643.26494c-6.67892,0.64881 -10.86243,3.60222 -11.84005,8.35526c-1.15083,5.60149 3.31157,10.43087 10.89472,11.7872c0.52551,0.09688 2.04037,0.22312 3.36442,0.28477c3.33506,0.15853 4.938,0.52844 6.81104,1.56771c0.94239,0.52551 1.94643,1.56478 2.11377,2.19304c0.26129,0.96588 -0.0411,2.01395 -0.82202,2.8624c-0.58716,0.63413 -1.18312,0.99523 -2.3134,1.40037c-1.62349,0.58422 -2.67744,0.71927 -5.4958,0.7134c-2.41028,-0.00587 -2.65983,-0.02642 -3.74313,-0.31707c-2.93286,-0.78679 -4.57103,-2.29285 -5.24039,-4.80883c-0.18202,-0.68991 -0.8778,-1.50606 -1.56478,-1.84074c-0.5989,-0.28771 -1.76147,-0.32881 -2.35157,-0.0822c-0.97175,0.40514 -1.83487,1.62349 -1.83781,2.58937c-0.00294,1.12441 0.95413,3.56992 1.93175,4.94094c2.69506,3.77543 7.407,5.63378 13.74537,5.42534c2.9035,-0.09688 5.04369,-0.48734 7.03709,-1.28881c3.55231,-1.42679 5.78938,-3.9046 6.45874,-7.15452c1.35634,-6.60847 -5.20516,-12.04849 -14.55272,-12.07197c-3.23524,-0.00587 -6.23856,-0.99817 -7.82975,-2.58643c-0.75743,-0.7545 -0.98643,-1.34753 -0.86312,-2.21946c0.28184,-1.95817 2.20771,-3.27634 5.52222,-3.7813c1.57065,-0.2378 5.14057,-0.20257 6.40002,0.06459c3.21763,0.6811 5.04662,2.24294 5.75709,4.91745c0.1967,0.75156 0.99817,1.64111 1.72037,1.91707c1.82019,0.69578 3.76368,-0.4756 3.99268,-2.40441c0.12624,-1.08037 -0.80441,-3.59928 -1.89946,-5.13176c-1.77322,-2.48661 -4.65323,-4.25103 -8.11159,-4.97323c-2.17542,-0.45505 -4.90277,-0.58716 -7.2837,-0.35817" className="SFSymbolsPreviewWireframe"/></g>
  <g id="Regular-S"><path d="M1434.34181,631.56581c-4.1835,0.66642 -7.63599,2.61579 -10.21362,5.76296c-2.3046,2.81542 -3.47304,5.96846 -3.60515,9.74683c-0.06752,1.98753 0.09688,3.32332 0.61945,5.00846l0.31119,1.00404l-0.36404,1.80845c-0.1967,0.99523 -0.42275,2.41322 -0.49908,3.15304c-0.16734,1.62349 -0.07339,5.35488 0.17321,6.87562c1.04808,6.45874 3.63745,11.72261 7.99709,16.2496c4.40075,4.57103 10.01692,7.4892 16.55493,8.60187c1.82313,0.30826 5.56626,0.42569 7.32186,0.22899c1.23597,-0.13798 4.06607,-0.65175 4.52405,-0.82202c0.14679,-0.05284 0.62239,0.03523 1.25065,0.23193c3.12368,0.97762 6.6437,0.91303 9.92591,-0.18789c5.25507,-1.76147 9.27123,-6.32663 10.52481,-11.97216c0.52551,-2.36038 0.39633,-5.53397 -0.32,-7.83856l-0.32,-1.02753l0.25248,-1.14496c0.56661,-2.57469 0.65175,-3.3879 0.66055,-6.31195c0.00881,-3.79011 -0.35523,-6.1358 -1.47964,-9.51196c-1.46496,-4.40369 -3.76075,-8.08517 -7.13691,-11.45252c-5.04369,-5.02901 -11.34977,-7.90021 -18.5953,-8.46976c-2.72148,-0.21138 -6.96663,0.14385 -9.11857,0.76918c-0.47266,0.13505 -0.60771,0.1233 -1.40918,-0.13505c-0.49028,-0.1556 -1.25945,-0.35817 -1.71157,-0.45211c-1.1978,-0.24367 -4.13066,-0.30826 -5.34314,-0.1145M1438.21706,637.39335c0.41982,0.06752 1.36808,0.33174 2.1079,0.58716c0.73982,0.25541 1.49432,0.46385 1.67927,0.46385c0.18495,0 0.97175,-0.16147 1.74973,-0.35817c4.618,-1.16551 9.1215,-1.04221 13.41363,0.36697c6.72003,2.20771 12.19821,7.46572 14.67015,14.08299c1.0334,2.76845 1.41799,5.0114 1.42092,8.27893c0,2.64515 -0.1556,3.86057 -0.80734,6.29727c-0.1644,0.60477 -0.29651,1.26239 -0.29651,1.45909c0,0.1967 0.20844,0.96294 0.46385,1.70276c0.59303,1.70863 0.76037,2.78313 0.66936,4.28919c-0.27303,4.50937 -3.32919,8.19966 -7.78278,9.38866c-0.98055,0.26129 -2.99157,0.35229 -3.98387,0.18202c-0.44918,-0.07927 -1.43267,-0.34936 -2.1901,-0.60477c-0.7545,-0.25248 -1.52074,-0.46092 -1.70276,-0.46092c-0.17908,0 -0.83083,0.13798 -1.44441,0.30239c-2.77139,0.75156 -6.11232,1.04808 -8.66939,0.76918c-4.31561,-0.47266 -8.38168,-2.05212 -11.7461,-4.56516c-1.10973,-0.83083 -3.08845,-2.73029 -4.06313,-3.9046c-3.25286,-3.91635 -5.1024,-8.82499 -5.31085,-14.0918c-0.09688,-2.44258 0.15853,-4.60919 0.85432,-7.22205c0.1556,-0.58129 0.28184,-1.21835 0.28184,-1.41505c0,-0.1967 -0.20844,-0.96294 -0.46385,-1.70276c-0.58716,-1.69689 -0.75743,-2.78019 -0.6723,-4.28038c0.14973,-2.61579 1.25945,-5.0202 3.14717,-6.81691c1.59707,-1.52074 3.48478,-2.43964 5.73947,-2.79194c0.61358,-0.09688 2.20184,-0.07339 2.93579,0.04404M1447.18883,643.26494c-6.67892,0.64881 -10.86243,3.60222 -11.84005,8.35526c-1.15083,5.60149 3.31157,10.43087 10.89472,11.7872c0.52551,0.09688 2.04037,0.22312 3.36442,0.28477c3.33506,0.15853 4.938,0.52844 6.81104,1.56771c0.94239,0.52551 1.94643,1.56478 2.11377,2.19304c0.26129,0.96588 -0.0411,2.01395 -0.82202,2.8624c-0.58716,0.63413 -1.18312,0.99523 -2.3134,1.40037c-1.62349,0.58422 -2.67744,0.71927 -5.4958,0.7134c-2.41028,-0.00587 -2.65983,-0.02642 -3.74313,-0.31707c-2.93286,-0.78679 -4.57103,-2.29285 -5.24039,-4.80883c-0.18202,-0.68991 -0.8778,-1.50606 -1.56478,-1.84074c-0.5989,-0.28771 -1.76147,-0.32881 -2.35157,-0.0822c-0.97175,0.40514 -1.83487,1.62349 -1.83781,2.58937c-0.00294,1.12441 0.95413,3.56992 1.93175,4.94094c2.69506,3.77543 7.407,5.63378 13.74537,5.42534c2.9035,-0.09688 5.04369,-0.48734 7.03709,-1.28881c3.55231,-1.42679 5.78938,-3.9046 6.45874,-7.15452c1.35634,-6.60847 -5.20516,-12.04849 -14.55272,-12.07197c-3.23524,-0.00587 -6.23856,-0.99817 -7.82975,-2.58643c-0.75743,-0.7545 -0.98643,-1.34753 -0.86312,-2.21946c0.28184,-1.95817 2.20771,-3.27634 5.52222,-3.7813c1.57065,-0.2378 5.14057,-0.20257 6.40002,0.06459c3.21763,0.6811 5.04662,2.24294 5.75709,4.91745c0.1967,0.75156 0.99817,1.64111 1.72037,1.91707c1.82019,0.69578 3.76368,-0.4756 3.99268,-2.40441c0.12624,-1.08037 -0.80441,-3.59928 -1.89946,-5.13176c-1.77322,-2.48661 -4.65323,-4.25103 -8.11159,-4.97323c-2.17542,-0.45505 -4.90277,-0.58716 -7.2837,-0.35817" className="SFSymbolsPreviewWireframe"/></g>
  <g id="Ultralight-S"><path d="M544.20822,631.56581c-4.1835,0.66642 -7.63599,2.61579 -10.21362,5.76296c-2.3046,2.81542 -3.47304,5.96846 -3.60515,9.74683c-0.06752,1.98753 0.09688,3.32332 0.61945,5.00846l0.31119,1.00404l-0.36404,1.80845c-0.1967,0.99523 -0.42275,2.41322 -0.49908,3.15304c-0.16734,1.62349 -0.07339,5.35488 0.17321,6.87562c1.04808,6.45874 3.63745,11.72261 7.99709,16.2496c4.40075,4.57103 10.01692,7.4892 16.55493,8.60187c1.82313,0.30826 5.56626,0.42569 7.32186,0.22899c1.23597,-0.13798 4.06607,-0.65175 4.52405,-0.82202c0.14679,-0.05284 0.62239,0.03523 1.25065,0.23193c3.12368,0.97762 6.6437,0.91303 9.92591,-0.18789c5.25507,-1.76147 9.27123,-6.32663 10.52481,-11.97216c0.52551,-2.36038 0.39633,-5.53397 -0.32,-7.83856l-0.32,-1.02753l0.25248,-1.14496c0.56661,-2.57469 0.65175,-3.3879 0.66055,-6.31195c0.00881,-3.79011 -0.35523,-6.1358 -1.47964,-9.51196c-1.46496,-4.40369 -3.76075,-8.08517 -7.13691,-11.45252c-5.04369,-5.02901 -11.34977,-7.90021 -18.5953,-8.46976c-2.72148,-0.21138 -6.96663,0.14385 -9.11857,0.76918c-0.47266,0.13505 -0.60771,0.1233 -1.40918,-0.13505c-0.49028,-0.1556 -1.25945,-0.35817 -1.71157,-0.45211c-1.1978,-0.24367 -4.13066,-0.30826 -5.34314,-0.1145M548.08347,637.39335c0.41982,0.06752 1.36808,0.33174 2.1079,0.58716c0.73982,0.25541 1.49432,0.46385 1.67927,0.46385c0.18495,0 0.97175,-0.16147 1.74973,-0.35817c4.618,-1.16551 9.1215,-1.04221 13.41363,0.36697c6.72003,2.20771 12.19821,7.46572 14.67015,14.08299c1.0334,2.76845 1.41799,5.0114 1.42092,8.27893c0,2.64515 -0.1556,3.86057 -0.80734,6.29727c-0.1644,0.60477 -0.29651,1.26239 -0.29651,1.45909c0,0.1967 0.20844,0.96294 0.46385,1.70276c0.59303,1.70863 0.76037,2.78313 0.66936,4.28919c-0.27303,4.50937 -3.32919,8.19966 -7.78278,9.38866c-0.98055,0.26129 -2.99157,0.35229 -3.98387,0.18202c-0.44918,-0.07927 -1.43267,-0.34936 -2.1901,-0.60477c-0.7545,-0.25248 -1.52074,-0.46092 -1.70276,-0.46092c-0.17908,0 -0.83083,0.13798 -1.44441,0.30239c-2.77139,0.75156 -6.11232,1.04808 -8.66939,0.76918c-4.31561,-0.47266 -8.38168,-2.05212 -11.7461,-4.56516c-1.10973,-0.83083 -3.08845,-2.73029 -4.06313,-3.9046c-3.25286,-3.91635 -5.1024,-8.82499 -5.31085,-14.0918c-0.09688,-2.44258 0.15853,-4.60919 0.85432,-7.22205c0.1556,-0.58129 0.28184,-1.21835 0.28184,-1.41505c0,-0.1967 -0.20844,-0.96294 -0.46385,-1.70276c-0.58716,-1.69689 -0.75743,-2.78019 -0.6723,-4.28038c0.14973,-2.61579 1.25945,-5.0202 3.14717,-6.81691c1.59707,-1.52074 3.48478,-2.43964 5.73947,-2.79194c0.61358,-0.09688 2.20184,-0.07339 2.93579,0.04404M557.05524,643.26494c-6.67892,0.64881 -10.86243,3.60222 -11.84005,8.35526c-1.15083,5.60149 3.31157,10.43087 10.89472,11.7872c0.52551,0.09688 2.04037,0.22312 3.36442,0.28477c3.33506,0.15853 4.938,0.52844 6.81104,1.56771c0.94239,0.52551 1.94643,1.56478 2.11377,2.19304c0.26129,0.96588 -0.0411,2.01395 -0.82202,2.8624c-0.58716,0.63413 -1.18312,0.99523 -2.3134,1.40037c-1.62349,0.58422 -2.67744,0.71927 -5.4958,0.7134c-2.41028,-0.00587 -2.65983,-0.02642 -3.74313,-0.31707c-2.93286,-0.78679 -4.57103,-2.29285 -5.24039,-4.80883c-0.18202,-0.68991 -0.8778,-1.50606 -1.56478,-1.84074c-0.5989,-0.28771 -1.76147,-0.32881 -2.35157,-0.0822c-0.97175,0.40514 -1.83487,1.62349 -1.83781,2.58937c-0.00294,1.12441 0.95413,3.56992 1.93175,4.94094c2.69506,3.77543 7.407,5.63378 13.74537,5.42534c2.9035,-0.09688 5.04369,-0.48734 7.03709,-1.28881c3.55231,-1.42679 5.78938,-3.9046 6.45874,-7.15452c1.35634,-6.60847 -5.20516,-12.04849 -14.55272,-12.07197c-3.23524,-0.00587 -6.23856,-0.99817 -7.82975,-2.58643c-0.75743,-0.7545 -0.98643,-1.34753 -0.86312,-2.21946c0.28184,-1.95817 2.20771,-3.27634 5.52222,-3.7813c1.57065,-0.2378 5.14057,-0.20257 6.40002,0.06459c3.21763,0.6811 5.04662,2.24294 5.75709,4.91745c0.1967,0.75156 0.99817,1.64111 1.72037,1.91707c1.82019,0.69578 3.76368,-0.4756 3.99268,-2.40441c0.12624,-1.08037 -0.80441,-3.59928 -1.89946,-5.13176c-1.77322,-2.48661 -4.65323,-4.25103 -8.11159,-4.97323c-2.17542,-0.45505 -4.90277,-0.58716 -7.2837,-0.35817" className="SFSymbolsPreviewWireframe"/></g>
 </g>
</svg>