<?xml version="1.0" encoding="UTF-8"?><!--Generator: https://SymbolKit.app--><!DOCTYPE svg PUBLIC "-//W3C//DTD SVG 1.1//EN" "http://www.w3.org/Graphics/SVG/1.1/DTD/svg11.dtd"><svg xmlns="http://www.w3.org/2000/svg" xmlns:xlink="http://www.w3.org/1999/xlink" version="1.1" viewBox="0 0 3300 2200">
 <!--glyph: "100092", point size: 100.0, font version: "20.0d10e1", template writer version: "138.0.0"-->
 <style>.SFSymbolsPreviewWireframe {fill:none;opacity:1.0;stroke:black;stroke-width:0.5}
</style>
 <g id="Notes">
  <rect height="2200" id="artboard" style="fill:white;opacity:1" width="3300" x="0" y="0"/>
  <line style="fill:none;stroke:black;opacity:1;stroke-width:0.5;" x1="263" x2="3036" y1="292" y2="292"/>
  <text style="stroke:none;fill:black;font-family:sans-serif;font-size:13;font-weight:bold;" transform="matrix(1 0 0 1 263 322)">Weight/Scale Variations</text>
  <text style="stroke:none;fill:black;font-family:sans-serif;font-size:13;text-anchor:middle;" transform="matrix(1 0 0 1 559.711 322)">Ultralight</text>
  <text style="stroke:none;fill:black;font-family:sans-serif;font-size:13;text-anchor:middle;" transform="matrix(1 0 0 1 856.422 322)">Thin</text>
  <text style="stroke:none;fill:black;font-family:sans-serif;font-size:13;text-anchor:middle;" transform="matrix(1 0 0 1 1153.13 322)">Light</text>
  <text style="stroke:none;fill:black;font-family:sans-serif;font-size:13;text-anchor:middle;" transform="matrix(1 0 0 1 1449.84 322)">Regular</text>
  <text style="stroke:none;fill:black;font-family:sans-serif;font-size:13;text-anchor:middle;" transform="matrix(1 0 0 1 1746.56 322)">Medium</text>
  <text style="stroke:none;fill:black;font-family:sans-serif;font-size:13;text-anchor:middle;" transform="matrix(1 0 0 1 2043.27 322)">Semibold</text>
  <text style="stroke:none;fill:black;font-family:sans-serif;font-size:13;text-anchor:middle;" transform="matrix(1 0 0 1 2339.98 322)">Bold</text>
  <text style="stroke:none;fill:black;font-family:sans-serif;font-size:13;text-anchor:middle;" transform="matrix(1 0 0 1 2636.69 322)">Heavy</text>
  <text style="stroke:none;fill:black;font-family:sans-serif;font-size:13;text-anchor:middle;" transform="matrix(1 0 0 1 2933.4 322)">Black</text>
  <line style="fill:none;stroke:black;opacity:1;stroke-width:0.5;" x1="263" x2="3036" y1="1903" y2="1903"/>
  <g transform="matrix(0.2 0 0 0.2 263 1933)">
   <path d="m46.2402 4.15039c21.7773 0 39.4531-17.627 39.4531-39.4043s-17.6758-39.4043-39.4531-39.4043c-21.7285 0-39.4043 17.627-39.4043 39.4043s17.6758 39.4043 39.4043 39.4043Zm0-7.42188c-17.6758 0-31.9336-14.3066-31.9336-31.9824s14.2578-31.9824 31.9336-31.9824 31.9824 14.3066 31.9824 31.9824-14.3066 31.9824-31.9824 31.9824Zm-17.9688-31.9824c0 2.14844 1.51367 3.61328 3.75977 3.61328h10.498v10.5957c0 2.19727 1.46484 3.71094 3.61328 3.71094 2.24609 0 3.71094-1.51367 3.71094-3.71094v-10.5957h10.5957c2.19727 0 3.71094-1.46484 3.71094-3.61328 0-2.19727-1.51367-3.71094-3.71094-3.71094h-10.5957v-10.5469c0-2.24609-1.46484-3.75977-3.71094-3.75977-2.14844 0-3.61328 1.51367-3.61328 3.75977v10.5469h-10.498c-2.24609 0-3.75977 1.51367-3.75977 3.71094Z"/>
  </g>
  <g transform="matrix(0.2 0 0 0.2 281.506 1933)">
   <path d="m58.5449 14.5508c27.4902 0 49.8047-22.3145 49.8047-49.8047s-22.3145-49.8047-49.8047-49.8047-49.8047 22.3145-49.8047 49.8047 22.3145 49.8047 49.8047 49.8047Zm0-8.30078c-22.9492 0-41.5039-18.5547-41.5039-41.5039s18.5547-41.5039 41.5039-41.5039 41.5039 18.5547 41.5039 41.5039-18.5547 41.5039-41.5039 41.5039Zm-22.6562-41.5039c0 2.39258 1.66016 4.00391 4.15039 4.00391h14.3555v14.4043c0 2.44141 1.66016 4.15039 4.05273 4.15039 2.44141 0 4.15039-1.66016 4.15039-4.15039v-14.4043h14.4043c2.44141 0 4.15039-1.61133 4.15039-4.00391 0-2.44141-1.70898-4.15039-4.15039-4.15039h-14.4043v-14.3555c0-2.49023-1.70898-4.19922-4.15039-4.19922-2.39258 0-4.05273 1.70898-4.05273 4.19922v14.3555h-14.3555c-2.49023 0-4.15039 1.70898-4.15039 4.15039Z"/>
  </g>
  <g transform="matrix(0.2 0 0 0.2 304.924 1933)">
   <path d="m74.8535 28.3203c35.1074 0 63.623-28.4668 63.623-63.5742s-28.5156-63.623-63.623-63.623-63.5742 28.5156-63.5742 63.623 28.4668 63.5742 63.5742 63.5742Zm0-9.08203c-30.127 0-54.4922-24.3652-54.4922-54.4922s24.3652-54.4922 54.4922-54.4922 54.4922 24.3652 54.4922 54.4922-24.3652 54.4922-54.4922 54.4922Zm-28.8574-54.4922c0 2.58789 1.85547 4.39453 4.58984 4.39453h19.7266v19.7754c0 2.68555 1.85547 4.58984 4.44336 4.58984 2.68555 0 4.54102-1.85547 4.54102-4.58984v-19.7754h19.7754c2.68555 0 4.58984-1.80664 4.58984-4.39453 0-2.73438-1.85547-4.58984-4.58984-4.58984h-19.7754v-19.7266c0-2.73438-1.85547-4.63867-4.54102-4.63867-2.58789 0-4.44336 1.9043-4.44336 4.63867v19.7266h-19.7266c-2.73438 0-4.58984 1.85547-4.58984 4.58984Z"/>
  </g>
  <text style="stroke:none;fill:black;font-family:sans-serif;font-size:13;font-weight:bold;" transform="matrix(1 0 0 1 263 1953)">Design Variations</text>
  <text style="stroke:none;fill:black;font-family:sans-serif;font-size:13;" transform="matrix(1 0 0 1 263 1971)">Symbols are supported in up to nine weights and three scales.</text>
  <text style="stroke:none;fill:black;font-family:sans-serif;font-size:13;" transform="matrix(1 0 0 1 263 1989)">For optimal layout with text and other symbols, vertically align</text>
  <text style="stroke:none;fill:black;font-family:sans-serif;font-size:13;" transform="matrix(1 0 0 1 263 2007)">symbols with the adjacent text.</text>
  <line style="fill:none;stroke:#00AEEF;stroke-width:0.5;opacity:1.0;" x1="776" x2="776" y1="1919" y2="1933"/>
  <g transform="matrix(0.2 0 0 0.2 776 1933)">
   <path d="m16.5527 0.78125c2.58789 0 3.85742-0.976562 4.78516-3.71094l6.29883-17.2363h28.8086l6.29883 17.2363c0.927734 2.73438 2.19727 3.71094 4.73633 3.71094 2.58789 0 4.24805-1.5625 4.24805-4.00391 0-0.830078-0.146484-1.61133-0.537109-2.63672l-22.9004-60.9863c-1.12305-2.97852-3.125-4.49219-6.25-4.49219-3.02734 0-5.07812 1.46484-6.15234 4.44336l-22.9004 61.084c-0.390625 1.02539-0.537109 1.80664-0.537109 2.63672 0 2.44141 1.5625 3.95508 4.10156 3.95508Zm13.4766-28.3691 11.8652-32.8613h0.244141l11.8652 32.8613Z"/>
  </g>
  <line style="fill:none;stroke:#00AEEF;stroke-width:0.5;opacity:1.0;" x1="792.836" x2="792.836" y1="1919" y2="1933"/>
  <text style="stroke:none;fill:black;font-family:sans-serif;font-size:13;font-weight:bold;" transform="matrix(1 0 0 1 776 1953)">Margins</text>
  <text style="stroke:none;fill:black;font-family:sans-serif;font-size:13;" transform="matrix(1 0 0 1 776 1971)">Leading and trailing margins on the left and right side of each symbol</text>
  <text style="stroke:none;fill:black;font-family:sans-serif;font-size:13;" transform="matrix(1 0 0 1 776 1989)">can be adjusted by modifying the x-location of the margin guidelines.</text>
  <text style="stroke:none;fill:black;font-family:sans-serif;font-size:13;" transform="matrix(1 0 0 1 776 2007)">Modifications are automatically applied proportionally to all</text>
  <text style="stroke:none;fill:black;font-family:sans-serif;font-size:13;" transform="matrix(1 0 0 1 776 2025)">scales and weights.</text>
  <g transform="matrix(0.2 0 0 0.2 1289 1933)">
   <path d="m14.209 9.32617 8.49609 8.54492c4.29688 4.3457 9.22852 4.05273 13.8672-1.07422l53.4668-58.9355-4.83398-4.88281-53.0762 58.3984c-1.75781 2.00195-3.41797 2.49023-5.76172 0.146484l-5.85938-5.81055c-2.34375-2.29492-1.80664-4.00391 0.195312-5.81055l57.373-54.0039-4.88281-4.83398-57.959 54.4434c-4.93164 4.58984-5.32227 9.47266-1.02539 13.8184Zm32.0801-90.9668c-2.09961 2.05078-2.24609 4.93164-1.07422 6.88477 1.17188 1.80664 3.4668 2.97852 6.68945 2.14844 7.32422-1.70898 14.9414-2.00195 22.0703 2.68555l-2.92969 7.27539c-1.70898 4.15039-0.830078 7.08008 1.85547 9.81445l11.4746 11.5723c2.44141 2.44141 4.49219 2.53906 7.32422 2.05078l5.32227-0.976562 3.32031 3.36914-0.195312 2.7832c-0.195312 2.49023 0.439453 4.39453 2.88086 6.78711l3.80859 3.71094c2.39258 2.39258 5.46875 2.53906 7.8125 0.195312l14.5508-14.5996c2.34375-2.34375 2.24609-5.32227-0.146484-7.71484l-3.85742-3.80859c-2.39258-2.39258-4.24805-3.17383-6.64062-2.97852l-2.88086 0.244141-3.22266-3.17383 1.2207-5.61523c0.634766-2.83203-0.146484-5.0293-3.07617-7.95898l-10.9863-10.9375c-16.6992-16.6016-38.8672-16.2109-53.3203-1.75781Zm7.4707 1.85547c12.1582-8.88672 28.6133-7.37305 39.7461 3.75977l12.1582 12.0605c1.17188 1.17188 1.36719 2.09961 1.02539 3.80859l-1.61133 7.42188 7.51953 7.42188 4.93164-0.292969c1.26953-0.0488281 1.66016 0.0488281 2.63672 1.02539l2.88086 2.88086-12.207 12.207-2.88086-2.88086c-0.976562-0.976562-1.12305-1.36719-1.07422-2.68555l0.341797-4.88281-7.4707-7.42188-7.61719 1.26953c-1.61133 0.341797-2.34375 0.195312-3.56445-0.976562l-10.0098-10.0098c-1.26953-1.17188-1.41602-2.00195-0.634766-3.85742l4.39453-10.4492c-7.8125-7.27539-17.9688-10.4004-28.125-7.42188-0.78125 0.195312-1.07422-0.439453-0.439453-0.976562Z"/>
  </g>
  <text style="stroke:none;fill:black;font-family:sans-serif;font-size:13;font-weight:bold;" transform="matrix(1 0 0 1 1289 1953)">Exporting</text>
  <text style="stroke:none;fill:black;font-family:sans-serif;font-size:13;" transform="matrix(1 0 0 1 1289 1971)">Symbols should be outlined when exporting to ensure the</text>
  <text style="stroke:none;fill:black;font-family:sans-serif;font-size:13;" transform="matrix(1 0 0 1 1289 1989)">design is preserved when submitting to Xcode.</text>
  <text id="template-version" style="stroke:none;fill:black;font-family:sans-serif;font-size:13;text-anchor:end;" transform="matrix(1 0 0 1 3036 1933)">Template v.6.0</text>
  <text style="stroke:none;fill:black;font-family:sans-serif;font-size:13;text-anchor:end;" transform="matrix(1 0 0 1 3036 1951)">Requires Xcode 16 or greater</text>
  <text id="descriptive-name" style="stroke:none;fill:black;font-family:sans-serif;font-size:13;text-anchor:end;" transform="matrix(1 0 0 1 3036 1969)">Generated from square</text>
  <text style="stroke:none;fill:black;font-family:sans-serif;font-size:13;text-anchor:end;" transform="matrix(1 0 0 1 3036 1987)">Typeset at 100.0 points</text>
  <text style="stroke:none;fill:black;font-family:sans-serif;font-size:13;" transform="matrix(1 0 0 1 263 726)">Small</text>
  <text style="stroke:none;fill:black;font-family:sans-serif;font-size:13;" transform="matrix(1 0 0 1 263 1156)">Medium</text>
  <text style="stroke:none;fill:black;font-family:sans-serif;font-size:13;" transform="matrix(1 0 0 1 263 1586)">Large</text>
 </g>
 <g id="Guides">
  <g id="H-reference" style="fill:#27AAE1;stroke:none;" transform="matrix(1 0 0 1 339 696)">
   <path d="M0.993654 0L3.63775 0L29.3281-67.1323L30.0303-67.1323L30.0303-70.459L28.1226-70.459ZM11.6885-24.4799L46.9815-24.4799L46.2315-26.7285L12.4385-26.7285ZM55.1196 0L57.7637 0L30.6382-70.459L29.4326-70.459L29.4326-67.1323Z"/>
  </g>
  <line id="Baseline-S" style="fill:none;stroke:#27AAE1;opacity:1;stroke-width:0.5;" x1="263" x2="3036" y1="696" y2="696"/>
  <line id="Capline-S" style="fill:none;stroke:#27AAE1;opacity:1;stroke-width:0.5;" x1="263" x2="3036" y1="625.541" y2="625.541"/>
  <g id="H-reference" style="fill:#27AAE1;stroke:none;" transform="matrix(1 0 0 1 339 1126)">
   <path d="M0.993654 0L3.63775 0L29.3281-67.1323L30.0303-67.1323L30.0303-70.459L28.1226-70.459ZM11.6885-24.4799L46.9815-24.4799L46.2315-26.7285L12.4385-26.7285ZM55.1196 0L57.7637 0L30.6382-70.459L29.4326-70.459L29.4326-67.1323Z"/>
  </g>
  <line id="Baseline-M" style="fill:none;stroke:#27AAE1;opacity:1;stroke-width:0.5;" x1="263" x2="3036" y1="1126" y2="1126"/>
  <line id="Capline-M" style="fill:none;stroke:#27AAE1;opacity:1;stroke-width:0.5;" x1="263" x2="3036" y1="1055.54" y2="1055.54"/>
  <g id="H-reference" style="fill:#27AAE1;stroke:none;" transform="matrix(1 0 0 1 339 1556)">
   <path d="M0.993654 0L3.63775 0L29.3281-67.1323L30.0303-67.1323L30.0303-70.459L28.1226-70.459ZM11.6885-24.4799L46.9815-24.4799L46.2315-26.7285L12.4385-26.7285ZM55.1196 0L57.7637 0L30.6382-70.459L29.4326-70.459L29.4326-67.1323Z"/>
  </g>
  <line id="Baseline-L" style="fill:none;stroke:#27AAE1;opacity:1;stroke-width:0.5;" x1="263" x2="3036" y1="1556" y2="1556"/>
  <line id="Capline-L" style="fill:none;stroke:#27AAE1;opacity:1;stroke-width:0.5;" x1="263" x2="3036" y1="1485.54" y2="1485.54"/>
  <line id="right-margin-Black-S" style="fill:none;stroke:#00AEEF;stroke-width:0.5;opacity:1.0;" x1="2981.3" x2="2981.3" y1="600.785" y2="720.121"/>
  <line id="left-margin-Black-S" style="fill:none;stroke:#00AEEF;stroke-width:0.5;opacity:1.0;" x1="2885.5" x2="2885.5" y1="600.785" y2="720.121"/>
  <line id="right-margin-Regular-S" style="fill:none;stroke:#00AEEF;stroke-width:0.5;opacity:1.0;" x1="1495.18" x2="1495.18" y1="600.785" y2="720.121"/>
  <line id="left-margin-Regular-S" style="fill:none;stroke:#00AEEF;stroke-width:0.5;opacity:1.0;" x1="1404.51" x2="1404.51" y1="600.785" y2="720.121"/>
  <line id="right-margin-Ultralight-S" style="fill:none;stroke:#00AEEF;stroke-width:0.5;opacity:1.0;" x1="603.073" x2="603.073" y1="600.785" y2="720.121"/>
  <line id="left-margin-Ultralight-S" style="fill:none;stroke:#00AEEF;stroke-width:0.5;opacity:1.0;" x1="516.35" x2="516.35" y1="600.785" y2="720.121"/>
 </g>
 <g id="Symbols">
  <g id="Black-S"><path d="M2931.56243,628.6233c-3.31157,0.5167 -6.50278,2.68038 -8.18792,5.55452c-3.6668,6.25323 -0.98643,14.18574 5.70424,16.88373c6.00663,2.41909 12.81473,-0.48734 15.24263,-6.50571c1.13322,-2.81249 1.13322,-5.92736 0.00294,-8.72517c-1.56478,-3.87231 -5.00259,-6.59672 -9.10095,-7.21617c-1.3534,-0.20257 -2.31634,-0.19963 -3.66093,0.00881M2934.98263,634.53011c2.16955,0.56661 3.89579,2.49836 4.23928,4.74717c0.18202,1.1978 0,2.44258 -0.51083,3.49359c-0.45505,0.93358 -1.66166,2.18716 -2.53359,2.62753c-1.28588,0.65175 -2.84185,0.83376 -4.17469,0.48441c-2.01102,-0.52257 -3.69616,-2.1901 -4.21286,-4.16002c-1.14496,-4.38901 2.80368,-8.33765 7.19269,-7.19269M2918.88569,652.22412c-2.03744,0.45798 -4.01323,2.00515 -5.04956,3.95157c-1.29175,2.42496 -1.02459,5.8569 0.62239,8.02645c0.1967,0.25835 2.10496,2.22827 4.23928,4.37433l3.88112,3.9046l-3.93983,3.96332c-2.16661,2.18129 -4.1013,4.17469 -4.298,4.43304c-1.81138,2.38386 -1.97285,6.02718 -0.37872,8.5226c2.33395,3.64625 6.81691,4.73837 10.53068,2.56001c0.46385,-0.27303 1.96111,-1.67047 4.8147,-4.50057l4.13947,-4.1013l4.13947,4.10424c4.43304,4.39488 4.84993,4.72956 6.4881,5.24919c0.6723,0.21431 1.09211,0.26129 2.28992,0.25541c1.32698,-0.00294 1.56478,-0.03817 2.47194,-0.35817c1.25652,-0.4433 2.11671,-1.00991 3.07084,-2.02276c0.89835,-0.95413 1.2712,-1.56771 1.69689,-2.79194c0.28184,-0.81321 0.32294,-1.10973 0.32881,-2.39561c0.00587,-1.20074 -0.0411,-1.61762 -0.25541,-2.28992c-0.51964,-1.63817 -0.85432,-2.05505 -5.25213,-6.49103l-4.10717,-4.13947l3.88112,-3.9046c2.13432,-2.14606 4.04846,-4.12185 4.2569,-4.39488c0.47266,-0.61652 1.11266,-2.01102 1.30643,-2.84185c0.19963,-0.85138 0.17028,-2.72441 -0.05284,-3.59341c-0.33468,-1.28294 -0.97468,-2.38093 -2.00221,-3.41726c-1.58826,-1.60588 -3.20001,-2.28111 -5.44883,-2.27524c-1.77909,0.00294 -3.25873,0.47266 -4.53286,1.44147c-0.25835,0.1967 -2.22533,2.10203 -4.37139,4.23635l-3.9046,3.88112l-4.08075,-4.04846c-4.34497,-4.30387 -4.79708,-4.67378 -6.3736,-5.1758c-1.00991,-0.32 -3.04735,-0.4022 -4.11011,-0.16147M2921.31359,658.04286c0.18202,0.06752 2.60405,2.3868 5.3813,5.15525c2.77726,2.76552 5.23452,5.12883 5.46057,5.24626c0.29358,0.15266 0.66349,0.21431 1.29175,0.21431c0.62826,0 0.99817,-0.06165 1.29175,-0.21431c0.22606,-0.11743 2.68331,-2.47781 5.46057,-5.24039c2.77726,-2.76258 5.16406,-5.08185 5.30497,-5.15525c0.14092,-0.07046 0.53138,-0.12917 0.86899,-0.12917c0.56367,0 0.64881,0.03817 1.12147,0.51376c0.4756,0.47266 0.51376,0.5578 0.51376,1.12147c0,0.33762 -0.05872,0.72808 -0.12917,0.86899c-0.07339,0.14092 -2.39267,2.52772 -5.15525,5.30497c-2.76258,2.77726 -5.12296,5.23452 -5.24039,5.46057c-0.29945,0.56954 -0.29945,2.01395 0,2.5835c0.11743,0.22606 2.50717,2.70974 5.30497,5.51929c2.80074,2.80955 5.14644,5.258 5.21396,5.44002c0.52844,1.41212 -0.89248,2.83304 -2.3046,2.3046c-0.18202,-0.06752 -2.63047,-2.41322 -5.44002,-5.21396c-2.80955,-2.79781 -5.29323,-5.18754 -5.51929,-5.30497c-0.56954,-0.29945 -2.01395,-0.29945 -2.5835,0c-0.22606,0.12037 -2.76258,2.55707 -5.63672,5.41653c-4.43011,4.40369 -5.28736,5.20809 -5.63672,5.26974c-0.77505,0.13798 -1.61469,-0.26422 -1.92881,-0.9189c-0.21431,-0.45798 -0.24367,-1.25945 -0.05578,-1.62936c0.07339,-0.14092 2.41909,-2.55414 5.21396,-5.36369c2.79487,-2.80955 5.18167,-5.29323 5.2991,-5.51929c0.29945,-0.56954 0.29945,-2.01395 0,-2.5835c-0.12037,-0.22606 -2.50423,-2.70974 -5.30204,-5.51929c-5.48406,-5.50461 -5.36663,-5.36075 -5.17286,-6.38828c0.19376,-1.0334 1.33578,-1.62643 2.37799,-1.2389" className="SFSymbolsPreviewWireframe"/></g>
  <g id="Regular-S"><path d="M1448.00738,628.6233c-3.31157,0.5167 -6.50278,2.68038 -8.18792,5.55452c-3.6668,6.25323 -0.98643,14.18574 5.70424,16.88373c6.00663,2.41909 12.81473,-0.48734 15.24263,-6.50571c1.13322,-2.81249 1.13322,-5.92736 0.00294,-8.72517c-1.56478,-3.87231 -5.00259,-6.59672 -9.10095,-7.21617c-1.3534,-0.20257 -2.31634,-0.19963 -3.66093,0.00881M1451.42758,634.53011c2.16955,0.56661 3.89579,2.49836 4.23928,4.74717c0.18202,1.1978 0,2.44258 -0.51083,3.49359c-0.45505,0.93358 -1.66166,2.18716 -2.53359,2.62753c-1.28588,0.65175 -2.84185,0.83376 -4.17469,0.48441c-2.01102,-0.52257 -3.69616,-2.1901 -4.21286,-4.16002c-1.14496,-4.38901 2.80368,-8.33765 7.19269,-7.19269M1435.33064,652.22412c-2.03744,0.45798 -4.01323,2.00515 -5.04956,3.95157c-1.29175,2.42496 -1.02459,5.8569 0.62239,8.02645c0.1967,0.25835 2.10496,2.22827 4.23928,4.37433l3.88112,3.9046l-3.93983,3.96332c-2.16661,2.18129 -4.1013,4.17469 -4.298,4.43304c-1.81138,2.38386 -1.97285,6.02718 -0.37872,8.5226c2.33395,3.64625 6.81691,4.73837 10.53068,2.56001c0.46385,-0.27303 1.96111,-1.67047 4.8147,-4.50057l4.13947,-4.1013l4.13947,4.10424c4.43304,4.39488 4.84993,4.72956 6.4881,5.24919c0.6723,0.21431 1.09211,0.26129 2.28992,0.25541c1.32698,-0.00294 1.56478,-0.03817 2.47194,-0.35817c1.25652,-0.4433 2.11671,-1.00991 3.07084,-2.02276c0.89835,-0.95413 1.2712,-1.56771 1.69689,-2.79194c0.28184,-0.81321 0.32294,-1.10973 0.32881,-2.39561c0.00587,-1.20074 -0.0411,-1.61762 -0.25541,-2.28992c-0.51964,-1.63817 -0.85432,-2.05505 -5.25213,-6.49103l-4.10717,-4.13947l3.88112,-3.9046c2.13432,-2.14606 4.04846,-4.12185 4.2569,-4.39488c0.47266,-0.61652 1.11266,-2.01102 1.30643,-2.84185c0.19963,-0.85138 0.17028,-2.72441 -0.05284,-3.59341c-0.33468,-1.28294 -0.97468,-2.38093 -2.00221,-3.41726c-1.58826,-1.60588 -3.20001,-2.28111 -5.44883,-2.27524c-1.77909,0.00294 -3.25873,0.47266 -4.53286,1.44147c-0.25835,0.1967 -2.22533,2.10203 -4.37139,4.23635l-3.9046,3.88112l-4.08075,-4.04846c-4.34497,-4.30387 -4.79708,-4.67378 -6.3736,-5.1758c-1.00991,-0.32 -3.04735,-0.4022 -4.11011,-0.16147M1437.75854,658.04286c0.18202,0.06752 2.60405,2.3868 5.3813,5.15525c2.77726,2.76552 5.23452,5.12883 5.46057,5.24626c0.29358,0.15266 0.66349,0.21431 1.29175,0.21431c0.62826,0 0.99817,-0.06165 1.29175,-0.21431c0.22606,-0.11743 2.68331,-2.47781 5.46057,-5.24039c2.77726,-2.76258 5.16406,-5.08185 5.30497,-5.15525c0.14092,-0.07046 0.53138,-0.12917 0.86899,-0.12917c0.56367,0 0.64881,0.03817 1.12147,0.51376c0.4756,0.47266 0.51376,0.5578 0.51376,1.12147c0,0.33762 -0.05872,0.72808 -0.12917,0.86899c-0.07339,0.14092 -2.39267,2.52772 -5.15525,5.30497c-2.76258,2.77726 -5.12296,5.23452 -5.24039,5.46057c-0.29945,0.56954 -0.29945,2.01395 0,2.5835c0.11743,0.22606 2.50717,2.70974 5.30497,5.51929c2.80074,2.80955 5.14644,5.258 5.21396,5.44002c0.52844,1.41212 -0.89248,2.83304 -2.3046,2.3046c-0.18202,-0.06752 -2.63047,-2.41322 -5.44002,-5.21396c-2.80955,-2.79781 -5.29323,-5.18754 -5.51929,-5.30497c-0.56954,-0.29945 -2.01395,-0.29945 -2.5835,0c-0.22606,0.12037 -2.76258,2.55707 -5.63672,5.41653c-4.43011,4.40369 -5.28736,5.20809 -5.63672,5.26974c-0.77505,0.13798 -1.61469,-0.26422 -1.92881,-0.9189c-0.21431,-0.45798 -0.24367,-1.25945 -0.05578,-1.62936c0.07339,-0.14092 2.41909,-2.55414 5.21396,-5.36369c2.79487,-2.80955 5.18167,-5.29323 5.2991,-5.51929c0.29945,-0.56954 0.29945,-2.01395 0,-2.5835c-0.12037,-0.22606 -2.50423,-2.70974 -5.30204,-5.51929c-5.48406,-5.50461 -5.36663,-5.36075 -5.17286,-6.38828c0.19376,-1.0334 1.33578,-1.62643 2.37799,-1.2389" className="SFSymbolsPreviewWireframe"/></g>
  <g id="Ultralight-S"><path d="M557.87379,628.6233c-3.31157,0.5167 -6.50278,2.68038 -8.18792,5.55452c-3.6668,6.25323 -0.98643,14.18574 5.70424,16.88373c6.00663,2.41909 12.81473,-0.48734 15.24263,-6.50571c1.13322,-2.81249 1.13322,-5.92736 0.00294,-8.72517c-1.56478,-3.87231 -5.00259,-6.59672 -9.10095,-7.21617c-1.3534,-0.20257 -2.31634,-0.19963 -3.66093,0.00881M561.29399,634.53011c2.16955,0.56661 3.89579,2.49836 4.23928,4.74717c0.18202,1.1978 0,2.44258 -0.51083,3.49359c-0.45505,0.93358 -1.66166,2.18716 -2.53359,2.62753c-1.28588,0.65175 -2.84185,0.83376 -4.17469,0.48441c-2.01102,-0.52257 -3.69616,-2.1901 -4.21286,-4.16002c-1.14496,-4.38901 2.80368,-8.33765 7.19269,-7.19269M545.19705,652.22412c-2.03744,0.45798 -4.01323,2.00515 -5.04956,3.95157c-1.29175,2.42496 -1.02459,5.8569 0.62239,8.02645c0.1967,0.25835 2.10496,2.22827 4.23928,4.37433l3.88112,3.9046l-3.93983,3.96332c-2.16661,2.18129 -4.1013,4.17469 -4.298,4.43304c-1.81138,2.38386 -1.97285,6.02718 -0.37872,8.5226c2.33395,3.64625 6.81691,4.73837 10.53068,2.56001c0.46385,-0.27303 1.96111,-1.67047 4.8147,-4.50057l4.13947,-4.1013l4.13947,4.10424c4.43304,4.39488 4.84993,4.72956 6.4881,5.24919c0.6723,0.21431 1.09211,0.26129 2.28992,0.25541c1.32698,-0.00294 1.56478,-0.03817 2.47194,-0.35817c1.25652,-0.4433 2.11671,-1.00991 3.07084,-2.02276c0.89835,-0.95413 1.2712,-1.56771 1.69689,-2.79194c0.28184,-0.81321 0.32294,-1.10973 0.32881,-2.39561c0.00587,-1.20074 -0.0411,-1.61762 -0.25541,-2.28992c-0.51964,-1.63817 -0.85432,-2.05505 -5.25213,-6.49103l-4.10717,-4.13947l3.88112,-3.9046c2.13432,-2.14606 4.04846,-4.12185 4.2569,-4.39488c0.47266,-0.61652 1.11266,-2.01102 1.30643,-2.84185c0.19963,-0.85138 0.17028,-2.72441 -0.05284,-3.59341c-0.33468,-1.28294 -0.97468,-2.38093 -2.00221,-3.41726c-1.58826,-1.60588 -3.20001,-2.28111 -5.44883,-2.27524c-1.77909,0.00294 -3.25873,0.47266 -4.53286,1.44147c-0.25835,0.1967 -2.22533,2.10203 -4.37139,4.23635l-3.9046,3.88112l-4.08075,-4.04846c-4.34497,-4.30387 -4.79708,-4.67378 -6.3736,-5.1758c-1.00991,-0.32 -3.04735,-0.4022 -4.11011,-0.16147M547.62495,658.04286c0.18202,0.06752 2.60405,2.3868 5.3813,5.15525c2.77726,2.76552 5.23452,5.12883 5.46057,5.24626c0.29358,0.15266 0.66349,0.21431 1.29175,0.21431c0.62826,0 0.99817,-0.06165 1.29175,-0.21431c0.22606,-0.11743 2.68331,-2.47781 5.46057,-5.24039c2.77726,-2.76258 5.16406,-5.08185 5.30497,-5.15525c0.14092,-0.07046 0.53138,-0.12917 0.86899,-0.12917c0.56367,0 0.64881,0.03817 1.12147,0.51376c0.4756,0.47266 0.51376,0.5578 0.51376,1.12147c0,0.33762 -0.05872,0.72808 -0.12917,0.86899c-0.07339,0.14092 -2.39267,2.52772 -5.15525,5.30497c-2.76258,2.77726 -5.12296,5.23452 -5.24039,5.46057c-0.29945,0.56954 -0.29945,2.01395 0,2.5835c0.11743,0.22606 2.50717,2.70974 5.30497,5.51929c2.80074,2.80955 5.14644,5.258 5.21396,5.44002c0.52844,1.41212 -0.89248,2.83304 -2.3046,2.3046c-0.18202,-0.06752 -2.63047,-2.41322 -5.44002,-5.21396c-2.80955,-2.79781 -5.29323,-5.18754 -5.51929,-5.30497c-0.56954,-0.29945 -2.01395,-0.29945 -2.5835,0c-0.22606,0.12037 -2.76258,2.55707 -5.63672,5.41653c-4.43011,4.40369 -5.28736,5.20809 -5.63672,5.26974c-0.77505,0.13798 -1.61469,-0.26422 -1.92881,-0.9189c-0.21431,-0.45798 -0.24367,-1.25945 -0.05578,-1.62936c0.07339,-0.14092 2.41909,-2.55414 5.21396,-5.36369c2.79487,-2.80955 5.18167,-5.29323 5.2991,-5.51929c0.29945,-0.56954 0.29945,-2.01395 0,-2.5835c-0.12037,-0.22606 -2.50423,-2.70974 -5.30204,-5.51929c-5.48406,-5.50461 -5.36663,-5.36075 -5.17286,-6.38828c0.19376,-1.0334 1.33578,-1.62643 2.37799,-1.2389" className="SFSymbolsPreviewWireframe"/></g>
 </g>
</svg>