<?xml version="1.0" encoding="UTF-8"?><!--Generator: https://SymbolKit.app--><!DOCTYPE svg PUBLIC "-//W3C//DTD SVG 1.1//EN" "http://www.w3.org/Graphics/SVG/1.1/DTD/svg11.dtd"><svg xmlns="http://www.w3.org/2000/svg" xmlns:xlink="http://www.w3.org/1999/xlink" version="1.1" viewBox="0 0 3300 2200">
 <!--glyph: "100092", point size: 100.0, font version: "20.0d10e1", template writer version: "138.0.0"-->
 <style>.SFSymbolsPreviewWireframe {fill:none;opacity:1.0;stroke:black;stroke-width:0.5}
</style>
 <g id="Notes">
  <rect height="2200" id="artboard" style="fill:white;opacity:1" width="3300" x="0" y="0"/>
  <line style="fill:none;stroke:black;opacity:1;stroke-width:0.5;" x1="263" x2="3036" y1="292" y2="292"/>
  <text style="stroke:none;fill:black;font-family:sans-serif;font-size:13;font-weight:bold;" transform="matrix(1 0 0 1 263 322)">Weight/Scale Variations</text>
  <text style="stroke:none;fill:black;font-family:sans-serif;font-size:13;text-anchor:middle;" transform="matrix(1 0 0 1 559.711 322)">Ultralight</text>
  <text style="stroke:none;fill:black;font-family:sans-serif;font-size:13;text-anchor:middle;" transform="matrix(1 0 0 1 856.422 322)">Thin</text>
  <text style="stroke:none;fill:black;font-family:sans-serif;font-size:13;text-anchor:middle;" transform="matrix(1 0 0 1 1153.13 322)">Light</text>
  <text style="stroke:none;fill:black;font-family:sans-serif;font-size:13;text-anchor:middle;" transform="matrix(1 0 0 1 1449.84 322)">Regular</text>
  <text style="stroke:none;fill:black;font-family:sans-serif;font-size:13;text-anchor:middle;" transform="matrix(1 0 0 1 1746.56 322)">Medium</text>
  <text style="stroke:none;fill:black;font-family:sans-serif;font-size:13;text-anchor:middle;" transform="matrix(1 0 0 1 2043.27 322)">Semibold</text>
  <text style="stroke:none;fill:black;font-family:sans-serif;font-size:13;text-anchor:middle;" transform="matrix(1 0 0 1 2339.98 322)">Bold</text>
  <text style="stroke:none;fill:black;font-family:sans-serif;font-size:13;text-anchor:middle;" transform="matrix(1 0 0 1 2636.69 322)">Heavy</text>
  <text style="stroke:none;fill:black;font-family:sans-serif;font-size:13;text-anchor:middle;" transform="matrix(1 0 0 1 2933.4 322)">Black</text>
  <line style="fill:none;stroke:black;opacity:1;stroke-width:0.5;" x1="263" x2="3036" y1="1903" y2="1903"/>
  <g transform="matrix(0.2 0 0 0.2 263 1933)">
   <path d="m46.2402 4.15039c21.7773 0 39.4531-17.627 39.4531-39.4043s-17.6758-39.4043-39.4531-39.4043c-21.7285 0-39.4043 17.627-39.4043 39.4043s17.6758 39.4043 39.4043 39.4043Zm0-7.42188c-17.6758 0-31.9336-14.3066-31.9336-31.9824s14.2578-31.9824 31.9336-31.9824 31.9824 14.3066 31.9824 31.9824-14.3066 31.9824-31.9824 31.9824Zm-17.9688-31.9824c0 2.14844 1.51367 3.61328 3.75977 3.61328h10.498v10.5957c0 2.19727 1.46484 3.71094 3.61328 3.71094 2.24609 0 3.71094-1.51367 3.71094-3.71094v-10.5957h10.5957c2.19727 0 3.71094-1.46484 3.71094-3.61328 0-2.19727-1.51367-3.71094-3.71094-3.71094h-10.5957v-10.5469c0-2.24609-1.46484-3.75977-3.71094-3.75977-2.14844 0-3.61328 1.51367-3.61328 3.75977v10.5469h-10.498c-2.24609 0-3.75977 1.51367-3.75977 3.71094Z"/>
  </g>
  <g transform="matrix(0.2 0 0 0.2 281.506 1933)">
   <path d="m58.5449 14.5508c27.4902 0 49.8047-22.3145 49.8047-49.8047s-22.3145-49.8047-49.8047-49.8047-49.8047 22.3145-49.8047 49.8047 22.3145 49.8047 49.8047 49.8047Zm0-8.30078c-22.9492 0-41.5039-18.5547-41.5039-41.5039s18.5547-41.5039 41.5039-41.5039 41.5039 18.5547 41.5039 41.5039-18.5547 41.5039-41.5039 41.5039Zm-22.6562-41.5039c0 2.39258 1.66016 4.00391 4.15039 4.00391h14.3555v14.4043c0 2.44141 1.66016 4.15039 4.05273 4.15039 2.44141 0 4.15039-1.66016 4.15039-4.15039v-14.4043h14.4043c2.44141 0 4.15039-1.61133 4.15039-4.00391 0-2.44141-1.70898-4.15039-4.15039-4.15039h-14.4043v-14.3555c0-2.49023-1.70898-4.19922-4.15039-4.19922-2.39258 0-4.05273 1.70898-4.05273 4.19922v14.3555h-14.3555c-2.49023 0-4.15039 1.70898-4.15039 4.15039Z"/>
  </g>
  <g transform="matrix(0.2 0 0 0.2 304.924 1933)">
   <path d="m74.8535 28.3203c35.1074 0 63.623-28.4668 63.623-63.5742s-28.5156-63.623-63.623-63.623-63.5742 28.5156-63.5742 63.623 28.4668 63.5742 63.5742 63.5742Zm0-9.08203c-30.127 0-54.4922-24.3652-54.4922-54.4922s24.3652-54.4922 54.4922-54.4922 54.4922 24.3652 54.4922 54.4922-24.3652 54.4922-54.4922 54.4922Zm-28.8574-54.4922c0 2.58789 1.85547 4.39453 4.58984 4.39453h19.7266v19.7754c0 2.68555 1.85547 4.58984 4.44336 4.58984 2.68555 0 4.54102-1.85547 4.54102-4.58984v-19.7754h19.7754c2.68555 0 4.58984-1.80664 4.58984-4.39453 0-2.73438-1.85547-4.58984-4.58984-4.58984h-19.7754v-19.7266c0-2.73438-1.85547-4.63867-4.54102-4.63867-2.58789 0-4.44336 1.9043-4.44336 4.63867v19.7266h-19.7266c-2.73438 0-4.58984 1.85547-4.58984 4.58984Z"/>
  </g>
  <text style="stroke:none;fill:black;font-family:sans-serif;font-size:13;font-weight:bold;" transform="matrix(1 0 0 1 263 1953)">Design Variations</text>
  <text style="stroke:none;fill:black;font-family:sans-serif;font-size:13;" transform="matrix(1 0 0 1 263 1971)">Symbols are supported in up to nine weights and three scales.</text>
  <text style="stroke:none;fill:black;font-family:sans-serif;font-size:13;" transform="matrix(1 0 0 1 263 1989)">For optimal layout with text and other symbols, vertically align</text>
  <text style="stroke:none;fill:black;font-family:sans-serif;font-size:13;" transform="matrix(1 0 0 1 263 2007)">symbols with the adjacent text.</text>
  <line style="fill:none;stroke:#00AEEF;stroke-width:0.5;opacity:1.0;" x1="776" x2="776" y1="1919" y2="1933"/>
  <g transform="matrix(0.2 0 0 0.2 776 1933)">
   <path d="m16.5527 0.78125c2.58789 0 3.85742-0.976562 4.78516-3.71094l6.29883-17.2363h28.8086l6.29883 17.2363c0.927734 2.73438 2.19727 3.71094 4.73633 3.71094 2.58789 0 4.24805-1.5625 4.24805-4.00391 0-0.830078-0.146484-1.61133-0.537109-2.63672l-22.9004-60.9863c-1.12305-2.97852-3.125-4.49219-6.25-4.49219-3.02734 0-5.07812 1.46484-6.15234 4.44336l-22.9004 61.084c-0.390625 1.02539-0.537109 1.80664-0.537109 2.63672 0 2.44141 1.5625 3.95508 4.10156 3.95508Zm13.4766-28.3691 11.8652-32.8613h0.244141l11.8652 32.8613Z"/>
  </g>
  <line style="fill:none;stroke:#00AEEF;stroke-width:0.5;opacity:1.0;" x1="792.836" x2="792.836" y1="1919" y2="1933"/>
  <text style="stroke:none;fill:black;font-family:sans-serif;font-size:13;font-weight:bold;" transform="matrix(1 0 0 1 776 1953)">Margins</text>
  <text style="stroke:none;fill:black;font-family:sans-serif;font-size:13;" transform="matrix(1 0 0 1 776 1971)">Leading and trailing margins on the left and right side of each symbol</text>
  <text style="stroke:none;fill:black;font-family:sans-serif;font-size:13;" transform="matrix(1 0 0 1 776 1989)">can be adjusted by modifying the x-location of the margin guidelines.</text>
  <text style="stroke:none;fill:black;font-family:sans-serif;font-size:13;" transform="matrix(1 0 0 1 776 2007)">Modifications are automatically applied proportionally to all</text>
  <text style="stroke:none;fill:black;font-family:sans-serif;font-size:13;" transform="matrix(1 0 0 1 776 2025)">scales and weights.</text>
  <g transform="matrix(0.2 0 0 0.2 1289 1933)">
   <path d="m14.209 9.32617 8.49609 8.54492c4.29688 4.3457 9.22852 4.05273 13.8672-1.07422l53.4668-58.9355-4.83398-4.88281-53.0762 58.3984c-1.75781 2.00195-3.41797 2.49023-5.76172 0.146484l-5.85938-5.81055c-2.34375-2.29492-1.80664-4.00391 0.195312-5.81055l57.373-54.0039-4.88281-4.83398-57.959 54.4434c-4.93164 4.58984-5.32227 9.47266-1.02539 13.8184Zm32.0801-90.9668c-2.09961 2.05078-2.24609 4.93164-1.07422 6.88477 1.17188 1.80664 3.4668 2.97852 6.68945 2.14844 7.32422-1.70898 14.9414-2.00195 22.0703 2.68555l-2.92969 7.27539c-1.70898 4.15039-0.830078 7.08008 1.85547 9.81445l11.4746 11.5723c2.44141 2.44141 4.49219 2.53906 7.32422 2.05078l5.32227-0.976562 3.32031 3.36914-0.195312 2.7832c-0.195312 2.49023 0.439453 4.39453 2.88086 6.78711l3.80859 3.71094c2.39258 2.39258 5.46875 2.53906 7.8125 0.195312l14.5508-14.5996c2.34375-2.34375 2.24609-5.32227-0.146484-7.71484l-3.85742-3.80859c-2.39258-2.39258-4.24805-3.17383-6.64062-2.97852l-2.88086 0.244141-3.22266-3.17383 1.2207-5.61523c0.634766-2.83203-0.146484-5.0293-3.07617-7.95898l-10.9863-10.9375c-16.6992-16.6016-38.8672-16.2109-53.3203-1.75781Zm7.4707 1.85547c12.1582-8.88672 28.6133-7.37305 39.7461 3.75977l12.1582 12.0605c1.17188 1.17188 1.36719 2.09961 1.02539 3.80859l-1.61133 7.42188 7.51953 7.42188 4.93164-0.292969c1.26953-0.0488281 1.66016 0.0488281 2.63672 1.02539l2.88086 2.88086-12.207 12.207-2.88086-2.88086c-0.976562-0.976562-1.12305-1.36719-1.07422-2.68555l0.341797-4.88281-7.4707-7.42188-7.61719 1.26953c-1.61133 0.341797-2.34375 0.195312-3.56445-0.976562l-10.0098-10.0098c-1.26953-1.17188-1.41602-2.00195-0.634766-3.85742l4.39453-10.4492c-7.8125-7.27539-17.9688-10.4004-28.125-7.42188-0.78125 0.195312-1.07422-0.439453-0.439453-0.976562Z"/>
  </g>
  <text style="stroke:none;fill:black;font-family:sans-serif;font-size:13;font-weight:bold;" transform="matrix(1 0 0 1 1289 1953)">Exporting</text>
  <text style="stroke:none;fill:black;font-family:sans-serif;font-size:13;" transform="matrix(1 0 0 1 1289 1971)">Symbols should be outlined when exporting to ensure the</text>
  <text style="stroke:none;fill:black;font-family:sans-serif;font-size:13;" transform="matrix(1 0 0 1 1289 1989)">design is preserved when submitting to Xcode.</text>
  <text id="template-version" style="stroke:none;fill:black;font-family:sans-serif;font-size:13;text-anchor:end;" transform="matrix(1 0 0 1 3036 1933)">Template v.6.0</text>
  <text style="stroke:none;fill:black;font-family:sans-serif;font-size:13;text-anchor:end;" transform="matrix(1 0 0 1 3036 1951)">Requires Xcode 16 or greater</text>
  <text id="descriptive-name" style="stroke:none;fill:black;font-family:sans-serif;font-size:13;text-anchor:end;" transform="matrix(1 0 0 1 3036 1969)">Generated from square</text>
  <text style="stroke:none;fill:black;font-family:sans-serif;font-size:13;text-anchor:end;" transform="matrix(1 0 0 1 3036 1987)">Typeset at 100.0 points</text>
  <text style="stroke:none;fill:black;font-family:sans-serif;font-size:13;" transform="matrix(1 0 0 1 263 726)">Small</text>
  <text style="stroke:none;fill:black;font-family:sans-serif;font-size:13;" transform="matrix(1 0 0 1 263 1156)">Medium</text>
  <text style="stroke:none;fill:black;font-family:sans-serif;font-size:13;" transform="matrix(1 0 0 1 263 1586)">Large</text>
 </g>
 <g id="Guides">
  <g id="H-reference" style="fill:#27AAE1;stroke:none;" transform="matrix(1 0 0 1 339 696)">
   <path d="M0.993654 0L3.63775 0L29.3281-67.1323L30.0303-67.1323L30.0303-70.459L28.1226-70.459ZM11.6885-24.4799L46.9815-24.4799L46.2315-26.7285L12.4385-26.7285ZM55.1196 0L57.7637 0L30.6382-70.459L29.4326-70.459L29.4326-67.1323Z"/>
  </g>
  <line id="Baseline-S" style="fill:none;stroke:#27AAE1;opacity:1;stroke-width:0.5;" x1="263" x2="3036" y1="696" y2="696"/>
  <line id="Capline-S" style="fill:none;stroke:#27AAE1;opacity:1;stroke-width:0.5;" x1="263" x2="3036" y1="625.541" y2="625.541"/>
  <g id="H-reference" style="fill:#27AAE1;stroke:none;" transform="matrix(1 0 0 1 339 1126)">
   <path d="M0.993654 0L3.63775 0L29.3281-67.1323L30.0303-67.1323L30.0303-70.459L28.1226-70.459ZM11.6885-24.4799L46.9815-24.4799L46.2315-26.7285L12.4385-26.7285ZM55.1196 0L57.7637 0L30.6382-70.459L29.4326-70.459L29.4326-67.1323Z"/>
  </g>
  <line id="Baseline-M" style="fill:none;stroke:#27AAE1;opacity:1;stroke-width:0.5;" x1="263" x2="3036" y1="1126" y2="1126"/>
  <line id="Capline-M" style="fill:none;stroke:#27AAE1;opacity:1;stroke-width:0.5;" x1="263" x2="3036" y1="1055.54" y2="1055.54"/>
  <g id="H-reference" style="fill:#27AAE1;stroke:none;" transform="matrix(1 0 0 1 339 1556)">
   <path d="M0.993654 0L3.63775 0L29.3281-67.1323L30.0303-67.1323L30.0303-70.459L28.1226-70.459ZM11.6885-24.4799L46.9815-24.4799L46.2315-26.7285L12.4385-26.7285ZM55.1196 0L57.7637 0L30.6382-70.459L29.4326-70.459L29.4326-67.1323Z"/>
  </g>
  <line id="Baseline-L" style="fill:none;stroke:#27AAE1;opacity:1;stroke-width:0.5;" x1="263" x2="3036" y1="1556" y2="1556"/>
  <line id="Capline-L" style="fill:none;stroke:#27AAE1;opacity:1;stroke-width:0.5;" x1="263" x2="3036" y1="1485.54" y2="1485.54"/>
  <line id="right-margin-Black-S" style="fill:none;stroke:#00AEEF;stroke-width:0.5;opacity:1.0;" x1="2981.3" x2="2981.3" y1="600.785" y2="720.121"/>
  <line id="left-margin-Black-S" style="fill:none;stroke:#00AEEF;stroke-width:0.5;opacity:1.0;" x1="2885.5" x2="2885.5" y1="600.785" y2="720.121"/>
  <line id="right-margin-Regular-S" style="fill:none;stroke:#00AEEF;stroke-width:0.5;opacity:1.0;" x1="1495.18" x2="1495.18" y1="600.785" y2="720.121"/>
  <line id="left-margin-Regular-S" style="fill:none;stroke:#00AEEF;stroke-width:0.5;opacity:1.0;" x1="1404.51" x2="1404.51" y1="600.785" y2="720.121"/>
  <line id="right-margin-Ultralight-S" style="fill:none;stroke:#00AEEF;stroke-width:0.5;opacity:1.0;" x1="603.073" x2="603.073" y1="600.785" y2="720.121"/>
  <line id="left-margin-Ultralight-S" style="fill:none;stroke:#00AEEF;stroke-width:0.5;opacity:1.0;" x1="516.35" x2="516.35" y1="600.785" y2="720.121"/>
 </g>
 <g id="Symbols">
  <g id="Black-S"><path d="M2945.45803,631.65628c-0.43156,0.19083 -2.29579,2.0668 -9.91123,9.97582c-7.95306,8.26132 -9.40627,9.7204 -9.556,9.5971c-0.09688,-0.0822 -2.37212,-2.14313 -5.05837,-4.58277c-2.68331,-2.43964 -5.09653,-4.53873 -5.36075,-4.66791c-0.32881,-0.15853 -0.7222,-0.23193 -1.25065,-0.23193c-0.75156,0 -0.8367,0.03523 -4.05433,1.6323c-1.80551,0.89835 -3.48185,1.80258 -3.71965,2.01395c-0.57542,0.50496 -0.90422,1.17725 -0.98055,1.99634c-0.1145,1.26533 -0.0822,1.30349 6.00076,7.62131c3.01212,3.12662 5.47819,5.71892 5.47819,5.75709c0,0.03817 -2.46606,2.63047 -5.47819,5.76002c-6.08002,6.32076 -6.11525,6.36186 -6.00076,7.62425c0.07633,0.82202 0.40514,1.49138 0.98055,1.99634c0.24073,0.21138 1.92588,1.12441 3.74901,2.02863c3.1002,1.53835 3.35267,1.64111 4.00148,1.64698c0.46092,0.00587 0.86899,-0.07339 1.22129,-0.23486c0.31707,-0.14385 2.51891,-1.96404 5.52809,-4.56809c2.75084,-2.38093 5.07892,-4.39194 5.1758,-4.47121c0.14973,-0.1233 1.60001,1.33285 9.43857,9.47673c10.06096,10.45142 9.6793,10.10206 10.97399,10.10206c0.32881,0 0.77211,-0.07339 0.98936,-0.1644c0.61945,-0.25835 12.30096,-7.58315 12.73546,-7.98535c0.21431,-0.19963 0.50496,-0.57542 0.64587,-0.83376l0.25248,-0.46973v-19.90466v-19.90466l-0.25248,-0.46973c-0.14092,-0.25835 -0.40514,-0.61064 -0.58716,-0.78386c-0.3611,-0.33762 -11.43197,-7.32186 -12.47711,-7.86792c-0.78092,-0.41101 -1.68221,-0.4433 -2.48368,-0.08807M2955.4456,660.77933v17.46208l-2.31927,1.44441c-1.27413,0.7956 -2.59524,1.62349 -2.93579,1.83781l-0.61652,0.39046v-21.13182v-21.13476l2.93579,1.83487l2.93579,1.83193v17.46502M2943.70243,644.71762v2.97396l-5.36369,4.62974c-2.95047,2.54827 -5.45176,4.69433 -5.56039,4.7736c-0.1644,0.11743 -0.34349,0.00587 -1.18312,-0.7545c-0.54312,-0.49321 -1.0011,-0.93065 -1.01872,-0.97175c-0.03229,-0.07633 12.96739,-13.62207 13.07308,-13.62207c0.02936,0 0.05284,1.33872 0.05284,2.97102M2928.84439,661.76869l14.8551,13.50464l0.00294,2.26056c0,1.24184 -0.02349,2.26056 -0.04991,2.26056c-0.02936,0 -2.81249,-2.86827 -6.18865,-6.37067c-3.37322,-3.5024 -6.77287,-7.03122 -7.55085,-7.83856c-0.78092,-0.80734 -4.18644,-4.34791 -7.57141,-7.86792c-3.38497,-3.52001 -6.79342,-7.04883 -7.57434,-7.8415c-1.14496,-1.16257 -1.38569,-1.46496 -1.24478,-1.55597c0.09688,-0.06165 0.24073,-0.09982 0.32,-0.08514c0.07927,0.01761 6.83159,6.10645 15.00189,13.534M2943.70243,661.41933v5.93617l-3.31744,-3.02093c-1.82606,-1.65872 -3.32625,-3.05029 -3.33799,-3.08552c-0.01761,-0.05578 6.53801,-5.75415 6.62608,-5.76002c0.01468,-0.00294 0.02936,2.66863 0.02936,5.9303M2922.21244,666.14302c0,0.14973 -8.18792,7.19269 -8.36113,7.18975c-0.63707,-0.00587 -0.43743,-0.25541 3.43781,-4.28038l3.92222,-4.06901l0.50202,0.52844c0.27303,0.29064 0.49908,0.57542 0.49908,0.6312" className="SFSymbolsPreviewWireframe"/></g>
  <g id="Regular-S"><path d="M1461.90298,631.65628c-0.43156,0.19083 -2.29579,2.0668 -9.91123,9.97582c-7.95306,8.26132 -9.40627,9.7204 -9.556,9.5971c-0.09688,-0.0822 -2.37212,-2.14313 -5.05837,-4.58277c-2.68331,-2.43964 -5.09653,-4.53873 -5.36075,-4.66791c-0.32881,-0.15853 -0.7222,-0.23193 -1.25065,-0.23193c-0.75156,0 -0.8367,0.03523 -4.05433,1.6323c-1.80551,0.89835 -3.48185,1.80258 -3.71965,2.01395c-0.57542,0.50496 -0.90422,1.17725 -0.98055,1.99634c-0.1145,1.26533 -0.0822,1.30349 6.00076,7.62131c3.01212,3.12662 5.47819,5.71892 5.47819,5.75709c0,0.03817 -2.46606,2.63047 -5.47819,5.76002c-6.08002,6.32076 -6.11525,6.36186 -6.00076,7.62425c0.07633,0.82202 0.40514,1.49138 0.98055,1.99634c0.24073,0.21138 1.92588,1.12441 3.74901,2.02863c3.1002,1.53835 3.35267,1.64111 4.00148,1.64698c0.46092,0.00587 0.86899,-0.07339 1.22129,-0.23486c0.31707,-0.14385 2.51891,-1.96404 5.52809,-4.56809c2.75084,-2.38093 5.07892,-4.39194 5.1758,-4.47121c0.14973,-0.1233 1.60001,1.33285 9.43857,9.47673c10.06096,10.45142 9.6793,10.10206 10.97399,10.10206c0.32881,0 0.77211,-0.07339 0.98936,-0.1644c0.61945,-0.25835 12.30096,-7.58315 12.73546,-7.98535c0.21431,-0.19963 0.50496,-0.57542 0.64587,-0.83376l0.25248,-0.46973v-19.90466v-19.90466l-0.25248,-0.46973c-0.14092,-0.25835 -0.40514,-0.61064 -0.58716,-0.78386c-0.3611,-0.33762 -11.43197,-7.32186 -12.47711,-7.86792c-0.78092,-0.41101 -1.68221,-0.4433 -2.48368,-0.08807M1471.89055,660.77933v17.46208l-2.31927,1.44441c-1.27413,0.7956 -2.59524,1.62349 -2.93579,1.83781l-0.61652,0.39046v-21.13182v-21.13476l2.93579,1.83487l2.93579,1.83193v17.46502M1460.14738,644.71762v2.97396l-5.36369,4.62974c-2.95047,2.54827 -5.45176,4.69433 -5.56039,4.7736c-0.1644,0.11743 -0.34349,0.00587 -1.18312,-0.7545c-0.54312,-0.49321 -1.0011,-0.93065 -1.01872,-0.97175c-0.03229,-0.07633 12.96739,-13.62207 13.07308,-13.62207c0.02936,0 0.05284,1.33872 0.05284,2.97102M1445.28934,661.76869l14.8551,13.50464l0.00294,2.26056c0,1.24184 -0.02349,2.26056 -0.04991,2.26056c-0.02936,0 -2.81249,-2.86827 -6.18865,-6.37067c-3.37322,-3.5024 -6.77287,-7.03122 -7.55085,-7.83856c-0.78092,-0.80734 -4.18644,-4.34791 -7.57141,-7.86792c-3.38497,-3.52001 -6.79342,-7.04883 -7.57434,-7.8415c-1.14496,-1.16257 -1.38569,-1.46496 -1.24478,-1.55597c0.09688,-0.06165 0.24073,-0.09982 0.32,-0.08514c0.07927,0.01761 6.83159,6.10645 15.00189,13.534M1460.14738,661.41933v5.93617l-3.31744,-3.02093c-1.82606,-1.65872 -3.32625,-3.05029 -3.33799,-3.08552c-0.01761,-0.05578 6.53801,-5.75415 6.62608,-5.76002c0.01468,-0.00294 0.02936,2.66863 0.02936,5.9303M1438.65739,666.14302c0,0.14973 -8.18792,7.19269 -8.36113,7.18975c-0.63707,-0.00587 -0.43743,-0.25541 3.43781,-4.28038l3.92222,-4.06901l0.50202,0.52844c0.27303,0.29064 0.49908,0.57542 0.49908,0.6312" className="SFSymbolsPreviewWireframe"/></g>
  <g id="Ultralight-S"><path d="M571.76939,631.65628c-0.43156,0.19083 -2.29579,2.0668 -9.91123,9.97582c-7.95306,8.26132 -9.40627,9.7204 -9.556,9.5971c-0.09688,-0.0822 -2.37212,-2.14313 -5.05837,-4.58277c-2.68331,-2.43964 -5.09653,-4.53873 -5.36075,-4.66791c-0.32881,-0.15853 -0.7222,-0.23193 -1.25065,-0.23193c-0.75156,0 -0.8367,0.03523 -4.05433,1.6323c-1.80551,0.89835 -3.48185,1.80258 -3.71965,2.01395c-0.57542,0.50496 -0.90422,1.17725 -0.98055,1.99634c-0.1145,1.26533 -0.0822,1.30349 6.00076,7.62131c3.01212,3.12662 5.47819,5.71892 5.47819,5.75709c0,0.03817 -2.46606,2.63047 -5.47819,5.76002c-6.08002,6.32076 -6.11525,6.36186 -6.00076,7.62425c0.07633,0.82202 0.40514,1.49138 0.98055,1.99634c0.24073,0.21138 1.92588,1.12441 3.74901,2.02863c3.1002,1.53835 3.35267,1.64111 4.00148,1.64698c0.46092,0.00587 0.86899,-0.07339 1.22129,-0.23486c0.31707,-0.14385 2.51891,-1.96404 5.52809,-4.56809c2.75084,-2.38093 5.07892,-4.39194 5.1758,-4.47121c0.14973,-0.1233 1.60001,1.33285 9.43857,9.47673c10.06096,10.45142 9.6793,10.10206 10.97399,10.10206c0.32881,0 0.77211,-0.07339 0.98936,-0.1644c0.61945,-0.25835 12.30096,-7.58315 12.73546,-7.98535c0.21431,-0.19963 0.50496,-0.57542 0.64587,-0.83376l0.25248,-0.46973v-19.90466v-19.90466l-0.25248,-0.46973c-0.14092,-0.25835 -0.40514,-0.61064 -0.58716,-0.78386c-0.3611,-0.33762 -11.43197,-7.32186 -12.47711,-7.86792c-0.78092,-0.41101 -1.68221,-0.4433 -2.48368,-0.08807M581.75696,660.77933v17.46208l-2.31927,1.44441c-1.27413,0.7956 -2.59524,1.62349 -2.93579,1.83781l-0.61652,0.39046v-21.13182v-21.13476l2.93579,1.83487l2.93579,1.83193v17.46502M570.01379,644.71762v2.97396l-5.36369,4.62974c-2.95047,2.54827 -5.45176,4.69433 -5.56039,4.7736c-0.1644,0.11743 -0.34349,0.00587 -1.18312,-0.7545c-0.54312,-0.49321 -1.0011,-0.93065 -1.01872,-0.97175c-0.03229,-0.07633 12.96739,-13.62207 13.07308,-13.62207c0.02936,0 0.05284,1.33872 0.05284,2.97102M555.15575,661.76869l14.8551,13.50464l0.00294,2.26056c0,1.24184 -0.02349,2.26056 -0.04991,2.26056c-0.02936,0 -2.81249,-2.86827 -6.18865,-6.37067c-3.37322,-3.5024 -6.77287,-7.03122 -7.55085,-7.83856c-0.78092,-0.80734 -4.18644,-4.34791 -7.57141,-7.86792c-3.38497,-3.52001 -6.79342,-7.04883 -7.57434,-7.8415c-1.14496,-1.16257 -1.38569,-1.46496 -1.24478,-1.55597c0.09688,-0.06165 0.24073,-0.09982 0.32,-0.08514c0.07927,0.01761 6.83159,6.10645 15.00189,13.534M570.01379,661.41933v5.93617l-3.31744,-3.02093c-1.82606,-1.65872 -3.32625,-3.05029 -3.33799,-3.08552c-0.01761,-0.05578 6.53801,-5.75415 6.62608,-5.76002c0.01468,-0.00294 0.02936,2.66863 0.02936,5.9303M548.5238,666.14302c0,0.14973 -8.18792,7.19269 -8.36113,7.18975c-0.63707,-0.00587 -0.43743,-0.25541 3.43781,-4.28038l3.92222,-4.06901l0.50202,0.52844c0.27303,0.29064 0.49908,0.57542 0.49908,0.6312" className="SFSymbolsPreviewWireframe"/></g>
 </g>
</svg>