<?xml version="1.0" encoding="UTF-8"?><!--Generator: https://SymbolKit.app--><!DOCTYPE svg PUBLIC "-//W3C//DTD SVG 1.1//EN" "http://www.w3.org/Graphics/SVG/1.1/DTD/svg11.dtd"><svg xmlns="http://www.w3.org/2000/svg" xmlns:xlink="http://www.w3.org/1999/xlink" version="1.1" viewBox="0 0 3300 2200">
 <!--glyph: "100092", point size: 100.0, font version: "20.0d10e1", template writer version: "138.0.0"-->
 <style>.SFSymbolsPreviewWireframe {fill:none;opacity:1.0;stroke:black;stroke-width:0.5}
</style>
 <g id="Notes">
  <rect height="2200" id="artboard" style="fill:white;opacity:1" width="3300" x="0" y="0"/>
  <line style="fill:none;stroke:black;opacity:1;stroke-width:0.5;" x1="263" x2="3036" y1="292" y2="292"/>
  <text style="stroke:none;fill:black;font-family:sans-serif;font-size:13;font-weight:bold;" transform="matrix(1 0 0 1 263 322)">Weight/Scale Variations</text>
  <text style="stroke:none;fill:black;font-family:sans-serif;font-size:13;text-anchor:middle;" transform="matrix(1 0 0 1 559.711 322)">Ultralight</text>
  <text style="stroke:none;fill:black;font-family:sans-serif;font-size:13;text-anchor:middle;" transform="matrix(1 0 0 1 856.422 322)">Thin</text>
  <text style="stroke:none;fill:black;font-family:sans-serif;font-size:13;text-anchor:middle;" transform="matrix(1 0 0 1 1153.13 322)">Light</text>
  <text style="stroke:none;fill:black;font-family:sans-serif;font-size:13;text-anchor:middle;" transform="matrix(1 0 0 1 1449.84 322)">Regular</text>
  <text style="stroke:none;fill:black;font-family:sans-serif;font-size:13;text-anchor:middle;" transform="matrix(1 0 0 1 1746.56 322)">Medium</text>
  <text style="stroke:none;fill:black;font-family:sans-serif;font-size:13;text-anchor:middle;" transform="matrix(1 0 0 1 2043.27 322)">Semibold</text>
  <text style="stroke:none;fill:black;font-family:sans-serif;font-size:13;text-anchor:middle;" transform="matrix(1 0 0 1 2339.98 322)">Bold</text>
  <text style="stroke:none;fill:black;font-family:sans-serif;font-size:13;text-anchor:middle;" transform="matrix(1 0 0 1 2636.69 322)">Heavy</text>
  <text style="stroke:none;fill:black;font-family:sans-serif;font-size:13;text-anchor:middle;" transform="matrix(1 0 0 1 2933.4 322)">Black</text>
  <line style="fill:none;stroke:black;opacity:1;stroke-width:0.5;" x1="263" x2="3036" y1="1903" y2="1903"/>
  <g transform="matrix(0.2 0 0 0.2 263 1933)">
   <path d="m46.2402 4.15039c21.7773 0 39.4531-17.627 39.4531-39.4043s-17.6758-39.4043-39.4531-39.4043c-21.7285 0-39.4043 17.627-39.4043 39.4043s17.6758 39.4043 39.4043 39.4043Zm0-7.42188c-17.6758 0-31.9336-14.3066-31.9336-31.9824s14.2578-31.9824 31.9336-31.9824 31.9824 14.3066 31.9824 31.9824-14.3066 31.9824-31.9824 31.9824Zm-17.9688-31.9824c0 2.14844 1.51367 3.61328 3.75977 3.61328h10.498v10.5957c0 2.19727 1.46484 3.71094 3.61328 3.71094 2.24609 0 3.71094-1.51367 3.71094-3.71094v-10.5957h10.5957c2.19727 0 3.71094-1.46484 3.71094-3.61328 0-2.19727-1.51367-3.71094-3.71094-3.71094h-10.5957v-10.5469c0-2.24609-1.46484-3.75977-3.71094-3.75977-2.14844 0-3.61328 1.51367-3.61328 3.75977v10.5469h-10.498c-2.24609 0-3.75977 1.51367-3.75977 3.71094Z"/>
  </g>
  <g transform="matrix(0.2 0 0 0.2 281.506 1933)">
   <path d="m58.5449 14.5508c27.4902 0 49.8047-22.3145 49.8047-49.8047s-22.3145-49.8047-49.8047-49.8047-49.8047 22.3145-49.8047 49.8047 22.3145 49.8047 49.8047 49.8047Zm0-8.30078c-22.9492 0-41.5039-18.5547-41.5039-41.5039s18.5547-41.5039 41.5039-41.5039 41.5039 18.5547 41.5039 41.5039-18.5547 41.5039-41.5039 41.5039Zm-22.6562-41.5039c0 2.39258 1.66016 4.00391 4.15039 4.00391h14.3555v14.4043c0 2.44141 1.66016 4.15039 4.05273 4.15039 2.44141 0 4.15039-1.66016 4.15039-4.15039v-14.4043h14.4043c2.44141 0 4.15039-1.61133 4.15039-4.00391 0-2.44141-1.70898-4.15039-4.15039-4.15039h-14.4043v-14.3555c0-2.49023-1.70898-4.19922-4.15039-4.19922-2.39258 0-4.05273 1.70898-4.05273 4.19922v14.3555h-14.3555c-2.49023 0-4.15039 1.70898-4.15039 4.15039Z"/>
  </g>
  <g transform="matrix(0.2 0 0 0.2 304.924 1933)">
   <path d="m74.8535 28.3203c35.1074 0 63.623-28.4668 63.623-63.5742s-28.5156-63.623-63.623-63.623-63.5742 28.5156-63.5742 63.623 28.4668 63.5742 63.5742 63.5742Zm0-9.08203c-30.127 0-54.4922-24.3652-54.4922-54.4922s24.3652-54.4922 54.4922-54.4922 54.4922 24.3652 54.4922 54.4922-24.3652 54.4922-54.4922 54.4922Zm-28.8574-54.4922c0 2.58789 1.85547 4.39453 4.58984 4.39453h19.7266v19.7754c0 2.68555 1.85547 4.58984 4.44336 4.58984 2.68555 0 4.54102-1.85547 4.54102-4.58984v-19.7754h19.7754c2.68555 0 4.58984-1.80664 4.58984-4.39453 0-2.73438-1.85547-4.58984-4.58984-4.58984h-19.7754v-19.7266c0-2.73438-1.85547-4.63867-4.54102-4.63867-2.58789 0-4.44336 1.9043-4.44336 4.63867v19.7266h-19.7266c-2.73438 0-4.58984 1.85547-4.58984 4.58984Z"/>
  </g>
  <text style="stroke:none;fill:black;font-family:sans-serif;font-size:13;font-weight:bold;" transform="matrix(1 0 0 1 263 1953)">Design Variations</text>
  <text style="stroke:none;fill:black;font-family:sans-serif;font-size:13;" transform="matrix(1 0 0 1 263 1971)">Symbols are supported in up to nine weights and three scales.</text>
  <text style="stroke:none;fill:black;font-family:sans-serif;font-size:13;" transform="matrix(1 0 0 1 263 1989)">For optimal layout with text and other symbols, vertically align</text>
  <text style="stroke:none;fill:black;font-family:sans-serif;font-size:13;" transform="matrix(1 0 0 1 263 2007)">symbols with the adjacent text.</text>
  <line style="fill:none;stroke:#00AEEF;stroke-width:0.5;opacity:1.0;" x1="776" x2="776" y1="1919" y2="1933"/>
  <g transform="matrix(0.2 0 0 0.2 776 1933)">
   <path d="m16.5527 0.78125c2.58789 0 3.85742-0.976562 4.78516-3.71094l6.29883-17.2363h28.8086l6.29883 17.2363c0.927734 2.73438 2.19727 3.71094 4.73633 3.71094 2.58789 0 4.24805-1.5625 4.24805-4.00391 0-0.830078-0.146484-1.61133-0.537109-2.63672l-22.9004-60.9863c-1.12305-2.97852-3.125-4.49219-6.25-4.49219-3.02734 0-5.07812 1.46484-6.15234 4.44336l-22.9004 61.084c-0.390625 1.02539-0.537109 1.80664-0.537109 2.63672 0 2.44141 1.5625 3.95508 4.10156 3.95508Zm13.4766-28.3691 11.8652-32.8613h0.244141l11.8652 32.8613Z"/>
  </g>
  <line style="fill:none;stroke:#00AEEF;stroke-width:0.5;opacity:1.0;" x1="792.836" x2="792.836" y1="1919" y2="1933"/>
  <text style="stroke:none;fill:black;font-family:sans-serif;font-size:13;font-weight:bold;" transform="matrix(1 0 0 1 776 1953)">Margins</text>
  <text style="stroke:none;fill:black;font-family:sans-serif;font-size:13;" transform="matrix(1 0 0 1 776 1971)">Leading and trailing margins on the left and right side of each symbol</text>
  <text style="stroke:none;fill:black;font-family:sans-serif;font-size:13;" transform="matrix(1 0 0 1 776 1989)">can be adjusted by modifying the x-location of the margin guidelines.</text>
  <text style="stroke:none;fill:black;font-family:sans-serif;font-size:13;" transform="matrix(1 0 0 1 776 2007)">Modifications are automatically applied proportionally to all</text>
  <text style="stroke:none;fill:black;font-family:sans-serif;font-size:13;" transform="matrix(1 0 0 1 776 2025)">scales and weights.</text>
  <g transform="matrix(0.2 0 0 0.2 1289 1933)">
   <path d="m14.209 9.32617 8.49609 8.54492c4.29688 4.3457 9.22852 4.05273 13.8672-1.07422l53.4668-58.9355-4.83398-4.88281-53.0762 58.3984c-1.75781 2.00195-3.41797 2.49023-5.76172 0.146484l-5.85938-5.81055c-2.34375-2.29492-1.80664-4.00391 0.195312-5.81055l57.373-54.0039-4.88281-4.83398-57.959 54.4434c-4.93164 4.58984-5.32227 9.47266-1.02539 13.8184Zm32.0801-90.9668c-2.09961 2.05078-2.24609 4.93164-1.07422 6.88477 1.17188 1.80664 3.4668 2.97852 6.68945 2.14844 7.32422-1.70898 14.9414-2.00195 22.0703 2.68555l-2.92969 7.27539c-1.70898 4.15039-0.830078 7.08008 1.85547 9.81445l11.4746 11.5723c2.44141 2.44141 4.49219 2.53906 7.32422 2.05078l5.32227-0.976562 3.32031 3.36914-0.195312 2.7832c-0.195312 2.49023 0.439453 4.39453 2.88086 6.78711l3.80859 3.71094c2.39258 2.39258 5.46875 2.53906 7.8125 0.195312l14.5508-14.5996c2.34375-2.34375 2.24609-5.32227-0.146484-7.71484l-3.85742-3.80859c-2.39258-2.39258-4.24805-3.17383-6.64062-2.97852l-2.88086 0.244141-3.22266-3.17383 1.2207-5.61523c0.634766-2.83203-0.146484-5.0293-3.07617-7.95898l-10.9863-10.9375c-16.6992-16.6016-38.8672-16.2109-53.3203-1.75781Zm7.4707 1.85547c12.1582-8.88672 28.6133-7.37305 39.7461 3.75977l12.1582 12.0605c1.17188 1.17188 1.36719 2.09961 1.02539 3.80859l-1.61133 7.42188 7.51953 7.42188 4.93164-0.292969c1.26953-0.0488281 1.66016 0.0488281 2.63672 1.02539l2.88086 2.88086-12.207 12.207-2.88086-2.88086c-0.976562-0.976562-1.12305-1.36719-1.07422-2.68555l0.341797-4.88281-7.4707-7.42188-7.61719 1.26953c-1.61133 0.341797-2.34375 0.195312-3.56445-0.976562l-10.0098-10.0098c-1.26953-1.17188-1.41602-2.00195-0.634766-3.85742l4.39453-10.4492c-7.8125-7.27539-17.9688-10.4004-28.125-7.42188-0.78125 0.195312-1.07422-0.439453-0.439453-0.976562Z"/>
  </g>
  <text style="stroke:none;fill:black;font-family:sans-serif;font-size:13;font-weight:bold;" transform="matrix(1 0 0 1 1289 1953)">Exporting</text>
  <text style="stroke:none;fill:black;font-family:sans-serif;font-size:13;" transform="matrix(1 0 0 1 1289 1971)">Symbols should be outlined when exporting to ensure the</text>
  <text style="stroke:none;fill:black;font-family:sans-serif;font-size:13;" transform="matrix(1 0 0 1 1289 1989)">design is preserved when submitting to Xcode.</text>
  <text id="template-version" style="stroke:none;fill:black;font-family:sans-serif;font-size:13;text-anchor:end;" transform="matrix(1 0 0 1 3036 1933)">Template v.6.0</text>
  <text style="stroke:none;fill:black;font-family:sans-serif;font-size:13;text-anchor:end;" transform="matrix(1 0 0 1 3036 1951)">Requires Xcode 16 or greater</text>
  <text id="descriptive-name" style="stroke:none;fill:black;font-family:sans-serif;font-size:13;text-anchor:end;" transform="matrix(1 0 0 1 3036 1969)">Generated from square</text>
  <text style="stroke:none;fill:black;font-family:sans-serif;font-size:13;text-anchor:end;" transform="matrix(1 0 0 1 3036 1987)">Typeset at 100.0 points</text>
  <text style="stroke:none;fill:black;font-family:sans-serif;font-size:13;" transform="matrix(1 0 0 1 263 726)">Small</text>
  <text style="stroke:none;fill:black;font-family:sans-serif;font-size:13;" transform="matrix(1 0 0 1 263 1156)">Medium</text>
  <text style="stroke:none;fill:black;font-family:sans-serif;font-size:13;" transform="matrix(1 0 0 1 263 1586)">Large</text>
 </g>
 <g id="Guides">
  <g id="H-reference" style="fill:#27AAE1;stroke:none;" transform="matrix(1 0 0 1 339 696)">
   <path d="M0.993654 0L3.63775 0L29.3281-67.1323L30.0303-67.1323L30.0303-70.459L28.1226-70.459ZM11.6885-24.4799L46.9815-24.4799L46.2315-26.7285L12.4385-26.7285ZM55.1196 0L57.7637 0L30.6382-70.459L29.4326-70.459L29.4326-67.1323Z"/>
  </g>
  <line id="Baseline-S" style="fill:none;stroke:#27AAE1;opacity:1;stroke-width:0.5;" x1="263" x2="3036" y1="696" y2="696"/>
  <line id="Capline-S" style="fill:none;stroke:#27AAE1;opacity:1;stroke-width:0.5;" x1="263" x2="3036" y1="625.541" y2="625.541"/>
  <g id="H-reference" style="fill:#27AAE1;stroke:none;" transform="matrix(1 0 0 1 339 1126)">
   <path d="M0.993654 0L3.63775 0L29.3281-67.1323L30.0303-67.1323L30.0303-70.459L28.1226-70.459ZM11.6885-24.4799L46.9815-24.4799L46.2315-26.7285L12.4385-26.7285ZM55.1196 0L57.7637 0L30.6382-70.459L29.4326-70.459L29.4326-67.1323Z"/>
  </g>
  <line id="Baseline-M" style="fill:none;stroke:#27AAE1;opacity:1;stroke-width:0.5;" x1="263" x2="3036" y1="1126" y2="1126"/>
  <line id="Capline-M" style="fill:none;stroke:#27AAE1;opacity:1;stroke-width:0.5;" x1="263" x2="3036" y1="1055.54" y2="1055.54"/>
  <g id="H-reference" style="fill:#27AAE1;stroke:none;" transform="matrix(1 0 0 1 339 1556)">
   <path d="M0.993654 0L3.63775 0L29.3281-67.1323L30.0303-67.1323L30.0303-70.459L28.1226-70.459ZM11.6885-24.4799L46.9815-24.4799L46.2315-26.7285L12.4385-26.7285ZM55.1196 0L57.7637 0L30.6382-70.459L29.4326-70.459L29.4326-67.1323Z"/>
  </g>
  <line id="Baseline-L" style="fill:none;stroke:#27AAE1;opacity:1;stroke-width:0.5;" x1="263" x2="3036" y1="1556" y2="1556"/>
  <line id="Capline-L" style="fill:none;stroke:#27AAE1;opacity:1;stroke-width:0.5;" x1="263" x2="3036" y1="1485.54" y2="1485.54"/>
  <line id="right-margin-Black-S" style="fill:none;stroke:#00AEEF;stroke-width:0.5;opacity:1.0;" x1="2981.3" x2="2981.3" y1="600.785" y2="720.121"/>
  <line id="left-margin-Black-S" style="fill:none;stroke:#00AEEF;stroke-width:0.5;opacity:1.0;" x1="2885.5" x2="2885.5" y1="600.785" y2="720.121"/>
  <line id="right-margin-Regular-S" style="fill:none;stroke:#00AEEF;stroke-width:0.5;opacity:1.0;" x1="1495.18" x2="1495.18" y1="600.785" y2="720.121"/>
  <line id="left-margin-Regular-S" style="fill:none;stroke:#00AEEF;stroke-width:0.5;opacity:1.0;" x1="1404.51" x2="1404.51" y1="600.785" y2="720.121"/>
  <line id="right-margin-Ultralight-S" style="fill:none;stroke:#00AEEF;stroke-width:0.5;opacity:1.0;" x1="603.073" x2="603.073" y1="600.785" y2="720.121"/>
  <line id="left-margin-Ultralight-S" style="fill:none;stroke:#00AEEF;stroke-width:0.5;opacity:1.0;" x1="516.35" x2="516.35" y1="600.785" y2="720.121"/>
 </g>
 <g id="Symbols">
  <g id="Black-S"><path d="M2924.85465,629.51571c-3.2646,0.33174 -5.81874,1.54716 -8.11159,3.85763c-2.7068,2.72441 -3.87231,5.68663 -3.87231,9.82609v1.6734l-0.85138,0.14385c-4.16295,0.69872 -7.86498,3.5435 -9.65582,7.41874c-1.89652,4.10424 -1.55303,8.91013 0.90716,12.68555c1.18606,1.82019 2.55707,3.09139 4.78534,4.43304c0.67817,0.41101 1.27707,0.78092 1.32991,0.82789c0.05578,0.04697 0.02055,0.2378 -0.07633,0.42569c-0.23486,0.44918 -0.73101,2.03157 -0.91597,2.91524c-0.1967,0.93065 -0.19963,3.91635 -0.00294,4.8147c0.47853,2.20184 1.22129,3.87524 2.43377,5.48993c1.96404,2.61873 4.56222,4.29213 7.84737,5.04956c1.53835,0.35817 4.18057,0.35523 5.6191,-0.00294c1.4767,-0.36991 2.70093,-0.88074 4.26864,-1.79083l1.37395,-0.7956l0.4345,0.54606c2.04918,2.58056 5.19635,4.40075 8.45508,4.8969c1.42973,0.21725 2.20184,0.21431 3.73139,-0.01468c3.11194,-0.46092 5.31965,-1.56478 7.48627,-3.7402c1.5912,-1.59707 2.469,-2.95341 3.16185,-4.88222c0.54019,-1.50312 0.66349,-2.28992 0.73395,-4.65616l0.06459,-2.24588l0.60184,-0.07633c0.33174,-0.04404 0.9923,-0.18495 1.4679,-0.31707c4.64442,-1.28881 8.11746,-4.92919 9.30352,-9.7527c0.21725,-0.89248 0.27009,-1.42973 0.27596,-2.91524c0.00294,-1.13909 -0.05284,-2.06093 -0.14973,-2.46606c-1.04514,-4.31268 -3.00919,-6.93727 -6.89911,-9.22719c-0.60771,-0.35817 -1.10679,-0.68991 -1.10679,-0.73982c0,-0.04697 0.16147,-0.52844 0.35817,-1.06863c0.59009,-1.61469 0.73395,-2.469 0.74276,-4.40662c0.01174,-2.98864 -0.7222,-5.3813 -2.35157,-7.66241c-3.23818,-4.54167 -8.95123,-6.62021 -14.24446,-5.18754c-1.15083,0.31413 -2.18129,0.77211 -3.78423,1.69102l-1.31523,0.75156l-0.27596,-0.37285c-0.50496,-0.68991 -1.72625,-1.87303 -2.6246,-2.54533c-2.66863,-1.99047 -5.92443,-2.90937 -9.14499,-2.58056M2927.94604,635.56932c0.98936,0.24073 2.37212,1.0011 3.1824,1.74973l0.70165,0.65175l-0.34936,0.21138c-0.19083,0.1145 -1.5501,0.9101 -3.01799,1.76735c-2.84185,1.65579 -3.44368,2.149 -3.71084,3.04148c-0.09982,0.33468 -0.13798,2.64221 -0.13798,8.33765v7.87673l-2.90643,-1.6734l-2.90643,-1.6734v-7.27489c0,-7.17214 0.00294,-7.2837 0.25835,-8.09398c1.18019,-3.74313 5.00552,-5.86277 8.88664,-4.92039M2947.38097,638.27612c2.14313,0.55486 4.12772,2.38973 4.93506,4.55341c0.51376,1.37689 0.5578,3.68148 0.09101,4.7824l-0.13798,0.32881l-2.99451,-1.75854c-1.64698,-0.96588 -3.17946,-1.80845 -3.40552,-1.87303c-0.54899,-0.15853 -1.25945,-0.14385 -1.76147,0.03817c-0.22606,0.07927 -3.34387,1.829 -6.92847,3.88405c-3.5846,2.05799 -6.55562,3.76368 -6.60553,3.79011c-0.04991,0.02642 -0.08514,-1.42092 -0.0822,-3.21763l0.00587,-3.2646l5.89507,-3.429c3.24111,-1.88478 6.19745,-3.53763 6.56443,-3.67561c1.28,-0.47266 2.97983,-0.53431 4.42424,-0.15853M2950.42832,653.65379c6.56443,3.82534 6.38535,3.71378 7.21911,4.50057c0.83083,0.78386 1.37101,1.64991 1.79964,2.88588c0.2789,0.80734 0.32587,1.13028 0.33174,2.28992c0.00587,1.4356 -0.12624,2.01982 -0.72808,3.2235c-0.96588,1.92588 -2.77726,3.39671 -4.75598,3.86644l-0.32294,0.07927v-3.62277c0,-4.08075 -0.04991,-4.40075 -0.80734,-5.17874c-0.28771,-0.29358 -2.54827,-1.61762 -6.94315,-4.05726c-3.5846,-1.9934 -6.58792,-3.68735 -6.67599,-3.76662c-0.12624,-0.11743 0.37285,-0.44624 2.64221,-1.74386c1.54129,-0.88074 2.81836,-1.60001 2.83891,-1.60001c0.02055,0 2.45139,1.40624 5.40186,3.12368M2912.87075,654.49342c0.00294,3.5435 0.00881,3.62277 0.2789,4.20405c0.15266,0.32587 0.49028,0.77505 0.75156,0.99817c0.26422,0.22312 3.41432,2.09028 7.0048,4.15121c3.59047,2.06093 6.51452,3.76075 6.49691,3.77836c-0.13211,0.12917 -5.578,3.10313 -5.68369,3.10313c-0.17321,0 -10.90059,-6.32076 -11.8283,-6.96957c-1.87303,-1.30936 -3.04442,-3.95157 -2.85359,-6.42645c0.21138,-2.73029 2.17542,-5.27268 4.80589,-6.22094c1.12147,-0.4022 1.02753,-0.7134 1.02753,3.38203M2934.88918,658.03105l1.40918,0.80441v1.92001v1.92001l-1.43854,0.80147l-1.4356,0.80147l-1.47377,-0.85432l-1.47083,-0.85725l0.03229,-1.87303l0.03229,-1.87597l1.35046,-0.78679c0.74276,-0.43156 1.40331,-0.78973 1.4679,-0.79266c0.06459,-0.00587 0.75156,0.35229 1.52661,0.79266M2946.08042,664.26961l2.02276,1.1156l-0.03229,7.45691l-0.02936,7.45691l-0.28477,0.80441c-0.54606,1.54716 -1.76147,3.11781 -3.05909,3.94864c-1.21835,0.78386 -3.1824,1.26533 -4.55048,1.11854c-1.61469,-0.17028 -3.29983,-0.93358 -4.44772,-2.00808c-0.64881,-0.60477 -0.67817,-0.65468 -0.45798,-0.77798c5.60736,-3.18827 6.54094,-3.85176 6.84626,-4.87341c0.10275,-0.34642 0.14092,-2.56295 0.14092,-8.41985v-7.95012l0.91597,0.50789c0.50496,0.27596 1.82606,1.00698 2.93579,1.62056M2936.35414,672.69533l-0.00587,3.25873l-5.80112,3.38203c-3.19414,1.86129 -6.12112,3.50827 -6.50571,3.658c-2.01689,0.78973 -4.47708,0.5989 -6.35599,-0.49321c-1.35927,-0.78973 -2.69212,-2.47487 -3.23818,-4.09543c-0.39046,-1.15083 -0.4433,-2.94166 -0.12624,-4.14827c0.11156,-0.41688 0.21725,-0.77505 0.2378,-0.7956c0.02055,-0.02055 1.30056,0.71046 2.84478,1.62349c1.54423,0.91303 2.9857,1.73799 3.20588,1.83193c0.48734,0.20844 1.55597,0.22018 2.05212,0.02055c0.32587,-0.12917 9.96995,-5.46351 12.52115,-6.9226c0.54899,-0.31413 1.03927,-0.57248 1.08624,-0.57542c0.04991,-0.00294 0.08514,1.46496 0.08514,3.25579" className="SFSymbolsPreviewWireframe"/></g>
  <g id="Regular-S"><path d="M1441.2996,629.51571c-3.2646,0.33174 -5.81874,1.54716 -8.11159,3.85763c-2.7068,2.72441 -3.87231,5.68663 -3.87231,9.82609v1.6734l-0.85138,0.14385c-4.16295,0.69872 -7.86498,3.5435 -9.65582,7.41874c-1.89652,4.10424 -1.55303,8.91013 0.90716,12.68555c1.18606,1.82019 2.55707,3.09139 4.78534,4.43304c0.67817,0.41101 1.27707,0.78092 1.32991,0.82789c0.05578,0.04697 0.02055,0.2378 -0.07633,0.42569c-0.23486,0.44918 -0.73101,2.03157 -0.91597,2.91524c-0.1967,0.93065 -0.19963,3.91635 -0.00294,4.8147c0.47853,2.20184 1.22129,3.87524 2.43377,5.48993c1.96404,2.61873 4.56222,4.29213 7.84737,5.04956c1.53835,0.35817 4.18057,0.35523 5.6191,-0.00294c1.4767,-0.36991 2.70093,-0.88074 4.26864,-1.79083l1.37395,-0.7956l0.4345,0.54606c2.04918,2.58056 5.19635,4.40075 8.45508,4.8969c1.42973,0.21725 2.20184,0.21431 3.73139,-0.01468c3.11194,-0.46092 5.31965,-1.56478 7.48627,-3.7402c1.5912,-1.59707 2.469,-2.95341 3.16185,-4.88222c0.54019,-1.50312 0.66349,-2.28992 0.73395,-4.65616l0.06459,-2.24588l0.60184,-0.07633c0.33174,-0.04404 0.9923,-0.18495 1.4679,-0.31707c4.64442,-1.28881 8.11746,-4.92919 9.30352,-9.7527c0.21725,-0.89248 0.27009,-1.42973 0.27596,-2.91524c0.00294,-1.13909 -0.05284,-2.06093 -0.14973,-2.46606c-1.04514,-4.31268 -3.00919,-6.93727 -6.89911,-9.22719c-0.60771,-0.35817 -1.10679,-0.68991 -1.10679,-0.73982c0,-0.04697 0.16147,-0.52844 0.35817,-1.06863c0.59009,-1.61469 0.73395,-2.469 0.74276,-4.40662c0.01174,-2.98864 -0.7222,-5.3813 -2.35157,-7.66241c-3.23818,-4.54167 -8.95123,-6.62021 -14.24446,-5.18754c-1.15083,0.31413 -2.18129,0.77211 -3.78423,1.69102l-1.31523,0.75156l-0.27596,-0.37285c-0.50496,-0.68991 -1.72625,-1.87303 -2.6246,-2.54533c-2.66863,-1.99047 -5.92443,-2.90937 -9.14499,-2.58056M1444.39099,635.56932c0.98936,0.24073 2.37212,1.0011 3.1824,1.74973l0.70165,0.65175l-0.34936,0.21138c-0.19083,0.1145 -1.5501,0.9101 -3.01799,1.76735c-2.84185,1.65579 -3.44368,2.149 -3.71084,3.04148c-0.09982,0.33468 -0.13798,2.64221 -0.13798,8.33765v7.87673l-2.90643,-1.6734l-2.90643,-1.6734v-7.27489c0,-7.17214 0.00294,-7.2837 0.25835,-8.09398c1.18019,-3.74313 5.00552,-5.86277 8.88664,-4.92039M1463.82592,638.27612c2.14313,0.55486 4.12772,2.38973 4.93506,4.55341c0.51376,1.37689 0.5578,3.68148 0.09101,4.7824l-0.13798,0.32881l-2.99451,-1.75854c-1.64698,-0.96588 -3.17946,-1.80845 -3.40552,-1.87303c-0.54899,-0.15853 -1.25945,-0.14385 -1.76147,0.03817c-0.22606,0.07927 -3.34387,1.829 -6.92847,3.88405c-3.5846,2.05799 -6.55562,3.76368 -6.60553,3.79011c-0.04991,0.02642 -0.08514,-1.42092 -0.0822,-3.21763l0.00587,-3.2646l5.89507,-3.429c3.24111,-1.88478 6.19745,-3.53763 6.56443,-3.67561c1.28,-0.47266 2.97983,-0.53431 4.42424,-0.15853M1466.87327,653.65379c6.56443,3.82534 6.38535,3.71378 7.21911,4.50057c0.83083,0.78386 1.37101,1.64991 1.79964,2.88588c0.2789,0.80734 0.32587,1.13028 0.33174,2.28992c0.00587,1.4356 -0.12624,2.01982 -0.72808,3.2235c-0.96588,1.92588 -2.77726,3.39671 -4.75598,3.86644l-0.32294,0.07927v-3.62277c0,-4.08075 -0.04991,-4.40075 -0.80734,-5.17874c-0.28771,-0.29358 -2.54827,-1.61762 -6.94315,-4.05726c-3.5846,-1.9934 -6.58792,-3.68735 -6.67599,-3.76662c-0.12624,-0.11743 0.37285,-0.44624 2.64221,-1.74386c1.54129,-0.88074 2.81836,-1.60001 2.83891,-1.60001c0.02055,0 2.45139,1.40624 5.40186,3.12368M1429.3157,654.49342c0.00294,3.5435 0.00881,3.62277 0.2789,4.20405c0.15266,0.32587 0.49028,0.77505 0.75156,0.99817c0.26422,0.22312 3.41432,2.09028 7.0048,4.15121c3.59047,2.06093 6.51452,3.76075 6.49691,3.77836c-0.13211,0.12917 -5.578,3.10313 -5.68369,3.10313c-0.17321,0 -10.90059,-6.32076 -11.8283,-6.96957c-1.87303,-1.30936 -3.04442,-3.95157 -2.85359,-6.42645c0.21138,-2.73029 2.17542,-5.27268 4.80589,-6.22094c1.12147,-0.4022 1.02753,-0.7134 1.02753,3.38203M1451.33413,658.03105l1.40918,0.80441v1.92001v1.92001l-1.43854,0.80147l-1.4356,0.80147l-1.47377,-0.85432l-1.47083,-0.85725l0.03229,-1.87303l0.03229,-1.87597l1.35046,-0.78679c0.74276,-0.43156 1.40331,-0.78973 1.4679,-0.79266c0.06459,-0.00587 0.75156,0.35229 1.52661,0.79266M1462.52537,664.26961l2.02276,1.1156l-0.03229,7.45691l-0.02936,7.45691l-0.28477,0.80441c-0.54606,1.54716 -1.76147,3.11781 -3.05909,3.94864c-1.21835,0.78386 -3.1824,1.26533 -4.55048,1.11854c-1.61469,-0.17028 -3.29983,-0.93358 -4.44772,-2.00808c-0.64881,-0.60477 -0.67817,-0.65468 -0.45798,-0.77798c5.60736,-3.18827 6.54094,-3.85176 6.84626,-4.87341c0.10275,-0.34642 0.14092,-2.56295 0.14092,-8.41985v-7.95012l0.91597,0.50789c0.50496,0.27596 1.82606,1.00698 2.93579,1.62056M1452.79909,672.69533l-0.00587,3.25873l-5.80112,3.38203c-3.19414,1.86129 -6.12112,3.50827 -6.50571,3.658c-2.01689,0.78973 -4.47708,0.5989 -6.35599,-0.49321c-1.35927,-0.78973 -2.69212,-2.47487 -3.23818,-4.09543c-0.39046,-1.15083 -0.4433,-2.94166 -0.12624,-4.14827c0.11156,-0.41688 0.21725,-0.77505 0.2378,-0.7956c0.02055,-0.02055 1.30056,0.71046 2.84478,1.62349c1.54423,0.91303 2.9857,1.73799 3.20588,1.83193c0.48734,0.20844 1.55597,0.22018 2.05212,0.02055c0.32587,-0.12917 9.96995,-5.46351 12.52115,-6.9226c0.54899,-0.31413 1.03927,-0.57248 1.08624,-0.57542c0.04991,-0.00294 0.08514,1.46496 0.08514,3.25579" className="SFSymbolsPreviewWireframe"/></g>
  <g id="Ultralight-S"><path d="M551.16601,629.51571c-3.2646,0.33174 -5.81874,1.54716 -8.11159,3.85763c-2.7068,2.72441 -3.87231,5.68663 -3.87231,9.82609v1.6734l-0.85138,0.14385c-4.16295,0.69872 -7.86498,3.5435 -9.65582,7.41874c-1.89652,4.10424 -1.55303,8.91013 0.90716,12.68555c1.18606,1.82019 2.55707,3.09139 4.78534,4.43304c0.67817,0.41101 1.27707,0.78092 1.32991,0.82789c0.05578,0.04697 0.02055,0.2378 -0.07633,0.42569c-0.23486,0.44918 -0.73101,2.03157 -0.91597,2.91524c-0.1967,0.93065 -0.19963,3.91635 -0.00294,4.8147c0.47853,2.20184 1.22129,3.87524 2.43377,5.48993c1.96404,2.61873 4.56222,4.29213 7.84737,5.04956c1.53835,0.35817 4.18057,0.35523 5.6191,-0.00294c1.4767,-0.36991 2.70093,-0.88074 4.26864,-1.79083l1.37395,-0.7956l0.4345,0.54606c2.04918,2.58056 5.19635,4.40075 8.45508,4.8969c1.42973,0.21725 2.20184,0.21431 3.73139,-0.01468c3.11194,-0.46092 5.31965,-1.56478 7.48627,-3.7402c1.5912,-1.59707 2.469,-2.95341 3.16185,-4.88222c0.54019,-1.50312 0.66349,-2.28992 0.73395,-4.65616l0.06459,-2.24588l0.60184,-0.07633c0.33174,-0.04404 0.9923,-0.18495 1.4679,-0.31707c4.64442,-1.28881 8.11746,-4.92919 9.30352,-9.7527c0.21725,-0.89248 0.27009,-1.42973 0.27596,-2.91524c0.00294,-1.13909 -0.05284,-2.06093 -0.14973,-2.46606c-1.04514,-4.31268 -3.00919,-6.93727 -6.89911,-9.22719c-0.60771,-0.35817 -1.10679,-0.68991 -1.10679,-0.73982c0,-0.04697 0.16147,-0.52844 0.35817,-1.06863c0.59009,-1.61469 0.73395,-2.469 0.74276,-4.40662c0.01174,-2.98864 -0.7222,-5.3813 -2.35157,-7.66241c-3.23818,-4.54167 -8.95123,-6.62021 -14.24446,-5.18754c-1.15083,0.31413 -2.18129,0.77211 -3.78423,1.69102l-1.31523,0.75156l-0.27596,-0.37285c-0.50496,-0.68991 -1.72625,-1.87303 -2.6246,-2.54533c-2.66863,-1.99047 -5.92443,-2.90937 -9.14499,-2.58056M554.2574,635.56932c0.98936,0.24073 2.37212,1.0011 3.1824,1.74973l0.70165,0.65175l-0.34936,0.21138c-0.19083,0.1145 -1.5501,0.9101 -3.01799,1.76735c-2.84185,1.65579 -3.44368,2.149 -3.71084,3.04148c-0.09982,0.33468 -0.13798,2.64221 -0.13798,8.33765v7.87673l-2.90643,-1.6734l-2.90643,-1.6734v-7.27489c0,-7.17214 0.00294,-7.2837 0.25835,-8.09398c1.18019,-3.74313 5.00552,-5.86277 8.88664,-4.92039M573.69233,638.27612c2.14313,0.55486 4.12772,2.38973 4.93506,4.55341c0.51376,1.37689 0.5578,3.68148 0.09101,4.7824l-0.13798,0.32881l-2.99451,-1.75854c-1.64698,-0.96588 -3.17946,-1.80845 -3.40552,-1.87303c-0.54899,-0.15853 -1.25945,-0.14385 -1.76147,0.03817c-0.22606,0.07927 -3.34387,1.829 -6.92847,3.88405c-3.5846,2.05799 -6.55562,3.76368 -6.60553,3.79011c-0.04991,0.02642 -0.08514,-1.42092 -0.0822,-3.21763l0.00587,-3.2646l5.89507,-3.429c3.24111,-1.88478 6.19745,-3.53763 6.56443,-3.67561c1.28,-0.47266 2.97983,-0.53431 4.42424,-0.15853M576.73968,653.65379c6.56443,3.82534 6.38535,3.71378 7.21911,4.50057c0.83083,0.78386 1.37101,1.64991 1.79964,2.88588c0.2789,0.80734 0.32587,1.13028 0.33174,2.28992c0.00587,1.4356 -0.12624,2.01982 -0.72808,3.2235c-0.96588,1.92588 -2.77726,3.39671 -4.75598,3.86644l-0.32294,0.07927v-3.62277c0,-4.08075 -0.04991,-4.40075 -0.80734,-5.17874c-0.28771,-0.29358 -2.54827,-1.61762 -6.94315,-4.05726c-3.5846,-1.9934 -6.58792,-3.68735 -6.67599,-3.76662c-0.12624,-0.11743 0.37285,-0.44624 2.64221,-1.74386c1.54129,-0.88074 2.81836,-1.60001 2.83891,-1.60001c0.02055,0 2.45139,1.40624 5.40186,3.12368M539.18211,654.49342c0.00294,3.5435 0.00881,3.62277 0.2789,4.20405c0.15266,0.32587 0.49028,0.77505 0.75156,0.99817c0.26422,0.22312 3.41432,2.09028 7.0048,4.15121c3.59047,2.06093 6.51452,3.76075 6.49691,3.77836c-0.13211,0.12917 -5.578,3.10313 -5.68369,3.10313c-0.17321,0 -10.90059,-6.32076 -11.8283,-6.96957c-1.87303,-1.30936 -3.04442,-3.95157 -2.85359,-6.42645c0.21138,-2.73029 2.17542,-5.27268 4.80589,-6.22094c1.12147,-0.4022 1.02753,-0.7134 1.02753,3.38203M561.20054,658.03105l1.40918,0.80441v1.92001v1.92001l-1.43854,0.80147l-1.4356,0.80147l-1.47377,-0.85432l-1.47083,-0.85725l0.03229,-1.87303l0.03229,-1.87597l1.35046,-0.78679c0.74276,-0.43156 1.40331,-0.78973 1.4679,-0.79266c0.06459,-0.00587 0.75156,0.35229 1.52661,0.79266M572.39178,664.26961l2.02276,1.1156l-0.03229,7.45691l-0.02936,7.45691l-0.28477,0.80441c-0.54606,1.54716 -1.76147,3.11781 -3.05909,3.94864c-1.21835,0.78386 -3.1824,1.26533 -4.55048,1.11854c-1.61469,-0.17028 -3.29983,-0.93358 -4.44772,-2.00808c-0.64881,-0.60477 -0.67817,-0.65468 -0.45798,-0.77798c5.60736,-3.18827 6.54094,-3.85176 6.84626,-4.87341c0.10275,-0.34642 0.14092,-2.56295 0.14092,-8.41985v-7.95012l0.91597,0.50789c0.50496,0.27596 1.82606,1.00698 2.93579,1.62056M562.6655,672.69533l-0.00587,3.25873l-5.80112,3.38203c-3.19414,1.86129 -6.12112,3.50827 -6.50571,3.658c-2.01689,0.78973 -4.47708,0.5989 -6.35599,-0.49321c-1.35927,-0.78973 -2.69212,-2.47487 -3.23818,-4.09543c-0.39046,-1.15083 -0.4433,-2.94166 -0.12624,-4.14827c0.11156,-0.41688 0.21725,-0.77505 0.2378,-0.7956c0.02055,-0.02055 1.30056,0.71046 2.84478,1.62349c1.54423,0.91303 2.9857,1.73799 3.20588,1.83193c0.48734,0.20844 1.55597,0.22018 2.05212,0.02055c0.32587,-0.12917 9.96995,-5.46351 12.52115,-6.9226c0.54899,-0.31413 1.03927,-0.57248 1.08624,-0.57542c0.04991,-0.00294 0.08514,1.46496 0.08514,3.25579" className="SFSymbolsPreviewWireframe"/></g>
 </g>
</svg>