<?xml version="1.0" encoding="UTF-8"?><!--Generator: https://SymbolKit.app--><!DOCTYPE svg PUBLIC "-//W3C//DTD SVG 1.1//EN" "http://www.w3.org/Graphics/SVG/1.1/DTD/svg11.dtd"><svg xmlns="http://www.w3.org/2000/svg" xmlns:xlink="http://www.w3.org/1999/xlink" version="1.1" viewBox="0 0 3300 2200">
 <!--glyph: "100092", point size: 100.0, font version: "20.0d10e1", template writer version: "138.0.0"-->
 <style>.SFSymbolsPreviewWireframe {fill:none;opacity:1.0;stroke:black;stroke-width:0.5}
</style>
 <g id="Notes">
  <rect height="2200" id="artboard" style="fill:white;opacity:1" width="3300" x="0" y="0"/>
  <line style="fill:none;stroke:black;opacity:1;stroke-width:0.5;" x1="263" x2="3036" y1="292" y2="292"/>
  <text style="stroke:none;fill:black;font-family:sans-serif;font-size:13;font-weight:bold;" transform="matrix(1 0 0 1 263 322)">Weight/Scale Variations</text>
  <text style="stroke:none;fill:black;font-family:sans-serif;font-size:13;text-anchor:middle;" transform="matrix(1 0 0 1 559.711 322)">Ultralight</text>
  <text style="stroke:none;fill:black;font-family:sans-serif;font-size:13;text-anchor:middle;" transform="matrix(1 0 0 1 856.422 322)">Thin</text>
  <text style="stroke:none;fill:black;font-family:sans-serif;font-size:13;text-anchor:middle;" transform="matrix(1 0 0 1 1153.13 322)">Light</text>
  <text style="stroke:none;fill:black;font-family:sans-serif;font-size:13;text-anchor:middle;" transform="matrix(1 0 0 1 1449.84 322)">Regular</text>
  <text style="stroke:none;fill:black;font-family:sans-serif;font-size:13;text-anchor:middle;" transform="matrix(1 0 0 1 1746.56 322)">Medium</text>
  <text style="stroke:none;fill:black;font-family:sans-serif;font-size:13;text-anchor:middle;" transform="matrix(1 0 0 1 2043.27 322)">Semibold</text>
  <text style="stroke:none;fill:black;font-family:sans-serif;font-size:13;text-anchor:middle;" transform="matrix(1 0 0 1 2339.98 322)">Bold</text>
  <text style="stroke:none;fill:black;font-family:sans-serif;font-size:13;text-anchor:middle;" transform="matrix(1 0 0 1 2636.69 322)">Heavy</text>
  <text style="stroke:none;fill:black;font-family:sans-serif;font-size:13;text-anchor:middle;" transform="matrix(1 0 0 1 2933.4 322)">Black</text>
  <line style="fill:none;stroke:black;opacity:1;stroke-width:0.5;" x1="263" x2="3036" y1="1903" y2="1903"/>
  <g transform="matrix(0.2 0 0 0.2 263 1933)">
   <path d="m46.2402 4.15039c21.7773 0 39.4531-17.627 39.4531-39.4043s-17.6758-39.4043-39.4531-39.4043c-21.7285 0-39.4043 17.627-39.4043 39.4043s17.6758 39.4043 39.4043 39.4043Zm0-7.42188c-17.6758 0-31.9336-14.3066-31.9336-31.9824s14.2578-31.9824 31.9336-31.9824 31.9824 14.3066 31.9824 31.9824-14.3066 31.9824-31.9824 31.9824Zm-17.9688-31.9824c0 2.14844 1.51367 3.61328 3.75977 3.61328h10.498v10.5957c0 2.19727 1.46484 3.71094 3.61328 3.71094 2.24609 0 3.71094-1.51367 3.71094-3.71094v-10.5957h10.5957c2.19727 0 3.71094-1.46484 3.71094-3.61328 0-2.19727-1.51367-3.71094-3.71094-3.71094h-10.5957v-10.5469c0-2.24609-1.46484-3.75977-3.71094-3.75977-2.14844 0-3.61328 1.51367-3.61328 3.75977v10.5469h-10.498c-2.24609 0-3.75977 1.51367-3.75977 3.71094Z"/>
  </g>
  <g transform="matrix(0.2 0 0 0.2 281.506 1933)">
   <path d="m58.5449 14.5508c27.4902 0 49.8047-22.3145 49.8047-49.8047s-22.3145-49.8047-49.8047-49.8047-49.8047 22.3145-49.8047 49.8047 22.3145 49.8047 49.8047 49.8047Zm0-8.30078c-22.9492 0-41.5039-18.5547-41.5039-41.5039s18.5547-41.5039 41.5039-41.5039 41.5039 18.5547 41.5039 41.5039-18.5547 41.5039-41.5039 41.5039Zm-22.6562-41.5039c0 2.39258 1.66016 4.00391 4.15039 4.00391h14.3555v14.4043c0 2.44141 1.66016 4.15039 4.05273 4.15039 2.44141 0 4.15039-1.66016 4.15039-4.15039v-14.4043h14.4043c2.44141 0 4.15039-1.61133 4.15039-4.00391 0-2.44141-1.70898-4.15039-4.15039-4.15039h-14.4043v-14.3555c0-2.49023-1.70898-4.19922-4.15039-4.19922-2.39258 0-4.05273 1.70898-4.05273 4.19922v14.3555h-14.3555c-2.49023 0-4.15039 1.70898-4.15039 4.15039Z"/>
  </g>
  <g transform="matrix(0.2 0 0 0.2 304.924 1933)">
   <path d="m74.8535 28.3203c35.1074 0 63.623-28.4668 63.623-63.5742s-28.5156-63.623-63.623-63.623-63.5742 28.5156-63.5742 63.623 28.4668 63.5742 63.5742 63.5742Zm0-9.08203c-30.127 0-54.4922-24.3652-54.4922-54.4922s24.3652-54.4922 54.4922-54.4922 54.4922 24.3652 54.4922 54.4922-24.3652 54.4922-54.4922 54.4922Zm-28.8574-54.4922c0 2.58789 1.85547 4.39453 4.58984 4.39453h19.7266v19.7754c0 2.68555 1.85547 4.58984 4.44336 4.58984 2.68555 0 4.54102-1.85547 4.54102-4.58984v-19.7754h19.7754c2.68555 0 4.58984-1.80664 4.58984-4.39453 0-2.73438-1.85547-4.58984-4.58984-4.58984h-19.7754v-19.7266c0-2.73438-1.85547-4.63867-4.54102-4.63867-2.58789 0-4.44336 1.9043-4.44336 4.63867v19.7266h-19.7266c-2.73438 0-4.58984 1.85547-4.58984 4.58984Z"/>
  </g>
  <text style="stroke:none;fill:black;font-family:sans-serif;font-size:13;font-weight:bold;" transform="matrix(1 0 0 1 263 1953)">Design Variations</text>
  <text style="stroke:none;fill:black;font-family:sans-serif;font-size:13;" transform="matrix(1 0 0 1 263 1971)">Symbols are supported in up to nine weights and three scales.</text>
  <text style="stroke:none;fill:black;font-family:sans-serif;font-size:13;" transform="matrix(1 0 0 1 263 1989)">For optimal layout with text and other symbols, vertically align</text>
  <text style="stroke:none;fill:black;font-family:sans-serif;font-size:13;" transform="matrix(1 0 0 1 263 2007)">symbols with the adjacent text.</text>
  <line style="fill:none;stroke:#00AEEF;stroke-width:0.5;opacity:1.0;" x1="776" x2="776" y1="1919" y2="1933"/>
  <g transform="matrix(0.2 0 0 0.2 776 1933)">
   <path d="m16.5527 0.78125c2.58789 0 3.85742-0.976562 4.78516-3.71094l6.29883-17.2363h28.8086l6.29883 17.2363c0.927734 2.73438 2.19727 3.71094 4.73633 3.71094 2.58789 0 4.24805-1.5625 4.24805-4.00391 0-0.830078-0.146484-1.61133-0.537109-2.63672l-22.9004-60.9863c-1.12305-2.97852-3.125-4.49219-6.25-4.49219-3.02734 0-5.07812 1.46484-6.15234 4.44336l-22.9004 61.084c-0.390625 1.02539-0.537109 1.80664-0.537109 2.63672 0 2.44141 1.5625 3.95508 4.10156 3.95508Zm13.4766-28.3691 11.8652-32.8613h0.244141l11.8652 32.8613Z"/>
  </g>
  <line style="fill:none;stroke:#00AEEF;stroke-width:0.5;opacity:1.0;" x1="792.836" x2="792.836" y1="1919" y2="1933"/>
  <text style="stroke:none;fill:black;font-family:sans-serif;font-size:13;font-weight:bold;" transform="matrix(1 0 0 1 776 1953)">Margins</text>
  <text style="stroke:none;fill:black;font-family:sans-serif;font-size:13;" transform="matrix(1 0 0 1 776 1971)">Leading and trailing margins on the left and right side of each symbol</text>
  <text style="stroke:none;fill:black;font-family:sans-serif;font-size:13;" transform="matrix(1 0 0 1 776 1989)">can be adjusted by modifying the x-location of the margin guidelines.</text>
  <text style="stroke:none;fill:black;font-family:sans-serif;font-size:13;" transform="matrix(1 0 0 1 776 2007)">Modifications are automatically applied proportionally to all</text>
  <text style="stroke:none;fill:black;font-family:sans-serif;font-size:13;" transform="matrix(1 0 0 1 776 2025)">scales and weights.</text>
  <g transform="matrix(0.2 0 0 0.2 1289 1933)">
   <path d="m14.209 9.32617 8.49609 8.54492c4.29688 4.3457 9.22852 4.05273 13.8672-1.07422l53.4668-58.9355-4.83398-4.88281-53.0762 58.3984c-1.75781 2.00195-3.41797 2.49023-5.76172 0.146484l-5.85938-5.81055c-2.34375-2.29492-1.80664-4.00391 0.195312-5.81055l57.373-54.0039-4.88281-4.83398-57.959 54.4434c-4.93164 4.58984-5.32227 9.47266-1.02539 13.8184Zm32.0801-90.9668c-2.09961 2.05078-2.24609 4.93164-1.07422 6.88477 1.17188 1.80664 3.4668 2.97852 6.68945 2.14844 7.32422-1.70898 14.9414-2.00195 22.0703 2.68555l-2.92969 7.27539c-1.70898 4.15039-0.830078 7.08008 1.85547 9.81445l11.4746 11.5723c2.44141 2.44141 4.49219 2.53906 7.32422 2.05078l5.32227-0.976562 3.32031 3.36914-0.195312 2.7832c-0.195312 2.49023 0.439453 4.39453 2.88086 6.78711l3.80859 3.71094c2.39258 2.39258 5.46875 2.53906 7.8125 0.195312l14.5508-14.5996c2.34375-2.34375 2.24609-5.32227-0.146484-7.71484l-3.85742-3.80859c-2.39258-2.39258-4.24805-3.17383-6.64062-2.97852l-2.88086 0.244141-3.22266-3.17383 1.2207-5.61523c0.634766-2.83203-0.146484-5.0293-3.07617-7.95898l-10.9863-10.9375c-16.6992-16.6016-38.8672-16.2109-53.3203-1.75781Zm7.4707 1.85547c12.1582-8.88672 28.6133-7.37305 39.7461 3.75977l12.1582 12.0605c1.17188 1.17188 1.36719 2.09961 1.02539 3.80859l-1.61133 7.42188 7.51953 7.42188 4.93164-0.292969c1.26953-0.0488281 1.66016 0.0488281 2.63672 1.02539l2.88086 2.88086-12.207 12.207-2.88086-2.88086c-0.976562-0.976562-1.12305-1.36719-1.07422-2.68555l0.341797-4.88281-7.4707-7.42188-7.61719 1.26953c-1.61133 0.341797-2.34375 0.195312-3.56445-0.976562l-10.0098-10.0098c-1.26953-1.17188-1.41602-2.00195-0.634766-3.85742l4.39453-10.4492c-7.8125-7.27539-17.9688-10.4004-28.125-7.42188-0.78125 0.195312-1.07422-0.439453-0.439453-0.976562Z"/>
  </g>
  <text style="stroke:none;fill:black;font-family:sans-serif;font-size:13;font-weight:bold;" transform="matrix(1 0 0 1 1289 1953)">Exporting</text>
  <text style="stroke:none;fill:black;font-family:sans-serif;font-size:13;" transform="matrix(1 0 0 1 1289 1971)">Symbols should be outlined when exporting to ensure the</text>
  <text style="stroke:none;fill:black;font-family:sans-serif;font-size:13;" transform="matrix(1 0 0 1 1289 1989)">design is preserved when submitting to Xcode.</text>
  <text id="template-version" style="stroke:none;fill:black;font-family:sans-serif;font-size:13;text-anchor:end;" transform="matrix(1 0 0 1 3036 1933)">Template v.6.0</text>
  <text style="stroke:none;fill:black;font-family:sans-serif;font-size:13;text-anchor:end;" transform="matrix(1 0 0 1 3036 1951)">Requires Xcode 16 or greater</text>
  <text id="descriptive-name" style="stroke:none;fill:black;font-family:sans-serif;font-size:13;text-anchor:end;" transform="matrix(1 0 0 1 3036 1969)">Generated from square</text>
  <text style="stroke:none;fill:black;font-family:sans-serif;font-size:13;text-anchor:end;" transform="matrix(1 0 0 1 3036 1987)">Typeset at 100.0 points</text>
  <text style="stroke:none;fill:black;font-family:sans-serif;font-size:13;" transform="matrix(1 0 0 1 263 726)">Small</text>
  <text style="stroke:none;fill:black;font-family:sans-serif;font-size:13;" transform="matrix(1 0 0 1 263 1156)">Medium</text>
  <text style="stroke:none;fill:black;font-family:sans-serif;font-size:13;" transform="matrix(1 0 0 1 263 1586)">Large</text>
 </g>
 <g id="Guides">
  <g id="H-reference" style="fill:#27AAE1;stroke:none;" transform="matrix(1 0 0 1 339 696)">
   <path d="M0.993654 0L3.63775 0L29.3281-67.1323L30.0303-67.1323L30.0303-70.459L28.1226-70.459ZM11.6885-24.4799L46.9815-24.4799L46.2315-26.7285L12.4385-26.7285ZM55.1196 0L57.7637 0L30.6382-70.459L29.4326-70.459L29.4326-67.1323Z"/>
  </g>
  <line id="Baseline-S" style="fill:none;stroke:#27AAE1;opacity:1;stroke-width:0.5;" x1="263" x2="3036" y1="696" y2="696"/>
  <line id="Capline-S" style="fill:none;stroke:#27AAE1;opacity:1;stroke-width:0.5;" x1="263" x2="3036" y1="625.541" y2="625.541"/>
  <g id="H-reference" style="fill:#27AAE1;stroke:none;" transform="matrix(1 0 0 1 339 1126)">
   <path d="M0.993654 0L3.63775 0L29.3281-67.1323L30.0303-67.1323L30.0303-70.459L28.1226-70.459ZM11.6885-24.4799L46.9815-24.4799L46.2315-26.7285L12.4385-26.7285ZM55.1196 0L57.7637 0L30.6382-70.459L29.4326-70.459L29.4326-67.1323Z"/>
  </g>
  <line id="Baseline-M" style="fill:none;stroke:#27AAE1;opacity:1;stroke-width:0.5;" x1="263" x2="3036" y1="1126" y2="1126"/>
  <line id="Capline-M" style="fill:none;stroke:#27AAE1;opacity:1;stroke-width:0.5;" x1="263" x2="3036" y1="1055.54" y2="1055.54"/>
  <g id="H-reference" style="fill:#27AAE1;stroke:none;" transform="matrix(1 0 0 1 339 1556)">
   <path d="M0.993654 0L3.63775 0L29.3281-67.1323L30.0303-67.1323L30.0303-70.459L28.1226-70.459ZM11.6885-24.4799L46.9815-24.4799L46.2315-26.7285L12.4385-26.7285ZM55.1196 0L57.7637 0L30.6382-70.459L29.4326-70.459L29.4326-67.1323Z"/>
  </g>
  <line id="Baseline-L" style="fill:none;stroke:#27AAE1;opacity:1;stroke-width:0.5;" x1="263" x2="3036" y1="1556" y2="1556"/>
  <line id="Capline-L" style="fill:none;stroke:#27AAE1;opacity:1;stroke-width:0.5;" x1="263" x2="3036" y1="1485.54" y2="1485.54"/>
  <line id="right-margin-Black-S" style="fill:none;stroke:#00AEEF;stroke-width:0.5;opacity:1.0;" x1="2981.3" x2="2981.3" y1="600.785" y2="720.121"/>
  <line id="left-margin-Black-S" style="fill:none;stroke:#00AEEF;stroke-width:0.5;opacity:1.0;" x1="2885.5" x2="2885.5" y1="600.785" y2="720.121"/>
  <line id="right-margin-Regular-S" style="fill:none;stroke:#00AEEF;stroke-width:0.5;opacity:1.0;" x1="1495.18" x2="1495.18" y1="600.785" y2="720.121"/>
  <line id="left-margin-Regular-S" style="fill:none;stroke:#00AEEF;stroke-width:0.5;opacity:1.0;" x1="1404.51" x2="1404.51" y1="600.785" y2="720.121"/>
  <line id="right-margin-Ultralight-S" style="fill:none;stroke:#00AEEF;stroke-width:0.5;opacity:1.0;" x1="603.073" x2="603.073" y1="600.785" y2="720.121"/>
  <line id="left-margin-Ultralight-S" style="fill:none;stroke:#00AEEF;stroke-width:0.5;opacity:1.0;" x1="516.35" x2="516.35" y1="600.785" y2="720.121"/>
 </g>
 <g id="Symbols">
  <g id="Black-S"><path d="M2937.66835,628.61279c-3.91341,0.34936 -7.5215,2.05212 -10.42206,4.92626c-0.68404,0.67817 -1.42679,1.45909 -1.64698,1.73212l-0.4022,0.50202l-0.70459,-0.34055c-2.8213,-1.36221 -6.12112,-1.33578 -8.9248,0.07339c-2.72735,1.37101 -4.47708,3.5435 -5.3725,6.66425c-0.25248,0.88074 -0.34936,3.17065 -0.17321,4.14534c0.08807,0.49028 0.07927,0.50789 -0.27596,0.6312c-0.90129,0.31413 -2.48074,1.18019 -3.35267,1.83781c-2.17542,1.64404 -3.67855,3.74313 -4.55341,6.36186c-0.52551,1.57652 -0.67817,2.53652 -0.67817,4.28625c0,4.42717 2.21065,8.45801 6.00956,10.96224c0.59597,0.39046 1.52661,0.88661 2.07267,1.09799c0.84551,0.33174 0.98055,0.42275 0.93358,0.62239c-0.41101,1.7145 -0.36697,4.95562 0.09395,7.0459c1.52074,6.90498 6.71709,12.02794 13.7806,13.58978c1.57065,0.34642 5.10534,0.37285 6.60553,0.04697c2.36331,-0.51083 4.33616,-1.33578 6.26204,-2.61579c1.23597,-0.82496 3.24698,-2.67157 4.07194,-3.7402l0.49321,-0.64l0.47853,0.24661c3.13836,1.60001 6.60553,1.52074 9.71453,-0.22018c1.37689,-0.77211 3.01799,-2.41322 3.79011,-3.79011c1.189,-2.12258 1.63817,-4.55635 1.20955,-6.57617c-0.08807,-0.41982 -0.15266,-0.76624 -0.14385,-0.77211c2.91818,-1.37689 4.05139,-2.13432 5.51048,-3.68442c3.21763,-3.42313 4.34791,-7.90315 3.09432,-12.27748c-1.13322,-3.95745 -4.27745,-7.33067 -8.20554,-8.80737c-0.30826,-0.1145 -0.5578,-0.22312 -0.5578,-0.24367c0,-0.01761 0.08807,-0.41982 0.1967,-0.89248c0.31119,-1.34459 0.27596,-4.48295 -0.06459,-6.08589c-0.75743,-3.54056 -2.27817,-6.39709 -4.74424,-8.91013c-2.96808,-3.02386 -6.63489,-4.77066 -10.87711,-5.18461c-1.2712,-0.1233 -1.74092,-0.12037 -3.21763,0.00881M2941.00634,634.53134c3.66974,0.55486 6.92553,2.88882 8.6048,6.17103c0.70165,1.37101 0.99523,2.29579 1.21542,3.81359c0.22899,1.58533 0.10275,2.85946 -0.44918,4.60919l-0.36404,1.14789l-4.95268,4.96736c-4.35965,4.37726 -4.98497,4.96149 -5.24332,4.90864c-0.16147,-0.03229 -2.85359,-1.08624 -5.98021,-2.33983l-5.68663,-2.28111l-0.97762,-1.9523l-0.97762,-1.9523l1.30643,-5.23158c1.28588,-5.1347 1.32111,-5.24919 1.90826,-6.24443c0.68991,-1.16551 2.23707,-2.85946 3.31157,-3.62277c2.45726,-1.7556 5.31085,-2.43964 8.2848,-1.9934M2921.09287,640.41467c0.38459,0.09982 0.91597,0.31119 1.18312,0.46679l0.48734,0.28477l-0.88074,3.51414l-0.8778,3.51121l-2.36625,-0.78679l-2.36625,-0.78679l-0.23193,-0.46092c-0.33762,-0.6723 -0.31707,-2.21359 0.04404,-3.13542c0.50789,-1.30349 1.89652,-2.43671 3.25873,-2.6657c0.85432,-0.14385 0.98936,-0.13798 1.74973,0.05872M2917.62277,653.25582l3.3468,1.12734l0.72514,1.40918l0.72514,1.40918l-0.31413,0.33468c-0.17321,0.18202 -2.30753,2.28992 -4.74424,4.67965l-4.43304,4.34497l-0.79266,-0.24367c-2.31634,-0.70753 -4.35378,-2.87414 -4.90571,-5.21103c-0.22899,-0.97175 -0.22312,-2.74496 0.00881,-3.65212c0.49321,-1.90826 2.09909,-3.87231 3.84589,-4.71194c0.9512,-0.45505 2.38093,-0.78679 2.89763,-0.67523c0.16147,0.03523 1.79964,0.57248 3.64038,1.189M2955.14217,655.50757c2.19597,0.91303 3.99561,3.0268 4.46534,5.24626c0.51083,2.40148 -0.1644,4.50937 -2.04331,6.38241c-1.35634,1.35046 -2.77432,2.10496 -4.4947,2.38973c-0.34349,0.05578 -5.72479,-0.73688 -7.09287,-1.04808c-0.19083,-0.04404 -0.41688,-0.49321 -1.04514,-2.0668l-0.80147,-2.01395l4.68259,-4.68846c4.67965,-4.68552 4.68552,-4.68846 5.09653,-4.61506c0.22606,0.03817 0.78092,0.22606 1.23303,0.41395M2939.49441,668.59239l1.03633,2.5835l-1.24771,4.40369c-0.68698,2.42203 -1.37689,4.68846 -1.53248,5.03782c-1.26826,2.8301 -4.39194,5.42534 -7.50388,6.23562c-4.33029,1.12734 -9.37398,-0.64587 -12.03381,-4.23047c-1.74092,-2.35157 -2.58056,-5.00846 -2.42496,-7.69177c0.07339,-1.25945 0.34642,-2.66863 0.64881,-3.35561c0.1233,-0.27596 1.95817,-2.15487 5.22864,-5.35488l5.04075,-4.92919l5.87452,2.35744l5.87745,2.36038l1.03633,2.5835M2948.37811,674.83388l2.04625,0.33174l0.24367,0.53138c0.36697,0.7956 0.32881,2.0668 -0.09395,3.00625c-0.40807,0.90716 -1.30643,1.80551 -2.24294,2.24294c-0.5989,0.2789 -0.85725,0.32881 -1.70276,0.32881c-0.8778,0 -1.09211,-0.04404 -1.79083,-0.37578c-0.4345,-0.20551 -0.79266,-0.41395 -0.79266,-0.46385c0,-0.04991 0.38165,-1.42973 0.84844,-3.07084c0.83964,-2.95634 0.84844,-2.97689 1.14496,-2.92111c0.16147,0.03229 1.21542,0.20844 2.33983,0.39046" className="SFSymbolsPreviewWireframe"/></g>
  <g id="Regular-S"><path d="M1454.1133,628.61279c-3.91341,0.34936 -7.5215,2.05212 -10.42206,4.92626c-0.68404,0.67817 -1.42679,1.45909 -1.64698,1.73212l-0.4022,0.50202l-0.70459,-0.34055c-2.8213,-1.36221 -6.12112,-1.33578 -8.9248,0.07339c-2.72735,1.37101 -4.47708,3.5435 -5.3725,6.66425c-0.25248,0.88074 -0.34936,3.17065 -0.17321,4.14534c0.08807,0.49028 0.07927,0.50789 -0.27596,0.6312c-0.90129,0.31413 -2.48074,1.18019 -3.35267,1.83781c-2.17542,1.64404 -3.67855,3.74313 -4.55341,6.36186c-0.52551,1.57652 -0.67817,2.53652 -0.67817,4.28625c0,4.42717 2.21065,8.45801 6.00956,10.96224c0.59597,0.39046 1.52661,0.88661 2.07267,1.09799c0.84551,0.33174 0.98055,0.42275 0.93358,0.62239c-0.41101,1.7145 -0.36697,4.95562 0.09395,7.0459c1.52074,6.90498 6.71709,12.02794 13.7806,13.58978c1.57065,0.34642 5.10534,0.37285 6.60553,0.04697c2.36331,-0.51083 4.33616,-1.33578 6.26204,-2.61579c1.23597,-0.82496 3.24698,-2.67157 4.07194,-3.7402l0.49321,-0.64l0.47853,0.24661c3.13836,1.60001 6.60553,1.52074 9.71453,-0.22018c1.37689,-0.77211 3.01799,-2.41322 3.79011,-3.79011c1.189,-2.12258 1.63817,-4.55635 1.20955,-6.57617c-0.08807,-0.41982 -0.15266,-0.76624 -0.14385,-0.77211c2.91818,-1.37689 4.05139,-2.13432 5.51048,-3.68442c3.21763,-3.42313 4.34791,-7.90315 3.09432,-12.27748c-1.13322,-3.95745 -4.27745,-7.33067 -8.20554,-8.80737c-0.30826,-0.1145 -0.5578,-0.22312 -0.5578,-0.24367c0,-0.01761 0.08807,-0.41982 0.1967,-0.89248c0.31119,-1.34459 0.27596,-4.48295 -0.06459,-6.08589c-0.75743,-3.54056 -2.27817,-6.39709 -4.74424,-8.91013c-2.96808,-3.02386 -6.63489,-4.77066 -10.87711,-5.18461c-1.2712,-0.1233 -1.74092,-0.12037 -3.21763,0.00881M1457.45129,634.53134c3.66974,0.55486 6.92553,2.88882 8.6048,6.17103c0.70165,1.37101 0.99523,2.29579 1.21542,3.81359c0.22899,1.58533 0.10275,2.85946 -0.44918,4.60919l-0.36404,1.14789l-4.95268,4.96736c-4.35965,4.37726 -4.98497,4.96149 -5.24332,4.90864c-0.16147,-0.03229 -2.85359,-1.08624 -5.98021,-2.33983l-5.68663,-2.28111l-0.97762,-1.9523l-0.97762,-1.9523l1.30643,-5.23158c1.28588,-5.1347 1.32111,-5.24919 1.90826,-6.24443c0.68991,-1.16551 2.23707,-2.85946 3.31157,-3.62277c2.45726,-1.7556 5.31085,-2.43964 8.2848,-1.9934M1437.53782,640.41467c0.38459,0.09982 0.91597,0.31119 1.18312,0.46679l0.48734,0.28477l-0.88074,3.51414l-0.8778,3.51121l-2.36625,-0.78679l-2.36625,-0.78679l-0.23193,-0.46092c-0.33762,-0.6723 -0.31707,-2.21359 0.04404,-3.13542c0.50789,-1.30349 1.89652,-2.43671 3.25873,-2.6657c0.85432,-0.14385 0.98936,-0.13798 1.74973,0.05872M1434.06772,653.25582l3.3468,1.12734l0.72514,1.40918l0.72514,1.40918l-0.31413,0.33468c-0.17321,0.18202 -2.30753,2.28992 -4.74424,4.67965l-4.43304,4.34497l-0.79266,-0.24367c-2.31634,-0.70753 -4.35378,-2.87414 -4.90571,-5.21103c-0.22899,-0.97175 -0.22312,-2.74496 0.00881,-3.65212c0.49321,-1.90826 2.09909,-3.87231 3.84589,-4.71194c0.9512,-0.45505 2.38093,-0.78679 2.89763,-0.67523c0.16147,0.03523 1.79964,0.57248 3.64038,1.189M1471.58712,655.50757c2.19597,0.91303 3.99561,3.0268 4.46534,5.24626c0.51083,2.40148 -0.1644,4.50937 -2.04331,6.38241c-1.35634,1.35046 -2.77432,2.10496 -4.4947,2.38973c-0.34349,0.05578 -5.72479,-0.73688 -7.09287,-1.04808c-0.19083,-0.04404 -0.41688,-0.49321 -1.04514,-2.0668l-0.80147,-2.01395l4.68259,-4.68846c4.67965,-4.68552 4.68552,-4.68846 5.09653,-4.61506c0.22606,0.03817 0.78092,0.22606 1.23303,0.41395M1455.93936,668.59239l1.03633,2.5835l-1.24771,4.40369c-0.68698,2.42203 -1.37689,4.68846 -1.53248,5.03782c-1.26826,2.8301 -4.39194,5.42534 -7.50388,6.23562c-4.33029,1.12734 -9.37398,-0.64587 -12.03381,-4.23047c-1.74092,-2.35157 -2.58056,-5.00846 -2.42496,-7.69177c0.07339,-1.25945 0.34642,-2.66863 0.64881,-3.35561c0.1233,-0.27596 1.95817,-2.15487 5.22864,-5.35488l5.04075,-4.92919l5.87452,2.35744l5.87745,2.36038l1.03633,2.5835M1464.82306,674.83388l2.04625,0.33174l0.24367,0.53138c0.36697,0.7956 0.32881,2.0668 -0.09395,3.00625c-0.40807,0.90716 -1.30643,1.80551 -2.24294,2.24294c-0.5989,0.2789 -0.85725,0.32881 -1.70276,0.32881c-0.8778,0 -1.09211,-0.04404 -1.79083,-0.37578c-0.4345,-0.20551 -0.79266,-0.41395 -0.79266,-0.46385c0,-0.04991 0.38165,-1.42973 0.84844,-3.07084c0.83964,-2.95634 0.84844,-2.97689 1.14496,-2.92111c0.16147,0.03229 1.21542,0.20844 2.33983,0.39046" className="SFSymbolsPreviewWireframe"/></g>
  <g id="Ultralight-S"><path d="M563.97971,628.61279c-3.91341,0.34936 -7.5215,2.05212 -10.42206,4.92626c-0.68404,0.67817 -1.42679,1.45909 -1.64698,1.73212l-0.4022,0.50202l-0.70459,-0.34055c-2.8213,-1.36221 -6.12112,-1.33578 -8.9248,0.07339c-2.72735,1.37101 -4.47708,3.5435 -5.3725,6.66425c-0.25248,0.88074 -0.34936,3.17065 -0.17321,4.14534c0.08807,0.49028 0.07927,0.50789 -0.27596,0.6312c-0.90129,0.31413 -2.48074,1.18019 -3.35267,1.83781c-2.17542,1.64404 -3.67855,3.74313 -4.55341,6.36186c-0.52551,1.57652 -0.67817,2.53652 -0.67817,4.28625c0,4.42717 2.21065,8.45801 6.00956,10.96224c0.59597,0.39046 1.52661,0.88661 2.07267,1.09799c0.84551,0.33174 0.98055,0.42275 0.93358,0.62239c-0.41101,1.7145 -0.36697,4.95562 0.09395,7.0459c1.52074,6.90498 6.71709,12.02794 13.7806,13.58978c1.57065,0.34642 5.10534,0.37285 6.60553,0.04697c2.36331,-0.51083 4.33616,-1.33578 6.26204,-2.61579c1.23597,-0.82496 3.24698,-2.67157 4.07194,-3.7402l0.49321,-0.64l0.47853,0.24661c3.13836,1.60001 6.60553,1.52074 9.71453,-0.22018c1.37689,-0.77211 3.01799,-2.41322 3.79011,-3.79011c1.189,-2.12258 1.63817,-4.55635 1.20955,-6.57617c-0.08807,-0.41982 -0.15266,-0.76624 -0.14385,-0.77211c2.91818,-1.37689 4.05139,-2.13432 5.51048,-3.68442c3.21763,-3.42313 4.34791,-7.90315 3.09432,-12.27748c-1.13322,-3.95745 -4.27745,-7.33067 -8.20554,-8.80737c-0.30826,-0.1145 -0.5578,-0.22312 -0.5578,-0.24367c0,-0.01761 0.08807,-0.41982 0.1967,-0.89248c0.31119,-1.34459 0.27596,-4.48295 -0.06459,-6.08589c-0.75743,-3.54056 -2.27817,-6.39709 -4.74424,-8.91013c-2.96808,-3.02386 -6.63489,-4.77066 -10.87711,-5.18461c-1.2712,-0.1233 -1.74092,-0.12037 -3.21763,0.00881M567.3177,634.53134c3.66974,0.55486 6.92553,2.88882 8.6048,6.17103c0.70165,1.37101 0.99523,2.29579 1.21542,3.81359c0.22899,1.58533 0.10275,2.85946 -0.44918,4.60919l-0.36404,1.14789l-4.95268,4.96736c-4.35965,4.37726 -4.98497,4.96149 -5.24332,4.90864c-0.16147,-0.03229 -2.85359,-1.08624 -5.98021,-2.33983l-5.68663,-2.28111l-0.97762,-1.9523l-0.97762,-1.9523l1.30643,-5.23158c1.28588,-5.1347 1.32111,-5.24919 1.90826,-6.24443c0.68991,-1.16551 2.23707,-2.85946 3.31157,-3.62277c2.45726,-1.7556 5.31085,-2.43964 8.2848,-1.9934M547.40423,640.41467c0.38459,0.09982 0.91597,0.31119 1.18312,0.46679l0.48734,0.28477l-0.88074,3.51414l-0.8778,3.51121l-2.36625,-0.78679l-2.36625,-0.78679l-0.23193,-0.46092c-0.33762,-0.6723 -0.31707,-2.21359 0.04404,-3.13542c0.50789,-1.30349 1.89652,-2.43671 3.25873,-2.6657c0.85432,-0.14385 0.98936,-0.13798 1.74973,0.05872M543.93413,653.25582l3.3468,1.12734l0.72514,1.40918l0.72514,1.40918l-0.31413,0.33468c-0.17321,0.18202 -2.30753,2.28992 -4.74424,4.67965l-4.43304,4.34497l-0.79266,-0.24367c-2.31634,-0.70753 -4.35378,-2.87414 -4.90571,-5.21103c-0.22899,-0.97175 -0.22312,-2.74496 0.00881,-3.65212c0.49321,-1.90826 2.09909,-3.87231 3.84589,-4.71194c0.9512,-0.45505 2.38093,-0.78679 2.89763,-0.67523c0.16147,0.03523 1.79964,0.57248 3.64038,1.189M581.45353,655.50757c2.19597,0.91303 3.99561,3.0268 4.46534,5.24626c0.51083,2.40148 -0.1644,4.50937 -2.04331,6.38241c-1.35634,1.35046 -2.77432,2.10496 -4.4947,2.38973c-0.34349,0.05578 -5.72479,-0.73688 -7.09287,-1.04808c-0.19083,-0.04404 -0.41688,-0.49321 -1.04514,-2.0668l-0.80147,-2.01395l4.68259,-4.68846c4.67965,-4.68552 4.68552,-4.68846 5.09653,-4.61506c0.22606,0.03817 0.78092,0.22606 1.23303,0.41395M565.80577,668.59239l1.03633,2.5835l-1.24771,4.40369c-0.68698,2.42203 -1.37689,4.68846 -1.53248,5.03782c-1.26826,2.8301 -4.39194,5.42534 -7.50388,6.23562c-4.33029,1.12734 -9.37398,-0.64587 -12.03381,-4.23047c-1.74092,-2.35157 -2.58056,-5.00846 -2.42496,-7.69177c0.07339,-1.25945 0.34642,-2.66863 0.64881,-3.35561c0.1233,-0.27596 1.95817,-2.15487 5.22864,-5.35488l5.04075,-4.92919l5.87452,2.35744l5.87745,2.36038l1.03633,2.5835M574.68947,674.83388l2.04625,0.33174l0.24367,0.53138c0.36697,0.7956 0.32881,2.0668 -0.09395,3.00625c-0.40807,0.90716 -1.30643,1.80551 -2.24294,2.24294c-0.5989,0.2789 -0.85725,0.32881 -1.70276,0.32881c-0.8778,0 -1.09211,-0.04404 -1.79083,-0.37578c-0.4345,-0.20551 -0.79266,-0.41395 -0.79266,-0.46385c0,-0.04991 0.38165,-1.42973 0.84844,-3.07084c0.83964,-2.95634 0.84844,-2.97689 1.14496,-2.92111c0.16147,0.03229 1.21542,0.20844 2.33983,0.39046" className="SFSymbolsPreviewWireframe"/></g>
 </g>
</svg>