<?xml version="1.0" encoding="UTF-8"?><!--Generator: https://SymbolKit.app--><!DOCTYPE svg PUBLIC "-//W3C//DTD SVG 1.1//EN" "http://www.w3.org/Graphics/SVG/1.1/DTD/svg11.dtd"><svg xmlns="http://www.w3.org/2000/svg" xmlns:xlink="http://www.w3.org/1999/xlink" version="1.1" viewBox="0 0 3300 2200">
 <!--glyph: "100092", point size: 100.0, font version: "20.0d10e1", template writer version: "138.0.0"-->
 <style>.SFSymbolsPreviewWireframe {fill:none;opacity:1.0;stroke:black;stroke-width:0.5}
</style>
 <g id="Notes">
  <rect height="2200" id="artboard" style="fill:white;opacity:1" width="3300" x="0" y="0"/>
  <line style="fill:none;stroke:black;opacity:1;stroke-width:0.5;" x1="263" x2="3036" y1="292" y2="292"/>
  <text style="stroke:none;fill:black;font-family:sans-serif;font-size:13;font-weight:bold;" transform="matrix(1 0 0 1 263 322)">Weight/Scale Variations</text>
  <text style="stroke:none;fill:black;font-family:sans-serif;font-size:13;text-anchor:middle;" transform="matrix(1 0 0 1 559.711 322)">Ultralight</text>
  <text style="stroke:none;fill:black;font-family:sans-serif;font-size:13;text-anchor:middle;" transform="matrix(1 0 0 1 856.422 322)">Thin</text>
  <text style="stroke:none;fill:black;font-family:sans-serif;font-size:13;text-anchor:middle;" transform="matrix(1 0 0 1 1153.13 322)">Light</text>
  <text style="stroke:none;fill:black;font-family:sans-serif;font-size:13;text-anchor:middle;" transform="matrix(1 0 0 1 1449.84 322)">Regular</text>
  <text style="stroke:none;fill:black;font-family:sans-serif;font-size:13;text-anchor:middle;" transform="matrix(1 0 0 1 1746.56 322)">Medium</text>
  <text style="stroke:none;fill:black;font-family:sans-serif;font-size:13;text-anchor:middle;" transform="matrix(1 0 0 1 2043.27 322)">Semibold</text>
  <text style="stroke:none;fill:black;font-family:sans-serif;font-size:13;text-anchor:middle;" transform="matrix(1 0 0 1 2339.98 322)">Bold</text>
  <text style="stroke:none;fill:black;font-family:sans-serif;font-size:13;text-anchor:middle;" transform="matrix(1 0 0 1 2636.69 322)">Heavy</text>
  <text style="stroke:none;fill:black;font-family:sans-serif;font-size:13;text-anchor:middle;" transform="matrix(1 0 0 1 2933.4 322)">Black</text>
  <line style="fill:none;stroke:black;opacity:1;stroke-width:0.5;" x1="263" x2="3036" y1="1903" y2="1903"/>
  <g transform="matrix(0.2 0 0 0.2 263 1933)">
   <path d="m46.2402 4.15039c21.7773 0 39.4531-17.627 39.4531-39.4043s-17.6758-39.4043-39.4531-39.4043c-21.7285 0-39.4043 17.627-39.4043 39.4043s17.6758 39.4043 39.4043 39.4043Zm0-7.42188c-17.6758 0-31.9336-14.3066-31.9336-31.9824s14.2578-31.9824 31.9336-31.9824 31.9824 14.3066 31.9824 31.9824-14.3066 31.9824-31.9824 31.9824Zm-17.9688-31.9824c0 2.14844 1.51367 3.61328 3.75977 3.61328h10.498v10.5957c0 2.19727 1.46484 3.71094 3.61328 3.71094 2.24609 0 3.71094-1.51367 3.71094-3.71094v-10.5957h10.5957c2.19727 0 3.71094-1.46484 3.71094-3.61328 0-2.19727-1.51367-3.71094-3.71094-3.71094h-10.5957v-10.5469c0-2.24609-1.46484-3.75977-3.71094-3.75977-2.14844 0-3.61328 1.51367-3.61328 3.75977v10.5469h-10.498c-2.24609 0-3.75977 1.51367-3.75977 3.71094Z"/>
  </g>
  <g transform="matrix(0.2 0 0 0.2 281.506 1933)">
   <path d="m58.5449 14.5508c27.4902 0 49.8047-22.3145 49.8047-49.8047s-22.3145-49.8047-49.8047-49.8047-49.8047 22.3145-49.8047 49.8047 22.3145 49.8047 49.8047 49.8047Zm0-8.30078c-22.9492 0-41.5039-18.5547-41.5039-41.5039s18.5547-41.5039 41.5039-41.5039 41.5039 18.5547 41.5039 41.5039-18.5547 41.5039-41.5039 41.5039Zm-22.6562-41.5039c0 2.39258 1.66016 4.00391 4.15039 4.00391h14.3555v14.4043c0 2.44141 1.66016 4.15039 4.05273 4.15039 2.44141 0 4.15039-1.66016 4.15039-4.15039v-14.4043h14.4043c2.44141 0 4.15039-1.61133 4.15039-4.00391 0-2.44141-1.70898-4.15039-4.15039-4.15039h-14.4043v-14.3555c0-2.49023-1.70898-4.19922-4.15039-4.19922-2.39258 0-4.05273 1.70898-4.05273 4.19922v14.3555h-14.3555c-2.49023 0-4.15039 1.70898-4.15039 4.15039Z"/>
  </g>
  <g transform="matrix(0.2 0 0 0.2 304.924 1933)">
   <path d="m74.8535 28.3203c35.1074 0 63.623-28.4668 63.623-63.5742s-28.5156-63.623-63.623-63.623-63.5742 28.5156-63.5742 63.623 28.4668 63.5742 63.5742 63.5742Zm0-9.08203c-30.127 0-54.4922-24.3652-54.4922-54.4922s24.3652-54.4922 54.4922-54.4922 54.4922 24.3652 54.4922 54.4922-24.3652 54.4922-54.4922 54.4922Zm-28.8574-54.4922c0 2.58789 1.85547 4.39453 4.58984 4.39453h19.7266v19.7754c0 2.68555 1.85547 4.58984 4.44336 4.58984 2.68555 0 4.54102-1.85547 4.54102-4.58984v-19.7754h19.7754c2.68555 0 4.58984-1.80664 4.58984-4.39453 0-2.73438-1.85547-4.58984-4.58984-4.58984h-19.7754v-19.7266c0-2.73438-1.85547-4.63867-4.54102-4.63867-2.58789 0-4.44336 1.9043-4.44336 4.63867v19.7266h-19.7266c-2.73438 0-4.58984 1.85547-4.58984 4.58984Z"/>
  </g>
  <text style="stroke:none;fill:black;font-family:sans-serif;font-size:13;font-weight:bold;" transform="matrix(1 0 0 1 263 1953)">Design Variations</text>
  <text style="stroke:none;fill:black;font-family:sans-serif;font-size:13;" transform="matrix(1 0 0 1 263 1971)">Symbols are supported in up to nine weights and three scales.</text>
  <text style="stroke:none;fill:black;font-family:sans-serif;font-size:13;" transform="matrix(1 0 0 1 263 1989)">For optimal layout with text and other symbols, vertically align</text>
  <text style="stroke:none;fill:black;font-family:sans-serif;font-size:13;" transform="matrix(1 0 0 1 263 2007)">symbols with the adjacent text.</text>
  <line style="fill:none;stroke:#00AEEF;stroke-width:0.5;opacity:1.0;" x1="776" x2="776" y1="1919" y2="1933"/>
  <g transform="matrix(0.2 0 0 0.2 776 1933)">
   <path d="m16.5527 0.78125c2.58789 0 3.85742-0.976562 4.78516-3.71094l6.29883-17.2363h28.8086l6.29883 17.2363c0.927734 2.73438 2.19727 3.71094 4.73633 3.71094 2.58789 0 4.24805-1.5625 4.24805-4.00391 0-0.830078-0.146484-1.61133-0.537109-2.63672l-22.9004-60.9863c-1.12305-2.97852-3.125-4.49219-6.25-4.49219-3.02734 0-5.07812 1.46484-6.15234 4.44336l-22.9004 61.084c-0.390625 1.02539-0.537109 1.80664-0.537109 2.63672 0 2.44141 1.5625 3.95508 4.10156 3.95508Zm13.4766-28.3691 11.8652-32.8613h0.244141l11.8652 32.8613Z"/>
  </g>
  <line style="fill:none;stroke:#00AEEF;stroke-width:0.5;opacity:1.0;" x1="792.836" x2="792.836" y1="1919" y2="1933"/>
  <text style="stroke:none;fill:black;font-family:sans-serif;font-size:13;font-weight:bold;" transform="matrix(1 0 0 1 776 1953)">Margins</text>
  <text style="stroke:none;fill:black;font-family:sans-serif;font-size:13;" transform="matrix(1 0 0 1 776 1971)">Leading and trailing margins on the left and right side of each symbol</text>
  <text style="stroke:none;fill:black;font-family:sans-serif;font-size:13;" transform="matrix(1 0 0 1 776 1989)">can be adjusted by modifying the x-location of the margin guidelines.</text>
  <text style="stroke:none;fill:black;font-family:sans-serif;font-size:13;" transform="matrix(1 0 0 1 776 2007)">Modifications are automatically applied proportionally to all</text>
  <text style="stroke:none;fill:black;font-family:sans-serif;font-size:13;" transform="matrix(1 0 0 1 776 2025)">scales and weights.</text>
  <g transform="matrix(0.2 0 0 0.2 1289 1933)">
   <path d="m14.209 9.32617 8.49609 8.54492c4.29688 4.3457 9.22852 4.05273 13.8672-1.07422l53.4668-58.9355-4.83398-4.88281-53.0762 58.3984c-1.75781 2.00195-3.41797 2.49023-5.76172 0.146484l-5.85938-5.81055c-2.34375-2.29492-1.80664-4.00391 0.195312-5.81055l57.373-54.0039-4.88281-4.83398-57.959 54.4434c-4.93164 4.58984-5.32227 9.47266-1.02539 13.8184Zm32.0801-90.9668c-2.09961 2.05078-2.24609 4.93164-1.07422 6.88477 1.17188 1.80664 3.4668 2.97852 6.68945 2.14844 7.32422-1.70898 14.9414-2.00195 22.0703 2.68555l-2.92969 7.27539c-1.70898 4.15039-0.830078 7.08008 1.85547 9.81445l11.4746 11.5723c2.44141 2.44141 4.49219 2.53906 7.32422 2.05078l5.32227-0.976562 3.32031 3.36914-0.195312 2.7832c-0.195312 2.49023 0.439453 4.39453 2.88086 6.78711l3.80859 3.71094c2.39258 2.39258 5.46875 2.53906 7.8125 0.195312l14.5508-14.5996c2.34375-2.34375 2.24609-5.32227-0.146484-7.71484l-3.85742-3.80859c-2.39258-2.39258-4.24805-3.17383-6.64062-2.97852l-2.88086 0.244141-3.22266-3.17383 1.2207-5.61523c0.634766-2.83203-0.146484-5.0293-3.07617-7.95898l-10.9863-10.9375c-16.6992-16.6016-38.8672-16.2109-53.3203-1.75781Zm7.4707 1.85547c12.1582-8.88672 28.6133-7.37305 39.7461 3.75977l12.1582 12.0605c1.17188 1.17188 1.36719 2.09961 1.02539 3.80859l-1.61133 7.42188 7.51953 7.42188 4.93164-0.292969c1.26953-0.0488281 1.66016 0.0488281 2.63672 1.02539l2.88086 2.88086-12.207 12.207-2.88086-2.88086c-0.976562-0.976562-1.12305-1.36719-1.07422-2.68555l0.341797-4.88281-7.4707-7.42188-7.61719 1.26953c-1.61133 0.341797-2.34375 0.195312-3.56445-0.976562l-10.0098-10.0098c-1.26953-1.17188-1.41602-2.00195-0.634766-3.85742l4.39453-10.4492c-7.8125-7.27539-17.9688-10.4004-28.125-7.42188-0.78125 0.195312-1.07422-0.439453-0.439453-0.976562Z"/>
  </g>
  <text style="stroke:none;fill:black;font-family:sans-serif;font-size:13;font-weight:bold;" transform="matrix(1 0 0 1 1289 1953)">Exporting</text>
  <text style="stroke:none;fill:black;font-family:sans-serif;font-size:13;" transform="matrix(1 0 0 1 1289 1971)">Symbols should be outlined when exporting to ensure the</text>
  <text style="stroke:none;fill:black;font-family:sans-serif;font-size:13;" transform="matrix(1 0 0 1 1289 1989)">design is preserved when submitting to Xcode.</text>
  <text id="template-version" style="stroke:none;fill:black;font-family:sans-serif;font-size:13;text-anchor:end;" transform="matrix(1 0 0 1 3036 1933)">Template v.6.0</text>
  <text style="stroke:none;fill:black;font-family:sans-serif;font-size:13;text-anchor:end;" transform="matrix(1 0 0 1 3036 1951)">Requires Xcode 16 or greater</text>
  <text id="descriptive-name" style="stroke:none;fill:black;font-family:sans-serif;font-size:13;text-anchor:end;" transform="matrix(1 0 0 1 3036 1969)">Generated from square</text>
  <text style="stroke:none;fill:black;font-family:sans-serif;font-size:13;text-anchor:end;" transform="matrix(1 0 0 1 3036 1987)">Typeset at 100.0 points</text>
  <text style="stroke:none;fill:black;font-family:sans-serif;font-size:13;" transform="matrix(1 0 0 1 263 726)">Small</text>
  <text style="stroke:none;fill:black;font-family:sans-serif;font-size:13;" transform="matrix(1 0 0 1 263 1156)">Medium</text>
  <text style="stroke:none;fill:black;font-family:sans-serif;font-size:13;" transform="matrix(1 0 0 1 263 1586)">Large</text>
 </g>
 <g id="Guides">
  <g id="H-reference" style="fill:#27AAE1;stroke:none;" transform="matrix(1 0 0 1 339 696)">
   <path d="M0.993654 0L3.63775 0L29.3281-67.1323L30.0303-67.1323L30.0303-70.459L28.1226-70.459ZM11.6885-24.4799L46.9815-24.4799L46.2315-26.7285L12.4385-26.7285ZM55.1196 0L57.7637 0L30.6382-70.459L29.4326-70.459L29.4326-67.1323Z"/>
  </g>
  <line id="Baseline-S" style="fill:none;stroke:#27AAE1;opacity:1;stroke-width:0.5;" x1="263" x2="3036" y1="696" y2="696"/>
  <line id="Capline-S" style="fill:none;stroke:#27AAE1;opacity:1;stroke-width:0.5;" x1="263" x2="3036" y1="625.541" y2="625.541"/>
  <g id="H-reference" style="fill:#27AAE1;stroke:none;" transform="matrix(1 0 0 1 339 1126)">
   <path d="M0.993654 0L3.63775 0L29.3281-67.1323L30.0303-67.1323L30.0303-70.459L28.1226-70.459ZM11.6885-24.4799L46.9815-24.4799L46.2315-26.7285L12.4385-26.7285ZM55.1196 0L57.7637 0L30.6382-70.459L29.4326-70.459L29.4326-67.1323Z"/>
  </g>
  <line id="Baseline-M" style="fill:none;stroke:#27AAE1;opacity:1;stroke-width:0.5;" x1="263" x2="3036" y1="1126" y2="1126"/>
  <line id="Capline-M" style="fill:none;stroke:#27AAE1;opacity:1;stroke-width:0.5;" x1="263" x2="3036" y1="1055.54" y2="1055.54"/>
  <g id="H-reference" style="fill:#27AAE1;stroke:none;" transform="matrix(1 0 0 1 339 1556)">
   <path d="M0.993654 0L3.63775 0L29.3281-67.1323L30.0303-67.1323L30.0303-70.459L28.1226-70.459ZM11.6885-24.4799L46.9815-24.4799L46.2315-26.7285L12.4385-26.7285ZM55.1196 0L57.7637 0L30.6382-70.459L29.4326-70.459L29.4326-67.1323Z"/>
  </g>
  <line id="Baseline-L" style="fill:none;stroke:#27AAE1;opacity:1;stroke-width:0.5;" x1="263" x2="3036" y1="1556" y2="1556"/>
  <line id="Capline-L" style="fill:none;stroke:#27AAE1;opacity:1;stroke-width:0.5;" x1="263" x2="3036" y1="1485.54" y2="1485.54"/>
  <line id="right-margin-Black-S" style="fill:none;stroke:#00AEEF;stroke-width:0.5;opacity:1.0;" x1="2981.3" x2="2981.3" y1="600.785" y2="720.121"/>
  <line id="left-margin-Black-S" style="fill:none;stroke:#00AEEF;stroke-width:0.5;opacity:1.0;" x1="2885.5" x2="2885.5" y1="600.785" y2="720.121"/>
  <line id="right-margin-Regular-S" style="fill:none;stroke:#00AEEF;stroke-width:0.5;opacity:1.0;" x1="1495.18" x2="1495.18" y1="600.785" y2="720.121"/>
  <line id="left-margin-Regular-S" style="fill:none;stroke:#00AEEF;stroke-width:0.5;opacity:1.0;" x1="1404.51" x2="1404.51" y1="600.785" y2="720.121"/>
  <line id="right-margin-Ultralight-S" style="fill:none;stroke:#00AEEF;stroke-width:0.5;opacity:1.0;" x1="603.073" x2="603.073" y1="600.785" y2="720.121"/>
  <line id="left-margin-Ultralight-S" style="fill:none;stroke:#00AEEF;stroke-width:0.5;opacity:1.0;" x1="516.35" x2="516.35" y1="600.785" y2="720.121"/>
 </g>
 <g id="Symbols">
  <g id="Black-S"><path d="M2930.28375,634.47843c-13.86574,1.32404 -25.58542,11.99564 -28.47424,25.93771c-0.42569,2.05799 -0.59597,3.5846 -0.66936,6.06241c-0.17908,5.84516 0.88661,10.68628 3.51708,16.01474c0.85725,1.73212 1.04514,2.0257 1.78496,2.76258c1.30349,1.30643 2.75671,1.93469 4.46534,1.93469c2.37799,0 4.13066,-1.12441 5.8569,-3.75781c1.03046,-1.57065 1.33285,-1.90533 1.60294,-1.76147c0.11156,0.06165 0.70753,0.78973 1.32698,1.62349c0.61945,0.83083 1.43267,1.7967 1.81138,2.14606c2.53946,2.35157 6.20333,2.33983 8.60774,-0.02642c0.37285,-0.36697 1.05982,-1.24184 1.52661,-1.94349c1.00404,-1.50606 1.36808,-1.92294 1.60294,-1.83193c0.09395,0.03523 0.69285,0.76037 1.32698,1.61175c0.63413,0.85138 1.47964,1.84955 1.87891,2.21946c2.50129,2.31634 6.18865,2.29872 8.55783,-0.03523c0.36404,-0.3611 1.05101,-1.23303 1.52955,-1.94349c1.02166,-1.52074 1.38863,-1.94349 1.61175,-1.85836c0.08807,0.03523 0.6811,0.75743 1.31523,1.60588c1.32991,1.77615 2.3868,2.81542 3.33212,3.27634c1.88771,0.9189 3.96625,0.90129 5.74534,-0.04697c2.38386,-1.2712 4.83525,-5.5692 6.14755,-10.7861c1.10679,-4.40075 1.29468,-9.43563 0.52257,-14.01253c-2.12845,-12.59454 -11.3439,-22.8933 -23.45991,-26.21661c-3.53763,-0.97175 -7.75049,-1.32991 -11.4672,-0.97468M2937.1535,640.51736c2.55707,0.38459 5.02314,1.1567 7.47159,2.33689c2.76845,1.33285 4.96736,2.90643 7.18682,5.14351c2.28111,2.29872 3.74607,4.35671 5.12883,7.19269c1.33872,2.75084 2.13432,5.31085 2.60111,8.39636c0.28477,1.87303 0.28477,5.78057 0.00294,7.63306c-0.38752,2.54533 -1.18606,5.34901 -2.1079,7.41581c-0.30826,0.68991 -1.34166,2.29285 -1.63524,2.53652c-0.26422,0.22018 -0.52844,-0.03523 -1.83487,-1.77028c-1.24184,-1.64698 -1.64111,-2.05799 -2.64808,-2.72735c-0.84844,-0.56367 -1.81725,-0.8778 -2.93873,-0.95413c-2.47194,-0.1644 -4.41837,0.96294 -6.11232,3.5435c-0.38165,0.58129 -0.87193,1.28 -1.09211,1.55597c-0.34055,0.42863 -0.42863,0.48147 -0.6312,0.37285c-0.12624,-0.06752 -0.68698,-0.73982 -1.24478,-1.49725c-0.55486,-0.7545 -1.36808,-1.72331 -1.80258,-2.15487c-2.45726,-2.4279 -6.22094,-2.47487 -8.66939,-0.10569c-0.37285,0.3611 -1.06276,1.23597 -1.53248,1.94643c-1.11266,1.6734 -1.37982,1.96404 -1.66753,1.81138c-0.12037,-0.06459 -0.74863,-0.82496 -1.39156,-1.68808c-0.64294,-0.86312 -1.4679,-1.83487 -1.83193,-2.15781c-2.51597,-2.24294 -6.15635,-2.20478 -8.48737,0.09101c-0.36404,0.35817 -1.08918,1.28588 -1.61469,2.06093c-0.52551,0.77505 -1.06276,1.50312 -1.19193,1.62056c-0.22312,0.20257 -0.24073,0.20257 -0.44624,0c-0.30826,-0.30826 -1.59707,-3.0679 -2.09909,-4.49763c-1.08624,-3.08845 -1.52074,-5.71599 -1.52074,-9.21838c0,-4.53286 0.84257,-8.2026 2.80368,-12.21289c1.39156,-2.84772 2.85652,-4.89984 5.13176,-7.19269c4.47121,-4.50644 10.06683,-7.11342 16.53731,-7.70645c1.02166,-0.09395 4.41837,0.0411 5.63672,0.22606M2930.69476,643.22122c-2.11083,0.24367 -3.8635,0.74276 -5.52809,1.57946c-3.2235,1.62056 -6.05947,4.53873 -7.6448,7.85911c-1.29468,2.71267 -1.83193,5.3402 -1.70863,8.33177c0.18202,4.27451 1.52661,7.66535 4.02791,10.15197c1.11854,1.10973 2.05799,1.79377 3.41726,2.47487c4.85873,2.44551 12.48005,2.44551 17.33878,0c4.60919,-2.31927 7.19562,-6.70535 7.44517,-12.62684c0.1233,-2.99157 -0.41395,-5.6191 -1.70863,-8.33177c-2.24882,-4.71194 -6.74938,-8.29067 -11.58757,-9.21545c-0.89248,-0.17028 -3.33212,-0.30532 -4.05139,-0.22312M2934.32927,649.38051c2.75084,0.77505 5.24919,2.92111 6.62314,5.6925c0.96294,1.94056 1.33872,3.7813 1.20661,5.92736c-0.15853,2.60992 -0.9189,4.59451 -2.28111,5.95672c-1.24771,1.25065 -2.48074,1.86423 -4.72075,2.34276c-1.41505,0.30532 -5.04369,0.30532 -6.45874,0c-2.24001,-0.47853 -3.47304,-1.09211 -4.72075,-2.34276c-1.36221,-1.36221 -2.12258,-3.3468 -2.28111,-5.95378c-0.07046,-1.18019 0.07633,-2.95928 0.29651,-3.55231c0.08807,-0.24073 0.11743,-0.22018 0.36404,0.26716c0.36404,0.7134 1.68514,2.00808 2.43671,2.38973c1.72918,0.87487 3.73139,0.87487 5.46057,0c0.78092,-0.39633 2.07854,-1.68808 2.469,-2.46019c0.86312,-1.69982 0.87193,-3.7813 0.02936,-5.44296c-0.41101,-0.81615 -1.44147,-1.88184 -2.27817,-2.36038c-0.39046,-0.22312 -0.7134,-0.4433 -0.71633,-0.49028c0,-0.04404 0.24661,-0.1145 0.55486,-0.1556c0.30826,-0.0411 0.61064,-0.09688 0.67523,-0.1233c0.29945,-0.1233 2.54533,0.0822 3.34093,0.30532" className="SFSymbolsPreviewWireframe"/></g>
  <g id="Regular-S"><path d="M1446.7287,634.47843c-13.86574,1.32404 -25.58542,11.99564 -28.47424,25.93771c-0.42569,2.05799 -0.59597,3.5846 -0.66936,6.06241c-0.17908,5.84516 0.88661,10.68628 3.51708,16.01474c0.85725,1.73212 1.04514,2.0257 1.78496,2.76258c1.30349,1.30643 2.75671,1.93469 4.46534,1.93469c2.37799,0 4.13066,-1.12441 5.8569,-3.75781c1.03046,-1.57065 1.33285,-1.90533 1.60294,-1.76147c0.11156,0.06165 0.70753,0.78973 1.32698,1.62349c0.61945,0.83083 1.43267,1.7967 1.81138,2.14606c2.53946,2.35157 6.20333,2.33983 8.60774,-0.02642c0.37285,-0.36697 1.05982,-1.24184 1.52661,-1.94349c1.00404,-1.50606 1.36808,-1.92294 1.60294,-1.83193c0.09395,0.03523 0.69285,0.76037 1.32698,1.61175c0.63413,0.85138 1.47964,1.84955 1.87891,2.21946c2.50129,2.31634 6.18865,2.29872 8.55783,-0.03523c0.36404,-0.3611 1.05101,-1.23303 1.52955,-1.94349c1.02166,-1.52074 1.38863,-1.94349 1.61175,-1.85836c0.08807,0.03523 0.6811,0.75743 1.31523,1.60588c1.32991,1.77615 2.3868,2.81542 3.33212,3.27634c1.88771,0.9189 3.96625,0.90129 5.74534,-0.04697c2.38386,-1.2712 4.83525,-5.5692 6.14755,-10.7861c1.10679,-4.40075 1.29468,-9.43563 0.52257,-14.01253c-2.12845,-12.59454 -11.3439,-22.8933 -23.45991,-26.21661c-3.53763,-0.97175 -7.75049,-1.32991 -11.4672,-0.97468M1453.59845,640.51736c2.55707,0.38459 5.02314,1.1567 7.47159,2.33689c2.76845,1.33285 4.96736,2.90643 7.18682,5.14351c2.28111,2.29872 3.74607,4.35671 5.12883,7.19269c1.33872,2.75084 2.13432,5.31085 2.60111,8.39636c0.28477,1.87303 0.28477,5.78057 0.00294,7.63306c-0.38752,2.54533 -1.18606,5.34901 -2.1079,7.41581c-0.30826,0.68991 -1.34166,2.29285 -1.63524,2.53652c-0.26422,0.22018 -0.52844,-0.03523 -1.83487,-1.77028c-1.24184,-1.64698 -1.64111,-2.05799 -2.64808,-2.72735c-0.84844,-0.56367 -1.81725,-0.8778 -2.93873,-0.95413c-2.47194,-0.1644 -4.41837,0.96294 -6.11232,3.5435c-0.38165,0.58129 -0.87193,1.28 -1.09211,1.55597c-0.34055,0.42863 -0.42863,0.48147 -0.6312,0.37285c-0.12624,-0.06752 -0.68698,-0.73982 -1.24478,-1.49725c-0.55486,-0.7545 -1.36808,-1.72331 -1.80258,-2.15487c-2.45726,-2.4279 -6.22094,-2.47487 -8.66939,-0.10569c-0.37285,0.3611 -1.06276,1.23597 -1.53248,1.94643c-1.11266,1.6734 -1.37982,1.96404 -1.66753,1.81138c-0.12037,-0.06459 -0.74863,-0.82496 -1.39156,-1.68808c-0.64294,-0.86312 -1.4679,-1.83487 -1.83193,-2.15781c-2.51597,-2.24294 -6.15635,-2.20478 -8.48737,0.09101c-0.36404,0.35817 -1.08918,1.28588 -1.61469,2.06093c-0.52551,0.77505 -1.06276,1.50312 -1.19193,1.62056c-0.22312,0.20257 -0.24073,0.20257 -0.44624,0c-0.30826,-0.30826 -1.59707,-3.0679 -2.09909,-4.49763c-1.08624,-3.08845 -1.52074,-5.71599 -1.52074,-9.21838c0,-4.53286 0.84257,-8.2026 2.80368,-12.21289c1.39156,-2.84772 2.85652,-4.89984 5.13176,-7.19269c4.47121,-4.50644 10.06683,-7.11342 16.53731,-7.70645c1.02166,-0.09395 4.41837,0.0411 5.63672,0.22606M1447.13971,643.22122c-2.11083,0.24367 -3.8635,0.74276 -5.52809,1.57946c-3.2235,1.62056 -6.05947,4.53873 -7.6448,7.85911c-1.29468,2.71267 -1.83193,5.3402 -1.70863,8.33177c0.18202,4.27451 1.52661,7.66535 4.02791,10.15197c1.11854,1.10973 2.05799,1.79377 3.41726,2.47487c4.85873,2.44551 12.48005,2.44551 17.33878,0c4.60919,-2.31927 7.19562,-6.70535 7.44517,-12.62684c0.1233,-2.99157 -0.41395,-5.6191 -1.70863,-8.33177c-2.24882,-4.71194 -6.74938,-8.29067 -11.58757,-9.21545c-0.89248,-0.17028 -3.33212,-0.30532 -4.05139,-0.22312M1450.77422,649.38051c2.75084,0.77505 5.24919,2.92111 6.62314,5.6925c0.96294,1.94056 1.33872,3.7813 1.20661,5.92736c-0.15853,2.60992 -0.9189,4.59451 -2.28111,5.95672c-1.24771,1.25065 -2.48074,1.86423 -4.72075,2.34276c-1.41505,0.30532 -5.04369,0.30532 -6.45874,0c-2.24001,-0.47853 -3.47304,-1.09211 -4.72075,-2.34276c-1.36221,-1.36221 -2.12258,-3.3468 -2.28111,-5.95378c-0.07046,-1.18019 0.07633,-2.95928 0.29651,-3.55231c0.08807,-0.24073 0.11743,-0.22018 0.36404,0.26716c0.36404,0.7134 1.68514,2.00808 2.43671,2.38973c1.72918,0.87487 3.73139,0.87487 5.46057,0c0.78092,-0.39633 2.07854,-1.68808 2.469,-2.46019c0.86312,-1.69982 0.87193,-3.7813 0.02936,-5.44296c-0.41101,-0.81615 -1.44147,-1.88184 -2.27817,-2.36038c-0.39046,-0.22312 -0.7134,-0.4433 -0.71633,-0.49028c0,-0.04404 0.24661,-0.1145 0.55486,-0.1556c0.30826,-0.0411 0.61064,-0.09688 0.67523,-0.1233c0.29945,-0.1233 2.54533,0.0822 3.34093,0.30532" className="SFSymbolsPreviewWireframe"/></g>
  <g id="Ultralight-S"><path d="M556.59511,634.47843c-13.86574,1.32404 -25.58542,11.99564 -28.47424,25.93771c-0.42569,2.05799 -0.59597,3.5846 -0.66936,6.06241c-0.17908,5.84516 0.88661,10.68628 3.51708,16.01474c0.85725,1.73212 1.04514,2.0257 1.78496,2.76258c1.30349,1.30643 2.75671,1.93469 4.46534,1.93469c2.37799,0 4.13066,-1.12441 5.8569,-3.75781c1.03046,-1.57065 1.33285,-1.90533 1.60294,-1.76147c0.11156,0.06165 0.70753,0.78973 1.32698,1.62349c0.61945,0.83083 1.43267,1.7967 1.81138,2.14606c2.53946,2.35157 6.20333,2.33983 8.60774,-0.02642c0.37285,-0.36697 1.05982,-1.24184 1.52661,-1.94349c1.00404,-1.50606 1.36808,-1.92294 1.60294,-1.83193c0.09395,0.03523 0.69285,0.76037 1.32698,1.61175c0.63413,0.85138 1.47964,1.84955 1.87891,2.21946c2.50129,2.31634 6.18865,2.29872 8.55783,-0.03523c0.36404,-0.3611 1.05101,-1.23303 1.52955,-1.94349c1.02166,-1.52074 1.38863,-1.94349 1.61175,-1.85836c0.08807,0.03523 0.6811,0.75743 1.31523,1.60588c1.32991,1.77615 2.3868,2.81542 3.33212,3.27634c1.88771,0.9189 3.96625,0.90129 5.74534,-0.04697c2.38386,-1.2712 4.83525,-5.5692 6.14755,-10.7861c1.10679,-4.40075 1.29468,-9.43563 0.52257,-14.01253c-2.12845,-12.59454 -11.3439,-22.8933 -23.45991,-26.21661c-3.53763,-0.97175 -7.75049,-1.32991 -11.4672,-0.97468M563.46486,640.51736c2.55707,0.38459 5.02314,1.1567 7.47159,2.33689c2.76845,1.33285 4.96736,2.90643 7.18682,5.14351c2.28111,2.29872 3.74607,4.35671 5.12883,7.19269c1.33872,2.75084 2.13432,5.31085 2.60111,8.39636c0.28477,1.87303 0.28477,5.78057 0.00294,7.63306c-0.38752,2.54533 -1.18606,5.34901 -2.1079,7.41581c-0.30826,0.68991 -1.34166,2.29285 -1.63524,2.53652c-0.26422,0.22018 -0.52844,-0.03523 -1.83487,-1.77028c-1.24184,-1.64698 -1.64111,-2.05799 -2.64808,-2.72735c-0.84844,-0.56367 -1.81725,-0.8778 -2.93873,-0.95413c-2.47194,-0.1644 -4.41837,0.96294 -6.11232,3.5435c-0.38165,0.58129 -0.87193,1.28 -1.09211,1.55597c-0.34055,0.42863 -0.42863,0.48147 -0.6312,0.37285c-0.12624,-0.06752 -0.68698,-0.73982 -1.24478,-1.49725c-0.55486,-0.7545 -1.36808,-1.72331 -1.80258,-2.15487c-2.45726,-2.4279 -6.22094,-2.47487 -8.66939,-0.10569c-0.37285,0.3611 -1.06276,1.23597 -1.53248,1.94643c-1.11266,1.6734 -1.37982,1.96404 -1.66753,1.81138c-0.12037,-0.06459 -0.74863,-0.82496 -1.39156,-1.68808c-0.64294,-0.86312 -1.4679,-1.83487 -1.83193,-2.15781c-2.51597,-2.24294 -6.15635,-2.20478 -8.48737,0.09101c-0.36404,0.35817 -1.08918,1.28588 -1.61469,2.06093c-0.52551,0.77505 -1.06276,1.50312 -1.19193,1.62056c-0.22312,0.20257 -0.24073,0.20257 -0.44624,0c-0.30826,-0.30826 -1.59707,-3.0679 -2.09909,-4.49763c-1.08624,-3.08845 -1.52074,-5.71599 -1.52074,-9.21838c0,-4.53286 0.84257,-8.2026 2.80368,-12.21289c1.39156,-2.84772 2.85652,-4.89984 5.13176,-7.19269c4.47121,-4.50644 10.06683,-7.11342 16.53731,-7.70645c1.02166,-0.09395 4.41837,0.0411 5.63672,0.22606M557.00612,643.22122c-2.11083,0.24367 -3.8635,0.74276 -5.52809,1.57946c-3.2235,1.62056 -6.05947,4.53873 -7.6448,7.85911c-1.29468,2.71267 -1.83193,5.3402 -1.70863,8.33177c0.18202,4.27451 1.52661,7.66535 4.02791,10.15197c1.11854,1.10973 2.05799,1.79377 3.41726,2.47487c4.85873,2.44551 12.48005,2.44551 17.33878,0c4.60919,-2.31927 7.19562,-6.70535 7.44517,-12.62684c0.1233,-2.99157 -0.41395,-5.6191 -1.70863,-8.33177c-2.24882,-4.71194 -6.74938,-8.29067 -11.58757,-9.21545c-0.89248,-0.17028 -3.33212,-0.30532 -4.05139,-0.22312M560.64063,649.38051c2.75084,0.77505 5.24919,2.92111 6.62314,5.6925c0.96294,1.94056 1.33872,3.7813 1.20661,5.92736c-0.15853,2.60992 -0.9189,4.59451 -2.28111,5.95672c-1.24771,1.25065 -2.48074,1.86423 -4.72075,2.34276c-1.41505,0.30532 -5.04369,0.30532 -6.45874,0c-2.24001,-0.47853 -3.47304,-1.09211 -4.72075,-2.34276c-1.36221,-1.36221 -2.12258,-3.3468 -2.28111,-5.95378c-0.07046,-1.18019 0.07633,-2.95928 0.29651,-3.55231c0.08807,-0.24073 0.11743,-0.22018 0.36404,0.26716c0.36404,0.7134 1.68514,2.00808 2.43671,2.38973c1.72918,0.87487 3.73139,0.87487 5.46057,0c0.78092,-0.39633 2.07854,-1.68808 2.469,-2.46019c0.86312,-1.69982 0.87193,-3.7813 0.02936,-5.44296c-0.41101,-0.81615 -1.44147,-1.88184 -2.27817,-2.36038c-0.39046,-0.22312 -0.7134,-0.4433 -0.71633,-0.49028c0,-0.04404 0.24661,-0.1145 0.55486,-0.1556c0.30826,-0.0411 0.61064,-0.09688 0.67523,-0.1233c0.29945,-0.1233 2.54533,0.0822 3.34093,0.30532" className="SFSymbolsPreviewWireframe"/></g>
 </g>
</svg>