<?xml version="1.0" encoding="UTF-8"?><!--Generator: https://SymbolKit.app--><!DOCTYPE svg PUBLIC "-//W3C//DTD SVG 1.1//EN" "http://www.w3.org/Graphics/SVG/1.1/DTD/svg11.dtd"><svg xmlns="http://www.w3.org/2000/svg" xmlns:xlink="http://www.w3.org/1999/xlink" version="1.1" viewBox="0 0 3300 2200">
 <!--glyph: "100092", point size: 100.0, font version: "20.0d10e1", template writer version: "138.0.0"-->
 <style>.SFSymbolsPreviewWireframe {fill:none;opacity:1.0;stroke:black;stroke-width:0.5}
</style>
 <g id="Notes">
  <rect height="2200" id="artboard" style="fill:white;opacity:1" width="3300" x="0" y="0"/>
  <line style="fill:none;stroke:black;opacity:1;stroke-width:0.5;" x1="263" x2="3036" y1="292" y2="292"/>
  <text style="stroke:none;fill:black;font-family:sans-serif;font-size:13;font-weight:bold;" transform="matrix(1 0 0 1 263 322)">Weight/Scale Variations</text>
  <text style="stroke:none;fill:black;font-family:sans-serif;font-size:13;text-anchor:middle;" transform="matrix(1 0 0 1 559.711 322)">Ultralight</text>
  <text style="stroke:none;fill:black;font-family:sans-serif;font-size:13;text-anchor:middle;" transform="matrix(1 0 0 1 856.422 322)">Thin</text>
  <text style="stroke:none;fill:black;font-family:sans-serif;font-size:13;text-anchor:middle;" transform="matrix(1 0 0 1 1153.13 322)">Light</text>
  <text style="stroke:none;fill:black;font-family:sans-serif;font-size:13;text-anchor:middle;" transform="matrix(1 0 0 1 1449.84 322)">Regular</text>
  <text style="stroke:none;fill:black;font-family:sans-serif;font-size:13;text-anchor:middle;" transform="matrix(1 0 0 1 1746.56 322)">Medium</text>
  <text style="stroke:none;fill:black;font-family:sans-serif;font-size:13;text-anchor:middle;" transform="matrix(1 0 0 1 2043.27 322)">Semibold</text>
  <text style="stroke:none;fill:black;font-family:sans-serif;font-size:13;text-anchor:middle;" transform="matrix(1 0 0 1 2339.98 322)">Bold</text>
  <text style="stroke:none;fill:black;font-family:sans-serif;font-size:13;text-anchor:middle;" transform="matrix(1 0 0 1 2636.69 322)">Heavy</text>
  <text style="stroke:none;fill:black;font-family:sans-serif;font-size:13;text-anchor:middle;" transform="matrix(1 0 0 1 2933.4 322)">Black</text>
  <line style="fill:none;stroke:black;opacity:1;stroke-width:0.5;" x1="263" x2="3036" y1="1903" y2="1903"/>
  <g transform="matrix(0.2 0 0 0.2 263 1933)">
   <path d="m46.2402 4.15039c21.7773 0 39.4531-17.627 39.4531-39.4043s-17.6758-39.4043-39.4531-39.4043c-21.7285 0-39.4043 17.627-39.4043 39.4043s17.6758 39.4043 39.4043 39.4043Zm0-7.42188c-17.6758 0-31.9336-14.3066-31.9336-31.9824s14.2578-31.9824 31.9336-31.9824 31.9824 14.3066 31.9824 31.9824-14.3066 31.9824-31.9824 31.9824Zm-17.9688-31.9824c0 2.14844 1.51367 3.61328 3.75977 3.61328h10.498v10.5957c0 2.19727 1.46484 3.71094 3.61328 3.71094 2.24609 0 3.71094-1.51367 3.71094-3.71094v-10.5957h10.5957c2.19727 0 3.71094-1.46484 3.71094-3.61328 0-2.19727-1.51367-3.71094-3.71094-3.71094h-10.5957v-10.5469c0-2.24609-1.46484-3.75977-3.71094-3.75977-2.14844 0-3.61328 1.51367-3.61328 3.75977v10.5469h-10.498c-2.24609 0-3.75977 1.51367-3.75977 3.71094Z"/>
  </g>
  <g transform="matrix(0.2 0 0 0.2 281.506 1933)">
   <path d="m58.5449 14.5508c27.4902 0 49.8047-22.3145 49.8047-49.8047s-22.3145-49.8047-49.8047-49.8047-49.8047 22.3145-49.8047 49.8047 22.3145 49.8047 49.8047 49.8047Zm0-8.30078c-22.9492 0-41.5039-18.5547-41.5039-41.5039s18.5547-41.5039 41.5039-41.5039 41.5039 18.5547 41.5039 41.5039-18.5547 41.5039-41.5039 41.5039Zm-22.6562-41.5039c0 2.39258 1.66016 4.00391 4.15039 4.00391h14.3555v14.4043c0 2.44141 1.66016 4.15039 4.05273 4.15039 2.44141 0 4.15039-1.66016 4.15039-4.15039v-14.4043h14.4043c2.44141 0 4.15039-1.61133 4.15039-4.00391 0-2.44141-1.70898-4.15039-4.15039-4.15039h-14.4043v-14.3555c0-2.49023-1.70898-4.19922-4.15039-4.19922-2.39258 0-4.05273 1.70898-4.05273 4.19922v14.3555h-14.3555c-2.49023 0-4.15039 1.70898-4.15039 4.15039Z"/>
  </g>
  <g transform="matrix(0.2 0 0 0.2 304.924 1933)">
   <path d="m74.8535 28.3203c35.1074 0 63.623-28.4668 63.623-63.5742s-28.5156-63.623-63.623-63.623-63.5742 28.5156-63.5742 63.623 28.4668 63.5742 63.5742 63.5742Zm0-9.08203c-30.127 0-54.4922-24.3652-54.4922-54.4922s24.3652-54.4922 54.4922-54.4922 54.4922 24.3652 54.4922 54.4922-24.3652 54.4922-54.4922 54.4922Zm-28.8574-54.4922c0 2.58789 1.85547 4.39453 4.58984 4.39453h19.7266v19.7754c0 2.68555 1.85547 4.58984 4.44336 4.58984 2.68555 0 4.54102-1.85547 4.54102-4.58984v-19.7754h19.7754c2.68555 0 4.58984-1.80664 4.58984-4.39453 0-2.73438-1.85547-4.58984-4.58984-4.58984h-19.7754v-19.7266c0-2.73438-1.85547-4.63867-4.54102-4.63867-2.58789 0-4.44336 1.9043-4.44336 4.63867v19.7266h-19.7266c-2.73438 0-4.58984 1.85547-4.58984 4.58984Z"/>
  </g>
  <text style="stroke:none;fill:black;font-family:sans-serif;font-size:13;font-weight:bold;" transform="matrix(1 0 0 1 263 1953)">Design Variations</text>
  <text style="stroke:none;fill:black;font-family:sans-serif;font-size:13;" transform="matrix(1 0 0 1 263 1971)">Symbols are supported in up to nine weights and three scales.</text>
  <text style="stroke:none;fill:black;font-family:sans-serif;font-size:13;" transform="matrix(1 0 0 1 263 1989)">For optimal layout with text and other symbols, vertically align</text>
  <text style="stroke:none;fill:black;font-family:sans-serif;font-size:13;" transform="matrix(1 0 0 1 263 2007)">symbols with the adjacent text.</text>
  <line style="fill:none;stroke:#00AEEF;stroke-width:0.5;opacity:1.0;" x1="776" x2="776" y1="1919" y2="1933"/>
  <g transform="matrix(0.2 0 0 0.2 776 1933)">
   <path d="m16.5527 0.78125c2.58789 0 3.85742-0.976562 4.78516-3.71094l6.29883-17.2363h28.8086l6.29883 17.2363c0.927734 2.73438 2.19727 3.71094 4.73633 3.71094 2.58789 0 4.24805-1.5625 4.24805-4.00391 0-0.830078-0.146484-1.61133-0.537109-2.63672l-22.9004-60.9863c-1.12305-2.97852-3.125-4.49219-6.25-4.49219-3.02734 0-5.07812 1.46484-6.15234 4.44336l-22.9004 61.084c-0.390625 1.02539-0.537109 1.80664-0.537109 2.63672 0 2.44141 1.5625 3.95508 4.10156 3.95508Zm13.4766-28.3691 11.8652-32.8613h0.244141l11.8652 32.8613Z"/>
  </g>
  <line style="fill:none;stroke:#00AEEF;stroke-width:0.5;opacity:1.0;" x1="792.836" x2="792.836" y1="1919" y2="1933"/>
  <text style="stroke:none;fill:black;font-family:sans-serif;font-size:13;font-weight:bold;" transform="matrix(1 0 0 1 776 1953)">Margins</text>
  <text style="stroke:none;fill:black;font-family:sans-serif;font-size:13;" transform="matrix(1 0 0 1 776 1971)">Leading and trailing margins on the left and right side of each symbol</text>
  <text style="stroke:none;fill:black;font-family:sans-serif;font-size:13;" transform="matrix(1 0 0 1 776 1989)">can be adjusted by modifying the x-location of the margin guidelines.</text>
  <text style="stroke:none;fill:black;font-family:sans-serif;font-size:13;" transform="matrix(1 0 0 1 776 2007)">Modifications are automatically applied proportionally to all</text>
  <text style="stroke:none;fill:black;font-family:sans-serif;font-size:13;" transform="matrix(1 0 0 1 776 2025)">scales and weights.</text>
  <g transform="matrix(0.2 0 0 0.2 1289 1933)">
   <path d="m14.209 9.32617 8.49609 8.54492c4.29688 4.3457 9.22852 4.05273 13.8672-1.07422l53.4668-58.9355-4.83398-4.88281-53.0762 58.3984c-1.75781 2.00195-3.41797 2.49023-5.76172 0.146484l-5.85938-5.81055c-2.34375-2.29492-1.80664-4.00391 0.195312-5.81055l57.373-54.0039-4.88281-4.83398-57.959 54.4434c-4.93164 4.58984-5.32227 9.47266-1.02539 13.8184Zm32.0801-90.9668c-2.09961 2.05078-2.24609 4.93164-1.07422 6.88477 1.17188 1.80664 3.4668 2.97852 6.68945 2.14844 7.32422-1.70898 14.9414-2.00195 22.0703 2.68555l-2.92969 7.27539c-1.70898 4.15039-0.830078 7.08008 1.85547 9.81445l11.4746 11.5723c2.44141 2.44141 4.49219 2.53906 7.32422 2.05078l5.32227-0.976562 3.32031 3.36914-0.195312 2.7832c-0.195312 2.49023 0.439453 4.39453 2.88086 6.78711l3.80859 3.71094c2.39258 2.39258 5.46875 2.53906 7.8125 0.195312l14.5508-14.5996c2.34375-2.34375 2.24609-5.32227-0.146484-7.71484l-3.85742-3.80859c-2.39258-2.39258-4.24805-3.17383-6.64062-2.97852l-2.88086 0.244141-3.22266-3.17383 1.2207-5.61523c0.634766-2.83203-0.146484-5.0293-3.07617-7.95898l-10.9863-10.9375c-16.6992-16.6016-38.8672-16.2109-53.3203-1.75781Zm7.4707 1.85547c12.1582-8.88672 28.6133-7.37305 39.7461 3.75977l12.1582 12.0605c1.17188 1.17188 1.36719 2.09961 1.02539 3.80859l-1.61133 7.42188 7.51953 7.42188 4.93164-0.292969c1.26953-0.0488281 1.66016 0.0488281 2.63672 1.02539l2.88086 2.88086-12.207 12.207-2.88086-2.88086c-0.976562-0.976562-1.12305-1.36719-1.07422-2.68555l0.341797-4.88281-7.4707-7.42188-7.61719 1.26953c-1.61133 0.341797-2.34375 0.195312-3.56445-0.976562l-10.0098-10.0098c-1.26953-1.17188-1.41602-2.00195-0.634766-3.85742l4.39453-10.4492c-7.8125-7.27539-17.9688-10.4004-28.125-7.42188-0.78125 0.195312-1.07422-0.439453-0.439453-0.976562Z"/>
  </g>
  <text style="stroke:none;fill:black;font-family:sans-serif;font-size:13;font-weight:bold;" transform="matrix(1 0 0 1 1289 1953)">Exporting</text>
  <text style="stroke:none;fill:black;font-family:sans-serif;font-size:13;" transform="matrix(1 0 0 1 1289 1971)">Symbols should be outlined when exporting to ensure the</text>
  <text style="stroke:none;fill:black;font-family:sans-serif;font-size:13;" transform="matrix(1 0 0 1 1289 1989)">design is preserved when submitting to Xcode.</text>
  <text id="template-version" style="stroke:none;fill:black;font-family:sans-serif;font-size:13;text-anchor:end;" transform="matrix(1 0 0 1 3036 1933)">Template v.6.0</text>
  <text style="stroke:none;fill:black;font-family:sans-serif;font-size:13;text-anchor:end;" transform="matrix(1 0 0 1 3036 1951)">Requires Xcode 16 or greater</text>
  <text id="descriptive-name" style="stroke:none;fill:black;font-family:sans-serif;font-size:13;text-anchor:end;" transform="matrix(1 0 0 1 3036 1969)">Generated from square</text>
  <text style="stroke:none;fill:black;font-family:sans-serif;font-size:13;text-anchor:end;" transform="matrix(1 0 0 1 3036 1987)">Typeset at 100.0 points</text>
  <text style="stroke:none;fill:black;font-family:sans-serif;font-size:13;" transform="matrix(1 0 0 1 263 726)">Small</text>
  <text style="stroke:none;fill:black;font-family:sans-serif;font-size:13;" transform="matrix(1 0 0 1 263 1156)">Medium</text>
  <text style="stroke:none;fill:black;font-family:sans-serif;font-size:13;" transform="matrix(1 0 0 1 263 1586)">Large</text>
 </g>
 <g id="Guides">
  <g id="H-reference" style="fill:#27AAE1;stroke:none;" transform="matrix(1 0 0 1 339 696)">
   <path d="M0.993654 0L3.63775 0L29.3281-67.1323L30.0303-67.1323L30.0303-70.459L28.1226-70.459ZM11.6885-24.4799L46.9815-24.4799L46.2315-26.7285L12.4385-26.7285ZM55.1196 0L57.7637 0L30.6382-70.459L29.4326-70.459L29.4326-67.1323Z"/>
  </g>
  <line id="Baseline-S" style="fill:none;stroke:#27AAE1;opacity:1;stroke-width:0.5;" x1="263" x2="3036" y1="696" y2="696"/>
  <line id="Capline-S" style="fill:none;stroke:#27AAE1;opacity:1;stroke-width:0.5;" x1="263" x2="3036" y1="625.541" y2="625.541"/>
  <g id="H-reference" style="fill:#27AAE1;stroke:none;" transform="matrix(1 0 0 1 339 1126)">
   <path d="M0.993654 0L3.63775 0L29.3281-67.1323L30.0303-67.1323L30.0303-70.459L28.1226-70.459ZM11.6885-24.4799L46.9815-24.4799L46.2315-26.7285L12.4385-26.7285ZM55.1196 0L57.7637 0L30.6382-70.459L29.4326-70.459L29.4326-67.1323Z"/>
  </g>
  <line id="Baseline-M" style="fill:none;stroke:#27AAE1;opacity:1;stroke-width:0.5;" x1="263" x2="3036" y1="1126" y2="1126"/>
  <line id="Capline-M" style="fill:none;stroke:#27AAE1;opacity:1;stroke-width:0.5;" x1="263" x2="3036" y1="1055.54" y2="1055.54"/>
  <g id="H-reference" style="fill:#27AAE1;stroke:none;" transform="matrix(1 0 0 1 339 1556)">
   <path d="M0.993654 0L3.63775 0L29.3281-67.1323L30.0303-67.1323L30.0303-70.459L28.1226-70.459ZM11.6885-24.4799L46.9815-24.4799L46.2315-26.7285L12.4385-26.7285ZM55.1196 0L57.7637 0L30.6382-70.459L29.4326-70.459L29.4326-67.1323Z"/>
  </g>
  <line id="Baseline-L" style="fill:none;stroke:#27AAE1;opacity:1;stroke-width:0.5;" x1="263" x2="3036" y1="1556" y2="1556"/>
  <line id="Capline-L" style="fill:none;stroke:#27AAE1;opacity:1;stroke-width:0.5;" x1="263" x2="3036" y1="1485.54" y2="1485.54"/>
  <line id="right-margin-Black-S" style="fill:none;stroke:#00AEEF;stroke-width:0.5;opacity:1.0;" x1="2981.3" x2="2981.3" y1="600.785" y2="720.121"/>
  <line id="left-margin-Black-S" style="fill:none;stroke:#00AEEF;stroke-width:0.5;opacity:1.0;" x1="2885.5" x2="2885.5" y1="600.785" y2="720.121"/>
  <line id="right-margin-Regular-S" style="fill:none;stroke:#00AEEF;stroke-width:0.5;opacity:1.0;" x1="1495.18" x2="1495.18" y1="600.785" y2="720.121"/>
  <line id="left-margin-Regular-S" style="fill:none;stroke:#00AEEF;stroke-width:0.5;opacity:1.0;" x1="1404.51" x2="1404.51" y1="600.785" y2="720.121"/>
  <line id="right-margin-Ultralight-S" style="fill:none;stroke:#00AEEF;stroke-width:0.5;opacity:1.0;" x1="603.073" x2="603.073" y1="600.785" y2="720.121"/>
  <line id="left-margin-Ultralight-S" style="fill:none;stroke:#00AEEF;stroke-width:0.5;opacity:1.0;" x1="516.35" x2="516.35" y1="600.785" y2="720.121"/>
 </g>
 <g id="Symbols">
  <g id="Black-S"><path d="M2930.71409,631.56307c-4.618,0.40807 -9.38572,2.07267 -13.32849,4.65323c-1.86423,1.21835 -3.05616,2.19597 -4.75892,3.89873c-5.77177,5.77764 -8.80737,13.46354 -8.53141,21.61329c0.20844,6.22094 2.16955,11.76665 5.9303,16.79272c1.16551,1.55597 3.73433,4.18057 5.18754,5.30497c4.23341,3.27047 8.76921,5.2169 14.0918,6.04773c1.89946,0.29651 6.32076,0.29651 8.22021,0c6.5703,-1.02753 12.04849,-3.77836 16.62245,-8.35233c4.57396,-4.57396 7.3248,-10.05215 8.35233,-16.62245c0.29651,-1.89946 0.29651,-6.32076 0,-8.22021c-0.83083,-5.32552 -2.78313,-9.87013 -6.04773,-14.0918c-0.98936,-1.27707 -3.54644,-3.83414 -4.83525,-4.83231c-6.06828,-4.69433 -13.36959,-6.85801 -20.90283,-6.19158M2935.56989,637.42291c5.40186,0.51376 10.25765,2.74496 14.15051,6.50278c7.30718,7.05177 9.24187,18.01989 4.7824,27.13552c-1.27413,2.60698 -2.81836,4.71488 -4.95268,6.75819c-1.82019,1.74092 -3.62277,2.98864 -5.94498,4.10717c-6.47048,3.12662 -13.90978,3.12662 -20.38026,0c-3.08845,-1.48845 -5.62791,-3.47891 -7.87379,-6.16516c-5.86865,-7.0136 -7.06645,-17.02172 -3.0268,-25.2478c3.95157,-8.04407 11.89289,-13.06721 20.85586,-13.19638c0.61358,-0.00587 1.68808,0.0411 2.38973,0.10569M2920.77643,649.21304c-0.6723,0.21138 -1.28881,0.71046 -1.66459,1.34753c-0.26716,0.45798 -0.31707,0.67523 -0.31707,1.42092c0,0.75156 0.04697,0.96294 0.32587,1.4356c0.36697,0.62532 0.93358,1.10092 1.58239,1.33285c0.64,0.22899 10.10499,0.22899 10.745,0c0.64881,-0.23193 1.21542,-0.70753 1.58239,-1.33285c0.2789,-0.47266 0.32587,-0.68404 0.32587,-1.4356c0,-0.74569 -0.04991,-0.96294 -0.31707,-1.42092c-0.38752,-0.65468 -0.99523,-1.13909 -1.70863,-1.3534c-0.74863,-0.22606 -9.83196,-0.22018 -10.55417,0.00587M2939.99119,649.14846c-0.54312,0.17615 -0.99523,0.46092 -1.36808,0.85725c-0.22899,0.24073 -1.91414,3.48185 -4.43304,8.5226l-4.06313,8.13214h-4.05139h-4.05139l0.73101,-1.4679l0.73395,-1.4679l2.28992,-0.00587c2.469,-0.00587 2.85065,-0.07339 3.58167,-0.6312c0.22606,-0.17028 0.55486,-0.56074 0.73395,-0.86312c0.2789,-0.47266 0.32587,-0.68404 0.32587,-1.4356c0,-0.74863 -0.04697,-0.96294 -0.32,-1.42679c-0.41101,-0.69578 -1.13322,-1.2301 -1.89946,-1.3945c-0.40514,-0.08807 -2.39561,-0.11743 -6.1769,-0.09395c-5.45764,0.03817 -5.58681,0.04404 -6.04773,0.29064c-1.03927,0.56367 -1.60881,1.49432 -1.60881,2.6334c0,1.23303 0.75156,2.29579 1.94349,2.75084c0.29945,0.1145 0.54606,0.22606 0.54606,0.24661c0,0.02055 -0.56367,1.17138 -1.25065,2.55707c-1.17725,2.37212 -1.25358,2.56588 -1.24771,3.22056c0.00881,0.88074 0.32,1.59707 0.93358,2.149c0.94826,0.85138 0.57542,0.82202 9.49141,0.78386c7.92957,-0.03229 7.98829,-0.03523 8.45508,-0.28477c0.25835,-0.14092 0.63707,-0.43156 0.83964,-0.64587c0.22606,-0.2378 1.60001,-2.85359 3.49359,-6.64663c1.71744,-3.43781 3.1501,-6.25323 3.1824,-6.25323c0.05872,0 2.52478,4.87635 2.52478,4.99084c0,0.03229 -0.30826,0.05872 -0.68698,0.05872c-1.34753,0 -2.34276,0.51376 -2.92992,1.51487c-0.26716,0.45798 -0.31707,0.67523 -0.31707,1.42092c0,0.75156 0.04697,0.96294 0.32587,1.4356c0.17908,0.30239 0.50789,0.69285 0.73395,0.86312c0.73101,0.5578 1.11266,0.62532 3.58167,0.6312l2.29579,0.00587l0.36991,0.75156c0.45798,0.92771 0.98349,1.53835 1.5912,1.84955c1.94056,0.98936 4.23341,-0.4433 4.23341,-2.64515c0,-0.67523 -0.10569,-0.90422 -4.59158,-9.88187c-2.61285,-5.22571 -4.75598,-9.37692 -4.97029,-9.62059c-0.20844,-0.2378 -0.59009,-0.54019 -0.84844,-0.6723c-0.5167,-0.26129 -1.60881,-0.38165 -2.0756,-0.22899" className="SFSymbolsPreviewWireframe"/></g>
  <g id="Regular-S"><path d="M1447.15904,631.56307c-4.618,0.40807 -9.38572,2.07267 -13.32849,4.65323c-1.86423,1.21835 -3.05616,2.19597 -4.75892,3.89873c-5.77177,5.77764 -8.80737,13.46354 -8.53141,21.61329c0.20844,6.22094 2.16955,11.76665 5.9303,16.79272c1.16551,1.55597 3.73433,4.18057 5.18754,5.30497c4.23341,3.27047 8.76921,5.2169 14.0918,6.04773c1.89946,0.29651 6.32076,0.29651 8.22021,0c6.5703,-1.02753 12.04849,-3.77836 16.62245,-8.35233c4.57396,-4.57396 7.3248,-10.05215 8.35233,-16.62245c0.29651,-1.89946 0.29651,-6.32076 0,-8.22021c-0.83083,-5.32552 -2.78313,-9.87013 -6.04773,-14.0918c-0.98936,-1.27707 -3.54644,-3.83414 -4.83525,-4.83231c-6.06828,-4.69433 -13.36959,-6.85801 -20.90283,-6.19158M1452.01484,637.42291c5.40186,0.51376 10.25765,2.74496 14.15051,6.50278c7.30718,7.05177 9.24187,18.01989 4.7824,27.13552c-1.27413,2.60698 -2.81836,4.71488 -4.95268,6.75819c-1.82019,1.74092 -3.62277,2.98864 -5.94498,4.10717c-6.47048,3.12662 -13.90978,3.12662 -20.38026,0c-3.08845,-1.48845 -5.62791,-3.47891 -7.87379,-6.16516c-5.86865,-7.0136 -7.06645,-17.02172 -3.0268,-25.2478c3.95157,-8.04407 11.89289,-13.06721 20.85586,-13.19638c0.61358,-0.00587 1.68808,0.0411 2.38973,0.10569M1437.22138,649.21304c-0.6723,0.21138 -1.28881,0.71046 -1.66459,1.34753c-0.26716,0.45798 -0.31707,0.67523 -0.31707,1.42092c0,0.75156 0.04697,0.96294 0.32587,1.4356c0.36697,0.62532 0.93358,1.10092 1.58239,1.33285c0.64,0.22899 10.10499,0.22899 10.745,0c0.64881,-0.23193 1.21542,-0.70753 1.58239,-1.33285c0.2789,-0.47266 0.32587,-0.68404 0.32587,-1.4356c0,-0.74569 -0.04991,-0.96294 -0.31707,-1.42092c-0.38752,-0.65468 -0.99523,-1.13909 -1.70863,-1.3534c-0.74863,-0.22606 -9.83196,-0.22018 -10.55417,0.00587M1456.43614,649.14846c-0.54312,0.17615 -0.99523,0.46092 -1.36808,0.85725c-0.22899,0.24073 -1.91414,3.48185 -4.43304,8.5226l-4.06313,8.13214h-4.05139h-4.05139l0.73101,-1.4679l0.73395,-1.4679l2.28992,-0.00587c2.469,-0.00587 2.85065,-0.07339 3.58167,-0.6312c0.22606,-0.17028 0.55486,-0.56074 0.73395,-0.86312c0.2789,-0.47266 0.32587,-0.68404 0.32587,-1.4356c0,-0.74863 -0.04697,-0.96294 -0.32,-1.42679c-0.41101,-0.69578 -1.13322,-1.2301 -1.89946,-1.3945c-0.40514,-0.08807 -2.39561,-0.11743 -6.1769,-0.09395c-5.45764,0.03817 -5.58681,0.04404 -6.04773,0.29064c-1.03927,0.56367 -1.60881,1.49432 -1.60881,2.6334c0,1.23303 0.75156,2.29579 1.94349,2.75084c0.29945,0.1145 0.54606,0.22606 0.54606,0.24661c0,0.02055 -0.56367,1.17138 -1.25065,2.55707c-1.17725,2.37212 -1.25358,2.56588 -1.24771,3.22056c0.00881,0.88074 0.32,1.59707 0.93358,2.149c0.94826,0.85138 0.57542,0.82202 9.49141,0.78386c7.92957,-0.03229 7.98829,-0.03523 8.45508,-0.28477c0.25835,-0.14092 0.63707,-0.43156 0.83964,-0.64587c0.22606,-0.2378 1.60001,-2.85359 3.49359,-6.64663c1.71744,-3.43781 3.1501,-6.25323 3.1824,-6.25323c0.05872,0 2.52478,4.87635 2.52478,4.99084c0,0.03229 -0.30826,0.05872 -0.68698,0.05872c-1.34753,0 -2.34276,0.51376 -2.92992,1.51487c-0.26716,0.45798 -0.31707,0.67523 -0.31707,1.42092c0,0.75156 0.04697,0.96294 0.32587,1.4356c0.17908,0.30239 0.50789,0.69285 0.73395,0.86312c0.73101,0.5578 1.11266,0.62532 3.58167,0.6312l2.29579,0.00587l0.36991,0.75156c0.45798,0.92771 0.98349,1.53835 1.5912,1.84955c1.94056,0.98936 4.23341,-0.4433 4.23341,-2.64515c0,-0.67523 -0.10569,-0.90422 -4.59158,-9.88187c-2.61285,-5.22571 -4.75598,-9.37692 -4.97029,-9.62059c-0.20844,-0.2378 -0.59009,-0.54019 -0.84844,-0.6723c-0.5167,-0.26129 -1.60881,-0.38165 -2.0756,-0.22899" className="SFSymbolsPreviewWireframe"/></g>
  <g id="Ultralight-S"><path d="M557.02545,631.56307c-4.618,0.40807 -9.38572,2.07267 -13.32849,4.65323c-1.86423,1.21835 -3.05616,2.19597 -4.75892,3.89873c-5.77177,5.77764 -8.80737,13.46354 -8.53141,21.61329c0.20844,6.22094 2.16955,11.76665 5.9303,16.79272c1.16551,1.55597 3.73433,4.18057 5.18754,5.30497c4.23341,3.27047 8.76921,5.2169 14.0918,6.04773c1.89946,0.29651 6.32076,0.29651 8.22021,0c6.5703,-1.02753 12.04849,-3.77836 16.62245,-8.35233c4.57396,-4.57396 7.3248,-10.05215 8.35233,-16.62245c0.29651,-1.89946 0.29651,-6.32076 0,-8.22021c-0.83083,-5.32552 -2.78313,-9.87013 -6.04773,-14.0918c-0.98936,-1.27707 -3.54644,-3.83414 -4.83525,-4.83231c-6.06828,-4.69433 -13.36959,-6.85801 -20.90283,-6.19158M561.88125,637.42291c5.40186,0.51376 10.25765,2.74496 14.15051,6.50278c7.30718,7.05177 9.24187,18.01989 4.7824,27.13552c-1.27413,2.60698 -2.81836,4.71488 -4.95268,6.75819c-1.82019,1.74092 -3.62277,2.98864 -5.94498,4.10717c-6.47048,3.12662 -13.90978,3.12662 -20.38026,0c-3.08845,-1.48845 -5.62791,-3.47891 -7.87379,-6.16516c-5.86865,-7.0136 -7.06645,-17.02172 -3.0268,-25.2478c3.95157,-8.04407 11.89289,-13.06721 20.85586,-13.19638c0.61358,-0.00587 1.68808,0.0411 2.38973,0.10569M547.08779,649.21304c-0.6723,0.21138 -1.28881,0.71046 -1.66459,1.34753c-0.26716,0.45798 -0.31707,0.67523 -0.31707,1.42092c0,0.75156 0.04697,0.96294 0.32587,1.4356c0.36697,0.62532 0.93358,1.10092 1.58239,1.33285c0.64,0.22899 10.10499,0.22899 10.745,0c0.64881,-0.23193 1.21542,-0.70753 1.58239,-1.33285c0.2789,-0.47266 0.32587,-0.68404 0.32587,-1.4356c0,-0.74569 -0.04991,-0.96294 -0.31707,-1.42092c-0.38752,-0.65468 -0.99523,-1.13909 -1.70863,-1.3534c-0.74863,-0.22606 -9.83196,-0.22018 -10.55417,0.00587M566.30255,649.14846c-0.54312,0.17615 -0.99523,0.46092 -1.36808,0.85725c-0.22899,0.24073 -1.91414,3.48185 -4.43304,8.5226l-4.06313,8.13214h-4.05139h-4.05139l0.73101,-1.4679l0.73395,-1.4679l2.28992,-0.00587c2.469,-0.00587 2.85065,-0.07339 3.58167,-0.6312c0.22606,-0.17028 0.55486,-0.56074 0.73395,-0.86312c0.2789,-0.47266 0.32587,-0.68404 0.32587,-1.4356c0,-0.74863 -0.04697,-0.96294 -0.32,-1.42679c-0.41101,-0.69578 -1.13322,-1.2301 -1.89946,-1.3945c-0.40514,-0.08807 -2.39561,-0.11743 -6.1769,-0.09395c-5.45764,0.03817 -5.58681,0.04404 -6.04773,0.29064c-1.03927,0.56367 -1.60881,1.49432 -1.60881,2.6334c0,1.23303 0.75156,2.29579 1.94349,2.75084c0.29945,0.1145 0.54606,0.22606 0.54606,0.24661c0,0.02055 -0.56367,1.17138 -1.25065,2.55707c-1.17725,2.37212 -1.25358,2.56588 -1.24771,3.22056c0.00881,0.88074 0.32,1.59707 0.93358,2.149c0.94826,0.85138 0.57542,0.82202 9.49141,0.78386c7.92957,-0.03229 7.98829,-0.03523 8.45508,-0.28477c0.25835,-0.14092 0.63707,-0.43156 0.83964,-0.64587c0.22606,-0.2378 1.60001,-2.85359 3.49359,-6.64663c1.71744,-3.43781 3.1501,-6.25323 3.1824,-6.25323c0.05872,0 2.52478,4.87635 2.52478,4.99084c0,0.03229 -0.30826,0.05872 -0.68698,0.05872c-1.34753,0 -2.34276,0.51376 -2.92992,1.51487c-0.26716,0.45798 -0.31707,0.67523 -0.31707,1.42092c0,0.75156 0.04697,0.96294 0.32587,1.4356c0.17908,0.30239 0.50789,0.69285 0.73395,0.86312c0.73101,0.5578 1.11266,0.62532 3.58167,0.6312l2.29579,0.00587l0.36991,0.75156c0.45798,0.92771 0.98349,1.53835 1.5912,1.84955c1.94056,0.98936 4.23341,-0.4433 4.23341,-2.64515c0,-0.67523 -0.10569,-0.90422 -4.59158,-9.88187c-2.61285,-5.22571 -4.75598,-9.37692 -4.97029,-9.62059c-0.20844,-0.2378 -0.59009,-0.54019 -0.84844,-0.6723c-0.5167,-0.26129 -1.60881,-0.38165 -2.0756,-0.22899" className="SFSymbolsPreviewWireframe"/></g>
 </g>
</svg>