<?xml version="1.0" encoding="UTF-8"?><!--Generator: https://SymbolKit.app--><!DOCTYPE svg PUBLIC "-//W3C//DTD SVG 1.1//EN" "http://www.w3.org/Graphics/SVG/1.1/DTD/svg11.dtd"><svg xmlns="http://www.w3.org/2000/svg" xmlns:xlink="http://www.w3.org/1999/xlink" version="1.1" viewBox="0 0 3300 2200">
 <!--glyph: "100092", point size: 100.0, font version: "20.0d10e1", template writer version: "138.0.0"-->
 <style>.SFSymbolsPreviewWireframe {fill:none;opacity:1.0;stroke:black;stroke-width:0.5}
</style>
 <g id="Notes">
  <rect height="2200" id="artboard" style="fill:white;opacity:1" width="3300" x="0" y="0"/>
  <line style="fill:none;stroke:black;opacity:1;stroke-width:0.5;" x1="263" x2="3036" y1="292" y2="292"/>
  <text style="stroke:none;fill:black;font-family:sans-serif;font-size:13;font-weight:bold;" transform="matrix(1 0 0 1 263 322)">Weight/Scale Variations</text>
  <text style="stroke:none;fill:black;font-family:sans-serif;font-size:13;text-anchor:middle;" transform="matrix(1 0 0 1 559.711 322)">Ultralight</text>
  <text style="stroke:none;fill:black;font-family:sans-serif;font-size:13;text-anchor:middle;" transform="matrix(1 0 0 1 856.422 322)">Thin</text>
  <text style="stroke:none;fill:black;font-family:sans-serif;font-size:13;text-anchor:middle;" transform="matrix(1 0 0 1 1153.13 322)">Light</text>
  <text style="stroke:none;fill:black;font-family:sans-serif;font-size:13;text-anchor:middle;" transform="matrix(1 0 0 1 1449.84 322)">Regular</text>
  <text style="stroke:none;fill:black;font-family:sans-serif;font-size:13;text-anchor:middle;" transform="matrix(1 0 0 1 1746.56 322)">Medium</text>
  <text style="stroke:none;fill:black;font-family:sans-serif;font-size:13;text-anchor:middle;" transform="matrix(1 0 0 1 2043.27 322)">Semibold</text>
  <text style="stroke:none;fill:black;font-family:sans-serif;font-size:13;text-anchor:middle;" transform="matrix(1 0 0 1 2339.98 322)">Bold</text>
  <text style="stroke:none;fill:black;font-family:sans-serif;font-size:13;text-anchor:middle;" transform="matrix(1 0 0 1 2636.69 322)">Heavy</text>
  <text style="stroke:none;fill:black;font-family:sans-serif;font-size:13;text-anchor:middle;" transform="matrix(1 0 0 1 2933.4 322)">Black</text>
  <line style="fill:none;stroke:black;opacity:1;stroke-width:0.5;" x1="263" x2="3036" y1="1903" y2="1903"/>
  <g transform="matrix(0.2 0 0 0.2 263 1933)">
   <path d="m46.2402 4.15039c21.7773 0 39.4531-17.627 39.4531-39.4043s-17.6758-39.4043-39.4531-39.4043c-21.7285 0-39.4043 17.627-39.4043 39.4043s17.6758 39.4043 39.4043 39.4043Zm0-7.42188c-17.6758 0-31.9336-14.3066-31.9336-31.9824s14.2578-31.9824 31.9336-31.9824 31.9824 14.3066 31.9824 31.9824-14.3066 31.9824-31.9824 31.9824Zm-17.9688-31.9824c0 2.14844 1.51367 3.61328 3.75977 3.61328h10.498v10.5957c0 2.19727 1.46484 3.71094 3.61328 3.71094 2.24609 0 3.71094-1.51367 3.71094-3.71094v-10.5957h10.5957c2.19727 0 3.71094-1.46484 3.71094-3.61328 0-2.19727-1.51367-3.71094-3.71094-3.71094h-10.5957v-10.5469c0-2.24609-1.46484-3.75977-3.71094-3.75977-2.14844 0-3.61328 1.51367-3.61328 3.75977v10.5469h-10.498c-2.24609 0-3.75977 1.51367-3.75977 3.71094Z"/>
  </g>
  <g transform="matrix(0.2 0 0 0.2 281.506 1933)">
   <path d="m58.5449 14.5508c27.4902 0 49.8047-22.3145 49.8047-49.8047s-22.3145-49.8047-49.8047-49.8047-49.8047 22.3145-49.8047 49.8047 22.3145 49.8047 49.8047 49.8047Zm0-8.30078c-22.9492 0-41.5039-18.5547-41.5039-41.5039s18.5547-41.5039 41.5039-41.5039 41.5039 18.5547 41.5039 41.5039-18.5547 41.5039-41.5039 41.5039Zm-22.6562-41.5039c0 2.39258 1.66016 4.00391 4.15039 4.00391h14.3555v14.4043c0 2.44141 1.66016 4.15039 4.05273 4.15039 2.44141 0 4.15039-1.66016 4.15039-4.15039v-14.4043h14.4043c2.44141 0 4.15039-1.61133 4.15039-4.00391 0-2.44141-1.70898-4.15039-4.15039-4.15039h-14.4043v-14.3555c0-2.49023-1.70898-4.19922-4.15039-4.19922-2.39258 0-4.05273 1.70898-4.05273 4.19922v14.3555h-14.3555c-2.49023 0-4.15039 1.70898-4.15039 4.15039Z"/>
  </g>
  <g transform="matrix(0.2 0 0 0.2 304.924 1933)">
   <path d="m74.8535 28.3203c35.1074 0 63.623-28.4668 63.623-63.5742s-28.5156-63.623-63.623-63.623-63.5742 28.5156-63.5742 63.623 28.4668 63.5742 63.5742 63.5742Zm0-9.08203c-30.127 0-54.4922-24.3652-54.4922-54.4922s24.3652-54.4922 54.4922-54.4922 54.4922 24.3652 54.4922 54.4922-24.3652 54.4922-54.4922 54.4922Zm-28.8574-54.4922c0 2.58789 1.85547 4.39453 4.58984 4.39453h19.7266v19.7754c0 2.68555 1.85547 4.58984 4.44336 4.58984 2.68555 0 4.54102-1.85547 4.54102-4.58984v-19.7754h19.7754c2.68555 0 4.58984-1.80664 4.58984-4.39453 0-2.73438-1.85547-4.58984-4.58984-4.58984h-19.7754v-19.7266c0-2.73438-1.85547-4.63867-4.54102-4.63867-2.58789 0-4.44336 1.9043-4.44336 4.63867v19.7266h-19.7266c-2.73438 0-4.58984 1.85547-4.58984 4.58984Z"/>
  </g>
  <text style="stroke:none;fill:black;font-family:sans-serif;font-size:13;font-weight:bold;" transform="matrix(1 0 0 1 263 1953)">Design Variations</text>
  <text style="stroke:none;fill:black;font-family:sans-serif;font-size:13;" transform="matrix(1 0 0 1 263 1971)">Symbols are supported in up to nine weights and three scales.</text>
  <text style="stroke:none;fill:black;font-family:sans-serif;font-size:13;" transform="matrix(1 0 0 1 263 1989)">For optimal layout with text and other symbols, vertically align</text>
  <text style="stroke:none;fill:black;font-family:sans-serif;font-size:13;" transform="matrix(1 0 0 1 263 2007)">symbols with the adjacent text.</text>
  <line style="fill:none;stroke:#00AEEF;stroke-width:0.5;opacity:1.0;" x1="776" x2="776" y1="1919" y2="1933"/>
  <g transform="matrix(0.2 0 0 0.2 776 1933)">
   <path d="m16.5527 0.78125c2.58789 0 3.85742-0.976562 4.78516-3.71094l6.29883-17.2363h28.8086l6.29883 17.2363c0.927734 2.73438 2.19727 3.71094 4.73633 3.71094 2.58789 0 4.24805-1.5625 4.24805-4.00391 0-0.830078-0.146484-1.61133-0.537109-2.63672l-22.9004-60.9863c-1.12305-2.97852-3.125-4.49219-6.25-4.49219-3.02734 0-5.07812 1.46484-6.15234 4.44336l-22.9004 61.084c-0.390625 1.02539-0.537109 1.80664-0.537109 2.63672 0 2.44141 1.5625 3.95508 4.10156 3.95508Zm13.4766-28.3691 11.8652-32.8613h0.244141l11.8652 32.8613Z"/>
  </g>
  <line style="fill:none;stroke:#00AEEF;stroke-width:0.5;opacity:1.0;" x1="792.836" x2="792.836" y1="1919" y2="1933"/>
  <text style="stroke:none;fill:black;font-family:sans-serif;font-size:13;font-weight:bold;" transform="matrix(1 0 0 1 776 1953)">Margins</text>
  <text style="stroke:none;fill:black;font-family:sans-serif;font-size:13;" transform="matrix(1 0 0 1 776 1971)">Leading and trailing margins on the left and right side of each symbol</text>
  <text style="stroke:none;fill:black;font-family:sans-serif;font-size:13;" transform="matrix(1 0 0 1 776 1989)">can be adjusted by modifying the x-location of the margin guidelines.</text>
  <text style="stroke:none;fill:black;font-family:sans-serif;font-size:13;" transform="matrix(1 0 0 1 776 2007)">Modifications are automatically applied proportionally to all</text>
  <text style="stroke:none;fill:black;font-family:sans-serif;font-size:13;" transform="matrix(1 0 0 1 776 2025)">scales and weights.</text>
  <g transform="matrix(0.2 0 0 0.2 1289 1933)">
   <path d="m14.209 9.32617 8.49609 8.54492c4.29688 4.3457 9.22852 4.05273 13.8672-1.07422l53.4668-58.9355-4.83398-4.88281-53.0762 58.3984c-1.75781 2.00195-3.41797 2.49023-5.76172 0.146484l-5.85938-5.81055c-2.34375-2.29492-1.80664-4.00391 0.195312-5.81055l57.373-54.0039-4.88281-4.83398-57.959 54.4434c-4.93164 4.58984-5.32227 9.47266-1.02539 13.8184Zm32.0801-90.9668c-2.09961 2.05078-2.24609 4.93164-1.07422 6.88477 1.17188 1.80664 3.4668 2.97852 6.68945 2.14844 7.32422-1.70898 14.9414-2.00195 22.0703 2.68555l-2.92969 7.27539c-1.70898 4.15039-0.830078 7.08008 1.85547 9.81445l11.4746 11.5723c2.44141 2.44141 4.49219 2.53906 7.32422 2.05078l5.32227-0.976562 3.32031 3.36914-0.195312 2.7832c-0.195312 2.49023 0.439453 4.39453 2.88086 6.78711l3.80859 3.71094c2.39258 2.39258 5.46875 2.53906 7.8125 0.195312l14.5508-14.5996c2.34375-2.34375 2.24609-5.32227-0.146484-7.71484l-3.85742-3.80859c-2.39258-2.39258-4.24805-3.17383-6.64062-2.97852l-2.88086 0.244141-3.22266-3.17383 1.2207-5.61523c0.634766-2.83203-0.146484-5.0293-3.07617-7.95898l-10.9863-10.9375c-16.6992-16.6016-38.8672-16.2109-53.3203-1.75781Zm7.4707 1.85547c12.1582-8.88672 28.6133-7.37305 39.7461 3.75977l12.1582 12.0605c1.17188 1.17188 1.36719 2.09961 1.02539 3.80859l-1.61133 7.42188 7.51953 7.42188 4.93164-0.292969c1.26953-0.0488281 1.66016 0.0488281 2.63672 1.02539l2.88086 2.88086-12.207 12.207-2.88086-2.88086c-0.976562-0.976562-1.12305-1.36719-1.07422-2.68555l0.341797-4.88281-7.4707-7.42188-7.61719 1.26953c-1.61133 0.341797-2.34375 0.195312-3.56445-0.976562l-10.0098-10.0098c-1.26953-1.17188-1.41602-2.00195-0.634766-3.85742l4.39453-10.4492c-7.8125-7.27539-17.9688-10.4004-28.125-7.42188-0.78125 0.195312-1.07422-0.439453-0.439453-0.976562Z"/>
  </g>
  <text style="stroke:none;fill:black;font-family:sans-serif;font-size:13;font-weight:bold;" transform="matrix(1 0 0 1 1289 1953)">Exporting</text>
  <text style="stroke:none;fill:black;font-family:sans-serif;font-size:13;" transform="matrix(1 0 0 1 1289 1971)">Symbols should be outlined when exporting to ensure the</text>
  <text style="stroke:none;fill:black;font-family:sans-serif;font-size:13;" transform="matrix(1 0 0 1 1289 1989)">design is preserved when submitting to Xcode.</text>
  <text id="template-version" style="stroke:none;fill:black;font-family:sans-serif;font-size:13;text-anchor:end;" transform="matrix(1 0 0 1 3036 1933)">Template v.6.0</text>
  <text style="stroke:none;fill:black;font-family:sans-serif;font-size:13;text-anchor:end;" transform="matrix(1 0 0 1 3036 1951)">Requires Xcode 16 or greater</text>
  <text id="descriptive-name" style="stroke:none;fill:black;font-family:sans-serif;font-size:13;text-anchor:end;" transform="matrix(1 0 0 1 3036 1969)">Generated from square</text>
  <text style="stroke:none;fill:black;font-family:sans-serif;font-size:13;text-anchor:end;" transform="matrix(1 0 0 1 3036 1987)">Typeset at 100.0 points</text>
  <text style="stroke:none;fill:black;font-family:sans-serif;font-size:13;" transform="matrix(1 0 0 1 263 726)">Small</text>
  <text style="stroke:none;fill:black;font-family:sans-serif;font-size:13;" transform="matrix(1 0 0 1 263 1156)">Medium</text>
  <text style="stroke:none;fill:black;font-family:sans-serif;font-size:13;" transform="matrix(1 0 0 1 263 1586)">Large</text>
 </g>
 <g id="Guides">
  <g id="H-reference" style="fill:#27AAE1;stroke:none;" transform="matrix(1 0 0 1 339 696)">
   <path d="M0.993654 0L3.63775 0L29.3281-67.1323L30.0303-67.1323L30.0303-70.459L28.1226-70.459ZM11.6885-24.4799L46.9815-24.4799L46.2315-26.7285L12.4385-26.7285ZM55.1196 0L57.7637 0L30.6382-70.459L29.4326-70.459L29.4326-67.1323Z"/>
  </g>
  <line id="Baseline-S" style="fill:none;stroke:#27AAE1;opacity:1;stroke-width:0.5;" x1="263" x2="3036" y1="696" y2="696"/>
  <line id="Capline-S" style="fill:none;stroke:#27AAE1;opacity:1;stroke-width:0.5;" x1="263" x2="3036" y1="625.541" y2="625.541"/>
  <g id="H-reference" style="fill:#27AAE1;stroke:none;" transform="matrix(1 0 0 1 339 1126)">
   <path d="M0.993654 0L3.63775 0L29.3281-67.1323L30.0303-67.1323L30.0303-70.459L28.1226-70.459ZM11.6885-24.4799L46.9815-24.4799L46.2315-26.7285L12.4385-26.7285ZM55.1196 0L57.7637 0L30.6382-70.459L29.4326-70.459L29.4326-67.1323Z"/>
  </g>
  <line id="Baseline-M" style="fill:none;stroke:#27AAE1;opacity:1;stroke-width:0.5;" x1="263" x2="3036" y1="1126" y2="1126"/>
  <line id="Capline-M" style="fill:none;stroke:#27AAE1;opacity:1;stroke-width:0.5;" x1="263" x2="3036" y1="1055.54" y2="1055.54"/>
  <g id="H-reference" style="fill:#27AAE1;stroke:none;" transform="matrix(1 0 0 1 339 1556)">
   <path d="M0.993654 0L3.63775 0L29.3281-67.1323L30.0303-67.1323L30.0303-70.459L28.1226-70.459ZM11.6885-24.4799L46.9815-24.4799L46.2315-26.7285L12.4385-26.7285ZM55.1196 0L57.7637 0L30.6382-70.459L29.4326-70.459L29.4326-67.1323Z"/>
  </g>
  <line id="Baseline-L" style="fill:none;stroke:#27AAE1;opacity:1;stroke-width:0.5;" x1="263" x2="3036" y1="1556" y2="1556"/>
  <line id="Capline-L" style="fill:none;stroke:#27AAE1;opacity:1;stroke-width:0.5;" x1="263" x2="3036" y1="1485.54" y2="1485.54"/>
  <line id="right-margin-Black-S" style="fill:none;stroke:#00AEEF;stroke-width:0.5;opacity:1.0;" x1="2981.3" x2="2981.3" y1="600.785" y2="720.121"/>
  <line id="left-margin-Black-S" style="fill:none;stroke:#00AEEF;stroke-width:0.5;opacity:1.0;" x1="2885.5" x2="2885.5" y1="600.785" y2="720.121"/>
  <line id="right-margin-Regular-S" style="fill:none;stroke:#00AEEF;stroke-width:0.5;opacity:1.0;" x1="1495.18" x2="1495.18" y1="600.785" y2="720.121"/>
  <line id="left-margin-Regular-S" style="fill:none;stroke:#00AEEF;stroke-width:0.5;opacity:1.0;" x1="1404.51" x2="1404.51" y1="600.785" y2="720.121"/>
  <line id="right-margin-Ultralight-S" style="fill:none;stroke:#00AEEF;stroke-width:0.5;opacity:1.0;" x1="603.073" x2="603.073" y1="600.785" y2="720.121"/>
  <line id="left-margin-Ultralight-S" style="fill:none;stroke:#00AEEF;stroke-width:0.5;opacity:1.0;" x1="516.35" x2="516.35" y1="600.785" y2="720.121"/>
 </g>
 <g id="Symbols">
  <g id="Black-S"><path d="M2920.83535,638.90891c-4.93213,0.50496 -9.69985,2.78607 -13.2551,6.34131c-3.16772,3.16185 -5.2991,7.22205 -6.14167,11.68738c-0.38165,2.00808 -0.38165,5.70718 0,7.71526c1.53835,8.14682 7.23085,14.59675 15.12813,17.14502c2.29285,0.73982 3.73433,0.94826 6.55856,0.94826c2.06093,0 2.69506,-0.04404 3.85763,-0.26422c2.51304,-0.47266 5.34901,-1.54129 7.43929,-2.80074c2.04625,-1.23303 4.60626,-3.45836 5.81874,-5.05543c0.50496,-0.66936 0.38752,-0.62532 2.31927,-0.85725c5.0525,-0.60771 10.48958,-2.72441 14.33253,-5.58094c1.3945,-1.03633 3.25286,-2.98276 4.10424,-4.30093c0.68991,-1.06863 1.37689,-2.6334 1.65579,-3.77249c0.27596,-1.13615 -0.13798,-2.41909 -0.9923,-3.07084c-0.77798,-0.59303 -1.16257,-0.65175 -4.32736,-0.65175h-2.92992l1.16551,-0.86606c4.1424,-3.08258 7.28076,-6.58498 8.8426,-9.86719c1.28294,-2.69506 1.54423,-4.28038 0.89248,-5.39011c-0.38459,-0.65762 -1.03633,-1.16551 -1.7468,-1.36514c-0.38165,-0.10569 -2.9857,-0.12917 -10.66279,-0.09101c-8.57838,0.0411 -10.30756,0.07633 -11.12665,0.23193c-2.30166,0.43743 -4.04846,1.3123 -5.62498,2.81542l-0.71927,0.68698l-0.67523,-0.42863c-1.13028,-0.72514 -3.21176,-1.69982 -4.64442,-2.17836c-2.98276,-0.99817 -6.14167,-1.34753 -9.26829,-1.03046M2924.80454,644.77168c5.20809,0.56367 9.68517,3.48478 12.33032,8.0382c2.41322,4.15708 2.76258,9.57949 0.9101,14.09473c-1.60588,3.91341 -4.88222,7.22205 -8.68407,8.77508c-6.10057,2.48955 -12.86464,1.19193 -17.48557,-3.35561c-4.71194,-4.63268 -6.15635,-11.5817 -3.66974,-17.63823c2.72148,-6.62608 9.51196,-10.68334 16.59896,-9.91417M2957.9966,644.97132c-1.29762,2.00515 -5.11121,5.47819 -8.09691,7.36884c-1.78496,1.13322 -5.01727,2.87708 -5.3314,2.87708c-0.06165,0 -0.2789,-0.51376 -0.48734,-1.14496c-0.80147,-2.41909 -1.90239,-4.52993 -3.41432,-6.54681l-0.7956,-1.05688l0.25835,-0.27596c0.70753,-0.76331 1.77322,-1.25065 3.07671,-1.41212c0.45211,-0.05578 4.01323,-0.10862 7.91196,-0.11743l7.087,-0.01468l-0.20844,0.32294M2921.28453,650.69611c-2.16368,0.41101 -4.12479,1.48257 -5.62204,3.0679c-1.17138,1.2389 -1.89065,2.50129 -2.42203,4.23635c-0.2789,0.92477 -0.31413,1.21835 -0.31413,2.79487c0,1.57652 0.03523,1.8701 0.31413,2.79487c1.73799,5.69837 7.45984,8.73985 13.07895,6.95489c2.98276,-0.94826 5.60443,-3.56699 6.55269,-6.54681c0.3611,-1.13322 0.52551,-2.14606 0.52551,-3.20295c0,-4.61506 -3.21469,-8.76334 -7.69471,-9.92885c-1.2301,-0.32 -3.2235,-0.39633 -4.41837,-0.17028M2924.94253,656.81136c0.87487,0.39927 1.78496,1.31817 2.1901,2.21065c0.2789,0.61358 0.32587,0.86899 0.32587,1.77322c0,0.90422 -0.04697,1.15964 -0.32587,1.77322c-0.41101,0.90716 -1.31523,1.80845 -2.24588,2.24294c-0.60771,0.28477 -0.85138,0.32881 -1.76147,0.32881c-0.9101,0 -1.15377,-0.04404 -1.76147,-0.32881c-0.93065,-0.4345 -1.83487,-1.33578 -2.24588,-2.24294c-0.2789,-0.61064 -0.32587,-0.86899 -0.32587,-1.77322c-0.00294,-0.90716 0.04404,-1.1567 0.32294,-1.76147c0.56661,-1.2389 1.80551,-2.26349 3.05322,-2.52772c0.78386,-0.16734 2.04331,-0.02642 2.77432,0.30532M2954.4208,662.62129c-1.92001,1.64991 -3.66093,2.67744 -6.27379,3.69616c-1.25945,0.49321 -3.91928,1.29175 -4.00735,1.20367c-0.02349,-0.02349 0.06165,-0.37578 0.18789,-0.78386c0.26716,-0.85725 0.69872,-3.15891 0.69872,-3.72258c0,-0.80734 -0.3611,-0.75156 4.97323,-0.74863l4.83231,0.00294l-0.41101,0.35229" className="SFSymbolsPreviewWireframe"/></g>
  <g id="Regular-S"><path d="M1437.28031,638.90891c-4.93213,0.50496 -9.69985,2.78607 -13.2551,6.34131c-3.16772,3.16185 -5.2991,7.22205 -6.14167,11.68738c-0.38165,2.00808 -0.38165,5.70718 0,7.71526c1.53835,8.14682 7.23085,14.59675 15.12813,17.14502c2.29285,0.73982 3.73433,0.94826 6.55856,0.94826c2.06093,0 2.69506,-0.04404 3.85763,-0.26422c2.51304,-0.47266 5.34901,-1.54129 7.43929,-2.80074c2.04625,-1.23303 4.60626,-3.45836 5.81874,-5.05543c0.50496,-0.66936 0.38752,-0.62532 2.31927,-0.85725c5.0525,-0.60771 10.48958,-2.72441 14.33253,-5.58094c1.3945,-1.03633 3.25286,-2.98276 4.10424,-4.30093c0.68991,-1.06863 1.37689,-2.6334 1.65579,-3.77249c0.27596,-1.13615 -0.13798,-2.41909 -0.9923,-3.07084c-0.77798,-0.59303 -1.16257,-0.65175 -4.32736,-0.65175h-2.92992l1.16551,-0.86606c4.1424,-3.08258 7.28076,-6.58498 8.8426,-9.86719c1.28294,-2.69506 1.54423,-4.28038 0.89248,-5.39011c-0.38459,-0.65762 -1.03633,-1.16551 -1.7468,-1.36514c-0.38165,-0.10569 -2.9857,-0.12917 -10.66279,-0.09101c-8.57838,0.0411 -10.30756,0.07633 -11.12665,0.23193c-2.30166,0.43743 -4.04846,1.3123 -5.62498,2.81542l-0.71927,0.68698l-0.67523,-0.42863c-1.13028,-0.72514 -3.21176,-1.69982 -4.64442,-2.17836c-2.98276,-0.99817 -6.14167,-1.34753 -9.26829,-1.03046M1441.24949,644.77168c5.20809,0.56367 9.68517,3.48478 12.33032,8.0382c2.41322,4.15708 2.76258,9.57949 0.9101,14.09473c-1.60588,3.91341 -4.88222,7.22205 -8.68407,8.77508c-6.10057,2.48955 -12.86464,1.19193 -17.48557,-3.35561c-4.71194,-4.63268 -6.15635,-11.5817 -3.66974,-17.63823c2.72148,-6.62608 9.51196,-10.68334 16.59896,-9.91417M1474.44155,644.97132c-1.29762,2.00515 -5.11121,5.47819 -8.09691,7.36884c-1.78496,1.13322 -5.01727,2.87708 -5.3314,2.87708c-0.06165,0 -0.2789,-0.51376 -0.48734,-1.14496c-0.80147,-2.41909 -1.90239,-4.52993 -3.41432,-6.54681l-0.7956,-1.05688l0.25835,-0.27596c0.70753,-0.76331 1.77322,-1.25065 3.07671,-1.41212c0.45211,-0.05578 4.01323,-0.10862 7.91196,-0.11743l7.087,-0.01468l-0.20844,0.32294M1437.72948,650.69611c-2.16368,0.41101 -4.12479,1.48257 -5.62204,3.0679c-1.17138,1.2389 -1.89065,2.50129 -2.42203,4.23635c-0.2789,0.92477 -0.31413,1.21835 -0.31413,2.79487c0,1.57652 0.03523,1.8701 0.31413,2.79487c1.73799,5.69837 7.45984,8.73985 13.07895,6.95489c2.98276,-0.94826 5.60443,-3.56699 6.55269,-6.54681c0.3611,-1.13322 0.52551,-2.14606 0.52551,-3.20295c0,-4.61506 -3.21469,-8.76334 -7.69471,-9.92885c-1.2301,-0.32 -3.2235,-0.39633 -4.41837,-0.17028M1441.38748,656.81136c0.87487,0.39927 1.78496,1.31817 2.1901,2.21065c0.2789,0.61358 0.32587,0.86899 0.32587,1.77322c0,0.90422 -0.04697,1.15964 -0.32587,1.77322c-0.41101,0.90716 -1.31523,1.80845 -2.24588,2.24294c-0.60771,0.28477 -0.85138,0.32881 -1.76147,0.32881c-0.9101,0 -1.15377,-0.04404 -1.76147,-0.32881c-0.93065,-0.4345 -1.83487,-1.33578 -2.24588,-2.24294c-0.2789,-0.61064 -0.32587,-0.86899 -0.32587,-1.77322c-0.00294,-0.90716 0.04404,-1.1567 0.32294,-1.76147c0.56661,-1.2389 1.80551,-2.26349 3.05322,-2.52772c0.78386,-0.16734 2.04331,-0.02642 2.77432,0.30532M1470.86575,662.62129c-1.92001,1.64991 -3.66093,2.67744 -6.27379,3.69616c-1.25945,0.49321 -3.91928,1.29175 -4.00735,1.20367c-0.02349,-0.02349 0.06165,-0.37578 0.18789,-0.78386c0.26716,-0.85725 0.69872,-3.15891 0.69872,-3.72258c0,-0.80734 -0.3611,-0.75156 4.97323,-0.74863l4.83231,0.00294l-0.41101,0.35229" className="SFSymbolsPreviewWireframe"/></g>
  <g id="Ultralight-S"><path d="M547.14672,638.90891c-4.93213,0.50496 -9.69985,2.78607 -13.2551,6.34131c-3.16772,3.16185 -5.2991,7.22205 -6.14167,11.68738c-0.38165,2.00808 -0.38165,5.70718 0,7.71526c1.53835,8.14682 7.23085,14.59675 15.12813,17.14502c2.29285,0.73982 3.73433,0.94826 6.55856,0.94826c2.06093,0 2.69506,-0.04404 3.85763,-0.26422c2.51304,-0.47266 5.34901,-1.54129 7.43929,-2.80074c2.04625,-1.23303 4.60626,-3.45836 5.81874,-5.05543c0.50496,-0.66936 0.38752,-0.62532 2.31927,-0.85725c5.0525,-0.60771 10.48958,-2.72441 14.33253,-5.58094c1.3945,-1.03633 3.25286,-2.98276 4.10424,-4.30093c0.68991,-1.06863 1.37689,-2.6334 1.65579,-3.77249c0.27596,-1.13615 -0.13798,-2.41909 -0.9923,-3.07084c-0.77798,-0.59303 -1.16257,-0.65175 -4.32736,-0.65175h-2.92992l1.16551,-0.86606c4.1424,-3.08258 7.28076,-6.58498 8.8426,-9.86719c1.28294,-2.69506 1.54423,-4.28038 0.89248,-5.39011c-0.38459,-0.65762 -1.03633,-1.16551 -1.7468,-1.36514c-0.38165,-0.10569 -2.9857,-0.12917 -10.66279,-0.09101c-8.57838,0.0411 -10.30756,0.07633 -11.12665,0.23193c-2.30166,0.43743 -4.04846,1.3123 -5.62498,2.81542l-0.71927,0.68698l-0.67523,-0.42863c-1.13028,-0.72514 -3.21176,-1.69982 -4.64442,-2.17836c-2.98276,-0.99817 -6.14167,-1.34753 -9.26829,-1.03046M551.1159,644.77168c5.20809,0.56367 9.68517,3.48478 12.33032,8.0382c2.41322,4.15708 2.76258,9.57949 0.9101,14.09473c-1.60588,3.91341 -4.88222,7.22205 -8.68407,8.77508c-6.10057,2.48955 -12.86464,1.19193 -17.48557,-3.35561c-4.71194,-4.63268 -6.15635,-11.5817 -3.66974,-17.63823c2.72148,-6.62608 9.51196,-10.68334 16.59896,-9.91417M584.30796,644.97132c-1.29762,2.00515 -5.11121,5.47819 -8.09691,7.36884c-1.78496,1.13322 -5.01727,2.87708 -5.3314,2.87708c-0.06165,0 -0.2789,-0.51376 -0.48734,-1.14496c-0.80147,-2.41909 -1.90239,-4.52993 -3.41432,-6.54681l-0.7956,-1.05688l0.25835,-0.27596c0.70753,-0.76331 1.77322,-1.25065 3.07671,-1.41212c0.45211,-0.05578 4.01323,-0.10862 7.91196,-0.11743l7.087,-0.01468l-0.20844,0.32294M547.59589,650.69611c-2.16368,0.41101 -4.12479,1.48257 -5.62204,3.0679c-1.17138,1.2389 -1.89065,2.50129 -2.42203,4.23635c-0.2789,0.92477 -0.31413,1.21835 -0.31413,2.79487c0,1.57652 0.03523,1.8701 0.31413,2.79487c1.73799,5.69837 7.45984,8.73985 13.07895,6.95489c2.98276,-0.94826 5.60443,-3.56699 6.55269,-6.54681c0.3611,-1.13322 0.52551,-2.14606 0.52551,-3.20295c0,-4.61506 -3.21469,-8.76334 -7.69471,-9.92885c-1.2301,-0.32 -3.2235,-0.39633 -4.41837,-0.17028M551.25389,656.81136c0.87487,0.39927 1.78496,1.31817 2.1901,2.21065c0.2789,0.61358 0.32587,0.86899 0.32587,1.77322c0,0.90422 -0.04697,1.15964 -0.32587,1.77322c-0.41101,0.90716 -1.31523,1.80845 -2.24588,2.24294c-0.60771,0.28477 -0.85138,0.32881 -1.76147,0.32881c-0.9101,0 -1.15377,-0.04404 -1.76147,-0.32881c-0.93065,-0.4345 -1.83487,-1.33578 -2.24588,-2.24294c-0.2789,-0.61064 -0.32587,-0.86899 -0.32587,-1.77322c-0.00294,-0.90716 0.04404,-1.1567 0.32294,-1.76147c0.56661,-1.2389 1.80551,-2.26349 3.05322,-2.52772c0.78386,-0.16734 2.04331,-0.02642 2.77432,0.30532M580.73216,662.62129c-1.92001,1.64991 -3.66093,2.67744 -6.27379,3.69616c-1.25945,0.49321 -3.91928,1.29175 -4.00735,1.20367c-0.02349,-0.02349 0.06165,-0.37578 0.18789,-0.78386c0.26716,-0.85725 0.69872,-3.15891 0.69872,-3.72258c0,-0.80734 -0.3611,-0.75156 4.97323,-0.74863l4.83231,0.00294l-0.41101,0.35229" className="SFSymbolsPreviewWireframe"/></g>
 </g>
</svg>