<?xml version="1.0" encoding="UTF-8"?><!--Generator: https://SymbolKit.app--><!DOCTYPE svg PUBLIC "-//W3C//DTD SVG 1.1//EN" "http://www.w3.org/Graphics/SVG/1.1/DTD/svg11.dtd"><svg xmlns="http://www.w3.org/2000/svg" xmlns:xlink="http://www.w3.org/1999/xlink" version="1.1" viewBox="0 0 3300 2200">
 <!--glyph: "100092", point size: 100.0, font version: "20.0d10e1", template writer version: "138.0.0"-->
 <style>.SFSymbolsPreviewWireframe {fill:none;opacity:1.0;stroke:black;stroke-width:0.5}
</style>
 <g id="Notes">
  <rect height="2200" id="artboard" style="fill:white;opacity:1" width="3300" x="0" y="0"/>
  <line style="fill:none;stroke:black;opacity:1;stroke-width:0.5;" x1="263" x2="3036" y1="292" y2="292"/>
  <text style="stroke:none;fill:black;font-family:sans-serif;font-size:13;font-weight:bold;" transform="matrix(1 0 0 1 263 322)">Weight/Scale Variations</text>
  <text style="stroke:none;fill:black;font-family:sans-serif;font-size:13;text-anchor:middle;" transform="matrix(1 0 0 1 559.711 322)">Ultralight</text>
  <text style="stroke:none;fill:black;font-family:sans-serif;font-size:13;text-anchor:middle;" transform="matrix(1 0 0 1 856.422 322)">Thin</text>
  <text style="stroke:none;fill:black;font-family:sans-serif;font-size:13;text-anchor:middle;" transform="matrix(1 0 0 1 1153.13 322)">Light</text>
  <text style="stroke:none;fill:black;font-family:sans-serif;font-size:13;text-anchor:middle;" transform="matrix(1 0 0 1 1449.84 322)">Regular</text>
  <text style="stroke:none;fill:black;font-family:sans-serif;font-size:13;text-anchor:middle;" transform="matrix(1 0 0 1 1746.56 322)">Medium</text>
  <text style="stroke:none;fill:black;font-family:sans-serif;font-size:13;text-anchor:middle;" transform="matrix(1 0 0 1 2043.27 322)">Semibold</text>
  <text style="stroke:none;fill:black;font-family:sans-serif;font-size:13;text-anchor:middle;" transform="matrix(1 0 0 1 2339.98 322)">Bold</text>
  <text style="stroke:none;fill:black;font-family:sans-serif;font-size:13;text-anchor:middle;" transform="matrix(1 0 0 1 2636.69 322)">Heavy</text>
  <text style="stroke:none;fill:black;font-family:sans-serif;font-size:13;text-anchor:middle;" transform="matrix(1 0 0 1 2933.4 322)">Black</text>
  <line style="fill:none;stroke:black;opacity:1;stroke-width:0.5;" x1="263" x2="3036" y1="1903" y2="1903"/>
  <g transform="matrix(0.2 0 0 0.2 263 1933)">
   <path d="m46.2402 4.15039c21.7773 0 39.4531-17.627 39.4531-39.4043s-17.6758-39.4043-39.4531-39.4043c-21.7285 0-39.4043 17.627-39.4043 39.4043s17.6758 39.4043 39.4043 39.4043Zm0-7.42188c-17.6758 0-31.9336-14.3066-31.9336-31.9824s14.2578-31.9824 31.9336-31.9824 31.9824 14.3066 31.9824 31.9824-14.3066 31.9824-31.9824 31.9824Zm-17.9688-31.9824c0 2.14844 1.51367 3.61328 3.75977 3.61328h10.498v10.5957c0 2.19727 1.46484 3.71094 3.61328 3.71094 2.24609 0 3.71094-1.51367 3.71094-3.71094v-10.5957h10.5957c2.19727 0 3.71094-1.46484 3.71094-3.61328 0-2.19727-1.51367-3.71094-3.71094-3.71094h-10.5957v-10.5469c0-2.24609-1.46484-3.75977-3.71094-3.75977-2.14844 0-3.61328 1.51367-3.61328 3.75977v10.5469h-10.498c-2.24609 0-3.75977 1.51367-3.75977 3.71094Z"/>
  </g>
  <g transform="matrix(0.2 0 0 0.2 281.506 1933)">
   <path d="m58.5449 14.5508c27.4902 0 49.8047-22.3145 49.8047-49.8047s-22.3145-49.8047-49.8047-49.8047-49.8047 22.3145-49.8047 49.8047 22.3145 49.8047 49.8047 49.8047Zm0-8.30078c-22.9492 0-41.5039-18.5547-41.5039-41.5039s18.5547-41.5039 41.5039-41.5039 41.5039 18.5547 41.5039 41.5039-18.5547 41.5039-41.5039 41.5039Zm-22.6562-41.5039c0 2.39258 1.66016 4.00391 4.15039 4.00391h14.3555v14.4043c0 2.44141 1.66016 4.15039 4.05273 4.15039 2.44141 0 4.15039-1.66016 4.15039-4.15039v-14.4043h14.4043c2.44141 0 4.15039-1.61133 4.15039-4.00391 0-2.44141-1.70898-4.15039-4.15039-4.15039h-14.4043v-14.3555c0-2.49023-1.70898-4.19922-4.15039-4.19922-2.39258 0-4.05273 1.70898-4.05273 4.19922v14.3555h-14.3555c-2.49023 0-4.15039 1.70898-4.15039 4.15039Z"/>
  </g>
  <g transform="matrix(0.2 0 0 0.2 304.924 1933)">
   <path d="m74.8535 28.3203c35.1074 0 63.623-28.4668 63.623-63.5742s-28.5156-63.623-63.623-63.623-63.5742 28.5156-63.5742 63.623 28.4668 63.5742 63.5742 63.5742Zm0-9.08203c-30.127 0-54.4922-24.3652-54.4922-54.4922s24.3652-54.4922 54.4922-54.4922 54.4922 24.3652 54.4922 54.4922-24.3652 54.4922-54.4922 54.4922Zm-28.8574-54.4922c0 2.58789 1.85547 4.39453 4.58984 4.39453h19.7266v19.7754c0 2.68555 1.85547 4.58984 4.44336 4.58984 2.68555 0 4.54102-1.85547 4.54102-4.58984v-19.7754h19.7754c2.68555 0 4.58984-1.80664 4.58984-4.39453 0-2.73438-1.85547-4.58984-4.58984-4.58984h-19.7754v-19.7266c0-2.73438-1.85547-4.63867-4.54102-4.63867-2.58789 0-4.44336 1.9043-4.44336 4.63867v19.7266h-19.7266c-2.73438 0-4.58984 1.85547-4.58984 4.58984Z"/>
  </g>
  <text style="stroke:none;fill:black;font-family:sans-serif;font-size:13;font-weight:bold;" transform="matrix(1 0 0 1 263 1953)">Design Variations</text>
  <text style="stroke:none;fill:black;font-family:sans-serif;font-size:13;" transform="matrix(1 0 0 1 263 1971)">Symbols are supported in up to nine weights and three scales.</text>
  <text style="stroke:none;fill:black;font-family:sans-serif;font-size:13;" transform="matrix(1 0 0 1 263 1989)">For optimal layout with text and other symbols, vertically align</text>
  <text style="stroke:none;fill:black;font-family:sans-serif;font-size:13;" transform="matrix(1 0 0 1 263 2007)">symbols with the adjacent text.</text>
  <line style="fill:none;stroke:#00AEEF;stroke-width:0.5;opacity:1.0;" x1="776" x2="776" y1="1919" y2="1933"/>
  <g transform="matrix(0.2 0 0 0.2 776 1933)">
   <path d="m16.5527 0.78125c2.58789 0 3.85742-0.976562 4.78516-3.71094l6.29883-17.2363h28.8086l6.29883 17.2363c0.927734 2.73438 2.19727 3.71094 4.73633 3.71094 2.58789 0 4.24805-1.5625 4.24805-4.00391 0-0.830078-0.146484-1.61133-0.537109-2.63672l-22.9004-60.9863c-1.12305-2.97852-3.125-4.49219-6.25-4.49219-3.02734 0-5.07812 1.46484-6.15234 4.44336l-22.9004 61.084c-0.390625 1.02539-0.537109 1.80664-0.537109 2.63672 0 2.44141 1.5625 3.95508 4.10156 3.95508Zm13.4766-28.3691 11.8652-32.8613h0.244141l11.8652 32.8613Z"/>
  </g>
  <line style="fill:none;stroke:#00AEEF;stroke-width:0.5;opacity:1.0;" x1="792.836" x2="792.836" y1="1919" y2="1933"/>
  <text style="stroke:none;fill:black;font-family:sans-serif;font-size:13;font-weight:bold;" transform="matrix(1 0 0 1 776 1953)">Margins</text>
  <text style="stroke:none;fill:black;font-family:sans-serif;font-size:13;" transform="matrix(1 0 0 1 776 1971)">Leading and trailing margins on the left and right side of each symbol</text>
  <text style="stroke:none;fill:black;font-family:sans-serif;font-size:13;" transform="matrix(1 0 0 1 776 1989)">can be adjusted by modifying the x-location of the margin guidelines.</text>
  <text style="stroke:none;fill:black;font-family:sans-serif;font-size:13;" transform="matrix(1 0 0 1 776 2007)">Modifications are automatically applied proportionally to all</text>
  <text style="stroke:none;fill:black;font-family:sans-serif;font-size:13;" transform="matrix(1 0 0 1 776 2025)">scales and weights.</text>
  <g transform="matrix(0.2 0 0 0.2 1289 1933)">
   <path d="m14.209 9.32617 8.49609 8.54492c4.29688 4.3457 9.22852 4.05273 13.8672-1.07422l53.4668-58.9355-4.83398-4.88281-53.0762 58.3984c-1.75781 2.00195-3.41797 2.49023-5.76172 0.146484l-5.85938-5.81055c-2.34375-2.29492-1.80664-4.00391 0.195312-5.81055l57.373-54.0039-4.88281-4.83398-57.959 54.4434c-4.93164 4.58984-5.32227 9.47266-1.02539 13.8184Zm32.0801-90.9668c-2.09961 2.05078-2.24609 4.93164-1.07422 6.88477 1.17188 1.80664 3.4668 2.97852 6.68945 2.14844 7.32422-1.70898 14.9414-2.00195 22.0703 2.68555l-2.92969 7.27539c-1.70898 4.15039-0.830078 7.08008 1.85547 9.81445l11.4746 11.5723c2.44141 2.44141 4.49219 2.53906 7.32422 2.05078l5.32227-0.976562 3.32031 3.36914-0.195312 2.7832c-0.195312 2.49023 0.439453 4.39453 2.88086 6.78711l3.80859 3.71094c2.39258 2.39258 5.46875 2.53906 7.8125 0.195312l14.5508-14.5996c2.34375-2.34375 2.24609-5.32227-0.146484-7.71484l-3.85742-3.80859c-2.39258-2.39258-4.24805-3.17383-6.64062-2.97852l-2.88086 0.244141-3.22266-3.17383 1.2207-5.61523c0.634766-2.83203-0.146484-5.0293-3.07617-7.95898l-10.9863-10.9375c-16.6992-16.6016-38.8672-16.2109-53.3203-1.75781Zm7.4707 1.85547c12.1582-8.88672 28.6133-7.37305 39.7461 3.75977l12.1582 12.0605c1.17188 1.17188 1.36719 2.09961 1.02539 3.80859l-1.61133 7.42188 7.51953 7.42188 4.93164-0.292969c1.26953-0.0488281 1.66016 0.0488281 2.63672 1.02539l2.88086 2.88086-12.207 12.207-2.88086-2.88086c-0.976562-0.976562-1.12305-1.36719-1.07422-2.68555l0.341797-4.88281-7.4707-7.42188-7.61719 1.26953c-1.61133 0.341797-2.34375 0.195312-3.56445-0.976562l-10.0098-10.0098c-1.26953-1.17188-1.41602-2.00195-0.634766-3.85742l4.39453-10.4492c-7.8125-7.27539-17.9688-10.4004-28.125-7.42188-0.78125 0.195312-1.07422-0.439453-0.439453-0.976562Z"/>
  </g>
  <text style="stroke:none;fill:black;font-family:sans-serif;font-size:13;font-weight:bold;" transform="matrix(1 0 0 1 1289 1953)">Exporting</text>
  <text style="stroke:none;fill:black;font-family:sans-serif;font-size:13;" transform="matrix(1 0 0 1 1289 1971)">Symbols should be outlined when exporting to ensure the</text>
  <text style="stroke:none;fill:black;font-family:sans-serif;font-size:13;" transform="matrix(1 0 0 1 1289 1989)">design is preserved when submitting to Xcode.</text>
  <text id="template-version" style="stroke:none;fill:black;font-family:sans-serif;font-size:13;text-anchor:end;" transform="matrix(1 0 0 1 3036 1933)">Template v.6.0</text>
  <text style="stroke:none;fill:black;font-family:sans-serif;font-size:13;text-anchor:end;" transform="matrix(1 0 0 1 3036 1951)">Requires Xcode 16 or greater</text>
  <text id="descriptive-name" style="stroke:none;fill:black;font-family:sans-serif;font-size:13;text-anchor:end;" transform="matrix(1 0 0 1 3036 1969)">Generated from square</text>
  <text style="stroke:none;fill:black;font-family:sans-serif;font-size:13;text-anchor:end;" transform="matrix(1 0 0 1 3036 1987)">Typeset at 100.0 points</text>
  <text style="stroke:none;fill:black;font-family:sans-serif;font-size:13;" transform="matrix(1 0 0 1 263 726)">Small</text>
  <text style="stroke:none;fill:black;font-family:sans-serif;font-size:13;" transform="matrix(1 0 0 1 263 1156)">Medium</text>
  <text style="stroke:none;fill:black;font-family:sans-serif;font-size:13;" transform="matrix(1 0 0 1 263 1586)">Large</text>
 </g>
 <g id="Guides">
  <g id="H-reference" style="fill:#27AAE1;stroke:none;" transform="matrix(1 0 0 1 339 696)">
   <path d="M0.993654 0L3.63775 0L29.3281-67.1323L30.0303-67.1323L30.0303-70.459L28.1226-70.459ZM11.6885-24.4799L46.9815-24.4799L46.2315-26.7285L12.4385-26.7285ZM55.1196 0L57.7637 0L30.6382-70.459L29.4326-70.459L29.4326-67.1323Z"/>
  </g>
  <line id="Baseline-S" style="fill:none;stroke:#27AAE1;opacity:1;stroke-width:0.5;" x1="263" x2="3036" y1="696" y2="696"/>
  <line id="Capline-S" style="fill:none;stroke:#27AAE1;opacity:1;stroke-width:0.5;" x1="263" x2="3036" y1="625.541" y2="625.541"/>
  <g id="H-reference" style="fill:#27AAE1;stroke:none;" transform="matrix(1 0 0 1 339 1126)">
   <path d="M0.993654 0L3.63775 0L29.3281-67.1323L30.0303-67.1323L30.0303-70.459L28.1226-70.459ZM11.6885-24.4799L46.9815-24.4799L46.2315-26.7285L12.4385-26.7285ZM55.1196 0L57.7637 0L30.6382-70.459L29.4326-70.459L29.4326-67.1323Z"/>
  </g>
  <line id="Baseline-M" style="fill:none;stroke:#27AAE1;opacity:1;stroke-width:0.5;" x1="263" x2="3036" y1="1126" y2="1126"/>
  <line id="Capline-M" style="fill:none;stroke:#27AAE1;opacity:1;stroke-width:0.5;" x1="263" x2="3036" y1="1055.54" y2="1055.54"/>
  <g id="H-reference" style="fill:#27AAE1;stroke:none;" transform="matrix(1 0 0 1 339 1556)">
   <path d="M0.993654 0L3.63775 0L29.3281-67.1323L30.0303-67.1323L30.0303-70.459L28.1226-70.459ZM11.6885-24.4799L46.9815-24.4799L46.2315-26.7285L12.4385-26.7285ZM55.1196 0L57.7637 0L30.6382-70.459L29.4326-70.459L29.4326-67.1323Z"/>
  </g>
  <line id="Baseline-L" style="fill:none;stroke:#27AAE1;opacity:1;stroke-width:0.5;" x1="263" x2="3036" y1="1556" y2="1556"/>
  <line id="Capline-L" style="fill:none;stroke:#27AAE1;opacity:1;stroke-width:0.5;" x1="263" x2="3036" y1="1485.54" y2="1485.54"/>
  <line id="right-margin-Black-S" style="fill:none;stroke:#00AEEF;stroke-width:0.5;opacity:1.0;" x1="2981.3" x2="2981.3" y1="600.785" y2="720.121"/>
  <line id="left-margin-Black-S" style="fill:none;stroke:#00AEEF;stroke-width:0.5;opacity:1.0;" x1="2885.5" x2="2885.5" y1="600.785" y2="720.121"/>
  <line id="right-margin-Regular-S" style="fill:none;stroke:#00AEEF;stroke-width:0.5;opacity:1.0;" x1="1495.18" x2="1495.18" y1="600.785" y2="720.121"/>
  <line id="left-margin-Regular-S" style="fill:none;stroke:#00AEEF;stroke-width:0.5;opacity:1.0;" x1="1404.51" x2="1404.51" y1="600.785" y2="720.121"/>
  <line id="right-margin-Ultralight-S" style="fill:none;stroke:#00AEEF;stroke-width:0.5;opacity:1.0;" x1="603.073" x2="603.073" y1="600.785" y2="720.121"/>
  <line id="left-margin-Ultralight-S" style="fill:none;stroke:#00AEEF;stroke-width:0.5;opacity:1.0;" x1="516.35" x2="516.35" y1="600.785" y2="720.121"/>
 </g>
 <g id="Symbols">
  <g id="Black-S"><path d="M2926.59537,633.01522c-1.31523,0.4022 -2.12258,1.47377 -2.12845,2.82717c-0.00294,0.63707 0.30239,1.41505 4.58571,11.6228c2.52478,6.01544 4.58864,10.97986 4.58864,11.0327c0,0.04991 -0.36404,0.15266 -0.80734,0.22606c-1.85248,0.30532 -4.72662,1.50019 -6.08883,2.53065c-1.17432,0.89248 -2.21065,2.16368 -2.89763,3.55524c-1.20661,2.44551 -1.30643,5.31085 -0.26422,7.49214c1.20367,2.51597 3.22056,4.00442 6.11525,4.51818c3.40845,0.60184 7.08113,-0.9101 10.05802,-4.14827c2.10496,-2.28698 2.92698,-3.99855 2.93579,-6.11232c0.00881,-1.57358 -0.30826,-2.79487 -1.27707,-4.94094c-0.29358,-0.64587 -2.57469,-6.03599 -5.07011,-11.97803l-4.53873,-10.80371l5.70131,-0.05872c6.38828,-0.06459 6.16516,-0.03523 7.03416,-0.93358c1.12734,-1.16257 1.10386,-2.89763 -0.05578,-4.05726c-0.90716,-0.90716 -0.64,-0.88074 -9.66169,-0.87193c-4.36552,0.00587 -8.06755,0.05284 -8.22902,0.09982M2917.40047,641.89305c-0.6312,0.23193 -1.10973,0.60184 -1.42092,1.09505c-0.69578,1.11266 -8.596,16.59603 -9.20664,18.04337c-3.05616,7.27489 -3.52589,13.38721 -1.42092,18.44851c0.46973,1.12441 1.59413,2.81249 2.54827,3.82534c2.13138,2.25762 5.24039,3.86937 9.12444,4.72662c2.65689,0.58716 2.85359,0.59597 15.38354,0.59597c10.64518,0 11.88115,-0.02055 13.21106,-0.20844c10.73032,-1.53248 16.7663,-6.99012 17.10392,-15.46868c0.16147,-4.05139 -0.98055,-8.38755 -3.56992,-13.56335c-0.73982,-1.47377 -9.3593,-15.77988 -10.01692,-16.61951c-0.61945,-0.79266 -1.98753,-1.22129 -3.01212,-0.94532c-1.56478,0.41982 -2.53359,2.25469 -1.99047,3.76662c0.07927,0.22899 2.17542,3.74313 4.65323,7.8092c5.5369,9.08921 6.61434,11.20885 7.53618,14.84923c1.89065,7.45691 -1.15964,12.13362 -9.06866,13.90684c-2.80368,0.6312 -3.49946,0.66055 -14.9373,0.66055c-10.77435,0 -11.7872,-0.03523 -13.90978,-0.47266c-7.23379,-1.49138 -9.876,-6.39122 -7.78865,-14.44116c0.86899,-3.35267 1.36221,-4.44479 6.37947,-14.14171l4.25396,-8.22902v-0.88074c0,-0.75156 -0.04697,-0.96294 -0.32587,-1.4356c-0.7222,-1.22716 -2.23414,-1.79377 -3.52589,-1.32111M2936.1954,664.40763c0.24073,0.30532 0.61652,1.52368 0.61652,2.00221c0,0.62239 -0.53431,1.45615 -1.63524,2.55707c-0.99523,0.99523 -1.87597,1.58239 -2.80955,1.87303c-1.65285,0.51376 -3.03561,0.06752 -3.49066,-1.12441c-0.39633,-1.03927 0.1233,-2.58643 1.19487,-3.56699c0.9512,-0.86606 2.99157,-1.60881 4.9791,-1.80845c0.85138,-0.08514 1.03046,-0.07633 1.14496,0.06752" className="SFSymbolsPreviewWireframe"/></g>
  <g id="Regular-S"><path d="M1443.04032,633.01522c-1.31523,0.4022 -2.12258,1.47377 -2.12845,2.82717c-0.00294,0.63707 0.30239,1.41505 4.58571,11.6228c2.52478,6.01544 4.58864,10.97986 4.58864,11.0327c0,0.04991 -0.36404,0.15266 -0.80734,0.22606c-1.85248,0.30532 -4.72662,1.50019 -6.08883,2.53065c-1.17432,0.89248 -2.21065,2.16368 -2.89763,3.55524c-1.20661,2.44551 -1.30643,5.31085 -0.26422,7.49214c1.20367,2.51597 3.22056,4.00442 6.11525,4.51818c3.40845,0.60184 7.08113,-0.9101 10.05802,-4.14827c2.10496,-2.28698 2.92698,-3.99855 2.93579,-6.11232c0.00881,-1.57358 -0.30826,-2.79487 -1.27707,-4.94094c-0.29358,-0.64587 -2.57469,-6.03599 -5.07011,-11.97803l-4.53873,-10.80371l5.70131,-0.05872c6.38828,-0.06459 6.16516,-0.03523 7.03416,-0.93358c1.12734,-1.16257 1.10386,-2.89763 -0.05578,-4.05726c-0.90716,-0.90716 -0.64,-0.88074 -9.66169,-0.87193c-4.36552,0.00587 -8.06755,0.05284 -8.22902,0.09982M1433.84542,641.89305c-0.6312,0.23193 -1.10973,0.60184 -1.42092,1.09505c-0.69578,1.11266 -8.596,16.59603 -9.20664,18.04337c-3.05616,7.27489 -3.52589,13.38721 -1.42092,18.44851c0.46973,1.12441 1.59413,2.81249 2.54827,3.82534c2.13138,2.25762 5.24039,3.86937 9.12444,4.72662c2.65689,0.58716 2.85359,0.59597 15.38354,0.59597c10.64518,0 11.88115,-0.02055 13.21106,-0.20844c10.73032,-1.53248 16.7663,-6.99012 17.10392,-15.46868c0.16147,-4.05139 -0.98055,-8.38755 -3.56992,-13.56335c-0.73982,-1.47377 -9.3593,-15.77988 -10.01692,-16.61951c-0.61945,-0.79266 -1.98753,-1.22129 -3.01212,-0.94532c-1.56478,0.41982 -2.53359,2.25469 -1.99047,3.76662c0.07927,0.22899 2.17542,3.74313 4.65323,7.8092c5.5369,9.08921 6.61434,11.20885 7.53618,14.84923c1.89065,7.45691 -1.15964,12.13362 -9.06866,13.90684c-2.80368,0.6312 -3.49946,0.66055 -14.9373,0.66055c-10.77435,0 -11.7872,-0.03523 -13.90978,-0.47266c-7.23379,-1.49138 -9.876,-6.39122 -7.78865,-14.44116c0.86899,-3.35267 1.36221,-4.44479 6.37947,-14.14171l4.25396,-8.22902v-0.88074c0,-0.75156 -0.04697,-0.96294 -0.32587,-1.4356c-0.7222,-1.22716 -2.23414,-1.79377 -3.52589,-1.32111M1452.64035,664.40763c0.24073,0.30532 0.61652,1.52368 0.61652,2.00221c0,0.62239 -0.53431,1.45615 -1.63524,2.55707c-0.99523,0.99523 -1.87597,1.58239 -2.80955,1.87303c-1.65285,0.51376 -3.03561,0.06752 -3.49066,-1.12441c-0.39633,-1.03927 0.1233,-2.58643 1.19487,-3.56699c0.9512,-0.86606 2.99157,-1.60881 4.9791,-1.80845c0.85138,-0.08514 1.03046,-0.07633 1.14496,0.06752" className="SFSymbolsPreviewWireframe"/></g>
  <g id="Ultralight-S"><path d="M552.90673,633.01522c-1.31523,0.4022 -2.12258,1.47377 -2.12845,2.82717c-0.00294,0.63707 0.30239,1.41505 4.58571,11.6228c2.52478,6.01544 4.58864,10.97986 4.58864,11.0327c0,0.04991 -0.36404,0.15266 -0.80734,0.22606c-1.85248,0.30532 -4.72662,1.50019 -6.08883,2.53065c-1.17432,0.89248 -2.21065,2.16368 -2.89763,3.55524c-1.20661,2.44551 -1.30643,5.31085 -0.26422,7.49214c1.20367,2.51597 3.22056,4.00442 6.11525,4.51818c3.40845,0.60184 7.08113,-0.9101 10.05802,-4.14827c2.10496,-2.28698 2.92698,-3.99855 2.93579,-6.11232c0.00881,-1.57358 -0.30826,-2.79487 -1.27707,-4.94094c-0.29358,-0.64587 -2.57469,-6.03599 -5.07011,-11.97803l-4.53873,-10.80371l5.70131,-0.05872c6.38828,-0.06459 6.16516,-0.03523 7.03416,-0.93358c1.12734,-1.16257 1.10386,-2.89763 -0.05578,-4.05726c-0.90716,-0.90716 -0.64,-0.88074 -9.66169,-0.87193c-4.36552,0.00587 -8.06755,0.05284 -8.22902,0.09982M543.71183,641.89305c-0.6312,0.23193 -1.10973,0.60184 -1.42092,1.09505c-0.69578,1.11266 -8.596,16.59603 -9.20664,18.04337c-3.05616,7.27489 -3.52589,13.38721 -1.42092,18.44851c0.46973,1.12441 1.59413,2.81249 2.54827,3.82534c2.13138,2.25762 5.24039,3.86937 9.12444,4.72662c2.65689,0.58716 2.85359,0.59597 15.38354,0.59597c10.64518,0 11.88115,-0.02055 13.21106,-0.20844c10.73032,-1.53248 16.7663,-6.99012 17.10392,-15.46868c0.16147,-4.05139 -0.98055,-8.38755 -3.56992,-13.56335c-0.73982,-1.47377 -9.3593,-15.77988 -10.01692,-16.61951c-0.61945,-0.79266 -1.98753,-1.22129 -3.01212,-0.94532c-1.56478,0.41982 -2.53359,2.25469 -1.99047,3.76662c0.07927,0.22899 2.17542,3.74313 4.65323,7.8092c5.5369,9.08921 6.61434,11.20885 7.53618,14.84923c1.89065,7.45691 -1.15964,12.13362 -9.06866,13.90684c-2.80368,0.6312 -3.49946,0.66055 -14.9373,0.66055c-10.77435,0 -11.7872,-0.03523 -13.90978,-0.47266c-7.23379,-1.49138 -9.876,-6.39122 -7.78865,-14.44116c0.86899,-3.35267 1.36221,-4.44479 6.37947,-14.14171l4.25396,-8.22902v-0.88074c0,-0.75156 -0.04697,-0.96294 -0.32587,-1.4356c-0.7222,-1.22716 -2.23414,-1.79377 -3.52589,-1.32111M562.50676,664.40763c0.24073,0.30532 0.61652,1.52368 0.61652,2.00221c0,0.62239 -0.53431,1.45615 -1.63524,2.55707c-0.99523,0.99523 -1.87597,1.58239 -2.80955,1.87303c-1.65285,0.51376 -3.03561,0.06752 -3.49066,-1.12441c-0.39633,-1.03927 0.1233,-2.58643 1.19487,-3.56699c0.9512,-0.86606 2.99157,-1.60881 4.9791,-1.80845c0.85138,-0.08514 1.03046,-0.07633 1.14496,0.06752" className="SFSymbolsPreviewWireframe"/></g>
 </g>
</svg>