<?xml version="1.0" encoding="UTF-8"?><!--Generator: https://SymbolKit.app--><!DOCTYPE svg PUBLIC "-//W3C//DTD SVG 1.1//EN" "http://www.w3.org/Graphics/SVG/1.1/DTD/svg11.dtd"><svg xmlns="http://www.w3.org/2000/svg" xmlns:xlink="http://www.w3.org/1999/xlink" version="1.1" viewBox="0 0 3300 2200">
 <!--glyph: "100092", point size: 100.0, font version: "20.0d10e1", template writer version: "138.0.0"-->
 <style>.SFSymbolsPreviewWireframe {fill:none;opacity:1.0;stroke:black;stroke-width:0.5}
</style>
 <g id="Notes">
  <rect height="2200" id="artboard" style="fill:white;opacity:1" width="3300" x="0" y="0"/>
  <line style="fill:none;stroke:black;opacity:1;stroke-width:0.5;" x1="263" x2="3036" y1="292" y2="292"/>
  <text style="stroke:none;fill:black;font-family:sans-serif;font-size:13;font-weight:bold;" transform="matrix(1 0 0 1 263 322)">Weight/Scale Variations</text>
  <text style="stroke:none;fill:black;font-family:sans-serif;font-size:13;text-anchor:middle;" transform="matrix(1 0 0 1 559.711 322)">Ultralight</text>
  <text style="stroke:none;fill:black;font-family:sans-serif;font-size:13;text-anchor:middle;" transform="matrix(1 0 0 1 856.422 322)">Thin</text>
  <text style="stroke:none;fill:black;font-family:sans-serif;font-size:13;text-anchor:middle;" transform="matrix(1 0 0 1 1153.13 322)">Light</text>
  <text style="stroke:none;fill:black;font-family:sans-serif;font-size:13;text-anchor:middle;" transform="matrix(1 0 0 1 1449.84 322)">Regular</text>
  <text style="stroke:none;fill:black;font-family:sans-serif;font-size:13;text-anchor:middle;" transform="matrix(1 0 0 1 1746.56 322)">Medium</text>
  <text style="stroke:none;fill:black;font-family:sans-serif;font-size:13;text-anchor:middle;" transform="matrix(1 0 0 1 2043.27 322)">Semibold</text>
  <text style="stroke:none;fill:black;font-family:sans-serif;font-size:13;text-anchor:middle;" transform="matrix(1 0 0 1 2339.98 322)">Bold</text>
  <text style="stroke:none;fill:black;font-family:sans-serif;font-size:13;text-anchor:middle;" transform="matrix(1 0 0 1 2636.69 322)">Heavy</text>
  <text style="stroke:none;fill:black;font-family:sans-serif;font-size:13;text-anchor:middle;" transform="matrix(1 0 0 1 2933.4 322)">Black</text>
  <line style="fill:none;stroke:black;opacity:1;stroke-width:0.5;" x1="263" x2="3036" y1="1903" y2="1903"/>
  <g transform="matrix(0.2 0 0 0.2 263 1933)">
   <path d="m46.2402 4.15039c21.7773 0 39.4531-17.627 39.4531-39.4043s-17.6758-39.4043-39.4531-39.4043c-21.7285 0-39.4043 17.627-39.4043 39.4043s17.6758 39.4043 39.4043 39.4043Zm0-7.42188c-17.6758 0-31.9336-14.3066-31.9336-31.9824s14.2578-31.9824 31.9336-31.9824 31.9824 14.3066 31.9824 31.9824-14.3066 31.9824-31.9824 31.9824Zm-17.9688-31.9824c0 2.14844 1.51367 3.61328 3.75977 3.61328h10.498v10.5957c0 2.19727 1.46484 3.71094 3.61328 3.71094 2.24609 0 3.71094-1.51367 3.71094-3.71094v-10.5957h10.5957c2.19727 0 3.71094-1.46484 3.71094-3.61328 0-2.19727-1.51367-3.71094-3.71094-3.71094h-10.5957v-10.5469c0-2.24609-1.46484-3.75977-3.71094-3.75977-2.14844 0-3.61328 1.51367-3.61328 3.75977v10.5469h-10.498c-2.24609 0-3.75977 1.51367-3.75977 3.71094Z"/>
  </g>
  <g transform="matrix(0.2 0 0 0.2 281.506 1933)">
   <path d="m58.5449 14.5508c27.4902 0 49.8047-22.3145 49.8047-49.8047s-22.3145-49.8047-49.8047-49.8047-49.8047 22.3145-49.8047 49.8047 22.3145 49.8047 49.8047 49.8047Zm0-8.30078c-22.9492 0-41.5039-18.5547-41.5039-41.5039s18.5547-41.5039 41.5039-41.5039 41.5039 18.5547 41.5039 41.5039-18.5547 41.5039-41.5039 41.5039Zm-22.6562-41.5039c0 2.39258 1.66016 4.00391 4.15039 4.00391h14.3555v14.4043c0 2.44141 1.66016 4.15039 4.05273 4.15039 2.44141 0 4.15039-1.66016 4.15039-4.15039v-14.4043h14.4043c2.44141 0 4.15039-1.61133 4.15039-4.00391 0-2.44141-1.70898-4.15039-4.15039-4.15039h-14.4043v-14.3555c0-2.49023-1.70898-4.19922-4.15039-4.19922-2.39258 0-4.05273 1.70898-4.05273 4.19922v14.3555h-14.3555c-2.49023 0-4.15039 1.70898-4.15039 4.15039Z"/>
  </g>
  <g transform="matrix(0.2 0 0 0.2 304.924 1933)">
   <path d="m74.8535 28.3203c35.1074 0 63.623-28.4668 63.623-63.5742s-28.5156-63.623-63.623-63.623-63.5742 28.5156-63.5742 63.623 28.4668 63.5742 63.5742 63.5742Zm0-9.08203c-30.127 0-54.4922-24.3652-54.4922-54.4922s24.3652-54.4922 54.4922-54.4922 54.4922 24.3652 54.4922 54.4922-24.3652 54.4922-54.4922 54.4922Zm-28.8574-54.4922c0 2.58789 1.85547 4.39453 4.58984 4.39453h19.7266v19.7754c0 2.68555 1.85547 4.58984 4.44336 4.58984 2.68555 0 4.54102-1.85547 4.54102-4.58984v-19.7754h19.7754c2.68555 0 4.58984-1.80664 4.58984-4.39453 0-2.73438-1.85547-4.58984-4.58984-4.58984h-19.7754v-19.7266c0-2.73438-1.85547-4.63867-4.54102-4.63867-2.58789 0-4.44336 1.9043-4.44336 4.63867v19.7266h-19.7266c-2.73438 0-4.58984 1.85547-4.58984 4.58984Z"/>
  </g>
  <text style="stroke:none;fill:black;font-family:sans-serif;font-size:13;font-weight:bold;" transform="matrix(1 0 0 1 263 1953)">Design Variations</text>
  <text style="stroke:none;fill:black;font-family:sans-serif;font-size:13;" transform="matrix(1 0 0 1 263 1971)">Symbols are supported in up to nine weights and three scales.</text>
  <text style="stroke:none;fill:black;font-family:sans-serif;font-size:13;" transform="matrix(1 0 0 1 263 1989)">For optimal layout with text and other symbols, vertically align</text>
  <text style="stroke:none;fill:black;font-family:sans-serif;font-size:13;" transform="matrix(1 0 0 1 263 2007)">symbols with the adjacent text.</text>
  <line style="fill:none;stroke:#00AEEF;stroke-width:0.5;opacity:1.0;" x1="776" x2="776" y1="1919" y2="1933"/>
  <g transform="matrix(0.2 0 0 0.2 776 1933)">
   <path d="m16.5527 0.78125c2.58789 0 3.85742-0.976562 4.78516-3.71094l6.29883-17.2363h28.8086l6.29883 17.2363c0.927734 2.73438 2.19727 3.71094 4.73633 3.71094 2.58789 0 4.24805-1.5625 4.24805-4.00391 0-0.830078-0.146484-1.61133-0.537109-2.63672l-22.9004-60.9863c-1.12305-2.97852-3.125-4.49219-6.25-4.49219-3.02734 0-5.07812 1.46484-6.15234 4.44336l-22.9004 61.084c-0.390625 1.02539-0.537109 1.80664-0.537109 2.63672 0 2.44141 1.5625 3.95508 4.10156 3.95508Zm13.4766-28.3691 11.8652-32.8613h0.244141l11.8652 32.8613Z"/>
  </g>
  <line style="fill:none;stroke:#00AEEF;stroke-width:0.5;opacity:1.0;" x1="792.836" x2="792.836" y1="1919" y2="1933"/>
  <text style="stroke:none;fill:black;font-family:sans-serif;font-size:13;font-weight:bold;" transform="matrix(1 0 0 1 776 1953)">Margins</text>
  <text style="stroke:none;fill:black;font-family:sans-serif;font-size:13;" transform="matrix(1 0 0 1 776 1971)">Leading and trailing margins on the left and right side of each symbol</text>
  <text style="stroke:none;fill:black;font-family:sans-serif;font-size:13;" transform="matrix(1 0 0 1 776 1989)">can be adjusted by modifying the x-location of the margin guidelines.</text>
  <text style="stroke:none;fill:black;font-family:sans-serif;font-size:13;" transform="matrix(1 0 0 1 776 2007)">Modifications are automatically applied proportionally to all</text>
  <text style="stroke:none;fill:black;font-family:sans-serif;font-size:13;" transform="matrix(1 0 0 1 776 2025)">scales and weights.</text>
  <g transform="matrix(0.2 0 0 0.2 1289 1933)">
   <path d="m14.209 9.32617 8.49609 8.54492c4.29688 4.3457 9.22852 4.05273 13.8672-1.07422l53.4668-58.9355-4.83398-4.88281-53.0762 58.3984c-1.75781 2.00195-3.41797 2.49023-5.76172 0.146484l-5.85938-5.81055c-2.34375-2.29492-1.80664-4.00391 0.195312-5.81055l57.373-54.0039-4.88281-4.83398-57.959 54.4434c-4.93164 4.58984-5.32227 9.47266-1.02539 13.8184Zm32.0801-90.9668c-2.09961 2.05078-2.24609 4.93164-1.07422 6.88477 1.17188 1.80664 3.4668 2.97852 6.68945 2.14844 7.32422-1.70898 14.9414-2.00195 22.0703 2.68555l-2.92969 7.27539c-1.70898 4.15039-0.830078 7.08008 1.85547 9.81445l11.4746 11.5723c2.44141 2.44141 4.49219 2.53906 7.32422 2.05078l5.32227-0.976562 3.32031 3.36914-0.195312 2.7832c-0.195312 2.49023 0.439453 4.39453 2.88086 6.78711l3.80859 3.71094c2.39258 2.39258 5.46875 2.53906 7.8125 0.195312l14.5508-14.5996c2.34375-2.34375 2.24609-5.32227-0.146484-7.71484l-3.85742-3.80859c-2.39258-2.39258-4.24805-3.17383-6.64062-2.97852l-2.88086 0.244141-3.22266-3.17383 1.2207-5.61523c0.634766-2.83203-0.146484-5.0293-3.07617-7.95898l-10.9863-10.9375c-16.6992-16.6016-38.8672-16.2109-53.3203-1.75781Zm7.4707 1.85547c12.1582-8.88672 28.6133-7.37305 39.7461 3.75977l12.1582 12.0605c1.17188 1.17188 1.36719 2.09961 1.02539 3.80859l-1.61133 7.42188 7.51953 7.42188 4.93164-0.292969c1.26953-0.0488281 1.66016 0.0488281 2.63672 1.02539l2.88086 2.88086-12.207 12.207-2.88086-2.88086c-0.976562-0.976562-1.12305-1.36719-1.07422-2.68555l0.341797-4.88281-7.4707-7.42188-7.61719 1.26953c-1.61133 0.341797-2.34375 0.195312-3.56445-0.976562l-10.0098-10.0098c-1.26953-1.17188-1.41602-2.00195-0.634766-3.85742l4.39453-10.4492c-7.8125-7.27539-17.9688-10.4004-28.125-7.42188-0.78125 0.195312-1.07422-0.439453-0.439453-0.976562Z"/>
  </g>
  <text style="stroke:none;fill:black;font-family:sans-serif;font-size:13;font-weight:bold;" transform="matrix(1 0 0 1 1289 1953)">Exporting</text>
  <text style="stroke:none;fill:black;font-family:sans-serif;font-size:13;" transform="matrix(1 0 0 1 1289 1971)">Symbols should be outlined when exporting to ensure the</text>
  <text style="stroke:none;fill:black;font-family:sans-serif;font-size:13;" transform="matrix(1 0 0 1 1289 1989)">design is preserved when submitting to Xcode.</text>
  <text id="template-version" style="stroke:none;fill:black;font-family:sans-serif;font-size:13;text-anchor:end;" transform="matrix(1 0 0 1 3036 1933)">Template v.6.0</text>
  <text style="stroke:none;fill:black;font-family:sans-serif;font-size:13;text-anchor:end;" transform="matrix(1 0 0 1 3036 1951)">Requires Xcode 16 or greater</text>
  <text id="descriptive-name" style="stroke:none;fill:black;font-family:sans-serif;font-size:13;text-anchor:end;" transform="matrix(1 0 0 1 3036 1969)">Generated from square</text>
  <text style="stroke:none;fill:black;font-family:sans-serif;font-size:13;text-anchor:end;" transform="matrix(1 0 0 1 3036 1987)">Typeset at 100.0 points</text>
  <text style="stroke:none;fill:black;font-family:sans-serif;font-size:13;" transform="matrix(1 0 0 1 263 726)">Small</text>
  <text style="stroke:none;fill:black;font-family:sans-serif;font-size:13;" transform="matrix(1 0 0 1 263 1156)">Medium</text>
  <text style="stroke:none;fill:black;font-family:sans-serif;font-size:13;" transform="matrix(1 0 0 1 263 1586)">Large</text>
 </g>
 <g id="Guides">
  <g id="H-reference" style="fill:#27AAE1;stroke:none;" transform="matrix(1 0 0 1 339 696)">
   <path d="M0.993654 0L3.63775 0L29.3281-67.1323L30.0303-67.1323L30.0303-70.459L28.1226-70.459ZM11.6885-24.4799L46.9815-24.4799L46.2315-26.7285L12.4385-26.7285ZM55.1196 0L57.7637 0L30.6382-70.459L29.4326-70.459L29.4326-67.1323Z"/>
  </g>
  <line id="Baseline-S" style="fill:none;stroke:#27AAE1;opacity:1;stroke-width:0.5;" x1="263" x2="3036" y1="696" y2="696"/>
  <line id="Capline-S" style="fill:none;stroke:#27AAE1;opacity:1;stroke-width:0.5;" x1="263" x2="3036" y1="625.541" y2="625.541"/>
  <g id="H-reference" style="fill:#27AAE1;stroke:none;" transform="matrix(1 0 0 1 339 1126)">
   <path d="M0.993654 0L3.63775 0L29.3281-67.1323L30.0303-67.1323L30.0303-70.459L28.1226-70.459ZM11.6885-24.4799L46.9815-24.4799L46.2315-26.7285L12.4385-26.7285ZM55.1196 0L57.7637 0L30.6382-70.459L29.4326-70.459L29.4326-67.1323Z"/>
  </g>
  <line id="Baseline-M" style="fill:none;stroke:#27AAE1;opacity:1;stroke-width:0.5;" x1="263" x2="3036" y1="1126" y2="1126"/>
  <line id="Capline-M" style="fill:none;stroke:#27AAE1;opacity:1;stroke-width:0.5;" x1="263" x2="3036" y1="1055.54" y2="1055.54"/>
  <g id="H-reference" style="fill:#27AAE1;stroke:none;" transform="matrix(1 0 0 1 339 1556)">
   <path d="M0.993654 0L3.63775 0L29.3281-67.1323L30.0303-67.1323L30.0303-70.459L28.1226-70.459ZM11.6885-24.4799L46.9815-24.4799L46.2315-26.7285L12.4385-26.7285ZM55.1196 0L57.7637 0L30.6382-70.459L29.4326-70.459L29.4326-67.1323Z"/>
  </g>
  <line id="Baseline-L" style="fill:none;stroke:#27AAE1;opacity:1;stroke-width:0.5;" x1="263" x2="3036" y1="1556" y2="1556"/>
  <line id="Capline-L" style="fill:none;stroke:#27AAE1;opacity:1;stroke-width:0.5;" x1="263" x2="3036" y1="1485.54" y2="1485.54"/>
  <line id="right-margin-Black-S" style="fill:none;stroke:#00AEEF;stroke-width:0.5;opacity:1.0;" x1="2981.3" x2="2981.3" y1="600.785" y2="720.121"/>
  <line id="left-margin-Black-S" style="fill:none;stroke:#00AEEF;stroke-width:0.5;opacity:1.0;" x1="2885.5" x2="2885.5" y1="600.785" y2="720.121"/>
  <line id="right-margin-Regular-S" style="fill:none;stroke:#00AEEF;stroke-width:0.5;opacity:1.0;" x1="1495.18" x2="1495.18" y1="600.785" y2="720.121"/>
  <line id="left-margin-Regular-S" style="fill:none;stroke:#00AEEF;stroke-width:0.5;opacity:1.0;" x1="1404.51" x2="1404.51" y1="600.785" y2="720.121"/>
  <line id="right-margin-Ultralight-S" style="fill:none;stroke:#00AEEF;stroke-width:0.5;opacity:1.0;" x1="603.073" x2="603.073" y1="600.785" y2="720.121"/>
  <line id="left-margin-Ultralight-S" style="fill:none;stroke:#00AEEF;stroke-width:0.5;opacity:1.0;" x1="516.35" x2="516.35" y1="600.785" y2="720.121"/>
 </g>
 <g id="Symbols">
  <g id="Black-S"><path d="M2926.63313,631.57614c-0.6723,0.21138 -1.28881,0.71046 -1.66459,1.34753l-0.31707,0.54019l-0.05872,6.00369l-0.05872,6.00663l-4.61213,-2.56001c-4.81176,-2.66863 -5.20809,-2.83891 -6.15635,-2.63634c-1.54129,0.33468 -2.64221,1.91414 -2.33395,3.35267c0.16147,0.7545 0.3611,1.13322 0.85138,1.60001c0.52257,0.50202 13.85693,7.90902 14.57914,8.09691c1.01578,0.26716 2.0668,-0.05872 2.80074,-0.87193c0.84551,-0.93652 0.81321,-0.48734 0.77505,-10.24297l-0.03229,-8.74866l-0.31707,-0.54019c-0.71633,-1.21835 -2.11964,-1.76441 -3.45543,-1.34753M2938.3763,631.57614c-0.6723,0.21138 -1.28881,0.71046 -1.66459,1.34753l-0.31707,0.54019l-0.03229,8.74866c-0.03817,9.75563 -0.07046,9.30646 0.77505,10.24297c0.73395,0.81321 1.78496,1.13909 2.80074,0.87193c0.7222,-0.18789 14.05657,-7.59489 14.57914,-8.09691c0.49028,-0.46679 0.68991,-0.84551 0.85138,-1.60001c0.30826,-1.43854 -0.79266,-3.01799 -2.33395,-3.35267c-0.94826,-0.20257 -1.34459,-0.03229 -6.15635,2.63634l-4.61213,2.56001l-0.05872,-6.00663l-0.05872,-6.00369l-0.31707,-0.54019c-0.71633,-1.21835 -2.11964,-1.76441 -3.45543,-1.34753M2907.12187,650.84961c-0.97468,0.49028 -1.58533,1.45615 -1.59707,2.51891c-0.00881,0.88367 0.44624,1.86129 1.08331,2.32221c0.26129,0.18789 2.37799,1.3945 4.70314,2.68038c2.32808,1.28588 4.23341,2.36331 4.23341,2.39561c0,0.03229 -1.90826,1.1156 -4.24222,2.40735c-2.33395,1.29175 -4.45359,2.49836 -4.70607,2.68038c-0.62239,0.44624 -1.08037,1.43267 -1.07156,2.31047c0.01761,1.82019 1.81432,3.22643 3.54644,2.77432c0.87193,-0.22606 14.16813,-7.62425 14.71418,-8.18499c0.46679,-0.48147 0.80734,-1.32111 0.80734,-1.98753c0,-0.66936 -0.34055,-1.50606 -0.80734,-1.98166c-0.28771,-0.29651 -2.68918,-1.69102 -7.407,-4.30681l-6.98131,-3.86644l-0.82789,-0.03817c-0.71046,-0.03229 -0.91597,0.00587 -1.44734,0.27596M2957.18004,650.77034c-0.25835,0.12037 -3.48185,1.88771 -7.16333,3.93396c-4.84699,2.68918 -6.79636,3.83121 -7.06938,4.13947c-1.07156,1.20367 -0.89835,3.26166 0.34936,4.19525c0.20844,0.1556 3.43194,1.97579 7.16627,4.04552c4.40662,2.44551 6.98131,3.80479 7.34241,3.88405c1.72625,0.36991 3.45249,-1.02459 3.4701,-2.80368c0.00881,-0.8778 -0.44918,-1.86423 -1.07156,-2.31047c-0.25248,-0.18202 -2.37212,-1.38863 -4.70607,-2.68038c-2.33395,-1.29175 -4.24222,-2.37505 -4.24222,-2.40735c0,-0.03229 1.90533,-1.10973 4.23341,-2.39561c2.32515,-1.28588 4.44185,-2.49249 4.70314,-2.68038c0.63707,-0.46092 1.09211,-1.43854 1.08331,-2.33102c-0.01174,-1.13615 -0.73395,-2.16955 -1.83781,-2.63047c-0.58716,-0.24367 -1.67634,-0.22606 -2.25762,0.0411M2932.34618,655.0977c-0.40514,0.14385 -0.93945,0.59303 -2.33102,1.95817c-2.20771,2.16955 -2.4279,2.50423 -2.42496,3.71084c0,0.62826 0.06459,0.99817 0.22018,1.29175c0.30239,0.56954 3.53469,3.82534 4.18057,4.20699c0.44624,0.26422 0.66642,0.31413 1.40918,0.31413c0.74276,0 0.96294,-0.04991 1.40918,-0.31413c0.64587,-0.38165 3.87818,-3.63745 4.18057,-4.20699c0.1556,-0.29358 0.22018,-0.66349 0.22018,-1.29175c0.00294,-1.20367 -0.21725,-1.54129 -2.42203,-3.7079c-1.48551,-1.45909 -1.90533,-1.80551 -2.38093,-1.96698c-0.70753,-0.24073 -1.36514,-0.2378 -2.06093,0.00587M2926.53038,668.27646c-0.78679,0.32 -13.92739,7.727 -14.24739,8.03232c-0.48734,0.46092 -0.68991,0.83964 -0.85138,1.59413c-0.16734,0.78386 0.07927,1.65285 0.66349,2.33395c0.55193,0.64881 1.21835,0.98055 2.10496,1.05101c0.68991,0.05578 0.75743,0.03523 2.06093,-0.64881c0.73982,-0.38752 2.9035,-1.57358 4.80883,-2.63634l3.46423,-1.93175l0.05872,6.00663l0.05872,6.00956l0.35523,0.57835c1.18019,1.91707 3.8635,1.91707 5.04369,0l0.35523,-0.57835l0.03229,-8.75746c0.03817,-9.77618 0.07339,-9.31233 -0.78386,-10.26059c-0.57835,-0.64587 -1.18606,-0.90129 -2.12551,-0.89542c-0.41982,0.00294 -0.86899,0.04991 -0.99817,0.10275M2938.03868,668.37922c-0.5989,0.2789 -1.26239,1.01285 -1.51487,1.67634c-0.17615,0.46973 -0.19376,1.32111 -0.16147,9.27416l0.03229,8.75746l0.35523,0.57835c1.18019,1.91707 3.8635,1.91707 5.04369,0l0.35523,-0.57835l0.05872,-6.00956l0.05872,-6.00663l3.46423,1.93175c1.90533,1.06276 4.06901,2.24882 4.80883,2.63634c1.30349,0.68404 1.37101,0.70459 2.06093,0.64881c0.88661,-0.07046 1.55303,-0.4022 2.10496,-1.05101c1.01872,-1.18606 0.93945,-2.8624 -0.18789,-3.92809c-0.21431,-0.20551 -3.50827,-2.10496 -7.31893,-4.2246l-6.92847,-3.85176l-0.88074,-0.03817c-0.6723,-0.02642 -0.9923,0.01468 -1.35046,0.18495" className="SFSymbolsPreviewWireframe"/></g>
  <g id="Regular-S"><path d="M1443.07808,631.57614c-0.6723,0.21138 -1.28881,0.71046 -1.66459,1.34753l-0.31707,0.54019l-0.05872,6.00369l-0.05872,6.00663l-4.61213,-2.56001c-4.81176,-2.66863 -5.20809,-2.83891 -6.15635,-2.63634c-1.54129,0.33468 -2.64221,1.91414 -2.33395,3.35267c0.16147,0.7545 0.3611,1.13322 0.85138,1.60001c0.52257,0.50202 13.85693,7.90902 14.57914,8.09691c1.01578,0.26716 2.0668,-0.05872 2.80074,-0.87193c0.84551,-0.93652 0.81321,-0.48734 0.77505,-10.24297l-0.03229,-8.74866l-0.31707,-0.54019c-0.71633,-1.21835 -2.11964,-1.76441 -3.45543,-1.34753M1454.82125,631.57614c-0.6723,0.21138 -1.28881,0.71046 -1.66459,1.34753l-0.31707,0.54019l-0.03229,8.74866c-0.03817,9.75563 -0.07046,9.30646 0.77505,10.24297c0.73395,0.81321 1.78496,1.13909 2.80074,0.87193c0.7222,-0.18789 14.05657,-7.59489 14.57914,-8.09691c0.49028,-0.46679 0.68991,-0.84551 0.85138,-1.60001c0.30826,-1.43854 -0.79266,-3.01799 -2.33395,-3.35267c-0.94826,-0.20257 -1.34459,-0.03229 -6.15635,2.63634l-4.61213,2.56001l-0.05872,-6.00663l-0.05872,-6.00369l-0.31707,-0.54019c-0.71633,-1.21835 -2.11964,-1.76441 -3.45543,-1.34753M1423.56682,650.84961c-0.97468,0.49028 -1.58533,1.45615 -1.59707,2.51891c-0.00881,0.88367 0.44624,1.86129 1.08331,2.32221c0.26129,0.18789 2.37799,1.3945 4.70314,2.68038c2.32808,1.28588 4.23341,2.36331 4.23341,2.39561c0,0.03229 -1.90826,1.1156 -4.24222,2.40735c-2.33395,1.29175 -4.45359,2.49836 -4.70607,2.68038c-0.62239,0.44624 -1.08037,1.43267 -1.07156,2.31047c0.01761,1.82019 1.81432,3.22643 3.54644,2.77432c0.87193,-0.22606 14.16813,-7.62425 14.71418,-8.18499c0.46679,-0.48147 0.80734,-1.32111 0.80734,-1.98753c0,-0.66936 -0.34055,-1.50606 -0.80734,-1.98166c-0.28771,-0.29651 -2.68918,-1.69102 -7.407,-4.30681l-6.98131,-3.86644l-0.82789,-0.03817c-0.71046,-0.03229 -0.91597,0.00587 -1.44734,0.27596M1473.62499,650.77034c-0.25835,0.12037 -3.48185,1.88771 -7.16333,3.93396c-4.84699,2.68918 -6.79636,3.83121 -7.06938,4.13947c-1.07156,1.20367 -0.89835,3.26166 0.34936,4.19525c0.20844,0.1556 3.43194,1.97579 7.16627,4.04552c4.40662,2.44551 6.98131,3.80479 7.34241,3.88405c1.72625,0.36991 3.45249,-1.02459 3.4701,-2.80368c0.00881,-0.8778 -0.44918,-1.86423 -1.07156,-2.31047c-0.25248,-0.18202 -2.37212,-1.38863 -4.70607,-2.68038c-2.33395,-1.29175 -4.24222,-2.37505 -4.24222,-2.40735c0,-0.03229 1.90533,-1.10973 4.23341,-2.39561c2.32515,-1.28588 4.44185,-2.49249 4.70314,-2.68038c0.63707,-0.46092 1.09211,-1.43854 1.08331,-2.33102c-0.01174,-1.13615 -0.73395,-2.16955 -1.83781,-2.63047c-0.58716,-0.24367 -1.67634,-0.22606 -2.25762,0.0411M1448.79113,655.0977c-0.40514,0.14385 -0.93945,0.59303 -2.33102,1.95817c-2.20771,2.16955 -2.4279,2.50423 -2.42496,3.71084c0,0.62826 0.06459,0.99817 0.22018,1.29175c0.30239,0.56954 3.53469,3.82534 4.18057,4.20699c0.44624,0.26422 0.66642,0.31413 1.40918,0.31413c0.74276,0 0.96294,-0.04991 1.40918,-0.31413c0.64587,-0.38165 3.87818,-3.63745 4.18057,-4.20699c0.1556,-0.29358 0.22018,-0.66349 0.22018,-1.29175c0.00294,-1.20367 -0.21725,-1.54129 -2.42203,-3.7079c-1.48551,-1.45909 -1.90533,-1.80551 -2.38093,-1.96698c-0.70753,-0.24073 -1.36514,-0.2378 -2.06093,0.00587M1442.97533,668.27646c-0.78679,0.32 -13.92739,7.727 -14.24739,8.03232c-0.48734,0.46092 -0.68991,0.83964 -0.85138,1.59413c-0.16734,0.78386 0.07927,1.65285 0.66349,2.33395c0.55193,0.64881 1.21835,0.98055 2.10496,1.05101c0.68991,0.05578 0.75743,0.03523 2.06093,-0.64881c0.73982,-0.38752 2.9035,-1.57358 4.80883,-2.63634l3.46423,-1.93175l0.05872,6.00663l0.05872,6.00956l0.35523,0.57835c1.18019,1.91707 3.8635,1.91707 5.04369,0l0.35523,-0.57835l0.03229,-8.75746c0.03817,-9.77618 0.07339,-9.31233 -0.78386,-10.26059c-0.57835,-0.64587 -1.18606,-0.90129 -2.12551,-0.89542c-0.41982,0.00294 -0.86899,0.04991 -0.99817,0.10275M1454.48363,668.37922c-0.5989,0.2789 -1.26239,1.01285 -1.51487,1.67634c-0.17615,0.46973 -0.19376,1.32111 -0.16147,9.27416l0.03229,8.75746l0.35523,0.57835c1.18019,1.91707 3.8635,1.91707 5.04369,0l0.35523,-0.57835l0.05872,-6.00956l0.05872,-6.00663l3.46423,1.93175c1.90533,1.06276 4.06901,2.24882 4.80883,2.63634c1.30349,0.68404 1.37101,0.70459 2.06093,0.64881c0.88661,-0.07046 1.55303,-0.4022 2.10496,-1.05101c1.01872,-1.18606 0.93945,-2.8624 -0.18789,-3.92809c-0.21431,-0.20551 -3.50827,-2.10496 -7.31893,-4.2246l-6.92847,-3.85176l-0.88074,-0.03817c-0.6723,-0.02642 -0.9923,0.01468 -1.35046,0.18495" className="SFSymbolsPreviewWireframe"/></g>
  <g id="Ultralight-S"><path d="M552.94449,631.57614c-0.6723,0.21138 -1.28881,0.71046 -1.66459,1.34753l-0.31707,0.54019l-0.05872,6.00369l-0.05872,6.00663l-4.61213,-2.56001c-4.81176,-2.66863 -5.20809,-2.83891 -6.15635,-2.63634c-1.54129,0.33468 -2.64221,1.91414 -2.33395,3.35267c0.16147,0.7545 0.3611,1.13322 0.85138,1.60001c0.52257,0.50202 13.85693,7.90902 14.57914,8.09691c1.01578,0.26716 2.0668,-0.05872 2.80074,-0.87193c0.84551,-0.93652 0.81321,-0.48734 0.77505,-10.24297l-0.03229,-8.74866l-0.31707,-0.54019c-0.71633,-1.21835 -2.11964,-1.76441 -3.45543,-1.34753M564.68766,631.57614c-0.6723,0.21138 -1.28881,0.71046 -1.66459,1.34753l-0.31707,0.54019l-0.03229,8.74866c-0.03817,9.75563 -0.07046,9.30646 0.77505,10.24297c0.73395,0.81321 1.78496,1.13909 2.80074,0.87193c0.7222,-0.18789 14.05657,-7.59489 14.57914,-8.09691c0.49028,-0.46679 0.68991,-0.84551 0.85138,-1.60001c0.30826,-1.43854 -0.79266,-3.01799 -2.33395,-3.35267c-0.94826,-0.20257 -1.34459,-0.03229 -6.15635,2.63634l-4.61213,2.56001l-0.05872,-6.00663l-0.05872,-6.00369l-0.31707,-0.54019c-0.71633,-1.21835 -2.11964,-1.76441 -3.45543,-1.34753M533.43323,650.84961c-0.97468,0.49028 -1.58533,1.45615 -1.59707,2.51891c-0.00881,0.88367 0.44624,1.86129 1.08331,2.32221c0.26129,0.18789 2.37799,1.3945 4.70314,2.68038c2.32808,1.28588 4.23341,2.36331 4.23341,2.39561c0,0.03229 -1.90826,1.1156 -4.24222,2.40735c-2.33395,1.29175 -4.45359,2.49836 -4.70607,2.68038c-0.62239,0.44624 -1.08037,1.43267 -1.07156,2.31047c0.01761,1.82019 1.81432,3.22643 3.54644,2.77432c0.87193,-0.22606 14.16813,-7.62425 14.71418,-8.18499c0.46679,-0.48147 0.80734,-1.32111 0.80734,-1.98753c0,-0.66936 -0.34055,-1.50606 -0.80734,-1.98166c-0.28771,-0.29651 -2.68918,-1.69102 -7.407,-4.30681l-6.98131,-3.86644l-0.82789,-0.03817c-0.71046,-0.03229 -0.91597,0.00587 -1.44734,0.27596M583.4914,650.77034c-0.25835,0.12037 -3.48185,1.88771 -7.16333,3.93396c-4.84699,2.68918 -6.79636,3.83121 -7.06938,4.13947c-1.07156,1.20367 -0.89835,3.26166 0.34936,4.19525c0.20844,0.1556 3.43194,1.97579 7.16627,4.04552c4.40662,2.44551 6.98131,3.80479 7.34241,3.88405c1.72625,0.36991 3.45249,-1.02459 3.4701,-2.80368c0.00881,-0.8778 -0.44918,-1.86423 -1.07156,-2.31047c-0.25248,-0.18202 -2.37212,-1.38863 -4.70607,-2.68038c-2.33395,-1.29175 -4.24222,-2.37505 -4.24222,-2.40735c0,-0.03229 1.90533,-1.10973 4.23341,-2.39561c2.32515,-1.28588 4.44185,-2.49249 4.70314,-2.68038c0.63707,-0.46092 1.09211,-1.43854 1.08331,-2.33102c-0.01174,-1.13615 -0.73395,-2.16955 -1.83781,-2.63047c-0.58716,-0.24367 -1.67634,-0.22606 -2.25762,0.0411M558.65754,655.0977c-0.40514,0.14385 -0.93945,0.59303 -2.33102,1.95817c-2.20771,2.16955 -2.4279,2.50423 -2.42496,3.71084c0,0.62826 0.06459,0.99817 0.22018,1.29175c0.30239,0.56954 3.53469,3.82534 4.18057,4.20699c0.44624,0.26422 0.66642,0.31413 1.40918,0.31413c0.74276,0 0.96294,-0.04991 1.40918,-0.31413c0.64587,-0.38165 3.87818,-3.63745 4.18057,-4.20699c0.1556,-0.29358 0.22018,-0.66349 0.22018,-1.29175c0.00294,-1.20367 -0.21725,-1.54129 -2.42203,-3.7079c-1.48551,-1.45909 -1.90533,-1.80551 -2.38093,-1.96698c-0.70753,-0.24073 -1.36514,-0.2378 -2.06093,0.00587M552.84174,668.27646c-0.78679,0.32 -13.92739,7.727 -14.24739,8.03232c-0.48734,0.46092 -0.68991,0.83964 -0.85138,1.59413c-0.16734,0.78386 0.07927,1.65285 0.66349,2.33395c0.55193,0.64881 1.21835,0.98055 2.10496,1.05101c0.68991,0.05578 0.75743,0.03523 2.06093,-0.64881c0.73982,-0.38752 2.9035,-1.57358 4.80883,-2.63634l3.46423,-1.93175l0.05872,6.00663l0.05872,6.00956l0.35523,0.57835c1.18019,1.91707 3.8635,1.91707 5.04369,0l0.35523,-0.57835l0.03229,-8.75746c0.03817,-9.77618 0.07339,-9.31233 -0.78386,-10.26059c-0.57835,-0.64587 -1.18606,-0.90129 -2.12551,-0.89542c-0.41982,0.00294 -0.86899,0.04991 -0.99817,0.10275M564.35004,668.37922c-0.5989,0.2789 -1.26239,1.01285 -1.51487,1.67634c-0.17615,0.46973 -0.19376,1.32111 -0.16147,9.27416l0.03229,8.75746l0.35523,0.57835c1.18019,1.91707 3.8635,1.91707 5.04369,0l0.35523,-0.57835l0.05872,-6.00956l0.05872,-6.00663l3.46423,1.93175c1.90533,1.06276 4.06901,2.24882 4.80883,2.63634c1.30349,0.68404 1.37101,0.70459 2.06093,0.64881c0.88661,-0.07046 1.55303,-0.4022 2.10496,-1.05101c1.01872,-1.18606 0.93945,-2.8624 -0.18789,-3.92809c-0.21431,-0.20551 -3.50827,-2.10496 -7.31893,-4.2246l-6.92847,-3.85176l-0.88074,-0.03817c-0.6723,-0.02642 -0.9923,0.01468 -1.35046,0.18495" className="SFSymbolsPreviewWireframe"/></g>
 </g>
</svg>