<?xml version="1.0" encoding="UTF-8"?><!--Generator: https://SymbolKit.app--><!DOCTYPE svg PUBLIC "-//W3C//DTD SVG 1.1//EN" "http://www.w3.org/Graphics/SVG/1.1/DTD/svg11.dtd"><svg xmlns="http://www.w3.org/2000/svg" xmlns:xlink="http://www.w3.org/1999/xlink" version="1.1" viewBox="0 0 3300 2200">
 <!--glyph: "100092", point size: 100.0, font version: "20.0d10e1", template writer version: "138.0.0"-->
 <style>.SFSymbolsPreviewWireframe {fill:none;opacity:1.0;stroke:black;stroke-width:0.5}
</style>
 <g id="Notes">
  <rect height="2200" id="artboard" style="fill:white;opacity:1" width="3300" x="0" y="0"/>
  <line style="fill:none;stroke:black;opacity:1;stroke-width:0.5;" x1="263" x2="3036" y1="292" y2="292"/>
  <text style="stroke:none;fill:black;font-family:sans-serif;font-size:13;font-weight:bold;" transform="matrix(1 0 0 1 263 322)">Weight/Scale Variations</text>
  <text style="stroke:none;fill:black;font-family:sans-serif;font-size:13;text-anchor:middle;" transform="matrix(1 0 0 1 559.711 322)">Ultralight</text>
  <text style="stroke:none;fill:black;font-family:sans-serif;font-size:13;text-anchor:middle;" transform="matrix(1 0 0 1 856.422 322)">Thin</text>
  <text style="stroke:none;fill:black;font-family:sans-serif;font-size:13;text-anchor:middle;" transform="matrix(1 0 0 1 1153.13 322)">Light</text>
  <text style="stroke:none;fill:black;font-family:sans-serif;font-size:13;text-anchor:middle;" transform="matrix(1 0 0 1 1449.84 322)">Regular</text>
  <text style="stroke:none;fill:black;font-family:sans-serif;font-size:13;text-anchor:middle;" transform="matrix(1 0 0 1 1746.56 322)">Medium</text>
  <text style="stroke:none;fill:black;font-family:sans-serif;font-size:13;text-anchor:middle;" transform="matrix(1 0 0 1 2043.27 322)">Semibold</text>
  <text style="stroke:none;fill:black;font-family:sans-serif;font-size:13;text-anchor:middle;" transform="matrix(1 0 0 1 2339.98 322)">Bold</text>
  <text style="stroke:none;fill:black;font-family:sans-serif;font-size:13;text-anchor:middle;" transform="matrix(1 0 0 1 2636.69 322)">Heavy</text>
  <text style="stroke:none;fill:black;font-family:sans-serif;font-size:13;text-anchor:middle;" transform="matrix(1 0 0 1 2933.4 322)">Black</text>
  <line style="fill:none;stroke:black;opacity:1;stroke-width:0.5;" x1="263" x2="3036" y1="1903" y2="1903"/>
  <g transform="matrix(0.2 0 0 0.2 263 1933)">
   <path d="m46.2402 4.15039c21.7773 0 39.4531-17.627 39.4531-39.4043s-17.6758-39.4043-39.4531-39.4043c-21.7285 0-39.4043 17.627-39.4043 39.4043s17.6758 39.4043 39.4043 39.4043Zm0-7.42188c-17.6758 0-31.9336-14.3066-31.9336-31.9824s14.2578-31.9824 31.9336-31.9824 31.9824 14.3066 31.9824 31.9824-14.3066 31.9824-31.9824 31.9824Zm-17.9688-31.9824c0 2.14844 1.51367 3.61328 3.75977 3.61328h10.498v10.5957c0 2.19727 1.46484 3.71094 3.61328 3.71094 2.24609 0 3.71094-1.51367 3.71094-3.71094v-10.5957h10.5957c2.19727 0 3.71094-1.46484 3.71094-3.61328 0-2.19727-1.51367-3.71094-3.71094-3.71094h-10.5957v-10.5469c0-2.24609-1.46484-3.75977-3.71094-3.75977-2.14844 0-3.61328 1.51367-3.61328 3.75977v10.5469h-10.498c-2.24609 0-3.75977 1.51367-3.75977 3.71094Z"/>
  </g>
  <g transform="matrix(0.2 0 0 0.2 281.506 1933)">
   <path d="m58.5449 14.5508c27.4902 0 49.8047-22.3145 49.8047-49.8047s-22.3145-49.8047-49.8047-49.8047-49.8047 22.3145-49.8047 49.8047 22.3145 49.8047 49.8047 49.8047Zm0-8.30078c-22.9492 0-41.5039-18.5547-41.5039-41.5039s18.5547-41.5039 41.5039-41.5039 41.5039 18.5547 41.5039 41.5039-18.5547 41.5039-41.5039 41.5039Zm-22.6562-41.5039c0 2.39258 1.66016 4.00391 4.15039 4.00391h14.3555v14.4043c0 2.44141 1.66016 4.15039 4.05273 4.15039 2.44141 0 4.15039-1.66016 4.15039-4.15039v-14.4043h14.4043c2.44141 0 4.15039-1.61133 4.15039-4.00391 0-2.44141-1.70898-4.15039-4.15039-4.15039h-14.4043v-14.3555c0-2.49023-1.70898-4.19922-4.15039-4.19922-2.39258 0-4.05273 1.70898-4.05273 4.19922v14.3555h-14.3555c-2.49023 0-4.15039 1.70898-4.15039 4.15039Z"/>
  </g>
  <g transform="matrix(0.2 0 0 0.2 304.924 1933)">
   <path d="m74.8535 28.3203c35.1074 0 63.623-28.4668 63.623-63.5742s-28.5156-63.623-63.623-63.623-63.5742 28.5156-63.5742 63.623 28.4668 63.5742 63.5742 63.5742Zm0-9.08203c-30.127 0-54.4922-24.3652-54.4922-54.4922s24.3652-54.4922 54.4922-54.4922 54.4922 24.3652 54.4922 54.4922-24.3652 54.4922-54.4922 54.4922Zm-28.8574-54.4922c0 2.58789 1.85547 4.39453 4.58984 4.39453h19.7266v19.7754c0 2.68555 1.85547 4.58984 4.44336 4.58984 2.68555 0 4.54102-1.85547 4.54102-4.58984v-19.7754h19.7754c2.68555 0 4.58984-1.80664 4.58984-4.39453 0-2.73438-1.85547-4.58984-4.58984-4.58984h-19.7754v-19.7266c0-2.73438-1.85547-4.63867-4.54102-4.63867-2.58789 0-4.44336 1.9043-4.44336 4.63867v19.7266h-19.7266c-2.73438 0-4.58984 1.85547-4.58984 4.58984Z"/>
  </g>
  <text style="stroke:none;fill:black;font-family:sans-serif;font-size:13;font-weight:bold;" transform="matrix(1 0 0 1 263 1953)">Design Variations</text>
  <text style="stroke:none;fill:black;font-family:sans-serif;font-size:13;" transform="matrix(1 0 0 1 263 1971)">Symbols are supported in up to nine weights and three scales.</text>
  <text style="stroke:none;fill:black;font-family:sans-serif;font-size:13;" transform="matrix(1 0 0 1 263 1989)">For optimal layout with text and other symbols, vertically align</text>
  <text style="stroke:none;fill:black;font-family:sans-serif;font-size:13;" transform="matrix(1 0 0 1 263 2007)">symbols with the adjacent text.</text>
  <line style="fill:none;stroke:#00AEEF;stroke-width:0.5;opacity:1.0;" x1="776" x2="776" y1="1919" y2="1933"/>
  <g transform="matrix(0.2 0 0 0.2 776 1933)">
   <path d="m16.5527 0.78125c2.58789 0 3.85742-0.976562 4.78516-3.71094l6.29883-17.2363h28.8086l6.29883 17.2363c0.927734 2.73438 2.19727 3.71094 4.73633 3.71094 2.58789 0 4.24805-1.5625 4.24805-4.00391 0-0.830078-0.146484-1.61133-0.537109-2.63672l-22.9004-60.9863c-1.12305-2.97852-3.125-4.49219-6.25-4.49219-3.02734 0-5.07812 1.46484-6.15234 4.44336l-22.9004 61.084c-0.390625 1.02539-0.537109 1.80664-0.537109 2.63672 0 2.44141 1.5625 3.95508 4.10156 3.95508Zm13.4766-28.3691 11.8652-32.8613h0.244141l11.8652 32.8613Z"/>
  </g>
  <line style="fill:none;stroke:#00AEEF;stroke-width:0.5;opacity:1.0;" x1="792.836" x2="792.836" y1="1919" y2="1933"/>
  <text style="stroke:none;fill:black;font-family:sans-serif;font-size:13;font-weight:bold;" transform="matrix(1 0 0 1 776 1953)">Margins</text>
  <text style="stroke:none;fill:black;font-family:sans-serif;font-size:13;" transform="matrix(1 0 0 1 776 1971)">Leading and trailing margins on the left and right side of each symbol</text>
  <text style="stroke:none;fill:black;font-family:sans-serif;font-size:13;" transform="matrix(1 0 0 1 776 1989)">can be adjusted by modifying the x-location of the margin guidelines.</text>
  <text style="stroke:none;fill:black;font-family:sans-serif;font-size:13;" transform="matrix(1 0 0 1 776 2007)">Modifications are automatically applied proportionally to all</text>
  <text style="stroke:none;fill:black;font-family:sans-serif;font-size:13;" transform="matrix(1 0 0 1 776 2025)">scales and weights.</text>
  <g transform="matrix(0.2 0 0 0.2 1289 1933)">
   <path d="m14.209 9.32617 8.49609 8.54492c4.29688 4.3457 9.22852 4.05273 13.8672-1.07422l53.4668-58.9355-4.83398-4.88281-53.0762 58.3984c-1.75781 2.00195-3.41797 2.49023-5.76172 0.146484l-5.85938-5.81055c-2.34375-2.29492-1.80664-4.00391 0.195312-5.81055l57.373-54.0039-4.88281-4.83398-57.959 54.4434c-4.93164 4.58984-5.32227 9.47266-1.02539 13.8184Zm32.0801-90.9668c-2.09961 2.05078-2.24609 4.93164-1.07422 6.88477 1.17188 1.80664 3.4668 2.97852 6.68945 2.14844 7.32422-1.70898 14.9414-2.00195 22.0703 2.68555l-2.92969 7.27539c-1.70898 4.15039-0.830078 7.08008 1.85547 9.81445l11.4746 11.5723c2.44141 2.44141 4.49219 2.53906 7.32422 2.05078l5.32227-0.976562 3.32031 3.36914-0.195312 2.7832c-0.195312 2.49023 0.439453 4.39453 2.88086 6.78711l3.80859 3.71094c2.39258 2.39258 5.46875 2.53906 7.8125 0.195312l14.5508-14.5996c2.34375-2.34375 2.24609-5.32227-0.146484-7.71484l-3.85742-3.80859c-2.39258-2.39258-4.24805-3.17383-6.64062-2.97852l-2.88086 0.244141-3.22266-3.17383 1.2207-5.61523c0.634766-2.83203-0.146484-5.0293-3.07617-7.95898l-10.9863-10.9375c-16.6992-16.6016-38.8672-16.2109-53.3203-1.75781Zm7.4707 1.85547c12.1582-8.88672 28.6133-7.37305 39.7461 3.75977l12.1582 12.0605c1.17188 1.17188 1.36719 2.09961 1.02539 3.80859l-1.61133 7.42188 7.51953 7.42188 4.93164-0.292969c1.26953-0.0488281 1.66016 0.0488281 2.63672 1.02539l2.88086 2.88086-12.207 12.207-2.88086-2.88086c-0.976562-0.976562-1.12305-1.36719-1.07422-2.68555l0.341797-4.88281-7.4707-7.42188-7.61719 1.26953c-1.61133 0.341797-2.34375 0.195312-3.56445-0.976562l-10.0098-10.0098c-1.26953-1.17188-1.41602-2.00195-0.634766-3.85742l4.39453-10.4492c-7.8125-7.27539-17.9688-10.4004-28.125-7.42188-0.78125 0.195312-1.07422-0.439453-0.439453-0.976562Z"/>
  </g>
  <text style="stroke:none;fill:black;font-family:sans-serif;font-size:13;font-weight:bold;" transform="matrix(1 0 0 1 1289 1953)">Exporting</text>
  <text style="stroke:none;fill:black;font-family:sans-serif;font-size:13;" transform="matrix(1 0 0 1 1289 1971)">Symbols should be outlined when exporting to ensure the</text>
  <text style="stroke:none;fill:black;font-family:sans-serif;font-size:13;" transform="matrix(1 0 0 1 1289 1989)">design is preserved when submitting to Xcode.</text>
  <text id="template-version" style="stroke:none;fill:black;font-family:sans-serif;font-size:13;text-anchor:end;" transform="matrix(1 0 0 1 3036 1933)">Template v.6.0</text>
  <text style="stroke:none;fill:black;font-family:sans-serif;font-size:13;text-anchor:end;" transform="matrix(1 0 0 1 3036 1951)">Requires Xcode 16 or greater</text>
  <text id="descriptive-name" style="stroke:none;fill:black;font-family:sans-serif;font-size:13;text-anchor:end;" transform="matrix(1 0 0 1 3036 1969)">Generated from square</text>
  <text style="stroke:none;fill:black;font-family:sans-serif;font-size:13;text-anchor:end;" transform="matrix(1 0 0 1 3036 1987)">Typeset at 100.0 points</text>
  <text style="stroke:none;fill:black;font-family:sans-serif;font-size:13;" transform="matrix(1 0 0 1 263 726)">Small</text>
  <text style="stroke:none;fill:black;font-family:sans-serif;font-size:13;" transform="matrix(1 0 0 1 263 1156)">Medium</text>
  <text style="stroke:none;fill:black;font-family:sans-serif;font-size:13;" transform="matrix(1 0 0 1 263 1586)">Large</text>
 </g>
 <g id="Guides">
  <g id="H-reference" style="fill:#27AAE1;stroke:none;" transform="matrix(1 0 0 1 339 696)">
   <path d="M0.993654 0L3.63775 0L29.3281-67.1323L30.0303-67.1323L30.0303-70.459L28.1226-70.459ZM11.6885-24.4799L46.9815-24.4799L46.2315-26.7285L12.4385-26.7285ZM55.1196 0L57.7637 0L30.6382-70.459L29.4326-70.459L29.4326-67.1323Z"/>
  </g>
  <line id="Baseline-S" style="fill:none;stroke:#27AAE1;opacity:1;stroke-width:0.5;" x1="263" x2="3036" y1="696" y2="696"/>
  <line id="Capline-S" style="fill:none;stroke:#27AAE1;opacity:1;stroke-width:0.5;" x1="263" x2="3036" y1="625.541" y2="625.541"/>
  <g id="H-reference" style="fill:#27AAE1;stroke:none;" transform="matrix(1 0 0 1 339 1126)">
   <path d="M0.993654 0L3.63775 0L29.3281-67.1323L30.0303-67.1323L30.0303-70.459L28.1226-70.459ZM11.6885-24.4799L46.9815-24.4799L46.2315-26.7285L12.4385-26.7285ZM55.1196 0L57.7637 0L30.6382-70.459L29.4326-70.459L29.4326-67.1323Z"/>
  </g>
  <line id="Baseline-M" style="fill:none;stroke:#27AAE1;opacity:1;stroke-width:0.5;" x1="263" x2="3036" y1="1126" y2="1126"/>
  <line id="Capline-M" style="fill:none;stroke:#27AAE1;opacity:1;stroke-width:0.5;" x1="263" x2="3036" y1="1055.54" y2="1055.54"/>
  <g id="H-reference" style="fill:#27AAE1;stroke:none;" transform="matrix(1 0 0 1 339 1556)">
   <path d="M0.993654 0L3.63775 0L29.3281-67.1323L30.0303-67.1323L30.0303-70.459L28.1226-70.459ZM11.6885-24.4799L46.9815-24.4799L46.2315-26.7285L12.4385-26.7285ZM55.1196 0L57.7637 0L30.6382-70.459L29.4326-70.459L29.4326-67.1323Z"/>
  </g>
  <line id="Baseline-L" style="fill:none;stroke:#27AAE1;opacity:1;stroke-width:0.5;" x1="263" x2="3036" y1="1556" y2="1556"/>
  <line id="Capline-L" style="fill:none;stroke:#27AAE1;opacity:1;stroke-width:0.5;" x1="263" x2="3036" y1="1485.54" y2="1485.54"/>
  <line id="right-margin-Black-S" style="fill:none;stroke:#00AEEF;stroke-width:0.5;opacity:1.0;" x1="2981.3" x2="2981.3" y1="600.785" y2="720.121"/>
  <line id="left-margin-Black-S" style="fill:none;stroke:#00AEEF;stroke-width:0.5;opacity:1.0;" x1="2885.5" x2="2885.5" y1="600.785" y2="720.121"/>
  <line id="right-margin-Regular-S" style="fill:none;stroke:#00AEEF;stroke-width:0.5;opacity:1.0;" x1="1495.18" x2="1495.18" y1="600.785" y2="720.121"/>
  <line id="left-margin-Regular-S" style="fill:none;stroke:#00AEEF;stroke-width:0.5;opacity:1.0;" x1="1404.51" x2="1404.51" y1="600.785" y2="720.121"/>
  <line id="right-margin-Ultralight-S" style="fill:none;stroke:#00AEEF;stroke-width:0.5;opacity:1.0;" x1="603.073" x2="603.073" y1="600.785" y2="720.121"/>
  <line id="left-margin-Ultralight-S" style="fill:none;stroke:#00AEEF;stroke-width:0.5;opacity:1.0;" x1="516.35" x2="516.35" y1="600.785" y2="720.121"/>
 </g>
 <g id="Symbols">
  <g id="Black-S"><path d="M2930.11253,640.35549c-3.93983,0.39633 -7.17507,1.85836 -9.69398,4.3802c-1.20661,1.20955 -2.39267,2.9123 -3.11781,4.47708c-0.66642,1.44441 -1.41212,3.71671 -1.48551,4.53873c-0.05578,0.5989 -0.01761,0.76918 0.30826,1.41505c0.42863,0.85725 0.96588,1.30936 1.86716,1.57065c1.06863,0.31119 2.1079,-0.02642 2.95928,-0.96294c1.34753,-1.47964 2.24001,-2.26937 2.96808,-2.62753c1.56478,-0.76918 3.3879,-0.73688 4.78828,0.09101c0.4345,0.25541 1.48551,1.15377 2.56882,2.19597c3.12368,3.00625 4.47708,4.03965 6.59966,5.03488c5.07305,2.37799 11.76371,2.36038 16.57254,-0.04697c2.13432,-1.06569 4.15414,-2.88001 5.58975,-5.0114c1.10973,-1.64991 2.53065,-5.12002 2.68331,-6.55562c0.12624,-1.15377 -0.47266,-2.3046 -1.49432,-2.87708c-0.42863,-0.24073 -0.67817,-0.29358 -1.40331,-0.29064c-1.14202,0.00294 -1.64404,0.26422 -2.53065,1.31523c-0.81028,0.95707 -1.93762,1.96111 -2.56588,2.28698c-1.61175,0.82789 -3.60222,0.77505 -5.03488,-0.13505c-0.30826,-0.1967 -1.57652,-1.32111 -2.81836,-2.50129c-1.24184,-1.17725 -2.72735,-2.49542 -3.30276,-2.92698c-3.58754,-2.69212 -8.35526,-3.88405 -13.45767,-3.37029M2934.22851,646.21239c1.53542,0.17615 2.75671,0.52844 4.04552,1.16551c1.42679,0.70753 2.44258,1.51193 5.04956,4.00148c2.80074,2.67451 4.55928,3.76368 6.6848,4.13653l0.7134,0.12624l-0.45505,0.15853c-1.60294,0.55486 -4.84699,0.71633 -6.81984,0.34055c-2.83597,-0.53725 -4.55928,-1.53542 -7.40406,-4.28625c-3.33799,-3.22937 -4.55048,-4.07488 -6.75232,-4.71488c-0.41982,-0.1233 -0.88074,-0.22312 -1.02753,-0.22312c-0.55486,0 -0.22899,-0.22606 0.58716,-0.40807c1.81138,-0.4022 3.60515,-0.49908 5.37837,-0.29651M2918.25193,659.43813c-5.83635,0.67817 -10.04921,3.56111 -12.55638,8.59012c-0.66349,1.33285 -1.52661,3.81946 -1.61469,4.66497c-0.24367,2.25175 2.08148,3.90754 4.13947,2.95047c0.41688,-0.1967 0.80441,-0.52257 1.28,-1.08624c1.86423,-2.20184 3.24992,-2.94166 5.31672,-2.83304c1.69689,0.08807 2.09615,0.33468 4.98791,3.06203c2.44258,2.3046 3.26166,2.99744 4.45653,3.76075c1.7967,1.14789 4.28919,2.10203 6.49691,2.48955c1.46202,0.25541 4.31855,0.34642 5.78938,0.18495c4.18644,-0.45798 7.2015,-1.80551 9.77618,-4.35965c1.86716,-1.84955 3.12662,-3.98093 4.13066,-6.98131c0.62239,-1.86129 0.6811,-2.53652 0.29651,-3.3791c-0.52551,-1.15083 -1.45028,-1.75854 -2.67157,-1.75854c-0.89835,0 -1.57652,0.31413 -2.22827,1.03046c-1.34753,1.47964 -2.24001,2.26937 -2.97102,2.62753c-1.04514,0.5167 -2.08441,0.6811 -3.14423,0.49908c-1.45615,-0.24954 -1.95817,-0.59303 -4.57396,-3.13542c-2.01102,-1.9523 -2.88882,-2.69506 -4.19818,-3.54937c-1.94643,-1.27413 -4.11011,-2.13138 -6.48516,-2.57762c-0.96,-0.17908 -5.22864,-0.31707 -6.22681,-0.19963M2924.38186,665.62384c1.39156,0.36697 2.80074,1.05688 3.96332,1.94056c0.47853,0.36697 1.7468,1.50313 2.81836,2.52478c3.00625,2.87414 4.52699,3.88699 6.58204,4.37726c0.48441,0.11743 0.92477,0.24661 0.97762,0.29064c0.05284,0.04404 -0.26422,0.1644 -0.70459,0.27009c-3.25286,0.77798 -6.8492,0.47266 -9.49141,-0.81028c-1.20661,-0.58422 -2.55707,-1.66166 -4.92626,-3.92515c-2.84478,-2.72148 -4.22167,-3.61689 -6.3736,-4.14827l-1.01285,-0.25248l0.37872,-0.15266c0.85138,-0.34936 2.27817,-0.49321 4.47708,-0.45211c1.87597,0.03229 2.32808,0.07927 3.31157,0.33762" className="SFSymbolsPreviewWireframe"/></g>
  <g id="Regular-S"><path d="M1446.55748,640.35549c-3.93983,0.39633 -7.17507,1.85836 -9.69398,4.3802c-1.20661,1.20955 -2.39267,2.9123 -3.11781,4.47708c-0.66642,1.44441 -1.41212,3.71671 -1.48551,4.53873c-0.05578,0.5989 -0.01761,0.76918 0.30826,1.41505c0.42863,0.85725 0.96588,1.30936 1.86716,1.57065c1.06863,0.31119 2.1079,-0.02642 2.95928,-0.96294c1.34753,-1.47964 2.24001,-2.26937 2.96808,-2.62753c1.56478,-0.76918 3.3879,-0.73688 4.78828,0.09101c0.4345,0.25541 1.48551,1.15377 2.56882,2.19597c3.12368,3.00625 4.47708,4.03965 6.59966,5.03488c5.07305,2.37799 11.76371,2.36038 16.57254,-0.04697c2.13432,-1.06569 4.15414,-2.88001 5.58975,-5.0114c1.10973,-1.64991 2.53065,-5.12002 2.68331,-6.55562c0.12624,-1.15377 -0.47266,-2.3046 -1.49432,-2.87708c-0.42863,-0.24073 -0.67817,-0.29358 -1.40331,-0.29064c-1.14202,0.00294 -1.64404,0.26422 -2.53065,1.31523c-0.81028,0.95707 -1.93762,1.96111 -2.56588,2.28698c-1.61175,0.82789 -3.60222,0.77505 -5.03488,-0.13505c-0.30826,-0.1967 -1.57652,-1.32111 -2.81836,-2.50129c-1.24184,-1.17725 -2.72735,-2.49542 -3.30276,-2.92698c-3.58754,-2.69212 -8.35526,-3.88405 -13.45767,-3.37029M1450.67346,646.21239c1.53542,0.17615 2.75671,0.52844 4.04552,1.16551c1.42679,0.70753 2.44258,1.51193 5.04956,4.00148c2.80074,2.67451 4.55928,3.76368 6.6848,4.13653l0.7134,0.12624l-0.45505,0.15853c-1.60294,0.55486 -4.84699,0.71633 -6.81984,0.34055c-2.83597,-0.53725 -4.55928,-1.53542 -7.40406,-4.28625c-3.33799,-3.22937 -4.55048,-4.07488 -6.75232,-4.71488c-0.41982,-0.1233 -0.88074,-0.22312 -1.02753,-0.22312c-0.55486,0 -0.22899,-0.22606 0.58716,-0.40807c1.81138,-0.4022 3.60515,-0.49908 5.37837,-0.29651M1434.69688,659.43813c-5.83635,0.67817 -10.04921,3.56111 -12.55638,8.59012c-0.66349,1.33285 -1.52661,3.81946 -1.61469,4.66497c-0.24367,2.25175 2.08148,3.90754 4.13947,2.95047c0.41688,-0.1967 0.80441,-0.52257 1.28,-1.08624c1.86423,-2.20184 3.24992,-2.94166 5.31672,-2.83304c1.69689,0.08807 2.09615,0.33468 4.98791,3.06203c2.44258,2.3046 3.26166,2.99744 4.45653,3.76075c1.7967,1.14789 4.28919,2.10203 6.49691,2.48955c1.46202,0.25541 4.31855,0.34642 5.78938,0.18495c4.18644,-0.45798 7.2015,-1.80551 9.77618,-4.35965c1.86716,-1.84955 3.12662,-3.98093 4.13066,-6.98131c0.62239,-1.86129 0.6811,-2.53652 0.29651,-3.3791c-0.52551,-1.15083 -1.45028,-1.75854 -2.67157,-1.75854c-0.89835,0 -1.57652,0.31413 -2.22827,1.03046c-1.34753,1.47964 -2.24001,2.26937 -2.97102,2.62753c-1.04514,0.5167 -2.08441,0.6811 -3.14423,0.49908c-1.45615,-0.24954 -1.95817,-0.59303 -4.57396,-3.13542c-2.01102,-1.9523 -2.88882,-2.69506 -4.19818,-3.54937c-1.94643,-1.27413 -4.11011,-2.13138 -6.48516,-2.57762c-0.96,-0.17908 -5.22864,-0.31707 -6.22681,-0.19963M1440.82681,665.62384c1.39156,0.36697 2.80074,1.05688 3.96332,1.94056c0.47853,0.36697 1.7468,1.50313 2.81836,2.52478c3.00625,2.87414 4.52699,3.88699 6.58204,4.37726c0.48441,0.11743 0.92477,0.24661 0.97762,0.29064c0.05284,0.04404 -0.26422,0.1644 -0.70459,0.27009c-3.25286,0.77798 -6.8492,0.47266 -9.49141,-0.81028c-1.20661,-0.58422 -2.55707,-1.66166 -4.92626,-3.92515c-2.84478,-2.72148 -4.22167,-3.61689 -6.3736,-4.14827l-1.01285,-0.25248l0.37872,-0.15266c0.85138,-0.34936 2.27817,-0.49321 4.47708,-0.45211c1.87597,0.03229 2.32808,0.07927 3.31157,0.33762" className="SFSymbolsPreviewWireframe"/></g>
  <g id="Ultralight-S"><path d="M556.42389,640.35549c-3.93983,0.39633 -7.17507,1.85836 -9.69398,4.3802c-1.20661,1.20955 -2.39267,2.9123 -3.11781,4.47708c-0.66642,1.44441 -1.41212,3.71671 -1.48551,4.53873c-0.05578,0.5989 -0.01761,0.76918 0.30826,1.41505c0.42863,0.85725 0.96588,1.30936 1.86716,1.57065c1.06863,0.31119 2.1079,-0.02642 2.95928,-0.96294c1.34753,-1.47964 2.24001,-2.26937 2.96808,-2.62753c1.56478,-0.76918 3.3879,-0.73688 4.78828,0.09101c0.4345,0.25541 1.48551,1.15377 2.56882,2.19597c3.12368,3.00625 4.47708,4.03965 6.59966,5.03488c5.07305,2.37799 11.76371,2.36038 16.57254,-0.04697c2.13432,-1.06569 4.15414,-2.88001 5.58975,-5.0114c1.10973,-1.64991 2.53065,-5.12002 2.68331,-6.55562c0.12624,-1.15377 -0.47266,-2.3046 -1.49432,-2.87708c-0.42863,-0.24073 -0.67817,-0.29358 -1.40331,-0.29064c-1.14202,0.00294 -1.64404,0.26422 -2.53065,1.31523c-0.81028,0.95707 -1.93762,1.96111 -2.56588,2.28698c-1.61175,0.82789 -3.60222,0.77505 -5.03488,-0.13505c-0.30826,-0.1967 -1.57652,-1.32111 -2.81836,-2.50129c-1.24184,-1.17725 -2.72735,-2.49542 -3.30276,-2.92698c-3.58754,-2.69212 -8.35526,-3.88405 -13.45767,-3.37029M560.53987,646.21239c1.53542,0.17615 2.75671,0.52844 4.04552,1.16551c1.42679,0.70753 2.44258,1.51193 5.04956,4.00148c2.80074,2.67451 4.55928,3.76368 6.6848,4.13653l0.7134,0.12624l-0.45505,0.15853c-1.60294,0.55486 -4.84699,0.71633 -6.81984,0.34055c-2.83597,-0.53725 -4.55928,-1.53542 -7.40406,-4.28625c-3.33799,-3.22937 -4.55048,-4.07488 -6.75232,-4.71488c-0.41982,-0.1233 -0.88074,-0.22312 -1.02753,-0.22312c-0.55486,0 -0.22899,-0.22606 0.58716,-0.40807c1.81138,-0.4022 3.60515,-0.49908 5.37837,-0.29651M544.56329,659.43813c-5.83635,0.67817 -10.04921,3.56111 -12.55638,8.59012c-0.66349,1.33285 -1.52661,3.81946 -1.61469,4.66497c-0.24367,2.25175 2.08148,3.90754 4.13947,2.95047c0.41688,-0.1967 0.80441,-0.52257 1.28,-1.08624c1.86423,-2.20184 3.24992,-2.94166 5.31672,-2.83304c1.69689,0.08807 2.09615,0.33468 4.98791,3.06203c2.44258,2.3046 3.26166,2.99744 4.45653,3.76075c1.7967,1.14789 4.28919,2.10203 6.49691,2.48955c1.46202,0.25541 4.31855,0.34642 5.78938,0.18495c4.18644,-0.45798 7.2015,-1.80551 9.77618,-4.35965c1.86716,-1.84955 3.12662,-3.98093 4.13066,-6.98131c0.62239,-1.86129 0.6811,-2.53652 0.29651,-3.3791c-0.52551,-1.15083 -1.45028,-1.75854 -2.67157,-1.75854c-0.89835,0 -1.57652,0.31413 -2.22827,1.03046c-1.34753,1.47964 -2.24001,2.26937 -2.97102,2.62753c-1.04514,0.5167 -2.08441,0.6811 -3.14423,0.49908c-1.45615,-0.24954 -1.95817,-0.59303 -4.57396,-3.13542c-2.01102,-1.9523 -2.88882,-2.69506 -4.19818,-3.54937c-1.94643,-1.27413 -4.11011,-2.13138 -6.48516,-2.57762c-0.96,-0.17908 -5.22864,-0.31707 -6.22681,-0.19963M550.69322,665.62384c1.39156,0.36697 2.80074,1.05688 3.96332,1.94056c0.47853,0.36697 1.7468,1.50313 2.81836,2.52478c3.00625,2.87414 4.52699,3.88699 6.58204,4.37726c0.48441,0.11743 0.92477,0.24661 0.97762,0.29064c0.05284,0.04404 -0.26422,0.1644 -0.70459,0.27009c-3.25286,0.77798 -6.8492,0.47266 -9.49141,-0.81028c-1.20661,-0.58422 -2.55707,-1.66166 -4.92626,-3.92515c-2.84478,-2.72148 -4.22167,-3.61689 -6.3736,-4.14827l-1.01285,-0.25248l0.37872,-0.15266c0.85138,-0.34936 2.27817,-0.49321 4.47708,-0.45211c1.87597,0.03229 2.32808,0.07927 3.31157,0.33762" className="SFSymbolsPreviewWireframe"/></g>
 </g>
</svg>