<?xml version="1.0" encoding="UTF-8"?><!--Generator: https://SymbolKit.app--><!DOCTYPE svg PUBLIC "-//W3C//DTD SVG 1.1//EN" "http://www.w3.org/Graphics/SVG/1.1/DTD/svg11.dtd"><svg xmlns="http://www.w3.org/2000/svg" xmlns:xlink="http://www.w3.org/1999/xlink" version="1.1" viewBox="0 0 3300 2200">
 <!--glyph: "100092", point size: 100.0, font version: "20.0d10e1", template writer version: "138.0.0"-->
 <style>.SFSymbolsPreviewWireframe {fill:none;opacity:1.0;stroke:black;stroke-width:0.5}
</style>
 <g id="Notes">
  <rect height="2200" id="artboard" style="fill:white;opacity:1" width="3300" x="0" y="0"/>
  <line style="fill:none;stroke:black;opacity:1;stroke-width:0.5;" x1="263" x2="3036" y1="292" y2="292"/>
  <text style="stroke:none;fill:black;font-family:sans-serif;font-size:13;font-weight:bold;" transform="matrix(1 0 0 1 263 322)">Weight/Scale Variations</text>
  <text style="stroke:none;fill:black;font-family:sans-serif;font-size:13;text-anchor:middle;" transform="matrix(1 0 0 1 559.711 322)">Ultralight</text>
  <text style="stroke:none;fill:black;font-family:sans-serif;font-size:13;text-anchor:middle;" transform="matrix(1 0 0 1 856.422 322)">Thin</text>
  <text style="stroke:none;fill:black;font-family:sans-serif;font-size:13;text-anchor:middle;" transform="matrix(1 0 0 1 1153.13 322)">Light</text>
  <text style="stroke:none;fill:black;font-family:sans-serif;font-size:13;text-anchor:middle;" transform="matrix(1 0 0 1 1449.84 322)">Regular</text>
  <text style="stroke:none;fill:black;font-family:sans-serif;font-size:13;text-anchor:middle;" transform="matrix(1 0 0 1 1746.56 322)">Medium</text>
  <text style="stroke:none;fill:black;font-family:sans-serif;font-size:13;text-anchor:middle;" transform="matrix(1 0 0 1 2043.27 322)">Semibold</text>
  <text style="stroke:none;fill:black;font-family:sans-serif;font-size:13;text-anchor:middle;" transform="matrix(1 0 0 1 2339.98 322)">Bold</text>
  <text style="stroke:none;fill:black;font-family:sans-serif;font-size:13;text-anchor:middle;" transform="matrix(1 0 0 1 2636.69 322)">Heavy</text>
  <text style="stroke:none;fill:black;font-family:sans-serif;font-size:13;text-anchor:middle;" transform="matrix(1 0 0 1 2933.4 322)">Black</text>
  <line style="fill:none;stroke:black;opacity:1;stroke-width:0.5;" x1="263" x2="3036" y1="1903" y2="1903"/>
  <g transform="matrix(0.2 0 0 0.2 263 1933)">
   <path d="m46.2402 4.15039c21.7773 0 39.4531-17.627 39.4531-39.4043s-17.6758-39.4043-39.4531-39.4043c-21.7285 0-39.4043 17.627-39.4043 39.4043s17.6758 39.4043 39.4043 39.4043Zm0-7.42188c-17.6758 0-31.9336-14.3066-31.9336-31.9824s14.2578-31.9824 31.9336-31.9824 31.9824 14.3066 31.9824 31.9824-14.3066 31.9824-31.9824 31.9824Zm-17.9688-31.9824c0 2.14844 1.51367 3.61328 3.75977 3.61328h10.498v10.5957c0 2.19727 1.46484 3.71094 3.61328 3.71094 2.24609 0 3.71094-1.51367 3.71094-3.71094v-10.5957h10.5957c2.19727 0 3.71094-1.46484 3.71094-3.61328 0-2.19727-1.51367-3.71094-3.71094-3.71094h-10.5957v-10.5469c0-2.24609-1.46484-3.75977-3.71094-3.75977-2.14844 0-3.61328 1.51367-3.61328 3.75977v10.5469h-10.498c-2.24609 0-3.75977 1.51367-3.75977 3.71094Z"/>
  </g>
  <g transform="matrix(0.2 0 0 0.2 281.506 1933)">
   <path d="m58.5449 14.5508c27.4902 0 49.8047-22.3145 49.8047-49.8047s-22.3145-49.8047-49.8047-49.8047-49.8047 22.3145-49.8047 49.8047 22.3145 49.8047 49.8047 49.8047Zm0-8.30078c-22.9492 0-41.5039-18.5547-41.5039-41.5039s18.5547-41.5039 41.5039-41.5039 41.5039 18.5547 41.5039 41.5039-18.5547 41.5039-41.5039 41.5039Zm-22.6562-41.5039c0 2.39258 1.66016 4.00391 4.15039 4.00391h14.3555v14.4043c0 2.44141 1.66016 4.15039 4.05273 4.15039 2.44141 0 4.15039-1.66016 4.15039-4.15039v-14.4043h14.4043c2.44141 0 4.15039-1.61133 4.15039-4.00391 0-2.44141-1.70898-4.15039-4.15039-4.15039h-14.4043v-14.3555c0-2.49023-1.70898-4.19922-4.15039-4.19922-2.39258 0-4.05273 1.70898-4.05273 4.19922v14.3555h-14.3555c-2.49023 0-4.15039 1.70898-4.15039 4.15039Z"/>
  </g>
  <g transform="matrix(0.2 0 0 0.2 304.924 1933)">
   <path d="m74.8535 28.3203c35.1074 0 63.623-28.4668 63.623-63.5742s-28.5156-63.623-63.623-63.623-63.5742 28.5156-63.5742 63.623 28.4668 63.5742 63.5742 63.5742Zm0-9.08203c-30.127 0-54.4922-24.3652-54.4922-54.4922s24.3652-54.4922 54.4922-54.4922 54.4922 24.3652 54.4922 54.4922-24.3652 54.4922-54.4922 54.4922Zm-28.8574-54.4922c0 2.58789 1.85547 4.39453 4.58984 4.39453h19.7266v19.7754c0 2.68555 1.85547 4.58984 4.44336 4.58984 2.68555 0 4.54102-1.85547 4.54102-4.58984v-19.7754h19.7754c2.68555 0 4.58984-1.80664 4.58984-4.39453 0-2.73438-1.85547-4.58984-4.58984-4.58984h-19.7754v-19.7266c0-2.73438-1.85547-4.63867-4.54102-4.63867-2.58789 0-4.44336 1.9043-4.44336 4.63867v19.7266h-19.7266c-2.73438 0-4.58984 1.85547-4.58984 4.58984Z"/>
  </g>
  <text style="stroke:none;fill:black;font-family:sans-serif;font-size:13;font-weight:bold;" transform="matrix(1 0 0 1 263 1953)">Design Variations</text>
  <text style="stroke:none;fill:black;font-family:sans-serif;font-size:13;" transform="matrix(1 0 0 1 263 1971)">Symbols are supported in up to nine weights and three scales.</text>
  <text style="stroke:none;fill:black;font-family:sans-serif;font-size:13;" transform="matrix(1 0 0 1 263 1989)">For optimal layout with text and other symbols, vertically align</text>
  <text style="stroke:none;fill:black;font-family:sans-serif;font-size:13;" transform="matrix(1 0 0 1 263 2007)">symbols with the adjacent text.</text>
  <line style="fill:none;stroke:#00AEEF;stroke-width:0.5;opacity:1.0;" x1="776" x2="776" y1="1919" y2="1933"/>
  <g transform="matrix(0.2 0 0 0.2 776 1933)">
   <path d="m16.5527 0.78125c2.58789 0 3.85742-0.976562 4.78516-3.71094l6.29883-17.2363h28.8086l6.29883 17.2363c0.927734 2.73438 2.19727 3.71094 4.73633 3.71094 2.58789 0 4.24805-1.5625 4.24805-4.00391 0-0.830078-0.146484-1.61133-0.537109-2.63672l-22.9004-60.9863c-1.12305-2.97852-3.125-4.49219-6.25-4.49219-3.02734 0-5.07812 1.46484-6.15234 4.44336l-22.9004 61.084c-0.390625 1.02539-0.537109 1.80664-0.537109 2.63672 0 2.44141 1.5625 3.95508 4.10156 3.95508Zm13.4766-28.3691 11.8652-32.8613h0.244141l11.8652 32.8613Z"/>
  </g>
  <line style="fill:none;stroke:#00AEEF;stroke-width:0.5;opacity:1.0;" x1="792.836" x2="792.836" y1="1919" y2="1933"/>
  <text style="stroke:none;fill:black;font-family:sans-serif;font-size:13;font-weight:bold;" transform="matrix(1 0 0 1 776 1953)">Margins</text>
  <text style="stroke:none;fill:black;font-family:sans-serif;font-size:13;" transform="matrix(1 0 0 1 776 1971)">Leading and trailing margins on the left and right side of each symbol</text>
  <text style="stroke:none;fill:black;font-family:sans-serif;font-size:13;" transform="matrix(1 0 0 1 776 1989)">can be adjusted by modifying the x-location of the margin guidelines.</text>
  <text style="stroke:none;fill:black;font-family:sans-serif;font-size:13;" transform="matrix(1 0 0 1 776 2007)">Modifications are automatically applied proportionally to all</text>
  <text style="stroke:none;fill:black;font-family:sans-serif;font-size:13;" transform="matrix(1 0 0 1 776 2025)">scales and weights.</text>
  <g transform="matrix(0.2 0 0 0.2 1289 1933)">
   <path d="m14.209 9.32617 8.49609 8.54492c4.29688 4.3457 9.22852 4.05273 13.8672-1.07422l53.4668-58.9355-4.83398-4.88281-53.0762 58.3984c-1.75781 2.00195-3.41797 2.49023-5.76172 0.146484l-5.85938-5.81055c-2.34375-2.29492-1.80664-4.00391 0.195312-5.81055l57.373-54.0039-4.88281-4.83398-57.959 54.4434c-4.93164 4.58984-5.32227 9.47266-1.02539 13.8184Zm32.0801-90.9668c-2.09961 2.05078-2.24609 4.93164-1.07422 6.88477 1.17188 1.80664 3.4668 2.97852 6.68945 2.14844 7.32422-1.70898 14.9414-2.00195 22.0703 2.68555l-2.92969 7.27539c-1.70898 4.15039-0.830078 7.08008 1.85547 9.81445l11.4746 11.5723c2.44141 2.44141 4.49219 2.53906 7.32422 2.05078l5.32227-0.976562 3.32031 3.36914-0.195312 2.7832c-0.195312 2.49023 0.439453 4.39453 2.88086 6.78711l3.80859 3.71094c2.39258 2.39258 5.46875 2.53906 7.8125 0.195312l14.5508-14.5996c2.34375-2.34375 2.24609-5.32227-0.146484-7.71484l-3.85742-3.80859c-2.39258-2.39258-4.24805-3.17383-6.64062-2.97852l-2.88086 0.244141-3.22266-3.17383 1.2207-5.61523c0.634766-2.83203-0.146484-5.0293-3.07617-7.95898l-10.9863-10.9375c-16.6992-16.6016-38.8672-16.2109-53.3203-1.75781Zm7.4707 1.85547c12.1582-8.88672 28.6133-7.37305 39.7461 3.75977l12.1582 12.0605c1.17188 1.17188 1.36719 2.09961 1.02539 3.80859l-1.61133 7.42188 7.51953 7.42188 4.93164-0.292969c1.26953-0.0488281 1.66016 0.0488281 2.63672 1.02539l2.88086 2.88086-12.207 12.207-2.88086-2.88086c-0.976562-0.976562-1.12305-1.36719-1.07422-2.68555l0.341797-4.88281-7.4707-7.42188-7.61719 1.26953c-1.61133 0.341797-2.34375 0.195312-3.56445-0.976562l-10.0098-10.0098c-1.26953-1.17188-1.41602-2.00195-0.634766-3.85742l4.39453-10.4492c-7.8125-7.27539-17.9688-10.4004-28.125-7.42188-0.78125 0.195312-1.07422-0.439453-0.439453-0.976562Z"/>
  </g>
  <text style="stroke:none;fill:black;font-family:sans-serif;font-size:13;font-weight:bold;" transform="matrix(1 0 0 1 1289 1953)">Exporting</text>
  <text style="stroke:none;fill:black;font-family:sans-serif;font-size:13;" transform="matrix(1 0 0 1 1289 1971)">Symbols should be outlined when exporting to ensure the</text>
  <text style="stroke:none;fill:black;font-family:sans-serif;font-size:13;" transform="matrix(1 0 0 1 1289 1989)">design is preserved when submitting to Xcode.</text>
  <text id="template-version" style="stroke:none;fill:black;font-family:sans-serif;font-size:13;text-anchor:end;" transform="matrix(1 0 0 1 3036 1933)">Template v.6.0</text>
  <text style="stroke:none;fill:black;font-family:sans-serif;font-size:13;text-anchor:end;" transform="matrix(1 0 0 1 3036 1951)">Requires Xcode 16 or greater</text>
  <text id="descriptive-name" style="stroke:none;fill:black;font-family:sans-serif;font-size:13;text-anchor:end;" transform="matrix(1 0 0 1 3036 1969)">Generated from square</text>
  <text style="stroke:none;fill:black;font-family:sans-serif;font-size:13;text-anchor:end;" transform="matrix(1 0 0 1 3036 1987)">Typeset at 100.0 points</text>
  <text style="stroke:none;fill:black;font-family:sans-serif;font-size:13;" transform="matrix(1 0 0 1 263 726)">Small</text>
  <text style="stroke:none;fill:black;font-family:sans-serif;font-size:13;" transform="matrix(1 0 0 1 263 1156)">Medium</text>
  <text style="stroke:none;fill:black;font-family:sans-serif;font-size:13;" transform="matrix(1 0 0 1 263 1586)">Large</text>
 </g>
 <g id="Guides">
  <g id="H-reference" style="fill:#27AAE1;stroke:none;" transform="matrix(1 0 0 1 339 696)">
   <path d="M0.993654 0L3.63775 0L29.3281-67.1323L30.0303-67.1323L30.0303-70.459L28.1226-70.459ZM11.6885-24.4799L46.9815-24.4799L46.2315-26.7285L12.4385-26.7285ZM55.1196 0L57.7637 0L30.6382-70.459L29.4326-70.459L29.4326-67.1323Z"/>
  </g>
  <line id="Baseline-S" style="fill:none;stroke:#27AAE1;opacity:1;stroke-width:0.5;" x1="263" x2="3036" y1="696" y2="696"/>
  <line id="Capline-S" style="fill:none;stroke:#27AAE1;opacity:1;stroke-width:0.5;" x1="263" x2="3036" y1="625.541" y2="625.541"/>
  <g id="H-reference" style="fill:#27AAE1;stroke:none;" transform="matrix(1 0 0 1 339 1126)">
   <path d="M0.993654 0L3.63775 0L29.3281-67.1323L30.0303-67.1323L30.0303-70.459L28.1226-70.459ZM11.6885-24.4799L46.9815-24.4799L46.2315-26.7285L12.4385-26.7285ZM55.1196 0L57.7637 0L30.6382-70.459L29.4326-70.459L29.4326-67.1323Z"/>
  </g>
  <line id="Baseline-M" style="fill:none;stroke:#27AAE1;opacity:1;stroke-width:0.5;" x1="263" x2="3036" y1="1126" y2="1126"/>
  <line id="Capline-M" style="fill:none;stroke:#27AAE1;opacity:1;stroke-width:0.5;" x1="263" x2="3036" y1="1055.54" y2="1055.54"/>
  <g id="H-reference" style="fill:#27AAE1;stroke:none;" transform="matrix(1 0 0 1 339 1556)">
   <path d="M0.993654 0L3.63775 0L29.3281-67.1323L30.0303-67.1323L30.0303-70.459L28.1226-70.459ZM11.6885-24.4799L46.9815-24.4799L46.2315-26.7285L12.4385-26.7285ZM55.1196 0L57.7637 0L30.6382-70.459L29.4326-70.459L29.4326-67.1323Z"/>
  </g>
  <line id="Baseline-L" style="fill:none;stroke:#27AAE1;opacity:1;stroke-width:0.5;" x1="263" x2="3036" y1="1556" y2="1556"/>
  <line id="Capline-L" style="fill:none;stroke:#27AAE1;opacity:1;stroke-width:0.5;" x1="263" x2="3036" y1="1485.54" y2="1485.54"/>
  <line id="right-margin-Black-S" style="fill:none;stroke:#00AEEF;stroke-width:0.5;opacity:1.0;" x1="2981.3" x2="2981.3" y1="600.785" y2="720.121"/>
  <line id="left-margin-Black-S" style="fill:none;stroke:#00AEEF;stroke-width:0.5;opacity:1.0;" x1="2885.5" x2="2885.5" y1="600.785" y2="720.121"/>
  <line id="right-margin-Regular-S" style="fill:none;stroke:#00AEEF;stroke-width:0.5;opacity:1.0;" x1="1495.18" x2="1495.18" y1="600.785" y2="720.121"/>
  <line id="left-margin-Regular-S" style="fill:none;stroke:#00AEEF;stroke-width:0.5;opacity:1.0;" x1="1404.51" x2="1404.51" y1="600.785" y2="720.121"/>
  <line id="right-margin-Ultralight-S" style="fill:none;stroke:#00AEEF;stroke-width:0.5;opacity:1.0;" x1="603.073" x2="603.073" y1="600.785" y2="720.121"/>
  <line id="left-margin-Ultralight-S" style="fill:none;stroke:#00AEEF;stroke-width:0.5;opacity:1.0;" x1="516.35" x2="516.35" y1="600.785" y2="720.121"/>
 </g>
 <g id="Symbols">
  <g id="Black-S"><path d="M2907.03138,632.98502c-1.96698,0.35523 -3.74607,1.60588 -4.72369,3.32332c-0.7545,1.32111 -1.189,3.2646 -1.189,5.31965c0,2.9123 1.11854,14.61437 1.59707,16.71933c0.88954,3.88992 3.32038,7.01654 6.67892,8.58719l0.77211,0.3611l-0.39046,0.4345c-1.76147,1.94643 -2.66863,4.78534 -2.33395,7.2925c0.4433,3.34387 2.15193,6.19745 5.49286,9.18315c2.92992,2.61873 4.89103,3.76956 7.26315,4.25983c2.59524,0.53431 5.31672,-0.22606 7.72113,-2.16074c1.85248,-1.48845 3.29689,-3.29689 4.90864,-6.14461c0.28184,-0.50202 0.54606,-0.9101 0.58422,-0.9101c0.03817,0 0.30239,0.41101 0.58422,0.9101c1.61175,2.84772 3.05616,4.65616 4.90864,6.14461c2.40441,1.93469 5.12589,2.69506 7.72113,2.16074c2.38973,-0.49615 4.34203,-1.64404 7.3248,-4.31561c3.27928,-2.93873 4.99084,-5.81287 5.43121,-9.12737c0.33468,-2.50717 -0.57248,-5.34608 -2.33395,-7.2925l-0.39046,-0.4345l0.77211,-0.3611c2.40735,-1.12441 4.36259,-3.05909 5.57213,-5.51635c1.17138,-2.37505 1.53835,-4.56516 2.35157,-14.10941c0.48441,-5.66608 0.4433,-7.53324 -0.19963,-9.51196c-0.75156,-2.30753 -2.33689,-3.91341 -4.55635,-4.61213c-1.43854,-0.45211 -3.74901,-0.34055 -5.80699,0.2789c-5.19048,1.56771 -10.91821,6.2503 -16.93658,13.84519c-1.46496,1.84955 -2.90056,3.79598 -3.79304,5.13763c-0.31119,0.46973 -0.60184,0.85138 -0.64881,0.85138c-0.04404,0 -0.37285,-0.4345 -0.72808,-0.96881c-2.44258,-3.6668 -6.127,-8.14095 -9.30352,-11.3028c-4.43304,-4.41249 -8.61948,-7.03416 -12.56225,-7.87673c-1.03633,-0.22018 -3.00625,-0.30532 -3.78717,-0.1644M2910.39579,639.09146c2.80955,0.90716 5.51048,2.79781 9.04811,6.3325c4.03084,4.02791 8.35233,9.69985 10.78903,14.15638c0.48734,0.88954 1.00991,1.68221 1.25358,1.90239c1.34753,1.1978 3.56405,0.84844 4.42717,-0.70165c1.95524,-3.5024 2.93286,-5.02607 5.07305,-7.90315c2.07267,-2.78313 4.16002,-5.21984 6.39415,-7.45691c2.9035,-2.9035 4.91451,-4.45653 7.22792,-5.57213c2.01689,-0.97175 3.83708,-1.35634 4.46827,-0.94239c0.58716,0.38165 0.69578,0.86606 0.68404,3.00038c-0.01468,2.5101 -0.70753,10.50132 -1.22129,14.0918c-0.19963,1.40331 -0.28477,1.70863 -0.7545,2.65396c-1.17138,2.37505 -3.2646,3.59047 -6.7347,3.91928c-1.33578,0.12624 -2.02863,0.09688 -4.50644,-0.1967c-1.33872,-0.1556 -1.69395,-0.1644 -2.14019,-0.03817c-2.03157,0.56661 -2.8213,2.96808 -1.53542,4.65616c0.4756,0.62239 1.15377,0.93065 2.78019,1.26826c3.74607,0.77211 6.37067,2.17542 7.42168,3.96919c1.0334,1.76735 0.32587,4.09836 -1.98166,6.53507c-1.64111,1.72918 -3.7079,3.30276 -4.97617,3.7813c-1.29762,0.48734 -2.58643,0.08514 -4.00735,-1.25652c-1.509,-1.42386 -2.53946,-2.9857 -4.17469,-6.32663c-1.2389,-2.53065 -1.44147,-3.05322 -1.58826,-4.08369c-0.07046,-0.49615 -0.23486,-1.03927 -0.40514,-1.32991c-0.85725,-1.45909 -2.89175,-1.86716 -4.27158,-0.85432c-0.6723,0.49615 -1.04221,1.17725 -1.18312,2.18423c-0.14679,1.02753 -0.32881,1.49725 -1.57946,4.0602c-1.63817,3.35561 -2.66863,4.92332 -4.1835,6.35012c-1.42092,1.34166 -2.70974,1.74386 -4.00735,1.25652c-1.26826,-0.47853 -3.33506,-2.05212 -4.97617,-3.7813c-2.31634,-2.44258 -3.01799,-4.76479 -1.98166,-6.53507c1.05101,-1.79377 3.67561,-3.19708 7.42168,-3.96919c1.62643,-0.33762 2.3046,-0.64587 2.78019,-1.26826c1.28588,-1.68808 0.49615,-4.08956 -1.53542,-4.65616c-0.44624,-0.12624 -0.80147,-0.11743 -2.14019,0.0411c-2.57469,0.30239 -3.10607,0.32587 -4.50644,0.1967c-3.46423,-0.32294 -5.56039,-1.54129 -6.7347,-3.92222c-0.62239,-1.25945 -0.80147,-2.26643 -1.28294,-7.28663c-0.54019,-5.63672 -0.67817,-7.50975 -0.69285,-9.4004c-0.01761,-2.0756 0.08807,-2.5923 0.61064,-3.00625c0.27596,-0.22018 0.41395,-0.24073 1.13615,-0.18202c0.45211,0.03817 1.16551,0.17908 1.58533,0.31413" className="SFSymbolsPreviewWireframe"/></g>
  <g id="Regular-S"><path d="M1423.47633,632.98502c-1.96698,0.35523 -3.74607,1.60588 -4.72369,3.32332c-0.7545,1.32111 -1.189,3.2646 -1.189,5.31965c0,2.9123 1.11854,14.61437 1.59707,16.71933c0.88954,3.88992 3.32038,7.01654 6.67892,8.58719l0.77211,0.3611l-0.39046,0.4345c-1.76147,1.94643 -2.66863,4.78534 -2.33395,7.2925c0.4433,3.34387 2.15193,6.19745 5.49286,9.18315c2.92992,2.61873 4.89103,3.76956 7.26315,4.25983c2.59524,0.53431 5.31672,-0.22606 7.72113,-2.16074c1.85248,-1.48845 3.29689,-3.29689 4.90864,-6.14461c0.28184,-0.50202 0.54606,-0.9101 0.58422,-0.9101c0.03817,0 0.30239,0.41101 0.58422,0.9101c1.61175,2.84772 3.05616,4.65616 4.90864,6.14461c2.40441,1.93469 5.12589,2.69506 7.72113,2.16074c2.38973,-0.49615 4.34203,-1.64404 7.3248,-4.31561c3.27928,-2.93873 4.99084,-5.81287 5.43121,-9.12737c0.33468,-2.50717 -0.57248,-5.34608 -2.33395,-7.2925l-0.39046,-0.4345l0.77211,-0.3611c2.40735,-1.12441 4.36259,-3.05909 5.57213,-5.51635c1.17138,-2.37505 1.53835,-4.56516 2.35157,-14.10941c0.48441,-5.66608 0.4433,-7.53324 -0.19963,-9.51196c-0.75156,-2.30753 -2.33689,-3.91341 -4.55635,-4.61213c-1.43854,-0.45211 -3.74901,-0.34055 -5.80699,0.2789c-5.19048,1.56771 -10.91821,6.2503 -16.93658,13.84519c-1.46496,1.84955 -2.90056,3.79598 -3.79304,5.13763c-0.31119,0.46973 -0.60184,0.85138 -0.64881,0.85138c-0.04404,0 -0.37285,-0.4345 -0.72808,-0.96881c-2.44258,-3.6668 -6.127,-8.14095 -9.30352,-11.3028c-4.43304,-4.41249 -8.61948,-7.03416 -12.56225,-7.87673c-1.03633,-0.22018 -3.00625,-0.30532 -3.78717,-0.1644M1426.84074,639.09146c2.80955,0.90716 5.51048,2.79781 9.04811,6.3325c4.03084,4.02791 8.35233,9.69985 10.78903,14.15638c0.48734,0.88954 1.00991,1.68221 1.25358,1.90239c1.34753,1.1978 3.56405,0.84844 4.42717,-0.70165c1.95524,-3.5024 2.93286,-5.02607 5.07305,-7.90315c2.07267,-2.78313 4.16002,-5.21984 6.39415,-7.45691c2.9035,-2.9035 4.91451,-4.45653 7.22792,-5.57213c2.01689,-0.97175 3.83708,-1.35634 4.46827,-0.94239c0.58716,0.38165 0.69578,0.86606 0.68404,3.00038c-0.01468,2.5101 -0.70753,10.50132 -1.22129,14.0918c-0.19963,1.40331 -0.28477,1.70863 -0.7545,2.65396c-1.17138,2.37505 -3.2646,3.59047 -6.7347,3.91928c-1.33578,0.12624 -2.02863,0.09688 -4.50644,-0.1967c-1.33872,-0.1556 -1.69395,-0.1644 -2.14019,-0.03817c-2.03157,0.56661 -2.8213,2.96808 -1.53542,4.65616c0.4756,0.62239 1.15377,0.93065 2.78019,1.26826c3.74607,0.77211 6.37067,2.17542 7.42168,3.96919c1.0334,1.76735 0.32587,4.09836 -1.98166,6.53507c-1.64111,1.72918 -3.7079,3.30276 -4.97617,3.7813c-1.29762,0.48734 -2.58643,0.08514 -4.00735,-1.25652c-1.509,-1.42386 -2.53946,-2.9857 -4.17469,-6.32663c-1.2389,-2.53065 -1.44147,-3.05322 -1.58826,-4.08369c-0.07046,-0.49615 -0.23486,-1.03927 -0.40514,-1.32991c-0.85725,-1.45909 -2.89175,-1.86716 -4.27158,-0.85432c-0.6723,0.49615 -1.04221,1.17725 -1.18312,2.18423c-0.14679,1.02753 -0.32881,1.49725 -1.57946,4.0602c-1.63817,3.35561 -2.66863,4.92332 -4.1835,6.35012c-1.42092,1.34166 -2.70974,1.74386 -4.00735,1.25652c-1.26826,-0.47853 -3.33506,-2.05212 -4.97617,-3.7813c-2.31634,-2.44258 -3.01799,-4.76479 -1.98166,-6.53507c1.05101,-1.79377 3.67561,-3.19708 7.42168,-3.96919c1.62643,-0.33762 2.3046,-0.64587 2.78019,-1.26826c1.28588,-1.68808 0.49615,-4.08956 -1.53542,-4.65616c-0.44624,-0.12624 -0.80147,-0.11743 -2.14019,0.0411c-2.57469,0.30239 -3.10607,0.32587 -4.50644,0.1967c-3.46423,-0.32294 -5.56039,-1.54129 -6.7347,-3.92222c-0.62239,-1.25945 -0.80147,-2.26643 -1.28294,-7.28663c-0.54019,-5.63672 -0.67817,-7.50975 -0.69285,-9.4004c-0.01761,-2.0756 0.08807,-2.5923 0.61064,-3.00625c0.27596,-0.22018 0.41395,-0.24073 1.13615,-0.18202c0.45211,0.03817 1.16551,0.17908 1.58533,0.31413" className="SFSymbolsPreviewWireframe"/></g>
  <g id="Ultralight-S"><path d="M533.34274,632.98502c-1.96698,0.35523 -3.74607,1.60588 -4.72369,3.32332c-0.7545,1.32111 -1.189,3.2646 -1.189,5.31965c0,2.9123 1.11854,14.61437 1.59707,16.71933c0.88954,3.88992 3.32038,7.01654 6.67892,8.58719l0.77211,0.3611l-0.39046,0.4345c-1.76147,1.94643 -2.66863,4.78534 -2.33395,7.2925c0.4433,3.34387 2.15193,6.19745 5.49286,9.18315c2.92992,2.61873 4.89103,3.76956 7.26315,4.25983c2.59524,0.53431 5.31672,-0.22606 7.72113,-2.16074c1.85248,-1.48845 3.29689,-3.29689 4.90864,-6.14461c0.28184,-0.50202 0.54606,-0.9101 0.58422,-0.9101c0.03817,0 0.30239,0.41101 0.58422,0.9101c1.61175,2.84772 3.05616,4.65616 4.90864,6.14461c2.40441,1.93469 5.12589,2.69506 7.72113,2.16074c2.38973,-0.49615 4.34203,-1.64404 7.3248,-4.31561c3.27928,-2.93873 4.99084,-5.81287 5.43121,-9.12737c0.33468,-2.50717 -0.57248,-5.34608 -2.33395,-7.2925l-0.39046,-0.4345l0.77211,-0.3611c2.40735,-1.12441 4.36259,-3.05909 5.57213,-5.51635c1.17138,-2.37505 1.53835,-4.56516 2.35157,-14.10941c0.48441,-5.66608 0.4433,-7.53324 -0.19963,-9.51196c-0.75156,-2.30753 -2.33689,-3.91341 -4.55635,-4.61213c-1.43854,-0.45211 -3.74901,-0.34055 -5.80699,0.2789c-5.19048,1.56771 -10.91821,6.2503 -16.93658,13.84519c-1.46496,1.84955 -2.90056,3.79598 -3.79304,5.13763c-0.31119,0.46973 -0.60184,0.85138 -0.64881,0.85138c-0.04404,0 -0.37285,-0.4345 -0.72808,-0.96881c-2.44258,-3.6668 -6.127,-8.14095 -9.30352,-11.3028c-4.43304,-4.41249 -8.61948,-7.03416 -12.56225,-7.87673c-1.03633,-0.22018 -3.00625,-0.30532 -3.78717,-0.1644M536.70715,639.09146c2.80955,0.90716 5.51048,2.79781 9.04811,6.3325c4.03084,4.02791 8.35233,9.69985 10.78903,14.15638c0.48734,0.88954 1.00991,1.68221 1.25358,1.90239c1.34753,1.1978 3.56405,0.84844 4.42717,-0.70165c1.95524,-3.5024 2.93286,-5.02607 5.07305,-7.90315c2.07267,-2.78313 4.16002,-5.21984 6.39415,-7.45691c2.9035,-2.9035 4.91451,-4.45653 7.22792,-5.57213c2.01689,-0.97175 3.83708,-1.35634 4.46827,-0.94239c0.58716,0.38165 0.69578,0.86606 0.68404,3.00038c-0.01468,2.5101 -0.70753,10.50132 -1.22129,14.0918c-0.19963,1.40331 -0.28477,1.70863 -0.7545,2.65396c-1.17138,2.37505 -3.2646,3.59047 -6.7347,3.91928c-1.33578,0.12624 -2.02863,0.09688 -4.50644,-0.1967c-1.33872,-0.1556 -1.69395,-0.1644 -2.14019,-0.03817c-2.03157,0.56661 -2.8213,2.96808 -1.53542,4.65616c0.4756,0.62239 1.15377,0.93065 2.78019,1.26826c3.74607,0.77211 6.37067,2.17542 7.42168,3.96919c1.0334,1.76735 0.32587,4.09836 -1.98166,6.53507c-1.64111,1.72918 -3.7079,3.30276 -4.97617,3.7813c-1.29762,0.48734 -2.58643,0.08514 -4.00735,-1.25652c-1.509,-1.42386 -2.53946,-2.9857 -4.17469,-6.32663c-1.2389,-2.53065 -1.44147,-3.05322 -1.58826,-4.08369c-0.07046,-0.49615 -0.23486,-1.03927 -0.40514,-1.32991c-0.85725,-1.45909 -2.89175,-1.86716 -4.27158,-0.85432c-0.6723,0.49615 -1.04221,1.17725 -1.18312,2.18423c-0.14679,1.02753 -0.32881,1.49725 -1.57946,4.0602c-1.63817,3.35561 -2.66863,4.92332 -4.1835,6.35012c-1.42092,1.34166 -2.70974,1.74386 -4.00735,1.25652c-1.26826,-0.47853 -3.33506,-2.05212 -4.97617,-3.7813c-2.31634,-2.44258 -3.01799,-4.76479 -1.98166,-6.53507c1.05101,-1.79377 3.67561,-3.19708 7.42168,-3.96919c1.62643,-0.33762 2.3046,-0.64587 2.78019,-1.26826c1.28588,-1.68808 0.49615,-4.08956 -1.53542,-4.65616c-0.44624,-0.12624 -0.80147,-0.11743 -2.14019,0.0411c-2.57469,0.30239 -3.10607,0.32587 -4.50644,0.1967c-3.46423,-0.32294 -5.56039,-1.54129 -6.7347,-3.92222c-0.62239,-1.25945 -0.80147,-2.26643 -1.28294,-7.28663c-0.54019,-5.63672 -0.67817,-7.50975 -0.69285,-9.4004c-0.01761,-2.0756 0.08807,-2.5923 0.61064,-3.00625c0.27596,-0.22018 0.41395,-0.24073 1.13615,-0.18202c0.45211,0.03817 1.16551,0.17908 1.58533,0.31413" className="SFSymbolsPreviewWireframe"/></g>
 </g>
</svg>