<?xml version="1.0" encoding="UTF-8"?><!--Generator: https://SymbolKit.app--><!DOCTYPE svg PUBLIC "-//W3C//DTD SVG 1.1//EN" "http://www.w3.org/Graphics/SVG/1.1/DTD/svg11.dtd"><svg xmlns="http://www.w3.org/2000/svg" xmlns:xlink="http://www.w3.org/1999/xlink" version="1.1" viewBox="0 0 3300 2200">
 <!--glyph: "100092", point size: 100.0, font version: "20.0d10e1", template writer version: "138.0.0"-->
 <style>.SFSymbolsPreviewWireframe {fill:none;opacity:1.0;stroke:black;stroke-width:0.5}
</style>
 <g id="Notes">
  <rect height="2200" id="artboard" style="fill:white;opacity:1" width="3300" x="0" y="0"/>
  <line style="fill:none;stroke:black;opacity:1;stroke-width:0.5;" x1="263" x2="3036" y1="292" y2="292"/>
  <text style="stroke:none;fill:black;font-family:sans-serif;font-size:13;font-weight:bold;" transform="matrix(1 0 0 1 263 322)">Weight/Scale Variations</text>
  <text style="stroke:none;fill:black;font-family:sans-serif;font-size:13;text-anchor:middle;" transform="matrix(1 0 0 1 559.711 322)">Ultralight</text>
  <text style="stroke:none;fill:black;font-family:sans-serif;font-size:13;text-anchor:middle;" transform="matrix(1 0 0 1 856.422 322)">Thin</text>
  <text style="stroke:none;fill:black;font-family:sans-serif;font-size:13;text-anchor:middle;" transform="matrix(1 0 0 1 1153.13 322)">Light</text>
  <text style="stroke:none;fill:black;font-family:sans-serif;font-size:13;text-anchor:middle;" transform="matrix(1 0 0 1 1449.84 322)">Regular</text>
  <text style="stroke:none;fill:black;font-family:sans-serif;font-size:13;text-anchor:middle;" transform="matrix(1 0 0 1 1746.56 322)">Medium</text>
  <text style="stroke:none;fill:black;font-family:sans-serif;font-size:13;text-anchor:middle;" transform="matrix(1 0 0 1 2043.27 322)">Semibold</text>
  <text style="stroke:none;fill:black;font-family:sans-serif;font-size:13;text-anchor:middle;" transform="matrix(1 0 0 1 2339.98 322)">Bold</text>
  <text style="stroke:none;fill:black;font-family:sans-serif;font-size:13;text-anchor:middle;" transform="matrix(1 0 0 1 2636.69 322)">Heavy</text>
  <text style="stroke:none;fill:black;font-family:sans-serif;font-size:13;text-anchor:middle;" transform="matrix(1 0 0 1 2933.4 322)">Black</text>
  <line style="fill:none;stroke:black;opacity:1;stroke-width:0.5;" x1="263" x2="3036" y1="1903" y2="1903"/>
  <g transform="matrix(0.2 0 0 0.2 263 1933)">
   <path d="m46.2402 4.15039c21.7773 0 39.4531-17.627 39.4531-39.4043s-17.6758-39.4043-39.4531-39.4043c-21.7285 0-39.4043 17.627-39.4043 39.4043s17.6758 39.4043 39.4043 39.4043Zm0-7.42188c-17.6758 0-31.9336-14.3066-31.9336-31.9824s14.2578-31.9824 31.9336-31.9824 31.9824 14.3066 31.9824 31.9824-14.3066 31.9824-31.9824 31.9824Zm-17.9688-31.9824c0 2.14844 1.51367 3.61328 3.75977 3.61328h10.498v10.5957c0 2.19727 1.46484 3.71094 3.61328 3.71094 2.24609 0 3.71094-1.51367 3.71094-3.71094v-10.5957h10.5957c2.19727 0 3.71094-1.46484 3.71094-3.61328 0-2.19727-1.51367-3.71094-3.71094-3.71094h-10.5957v-10.5469c0-2.24609-1.46484-3.75977-3.71094-3.75977-2.14844 0-3.61328 1.51367-3.61328 3.75977v10.5469h-10.498c-2.24609 0-3.75977 1.51367-3.75977 3.71094Z"/>
  </g>
  <g transform="matrix(0.2 0 0 0.2 281.506 1933)">
   <path d="m58.5449 14.5508c27.4902 0 49.8047-22.3145 49.8047-49.8047s-22.3145-49.8047-49.8047-49.8047-49.8047 22.3145-49.8047 49.8047 22.3145 49.8047 49.8047 49.8047Zm0-8.30078c-22.9492 0-41.5039-18.5547-41.5039-41.5039s18.5547-41.5039 41.5039-41.5039 41.5039 18.5547 41.5039 41.5039-18.5547 41.5039-41.5039 41.5039Zm-22.6562-41.5039c0 2.39258 1.66016 4.00391 4.15039 4.00391h14.3555v14.4043c0 2.44141 1.66016 4.15039 4.05273 4.15039 2.44141 0 4.15039-1.66016 4.15039-4.15039v-14.4043h14.4043c2.44141 0 4.15039-1.61133 4.15039-4.00391 0-2.44141-1.70898-4.15039-4.15039-4.15039h-14.4043v-14.3555c0-2.49023-1.70898-4.19922-4.15039-4.19922-2.39258 0-4.05273 1.70898-4.05273 4.19922v14.3555h-14.3555c-2.49023 0-4.15039 1.70898-4.15039 4.15039Z"/>
  </g>
  <g transform="matrix(0.2 0 0 0.2 304.924 1933)">
   <path d="m74.8535 28.3203c35.1074 0 63.623-28.4668 63.623-63.5742s-28.5156-63.623-63.623-63.623-63.5742 28.5156-63.5742 63.623 28.4668 63.5742 63.5742 63.5742Zm0-9.08203c-30.127 0-54.4922-24.3652-54.4922-54.4922s24.3652-54.4922 54.4922-54.4922 54.4922 24.3652 54.4922 54.4922-24.3652 54.4922-54.4922 54.4922Zm-28.8574-54.4922c0 2.58789 1.85547 4.39453 4.58984 4.39453h19.7266v19.7754c0 2.68555 1.85547 4.58984 4.44336 4.58984 2.68555 0 4.54102-1.85547 4.54102-4.58984v-19.7754h19.7754c2.68555 0 4.58984-1.80664 4.58984-4.39453 0-2.73438-1.85547-4.58984-4.58984-4.58984h-19.7754v-19.7266c0-2.73438-1.85547-4.63867-4.54102-4.63867-2.58789 0-4.44336 1.9043-4.44336 4.63867v19.7266h-19.7266c-2.73438 0-4.58984 1.85547-4.58984 4.58984Z"/>
  </g>
  <text style="stroke:none;fill:black;font-family:sans-serif;font-size:13;font-weight:bold;" transform="matrix(1 0 0 1 263 1953)">Design Variations</text>
  <text style="stroke:none;fill:black;font-family:sans-serif;font-size:13;" transform="matrix(1 0 0 1 263 1971)">Symbols are supported in up to nine weights and three scales.</text>
  <text style="stroke:none;fill:black;font-family:sans-serif;font-size:13;" transform="matrix(1 0 0 1 263 1989)">For optimal layout with text and other symbols, vertically align</text>
  <text style="stroke:none;fill:black;font-family:sans-serif;font-size:13;" transform="matrix(1 0 0 1 263 2007)">symbols with the adjacent text.</text>
  <line style="fill:none;stroke:#00AEEF;stroke-width:0.5;opacity:1.0;" x1="776" x2="776" y1="1919" y2="1933"/>
  <g transform="matrix(0.2 0 0 0.2 776 1933)">
   <path d="m16.5527 0.78125c2.58789 0 3.85742-0.976562 4.78516-3.71094l6.29883-17.2363h28.8086l6.29883 17.2363c0.927734 2.73438 2.19727 3.71094 4.73633 3.71094 2.58789 0 4.24805-1.5625 4.24805-4.00391 0-0.830078-0.146484-1.61133-0.537109-2.63672l-22.9004-60.9863c-1.12305-2.97852-3.125-4.49219-6.25-4.49219-3.02734 0-5.07812 1.46484-6.15234 4.44336l-22.9004 61.084c-0.390625 1.02539-0.537109 1.80664-0.537109 2.63672 0 2.44141 1.5625 3.95508 4.10156 3.95508Zm13.4766-28.3691 11.8652-32.8613h0.244141l11.8652 32.8613Z"/>
  </g>
  <line style="fill:none;stroke:#00AEEF;stroke-width:0.5;opacity:1.0;" x1="792.836" x2="792.836" y1="1919" y2="1933"/>
  <text style="stroke:none;fill:black;font-family:sans-serif;font-size:13;font-weight:bold;" transform="matrix(1 0 0 1 776 1953)">Margins</text>
  <text style="stroke:none;fill:black;font-family:sans-serif;font-size:13;" transform="matrix(1 0 0 1 776 1971)">Leading and trailing margins on the left and right side of each symbol</text>
  <text style="stroke:none;fill:black;font-family:sans-serif;font-size:13;" transform="matrix(1 0 0 1 776 1989)">can be adjusted by modifying the x-location of the margin guidelines.</text>
  <text style="stroke:none;fill:black;font-family:sans-serif;font-size:13;" transform="matrix(1 0 0 1 776 2007)">Modifications are automatically applied proportionally to all</text>
  <text style="stroke:none;fill:black;font-family:sans-serif;font-size:13;" transform="matrix(1 0 0 1 776 2025)">scales and weights.</text>
  <g transform="matrix(0.2 0 0 0.2 1289 1933)">
   <path d="m14.209 9.32617 8.49609 8.54492c4.29688 4.3457 9.22852 4.05273 13.8672-1.07422l53.4668-58.9355-4.83398-4.88281-53.0762 58.3984c-1.75781 2.00195-3.41797 2.49023-5.76172 0.146484l-5.85938-5.81055c-2.34375-2.29492-1.80664-4.00391 0.195312-5.81055l57.373-54.0039-4.88281-4.83398-57.959 54.4434c-4.93164 4.58984-5.32227 9.47266-1.02539 13.8184Zm32.0801-90.9668c-2.09961 2.05078-2.24609 4.93164-1.07422 6.88477 1.17188 1.80664 3.4668 2.97852 6.68945 2.14844 7.32422-1.70898 14.9414-2.00195 22.0703 2.68555l-2.92969 7.27539c-1.70898 4.15039-0.830078 7.08008 1.85547 9.81445l11.4746 11.5723c2.44141 2.44141 4.49219 2.53906 7.32422 2.05078l5.32227-0.976562 3.32031 3.36914-0.195312 2.7832c-0.195312 2.49023 0.439453 4.39453 2.88086 6.78711l3.80859 3.71094c2.39258 2.39258 5.46875 2.53906 7.8125 0.195312l14.5508-14.5996c2.34375-2.34375 2.24609-5.32227-0.146484-7.71484l-3.85742-3.80859c-2.39258-2.39258-4.24805-3.17383-6.64062-2.97852l-2.88086 0.244141-3.22266-3.17383 1.2207-5.61523c0.634766-2.83203-0.146484-5.0293-3.07617-7.95898l-10.9863-10.9375c-16.6992-16.6016-38.8672-16.2109-53.3203-1.75781Zm7.4707 1.85547c12.1582-8.88672 28.6133-7.37305 39.7461 3.75977l12.1582 12.0605c1.17188 1.17188 1.36719 2.09961 1.02539 3.80859l-1.61133 7.42188 7.51953 7.42188 4.93164-0.292969c1.26953-0.0488281 1.66016 0.0488281 2.63672 1.02539l2.88086 2.88086-12.207 12.207-2.88086-2.88086c-0.976562-0.976562-1.12305-1.36719-1.07422-2.68555l0.341797-4.88281-7.4707-7.42188-7.61719 1.26953c-1.61133 0.341797-2.34375 0.195312-3.56445-0.976562l-10.0098-10.0098c-1.26953-1.17188-1.41602-2.00195-0.634766-3.85742l4.39453-10.4492c-7.8125-7.27539-17.9688-10.4004-28.125-7.42188-0.78125 0.195312-1.07422-0.439453-0.439453-0.976562Z"/>
  </g>
  <text style="stroke:none;fill:black;font-family:sans-serif;font-size:13;font-weight:bold;" transform="matrix(1 0 0 1 1289 1953)">Exporting</text>
  <text style="stroke:none;fill:black;font-family:sans-serif;font-size:13;" transform="matrix(1 0 0 1 1289 1971)">Symbols should be outlined when exporting to ensure the</text>
  <text style="stroke:none;fill:black;font-family:sans-serif;font-size:13;" transform="matrix(1 0 0 1 1289 1989)">design is preserved when submitting to Xcode.</text>
  <text id="template-version" style="stroke:none;fill:black;font-family:sans-serif;font-size:13;text-anchor:end;" transform="matrix(1 0 0 1 3036 1933)">Template v.6.0</text>
  <text style="stroke:none;fill:black;font-family:sans-serif;font-size:13;text-anchor:end;" transform="matrix(1 0 0 1 3036 1951)">Requires Xcode 16 or greater</text>
  <text id="descriptive-name" style="stroke:none;fill:black;font-family:sans-serif;font-size:13;text-anchor:end;" transform="matrix(1 0 0 1 3036 1969)">Generated from square</text>
  <text style="stroke:none;fill:black;font-family:sans-serif;font-size:13;text-anchor:end;" transform="matrix(1 0 0 1 3036 1987)">Typeset at 100.0 points</text>
  <text style="stroke:none;fill:black;font-family:sans-serif;font-size:13;" transform="matrix(1 0 0 1 263 726)">Small</text>
  <text style="stroke:none;fill:black;font-family:sans-serif;font-size:13;" transform="matrix(1 0 0 1 263 1156)">Medium</text>
  <text style="stroke:none;fill:black;font-family:sans-serif;font-size:13;" transform="matrix(1 0 0 1 263 1586)">Large</text>
 </g>
 <g id="Guides">
  <g id="H-reference" style="fill:#27AAE1;stroke:none;" transform="matrix(1 0 0 1 339 696)">
   <path d="M0.993654 0L3.63775 0L29.3281-67.1323L30.0303-67.1323L30.0303-70.459L28.1226-70.459ZM11.6885-24.4799L46.9815-24.4799L46.2315-26.7285L12.4385-26.7285ZM55.1196 0L57.7637 0L30.6382-70.459L29.4326-70.459L29.4326-67.1323Z"/>
  </g>
  <line id="Baseline-S" style="fill:none;stroke:#27AAE1;opacity:1;stroke-width:0.5;" x1="263" x2="3036" y1="696" y2="696"/>
  <line id="Capline-S" style="fill:none;stroke:#27AAE1;opacity:1;stroke-width:0.5;" x1="263" x2="3036" y1="625.541" y2="625.541"/>
  <g id="H-reference" style="fill:#27AAE1;stroke:none;" transform="matrix(1 0 0 1 339 1126)">
   <path d="M0.993654 0L3.63775 0L29.3281-67.1323L30.0303-67.1323L30.0303-70.459L28.1226-70.459ZM11.6885-24.4799L46.9815-24.4799L46.2315-26.7285L12.4385-26.7285ZM55.1196 0L57.7637 0L30.6382-70.459L29.4326-70.459L29.4326-67.1323Z"/>
  </g>
  <line id="Baseline-M" style="fill:none;stroke:#27AAE1;opacity:1;stroke-width:0.5;" x1="263" x2="3036" y1="1126" y2="1126"/>
  <line id="Capline-M" style="fill:none;stroke:#27AAE1;opacity:1;stroke-width:0.5;" x1="263" x2="3036" y1="1055.54" y2="1055.54"/>
  <g id="H-reference" style="fill:#27AAE1;stroke:none;" transform="matrix(1 0 0 1 339 1556)">
   <path d="M0.993654 0L3.63775 0L29.3281-67.1323L30.0303-67.1323L30.0303-70.459L28.1226-70.459ZM11.6885-24.4799L46.9815-24.4799L46.2315-26.7285L12.4385-26.7285ZM55.1196 0L57.7637 0L30.6382-70.459L29.4326-70.459L29.4326-67.1323Z"/>
  </g>
  <line id="Baseline-L" style="fill:none;stroke:#27AAE1;opacity:1;stroke-width:0.5;" x1="263" x2="3036" y1="1556" y2="1556"/>
  <line id="Capline-L" style="fill:none;stroke:#27AAE1;opacity:1;stroke-width:0.5;" x1="263" x2="3036" y1="1485.54" y2="1485.54"/>
  <line id="right-margin-Black-S" style="fill:none;stroke:#00AEEF;stroke-width:0.5;opacity:1.0;" x1="2981.3" x2="2981.3" y1="600.785" y2="720.121"/>
  <line id="left-margin-Black-S" style="fill:none;stroke:#00AEEF;stroke-width:0.5;opacity:1.0;" x1="2885.5" x2="2885.5" y1="600.785" y2="720.121"/>
  <line id="right-margin-Regular-S" style="fill:none;stroke:#00AEEF;stroke-width:0.5;opacity:1.0;" x1="1495.18" x2="1495.18" y1="600.785" y2="720.121"/>
  <line id="left-margin-Regular-S" style="fill:none;stroke:#00AEEF;stroke-width:0.5;opacity:1.0;" x1="1404.51" x2="1404.51" y1="600.785" y2="720.121"/>
  <line id="right-margin-Ultralight-S" style="fill:none;stroke:#00AEEF;stroke-width:0.5;opacity:1.0;" x1="603.073" x2="603.073" y1="600.785" y2="720.121"/>
  <line id="left-margin-Ultralight-S" style="fill:none;stroke:#00AEEF;stroke-width:0.5;opacity:1.0;" x1="516.35" x2="516.35" y1="600.785" y2="720.121"/>
 </g>
 <g id="Symbols">
  <g id="Black-S"><path d="M2932.28453,628.53445c-0.12917,0.02936 -0.52551,0.1145 -0.88074,0.18495c-1.95524,0.39046 -4.08369,1.86129 -5.14938,3.55818c-0.46385,0.73395 -0.95707,1.8701 -1.18019,2.72148c-0.31119,1.16551 -1.20074,1.91707 -2.38973,2.01102c-0.73395,0.05872 -0.81028,0.03817 -1.98753,-0.53725c-1.75267,-0.85432 -2.43671,-1.01872 -4.20699,-1.00404c-1.2301,0.00881 -1.61469,0.05872 -2.36918,0.30826c-1.45615,0.47853 -2.38973,1.06569 -3.57286,2.25469c-0.86019,0.86312 -1.16257,1.26533 -1.55597,2.0668c-1.30056,2.64515 -1.28,5.12589 0.05872,7.86498c0.64294,1.30936 0.7545,1.98753 0.45505,2.76552c-0.38752,1.01872 -0.95413,1.4679 -2.35157,1.8701c-4.82644,1.37982 -7.33948,6.82865 -5.34608,11.59637c0.97175,2.32515 3.25579,4.27158 5.69837,4.8558c0.93358,0.22312 1.53835,0.71633 1.92881,1.57652c0.39046,0.86312 0.32294,1.40624 -0.34055,2.81249c-1.37689,2.9123 -1.42092,5.23158 -0.15266,7.87086c0.46385,0.96588 0.68404,1.26533 1.66166,2.24294c0.92771,0.92477 1.30936,1.21542 2.12845,1.61762c2.68038,1.31523 5.07011,1.28588 7.94719,-0.09982c1.3945,-0.66936 1.97872,-0.73982 2.85652,-0.34349c0.86019,0.39046 1.3534,0.99523 1.57652,1.92881c0.29651,1.24184 1.1156,2.73616 2.04037,3.72552c3.74313,4.00442 10.516,3.39084 13.44592,-1.21835c0.39927,-0.62826 1.02166,-2.05799 1.02166,-2.35157c0.00294,-0.28477 0.55193,-1.32404 0.8367,-1.58826c0.4345,-0.39633 1.28294,-0.73395 1.85836,-0.73688c0.39046,-0.00294 0.84551,0.14973 1.76147,0.58129c2.9123,1.37689 5.23158,1.42092 7.87086,0.15266c0.96588,-0.46385 1.26533,-0.68404 2.24294,-1.66166c0.92477,-0.92771 1.21542,-1.30936 1.61762,-2.12845c1.30056,-2.65102 1.28,-5.15525 -0.05872,-7.85618c-0.64587,-1.29762 -0.75743,-1.98753 -0.45505,-2.77726c0.35523,-0.93065 1.02166,-1.51487 1.99927,-1.7468c2.44258,-0.58422 4.72662,-2.53065 5.69837,-4.8558c1.9934,-4.76772 -0.51964,-10.21655 -5.34608,-11.59637c-1.3534,-0.38752 -1.85542,-0.76331 -2.28111,-1.69982c-0.39046,-0.86312 -0.32294,-1.40624 0.34055,-2.81249c1.37395,-2.90937 1.42092,-5.23158 0.15853,-7.86498c-0.45505,-0.94532 -0.68698,-1.25945 -1.60588,-2.17249c-1.20955,-1.20367 -2.149,-1.80551 -3.54056,-2.26056c-0.80147,-0.26422 -1.1567,-0.31119 -2.40735,-0.32c-1.76441,-0.01174 -2.43671,0.14679 -4.15708,0.98643c-1.59707,0.77798 -2.43671,0.78679 -3.45543,0.02936c-0.5167,-0.38459 -0.79266,-0.85138 -1.09211,-1.84955c-0.88661,-2.96515 -3.03267,-5.08185 -5.96259,-5.87452c-0.65468,-0.17908 -2.90937,-0.32881 -3.35854,-0.22606M2934.2339,634.47649c0.96294,0.32 1.48551,0.9512 1.88184,2.2723c0.84844,2.82423 2.87414,4.86461 5.79819,5.83342c0.69872,0.23193 1.05688,0.27303 2.40735,0.27009c1.829,-0.00294 2.38093,-0.13505 4.07781,-0.96294c0.59597,-0.29064 1.32404,-0.5578 1.61762,-0.59009c1.41212,-0.15853 2.86827,1.1978 2.87414,2.68331c0.00294,0.41395 -0.13211,0.80734 -0.58129,1.70863c-1.19193,2.38973 -1.38276,4.72075 -0.57248,6.96957c0.95707,2.65689 2.98276,4.5769 5.67782,5.38718c0.99817,0.29945 1.46496,0.57542 1.84955,1.09211c0.83376,1.12147 0.73101,2.51304 -0.26129,3.50533c-0.43743,0.43743 -0.69285,0.57835 -1.4356,0.7956c-1.65285,0.47853 -3.28809,1.509 -4.29213,2.70386c-0.53725,0.63707 -1.28,1.95817 -1.62056,2.87708l-0.20844,0.56661l-2.12551,-0.03817c-2.06093,-0.03817 -2.13726,-0.04697 -2.66276,-0.35523c-1.05101,-0.61945 -1.43854,-1.40624 -1.5501,-3.14717c-0.07339,-1.13615 -0.39046,-2.3868 -0.81321,-3.2235l-0.2378,-0.46385l0.33762,-0.28184c1.8701,-1.56478 2.7479,-2.80368 3.34974,-4.72369c0.39633,-1.26826 0.39633,-3.65506 0,-4.92919c-0.89248,-2.86827 -3.09432,-5.08479 -5.94498,-5.98608l-0.94239,-0.29651l-13.09363,-0.05872l-13.09363,-0.05872l-0.38165,-0.75156c-0.27009,-0.53138 -0.38165,-0.91303 -0.37872,-1.29175c0.00587,-1.48551 1.46202,-2.84185 2.87414,-2.68331c0.29358,0.03229 1.02166,0.29945 1.61762,0.59009c1.69689,0.82789 2.24882,0.96 4.07781,0.96294c1.35046,0.00294 1.70863,-0.03817 2.40735,-0.27009c2.92405,-0.96881 4.94974,-3.00919 5.79819,-5.83342c0.29945,-0.99817 0.57542,-1.46496 1.09211,-1.84955c0.71927,-0.53725 1.64404,-0.69578 2.45726,-0.42275M2918.72118,660.76356v8.80737h-1.69395h-1.69102l-0.30826,-0.80734c-1.02166,-2.67157 -3.04148,-4.52699 -5.79525,-5.32259c-0.74276,-0.21725 -0.99817,-0.35817 -1.4356,-0.7956c-0.9923,-0.9923 -1.09505,-2.38386 -0.26129,-3.50533c0.38459,-0.5167 0.85138,-0.79266 1.84955,-1.09211c1.5912,-0.47853 3.07964,-1.42679 4.09249,-2.61285c0.56661,-0.66642 1.31523,-1.97579 1.66459,-2.92111l0.20551,-0.5578h1.68514h1.68808v8.80737M2940.18181,652.13527c1.10973,0.32881 2.0257,1.57652 2.0257,2.75964c0,0.96881 -0.63413,2.04037 -1.51487,2.55707l-0.54019,0.31707l-7.77985,0.03229l-7.77985,0.03229v-2.93873v-2.93873h7.49507c6.36773,0 7.58315,0.02642 8.09398,0.17908M2937.24602,663.87844c0.41688,0.1233 0.76624,0.34349 1.13615,0.7134c0.62826,0.62826 0.83376,1.23303 0.93652,2.76258c0.24073,3.53469 2.71561,6.60847 6.23562,7.74168c0.72808,0.23486 1.15377,0.27303 3.6991,0.33468l2.87708,0.07046l0.38165,0.75156c0.27009,0.53138 0.38165,0.91303 0.37872,1.29175c-0.00587,1.40037 -1.30349,2.70386 -2.69212,2.70974c-0.39046,0.00294 -0.84844,-0.14973 -1.7879,-0.59303c-1.55891,-0.73688 -2.19597,-0.91597 -3.62277,-1.00698c-3.86644,-0.25248 -7.58315,2.33395 -8.63123,6.00663c-0.49908,1.74092 -1.3534,2.52478 -2.75671,2.52478c-1.40331,0 -2.25762,-0.78386 -2.75671,-2.52478c-0.9923,-3.47598 -4.46534,-6.04773 -8.16443,-6.04773c-1.30349,0 -2.50423,0.29651 -3.87524,0.95413c-0.69285,0.33174 -1.47377,0.61945 -1.7879,0.65762c-1.42679,0.16734 -2.90056,-1.17725 -2.90643,-2.65983c-0.00294,-0.33762 0.12624,-0.79854 0.36697,-1.32111l0.36991,-0.80147l5.23745,-0.00587c5.63672,-0.00587 5.71599,-0.01174 6.52626,-0.6312c0.22606,-0.17028 0.55486,-0.56074 0.73395,-0.86312c0.2789,-0.47266 0.32587,-0.68404 0.32587,-1.4356c0,-0.74863 -0.04697,-0.96294 -0.32,-1.42679c-0.41395,-0.70165 -1.13322,-1.22716 -1.92881,-1.40624l-0.62826,-0.14092v-2.91524v-2.91818h6.02718c5.0525,0 6.12406,0.02936 6.62608,0.17908" className="SFSymbolsPreviewWireframe"/></g>
  <g id="Regular-S"><path d="M1448.72948,628.53445c-0.12917,0.02936 -0.52551,0.1145 -0.88074,0.18495c-1.95524,0.39046 -4.08369,1.86129 -5.14938,3.55818c-0.46385,0.73395 -0.95707,1.8701 -1.18019,2.72148c-0.31119,1.16551 -1.20074,1.91707 -2.38973,2.01102c-0.73395,0.05872 -0.81028,0.03817 -1.98753,-0.53725c-1.75267,-0.85432 -2.43671,-1.01872 -4.20699,-1.00404c-1.2301,0.00881 -1.61469,0.05872 -2.36918,0.30826c-1.45615,0.47853 -2.38973,1.06569 -3.57286,2.25469c-0.86019,0.86312 -1.16257,1.26533 -1.55597,2.0668c-1.30056,2.64515 -1.28,5.12589 0.05872,7.86498c0.64294,1.30936 0.7545,1.98753 0.45505,2.76552c-0.38752,1.01872 -0.95413,1.4679 -2.35157,1.8701c-4.82644,1.37982 -7.33948,6.82865 -5.34608,11.59637c0.97175,2.32515 3.25579,4.27158 5.69837,4.8558c0.93358,0.22312 1.53835,0.71633 1.92881,1.57652c0.39046,0.86312 0.32294,1.40624 -0.34055,2.81249c-1.37689,2.9123 -1.42092,5.23158 -0.15266,7.87086c0.46385,0.96588 0.68404,1.26533 1.66166,2.24294c0.92771,0.92477 1.30936,1.21542 2.12845,1.61762c2.68038,1.31523 5.07011,1.28588 7.94719,-0.09982c1.3945,-0.66936 1.97872,-0.73982 2.85652,-0.34349c0.86019,0.39046 1.3534,0.99523 1.57652,1.92881c0.29651,1.24184 1.1156,2.73616 2.04037,3.72552c3.74313,4.00442 10.516,3.39084 13.44592,-1.21835c0.39927,-0.62826 1.02166,-2.05799 1.02166,-2.35157c0.00294,-0.28477 0.55193,-1.32404 0.8367,-1.58826c0.4345,-0.39633 1.28294,-0.73395 1.85836,-0.73688c0.39046,-0.00294 0.84551,0.14973 1.76147,0.58129c2.9123,1.37689 5.23158,1.42092 7.87086,0.15266c0.96588,-0.46385 1.26533,-0.68404 2.24294,-1.66166c0.92477,-0.92771 1.21542,-1.30936 1.61762,-2.12845c1.30056,-2.65102 1.28,-5.15525 -0.05872,-7.85618c-0.64587,-1.29762 -0.75743,-1.98753 -0.45505,-2.77726c0.35523,-0.93065 1.02166,-1.51487 1.99927,-1.7468c2.44258,-0.58422 4.72662,-2.53065 5.69837,-4.8558c1.9934,-4.76772 -0.51964,-10.21655 -5.34608,-11.59637c-1.3534,-0.38752 -1.85542,-0.76331 -2.28111,-1.69982c-0.39046,-0.86312 -0.32294,-1.40624 0.34055,-2.81249c1.37395,-2.90937 1.42092,-5.23158 0.15853,-7.86498c-0.45505,-0.94532 -0.68698,-1.25945 -1.60588,-2.17249c-1.20955,-1.20367 -2.149,-1.80551 -3.54056,-2.26056c-0.80147,-0.26422 -1.1567,-0.31119 -2.40735,-0.32c-1.76441,-0.01174 -2.43671,0.14679 -4.15708,0.98643c-1.59707,0.77798 -2.43671,0.78679 -3.45543,0.02936c-0.5167,-0.38459 -0.79266,-0.85138 -1.09211,-1.84955c-0.88661,-2.96515 -3.03267,-5.08185 -5.96259,-5.87452c-0.65468,-0.17908 -2.90937,-0.32881 -3.35854,-0.22606M1450.67885,634.47649c0.96294,0.32 1.48551,0.9512 1.88184,2.2723c0.84844,2.82423 2.87414,4.86461 5.79819,5.83342c0.69872,0.23193 1.05688,0.27303 2.40735,0.27009c1.829,-0.00294 2.38093,-0.13505 4.07781,-0.96294c0.59597,-0.29064 1.32404,-0.5578 1.61762,-0.59009c1.41212,-0.15853 2.86827,1.1978 2.87414,2.68331c0.00294,0.41395 -0.13211,0.80734 -0.58129,1.70863c-1.19193,2.38973 -1.38276,4.72075 -0.57248,6.96957c0.95707,2.65689 2.98276,4.5769 5.67782,5.38718c0.99817,0.29945 1.46496,0.57542 1.84955,1.09211c0.83376,1.12147 0.73101,2.51304 -0.26129,3.50533c-0.43743,0.43743 -0.69285,0.57835 -1.4356,0.7956c-1.65285,0.47853 -3.28809,1.509 -4.29213,2.70386c-0.53725,0.63707 -1.28,1.95817 -1.62056,2.87708l-0.20844,0.56661l-2.12551,-0.03817c-2.06093,-0.03817 -2.13726,-0.04697 -2.66276,-0.35523c-1.05101,-0.61945 -1.43854,-1.40624 -1.5501,-3.14717c-0.07339,-1.13615 -0.39046,-2.3868 -0.81321,-3.2235l-0.2378,-0.46385l0.33762,-0.28184c1.8701,-1.56478 2.7479,-2.80368 3.34974,-4.72369c0.39633,-1.26826 0.39633,-3.65506 0,-4.92919c-0.89248,-2.86827 -3.09432,-5.08479 -5.94498,-5.98608l-0.94239,-0.29651l-13.09363,-0.05872l-13.09363,-0.05872l-0.38165,-0.75156c-0.27009,-0.53138 -0.38165,-0.91303 -0.37872,-1.29175c0.00587,-1.48551 1.46202,-2.84185 2.87414,-2.68331c0.29358,0.03229 1.02166,0.29945 1.61762,0.59009c1.69689,0.82789 2.24882,0.96 4.07781,0.96294c1.35046,0.00294 1.70863,-0.03817 2.40735,-0.27009c2.92405,-0.96881 4.94974,-3.00919 5.79819,-5.83342c0.29945,-0.99817 0.57542,-1.46496 1.09211,-1.84955c0.71927,-0.53725 1.64404,-0.69578 2.45726,-0.42275M1435.16613,660.76356v8.80737h-1.69395h-1.69102l-0.30826,-0.80734c-1.02166,-2.67157 -3.04148,-4.52699 -5.79525,-5.32259c-0.74276,-0.21725 -0.99817,-0.35817 -1.4356,-0.7956c-0.9923,-0.9923 -1.09505,-2.38386 -0.26129,-3.50533c0.38459,-0.5167 0.85138,-0.79266 1.84955,-1.09211c1.5912,-0.47853 3.07964,-1.42679 4.09249,-2.61285c0.56661,-0.66642 1.31523,-1.97579 1.66459,-2.92111l0.20551,-0.5578h1.68514h1.68808v8.80737M1456.62676,652.13527c1.10973,0.32881 2.0257,1.57652 2.0257,2.75964c0,0.96881 -0.63413,2.04037 -1.51487,2.55707l-0.54019,0.31707l-7.77985,0.03229l-7.77985,0.03229v-2.93873v-2.93873h7.49507c6.36773,0 7.58315,0.02642 8.09398,0.17908M1453.69097,663.87844c0.41688,0.1233 0.76624,0.34349 1.13615,0.7134c0.62826,0.62826 0.83376,1.23303 0.93652,2.76258c0.24073,3.53469 2.71561,6.60847 6.23562,7.74168c0.72808,0.23486 1.15377,0.27303 3.6991,0.33468l2.87708,0.07046l0.38165,0.75156c0.27009,0.53138 0.38165,0.91303 0.37872,1.29175c-0.00587,1.40037 -1.30349,2.70386 -2.69212,2.70974c-0.39046,0.00294 -0.84844,-0.14973 -1.7879,-0.59303c-1.55891,-0.73688 -2.19597,-0.91597 -3.62277,-1.00698c-3.86644,-0.25248 -7.58315,2.33395 -8.63123,6.00663c-0.49908,1.74092 -1.3534,2.52478 -2.75671,2.52478c-1.40331,0 -2.25762,-0.78386 -2.75671,-2.52478c-0.9923,-3.47598 -4.46534,-6.04773 -8.16443,-6.04773c-1.30349,0 -2.50423,0.29651 -3.87524,0.95413c-0.69285,0.33174 -1.47377,0.61945 -1.7879,0.65762c-1.42679,0.16734 -2.90056,-1.17725 -2.90643,-2.65983c-0.00294,-0.33762 0.12624,-0.79854 0.36697,-1.32111l0.36991,-0.80147l5.23745,-0.00587c5.63672,-0.00587 5.71599,-0.01174 6.52626,-0.6312c0.22606,-0.17028 0.55486,-0.56074 0.73395,-0.86312c0.2789,-0.47266 0.32587,-0.68404 0.32587,-1.4356c0,-0.74863 -0.04697,-0.96294 -0.32,-1.42679c-0.41395,-0.70165 -1.13322,-1.22716 -1.92881,-1.40624l-0.62826,-0.14092v-2.91524v-2.91818h6.02718c5.0525,0 6.12406,0.02936 6.62608,0.17908" className="SFSymbolsPreviewWireframe"/></g>
  <g id="Ultralight-S"><path d="M558.59589,628.53445c-0.12917,0.02936 -0.52551,0.1145 -0.88074,0.18495c-1.95524,0.39046 -4.08369,1.86129 -5.14938,3.55818c-0.46385,0.73395 -0.95707,1.8701 -1.18019,2.72148c-0.31119,1.16551 -1.20074,1.91707 -2.38973,2.01102c-0.73395,0.05872 -0.81028,0.03817 -1.98753,-0.53725c-1.75267,-0.85432 -2.43671,-1.01872 -4.20699,-1.00404c-1.2301,0.00881 -1.61469,0.05872 -2.36918,0.30826c-1.45615,0.47853 -2.38973,1.06569 -3.57286,2.25469c-0.86019,0.86312 -1.16257,1.26533 -1.55597,2.0668c-1.30056,2.64515 -1.28,5.12589 0.05872,7.86498c0.64294,1.30936 0.7545,1.98753 0.45505,2.76552c-0.38752,1.01872 -0.95413,1.4679 -2.35157,1.8701c-4.82644,1.37982 -7.33948,6.82865 -5.34608,11.59637c0.97175,2.32515 3.25579,4.27158 5.69837,4.8558c0.93358,0.22312 1.53835,0.71633 1.92881,1.57652c0.39046,0.86312 0.32294,1.40624 -0.34055,2.81249c-1.37689,2.9123 -1.42092,5.23158 -0.15266,7.87086c0.46385,0.96588 0.68404,1.26533 1.66166,2.24294c0.92771,0.92477 1.30936,1.21542 2.12845,1.61762c2.68038,1.31523 5.07011,1.28588 7.94719,-0.09982c1.3945,-0.66936 1.97872,-0.73982 2.85652,-0.34349c0.86019,0.39046 1.3534,0.99523 1.57652,1.92881c0.29651,1.24184 1.1156,2.73616 2.04037,3.72552c3.74313,4.00442 10.516,3.39084 13.44592,-1.21835c0.39927,-0.62826 1.02166,-2.05799 1.02166,-2.35157c0.00294,-0.28477 0.55193,-1.32404 0.8367,-1.58826c0.4345,-0.39633 1.28294,-0.73395 1.85836,-0.73688c0.39046,-0.00294 0.84551,0.14973 1.76147,0.58129c2.9123,1.37689 5.23158,1.42092 7.87086,0.15266c0.96588,-0.46385 1.26533,-0.68404 2.24294,-1.66166c0.92477,-0.92771 1.21542,-1.30936 1.61762,-2.12845c1.30056,-2.65102 1.28,-5.15525 -0.05872,-7.85618c-0.64587,-1.29762 -0.75743,-1.98753 -0.45505,-2.77726c0.35523,-0.93065 1.02166,-1.51487 1.99927,-1.7468c2.44258,-0.58422 4.72662,-2.53065 5.69837,-4.8558c1.9934,-4.76772 -0.51964,-10.21655 -5.34608,-11.59637c-1.3534,-0.38752 -1.85542,-0.76331 -2.28111,-1.69982c-0.39046,-0.86312 -0.32294,-1.40624 0.34055,-2.81249c1.37395,-2.90937 1.42092,-5.23158 0.15853,-7.86498c-0.45505,-0.94532 -0.68698,-1.25945 -1.60588,-2.17249c-1.20955,-1.20367 -2.149,-1.80551 -3.54056,-2.26056c-0.80147,-0.26422 -1.1567,-0.31119 -2.40735,-0.32c-1.76441,-0.01174 -2.43671,0.14679 -4.15708,0.98643c-1.59707,0.77798 -2.43671,0.78679 -3.45543,0.02936c-0.5167,-0.38459 -0.79266,-0.85138 -1.09211,-1.84955c-0.88661,-2.96515 -3.03267,-5.08185 -5.96259,-5.87452c-0.65468,-0.17908 -2.90937,-0.32881 -3.35854,-0.22606M560.54526,634.47649c0.96294,0.32 1.48551,0.9512 1.88184,2.2723c0.84844,2.82423 2.87414,4.86461 5.79819,5.83342c0.69872,0.23193 1.05688,0.27303 2.40735,0.27009c1.829,-0.00294 2.38093,-0.13505 4.07781,-0.96294c0.59597,-0.29064 1.32404,-0.5578 1.61762,-0.59009c1.41212,-0.15853 2.86827,1.1978 2.87414,2.68331c0.00294,0.41395 -0.13211,0.80734 -0.58129,1.70863c-1.19193,2.38973 -1.38276,4.72075 -0.57248,6.96957c0.95707,2.65689 2.98276,4.5769 5.67782,5.38718c0.99817,0.29945 1.46496,0.57542 1.84955,1.09211c0.83376,1.12147 0.73101,2.51304 -0.26129,3.50533c-0.43743,0.43743 -0.69285,0.57835 -1.4356,0.7956c-1.65285,0.47853 -3.28809,1.509 -4.29213,2.70386c-0.53725,0.63707 -1.28,1.95817 -1.62056,2.87708l-0.20844,0.56661l-2.12551,-0.03817c-2.06093,-0.03817 -2.13726,-0.04697 -2.66276,-0.35523c-1.05101,-0.61945 -1.43854,-1.40624 -1.5501,-3.14717c-0.07339,-1.13615 -0.39046,-2.3868 -0.81321,-3.2235l-0.2378,-0.46385l0.33762,-0.28184c1.8701,-1.56478 2.7479,-2.80368 3.34974,-4.72369c0.39633,-1.26826 0.39633,-3.65506 0,-4.92919c-0.89248,-2.86827 -3.09432,-5.08479 -5.94498,-5.98608l-0.94239,-0.29651l-13.09363,-0.05872l-13.09363,-0.05872l-0.38165,-0.75156c-0.27009,-0.53138 -0.38165,-0.91303 -0.37872,-1.29175c0.00587,-1.48551 1.46202,-2.84185 2.87414,-2.68331c0.29358,0.03229 1.02166,0.29945 1.61762,0.59009c1.69689,0.82789 2.24882,0.96 4.07781,0.96294c1.35046,0.00294 1.70863,-0.03817 2.40735,-0.27009c2.92405,-0.96881 4.94974,-3.00919 5.79819,-5.83342c0.29945,-0.99817 0.57542,-1.46496 1.09211,-1.84955c0.71927,-0.53725 1.64404,-0.69578 2.45726,-0.42275M545.03254,660.76356v8.80737h-1.69395h-1.69102l-0.30826,-0.80734c-1.02166,-2.67157 -3.04148,-4.52699 -5.79525,-5.32259c-0.74276,-0.21725 -0.99817,-0.35817 -1.4356,-0.7956c-0.9923,-0.9923 -1.09505,-2.38386 -0.26129,-3.50533c0.38459,-0.5167 0.85138,-0.79266 1.84955,-1.09211c1.5912,-0.47853 3.07964,-1.42679 4.09249,-2.61285c0.56661,-0.66642 1.31523,-1.97579 1.66459,-2.92111l0.20551,-0.5578h1.68514h1.68808v8.80737M566.49317,652.13527c1.10973,0.32881 2.0257,1.57652 2.0257,2.75964c0,0.96881 -0.63413,2.04037 -1.51487,2.55707l-0.54019,0.31707l-7.77985,0.03229l-7.77985,0.03229v-2.93873v-2.93873h7.49507c6.36773,0 7.58315,0.02642 8.09398,0.17908M563.55738,663.87844c0.41688,0.1233 0.76624,0.34349 1.13615,0.7134c0.62826,0.62826 0.83376,1.23303 0.93652,2.76258c0.24073,3.53469 2.71561,6.60847 6.23562,7.74168c0.72808,0.23486 1.15377,0.27303 3.6991,0.33468l2.87708,0.07046l0.38165,0.75156c0.27009,0.53138 0.38165,0.91303 0.37872,1.29175c-0.00587,1.40037 -1.30349,2.70386 -2.69212,2.70974c-0.39046,0.00294 -0.84844,-0.14973 -1.7879,-0.59303c-1.55891,-0.73688 -2.19597,-0.91597 -3.62277,-1.00698c-3.86644,-0.25248 -7.58315,2.33395 -8.63123,6.00663c-0.49908,1.74092 -1.3534,2.52478 -2.75671,2.52478c-1.40331,0 -2.25762,-0.78386 -2.75671,-2.52478c-0.9923,-3.47598 -4.46534,-6.04773 -8.16443,-6.04773c-1.30349,0 -2.50423,0.29651 -3.87524,0.95413c-0.69285,0.33174 -1.47377,0.61945 -1.7879,0.65762c-1.42679,0.16734 -2.90056,-1.17725 -2.90643,-2.65983c-0.00294,-0.33762 0.12624,-0.79854 0.36697,-1.32111l0.36991,-0.80147l5.23745,-0.00587c5.63672,-0.00587 5.71599,-0.01174 6.52626,-0.6312c0.22606,-0.17028 0.55486,-0.56074 0.73395,-0.86312c0.2789,-0.47266 0.32587,-0.68404 0.32587,-1.4356c0,-0.74863 -0.04697,-0.96294 -0.32,-1.42679c-0.41395,-0.70165 -1.13322,-1.22716 -1.92881,-1.40624l-0.62826,-0.14092v-2.91524v-2.91818h6.02718c5.0525,0 6.12406,0.02936 6.62608,0.17908" className="SFSymbolsPreviewWireframe"/></g>
 </g>
</svg>