<?xml version="1.0" encoding="UTF-8"?><!--Generator: https://SymbolKit.app--><!DOCTYPE svg PUBLIC "-//W3C//DTD SVG 1.1//EN" "http://www.w3.org/Graphics/SVG/1.1/DTD/svg11.dtd"><svg xmlns="http://www.w3.org/2000/svg" xmlns:xlink="http://www.w3.org/1999/xlink" version="1.1" viewBox="0 0 3300 2200">
 <!--glyph: "100092", point size: 100.0, font version: "20.0d10e1", template writer version: "138.0.0"-->
 <style>.SFSymbolsPreviewWireframe {fill:none;opacity:1.0;stroke:black;stroke-width:0.5}
</style>
 <g id="Notes">
  <rect height="2200" id="artboard" style="fill:white;opacity:1" width="3300" x="0" y="0"/>
  <line style="fill:none;stroke:black;opacity:1;stroke-width:0.5;" x1="263" x2="3036" y1="292" y2="292"/>
  <text style="stroke:none;fill:black;font-family:sans-serif;font-size:13;font-weight:bold;" transform="matrix(1 0 0 1 263 322)">Weight/Scale Variations</text>
  <text style="stroke:none;fill:black;font-family:sans-serif;font-size:13;text-anchor:middle;" transform="matrix(1 0 0 1 559.711 322)">Ultralight</text>
  <text style="stroke:none;fill:black;font-family:sans-serif;font-size:13;text-anchor:middle;" transform="matrix(1 0 0 1 856.422 322)">Thin</text>
  <text style="stroke:none;fill:black;font-family:sans-serif;font-size:13;text-anchor:middle;" transform="matrix(1 0 0 1 1153.13 322)">Light</text>
  <text style="stroke:none;fill:black;font-family:sans-serif;font-size:13;text-anchor:middle;" transform="matrix(1 0 0 1 1449.84 322)">Regular</text>
  <text style="stroke:none;fill:black;font-family:sans-serif;font-size:13;text-anchor:middle;" transform="matrix(1 0 0 1 1746.56 322)">Medium</text>
  <text style="stroke:none;fill:black;font-family:sans-serif;font-size:13;text-anchor:middle;" transform="matrix(1 0 0 1 2043.27 322)">Semibold</text>
  <text style="stroke:none;fill:black;font-family:sans-serif;font-size:13;text-anchor:middle;" transform="matrix(1 0 0 1 2339.98 322)">Bold</text>
  <text style="stroke:none;fill:black;font-family:sans-serif;font-size:13;text-anchor:middle;" transform="matrix(1 0 0 1 2636.69 322)">Heavy</text>
  <text style="stroke:none;fill:black;font-family:sans-serif;font-size:13;text-anchor:middle;" transform="matrix(1 0 0 1 2933.4 322)">Black</text>
  <line style="fill:none;stroke:black;opacity:1;stroke-width:0.5;" x1="263" x2="3036" y1="1903" y2="1903"/>
  <g transform="matrix(0.2 0 0 0.2 263 1933)">
   <path d="m46.2402 4.15039c21.7773 0 39.4531-17.627 39.4531-39.4043s-17.6758-39.4043-39.4531-39.4043c-21.7285 0-39.4043 17.627-39.4043 39.4043s17.6758 39.4043 39.4043 39.4043Zm0-7.42188c-17.6758 0-31.9336-14.3066-31.9336-31.9824s14.2578-31.9824 31.9336-31.9824 31.9824 14.3066 31.9824 31.9824-14.3066 31.9824-31.9824 31.9824Zm-17.9688-31.9824c0 2.14844 1.51367 3.61328 3.75977 3.61328h10.498v10.5957c0 2.19727 1.46484 3.71094 3.61328 3.71094 2.24609 0 3.71094-1.51367 3.71094-3.71094v-10.5957h10.5957c2.19727 0 3.71094-1.46484 3.71094-3.61328 0-2.19727-1.51367-3.71094-3.71094-3.71094h-10.5957v-10.5469c0-2.24609-1.46484-3.75977-3.71094-3.75977-2.14844 0-3.61328 1.51367-3.61328 3.75977v10.5469h-10.498c-2.24609 0-3.75977 1.51367-3.75977 3.71094Z"/>
  </g>
  <g transform="matrix(0.2 0 0 0.2 281.506 1933)">
   <path d="m58.5449 14.5508c27.4902 0 49.8047-22.3145 49.8047-49.8047s-22.3145-49.8047-49.8047-49.8047-49.8047 22.3145-49.8047 49.8047 22.3145 49.8047 49.8047 49.8047Zm0-8.30078c-22.9492 0-41.5039-18.5547-41.5039-41.5039s18.5547-41.5039 41.5039-41.5039 41.5039 18.5547 41.5039 41.5039-18.5547 41.5039-41.5039 41.5039Zm-22.6562-41.5039c0 2.39258 1.66016 4.00391 4.15039 4.00391h14.3555v14.4043c0 2.44141 1.66016 4.15039 4.05273 4.15039 2.44141 0 4.15039-1.66016 4.15039-4.15039v-14.4043h14.4043c2.44141 0 4.15039-1.61133 4.15039-4.00391 0-2.44141-1.70898-4.15039-4.15039-4.15039h-14.4043v-14.3555c0-2.49023-1.70898-4.19922-4.15039-4.19922-2.39258 0-4.05273 1.70898-4.05273 4.19922v14.3555h-14.3555c-2.49023 0-4.15039 1.70898-4.15039 4.15039Z"/>
  </g>
  <g transform="matrix(0.2 0 0 0.2 304.924 1933)">
   <path d="m74.8535 28.3203c35.1074 0 63.623-28.4668 63.623-63.5742s-28.5156-63.623-63.623-63.623-63.5742 28.5156-63.5742 63.623 28.4668 63.5742 63.5742 63.5742Zm0-9.08203c-30.127 0-54.4922-24.3652-54.4922-54.4922s24.3652-54.4922 54.4922-54.4922 54.4922 24.3652 54.4922 54.4922-24.3652 54.4922-54.4922 54.4922Zm-28.8574-54.4922c0 2.58789 1.85547 4.39453 4.58984 4.39453h19.7266v19.7754c0 2.68555 1.85547 4.58984 4.44336 4.58984 2.68555 0 4.54102-1.85547 4.54102-4.58984v-19.7754h19.7754c2.68555 0 4.58984-1.80664 4.58984-4.39453 0-2.73438-1.85547-4.58984-4.58984-4.58984h-19.7754v-19.7266c0-2.73438-1.85547-4.63867-4.54102-4.63867-2.58789 0-4.44336 1.9043-4.44336 4.63867v19.7266h-19.7266c-2.73438 0-4.58984 1.85547-4.58984 4.58984Z"/>
  </g>
  <text style="stroke:none;fill:black;font-family:sans-serif;font-size:13;font-weight:bold;" transform="matrix(1 0 0 1 263 1953)">Design Variations</text>
  <text style="stroke:none;fill:black;font-family:sans-serif;font-size:13;" transform="matrix(1 0 0 1 263 1971)">Symbols are supported in up to nine weights and three scales.</text>
  <text style="stroke:none;fill:black;font-family:sans-serif;font-size:13;" transform="matrix(1 0 0 1 263 1989)">For optimal layout with text and other symbols, vertically align</text>
  <text style="stroke:none;fill:black;font-family:sans-serif;font-size:13;" transform="matrix(1 0 0 1 263 2007)">symbols with the adjacent text.</text>
  <line style="fill:none;stroke:#00AEEF;stroke-width:0.5;opacity:1.0;" x1="776" x2="776" y1="1919" y2="1933"/>
  <g transform="matrix(0.2 0 0 0.2 776 1933)">
   <path d="m16.5527 0.78125c2.58789 0 3.85742-0.976562 4.78516-3.71094l6.29883-17.2363h28.8086l6.29883 17.2363c0.927734 2.73438 2.19727 3.71094 4.73633 3.71094 2.58789 0 4.24805-1.5625 4.24805-4.00391 0-0.830078-0.146484-1.61133-0.537109-2.63672l-22.9004-60.9863c-1.12305-2.97852-3.125-4.49219-6.25-4.49219-3.02734 0-5.07812 1.46484-6.15234 4.44336l-22.9004 61.084c-0.390625 1.02539-0.537109 1.80664-0.537109 2.63672 0 2.44141 1.5625 3.95508 4.10156 3.95508Zm13.4766-28.3691 11.8652-32.8613h0.244141l11.8652 32.8613Z"/>
  </g>
  <line style="fill:none;stroke:#00AEEF;stroke-width:0.5;opacity:1.0;" x1="792.836" x2="792.836" y1="1919" y2="1933"/>
  <text style="stroke:none;fill:black;font-family:sans-serif;font-size:13;font-weight:bold;" transform="matrix(1 0 0 1 776 1953)">Margins</text>
  <text style="stroke:none;fill:black;font-family:sans-serif;font-size:13;" transform="matrix(1 0 0 1 776 1971)">Leading and trailing margins on the left and right side of each symbol</text>
  <text style="stroke:none;fill:black;font-family:sans-serif;font-size:13;" transform="matrix(1 0 0 1 776 1989)">can be adjusted by modifying the x-location of the margin guidelines.</text>
  <text style="stroke:none;fill:black;font-family:sans-serif;font-size:13;" transform="matrix(1 0 0 1 776 2007)">Modifications are automatically applied proportionally to all</text>
  <text style="stroke:none;fill:black;font-family:sans-serif;font-size:13;" transform="matrix(1 0 0 1 776 2025)">scales and weights.</text>
  <g transform="matrix(0.2 0 0 0.2 1289 1933)">
   <path d="m14.209 9.32617 8.49609 8.54492c4.29688 4.3457 9.22852 4.05273 13.8672-1.07422l53.4668-58.9355-4.83398-4.88281-53.0762 58.3984c-1.75781 2.00195-3.41797 2.49023-5.76172 0.146484l-5.85938-5.81055c-2.34375-2.29492-1.80664-4.00391 0.195312-5.81055l57.373-54.0039-4.88281-4.83398-57.959 54.4434c-4.93164 4.58984-5.32227 9.47266-1.02539 13.8184Zm32.0801-90.9668c-2.09961 2.05078-2.24609 4.93164-1.07422 6.88477 1.17188 1.80664 3.4668 2.97852 6.68945 2.14844 7.32422-1.70898 14.9414-2.00195 22.0703 2.68555l-2.92969 7.27539c-1.70898 4.15039-0.830078 7.08008 1.85547 9.81445l11.4746 11.5723c2.44141 2.44141 4.49219 2.53906 7.32422 2.05078l5.32227-0.976562 3.32031 3.36914-0.195312 2.7832c-0.195312 2.49023 0.439453 4.39453 2.88086 6.78711l3.80859 3.71094c2.39258 2.39258 5.46875 2.53906 7.8125 0.195312l14.5508-14.5996c2.34375-2.34375 2.24609-5.32227-0.146484-7.71484l-3.85742-3.80859c-2.39258-2.39258-4.24805-3.17383-6.64062-2.97852l-2.88086 0.244141-3.22266-3.17383 1.2207-5.61523c0.634766-2.83203-0.146484-5.0293-3.07617-7.95898l-10.9863-10.9375c-16.6992-16.6016-38.8672-16.2109-53.3203-1.75781Zm7.4707 1.85547c12.1582-8.88672 28.6133-7.37305 39.7461 3.75977l12.1582 12.0605c1.17188 1.17188 1.36719 2.09961 1.02539 3.80859l-1.61133 7.42188 7.51953 7.42188 4.93164-0.292969c1.26953-0.0488281 1.66016 0.0488281 2.63672 1.02539l2.88086 2.88086-12.207 12.207-2.88086-2.88086c-0.976562-0.976562-1.12305-1.36719-1.07422-2.68555l0.341797-4.88281-7.4707-7.42188-7.61719 1.26953c-1.61133 0.341797-2.34375 0.195312-3.56445-0.976562l-10.0098-10.0098c-1.26953-1.17188-1.41602-2.00195-0.634766-3.85742l4.39453-10.4492c-7.8125-7.27539-17.9688-10.4004-28.125-7.42188-0.78125 0.195312-1.07422-0.439453-0.439453-0.976562Z"/>
  </g>
  <text style="stroke:none;fill:black;font-family:sans-serif;font-size:13;font-weight:bold;" transform="matrix(1 0 0 1 1289 1953)">Exporting</text>
  <text style="stroke:none;fill:black;font-family:sans-serif;font-size:13;" transform="matrix(1 0 0 1 1289 1971)">Symbols should be outlined when exporting to ensure the</text>
  <text style="stroke:none;fill:black;font-family:sans-serif;font-size:13;" transform="matrix(1 0 0 1 1289 1989)">design is preserved when submitting to Xcode.</text>
  <text id="template-version" style="stroke:none;fill:black;font-family:sans-serif;font-size:13;text-anchor:end;" transform="matrix(1 0 0 1 3036 1933)">Template v.6.0</text>
  <text style="stroke:none;fill:black;font-family:sans-serif;font-size:13;text-anchor:end;" transform="matrix(1 0 0 1 3036 1951)">Requires Xcode 16 or greater</text>
  <text id="descriptive-name" style="stroke:none;fill:black;font-family:sans-serif;font-size:13;text-anchor:end;" transform="matrix(1 0 0 1 3036 1969)">Generated from square</text>
  <text style="stroke:none;fill:black;font-family:sans-serif;font-size:13;text-anchor:end;" transform="matrix(1 0 0 1 3036 1987)">Typeset at 100.0 points</text>
  <text style="stroke:none;fill:black;font-family:sans-serif;font-size:13;" transform="matrix(1 0 0 1 263 726)">Small</text>
  <text style="stroke:none;fill:black;font-family:sans-serif;font-size:13;" transform="matrix(1 0 0 1 263 1156)">Medium</text>
  <text style="stroke:none;fill:black;font-family:sans-serif;font-size:13;" transform="matrix(1 0 0 1 263 1586)">Large</text>
 </g>
 <g id="Guides">
  <g id="H-reference" style="fill:#27AAE1;stroke:none;" transform="matrix(1 0 0 1 339 696)">
   <path d="M0.993654 0L3.63775 0L29.3281-67.1323L30.0303-67.1323L30.0303-70.459L28.1226-70.459ZM11.6885-24.4799L46.9815-24.4799L46.2315-26.7285L12.4385-26.7285ZM55.1196 0L57.7637 0L30.6382-70.459L29.4326-70.459L29.4326-67.1323Z"/>
  </g>
  <line id="Baseline-S" style="fill:none;stroke:#27AAE1;opacity:1;stroke-width:0.5;" x1="263" x2="3036" y1="696" y2="696"/>
  <line id="Capline-S" style="fill:none;stroke:#27AAE1;opacity:1;stroke-width:0.5;" x1="263" x2="3036" y1="625.541" y2="625.541"/>
  <g id="H-reference" style="fill:#27AAE1;stroke:none;" transform="matrix(1 0 0 1 339 1126)">
   <path d="M0.993654 0L3.63775 0L29.3281-67.1323L30.0303-67.1323L30.0303-70.459L28.1226-70.459ZM11.6885-24.4799L46.9815-24.4799L46.2315-26.7285L12.4385-26.7285ZM55.1196 0L57.7637 0L30.6382-70.459L29.4326-70.459L29.4326-67.1323Z"/>
  </g>
  <line id="Baseline-M" style="fill:none;stroke:#27AAE1;opacity:1;stroke-width:0.5;" x1="263" x2="3036" y1="1126" y2="1126"/>
  <line id="Capline-M" style="fill:none;stroke:#27AAE1;opacity:1;stroke-width:0.5;" x1="263" x2="3036" y1="1055.54" y2="1055.54"/>
  <g id="H-reference" style="fill:#27AAE1;stroke:none;" transform="matrix(1 0 0 1 339 1556)">
   <path d="M0.993654 0L3.63775 0L29.3281-67.1323L30.0303-67.1323L30.0303-70.459L28.1226-70.459ZM11.6885-24.4799L46.9815-24.4799L46.2315-26.7285L12.4385-26.7285ZM55.1196 0L57.7637 0L30.6382-70.459L29.4326-70.459L29.4326-67.1323Z"/>
  </g>
  <line id="Baseline-L" style="fill:none;stroke:#27AAE1;opacity:1;stroke-width:0.5;" x1="263" x2="3036" y1="1556" y2="1556"/>
  <line id="Capline-L" style="fill:none;stroke:#27AAE1;opacity:1;stroke-width:0.5;" x1="263" x2="3036" y1="1485.54" y2="1485.54"/>
  <line id="right-margin-Black-S" style="fill:none;stroke:#00AEEF;stroke-width:0.5;opacity:1.0;" x1="2981.3" x2="2981.3" y1="600.785" y2="720.121"/>
  <line id="left-margin-Black-S" style="fill:none;stroke:#00AEEF;stroke-width:0.5;opacity:1.0;" x1="2885.5" x2="2885.5" y1="600.785" y2="720.121"/>
  <line id="right-margin-Regular-S" style="fill:none;stroke:#00AEEF;stroke-width:0.5;opacity:1.0;" x1="1495.18" x2="1495.18" y1="600.785" y2="720.121"/>
  <line id="left-margin-Regular-S" style="fill:none;stroke:#00AEEF;stroke-width:0.5;opacity:1.0;" x1="1404.51" x2="1404.51" y1="600.785" y2="720.121"/>
  <line id="right-margin-Ultralight-S" style="fill:none;stroke:#00AEEF;stroke-width:0.5;opacity:1.0;" x1="603.073" x2="603.073" y1="600.785" y2="720.121"/>
  <line id="left-margin-Ultralight-S" style="fill:none;stroke:#00AEEF;stroke-width:0.5;opacity:1.0;" x1="516.35" x2="516.35" y1="600.785" y2="720.121"/>
 </g>
 <g id="Symbols">
  <g id="Black-S"><path d="M2919.34687,631.63103c-5.6514,1.48257 -7.74462,8.00884 -5.73066,17.86429c0.06165,0.29064 0.01761,0.32 -0.9101,0.63413c-5.45176,1.84074 -9.38279,4.69139 -10.85362,7.87379c-1.85542,4.0191 -0.1967,8.2026 4.51231,11.36738c1.30056,0.87487 3.9046,2.14606 5.71892,2.79194c0.77505,0.27596 1.42386,0.51083 1.44147,0.51964c0.02055,0.01174 -0.07046,0.62239 -0.20257,1.35927c-0.8778,4.99378 -0.5578,8.91893 0.97468,11.90463c0.35229,0.68698 0.73688,1.19487 1.42386,1.88478c3.89873,3.91635 9.8349,2.75964 16.47566,-3.21176l0.97175,-0.87487l0.61358,0.57542c3.08845,2.89175 6.84626,5.0114 10.04334,5.66901c1.68514,0.34349 3.78423,0.03817 5.3402,-0.77798c4.14534,-2.18129 5.67195,-7.89141 4.24809,-15.87969c-0.1556,-0.86899 -0.27009,-1.5912 -0.25541,-1.60588c0.01468,-0.01468 0.4756,-0.18202 1.02459,-0.37285c7.38939,-2.56588 11.5083,-6.56443 11.5083,-11.17068c0,-2.5835 -1.46496,-5.12883 -4.16589,-7.23379c-1.94349,-1.51193 -4.87928,-3.01506 -7.57728,-3.87818c-0.35523,-0.11156 -0.66055,-0.21725 -0.67523,-0.22899c-0.01761,-0.01468 0.04697,-0.4433 0.14385,-0.95413c0.52551,-2.77432 0.66642,-5.96259 0.35817,-8.09104c-0.41688,-2.87708 -1.20074,-4.62974 -2.76258,-6.17984c-3.15304,-3.12662 -7.7593,-2.91818 -12.99675,0.58716c-1.37395,0.9189 -2.75084,2.01982 -3.81653,3.04442l-0.55193,0.52844l-0.78973,-0.72514c-2.43377,-2.2312 -5.69543,-4.2569 -8.14976,-5.0613c-1.84368,-0.60771 -3.88992,-0.74276 -5.36075,-0.35817M2922.50872,637.4439c0.88954,0.23193 2.60992,1.10386 3.85176,1.9523c0.91303,0.62532 3.27928,2.52478 3.27928,2.6334c0,0.02349 -0.25541,0.34936 -0.56661,0.72514c-2.25762,2.71561 -5.34608,7.42462 -7.4804,11.40261l-0.33174,0.61945l-0.21725,-0.56074c-0.33468,-0.86606 -1.09211,-3.47304 -1.42973,-4.90864c-1.21542,-5.19341 -1.13615,-9.66169 0.19376,-11.27637c0.62532,-0.75743 1.39744,-0.92477 2.70093,-0.58716M2946.55872,637.53784c0.21725,0.14679 0.5167,0.44624 0.66349,0.66349c0.84257,1.24771 1.05982,4.30681 0.55193,7.74168c-0.09982,0.68698 -0.22018,1.28588 -0.26422,1.32991c-0.04404,0.04404 -0.34349,0.02936 -0.66642,-0.03229c-2.73322,-0.53138 -5.98901,-0.8778 -9.94352,-1.06569c-2.85065,-0.13505 -2.89763,-0.14092 -2.73909,-0.36991c0.50496,-0.71927 2.95928,-3.3057 4.15414,-4.37726c1.74092,-1.55891 3.17946,-2.59818 4.5358,-3.27341c1.80258,-0.89542 2.99744,-1.09505 3.7079,-0.61652M2936.68271,652.02597l1.44441,0.07927l1.13028,1.7145c0.97762,1.48845 2.38386,3.96625 3.00625,5.29617l0.19376,0.41395l-0.66936,1.46496c-1.01872,2.2312 -2.93873,5.79232 -4.11304,7.64186l-0.49321,0.77211l-1.26533,0.07927c-1.62643,0.09982 -5.15525,0.09982 -6.3325,0l-0.91597,-0.07927l-1.12734,-1.7145c-0.98055,-1.49138 -2.3868,-3.96625 -3.01212,-5.2991l-0.19376,-0.41688l0.60477,-1.34459c1.00991,-2.24588 2.92111,-5.78938 4.18937,-7.7681l0.50202,-0.78973l1.0334,-0.03817c2.12845,-0.0822 4.62094,-0.08514 6.01837,-0.01174M2947.75358,653.42341c7.31306,1.63524 12.68555,4.92039 11.96628,7.32186c-0.45505,1.5178 -3.1824,3.47891 -6.59379,4.73837c-1.53542,0.56954 -1.64404,0.5989 -1.64404,0.4345c0,-0.24367 -1.52074,-4.17763 -2.29872,-5.94791c-0.41395,-0.94532 -1.35927,-2.89763 -2.10203,-4.34203c-0.73982,-1.44147 -1.3123,-2.62166 -1.2712,-2.62166c0.0411,0 0.91597,0.18789 1.94349,0.41688M2915.53621,656.26525c1.16257,3.30864 2.37799,6.10351 4.18937,9.63527l1.34459,2.61873l-0.4433,-0.07927c-3.79304,-0.66642 -8.77508,-2.45139 -10.96224,-3.93102c-1.59413,-1.07744 -2.68918,-2.41616 -2.68625,-3.28221c0.00587,-1.2301 1.75267,-2.8712 4.5035,-4.23341c1.13028,-0.56074 3.39377,-1.48257 3.71378,-1.51487c0.03523,-0.00294 0.18495,0.35229 0.34055,0.78679M2931.81224,657.45425c-1.36514,0.65468 -2.08735,1.82606 -2.0756,3.37322c0.00587,1.40331 0.88954,2.70386 2.23414,3.29983c0.57542,0.25541 0.78679,0.28771 1.60294,0.24367c1.09505,-0.05872 1.64698,-0.29651 2.37799,-1.02753c0.89248,-0.89248 1.28881,-2.12551 1.03633,-3.21469c-0.5578,-2.40148 -3.05322,-3.69029 -5.1758,-2.67451M2946.36495,669.17686c1.40624,4.66791 1.96698,8.73691 1.58533,11.50536c-0.32587,2.34863 -1.16257,3.55818 -2.46313,3.56111c-1.88478,0 -4.63855,-1.51487 -7.85618,-4.32148l-0.52551,-0.45798l0.53725,-0.63413c2.21946,-2.6246 5.89507,-8.21434 7.55966,-11.49656l0.32881,-0.64587l0.1556,0.37578c0.08514,0.20551 0.39046,1.1567 0.67817,2.11377M2920.71495,674.42312c2.8213,0.50202 6.41177,0.86019 9.90242,0.98936l2.21065,0.0822l-1.51193,1.70276c-3.05029,3.429 -6.15929,5.84516 -8.63416,6.70535c-1.97579,0.68698 -2.83304,0.34349 -3.49946,-1.40918c-0.50496,-1.32698 -0.57248,-4.19818 -0.1644,-6.86682c0.22606,-1.47377 0.24073,-1.51193 0.49321,-1.43854c0.11156,0.03229 0.65468,0.13798 1.20367,0.23486" className="SFSymbolsPreviewWireframe"/></g>
  <g id="Regular-S"><path d="M1435.79182,631.63103c-5.6514,1.48257 -7.74462,8.00884 -5.73066,17.86429c0.06165,0.29064 0.01761,0.32 -0.9101,0.63413c-5.45176,1.84074 -9.38279,4.69139 -10.85362,7.87379c-1.85542,4.0191 -0.1967,8.2026 4.51231,11.36738c1.30056,0.87487 3.9046,2.14606 5.71892,2.79194c0.77505,0.27596 1.42386,0.51083 1.44147,0.51964c0.02055,0.01174 -0.07046,0.62239 -0.20257,1.35927c-0.8778,4.99378 -0.5578,8.91893 0.97468,11.90463c0.35229,0.68698 0.73688,1.19487 1.42386,1.88478c3.89873,3.91635 9.8349,2.75964 16.47566,-3.21176l0.97175,-0.87487l0.61358,0.57542c3.08845,2.89175 6.84626,5.0114 10.04334,5.66901c1.68514,0.34349 3.78423,0.03817 5.3402,-0.77798c4.14534,-2.18129 5.67195,-7.89141 4.24809,-15.87969c-0.1556,-0.86899 -0.27009,-1.5912 -0.25541,-1.60588c0.01468,-0.01468 0.4756,-0.18202 1.02459,-0.37285c7.38939,-2.56588 11.5083,-6.56443 11.5083,-11.17068c0,-2.5835 -1.46496,-5.12883 -4.16589,-7.23379c-1.94349,-1.51193 -4.87928,-3.01506 -7.57728,-3.87818c-0.35523,-0.11156 -0.66055,-0.21725 -0.67523,-0.22899c-0.01761,-0.01468 0.04697,-0.4433 0.14385,-0.95413c0.52551,-2.77432 0.66642,-5.96259 0.35817,-8.09104c-0.41688,-2.87708 -1.20074,-4.62974 -2.76258,-6.17984c-3.15304,-3.12662 -7.7593,-2.91818 -12.99675,0.58716c-1.37395,0.9189 -2.75084,2.01982 -3.81653,3.04442l-0.55193,0.52844l-0.78973,-0.72514c-2.43377,-2.2312 -5.69543,-4.2569 -8.14976,-5.0613c-1.84368,-0.60771 -3.88992,-0.74276 -5.36075,-0.35817M1438.95367,637.4439c0.88954,0.23193 2.60992,1.10386 3.85176,1.9523c0.91303,0.62532 3.27928,2.52478 3.27928,2.6334c0,0.02349 -0.25541,0.34936 -0.56661,0.72514c-2.25762,2.71561 -5.34608,7.42462 -7.4804,11.40261l-0.33174,0.61945l-0.21725,-0.56074c-0.33468,-0.86606 -1.09211,-3.47304 -1.42973,-4.90864c-1.21542,-5.19341 -1.13615,-9.66169 0.19376,-11.27637c0.62532,-0.75743 1.39744,-0.92477 2.70093,-0.58716M1463.00367,637.53784c0.21725,0.14679 0.5167,0.44624 0.66349,0.66349c0.84257,1.24771 1.05982,4.30681 0.55193,7.74168c-0.09982,0.68698 -0.22018,1.28588 -0.26422,1.32991c-0.04404,0.04404 -0.34349,0.02936 -0.66642,-0.03229c-2.73322,-0.53138 -5.98901,-0.8778 -9.94352,-1.06569c-2.85065,-0.13505 -2.89763,-0.14092 -2.73909,-0.36991c0.50496,-0.71927 2.95928,-3.3057 4.15414,-4.37726c1.74092,-1.55891 3.17946,-2.59818 4.5358,-3.27341c1.80258,-0.89542 2.99744,-1.09505 3.7079,-0.61652M1453.12767,652.02597l1.44441,0.07927l1.13028,1.7145c0.97762,1.48845 2.38386,3.96625 3.00625,5.29617l0.19376,0.41395l-0.66936,1.46496c-1.01872,2.2312 -2.93873,5.79232 -4.11304,7.64186l-0.49321,0.77211l-1.26533,0.07927c-1.62643,0.09982 -5.15525,0.09982 -6.3325,0l-0.91597,-0.07927l-1.12734,-1.7145c-0.98055,-1.49138 -2.3868,-3.96625 -3.01212,-5.2991l-0.19376,-0.41688l0.60477,-1.34459c1.00991,-2.24588 2.92111,-5.78938 4.18937,-7.7681l0.50202,-0.78973l1.0334,-0.03817c2.12845,-0.0822 4.62094,-0.08514 6.01837,-0.01174M1464.19853,653.42341c7.31306,1.63524 12.68555,4.92039 11.96628,7.32186c-0.45505,1.5178 -3.1824,3.47891 -6.59379,4.73837c-1.53542,0.56954 -1.64404,0.5989 -1.64404,0.4345c0,-0.24367 -1.52074,-4.17763 -2.29872,-5.94791c-0.41395,-0.94532 -1.35927,-2.89763 -2.10203,-4.34203c-0.73982,-1.44147 -1.3123,-2.62166 -1.2712,-2.62166c0.0411,0 0.91597,0.18789 1.94349,0.41688M1431.98116,656.26525c1.16257,3.30864 2.37799,6.10351 4.18937,9.63527l1.34459,2.61873l-0.4433,-0.07927c-3.79304,-0.66642 -8.77508,-2.45139 -10.96224,-3.93102c-1.59413,-1.07744 -2.68918,-2.41616 -2.68625,-3.28221c0.00587,-1.2301 1.75267,-2.8712 4.5035,-4.23341c1.13028,-0.56074 3.39377,-1.48257 3.71378,-1.51487c0.03523,-0.00294 0.18495,0.35229 0.34055,0.78679M1448.25719,657.45425c-1.36514,0.65468 -2.08735,1.82606 -2.0756,3.37322c0.00587,1.40331 0.88954,2.70386 2.23414,3.29983c0.57542,0.25541 0.78679,0.28771 1.60294,0.24367c1.09505,-0.05872 1.64698,-0.29651 2.37799,-1.02753c0.89248,-0.89248 1.28881,-2.12551 1.03633,-3.21469c-0.5578,-2.40148 -3.05322,-3.69029 -5.1758,-2.67451M1462.8099,669.17686c1.40624,4.66791 1.96698,8.73691 1.58533,11.50536c-0.32587,2.34863 -1.16257,3.55818 -2.46313,3.56111c-1.88478,0 -4.63855,-1.51487 -7.85618,-4.32148l-0.52551,-0.45798l0.53725,-0.63413c2.21946,-2.6246 5.89507,-8.21434 7.55966,-11.49656l0.32881,-0.64587l0.1556,0.37578c0.08514,0.20551 0.39046,1.1567 0.67817,2.11377M1437.1599,674.42312c2.8213,0.50202 6.41177,0.86019 9.90242,0.98936l2.21065,0.0822l-1.51193,1.70276c-3.05029,3.429 -6.15929,5.84516 -8.63416,6.70535c-1.97579,0.68698 -2.83304,0.34349 -3.49946,-1.40918c-0.50496,-1.32698 -0.57248,-4.19818 -0.1644,-6.86682c0.22606,-1.47377 0.24073,-1.51193 0.49321,-1.43854c0.11156,0.03229 0.65468,0.13798 1.20367,0.23486" className="SFSymbolsPreviewWireframe"/></g>
  <g id="Ultralight-S"><path d="M545.65823,631.63103c-5.6514,1.48257 -7.74462,8.00884 -5.73066,17.86429c0.06165,0.29064 0.01761,0.32 -0.9101,0.63413c-5.45176,1.84074 -9.38279,4.69139 -10.85362,7.87379c-1.85542,4.0191 -0.1967,8.2026 4.51231,11.36738c1.30056,0.87487 3.9046,2.14606 5.71892,2.79194c0.77505,0.27596 1.42386,0.51083 1.44147,0.51964c0.02055,0.01174 -0.07046,0.62239 -0.20257,1.35927c-0.8778,4.99378 -0.5578,8.91893 0.97468,11.90463c0.35229,0.68698 0.73688,1.19487 1.42386,1.88478c3.89873,3.91635 9.8349,2.75964 16.47566,-3.21176l0.97175,-0.87487l0.61358,0.57542c3.08845,2.89175 6.84626,5.0114 10.04334,5.66901c1.68514,0.34349 3.78423,0.03817 5.3402,-0.77798c4.14534,-2.18129 5.67195,-7.89141 4.24809,-15.87969c-0.1556,-0.86899 -0.27009,-1.5912 -0.25541,-1.60588c0.01468,-0.01468 0.4756,-0.18202 1.02459,-0.37285c7.38939,-2.56588 11.5083,-6.56443 11.5083,-11.17068c0,-2.5835 -1.46496,-5.12883 -4.16589,-7.23379c-1.94349,-1.51193 -4.87928,-3.01506 -7.57728,-3.87818c-0.35523,-0.11156 -0.66055,-0.21725 -0.67523,-0.22899c-0.01761,-0.01468 0.04697,-0.4433 0.14385,-0.95413c0.52551,-2.77432 0.66642,-5.96259 0.35817,-8.09104c-0.41688,-2.87708 -1.20074,-4.62974 -2.76258,-6.17984c-3.15304,-3.12662 -7.7593,-2.91818 -12.99675,0.58716c-1.37395,0.9189 -2.75084,2.01982 -3.81653,3.04442l-0.55193,0.52844l-0.78973,-0.72514c-2.43377,-2.2312 -5.69543,-4.2569 -8.14976,-5.0613c-1.84368,-0.60771 -3.88992,-0.74276 -5.36075,-0.35817M548.82008,637.4439c0.88954,0.23193 2.60992,1.10386 3.85176,1.9523c0.91303,0.62532 3.27928,2.52478 3.27928,2.6334c0,0.02349 -0.25541,0.34936 -0.56661,0.72514c-2.25762,2.71561 -5.34608,7.42462 -7.4804,11.40261l-0.33174,0.61945l-0.21725,-0.56074c-0.33468,-0.86606 -1.09211,-3.47304 -1.42973,-4.90864c-1.21542,-5.19341 -1.13615,-9.66169 0.19376,-11.27637c0.62532,-0.75743 1.39744,-0.92477 2.70093,-0.58716M572.87008,637.53784c0.21725,0.14679 0.5167,0.44624 0.66349,0.66349c0.84257,1.24771 1.05982,4.30681 0.55193,7.74168c-0.09982,0.68698 -0.22018,1.28588 -0.26422,1.32991c-0.04404,0.04404 -0.34349,0.02936 -0.66642,-0.03229c-2.73322,-0.53138 -5.98901,-0.8778 -9.94352,-1.06569c-2.85065,-0.13505 -2.89763,-0.14092 -2.73909,-0.36991c0.50496,-0.71927 2.95928,-3.3057 4.15414,-4.37726c1.74092,-1.55891 3.17946,-2.59818 4.5358,-3.27341c1.80258,-0.89542 2.99744,-1.09505 3.7079,-0.61652M562.99407,652.02597l1.44441,0.07927l1.13028,1.7145c0.97762,1.48845 2.38386,3.96625 3.00625,5.29617l0.19376,0.41395l-0.66936,1.46496c-1.01872,2.2312 -2.93873,5.79232 -4.11304,7.64186l-0.49321,0.77211l-1.26533,0.07927c-1.62643,0.09982 -5.15525,0.09982 -6.3325,0l-0.91597,-0.07927l-1.12734,-1.7145c-0.98055,-1.49138 -2.3868,-3.96625 -3.01212,-5.2991l-0.19376,-0.41688l0.60477,-1.34459c1.00991,-2.24588 2.92111,-5.78938 4.18937,-7.7681l0.50202,-0.78973l1.0334,-0.03817c2.12845,-0.0822 4.62094,-0.08514 6.01837,-0.01174M574.06494,653.42341c7.31306,1.63524 12.68555,4.92039 11.96628,7.32186c-0.45505,1.5178 -3.1824,3.47891 -6.59379,4.73837c-1.53542,0.56954 -1.64404,0.5989 -1.64404,0.4345c0,-0.24367 -1.52074,-4.17763 -2.29872,-5.94791c-0.41395,-0.94532 -1.35927,-2.89763 -2.10203,-4.34203c-0.73982,-1.44147 -1.3123,-2.62166 -1.2712,-2.62166c0.0411,0 0.91597,0.18789 1.94349,0.41688M541.84757,656.26525c1.16257,3.30864 2.37799,6.10351 4.18937,9.63527l1.34459,2.61873l-0.4433,-0.07927c-3.79304,-0.66642 -8.77508,-2.45139 -10.96224,-3.93102c-1.59413,-1.07744 -2.68918,-2.41616 -2.68625,-3.28221c0.00587,-1.2301 1.75267,-2.8712 4.5035,-4.23341c1.13028,-0.56074 3.39377,-1.48257 3.71378,-1.51487c0.03523,-0.00294 0.18495,0.35229 0.34055,0.78679M558.1236,657.45425c-1.36514,0.65468 -2.08735,1.82606 -2.0756,3.37322c0.00587,1.40331 0.88954,2.70386 2.23414,3.29983c0.57542,0.25541 0.78679,0.28771 1.60294,0.24367c1.09505,-0.05872 1.64698,-0.29651 2.37799,-1.02753c0.89248,-0.89248 1.28881,-2.12551 1.03633,-3.21469c-0.5578,-2.40148 -3.05322,-3.69029 -5.1758,-2.67451M572.67631,669.17686c1.40624,4.66791 1.96698,8.73691 1.58533,11.50536c-0.32587,2.34863 -1.16257,3.55818 -2.46313,3.56111c-1.88478,0 -4.63855,-1.51487 -7.85618,-4.32148l-0.52551,-0.45798l0.53725,-0.63413c2.21946,-2.6246 5.89507,-8.21434 7.55966,-11.49656l0.32881,-0.64587l0.1556,0.37578c0.08514,0.20551 0.39046,1.1567 0.67817,2.11377M547.02631,674.42312c2.8213,0.50202 6.41177,0.86019 9.90242,0.98936l2.21065,0.0822l-1.51193,1.70276c-3.05029,3.429 -6.15929,5.84516 -8.63416,6.70535c-1.97579,0.68698 -2.83304,0.34349 -3.49946,-1.40918c-0.50496,-1.32698 -0.57248,-4.19818 -0.1644,-6.86682c0.22606,-1.47377 0.24073,-1.51193 0.49321,-1.43854c0.11156,0.03229 0.65468,0.13798 1.20367,0.23486" className="SFSymbolsPreviewWireframe"/></g>
 </g>
</svg>