<?xml version="1.0" encoding="UTF-8"?><!--Generator: https://SymbolKit.app--><!DOCTYPE svg PUBLIC "-//W3C//DTD SVG 1.1//EN" "http://www.w3.org/Graphics/SVG/1.1/DTD/svg11.dtd"><svg xmlns="http://www.w3.org/2000/svg" xmlns:xlink="http://www.w3.org/1999/xlink" version="1.1" viewBox="0 0 3300 2200">
 <!--glyph: "100092", point size: 100.0, font version: "20.0d10e1", template writer version: "138.0.0"-->
 <style>.SFSymbolsPreviewWireframe {fill:none;opacity:1.0;stroke:black;stroke-width:0.5}
</style>
 <g id="Notes">
  <rect height="2200" id="artboard" style="fill:white;opacity:1" width="3300" x="0" y="0"/>
  <line style="fill:none;stroke:black;opacity:1;stroke-width:0.5;" x1="263" x2="3036" y1="292" y2="292"/>
  <text style="stroke:none;fill:black;font-family:sans-serif;font-size:13;font-weight:bold;" transform="matrix(1 0 0 1 263 322)">Weight/Scale Variations</text>
  <text style="stroke:none;fill:black;font-family:sans-serif;font-size:13;text-anchor:middle;" transform="matrix(1 0 0 1 559.711 322)">Ultralight</text>
  <text style="stroke:none;fill:black;font-family:sans-serif;font-size:13;text-anchor:middle;" transform="matrix(1 0 0 1 856.422 322)">Thin</text>
  <text style="stroke:none;fill:black;font-family:sans-serif;font-size:13;text-anchor:middle;" transform="matrix(1 0 0 1 1153.13 322)">Light</text>
  <text style="stroke:none;fill:black;font-family:sans-serif;font-size:13;text-anchor:middle;" transform="matrix(1 0 0 1 1449.84 322)">Regular</text>
  <text style="stroke:none;fill:black;font-family:sans-serif;font-size:13;text-anchor:middle;" transform="matrix(1 0 0 1 1746.56 322)">Medium</text>
  <text style="stroke:none;fill:black;font-family:sans-serif;font-size:13;text-anchor:middle;" transform="matrix(1 0 0 1 2043.27 322)">Semibold</text>
  <text style="stroke:none;fill:black;font-family:sans-serif;font-size:13;text-anchor:middle;" transform="matrix(1 0 0 1 2339.98 322)">Bold</text>
  <text style="stroke:none;fill:black;font-family:sans-serif;font-size:13;text-anchor:middle;" transform="matrix(1 0 0 1 2636.69 322)">Heavy</text>
  <text style="stroke:none;fill:black;font-family:sans-serif;font-size:13;text-anchor:middle;" transform="matrix(1 0 0 1 2933.4 322)">Black</text>
  <line style="fill:none;stroke:black;opacity:1;stroke-width:0.5;" x1="263" x2="3036" y1="1903" y2="1903"/>
  <g transform="matrix(0.2 0 0 0.2 263 1933)">
   <path d="m46.2402 4.15039c21.7773 0 39.4531-17.627 39.4531-39.4043s-17.6758-39.4043-39.4531-39.4043c-21.7285 0-39.4043 17.627-39.4043 39.4043s17.6758 39.4043 39.4043 39.4043Zm0-7.42188c-17.6758 0-31.9336-14.3066-31.9336-31.9824s14.2578-31.9824 31.9336-31.9824 31.9824 14.3066 31.9824 31.9824-14.3066 31.9824-31.9824 31.9824Zm-17.9688-31.9824c0 2.14844 1.51367 3.61328 3.75977 3.61328h10.498v10.5957c0 2.19727 1.46484 3.71094 3.61328 3.71094 2.24609 0 3.71094-1.51367 3.71094-3.71094v-10.5957h10.5957c2.19727 0 3.71094-1.46484 3.71094-3.61328 0-2.19727-1.51367-3.71094-3.71094-3.71094h-10.5957v-10.5469c0-2.24609-1.46484-3.75977-3.71094-3.75977-2.14844 0-3.61328 1.51367-3.61328 3.75977v10.5469h-10.498c-2.24609 0-3.75977 1.51367-3.75977 3.71094Z"/>
  </g>
  <g transform="matrix(0.2 0 0 0.2 281.506 1933)">
   <path d="m58.5449 14.5508c27.4902 0 49.8047-22.3145 49.8047-49.8047s-22.3145-49.8047-49.8047-49.8047-49.8047 22.3145-49.8047 49.8047 22.3145 49.8047 49.8047 49.8047Zm0-8.30078c-22.9492 0-41.5039-18.5547-41.5039-41.5039s18.5547-41.5039 41.5039-41.5039 41.5039 18.5547 41.5039 41.5039-18.5547 41.5039-41.5039 41.5039Zm-22.6562-41.5039c0 2.39258 1.66016 4.00391 4.15039 4.00391h14.3555v14.4043c0 2.44141 1.66016 4.15039 4.05273 4.15039 2.44141 0 4.15039-1.66016 4.15039-4.15039v-14.4043h14.4043c2.44141 0 4.15039-1.61133 4.15039-4.00391 0-2.44141-1.70898-4.15039-4.15039-4.15039h-14.4043v-14.3555c0-2.49023-1.70898-4.19922-4.15039-4.19922-2.39258 0-4.05273 1.70898-4.05273 4.19922v14.3555h-14.3555c-2.49023 0-4.15039 1.70898-4.15039 4.15039Z"/>
  </g>
  <g transform="matrix(0.2 0 0 0.2 304.924 1933)">
   <path d="m74.8535 28.3203c35.1074 0 63.623-28.4668 63.623-63.5742s-28.5156-63.623-63.623-63.623-63.5742 28.5156-63.5742 63.623 28.4668 63.5742 63.5742 63.5742Zm0-9.08203c-30.127 0-54.4922-24.3652-54.4922-54.4922s24.3652-54.4922 54.4922-54.4922 54.4922 24.3652 54.4922 54.4922-24.3652 54.4922-54.4922 54.4922Zm-28.8574-54.4922c0 2.58789 1.85547 4.39453 4.58984 4.39453h19.7266v19.7754c0 2.68555 1.85547 4.58984 4.44336 4.58984 2.68555 0 4.54102-1.85547 4.54102-4.58984v-19.7754h19.7754c2.68555 0 4.58984-1.80664 4.58984-4.39453 0-2.73438-1.85547-4.58984-4.58984-4.58984h-19.7754v-19.7266c0-2.73438-1.85547-4.63867-4.54102-4.63867-2.58789 0-4.44336 1.9043-4.44336 4.63867v19.7266h-19.7266c-2.73438 0-4.58984 1.85547-4.58984 4.58984Z"/>
  </g>
  <text style="stroke:none;fill:black;font-family:sans-serif;font-size:13;font-weight:bold;" transform="matrix(1 0 0 1 263 1953)">Design Variations</text>
  <text style="stroke:none;fill:black;font-family:sans-serif;font-size:13;" transform="matrix(1 0 0 1 263 1971)">Symbols are supported in up to nine weights and three scales.</text>
  <text style="stroke:none;fill:black;font-family:sans-serif;font-size:13;" transform="matrix(1 0 0 1 263 1989)">For optimal layout with text and other symbols, vertically align</text>
  <text style="stroke:none;fill:black;font-family:sans-serif;font-size:13;" transform="matrix(1 0 0 1 263 2007)">symbols with the adjacent text.</text>
  <line style="fill:none;stroke:#00AEEF;stroke-width:0.5;opacity:1.0;" x1="776" x2="776" y1="1919" y2="1933"/>
  <g transform="matrix(0.2 0 0 0.2 776 1933)">
   <path d="m16.5527 0.78125c2.58789 0 3.85742-0.976562 4.78516-3.71094l6.29883-17.2363h28.8086l6.29883 17.2363c0.927734 2.73438 2.19727 3.71094 4.73633 3.71094 2.58789 0 4.24805-1.5625 4.24805-4.00391 0-0.830078-0.146484-1.61133-0.537109-2.63672l-22.9004-60.9863c-1.12305-2.97852-3.125-4.49219-6.25-4.49219-3.02734 0-5.07812 1.46484-6.15234 4.44336l-22.9004 61.084c-0.390625 1.02539-0.537109 1.80664-0.537109 2.63672 0 2.44141 1.5625 3.95508 4.10156 3.95508Zm13.4766-28.3691 11.8652-32.8613h0.244141l11.8652 32.8613Z"/>
  </g>
  <line style="fill:none;stroke:#00AEEF;stroke-width:0.5;opacity:1.0;" x1="792.836" x2="792.836" y1="1919" y2="1933"/>
  <text style="stroke:none;fill:black;font-family:sans-serif;font-size:13;font-weight:bold;" transform="matrix(1 0 0 1 776 1953)">Margins</text>
  <text style="stroke:none;fill:black;font-family:sans-serif;font-size:13;" transform="matrix(1 0 0 1 776 1971)">Leading and trailing margins on the left and right side of each symbol</text>
  <text style="stroke:none;fill:black;font-family:sans-serif;font-size:13;" transform="matrix(1 0 0 1 776 1989)">can be adjusted by modifying the x-location of the margin guidelines.</text>
  <text style="stroke:none;fill:black;font-family:sans-serif;font-size:13;" transform="matrix(1 0 0 1 776 2007)">Modifications are automatically applied proportionally to all</text>
  <text style="stroke:none;fill:black;font-family:sans-serif;font-size:13;" transform="matrix(1 0 0 1 776 2025)">scales and weights.</text>
  <g transform="matrix(0.2 0 0 0.2 1289 1933)">
   <path d="m14.209 9.32617 8.49609 8.54492c4.29688 4.3457 9.22852 4.05273 13.8672-1.07422l53.4668-58.9355-4.83398-4.88281-53.0762 58.3984c-1.75781 2.00195-3.41797 2.49023-5.76172 0.146484l-5.85938-5.81055c-2.34375-2.29492-1.80664-4.00391 0.195312-5.81055l57.373-54.0039-4.88281-4.83398-57.959 54.4434c-4.93164 4.58984-5.32227 9.47266-1.02539 13.8184Zm32.0801-90.9668c-2.09961 2.05078-2.24609 4.93164-1.07422 6.88477 1.17188 1.80664 3.4668 2.97852 6.68945 2.14844 7.32422-1.70898 14.9414-2.00195 22.0703 2.68555l-2.92969 7.27539c-1.70898 4.15039-0.830078 7.08008 1.85547 9.81445l11.4746 11.5723c2.44141 2.44141 4.49219 2.53906 7.32422 2.05078l5.32227-0.976562 3.32031 3.36914-0.195312 2.7832c-0.195312 2.49023 0.439453 4.39453 2.88086 6.78711l3.80859 3.71094c2.39258 2.39258 5.46875 2.53906 7.8125 0.195312l14.5508-14.5996c2.34375-2.34375 2.24609-5.32227-0.146484-7.71484l-3.85742-3.80859c-2.39258-2.39258-4.24805-3.17383-6.64062-2.97852l-2.88086 0.244141-3.22266-3.17383 1.2207-5.61523c0.634766-2.83203-0.146484-5.0293-3.07617-7.95898l-10.9863-10.9375c-16.6992-16.6016-38.8672-16.2109-53.3203-1.75781Zm7.4707 1.85547c12.1582-8.88672 28.6133-7.37305 39.7461 3.75977l12.1582 12.0605c1.17188 1.17188 1.36719 2.09961 1.02539 3.80859l-1.61133 7.42188 7.51953 7.42188 4.93164-0.292969c1.26953-0.0488281 1.66016 0.0488281 2.63672 1.02539l2.88086 2.88086-12.207 12.207-2.88086-2.88086c-0.976562-0.976562-1.12305-1.36719-1.07422-2.68555l0.341797-4.88281-7.4707-7.42188-7.61719 1.26953c-1.61133 0.341797-2.34375 0.195312-3.56445-0.976562l-10.0098-10.0098c-1.26953-1.17188-1.41602-2.00195-0.634766-3.85742l4.39453-10.4492c-7.8125-7.27539-17.9688-10.4004-28.125-7.42188-0.78125 0.195312-1.07422-0.439453-0.439453-0.976562Z"/>
  </g>
  <text style="stroke:none;fill:black;font-family:sans-serif;font-size:13;font-weight:bold;" transform="matrix(1 0 0 1 1289 1953)">Exporting</text>
  <text style="stroke:none;fill:black;font-family:sans-serif;font-size:13;" transform="matrix(1 0 0 1 1289 1971)">Symbols should be outlined when exporting to ensure the</text>
  <text style="stroke:none;fill:black;font-family:sans-serif;font-size:13;" transform="matrix(1 0 0 1 1289 1989)">design is preserved when submitting to Xcode.</text>
  <text id="template-version" style="stroke:none;fill:black;font-family:sans-serif;font-size:13;text-anchor:end;" transform="matrix(1 0 0 1 3036 1933)">Template v.6.0</text>
  <text style="stroke:none;fill:black;font-family:sans-serif;font-size:13;text-anchor:end;" transform="matrix(1 0 0 1 3036 1951)">Requires Xcode 16 or greater</text>
  <text id="descriptive-name" style="stroke:none;fill:black;font-family:sans-serif;font-size:13;text-anchor:end;" transform="matrix(1 0 0 1 3036 1969)">Generated from square</text>
  <text style="stroke:none;fill:black;font-family:sans-serif;font-size:13;text-anchor:end;" transform="matrix(1 0 0 1 3036 1987)">Typeset at 100.0 points</text>
  <text style="stroke:none;fill:black;font-family:sans-serif;font-size:13;" transform="matrix(1 0 0 1 263 726)">Small</text>
  <text style="stroke:none;fill:black;font-family:sans-serif;font-size:13;" transform="matrix(1 0 0 1 263 1156)">Medium</text>
  <text style="stroke:none;fill:black;font-family:sans-serif;font-size:13;" transform="matrix(1 0 0 1 263 1586)">Large</text>
 </g>
 <g id="Guides">
  <g id="H-reference" style="fill:#27AAE1;stroke:none;" transform="matrix(1 0 0 1 339 696)">
   <path d="M0.993654 0L3.63775 0L29.3281-67.1323L30.0303-67.1323L30.0303-70.459L28.1226-70.459ZM11.6885-24.4799L46.9815-24.4799L46.2315-26.7285L12.4385-26.7285ZM55.1196 0L57.7637 0L30.6382-70.459L29.4326-70.459L29.4326-67.1323Z"/>
  </g>
  <line id="Baseline-S" style="fill:none;stroke:#27AAE1;opacity:1;stroke-width:0.5;" x1="263" x2="3036" y1="696" y2="696"/>
  <line id="Capline-S" style="fill:none;stroke:#27AAE1;opacity:1;stroke-width:0.5;" x1="263" x2="3036" y1="625.541" y2="625.541"/>
  <g id="H-reference" style="fill:#27AAE1;stroke:none;" transform="matrix(1 0 0 1 339 1126)">
   <path d="M0.993654 0L3.63775 0L29.3281-67.1323L30.0303-67.1323L30.0303-70.459L28.1226-70.459ZM11.6885-24.4799L46.9815-24.4799L46.2315-26.7285L12.4385-26.7285ZM55.1196 0L57.7637 0L30.6382-70.459L29.4326-70.459L29.4326-67.1323Z"/>
  </g>
  <line id="Baseline-M" style="fill:none;stroke:#27AAE1;opacity:1;stroke-width:0.5;" x1="263" x2="3036" y1="1126" y2="1126"/>
  <line id="Capline-M" style="fill:none;stroke:#27AAE1;opacity:1;stroke-width:0.5;" x1="263" x2="3036" y1="1055.54" y2="1055.54"/>
  <g id="H-reference" style="fill:#27AAE1;stroke:none;" transform="matrix(1 0 0 1 339 1556)">
   <path d="M0.993654 0L3.63775 0L29.3281-67.1323L30.0303-67.1323L30.0303-70.459L28.1226-70.459ZM11.6885-24.4799L46.9815-24.4799L46.2315-26.7285L12.4385-26.7285ZM55.1196 0L57.7637 0L30.6382-70.459L29.4326-70.459L29.4326-67.1323Z"/>
  </g>
  <line id="Baseline-L" style="fill:none;stroke:#27AAE1;opacity:1;stroke-width:0.5;" x1="263" x2="3036" y1="1556" y2="1556"/>
  <line id="Capline-L" style="fill:none;stroke:#27AAE1;opacity:1;stroke-width:0.5;" x1="263" x2="3036" y1="1485.54" y2="1485.54"/>
  <line id="right-margin-Black-S" style="fill:none;stroke:#00AEEF;stroke-width:0.5;opacity:1.0;" x1="2981.3" x2="2981.3" y1="600.785" y2="720.121"/>
  <line id="left-margin-Black-S" style="fill:none;stroke:#00AEEF;stroke-width:0.5;opacity:1.0;" x1="2885.5" x2="2885.5" y1="600.785" y2="720.121"/>
  <line id="right-margin-Regular-S" style="fill:none;stroke:#00AEEF;stroke-width:0.5;opacity:1.0;" x1="1495.18" x2="1495.18" y1="600.785" y2="720.121"/>
  <line id="left-margin-Regular-S" style="fill:none;stroke:#00AEEF;stroke-width:0.5;opacity:1.0;" x1="1404.51" x2="1404.51" y1="600.785" y2="720.121"/>
  <line id="right-margin-Ultralight-S" style="fill:none;stroke:#00AEEF;stroke-width:0.5;opacity:1.0;" x1="603.073" x2="603.073" y1="600.785" y2="720.121"/>
  <line id="left-margin-Ultralight-S" style="fill:none;stroke:#00AEEF;stroke-width:0.5;opacity:1.0;" x1="516.35" x2="516.35" y1="600.785" y2="720.121"/>
 </g>
 <g id="Symbols">
  <g id="Black-S"><path d="M2940.67677,631.54016c-1.41212,0.27303 -3.27341,1.56184 -4.43892,3.07377c-3.38203,4.38314 -3.74901,12.44775 -0.95413,20.97916c0.93358,2.85065 1.36221,3.81946 1.9112,4.32736c1.08331,0.99817 1.95524,1.05688 4.82057,0.32881c4.31268,-1.09799 8.25838,-2.73909 11.04445,-4.59158c4.34497,-2.88588 6.53801,-6.27672 6.72003,-10.38683c0.14973,-3.32038 -0.79266,-5.87745 -2.95634,-8.04407c-1.12734,-1.12734 -1.92588,-1.66459 -3.20001,-2.15487c-0.70753,-0.27009 -0.95707,-0.30239 -2.31927,-0.29945c-1.08331,0 -1.66166,0.05284 -1.99047,0.18202l-0.46679,0.17908l-0.5167,-0.63413c-1.89359,-2.32515 -4.90277,-3.48772 -7.65361,-2.95928M2915.5464,634.47889c-3.20001,0.49028 -6.06241,2.47781 -7.34828,5.09653c-0.28477,0.58129 -0.5989,1.37101 -0.69578,1.7556c-0.24954,0.9923 -0.22606,2.35157 0.05578,3.25286c0.12917,0.41101 0.23486,0.75156 0.23486,0.75743c0.00294,0.00587 -0.30826,0.25835 -0.68991,0.5578c-2.32808,1.82606 -3.51708,5.00846 -2.88588,7.69764c0.30532,1.29468 0.91597,2.29872 2.1079,3.47598c2.63634,2.60405 6.56149,3.81946 11.80482,3.658c4.18937,-0.12917 8.10572,-0.98643 12.75895,-2.79194c1.3534,-0.52551 1.95817,-1.05101 2.32808,-2.01982c0.28184,-0.73395 0.20257,-1.50606 -0.39633,-3.83708c-1.52074,-5.9303 -3.78717,-10.58059 -6.61434,-13.56629c-1.87891,-1.98459 -3.92222,-3.26166 -6.08002,-3.80479c-1.17138,-0.29358 -3.43488,-0.40807 -4.57983,-0.23193M2943.16632,637.70532c0.61652,0.39633 1.36221,1.55891 1.88184,2.92405c0.65762,1.73505 1.58826,2.53065 2.95341,2.52772c1.14496,0 2.28992,-0.78092 2.76552,-1.88184c0.14092,-0.32881 0.33468,-0.62532 0.43156,-0.66349c0.26716,-0.10275 1.03046,0.28771 1.49725,0.76624c0.81321,0.8367 1.34166,2.49542 1.20661,3.80185c-0.32,3.1002 -3.1912,5.68076 -8.76627,7.87673c-1.28588,0.50789 -3.6257,1.25652 -3.92515,1.25652c-0.22312,0 -1.12734,-3.35267 -1.53835,-5.69543c-0.26129,-1.49138 -0.35523,-4.69433 -0.17908,-6.09177c0.30532,-2.4279 1.16257,-4.40075 2.18129,-5.02607c0.42275,-0.26129 0.86606,-0.19963 1.49138,0.20551M2918.6554,640.40038c3.22937,0.84257 6.27379,5.28442 8.13508,11.87234l0.2378,0.8367l-1.189,0.3611c-3.47304,1.05395 -5.40186,1.36514 -8.47269,1.36514c-2.72441,-0.00294 -3.87524,-0.20844 -5.52809,-0.99523c-1.0745,-0.51376 -1.92881,-1.31817 -1.92881,-1.82019c0,-0.45505 0.40514,-1.1567 0.92477,-1.60294c0.51964,-0.4433 1.86423,-1.13615 2.81836,-1.44734c0.73688,-0.24073 1.45322,-0.83964 1.81138,-1.5178c0.35523,-0.67523 0.35229,-1.93175 -0.00881,-2.61285c-0.31707,-0.60184 -0.98349,-1.18019 -1.67927,-1.45028c-0.60184,-0.23486 -0.69285,-0.48441 -0.39633,-1.10679c0.73982,-1.55891 3.17653,-2.4279 5.27562,-1.88184M2926.64369,660.8922c-0.25835,0.06165 -0.94532,0.22312 -1.52661,0.3611c-4.45653,1.04808 -8.86022,2.90056 -11.88995,5.00259c-2.11083,1.46202 -4.11304,3.63451 -5.03195,5.46057c-1.49432,2.96808 -1.60881,6.4881 -0.30826,9.58242c0.49321,1.17138 1.12147,2.07267 2.20184,3.1501c0.77798,0.77505 1.15964,1.05395 2.06093,1.49725c1.33578,0.65468 2.23414,0.89542 3.33799,0.89542c0.7222,0 1.69102,-0.17028 2.29872,-0.40807c0.12624,-0.04991 0.35817,0.14679 0.76037,0.65175c1.50312,1.87303 3.8635,3.03854 6.15929,3.04148c2.74203,0 5.23745,-1.75267 6.85214,-4.81176c2.52184,-4.7824 2.43083,-12.06023 -0.25248,-19.96338c-1.0745,-3.16772 -1.38863,-3.71965 -2.42203,-4.25103c-0.53138,-0.27303 -1.55891,-0.36991 -2.24001,-0.20844M2946.31349,660.95678c-3.31744,0.3611 -6.7259,1.2301 -10.41031,2.65102c-1.3534,0.52257 -1.95817,1.04514 -2.32808,2.01689c-0.28184,0.73395 -0.20257,1.509 0.39927,3.83708c1.54716,6.0125 3.8224,10.66573 6.66718,13.63088c2.21946,2.31047 4.33323,3.49359 7.1281,3.98974c1.0745,0.19083 3.26754,0.07927 4.44185,-0.22899c2.05212,-0.53431 3.38497,-1.29468 4.86167,-2.77432c1.51487,-1.51487 2.39267,-3.52589 2.39267,-5.47231c0,-0.57248 -0.08514,-1.17432 -0.23193,-1.64698c-0.12917,-0.41101 -0.23486,-0.75156 -0.23486,-0.75743c-0.00294,-0.00587 0.32,-0.27009 0.7134,-0.58422c1.8701,-1.50019 3.03561,-3.8635 3.03854,-6.15635c0,-2.82423 -1.91707,-5.45176 -5.10534,-6.99012c-3.05322,-1.47377 -6.93727,-1.9934 -11.33215,-1.51487M2951.48048,666.76084c2.23707,0.28477 4.05139,0.99523 4.91158,1.92881c0.55486,0.60184 0.60477,0.90716 0.26129,1.57946c-0.4345,0.85432 -1.40918,1.52368 -3.17065,2.17836c-1.74092,0.64881 -2.40735,1.45909 -2.40735,2.9446c0,1.31523 0.62826,2.21065 1.94349,2.77726c0.57248,0.24367 0.59597,0.27303 0.53725,0.63413c-0.26716,1.65285 -2.89175,2.88001 -5.15525,2.40735c-3.34093,-0.69285 -6.48516,-5.16112 -8.3993,-11.93986l-0.2378,-0.8367l1.189,-0.3611c2.1901,-0.66349 4.65616,-1.17725 6.47635,-1.34753c0.97762,-0.09101 3.20588,-0.07046 4.05139,0.03523M2926.69947,670.57737c0.60184,2.51304 0.76037,3.79598 0.7545,6.16516c-0.00881,2.63047 -0.26422,4.08956 -0.98643,5.58681c-0.52257,1.08331 -1.32404,1.92881 -1.829,1.92881c-1.08037,0 -2.31634,-1.52074 -3.04442,-3.74313c-0.86899,-2.66276 -4.34497,-2.81249 -5.53397,-0.2378c-0.32587,0.70165 -0.33762,0.7134 -0.73101,0.65175c-0.86019,-0.14092 -1.85248,-1.22129 -2.21946,-2.41322c-0.27596,-0.90129 -0.27303,-2.57469 0.00881,-3.3791c1.03927,-2.99451 5.06718,-5.71599 11.23527,-7.59489l1.35046,-0.41101l0.32881,1.01872c0.17908,0.56074 0.48147,1.65285 0.66642,2.4279" className="SFSymbolsPreviewWireframe"/></g>
  <g id="Regular-S"><path d="M1457.12172,631.54016c-1.41212,0.27303 -3.27341,1.56184 -4.43892,3.07377c-3.38203,4.38314 -3.74901,12.44775 -0.95413,20.97916c0.93358,2.85065 1.36221,3.81946 1.9112,4.32736c1.08331,0.99817 1.95524,1.05688 4.82057,0.32881c4.31268,-1.09799 8.25838,-2.73909 11.04445,-4.59158c4.34497,-2.88588 6.53801,-6.27672 6.72003,-10.38683c0.14973,-3.32038 -0.79266,-5.87745 -2.95634,-8.04407c-1.12734,-1.12734 -1.92588,-1.66459 -3.20001,-2.15487c-0.70753,-0.27009 -0.95707,-0.30239 -2.31927,-0.29945c-1.08331,0 -1.66166,0.05284 -1.99047,0.18202l-0.46679,0.17908l-0.5167,-0.63413c-1.89359,-2.32515 -4.90277,-3.48772 -7.65361,-2.95928M1431.99135,634.47889c-3.20001,0.49028 -6.06241,2.47781 -7.34828,5.09653c-0.28477,0.58129 -0.5989,1.37101 -0.69578,1.7556c-0.24954,0.9923 -0.22606,2.35157 0.05578,3.25286c0.12917,0.41101 0.23486,0.75156 0.23486,0.75743c0.00294,0.00587 -0.30826,0.25835 -0.68991,0.5578c-2.32808,1.82606 -3.51708,5.00846 -2.88588,7.69764c0.30532,1.29468 0.91597,2.29872 2.1079,3.47598c2.63634,2.60405 6.56149,3.81946 11.80482,3.658c4.18937,-0.12917 8.10572,-0.98643 12.75895,-2.79194c1.3534,-0.52551 1.95817,-1.05101 2.32808,-2.01982c0.28184,-0.73395 0.20257,-1.50606 -0.39633,-3.83708c-1.52074,-5.9303 -3.78717,-10.58059 -6.61434,-13.56629c-1.87891,-1.98459 -3.92222,-3.26166 -6.08002,-3.80479c-1.17138,-0.29358 -3.43488,-0.40807 -4.57983,-0.23193M1459.61127,637.70532c0.61652,0.39633 1.36221,1.55891 1.88184,2.92405c0.65762,1.73505 1.58826,2.53065 2.95341,2.52772c1.14496,0 2.28992,-0.78092 2.76552,-1.88184c0.14092,-0.32881 0.33468,-0.62532 0.43156,-0.66349c0.26716,-0.10275 1.03046,0.28771 1.49725,0.76624c0.81321,0.8367 1.34166,2.49542 1.20661,3.80185c-0.32,3.1002 -3.1912,5.68076 -8.76627,7.87673c-1.28588,0.50789 -3.6257,1.25652 -3.92515,1.25652c-0.22312,0 -1.12734,-3.35267 -1.53835,-5.69543c-0.26129,-1.49138 -0.35523,-4.69433 -0.17908,-6.09177c0.30532,-2.4279 1.16257,-4.40075 2.18129,-5.02607c0.42275,-0.26129 0.86606,-0.19963 1.49138,0.20551M1435.10035,640.40038c3.22937,0.84257 6.27379,5.28442 8.13508,11.87234l0.2378,0.8367l-1.189,0.3611c-3.47304,1.05395 -5.40186,1.36514 -8.47269,1.36514c-2.72441,-0.00294 -3.87524,-0.20844 -5.52809,-0.99523c-1.0745,-0.51376 -1.92881,-1.31817 -1.92881,-1.82019c0,-0.45505 0.40514,-1.1567 0.92477,-1.60294c0.51964,-0.4433 1.86423,-1.13615 2.81836,-1.44734c0.73688,-0.24073 1.45322,-0.83964 1.81138,-1.5178c0.35523,-0.67523 0.35229,-1.93175 -0.00881,-2.61285c-0.31707,-0.60184 -0.98349,-1.18019 -1.67927,-1.45028c-0.60184,-0.23486 -0.69285,-0.48441 -0.39633,-1.10679c0.73982,-1.55891 3.17653,-2.4279 5.27562,-1.88184M1443.08864,660.8922c-0.25835,0.06165 -0.94532,0.22312 -1.52661,0.3611c-4.45653,1.04808 -8.86022,2.90056 -11.88995,5.00259c-2.11083,1.46202 -4.11304,3.63451 -5.03195,5.46057c-1.49432,2.96808 -1.60881,6.4881 -0.30826,9.58242c0.49321,1.17138 1.12147,2.07267 2.20184,3.1501c0.77798,0.77505 1.15964,1.05395 2.06093,1.49725c1.33578,0.65468 2.23414,0.89542 3.33799,0.89542c0.7222,0 1.69102,-0.17028 2.29872,-0.40807c0.12624,-0.04991 0.35817,0.14679 0.76037,0.65175c1.50312,1.87303 3.8635,3.03854 6.15929,3.04148c2.74203,0 5.23745,-1.75267 6.85214,-4.81176c2.52184,-4.7824 2.43083,-12.06023 -0.25248,-19.96338c-1.0745,-3.16772 -1.38863,-3.71965 -2.42203,-4.25103c-0.53138,-0.27303 -1.55891,-0.36991 -2.24001,-0.20844M1462.75844,660.95678c-3.31744,0.3611 -6.7259,1.2301 -10.41031,2.65102c-1.3534,0.52257 -1.95817,1.04514 -2.32808,2.01689c-0.28184,0.73395 -0.20257,1.509 0.39927,3.83708c1.54716,6.0125 3.8224,10.66573 6.66718,13.63088c2.21946,2.31047 4.33323,3.49359 7.1281,3.98974c1.0745,0.19083 3.26754,0.07927 4.44185,-0.22899c2.05212,-0.53431 3.38497,-1.29468 4.86167,-2.77432c1.51487,-1.51487 2.39267,-3.52589 2.39267,-5.47231c0,-0.57248 -0.08514,-1.17432 -0.23193,-1.64698c-0.12917,-0.41101 -0.23486,-0.75156 -0.23486,-0.75743c-0.00294,-0.00587 0.32,-0.27009 0.7134,-0.58422c1.8701,-1.50019 3.03561,-3.8635 3.03854,-6.15635c0,-2.82423 -1.91707,-5.45176 -5.10534,-6.99012c-3.05322,-1.47377 -6.93727,-1.9934 -11.33215,-1.51487M1467.92543,666.76084c2.23707,0.28477 4.05139,0.99523 4.91158,1.92881c0.55486,0.60184 0.60477,0.90716 0.26129,1.57946c-0.4345,0.85432 -1.40918,1.52368 -3.17065,2.17836c-1.74092,0.64881 -2.40735,1.45909 -2.40735,2.9446c0,1.31523 0.62826,2.21065 1.94349,2.77726c0.57248,0.24367 0.59597,0.27303 0.53725,0.63413c-0.26716,1.65285 -2.89175,2.88001 -5.15525,2.40735c-3.34093,-0.69285 -6.48516,-5.16112 -8.3993,-11.93986l-0.2378,-0.8367l1.189,-0.3611c2.1901,-0.66349 4.65616,-1.17725 6.47635,-1.34753c0.97762,-0.09101 3.20588,-0.07046 4.05139,0.03523M1443.14442,670.57737c0.60184,2.51304 0.76037,3.79598 0.7545,6.16516c-0.00881,2.63047 -0.26422,4.08956 -0.98643,5.58681c-0.52257,1.08331 -1.32404,1.92881 -1.829,1.92881c-1.08037,0 -2.31634,-1.52074 -3.04442,-3.74313c-0.86899,-2.66276 -4.34497,-2.81249 -5.53397,-0.2378c-0.32587,0.70165 -0.33762,0.7134 -0.73101,0.65175c-0.86019,-0.14092 -1.85248,-1.22129 -2.21946,-2.41322c-0.27596,-0.90129 -0.27303,-2.57469 0.00881,-3.3791c1.03927,-2.99451 5.06718,-5.71599 11.23527,-7.59489l1.35046,-0.41101l0.32881,1.01872c0.17908,0.56074 0.48147,1.65285 0.66642,2.4279" className="SFSymbolsPreviewWireframe"/></g>
  <g id="Ultralight-S"><path d="M566.98813,631.54016c-1.41212,0.27303 -3.27341,1.56184 -4.43892,3.07377c-3.38203,4.38314 -3.74901,12.44775 -0.95413,20.97916c0.93358,2.85065 1.36221,3.81946 1.9112,4.32736c1.08331,0.99817 1.95524,1.05688 4.82057,0.32881c4.31268,-1.09799 8.25838,-2.73909 11.04445,-4.59158c4.34497,-2.88588 6.53801,-6.27672 6.72003,-10.38683c0.14973,-3.32038 -0.79266,-5.87745 -2.95634,-8.04407c-1.12734,-1.12734 -1.92588,-1.66459 -3.20001,-2.15487c-0.70753,-0.27009 -0.95707,-0.30239 -2.31927,-0.29945c-1.08331,0 -1.66166,0.05284 -1.99047,0.18202l-0.46679,0.17908l-0.5167,-0.63413c-1.89359,-2.32515 -4.90277,-3.48772 -7.65361,-2.95928M541.85776,634.47889c-3.20001,0.49028 -6.06241,2.47781 -7.34828,5.09653c-0.28477,0.58129 -0.5989,1.37101 -0.69578,1.7556c-0.24954,0.9923 -0.22606,2.35157 0.05578,3.25286c0.12917,0.41101 0.23486,0.75156 0.23486,0.75743c0.00294,0.00587 -0.30826,0.25835 -0.68991,0.5578c-2.32808,1.82606 -3.51708,5.00846 -2.88588,7.69764c0.30532,1.29468 0.91597,2.29872 2.1079,3.47598c2.63634,2.60405 6.56149,3.81946 11.80482,3.658c4.18937,-0.12917 8.10572,-0.98643 12.75895,-2.79194c1.3534,-0.52551 1.95817,-1.05101 2.32808,-2.01982c0.28184,-0.73395 0.20257,-1.50606 -0.39633,-3.83708c-1.52074,-5.9303 -3.78717,-10.58059 -6.61434,-13.56629c-1.87891,-1.98459 -3.92222,-3.26166 -6.08002,-3.80479c-1.17138,-0.29358 -3.43488,-0.40807 -4.57983,-0.23193M569.47768,637.70532c0.61652,0.39633 1.36221,1.55891 1.88184,2.92405c0.65762,1.73505 1.58826,2.53065 2.95341,2.52772c1.14496,0 2.28992,-0.78092 2.76552,-1.88184c0.14092,-0.32881 0.33468,-0.62532 0.43156,-0.66349c0.26716,-0.10275 1.03046,0.28771 1.49725,0.76624c0.81321,0.8367 1.34166,2.49542 1.20661,3.80185c-0.32,3.1002 -3.1912,5.68076 -8.76627,7.87673c-1.28588,0.50789 -3.6257,1.25652 -3.92515,1.25652c-0.22312,0 -1.12734,-3.35267 -1.53835,-5.69543c-0.26129,-1.49138 -0.35523,-4.69433 -0.17908,-6.09177c0.30532,-2.4279 1.16257,-4.40075 2.18129,-5.02607c0.42275,-0.26129 0.86606,-0.19963 1.49138,0.20551M544.96676,640.40038c3.22937,0.84257 6.27379,5.28442 8.13508,11.87234l0.2378,0.8367l-1.189,0.3611c-3.47304,1.05395 -5.40186,1.36514 -8.47269,1.36514c-2.72441,-0.00294 -3.87524,-0.20844 -5.52809,-0.99523c-1.0745,-0.51376 -1.92881,-1.31817 -1.92881,-1.82019c0,-0.45505 0.40514,-1.1567 0.92477,-1.60294c0.51964,-0.4433 1.86423,-1.13615 2.81836,-1.44734c0.73688,-0.24073 1.45322,-0.83964 1.81138,-1.5178c0.35523,-0.67523 0.35229,-1.93175 -0.00881,-2.61285c-0.31707,-0.60184 -0.98349,-1.18019 -1.67927,-1.45028c-0.60184,-0.23486 -0.69285,-0.48441 -0.39633,-1.10679c0.73982,-1.55891 3.17653,-2.4279 5.27562,-1.88184M552.95505,660.8922c-0.25835,0.06165 -0.94532,0.22312 -1.52661,0.3611c-4.45653,1.04808 -8.86022,2.90056 -11.88995,5.00259c-2.11083,1.46202 -4.11304,3.63451 -5.03195,5.46057c-1.49432,2.96808 -1.60881,6.4881 -0.30826,9.58242c0.49321,1.17138 1.12147,2.07267 2.20184,3.1501c0.77798,0.77505 1.15964,1.05395 2.06093,1.49725c1.33578,0.65468 2.23414,0.89542 3.33799,0.89542c0.7222,0 1.69102,-0.17028 2.29872,-0.40807c0.12624,-0.04991 0.35817,0.14679 0.76037,0.65175c1.50313,1.87303 3.8635,3.03854 6.15929,3.04148c2.74203,0 5.23745,-1.75267 6.85214,-4.81176c2.52184,-4.7824 2.43083,-12.06023 -0.25248,-19.96338c-1.0745,-3.16772 -1.38863,-3.71965 -2.42203,-4.25103c-0.53138,-0.27303 -1.55891,-0.36991 -2.24001,-0.20844M572.62485,660.95678c-3.31744,0.3611 -6.7259,1.2301 -10.41031,2.65102c-1.3534,0.52257 -1.95817,1.04514 -2.32808,2.01689c-0.28184,0.73395 -0.20257,1.509 0.39927,3.83708c1.54716,6.0125 3.8224,10.66573 6.66718,13.63088c2.21946,2.31047 4.33323,3.49359 7.1281,3.98974c1.0745,0.19083 3.26754,0.07927 4.44185,-0.22899c2.05212,-0.53431 3.38497,-1.29468 4.86167,-2.77432c1.51487,-1.51487 2.39267,-3.52589 2.39267,-5.47231c0,-0.57248 -0.08514,-1.17432 -0.23193,-1.64698c-0.12917,-0.41101 -0.23486,-0.75156 -0.23486,-0.75743c-0.00294,-0.00587 0.32,-0.27009 0.7134,-0.58422c1.8701,-1.50019 3.03561,-3.8635 3.03854,-6.15635c0,-2.82423 -1.91707,-5.45176 -5.10534,-6.99012c-3.05322,-1.47377 -6.93727,-1.9934 -11.33215,-1.51487M577.79184,666.76084c2.23707,0.28477 4.05139,0.99523 4.91158,1.92881c0.55486,0.60184 0.60477,0.90716 0.26129,1.57946c-0.4345,0.85432 -1.40918,1.52368 -3.17065,2.17836c-1.74092,0.64881 -2.40735,1.45909 -2.40735,2.9446c0,1.31523 0.62826,2.21065 1.94349,2.77726c0.57248,0.24367 0.59597,0.27303 0.53725,0.63413c-0.26716,1.65285 -2.89175,2.88001 -5.15525,2.40735c-3.34093,-0.69285 -6.48516,-5.16112 -8.3993,-11.93986l-0.2378,-0.8367l1.189,-0.3611c2.1901,-0.66349 4.65616,-1.17725 6.47635,-1.34753c0.97762,-0.09101 3.20588,-0.07046 4.05139,0.03523M553.01083,670.57737c0.60184,2.51304 0.76037,3.79598 0.7545,6.16516c-0.00881,2.63047 -0.26422,4.08956 -0.98643,5.58681c-0.52257,1.08331 -1.32404,1.92881 -1.829,1.92881c-1.08037,0 -2.31634,-1.52074 -3.04442,-3.74313c-0.86899,-2.66276 -4.34497,-2.81249 -5.53397,-0.2378c-0.32587,0.70165 -0.33762,0.7134 -0.73101,0.65175c-0.86019,-0.14092 -1.85248,-1.22129 -2.21946,-2.41322c-0.27596,-0.90129 -0.27303,-2.57469 0.00881,-3.3791c1.03927,-2.99451 5.06718,-5.71599 11.23527,-7.59489l1.35046,-0.41101l0.32881,1.01872c0.17908,0.56074 0.48147,1.65285 0.66642,2.4279" className="SFSymbolsPreviewWireframe"/></g>
 </g>
</svg>