<?xml version="1.0" encoding="UTF-8"?><!--Generator: https://SymbolKit.app--><!DOCTYPE svg PUBLIC "-//W3C//DTD SVG 1.1//EN" "http://www.w3.org/Graphics/SVG/1.1/DTD/svg11.dtd"><svg xmlns="http://www.w3.org/2000/svg" xmlns:xlink="http://www.w3.org/1999/xlink" version="1.1" viewBox="0 0 3300 2200">
 <!--glyph: "100092", point size: 100.0, font version: "20.0d10e1", template writer version: "138.0.0"-->
 <style>.SFSymbolsPreviewWireframe {fill:none;opacity:1.0;stroke:black;stroke-width:0.5}
</style>
 <g id="Notes">
  <rect height="2200" id="artboard" style="fill:white;opacity:1" width="3300" x="0" y="0"/>
  <line style="fill:none;stroke:black;opacity:1;stroke-width:0.5;" x1="263" x2="3036" y1="292" y2="292"/>
  <text style="stroke:none;fill:black;font-family:sans-serif;font-size:13;font-weight:bold;" transform="matrix(1 0 0 1 263 322)">Weight/Scale Variations</text>
  <text style="stroke:none;fill:black;font-family:sans-serif;font-size:13;text-anchor:middle;" transform="matrix(1 0 0 1 559.711 322)">Ultralight</text>
  <text style="stroke:none;fill:black;font-family:sans-serif;font-size:13;text-anchor:middle;" transform="matrix(1 0 0 1 856.422 322)">Thin</text>
  <text style="stroke:none;fill:black;font-family:sans-serif;font-size:13;text-anchor:middle;" transform="matrix(1 0 0 1 1153.13 322)">Light</text>
  <text style="stroke:none;fill:black;font-family:sans-serif;font-size:13;text-anchor:middle;" transform="matrix(1 0 0 1 1449.84 322)">Regular</text>
  <text style="stroke:none;fill:black;font-family:sans-serif;font-size:13;text-anchor:middle;" transform="matrix(1 0 0 1 1746.56 322)">Medium</text>
  <text style="stroke:none;fill:black;font-family:sans-serif;font-size:13;text-anchor:middle;" transform="matrix(1 0 0 1 2043.27 322)">Semibold</text>
  <text style="stroke:none;fill:black;font-family:sans-serif;font-size:13;text-anchor:middle;" transform="matrix(1 0 0 1 2339.98 322)">Bold</text>
  <text style="stroke:none;fill:black;font-family:sans-serif;font-size:13;text-anchor:middle;" transform="matrix(1 0 0 1 2636.69 322)">Heavy</text>
  <text style="stroke:none;fill:black;font-family:sans-serif;font-size:13;text-anchor:middle;" transform="matrix(1 0 0 1 2933.4 322)">Black</text>
  <line style="fill:none;stroke:black;opacity:1;stroke-width:0.5;" x1="263" x2="3036" y1="1903" y2="1903"/>
  <g transform="matrix(0.2 0 0 0.2 263 1933)">
   <path d="m46.2402 4.15039c21.7773 0 39.4531-17.627 39.4531-39.4043s-17.6758-39.4043-39.4531-39.4043c-21.7285 0-39.4043 17.627-39.4043 39.4043s17.6758 39.4043 39.4043 39.4043Zm0-7.42188c-17.6758 0-31.9336-14.3066-31.9336-31.9824s14.2578-31.9824 31.9336-31.9824 31.9824 14.3066 31.9824 31.9824-14.3066 31.9824-31.9824 31.9824Zm-17.9688-31.9824c0 2.14844 1.51367 3.61328 3.75977 3.61328h10.498v10.5957c0 2.19727 1.46484 3.71094 3.61328 3.71094 2.24609 0 3.71094-1.51367 3.71094-3.71094v-10.5957h10.5957c2.19727 0 3.71094-1.46484 3.71094-3.61328 0-2.19727-1.51367-3.71094-3.71094-3.71094h-10.5957v-10.5469c0-2.24609-1.46484-3.75977-3.71094-3.75977-2.14844 0-3.61328 1.51367-3.61328 3.75977v10.5469h-10.498c-2.24609 0-3.75977 1.51367-3.75977 3.71094Z"/>
  </g>
  <g transform="matrix(0.2 0 0 0.2 281.506 1933)">
   <path d="m58.5449 14.5508c27.4902 0 49.8047-22.3145 49.8047-49.8047s-22.3145-49.8047-49.8047-49.8047-49.8047 22.3145-49.8047 49.8047 22.3145 49.8047 49.8047 49.8047Zm0-8.30078c-22.9492 0-41.5039-18.5547-41.5039-41.5039s18.5547-41.5039 41.5039-41.5039 41.5039 18.5547 41.5039 41.5039-18.5547 41.5039-41.5039 41.5039Zm-22.6562-41.5039c0 2.39258 1.66016 4.00391 4.15039 4.00391h14.3555v14.4043c0 2.44141 1.66016 4.15039 4.05273 4.15039 2.44141 0 4.15039-1.66016 4.15039-4.15039v-14.4043h14.4043c2.44141 0 4.15039-1.61133 4.15039-4.00391 0-2.44141-1.70898-4.15039-4.15039-4.15039h-14.4043v-14.3555c0-2.49023-1.70898-4.19922-4.15039-4.19922-2.39258 0-4.05273 1.70898-4.05273 4.19922v14.3555h-14.3555c-2.49023 0-4.15039 1.70898-4.15039 4.15039Z"/>
  </g>
  <g transform="matrix(0.2 0 0 0.2 304.924 1933)">
   <path d="m74.8535 28.3203c35.1074 0 63.623-28.4668 63.623-63.5742s-28.5156-63.623-63.623-63.623-63.5742 28.5156-63.5742 63.623 28.4668 63.5742 63.5742 63.5742Zm0-9.08203c-30.127 0-54.4922-24.3652-54.4922-54.4922s24.3652-54.4922 54.4922-54.4922 54.4922 24.3652 54.4922 54.4922-24.3652 54.4922-54.4922 54.4922Zm-28.8574-54.4922c0 2.58789 1.85547 4.39453 4.58984 4.39453h19.7266v19.7754c0 2.68555 1.85547 4.58984 4.44336 4.58984 2.68555 0 4.54102-1.85547 4.54102-4.58984v-19.7754h19.7754c2.68555 0 4.58984-1.80664 4.58984-4.39453 0-2.73438-1.85547-4.58984-4.58984-4.58984h-19.7754v-19.7266c0-2.73438-1.85547-4.63867-4.54102-4.63867-2.58789 0-4.44336 1.9043-4.44336 4.63867v19.7266h-19.7266c-2.73438 0-4.58984 1.85547-4.58984 4.58984Z"/>
  </g>
  <text style="stroke:none;fill:black;font-family:sans-serif;font-size:13;font-weight:bold;" transform="matrix(1 0 0 1 263 1953)">Design Variations</text>
  <text style="stroke:none;fill:black;font-family:sans-serif;font-size:13;" transform="matrix(1 0 0 1 263 1971)">Symbols are supported in up to nine weights and three scales.</text>
  <text style="stroke:none;fill:black;font-family:sans-serif;font-size:13;" transform="matrix(1 0 0 1 263 1989)">For optimal layout with text and other symbols, vertically align</text>
  <text style="stroke:none;fill:black;font-family:sans-serif;font-size:13;" transform="matrix(1 0 0 1 263 2007)">symbols with the adjacent text.</text>
  <line style="fill:none;stroke:#00AEEF;stroke-width:0.5;opacity:1.0;" x1="776" x2="776" y1="1919" y2="1933"/>
  <g transform="matrix(0.2 0 0 0.2 776 1933)">
   <path d="m16.5527 0.78125c2.58789 0 3.85742-0.976562 4.78516-3.71094l6.29883-17.2363h28.8086l6.29883 17.2363c0.927734 2.73438 2.19727 3.71094 4.73633 3.71094 2.58789 0 4.24805-1.5625 4.24805-4.00391 0-0.830078-0.146484-1.61133-0.537109-2.63672l-22.9004-60.9863c-1.12305-2.97852-3.125-4.49219-6.25-4.49219-3.02734 0-5.07812 1.46484-6.15234 4.44336l-22.9004 61.084c-0.390625 1.02539-0.537109 1.80664-0.537109 2.63672 0 2.44141 1.5625 3.95508 4.10156 3.95508Zm13.4766-28.3691 11.8652-32.8613h0.244141l11.8652 32.8613Z"/>
  </g>
  <line style="fill:none;stroke:#00AEEF;stroke-width:0.5;opacity:1.0;" x1="792.836" x2="792.836" y1="1919" y2="1933"/>
  <text style="stroke:none;fill:black;font-family:sans-serif;font-size:13;font-weight:bold;" transform="matrix(1 0 0 1 776 1953)">Margins</text>
  <text style="stroke:none;fill:black;font-family:sans-serif;font-size:13;" transform="matrix(1 0 0 1 776 1971)">Leading and trailing margins on the left and right side of each symbol</text>
  <text style="stroke:none;fill:black;font-family:sans-serif;font-size:13;" transform="matrix(1 0 0 1 776 1989)">can be adjusted by modifying the x-location of the margin guidelines.</text>
  <text style="stroke:none;fill:black;font-family:sans-serif;font-size:13;" transform="matrix(1 0 0 1 776 2007)">Modifications are automatically applied proportionally to all</text>
  <text style="stroke:none;fill:black;font-family:sans-serif;font-size:13;" transform="matrix(1 0 0 1 776 2025)">scales and weights.</text>
  <g transform="matrix(0.2 0 0 0.2 1289 1933)">
   <path d="m14.209 9.32617 8.49609 8.54492c4.29688 4.3457 9.22852 4.05273 13.8672-1.07422l53.4668-58.9355-4.83398-4.88281-53.0762 58.3984c-1.75781 2.00195-3.41797 2.49023-5.76172 0.146484l-5.85938-5.81055c-2.34375-2.29492-1.80664-4.00391 0.195312-5.81055l57.373-54.0039-4.88281-4.83398-57.959 54.4434c-4.93164 4.58984-5.32227 9.47266-1.02539 13.8184Zm32.0801-90.9668c-2.09961 2.05078-2.24609 4.93164-1.07422 6.88477 1.17188 1.80664 3.4668 2.97852 6.68945 2.14844 7.32422-1.70898 14.9414-2.00195 22.0703 2.68555l-2.92969 7.27539c-1.70898 4.15039-0.830078 7.08008 1.85547 9.81445l11.4746 11.5723c2.44141 2.44141 4.49219 2.53906 7.32422 2.05078l5.32227-0.976562 3.32031 3.36914-0.195312 2.7832c-0.195312 2.49023 0.439453 4.39453 2.88086 6.78711l3.80859 3.71094c2.39258 2.39258 5.46875 2.53906 7.8125 0.195312l14.5508-14.5996c2.34375-2.34375 2.24609-5.32227-0.146484-7.71484l-3.85742-3.80859c-2.39258-2.39258-4.24805-3.17383-6.64062-2.97852l-2.88086 0.244141-3.22266-3.17383 1.2207-5.61523c0.634766-2.83203-0.146484-5.0293-3.07617-7.95898l-10.9863-10.9375c-16.6992-16.6016-38.8672-16.2109-53.3203-1.75781Zm7.4707 1.85547c12.1582-8.88672 28.6133-7.37305 39.7461 3.75977l12.1582 12.0605c1.17188 1.17188 1.36719 2.09961 1.02539 3.80859l-1.61133 7.42188 7.51953 7.42188 4.93164-0.292969c1.26953-0.0488281 1.66016 0.0488281 2.63672 1.02539l2.88086 2.88086-12.207 12.207-2.88086-2.88086c-0.976562-0.976562-1.12305-1.36719-1.07422-2.68555l0.341797-4.88281-7.4707-7.42188-7.61719 1.26953c-1.61133 0.341797-2.34375 0.195312-3.56445-0.976562l-10.0098-10.0098c-1.26953-1.17188-1.41602-2.00195-0.634766-3.85742l4.39453-10.4492c-7.8125-7.27539-17.9688-10.4004-28.125-7.42188-0.78125 0.195312-1.07422-0.439453-0.439453-0.976562Z"/>
  </g>
  <text style="stroke:none;fill:black;font-family:sans-serif;font-size:13;font-weight:bold;" transform="matrix(1 0 0 1 1289 1953)">Exporting</text>
  <text style="stroke:none;fill:black;font-family:sans-serif;font-size:13;" transform="matrix(1 0 0 1 1289 1971)">Symbols should be outlined when exporting to ensure the</text>
  <text style="stroke:none;fill:black;font-family:sans-serif;font-size:13;" transform="matrix(1 0 0 1 1289 1989)">design is preserved when submitting to Xcode.</text>
  <text id="template-version" style="stroke:none;fill:black;font-family:sans-serif;font-size:13;text-anchor:end;" transform="matrix(1 0 0 1 3036 1933)">Template v.6.0</text>
  <text style="stroke:none;fill:black;font-family:sans-serif;font-size:13;text-anchor:end;" transform="matrix(1 0 0 1 3036 1951)">Requires Xcode 16 or greater</text>
  <text id="descriptive-name" style="stroke:none;fill:black;font-family:sans-serif;font-size:13;text-anchor:end;" transform="matrix(1 0 0 1 3036 1969)">Generated from square</text>
  <text style="stroke:none;fill:black;font-family:sans-serif;font-size:13;text-anchor:end;" transform="matrix(1 0 0 1 3036 1987)">Typeset at 100.0 points</text>
  <text style="stroke:none;fill:black;font-family:sans-serif;font-size:13;" transform="matrix(1 0 0 1 263 726)">Small</text>
  <text style="stroke:none;fill:black;font-family:sans-serif;font-size:13;" transform="matrix(1 0 0 1 263 1156)">Medium</text>
  <text style="stroke:none;fill:black;font-family:sans-serif;font-size:13;" transform="matrix(1 0 0 1 263 1586)">Large</text>
 </g>
 <g id="Guides">
  <g id="H-reference" style="fill:#27AAE1;stroke:none;" transform="matrix(1 0 0 1 339 696)">
   <path d="M0.993654 0L3.63775 0L29.3281-67.1323L30.0303-67.1323L30.0303-70.459L28.1226-70.459ZM11.6885-24.4799L46.9815-24.4799L46.2315-26.7285L12.4385-26.7285ZM55.1196 0L57.7637 0L30.6382-70.459L29.4326-70.459L29.4326-67.1323Z"/>
  </g>
  <line id="Baseline-S" style="fill:none;stroke:#27AAE1;opacity:1;stroke-width:0.5;" x1="263" x2="3036" y1="696" y2="696"/>
  <line id="Capline-S" style="fill:none;stroke:#27AAE1;opacity:1;stroke-width:0.5;" x1="263" x2="3036" y1="625.541" y2="625.541"/>
  <g id="H-reference" style="fill:#27AAE1;stroke:none;" transform="matrix(1 0 0 1 339 1126)">
   <path d="M0.993654 0L3.63775 0L29.3281-67.1323L30.0303-67.1323L30.0303-70.459L28.1226-70.459ZM11.6885-24.4799L46.9815-24.4799L46.2315-26.7285L12.4385-26.7285ZM55.1196 0L57.7637 0L30.6382-70.459L29.4326-70.459L29.4326-67.1323Z"/>
  </g>
  <line id="Baseline-M" style="fill:none;stroke:#27AAE1;opacity:1;stroke-width:0.5;" x1="263" x2="3036" y1="1126" y2="1126"/>
  <line id="Capline-M" style="fill:none;stroke:#27AAE1;opacity:1;stroke-width:0.5;" x1="263" x2="3036" y1="1055.54" y2="1055.54"/>
  <g id="H-reference" style="fill:#27AAE1;stroke:none;" transform="matrix(1 0 0 1 339 1556)">
   <path d="M0.993654 0L3.63775 0L29.3281-67.1323L30.0303-67.1323L30.0303-70.459L28.1226-70.459ZM11.6885-24.4799L46.9815-24.4799L46.2315-26.7285L12.4385-26.7285ZM55.1196 0L57.7637 0L30.6382-70.459L29.4326-70.459L29.4326-67.1323Z"/>
  </g>
  <line id="Baseline-L" style="fill:none;stroke:#27AAE1;opacity:1;stroke-width:0.5;" x1="263" x2="3036" y1="1556" y2="1556"/>
  <line id="Capline-L" style="fill:none;stroke:#27AAE1;opacity:1;stroke-width:0.5;" x1="263" x2="3036" y1="1485.54" y2="1485.54"/>
  <line id="right-margin-Black-S" style="fill:none;stroke:#00AEEF;stroke-width:0.5;opacity:1.0;" x1="2981.3" x2="2981.3" y1="600.785" y2="720.121"/>
  <line id="left-margin-Black-S" style="fill:none;stroke:#00AEEF;stroke-width:0.5;opacity:1.0;" x1="2885.5" x2="2885.5" y1="600.785" y2="720.121"/>
  <line id="right-margin-Regular-S" style="fill:none;stroke:#00AEEF;stroke-width:0.5;opacity:1.0;" x1="1495.18" x2="1495.18" y1="600.785" y2="720.121"/>
  <line id="left-margin-Regular-S" style="fill:none;stroke:#00AEEF;stroke-width:0.5;opacity:1.0;" x1="1404.51" x2="1404.51" y1="600.785" y2="720.121"/>
  <line id="right-margin-Ultralight-S" style="fill:none;stroke:#00AEEF;stroke-width:0.5;opacity:1.0;" x1="603.073" x2="603.073" y1="600.785" y2="720.121"/>
  <line id="left-margin-Ultralight-S" style="fill:none;stroke:#00AEEF;stroke-width:0.5;opacity:1.0;" x1="516.35" x2="516.35" y1="600.785" y2="720.121"/>
 </g>
 <g id="Symbols">
  <g id="Black-S"><path d="M2923.03317,631.62229c-1.96992,0.5167 -3.63745,2.20184 -4.16002,4.21286c-0.09688,0.36991 -0.17615,0.91597 -0.17615,1.21542c0,1.20367 -0.55486,2.22533 -1.51487,2.789c-0.53138,0.31119 -0.58129,0.31707 -3.24111,0.39046c-2.38093,0.06459 -2.81249,0.10569 -3.64332,0.35523c-2.80662,0.84257 -5.04662,3.09139 -5.94498,5.9714l-0.27596,0.88074v14.79639v14.79639l0.27596,0.88074c0.89248,2.86533 3.03854,5.03195 5.94791,6.00663l0.82202,0.27596l15.71235,0.03229c10.42793,0.02055 15.86208,-0.00881 16.15859,-0.08807c0.65175,-0.17615 1.35927,-0.73688 1.73505,-1.37689c0.28477,-0.48441 0.33174,-0.68991 0.33174,-1.44441c0,-0.74569 -0.04991,-0.96294 -0.31707,-1.42092c-0.32587,-0.55193 -0.88074,-1.05101 -1.46496,-1.30936c-0.25835,-0.1145 -3.78423,-0.15853 -15.83272,-0.20551l-15.50098,-0.05872l-0.54019,-0.31707c-0.29651,-0.17321 -0.6811,-0.50496 -0.85432,-0.73101c-0.69285,-0.90716 -0.66055,-0.17908 -0.66055,-14.97547c0,-15.2162 -0.04697,-14.36189 0.83083,-15.26905c0.78973,-0.81321 0.99817,-0.86019 4.04258,-0.9512c2.32515,-0.06752 2.81542,-0.1145 3.52295,-0.34055c3.43488,-1.09211 5.92149,-4.11304 6.23562,-7.57141l0.07927,-0.88661h8.77508h8.77508l0.07927,0.88661c0.31413,3.45836 2.80074,6.47929 6.23562,7.57141c0.70753,0.22606 1.1978,0.27303 3.52295,0.34055c3.04442,0.09101 3.25286,0.13798 4.04258,0.9512c0.79266,0.81909 0.83083,1.08331 0.83083,5.80112c0.00294,4.08662 0.00587,4.12479 0.2789,4.70607c0.53138,1.12147 1.4679,1.72625 2.6657,1.72625c0.84844,0 1.56478,-0.31413 2.11671,-0.92477c0.82789,-0.9189 0.83083,-0.9512 0.78386,-6.27085c-0.0411,-4.5769 -0.05284,-4.77653 -0.31413,-5.5692c-0.94239,-2.8712 -3.16185,-5.07892 -5.93911,-5.91268c-0.83083,-0.24954 -1.26239,-0.29064 -3.64332,-0.35523c-2.65983,-0.07339 -2.70974,-0.07927 -3.24111,-0.39046c-0.93652,-0.55193 -1.51193,-1.56184 -1.5178,-2.66276c0,-0.73982 -0.28771,-1.89652 -0.64,-2.58937c-0.39633,-0.78386 -1.42092,-1.86129 -2.24294,-2.3545c-1.37689,-0.82789 -1.11854,-0.81028 -11.79307,-0.81028c-8.66939,0 -9.64407,0.01761 -10.34279,0.19963M2931.76714,649.14016c-1.66753,0.23486 -3.60809,0.99817 -5.09947,2.00221c-0.9512,0.64294 -2.3868,2.07854 -2.97983,2.9857c-1.49138,2.27817 -2.16074,4.67084 -2.01982,7.21617c0.43156,7.79746 8.0881,13.02904 15.41877,10.53362c1.60001,-0.54312 2.6657,-1.19193 3.09139,-1.87891c1.18606,-1.91707 -0.19963,-4.42424 -2.45139,-4.43304c-0.38165,-0.00294 -0.87193,0.0822 -1.13322,0.19376c-1.98166,0.86019 -2.94166,1.03046 -4.298,0.76624c-1.70276,-0.33174 -3.45249,-1.64111 -4.13359,-3.1002c-1.65285,-3.52295 0.13798,-7.38058 3.87818,-8.35526c0.85725,-0.22312 1.65872,-0.22018 2.60698,0.00294c2.21065,0.51964 3.80772,2.06386 4.35671,4.20992c0.50496,1.96698 0.7956,2.44258 1.7967,2.94166c1.09211,0.54312 2.3457,0.37285 3.23231,-0.44037c1.02753,-0.94239 1.20074,-1.95817 0.67817,-4.01323c-1.04808,-4.13066 -4.34497,-7.36296 -8.57545,-8.40517c-1.08037,-0.26716 -3.28221,-0.38165 -4.36846,-0.22606M2952.28245,663.87196c-1.76735,0.37872 -3.12662,1.09505 -4.35378,2.29285c-1.04514,1.01872 -1.3123,1.53542 -1.3123,2.52772c0,0.90422 0.3611,1.69689 1.01285,2.21652c0.65762,0.52257 1.15083,0.70165 1.93469,0.69285c0.85138,-0.00587 1.42973,-0.26422 2.17542,-0.96588c1.05101,-0.98349 1.89065,-1.23597 3.02093,-0.90422c1.28,0.37578 2.03744,1.40624 2.04037,2.77726c0.00294,0.64 -0.05578,0.86606 -0.3611,1.40624c-0.45505,0.80147 -1.2389,1.37101 -2.01689,1.4679c-1.189,0.14679 -1.77322,0.32 -2.24294,0.66349c-1.6734,1.23303 -1.52368,3.80772 0.28184,4.86754c1.34166,0.78679 4.17469,0.32587 6.22681,-1.00991c0.84844,-0.55193 2.19304,-1.91707 2.73322,-2.77139c0.87487,-1.38863 1.40037,-3.55231 1.27413,-5.24626c-0.27596,-3.72258 -2.88588,-6.89911 -6.47929,-7.88553c-0.97468,-0.27009 -2.97983,-0.33468 -3.93396,-0.12917M2953.03108,684.41956c-0.6723,0.21138 -1.28881,0.71046 -1.66459,1.34753c-0.27009,0.45798 -0.31707,0.6723 -0.31413,1.42092c0.00294,0.97468 0.23486,1.56478 0.8367,2.13726c1.40624,1.32991 3.7402,0.93358 4.6591,-0.78679c0.38752,-0.73101 0.35817,-2.05505 -0.06165,-2.77139c-0.71633,-1.21835 -2.11964,-1.76441 -3.45543,-1.34753" className="SFSymbolsPreviewWireframe"/></g>
  <g id="Regular-S"><path d="M1439.47812,631.62229c-1.96992,0.5167 -3.63745,2.20184 -4.16002,4.21286c-0.09688,0.36991 -0.17615,0.91597 -0.17615,1.21542c0,1.20367 -0.55486,2.22533 -1.51487,2.789c-0.53138,0.31119 -0.58129,0.31707 -3.24111,0.39046c-2.38093,0.06459 -2.81249,0.10569 -3.64332,0.35523c-2.80662,0.84257 -5.04662,3.09139 -5.94498,5.9714l-0.27596,0.88074v14.79639v14.79639l0.27596,0.88074c0.89248,2.86533 3.03854,5.03195 5.94791,6.00663l0.82202,0.27596l15.71235,0.03229c10.42793,0.02055 15.86208,-0.00881 16.15859,-0.08807c0.65175,-0.17615 1.35927,-0.73688 1.73505,-1.37689c0.28477,-0.48441 0.33174,-0.68991 0.33174,-1.44441c0,-0.74569 -0.04991,-0.96294 -0.31707,-1.42092c-0.32587,-0.55193 -0.88074,-1.05101 -1.46496,-1.30936c-0.25835,-0.1145 -3.78423,-0.15853 -15.83272,-0.20551l-15.50098,-0.05872l-0.54019,-0.31707c-0.29651,-0.17321 -0.6811,-0.50496 -0.85432,-0.73101c-0.69285,-0.90716 -0.66055,-0.17908 -0.66055,-14.97547c0,-15.2162 -0.04697,-14.36189 0.83083,-15.26905c0.78973,-0.81321 0.99817,-0.86019 4.04258,-0.9512c2.32515,-0.06752 2.81542,-0.1145 3.52295,-0.34055c3.43488,-1.09211 5.92149,-4.11304 6.23562,-7.57141l0.07927,-0.88661h8.77508h8.77508l0.07927,0.88661c0.31413,3.45836 2.80074,6.47929 6.23562,7.57141c0.70753,0.22606 1.1978,0.27303 3.52295,0.34055c3.04442,0.09101 3.25286,0.13798 4.04258,0.9512c0.79266,0.81909 0.83083,1.08331 0.83083,5.80112c0.00294,4.08662 0.00587,4.12479 0.2789,4.70607c0.53138,1.12147 1.4679,1.72625 2.6657,1.72625c0.84844,0 1.56478,-0.31413 2.11671,-0.92477c0.82789,-0.9189 0.83083,-0.9512 0.78386,-6.27085c-0.0411,-4.5769 -0.05284,-4.77653 -0.31413,-5.5692c-0.94239,-2.8712 -3.16185,-5.07892 -5.93911,-5.91268c-0.83083,-0.24954 -1.26239,-0.29064 -3.64332,-0.35523c-2.65983,-0.07339 -2.70974,-0.07927 -3.24111,-0.39046c-0.93652,-0.55193 -1.51193,-1.56184 -1.5178,-2.66276c0,-0.73982 -0.28771,-1.89652 -0.64,-2.58937c-0.39633,-0.78386 -1.42092,-1.86129 -2.24294,-2.3545c-1.37689,-0.82789 -1.11854,-0.81028 -11.79307,-0.81028c-8.66939,0 -9.64407,0.01761 -10.34279,0.19963M1448.21209,649.14016c-1.66753,0.23486 -3.60809,0.99817 -5.09947,2.00221c-0.9512,0.64294 -2.3868,2.07854 -2.97983,2.9857c-1.49138,2.27817 -2.16074,4.67084 -2.01982,7.21617c0.43156,7.79746 8.0881,13.02904 15.41877,10.53362c1.60001,-0.54312 2.6657,-1.19193 3.09139,-1.87891c1.18606,-1.91707 -0.19963,-4.42424 -2.45139,-4.43304c-0.38165,-0.00294 -0.87193,0.0822 -1.13322,0.19376c-1.98166,0.86019 -2.94166,1.03046 -4.298,0.76624c-1.70276,-0.33174 -3.45249,-1.64111 -4.13359,-3.1002c-1.65285,-3.52295 0.13798,-7.38058 3.87818,-8.35526c0.85725,-0.22312 1.65872,-0.22018 2.60698,0.00294c2.21065,0.51964 3.80772,2.06386 4.35671,4.20992c0.50496,1.96698 0.7956,2.44258 1.7967,2.94166c1.09211,0.54312 2.3457,0.37285 3.23231,-0.44037c1.02753,-0.94239 1.20074,-1.95817 0.67817,-4.01323c-1.04808,-4.13066 -4.34497,-7.36296 -8.57545,-8.40517c-1.08037,-0.26716 -3.28221,-0.38165 -4.36846,-0.22606M1468.7274,663.87196c-1.76735,0.37872 -3.12662,1.09505 -4.35378,2.29285c-1.04514,1.01872 -1.3123,1.53542 -1.3123,2.52772c0,0.90422 0.3611,1.69689 1.01285,2.21652c0.65762,0.52257 1.15083,0.70165 1.93469,0.69285c0.85138,-0.00587 1.42973,-0.26422 2.17542,-0.96588c1.05101,-0.98349 1.89065,-1.23597 3.02093,-0.90422c1.28,0.37578 2.03744,1.40624 2.04037,2.77726c0.00294,0.64 -0.05578,0.86606 -0.3611,1.40624c-0.45505,0.80147 -1.2389,1.37101 -2.01689,1.4679c-1.189,0.14679 -1.77322,0.32 -2.24294,0.66349c-1.6734,1.23303 -1.52368,3.80772 0.28184,4.86754c1.34166,0.78679 4.17469,0.32587 6.22681,-1.00991c0.84844,-0.55193 2.19304,-1.91707 2.73322,-2.77139c0.87487,-1.38863 1.40037,-3.55231 1.27413,-5.24626c-0.27596,-3.72258 -2.88588,-6.89911 -6.47929,-7.88553c-0.97468,-0.27009 -2.97983,-0.33468 -3.93396,-0.12917M1469.47603,684.41956c-0.6723,0.21138 -1.28881,0.71046 -1.66459,1.34753c-0.27009,0.45798 -0.31707,0.6723 -0.31413,1.42092c0.00294,0.97468 0.23486,1.56478 0.8367,2.13726c1.40624,1.32991 3.7402,0.93358 4.6591,-0.78679c0.38752,-0.73101 0.35817,-2.05505 -0.06165,-2.77139c-0.71633,-1.21835 -2.11964,-1.76441 -3.45543,-1.34753" className="SFSymbolsPreviewWireframe"/></g>
  <g id="Ultralight-S"><path d="M549.34453,631.62229c-1.96992,0.5167 -3.63745,2.20184 -4.16002,4.21286c-0.09688,0.36991 -0.17615,0.91597 -0.17615,1.21542c0,1.20367 -0.55486,2.22533 -1.51487,2.789c-0.53138,0.31119 -0.58129,0.31707 -3.24111,0.39046c-2.38093,0.06459 -2.81249,0.10569 -3.64332,0.35523c-2.80662,0.84257 -5.04662,3.09139 -5.94498,5.9714l-0.27596,0.88074v14.79639v14.79639l0.27596,0.88074c0.89248,2.86533 3.03854,5.03195 5.94791,6.00663l0.82202,0.27596l15.71235,0.03229c10.42793,0.02055 15.86208,-0.00881 16.15859,-0.08807c0.65175,-0.17615 1.35927,-0.73688 1.73505,-1.37689c0.28477,-0.48441 0.33174,-0.68991 0.33174,-1.44441c0,-0.74569 -0.04991,-0.96294 -0.31707,-1.42092c-0.32587,-0.55193 -0.88074,-1.05101 -1.46496,-1.30936c-0.25835,-0.1145 -3.78423,-0.15853 -15.83272,-0.20551l-15.50098,-0.05872l-0.54019,-0.31707c-0.29651,-0.17321 -0.6811,-0.50496 -0.85432,-0.73101c-0.69285,-0.90716 -0.66055,-0.17908 -0.66055,-14.97547c0,-15.2162 -0.04697,-14.36189 0.83083,-15.26905c0.78973,-0.81321 0.99817,-0.86019 4.04258,-0.9512c2.32515,-0.06752 2.81542,-0.1145 3.52295,-0.34055c3.43488,-1.09211 5.92149,-4.11304 6.23562,-7.57141l0.07927,-0.88661h8.77508h8.77508l0.07927,0.88661c0.31413,3.45836 2.80074,6.47929 6.23562,7.57141c0.70753,0.22606 1.1978,0.27303 3.52295,0.34055c3.04442,0.09101 3.25286,0.13798 4.04258,0.9512c0.79266,0.81909 0.83083,1.08331 0.83083,5.80112c0.00294,4.08662 0.00587,4.12479 0.2789,4.70607c0.53138,1.12147 1.4679,1.72625 2.6657,1.72625c0.84844,0 1.56478,-0.31413 2.11671,-0.92477c0.82789,-0.9189 0.83083,-0.9512 0.78386,-6.27085c-0.0411,-4.5769 -0.05284,-4.77653 -0.31413,-5.5692c-0.94239,-2.8712 -3.16185,-5.07892 -5.93911,-5.91268c-0.83083,-0.24954 -1.26239,-0.29064 -3.64332,-0.35523c-2.65983,-0.07339 -2.70974,-0.07927 -3.24111,-0.39046c-0.93652,-0.55193 -1.51193,-1.56184 -1.5178,-2.66276c0,-0.73982 -0.28771,-1.89652 -0.64,-2.58937c-0.39633,-0.78386 -1.42092,-1.86129 -2.24294,-2.3545c-1.37689,-0.82789 -1.11854,-0.81028 -11.79307,-0.81028c-8.66939,0 -9.64407,0.01761 -10.34279,0.19963M558.0785,649.14016c-1.66753,0.23486 -3.60809,0.99817 -5.09947,2.00221c-0.9512,0.64294 -2.3868,2.07854 -2.97983,2.9857c-1.49138,2.27817 -2.16074,4.67084 -2.01982,7.21617c0.43156,7.79746 8.0881,13.02904 15.41877,10.53362c1.60001,-0.54312 2.6657,-1.19193 3.09139,-1.87891c1.18606,-1.91707 -0.19963,-4.42424 -2.45139,-4.43304c-0.38165,-0.00294 -0.87193,0.0822 -1.13322,0.19376c-1.98166,0.86019 -2.94166,1.03046 -4.298,0.76624c-1.70276,-0.33174 -3.45249,-1.64111 -4.13359,-3.1002c-1.65285,-3.52295 0.13798,-7.38058 3.87818,-8.35526c0.85725,-0.22312 1.65872,-0.22018 2.60698,0.00294c2.21065,0.51964 3.80772,2.06386 4.35671,4.20992c0.50496,1.96698 0.7956,2.44258 1.7967,2.94166c1.09211,0.54312 2.3457,0.37285 3.23231,-0.44037c1.02753,-0.94239 1.20074,-1.95817 0.67817,-4.01323c-1.04808,-4.13066 -4.34497,-7.36296 -8.57545,-8.40517c-1.08037,-0.26716 -3.28221,-0.38165 -4.36846,-0.22606M578.59381,663.87196c-1.76735,0.37872 -3.12662,1.09505 -4.35378,2.29285c-1.04514,1.01872 -1.3123,1.53542 -1.3123,2.52772c0,0.90422 0.3611,1.69689 1.01285,2.21652c0.65762,0.52257 1.15083,0.70165 1.93469,0.69285c0.85138,-0.00587 1.42973,-0.26422 2.17542,-0.96588c1.05101,-0.98349 1.89065,-1.23597 3.02093,-0.90422c1.28,0.37578 2.03744,1.40624 2.04037,2.77726c0.00294,0.64 -0.05578,0.86606 -0.3611,1.40624c-0.45505,0.80147 -1.2389,1.37101 -2.01689,1.4679c-1.189,0.14679 -1.77322,0.32 -2.24294,0.66349c-1.6734,1.23303 -1.52368,3.80772 0.28184,4.86754c1.34166,0.78679 4.17469,0.32587 6.22681,-1.00991c0.84844,-0.55193 2.19304,-1.91707 2.73322,-2.77139c0.87487,-1.38863 1.40037,-3.55231 1.27413,-5.24626c-0.27596,-3.72258 -2.88588,-6.89911 -6.47929,-7.88553c-0.97468,-0.27009 -2.97983,-0.33468 -3.93396,-0.12917M579.34244,684.41956c-0.6723,0.21138 -1.28881,0.71046 -1.66459,1.34753c-0.27009,0.45798 -0.31707,0.6723 -0.31413,1.42092c0.00294,0.97468 0.23486,1.56478 0.8367,2.13726c1.40624,1.32991 3.7402,0.93358 4.6591,-0.78679c0.38752,-0.73101 0.35817,-2.05505 -0.06165,-2.77139c-0.71633,-1.21835 -2.11964,-1.76441 -3.45543,-1.34753" className="SFSymbolsPreviewWireframe"/></g>
 </g>
</svg>