<?xml version="1.0" encoding="UTF-8"?><!--Generator: https://SymbolKit.app--><!DOCTYPE svg PUBLIC "-//W3C//DTD SVG 1.1//EN" "http://www.w3.org/Graphics/SVG/1.1/DTD/svg11.dtd"><svg xmlns="http://www.w3.org/2000/svg" xmlns:xlink="http://www.w3.org/1999/xlink" version="1.1" viewBox="0 0 3300 2200">
 <!--glyph: "100092", point size: 100.0, font version: "20.0d10e1", template writer version: "138.0.0"-->
 <style>.SFSymbolsPreviewWireframe {fill:none;opacity:1.0;stroke:black;stroke-width:0.5}
</style>
 <g id="Notes">
  <rect height="2200" id="artboard" style="fill:white;opacity:1" width="3300" x="0" y="0"/>
  <line style="fill:none;stroke:black;opacity:1;stroke-width:0.5;" x1="263" x2="3036" y1="292" y2="292"/>
  <text style="stroke:none;fill:black;font-family:sans-serif;font-size:13;font-weight:bold;" transform="matrix(1 0 0 1 263 322)">Weight/Scale Variations</text>
  <text style="stroke:none;fill:black;font-family:sans-serif;font-size:13;text-anchor:middle;" transform="matrix(1 0 0 1 559.711 322)">Ultralight</text>
  <text style="stroke:none;fill:black;font-family:sans-serif;font-size:13;text-anchor:middle;" transform="matrix(1 0 0 1 856.422 322)">Thin</text>
  <text style="stroke:none;fill:black;font-family:sans-serif;font-size:13;text-anchor:middle;" transform="matrix(1 0 0 1 1153.13 322)">Light</text>
  <text style="stroke:none;fill:black;font-family:sans-serif;font-size:13;text-anchor:middle;" transform="matrix(1 0 0 1 1449.84 322)">Regular</text>
  <text style="stroke:none;fill:black;font-family:sans-serif;font-size:13;text-anchor:middle;" transform="matrix(1 0 0 1 1746.56 322)">Medium</text>
  <text style="stroke:none;fill:black;font-family:sans-serif;font-size:13;text-anchor:middle;" transform="matrix(1 0 0 1 2043.27 322)">Semibold</text>
  <text style="stroke:none;fill:black;font-family:sans-serif;font-size:13;text-anchor:middle;" transform="matrix(1 0 0 1 2339.98 322)">Bold</text>
  <text style="stroke:none;fill:black;font-family:sans-serif;font-size:13;text-anchor:middle;" transform="matrix(1 0 0 1 2636.69 322)">Heavy</text>
  <text style="stroke:none;fill:black;font-family:sans-serif;font-size:13;text-anchor:middle;" transform="matrix(1 0 0 1 2933.4 322)">Black</text>
  <line style="fill:none;stroke:black;opacity:1;stroke-width:0.5;" x1="263" x2="3036" y1="1903" y2="1903"/>
  <g transform="matrix(0.2 0 0 0.2 263 1933)">
   <path d="m46.2402 4.15039c21.7773 0 39.4531-17.627 39.4531-39.4043s-17.6758-39.4043-39.4531-39.4043c-21.7285 0-39.4043 17.627-39.4043 39.4043s17.6758 39.4043 39.4043 39.4043Zm0-7.42188c-17.6758 0-31.9336-14.3066-31.9336-31.9824s14.2578-31.9824 31.9336-31.9824 31.9824 14.3066 31.9824 31.9824-14.3066 31.9824-31.9824 31.9824Zm-17.9688-31.9824c0 2.14844 1.51367 3.61328 3.75977 3.61328h10.498v10.5957c0 2.19727 1.46484 3.71094 3.61328 3.71094 2.24609 0 3.71094-1.51367 3.71094-3.71094v-10.5957h10.5957c2.19727 0 3.71094-1.46484 3.71094-3.61328 0-2.19727-1.51367-3.71094-3.71094-3.71094h-10.5957v-10.5469c0-2.24609-1.46484-3.75977-3.71094-3.75977-2.14844 0-3.61328 1.51367-3.61328 3.75977v10.5469h-10.498c-2.24609 0-3.75977 1.51367-3.75977 3.71094Z"/>
  </g>
  <g transform="matrix(0.2 0 0 0.2 281.506 1933)">
   <path d="m58.5449 14.5508c27.4902 0 49.8047-22.3145 49.8047-49.8047s-22.3145-49.8047-49.8047-49.8047-49.8047 22.3145-49.8047 49.8047 22.3145 49.8047 49.8047 49.8047Zm0-8.30078c-22.9492 0-41.5039-18.5547-41.5039-41.5039s18.5547-41.5039 41.5039-41.5039 41.5039 18.5547 41.5039 41.5039-18.5547 41.5039-41.5039 41.5039Zm-22.6562-41.5039c0 2.39258 1.66016 4.00391 4.15039 4.00391h14.3555v14.4043c0 2.44141 1.66016 4.15039 4.05273 4.15039 2.44141 0 4.15039-1.66016 4.15039-4.15039v-14.4043h14.4043c2.44141 0 4.15039-1.61133 4.15039-4.00391 0-2.44141-1.70898-4.15039-4.15039-4.15039h-14.4043v-14.3555c0-2.49023-1.70898-4.19922-4.15039-4.19922-2.39258 0-4.05273 1.70898-4.05273 4.19922v14.3555h-14.3555c-2.49023 0-4.15039 1.70898-4.15039 4.15039Z"/>
  </g>
  <g transform="matrix(0.2 0 0 0.2 304.924 1933)">
   <path d="m74.8535 28.3203c35.1074 0 63.623-28.4668 63.623-63.5742s-28.5156-63.623-63.623-63.623-63.5742 28.5156-63.5742 63.623 28.4668 63.5742 63.5742 63.5742Zm0-9.08203c-30.127 0-54.4922-24.3652-54.4922-54.4922s24.3652-54.4922 54.4922-54.4922 54.4922 24.3652 54.4922 54.4922-24.3652 54.4922-54.4922 54.4922Zm-28.8574-54.4922c0 2.58789 1.85547 4.39453 4.58984 4.39453h19.7266v19.7754c0 2.68555 1.85547 4.58984 4.44336 4.58984 2.68555 0 4.54102-1.85547 4.54102-4.58984v-19.7754h19.7754c2.68555 0 4.58984-1.80664 4.58984-4.39453 0-2.73438-1.85547-4.58984-4.58984-4.58984h-19.7754v-19.7266c0-2.73438-1.85547-4.63867-4.54102-4.63867-2.58789 0-4.44336 1.9043-4.44336 4.63867v19.7266h-19.7266c-2.73438 0-4.58984 1.85547-4.58984 4.58984Z"/>
  </g>
  <text style="stroke:none;fill:black;font-family:sans-serif;font-size:13;font-weight:bold;" transform="matrix(1 0 0 1 263 1953)">Design Variations</text>
  <text style="stroke:none;fill:black;font-family:sans-serif;font-size:13;" transform="matrix(1 0 0 1 263 1971)">Symbols are supported in up to nine weights and three scales.</text>
  <text style="stroke:none;fill:black;font-family:sans-serif;font-size:13;" transform="matrix(1 0 0 1 263 1989)">For optimal layout with text and other symbols, vertically align</text>
  <text style="stroke:none;fill:black;font-family:sans-serif;font-size:13;" transform="matrix(1 0 0 1 263 2007)">symbols with the adjacent text.</text>
  <line style="fill:none;stroke:#00AEEF;stroke-width:0.5;opacity:1.0;" x1="776" x2="776" y1="1919" y2="1933"/>
  <g transform="matrix(0.2 0 0 0.2 776 1933)">
   <path d="m16.5527 0.78125c2.58789 0 3.85742-0.976562 4.78516-3.71094l6.29883-17.2363h28.8086l6.29883 17.2363c0.927734 2.73438 2.19727 3.71094 4.73633 3.71094 2.58789 0 4.24805-1.5625 4.24805-4.00391 0-0.830078-0.146484-1.61133-0.537109-2.63672l-22.9004-60.9863c-1.12305-2.97852-3.125-4.49219-6.25-4.49219-3.02734 0-5.07812 1.46484-6.15234 4.44336l-22.9004 61.084c-0.390625 1.02539-0.537109 1.80664-0.537109 2.63672 0 2.44141 1.5625 3.95508 4.10156 3.95508Zm13.4766-28.3691 11.8652-32.8613h0.244141l11.8652 32.8613Z"/>
  </g>
  <line style="fill:none;stroke:#00AEEF;stroke-width:0.5;opacity:1.0;" x1="792.836" x2="792.836" y1="1919" y2="1933"/>
  <text style="stroke:none;fill:black;font-family:sans-serif;font-size:13;font-weight:bold;" transform="matrix(1 0 0 1 776 1953)">Margins</text>
  <text style="stroke:none;fill:black;font-family:sans-serif;font-size:13;" transform="matrix(1 0 0 1 776 1971)">Leading and trailing margins on the left and right side of each symbol</text>
  <text style="stroke:none;fill:black;font-family:sans-serif;font-size:13;" transform="matrix(1 0 0 1 776 1989)">can be adjusted by modifying the x-location of the margin guidelines.</text>
  <text style="stroke:none;fill:black;font-family:sans-serif;font-size:13;" transform="matrix(1 0 0 1 776 2007)">Modifications are automatically applied proportionally to all</text>
  <text style="stroke:none;fill:black;font-family:sans-serif;font-size:13;" transform="matrix(1 0 0 1 776 2025)">scales and weights.</text>
  <g transform="matrix(0.2 0 0 0.2 1289 1933)">
   <path d="m14.209 9.32617 8.49609 8.54492c4.29688 4.3457 9.22852 4.05273 13.8672-1.07422l53.4668-58.9355-4.83398-4.88281-53.0762 58.3984c-1.75781 2.00195-3.41797 2.49023-5.76172 0.146484l-5.85938-5.81055c-2.34375-2.29492-1.80664-4.00391 0.195312-5.81055l57.373-54.0039-4.88281-4.83398-57.959 54.4434c-4.93164 4.58984-5.32227 9.47266-1.02539 13.8184Zm32.0801-90.9668c-2.09961 2.05078-2.24609 4.93164-1.07422 6.88477 1.17188 1.80664 3.4668 2.97852 6.68945 2.14844 7.32422-1.70898 14.9414-2.00195 22.0703 2.68555l-2.92969 7.27539c-1.70898 4.15039-0.830078 7.08008 1.85547 9.81445l11.4746 11.5723c2.44141 2.44141 4.49219 2.53906 7.32422 2.05078l5.32227-0.976562 3.32031 3.36914-0.195312 2.7832c-0.195312 2.49023 0.439453 4.39453 2.88086 6.78711l3.80859 3.71094c2.39258 2.39258 5.46875 2.53906 7.8125 0.195312l14.5508-14.5996c2.34375-2.34375 2.24609-5.32227-0.146484-7.71484l-3.85742-3.80859c-2.39258-2.39258-4.24805-3.17383-6.64062-2.97852l-2.88086 0.244141-3.22266-3.17383 1.2207-5.61523c0.634766-2.83203-0.146484-5.0293-3.07617-7.95898l-10.9863-10.9375c-16.6992-16.6016-38.8672-16.2109-53.3203-1.75781Zm7.4707 1.85547c12.1582-8.88672 28.6133-7.37305 39.7461 3.75977l12.1582 12.0605c1.17188 1.17188 1.36719 2.09961 1.02539 3.80859l-1.61133 7.42188 7.51953 7.42188 4.93164-0.292969c1.26953-0.0488281 1.66016 0.0488281 2.63672 1.02539l2.88086 2.88086-12.207 12.207-2.88086-2.88086c-0.976562-0.976562-1.12305-1.36719-1.07422-2.68555l0.341797-4.88281-7.4707-7.42188-7.61719 1.26953c-1.61133 0.341797-2.34375 0.195312-3.56445-0.976562l-10.0098-10.0098c-1.26953-1.17188-1.41602-2.00195-0.634766-3.85742l4.39453-10.4492c-7.8125-7.27539-17.9688-10.4004-28.125-7.42188-0.78125 0.195312-1.07422-0.439453-0.439453-0.976562Z"/>
  </g>
  <text style="stroke:none;fill:black;font-family:sans-serif;font-size:13;font-weight:bold;" transform="matrix(1 0 0 1 1289 1953)">Exporting</text>
  <text style="stroke:none;fill:black;font-family:sans-serif;font-size:13;" transform="matrix(1 0 0 1 1289 1971)">Symbols should be outlined when exporting to ensure the</text>
  <text style="stroke:none;fill:black;font-family:sans-serif;font-size:13;" transform="matrix(1 0 0 1 1289 1989)">design is preserved when submitting to Xcode.</text>
  <text id="template-version" style="stroke:none;fill:black;font-family:sans-serif;font-size:13;text-anchor:end;" transform="matrix(1 0 0 1 3036 1933)">Template v.6.0</text>
  <text style="stroke:none;fill:black;font-family:sans-serif;font-size:13;text-anchor:end;" transform="matrix(1 0 0 1 3036 1951)">Requires Xcode 16 or greater</text>
  <text id="descriptive-name" style="stroke:none;fill:black;font-family:sans-serif;font-size:13;text-anchor:end;" transform="matrix(1 0 0 1 3036 1969)">Generated from square</text>
  <text style="stroke:none;fill:black;font-family:sans-serif;font-size:13;text-anchor:end;" transform="matrix(1 0 0 1 3036 1987)">Typeset at 100.0 points</text>
  <text style="stroke:none;fill:black;font-family:sans-serif;font-size:13;" transform="matrix(1 0 0 1 263 726)">Small</text>
  <text style="stroke:none;fill:black;font-family:sans-serif;font-size:13;" transform="matrix(1 0 0 1 263 1156)">Medium</text>
  <text style="stroke:none;fill:black;font-family:sans-serif;font-size:13;" transform="matrix(1 0 0 1 263 1586)">Large</text>
 </g>
 <g id="Guides">
  <g id="H-reference" style="fill:#27AAE1;stroke:none;" transform="matrix(1 0 0 1 339 696)">
   <path d="M0.993654 0L3.63775 0L29.3281-67.1323L30.0303-67.1323L30.0303-70.459L28.1226-70.459ZM11.6885-24.4799L46.9815-24.4799L46.2315-26.7285L12.4385-26.7285ZM55.1196 0L57.7637 0L30.6382-70.459L29.4326-70.459L29.4326-67.1323Z"/>
  </g>
  <line id="Baseline-S" style="fill:none;stroke:#27AAE1;opacity:1;stroke-width:0.5;" x1="263" x2="3036" y1="696" y2="696"/>
  <line id="Capline-S" style="fill:none;stroke:#27AAE1;opacity:1;stroke-width:0.5;" x1="263" x2="3036" y1="625.541" y2="625.541"/>
  <g id="H-reference" style="fill:#27AAE1;stroke:none;" transform="matrix(1 0 0 1 339 1126)">
   <path d="M0.993654 0L3.63775 0L29.3281-67.1323L30.0303-67.1323L30.0303-70.459L28.1226-70.459ZM11.6885-24.4799L46.9815-24.4799L46.2315-26.7285L12.4385-26.7285ZM55.1196 0L57.7637 0L30.6382-70.459L29.4326-70.459L29.4326-67.1323Z"/>
  </g>
  <line id="Baseline-M" style="fill:none;stroke:#27AAE1;opacity:1;stroke-width:0.5;" x1="263" x2="3036" y1="1126" y2="1126"/>
  <line id="Capline-M" style="fill:none;stroke:#27AAE1;opacity:1;stroke-width:0.5;" x1="263" x2="3036" y1="1055.54" y2="1055.54"/>
  <g id="H-reference" style="fill:#27AAE1;stroke:none;" transform="matrix(1 0 0 1 339 1556)">
   <path d="M0.993654 0L3.63775 0L29.3281-67.1323L30.0303-67.1323L30.0303-70.459L28.1226-70.459ZM11.6885-24.4799L46.9815-24.4799L46.2315-26.7285L12.4385-26.7285ZM55.1196 0L57.7637 0L30.6382-70.459L29.4326-70.459L29.4326-67.1323Z"/>
  </g>
  <line id="Baseline-L" style="fill:none;stroke:#27AAE1;opacity:1;stroke-width:0.5;" x1="263" x2="3036" y1="1556" y2="1556"/>
  <line id="Capline-L" style="fill:none;stroke:#27AAE1;opacity:1;stroke-width:0.5;" x1="263" x2="3036" y1="1485.54" y2="1485.54"/>
  <line id="right-margin-Black-S" style="fill:none;stroke:#00AEEF;stroke-width:0.5;opacity:1.0;" x1="2981.3" x2="2981.3" y1="600.785" y2="720.121"/>
  <line id="left-margin-Black-S" style="fill:none;stroke:#00AEEF;stroke-width:0.5;opacity:1.0;" x1="2885.5" x2="2885.5" y1="600.785" y2="720.121"/>
  <line id="right-margin-Regular-S" style="fill:none;stroke:#00AEEF;stroke-width:0.5;opacity:1.0;" x1="1495.18" x2="1495.18" y1="600.785" y2="720.121"/>
  <line id="left-margin-Regular-S" style="fill:none;stroke:#00AEEF;stroke-width:0.5;opacity:1.0;" x1="1404.51" x2="1404.51" y1="600.785" y2="720.121"/>
  <line id="right-margin-Ultralight-S" style="fill:none;stroke:#00AEEF;stroke-width:0.5;opacity:1.0;" x1="603.073" x2="603.073" y1="600.785" y2="720.121"/>
  <line id="left-margin-Ultralight-S" style="fill:none;stroke:#00AEEF;stroke-width:0.5;opacity:1.0;" x1="516.35" x2="516.35" y1="600.785" y2="720.121"/>
 </g>
 <g id="Symbols">
  <g id="Black-S"><path d="M2949.47959,631.63301c-1.96992,0.5167 -3.63745,2.20184 -4.16002,4.21286c-0.09688,0.36991 -0.17615,0.84257 -0.17615,1.05101v0.37872l-8.66058,0.04404c-9.38866,0.04991 -9.49435,0.05578 -12.35968,0.7545c-4.62094,1.12147 -9.00114,3.61689 -12.44188,7.08406c-2.0668,2.08441 -3.53176,4.14534 -4.88222,6.86975c-3.67267,7.40406 -3.67267,15.96483 0,23.3689c1.36514,2.75377 2.81249,4.7824 4.938,6.91966c8.00884,8.04407 20.1454,10.09912 30.29443,5.12883c8.31416,-4.07488 13.81583,-12.01913 14.74354,-21.29623c0.07633,-0.76037 0.11743,-2.28111 0.09395,-3.37616l-0.04697,-1.99634h0.41982c0.59009,0 1.65579,-0.29651 2.37505,-0.66055c0.78092,-0.39633 2.07854,-1.68808 2.469,-2.46019c0.6811,-1.34459 0.6723,-1.17432 0.66936,-11.51711c0,-10.27233 0,-10.28408 -0.64,-11.54059c-0.67523,-1.33578 -2.22827,-2.5835 -3.69323,-2.96515c-1.14202,-0.29651 -7.8004,-0.29651 -8.94242,0M2956.88659,646.09765v8.80737h-2.93579h-2.93579v-8.80737v-8.80737h2.93579h2.93579v8.80737M2945.14343,646.14169v2.98276l-0.26422,0.07046c-0.44918,0.12037 -8.32003,0.0822 -11.51417,-0.05578c-3.3057,-0.14385 -4.89984,-0.05578 -6.54094,0.36697c-4.08956,1.05101 -7.63893,3.93102 -9.49435,7.70352c-0.56661,1.15083 -0.99523,2.38973 -1.2712,3.68442c-0.29651,1.38276 -0.29651,4.25396 0,5.63672c1.2712,5.94204 5.64553,10.31637 11.58757,11.58757c1.38276,0.29651 4.25396,0.29651 5.63672,0c4.48589,-0.96 8.18499,-3.74901 10.196,-7.68884c1.189,-2.33102 1.60588,-4.07781 1.60588,-6.71709c0,-1.96698 -0.17028,-3.06203 -0.72808,-4.69727c-0.33468,-0.97762 -1.13615,-2.63047 -1.61469,-3.33212c-0.17028,-0.24954 -0.29651,-0.46973 -0.27596,-0.48734c0.02055,-0.01761 0.61945,-0.05284 1.33578,-0.07339l1.30056,-0.0411l0.1233,0.78386c0.37578,2.40441 2.43083,4.45359 4.84993,4.83525l0.80147,0.12624l0.08514,1.22129c0.24661,3.64038 -0.52551,7.63012 -2.07854,10.73619c-3.04148,6.08002 -8.63416,10.16371 -15.42465,11.26169c-1.21248,0.19376 -4.77653,0.19376 -5.98901,0c-9.1215,-1.47377 -16.04997,-8.45214 -17.33291,-17.45621c-0.32,-2.24001 -0.15853,-5.53984 0.37872,-7.75049c1.96698,-8.09691 8.98939,-14.44703 17.07162,-15.43345c1.67047,-0.20551 1.60001,-0.20257 9.77618,-0.22312l7.77985,-0.02055v2.97983M2927.5052,658.30761l-0.03523,0.92477l-1.67927,-0.71633c-0.97468,-0.41688 -1.66166,-0.77505 -1.64404,-0.85725c0.07046,-0.28184 1.4679,-1.3534 2.38386,-1.82313l0.93945,-0.48147l0.03523,1.01285c0.01761,0.5578 0.01761,1.43267 0,1.94056M2934.75073,656.02063c0.75743,0.42275 1.97579,1.40624 2.03157,1.63817c0.02936,0.1233 -0.49028,0.37285 -3.00038,1.43267l-0.38165,0.16147v-1.93469v-1.93762l0.32294,0.12037c0.17908,0.06752 0.64,0.30239 1.02753,0.51964M2924.53418,664.36121c0.58129,0.24661 1.07744,0.46385 1.10092,0.48147c0.04697,0.03523 -2.67451,3.33212 -2.75377,3.33212c-0.02349,0 -0.17615,-0.25835 -0.33762,-0.57542c-0.44037,-0.86899 -0.76624,-2.17249 -0.84844,-3.39084l-0.07339,-1.08918l0.92771,0.39633c0.51083,0.22018 1.40331,0.5989 1.98459,0.84551M2939.23368,664.21148c-0.0822,1.21542 -0.40807,2.52184 -0.84844,3.3879c-0.16147,0.31707 -0.31413,0.57542 -0.33762,0.57542c-0.07927,0 -2.80074,-3.29689 -2.75377,-3.33212c0.05284,-0.0411 3.89873,-1.69982 3.96625,-1.70863c0.02642,-0.00587 0.01468,0.48147 -0.02642,1.07744M2932.05567,670.2005l1.49138,1.79083l-0.68991,0.22606c-0.55193,0.17908 -1.03046,0.22312 -2.39267,0.22312c-1.36221,0 -1.84074,-0.04404 -2.39267,-0.22312l-0.68991,-0.22606l1.49138,-1.79083c0.82202,-0.98643 1.53835,-1.79083 1.5912,-1.79083c0.05284,0 0.76918,0.80441 1.5912,1.79083" className="SFSymbolsPreviewWireframe"/></g>
  <g id="Regular-S"><path d="M1465.92454,631.63301c-1.96992,0.5167 -3.63745,2.20184 -4.16002,4.21286c-0.09688,0.36991 -0.17615,0.84257 -0.17615,1.05101v0.37872l-8.66058,0.04404c-9.38866,0.04991 -9.49435,0.05578 -12.35968,0.7545c-4.62094,1.12147 -9.00114,3.61689 -12.44188,7.08406c-2.0668,2.08441 -3.53176,4.14534 -4.88222,6.86975c-3.67267,7.40406 -3.67267,15.96483 0,23.3689c1.36514,2.75377 2.81249,4.7824 4.938,6.91966c8.00884,8.04407 20.1454,10.09912 30.29443,5.12883c8.31416,-4.07488 13.81583,-12.01913 14.74354,-21.29623c0.07633,-0.76037 0.11743,-2.28111 0.09395,-3.37616l-0.04697,-1.99634h0.41982c0.59009,0 1.65579,-0.29651 2.37505,-0.66055c0.78092,-0.39633 2.07854,-1.68808 2.469,-2.46019c0.6811,-1.34459 0.6723,-1.17432 0.66936,-11.51711c0,-10.27233 0,-10.28408 -0.64,-11.54059c-0.67523,-1.33578 -2.22827,-2.5835 -3.69323,-2.96515c-1.14202,-0.29651 -7.8004,-0.29651 -8.94242,0M1473.33154,646.09765v8.80737h-2.93579h-2.93579v-8.80737v-8.80737h2.93579h2.93579v8.80737M1461.58838,646.14169v2.98276l-0.26422,0.07046c-0.44918,0.12037 -8.32003,0.0822 -11.51417,-0.05578c-3.3057,-0.14385 -4.89984,-0.05578 -6.54094,0.36697c-4.08956,1.05101 -7.63893,3.93102 -9.49435,7.70352c-0.56661,1.15083 -0.99523,2.38973 -1.2712,3.68442c-0.29651,1.38276 -0.29651,4.25396 0,5.63672c1.2712,5.94204 5.64553,10.31637 11.58757,11.58757c1.38276,0.29651 4.25396,0.29651 5.63672,0c4.48589,-0.96 8.18499,-3.74901 10.196,-7.68884c1.189,-2.33102 1.60588,-4.07781 1.60588,-6.71709c0,-1.96698 -0.17028,-3.06203 -0.72808,-4.69727c-0.33468,-0.97762 -1.13615,-2.63047 -1.61469,-3.33212c-0.17028,-0.24954 -0.29651,-0.46973 -0.27596,-0.48734c0.02055,-0.01761 0.61945,-0.05284 1.33578,-0.07339l1.30056,-0.0411l0.1233,0.78386c0.37578,2.40441 2.43083,4.45359 4.84993,4.83525l0.80147,0.12624l0.08514,1.22129c0.24661,3.64038 -0.52551,7.63012 -2.07854,10.73619c-3.04148,6.08002 -8.63416,10.16371 -15.42465,11.26169c-1.21248,0.19376 -4.77653,0.19376 -5.98901,0c-9.1215,-1.47377 -16.04997,-8.45214 -17.33291,-17.45621c-0.32,-2.24001 -0.15853,-5.53984 0.37872,-7.75049c1.96698,-8.09691 8.98939,-14.44703 17.07162,-15.43345c1.67047,-0.20551 1.60001,-0.20257 9.77618,-0.22312l7.77985,-0.02055v2.97983M1443.95015,658.30761l-0.03523,0.92477l-1.67927,-0.71633c-0.97468,-0.41688 -1.66166,-0.77505 -1.64404,-0.85725c0.07046,-0.28184 1.4679,-1.3534 2.38386,-1.82313l0.93945,-0.48147l0.03523,1.01285c0.01761,0.5578 0.01761,1.43267 0,1.94056M1451.19568,656.02063c0.75743,0.42275 1.97579,1.40624 2.03157,1.63817c0.02936,0.1233 -0.49028,0.37285 -3.00038,1.43267l-0.38165,0.16147v-1.93469v-1.93762l0.32294,0.12037c0.17908,0.06752 0.64,0.30239 1.02753,0.51964M1440.97913,664.36121c0.58129,0.24661 1.07744,0.46385 1.10092,0.48147c0.04697,0.03523 -2.67451,3.33212 -2.75377,3.33212c-0.02349,0 -0.17615,-0.25835 -0.33762,-0.57542c-0.44037,-0.86899 -0.76624,-2.17249 -0.84844,-3.39084l-0.07339,-1.08918l0.92771,0.39633c0.51083,0.22018 1.40331,0.5989 1.98459,0.84551M1455.67863,664.21148c-0.0822,1.21542 -0.40807,2.52184 -0.84844,3.3879c-0.16147,0.31707 -0.31413,0.57542 -0.33762,0.57542c-0.07927,0 -2.80074,-3.29689 -2.75377,-3.33212c0.05284,-0.0411 3.89873,-1.69982 3.96625,-1.70863c0.02642,-0.00587 0.01468,0.48147 -0.02642,1.07744M1448.50062,670.2005l1.49138,1.79083l-0.68991,0.22606c-0.55193,0.17908 -1.03046,0.22312 -2.39267,0.22312c-1.36221,0 -1.84074,-0.04404 -2.39267,-0.22312l-0.68991,-0.22606l1.49138,-1.79083c0.82202,-0.98643 1.53835,-1.79083 1.5912,-1.79083c0.05284,0 0.76918,0.80441 1.5912,1.79083" className="SFSymbolsPreviewWireframe"/></g>
  <g id="Ultralight-S"><path d="M575.79095,631.63301c-1.96992,0.5167 -3.63745,2.20184 -4.16002,4.21286c-0.09688,0.36991 -0.17615,0.84257 -0.17615,1.05101v0.37872l-8.66058,0.04404c-9.38866,0.04991 -9.49435,0.05578 -12.35968,0.7545c-4.62094,1.12147 -9.00114,3.61689 -12.44188,7.08406c-2.0668,2.08441 -3.53176,4.14534 -4.88222,6.86975c-3.67267,7.40406 -3.67267,15.96483 0,23.3689c1.36514,2.75377 2.81249,4.7824 4.938,6.91966c8.00884,8.04407 20.1454,10.09912 30.29443,5.12883c8.31416,-4.07488 13.81583,-12.01913 14.74354,-21.29623c0.07633,-0.76037 0.11743,-2.28111 0.09395,-3.37616l-0.04697,-1.99634h0.41982c0.59009,0 1.65579,-0.29651 2.37505,-0.66055c0.78092,-0.39633 2.07854,-1.68808 2.469,-2.46019c0.6811,-1.34459 0.6723,-1.17432 0.66936,-11.51711c0,-10.27233 0,-10.28408 -0.64,-11.54059c-0.67523,-1.33578 -2.22827,-2.5835 -3.69323,-2.96515c-1.14202,-0.29651 -7.8004,-0.29651 -8.94242,0M583.19795,646.09765v8.80737h-2.93579h-2.93579v-8.80737v-8.80737h2.93579h2.93579v8.80737M571.45479,646.14169v2.98276l-0.26422,0.07046c-0.44918,0.12037 -8.32003,0.0822 -11.51417,-0.05578c-3.3057,-0.14385 -4.89984,-0.05578 -6.54094,0.36697c-4.08956,1.05101 -7.63893,3.93102 -9.49435,7.70352c-0.56661,1.15083 -0.99523,2.38973 -1.2712,3.68442c-0.29651,1.38276 -0.29651,4.25396 0,5.63672c1.2712,5.94204 5.64553,10.31637 11.58757,11.58757c1.38276,0.29651 4.25396,0.29651 5.63672,0c4.48589,-0.96 8.18499,-3.74901 10.196,-7.68884c1.189,-2.33102 1.60588,-4.07781 1.60588,-6.71709c0,-1.96698 -0.17028,-3.06203 -0.72808,-4.69727c-0.33468,-0.97762 -1.13615,-2.63047 -1.61469,-3.33212c-0.17028,-0.24954 -0.29651,-0.46973 -0.27596,-0.48734c0.02055,-0.01761 0.61945,-0.05284 1.33578,-0.07339l1.30056,-0.0411l0.1233,0.78386c0.37578,2.40441 2.43083,4.45359 4.84993,4.83525l0.80147,0.12624l0.08514,1.22129c0.24661,3.64038 -0.52551,7.63012 -2.07854,10.73619c-3.04148,6.08002 -8.63416,10.16371 -15.42465,11.26169c-1.21248,0.19376 -4.77653,0.19376 -5.98901,0c-9.1215,-1.47377 -16.04997,-8.45214 -17.33291,-17.45621c-0.32,-2.24001 -0.15853,-5.53984 0.37872,-7.75049c1.96698,-8.09691 8.98939,-14.44703 17.07162,-15.43345c1.67047,-0.20551 1.60001,-0.20257 9.77618,-0.22312l7.77985,-0.02055v2.97983M553.81656,658.30761l-0.03523,0.92477l-1.67927,-0.71633c-0.97468,-0.41688 -1.66166,-0.77505 -1.64404,-0.85725c0.07046,-0.28184 1.4679,-1.3534 2.38386,-1.82313l0.93945,-0.48147l0.03523,1.01285c0.01761,0.5578 0.01761,1.43267 0,1.94056M561.06209,656.02063c0.75743,0.42275 1.97579,1.40624 2.03157,1.63817c0.02936,0.1233 -0.49028,0.37285 -3.00038,1.43267l-0.38165,0.16147v-1.93469v-1.93762l0.32294,0.12037c0.17908,0.06752 0.64,0.30239 1.02753,0.51964M550.84554,664.36121c0.58129,0.24661 1.07744,0.46385 1.10092,0.48147c0.04697,0.03523 -2.67451,3.33212 -2.75377,3.33212c-0.02349,0 -0.17615,-0.25835 -0.33762,-0.57542c-0.44037,-0.86899 -0.76624,-2.17249 -0.84844,-3.39084l-0.07339,-1.08918l0.92771,0.39633c0.51083,0.22018 1.40331,0.5989 1.98459,0.84551M565.54504,664.21148c-0.0822,1.21542 -0.40807,2.52184 -0.84844,3.3879c-0.16147,0.31707 -0.31413,0.57542 -0.33762,0.57542c-0.07927,0 -2.80074,-3.29689 -2.75377,-3.33212c0.05284,-0.0411 3.89873,-1.69982 3.96625,-1.70863c0.02642,-0.00587 0.01468,0.48147 -0.02642,1.07744M558.36703,670.2005l1.49138,1.79083l-0.68991,0.22606c-0.55193,0.17908 -1.03046,0.22312 -2.39267,0.22312c-1.36221,0 -1.84074,-0.04404 -2.39267,-0.22312l-0.68991,-0.22606l1.49138,-1.79083c0.82202,-0.98643 1.53835,-1.79083 1.5912,-1.79083c0.05284,0 0.76918,0.80441 1.5912,1.79083" className="SFSymbolsPreviewWireframe"/></g>
 </g>
</svg>