<?xml version="1.0" encoding="UTF-8"?><!--Generator: https://SymbolKit.app--><!DOCTYPE svg PUBLIC "-//W3C//DTD SVG 1.1//EN" "http://www.w3.org/Graphics/SVG/1.1/DTD/svg11.dtd"><svg xmlns="http://www.w3.org/2000/svg" xmlns:xlink="http://www.w3.org/1999/xlink" version="1.1" viewBox="0 0 3300 2200">
 <!--glyph: "100092", point size: 100.0, font version: "20.0d10e1", template writer version: "138.0.0"-->
 <style>.SFSymbolsPreviewWireframe {fill:none;opacity:1.0;stroke:black;stroke-width:0.5}
</style>
 <g id="Notes">
  <rect height="2200" id="artboard" style="fill:white;opacity:1" width="3300" x="0" y="0"/>
  <line style="fill:none;stroke:black;opacity:1;stroke-width:0.5;" x1="263" x2="3036" y1="292" y2="292"/>
  <text style="stroke:none;fill:black;font-family:sans-serif;font-size:13;font-weight:bold;" transform="matrix(1 0 0 1 263 322)">Weight/Scale Variations</text>
  <text style="stroke:none;fill:black;font-family:sans-serif;font-size:13;text-anchor:middle;" transform="matrix(1 0 0 1 559.711 322)">Ultralight</text>
  <text style="stroke:none;fill:black;font-family:sans-serif;font-size:13;text-anchor:middle;" transform="matrix(1 0 0 1 856.422 322)">Thin</text>
  <text style="stroke:none;fill:black;font-family:sans-serif;font-size:13;text-anchor:middle;" transform="matrix(1 0 0 1 1153.13 322)">Light</text>
  <text style="stroke:none;fill:black;font-family:sans-serif;font-size:13;text-anchor:middle;" transform="matrix(1 0 0 1 1449.84 322)">Regular</text>
  <text style="stroke:none;fill:black;font-family:sans-serif;font-size:13;text-anchor:middle;" transform="matrix(1 0 0 1 1746.56 322)">Medium</text>
  <text style="stroke:none;fill:black;font-family:sans-serif;font-size:13;text-anchor:middle;" transform="matrix(1 0 0 1 2043.27 322)">Semibold</text>
  <text style="stroke:none;fill:black;font-family:sans-serif;font-size:13;text-anchor:middle;" transform="matrix(1 0 0 1 2339.98 322)">Bold</text>
  <text style="stroke:none;fill:black;font-family:sans-serif;font-size:13;text-anchor:middle;" transform="matrix(1 0 0 1 2636.69 322)">Heavy</text>
  <text style="stroke:none;fill:black;font-family:sans-serif;font-size:13;text-anchor:middle;" transform="matrix(1 0 0 1 2933.4 322)">Black</text>
  <line style="fill:none;stroke:black;opacity:1;stroke-width:0.5;" x1="263" x2="3036" y1="1903" y2="1903"/>
  <g transform="matrix(0.2 0 0 0.2 263 1933)">
   <path d="m46.2402 4.15039c21.7773 0 39.4531-17.627 39.4531-39.4043s-17.6758-39.4043-39.4531-39.4043c-21.7285 0-39.4043 17.627-39.4043 39.4043s17.6758 39.4043 39.4043 39.4043Zm0-7.42188c-17.6758 0-31.9336-14.3066-31.9336-31.9824s14.2578-31.9824 31.9336-31.9824 31.9824 14.3066 31.9824 31.9824-14.3066 31.9824-31.9824 31.9824Zm-17.9688-31.9824c0 2.14844 1.51367 3.61328 3.75977 3.61328h10.498v10.5957c0 2.19727 1.46484 3.71094 3.61328 3.71094 2.24609 0 3.71094-1.51367 3.71094-3.71094v-10.5957h10.5957c2.19727 0 3.71094-1.46484 3.71094-3.61328 0-2.19727-1.51367-3.71094-3.71094-3.71094h-10.5957v-10.5469c0-2.24609-1.46484-3.75977-3.71094-3.75977-2.14844 0-3.61328 1.51367-3.61328 3.75977v10.5469h-10.498c-2.24609 0-3.75977 1.51367-3.75977 3.71094Z"/>
  </g>
  <g transform="matrix(0.2 0 0 0.2 281.506 1933)">
   <path d="m58.5449 14.5508c27.4902 0 49.8047-22.3145 49.8047-49.8047s-22.3145-49.8047-49.8047-49.8047-49.8047 22.3145-49.8047 49.8047 22.3145 49.8047 49.8047 49.8047Zm0-8.30078c-22.9492 0-41.5039-18.5547-41.5039-41.5039s18.5547-41.5039 41.5039-41.5039 41.5039 18.5547 41.5039 41.5039-18.5547 41.5039-41.5039 41.5039Zm-22.6562-41.5039c0 2.39258 1.66016 4.00391 4.15039 4.00391h14.3555v14.4043c0 2.44141 1.66016 4.15039 4.05273 4.15039 2.44141 0 4.15039-1.66016 4.15039-4.15039v-14.4043h14.4043c2.44141 0 4.15039-1.61133 4.15039-4.00391 0-2.44141-1.70898-4.15039-4.15039-4.15039h-14.4043v-14.3555c0-2.49023-1.70898-4.19922-4.15039-4.19922-2.39258 0-4.05273 1.70898-4.05273 4.19922v14.3555h-14.3555c-2.49023 0-4.15039 1.70898-4.15039 4.15039Z"/>
  </g>
  <g transform="matrix(0.2 0 0 0.2 304.924 1933)">
   <path d="m74.8535 28.3203c35.1074 0 63.623-28.4668 63.623-63.5742s-28.5156-63.623-63.623-63.623-63.5742 28.5156-63.5742 63.623 28.4668 63.5742 63.5742 63.5742Zm0-9.08203c-30.127 0-54.4922-24.3652-54.4922-54.4922s24.3652-54.4922 54.4922-54.4922 54.4922 24.3652 54.4922 54.4922-24.3652 54.4922-54.4922 54.4922Zm-28.8574-54.4922c0 2.58789 1.85547 4.39453 4.58984 4.39453h19.7266v19.7754c0 2.68555 1.85547 4.58984 4.44336 4.58984 2.68555 0 4.54102-1.85547 4.54102-4.58984v-19.7754h19.7754c2.68555 0 4.58984-1.80664 4.58984-4.39453 0-2.73438-1.85547-4.58984-4.58984-4.58984h-19.7754v-19.7266c0-2.73438-1.85547-4.63867-4.54102-4.63867-2.58789 0-4.44336 1.9043-4.44336 4.63867v19.7266h-19.7266c-2.73438 0-4.58984 1.85547-4.58984 4.58984Z"/>
  </g>
  <text style="stroke:none;fill:black;font-family:sans-serif;font-size:13;font-weight:bold;" transform="matrix(1 0 0 1 263 1953)">Design Variations</text>
  <text style="stroke:none;fill:black;font-family:sans-serif;font-size:13;" transform="matrix(1 0 0 1 263 1971)">Symbols are supported in up to nine weights and three scales.</text>
  <text style="stroke:none;fill:black;font-family:sans-serif;font-size:13;" transform="matrix(1 0 0 1 263 1989)">For optimal layout with text and other symbols, vertically align</text>
  <text style="stroke:none;fill:black;font-family:sans-serif;font-size:13;" transform="matrix(1 0 0 1 263 2007)">symbols with the adjacent text.</text>
  <line style="fill:none;stroke:#00AEEF;stroke-width:0.5;opacity:1.0;" x1="776" x2="776" y1="1919" y2="1933"/>
  <g transform="matrix(0.2 0 0 0.2 776 1933)">
   <path d="m16.5527 0.78125c2.58789 0 3.85742-0.976562 4.78516-3.71094l6.29883-17.2363h28.8086l6.29883 17.2363c0.927734 2.73438 2.19727 3.71094 4.73633 3.71094 2.58789 0 4.24805-1.5625 4.24805-4.00391 0-0.830078-0.146484-1.61133-0.537109-2.63672l-22.9004-60.9863c-1.12305-2.97852-3.125-4.49219-6.25-4.49219-3.02734 0-5.07812 1.46484-6.15234 4.44336l-22.9004 61.084c-0.390625 1.02539-0.537109 1.80664-0.537109 2.63672 0 2.44141 1.5625 3.95508 4.10156 3.95508Zm13.4766-28.3691 11.8652-32.8613h0.244141l11.8652 32.8613Z"/>
  </g>
  <line style="fill:none;stroke:#00AEEF;stroke-width:0.5;opacity:1.0;" x1="792.836" x2="792.836" y1="1919" y2="1933"/>
  <text style="stroke:none;fill:black;font-family:sans-serif;font-size:13;font-weight:bold;" transform="matrix(1 0 0 1 776 1953)">Margins</text>
  <text style="stroke:none;fill:black;font-family:sans-serif;font-size:13;" transform="matrix(1 0 0 1 776 1971)">Leading and trailing margins on the left and right side of each symbol</text>
  <text style="stroke:none;fill:black;font-family:sans-serif;font-size:13;" transform="matrix(1 0 0 1 776 1989)">can be adjusted by modifying the x-location of the margin guidelines.</text>
  <text style="stroke:none;fill:black;font-family:sans-serif;font-size:13;" transform="matrix(1 0 0 1 776 2007)">Modifications are automatically applied proportionally to all</text>
  <text style="stroke:none;fill:black;font-family:sans-serif;font-size:13;" transform="matrix(1 0 0 1 776 2025)">scales and weights.</text>
  <g transform="matrix(0.2 0 0 0.2 1289 1933)">
   <path d="m14.209 9.32617 8.49609 8.54492c4.29688 4.3457 9.22852 4.05273 13.8672-1.07422l53.4668-58.9355-4.83398-4.88281-53.0762 58.3984c-1.75781 2.00195-3.41797 2.49023-5.76172 0.146484l-5.85938-5.81055c-2.34375-2.29492-1.80664-4.00391 0.195312-5.81055l57.373-54.0039-4.88281-4.83398-57.959 54.4434c-4.93164 4.58984-5.32227 9.47266-1.02539 13.8184Zm32.0801-90.9668c-2.09961 2.05078-2.24609 4.93164-1.07422 6.88477 1.17188 1.80664 3.4668 2.97852 6.68945 2.14844 7.32422-1.70898 14.9414-2.00195 22.0703 2.68555l-2.92969 7.27539c-1.70898 4.15039-0.830078 7.08008 1.85547 9.81445l11.4746 11.5723c2.44141 2.44141 4.49219 2.53906 7.32422 2.05078l5.32227-0.976562 3.32031 3.36914-0.195312 2.7832c-0.195312 2.49023 0.439453 4.39453 2.88086 6.78711l3.80859 3.71094c2.39258 2.39258 5.46875 2.53906 7.8125 0.195312l14.5508-14.5996c2.34375-2.34375 2.24609-5.32227-0.146484-7.71484l-3.85742-3.80859c-2.39258-2.39258-4.24805-3.17383-6.64062-2.97852l-2.88086 0.244141-3.22266-3.17383 1.2207-5.61523c0.634766-2.83203-0.146484-5.0293-3.07617-7.95898l-10.9863-10.9375c-16.6992-16.6016-38.8672-16.2109-53.3203-1.75781Zm7.4707 1.85547c12.1582-8.88672 28.6133-7.37305 39.7461 3.75977l12.1582 12.0605c1.17188 1.17188 1.36719 2.09961 1.02539 3.80859l-1.61133 7.42188 7.51953 7.42188 4.93164-0.292969c1.26953-0.0488281 1.66016 0.0488281 2.63672 1.02539l2.88086 2.88086-12.207 12.207-2.88086-2.88086c-0.976562-0.976562-1.12305-1.36719-1.07422-2.68555l0.341797-4.88281-7.4707-7.42188-7.61719 1.26953c-1.61133 0.341797-2.34375 0.195312-3.56445-0.976562l-10.0098-10.0098c-1.26953-1.17188-1.41602-2.00195-0.634766-3.85742l4.39453-10.4492c-7.8125-7.27539-17.9688-10.4004-28.125-7.42188-0.78125 0.195312-1.07422-0.439453-0.439453-0.976562Z"/>
  </g>
  <text style="stroke:none;fill:black;font-family:sans-serif;font-size:13;font-weight:bold;" transform="matrix(1 0 0 1 1289 1953)">Exporting</text>
  <text style="stroke:none;fill:black;font-family:sans-serif;font-size:13;" transform="matrix(1 0 0 1 1289 1971)">Symbols should be outlined when exporting to ensure the</text>
  <text style="stroke:none;fill:black;font-family:sans-serif;font-size:13;" transform="matrix(1 0 0 1 1289 1989)">design is preserved when submitting to Xcode.</text>
  <text id="template-version" style="stroke:none;fill:black;font-family:sans-serif;font-size:13;text-anchor:end;" transform="matrix(1 0 0 1 3036 1933)">Template v.6.0</text>
  <text style="stroke:none;fill:black;font-family:sans-serif;font-size:13;text-anchor:end;" transform="matrix(1 0 0 1 3036 1951)">Requires Xcode 16 or greater</text>
  <text id="descriptive-name" style="stroke:none;fill:black;font-family:sans-serif;font-size:13;text-anchor:end;" transform="matrix(1 0 0 1 3036 1969)">Generated from square</text>
  <text style="stroke:none;fill:black;font-family:sans-serif;font-size:13;text-anchor:end;" transform="matrix(1 0 0 1 3036 1987)">Typeset at 100.0 points</text>
  <text style="stroke:none;fill:black;font-family:sans-serif;font-size:13;" transform="matrix(1 0 0 1 263 726)">Small</text>
  <text style="stroke:none;fill:black;font-family:sans-serif;font-size:13;" transform="matrix(1 0 0 1 263 1156)">Medium</text>
  <text style="stroke:none;fill:black;font-family:sans-serif;font-size:13;" transform="matrix(1 0 0 1 263 1586)">Large</text>
 </g>
 <g id="Guides">
  <g id="H-reference" style="fill:#27AAE1;stroke:none;" transform="matrix(1 0 0 1 339 696)">
   <path d="M0.993654 0L3.63775 0L29.3281-67.1323L30.0303-67.1323L30.0303-70.459L28.1226-70.459ZM11.6885-24.4799L46.9815-24.4799L46.2315-26.7285L12.4385-26.7285ZM55.1196 0L57.7637 0L30.6382-70.459L29.4326-70.459L29.4326-67.1323Z"/>
  </g>
  <line id="Baseline-S" style="fill:none;stroke:#27AAE1;opacity:1;stroke-width:0.5;" x1="263" x2="3036" y1="696" y2="696"/>
  <line id="Capline-S" style="fill:none;stroke:#27AAE1;opacity:1;stroke-width:0.5;" x1="263" x2="3036" y1="625.541" y2="625.541"/>
  <g id="H-reference" style="fill:#27AAE1;stroke:none;" transform="matrix(1 0 0 1 339 1126)">
   <path d="M0.993654 0L3.63775 0L29.3281-67.1323L30.0303-67.1323L30.0303-70.459L28.1226-70.459ZM11.6885-24.4799L46.9815-24.4799L46.2315-26.7285L12.4385-26.7285ZM55.1196 0L57.7637 0L30.6382-70.459L29.4326-70.459L29.4326-67.1323Z"/>
  </g>
  <line id="Baseline-M" style="fill:none;stroke:#27AAE1;opacity:1;stroke-width:0.5;" x1="263" x2="3036" y1="1126" y2="1126"/>
  <line id="Capline-M" style="fill:none;stroke:#27AAE1;opacity:1;stroke-width:0.5;" x1="263" x2="3036" y1="1055.54" y2="1055.54"/>
  <g id="H-reference" style="fill:#27AAE1;stroke:none;" transform="matrix(1 0 0 1 339 1556)">
   <path d="M0.993654 0L3.63775 0L29.3281-67.1323L30.0303-67.1323L30.0303-70.459L28.1226-70.459ZM11.6885-24.4799L46.9815-24.4799L46.2315-26.7285L12.4385-26.7285ZM55.1196 0L57.7637 0L30.6382-70.459L29.4326-70.459L29.4326-67.1323Z"/>
  </g>
  <line id="Baseline-L" style="fill:none;stroke:#27AAE1;opacity:1;stroke-width:0.5;" x1="263" x2="3036" y1="1556" y2="1556"/>
  <line id="Capline-L" style="fill:none;stroke:#27AAE1;opacity:1;stroke-width:0.5;" x1="263" x2="3036" y1="1485.54" y2="1485.54"/>
  <line id="right-margin-Black-S" style="fill:none;stroke:#00AEEF;stroke-width:0.5;opacity:1.0;" x1="2981.3" x2="2981.3" y1="600.785" y2="720.121"/>
  <line id="left-margin-Black-S" style="fill:none;stroke:#00AEEF;stroke-width:0.5;opacity:1.0;" x1="2885.5" x2="2885.5" y1="600.785" y2="720.121"/>
  <line id="right-margin-Regular-S" style="fill:none;stroke:#00AEEF;stroke-width:0.5;opacity:1.0;" x1="1495.18" x2="1495.18" y1="600.785" y2="720.121"/>
  <line id="left-margin-Regular-S" style="fill:none;stroke:#00AEEF;stroke-width:0.5;opacity:1.0;" x1="1404.51" x2="1404.51" y1="600.785" y2="720.121"/>
  <line id="right-margin-Ultralight-S" style="fill:none;stroke:#00AEEF;stroke-width:0.5;opacity:1.0;" x1="603.073" x2="603.073" y1="600.785" y2="720.121"/>
  <line id="left-margin-Ultralight-S" style="fill:none;stroke:#00AEEF;stroke-width:0.5;opacity:1.0;" x1="516.35" x2="516.35" y1="600.785" y2="720.121"/>
 </g>
 <g id="Symbols">
  <g id="Black-S"><path d="M2909.01839,631.55219c-0.67817,0.22018 -1.29175,0.71927 -1.66459,1.3534l-0.31707,0.54019v16.44043c0,17.44447 -0.02936,16.28483 0.48147,19.22943l0.07633,0.44037h-1.93175c-2.68331,0 -3.45249,0.2789 -4.18057,1.51487c-0.26716,0.45798 -0.31707,0.67523 -0.31707,1.42092c0,0.75156 0.04697,0.96294 0.32587,1.4356c0.17908,0.30239 0.50789,0.69285 0.73395,0.86312c0.76624,0.58422 1.05395,0.62532 4.40662,0.6312l3.11487,0.00587l0.30826,0.62826l0.30826,0.62826l-2.81542,2.80662c-1.5501,1.54423 -2.95928,3.04442 -3.13249,3.33506c-0.26716,0.44624 -0.31413,0.66349 -0.31413,1.40918c0,0.7545 0.04697,0.96 0.33174,1.44441c0.38165,0.65175 1.08331,1.20074 1.77028,1.38863c0.59597,0.15853 1.55891,0.07046 2.08148,-0.19376c0.21725,-0.11156 1.56478,-1.35927 2.99157,-2.77726l2.5923,-2.57762l1.04808,1.01872c8.06168,7.85031 20.02209,9.79086 30.05076,4.87928c2.63928,-1.29468 4.80295,-2.81836 6.91672,-4.87928l1.04808,-1.01872l2.5923,2.57762c1.42679,1.41799 2.78019,2.67451 3.00625,2.79487c0.29064,0.15266 0.66642,0.21725 1.29175,0.21725c0.75743,0.00294 0.96,-0.04404 1.44441,-0.32881c1.39744,-0.82202 1.89946,-2.64221 1.09505,-3.98974c-0.16147,-0.27009 -1.55891,-1.7556 -3.109,-3.29983l-2.81542,-2.80662l0.30826,-0.62826l0.30826,-0.62826l3.11487,-0.00587c3.35267,-0.00587 3.64038,-0.04697 4.40662,-0.6312c0.22606,-0.17028 0.55486,-0.56074 0.73395,-0.86312c0.2789,-0.47266 0.32587,-0.68404 0.32587,-1.4356c0,-0.74569 -0.04991,-0.96294 -0.31707,-1.42092c-0.72808,-1.23597 -1.49725,-1.51487 -4.17763,-1.51487h-1.93469l0.08514,-0.49908c0.04697,-0.27303 0.16734,-0.94826 0.27009,-1.49725c0.15853,-0.86899 0.18789,-3.11194 0.22606,-17.30942c0.04697,-18.26649 0.10275,-17.03052 -0.7956,-17.92888c-0.68991,-0.68991 -1.10386,-0.86606 -2.04625,-0.86899c-1.38863,-0.00294 -1.42679,0.02642 -5.63965,4.58277c-2.06386,2.23707 -3.91341,4.24809 -4.10717,4.47121l-0.35229,0.40514l-1.36808,-0.69578c-2.85946,-1.45615 -5.48406,-2.26937 -8.78976,-2.73322c-1.32111,-0.18495 -5.1758,-0.18789 -6.57617,-0.00587c-2.79487,0.36697 -5.70718,1.23303 -8.1615,2.43377l-1.52661,0.74569l-4.40369,-4.3802c-2.80662,-2.789 -4.56516,-4.45066 -4.85286,-4.58277c-0.5989,-0.27303 -1.55597,-0.33762 -2.149,-0.14092M2919.06466,647.17353c1.15377,0.34055 1.64991,0.22899 3.13249,-0.70753c3.12368,-1.96992 5.94498,-2.92698 9.54132,-3.23524c2.66276,-0.22606 5.78351,0.13505 8.23783,0.95707c1.20367,0.4022 3.71084,1.67047 4.94681,2.49836c1.59707,1.07156 2.51891,1.24184 3.6257,0.66936c0.58129,-0.29945 0.88074,-0.59303 3.24405,-3.15598l2.09909,-2.28111l0.03523,0.98936c0.02055,0.54312 0.01174,5.95672 -0.01468,12.02794c-0.05284,11.65215 -0.04991,11.62867 -0.61064,13.82758l-0.20257,0.79266h-2.66863c-1.92001,0 -2.81542,0.04404 -3.20295,0.16147c-1.58826,0.47853 -2.43377,2.12845 -1.90533,3.71965c0.17615,0.53431 0.4433,0.86899 1.7879,2.24294l1.57946,1.61469l-0.24367,0.34349c-0.28771,0.40514 -1.77615,1.74973 -2.77432,2.50717c-2.58056,1.95817 -5.83635,3.31451 -9.2771,3.87231c-0.5167,0.0822 -1.86423,0.14973 -2.99451,0.14973c-2.78607,0 -4.87928,-0.36697 -7.24847,-1.2712c-2.54827,-0.97175 -4.50938,-2.1901 -6.70828,-4.16589c-1.58533,-1.42386 -1.60588,-1.1567 0.24367,-3.04735c1.34753,-1.37689 1.61469,-1.71157 1.79083,-2.24588c0.52844,-1.5912 -0.31707,-3.24111 -1.90533,-3.71965c-0.38752,-0.11743 -1.28294,-0.16147 -3.20295,-0.16147h-2.66863l-0.20257,-0.79266c-0.56661,-2.22239 -0.56074,-2.06973 -0.61064,-15.06061l-0.04991,-12.27161l2.79487,2.77726c2.60111,2.5835 2.83891,2.789 3.43194,2.96515M2923.69734,655.04439c-0.6723,0.21138 -1.28881,0.71046 -1.66459,1.34753c-0.27009,0.45798 -0.31707,0.6723 -0.31413,1.42092c0.00294,0.97468 0.23486,1.56478 0.8367,2.13726c1.40624,1.32991 3.7402,0.93358 4.6591,-0.78679c0.38752,-0.73101 0.35817,-2.05505 -0.06165,-2.77139c-0.71633,-1.21835 -2.11964,-1.76441 -3.45543,-1.34753M2941.31209,655.04439c-0.6723,0.21138 -1.28881,0.71046 -1.66459,1.34753c-0.27009,0.45798 -0.31707,0.6723 -0.31413,1.42092c0.00294,0.97468 0.23486,1.56478 0.8367,2.13726c1.40624,1.32991 3.7402,0.93358 4.6591,-0.78679c0.38752,-0.73101 0.35817,-2.05505 -0.06165,-2.77139c-0.71633,-1.21835 -2.11964,-1.76441 -3.45543,-1.34753M2931.86471,666.83453c-1.96992,0.5167 -3.63745,2.20184 -4.16002,4.21286c-0.34936,1.33285 -0.16734,2.88882 0.48441,4.17469c0.39927,0.78973 1.69102,2.08148 2.48074,2.48074c1.72918,0.87487 3.73139,0.87487 5.46057,0c0.78092,-0.39633 2.07854,-1.68808 2.469,-2.46019c0.65468,-1.28881 0.82496,-2.73029 0.49615,-4.13359c-0.24073,-1.01872 -0.64587,-1.76735 -1.3945,-2.57175c-1.14789,-1.23597 -2.65689,-1.90239 -4.30093,-1.90239c-0.41982,0 -1.10973,0.09101 -1.53542,0.19963" className="SFSymbolsPreviewWireframe"/></g>
  <g id="Regular-S"><path d="M1425.46334,631.55219c-0.67817,0.22018 -1.29175,0.71927 -1.66459,1.3534l-0.31707,0.54019v16.44043c0,17.44447 -0.02936,16.28483 0.48147,19.22943l0.07633,0.44037h-1.93175c-2.68331,0 -3.45249,0.2789 -4.18057,1.51487c-0.26716,0.45798 -0.31707,0.67523 -0.31707,1.42092c0,0.75156 0.04697,0.96294 0.32587,1.4356c0.17908,0.30239 0.50789,0.69285 0.73395,0.86312c0.76624,0.58422 1.05395,0.62532 4.40662,0.6312l3.11487,0.00587l0.30826,0.62826l0.30826,0.62826l-2.81542,2.80662c-1.5501,1.54423 -2.95928,3.04442 -3.13249,3.33506c-0.26716,0.44624 -0.31413,0.66349 -0.31413,1.40918c0,0.7545 0.04697,0.96 0.33174,1.44441c0.38165,0.65175 1.08331,1.20074 1.77028,1.38863c0.59597,0.15853 1.55891,0.07046 2.08148,-0.19376c0.21725,-0.11156 1.56478,-1.35927 2.99157,-2.77726l2.5923,-2.57762l1.04808,1.01872c8.06168,7.85031 20.02209,9.79086 30.05076,4.87928c2.63928,-1.29468 4.80295,-2.81836 6.91672,-4.87928l1.04808,-1.01872l2.5923,2.57762c1.42679,1.41799 2.78019,2.67451 3.00625,2.79487c0.29064,0.15266 0.66642,0.21725 1.29175,0.21725c0.75743,0.00294 0.96,-0.04404 1.44441,-0.32881c1.39744,-0.82202 1.89946,-2.64221 1.09505,-3.98974c-0.16147,-0.27009 -1.55891,-1.7556 -3.109,-3.29983l-2.81542,-2.80662l0.30826,-0.62826l0.30826,-0.62826l3.11487,-0.00587c3.35267,-0.00587 3.64038,-0.04697 4.40662,-0.6312c0.22606,-0.17028 0.55486,-0.56074 0.73395,-0.86312c0.2789,-0.47266 0.32587,-0.68404 0.32587,-1.4356c0,-0.74569 -0.04991,-0.96294 -0.31707,-1.42092c-0.72808,-1.23597 -1.49725,-1.51487 -4.17763,-1.51487h-1.93469l0.08514,-0.49908c0.04697,-0.27303 0.16734,-0.94826 0.27009,-1.49725c0.15853,-0.86899 0.18789,-3.11194 0.22606,-17.30942c0.04697,-18.26649 0.10275,-17.03052 -0.7956,-17.92888c-0.68991,-0.68991 -1.10386,-0.86606 -2.04625,-0.86899c-1.38863,-0.00294 -1.42679,0.02642 -5.63965,4.58277c-2.06386,2.23707 -3.91341,4.24809 -4.10717,4.47121l-0.35229,0.40514l-1.36808,-0.69578c-2.85946,-1.45615 -5.48406,-2.26937 -8.78976,-2.73322c-1.32111,-0.18495 -5.1758,-0.18789 -6.57617,-0.00587c-2.79487,0.36697 -5.70718,1.23303 -8.1615,2.43377l-1.52661,0.74569l-4.40369,-4.3802c-2.80662,-2.789 -4.56516,-4.45066 -4.85286,-4.58277c-0.5989,-0.27303 -1.55597,-0.33762 -2.149,-0.14092M1435.50961,647.17353c1.15377,0.34055 1.64991,0.22899 3.13249,-0.70753c3.12368,-1.96992 5.94498,-2.92698 9.54132,-3.23524c2.66276,-0.22606 5.78351,0.13505 8.23783,0.95707c1.20367,0.4022 3.71084,1.67047 4.94681,2.49836c1.59707,1.07156 2.51891,1.24184 3.6257,0.66936c0.58129,-0.29945 0.88074,-0.59303 3.24405,-3.15598l2.09909,-2.28111l0.03523,0.98936c0.02055,0.54312 0.01174,5.95672 -0.01468,12.02794c-0.05284,11.65215 -0.04991,11.62867 -0.61064,13.82758l-0.20257,0.79266h-2.66863c-1.92001,0 -2.81542,0.04404 -3.20295,0.16147c-1.58826,0.47853 -2.43377,2.12845 -1.90533,3.71965c0.17615,0.53431 0.4433,0.86899 1.7879,2.24294l1.57946,1.61469l-0.24367,0.34349c-0.28771,0.40514 -1.77615,1.74973 -2.77432,2.50717c-2.58056,1.95817 -5.83635,3.31451 -9.2771,3.87231c-0.5167,0.0822 -1.86423,0.14973 -2.99451,0.14973c-2.78607,0 -4.87928,-0.36697 -7.24847,-1.2712c-2.54827,-0.97175 -4.50938,-2.1901 -6.70828,-4.16589c-1.58533,-1.42386 -1.60588,-1.1567 0.24367,-3.04735c1.34753,-1.37689 1.61469,-1.71157 1.79083,-2.24588c0.52844,-1.5912 -0.31707,-3.24111 -1.90533,-3.71965c-0.38752,-0.11743 -1.28294,-0.16147 -3.20295,-0.16147h-2.66863l-0.20257,-0.79266c-0.56661,-2.22239 -0.56074,-2.06973 -0.61064,-15.06061l-0.04991,-12.27161l2.79487,2.77726c2.60111,2.5835 2.83891,2.789 3.43194,2.96515M1440.14229,655.04439c-0.6723,0.21138 -1.28881,0.71046 -1.66459,1.34753c-0.27009,0.45798 -0.31707,0.6723 -0.31413,1.42092c0.00294,0.97468 0.23486,1.56478 0.8367,2.13726c1.40624,1.32991 3.7402,0.93358 4.6591,-0.78679c0.38752,-0.73101 0.35817,-2.05505 -0.06165,-2.77139c-0.71633,-1.21835 -2.11964,-1.76441 -3.45543,-1.34753M1457.75704,655.04439c-0.6723,0.21138 -1.28881,0.71046 -1.66459,1.34753c-0.27009,0.45798 -0.31707,0.6723 -0.31413,1.42092c0.00294,0.97468 0.23486,1.56478 0.8367,2.13726c1.40624,1.32991 3.7402,0.93358 4.6591,-0.78679c0.38752,-0.73101 0.35817,-2.05505 -0.06165,-2.77139c-0.71633,-1.21835 -2.11964,-1.76441 -3.45543,-1.34753M1448.30966,666.83453c-1.96992,0.5167 -3.63745,2.20184 -4.16002,4.21286c-0.34936,1.33285 -0.16734,2.88882 0.48441,4.17469c0.39927,0.78973 1.69102,2.08148 2.48074,2.48074c1.72918,0.87487 3.73139,0.87487 5.46057,0c0.78092,-0.39633 2.07854,-1.68808 2.469,-2.46019c0.65468,-1.28881 0.82496,-2.73029 0.49615,-4.13359c-0.24073,-1.01872 -0.64587,-1.76735 -1.3945,-2.57175c-1.14789,-1.23597 -2.65689,-1.90239 -4.30093,-1.90239c-0.41982,0 -1.10973,0.09101 -1.53542,0.19963" className="SFSymbolsPreviewWireframe"/></g>
  <g id="Ultralight-S"><path d="M535.32975,631.55219c-0.67817,0.22018 -1.29175,0.71927 -1.66459,1.3534l-0.31707,0.54019v16.44043c0,17.44447 -0.02936,16.28483 0.48147,19.22943l0.07633,0.44037h-1.93175c-2.68331,0 -3.45249,0.2789 -4.18057,1.51487c-0.26716,0.45798 -0.31707,0.67523 -0.31707,1.42092c0,0.75156 0.04697,0.96294 0.32587,1.4356c0.17908,0.30239 0.50789,0.69285 0.73395,0.86312c0.76624,0.58422 1.05395,0.62532 4.40662,0.6312l3.11487,0.00587l0.30826,0.62826l0.30826,0.62826l-2.81542,2.80662c-1.5501,1.54423 -2.95928,3.04442 -3.13249,3.33506c-0.26716,0.44624 -0.31413,0.66349 -0.31413,1.40918c0,0.7545 0.04697,0.96 0.33174,1.44441c0.38165,0.65175 1.08331,1.20074 1.77028,1.38863c0.59597,0.15853 1.55891,0.07046 2.08148,-0.19376c0.21725,-0.11156 1.56478,-1.35927 2.99157,-2.77726l2.5923,-2.57762l1.04808,1.01872c8.06168,7.85031 20.02209,9.79086 30.05076,4.87928c2.63928,-1.29468 4.80295,-2.81836 6.91672,-4.87928l1.04808,-1.01872l2.5923,2.57762c1.42679,1.41799 2.78019,2.67451 3.00625,2.79487c0.29064,0.15266 0.66642,0.21725 1.29175,0.21725c0.75743,0.00294 0.96,-0.04404 1.44441,-0.32881c1.39744,-0.82202 1.89946,-2.64221 1.09505,-3.98974c-0.16147,-0.27009 -1.55891,-1.7556 -3.109,-3.29983l-2.81542,-2.80662l0.30826,-0.62826l0.30826,-0.62826l3.11487,-0.00587c3.35267,-0.00587 3.64038,-0.04697 4.40662,-0.6312c0.22606,-0.17028 0.55486,-0.56074 0.73395,-0.86312c0.2789,-0.47266 0.32587,-0.68404 0.32587,-1.4356c0,-0.74569 -0.04991,-0.96294 -0.31707,-1.42092c-0.72808,-1.23597 -1.49725,-1.51487 -4.17763,-1.51487h-1.93469l0.08514,-0.49908c0.04697,-0.27303 0.16734,-0.94826 0.27009,-1.49725c0.15853,-0.86899 0.18789,-3.11194 0.22606,-17.30942c0.04697,-18.26649 0.10275,-17.03052 -0.7956,-17.92888c-0.68991,-0.68991 -1.10386,-0.86606 -2.04625,-0.86899c-1.38863,-0.00294 -1.42679,0.02642 -5.63965,4.58277c-2.06386,2.23707 -3.91341,4.24809 -4.10717,4.47121l-0.35229,0.40514l-1.36808,-0.69578c-2.85946,-1.45615 -5.48406,-2.26937 -8.78976,-2.73322c-1.32111,-0.18495 -5.1758,-0.18789 -6.57617,-0.00587c-2.79487,0.36697 -5.70718,1.23303 -8.1615,2.43377l-1.52661,0.74569l-4.40369,-4.3802c-2.80662,-2.789 -4.56516,-4.45066 -4.85286,-4.58277c-0.5989,-0.27303 -1.55597,-0.33762 -2.149,-0.14092M545.37602,647.17353c1.15377,0.34055 1.64991,0.22899 3.13249,-0.70753c3.12368,-1.96992 5.94498,-2.92698 9.54132,-3.23524c2.66276,-0.22606 5.78351,0.13505 8.23783,0.95707c1.20367,0.4022 3.71084,1.67047 4.94681,2.49836c1.59707,1.07156 2.51891,1.24184 3.6257,0.66936c0.58129,-0.29945 0.88074,-0.59303 3.24405,-3.15598l2.09909,-2.28111l0.03523,0.98936c0.02055,0.54312 0.01174,5.95672 -0.01468,12.02794c-0.05284,11.65215 -0.04991,11.62867 -0.61064,13.82758l-0.20257,0.79266h-2.66863c-1.92001,0 -2.81542,0.04404 -3.20295,0.16147c-1.58826,0.47853 -2.43377,2.12845 -1.90533,3.71965c0.17615,0.53431 0.4433,0.86899 1.7879,2.24294l1.57946,1.61469l-0.24367,0.34349c-0.28771,0.40514 -1.77615,1.74973 -2.77432,2.50717c-2.58056,1.95817 -5.83635,3.31451 -9.2771,3.87231c-0.5167,0.0822 -1.86423,0.14973 -2.99451,0.14973c-2.78607,0 -4.87928,-0.36697 -7.24847,-1.2712c-2.54827,-0.97175 -4.50937,-2.1901 -6.70828,-4.16589c-1.58533,-1.42386 -1.60588,-1.1567 0.24367,-3.04735c1.34753,-1.37689 1.61469,-1.71157 1.79083,-2.24588c0.52844,-1.5912 -0.31707,-3.24111 -1.90533,-3.71965c-0.38752,-0.11743 -1.28294,-0.16147 -3.20295,-0.16147h-2.66863l-0.20257,-0.79266c-0.56661,-2.22239 -0.56074,-2.06973 -0.61064,-15.06061l-0.04991,-12.27161l2.79487,2.77726c2.60111,2.5835 2.83891,2.789 3.43194,2.96515M550.0087,655.04439c-0.6723,0.21138 -1.28881,0.71046 -1.66459,1.34753c-0.27009,0.45798 -0.31707,0.6723 -0.31413,1.42092c0.00294,0.97468 0.23486,1.56478 0.8367,2.13726c1.40624,1.32991 3.7402,0.93358 4.6591,-0.78679c0.38752,-0.73101 0.35817,-2.05505 -0.06165,-2.77139c-0.71633,-1.21835 -2.11964,-1.76441 -3.45543,-1.34753M567.62345,655.04439c-0.6723,0.21138 -1.28881,0.71046 -1.66459,1.34753c-0.27009,0.45798 -0.31707,0.6723 -0.31413,1.42092c0.00294,0.97468 0.23486,1.56478 0.8367,2.13726c1.40624,1.32991 3.7402,0.93358 4.6591,-0.78679c0.38752,-0.73101 0.35817,-2.05505 -0.06165,-2.77139c-0.71633,-1.21835 -2.11964,-1.76441 -3.45543,-1.34753M558.17607,666.83453c-1.96992,0.5167 -3.63745,2.20184 -4.16002,4.21286c-0.34936,1.33285 -0.16734,2.88882 0.48441,4.17469c0.39927,0.78973 1.69102,2.08148 2.48074,2.48074c1.72918,0.87487 3.73139,0.87487 5.46057,0c0.78092,-0.39633 2.07854,-1.68808 2.469,-2.46019c0.65468,-1.28881 0.82496,-2.73029 0.49615,-4.13359c-0.24073,-1.01872 -0.64587,-1.76735 -1.3945,-2.57175c-1.14789,-1.23597 -2.65689,-1.90239 -4.30093,-1.90239c-0.41982,0 -1.10973,0.09101 -1.53542,0.19963" className="SFSymbolsPreviewWireframe"/></g>
 </g>
</svg>