<?xml version="1.0" encoding="UTF-8"?><!--Generator: https://SymbolKit.app--><!DOCTYPE svg PUBLIC "-//W3C//DTD SVG 1.1//EN" "http://www.w3.org/Graphics/SVG/1.1/DTD/svg11.dtd"><svg xmlns="http://www.w3.org/2000/svg" xmlns:xlink="http://www.w3.org/1999/xlink" version="1.1" viewBox="0 0 3300 2200">
 <!--glyph: "100092", point size: 100.0, font version: "20.0d10e1", template writer version: "138.0.0"-->
 <style>.SFSymbolsPreviewWireframe {fill:none;opacity:1.0;stroke:black;stroke-width:0.5}
</style>
 <g id="Notes">
  <rect height="2200" id="artboard" style="fill:white;opacity:1" width="3300" x="0" y="0"/>
  <line style="fill:none;stroke:black;opacity:1;stroke-width:0.5;" x1="263" x2="3036" y1="292" y2="292"/>
  <text style="stroke:none;fill:black;font-family:sans-serif;font-size:13;font-weight:bold;" transform="matrix(1 0 0 1 263 322)">Weight/Scale Variations</text>
  <text style="stroke:none;fill:black;font-family:sans-serif;font-size:13;text-anchor:middle;" transform="matrix(1 0 0 1 559.711 322)">Ultralight</text>
  <text style="stroke:none;fill:black;font-family:sans-serif;font-size:13;text-anchor:middle;" transform="matrix(1 0 0 1 856.422 322)">Thin</text>
  <text style="stroke:none;fill:black;font-family:sans-serif;font-size:13;text-anchor:middle;" transform="matrix(1 0 0 1 1153.13 322)">Light</text>
  <text style="stroke:none;fill:black;font-family:sans-serif;font-size:13;text-anchor:middle;" transform="matrix(1 0 0 1 1449.84 322)">Regular</text>
  <text style="stroke:none;fill:black;font-family:sans-serif;font-size:13;text-anchor:middle;" transform="matrix(1 0 0 1 1746.56 322)">Medium</text>
  <text style="stroke:none;fill:black;font-family:sans-serif;font-size:13;text-anchor:middle;" transform="matrix(1 0 0 1 2043.27 322)">Semibold</text>
  <text style="stroke:none;fill:black;font-family:sans-serif;font-size:13;text-anchor:middle;" transform="matrix(1 0 0 1 2339.98 322)">Bold</text>
  <text style="stroke:none;fill:black;font-family:sans-serif;font-size:13;text-anchor:middle;" transform="matrix(1 0 0 1 2636.69 322)">Heavy</text>
  <text style="stroke:none;fill:black;font-family:sans-serif;font-size:13;text-anchor:middle;" transform="matrix(1 0 0 1 2933.4 322)">Black</text>
  <line style="fill:none;stroke:black;opacity:1;stroke-width:0.5;" x1="263" x2="3036" y1="1903" y2="1903"/>
  <g transform="matrix(0.2 0 0 0.2 263 1933)">
   <path d="m46.2402 4.15039c21.7773 0 39.4531-17.627 39.4531-39.4043s-17.6758-39.4043-39.4531-39.4043c-21.7285 0-39.4043 17.627-39.4043 39.4043s17.6758 39.4043 39.4043 39.4043Zm0-7.42188c-17.6758 0-31.9336-14.3066-31.9336-31.9824s14.2578-31.9824 31.9336-31.9824 31.9824 14.3066 31.9824 31.9824-14.3066 31.9824-31.9824 31.9824Zm-17.9688-31.9824c0 2.14844 1.51367 3.61328 3.75977 3.61328h10.498v10.5957c0 2.19727 1.46484 3.71094 3.61328 3.71094 2.24609 0 3.71094-1.51367 3.71094-3.71094v-10.5957h10.5957c2.19727 0 3.71094-1.46484 3.71094-3.61328 0-2.19727-1.51367-3.71094-3.71094-3.71094h-10.5957v-10.5469c0-2.24609-1.46484-3.75977-3.71094-3.75977-2.14844 0-3.61328 1.51367-3.61328 3.75977v10.5469h-10.498c-2.24609 0-3.75977 1.51367-3.75977 3.71094Z"/>
  </g>
  <g transform="matrix(0.2 0 0 0.2 281.506 1933)">
   <path d="m58.5449 14.5508c27.4902 0 49.8047-22.3145 49.8047-49.8047s-22.3145-49.8047-49.8047-49.8047-49.8047 22.3145-49.8047 49.8047 22.3145 49.8047 49.8047 49.8047Zm0-8.30078c-22.9492 0-41.5039-18.5547-41.5039-41.5039s18.5547-41.5039 41.5039-41.5039 41.5039 18.5547 41.5039 41.5039-18.5547 41.5039-41.5039 41.5039Zm-22.6562-41.5039c0 2.39258 1.66016 4.00391 4.15039 4.00391h14.3555v14.4043c0 2.44141 1.66016 4.15039 4.05273 4.15039 2.44141 0 4.15039-1.66016 4.15039-4.15039v-14.4043h14.4043c2.44141 0 4.15039-1.61133 4.15039-4.00391 0-2.44141-1.70898-4.15039-4.15039-4.15039h-14.4043v-14.3555c0-2.49023-1.70898-4.19922-4.15039-4.19922-2.39258 0-4.05273 1.70898-4.05273 4.19922v14.3555h-14.3555c-2.49023 0-4.15039 1.70898-4.15039 4.15039Z"/>
  </g>
  <g transform="matrix(0.2 0 0 0.2 304.924 1933)">
   <path d="m74.8535 28.3203c35.1074 0 63.623-28.4668 63.623-63.5742s-28.5156-63.623-63.623-63.623-63.5742 28.5156-63.5742 63.623 28.4668 63.5742 63.5742 63.5742Zm0-9.08203c-30.127 0-54.4922-24.3652-54.4922-54.4922s24.3652-54.4922 54.4922-54.4922 54.4922 24.3652 54.4922 54.4922-24.3652 54.4922-54.4922 54.4922Zm-28.8574-54.4922c0 2.58789 1.85547 4.39453 4.58984 4.39453h19.7266v19.7754c0 2.68555 1.85547 4.58984 4.44336 4.58984 2.68555 0 4.54102-1.85547 4.54102-4.58984v-19.7754h19.7754c2.68555 0 4.58984-1.80664 4.58984-4.39453 0-2.73438-1.85547-4.58984-4.58984-4.58984h-19.7754v-19.7266c0-2.73438-1.85547-4.63867-4.54102-4.63867-2.58789 0-4.44336 1.9043-4.44336 4.63867v19.7266h-19.7266c-2.73438 0-4.58984 1.85547-4.58984 4.58984Z"/>
  </g>
  <text style="stroke:none;fill:black;font-family:sans-serif;font-size:13;font-weight:bold;" transform="matrix(1 0 0 1 263 1953)">Design Variations</text>
  <text style="stroke:none;fill:black;font-family:sans-serif;font-size:13;" transform="matrix(1 0 0 1 263 1971)">Symbols are supported in up to nine weights and three scales.</text>
  <text style="stroke:none;fill:black;font-family:sans-serif;font-size:13;" transform="matrix(1 0 0 1 263 1989)">For optimal layout with text and other symbols, vertically align</text>
  <text style="stroke:none;fill:black;font-family:sans-serif;font-size:13;" transform="matrix(1 0 0 1 263 2007)">symbols with the adjacent text.</text>
  <line style="fill:none;stroke:#00AEEF;stroke-width:0.5;opacity:1.0;" x1="776" x2="776" y1="1919" y2="1933"/>
  <g transform="matrix(0.2 0 0 0.2 776 1933)">
   <path d="m16.5527 0.78125c2.58789 0 3.85742-0.976562 4.78516-3.71094l6.29883-17.2363h28.8086l6.29883 17.2363c0.927734 2.73438 2.19727 3.71094 4.73633 3.71094 2.58789 0 4.24805-1.5625 4.24805-4.00391 0-0.830078-0.146484-1.61133-0.537109-2.63672l-22.9004-60.9863c-1.12305-2.97852-3.125-4.49219-6.25-4.49219-3.02734 0-5.07812 1.46484-6.15234 4.44336l-22.9004 61.084c-0.390625 1.02539-0.537109 1.80664-0.537109 2.63672 0 2.44141 1.5625 3.95508 4.10156 3.95508Zm13.4766-28.3691 11.8652-32.8613h0.244141l11.8652 32.8613Z"/>
  </g>
  <line style="fill:none;stroke:#00AEEF;stroke-width:0.5;opacity:1.0;" x1="792.836" x2="792.836" y1="1919" y2="1933"/>
  <text style="stroke:none;fill:black;font-family:sans-serif;font-size:13;font-weight:bold;" transform="matrix(1 0 0 1 776 1953)">Margins</text>
  <text style="stroke:none;fill:black;font-family:sans-serif;font-size:13;" transform="matrix(1 0 0 1 776 1971)">Leading and trailing margins on the left and right side of each symbol</text>
  <text style="stroke:none;fill:black;font-family:sans-serif;font-size:13;" transform="matrix(1 0 0 1 776 1989)">can be adjusted by modifying the x-location of the margin guidelines.</text>
  <text style="stroke:none;fill:black;font-family:sans-serif;font-size:13;" transform="matrix(1 0 0 1 776 2007)">Modifications are automatically applied proportionally to all</text>
  <text style="stroke:none;fill:black;font-family:sans-serif;font-size:13;" transform="matrix(1 0 0 1 776 2025)">scales and weights.</text>
  <g transform="matrix(0.2 0 0 0.2 1289 1933)">
   <path d="m14.209 9.32617 8.49609 8.54492c4.29688 4.3457 9.22852 4.05273 13.8672-1.07422l53.4668-58.9355-4.83398-4.88281-53.0762 58.3984c-1.75781 2.00195-3.41797 2.49023-5.76172 0.146484l-5.85938-5.81055c-2.34375-2.29492-1.80664-4.00391 0.195312-5.81055l57.373-54.0039-4.88281-4.83398-57.959 54.4434c-4.93164 4.58984-5.32227 9.47266-1.02539 13.8184Zm32.0801-90.9668c-2.09961 2.05078-2.24609 4.93164-1.07422 6.88477 1.17188 1.80664 3.4668 2.97852 6.68945 2.14844 7.32422-1.70898 14.9414-2.00195 22.0703 2.68555l-2.92969 7.27539c-1.70898 4.15039-0.830078 7.08008 1.85547 9.81445l11.4746 11.5723c2.44141 2.44141 4.49219 2.53906 7.32422 2.05078l5.32227-0.976562 3.32031 3.36914-0.195312 2.7832c-0.195312 2.49023 0.439453 4.39453 2.88086 6.78711l3.80859 3.71094c2.39258 2.39258 5.46875 2.53906 7.8125 0.195312l14.5508-14.5996c2.34375-2.34375 2.24609-5.32227-0.146484-7.71484l-3.85742-3.80859c-2.39258-2.39258-4.24805-3.17383-6.64062-2.97852l-2.88086 0.244141-3.22266-3.17383 1.2207-5.61523c0.634766-2.83203-0.146484-5.0293-3.07617-7.95898l-10.9863-10.9375c-16.6992-16.6016-38.8672-16.2109-53.3203-1.75781Zm7.4707 1.85547c12.1582-8.88672 28.6133-7.37305 39.7461 3.75977l12.1582 12.0605c1.17188 1.17188 1.36719 2.09961 1.02539 3.80859l-1.61133 7.42188 7.51953 7.42188 4.93164-0.292969c1.26953-0.0488281 1.66016 0.0488281 2.63672 1.02539l2.88086 2.88086-12.207 12.207-2.88086-2.88086c-0.976562-0.976562-1.12305-1.36719-1.07422-2.68555l0.341797-4.88281-7.4707-7.42188-7.61719 1.26953c-1.61133 0.341797-2.34375 0.195312-3.56445-0.976562l-10.0098-10.0098c-1.26953-1.17188-1.41602-2.00195-0.634766-3.85742l4.39453-10.4492c-7.8125-7.27539-17.9688-10.4004-28.125-7.42188-0.78125 0.195312-1.07422-0.439453-0.439453-0.976562Z"/>
  </g>
  <text style="stroke:none;fill:black;font-family:sans-serif;font-size:13;font-weight:bold;" transform="matrix(1 0 0 1 1289 1953)">Exporting</text>
  <text style="stroke:none;fill:black;font-family:sans-serif;font-size:13;" transform="matrix(1 0 0 1 1289 1971)">Symbols should be outlined when exporting to ensure the</text>
  <text style="stroke:none;fill:black;font-family:sans-serif;font-size:13;" transform="matrix(1 0 0 1 1289 1989)">design is preserved when submitting to Xcode.</text>
  <text id="template-version" style="stroke:none;fill:black;font-family:sans-serif;font-size:13;text-anchor:end;" transform="matrix(1 0 0 1 3036 1933)">Template v.6.0</text>
  <text style="stroke:none;fill:black;font-family:sans-serif;font-size:13;text-anchor:end;" transform="matrix(1 0 0 1 3036 1951)">Requires Xcode 16 or greater</text>
  <text id="descriptive-name" style="stroke:none;fill:black;font-family:sans-serif;font-size:13;text-anchor:end;" transform="matrix(1 0 0 1 3036 1969)">Generated from square</text>
  <text style="stroke:none;fill:black;font-family:sans-serif;font-size:13;text-anchor:end;" transform="matrix(1 0 0 1 3036 1987)">Typeset at 100.0 points</text>
  <text style="stroke:none;fill:black;font-family:sans-serif;font-size:13;" transform="matrix(1 0 0 1 263 726)">Small</text>
  <text style="stroke:none;fill:black;font-family:sans-serif;font-size:13;" transform="matrix(1 0 0 1 263 1156)">Medium</text>
  <text style="stroke:none;fill:black;font-family:sans-serif;font-size:13;" transform="matrix(1 0 0 1 263 1586)">Large</text>
 </g>
 <g id="Guides">
  <g id="H-reference" style="fill:#27AAE1;stroke:none;" transform="matrix(1 0 0 1 339 696)">
   <path d="M0.993654 0L3.63775 0L29.3281-67.1323L30.0303-67.1323L30.0303-70.459L28.1226-70.459ZM11.6885-24.4799L46.9815-24.4799L46.2315-26.7285L12.4385-26.7285ZM55.1196 0L57.7637 0L30.6382-70.459L29.4326-70.459L29.4326-67.1323Z"/>
  </g>
  <line id="Baseline-S" style="fill:none;stroke:#27AAE1;opacity:1;stroke-width:0.5;" x1="263" x2="3036" y1="696" y2="696"/>
  <line id="Capline-S" style="fill:none;stroke:#27AAE1;opacity:1;stroke-width:0.5;" x1="263" x2="3036" y1="625.541" y2="625.541"/>
  <g id="H-reference" style="fill:#27AAE1;stroke:none;" transform="matrix(1 0 0 1 339 1126)">
   <path d="M0.993654 0L3.63775 0L29.3281-67.1323L30.0303-67.1323L30.0303-70.459L28.1226-70.459ZM11.6885-24.4799L46.9815-24.4799L46.2315-26.7285L12.4385-26.7285ZM55.1196 0L57.7637 0L30.6382-70.459L29.4326-70.459L29.4326-67.1323Z"/>
  </g>
  <line id="Baseline-M" style="fill:none;stroke:#27AAE1;opacity:1;stroke-width:0.5;" x1="263" x2="3036" y1="1126" y2="1126"/>
  <line id="Capline-M" style="fill:none;stroke:#27AAE1;opacity:1;stroke-width:0.5;" x1="263" x2="3036" y1="1055.54" y2="1055.54"/>
  <g id="H-reference" style="fill:#27AAE1;stroke:none;" transform="matrix(1 0 0 1 339 1556)">
   <path d="M0.993654 0L3.63775 0L29.3281-67.1323L30.0303-67.1323L30.0303-70.459L28.1226-70.459ZM11.6885-24.4799L46.9815-24.4799L46.2315-26.7285L12.4385-26.7285ZM55.1196 0L57.7637 0L30.6382-70.459L29.4326-70.459L29.4326-67.1323Z"/>
  </g>
  <line id="Baseline-L" style="fill:none;stroke:#27AAE1;opacity:1;stroke-width:0.5;" x1="263" x2="3036" y1="1556" y2="1556"/>
  <line id="Capline-L" style="fill:none;stroke:#27AAE1;opacity:1;stroke-width:0.5;" x1="263" x2="3036" y1="1485.54" y2="1485.54"/>
  <line id="right-margin-Black-S" style="fill:none;stroke:#00AEEF;stroke-width:0.5;opacity:1.0;" x1="2981.3" x2="2981.3" y1="600.785" y2="720.121"/>
  <line id="left-margin-Black-S" style="fill:none;stroke:#00AEEF;stroke-width:0.5;opacity:1.0;" x1="2885.5" x2="2885.5" y1="600.785" y2="720.121"/>
  <line id="right-margin-Regular-S" style="fill:none;stroke:#00AEEF;stroke-width:0.5;opacity:1.0;" x1="1495.18" x2="1495.18" y1="600.785" y2="720.121"/>
  <line id="left-margin-Regular-S" style="fill:none;stroke:#00AEEF;stroke-width:0.5;opacity:1.0;" x1="1404.51" x2="1404.51" y1="600.785" y2="720.121"/>
  <line id="right-margin-Ultralight-S" style="fill:none;stroke:#00AEEF;stroke-width:0.5;opacity:1.0;" x1="603.073" x2="603.073" y1="600.785" y2="720.121"/>
  <line id="left-margin-Ultralight-S" style="fill:none;stroke:#00AEEF;stroke-width:0.5;opacity:1.0;" x1="516.35" x2="516.35" y1="600.785" y2="720.121"/>
 </g>
 <g id="Symbols">
  <g id="Black-S"><path d="M2911.3781,632.9952c-1.88478,0.31707 -3.24111,1.04221 -4.70607,2.50423c-1.17432,1.17432 -1.76147,2.10496 -2.26349,3.57286l-0.30826,0.90129v16.323v16.323l0.27596,0.88074c0.89248,2.86533 3.04442,5.03782 5.94791,6.00369l0.82202,0.27596l8.36407,0.03523c5.53984,0.02349 8.51967,-0.00587 8.81912,-0.08514c0.66055,-0.17908 1.36514,-0.73688 1.74386,-1.37982c0.28477,-0.48441 0.33174,-0.68991 0.33174,-1.44441c0,-0.74569 -0.04991,-0.96294 -0.31707,-1.42092c-0.32587,-0.55193 -0.88074,-1.05101 -1.46496,-1.30936c-0.25248,-0.11156 -2.32221,-0.16147 -8.49324,-0.20551l-8.1615,-0.05872l-0.54019,-0.31707c-0.29651,-0.17321 -0.68404,-0.50496 -0.85725,-0.73688c-0.69578,-0.9101 -0.66349,-0.0411 -0.6312,-16.68116c0.03229,-14.82868 0.03817,-15.27492 0.25835,-15.72116c0.29064,-0.58422 0.84551,-1.13909 1.42973,-1.42973c0.44624,-0.22018 0.95707,-0.22606 21.53109,-0.25541c23.72119,-0.03523 21.87164,-0.10569 22.83458,0.86019c0.95413,0.9512 0.89248,-0.17908 0.89248,16.71639c0,10.33398 -0.0411,15.12813 -0.12917,15.45107c-0.18495,0.68991 -0.63413,1.28294 -1.34459,1.77028c-1.04808,0.7222 -1.54129,1.70569 -1.42679,2.83304c0.21725,2.08148 2.35744,3.2235 4.26277,2.2723c1.42092,-0.71046 2.71854,-2.0756 3.52001,-3.70497c1.00698,-2.04625 0.93065,-0.53138 0.93065,-18.73035v-16.14685l-0.27596,-0.88074c-0.89542,-2.8712 -3.09432,-5.08479 -5.94498,-5.98608l-0.94239,-0.29651l-21.78357,-0.01761c-11.98096,-0.00881 -22.05073,0.02936 -22.37366,0.08514M2914.88931,644.77946c-0.6723,0.21138 -1.28881,0.71046 -1.66459,1.34753c-0.26716,0.45798 -0.31707,0.67523 -0.31707,1.42092c0,0.75156 0.04697,0.96294 0.32587,1.4356c0.36697,0.62532 0.93358,1.10092 1.58239,1.33285c0.65175,0.23193 36.51537,0.23193 37.16711,0c0.64881,-0.23193 1.21542,-0.70753 1.58239,-1.33285c0.2789,-0.47266 0.32587,-0.68404 0.32587,-1.4356c0,-0.74569 -0.04991,-0.96294 -0.31707,-1.42092c-0.38752,-0.65468 -0.99523,-1.13909 -1.70863,-1.3534c-0.76918,-0.23193 -36.23647,-0.22606 -36.97629,0.00587M2914.88931,653.58684c-0.6723,0.21138 -1.28881,0.71046 -1.66459,1.34753c-0.26716,0.45798 -0.31707,0.67523 -0.31707,1.42092c0,0.75156 0.04697,0.96294 0.32587,1.4356c0.36697,0.62532 0.93358,1.10092 1.58239,1.33285c0.64,0.22899 10.10499,0.22899 10.745,0c0.64881,-0.23193 1.21542,-0.70753 1.58239,-1.33285c0.2789,-0.47266 0.32587,-0.68404 0.32587,-1.4356c0,-0.74569 -0.04991,-0.96294 -0.31707,-1.42092c-0.38752,-0.65468 -0.99523,-1.13909 -1.70863,-1.3534c-0.74863,-0.22606 -9.83196,-0.22018 -10.55417,0.00587M2940.32207,653.59858c-6.48223,1.00991 -10.92701,7.40113 -9.61765,13.83051c0.37872,1.85542 1.19193,3.63745 2.24294,4.91745l0.45211,0.54899l0.00587,6.67305c0.00587,7.18682 0,7.13691 0.6312,7.96187c0.70165,0.92184 2.07854,1.33578 3.1824,0.96c0.34055,-0.11743 1.41212,-0.83083 2.77139,-1.84955l2.21359,-1.65872l2.29285,1.71157c1.52661,1.14202 2.45726,1.7556 2.789,1.84661c1.08624,0.29358 2.4279,-0.13798 3.07671,-0.98936c0.65175,-0.85432 0.65175,-0.83964 0.65175,-8.02645v-6.62902l0.45211,-0.54899c1.49432,-1.82019 2.48368,-4.67965 2.48368,-7.18388c0,-1.97579 -0.65762,-4.33029 -1.69982,-6.07122c-1.72331,-2.88588 -4.88809,-4.99084 -8.26719,-5.50167c-1.3534,-0.20257 -2.31634,-0.19963 -3.66093,0.00881M2943.74226,659.50539c2.16955,0.56661 3.89579,2.49836 4.23928,4.74717c0.29358,1.91707 -0.27596,3.64919 -1.65579,5.03195c-1.17725,1.18312 -2.51304,1.74973 -4.11891,1.74973c-1.51193,0 -2.82423,-0.52257 -3.95451,-1.57065c-3.9046,-3.62864 -1.36221,-10.15784 3.95451,-10.15784c0.41982,0 1.10973,0.09101 1.53542,0.19963M2914.88931,662.39421c-0.6723,0.21138 -1.28881,0.71046 -1.66459,1.34753c-0.26716,0.45798 -0.31707,0.67523 -0.31707,1.42092c0,0.75156 0.04697,0.96294 0.32587,1.4356c0.36697,0.62532 0.93358,1.10092 1.58239,1.33285c0.6312,0.22606 7.17801,0.22606 7.8092,0c0.64881,-0.23193 1.21542,-0.70753 1.58239,-1.33285c0.2789,-0.47266 0.32587,-0.68404 0.32587,-1.4356c0,-0.74569 -0.04991,-0.96294 -0.31707,-1.42092c-0.38752,-0.65468 -0.99523,-1.13909 -1.70863,-1.3534c-0.73688,-0.22312 -6.90792,-0.21725 -7.61838,0.00587M2940.25161,676.72968c0.50496,0.09688 1.38569,0.17615 1.95524,0.17615c0.56954,0 1.45028,-0.07927 1.95524,-0.17615c0.50789,-0.09688 0.93652,-0.17615 0.9512,-0.17615c0.01468,0 0.02936,0.73982 0.02936,1.64404v1.64404l-0.73395,-0.54312c-0.96588,-0.71633 -1.34753,-0.86606 -2.20184,-0.86606c-0.85432,0 -1.23597,0.14973 -2.20184,0.86606l-0.73395,0.54312v-1.64404c0,-0.90422 0.01468,-1.64404 0.02936,-1.64404c0.01468,0 0.4433,0.07927 0.9512,0.17615" className="SFSymbolsPreviewWireframe"/></g>
  <g id="Regular-S"><path d="M1427.82305,632.9952c-1.88478,0.31707 -3.24111,1.04221 -4.70607,2.50423c-1.17432,1.17432 -1.76147,2.10496 -2.26349,3.57286l-0.30826,0.90129v16.323v16.323l0.27596,0.88074c0.89248,2.86533 3.04442,5.03782 5.94791,6.00369l0.82202,0.27596l8.36407,0.03523c5.53984,0.02349 8.51967,-0.00587 8.81912,-0.08514c0.66055,-0.17908 1.36514,-0.73688 1.74386,-1.37982c0.28477,-0.48441 0.33174,-0.68991 0.33174,-1.44441c0,-0.74569 -0.04991,-0.96294 -0.31707,-1.42092c-0.32587,-0.55193 -0.88074,-1.05101 -1.46496,-1.30936c-0.25248,-0.11156 -2.32221,-0.16147 -8.49324,-0.20551l-8.1615,-0.05872l-0.54019,-0.31707c-0.29651,-0.17321 -0.68404,-0.50496 -0.85725,-0.73688c-0.69578,-0.9101 -0.66349,-0.0411 -0.6312,-16.68116c0.03229,-14.82868 0.03817,-15.27492 0.25835,-15.72116c0.29064,-0.58422 0.84551,-1.13909 1.42973,-1.42973c0.44624,-0.22018 0.95707,-0.22606 21.53109,-0.25541c23.72119,-0.03523 21.87164,-0.10569 22.83458,0.86019c0.95413,0.9512 0.89248,-0.17908 0.89248,16.71639c0,10.33398 -0.0411,15.12813 -0.12917,15.45107c-0.18495,0.68991 -0.63413,1.28294 -1.34459,1.77028c-1.04808,0.7222 -1.54129,1.70569 -1.42679,2.83304c0.21725,2.08148 2.35744,3.2235 4.26277,2.2723c1.42092,-0.71046 2.71854,-2.0756 3.52001,-3.70497c1.00698,-2.04625 0.93065,-0.53138 0.93065,-18.73035v-16.14685l-0.27596,-0.88074c-0.89542,-2.8712 -3.09432,-5.08479 -5.94498,-5.98608l-0.94239,-0.29651l-21.78357,-0.01761c-11.98096,-0.00881 -22.05073,0.02936 -22.37366,0.08514M1431.33426,644.77946c-0.6723,0.21138 -1.28881,0.71046 -1.66459,1.34753c-0.26716,0.45798 -0.31707,0.67523 -0.31707,1.42092c0,0.75156 0.04697,0.96294 0.32587,1.4356c0.36697,0.62532 0.93358,1.10092 1.58239,1.33285c0.65175,0.23193 36.51537,0.23193 37.16711,0c0.64881,-0.23193 1.21542,-0.70753 1.58239,-1.33285c0.2789,-0.47266 0.32587,-0.68404 0.32587,-1.4356c0,-0.74569 -0.04991,-0.96294 -0.31707,-1.42092c-0.38752,-0.65468 -0.99523,-1.13909 -1.70863,-1.3534c-0.76918,-0.23193 -36.23647,-0.22606 -36.97629,0.00587M1431.33426,653.58684c-0.6723,0.21138 -1.28881,0.71046 -1.66459,1.34753c-0.26716,0.45798 -0.31707,0.67523 -0.31707,1.42092c0,0.75156 0.04697,0.96294 0.32587,1.4356c0.36697,0.62532 0.93358,1.10092 1.58239,1.33285c0.64,0.22899 10.10499,0.22899 10.745,0c0.64881,-0.23193 1.21542,-0.70753 1.58239,-1.33285c0.2789,-0.47266 0.32587,-0.68404 0.32587,-1.4356c0,-0.74569 -0.04991,-0.96294 -0.31707,-1.42092c-0.38752,-0.65468 -0.99523,-1.13909 -1.70863,-1.3534c-0.74863,-0.22606 -9.83196,-0.22018 -10.55417,0.00587M1456.76702,653.59858c-6.48223,1.00991 -10.92701,7.40113 -9.61765,13.83051c0.37872,1.85542 1.19193,3.63745 2.24294,4.91745l0.45211,0.54899l0.00587,6.67305c0.00587,7.18682 0,7.13691 0.6312,7.96187c0.70165,0.92184 2.07854,1.33578 3.1824,0.96c0.34055,-0.11743 1.41212,-0.83083 2.77139,-1.84955l2.21359,-1.65872l2.29285,1.71157c1.52661,1.14202 2.45726,1.7556 2.789,1.84661c1.08624,0.29358 2.4279,-0.13798 3.07671,-0.98936c0.65175,-0.85432 0.65175,-0.83964 0.65175,-8.02645v-6.62902l0.45211,-0.54899c1.49432,-1.82019 2.48368,-4.67965 2.48368,-7.18388c0,-1.97579 -0.65762,-4.33029 -1.69982,-6.07122c-1.72331,-2.88588 -4.88809,-4.99084 -8.26719,-5.50167c-1.3534,-0.20257 -2.31634,-0.19963 -3.66093,0.00881M1460.18721,659.50539c2.16955,0.56661 3.89579,2.49836 4.23928,4.74717c0.29358,1.91707 -0.27596,3.64919 -1.65579,5.03195c-1.17725,1.18312 -2.51304,1.74973 -4.11891,1.74973c-1.51193,0 -2.82423,-0.52257 -3.95451,-1.57065c-3.9046,-3.62864 -1.36221,-10.15784 3.95451,-10.15784c0.41982,0 1.10973,0.09101 1.53542,0.19963M1431.33426,662.39421c-0.6723,0.21138 -1.28881,0.71046 -1.66459,1.34753c-0.26716,0.45798 -0.31707,0.67523 -0.31707,1.42092c0,0.75156 0.04697,0.96294 0.32587,1.4356c0.36697,0.62532 0.93358,1.10092 1.58239,1.33285c0.6312,0.22606 7.17801,0.22606 7.8092,0c0.64881,-0.23193 1.21542,-0.70753 1.58239,-1.33285c0.2789,-0.47266 0.32587,-0.68404 0.32587,-1.4356c0,-0.74569 -0.04991,-0.96294 -0.31707,-1.42092c-0.38752,-0.65468 -0.99523,-1.13909 -1.70863,-1.3534c-0.73688,-0.22312 -6.90792,-0.21725 -7.61838,0.00587M1456.69656,676.72968c0.50496,0.09688 1.38569,0.17615 1.95524,0.17615c0.56954,0 1.45028,-0.07927 1.95524,-0.17615c0.50789,-0.09688 0.93652,-0.17615 0.9512,-0.17615c0.01468,0 0.02936,0.73982 0.02936,1.64404v1.64404l-0.73395,-0.54312c-0.96588,-0.71633 -1.34753,-0.86606 -2.20184,-0.86606c-0.85432,0 -1.23597,0.14973 -2.20184,0.86606l-0.73395,0.54312v-1.64404c0,-0.90422 0.01468,-1.64404 0.02936,-1.64404c0.01468,0 0.4433,0.07927 0.9512,0.17615" className="SFSymbolsPreviewWireframe"/></g>
  <g id="Ultralight-S"><path d="M537.68946,632.9952c-1.88478,0.31707 -3.24111,1.04221 -4.70607,2.50423c-1.17432,1.17432 -1.76147,2.10496 -2.26349,3.57286l-0.30826,0.90129v16.323v16.323l0.27596,0.88074c0.89248,2.86533 3.04442,5.03782 5.94791,6.00369l0.82202,0.27596l8.36407,0.03523c5.53984,0.02349 8.51967,-0.00587 8.81912,-0.08514c0.66055,-0.17908 1.36514,-0.73688 1.74386,-1.37982c0.28477,-0.48441 0.33174,-0.68991 0.33174,-1.44441c0,-0.74569 -0.04991,-0.96294 -0.31707,-1.42092c-0.32587,-0.55193 -0.88074,-1.05101 -1.46496,-1.30936c-0.25248,-0.11156 -2.32221,-0.16147 -8.49324,-0.20551l-8.1615,-0.05872l-0.54019,-0.31707c-0.29651,-0.17321 -0.68404,-0.50496 -0.85725,-0.73688c-0.69578,-0.9101 -0.66349,-0.0411 -0.6312,-16.68116c0.03229,-14.82868 0.03817,-15.27492 0.25835,-15.72116c0.29064,-0.58422 0.84551,-1.13909 1.42973,-1.42973c0.44624,-0.22018 0.95707,-0.22606 21.53109,-0.25541c23.72119,-0.03523 21.87164,-0.10569 22.83458,0.86019c0.95413,0.9512 0.89248,-0.17908 0.89248,16.71639c0,10.33398 -0.0411,15.12813 -0.12917,15.45107c-0.18495,0.68991 -0.63413,1.28294 -1.34459,1.77028c-1.04808,0.7222 -1.54129,1.70569 -1.42679,2.83304c0.21725,2.08148 2.35744,3.2235 4.26277,2.2723c1.42092,-0.71046 2.71854,-2.0756 3.52001,-3.70497c1.00698,-2.04625 0.93065,-0.53138 0.93065,-18.73035v-16.14685l-0.27596,-0.88074c-0.89542,-2.8712 -3.09432,-5.08479 -5.94498,-5.98608l-0.94239,-0.29651l-21.78357,-0.01761c-11.98096,-0.00881 -22.05073,0.02936 -22.37366,0.08514M541.20067,644.77946c-0.6723,0.21138 -1.28881,0.71046 -1.66459,1.34753c-0.26716,0.45798 -0.31707,0.67523 -0.31707,1.42092c0,0.75156 0.04697,0.96294 0.32587,1.4356c0.36697,0.62532 0.93358,1.10092 1.58239,1.33285c0.65175,0.23193 36.51537,0.23193 37.16711,0c0.64881,-0.23193 1.21542,-0.70753 1.58239,-1.33285c0.2789,-0.47266 0.32587,-0.68404 0.32587,-1.4356c0,-0.74569 -0.04991,-0.96294 -0.31707,-1.42092c-0.38752,-0.65468 -0.99523,-1.13909 -1.70863,-1.3534c-0.76918,-0.23193 -36.23647,-0.22606 -36.97629,0.00587M541.20067,653.58684c-0.6723,0.21138 -1.28881,0.71046 -1.66459,1.34753c-0.26716,0.45798 -0.31707,0.67523 -0.31707,1.42092c0,0.75156 0.04697,0.96294 0.32587,1.4356c0.36697,0.62532 0.93358,1.10092 1.58239,1.33285c0.64,0.22899 10.10499,0.22899 10.745,0c0.64881,-0.23193 1.21542,-0.70753 1.58239,-1.33285c0.2789,-0.47266 0.32587,-0.68404 0.32587,-1.4356c0,-0.74569 -0.04991,-0.96294 -0.31707,-1.42092c-0.38752,-0.65468 -0.99523,-1.13909 -1.70863,-1.3534c-0.74863,-0.22606 -9.83196,-0.22018 -10.55417,0.00587M566.63343,653.59858c-6.48223,1.00991 -10.92701,7.40113 -9.61765,13.83051c0.37872,1.85542 1.19193,3.63745 2.24294,4.91745l0.45211,0.54899l0.00587,6.67305c0.00587,7.18682 0,7.13691 0.6312,7.96187c0.70165,0.92184 2.07854,1.33578 3.1824,0.96c0.34055,-0.11743 1.41212,-0.83083 2.77139,-1.84955l2.21359,-1.65872l2.29285,1.71157c1.52661,1.14202 2.45726,1.7556 2.789,1.84661c1.08624,0.29358 2.4279,-0.13798 3.07671,-0.98936c0.65175,-0.85432 0.65175,-0.83964 0.65175,-8.02645v-6.62902l0.45211,-0.54899c1.49432,-1.82019 2.48368,-4.67965 2.48368,-7.18388c0,-1.97579 -0.65762,-4.33029 -1.69982,-6.07122c-1.72331,-2.88588 -4.88809,-4.99084 -8.26719,-5.50167c-1.3534,-0.20257 -2.31634,-0.19963 -3.66093,0.00881M570.05362,659.50539c2.16955,0.56661 3.89579,2.49836 4.23928,4.74717c0.29358,1.91707 -0.27596,3.64919 -1.65579,5.03195c-1.17725,1.18312 -2.51304,1.74973 -4.11891,1.74973c-1.51193,0 -2.82423,-0.52257 -3.95451,-1.57065c-3.9046,-3.62864 -1.36221,-10.15784 3.95451,-10.15784c0.41982,0 1.10973,0.09101 1.53542,0.19963M541.20067,662.39421c-0.6723,0.21138 -1.28881,0.71046 -1.66459,1.34753c-0.26716,0.45798 -0.31707,0.67523 -0.31707,1.42092c0,0.75156 0.04697,0.96294 0.32587,1.4356c0.36697,0.62532 0.93358,1.10092 1.58239,1.33285c0.6312,0.22606 7.17801,0.22606 7.8092,0c0.64881,-0.23193 1.21542,-0.70753 1.58239,-1.33285c0.2789,-0.47266 0.32587,-0.68404 0.32587,-1.4356c0,-0.74569 -0.04991,-0.96294 -0.31707,-1.42092c-0.38752,-0.65468 -0.99523,-1.13909 -1.70863,-1.3534c-0.73688,-0.22312 -6.90792,-0.21725 -7.61838,0.00587M566.56297,676.72968c0.50496,0.09688 1.38569,0.17615 1.95524,0.17615c0.56954,0 1.45028,-0.07927 1.95524,-0.17615c0.50789,-0.09688 0.93652,-0.17615 0.9512,-0.17615c0.01468,0 0.02936,0.73982 0.02936,1.64404v1.64404l-0.73395,-0.54312c-0.96588,-0.71633 -1.34753,-0.86606 -2.20184,-0.86606c-0.85432,0 -1.23597,0.14973 -2.20184,0.86606l-0.73395,0.54312v-1.64404c0,-0.90422 0.01468,-1.64404 0.02936,-1.64404c0.01468,0 0.4433,0.07927 0.9512,0.17615" className="SFSymbolsPreviewWireframe"/></g>
 </g>
</svg>