<?xml version="1.0" encoding="UTF-8"?><!--Generator: https://SymbolKit.app--><!DOCTYPE svg PUBLIC "-//W3C//DTD SVG 1.1//EN" "http://www.w3.org/Graphics/SVG/1.1/DTD/svg11.dtd"><svg xmlns="http://www.w3.org/2000/svg" xmlns:xlink="http://www.w3.org/1999/xlink" version="1.1" viewBox="0 0 3300 2200">
 <!--glyph: "100092", point size: 100.0, font version: "20.0d10e1", template writer version: "138.0.0"-->
 <style>.SFSymbolsPreviewWireframe {fill:none;opacity:1.0;stroke:black;stroke-width:0.5}
</style>
 <g id="Notes">
  <rect height="2200" id="artboard" style="fill:white;opacity:1" width="3300" x="0" y="0"/>
  <line style="fill:none;stroke:black;opacity:1;stroke-width:0.5;" x1="263" x2="3036" y1="292" y2="292"/>
  <text style="stroke:none;fill:black;font-family:sans-serif;font-size:13;font-weight:bold;" transform="matrix(1 0 0 1 263 322)">Weight/Scale Variations</text>
  <text style="stroke:none;fill:black;font-family:sans-serif;font-size:13;text-anchor:middle;" transform="matrix(1 0 0 1 559.711 322)">Ultralight</text>
  <text style="stroke:none;fill:black;font-family:sans-serif;font-size:13;text-anchor:middle;" transform="matrix(1 0 0 1 856.422 322)">Thin</text>
  <text style="stroke:none;fill:black;font-family:sans-serif;font-size:13;text-anchor:middle;" transform="matrix(1 0 0 1 1153.13 322)">Light</text>
  <text style="stroke:none;fill:black;font-family:sans-serif;font-size:13;text-anchor:middle;" transform="matrix(1 0 0 1 1449.84 322)">Regular</text>
  <text style="stroke:none;fill:black;font-family:sans-serif;font-size:13;text-anchor:middle;" transform="matrix(1 0 0 1 1746.56 322)">Medium</text>
  <text style="stroke:none;fill:black;font-family:sans-serif;font-size:13;text-anchor:middle;" transform="matrix(1 0 0 1 2043.27 322)">Semibold</text>
  <text style="stroke:none;fill:black;font-family:sans-serif;font-size:13;text-anchor:middle;" transform="matrix(1 0 0 1 2339.98 322)">Bold</text>
  <text style="stroke:none;fill:black;font-family:sans-serif;font-size:13;text-anchor:middle;" transform="matrix(1 0 0 1 2636.69 322)">Heavy</text>
  <text style="stroke:none;fill:black;font-family:sans-serif;font-size:13;text-anchor:middle;" transform="matrix(1 0 0 1 2933.4 322)">Black</text>
  <line style="fill:none;stroke:black;opacity:1;stroke-width:0.5;" x1="263" x2="3036" y1="1903" y2="1903"/>
  <g transform="matrix(0.2 0 0 0.2 263 1933)">
   <path d="m46.2402 4.15039c21.7773 0 39.4531-17.627 39.4531-39.4043s-17.6758-39.4043-39.4531-39.4043c-21.7285 0-39.4043 17.627-39.4043 39.4043s17.6758 39.4043 39.4043 39.4043Zm0-7.42188c-17.6758 0-31.9336-14.3066-31.9336-31.9824s14.2578-31.9824 31.9336-31.9824 31.9824 14.3066 31.9824 31.9824-14.3066 31.9824-31.9824 31.9824Zm-17.9688-31.9824c0 2.14844 1.51367 3.61328 3.75977 3.61328h10.498v10.5957c0 2.19727 1.46484 3.71094 3.61328 3.71094 2.24609 0 3.71094-1.51367 3.71094-3.71094v-10.5957h10.5957c2.19727 0 3.71094-1.46484 3.71094-3.61328 0-2.19727-1.51367-3.71094-3.71094-3.71094h-10.5957v-10.5469c0-2.24609-1.46484-3.75977-3.71094-3.75977-2.14844 0-3.61328 1.51367-3.61328 3.75977v10.5469h-10.498c-2.24609 0-3.75977 1.51367-3.75977 3.71094Z"/>
  </g>
  <g transform="matrix(0.2 0 0 0.2 281.506 1933)">
   <path d="m58.5449 14.5508c27.4902 0 49.8047-22.3145 49.8047-49.8047s-22.3145-49.8047-49.8047-49.8047-49.8047 22.3145-49.8047 49.8047 22.3145 49.8047 49.8047 49.8047Zm0-8.30078c-22.9492 0-41.5039-18.5547-41.5039-41.5039s18.5547-41.5039 41.5039-41.5039 41.5039 18.5547 41.5039 41.5039-18.5547 41.5039-41.5039 41.5039Zm-22.6562-41.5039c0 2.39258 1.66016 4.00391 4.15039 4.00391h14.3555v14.4043c0 2.44141 1.66016 4.15039 4.05273 4.15039 2.44141 0 4.15039-1.66016 4.15039-4.15039v-14.4043h14.4043c2.44141 0 4.15039-1.61133 4.15039-4.00391 0-2.44141-1.70898-4.15039-4.15039-4.15039h-14.4043v-14.3555c0-2.49023-1.70898-4.19922-4.15039-4.19922-2.39258 0-4.05273 1.70898-4.05273 4.19922v14.3555h-14.3555c-2.49023 0-4.15039 1.70898-4.15039 4.15039Z"/>
  </g>
  <g transform="matrix(0.2 0 0 0.2 304.924 1933)">
   <path d="m74.8535 28.3203c35.1074 0 63.623-28.4668 63.623-63.5742s-28.5156-63.623-63.623-63.623-63.5742 28.5156-63.5742 63.623 28.4668 63.5742 63.5742 63.5742Zm0-9.08203c-30.127 0-54.4922-24.3652-54.4922-54.4922s24.3652-54.4922 54.4922-54.4922 54.4922 24.3652 54.4922 54.4922-24.3652 54.4922-54.4922 54.4922Zm-28.8574-54.4922c0 2.58789 1.85547 4.39453 4.58984 4.39453h19.7266v19.7754c0 2.68555 1.85547 4.58984 4.44336 4.58984 2.68555 0 4.54102-1.85547 4.54102-4.58984v-19.7754h19.7754c2.68555 0 4.58984-1.80664 4.58984-4.39453 0-2.73438-1.85547-4.58984-4.58984-4.58984h-19.7754v-19.7266c0-2.73438-1.85547-4.63867-4.54102-4.63867-2.58789 0-4.44336 1.9043-4.44336 4.63867v19.7266h-19.7266c-2.73438 0-4.58984 1.85547-4.58984 4.58984Z"/>
  </g>
  <text style="stroke:none;fill:black;font-family:sans-serif;font-size:13;font-weight:bold;" transform="matrix(1 0 0 1 263 1953)">Design Variations</text>
  <text style="stroke:none;fill:black;font-family:sans-serif;font-size:13;" transform="matrix(1 0 0 1 263 1971)">Symbols are supported in up to nine weights and three scales.</text>
  <text style="stroke:none;fill:black;font-family:sans-serif;font-size:13;" transform="matrix(1 0 0 1 263 1989)">For optimal layout with text and other symbols, vertically align</text>
  <text style="stroke:none;fill:black;font-family:sans-serif;font-size:13;" transform="matrix(1 0 0 1 263 2007)">symbols with the adjacent text.</text>
  <line style="fill:none;stroke:#00AEEF;stroke-width:0.5;opacity:1.0;" x1="776" x2="776" y1="1919" y2="1933"/>
  <g transform="matrix(0.2 0 0 0.2 776 1933)">
   <path d="m16.5527 0.78125c2.58789 0 3.85742-0.976562 4.78516-3.71094l6.29883-17.2363h28.8086l6.29883 17.2363c0.927734 2.73438 2.19727 3.71094 4.73633 3.71094 2.58789 0 4.24805-1.5625 4.24805-4.00391 0-0.830078-0.146484-1.61133-0.537109-2.63672l-22.9004-60.9863c-1.12305-2.97852-3.125-4.49219-6.25-4.49219-3.02734 0-5.07812 1.46484-6.15234 4.44336l-22.9004 61.084c-0.390625 1.02539-0.537109 1.80664-0.537109 2.63672 0 2.44141 1.5625 3.95508 4.10156 3.95508Zm13.4766-28.3691 11.8652-32.8613h0.244141l11.8652 32.8613Z"/>
  </g>
  <line style="fill:none;stroke:#00AEEF;stroke-width:0.5;opacity:1.0;" x1="792.836" x2="792.836" y1="1919" y2="1933"/>
  <text style="stroke:none;fill:black;font-family:sans-serif;font-size:13;font-weight:bold;" transform="matrix(1 0 0 1 776 1953)">Margins</text>
  <text style="stroke:none;fill:black;font-family:sans-serif;font-size:13;" transform="matrix(1 0 0 1 776 1971)">Leading and trailing margins on the left and right side of each symbol</text>
  <text style="stroke:none;fill:black;font-family:sans-serif;font-size:13;" transform="matrix(1 0 0 1 776 1989)">can be adjusted by modifying the x-location of the margin guidelines.</text>
  <text style="stroke:none;fill:black;font-family:sans-serif;font-size:13;" transform="matrix(1 0 0 1 776 2007)">Modifications are automatically applied proportionally to all</text>
  <text style="stroke:none;fill:black;font-family:sans-serif;font-size:13;" transform="matrix(1 0 0 1 776 2025)">scales and weights.</text>
  <g transform="matrix(0.2 0 0 0.2 1289 1933)">
   <path d="m14.209 9.32617 8.49609 8.54492c4.29688 4.3457 9.22852 4.05273 13.8672-1.07422l53.4668-58.9355-4.83398-4.88281-53.0762 58.3984c-1.75781 2.00195-3.41797 2.49023-5.76172 0.146484l-5.85938-5.81055c-2.34375-2.29492-1.80664-4.00391 0.195312-5.81055l57.373-54.0039-4.88281-4.83398-57.959 54.4434c-4.93164 4.58984-5.32227 9.47266-1.02539 13.8184Zm32.0801-90.9668c-2.09961 2.05078-2.24609 4.93164-1.07422 6.88477 1.17188 1.80664 3.4668 2.97852 6.68945 2.14844 7.32422-1.70898 14.9414-2.00195 22.0703 2.68555l-2.92969 7.27539c-1.70898 4.15039-0.830078 7.08008 1.85547 9.81445l11.4746 11.5723c2.44141 2.44141 4.49219 2.53906 7.32422 2.05078l5.32227-0.976562 3.32031 3.36914-0.195312 2.7832c-0.195312 2.49023 0.439453 4.39453 2.88086 6.78711l3.80859 3.71094c2.39258 2.39258 5.46875 2.53906 7.8125 0.195312l14.5508-14.5996c2.34375-2.34375 2.24609-5.32227-0.146484-7.71484l-3.85742-3.80859c-2.39258-2.39258-4.24805-3.17383-6.64062-2.97852l-2.88086 0.244141-3.22266-3.17383 1.2207-5.61523c0.634766-2.83203-0.146484-5.0293-3.07617-7.95898l-10.9863-10.9375c-16.6992-16.6016-38.8672-16.2109-53.3203-1.75781Zm7.4707 1.85547c12.1582-8.88672 28.6133-7.37305 39.7461 3.75977l12.1582 12.0605c1.17188 1.17188 1.36719 2.09961 1.02539 3.80859l-1.61133 7.42188 7.51953 7.42188 4.93164-0.292969c1.26953-0.0488281 1.66016 0.0488281 2.63672 1.02539l2.88086 2.88086-12.207 12.207-2.88086-2.88086c-0.976562-0.976562-1.12305-1.36719-1.07422-2.68555l0.341797-4.88281-7.4707-7.42188-7.61719 1.26953c-1.61133 0.341797-2.34375 0.195312-3.56445-0.976562l-10.0098-10.0098c-1.26953-1.17188-1.41602-2.00195-0.634766-3.85742l4.39453-10.4492c-7.8125-7.27539-17.9688-10.4004-28.125-7.42188-0.78125 0.195312-1.07422-0.439453-0.439453-0.976562Z"/>
  </g>
  <text style="stroke:none;fill:black;font-family:sans-serif;font-size:13;font-weight:bold;" transform="matrix(1 0 0 1 1289 1953)">Exporting</text>
  <text style="stroke:none;fill:black;font-family:sans-serif;font-size:13;" transform="matrix(1 0 0 1 1289 1971)">Symbols should be outlined when exporting to ensure the</text>
  <text style="stroke:none;fill:black;font-family:sans-serif;font-size:13;" transform="matrix(1 0 0 1 1289 1989)">design is preserved when submitting to Xcode.</text>
  <text id="template-version" style="stroke:none;fill:black;font-family:sans-serif;font-size:13;text-anchor:end;" transform="matrix(1 0 0 1 3036 1933)">Template v.6.0</text>
  <text style="stroke:none;fill:black;font-family:sans-serif;font-size:13;text-anchor:end;" transform="matrix(1 0 0 1 3036 1951)">Requires Xcode 16 or greater</text>
  <text id="descriptive-name" style="stroke:none;fill:black;font-family:sans-serif;font-size:13;text-anchor:end;" transform="matrix(1 0 0 1 3036 1969)">Generated from square</text>
  <text style="stroke:none;fill:black;font-family:sans-serif;font-size:13;text-anchor:end;" transform="matrix(1 0 0 1 3036 1987)">Typeset at 100.0 points</text>
  <text style="stroke:none;fill:black;font-family:sans-serif;font-size:13;" transform="matrix(1 0 0 1 263 726)">Small</text>
  <text style="stroke:none;fill:black;font-family:sans-serif;font-size:13;" transform="matrix(1 0 0 1 263 1156)">Medium</text>
  <text style="stroke:none;fill:black;font-family:sans-serif;font-size:13;" transform="matrix(1 0 0 1 263 1586)">Large</text>
 </g>
 <g id="Guides">
  <g id="H-reference" style="fill:#27AAE1;stroke:none;" transform="matrix(1 0 0 1 339 696)">
   <path d="M0.993654 0L3.63775 0L29.3281-67.1323L30.0303-67.1323L30.0303-70.459L28.1226-70.459ZM11.6885-24.4799L46.9815-24.4799L46.2315-26.7285L12.4385-26.7285ZM55.1196 0L57.7637 0L30.6382-70.459L29.4326-70.459L29.4326-67.1323Z"/>
  </g>
  <line id="Baseline-S" style="fill:none;stroke:#27AAE1;opacity:1;stroke-width:0.5;" x1="263" x2="3036" y1="696" y2="696"/>
  <line id="Capline-S" style="fill:none;stroke:#27AAE1;opacity:1;stroke-width:0.5;" x1="263" x2="3036" y1="625.541" y2="625.541"/>
  <g id="H-reference" style="fill:#27AAE1;stroke:none;" transform="matrix(1 0 0 1 339 1126)">
   <path d="M0.993654 0L3.63775 0L29.3281-67.1323L30.0303-67.1323L30.0303-70.459L28.1226-70.459ZM11.6885-24.4799L46.9815-24.4799L46.2315-26.7285L12.4385-26.7285ZM55.1196 0L57.7637 0L30.6382-70.459L29.4326-70.459L29.4326-67.1323Z"/>
  </g>
  <line id="Baseline-M" style="fill:none;stroke:#27AAE1;opacity:1;stroke-width:0.5;" x1="263" x2="3036" y1="1126" y2="1126"/>
  <line id="Capline-M" style="fill:none;stroke:#27AAE1;opacity:1;stroke-width:0.5;" x1="263" x2="3036" y1="1055.54" y2="1055.54"/>
  <g id="H-reference" style="fill:#27AAE1;stroke:none;" transform="matrix(1 0 0 1 339 1556)">
   <path d="M0.993654 0L3.63775 0L29.3281-67.1323L30.0303-67.1323L30.0303-70.459L28.1226-70.459ZM11.6885-24.4799L46.9815-24.4799L46.2315-26.7285L12.4385-26.7285ZM55.1196 0L57.7637 0L30.6382-70.459L29.4326-70.459L29.4326-67.1323Z"/>
  </g>
  <line id="Baseline-L" style="fill:none;stroke:#27AAE1;opacity:1;stroke-width:0.5;" x1="263" x2="3036" y1="1556" y2="1556"/>
  <line id="Capline-L" style="fill:none;stroke:#27AAE1;opacity:1;stroke-width:0.5;" x1="263" x2="3036" y1="1485.54" y2="1485.54"/>
  <line id="right-margin-Black-S" style="fill:none;stroke:#00AEEF;stroke-width:0.5;opacity:1.0;" x1="2981.3" x2="2981.3" y1="600.785" y2="720.121"/>
  <line id="left-margin-Black-S" style="fill:none;stroke:#00AEEF;stroke-width:0.5;opacity:1.0;" x1="2885.5" x2="2885.5" y1="600.785" y2="720.121"/>
  <line id="right-margin-Regular-S" style="fill:none;stroke:#00AEEF;stroke-width:0.5;opacity:1.0;" x1="1495.18" x2="1495.18" y1="600.785" y2="720.121"/>
  <line id="left-margin-Regular-S" style="fill:none;stroke:#00AEEF;stroke-width:0.5;opacity:1.0;" x1="1404.51" x2="1404.51" y1="600.785" y2="720.121"/>
  <line id="right-margin-Ultralight-S" style="fill:none;stroke:#00AEEF;stroke-width:0.5;opacity:1.0;" x1="603.073" x2="603.073" y1="600.785" y2="720.121"/>
  <line id="left-margin-Ultralight-S" style="fill:none;stroke:#00AEEF;stroke-width:0.5;opacity:1.0;" x1="516.35" x2="516.35" y1="600.785" y2="720.121"/>
 </g>
 <g id="Symbols">
  <g id="Black-S"><path d="M2918.87344,640.39379c-4.57103,0.63707 -8.93361,2.8712 -12.09546,6.18865c-2.6334,2.76258 -4.54754,6.46755 -5.36369,10.38683c-0.22606,1.08918 -0.26716,1.62936 -0.26422,3.68442c0.00294,2.6246 0.1233,3.5435 0.75156,5.78644c1.38569,4.92919 4.57103,9.1127 9.05398,11.88702c4.298,2.65983 9.78793,3.60515 14.90501,2.57175c1.36221,-0.27596 3.54056,-1.04221 4.8558,-1.70569c5.92443,-2.98864 9.80848,-8.11746 11.14426,-14.72006c0.34936,-1.72625 0.37872,-5.51929 0.05284,-7.16627c-0.30239,-1.52368 -0.76918,-3.09726 -1.08624,-3.64919c-0.48441,-0.84551 -1.40918,-1.34166 -2.50423,-1.34166c-1.27707,0 -2.36331,0.7956 -2.75964,2.01689c-0.25541,0.78973 -0.25248,0.79854 0.22899,2.65396c0.92771,3.56992 0.5989,6.89617 -1.0011,10.19013c-0.8367,1.7145 -1.75267,2.97396 -3.07671,4.22167c-2.97396,2.80662 -6.59966,4.17763 -10.60995,4.01323c-3.99855,-0.1644 -7.39526,-1.70276 -10.12848,-4.58864c-2.65983,-2.81249 -3.9457,-6.09177 -3.95451,-10.11086c-0.00881,-2.48661 0.40807,-4.29506 1.48845,-6.45874c1.09799,-2.19891 3.00331,-4.38607 4.90277,-5.63085c3.1413,-2.06093 6.59085,-2.85359 10.25765,-2.36038c0.83376,0.1145 1.69689,0.16734 1.93175,0.1233c1.40037,-0.26129 2.40441,-1.46202 2.40735,-2.87708c0.00587,-1.18606 -0.62239,-2.14313 -1.73799,-2.65102c-1.22129,-0.55486 -5.02901,-0.7956 -7.39819,-0.46385M2942.88821,640.34975c-7.03416,0.79854 -13.10537,5.07305 -16.20557,11.41729c-2.31634,4.73837 -2.73322,9.7938 -1.23303,14.93437c0.39633,1.36221 0.85138,1.95817 1.82019,2.39854c1.52368,0.68991 3.38497,-0.13211 3.93102,-1.73799c0.25541,-0.74569 0.23193,-0.99523 -0.25248,-2.80662c-0.41395,-1.55303 -0.42863,-1.68808 -0.44037,-3.6668c-0.00881,-2.19597 0.10569,-2.95634 0.72514,-4.8147c1.65872,-4.97323 5.83635,-8.60187 11.24408,-9.76444c0.41101,-0.08807 1.48551,-0.14973 2.5835,-0.14973c1.52368,0 2.11083,0.05284 3.109,0.27009c2.92111,0.64294 5.19635,1.89946 7.34828,4.05726c2.14019,2.14606 3.41139,4.5446 4.00735,7.5626c0.28477,1.42973 0.28184,4.20699 0,5.53984c-0.62532,2.93873 -1.9523,5.43121 -3.9868,7.49507c-3.32625,3.37616 -7.93544,4.89103 -12.72078,4.18057c-1.33285,-0.19963 -1.83487,-0.16147 -2.51597,0.18495c-1.01285,0.5167 -1.76147,1.90826 -1.5912,2.96221c0.16734,1.05395 0.98936,2.06386 1.92881,2.37212c1.64698,0.54019 5.59855,0.6723 7.82682,0.26129c6.79048,-1.25065 12.23344,-5.32259 15.08703,-11.29105c1.3534,-2.8301 1.93762,-5.10534 2.0756,-8.10278c0.37578,-8.12333 -4.20405,-15.78575 -11.56995,-19.34393c-3.45836,-1.67047 -7.4804,-2.37505 -11.17068,-1.95817" className="SFSymbolsPreviewWireframe"/></g>
  <g id="Regular-S"><path d="M1435.31839,640.39379c-4.57103,0.63707 -8.93361,2.8712 -12.09546,6.18865c-2.6334,2.76258 -4.54754,6.46755 -5.36369,10.38683c-0.22606,1.08918 -0.26716,1.62936 -0.26422,3.68442c0.00294,2.6246 0.1233,3.5435 0.75156,5.78644c1.38569,4.92919 4.57103,9.1127 9.05398,11.88702c4.298,2.65983 9.78793,3.60515 14.90501,2.57175c1.36221,-0.27596 3.54056,-1.04221 4.8558,-1.70569c5.92443,-2.98864 9.80848,-8.11746 11.14426,-14.72006c0.34936,-1.72625 0.37872,-5.51929 0.05284,-7.16627c-0.30239,-1.52368 -0.76918,-3.09726 -1.08624,-3.64919c-0.48441,-0.84551 -1.40918,-1.34166 -2.50423,-1.34166c-1.27707,0 -2.36331,0.7956 -2.75964,2.01689c-0.25541,0.78973 -0.25248,0.79854 0.22899,2.65396c0.92771,3.56992 0.5989,6.89617 -1.0011,10.19013c-0.8367,1.7145 -1.75267,2.97396 -3.07671,4.22167c-2.97396,2.80662 -6.59966,4.17763 -10.60995,4.01323c-3.99855,-0.1644 -7.39526,-1.70276 -10.12848,-4.58864c-2.65983,-2.81249 -3.9457,-6.09177 -3.95451,-10.11086c-0.00881,-2.48661 0.40807,-4.29506 1.48845,-6.45874c1.09799,-2.19891 3.00331,-4.38607 4.90277,-5.63085c3.1413,-2.06093 6.59085,-2.85359 10.25765,-2.36038c0.83376,0.1145 1.69689,0.16734 1.93175,0.1233c1.40037,-0.26129 2.40441,-1.46202 2.40735,-2.87708c0.00587,-1.18606 -0.62239,-2.14313 -1.73799,-2.65102c-1.22129,-0.55486 -5.02901,-0.7956 -7.39819,-0.46385M1459.33316,640.34975c-7.03416,0.79854 -13.10537,5.07305 -16.20557,11.41729c-2.31634,4.73837 -2.73322,9.7938 -1.23303,14.93437c0.39633,1.36221 0.85138,1.95817 1.82019,2.39854c1.52368,0.68991 3.38497,-0.13211 3.93102,-1.73799c0.25541,-0.74569 0.23193,-0.99523 -0.25248,-2.80662c-0.41395,-1.55303 -0.42863,-1.68808 -0.44037,-3.6668c-0.00881,-2.19597 0.10569,-2.95634 0.72514,-4.8147c1.65872,-4.97323 5.83635,-8.60187 11.24408,-9.76444c0.41101,-0.08807 1.48551,-0.14973 2.5835,-0.14973c1.52368,0 2.11083,0.05284 3.109,0.27009c2.92111,0.64294 5.19635,1.89946 7.34828,4.05726c2.14019,2.14606 3.41139,4.5446 4.00735,7.5626c0.28477,1.42973 0.28184,4.20699 0,5.53984c-0.62532,2.93873 -1.9523,5.43121 -3.9868,7.49507c-3.32625,3.37616 -7.93544,4.89103 -12.72078,4.18057c-1.33285,-0.19963 -1.83487,-0.16147 -2.51597,0.18495c-1.01285,0.5167 -1.76147,1.90826 -1.5912,2.96221c0.16734,1.05395 0.98936,2.06386 1.92881,2.37212c1.64698,0.54019 5.59855,0.6723 7.82682,0.26129c6.79048,-1.25065 12.23344,-5.32259 15.08703,-11.29105c1.3534,-2.8301 1.93762,-5.10534 2.0756,-8.10278c0.37578,-8.12333 -4.20405,-15.78575 -11.56995,-19.34393c-3.45836,-1.67047 -7.4804,-2.37505 -11.17068,-1.95817" className="SFSymbolsPreviewWireframe"/></g>
  <g id="Ultralight-S"><path d="M545.1848,640.39379c-4.57103,0.63707 -8.93361,2.8712 -12.09546,6.18865c-2.6334,2.76258 -4.54754,6.46755 -5.36369,10.38683c-0.22606,1.08918 -0.26716,1.62936 -0.26422,3.68442c0.00294,2.6246 0.1233,3.5435 0.75156,5.78644c1.38569,4.92919 4.57103,9.1127 9.05398,11.88702c4.298,2.65983 9.78793,3.60515 14.90501,2.57175c1.36221,-0.27596 3.54056,-1.04221 4.8558,-1.70569c5.92443,-2.98864 9.80848,-8.11746 11.14426,-14.72006c0.34936,-1.72625 0.37872,-5.51929 0.05284,-7.16627c-0.30239,-1.52368 -0.76918,-3.09726 -1.08624,-3.64919c-0.48441,-0.84551 -1.40918,-1.34166 -2.50423,-1.34166c-1.27707,0 -2.36331,0.7956 -2.75964,2.01689c-0.25541,0.78973 -0.25248,0.79854 0.22899,2.65396c0.92771,3.56992 0.5989,6.89617 -1.0011,10.19013c-0.8367,1.7145 -1.75267,2.97396 -3.07671,4.22167c-2.97396,2.80662 -6.59966,4.17763 -10.60995,4.01323c-3.99855,-0.1644 -7.39526,-1.70276 -10.12848,-4.58864c-2.65983,-2.81249 -3.9457,-6.09177 -3.95451,-10.11086c-0.00881,-2.48661 0.40807,-4.29506 1.48845,-6.45874c1.09799,-2.19891 3.00331,-4.38607 4.90277,-5.63085c3.1413,-2.06093 6.59085,-2.85359 10.25765,-2.36038c0.83376,0.1145 1.69689,0.16734 1.93175,0.1233c1.40037,-0.26129 2.40441,-1.46202 2.40735,-2.87708c0.00587,-1.18606 -0.62239,-2.14313 -1.73799,-2.65102c-1.22129,-0.55486 -5.02901,-0.7956 -7.39819,-0.46385M569.19957,640.34975c-7.03416,0.79854 -13.10537,5.07305 -16.20557,11.41729c-2.31634,4.73837 -2.73322,9.7938 -1.23303,14.93437c0.39633,1.36221 0.85138,1.95817 1.82019,2.39854c1.52368,0.68991 3.38497,-0.13211 3.93102,-1.73799c0.25541,-0.74569 0.23193,-0.99523 -0.25248,-2.80662c-0.41395,-1.55303 -0.42863,-1.68808 -0.44037,-3.6668c-0.00881,-2.19597 0.10569,-2.95634 0.72514,-4.8147c1.65872,-4.97323 5.83635,-8.60187 11.24408,-9.76444c0.41101,-0.08807 1.48551,-0.14973 2.5835,-0.14973c1.52368,0 2.11083,0.05284 3.109,0.27009c2.92111,0.64294 5.19635,1.89946 7.34828,4.05726c2.14019,2.14606 3.41139,4.5446 4.00735,7.5626c0.28477,1.42973 0.28184,4.20699 0,5.53984c-0.62532,2.93873 -1.9523,5.43121 -3.9868,7.49507c-3.32625,3.37616 -7.93544,4.89103 -12.72078,4.18057c-1.33285,-0.19963 -1.83487,-0.16147 -2.51597,0.18495c-1.01285,0.5167 -1.76147,1.90826 -1.5912,2.96221c0.16734,1.05395 0.98936,2.06386 1.92881,2.37212c1.64698,0.54019 5.59855,0.6723 7.82682,0.26129c6.79048,-1.25065 12.23344,-5.32259 15.08703,-11.29105c1.3534,-2.8301 1.93762,-5.10534 2.0756,-8.10278c0.37578,-8.12333 -4.20405,-15.78575 -11.56995,-19.34393c-3.45836,-1.67047 -7.4804,-2.37505 -11.17068,-1.95817" className="SFSymbolsPreviewWireframe"/></g>
 </g>
</svg>