<?xml version="1.0" encoding="UTF-8"?><!--Generator: https://SymbolKit.app--><!DOCTYPE svg PUBLIC "-//W3C//DTD SVG 1.1//EN" "http://www.w3.org/Graphics/SVG/1.1/DTD/svg11.dtd"><svg xmlns="http://www.w3.org/2000/svg" xmlns:xlink="http://www.w3.org/1999/xlink" version="1.1" viewBox="0 0 3300 2200">
 <!--glyph: "100092", point size: 100.0, font version: "20.0d10e1", template writer version: "138.0.0"-->
 <style>.SFSymbolsPreviewWireframe {fill:none;opacity:1.0;stroke:black;stroke-width:0.5}
</style>
 <g id="Notes">
  <rect height="2200" id="artboard" style="fill:white;opacity:1" width="3300" x="0" y="0"/>
  <line style="fill:none;stroke:black;opacity:1;stroke-width:0.5;" x1="263" x2="3036" y1="292" y2="292"/>
  <text style="stroke:none;fill:black;font-family:sans-serif;font-size:13;font-weight:bold;" transform="matrix(1 0 0 1 263 322)">Weight/Scale Variations</text>
  <text style="stroke:none;fill:black;font-family:sans-serif;font-size:13;text-anchor:middle;" transform="matrix(1 0 0 1 559.711 322)">Ultralight</text>
  <text style="stroke:none;fill:black;font-family:sans-serif;font-size:13;text-anchor:middle;" transform="matrix(1 0 0 1 856.422 322)">Thin</text>
  <text style="stroke:none;fill:black;font-family:sans-serif;font-size:13;text-anchor:middle;" transform="matrix(1 0 0 1 1153.13 322)">Light</text>
  <text style="stroke:none;fill:black;font-family:sans-serif;font-size:13;text-anchor:middle;" transform="matrix(1 0 0 1 1449.84 322)">Regular</text>
  <text style="stroke:none;fill:black;font-family:sans-serif;font-size:13;text-anchor:middle;" transform="matrix(1 0 0 1 1746.56 322)">Medium</text>
  <text style="stroke:none;fill:black;font-family:sans-serif;font-size:13;text-anchor:middle;" transform="matrix(1 0 0 1 2043.27 322)">Semibold</text>
  <text style="stroke:none;fill:black;font-family:sans-serif;font-size:13;text-anchor:middle;" transform="matrix(1 0 0 1 2339.98 322)">Bold</text>
  <text style="stroke:none;fill:black;font-family:sans-serif;font-size:13;text-anchor:middle;" transform="matrix(1 0 0 1 2636.69 322)">Heavy</text>
  <text style="stroke:none;fill:black;font-family:sans-serif;font-size:13;text-anchor:middle;" transform="matrix(1 0 0 1 2933.4 322)">Black</text>
  <line style="fill:none;stroke:black;opacity:1;stroke-width:0.5;" x1="263" x2="3036" y1="1903" y2="1903"/>
  <g transform="matrix(0.2 0 0 0.2 263 1933)">
   <path d="m46.2402 4.15039c21.7773 0 39.4531-17.627 39.4531-39.4043s-17.6758-39.4043-39.4531-39.4043c-21.7285 0-39.4043 17.627-39.4043 39.4043s17.6758 39.4043 39.4043 39.4043Zm0-7.42188c-17.6758 0-31.9336-14.3066-31.9336-31.9824s14.2578-31.9824 31.9336-31.9824 31.9824 14.3066 31.9824 31.9824-14.3066 31.9824-31.9824 31.9824Zm-17.9688-31.9824c0 2.14844 1.51367 3.61328 3.75977 3.61328h10.498v10.5957c0 2.19727 1.46484 3.71094 3.61328 3.71094 2.24609 0 3.71094-1.51367 3.71094-3.71094v-10.5957h10.5957c2.19727 0 3.71094-1.46484 3.71094-3.61328 0-2.19727-1.51367-3.71094-3.71094-3.71094h-10.5957v-10.5469c0-2.24609-1.46484-3.75977-3.71094-3.75977-2.14844 0-3.61328 1.51367-3.61328 3.75977v10.5469h-10.498c-2.24609 0-3.75977 1.51367-3.75977 3.71094Z"/>
  </g>
  <g transform="matrix(0.2 0 0 0.2 281.506 1933)">
   <path d="m58.5449 14.5508c27.4902 0 49.8047-22.3145 49.8047-49.8047s-22.3145-49.8047-49.8047-49.8047-49.8047 22.3145-49.8047 49.8047 22.3145 49.8047 49.8047 49.8047Zm0-8.30078c-22.9492 0-41.5039-18.5547-41.5039-41.5039s18.5547-41.5039 41.5039-41.5039 41.5039 18.5547 41.5039 41.5039-18.5547 41.5039-41.5039 41.5039Zm-22.6562-41.5039c0 2.39258 1.66016 4.00391 4.15039 4.00391h14.3555v14.4043c0 2.44141 1.66016 4.15039 4.05273 4.15039 2.44141 0 4.15039-1.66016 4.15039-4.15039v-14.4043h14.4043c2.44141 0 4.15039-1.61133 4.15039-4.00391 0-2.44141-1.70898-4.15039-4.15039-4.15039h-14.4043v-14.3555c0-2.49023-1.70898-4.19922-4.15039-4.19922-2.39258 0-4.05273 1.70898-4.05273 4.19922v14.3555h-14.3555c-2.49023 0-4.15039 1.70898-4.15039 4.15039Z"/>
  </g>
  <g transform="matrix(0.2 0 0 0.2 304.924 1933)">
   <path d="m74.8535 28.3203c35.1074 0 63.623-28.4668 63.623-63.5742s-28.5156-63.623-63.623-63.623-63.5742 28.5156-63.5742 63.623 28.4668 63.5742 63.5742 63.5742Zm0-9.08203c-30.127 0-54.4922-24.3652-54.4922-54.4922s24.3652-54.4922 54.4922-54.4922 54.4922 24.3652 54.4922 54.4922-24.3652 54.4922-54.4922 54.4922Zm-28.8574-54.4922c0 2.58789 1.85547 4.39453 4.58984 4.39453h19.7266v19.7754c0 2.68555 1.85547 4.58984 4.44336 4.58984 2.68555 0 4.54102-1.85547 4.54102-4.58984v-19.7754h19.7754c2.68555 0 4.58984-1.80664 4.58984-4.39453 0-2.73438-1.85547-4.58984-4.58984-4.58984h-19.7754v-19.7266c0-2.73438-1.85547-4.63867-4.54102-4.63867-2.58789 0-4.44336 1.9043-4.44336 4.63867v19.7266h-19.7266c-2.73438 0-4.58984 1.85547-4.58984 4.58984Z"/>
  </g>
  <text style="stroke:none;fill:black;font-family:sans-serif;font-size:13;font-weight:bold;" transform="matrix(1 0 0 1 263 1953)">Design Variations</text>
  <text style="stroke:none;fill:black;font-family:sans-serif;font-size:13;" transform="matrix(1 0 0 1 263 1971)">Symbols are supported in up to nine weights and three scales.</text>
  <text style="stroke:none;fill:black;font-family:sans-serif;font-size:13;" transform="matrix(1 0 0 1 263 1989)">For optimal layout with text and other symbols, vertically align</text>
  <text style="stroke:none;fill:black;font-family:sans-serif;font-size:13;" transform="matrix(1 0 0 1 263 2007)">symbols with the adjacent text.</text>
  <line style="fill:none;stroke:#00AEEF;stroke-width:0.5;opacity:1.0;" x1="776" x2="776" y1="1919" y2="1933"/>
  <g transform="matrix(0.2 0 0 0.2 776 1933)">
   <path d="m16.5527 0.78125c2.58789 0 3.85742-0.976562 4.78516-3.71094l6.29883-17.2363h28.8086l6.29883 17.2363c0.927734 2.73438 2.19727 3.71094 4.73633 3.71094 2.58789 0 4.24805-1.5625 4.24805-4.00391 0-0.830078-0.146484-1.61133-0.537109-2.63672l-22.9004-60.9863c-1.12305-2.97852-3.125-4.49219-6.25-4.49219-3.02734 0-5.07812 1.46484-6.15234 4.44336l-22.9004 61.084c-0.390625 1.02539-0.537109 1.80664-0.537109 2.63672 0 2.44141 1.5625 3.95508 4.10156 3.95508Zm13.4766-28.3691 11.8652-32.8613h0.244141l11.8652 32.8613Z"/>
  </g>
  <line style="fill:none;stroke:#00AEEF;stroke-width:0.5;opacity:1.0;" x1="792.836" x2="792.836" y1="1919" y2="1933"/>
  <text style="stroke:none;fill:black;font-family:sans-serif;font-size:13;font-weight:bold;" transform="matrix(1 0 0 1 776 1953)">Margins</text>
  <text style="stroke:none;fill:black;font-family:sans-serif;font-size:13;" transform="matrix(1 0 0 1 776 1971)">Leading and trailing margins on the left and right side of each symbol</text>
  <text style="stroke:none;fill:black;font-family:sans-serif;font-size:13;" transform="matrix(1 0 0 1 776 1989)">can be adjusted by modifying the x-location of the margin guidelines.</text>
  <text style="stroke:none;fill:black;font-family:sans-serif;font-size:13;" transform="matrix(1 0 0 1 776 2007)">Modifications are automatically applied proportionally to all</text>
  <text style="stroke:none;fill:black;font-family:sans-serif;font-size:13;" transform="matrix(1 0 0 1 776 2025)">scales and weights.</text>
  <g transform="matrix(0.2 0 0 0.2 1289 1933)">
   <path d="m14.209 9.32617 8.49609 8.54492c4.29688 4.3457 9.22852 4.05273 13.8672-1.07422l53.4668-58.9355-4.83398-4.88281-53.0762 58.3984c-1.75781 2.00195-3.41797 2.49023-5.76172 0.146484l-5.85938-5.81055c-2.34375-2.29492-1.80664-4.00391 0.195312-5.81055l57.373-54.0039-4.88281-4.83398-57.959 54.4434c-4.93164 4.58984-5.32227 9.47266-1.02539 13.8184Zm32.0801-90.9668c-2.09961 2.05078-2.24609 4.93164-1.07422 6.88477 1.17188 1.80664 3.4668 2.97852 6.68945 2.14844 7.32422-1.70898 14.9414-2.00195 22.0703 2.68555l-2.92969 7.27539c-1.70898 4.15039-0.830078 7.08008 1.85547 9.81445l11.4746 11.5723c2.44141 2.44141 4.49219 2.53906 7.32422 2.05078l5.32227-0.976562 3.32031 3.36914-0.195312 2.7832c-0.195312 2.49023 0.439453 4.39453 2.88086 6.78711l3.80859 3.71094c2.39258 2.39258 5.46875 2.53906 7.8125 0.195312l14.5508-14.5996c2.34375-2.34375 2.24609-5.32227-0.146484-7.71484l-3.85742-3.80859c-2.39258-2.39258-4.24805-3.17383-6.64062-2.97852l-2.88086 0.244141-3.22266-3.17383 1.2207-5.61523c0.634766-2.83203-0.146484-5.0293-3.07617-7.95898l-10.9863-10.9375c-16.6992-16.6016-38.8672-16.2109-53.3203-1.75781Zm7.4707 1.85547c12.1582-8.88672 28.6133-7.37305 39.7461 3.75977l12.1582 12.0605c1.17188 1.17188 1.36719 2.09961 1.02539 3.80859l-1.61133 7.42188 7.51953 7.42188 4.93164-0.292969c1.26953-0.0488281 1.66016 0.0488281 2.63672 1.02539l2.88086 2.88086-12.207 12.207-2.88086-2.88086c-0.976562-0.976562-1.12305-1.36719-1.07422-2.68555l0.341797-4.88281-7.4707-7.42188-7.61719 1.26953c-1.61133 0.341797-2.34375 0.195312-3.56445-0.976562l-10.0098-10.0098c-1.26953-1.17188-1.41602-2.00195-0.634766-3.85742l4.39453-10.4492c-7.8125-7.27539-17.9688-10.4004-28.125-7.42188-0.78125 0.195312-1.07422-0.439453-0.439453-0.976562Z"/>
  </g>
  <text style="stroke:none;fill:black;font-family:sans-serif;font-size:13;font-weight:bold;" transform="matrix(1 0 0 1 1289 1953)">Exporting</text>
  <text style="stroke:none;fill:black;font-family:sans-serif;font-size:13;" transform="matrix(1 0 0 1 1289 1971)">Symbols should be outlined when exporting to ensure the</text>
  <text style="stroke:none;fill:black;font-family:sans-serif;font-size:13;" transform="matrix(1 0 0 1 1289 1989)">design is preserved when submitting to Xcode.</text>
  <text id="template-version" style="stroke:none;fill:black;font-family:sans-serif;font-size:13;text-anchor:end;" transform="matrix(1 0 0 1 3036 1933)">Template v.6.0</text>
  <text style="stroke:none;fill:black;font-family:sans-serif;font-size:13;text-anchor:end;" transform="matrix(1 0 0 1 3036 1951)">Requires Xcode 16 or greater</text>
  <text id="descriptive-name" style="stroke:none;fill:black;font-family:sans-serif;font-size:13;text-anchor:end;" transform="matrix(1 0 0 1 3036 1969)">Generated from square</text>
  <text style="stroke:none;fill:black;font-family:sans-serif;font-size:13;text-anchor:end;" transform="matrix(1 0 0 1 3036 1987)">Typeset at 100.0 points</text>
  <text style="stroke:none;fill:black;font-family:sans-serif;font-size:13;" transform="matrix(1 0 0 1 263 726)">Small</text>
  <text style="stroke:none;fill:black;font-family:sans-serif;font-size:13;" transform="matrix(1 0 0 1 263 1156)">Medium</text>
  <text style="stroke:none;fill:black;font-family:sans-serif;font-size:13;" transform="matrix(1 0 0 1 263 1586)">Large</text>
 </g>
 <g id="Guides">
  <g id="H-reference" style="fill:#27AAE1;stroke:none;" transform="matrix(1 0 0 1 339 696)">
   <path d="M0.993654 0L3.63775 0L29.3281-67.1323L30.0303-67.1323L30.0303-70.459L28.1226-70.459ZM11.6885-24.4799L46.9815-24.4799L46.2315-26.7285L12.4385-26.7285ZM55.1196 0L57.7637 0L30.6382-70.459L29.4326-70.459L29.4326-67.1323Z"/>
  </g>
  <line id="Baseline-S" style="fill:none;stroke:#27AAE1;opacity:1;stroke-width:0.5;" x1="263" x2="3036" y1="696" y2="696"/>
  <line id="Capline-S" style="fill:none;stroke:#27AAE1;opacity:1;stroke-width:0.5;" x1="263" x2="3036" y1="625.541" y2="625.541"/>
  <g id="H-reference" style="fill:#27AAE1;stroke:none;" transform="matrix(1 0 0 1 339 1126)">
   <path d="M0.993654 0L3.63775 0L29.3281-67.1323L30.0303-67.1323L30.0303-70.459L28.1226-70.459ZM11.6885-24.4799L46.9815-24.4799L46.2315-26.7285L12.4385-26.7285ZM55.1196 0L57.7637 0L30.6382-70.459L29.4326-70.459L29.4326-67.1323Z"/>
  </g>
  <line id="Baseline-M" style="fill:none;stroke:#27AAE1;opacity:1;stroke-width:0.5;" x1="263" x2="3036" y1="1126" y2="1126"/>
  <line id="Capline-M" style="fill:none;stroke:#27AAE1;opacity:1;stroke-width:0.5;" x1="263" x2="3036" y1="1055.54" y2="1055.54"/>
  <g id="H-reference" style="fill:#27AAE1;stroke:none;" transform="matrix(1 0 0 1 339 1556)">
   <path d="M0.993654 0L3.63775 0L29.3281-67.1323L30.0303-67.1323L30.0303-70.459L28.1226-70.459ZM11.6885-24.4799L46.9815-24.4799L46.2315-26.7285L12.4385-26.7285ZM55.1196 0L57.7637 0L30.6382-70.459L29.4326-70.459L29.4326-67.1323Z"/>
  </g>
  <line id="Baseline-L" style="fill:none;stroke:#27AAE1;opacity:1;stroke-width:0.5;" x1="263" x2="3036" y1="1556" y2="1556"/>
  <line id="Capline-L" style="fill:none;stroke:#27AAE1;opacity:1;stroke-width:0.5;" x1="263" x2="3036" y1="1485.54" y2="1485.54"/>
  <line id="right-margin-Black-S" style="fill:none;stroke:#00AEEF;stroke-width:0.5;opacity:1.0;" x1="2981.3" x2="2981.3" y1="600.785" y2="720.121"/>
  <line id="left-margin-Black-S" style="fill:none;stroke:#00AEEF;stroke-width:0.5;opacity:1.0;" x1="2885.5" x2="2885.5" y1="600.785" y2="720.121"/>
  <line id="right-margin-Regular-S" style="fill:none;stroke:#00AEEF;stroke-width:0.5;opacity:1.0;" x1="1495.18" x2="1495.18" y1="600.785" y2="720.121"/>
  <line id="left-margin-Regular-S" style="fill:none;stroke:#00AEEF;stroke-width:0.5;opacity:1.0;" x1="1404.51" x2="1404.51" y1="600.785" y2="720.121"/>
  <line id="right-margin-Ultralight-S" style="fill:none;stroke:#00AEEF;stroke-width:0.5;opacity:1.0;" x1="603.073" x2="603.073" y1="600.785" y2="720.121"/>
  <line id="left-margin-Ultralight-S" style="fill:none;stroke:#00AEEF;stroke-width:0.5;opacity:1.0;" x1="516.35" x2="516.35" y1="600.785" y2="720.121"/>
 </g>
 <g id="Symbols">
  <g id="Black-S"><path d="M2926.01128,631.57978c-3.43781,0.73688 -6.05067,3.1912 -7.0048,6.58204c-0.09101,0.32294 -0.1967,1.14202 -0.2378,1.82313c-0.1145,2.00221 0.37285,3.85469 1.43854,5.46644c0.59597,0.89835 11.17656,11.66683 11.83124,12.03968c0.67523,0.38459 1.90533,0.3934 2.66276,0.02055c0.66642,-0.32881 11.21766,-11.01215 11.9105,-12.06023c1.62936,-2.46019 1.92001,-5.66901 0.77798,-8.51967c-0.71046,-1.76735 -2.48074,-3.64332 -4.27158,-4.52405c-1.52368,-0.74863 -2.32221,-0.93358 -4.01323,-0.93358c-1.99047,0 -3.3879,0.42275 -5.04956,1.52661l-0.64587,0.42863l-0.61652,-0.40807c-1.57946,-1.04221 -2.9446,-1.48845 -4.78534,-1.55891c-0.78679,-0.02936 -1.509,0.01174 -1.99634,0.11743M2928.96175,637.56292c0.21725,0.10275 0.87193,0.58716 1.45322,1.0745c1.61762,1.35634 1.94349,1.52074 2.99451,1.52074c1.05101,0 1.37689,-0.1644 2.99451,-1.52074c1.36514,-1.14496 1.6734,-1.29175 2.70093,-1.29175c1.25945,0 2.17836,0.57248 2.78019,1.72918c0.39633,0.76331 0.37285,2.06386 -0.04991,2.84478c-0.21431,0.3934 -1.65872,1.94643 -4.37139,4.69727l-4.05433,4.11011l-4.1013,-4.16882c-2.5512,-2.59524 -4.19525,-4.35671 -4.35378,-4.66791c-0.31119,-0.61652 -0.41982,-1.57652 -0.24954,-2.20771c0.2789,-1.03046 1.17138,-1.97579 2.14606,-2.27524c0.52257,-0.15853 1.61762,-0.07927 2.11083,0.1556M2911.56425,646.20589c-2.34863,0.37285 -4.66204,1.90533 -6.03892,3.99268c-2.01102,3.05322 -1.92881,7.08406 0.20551,10.06976l0.35817,0.49908l-0.35817,0.49908c-1.76441,2.46606 -2.149,5.65727 -1.02753,8.49911c0.64,1.61762 1.93469,3.19414 3.4613,4.21286c1.36808,0.91303 2.65396,1.32404 4.4624,1.42973c2.00221,0.1145 3.85469,-0.37285 5.46644,-1.43854c1.04808,-0.69285 11.73142,-11.24408 12.06023,-11.9105c0.3934,-0.7956 0.36697,-1.9934 -0.05578,-2.70093c-0.32294,-0.54312 -10.29288,-10.4338 -11.5083,-11.42023c-0.76331,-0.61652 -2.0668,-1.2712 -3.09432,-1.5501c-0.83376,-0.22606 -3.02093,-0.32881 -3.93102,-0.18202M2952.37468,646.16479c-1.5178,0.24367 -3.08552,0.91597 -4.1424,1.77322c-1.22129,0.98936 -11.1883,10.87711 -11.51417,11.42023c-0.26716,0.44918 -0.31413,0.66349 -0.31413,1.40918c0,0.7134 0.05284,0.97468 0.28184,1.37101c0.37578,0.65468 11.1472,11.23821 12.03968,11.83124c2.46019,1.62936 5.66901,1.92001 8.51967,0.77798c1.27707,-0.51083 2.89763,-1.80845 3.82534,-3.05909c0.46679,-0.62826 1.05688,-1.84955 1.36221,-2.82423c0.39633,-1.26239 0.39633,-3.54056 0,-4.80589c-0.31413,-1.00404 -0.82789,-2.06973 -1.34459,-2.79194l-0.35817,-0.49908l0.35817,-0.49908c0.5167,-0.7222 1.03046,-1.7879 1.34459,-2.79194c0.39633,-1.26533 0.39633,-3.5435 0,-4.80589c-0.97468,-3.10607 -3.13836,-5.28442 -6.18278,-6.22388c-0.81909,-0.25248 -3.05322,-0.41395 -3.87524,-0.28184M2914.52059,652.30647c0.32587,0.16734 2.01982,1.74386 4.67965,4.35965l4.16882,4.1013l-4.16882,4.10717c-2.7479,2.7068 -4.34791,4.19818 -4.69727,4.37433c-0.82202,0.41688 -2.08148,0.37872 -2.92698,-0.08514c-1.42386,-0.78679 -2.03157,-2.56001 -1.35927,-3.97213c0.09688,-0.20551 0.57542,-0.84844 1.06276,-1.42973c1.35634,-1.61762 1.52074,-1.94349 1.52074,-2.99451c0,-1.05101 -0.1644,-1.37689 -1.52074,-2.99451c-0.99523,-1.18606 -1.20955,-1.56478 -1.31523,-2.33395c-0.19083,-1.40624 0.69578,-2.77139 2.15487,-3.31744c0.61358,-0.22899 1.7556,-0.14092 2.40148,0.18495M2955.10497,652.29766c1.14789,0.58716 1.72625,1.51487 1.72625,2.77432c0,1.02753 -0.14679,1.33578 -1.29175,2.70093c-1.35634,1.61762 -1.52074,1.94349 -1.52074,2.99451c0,1.05101 0.1644,1.37689 1.52074,2.99451c0.48734,0.58129 0.96588,1.22422 1.06276,1.42973c0.6723,1.41212 0.06459,3.18533 -1.35927,3.97213c-0.84551,0.46385 -2.10496,0.50202 -2.92698,0.08514c-0.34936,-0.17615 -1.94643,-1.66459 -4.69727,-4.37433l-4.16882,-4.10717l4.05139,-3.99855c2.22827,-2.19597 4.24515,-4.12185 4.48002,-4.27745c0.23486,-0.1556 0.60477,-0.33762 0.82202,-0.4022c0.59597,-0.18495 1.73799,-0.07927 2.30166,0.20844M2932.35259,663.90284c-0.45211,0.1556 -1.28588,0.94826 -5.86571,5.58094c-2.93579,2.96808 -5.58975,5.71305 -5.90094,6.09764c-0.65175,0.81028 -1.28,2.0668 -1.57946,3.15304c-0.26422,0.96294 -0.29651,3.51121 -0.05284,4.45359c0.41688,1.6323 1.26239,3.10607 2.43964,4.26277c1.20074,1.18312 2.28111,1.82606 3.91928,2.33983c1.26239,0.39633 3.54056,0.39633 4.80589,0c1.00404,-0.31413 2.06973,-0.82789 2.79194,-1.34459l0.49908,-0.35817l0.49908,0.35817c0.7222,0.5167 1.7879,1.03046 2.79194,1.34459c0.73395,0.22899 1.13028,0.27596 2.40441,0.27596c1.70863,0 2.60698,-0.20844 4.04552,-0.93945c2.31927,-1.18019 4.05726,-3.36735 4.71488,-5.93911c0.24367,-0.94239 0.21138,-3.49066 -0.05284,-4.45359c-0.29945,-1.08624 -0.92771,-2.34276 -1.57946,-3.15304c-0.31119,-0.38459 -2.96515,-3.13249 -5.90094,-6.10351c-5.14351,-5.20516 -5.36075,-5.40773 -5.97433,-5.58681c-0.78092,-0.22899 -1.3123,-0.22606 -2.00515,0.01174M2937.546,675.006c2.50129,2.56001 4.15708,4.34203 4.33029,4.66791c0.38459,0.72808 0.38752,2.06093 0.00587,2.79487c-0.56367,1.08331 -1.65579,1.78496 -2.77726,1.78496c-0.84551,0 -1.4679,-0.31119 -2.70093,-1.35046c-1.509,-1.27707 -2.00221,-1.52661 -2.99451,-1.52661c-0.9923,0 -1.48551,0.24954 -2.99451,1.52661c-1.23303,1.03927 -1.85542,1.35046 -2.70093,1.35046c-1.12147,0 -2.20478,-0.69578 -2.78019,-1.78496c-0.38459,-0.72514 -0.38165,-2.05799 0.00294,-2.789c0.25248,-0.48441 8.26132,-8.81324 8.47269,-8.81324c0.04697,0 1.90826,1.86423 4.13653,4.13947" className="SFSymbolsPreviewWireframe"/></g>
  <g id="Regular-S"><path d="M1442.45623,631.57978c-3.43781,0.73688 -6.05067,3.1912 -7.0048,6.58204c-0.09101,0.32294 -0.1967,1.14202 -0.2378,1.82313c-0.1145,2.00221 0.37285,3.85469 1.43854,5.46644c0.59597,0.89835 11.17656,11.66683 11.83124,12.03968c0.67523,0.38459 1.90533,0.3934 2.66276,0.02055c0.66642,-0.32881 11.21766,-11.01215 11.9105,-12.06023c1.62936,-2.46019 1.92001,-5.66901 0.77798,-8.51967c-0.71046,-1.76735 -2.48074,-3.64332 -4.27158,-4.52405c-1.52368,-0.74863 -2.32221,-0.93358 -4.01323,-0.93358c-1.99047,0 -3.3879,0.42275 -5.04956,1.52661l-0.64587,0.42863l-0.61652,-0.40807c-1.57946,-1.04221 -2.9446,-1.48845 -4.78534,-1.55891c-0.78679,-0.02936 -1.509,0.01174 -1.99634,0.11743M1445.4067,637.56292c0.21725,0.10275 0.87193,0.58716 1.45322,1.0745c1.61762,1.35634 1.94349,1.52074 2.99451,1.52074c1.05101,0 1.37689,-0.1644 2.99451,-1.52074c1.36514,-1.14496 1.6734,-1.29175 2.70093,-1.29175c1.25945,0 2.17836,0.57248 2.78019,1.72918c0.39633,0.76331 0.37285,2.06386 -0.04991,2.84478c-0.21431,0.3934 -1.65872,1.94643 -4.37139,4.69727l-4.05433,4.11011l-4.1013,-4.16882c-2.5512,-2.59524 -4.19525,-4.35671 -4.35378,-4.66791c-0.31119,-0.61652 -0.41982,-1.57652 -0.24954,-2.20771c0.2789,-1.03046 1.17138,-1.97579 2.14606,-2.27524c0.52257,-0.15853 1.61762,-0.07927 2.11083,0.1556M1428.0092,646.20589c-2.34863,0.37285 -4.66204,1.90533 -6.03892,3.99268c-2.01102,3.05322 -1.92881,7.08406 0.20551,10.06976l0.35817,0.49908l-0.35817,0.49908c-1.76441,2.46606 -2.149,5.65727 -1.02753,8.49911c0.64,1.61762 1.93469,3.19414 3.4613,4.21286c1.36808,0.91303 2.65396,1.32404 4.4624,1.42973c2.00221,0.1145 3.85469,-0.37285 5.46644,-1.43854c1.04808,-0.69285 11.73142,-11.24408 12.06023,-11.9105c0.3934,-0.7956 0.36697,-1.9934 -0.05578,-2.70093c-0.32294,-0.54312 -10.29288,-10.4338 -11.5083,-11.42023c-0.76331,-0.61652 -2.0668,-1.2712 -3.09432,-1.5501c-0.83376,-0.22606 -3.02093,-0.32881 -3.93102,-0.18202M1468.81963,646.16479c-1.5178,0.24367 -3.08552,0.91597 -4.1424,1.77322c-1.22129,0.98936 -11.1883,10.87711 -11.51417,11.42023c-0.26716,0.44918 -0.31413,0.66349 -0.31413,1.40918c0,0.7134 0.05284,0.97468 0.28184,1.37101c0.37578,0.65468 11.1472,11.23821 12.03968,11.83124c2.46019,1.62936 5.66901,1.92001 8.51967,0.77798c1.27707,-0.51083 2.89763,-1.80845 3.82534,-3.05909c0.46679,-0.62826 1.05688,-1.84955 1.36221,-2.82423c0.39633,-1.26239 0.39633,-3.54056 0,-4.80589c-0.31413,-1.00404 -0.82789,-2.06973 -1.34459,-2.79194l-0.35817,-0.49908l0.35817,-0.49908c0.5167,-0.7222 1.03046,-1.7879 1.34459,-2.79194c0.39633,-1.26533 0.39633,-3.5435 0,-4.80589c-0.97468,-3.10607 -3.13836,-5.28442 -6.18278,-6.22388c-0.81909,-0.25248 -3.05322,-0.41395 -3.87524,-0.28184M1430.96554,652.30647c0.32587,0.16734 2.01982,1.74386 4.67965,4.35965l4.16882,4.1013l-4.16882,4.10717c-2.7479,2.7068 -4.34791,4.19818 -4.69727,4.37433c-0.82202,0.41688 -2.08148,0.37872 -2.92698,-0.08514c-1.42386,-0.78679 -2.03157,-2.56001 -1.35927,-3.97213c0.09688,-0.20551 0.57542,-0.84844 1.06276,-1.42973c1.35634,-1.61762 1.52074,-1.94349 1.52074,-2.99451c0,-1.05101 -0.1644,-1.37689 -1.52074,-2.99451c-0.99523,-1.18606 -1.20955,-1.56478 -1.31523,-2.33395c-0.19083,-1.40624 0.69578,-2.77139 2.15487,-3.31744c0.61358,-0.22899 1.7556,-0.14092 2.40148,0.18495M1471.54992,652.29766c1.14789,0.58716 1.72625,1.51487 1.72625,2.77432c0,1.02753 -0.14679,1.33578 -1.29175,2.70093c-1.35634,1.61762 -1.52074,1.94349 -1.52074,2.99451c0,1.05101 0.1644,1.37689 1.52074,2.99451c0.48734,0.58129 0.96588,1.22422 1.06276,1.42973c0.6723,1.41212 0.06459,3.18533 -1.35927,3.97213c-0.84551,0.46385 -2.10496,0.50202 -2.92698,0.08514c-0.34936,-0.17615 -1.94643,-1.66459 -4.69727,-4.37433l-4.16882,-4.10717l4.05139,-3.99855c2.22827,-2.19597 4.24515,-4.12185 4.48002,-4.27745c0.23486,-0.1556 0.60477,-0.33762 0.82202,-0.4022c0.59597,-0.18495 1.73799,-0.07927 2.30166,0.20844M1448.79754,663.90284c-0.45211,0.1556 -1.28588,0.94826 -5.86571,5.58094c-2.93579,2.96808 -5.58975,5.71305 -5.90094,6.09764c-0.65175,0.81028 -1.28,2.0668 -1.57946,3.15304c-0.26422,0.96294 -0.29651,3.51121 -0.05284,4.45359c0.41688,1.6323 1.26239,3.10607 2.43964,4.26277c1.20074,1.18312 2.28111,1.82606 3.91928,2.33983c1.26239,0.39633 3.54056,0.39633 4.80589,0c1.00404,-0.31413 2.06973,-0.82789 2.79194,-1.34459l0.49908,-0.35817l0.49908,0.35817c0.7222,0.5167 1.7879,1.03046 2.79194,1.34459c0.73395,0.22899 1.13028,0.27596 2.40441,0.27596c1.70863,0 2.60698,-0.20844 4.04552,-0.93945c2.31927,-1.18019 4.05726,-3.36735 4.71488,-5.93911c0.24367,-0.94239 0.21138,-3.49066 -0.05284,-4.45359c-0.29945,-1.08624 -0.92771,-2.34276 -1.57946,-3.15304c-0.31119,-0.38459 -2.96515,-3.13249 -5.90094,-6.10351c-5.14351,-5.20516 -5.36075,-5.40773 -5.97433,-5.58681c-0.78092,-0.22899 -1.3123,-0.22606 -2.00515,0.01174M1453.99095,675.006c2.50129,2.56001 4.15708,4.34203 4.33029,4.66791c0.38459,0.72808 0.38752,2.06093 0.00587,2.79487c-0.56367,1.08331 -1.65579,1.78496 -2.77726,1.78496c-0.84551,0 -1.4679,-0.31119 -2.70093,-1.35046c-1.509,-1.27707 -2.00221,-1.52661 -2.99451,-1.52661c-0.9923,0 -1.48551,0.24954 -2.99451,1.52661c-1.23303,1.03927 -1.85542,1.35046 -2.70093,1.35046c-1.12147,0 -2.20478,-0.69578 -2.78019,-1.78496c-0.38459,-0.72514 -0.38165,-2.05799 0.00294,-2.789c0.25248,-0.48441 8.26132,-8.81324 8.47269,-8.81324c0.04697,0 1.90826,1.86423 4.13653,4.13947" className="SFSymbolsPreviewWireframe"/></g>
  <g id="Ultralight-S"><path d="M552.32264,631.57978c-3.43781,0.73688 -6.05067,3.1912 -7.0048,6.58204c-0.09101,0.32294 -0.1967,1.14202 -0.2378,1.82313c-0.1145,2.00221 0.37285,3.85469 1.43854,5.46644c0.59597,0.89835 11.17656,11.66683 11.83124,12.03968c0.67523,0.38459 1.90533,0.3934 2.66276,0.02055c0.66642,-0.32881 11.21766,-11.01215 11.9105,-12.06023c1.62936,-2.46019 1.92001,-5.66901 0.77798,-8.51967c-0.71046,-1.76735 -2.48074,-3.64332 -4.27158,-4.52405c-1.52368,-0.74863 -2.32221,-0.93358 -4.01323,-0.93358c-1.99047,0 -3.3879,0.42275 -5.04956,1.52661l-0.64587,0.42863l-0.61652,-0.40807c-1.57946,-1.04221 -2.9446,-1.48845 -4.78534,-1.55891c-0.78679,-0.02936 -1.509,0.01174 -1.99634,0.11743M555.27311,637.56292c0.21725,0.10275 0.87193,0.58716 1.45322,1.0745c1.61762,1.35634 1.94349,1.52074 2.99451,1.52074c1.05101,0 1.37689,-0.1644 2.99451,-1.52074c1.36514,-1.14496 1.6734,-1.29175 2.70093,-1.29175c1.25945,0 2.17836,0.57248 2.78019,1.72918c0.39633,0.76331 0.37285,2.06386 -0.04991,2.84478c-0.21431,0.3934 -1.65872,1.94643 -4.37139,4.69727l-4.05433,4.11011l-4.1013,-4.16882c-2.5512,-2.59524 -4.19525,-4.35671 -4.35378,-4.66791c-0.31119,-0.61652 -0.41982,-1.57652 -0.24954,-2.20771c0.2789,-1.03046 1.17138,-1.97579 2.14606,-2.27524c0.52257,-0.15853 1.61762,-0.07927 2.11083,0.1556M537.87561,646.20589c-2.34863,0.37285 -4.66204,1.90533 -6.03892,3.99268c-2.01102,3.05322 -1.92881,7.08406 0.20551,10.06976l0.35817,0.49908l-0.35817,0.49908c-1.76441,2.46606 -2.149,5.65727 -1.02753,8.49911c0.64,1.61762 1.93469,3.19414 3.4613,4.21286c1.36808,0.91303 2.65396,1.32404 4.4624,1.42973c2.00221,0.1145 3.85469,-0.37285 5.46644,-1.43854c1.04808,-0.69285 11.73142,-11.24408 12.06023,-11.9105c0.3934,-0.7956 0.36697,-1.9934 -0.05578,-2.70093c-0.32294,-0.54312 -10.29288,-10.4338 -11.5083,-11.42023c-0.76331,-0.61652 -2.0668,-1.2712 -3.09432,-1.5501c-0.83376,-0.22606 -3.02093,-0.32881 -3.93102,-0.18202M578.68604,646.16479c-1.5178,0.24367 -3.08552,0.91597 -4.1424,1.77322c-1.22129,0.98936 -11.1883,10.87711 -11.51417,11.42023c-0.26716,0.44918 -0.31413,0.66349 -0.31413,1.40918c0,0.7134 0.05284,0.97468 0.28184,1.37101c0.37578,0.65468 11.1472,11.23821 12.03968,11.83124c2.46019,1.62936 5.66901,1.92001 8.51967,0.77798c1.27707,-0.51083 2.89763,-1.80845 3.82534,-3.05909c0.46679,-0.62826 1.05688,-1.84955 1.36221,-2.82423c0.39633,-1.26239 0.39633,-3.54056 0,-4.80589c-0.31413,-1.00404 -0.82789,-2.06973 -1.34459,-2.79194l-0.35817,-0.49908l0.35817,-0.49908c0.5167,-0.7222 1.03046,-1.7879 1.34459,-2.79194c0.39633,-1.26533 0.39633,-3.5435 0,-4.80589c-0.97468,-3.10607 -3.13836,-5.28442 -6.18278,-6.22388c-0.81909,-0.25248 -3.05322,-0.41395 -3.87524,-0.28184M540.83195,652.30647c0.32587,0.16734 2.01982,1.74386 4.67965,4.35965l4.16882,4.1013l-4.16882,4.10717c-2.7479,2.7068 -4.34791,4.19818 -4.69727,4.37433c-0.82202,0.41688 -2.08148,0.37872 -2.92698,-0.08514c-1.42386,-0.78679 -2.03157,-2.56001 -1.35927,-3.97213c0.09688,-0.20551 0.57542,-0.84844 1.06276,-1.42973c1.35634,-1.61762 1.52074,-1.94349 1.52074,-2.99451c0,-1.05101 -0.1644,-1.37689 -1.52074,-2.99451c-0.99523,-1.18606 -1.20955,-1.56478 -1.31523,-2.33395c-0.19083,-1.40624 0.69578,-2.77139 2.15487,-3.31744c0.61358,-0.22899 1.7556,-0.14092 2.40148,0.18495M581.41633,652.29766c1.14789,0.58716 1.72625,1.51487 1.72625,2.77432c0,1.02753 -0.14679,1.33578 -1.29175,2.70093c-1.35634,1.61762 -1.52074,1.94349 -1.52074,2.99451c0,1.05101 0.1644,1.37689 1.52074,2.99451c0.48734,0.58129 0.96588,1.22422 1.06276,1.42973c0.6723,1.41212 0.06459,3.18533 -1.35927,3.97213c-0.84551,0.46385 -2.10496,0.50202 -2.92698,0.08514c-0.34936,-0.17615 -1.94643,-1.66459 -4.69727,-4.37433l-4.16882,-4.10717l4.05139,-3.99855c2.22827,-2.19597 4.24515,-4.12185 4.48002,-4.27745c0.23486,-0.1556 0.60477,-0.33762 0.82202,-0.4022c0.59597,-0.18495 1.73799,-0.07927 2.30166,0.20844M558.66395,663.90284c-0.45211,0.1556 -1.28588,0.94826 -5.86571,5.58094c-2.93579,2.96808 -5.58975,5.71305 -5.90094,6.09764c-0.65175,0.81028 -1.28,2.0668 -1.57946,3.15304c-0.26422,0.96294 -0.29651,3.51121 -0.05284,4.45359c0.41688,1.6323 1.26239,3.10607 2.43964,4.26277c1.20074,1.18312 2.28111,1.82606 3.91928,2.33983c1.26239,0.39633 3.54056,0.39633 4.80589,0c1.00404,-0.31413 2.06973,-0.82789 2.79194,-1.34459l0.49908,-0.35817l0.49908,0.35817c0.7222,0.5167 1.7879,1.03046 2.79194,1.34459c0.73395,0.22899 1.13028,0.27596 2.40441,0.27596c1.70863,0 2.60698,-0.20844 4.04552,-0.93945c2.31927,-1.18019 4.05726,-3.36735 4.71488,-5.93911c0.24367,-0.94239 0.21138,-3.49066 -0.05284,-4.45359c-0.29945,-1.08624 -0.92771,-2.34276 -1.57946,-3.15304c-0.31119,-0.38459 -2.96515,-3.13249 -5.90094,-6.10351c-5.14351,-5.20516 -5.36075,-5.40773 -5.97433,-5.58681c-0.78092,-0.22899 -1.3123,-0.22606 -2.00515,0.01174M563.85736,675.006c2.50129,2.56001 4.15708,4.34203 4.33029,4.66791c0.38459,0.72808 0.38752,2.06093 0.00587,2.79487c-0.56367,1.08331 -1.65579,1.78496 -2.77726,1.78496c-0.84551,0 -1.4679,-0.31119 -2.70093,-1.35046c-1.509,-1.27707 -2.00221,-1.52661 -2.99451,-1.52661c-0.9923,0 -1.48551,0.24954 -2.99451,1.52661c-1.23303,1.03927 -1.85542,1.35046 -2.70093,1.35046c-1.12147,0 -2.20478,-0.69578 -2.78019,-1.78496c-0.38459,-0.72514 -0.38165,-2.05799 0.00294,-2.789c0.25248,-0.48441 8.26132,-8.81324 8.47269,-8.81324c0.04697,0 1.90826,1.86423 4.13653,4.13947" className="SFSymbolsPreviewWireframe"/></g>
 </g>
</svg>