<?xml version="1.0" encoding="UTF-8"?><!--Generator: https://SymbolKit.app--><!DOCTYPE svg PUBLIC "-//W3C//DTD SVG 1.1//EN" "http://www.w3.org/Graphics/SVG/1.1/DTD/svg11.dtd"><svg xmlns="http://www.w3.org/2000/svg" xmlns:xlink="http://www.w3.org/1999/xlink" version="1.1" viewBox="0 0 3300 2200">
 <!--glyph: "100092", point size: 100.0, font version: "20.0d10e1", template writer version: "138.0.0"-->
 <style>.SFSymbolsPreviewWireframe {fill:none;opacity:1.0;stroke:black;stroke-width:0.5}
</style>
 <g id="Notes">
  <rect height="2200" id="artboard" style="fill:white;opacity:1" width="3300" x="0" y="0"/>
  <line style="fill:none;stroke:black;opacity:1;stroke-width:0.5;" x1="263" x2="3036" y1="292" y2="292"/>
  <text style="stroke:none;fill:black;font-family:sans-serif;font-size:13;font-weight:bold;" transform="matrix(1 0 0 1 263 322)">Weight/Scale Variations</text>
  <text style="stroke:none;fill:black;font-family:sans-serif;font-size:13;text-anchor:middle;" transform="matrix(1 0 0 1 559.711 322)">Ultralight</text>
  <text style="stroke:none;fill:black;font-family:sans-serif;font-size:13;text-anchor:middle;" transform="matrix(1 0 0 1 856.422 322)">Thin</text>
  <text style="stroke:none;fill:black;font-family:sans-serif;font-size:13;text-anchor:middle;" transform="matrix(1 0 0 1 1153.13 322)">Light</text>
  <text style="stroke:none;fill:black;font-family:sans-serif;font-size:13;text-anchor:middle;" transform="matrix(1 0 0 1 1449.84 322)">Regular</text>
  <text style="stroke:none;fill:black;font-family:sans-serif;font-size:13;text-anchor:middle;" transform="matrix(1 0 0 1 1746.56 322)">Medium</text>
  <text style="stroke:none;fill:black;font-family:sans-serif;font-size:13;text-anchor:middle;" transform="matrix(1 0 0 1 2043.27 322)">Semibold</text>
  <text style="stroke:none;fill:black;font-family:sans-serif;font-size:13;text-anchor:middle;" transform="matrix(1 0 0 1 2339.98 322)">Bold</text>
  <text style="stroke:none;fill:black;font-family:sans-serif;font-size:13;text-anchor:middle;" transform="matrix(1 0 0 1 2636.69 322)">Heavy</text>
  <text style="stroke:none;fill:black;font-family:sans-serif;font-size:13;text-anchor:middle;" transform="matrix(1 0 0 1 2933.4 322)">Black</text>
  <line style="fill:none;stroke:black;opacity:1;stroke-width:0.5;" x1="263" x2="3036" y1="1903" y2="1903"/>
  <g transform="matrix(0.2 0 0 0.2 263 1933)">
   <path d="m46.2402 4.15039c21.7773 0 39.4531-17.627 39.4531-39.4043s-17.6758-39.4043-39.4531-39.4043c-21.7285 0-39.4043 17.627-39.4043 39.4043s17.6758 39.4043 39.4043 39.4043Zm0-7.42188c-17.6758 0-31.9336-14.3066-31.9336-31.9824s14.2578-31.9824 31.9336-31.9824 31.9824 14.3066 31.9824 31.9824-14.3066 31.9824-31.9824 31.9824Zm-17.9688-31.9824c0 2.14844 1.51367 3.61328 3.75977 3.61328h10.498v10.5957c0 2.19727 1.46484 3.71094 3.61328 3.71094 2.24609 0 3.71094-1.51367 3.71094-3.71094v-10.5957h10.5957c2.19727 0 3.71094-1.46484 3.71094-3.61328 0-2.19727-1.51367-3.71094-3.71094-3.71094h-10.5957v-10.5469c0-2.24609-1.46484-3.75977-3.71094-3.75977-2.14844 0-3.61328 1.51367-3.61328 3.75977v10.5469h-10.498c-2.24609 0-3.75977 1.51367-3.75977 3.71094Z"/>
  </g>
  <g transform="matrix(0.2 0 0 0.2 281.506 1933)">
   <path d="m58.5449 14.5508c27.4902 0 49.8047-22.3145 49.8047-49.8047s-22.3145-49.8047-49.8047-49.8047-49.8047 22.3145-49.8047 49.8047 22.3145 49.8047 49.8047 49.8047Zm0-8.30078c-22.9492 0-41.5039-18.5547-41.5039-41.5039s18.5547-41.5039 41.5039-41.5039 41.5039 18.5547 41.5039 41.5039-18.5547 41.5039-41.5039 41.5039Zm-22.6562-41.5039c0 2.39258 1.66016 4.00391 4.15039 4.00391h14.3555v14.4043c0 2.44141 1.66016 4.15039 4.05273 4.15039 2.44141 0 4.15039-1.66016 4.15039-4.15039v-14.4043h14.4043c2.44141 0 4.15039-1.61133 4.15039-4.00391 0-2.44141-1.70898-4.15039-4.15039-4.15039h-14.4043v-14.3555c0-2.49023-1.70898-4.19922-4.15039-4.19922-2.39258 0-4.05273 1.70898-4.05273 4.19922v14.3555h-14.3555c-2.49023 0-4.15039 1.70898-4.15039 4.15039Z"/>
  </g>
  <g transform="matrix(0.2 0 0 0.2 304.924 1933)">
   <path d="m74.8535 28.3203c35.1074 0 63.623-28.4668 63.623-63.5742s-28.5156-63.623-63.623-63.623-63.5742 28.5156-63.5742 63.623 28.4668 63.5742 63.5742 63.5742Zm0-9.08203c-30.127 0-54.4922-24.3652-54.4922-54.4922s24.3652-54.4922 54.4922-54.4922 54.4922 24.3652 54.4922 54.4922-24.3652 54.4922-54.4922 54.4922Zm-28.8574-54.4922c0 2.58789 1.85547 4.39453 4.58984 4.39453h19.7266v19.7754c0 2.68555 1.85547 4.58984 4.44336 4.58984 2.68555 0 4.54102-1.85547 4.54102-4.58984v-19.7754h19.7754c2.68555 0 4.58984-1.80664 4.58984-4.39453 0-2.73438-1.85547-4.58984-4.58984-4.58984h-19.7754v-19.7266c0-2.73438-1.85547-4.63867-4.54102-4.63867-2.58789 0-4.44336 1.9043-4.44336 4.63867v19.7266h-19.7266c-2.73438 0-4.58984 1.85547-4.58984 4.58984Z"/>
  </g>
  <text style="stroke:none;fill:black;font-family:sans-serif;font-size:13;font-weight:bold;" transform="matrix(1 0 0 1 263 1953)">Design Variations</text>
  <text style="stroke:none;fill:black;font-family:sans-serif;font-size:13;" transform="matrix(1 0 0 1 263 1971)">Symbols are supported in up to nine weights and three scales.</text>
  <text style="stroke:none;fill:black;font-family:sans-serif;font-size:13;" transform="matrix(1 0 0 1 263 1989)">For optimal layout with text and other symbols, vertically align</text>
  <text style="stroke:none;fill:black;font-family:sans-serif;font-size:13;" transform="matrix(1 0 0 1 263 2007)">symbols with the adjacent text.</text>
  <line style="fill:none;stroke:#00AEEF;stroke-width:0.5;opacity:1.0;" x1="776" x2="776" y1="1919" y2="1933"/>
  <g transform="matrix(0.2 0 0 0.2 776 1933)">
   <path d="m16.5527 0.78125c2.58789 0 3.85742-0.976562 4.78516-3.71094l6.29883-17.2363h28.8086l6.29883 17.2363c0.927734 2.73438 2.19727 3.71094 4.73633 3.71094 2.58789 0 4.24805-1.5625 4.24805-4.00391 0-0.830078-0.146484-1.61133-0.537109-2.63672l-22.9004-60.9863c-1.12305-2.97852-3.125-4.49219-6.25-4.49219-3.02734 0-5.07812 1.46484-6.15234 4.44336l-22.9004 61.084c-0.390625 1.02539-0.537109 1.80664-0.537109 2.63672 0 2.44141 1.5625 3.95508 4.10156 3.95508Zm13.4766-28.3691 11.8652-32.8613h0.244141l11.8652 32.8613Z"/>
  </g>
  <line style="fill:none;stroke:#00AEEF;stroke-width:0.5;opacity:1.0;" x1="792.836" x2="792.836" y1="1919" y2="1933"/>
  <text style="stroke:none;fill:black;font-family:sans-serif;font-size:13;font-weight:bold;" transform="matrix(1 0 0 1 776 1953)">Margins</text>
  <text style="stroke:none;fill:black;font-family:sans-serif;font-size:13;" transform="matrix(1 0 0 1 776 1971)">Leading and trailing margins on the left and right side of each symbol</text>
  <text style="stroke:none;fill:black;font-family:sans-serif;font-size:13;" transform="matrix(1 0 0 1 776 1989)">can be adjusted by modifying the x-location of the margin guidelines.</text>
  <text style="stroke:none;fill:black;font-family:sans-serif;font-size:13;" transform="matrix(1 0 0 1 776 2007)">Modifications are automatically applied proportionally to all</text>
  <text style="stroke:none;fill:black;font-family:sans-serif;font-size:13;" transform="matrix(1 0 0 1 776 2025)">scales and weights.</text>
  <g transform="matrix(0.2 0 0 0.2 1289 1933)">
   <path d="m14.209 9.32617 8.49609 8.54492c4.29688 4.3457 9.22852 4.05273 13.8672-1.07422l53.4668-58.9355-4.83398-4.88281-53.0762 58.3984c-1.75781 2.00195-3.41797 2.49023-5.76172 0.146484l-5.85938-5.81055c-2.34375-2.29492-1.80664-4.00391 0.195312-5.81055l57.373-54.0039-4.88281-4.83398-57.959 54.4434c-4.93164 4.58984-5.32227 9.47266-1.02539 13.8184Zm32.0801-90.9668c-2.09961 2.05078-2.24609 4.93164-1.07422 6.88477 1.17188 1.80664 3.4668 2.97852 6.68945 2.14844 7.32422-1.70898 14.9414-2.00195 22.0703 2.68555l-2.92969 7.27539c-1.70898 4.15039-0.830078 7.08008 1.85547 9.81445l11.4746 11.5723c2.44141 2.44141 4.49219 2.53906 7.32422 2.05078l5.32227-0.976562 3.32031 3.36914-0.195312 2.7832c-0.195312 2.49023 0.439453 4.39453 2.88086 6.78711l3.80859 3.71094c2.39258 2.39258 5.46875 2.53906 7.8125 0.195312l14.5508-14.5996c2.34375-2.34375 2.24609-5.32227-0.146484-7.71484l-3.85742-3.80859c-2.39258-2.39258-4.24805-3.17383-6.64062-2.97852l-2.88086 0.244141-3.22266-3.17383 1.2207-5.61523c0.634766-2.83203-0.146484-5.0293-3.07617-7.95898l-10.9863-10.9375c-16.6992-16.6016-38.8672-16.2109-53.3203-1.75781Zm7.4707 1.85547c12.1582-8.88672 28.6133-7.37305 39.7461 3.75977l12.1582 12.0605c1.17188 1.17188 1.36719 2.09961 1.02539 3.80859l-1.61133 7.42188 7.51953 7.42188 4.93164-0.292969c1.26953-0.0488281 1.66016 0.0488281 2.63672 1.02539l2.88086 2.88086-12.207 12.207-2.88086-2.88086c-0.976562-0.976562-1.12305-1.36719-1.07422-2.68555l0.341797-4.88281-7.4707-7.42188-7.61719 1.26953c-1.61133 0.341797-2.34375 0.195312-3.56445-0.976562l-10.0098-10.0098c-1.26953-1.17188-1.41602-2.00195-0.634766-3.85742l4.39453-10.4492c-7.8125-7.27539-17.9688-10.4004-28.125-7.42188-0.78125 0.195312-1.07422-0.439453-0.439453-0.976562Z"/>
  </g>
  <text style="stroke:none;fill:black;font-family:sans-serif;font-size:13;font-weight:bold;" transform="matrix(1 0 0 1 1289 1953)">Exporting</text>
  <text style="stroke:none;fill:black;font-family:sans-serif;font-size:13;" transform="matrix(1 0 0 1 1289 1971)">Symbols should be outlined when exporting to ensure the</text>
  <text style="stroke:none;fill:black;font-family:sans-serif;font-size:13;" transform="matrix(1 0 0 1 1289 1989)">design is preserved when submitting to Xcode.</text>
  <text id="template-version" style="stroke:none;fill:black;font-family:sans-serif;font-size:13;text-anchor:end;" transform="matrix(1 0 0 1 3036 1933)">Template v.6.0</text>
  <text style="stroke:none;fill:black;font-family:sans-serif;font-size:13;text-anchor:end;" transform="matrix(1 0 0 1 3036 1951)">Requires Xcode 16 or greater</text>
  <text id="descriptive-name" style="stroke:none;fill:black;font-family:sans-serif;font-size:13;text-anchor:end;" transform="matrix(1 0 0 1 3036 1969)">Generated from square</text>
  <text style="stroke:none;fill:black;font-family:sans-serif;font-size:13;text-anchor:end;" transform="matrix(1 0 0 1 3036 1987)">Typeset at 100.0 points</text>
  <text style="stroke:none;fill:black;font-family:sans-serif;font-size:13;" transform="matrix(1 0 0 1 263 726)">Small</text>
  <text style="stroke:none;fill:black;font-family:sans-serif;font-size:13;" transform="matrix(1 0 0 1 263 1156)">Medium</text>
  <text style="stroke:none;fill:black;font-family:sans-serif;font-size:13;" transform="matrix(1 0 0 1 263 1586)">Large</text>
 </g>
 <g id="Guides">
  <g id="H-reference" style="fill:#27AAE1;stroke:none;" transform="matrix(1 0 0 1 339 696)">
   <path d="M0.993654 0L3.63775 0L29.3281-67.1323L30.0303-67.1323L30.0303-70.459L28.1226-70.459ZM11.6885-24.4799L46.9815-24.4799L46.2315-26.7285L12.4385-26.7285ZM55.1196 0L57.7637 0L30.6382-70.459L29.4326-70.459L29.4326-67.1323Z"/>
  </g>
  <line id="Baseline-S" style="fill:none;stroke:#27AAE1;opacity:1;stroke-width:0.5;" x1="263" x2="3036" y1="696" y2="696"/>
  <line id="Capline-S" style="fill:none;stroke:#27AAE1;opacity:1;stroke-width:0.5;" x1="263" x2="3036" y1="625.541" y2="625.541"/>
  <g id="H-reference" style="fill:#27AAE1;stroke:none;" transform="matrix(1 0 0 1 339 1126)">
   <path d="M0.993654 0L3.63775 0L29.3281-67.1323L30.0303-67.1323L30.0303-70.459L28.1226-70.459ZM11.6885-24.4799L46.9815-24.4799L46.2315-26.7285L12.4385-26.7285ZM55.1196 0L57.7637 0L30.6382-70.459L29.4326-70.459L29.4326-67.1323Z"/>
  </g>
  <line id="Baseline-M" style="fill:none;stroke:#27AAE1;opacity:1;stroke-width:0.5;" x1="263" x2="3036" y1="1126" y2="1126"/>
  <line id="Capline-M" style="fill:none;stroke:#27AAE1;opacity:1;stroke-width:0.5;" x1="263" x2="3036" y1="1055.54" y2="1055.54"/>
  <g id="H-reference" style="fill:#27AAE1;stroke:none;" transform="matrix(1 0 0 1 339 1556)">
   <path d="M0.993654 0L3.63775 0L29.3281-67.1323L30.0303-67.1323L30.0303-70.459L28.1226-70.459ZM11.6885-24.4799L46.9815-24.4799L46.2315-26.7285L12.4385-26.7285ZM55.1196 0L57.7637 0L30.6382-70.459L29.4326-70.459L29.4326-67.1323Z"/>
  </g>
  <line id="Baseline-L" style="fill:none;stroke:#27AAE1;opacity:1;stroke-width:0.5;" x1="263" x2="3036" y1="1556" y2="1556"/>
  <line id="Capline-L" style="fill:none;stroke:#27AAE1;opacity:1;stroke-width:0.5;" x1="263" x2="3036" y1="1485.54" y2="1485.54"/>
  <line id="right-margin-Black-S" style="fill:none;stroke:#00AEEF;stroke-width:0.5;opacity:1.0;" x1="2981.3" x2="2981.3" y1="600.785" y2="720.121"/>
  <line id="left-margin-Black-S" style="fill:none;stroke:#00AEEF;stroke-width:0.5;opacity:1.0;" x1="2885.5" x2="2885.5" y1="600.785" y2="720.121"/>
  <line id="right-margin-Regular-S" style="fill:none;stroke:#00AEEF;stroke-width:0.5;opacity:1.0;" x1="1495.18" x2="1495.18" y1="600.785" y2="720.121"/>
  <line id="left-margin-Regular-S" style="fill:none;stroke:#00AEEF;stroke-width:0.5;opacity:1.0;" x1="1404.51" x2="1404.51" y1="600.785" y2="720.121"/>
  <line id="right-margin-Ultralight-S" style="fill:none;stroke:#00AEEF;stroke-width:0.5;opacity:1.0;" x1="603.073" x2="603.073" y1="600.785" y2="720.121"/>
  <line id="left-margin-Ultralight-S" style="fill:none;stroke:#00AEEF;stroke-width:0.5;opacity:1.0;" x1="516.35" x2="516.35" y1="600.785" y2="720.121"/>
 </g>
 <g id="Symbols">
  <g id="Black-S"><path d="M2931.63882,630.05035c-4.87928,0.5989 -9.21545,3.66974 -11.37325,8.05581c-2.53359,5.14938 -1.88771,11.24408 1.65872,15.61547c0.4022,0.49615 0.78092,0.96881 0.84257,1.05395c0.07927,0.10569 -0.02642,0.29945 -0.35523,0.65762c-1.53542,1.66753 -2.8712,4.27745 -3.3468,6.53214c-0.10275,0.49028 -0.17028,0.60771 -0.32587,0.56074c-0.40514,-0.1233 -2.21652,-0.30239 -3.03854,-0.30239c-1.04221,0 -2.84772,0.26422 -3.99268,0.58422c-3.58167,1.0011 -6.84333,3.59634 -8.77508,6.98425c-1.80845,3.17359 -2.31634,7.50682 -1.29175,11.04445c1.14202,3.95451 3.9369,7.35416 7.50975,9.13912c3.36735,1.68221 6.96663,2.04331 10.51013,1.05982c5.14351,-1.42973 9.10682,-5.47525 10.36628,-10.57766c0.19083,-0.77211 0.28184,-0.96294 0.42863,-0.92184c0.45211,0.13505 2.10203,0.30239 2.9446,0.30239c0.83964,0 2.49249,-0.16734 2.94166,-0.29945c0.14092,-0.0411 0.22899,0.13505 0.38752,0.7956c0.62826,2.61873 2.09615,5.15818 4.08956,7.08406c1.09799,1.06276 1.77615,1.57358 2.97396,2.24588c3.93396,2.20771 8.596,2.50717 12.77069,0.82202c4.06901,-1.64111 7.37764,-5.31965 8.54609,-9.50609c1.02166,-3.658 0.6723,-7.32186 -1.02166,-10.7127c-1.96404,-3.93102 -5.9303,-6.93727 -10.24004,-7.76223c-1.72625,-0.33174 -4.47415,-0.32 -5.72186,0.02055c-0.22018,0.06165 -0.26716,-0.01761 -0.44918,-0.79266c-0.25541,-1.07156 -0.90422,-2.73909 -1.45028,-3.72258c-0.45798,-0.82789 -1.60881,-2.41322 -2.00515,-2.76258c-0.13798,-0.1233 -0.25248,-0.27303 -0.25248,-0.33468c0,-0.06165 0.24367,-0.38459 0.54312,-0.71633c1.4679,-1.62936 2.58643,-3.86057 3.22643,-6.41764c0.24073,-0.97175 0.27596,-1.38863 0.27303,-3.22937c-0.00587,-1.99047 -0.02642,-2.19304 -0.37285,-3.47598c-0.77798,-2.88588 -1.88771,-4.82644 -3.88699,-6.79929c-1.74092,-1.72037 -3.38497,-2.76258 -5.61323,-3.56111c-1.73505,-0.62239 -4.51525,-0.90422 -6.49984,-0.66349M2934.80067,635.92487c2.8301,0.46092 5.31378,2.3134 6.52333,4.86461c1.87303,3.95451 0.59303,8.69875 -2.99157,11.09142c-1.10973,0.74276 -1.49725,1.15083 -1.76147,1.85542c-0.27596,0.74276 -0.29651,1.31817 -0.06752,2.07267c0.23193,0.77505 0.65468,1.27707 1.62936,1.94056c2.68331,1.82313 4.05726,4.44772 4.07194,7.77104c0.00294,1.32991 0.22312,1.94937 0.92184,2.60405c1.28,1.1978 2.5835,1.45028 4.13947,0.80734c1.43267,-0.59303 2.26643,-0.76624 3.69029,-0.76624c2.62166,-0.00294 4.42424,0.74863 6.28846,2.61873c1.11266,1.11854 1.7556,2.19597 2.24001,3.76956c0.35229,1.13322 0.38459,3.28515 0.07046,4.4624c-1.09211,4.1013 -4.89103,6.90792 -9.00994,6.65544c-1.37982,-0.08514 -2.25762,-0.32 -3.43488,-0.9101c-1.7468,-0.8778 -3.05909,-2.19597 -3.91047,-3.92515c-0.6811,-1.38276 -0.87487,-2.16661 -0.95413,-3.87524c-0.10569,-2.19597 -0.47266,-2.78313 -2.32515,-3.72552c-0.96294,-0.49028 -1.79083,-0.48734 -3.02386,0.00587c-2.38093,0.95413 -4.62974,0.9512 -6.99599,-0.00294c-1.33872,-0.54312 -2.06973,-0.51083 -3.27341,0.13505c-1.13909,0.61358 -1.37689,0.83083 -1.74386,1.60588c-0.2378,0.50202 -0.29064,0.79854 -0.29064,1.59413c-0.00294,2.61873 -0.86019,4.7824 -2.57469,6.51452c-1.76147,1.77909 -3.72258,2.56882 -6.35012,2.55707c-1.34166,-0.00587 -1.56478,-0.0411 -2.58056,-0.38752c-2.49836,-0.85725 -4.02497,-2.19891 -5.17286,-4.53873c-1.84368,-3.75194 -0.85138,-8.0881 2.45139,-10.74206c1.56478,-1.25358 3.21176,-1.80551 5.41947,-1.81432c1.58533,-0.00881 2.10496,0.09982 3.74901,0.77211c1.19193,0.49028 1.94643,0.48734 2.92698,-0.00881c0.4022,-0.20257 0.93358,-0.55193 1.18312,-0.77798c0.72514,-0.65468 0.86899,-1.07744 0.95707,-2.81249c0.08807,-1.7556 0.32881,-2.84185 0.8778,-3.96038c0.77211,-1.56771 1.69102,-2.61579 3.18827,-3.62864c1.22422,-0.82789 1.63817,-1.42679 1.7556,-2.54533c0.08514,-0.81909 -0.1644,-1.70863 -0.6312,-2.26643c-0.16734,-0.1967 -0.6811,-0.61358 -1.14789,-0.92771c-2.22239,-1.50019 -3.5846,-3.64038 -3.94864,-6.20039c-0.82496,-5.82755 4.28625,-10.82426 10.10499,-9.88187M2932.50488,641.84048c-0.6723,0.21138 -1.28881,0.71046 -1.66459,1.34753c-0.27009,0.45798 -0.31707,0.6723 -0.31413,1.42092c0.00294,0.97468 0.23486,1.56478 0.8367,2.13726c1.40624,1.32991 3.7402,0.93358 4.6591,-0.78679c0.38752,-0.73101 0.35817,-2.05505 -0.06165,-2.77139c-0.71633,-1.21835 -2.11964,-1.76441 -3.45543,-1.34753M2932.50488,662.39102c-0.6723,0.21138 -1.28881,0.71046 -1.66459,1.34753c-0.27009,0.45798 -0.31707,0.6723 -0.31413,1.42092c0.00294,0.97468 0.23486,1.56478 0.8367,2.13726c1.40624,1.32991 3.7402,0.93358 4.6591,-0.78679c0.38752,-0.73101 0.35817,-2.05505 -0.06165,-2.77139c-0.71633,-1.21835 -2.11964,-1.76441 -3.45543,-1.34753M2914.89013,674.13419c-0.6723,0.21138 -1.28881,0.71046 -1.66459,1.34753c-0.27009,0.45798 -0.31707,0.6723 -0.31413,1.42092c0.00294,0.97468 0.23486,1.56478 0.8367,2.13726c1.40624,1.32991 3.7402,0.93358 4.6591,-0.78679c0.38752,-0.73101 0.35817,-2.05505 -0.06165,-2.77139c-0.71633,-1.21835 -2.11964,-1.76441 -3.45543,-1.34753M2950.11962,674.13419c-0.6723,0.21138 -1.28881,0.71046 -1.66459,1.34753c-0.27009,0.45798 -0.31707,0.6723 -0.31413,1.42092c0.00294,0.97468 0.23486,1.56478 0.8367,2.13726c1.40624,1.32991 3.7402,0.93358 4.6591,-0.78679c0.38752,-0.73101 0.35817,-2.05505 -0.06165,-2.77139c-0.71633,-1.21835 -2.11964,-1.76441 -3.45543,-1.34753" className="SFSymbolsPreviewWireframe"/></g>
  <g id="Regular-S"><path d="M1448.08377,630.05035c-4.87928,0.5989 -9.21545,3.66974 -11.37325,8.05581c-2.53359,5.14938 -1.88771,11.24408 1.65872,15.61547c0.4022,0.49615 0.78092,0.96881 0.84257,1.05395c0.07927,0.10569 -0.02642,0.29945 -0.35523,0.65762c-1.53542,1.66753 -2.8712,4.27745 -3.3468,6.53214c-0.10275,0.49028 -0.17028,0.60771 -0.32587,0.56074c-0.40514,-0.1233 -2.21652,-0.30239 -3.03854,-0.30239c-1.04221,0 -2.84772,0.26422 -3.99268,0.58422c-3.58167,1.0011 -6.84333,3.59634 -8.77508,6.98425c-1.80845,3.17359 -2.31634,7.50682 -1.29175,11.04445c1.14202,3.95451 3.9369,7.35416 7.50975,9.13912c3.36735,1.68221 6.96663,2.04331 10.51013,1.05982c5.14351,-1.42973 9.10682,-5.47525 10.36628,-10.57766c0.19083,-0.77211 0.28184,-0.96294 0.42863,-0.92184c0.45211,0.13505 2.10203,0.30239 2.9446,0.30239c0.83964,0 2.49249,-0.16734 2.94166,-0.29945c0.14092,-0.0411 0.22899,0.13505 0.38752,0.7956c0.62826,2.61873 2.09615,5.15818 4.08956,7.08406c1.09799,1.06276 1.77615,1.57358 2.97396,2.24588c3.93396,2.20771 8.596,2.50717 12.77069,0.82202c4.06901,-1.64111 7.37764,-5.31965 8.54609,-9.50609c1.02166,-3.658 0.6723,-7.32186 -1.02166,-10.7127c-1.96404,-3.93102 -5.9303,-6.93727 -10.24004,-7.76223c-1.72625,-0.33174 -4.47415,-0.32 -5.72186,0.02055c-0.22018,0.06165 -0.26716,-0.01761 -0.44918,-0.79266c-0.25541,-1.07156 -0.90422,-2.73909 -1.45028,-3.72258c-0.45798,-0.82789 -1.60881,-2.41322 -2.00515,-2.76258c-0.13798,-0.1233 -0.25248,-0.27303 -0.25248,-0.33468c0,-0.06165 0.24367,-0.38459 0.54312,-0.71633c1.4679,-1.62936 2.58643,-3.86057 3.22643,-6.41764c0.24073,-0.97175 0.27596,-1.38863 0.27303,-3.22937c-0.00587,-1.99047 -0.02642,-2.19304 -0.37285,-3.47598c-0.77798,-2.88588 -1.88771,-4.82644 -3.88699,-6.79929c-1.74092,-1.72037 -3.38497,-2.76258 -5.61323,-3.56111c-1.73505,-0.62239 -4.51525,-0.90422 -6.49984,-0.66349M1451.24562,635.92487c2.8301,0.46092 5.31378,2.3134 6.52333,4.86461c1.87303,3.95451 0.59303,8.69875 -2.99157,11.09142c-1.10973,0.74276 -1.49725,1.15083 -1.76147,1.85542c-0.27596,0.74276 -0.29651,1.31817 -0.06752,2.07267c0.23193,0.77505 0.65468,1.27707 1.62936,1.94056c2.68331,1.82313 4.05726,4.44772 4.07194,7.77104c0.00294,1.32991 0.22312,1.94937 0.92184,2.60405c1.28,1.1978 2.5835,1.45028 4.13947,0.80734c1.43267,-0.59303 2.26643,-0.76624 3.69029,-0.76624c2.62166,-0.00294 4.42424,0.74863 6.28846,2.61873c1.11266,1.11854 1.7556,2.19597 2.24001,3.76956c0.35229,1.13322 0.38459,3.28515 0.07046,4.4624c-1.09211,4.1013 -4.89103,6.90792 -9.00994,6.65544c-1.37982,-0.08514 -2.25762,-0.32 -3.43488,-0.9101c-1.7468,-0.8778 -3.05909,-2.19597 -3.91047,-3.92515c-0.6811,-1.38276 -0.87487,-2.16661 -0.95413,-3.87524c-0.10569,-2.19597 -0.47266,-2.78313 -2.32515,-3.72552c-0.96294,-0.49028 -1.79083,-0.48734 -3.02386,0.00587c-2.38093,0.95413 -4.62974,0.9512 -6.99599,-0.00294c-1.33872,-0.54312 -2.06973,-0.51083 -3.27341,0.13505c-1.13909,0.61358 -1.37689,0.83083 -1.74386,1.60588c-0.2378,0.50202 -0.29064,0.79854 -0.29064,1.59413c-0.00294,2.61873 -0.86019,4.7824 -2.57469,6.51452c-1.76147,1.77909 -3.72258,2.56882 -6.35012,2.55707c-1.34166,-0.00587 -1.56478,-0.0411 -2.58056,-0.38752c-2.49836,-0.85725 -4.02497,-2.19891 -5.17286,-4.53873c-1.84368,-3.75194 -0.85138,-8.0881 2.45139,-10.74206c1.56478,-1.25358 3.21176,-1.80551 5.41947,-1.81432c1.58533,-0.00881 2.10496,0.09982 3.74901,0.77211c1.19193,0.49028 1.94643,0.48734 2.92698,-0.00881c0.4022,-0.20257 0.93358,-0.55193 1.18312,-0.77798c0.72514,-0.65468 0.86899,-1.07744 0.95707,-2.81249c0.08807,-1.7556 0.32881,-2.84185 0.8778,-3.96038c0.77211,-1.56771 1.69102,-2.61579 3.18827,-3.62864c1.22422,-0.82789 1.63817,-1.42679 1.7556,-2.54533c0.08514,-0.81909 -0.1644,-1.70863 -0.6312,-2.26643c-0.16734,-0.1967 -0.6811,-0.61358 -1.14789,-0.92771c-2.22239,-1.50019 -3.5846,-3.64038 -3.94864,-6.20039c-0.82496,-5.82755 4.28625,-10.82426 10.10499,-9.88187M1448.94983,641.84048c-0.6723,0.21138 -1.28881,0.71046 -1.66459,1.34753c-0.27009,0.45798 -0.31707,0.6723 -0.31413,1.42092c0.00294,0.97468 0.23486,1.56478 0.8367,2.13726c1.40624,1.32991 3.7402,0.93358 4.6591,-0.78679c0.38752,-0.73101 0.35817,-2.05505 -0.06165,-2.77139c-0.71633,-1.21835 -2.11964,-1.76441 -3.45543,-1.34753M1448.94983,662.39102c-0.6723,0.21138 -1.28881,0.71046 -1.66459,1.34753c-0.27009,0.45798 -0.31707,0.6723 -0.31413,1.42092c0.00294,0.97468 0.23486,1.56478 0.8367,2.13726c1.40624,1.32991 3.7402,0.93358 4.6591,-0.78679c0.38752,-0.73101 0.35817,-2.05505 -0.06165,-2.77139c-0.71633,-1.21835 -2.11964,-1.76441 -3.45543,-1.34753M1431.33508,674.13419c-0.6723,0.21138 -1.28881,0.71046 -1.66459,1.34753c-0.27009,0.45798 -0.31707,0.6723 -0.31413,1.42092c0.00294,0.97468 0.23486,1.56478 0.8367,2.13726c1.40624,1.32991 3.7402,0.93358 4.6591,-0.78679c0.38752,-0.73101 0.35817,-2.05505 -0.06165,-2.77139c-0.71633,-1.21835 -2.11964,-1.76441 -3.45543,-1.34753M1466.56457,674.13419c-0.6723,0.21138 -1.28881,0.71046 -1.66459,1.34753c-0.27009,0.45798 -0.31707,0.6723 -0.31413,1.42092c0.00294,0.97468 0.23486,1.56478 0.8367,2.13726c1.40624,1.32991 3.7402,0.93358 4.6591,-0.78679c0.38752,-0.73101 0.35817,-2.05505 -0.06165,-2.77139c-0.71633,-1.21835 -2.11964,-1.76441 -3.45543,-1.34753" className="SFSymbolsPreviewWireframe"/></g>
  <g id="Ultralight-S"><path d="M557.95018,630.05035c-4.87928,0.5989 -9.21545,3.66974 -11.37325,8.05581c-2.53359,5.14938 -1.88771,11.24408 1.65872,15.61547c0.4022,0.49615 0.78092,0.96881 0.84257,1.05395c0.07927,0.10569 -0.02642,0.29945 -0.35523,0.65762c-1.53542,1.66753 -2.8712,4.27745 -3.3468,6.53214c-0.10275,0.49028 -0.17028,0.60771 -0.32587,0.56074c-0.40514,-0.1233 -2.21652,-0.30239 -3.03854,-0.30239c-1.04221,0 -2.84772,0.26422 -3.99268,0.58422c-3.58167,1.0011 -6.84333,3.59634 -8.77508,6.98425c-1.80845,3.17359 -2.31634,7.50682 -1.29175,11.04445c1.14202,3.95451 3.9369,7.35416 7.50975,9.13912c3.36735,1.68221 6.96663,2.04331 10.51013,1.05982c5.14351,-1.42973 9.10682,-5.47525 10.36628,-10.57766c0.19083,-0.77211 0.28184,-0.96294 0.42863,-0.92184c0.45211,0.13505 2.10203,0.30239 2.9446,0.30239c0.83964,0 2.49249,-0.16734 2.94166,-0.29945c0.14092,-0.0411 0.22899,0.13505 0.38752,0.7956c0.62826,2.61873 2.09615,5.15818 4.08956,7.08406c1.09799,1.06276 1.77615,1.57358 2.97396,2.24588c3.93396,2.20771 8.596,2.50717 12.77069,0.82202c4.06901,-1.64111 7.37764,-5.31965 8.54609,-9.50609c1.02166,-3.658 0.6723,-7.32186 -1.02166,-10.7127c-1.96404,-3.93102 -5.9303,-6.93727 -10.24004,-7.76223c-1.72625,-0.33174 -4.47415,-0.32 -5.72186,0.02055c-0.22018,0.06165 -0.26716,-0.01761 -0.44918,-0.79266c-0.25541,-1.07156 -0.90422,-2.73909 -1.45028,-3.72258c-0.45798,-0.82789 -1.60881,-2.41322 -2.00515,-2.76258c-0.13798,-0.1233 -0.25248,-0.27303 -0.25248,-0.33468c0,-0.06165 0.24367,-0.38459 0.54312,-0.71633c1.4679,-1.62936 2.58643,-3.86057 3.22643,-6.41764c0.24073,-0.97175 0.27596,-1.38863 0.27303,-3.22937c-0.00587,-1.99047 -0.02642,-2.19304 -0.37285,-3.47598c-0.77798,-2.88588 -1.88771,-4.82644 -3.88699,-6.79929c-1.74092,-1.72037 -3.38497,-2.76258 -5.61323,-3.56111c-1.73505,-0.62239 -4.51525,-0.90422 -6.49984,-0.66349M561.11203,635.92487c2.8301,0.46092 5.31378,2.3134 6.52333,4.86461c1.87303,3.95451 0.59303,8.69875 -2.99157,11.09142c-1.10973,0.74276 -1.49725,1.15083 -1.76147,1.85542c-0.27596,0.74276 -0.29651,1.31817 -0.06752,2.07267c0.23193,0.77505 0.65468,1.27707 1.62936,1.94056c2.68331,1.82313 4.05726,4.44772 4.07194,7.77104c0.00294,1.32991 0.22312,1.94937 0.92184,2.60405c1.28,1.1978 2.5835,1.45028 4.13947,0.80734c1.43267,-0.59303 2.26643,-0.76624 3.69029,-0.76624c2.62166,-0.00294 4.42424,0.74863 6.28846,2.61873c1.11266,1.11854 1.7556,2.19597 2.24001,3.76956c0.35229,1.13322 0.38459,3.28515 0.07046,4.4624c-1.09211,4.1013 -4.89103,6.90792 -9.00994,6.65544c-1.37982,-0.08514 -2.25762,-0.32 -3.43488,-0.9101c-1.7468,-0.8778 -3.05909,-2.19597 -3.91047,-3.92515c-0.6811,-1.38276 -0.87487,-2.16661 -0.95413,-3.87524c-0.10569,-2.19597 -0.47266,-2.78313 -2.32515,-3.72552c-0.96294,-0.49028 -1.79083,-0.48734 -3.02386,0.00587c-2.38093,0.95413 -4.62974,0.9512 -6.99599,-0.00294c-1.33872,-0.54312 -2.06973,-0.51083 -3.27341,0.13505c-1.13909,0.61358 -1.37689,0.83083 -1.74386,1.60588c-0.2378,0.50202 -0.29064,0.79854 -0.29064,1.59413c-0.00294,2.61873 -0.86019,4.7824 -2.57469,6.51452c-1.76147,1.77909 -3.72258,2.56882 -6.35012,2.55707c-1.34166,-0.00587 -1.56478,-0.0411 -2.58056,-0.38752c-2.49836,-0.85725 -4.02497,-2.19891 -5.17286,-4.53873c-1.84368,-3.75194 -0.85138,-8.0881 2.45139,-10.74206c1.56478,-1.25358 3.21176,-1.80551 5.41947,-1.81432c1.58533,-0.00881 2.10496,0.09982 3.74901,0.77211c1.19193,0.49028 1.94643,0.48734 2.92698,-0.00881c0.4022,-0.20257 0.93358,-0.55193 1.18312,-0.77798c0.72514,-0.65468 0.86899,-1.07744 0.95707,-2.81249c0.08807,-1.7556 0.32881,-2.84185 0.8778,-3.96038c0.77211,-1.56771 1.69102,-2.61579 3.18827,-3.62864c1.22422,-0.82789 1.63817,-1.42679 1.7556,-2.54533c0.08514,-0.81909 -0.1644,-1.70863 -0.6312,-2.26643c-0.16734,-0.1967 -0.6811,-0.61358 -1.14789,-0.92771c-2.22239,-1.50019 -3.5846,-3.64038 -3.94864,-6.20039c-0.82496,-5.82755 4.28625,-10.82426 10.10499,-9.88187M558.81624,641.84048c-0.6723,0.21138 -1.28881,0.71046 -1.66459,1.34753c-0.27009,0.45798 -0.31707,0.6723 -0.31413,1.42092c0.00294,0.97468 0.23486,1.56478 0.8367,2.13726c1.40624,1.32991 3.7402,0.93358 4.6591,-0.78679c0.38752,-0.73101 0.35817,-2.05505 -0.06165,-2.77139c-0.71633,-1.21835 -2.11964,-1.76441 -3.45543,-1.34753M558.81624,662.39102c-0.6723,0.21138 -1.28881,0.71046 -1.66459,1.34753c-0.27009,0.45798 -0.31707,0.6723 -0.31413,1.42092c0.00294,0.97468 0.23486,1.56478 0.8367,2.13726c1.40624,1.32991 3.7402,0.93358 4.6591,-0.78679c0.38752,-0.73101 0.35817,-2.05505 -0.06165,-2.77139c-0.71633,-1.21835 -2.11964,-1.76441 -3.45543,-1.34753M541.20149,674.13419c-0.6723,0.21138 -1.28881,0.71046 -1.66459,1.34753c-0.27009,0.45798 -0.31707,0.6723 -0.31413,1.42092c0.00294,0.97468 0.23486,1.56478 0.8367,2.13726c1.40624,1.32991 3.7402,0.93358 4.6591,-0.78679c0.38752,-0.73101 0.35817,-2.05505 -0.06165,-2.77139c-0.71633,-1.21835 -2.11964,-1.76441 -3.45543,-1.34753M576.43098,674.13419c-0.6723,0.21138 -1.28881,0.71046 -1.66459,1.34753c-0.27009,0.45798 -0.31707,0.6723 -0.31413,1.42092c0.00294,0.97468 0.23486,1.56478 0.8367,2.13726c1.40624,1.32991 3.7402,0.93358 4.6591,-0.78679c0.38752,-0.73101 0.35817,-2.05505 -0.06165,-2.77139c-0.71633,-1.21835 -2.11964,-1.76441 -3.45543,-1.34753" className="SFSymbolsPreviewWireframe"/></g>
 </g>
</svg>