<?xml version="1.0" encoding="UTF-8"?><!--Generator: https://SymbolKit.app--><!DOCTYPE svg PUBLIC "-//W3C//DTD SVG 1.1//EN" "http://www.w3.org/Graphics/SVG/1.1/DTD/svg11.dtd"><svg xmlns="http://www.w3.org/2000/svg" xmlns:xlink="http://www.w3.org/1999/xlink" version="1.1" viewBox="0 0 3300 2200">
 <!--glyph: "100092", point size: 100.0, font version: "20.0d10e1", template writer version: "138.0.0"-->
 <style>.SFSymbolsPreviewWireframe {fill:none;opacity:1.0;stroke:black;stroke-width:0.5}
</style>
 <g id="Notes">
  <rect height="2200" id="artboard" style="fill:white;opacity:1" width="3300" x="0" y="0"/>
  <line style="fill:none;stroke:black;opacity:1;stroke-width:0.5;" x1="263" x2="3036" y1="292" y2="292"/>
  <text style="stroke:none;fill:black;font-family:sans-serif;font-size:13;font-weight:bold;" transform="matrix(1 0 0 1 263 322)">Weight/Scale Variations</text>
  <text style="stroke:none;fill:black;font-family:sans-serif;font-size:13;text-anchor:middle;" transform="matrix(1 0 0 1 559.711 322)">Ultralight</text>
  <text style="stroke:none;fill:black;font-family:sans-serif;font-size:13;text-anchor:middle;" transform="matrix(1 0 0 1 856.422 322)">Thin</text>
  <text style="stroke:none;fill:black;font-family:sans-serif;font-size:13;text-anchor:middle;" transform="matrix(1 0 0 1 1153.13 322)">Light</text>
  <text style="stroke:none;fill:black;font-family:sans-serif;font-size:13;text-anchor:middle;" transform="matrix(1 0 0 1 1449.84 322)">Regular</text>
  <text style="stroke:none;fill:black;font-family:sans-serif;font-size:13;text-anchor:middle;" transform="matrix(1 0 0 1 1746.56 322)">Medium</text>
  <text style="stroke:none;fill:black;font-family:sans-serif;font-size:13;text-anchor:middle;" transform="matrix(1 0 0 1 2043.27 322)">Semibold</text>
  <text style="stroke:none;fill:black;font-family:sans-serif;font-size:13;text-anchor:middle;" transform="matrix(1 0 0 1 2339.98 322)">Bold</text>
  <text style="stroke:none;fill:black;font-family:sans-serif;font-size:13;text-anchor:middle;" transform="matrix(1 0 0 1 2636.69 322)">Heavy</text>
  <text style="stroke:none;fill:black;font-family:sans-serif;font-size:13;text-anchor:middle;" transform="matrix(1 0 0 1 2933.4 322)">Black</text>
  <line style="fill:none;stroke:black;opacity:1;stroke-width:0.5;" x1="263" x2="3036" y1="1903" y2="1903"/>
  <g transform="matrix(0.2 0 0 0.2 263 1933)">
   <path d="m46.2402 4.15039c21.7773 0 39.4531-17.627 39.4531-39.4043s-17.6758-39.4043-39.4531-39.4043c-21.7285 0-39.4043 17.627-39.4043 39.4043s17.6758 39.4043 39.4043 39.4043Zm0-7.42188c-17.6758 0-31.9336-14.3066-31.9336-31.9824s14.2578-31.9824 31.9336-31.9824 31.9824 14.3066 31.9824 31.9824-14.3066 31.9824-31.9824 31.9824Zm-17.9688-31.9824c0 2.14844 1.51367 3.61328 3.75977 3.61328h10.498v10.5957c0 2.19727 1.46484 3.71094 3.61328 3.71094 2.24609 0 3.71094-1.51367 3.71094-3.71094v-10.5957h10.5957c2.19727 0 3.71094-1.46484 3.71094-3.61328 0-2.19727-1.51367-3.71094-3.71094-3.71094h-10.5957v-10.5469c0-2.24609-1.46484-3.75977-3.71094-3.75977-2.14844 0-3.61328 1.51367-3.61328 3.75977v10.5469h-10.498c-2.24609 0-3.75977 1.51367-3.75977 3.71094Z"/>
  </g>
  <g transform="matrix(0.2 0 0 0.2 281.506 1933)">
   <path d="m58.5449 14.5508c27.4902 0 49.8047-22.3145 49.8047-49.8047s-22.3145-49.8047-49.8047-49.8047-49.8047 22.3145-49.8047 49.8047 22.3145 49.8047 49.8047 49.8047Zm0-8.30078c-22.9492 0-41.5039-18.5547-41.5039-41.5039s18.5547-41.5039 41.5039-41.5039 41.5039 18.5547 41.5039 41.5039-18.5547 41.5039-41.5039 41.5039Zm-22.6562-41.5039c0 2.39258 1.66016 4.00391 4.15039 4.00391h14.3555v14.4043c0 2.44141 1.66016 4.15039 4.05273 4.15039 2.44141 0 4.15039-1.66016 4.15039-4.15039v-14.4043h14.4043c2.44141 0 4.15039-1.61133 4.15039-4.00391 0-2.44141-1.70898-4.15039-4.15039-4.15039h-14.4043v-14.3555c0-2.49023-1.70898-4.19922-4.15039-4.19922-2.39258 0-4.05273 1.70898-4.05273 4.19922v14.3555h-14.3555c-2.49023 0-4.15039 1.70898-4.15039 4.15039Z"/>
  </g>
  <g transform="matrix(0.2 0 0 0.2 304.924 1933)">
   <path d="m74.8535 28.3203c35.1074 0 63.623-28.4668 63.623-63.5742s-28.5156-63.623-63.623-63.623-63.5742 28.5156-63.5742 63.623 28.4668 63.5742 63.5742 63.5742Zm0-9.08203c-30.127 0-54.4922-24.3652-54.4922-54.4922s24.3652-54.4922 54.4922-54.4922 54.4922 24.3652 54.4922 54.4922-24.3652 54.4922-54.4922 54.4922Zm-28.8574-54.4922c0 2.58789 1.85547 4.39453 4.58984 4.39453h19.7266v19.7754c0 2.68555 1.85547 4.58984 4.44336 4.58984 2.68555 0 4.54102-1.85547 4.54102-4.58984v-19.7754h19.7754c2.68555 0 4.58984-1.80664 4.58984-4.39453 0-2.73438-1.85547-4.58984-4.58984-4.58984h-19.7754v-19.7266c0-2.73438-1.85547-4.63867-4.54102-4.63867-2.58789 0-4.44336 1.9043-4.44336 4.63867v19.7266h-19.7266c-2.73438 0-4.58984 1.85547-4.58984 4.58984Z"/>
  </g>
  <text style="stroke:none;fill:black;font-family:sans-serif;font-size:13;font-weight:bold;" transform="matrix(1 0 0 1 263 1953)">Design Variations</text>
  <text style="stroke:none;fill:black;font-family:sans-serif;font-size:13;" transform="matrix(1 0 0 1 263 1971)">Symbols are supported in up to nine weights and three scales.</text>
  <text style="stroke:none;fill:black;font-family:sans-serif;font-size:13;" transform="matrix(1 0 0 1 263 1989)">For optimal layout with text and other symbols, vertically align</text>
  <text style="stroke:none;fill:black;font-family:sans-serif;font-size:13;" transform="matrix(1 0 0 1 263 2007)">symbols with the adjacent text.</text>
  <line style="fill:none;stroke:#00AEEF;stroke-width:0.5;opacity:1.0;" x1="776" x2="776" y1="1919" y2="1933"/>
  <g transform="matrix(0.2 0 0 0.2 776 1933)">
   <path d="m16.5527 0.78125c2.58789 0 3.85742-0.976562 4.78516-3.71094l6.29883-17.2363h28.8086l6.29883 17.2363c0.927734 2.73438 2.19727 3.71094 4.73633 3.71094 2.58789 0 4.24805-1.5625 4.24805-4.00391 0-0.830078-0.146484-1.61133-0.537109-2.63672l-22.9004-60.9863c-1.12305-2.97852-3.125-4.49219-6.25-4.49219-3.02734 0-5.07812 1.46484-6.15234 4.44336l-22.9004 61.084c-0.390625 1.02539-0.537109 1.80664-0.537109 2.63672 0 2.44141 1.5625 3.95508 4.10156 3.95508Zm13.4766-28.3691 11.8652-32.8613h0.244141l11.8652 32.8613Z"/>
  </g>
  <line style="fill:none;stroke:#00AEEF;stroke-width:0.5;opacity:1.0;" x1="792.836" x2="792.836" y1="1919" y2="1933"/>
  <text style="stroke:none;fill:black;font-family:sans-serif;font-size:13;font-weight:bold;" transform="matrix(1 0 0 1 776 1953)">Margins</text>
  <text style="stroke:none;fill:black;font-family:sans-serif;font-size:13;" transform="matrix(1 0 0 1 776 1971)">Leading and trailing margins on the left and right side of each symbol</text>
  <text style="stroke:none;fill:black;font-family:sans-serif;font-size:13;" transform="matrix(1 0 0 1 776 1989)">can be adjusted by modifying the x-location of the margin guidelines.</text>
  <text style="stroke:none;fill:black;font-family:sans-serif;font-size:13;" transform="matrix(1 0 0 1 776 2007)">Modifications are automatically applied proportionally to all</text>
  <text style="stroke:none;fill:black;font-family:sans-serif;font-size:13;" transform="matrix(1 0 0 1 776 2025)">scales and weights.</text>
  <g transform="matrix(0.2 0 0 0.2 1289 1933)">
   <path d="m14.209 9.32617 8.49609 8.54492c4.29688 4.3457 9.22852 4.05273 13.8672-1.07422l53.4668-58.9355-4.83398-4.88281-53.0762 58.3984c-1.75781 2.00195-3.41797 2.49023-5.76172 0.146484l-5.85938-5.81055c-2.34375-2.29492-1.80664-4.00391 0.195312-5.81055l57.373-54.0039-4.88281-4.83398-57.959 54.4434c-4.93164 4.58984-5.32227 9.47266-1.02539 13.8184Zm32.0801-90.9668c-2.09961 2.05078-2.24609 4.93164-1.07422 6.88477 1.17188 1.80664 3.4668 2.97852 6.68945 2.14844 7.32422-1.70898 14.9414-2.00195 22.0703 2.68555l-2.92969 7.27539c-1.70898 4.15039-0.830078 7.08008 1.85547 9.81445l11.4746 11.5723c2.44141 2.44141 4.49219 2.53906 7.32422 2.05078l5.32227-0.976562 3.32031 3.36914-0.195312 2.7832c-0.195312 2.49023 0.439453 4.39453 2.88086 6.78711l3.80859 3.71094c2.39258 2.39258 5.46875 2.53906 7.8125 0.195312l14.5508-14.5996c2.34375-2.34375 2.24609-5.32227-0.146484-7.71484l-3.85742-3.80859c-2.39258-2.39258-4.24805-3.17383-6.64062-2.97852l-2.88086 0.244141-3.22266-3.17383 1.2207-5.61523c0.634766-2.83203-0.146484-5.0293-3.07617-7.95898l-10.9863-10.9375c-16.6992-16.6016-38.8672-16.2109-53.3203-1.75781Zm7.4707 1.85547c12.1582-8.88672 28.6133-7.37305 39.7461 3.75977l12.1582 12.0605c1.17188 1.17188 1.36719 2.09961 1.02539 3.80859l-1.61133 7.42188 7.51953 7.42188 4.93164-0.292969c1.26953-0.0488281 1.66016 0.0488281 2.63672 1.02539l2.88086 2.88086-12.207 12.207-2.88086-2.88086c-0.976562-0.976562-1.12305-1.36719-1.07422-2.68555l0.341797-4.88281-7.4707-7.42188-7.61719 1.26953c-1.61133 0.341797-2.34375 0.195312-3.56445-0.976562l-10.0098-10.0098c-1.26953-1.17188-1.41602-2.00195-0.634766-3.85742l4.39453-10.4492c-7.8125-7.27539-17.9688-10.4004-28.125-7.42188-0.78125 0.195312-1.07422-0.439453-0.439453-0.976562Z"/>
  </g>
  <text style="stroke:none;fill:black;font-family:sans-serif;font-size:13;font-weight:bold;" transform="matrix(1 0 0 1 1289 1953)">Exporting</text>
  <text style="stroke:none;fill:black;font-family:sans-serif;font-size:13;" transform="matrix(1 0 0 1 1289 1971)">Symbols should be outlined when exporting to ensure the</text>
  <text style="stroke:none;fill:black;font-family:sans-serif;font-size:13;" transform="matrix(1 0 0 1 1289 1989)">design is preserved when submitting to Xcode.</text>
  <text id="template-version" style="stroke:none;fill:black;font-family:sans-serif;font-size:13;text-anchor:end;" transform="matrix(1 0 0 1 3036 1933)">Template v.6.0</text>
  <text style="stroke:none;fill:black;font-family:sans-serif;font-size:13;text-anchor:end;" transform="matrix(1 0 0 1 3036 1951)">Requires Xcode 16 or greater</text>
  <text id="descriptive-name" style="stroke:none;fill:black;font-family:sans-serif;font-size:13;text-anchor:end;" transform="matrix(1 0 0 1 3036 1969)">Generated from square</text>
  <text style="stroke:none;fill:black;font-family:sans-serif;font-size:13;text-anchor:end;" transform="matrix(1 0 0 1 3036 1987)">Typeset at 100.0 points</text>
  <text style="stroke:none;fill:black;font-family:sans-serif;font-size:13;" transform="matrix(1 0 0 1 263 726)">Small</text>
  <text style="stroke:none;fill:black;font-family:sans-serif;font-size:13;" transform="matrix(1 0 0 1 263 1156)">Medium</text>
  <text style="stroke:none;fill:black;font-family:sans-serif;font-size:13;" transform="matrix(1 0 0 1 263 1586)">Large</text>
 </g>
 <g id="Guides">
  <g id="H-reference" style="fill:#27AAE1;stroke:none;" transform="matrix(1 0 0 1 339 696)">
   <path d="M0.993654 0L3.63775 0L29.3281-67.1323L30.0303-67.1323L30.0303-70.459L28.1226-70.459ZM11.6885-24.4799L46.9815-24.4799L46.2315-26.7285L12.4385-26.7285ZM55.1196 0L57.7637 0L30.6382-70.459L29.4326-70.459L29.4326-67.1323Z"/>
  </g>
  <line id="Baseline-S" style="fill:none;stroke:#27AAE1;opacity:1;stroke-width:0.5;" x1="263" x2="3036" y1="696" y2="696"/>
  <line id="Capline-S" style="fill:none;stroke:#27AAE1;opacity:1;stroke-width:0.5;" x1="263" x2="3036" y1="625.541" y2="625.541"/>
  <g id="H-reference" style="fill:#27AAE1;stroke:none;" transform="matrix(1 0 0 1 339 1126)">
   <path d="M0.993654 0L3.63775 0L29.3281-67.1323L30.0303-67.1323L30.0303-70.459L28.1226-70.459ZM11.6885-24.4799L46.9815-24.4799L46.2315-26.7285L12.4385-26.7285ZM55.1196 0L57.7637 0L30.6382-70.459L29.4326-70.459L29.4326-67.1323Z"/>
  </g>
  <line id="Baseline-M" style="fill:none;stroke:#27AAE1;opacity:1;stroke-width:0.5;" x1="263" x2="3036" y1="1126" y2="1126"/>
  <line id="Capline-M" style="fill:none;stroke:#27AAE1;opacity:1;stroke-width:0.5;" x1="263" x2="3036" y1="1055.54" y2="1055.54"/>
  <g id="H-reference" style="fill:#27AAE1;stroke:none;" transform="matrix(1 0 0 1 339 1556)">
   <path d="M0.993654 0L3.63775 0L29.3281-67.1323L30.0303-67.1323L30.0303-70.459L28.1226-70.459ZM11.6885-24.4799L46.9815-24.4799L46.2315-26.7285L12.4385-26.7285ZM55.1196 0L57.7637 0L30.6382-70.459L29.4326-70.459L29.4326-67.1323Z"/>
  </g>
  <line id="Baseline-L" style="fill:none;stroke:#27AAE1;opacity:1;stroke-width:0.5;" x1="263" x2="3036" y1="1556" y2="1556"/>
  <line id="Capline-L" style="fill:none;stroke:#27AAE1;opacity:1;stroke-width:0.5;" x1="263" x2="3036" y1="1485.54" y2="1485.54"/>
  <line id="right-margin-Black-S" style="fill:none;stroke:#00AEEF;stroke-width:0.5;opacity:1.0;" x1="2981.3" x2="2981.3" y1="600.785" y2="720.121"/>
  <line id="left-margin-Black-S" style="fill:none;stroke:#00AEEF;stroke-width:0.5;opacity:1.0;" x1="2885.5" x2="2885.5" y1="600.785" y2="720.121"/>
  <line id="right-margin-Regular-S" style="fill:none;stroke:#00AEEF;stroke-width:0.5;opacity:1.0;" x1="1495.18" x2="1495.18" y1="600.785" y2="720.121"/>
  <line id="left-margin-Regular-S" style="fill:none;stroke:#00AEEF;stroke-width:0.5;opacity:1.0;" x1="1404.51" x2="1404.51" y1="600.785" y2="720.121"/>
  <line id="right-margin-Ultralight-S" style="fill:none;stroke:#00AEEF;stroke-width:0.5;opacity:1.0;" x1="603.073" x2="603.073" y1="600.785" y2="720.121"/>
  <line id="left-margin-Ultralight-S" style="fill:none;stroke:#00AEEF;stroke-width:0.5;opacity:1.0;" x1="516.35" x2="516.35" y1="600.785" y2="720.121"/>
 </g>
 <g id="Symbols">
  <g id="Black-S"><path d="M2905.98439,631.58027c-0.65175,0.2378 -1.23303,0.72808 -1.5912,1.33578c-0.27009,0.45798 -0.31707,0.6723 -0.31413,1.42092c0,0.62239 0.06459,1.0011 0.21725,1.29175c0.11743,0.22606 2.5101,2.71267 5.31672,5.52516l5.09947,5.11415l-0.94239,5.65727c-0.51964,3.109 -0.94532,5.98608 -0.94532,6.39122c0.00294,1.61175 0.45798,3.83121 1.13909,5.55452c1.15377,2.9123 3.28221,5.59562 5.96553,7.5215c1.30936,0.94239 3.93983,2.26056 5.58387,2.80074c1.14496,0.37578 3.69029,0.96 4.51525,1.03633l0.35229,0.03229l0.02936,4.49176l0.03229,4.49176h-4.56222c-4.95855,0 -5.25213,0.03229 -6.06241,0.64881c-0.23486,0.17908 -0.57248,0.56954 -0.74569,0.86606c-0.26716,0.45798 -0.31707,0.67523 -0.31707,1.42092c0,0.75156 0.04697,0.96294 0.32587,1.4356c0.36697,0.62532 0.93358,1.10092 1.58239,1.33285c0.65175,0.23193 24.7722,0.23193 25.42395,0c0.64881,-0.23193 1.21542,-0.70753 1.58239,-1.33285c0.2789,-0.47266 0.32587,-0.68404 0.32587,-1.4356c0,-0.74569 -0.04991,-0.96294 -0.31707,-1.42092c-0.17321,-0.29651 -0.51083,-0.68698 -0.74569,-0.86606c-0.81028,-0.61652 -1.10386,-0.64881 -6.05947,-0.64881h-4.56222v-4.45947v-4.45947l0.26422,-0.05284c0.14385,-0.02936 0.89835,-0.16734 1.6734,-0.30532c0.77505,-0.13798 2.00221,-0.44624 2.72735,-0.68698l1.31817,-0.4345l7.78278,7.79159c4.35671,4.35965 8.01471,7.92664 8.31122,8.10572c0.44918,0.26716 0.66349,0.31413 1.40918,0.31413c0.7545,0 0.96,-0.04697 1.44441,-0.33174c1.39744,-0.82202 1.89946,-2.64221 1.09505,-3.98974c-0.16147,-0.27009 -12.33032,-12.52115 -27.04451,-27.22359c-24.72523,-24.70468 -26.7979,-26.74506 -27.33221,-26.9212c-0.69285,-0.22899 -1.37689,-0.23193 -1.97579,-0.01174M2930.38081,631.53036c-2.60992,0.21431 -5.3314,0.73982 -7.51562,1.45615c-1.53248,0.50202 -3.29396,1.43267 -3.80185,2.00808c-1.40331,1.59413 -0.66936,4.1013 1.37689,4.7002c0.85432,0.25248 1.40918,0.14679 2.8712,-0.54312c1.41505,-0.66642 3.25286,-1.18606 5.48406,-1.54423c1.30349,-0.20844 2.09615,-0.25541 4.4624,-0.26129c2.98276,-0.00587 4.35378,0.10862 6.34131,0.53431c2.12258,0.45505 4.20699,1.28588 5.10828,2.0345l0.35229,0.29358l-0.35229,0.29358c-0.96588,0.80441 -3.12368,1.6323 -5.50167,2.11083c-2.12845,0.42863 -4.23341,0.57542 -7.00773,0.49321c-2.3457,-0.07046 -2.4279,-0.06459 -2.99451,0.19963c-0.63707,0.29651 -1.28294,0.9512 -1.53835,1.55891c-0.20844,0.49615 -0.20844,1.69982 0,2.19597c0.23193,0.55193 0.85725,1.22716 1.3945,1.50019c0.59597,0.30532 1.99634,0.44918 4.31561,0.45211c4.35671,0.00294 8.41691,-0.69578 11.55821,-1.98166c0.64294,-0.26422 1.17725,-0.46679 1.19193,-0.45211c0.01174,0.01761 0.45211,2.60698 0.97762,5.75709c0.93065,5.59268 0.9512,5.75121 0.83376,6.767c-0.14679,1.31523 -0.47266,2.37505 -1.13909,3.6991c-0.84257,1.67927 -0.81321,2.84185 0.09395,3.87524c0.89248,1.00991 2.24294,1.29762 3.4613,0.73101c0.74569,-0.34936 1.18019,-0.87193 1.84955,-2.2312c1.02166,-2.08148 1.56771,-4.1424 1.68221,-6.35599c0.05872,-1.10386 -0.02642,-1.7145 -1.41212,-10.04041c-0.81028,-4.87635 -1.52661,-9.18315 -1.59413,-9.57068c-0.20257,-1.18019 -0.73982,-2.1079 -1.87303,-3.22937c-1.57946,-1.56184 -3.63157,-2.63047 -6.6525,-3.4613c-3.3791,-0.93065 -8.01765,-1.3123 -11.97216,-0.98936M2937.48543,669.11142c0,0.13505 -1.7967,0.35817 -3.41432,0.42275c-7.21324,0.29064 -13.42244,-3.30864 -14.94024,-8.65765c-0.10275,-0.35523 -0.24661,-1.09505 -0.32,-1.64404c-0.13211,-0.96294 -0.11743,-1.12147 0.42863,-4.43598l0.56661,-3.43781l8.83967,8.83967c4.86167,4.86167 8.83967,8.87196 8.83967,8.91306" className="SFSymbolsPreviewWireframe"/></g>
  <g id="Regular-S"><path d="M1422.42934,631.58027c-0.65175,0.2378 -1.23303,0.72808 -1.5912,1.33578c-0.27009,0.45798 -0.31707,0.6723 -0.31413,1.42092c0,0.62239 0.06459,1.0011 0.21725,1.29175c0.11743,0.22606 2.5101,2.71267 5.31672,5.52516l5.09947,5.11415l-0.94239,5.65727c-0.51964,3.109 -0.94532,5.98608 -0.94532,6.39122c0.00294,1.61175 0.45798,3.83121 1.13909,5.55452c1.15377,2.9123 3.28221,5.59562 5.96553,7.5215c1.30936,0.94239 3.93983,2.26056 5.58387,2.80074c1.14496,0.37578 3.69029,0.96 4.51525,1.03633l0.35229,0.03229l0.02936,4.49176l0.03229,4.49176h-4.56222c-4.95855,0 -5.25213,0.03229 -6.06241,0.64881c-0.23486,0.17908 -0.57248,0.56954 -0.74569,0.86606c-0.26716,0.45798 -0.31707,0.67523 -0.31707,1.42092c0,0.75156 0.04697,0.96294 0.32587,1.4356c0.36697,0.62532 0.93358,1.10092 1.58239,1.33285c0.65175,0.23193 24.7722,0.23193 25.42395,0c0.64881,-0.23193 1.21542,-0.70753 1.58239,-1.33285c0.2789,-0.47266 0.32587,-0.68404 0.32587,-1.4356c0,-0.74569 -0.04991,-0.96294 -0.31707,-1.42092c-0.17321,-0.29651 -0.51083,-0.68698 -0.74569,-0.86606c-0.81028,-0.61652 -1.10386,-0.64881 -6.05947,-0.64881h-4.56222v-4.45947v-4.45947l0.26422,-0.05284c0.14385,-0.02936 0.89835,-0.16734 1.6734,-0.30532c0.77505,-0.13798 2.00221,-0.44624 2.72735,-0.68698l1.31817,-0.4345l7.78278,7.79159c4.35671,4.35965 8.01471,7.92664 8.31122,8.10572c0.44918,0.26716 0.66349,0.31413 1.40918,0.31413c0.7545,0 0.96,-0.04697 1.44441,-0.33174c1.39744,-0.82202 1.89946,-2.64221 1.09505,-3.98974c-0.16147,-0.27009 -12.33032,-12.52115 -27.04451,-27.22359c-24.72523,-24.70468 -26.7979,-26.74506 -27.33221,-26.9212c-0.69285,-0.22899 -1.37689,-0.23193 -1.97579,-0.01174M1446.82576,631.53036c-2.60992,0.21431 -5.3314,0.73982 -7.51562,1.45615c-1.53248,0.50202 -3.29396,1.43267 -3.80185,2.00808c-1.40331,1.59413 -0.66936,4.1013 1.37689,4.7002c0.85432,0.25248 1.40918,0.14679 2.8712,-0.54312c1.41505,-0.66642 3.25286,-1.18606 5.48406,-1.54423c1.30349,-0.20844 2.09615,-0.25541 4.4624,-0.26129c2.98276,-0.00587 4.35378,0.10862 6.34131,0.53431c2.12258,0.45505 4.20699,1.28588 5.10828,2.0345l0.35229,0.29358l-0.35229,0.29358c-0.96588,0.80441 -3.12368,1.6323 -5.50167,2.11083c-2.12845,0.42863 -4.23341,0.57542 -7.00773,0.49321c-2.3457,-0.07046 -2.4279,-0.06459 -2.99451,0.19963c-0.63707,0.29651 -1.28294,0.9512 -1.53835,1.55891c-0.20844,0.49615 -0.20844,1.69982 0,2.19597c0.23193,0.55193 0.85725,1.22716 1.3945,1.50019c0.59597,0.30532 1.99634,0.44918 4.31561,0.45211c4.35671,0.00294 8.41691,-0.69578 11.55821,-1.98166c0.64294,-0.26422 1.17725,-0.46679 1.19193,-0.45211c0.01174,0.01761 0.45211,2.60698 0.97762,5.75709c0.93065,5.59268 0.9512,5.75121 0.83376,6.767c-0.14679,1.31523 -0.47266,2.37505 -1.13909,3.6991c-0.84257,1.67927 -0.81321,2.84185 0.09395,3.87524c0.89248,1.00991 2.24294,1.29762 3.4613,0.73101c0.74569,-0.34936 1.18019,-0.87193 1.84955,-2.2312c1.02166,-2.08148 1.56771,-4.1424 1.68221,-6.35599c0.05872,-1.10386 -0.02642,-1.7145 -1.41212,-10.04041c-0.81028,-4.87635 -1.52661,-9.18315 -1.59413,-9.57068c-0.20257,-1.18019 -0.73982,-2.1079 -1.87303,-3.22937c-1.57946,-1.56184 -3.63157,-2.63047 -6.6525,-3.4613c-3.3791,-0.93065 -8.01765,-1.3123 -11.97216,-0.98936M1453.93038,669.11142c0,0.13505 -1.7967,0.35817 -3.41432,0.42275c-7.21324,0.29064 -13.42244,-3.30864 -14.94024,-8.65765c-0.10275,-0.35523 -0.24661,-1.09505 -0.32,-1.64404c-0.13211,-0.96294 -0.11743,-1.12147 0.42863,-4.43598l0.56661,-3.43781l8.83967,8.83967c4.86167,4.86167 8.83967,8.87196 8.83967,8.91306" className="SFSymbolsPreviewWireframe"/></g>
  <g id="Ultralight-S"><path d="M532.29575,631.58027c-0.65175,0.2378 -1.23303,0.72808 -1.5912,1.33578c-0.27009,0.45798 -0.31707,0.6723 -0.31413,1.42092c0,0.62239 0.06459,1.0011 0.21725,1.29175c0.11743,0.22606 2.5101,2.71267 5.31672,5.52516l5.09947,5.11415l-0.94239,5.65727c-0.51964,3.109 -0.94532,5.98608 -0.94532,6.39122c0.00294,1.61175 0.45798,3.83121 1.13909,5.55452c1.15377,2.9123 3.28221,5.59562 5.96553,7.5215c1.30936,0.94239 3.93983,2.26056 5.58387,2.80074c1.14496,0.37578 3.69029,0.96 4.51525,1.03633l0.35229,0.03229l0.02936,4.49176l0.03229,4.49176h-4.56222c-4.95855,0 -5.25213,0.03229 -6.06241,0.64881c-0.23486,0.17908 -0.57248,0.56954 -0.74569,0.86606c-0.26716,0.45798 -0.31707,0.67523 -0.31707,1.42092c0,0.75156 0.04697,0.96294 0.32587,1.4356c0.36697,0.62532 0.93358,1.10092 1.58239,1.33285c0.65175,0.23193 24.7722,0.23193 25.42395,0c0.64881,-0.23193 1.21542,-0.70753 1.58239,-1.33285c0.2789,-0.47266 0.32587,-0.68404 0.32587,-1.4356c0,-0.74569 -0.04991,-0.96294 -0.31707,-1.42092c-0.17321,-0.29651 -0.51083,-0.68698 -0.74569,-0.86606c-0.81028,-0.61652 -1.10386,-0.64881 -6.05947,-0.64881h-4.56222v-4.45947v-4.45947l0.26422,-0.05284c0.14385,-0.02936 0.89835,-0.16734 1.6734,-0.30532c0.77505,-0.13798 2.00221,-0.44624 2.72735,-0.68698l1.31817,-0.4345l7.78278,7.79159c4.35671,4.35965 8.01471,7.92664 8.31122,8.10572c0.44918,0.26716 0.66349,0.31413 1.40918,0.31413c0.7545,0 0.96,-0.04697 1.44441,-0.33174c1.39744,-0.82202 1.89946,-2.64221 1.09505,-3.98974c-0.16147,-0.27009 -12.33032,-12.52115 -27.04451,-27.22359c-24.72523,-24.70468 -26.7979,-26.74506 -27.33221,-26.9212c-0.69285,-0.22899 -1.37689,-0.23193 -1.97579,-0.01174M556.69217,631.53036c-2.60992,0.21431 -5.3314,0.73982 -7.51562,1.45615c-1.53248,0.50202 -3.29396,1.43267 -3.80185,2.00808c-1.40331,1.59413 -0.66936,4.1013 1.37689,4.7002c0.85432,0.25248 1.40918,0.14679 2.8712,-0.54312c1.41505,-0.66642 3.25286,-1.18606 5.48406,-1.54423c1.30349,-0.20844 2.09615,-0.25541 4.4624,-0.26129c2.98276,-0.00587 4.35378,0.10862 6.34131,0.53431c2.12258,0.45505 4.20699,1.28588 5.10828,2.0345l0.35229,0.29358l-0.35229,0.29358c-0.96588,0.80441 -3.12368,1.6323 -5.50167,2.11083c-2.12845,0.42863 -4.23341,0.57542 -7.00773,0.49321c-2.3457,-0.07046 -2.4279,-0.06459 -2.99451,0.19963c-0.63707,0.29651 -1.28294,0.9512 -1.53835,1.55891c-0.20844,0.49615 -0.20844,1.69982 0,2.19597c0.23193,0.55193 0.85725,1.22716 1.3945,1.50019c0.59597,0.30532 1.99634,0.44918 4.31561,0.45211c4.35671,0.00294 8.41691,-0.69578 11.55821,-1.98166c0.64294,-0.26422 1.17725,-0.46679 1.19193,-0.45211c0.01174,0.01761 0.45211,2.60698 0.97762,5.75709c0.93065,5.59268 0.9512,5.75121 0.83376,6.767c-0.14679,1.31523 -0.47266,2.37505 -1.13909,3.6991c-0.84257,1.67927 -0.81321,2.84185 0.09395,3.87524c0.89248,1.00991 2.24294,1.29762 3.4613,0.73101c0.74569,-0.34936 1.18019,-0.87193 1.84955,-2.2312c1.02166,-2.08148 1.56771,-4.1424 1.68221,-6.35599c0.05872,-1.10386 -0.02642,-1.7145 -1.41212,-10.04041c-0.81028,-4.87635 -1.52661,-9.18315 -1.59413,-9.57068c-0.20257,-1.18019 -0.73982,-2.1079 -1.87303,-3.22937c-1.57946,-1.56184 -3.63157,-2.63047 -6.6525,-3.4613c-3.3791,-0.93065 -8.01765,-1.3123 -11.97216,-0.98936M563.79679,669.11142c0,0.13505 -1.7967,0.35817 -3.41432,0.42275c-7.21324,0.29064 -13.42244,-3.30864 -14.94024,-8.65765c-0.10275,-0.35523 -0.24661,-1.09505 -0.32,-1.64404c-0.13211,-0.96294 -0.11743,-1.12147 0.42863,-4.43598l0.56661,-3.43781l8.83967,8.83967c4.86167,4.86167 8.83967,8.87196 8.83967,8.91306" className="SFSymbolsPreviewWireframe"/></g>
 </g>
</svg>