<?xml version="1.0" encoding="UTF-8"?><!--Generator: https://SymbolKit.app--><!DOCTYPE svg PUBLIC "-//W3C//DTD SVG 1.1//EN" "http://www.w3.org/Graphics/SVG/1.1/DTD/svg11.dtd"><svg xmlns="http://www.w3.org/2000/svg" xmlns:xlink="http://www.w3.org/1999/xlink" version="1.1" viewBox="0 0 3300 2200">
 <!--glyph: "100092", point size: 100.0, font version: "20.0d10e1", template writer version: "138.0.0"-->
 <style>.SFSymbolsPreviewWireframe {fill:none;opacity:1.0;stroke:black;stroke-width:0.5}
</style>
 <g id="Notes">
  <rect height="2200" id="artboard" style="fill:white;opacity:1" width="3300" x="0" y="0"/>
  <line style="fill:none;stroke:black;opacity:1;stroke-width:0.5;" x1="263" x2="3036" y1="292" y2="292"/>
  <text style="stroke:none;fill:black;font-family:sans-serif;font-size:13;font-weight:bold;" transform="matrix(1 0 0 1 263 322)">Weight/Scale Variations</text>
  <text style="stroke:none;fill:black;font-family:sans-serif;font-size:13;text-anchor:middle;" transform="matrix(1 0 0 1 559.711 322)">Ultralight</text>
  <text style="stroke:none;fill:black;font-family:sans-serif;font-size:13;text-anchor:middle;" transform="matrix(1 0 0 1 856.422 322)">Thin</text>
  <text style="stroke:none;fill:black;font-family:sans-serif;font-size:13;text-anchor:middle;" transform="matrix(1 0 0 1 1153.13 322)">Light</text>
  <text style="stroke:none;fill:black;font-family:sans-serif;font-size:13;text-anchor:middle;" transform="matrix(1 0 0 1 1449.84 322)">Regular</text>
  <text style="stroke:none;fill:black;font-family:sans-serif;font-size:13;text-anchor:middle;" transform="matrix(1 0 0 1 1746.56 322)">Medium</text>
  <text style="stroke:none;fill:black;font-family:sans-serif;font-size:13;text-anchor:middle;" transform="matrix(1 0 0 1 2043.27 322)">Semibold</text>
  <text style="stroke:none;fill:black;font-family:sans-serif;font-size:13;text-anchor:middle;" transform="matrix(1 0 0 1 2339.98 322)">Bold</text>
  <text style="stroke:none;fill:black;font-family:sans-serif;font-size:13;text-anchor:middle;" transform="matrix(1 0 0 1 2636.69 322)">Heavy</text>
  <text style="stroke:none;fill:black;font-family:sans-serif;font-size:13;text-anchor:middle;" transform="matrix(1 0 0 1 2933.4 322)">Black</text>
  <line style="fill:none;stroke:black;opacity:1;stroke-width:0.5;" x1="263" x2="3036" y1="1903" y2="1903"/>
  <g transform="matrix(0.2 0 0 0.2 263 1933)">
   <path d="m46.2402 4.15039c21.7773 0 39.4531-17.627 39.4531-39.4043s-17.6758-39.4043-39.4531-39.4043c-21.7285 0-39.4043 17.627-39.4043 39.4043s17.6758 39.4043 39.4043 39.4043Zm0-7.42188c-17.6758 0-31.9336-14.3066-31.9336-31.9824s14.2578-31.9824 31.9336-31.9824 31.9824 14.3066 31.9824 31.9824-14.3066 31.9824-31.9824 31.9824Zm-17.9688-31.9824c0 2.14844 1.51367 3.61328 3.75977 3.61328h10.498v10.5957c0 2.19727 1.46484 3.71094 3.61328 3.71094 2.24609 0 3.71094-1.51367 3.71094-3.71094v-10.5957h10.5957c2.19727 0 3.71094-1.46484 3.71094-3.61328 0-2.19727-1.51367-3.71094-3.71094-3.71094h-10.5957v-10.5469c0-2.24609-1.46484-3.75977-3.71094-3.75977-2.14844 0-3.61328 1.51367-3.61328 3.75977v10.5469h-10.498c-2.24609 0-3.75977 1.51367-3.75977 3.71094Z"/>
  </g>
  <g transform="matrix(0.2 0 0 0.2 281.506 1933)">
   <path d="m58.5449 14.5508c27.4902 0 49.8047-22.3145 49.8047-49.8047s-22.3145-49.8047-49.8047-49.8047-49.8047 22.3145-49.8047 49.8047 22.3145 49.8047 49.8047 49.8047Zm0-8.30078c-22.9492 0-41.5039-18.5547-41.5039-41.5039s18.5547-41.5039 41.5039-41.5039 41.5039 18.5547 41.5039 41.5039-18.5547 41.5039-41.5039 41.5039Zm-22.6562-41.5039c0 2.39258 1.66016 4.00391 4.15039 4.00391h14.3555v14.4043c0 2.44141 1.66016 4.15039 4.05273 4.15039 2.44141 0 4.15039-1.66016 4.15039-4.15039v-14.4043h14.4043c2.44141 0 4.15039-1.61133 4.15039-4.00391 0-2.44141-1.70898-4.15039-4.15039-4.15039h-14.4043v-14.3555c0-2.49023-1.70898-4.19922-4.15039-4.19922-2.39258 0-4.05273 1.70898-4.05273 4.19922v14.3555h-14.3555c-2.49023 0-4.15039 1.70898-4.15039 4.15039Z"/>
  </g>
  <g transform="matrix(0.2 0 0 0.2 304.924 1933)">
   <path d="m74.8535 28.3203c35.1074 0 63.623-28.4668 63.623-63.5742s-28.5156-63.623-63.623-63.623-63.5742 28.5156-63.5742 63.623 28.4668 63.5742 63.5742 63.5742Zm0-9.08203c-30.127 0-54.4922-24.3652-54.4922-54.4922s24.3652-54.4922 54.4922-54.4922 54.4922 24.3652 54.4922 54.4922-24.3652 54.4922-54.4922 54.4922Zm-28.8574-54.4922c0 2.58789 1.85547 4.39453 4.58984 4.39453h19.7266v19.7754c0 2.68555 1.85547 4.58984 4.44336 4.58984 2.68555 0 4.54102-1.85547 4.54102-4.58984v-19.7754h19.7754c2.68555 0 4.58984-1.80664 4.58984-4.39453 0-2.73438-1.85547-4.58984-4.58984-4.58984h-19.7754v-19.7266c0-2.73438-1.85547-4.63867-4.54102-4.63867-2.58789 0-4.44336 1.9043-4.44336 4.63867v19.7266h-19.7266c-2.73438 0-4.58984 1.85547-4.58984 4.58984Z"/>
  </g>
  <text style="stroke:none;fill:black;font-family:sans-serif;font-size:13;font-weight:bold;" transform="matrix(1 0 0 1 263 1953)">Design Variations</text>
  <text style="stroke:none;fill:black;font-family:sans-serif;font-size:13;" transform="matrix(1 0 0 1 263 1971)">Symbols are supported in up to nine weights and three scales.</text>
  <text style="stroke:none;fill:black;font-family:sans-serif;font-size:13;" transform="matrix(1 0 0 1 263 1989)">For optimal layout with text and other symbols, vertically align</text>
  <text style="stroke:none;fill:black;font-family:sans-serif;font-size:13;" transform="matrix(1 0 0 1 263 2007)">symbols with the adjacent text.</text>
  <line style="fill:none;stroke:#00AEEF;stroke-width:0.5;opacity:1.0;" x1="776" x2="776" y1="1919" y2="1933"/>
  <g transform="matrix(0.2 0 0 0.2 776 1933)">
   <path d="m16.5527 0.78125c2.58789 0 3.85742-0.976562 4.78516-3.71094l6.29883-17.2363h28.8086l6.29883 17.2363c0.927734 2.73438 2.19727 3.71094 4.73633 3.71094 2.58789 0 4.24805-1.5625 4.24805-4.00391 0-0.830078-0.146484-1.61133-0.537109-2.63672l-22.9004-60.9863c-1.12305-2.97852-3.125-4.49219-6.25-4.49219-3.02734 0-5.07812 1.46484-6.15234 4.44336l-22.9004 61.084c-0.390625 1.02539-0.537109 1.80664-0.537109 2.63672 0 2.44141 1.5625 3.95508 4.10156 3.95508Zm13.4766-28.3691 11.8652-32.8613h0.244141l11.8652 32.8613Z"/>
  </g>
  <line style="fill:none;stroke:#00AEEF;stroke-width:0.5;opacity:1.0;" x1="792.836" x2="792.836" y1="1919" y2="1933"/>
  <text style="stroke:none;fill:black;font-family:sans-serif;font-size:13;font-weight:bold;" transform="matrix(1 0 0 1 776 1953)">Margins</text>
  <text style="stroke:none;fill:black;font-family:sans-serif;font-size:13;" transform="matrix(1 0 0 1 776 1971)">Leading and trailing margins on the left and right side of each symbol</text>
  <text style="stroke:none;fill:black;font-family:sans-serif;font-size:13;" transform="matrix(1 0 0 1 776 1989)">can be adjusted by modifying the x-location of the margin guidelines.</text>
  <text style="stroke:none;fill:black;font-family:sans-serif;font-size:13;" transform="matrix(1 0 0 1 776 2007)">Modifications are automatically applied proportionally to all</text>
  <text style="stroke:none;fill:black;font-family:sans-serif;font-size:13;" transform="matrix(1 0 0 1 776 2025)">scales and weights.</text>
  <g transform="matrix(0.2 0 0 0.2 1289 1933)">
   <path d="m14.209 9.32617 8.49609 8.54492c4.29688 4.3457 9.22852 4.05273 13.8672-1.07422l53.4668-58.9355-4.83398-4.88281-53.0762 58.3984c-1.75781 2.00195-3.41797 2.49023-5.76172 0.146484l-5.85938-5.81055c-2.34375-2.29492-1.80664-4.00391 0.195312-5.81055l57.373-54.0039-4.88281-4.83398-57.959 54.4434c-4.93164 4.58984-5.32227 9.47266-1.02539 13.8184Zm32.0801-90.9668c-2.09961 2.05078-2.24609 4.93164-1.07422 6.88477 1.17188 1.80664 3.4668 2.97852 6.68945 2.14844 7.32422-1.70898 14.9414-2.00195 22.0703 2.68555l-2.92969 7.27539c-1.70898 4.15039-0.830078 7.08008 1.85547 9.81445l11.4746 11.5723c2.44141 2.44141 4.49219 2.53906 7.32422 2.05078l5.32227-0.976562 3.32031 3.36914-0.195312 2.7832c-0.195312 2.49023 0.439453 4.39453 2.88086 6.78711l3.80859 3.71094c2.39258 2.39258 5.46875 2.53906 7.8125 0.195312l14.5508-14.5996c2.34375-2.34375 2.24609-5.32227-0.146484-7.71484l-3.85742-3.80859c-2.39258-2.39258-4.24805-3.17383-6.64062-2.97852l-2.88086 0.244141-3.22266-3.17383 1.2207-5.61523c0.634766-2.83203-0.146484-5.0293-3.07617-7.95898l-10.9863-10.9375c-16.6992-16.6016-38.8672-16.2109-53.3203-1.75781Zm7.4707 1.85547c12.1582-8.88672 28.6133-7.37305 39.7461 3.75977l12.1582 12.0605c1.17188 1.17188 1.36719 2.09961 1.02539 3.80859l-1.61133 7.42188 7.51953 7.42188 4.93164-0.292969c1.26953-0.0488281 1.66016 0.0488281 2.63672 1.02539l2.88086 2.88086-12.207 12.207-2.88086-2.88086c-0.976562-0.976562-1.12305-1.36719-1.07422-2.68555l0.341797-4.88281-7.4707-7.42188-7.61719 1.26953c-1.61133 0.341797-2.34375 0.195312-3.56445-0.976562l-10.0098-10.0098c-1.26953-1.17188-1.41602-2.00195-0.634766-3.85742l4.39453-10.4492c-7.8125-7.27539-17.9688-10.4004-28.125-7.42188-0.78125 0.195312-1.07422-0.439453-0.439453-0.976562Z"/>
  </g>
  <text style="stroke:none;fill:black;font-family:sans-serif;font-size:13;font-weight:bold;" transform="matrix(1 0 0 1 1289 1953)">Exporting</text>
  <text style="stroke:none;fill:black;font-family:sans-serif;font-size:13;" transform="matrix(1 0 0 1 1289 1971)">Symbols should be outlined when exporting to ensure the</text>
  <text style="stroke:none;fill:black;font-family:sans-serif;font-size:13;" transform="matrix(1 0 0 1 1289 1989)">design is preserved when submitting to Xcode.</text>
  <text id="template-version" style="stroke:none;fill:black;font-family:sans-serif;font-size:13;text-anchor:end;" transform="matrix(1 0 0 1 3036 1933)">Template v.6.0</text>
  <text style="stroke:none;fill:black;font-family:sans-serif;font-size:13;text-anchor:end;" transform="matrix(1 0 0 1 3036 1951)">Requires Xcode 16 or greater</text>
  <text id="descriptive-name" style="stroke:none;fill:black;font-family:sans-serif;font-size:13;text-anchor:end;" transform="matrix(1 0 0 1 3036 1969)">Generated from square</text>
  <text style="stroke:none;fill:black;font-family:sans-serif;font-size:13;text-anchor:end;" transform="matrix(1 0 0 1 3036 1987)">Typeset at 100.0 points</text>
  <text style="stroke:none;fill:black;font-family:sans-serif;font-size:13;" transform="matrix(1 0 0 1 263 726)">Small</text>
  <text style="stroke:none;fill:black;font-family:sans-serif;font-size:13;" transform="matrix(1 0 0 1 263 1156)">Medium</text>
  <text style="stroke:none;fill:black;font-family:sans-serif;font-size:13;" transform="matrix(1 0 0 1 263 1586)">Large</text>
 </g>
 <g id="Guides">
  <g id="H-reference" style="fill:#27AAE1;stroke:none;" transform="matrix(1 0 0 1 339 696)">
   <path d="M0.993654 0L3.63775 0L29.3281-67.1323L30.0303-67.1323L30.0303-70.459L28.1226-70.459ZM11.6885-24.4799L46.9815-24.4799L46.2315-26.7285L12.4385-26.7285ZM55.1196 0L57.7637 0L30.6382-70.459L29.4326-70.459L29.4326-67.1323Z"/>
  </g>
  <line id="Baseline-S" style="fill:none;stroke:#27AAE1;opacity:1;stroke-width:0.5;" x1="263" x2="3036" y1="696" y2="696"/>
  <line id="Capline-S" style="fill:none;stroke:#27AAE1;opacity:1;stroke-width:0.5;" x1="263" x2="3036" y1="625.541" y2="625.541"/>
  <g id="H-reference" style="fill:#27AAE1;stroke:none;" transform="matrix(1 0 0 1 339 1126)">
   <path d="M0.993654 0L3.63775 0L29.3281-67.1323L30.0303-67.1323L30.0303-70.459L28.1226-70.459ZM11.6885-24.4799L46.9815-24.4799L46.2315-26.7285L12.4385-26.7285ZM55.1196 0L57.7637 0L30.6382-70.459L29.4326-70.459L29.4326-67.1323Z"/>
  </g>
  <line id="Baseline-M" style="fill:none;stroke:#27AAE1;opacity:1;stroke-width:0.5;" x1="263" x2="3036" y1="1126" y2="1126"/>
  <line id="Capline-M" style="fill:none;stroke:#27AAE1;opacity:1;stroke-width:0.5;" x1="263" x2="3036" y1="1055.54" y2="1055.54"/>
  <g id="H-reference" style="fill:#27AAE1;stroke:none;" transform="matrix(1 0 0 1 339 1556)">
   <path d="M0.993654 0L3.63775 0L29.3281-67.1323L30.0303-67.1323L30.0303-70.459L28.1226-70.459ZM11.6885-24.4799L46.9815-24.4799L46.2315-26.7285L12.4385-26.7285ZM55.1196 0L57.7637 0L30.6382-70.459L29.4326-70.459L29.4326-67.1323Z"/>
  </g>
  <line id="Baseline-L" style="fill:none;stroke:#27AAE1;opacity:1;stroke-width:0.5;" x1="263" x2="3036" y1="1556" y2="1556"/>
  <line id="Capline-L" style="fill:none;stroke:#27AAE1;opacity:1;stroke-width:0.5;" x1="263" x2="3036" y1="1485.54" y2="1485.54"/>
  <line id="right-margin-Black-S" style="fill:none;stroke:#00AEEF;stroke-width:0.5;opacity:1.0;" x1="2981.3" x2="2981.3" y1="600.785" y2="720.121"/>
  <line id="left-margin-Black-S" style="fill:none;stroke:#00AEEF;stroke-width:0.5;opacity:1.0;" x1="2885.5" x2="2885.5" y1="600.785" y2="720.121"/>
  <line id="right-margin-Regular-S" style="fill:none;stroke:#00AEEF;stroke-width:0.5;opacity:1.0;" x1="1495.18" x2="1495.18" y1="600.785" y2="720.121"/>
  <line id="left-margin-Regular-S" style="fill:none;stroke:#00AEEF;stroke-width:0.5;opacity:1.0;" x1="1404.51" x2="1404.51" y1="600.785" y2="720.121"/>
  <line id="right-margin-Ultralight-S" style="fill:none;stroke:#00AEEF;stroke-width:0.5;opacity:1.0;" x1="603.073" x2="603.073" y1="600.785" y2="720.121"/>
  <line id="left-margin-Ultralight-S" style="fill:none;stroke:#00AEEF;stroke-width:0.5;opacity:1.0;" x1="516.35" x2="516.35" y1="600.785" y2="720.121"/>
 </g>
 <g id="Symbols">
  <g id="Black-S"><path d="M2932.34325,630.13535c-0.46092,0.1556 -2.28111,1.92881 -14.07125,13.70134c-7.84737,7.83563 -13.67491,13.74244 -13.85693,14.04776c-0.26716,0.44624 -0.31413,0.66349 -0.31413,1.40918c0,0.74569 0.04991,0.96294 0.31707,1.42092c0.17321,0.29651 0.50496,0.6811 0.73101,0.85432c0.7222,0.54899 1.23597,0.66055 3.07084,0.66055h1.68514l0.03523,9.65875l0.03523,9.65875l0.27303,0.82202c0.96,2.87414 3.07084,4.98204 5.94791,5.94791l0.82202,0.27596l12.09546,0.03229c13.5017,0.03817 12.63271,0.08807 13.60152,-0.78386c0.61064,-0.55193 0.92477,-1.26826 0.92477,-2.11671c0,-1.13909 -0.56954,-2.06973 -1.60881,-2.6334c-0.46385,-0.24954 -0.54899,-0.25248 -7.48627,-0.28477l-7.01654,-0.03229v-7.49214c0,-8.53728 -0.02055,-8.31416 0.88954,-9.22719c0.83083,-0.83083 1.1567,-0.88954 4.98204,-0.88954c4.01616,0 4.15708,0.02936 5.23452,1.12734c0.41982,0.42863 0.98055,0.86312 1.28294,0.99817c1.0745,0.4756 2.36918,0.22899 3.20882,-0.60771c0.56367,-0.56074 0.7545,-1.0011 0.81615,-1.89359c0.04991,-0.68404 0.01468,-0.8778 -0.24954,-1.41799c-0.31119,-0.63707 -1.37982,-1.78496 -2.26349,-2.43083c-0.71046,-0.51964 -1.98459,-1.1156 -2.92111,-1.36808c-0.73395,-0.1967 -1.28588,-0.22018 -5.16699,-0.22018c-4.1835,0 -4.3802,0.00881 -5.2903,0.27009c-2.81542,0.80734 -5.08479,3.03854 -6.05654,5.95378l-0.27596,0.82202l-0.03523,8.19966l-0.03817,8.2026l-1.90239,-0.0411c-1.82019,-0.03523 -1.92588,-0.05284 -2.44258,-0.35523c-0.55193,-0.32587 -1.05101,-0.88074 -1.30936,-1.46496c-0.11156,-0.25541 -0.16147,-2.90937 -0.20551,-11.43784l-0.05872,-11.1061l-0.35229,-0.56954c-0.19376,-0.31119 -0.5989,-0.73395 -0.89835,-0.94239l-0.54606,-0.37285l9.73508,-9.73508l9.73508,-9.73508l9.42389,9.41215c5.18167,5.1758 9.60884,9.50903 9.8349,9.62646c0.29064,0.15266 0.66936,0.21725 1.29175,0.21725c0.75743,0.00294 0.96,-0.04404 1.44441,-0.32881c1.39744,-0.82202 1.89652,-2.64221 1.09505,-3.98974c-0.15853,-0.27009 -5.06424,-5.25507 -10.89766,-11.07674c-9.69398,-9.6705 -10.65692,-10.59821 -11.18536,-10.77435c-0.70753,-0.23193 -1.36514,-0.23193 -2.06386,0.00881M2952.90259,662.42318c-1.05101,0.38752 -1.24184,0.69578 -4.57396,7.39232c-3.39965,6.83159 -3.40258,6.84333 -3.00625,8.0382c0.26129,0.79266 0.98643,1.53248 1.75854,1.7967c0.48441,0.1644 1.13322,0.19376 4.24809,0.19376c2.02276,0 3.67855,0.02349 3.67855,0.05578c0,0.02936 -0.8778,1.81725 -1.9523,3.97213c-2.15781,4.33029 -2.24001,4.58277 -1.86129,5.72479c0.37578,1.13028 1.56478,1.99047 2.75671,1.99047c0.23486,0 0.68404,-0.08807 0.99817,-0.19376c1.10386,-0.37578 1.25358,-0.61652 4.63855,-7.42168l3.11194,-6.25617v-0.84257c0,-0.70753 -0.05284,-0.93358 -0.31707,-1.38569c-0.17321,-0.29651 -0.51083,-0.68698 -0.74569,-0.86606c-0.78679,-0.5989 -1.17725,-0.64881 -5.12002,-0.64881c-1.9934,0 -3.62277,-0.02349 -3.62277,-0.05578c0,-0.02936 0.8778,-1.81725 1.9523,-3.97213c2.14313,-4.29506 2.24001,-4.58864 1.87597,-5.68076c-0.10275,-0.31413 -0.34055,-0.75743 -0.52551,-0.98349c-0.71046,-0.86019 -2.21359,-1.25358 -3.29396,-0.85725" className="SFSymbolsPreviewWireframe"/></g>
  <g id="Regular-S"><path d="M1448.7882,630.13535c-0.46092,0.1556 -2.28111,1.92881 -14.07125,13.70134c-7.84737,7.83563 -13.67491,13.74244 -13.85693,14.04776c-0.26716,0.44624 -0.31413,0.66349 -0.31413,1.40918c0,0.74569 0.04991,0.96294 0.31707,1.42092c0.17321,0.29651 0.50496,0.6811 0.73101,0.85432c0.7222,0.54899 1.23597,0.66055 3.07084,0.66055h1.68514l0.03523,9.65875l0.03523,9.65875l0.27303,0.82202c0.96,2.87414 3.07084,4.98204 5.94791,5.94791l0.82202,0.27596l12.09546,0.03229c13.5017,0.03817 12.63271,0.08807 13.60152,-0.78386c0.61064,-0.55193 0.92477,-1.26826 0.92477,-2.11671c0,-1.13909 -0.56954,-2.06973 -1.60881,-2.6334c-0.46385,-0.24954 -0.54899,-0.25248 -7.48627,-0.28477l-7.01654,-0.03229v-7.49214c0,-8.53728 -0.02055,-8.31416 0.88954,-9.22719c0.83083,-0.83083 1.1567,-0.88954 4.98204,-0.88954c4.01616,0 4.15708,0.02936 5.23452,1.12734c0.41982,0.42863 0.98055,0.86312 1.28294,0.99817c1.0745,0.4756 2.36918,0.22899 3.20882,-0.60771c0.56367,-0.56074 0.7545,-1.0011 0.81615,-1.89359c0.04991,-0.68404 0.01468,-0.8778 -0.24954,-1.41799c-0.31119,-0.63707 -1.37982,-1.78496 -2.26349,-2.43083c-0.71046,-0.51964 -1.98459,-1.1156 -2.92111,-1.36808c-0.73395,-0.1967 -1.28588,-0.22018 -5.16699,-0.22018c-4.1835,0 -4.3802,0.00881 -5.2903,0.27009c-2.81542,0.80734 -5.08479,3.03854 -6.05654,5.95378l-0.27596,0.82202l-0.03523,8.19966l-0.03817,8.2026l-1.90239,-0.0411c-1.82019,-0.03523 -1.92588,-0.05284 -2.44258,-0.35523c-0.55193,-0.32587 -1.05101,-0.88074 -1.30936,-1.46496c-0.11156,-0.25541 -0.16147,-2.90937 -0.20551,-11.43784l-0.05872,-11.1061l-0.35229,-0.56954c-0.19376,-0.31119 -0.5989,-0.73395 -0.89835,-0.94239l-0.54606,-0.37285l9.73508,-9.73508l9.73508,-9.73508l9.42389,9.41215c5.18167,5.1758 9.60884,9.50903 9.8349,9.62646c0.29064,0.15266 0.66936,0.21725 1.29175,0.21725c0.75743,0.00294 0.96,-0.04404 1.44441,-0.32881c1.39744,-0.82202 1.89652,-2.64221 1.09505,-3.98974c-0.15853,-0.27009 -5.06424,-5.25507 -10.89766,-11.07674c-9.69398,-9.6705 -10.65692,-10.59821 -11.18536,-10.77435c-0.70753,-0.23193 -1.36514,-0.23193 -2.06386,0.00881M1469.34754,662.42318c-1.05101,0.38752 -1.24184,0.69578 -4.57396,7.39232c-3.39965,6.83159 -3.40258,6.84333 -3.00625,8.0382c0.26129,0.79266 0.98643,1.53248 1.75854,1.7967c0.48441,0.1644 1.13322,0.19376 4.24809,0.19376c2.02276,0 3.67855,0.02349 3.67855,0.05578c0,0.02936 -0.8778,1.81725 -1.9523,3.97213c-2.15781,4.33029 -2.24001,4.58277 -1.86129,5.72479c0.37578,1.13028 1.56478,1.99047 2.75671,1.99047c0.23486,0 0.68404,-0.08807 0.99817,-0.19376c1.10386,-0.37578 1.25358,-0.61652 4.63855,-7.42168l3.11194,-6.25617v-0.84257c0,-0.70753 -0.05284,-0.93358 -0.31707,-1.38569c-0.17321,-0.29651 -0.51083,-0.68698 -0.74569,-0.86606c-0.78679,-0.5989 -1.17725,-0.64881 -5.12002,-0.64881c-1.9934,0 -3.62277,-0.02349 -3.62277,-0.05578c0,-0.02936 0.8778,-1.81725 1.9523,-3.97213c2.14313,-4.29506 2.24001,-4.58864 1.87597,-5.68076c-0.10275,-0.31413 -0.34055,-0.75743 -0.52551,-0.98349c-0.71046,-0.86019 -2.21359,-1.25358 -3.29396,-0.85725" className="SFSymbolsPreviewWireframe"/></g>
  <g id="Ultralight-S"><path d="M558.65461,630.13535c-0.46092,0.1556 -2.28111,1.92881 -14.07125,13.70134c-7.84737,7.83563 -13.67491,13.74244 -13.85693,14.04776c-0.26716,0.44624 -0.31413,0.66349 -0.31413,1.40918c0,0.74569 0.04991,0.96294 0.31707,1.42092c0.17321,0.29651 0.50496,0.6811 0.73101,0.85432c0.7222,0.54899 1.23597,0.66055 3.07084,0.66055h1.68514l0.03523,9.65875l0.03523,9.65875l0.27303,0.82202c0.96,2.87414 3.07084,4.98204 5.94791,5.94791l0.82202,0.27596l12.09546,0.03229c13.5017,0.03817 12.63271,0.08807 13.60152,-0.78386c0.61064,-0.55193 0.92477,-1.26826 0.92477,-2.11671c0,-1.13909 -0.56954,-2.06973 -1.60881,-2.6334c-0.46385,-0.24954 -0.54899,-0.25248 -7.48627,-0.28477l-7.01654,-0.03229v-7.49214c0,-8.53728 -0.02055,-8.31416 0.88954,-9.22719c0.83083,-0.83083 1.1567,-0.88954 4.98204,-0.88954c4.01616,0 4.15708,0.02936 5.23452,1.12734c0.41982,0.42863 0.98055,0.86312 1.28294,0.99817c1.0745,0.4756 2.36918,0.22899 3.20882,-0.60771c0.56367,-0.56074 0.7545,-1.0011 0.81615,-1.89359c0.04991,-0.68404 0.01468,-0.8778 -0.24954,-1.41799c-0.31119,-0.63707 -1.37982,-1.78496 -2.26349,-2.43083c-0.71046,-0.51964 -1.98459,-1.1156 -2.92111,-1.36808c-0.73395,-0.1967 -1.28588,-0.22018 -5.16699,-0.22018c-4.1835,0 -4.3802,0.00881 -5.2903,0.27009c-2.81542,0.80734 -5.08479,3.03854 -6.05654,5.95378l-0.27596,0.82202l-0.03523,8.19966l-0.03817,8.2026l-1.90239,-0.0411c-1.82019,-0.03523 -1.92588,-0.05284 -2.44258,-0.35523c-0.55193,-0.32587 -1.05101,-0.88074 -1.30936,-1.46496c-0.11156,-0.25541 -0.16147,-2.90937 -0.20551,-11.43784l-0.05872,-11.1061l-0.35229,-0.56954c-0.19376,-0.31119 -0.5989,-0.73395 -0.89835,-0.94239l-0.54606,-0.37285l9.73508,-9.73508l9.73508,-9.73508l9.42389,9.41215c5.18167,5.1758 9.60884,9.50903 9.8349,9.62646c0.29064,0.15266 0.66936,0.21725 1.29175,0.21725c0.75743,0.00294 0.96,-0.04404 1.44441,-0.32881c1.39744,-0.82202 1.89652,-2.64221 1.09505,-3.98974c-0.15853,-0.27009 -5.06424,-5.25507 -10.89766,-11.07674c-9.69398,-9.6705 -10.65692,-10.59821 -11.18536,-10.77435c-0.70753,-0.23193 -1.36514,-0.23193 -2.06386,0.00881M579.21395,662.42318c-1.05101,0.38752 -1.24184,0.69578 -4.57396,7.39232c-3.39965,6.83159 -3.40258,6.84333 -3.00625,8.0382c0.26129,0.79266 0.98643,1.53248 1.75854,1.7967c0.48441,0.1644 1.13322,0.19376 4.24809,0.19376c2.02276,0 3.67855,0.02349 3.67855,0.05578c0,0.02936 -0.8778,1.81725 -1.9523,3.97213c-2.15781,4.33029 -2.24001,4.58277 -1.86129,5.72479c0.37578,1.13028 1.56478,1.99047 2.75671,1.99047c0.23486,0 0.68404,-0.08807 0.99817,-0.19376c1.10386,-0.37578 1.25358,-0.61652 4.63855,-7.42168l3.11194,-6.25617v-0.84257c0,-0.70753 -0.05284,-0.93358 -0.31707,-1.38569c-0.17321,-0.29651 -0.51083,-0.68698 -0.74569,-0.86606c-0.78679,-0.5989 -1.17725,-0.64881 -5.12002,-0.64881c-1.9934,0 -3.62277,-0.02349 -3.62277,-0.05578c0,-0.02936 0.8778,-1.81725 1.9523,-3.97213c2.14313,-4.29506 2.24001,-4.58864 1.87597,-5.68076c-0.10275,-0.31413 -0.34055,-0.75743 -0.52551,-0.98349c-0.71046,-0.86019 -2.21359,-1.25358 -3.29396,-0.85725" className="SFSymbolsPreviewWireframe"/></g>
 </g>
</svg>