<?xml version="1.0" encoding="UTF-8"?><!--Generator: https://SymbolKit.app--><!DOCTYPE svg PUBLIC "-//W3C//DTD SVG 1.1//EN" "http://www.w3.org/Graphics/SVG/1.1/DTD/svg11.dtd"><svg xmlns="http://www.w3.org/2000/svg" xmlns:xlink="http://www.w3.org/1999/xlink" version="1.1" viewBox="0 0 3300 2200">
 <!--glyph: "100092", point size: 100.0, font version: "20.0d10e1", template writer version: "138.0.0"-->
 <style>.SFSymbolsPreviewWireframe {fill:none;opacity:1.0;stroke:black;stroke-width:0.5}
</style>
 <g id="Notes">
  <rect height="2200" id="artboard" style="fill:white;opacity:1" width="3300" x="0" y="0"/>
  <line style="fill:none;stroke:black;opacity:1;stroke-width:0.5;" x1="263" x2="3036" y1="292" y2="292"/>
  <text style="stroke:none;fill:black;font-family:sans-serif;font-size:13;font-weight:bold;" transform="matrix(1 0 0 1 263 322)">Weight/Scale Variations</text>
  <text style="stroke:none;fill:black;font-family:sans-serif;font-size:13;text-anchor:middle;" transform="matrix(1 0 0 1 559.711 322)">Ultralight</text>
  <text style="stroke:none;fill:black;font-family:sans-serif;font-size:13;text-anchor:middle;" transform="matrix(1 0 0 1 856.422 322)">Thin</text>
  <text style="stroke:none;fill:black;font-family:sans-serif;font-size:13;text-anchor:middle;" transform="matrix(1 0 0 1 1153.13 322)">Light</text>
  <text style="stroke:none;fill:black;font-family:sans-serif;font-size:13;text-anchor:middle;" transform="matrix(1 0 0 1 1449.84 322)">Regular</text>
  <text style="stroke:none;fill:black;font-family:sans-serif;font-size:13;text-anchor:middle;" transform="matrix(1 0 0 1 1746.56 322)">Medium</text>
  <text style="stroke:none;fill:black;font-family:sans-serif;font-size:13;text-anchor:middle;" transform="matrix(1 0 0 1 2043.27 322)">Semibold</text>
  <text style="stroke:none;fill:black;font-family:sans-serif;font-size:13;text-anchor:middle;" transform="matrix(1 0 0 1 2339.98 322)">Bold</text>
  <text style="stroke:none;fill:black;font-family:sans-serif;font-size:13;text-anchor:middle;" transform="matrix(1 0 0 1 2636.69 322)">Heavy</text>
  <text style="stroke:none;fill:black;font-family:sans-serif;font-size:13;text-anchor:middle;" transform="matrix(1 0 0 1 2933.4 322)">Black</text>
  <line style="fill:none;stroke:black;opacity:1;stroke-width:0.5;" x1="263" x2="3036" y1="1903" y2="1903"/>
  <g transform="matrix(0.2 0 0 0.2 263 1933)">
   <path d="m46.2402 4.15039c21.7773 0 39.4531-17.627 39.4531-39.4043s-17.6758-39.4043-39.4531-39.4043c-21.7285 0-39.4043 17.627-39.4043 39.4043s17.6758 39.4043 39.4043 39.4043Zm0-7.42188c-17.6758 0-31.9336-14.3066-31.9336-31.9824s14.2578-31.9824 31.9336-31.9824 31.9824 14.3066 31.9824 31.9824-14.3066 31.9824-31.9824 31.9824Zm-17.9688-31.9824c0 2.14844 1.51367 3.61328 3.75977 3.61328h10.498v10.5957c0 2.19727 1.46484 3.71094 3.61328 3.71094 2.24609 0 3.71094-1.51367 3.71094-3.71094v-10.5957h10.5957c2.19727 0 3.71094-1.46484 3.71094-3.61328 0-2.19727-1.51367-3.71094-3.71094-3.71094h-10.5957v-10.5469c0-2.24609-1.46484-3.75977-3.71094-3.75977-2.14844 0-3.61328 1.51367-3.61328 3.75977v10.5469h-10.498c-2.24609 0-3.75977 1.51367-3.75977 3.71094Z"/>
  </g>
  <g transform="matrix(0.2 0 0 0.2 281.506 1933)">
   <path d="m58.5449 14.5508c27.4902 0 49.8047-22.3145 49.8047-49.8047s-22.3145-49.8047-49.8047-49.8047-49.8047 22.3145-49.8047 49.8047 22.3145 49.8047 49.8047 49.8047Zm0-8.30078c-22.9492 0-41.5039-18.5547-41.5039-41.5039s18.5547-41.5039 41.5039-41.5039 41.5039 18.5547 41.5039 41.5039-18.5547 41.5039-41.5039 41.5039Zm-22.6562-41.5039c0 2.39258 1.66016 4.00391 4.15039 4.00391h14.3555v14.4043c0 2.44141 1.66016 4.15039 4.05273 4.15039 2.44141 0 4.15039-1.66016 4.15039-4.15039v-14.4043h14.4043c2.44141 0 4.15039-1.61133 4.15039-4.00391 0-2.44141-1.70898-4.15039-4.15039-4.15039h-14.4043v-14.3555c0-2.49023-1.70898-4.19922-4.15039-4.19922-2.39258 0-4.05273 1.70898-4.05273 4.19922v14.3555h-14.3555c-2.49023 0-4.15039 1.70898-4.15039 4.15039Z"/>
  </g>
  <g transform="matrix(0.2 0 0 0.2 304.924 1933)">
   <path d="m74.8535 28.3203c35.1074 0 63.623-28.4668 63.623-63.5742s-28.5156-63.623-63.623-63.623-63.5742 28.5156-63.5742 63.623 28.4668 63.5742 63.5742 63.5742Zm0-9.08203c-30.127 0-54.4922-24.3652-54.4922-54.4922s24.3652-54.4922 54.4922-54.4922 54.4922 24.3652 54.4922 54.4922-24.3652 54.4922-54.4922 54.4922Zm-28.8574-54.4922c0 2.58789 1.85547 4.39453 4.58984 4.39453h19.7266v19.7754c0 2.68555 1.85547 4.58984 4.44336 4.58984 2.68555 0 4.54102-1.85547 4.54102-4.58984v-19.7754h19.7754c2.68555 0 4.58984-1.80664 4.58984-4.39453 0-2.73438-1.85547-4.58984-4.58984-4.58984h-19.7754v-19.7266c0-2.73438-1.85547-4.63867-4.54102-4.63867-2.58789 0-4.44336 1.9043-4.44336 4.63867v19.7266h-19.7266c-2.73438 0-4.58984 1.85547-4.58984 4.58984Z"/>
  </g>
  <text style="stroke:none;fill:black;font-family:sans-serif;font-size:13;font-weight:bold;" transform="matrix(1 0 0 1 263 1953)">Design Variations</text>
  <text style="stroke:none;fill:black;font-family:sans-serif;font-size:13;" transform="matrix(1 0 0 1 263 1971)">Symbols are supported in up to nine weights and three scales.</text>
  <text style="stroke:none;fill:black;font-family:sans-serif;font-size:13;" transform="matrix(1 0 0 1 263 1989)">For optimal layout with text and other symbols, vertically align</text>
  <text style="stroke:none;fill:black;font-family:sans-serif;font-size:13;" transform="matrix(1 0 0 1 263 2007)">symbols with the adjacent text.</text>
  <line style="fill:none;stroke:#00AEEF;stroke-width:0.5;opacity:1.0;" x1="776" x2="776" y1="1919" y2="1933"/>
  <g transform="matrix(0.2 0 0 0.2 776 1933)">
   <path d="m16.5527 0.78125c2.58789 0 3.85742-0.976562 4.78516-3.71094l6.29883-17.2363h28.8086l6.29883 17.2363c0.927734 2.73438 2.19727 3.71094 4.73633 3.71094 2.58789 0 4.24805-1.5625 4.24805-4.00391 0-0.830078-0.146484-1.61133-0.537109-2.63672l-22.9004-60.9863c-1.12305-2.97852-3.125-4.49219-6.25-4.49219-3.02734 0-5.07812 1.46484-6.15234 4.44336l-22.9004 61.084c-0.390625 1.02539-0.537109 1.80664-0.537109 2.63672 0 2.44141 1.5625 3.95508 4.10156 3.95508Zm13.4766-28.3691 11.8652-32.8613h0.244141l11.8652 32.8613Z"/>
  </g>
  <line style="fill:none;stroke:#00AEEF;stroke-width:0.5;opacity:1.0;" x1="792.836" x2="792.836" y1="1919" y2="1933"/>
  <text style="stroke:none;fill:black;font-family:sans-serif;font-size:13;font-weight:bold;" transform="matrix(1 0 0 1 776 1953)">Margins</text>
  <text style="stroke:none;fill:black;font-family:sans-serif;font-size:13;" transform="matrix(1 0 0 1 776 1971)">Leading and trailing margins on the left and right side of each symbol</text>
  <text style="stroke:none;fill:black;font-family:sans-serif;font-size:13;" transform="matrix(1 0 0 1 776 1989)">can be adjusted by modifying the x-location of the margin guidelines.</text>
  <text style="stroke:none;fill:black;font-family:sans-serif;font-size:13;" transform="matrix(1 0 0 1 776 2007)">Modifications are automatically applied proportionally to all</text>
  <text style="stroke:none;fill:black;font-family:sans-serif;font-size:13;" transform="matrix(1 0 0 1 776 2025)">scales and weights.</text>
  <g transform="matrix(0.2 0 0 0.2 1289 1933)">
   <path d="m14.209 9.32617 8.49609 8.54492c4.29688 4.3457 9.22852 4.05273 13.8672-1.07422l53.4668-58.9355-4.83398-4.88281-53.0762 58.3984c-1.75781 2.00195-3.41797 2.49023-5.76172 0.146484l-5.85938-5.81055c-2.34375-2.29492-1.80664-4.00391 0.195312-5.81055l57.373-54.0039-4.88281-4.83398-57.959 54.4434c-4.93164 4.58984-5.32227 9.47266-1.02539 13.8184Zm32.0801-90.9668c-2.09961 2.05078-2.24609 4.93164-1.07422 6.88477 1.17188 1.80664 3.4668 2.97852 6.68945 2.14844 7.32422-1.70898 14.9414-2.00195 22.0703 2.68555l-2.92969 7.27539c-1.70898 4.15039-0.830078 7.08008 1.85547 9.81445l11.4746 11.5723c2.44141 2.44141 4.49219 2.53906 7.32422 2.05078l5.32227-0.976562 3.32031 3.36914-0.195312 2.7832c-0.195312 2.49023 0.439453 4.39453 2.88086 6.78711l3.80859 3.71094c2.39258 2.39258 5.46875 2.53906 7.8125 0.195312l14.5508-14.5996c2.34375-2.34375 2.24609-5.32227-0.146484-7.71484l-3.85742-3.80859c-2.39258-2.39258-4.24805-3.17383-6.64062-2.97852l-2.88086 0.244141-3.22266-3.17383 1.2207-5.61523c0.634766-2.83203-0.146484-5.0293-3.07617-7.95898l-10.9863-10.9375c-16.6992-16.6016-38.8672-16.2109-53.3203-1.75781Zm7.4707 1.85547c12.1582-8.88672 28.6133-7.37305 39.7461 3.75977l12.1582 12.0605c1.17188 1.17188 1.36719 2.09961 1.02539 3.80859l-1.61133 7.42188 7.51953 7.42188 4.93164-0.292969c1.26953-0.0488281 1.66016 0.0488281 2.63672 1.02539l2.88086 2.88086-12.207 12.207-2.88086-2.88086c-0.976562-0.976562-1.12305-1.36719-1.07422-2.68555l0.341797-4.88281-7.4707-7.42188-7.61719 1.26953c-1.61133 0.341797-2.34375 0.195312-3.56445-0.976562l-10.0098-10.0098c-1.26953-1.17188-1.41602-2.00195-0.634766-3.85742l4.39453-10.4492c-7.8125-7.27539-17.9688-10.4004-28.125-7.42188-0.78125 0.195312-1.07422-0.439453-0.439453-0.976562Z"/>
  </g>
  <text style="stroke:none;fill:black;font-family:sans-serif;font-size:13;font-weight:bold;" transform="matrix(1 0 0 1 1289 1953)">Exporting</text>
  <text style="stroke:none;fill:black;font-family:sans-serif;font-size:13;" transform="matrix(1 0 0 1 1289 1971)">Symbols should be outlined when exporting to ensure the</text>
  <text style="stroke:none;fill:black;font-family:sans-serif;font-size:13;" transform="matrix(1 0 0 1 1289 1989)">design is preserved when submitting to Xcode.</text>
  <text id="template-version" style="stroke:none;fill:black;font-family:sans-serif;font-size:13;text-anchor:end;" transform="matrix(1 0 0 1 3036 1933)">Template v.6.0</text>
  <text style="stroke:none;fill:black;font-family:sans-serif;font-size:13;text-anchor:end;" transform="matrix(1 0 0 1 3036 1951)">Requires Xcode 16 or greater</text>
  <text id="descriptive-name" style="stroke:none;fill:black;font-family:sans-serif;font-size:13;text-anchor:end;" transform="matrix(1 0 0 1 3036 1969)">Generated from square</text>
  <text style="stroke:none;fill:black;font-family:sans-serif;font-size:13;text-anchor:end;" transform="matrix(1 0 0 1 3036 1987)">Typeset at 100.0 points</text>
  <text style="stroke:none;fill:black;font-family:sans-serif;font-size:13;" transform="matrix(1 0 0 1 263 726)">Small</text>
  <text style="stroke:none;fill:black;font-family:sans-serif;font-size:13;" transform="matrix(1 0 0 1 263 1156)">Medium</text>
  <text style="stroke:none;fill:black;font-family:sans-serif;font-size:13;" transform="matrix(1 0 0 1 263 1586)">Large</text>
 </g>
 <g id="Guides">
  <g id="H-reference" style="fill:#27AAE1;stroke:none;" transform="matrix(1 0 0 1 339 696)">
   <path d="M0.993654 0L3.63775 0L29.3281-67.1323L30.0303-67.1323L30.0303-70.459L28.1226-70.459ZM11.6885-24.4799L46.9815-24.4799L46.2315-26.7285L12.4385-26.7285ZM55.1196 0L57.7637 0L30.6382-70.459L29.4326-70.459L29.4326-67.1323Z"/>
  </g>
  <line id="Baseline-S" style="fill:none;stroke:#27AAE1;opacity:1;stroke-width:0.5;" x1="263" x2="3036" y1="696" y2="696"/>
  <line id="Capline-S" style="fill:none;stroke:#27AAE1;opacity:1;stroke-width:0.5;" x1="263" x2="3036" y1="625.541" y2="625.541"/>
  <g id="H-reference" style="fill:#27AAE1;stroke:none;" transform="matrix(1 0 0 1 339 1126)">
   <path d="M0.993654 0L3.63775 0L29.3281-67.1323L30.0303-67.1323L30.0303-70.459L28.1226-70.459ZM11.6885-24.4799L46.9815-24.4799L46.2315-26.7285L12.4385-26.7285ZM55.1196 0L57.7637 0L30.6382-70.459L29.4326-70.459L29.4326-67.1323Z"/>
  </g>
  <line id="Baseline-M" style="fill:none;stroke:#27AAE1;opacity:1;stroke-width:0.5;" x1="263" x2="3036" y1="1126" y2="1126"/>
  <line id="Capline-M" style="fill:none;stroke:#27AAE1;opacity:1;stroke-width:0.5;" x1="263" x2="3036" y1="1055.54" y2="1055.54"/>
  <g id="H-reference" style="fill:#27AAE1;stroke:none;" transform="matrix(1 0 0 1 339 1556)">
   <path d="M0.993654 0L3.63775 0L29.3281-67.1323L30.0303-67.1323L30.0303-70.459L28.1226-70.459ZM11.6885-24.4799L46.9815-24.4799L46.2315-26.7285L12.4385-26.7285ZM55.1196 0L57.7637 0L30.6382-70.459L29.4326-70.459L29.4326-67.1323Z"/>
  </g>
  <line id="Baseline-L" style="fill:none;stroke:#27AAE1;opacity:1;stroke-width:0.5;" x1="263" x2="3036" y1="1556" y2="1556"/>
  <line id="Capline-L" style="fill:none;stroke:#27AAE1;opacity:1;stroke-width:0.5;" x1="263" x2="3036" y1="1485.54" y2="1485.54"/>
  <line id="right-margin-Black-S" style="fill:none;stroke:#00AEEF;stroke-width:0.5;opacity:1.0;" x1="2981.3" x2="2981.3" y1="600.785" y2="720.121"/>
  <line id="left-margin-Black-S" style="fill:none;stroke:#00AEEF;stroke-width:0.5;opacity:1.0;" x1="2885.5" x2="2885.5" y1="600.785" y2="720.121"/>
  <line id="right-margin-Regular-S" style="fill:none;stroke:#00AEEF;stroke-width:0.5;opacity:1.0;" x1="1495.18" x2="1495.18" y1="600.785" y2="720.121"/>
  <line id="left-margin-Regular-S" style="fill:none;stroke:#00AEEF;stroke-width:0.5;opacity:1.0;" x1="1404.51" x2="1404.51" y1="600.785" y2="720.121"/>
  <line id="right-margin-Ultralight-S" style="fill:none;stroke:#00AEEF;stroke-width:0.5;opacity:1.0;" x1="603.073" x2="603.073" y1="600.785" y2="720.121"/>
  <line id="left-margin-Ultralight-S" style="fill:none;stroke:#00AEEF;stroke-width:0.5;opacity:1.0;" x1="516.35" x2="516.35" y1="600.785" y2="720.121"/>
 </g>
 <g id="Symbols">
  <g id="Black-S"><path d="M2912.28141,628.82112c-0.27009,0.04991 -0.66642,0.17908 -0.88074,0.28771c-0.61064,0.30532 -9.18022,8.93361 -9.50022,9.56481c-0.37285,0.73688 -0.37285,1.85542 0.00294,2.5835c0.1556,0.29945 1.06276,1.33285 2.1079,2.39267c3.23231,3.29102 4.31561,4.11598 6.21507,4.75011c0.79854,0.26422 1.09799,0.29945 2.60405,0.30239c1.60881,0 1.76147,-0.01761 2.75964,-0.36697l1.05688,-0.36697l1.86423,1.85542l1.86716,1.85836l-1.38569,1.51193c-3.05909,3.33799 -5.30204,6.23562 -7.4804,9.65288c-4.57103,7.17801 -7.97067,15.64483 -10.07857,25.08927c-0.42569,1.9112 -0.41395,2.59818 0.05872,3.40845c0.57542,0.97762 1.69689,1.5501 2.80662,1.42973c0.7545,-0.0822 5.23745,-1.36808 8.35526,-2.39267c11.37913,-3.74901 20.50356,-8.51086 28.27754,-14.75822l1.87891,-1.509l1.55891,1.56771l1.55891,1.56771l-0.36697,1.05688c-0.34936,0.99817 -0.36697,1.15083 -0.36697,2.75964c0.00294,1.50606 0.03817,1.80551 0.30239,2.60405c0.63413,1.89946 1.45909,2.98276 4.75011,6.21507c1.05982,1.04514 2.09322,1.9523 2.39267,2.1079c0.72808,0.37578 1.84661,0.37578 2.5835,0.00294c0.73395,-0.37285 9.26536,-8.90425 9.6382,-9.6382c0.37285,-0.73688 0.37285,-1.85542 -0.00294,-2.5835c-0.1556,-0.29945 -1.06276,-1.33285 -2.1079,-2.39267c-3.29396,-3.34974 -4.41837,-4.19818 -6.28553,-4.7413c-1.7967,-0.51964 -3.71378,-0.46973 -5.51929,0.14385l-0.83083,0.28184l-1.5178,-1.509l-1.5178,-1.51193l1.11854,-1.21248c6.88443,-7.47452 12.08959,-16.77511 15.30428,-27.34689c1.04514,-3.44368 2.17249,-8.09691 2.17249,-8.96297c-0.00294,-0.98055 -0.84257,-2.19891 -1.7879,-2.5923c-0.97762,-0.40807 -2.01102,-0.20844 -7.37177,1.42679c-12.22757,3.72845 -23.10761,9.24774 -30.93737,15.69767l-0.81321,0.6723l-1.96698,-1.97285l-1.96404,-1.97285l0.36697,-1.05688c0.34936,-0.99817 0.36697,-1.15083 0.36697,-2.75964c-0.00294,-1.50606 -0.03817,-1.80551 -0.30239,-2.60405c-0.63413,-1.90239 -1.45615,-2.97689 -4.76479,-6.23268c-2.25762,-2.22239 -2.8712,-2.55707 -4.21873,-2.30753M2914.16032,637.14115c1.04221,1.08037 1.2712,1.38276 1.42386,1.89946c0.22899,0.76918 0.22899,1.08037 0.00294,1.83487c-0.33174,1.11854 -1.56771,2.0257 -2.75671,2.0257c-0.95413,0 -1.51487,-0.32294 -2.87708,-1.65872l-1.29175,-1.26826l2.05505,-2.05799c1.12734,-1.13322 2.08441,-2.06093 2.12551,-2.06093c0.0411,0 0.63413,0.57835 1.31817,1.28588M2958.43792,637.88097c-0.50496,1.87891 -2.10496,6.5292 -2.90937,8.45508c-1.33285,3.1912 -3.19708,6.8903 -4.56222,9.05104l-0.3611,0.56954l-5.55745,-5.55745c-5.55158,-5.55158 -5.56039,-5.56039 -5.29617,-5.76002c0.38752,-0.29651 4.94387,-2.5512 6.79929,-3.36735c1.89359,-0.83376 4.88222,-2.01982 6.85214,-2.72148c1.01872,-0.36404 4.98497,-1.67047 5.30497,-1.74973c0.01174,-0.00294 -0.10862,0.48441 -0.27009,1.08037M2947.07641,661.09721c-0.0822,0.09982 -0.65468,0.78973 -1.26533,1.53248c-0.61358,0.74276 -1.5178,1.77322 -2.01102,2.28992l-0.89248,0.93945l-6.98425,-6.97544l-6.98425,-6.97544l0.49028,-0.41101c0.78679,-0.65762 2.19597,-1.7145 3.55524,-2.66863l1.26826,-0.88661l6.4881,6.4881c5.59562,5.59268 6.46755,6.51158 6.33544,6.66718M2931.61947,662.93208l6.98718,6.99305l-0.46973,0.41395c-0.7134,0.62826 -3.07084,2.44845 -3.96919,3.06497l-0.7956,0.54606l-6.59379,-6.59085l-6.59085,-6.59085l1.12147,-1.32991c1.2389,-1.4679 3.12662,-3.5024 3.24698,-3.5024c0.0411,0 3.22056,3.14717 7.06351,6.99599M2922.51264,671.43119c3.16185,3.16478 5.72479,5.77177 5.69543,5.79525c-0.12037,0.09982 -2.9446,1.61762 -3.9457,2.11964c-2.75964,1.37982 -6.79342,3.10313 -10.08151,4.30387c-2.13726,0.77798 -5.92736,2.01689 -6.04479,1.97285c-0.11743,-0.0411 0.46973,-2.11964 1.33872,-4.7325c1.18312,-3.56111 2.76845,-7.28957 4.47121,-10.51013c0.84844,-1.60001 2.6657,-4.69433 2.75964,-4.69727c0.03229,0 2.64515,2.58643 5.80699,5.74828M2954.85919,678.31268c0.52257,0.1556 0.81321,0.37578 1.92881,1.46202l1.3123,1.28l-2.09028,2.09028l-2.09028,2.09028l-1.28,-1.3123c-1.08624,-1.1156 -1.30643,-1.40624 -1.46202,-1.92881c-0.22899,-0.77211 -0.22899,-1.08037 -0.00294,-1.83781c0.32881,-1.10679 1.51487,-1.99047 2.7068,-2.01689c0.1967,-0.00587 0.63707,0.07339 0.97762,0.17321" className="SFSymbolsPreviewWireframe"/></g>
  <g id="Regular-S"><path d="M1428.72636,628.82112c-0.27009,0.04991 -0.66642,0.17908 -0.88074,0.28771c-0.61064,0.30532 -9.18022,8.93361 -9.50022,9.56481c-0.37285,0.73688 -0.37285,1.85542 0.00294,2.5835c0.1556,0.29945 1.06276,1.33285 2.1079,2.39267c3.23231,3.29102 4.31561,4.11598 6.21507,4.75011c0.79854,0.26422 1.09799,0.29945 2.60405,0.30239c1.60881,0 1.76147,-0.01761 2.75964,-0.36697l1.05688,-0.36697l1.86423,1.85542l1.86716,1.85836l-1.38569,1.51193c-3.05909,3.33799 -5.30204,6.23562 -7.4804,9.65288c-4.57103,7.17801 -7.97067,15.64483 -10.07857,25.08927c-0.42569,1.9112 -0.41395,2.59818 0.05872,3.40845c0.57542,0.97762 1.69689,1.5501 2.80662,1.42973c0.7545,-0.0822 5.23745,-1.36808 8.35526,-2.39267c11.37913,-3.74901 20.50356,-8.51086 28.27754,-14.75822l1.87891,-1.509l1.55891,1.56771l1.55891,1.56771l-0.36697,1.05688c-0.34936,0.99817 -0.36697,1.15083 -0.36697,2.75964c0.00294,1.50606 0.03817,1.80551 0.30239,2.60405c0.63413,1.89946 1.45909,2.98276 4.75011,6.21507c1.05982,1.04514 2.09322,1.9523 2.39267,2.1079c0.72808,0.37578 1.84661,0.37578 2.5835,0.00294c0.73395,-0.37285 9.26536,-8.90425 9.6382,-9.6382c0.37285,-0.73688 0.37285,-1.85542 -0.00294,-2.5835c-0.1556,-0.29945 -1.06276,-1.33285 -2.1079,-2.39267c-3.29396,-3.34974 -4.41837,-4.19818 -6.28553,-4.7413c-1.7967,-0.51964 -3.71378,-0.46973 -5.51929,0.14385l-0.83083,0.28184l-1.5178,-1.509l-1.5178,-1.51193l1.11854,-1.21248c6.88443,-7.47452 12.08959,-16.77511 15.30428,-27.34689c1.04514,-3.44368 2.17249,-8.09691 2.17249,-8.96297c-0.00294,-0.98055 -0.84257,-2.19891 -1.7879,-2.5923c-0.97762,-0.40807 -2.01102,-0.20844 -7.37177,1.42679c-12.22757,3.72845 -23.10761,9.24774 -30.93737,15.69767l-0.81321,0.6723l-1.96698,-1.97285l-1.96404,-1.97285l0.36697,-1.05688c0.34936,-0.99817 0.36697,-1.15083 0.36697,-2.75964c-0.00294,-1.50606 -0.03817,-1.80551 -0.30239,-2.60405c-0.63413,-1.90239 -1.45615,-2.97689 -4.76479,-6.23268c-2.25762,-2.22239 -2.8712,-2.55707 -4.21873,-2.30753M1430.60527,637.14115c1.04221,1.08037 1.2712,1.38276 1.42386,1.89946c0.22899,0.76918 0.22899,1.08037 0.00294,1.83487c-0.33174,1.11854 -1.56771,2.0257 -2.75671,2.0257c-0.95413,0 -1.51487,-0.32294 -2.87708,-1.65872l-1.29175,-1.26826l2.05505,-2.05799c1.12734,-1.13322 2.08441,-2.06093 2.12551,-2.06093c0.0411,0 0.63413,0.57835 1.31817,1.28588M1474.88287,637.88097c-0.50496,1.87891 -2.10496,6.5292 -2.90937,8.45508c-1.33285,3.1912 -3.19708,6.8903 -4.56222,9.05104l-0.3611,0.56954l-5.55745,-5.55745c-5.55158,-5.55158 -5.56039,-5.56039 -5.29617,-5.76002c0.38752,-0.29651 4.94387,-2.5512 6.79929,-3.36735c1.89359,-0.83376 4.88222,-2.01982 6.85214,-2.72148c1.01872,-0.36404 4.98497,-1.67047 5.30497,-1.74973c0.01174,-0.00294 -0.10862,0.48441 -0.27009,1.08037M1463.52136,661.09721c-0.0822,0.09982 -0.65468,0.78973 -1.26533,1.53248c-0.61358,0.74276 -1.5178,1.77322 -2.01102,2.28992l-0.89248,0.93945l-6.98425,-6.97544l-6.98425,-6.97544l0.49028,-0.41101c0.78679,-0.65762 2.19597,-1.7145 3.55524,-2.66863l1.26826,-0.88661l6.4881,6.4881c5.59562,5.59268 6.46755,6.51158 6.33544,6.66718M1448.06442,662.93208l6.98718,6.99305l-0.46973,0.41395c-0.7134,0.62826 -3.07084,2.44845 -3.96919,3.06497l-0.7956,0.54606l-6.59379,-6.59085l-6.59085,-6.59085l1.12147,-1.32991c1.2389,-1.4679 3.12662,-3.5024 3.24698,-3.5024c0.0411,0 3.22056,3.14717 7.06351,6.99599M1438.95759,671.43119c3.16185,3.16478 5.72479,5.77177 5.69543,5.79525c-0.12037,0.09982 -2.9446,1.61762 -3.9457,2.11964c-2.75964,1.37982 -6.79342,3.10313 -10.08151,4.30387c-2.13726,0.77798 -5.92736,2.01689 -6.04479,1.97285c-0.11743,-0.0411 0.46973,-2.11964 1.33872,-4.7325c1.18312,-3.56111 2.76845,-7.28957 4.47121,-10.51013c0.84844,-1.60001 2.6657,-4.69433 2.75964,-4.69727c0.03229,0 2.64515,2.58643 5.80699,5.74828M1471.30414,678.31268c0.52257,0.1556 0.81321,0.37578 1.92881,1.46202l1.3123,1.28l-2.09028,2.09028l-2.09028,2.09028l-1.28,-1.3123c-1.08624,-1.1156 -1.30643,-1.40624 -1.46202,-1.92881c-0.22899,-0.77211 -0.22899,-1.08037 -0.00294,-1.83781c0.32881,-1.10679 1.51487,-1.99047 2.7068,-2.01689c0.1967,-0.00587 0.63707,0.07339 0.97762,0.17321" className="SFSymbolsPreviewWireframe"/></g>
  <g id="Ultralight-S"><path d="M538.59277,628.82112c-0.27009,0.04991 -0.66642,0.17908 -0.88074,0.28771c-0.61064,0.30532 -9.18022,8.93361 -9.50022,9.56481c-0.37285,0.73688 -0.37285,1.85542 0.00294,2.5835c0.1556,0.29945 1.06276,1.33285 2.1079,2.39267c3.23231,3.29102 4.31561,4.11598 6.21507,4.75011c0.79854,0.26422 1.09799,0.29945 2.60405,0.30239c1.60881,0 1.76147,-0.01761 2.75964,-0.36697l1.05688,-0.36697l1.86423,1.85542l1.86716,1.85836l-1.38569,1.51193c-3.05909,3.33799 -5.30204,6.23562 -7.4804,9.65288c-4.57103,7.17801 -7.97067,15.64483 -10.07857,25.08927c-0.42569,1.9112 -0.41395,2.59818 0.05872,3.40845c0.57542,0.97762 1.69689,1.5501 2.80662,1.42973c0.7545,-0.0822 5.23745,-1.36808 8.35526,-2.39267c11.37913,-3.74901 20.50356,-8.51086 28.27754,-14.75822l1.87891,-1.509l1.55891,1.56771l1.55891,1.56771l-0.36697,1.05688c-0.34936,0.99817 -0.36697,1.15083 -0.36697,2.75964c0.00294,1.50606 0.03817,1.80551 0.30239,2.60405c0.63413,1.89946 1.45909,2.98276 4.75011,6.21507c1.05982,1.04514 2.09322,1.9523 2.39267,2.1079c0.72808,0.37578 1.84661,0.37578 2.5835,0.00294c0.73395,-0.37285 9.26536,-8.90425 9.6382,-9.6382c0.37285,-0.73688 0.37285,-1.85542 -0.00294,-2.5835c-0.1556,-0.29945 -1.06276,-1.33285 -2.1079,-2.39267c-3.29396,-3.34974 -4.41837,-4.19818 -6.28553,-4.7413c-1.7967,-0.51964 -3.71378,-0.46973 -5.51929,0.14385l-0.83083,0.28184l-1.5178,-1.509l-1.5178,-1.51193l1.11854,-1.21248c6.88443,-7.47452 12.08959,-16.77511 15.30428,-27.34689c1.04514,-3.44368 2.17249,-8.09691 2.17249,-8.96297c-0.00294,-0.98055 -0.84257,-2.19891 -1.7879,-2.5923c-0.97762,-0.40807 -2.01102,-0.20844 -7.37177,1.42679c-12.22757,3.72845 -23.10761,9.24774 -30.93737,15.69767l-0.81321,0.6723l-1.96698,-1.97285l-1.96404,-1.97285l0.36697,-1.05688c0.34936,-0.99817 0.36697,-1.15083 0.36697,-2.75964c-0.00294,-1.50606 -0.03817,-1.80551 -0.30239,-2.60405c-0.63413,-1.90239 -1.45615,-2.97689 -4.76479,-6.23268c-2.25762,-2.22239 -2.8712,-2.55707 -4.21873,-2.30753M540.47168,637.14115c1.04221,1.08037 1.2712,1.38276 1.42386,1.89946c0.22899,0.76918 0.22899,1.08037 0.00294,1.83487c-0.33174,1.11854 -1.56771,2.0257 -2.75671,2.0257c-0.95413,0 -1.51487,-0.32294 -2.87708,-1.65872l-1.29175,-1.26826l2.05505,-2.05799c1.12734,-1.13322 2.08441,-2.06093 2.12551,-2.06093c0.0411,0 0.63413,0.57835 1.31817,1.28588M584.74928,637.88097c-0.50496,1.87891 -2.10496,6.5292 -2.90937,8.45508c-1.33285,3.1912 -3.19708,6.8903 -4.56222,9.05104l-0.3611,0.56954l-5.55745,-5.55745c-5.55158,-5.55158 -5.56039,-5.56039 -5.29617,-5.76002c0.38752,-0.29651 4.94387,-2.5512 6.79929,-3.36735c1.89359,-0.83376 4.88222,-2.01982 6.85214,-2.72148c1.01872,-0.36404 4.98497,-1.67047 5.30497,-1.74973c0.01174,-0.00294 -0.10862,0.48441 -0.27009,1.08037M573.38777,661.09721c-0.0822,0.09982 -0.65468,0.78973 -1.26533,1.53248c-0.61358,0.74276 -1.5178,1.77322 -2.01102,2.28992l-0.89248,0.93945l-6.98425,-6.97544l-6.98425,-6.97544l0.49028,-0.41101c0.78679,-0.65762 2.19597,-1.7145 3.55524,-2.66863l1.26826,-0.88661l6.4881,6.4881c5.59562,5.59268 6.46755,6.51158 6.33544,6.66718M557.93083,662.93208l6.98718,6.99305l-0.46973,0.41395c-0.7134,0.62826 -3.07084,2.44845 -3.96919,3.06497l-0.7956,0.54606l-6.59379,-6.59085l-6.59085,-6.59085l1.12147,-1.32991c1.2389,-1.4679 3.12662,-3.5024 3.24698,-3.5024c0.0411,0 3.22056,3.14717 7.06351,6.99599M548.824,671.43119c3.16185,3.16478 5.72479,5.77177 5.69543,5.79525c-0.12037,0.09982 -2.9446,1.61762 -3.9457,2.11964c-2.75964,1.37982 -6.79342,3.10313 -10.08151,4.30387c-2.13726,0.77798 -5.92736,2.01689 -6.04479,1.97285c-0.11743,-0.0411 0.46973,-2.11964 1.33872,-4.7325c1.18312,-3.56111 2.76845,-7.28957 4.47121,-10.51013c0.84844,-1.60001 2.6657,-4.69433 2.75964,-4.69727c0.03229,0 2.64515,2.58643 5.80699,5.74828M581.17055,678.31268c0.52257,0.1556 0.81321,0.37578 1.92881,1.46202l1.3123,1.28l-2.09028,2.09028l-2.09028,2.09028l-1.28,-1.3123c-1.08624,-1.1156 -1.30643,-1.40624 -1.46202,-1.92881c-0.22899,-0.77211 -0.22899,-1.08037 -0.00294,-1.83781c0.32881,-1.10679 1.51487,-1.99047 2.7068,-2.01689c0.1967,-0.00587 0.63707,0.07339 0.97762,0.17321" className="SFSymbolsPreviewWireframe"/></g>
 </g>
</svg>