<?xml version="1.0" encoding="UTF-8"?><!--Generator: https://SymbolKit.app--><!DOCTYPE svg PUBLIC "-//W3C//DTD SVG 1.1//EN" "http://www.w3.org/Graphics/SVG/1.1/DTD/svg11.dtd"><svg xmlns="http://www.w3.org/2000/svg" xmlns:xlink="http://www.w3.org/1999/xlink" version="1.1" viewBox="0 0 3300 2200">
 <!--glyph: "100092", point size: 100.0, font version: "20.0d10e1", template writer version: "138.0.0"-->
 <style>.SFSymbolsPreviewWireframe {fill:none;opacity:1.0;stroke:black;stroke-width:0.5}
</style>
 <g id="Notes">
  <rect height="2200" id="artboard" style="fill:white;opacity:1" width="3300" x="0" y="0"/>
  <line style="fill:none;stroke:black;opacity:1;stroke-width:0.5;" x1="263" x2="3036" y1="292" y2="292"/>
  <text style="stroke:none;fill:black;font-family:sans-serif;font-size:13;font-weight:bold;" transform="matrix(1 0 0 1 263 322)">Weight/Scale Variations</text>
  <text style="stroke:none;fill:black;font-family:sans-serif;font-size:13;text-anchor:middle;" transform="matrix(1 0 0 1 559.711 322)">Ultralight</text>
  <text style="stroke:none;fill:black;font-family:sans-serif;font-size:13;text-anchor:middle;" transform="matrix(1 0 0 1 856.422 322)">Thin</text>
  <text style="stroke:none;fill:black;font-family:sans-serif;font-size:13;text-anchor:middle;" transform="matrix(1 0 0 1 1153.13 322)">Light</text>
  <text style="stroke:none;fill:black;font-family:sans-serif;font-size:13;text-anchor:middle;" transform="matrix(1 0 0 1 1449.84 322)">Regular</text>
  <text style="stroke:none;fill:black;font-family:sans-serif;font-size:13;text-anchor:middle;" transform="matrix(1 0 0 1 1746.56 322)">Medium</text>
  <text style="stroke:none;fill:black;font-family:sans-serif;font-size:13;text-anchor:middle;" transform="matrix(1 0 0 1 2043.27 322)">Semibold</text>
  <text style="stroke:none;fill:black;font-family:sans-serif;font-size:13;text-anchor:middle;" transform="matrix(1 0 0 1 2339.98 322)">Bold</text>
  <text style="stroke:none;fill:black;font-family:sans-serif;font-size:13;text-anchor:middle;" transform="matrix(1 0 0 1 2636.69 322)">Heavy</text>
  <text style="stroke:none;fill:black;font-family:sans-serif;font-size:13;text-anchor:middle;" transform="matrix(1 0 0 1 2933.4 322)">Black</text>
  <line style="fill:none;stroke:black;opacity:1;stroke-width:0.5;" x1="263" x2="3036" y1="1903" y2="1903"/>
  <g transform="matrix(0.2 0 0 0.2 263 1933)">
   <path d="m46.2402 4.15039c21.7773 0 39.4531-17.627 39.4531-39.4043s-17.6758-39.4043-39.4531-39.4043c-21.7285 0-39.4043 17.627-39.4043 39.4043s17.6758 39.4043 39.4043 39.4043Zm0-7.42188c-17.6758 0-31.9336-14.3066-31.9336-31.9824s14.2578-31.9824 31.9336-31.9824 31.9824 14.3066 31.9824 31.9824-14.3066 31.9824-31.9824 31.9824Zm-17.9688-31.9824c0 2.14844 1.51367 3.61328 3.75977 3.61328h10.498v10.5957c0 2.19727 1.46484 3.71094 3.61328 3.71094 2.24609 0 3.71094-1.51367 3.71094-3.71094v-10.5957h10.5957c2.19727 0 3.71094-1.46484 3.71094-3.61328 0-2.19727-1.51367-3.71094-3.71094-3.71094h-10.5957v-10.5469c0-2.24609-1.46484-3.75977-3.71094-3.75977-2.14844 0-3.61328 1.51367-3.61328 3.75977v10.5469h-10.498c-2.24609 0-3.75977 1.51367-3.75977 3.71094Z"/>
  </g>
  <g transform="matrix(0.2 0 0 0.2 281.506 1933)">
   <path d="m58.5449 14.5508c27.4902 0 49.8047-22.3145 49.8047-49.8047s-22.3145-49.8047-49.8047-49.8047-49.8047 22.3145-49.8047 49.8047 22.3145 49.8047 49.8047 49.8047Zm0-8.30078c-22.9492 0-41.5039-18.5547-41.5039-41.5039s18.5547-41.5039 41.5039-41.5039 41.5039 18.5547 41.5039 41.5039-18.5547 41.5039-41.5039 41.5039Zm-22.6562-41.5039c0 2.39258 1.66016 4.00391 4.15039 4.00391h14.3555v14.4043c0 2.44141 1.66016 4.15039 4.05273 4.15039 2.44141 0 4.15039-1.66016 4.15039-4.15039v-14.4043h14.4043c2.44141 0 4.15039-1.61133 4.15039-4.00391 0-2.44141-1.70898-4.15039-4.15039-4.15039h-14.4043v-14.3555c0-2.49023-1.70898-4.19922-4.15039-4.19922-2.39258 0-4.05273 1.70898-4.05273 4.19922v14.3555h-14.3555c-2.49023 0-4.15039 1.70898-4.15039 4.15039Z"/>
  </g>
  <g transform="matrix(0.2 0 0 0.2 304.924 1933)">
   <path d="m74.8535 28.3203c35.1074 0 63.623-28.4668 63.623-63.5742s-28.5156-63.623-63.623-63.623-63.5742 28.5156-63.5742 63.623 28.4668 63.5742 63.5742 63.5742Zm0-9.08203c-30.127 0-54.4922-24.3652-54.4922-54.4922s24.3652-54.4922 54.4922-54.4922 54.4922 24.3652 54.4922 54.4922-24.3652 54.4922-54.4922 54.4922Zm-28.8574-54.4922c0 2.58789 1.85547 4.39453 4.58984 4.39453h19.7266v19.7754c0 2.68555 1.85547 4.58984 4.44336 4.58984 2.68555 0 4.54102-1.85547 4.54102-4.58984v-19.7754h19.7754c2.68555 0 4.58984-1.80664 4.58984-4.39453 0-2.73438-1.85547-4.58984-4.58984-4.58984h-19.7754v-19.7266c0-2.73438-1.85547-4.63867-4.54102-4.63867-2.58789 0-4.44336 1.9043-4.44336 4.63867v19.7266h-19.7266c-2.73438 0-4.58984 1.85547-4.58984 4.58984Z"/>
  </g>
  <text style="stroke:none;fill:black;font-family:sans-serif;font-size:13;font-weight:bold;" transform="matrix(1 0 0 1 263 1953)">Design Variations</text>
  <text style="stroke:none;fill:black;font-family:sans-serif;font-size:13;" transform="matrix(1 0 0 1 263 1971)">Symbols are supported in up to nine weights and three scales.</text>
  <text style="stroke:none;fill:black;font-family:sans-serif;font-size:13;" transform="matrix(1 0 0 1 263 1989)">For optimal layout with text and other symbols, vertically align</text>
  <text style="stroke:none;fill:black;font-family:sans-serif;font-size:13;" transform="matrix(1 0 0 1 263 2007)">symbols with the adjacent text.</text>
  <line style="fill:none;stroke:#00AEEF;stroke-width:0.5;opacity:1.0;" x1="776" x2="776" y1="1919" y2="1933"/>
  <g transform="matrix(0.2 0 0 0.2 776 1933)">
   <path d="m16.5527 0.78125c2.58789 0 3.85742-0.976562 4.78516-3.71094l6.29883-17.2363h28.8086l6.29883 17.2363c0.927734 2.73438 2.19727 3.71094 4.73633 3.71094 2.58789 0 4.24805-1.5625 4.24805-4.00391 0-0.830078-0.146484-1.61133-0.537109-2.63672l-22.9004-60.9863c-1.12305-2.97852-3.125-4.49219-6.25-4.49219-3.02734 0-5.07812 1.46484-6.15234 4.44336l-22.9004 61.084c-0.390625 1.02539-0.537109 1.80664-0.537109 2.63672 0 2.44141 1.5625 3.95508 4.10156 3.95508Zm13.4766-28.3691 11.8652-32.8613h0.244141l11.8652 32.8613Z"/>
  </g>
  <line style="fill:none;stroke:#00AEEF;stroke-width:0.5;opacity:1.0;" x1="792.836" x2="792.836" y1="1919" y2="1933"/>
  <text style="stroke:none;fill:black;font-family:sans-serif;font-size:13;font-weight:bold;" transform="matrix(1 0 0 1 776 1953)">Margins</text>
  <text style="stroke:none;fill:black;font-family:sans-serif;font-size:13;" transform="matrix(1 0 0 1 776 1971)">Leading and trailing margins on the left and right side of each symbol</text>
  <text style="stroke:none;fill:black;font-family:sans-serif;font-size:13;" transform="matrix(1 0 0 1 776 1989)">can be adjusted by modifying the x-location of the margin guidelines.</text>
  <text style="stroke:none;fill:black;font-family:sans-serif;font-size:13;" transform="matrix(1 0 0 1 776 2007)">Modifications are automatically applied proportionally to all</text>
  <text style="stroke:none;fill:black;font-family:sans-serif;font-size:13;" transform="matrix(1 0 0 1 776 2025)">scales and weights.</text>
  <g transform="matrix(0.2 0 0 0.2 1289 1933)">
   <path d="m14.209 9.32617 8.49609 8.54492c4.29688 4.3457 9.22852 4.05273 13.8672-1.07422l53.4668-58.9355-4.83398-4.88281-53.0762 58.3984c-1.75781 2.00195-3.41797 2.49023-5.76172 0.146484l-5.85938-5.81055c-2.34375-2.29492-1.80664-4.00391 0.195312-5.81055l57.373-54.0039-4.88281-4.83398-57.959 54.4434c-4.93164 4.58984-5.32227 9.47266-1.02539 13.8184Zm32.0801-90.9668c-2.09961 2.05078-2.24609 4.93164-1.07422 6.88477 1.17188 1.80664 3.4668 2.97852 6.68945 2.14844 7.32422-1.70898 14.9414-2.00195 22.0703 2.68555l-2.92969 7.27539c-1.70898 4.15039-0.830078 7.08008 1.85547 9.81445l11.4746 11.5723c2.44141 2.44141 4.49219 2.53906 7.32422 2.05078l5.32227-0.976562 3.32031 3.36914-0.195312 2.7832c-0.195312 2.49023 0.439453 4.39453 2.88086 6.78711l3.80859 3.71094c2.39258 2.39258 5.46875 2.53906 7.8125 0.195312l14.5508-14.5996c2.34375-2.34375 2.24609-5.32227-0.146484-7.71484l-3.85742-3.80859c-2.39258-2.39258-4.24805-3.17383-6.64062-2.97852l-2.88086 0.244141-3.22266-3.17383 1.2207-5.61523c0.634766-2.83203-0.146484-5.0293-3.07617-7.95898l-10.9863-10.9375c-16.6992-16.6016-38.8672-16.2109-53.3203-1.75781Zm7.4707 1.85547c12.1582-8.88672 28.6133-7.37305 39.7461 3.75977l12.1582 12.0605c1.17188 1.17188 1.36719 2.09961 1.02539 3.80859l-1.61133 7.42188 7.51953 7.42188 4.93164-0.292969c1.26953-0.0488281 1.66016 0.0488281 2.63672 1.02539l2.88086 2.88086-12.207 12.207-2.88086-2.88086c-0.976562-0.976562-1.12305-1.36719-1.07422-2.68555l0.341797-4.88281-7.4707-7.42188-7.61719 1.26953c-1.61133 0.341797-2.34375 0.195312-3.56445-0.976562l-10.0098-10.0098c-1.26953-1.17188-1.41602-2.00195-0.634766-3.85742l4.39453-10.4492c-7.8125-7.27539-17.9688-10.4004-28.125-7.42188-0.78125 0.195312-1.07422-0.439453-0.439453-0.976562Z"/>
  </g>
  <text style="stroke:none;fill:black;font-family:sans-serif;font-size:13;font-weight:bold;" transform="matrix(1 0 0 1 1289 1953)">Exporting</text>
  <text style="stroke:none;fill:black;font-family:sans-serif;font-size:13;" transform="matrix(1 0 0 1 1289 1971)">Symbols should be outlined when exporting to ensure the</text>
  <text style="stroke:none;fill:black;font-family:sans-serif;font-size:13;" transform="matrix(1 0 0 1 1289 1989)">design is preserved when submitting to Xcode.</text>
  <text id="template-version" style="stroke:none;fill:black;font-family:sans-serif;font-size:13;text-anchor:end;" transform="matrix(1 0 0 1 3036 1933)">Template v.6.0</text>
  <text style="stroke:none;fill:black;font-family:sans-serif;font-size:13;text-anchor:end;" transform="matrix(1 0 0 1 3036 1951)">Requires Xcode 16 or greater</text>
  <text id="descriptive-name" style="stroke:none;fill:black;font-family:sans-serif;font-size:13;text-anchor:end;" transform="matrix(1 0 0 1 3036 1969)">Generated from square</text>
  <text style="stroke:none;fill:black;font-family:sans-serif;font-size:13;text-anchor:end;" transform="matrix(1 0 0 1 3036 1987)">Typeset at 100.0 points</text>
  <text style="stroke:none;fill:black;font-family:sans-serif;font-size:13;" transform="matrix(1 0 0 1 263 726)">Small</text>
  <text style="stroke:none;fill:black;font-family:sans-serif;font-size:13;" transform="matrix(1 0 0 1 263 1156)">Medium</text>
  <text style="stroke:none;fill:black;font-family:sans-serif;font-size:13;" transform="matrix(1 0 0 1 263 1586)">Large</text>
 </g>
 <g id="Guides">
  <g id="H-reference" style="fill:#27AAE1;stroke:none;" transform="matrix(1 0 0 1 339 696)">
   <path d="M0.993654 0L3.63775 0L29.3281-67.1323L30.0303-67.1323L30.0303-70.459L28.1226-70.459ZM11.6885-24.4799L46.9815-24.4799L46.2315-26.7285L12.4385-26.7285ZM55.1196 0L57.7637 0L30.6382-70.459L29.4326-70.459L29.4326-67.1323Z"/>
  </g>
  <line id="Baseline-S" style="fill:none;stroke:#27AAE1;opacity:1;stroke-width:0.5;" x1="263" x2="3036" y1="696" y2="696"/>
  <line id="Capline-S" style="fill:none;stroke:#27AAE1;opacity:1;stroke-width:0.5;" x1="263" x2="3036" y1="625.541" y2="625.541"/>
  <g id="H-reference" style="fill:#27AAE1;stroke:none;" transform="matrix(1 0 0 1 339 1126)">
   <path d="M0.993654 0L3.63775 0L29.3281-67.1323L30.0303-67.1323L30.0303-70.459L28.1226-70.459ZM11.6885-24.4799L46.9815-24.4799L46.2315-26.7285L12.4385-26.7285ZM55.1196 0L57.7637 0L30.6382-70.459L29.4326-70.459L29.4326-67.1323Z"/>
  </g>
  <line id="Baseline-M" style="fill:none;stroke:#27AAE1;opacity:1;stroke-width:0.5;" x1="263" x2="3036" y1="1126" y2="1126"/>
  <line id="Capline-M" style="fill:none;stroke:#27AAE1;opacity:1;stroke-width:0.5;" x1="263" x2="3036" y1="1055.54" y2="1055.54"/>
  <g id="H-reference" style="fill:#27AAE1;stroke:none;" transform="matrix(1 0 0 1 339 1556)">
   <path d="M0.993654 0L3.63775 0L29.3281-67.1323L30.0303-67.1323L30.0303-70.459L28.1226-70.459ZM11.6885-24.4799L46.9815-24.4799L46.2315-26.7285L12.4385-26.7285ZM55.1196 0L57.7637 0L30.6382-70.459L29.4326-70.459L29.4326-67.1323Z"/>
  </g>
  <line id="Baseline-L" style="fill:none;stroke:#27AAE1;opacity:1;stroke-width:0.5;" x1="263" x2="3036" y1="1556" y2="1556"/>
  <line id="Capline-L" style="fill:none;stroke:#27AAE1;opacity:1;stroke-width:0.5;" x1="263" x2="3036" y1="1485.54" y2="1485.54"/>
  <line id="right-margin-Black-S" style="fill:none;stroke:#00AEEF;stroke-width:0.5;opacity:1.0;" x1="2981.3" x2="2981.3" y1="600.785" y2="720.121"/>
  <line id="left-margin-Black-S" style="fill:none;stroke:#00AEEF;stroke-width:0.5;opacity:1.0;" x1="2885.5" x2="2885.5" y1="600.785" y2="720.121"/>
  <line id="right-margin-Regular-S" style="fill:none;stroke:#00AEEF;stroke-width:0.5;opacity:1.0;" x1="1495.18" x2="1495.18" y1="600.785" y2="720.121"/>
  <line id="left-margin-Regular-S" style="fill:none;stroke:#00AEEF;stroke-width:0.5;opacity:1.0;" x1="1404.51" x2="1404.51" y1="600.785" y2="720.121"/>
  <line id="right-margin-Ultralight-S" style="fill:none;stroke:#00AEEF;stroke-width:0.5;opacity:1.0;" x1="603.073" x2="603.073" y1="600.785" y2="720.121"/>
  <line id="left-margin-Ultralight-S" style="fill:none;stroke:#00AEEF;stroke-width:0.5;opacity:1.0;" x1="516.35" x2="516.35" y1="600.785" y2="720.121"/>
 </g>
 <g id="Symbols">
  <g id="Black-S"><path d="M2918.8686,631.55812c-0.27009,0.08807 -0.88661,0.37578 -1.37395,0.63707c-2.53065,1.36514 -4.56809,3.56405 -5.46938,5.90094c-0.64294,1.66459 -0.76037,2.3457 -0.7545,4.3391c0.00294,1.6323 0.03817,1.92588 0.32,2.85946c0.3611,1.18606 1.02753,2.57762 1.72331,3.60222l0.4756,0.70165l-0.14092,0.67817l-0.13798,0.6811l-1.24478,-0.62532c-0.76331,-0.38459 -1.68514,-0.73395 -2.38386,-0.9101c-2.05799,-0.51083 -4.68846,-0.50789 -6.43525,0.01174c-0.70165,0.20844 -1.5178,0.89542 -1.82313,1.53542c-0.61945,1.30936 -0.67817,4.59745 -0.1145,6.77287c0.73101,2.83597 2.38093,5.19929 4.79415,6.86682c1.91707,1.32404 3.71378,1.86716 6.6437,2.00221l1.57652,0.07339l0.48734,1.17432c0.26716,0.64587 0.54606,1.28588 0.62239,1.42679c0.13505,0.24073 0.10862,0.25541 -0.79854,0.38752c-3.12075,0.45505 -5.74828,2.13138 -7.45984,4.75305c-1.4356,2.20771 -2.09028,4.52699 -1.68514,5.98314c0.39927,1.43854 3.61396,3.26166 6.56736,3.72258c1.17138,0.18202 3.11781,0.07339 4.20992,-0.24073c3.01506,-0.86019 4.98497,-2.41322 6.74645,-5.31085l0.19376,-0.31707l0.76624,0.46679c0.42275,0.25541 1.01872,0.58129 1.32404,0.72514c0.30532,0.14385 0.57248,0.26716 0.59009,0.2789c0.02055,0.00881 -0.15853,0.32587 -0.39927,0.69872c-0.97468,1.52368 -2.09322,4.24515 -2.44258,5.94204c-0.33468,1.62349 0.25541,2.84478 1.69102,3.49359c1.02459,0.46385 2.28405,0.21725 3.1501,-0.61358c0.51083,-0.48734 0.6312,-0.73688 1.01285,-2.07854c0.38459,-1.35927 1.37395,-3.44075 2.10203,-4.43011c0.61945,-0.8367 1.53542,-1.43854 2.1901,-1.43854c0.65468,0 1.57065,0.60184 2.1901,1.43854c0.72808,0.98936 1.71744,3.07084 2.10203,4.43011c0.38165,1.34166 0.50202,1.5912 1.01285,2.07854c0.89542,0.86019 2.14019,1.08331 3.20882,0.57835c1.09505,-0.51964 1.72037,-1.45615 1.72625,-2.58937c0.00587,-1.41505 -1.26826,-4.82644 -2.57175,-6.86094c-0.22018,-0.34642 -0.38459,-0.64 -0.36404,-0.64881c0.01761,-0.01174 0.28477,-0.13505 0.59009,-0.2789c0.30532,-0.14385 0.90129,-0.46973 1.32404,-0.72514l0.76624,-0.46679l0.19376,0.31707c1.08624,1.78496 2.12551,2.92992 3.49359,3.83414c1.6734,1.10973 3.40258,1.68808 5.35195,1.79083c1.52368,0.07927 2.59818,-0.07927 4.2657,-0.63413c2.21946,-0.73688 4.12185,-2.10496 4.41837,-3.17946c0.39927,-1.43854 -0.26129,-3.77249 -1.69102,-5.96553c-1.74973,-2.68038 -4.50644,-4.38314 -7.78278,-4.80589c-0.58716,-0.07633 -0.61064,-0.09101 -0.47853,-0.33468c0.07633,-0.13798 0.35817,-0.78092 0.62532,-1.42679l0.48734,-1.17432l1.57652,-0.07339c2.88001,-0.13505 4.55635,-0.6312 6.5292,-1.93762c3.42607,-2.26937 5.31965,-5.9714 5.31378,-10.37802c-0.00294,-1.2712 -0.22899,-2.70974 -0.52257,-3.32919c-0.30239,-0.63707 -1.11854,-1.32404 -1.82019,-1.53248c-1.02753,-0.30532 -2.56588,-0.45798 -3.87524,-0.38459c-2.07854,0.11743 -3.52882,0.51083 -5.22277,1.41212l-0.96,0.51083l-0.14385,-0.68698l-0.14092,-0.68698l0.4756,-0.70165c2.19304,-3.22937 2.69212,-6.94021 1.40918,-10.48665c-0.98055,-2.70974 -3.27634,-5.12883 -6.18278,-6.51746c-0.7956,-0.37872 -1.03046,-0.43743 -1.74092,-0.4345c-1.05982,0.00587 -1.509,0.24073 -2.5923,1.36514c-1.43854,1.49432 -2.43083,3.22056 -3.05909,5.32552c-0.27596,0.92477 -0.31707,1.2712 -0.32587,2.75964c-0.01468,2.34276 0.37872,3.88992 1.46202,5.75415c0.9189,1.57652 2.6657,3.29689 4.30974,4.24222c0.33762,0.19376 0.61652,0.37285 0.61652,0.3934c0,0.01761 0.10275,0.53138 0.22606,1.13615c1.01872,4.94681 0.23486,10.68334 -2.01982,14.80813c-1.21248,2.21946 -3.18827,4.52405 -4.94681,5.77177c-6.90498,4.90571 -15.56556,2.0756 -19.74026,-6.447c-1.189,-2.43083 -1.83487,-4.89984 -2.06973,-7.90315c-0.15853,-2.03157 -0.02349,-4.28625 0.37578,-6.22975c0.1233,-0.60477 0.22606,-1.11854 0.22606,-1.13615c0,-0.02055 0.2789,-0.19963 0.61652,-0.3934c1.64404,-0.94532 3.39084,-2.6657 4.30974,-4.24222c1.08037,-1.85836 1.47377,-3.40258 1.46202,-5.75415c-0.00881,-1.49432 -0.04697,-1.83193 -0.32587,-2.75964c-0.38165,-1.27413 -1.05395,-2.71854 -1.72918,-3.72258c-0.66055,-0.98055 -2.04625,-2.40735 -2.62166,-2.70093c-0.58129,-0.29945 -1.62056,-0.37578 -2.26056,-0.16734M2919.4763,638.82421c0.88661,1.9523 0.51376,4.23341 -0.95413,5.83048l-0.58422,0.63413l-0.32587,-0.72808c-0.90129,-2.00515 -0.57835,-4.16002 0.86312,-5.79525c0.27009,-0.30826 0.54312,-0.5578 0.60771,-0.5578c0.06165,0 0.2378,0.2789 0.3934,0.61652M2948.30871,638.76549c1.44147,1.63524 1.76441,3.79011 0.86312,5.79525l-0.32587,0.72808l-0.58422,-0.63413c-1.1156,-1.21248 -1.6323,-2.88882 -1.36808,-4.43011c0.14092,-0.83083 0.61652,-2.01689 0.80734,-2.01689c0.06459,0 0.33762,0.24954 0.60771,0.5578M2928.38643,646.24295c-0.6723,0.21138 -1.28881,0.71046 -1.66459,1.34753c-0.26716,0.45798 -0.31707,0.67523 -0.31707,1.42092c0,0.75156 0.04697,0.96294 0.32587,1.4356c0.17908,0.30239 0.50789,0.69285 0.73395,0.86312c0.76918,0.58716 1.04808,0.62532 4.48882,0.6312l3.20001,0.00587v1.4679v1.4679l-1.84955,0.00587c-2.81836,0.01174 -4.01616,0.4345 -5.38718,1.9112c-1.30349,1.40331 -1.57065,2.32808 -1.57065,5.42241c0,3.1912 0.29651,4.13653 1.74973,5.58975c0.83964,0.83964 1.62056,1.30056 2.67744,1.57358c0.92184,0.24073 7.61544,0.24661 8.2848,0.00881c0.64881,-0.23193 1.21542,-0.70753 1.58239,-1.33285c0.2789,-0.47266 0.32587,-0.68404 0.32587,-1.4356c0,-0.74569 -0.04991,-0.96294 -0.31707,-1.42092c-0.17321,-0.29651 -0.51083,-0.68698 -0.74569,-0.86606c-0.76918,-0.58422 -1.21835,-0.64881 -4.59158,-0.64881h-3.09432v-1.4679v-1.4679h1.85542c2.76552,0 3.80185,-0.34936 5.20222,-1.74973c1.44147,-1.44147 1.74973,-2.42203 1.7468,-5.54865c0,-2.34276 -0.13211,-3.20001 -0.64,-4.20112c-0.39633,-0.78386 -1.42092,-1.86129 -2.24294,-2.3545c-1.21542,-0.73395 -1.77615,-0.81028 -5.74534,-0.81028c-2.5512,0 -3.658,0.04404 -4.00735,0.15266M2908.62269,655.17656c0.90129,0.25541 1.72037,0.73395 2.38093,1.39744c1.0011,1.0011 1.55303,2.15487 1.77322,3.69616l0.07046,0.51083l-0.56074,-0.07927c-1.45322,-0.20844 -2.58056,-0.73982 -3.47891,-1.63817c-1.0011,-0.99817 -1.55597,-2.15487 -1.77028,-3.69029l-0.07339,-0.50496l0.56074,0.07633c0.30826,0.04404 0.80147,0.14679 1.09799,0.23193M2959.74655,655.38207c-0.21431,1.52661 -0.77211,2.68331 -1.77028,3.68148c-0.89835,0.89835 -2.0257,1.42973 -3.47891,1.63817l-0.56074,0.07927l0.07046,-0.51083c0.41395,-2.91524 2.29579,-4.87341 5.1024,-5.31085c0.71927,-0.11156 0.7134,-0.1145 0.63707,0.42275M2917.71483,675.66838l0.30826,0.11743l-0.21431,0.36697c-0.34936,0.60184 -1.49138,1.5501 -2.22827,1.84661c-0.37578,0.15266 -0.98643,0.30532 -1.35927,0.34055c-0.7222,0.06752 -2.08441,-0.1644 -2.08441,-0.35229c0,-0.20844 0.81321,-1.22716 1.23303,-1.5501c0.51083,-0.38752 1.30936,-0.74863 1.96992,-0.88661c0.57248,-0.12037 1.92294,-0.05578 2.37505,0.11743M2952.21918,675.78875c0.34936,0.12917 0.86899,0.41982 1.15964,0.64587c0.50789,0.39633 1.26826,1.32991 1.26826,1.55597c0,0.19083 -1.37101,0.41395 -2.11377,0.34642c-0.90716,-0.0822 -2.06093,-0.61945 -2.78607,-1.30056c-0.64294,-0.60477 -1.0334,-1.1978 -0.85725,-1.30643c0.55193,-0.34349 2.34276,-0.31119 3.32919,0.05872" className="SFSymbolsPreviewWireframe"/></g>
  <g id="Regular-S"><path d="M1435.31355,631.55812c-0.27009,0.08807 -0.88661,0.37578 -1.37395,0.63707c-2.53065,1.36514 -4.56809,3.56405 -5.46938,5.90094c-0.64294,1.66459 -0.76037,2.3457 -0.7545,4.3391c0.00294,1.6323 0.03817,1.92588 0.32,2.85946c0.3611,1.18606 1.02753,2.57762 1.72331,3.60222l0.4756,0.70165l-0.14092,0.67817l-0.13798,0.6811l-1.24478,-0.62532c-0.76331,-0.38459 -1.68514,-0.73395 -2.38386,-0.9101c-2.05799,-0.51083 -4.68846,-0.50789 -6.43525,0.01174c-0.70165,0.20844 -1.5178,0.89542 -1.82313,1.53542c-0.61945,1.30936 -0.67817,4.59745 -0.1145,6.77287c0.73101,2.83597 2.38093,5.19929 4.79415,6.86682c1.91707,1.32404 3.71378,1.86716 6.6437,2.00221l1.57652,0.07339l0.48734,1.17432c0.26716,0.64587 0.54606,1.28588 0.62239,1.42679c0.13505,0.24073 0.10862,0.25541 -0.79854,0.38752c-3.12075,0.45505 -5.74828,2.13138 -7.45984,4.75305c-1.4356,2.20771 -2.09028,4.52699 -1.68514,5.98314c0.39927,1.43854 3.61396,3.26166 6.56736,3.72258c1.17138,0.18202 3.11781,0.07339 4.20992,-0.24073c3.01506,-0.86019 4.98497,-2.41322 6.74645,-5.31085l0.19376,-0.31707l0.76624,0.46679c0.42275,0.25541 1.01872,0.58129 1.32404,0.72514c0.30532,0.14385 0.57248,0.26716 0.59009,0.2789c0.02055,0.00881 -0.15853,0.32587 -0.39927,0.69872c-0.97468,1.52368 -2.09322,4.24515 -2.44258,5.94204c-0.33468,1.62349 0.25541,2.84478 1.69102,3.49359c1.02459,0.46385 2.28405,0.21725 3.1501,-0.61358c0.51083,-0.48734 0.6312,-0.73688 1.01285,-2.07854c0.38459,-1.35927 1.37395,-3.44075 2.10203,-4.43011c0.61945,-0.8367 1.53542,-1.43854 2.1901,-1.43854c0.65468,0 1.57065,0.60184 2.1901,1.43854c0.72808,0.98936 1.71744,3.07084 2.10203,4.43011c0.38165,1.34166 0.50202,1.5912 1.01285,2.07854c0.89542,0.86019 2.14019,1.08331 3.20882,0.57835c1.09505,-0.51964 1.72037,-1.45615 1.72625,-2.58937c0.00587,-1.41505 -1.26826,-4.82644 -2.57175,-6.86094c-0.22018,-0.34642 -0.38459,-0.64 -0.36404,-0.64881c0.01761,-0.01174 0.28477,-0.13505 0.59009,-0.2789c0.30532,-0.14385 0.90129,-0.46973 1.32404,-0.72514l0.76624,-0.46679l0.19376,0.31707c1.08624,1.78496 2.12551,2.92992 3.49359,3.83414c1.6734,1.10973 3.40258,1.68808 5.35195,1.79083c1.52368,0.07927 2.59818,-0.07927 4.2657,-0.63413c2.21946,-0.73688 4.12185,-2.10496 4.41837,-3.17946c0.39927,-1.43854 -0.26129,-3.77249 -1.69102,-5.96553c-1.74973,-2.68038 -4.50644,-4.38314 -7.78278,-4.80589c-0.58716,-0.07633 -0.61064,-0.09101 -0.47853,-0.33468c0.07633,-0.13798 0.35817,-0.78092 0.62532,-1.42679l0.48734,-1.17432l1.57652,-0.07339c2.88001,-0.13505 4.55635,-0.6312 6.5292,-1.93762c3.42607,-2.26937 5.31965,-5.9714 5.31378,-10.37802c-0.00294,-1.2712 -0.22899,-2.70974 -0.52257,-3.32919c-0.30239,-0.63707 -1.11854,-1.32404 -1.82019,-1.53248c-1.02753,-0.30532 -2.56588,-0.45798 -3.87524,-0.38459c-2.07854,0.11743 -3.52882,0.51083 -5.22277,1.41212l-0.96,0.51083l-0.14385,-0.68698l-0.14092,-0.68698l0.4756,-0.70165c2.19304,-3.22937 2.69212,-6.94021 1.40918,-10.48665c-0.98055,-2.70974 -3.27634,-5.12883 -6.18278,-6.51746c-0.7956,-0.37872 -1.03046,-0.43743 -1.74092,-0.4345c-1.05982,0.00587 -1.509,0.24073 -2.5923,1.36514c-1.43854,1.49432 -2.43083,3.22056 -3.05909,5.32552c-0.27596,0.92477 -0.31707,1.2712 -0.32587,2.75964c-0.01468,2.34276 0.37872,3.88992 1.46202,5.75415c0.9189,1.57652 2.6657,3.29689 4.30974,4.24222c0.33762,0.19376 0.61652,0.37285 0.61652,0.3934c0,0.01761 0.10275,0.53138 0.22606,1.13615c1.01872,4.94681 0.23486,10.68334 -2.01982,14.80813c-1.21248,2.21946 -3.18827,4.52405 -4.94681,5.77177c-6.90498,4.90571 -15.56556,2.0756 -19.74026,-6.447c-1.189,-2.43083 -1.83487,-4.89984 -2.06973,-7.90315c-0.15853,-2.03157 -0.02349,-4.28625 0.37578,-6.22975c0.1233,-0.60477 0.22606,-1.11854 0.22606,-1.13615c0,-0.02055 0.2789,-0.19963 0.61652,-0.3934c1.64404,-0.94532 3.39084,-2.6657 4.30974,-4.24222c1.08037,-1.85836 1.47377,-3.40258 1.46202,-5.75415c-0.00881,-1.49432 -0.04697,-1.83193 -0.32587,-2.75964c-0.38165,-1.27413 -1.05395,-2.71854 -1.72918,-3.72258c-0.66055,-0.98055 -2.04625,-2.40735 -2.62166,-2.70093c-0.58129,-0.29945 -1.62056,-0.37578 -2.26056,-0.16734M1435.92125,638.82421c0.88661,1.9523 0.51376,4.23341 -0.95413,5.83048l-0.58422,0.63413l-0.32587,-0.72808c-0.90129,-2.00515 -0.57835,-4.16002 0.86312,-5.79525c0.27009,-0.30826 0.54312,-0.5578 0.60771,-0.5578c0.06165,0 0.2378,0.2789 0.3934,0.61652M1464.75366,638.76549c1.44147,1.63524 1.76441,3.79011 0.86312,5.79525l-0.32587,0.72808l-0.58422,-0.63413c-1.1156,-1.21248 -1.6323,-2.88882 -1.36808,-4.43011c0.14092,-0.83083 0.61652,-2.01689 0.80734,-2.01689c0.06459,0 0.33762,0.24954 0.60771,0.5578M1444.83138,646.24295c-0.6723,0.21138 -1.28881,0.71046 -1.66459,1.34753c-0.26716,0.45798 -0.31707,0.67523 -0.31707,1.42092c0,0.75156 0.04697,0.96294 0.32587,1.4356c0.17908,0.30239 0.50789,0.69285 0.73395,0.86312c0.76918,0.58716 1.04808,0.62532 4.48882,0.6312l3.20001,0.00587v1.4679v1.4679l-1.84955,0.00587c-2.81836,0.01174 -4.01616,0.4345 -5.38718,1.9112c-1.30349,1.40331 -1.57065,2.32808 -1.57065,5.42241c0,3.1912 0.29651,4.13653 1.74973,5.58975c0.83964,0.83964 1.62056,1.30056 2.67744,1.57358c0.92184,0.24073 7.61544,0.24661 8.2848,0.00881c0.64881,-0.23193 1.21542,-0.70753 1.58239,-1.33285c0.2789,-0.47266 0.32587,-0.68404 0.32587,-1.4356c0,-0.74569 -0.04991,-0.96294 -0.31707,-1.42092c-0.17321,-0.29651 -0.51083,-0.68698 -0.74569,-0.86606c-0.76918,-0.58422 -1.21835,-0.64881 -4.59158,-0.64881h-3.09432v-1.4679v-1.4679h1.85542c2.76552,0 3.80185,-0.34936 5.20222,-1.74973c1.44147,-1.44147 1.74973,-2.42203 1.7468,-5.54865c0,-2.34276 -0.13211,-3.20001 -0.64,-4.20112c-0.39633,-0.78386 -1.42092,-1.86129 -2.24294,-2.3545c-1.21542,-0.73395 -1.77615,-0.81028 -5.74534,-0.81028c-2.5512,0 -3.658,0.04404 -4.00735,0.15266M1425.06764,655.17656c0.90129,0.25541 1.72037,0.73395 2.38093,1.39744c1.0011,1.0011 1.55303,2.15487 1.77322,3.69616l0.07046,0.51083l-0.56074,-0.07927c-1.45322,-0.20844 -2.58056,-0.73982 -3.47891,-1.63817c-1.0011,-0.99817 -1.55597,-2.15487 -1.77028,-3.69029l-0.07339,-0.50496l0.56074,0.07633c0.30826,0.04404 0.80147,0.14679 1.09799,0.23193M1476.1915,655.38207c-0.21431,1.52661 -0.77211,2.68331 -1.77028,3.68148c-0.89835,0.89835 -2.0257,1.42973 -3.47891,1.63817l-0.56074,0.07927l0.07046,-0.51083c0.41395,-2.91524 2.29579,-4.87341 5.1024,-5.31085c0.71927,-0.11156 0.7134,-0.1145 0.63707,0.42275M1434.15978,675.66838l0.30826,0.11743l-0.21431,0.36697c-0.34936,0.60184 -1.49138,1.5501 -2.22827,1.84661c-0.37578,0.15266 -0.98643,0.30532 -1.35927,0.34055c-0.7222,0.06752 -2.08441,-0.1644 -2.08441,-0.35229c0,-0.20844 0.81321,-1.22716 1.23303,-1.5501c0.51083,-0.38752 1.30936,-0.74863 1.96992,-0.88661c0.57248,-0.12037 1.92294,-0.05578 2.37505,0.11743M1468.66413,675.78875c0.34936,0.12917 0.86899,0.41982 1.15964,0.64587c0.50789,0.39633 1.26826,1.32991 1.26826,1.55597c0,0.19083 -1.37101,0.41395 -2.11377,0.34642c-0.90716,-0.0822 -2.06093,-0.61945 -2.78607,-1.30056c-0.64294,-0.60477 -1.0334,-1.1978 -0.85725,-1.30643c0.55193,-0.34349 2.34276,-0.31119 3.32919,0.05872" className="SFSymbolsPreviewWireframe"/></g>
  <g id="Ultralight-S"><path d="M545.17996,631.55812c-0.27009,0.08807 -0.88661,0.37578 -1.37395,0.63707c-2.53065,1.36514 -4.56809,3.56405 -5.46938,5.90094c-0.64294,1.66459 -0.76037,2.3457 -0.7545,4.3391c0.00294,1.6323 0.03817,1.92588 0.32,2.85946c0.3611,1.18606 1.02753,2.57762 1.72331,3.60222l0.4756,0.70165l-0.14092,0.67817l-0.13798,0.6811l-1.24478,-0.62532c-0.76331,-0.38459 -1.68514,-0.73395 -2.38386,-0.9101c-2.05799,-0.51083 -4.68846,-0.50789 -6.43525,0.01174c-0.70165,0.20844 -1.5178,0.89542 -1.82313,1.53542c-0.61945,1.30936 -0.67817,4.59745 -0.1145,6.77287c0.73101,2.83597 2.38093,5.19929 4.79415,6.86682c1.91707,1.32404 3.71378,1.86716 6.6437,2.00221l1.57652,0.07339l0.48734,1.17432c0.26716,0.64587 0.54606,1.28588 0.62239,1.42679c0.13505,0.24073 0.10862,0.25541 -0.79854,0.38752c-3.12075,0.45505 -5.74828,2.13138 -7.45984,4.75305c-1.4356,2.20771 -2.09028,4.52699 -1.68514,5.98314c0.39927,1.43854 3.61396,3.26166 6.56736,3.72258c1.17138,0.18202 3.11781,0.07339 4.20992,-0.24073c3.01506,-0.86019 4.98497,-2.41322 6.74645,-5.31085l0.19376,-0.31707l0.76624,0.46679c0.42275,0.25541 1.01872,0.58129 1.32404,0.72514c0.30532,0.14385 0.57248,0.26716 0.59009,0.2789c0.02055,0.00881 -0.15853,0.32587 -0.39927,0.69872c-0.97468,1.52368 -2.09322,4.24515 -2.44258,5.94204c-0.33468,1.62349 0.25541,2.84478 1.69102,3.49359c1.02459,0.46385 2.28405,0.21725 3.1501,-0.61358c0.51083,-0.48734 0.6312,-0.73688 1.01285,-2.07854c0.38459,-1.35927 1.37395,-3.44075 2.10203,-4.43011c0.61945,-0.8367 1.53542,-1.43854 2.1901,-1.43854c0.65468,0 1.57065,0.60184 2.1901,1.43854c0.72808,0.98936 1.71744,3.07084 2.10203,4.43011c0.38165,1.34166 0.50202,1.5912 1.01285,2.07854c0.89542,0.86019 2.14019,1.08331 3.20882,0.57835c1.09505,-0.51964 1.72037,-1.45615 1.72625,-2.58937c0.00587,-1.41505 -1.26826,-4.82644 -2.57175,-6.86094c-0.22018,-0.34642 -0.38459,-0.64 -0.36404,-0.64881c0.01761,-0.01174 0.28477,-0.13505 0.59009,-0.2789c0.30532,-0.14385 0.90129,-0.46973 1.32404,-0.72514l0.76624,-0.46679l0.19376,0.31707c1.08624,1.78496 2.12551,2.92992 3.49359,3.83414c1.6734,1.10973 3.40258,1.68808 5.35195,1.79083c1.52368,0.07927 2.59818,-0.07927 4.2657,-0.63413c2.21946,-0.73688 4.12185,-2.10496 4.41837,-3.17946c0.39927,-1.43854 -0.26129,-3.77249 -1.69102,-5.96553c-1.74973,-2.68038 -4.50644,-4.38314 -7.78278,-4.80589c-0.58716,-0.07633 -0.61064,-0.09101 -0.47853,-0.33468c0.07633,-0.13798 0.35817,-0.78092 0.62532,-1.42679l0.48734,-1.17432l1.57652,-0.07339c2.88001,-0.13505 4.55635,-0.6312 6.5292,-1.93762c3.42607,-2.26937 5.31965,-5.9714 5.31378,-10.37802c-0.00294,-1.2712 -0.22899,-2.70974 -0.52257,-3.32919c-0.30239,-0.63707 -1.11854,-1.32404 -1.82019,-1.53248c-1.02753,-0.30532 -2.56588,-0.45798 -3.87524,-0.38459c-2.07854,0.11743 -3.52882,0.51083 -5.22277,1.41212l-0.96,0.51083l-0.14385,-0.68698l-0.14092,-0.68698l0.4756,-0.70165c2.19304,-3.22937 2.69212,-6.94021 1.40918,-10.48665c-0.98055,-2.70974 -3.27634,-5.12883 -6.18278,-6.51746c-0.7956,-0.37872 -1.03046,-0.43743 -1.74092,-0.4345c-1.05982,0.00587 -1.509,0.24073 -2.5923,1.36514c-1.43854,1.49432 -2.43083,3.22056 -3.05909,5.32552c-0.27596,0.92477 -0.31707,1.2712 -0.32587,2.75964c-0.01468,2.34276 0.37872,3.88992 1.46202,5.75415c0.9189,1.57652 2.6657,3.29689 4.30974,4.24222c0.33762,0.19376 0.61652,0.37285 0.61652,0.3934c0,0.01761 0.10275,0.53138 0.22606,1.13615c1.01872,4.94681 0.23486,10.68334 -2.01982,14.80813c-1.21248,2.21946 -3.18827,4.52405 -4.94681,5.77177c-6.90498,4.90571 -15.56556,2.0756 -19.74026,-6.447c-1.189,-2.43083 -1.83487,-4.89984 -2.06973,-7.90315c-0.15853,-2.03157 -0.02349,-4.28625 0.37578,-6.22975c0.1233,-0.60477 0.22606,-1.11854 0.22606,-1.13615c0,-0.02055 0.2789,-0.19963 0.61652,-0.3934c1.64404,-0.94532 3.39084,-2.6657 4.30974,-4.24222c1.08037,-1.85836 1.47377,-3.40258 1.46202,-5.75415c-0.00881,-1.49432 -0.04697,-1.83193 -0.32587,-2.75964c-0.38165,-1.27413 -1.05395,-2.71854 -1.72918,-3.72258c-0.66055,-0.98055 -2.04625,-2.40735 -2.62166,-2.70093c-0.58129,-0.29945 -1.62056,-0.37578 -2.26056,-0.16734M545.78766,638.82421c0.88661,1.9523 0.51376,4.23341 -0.95413,5.83048l-0.58422,0.63413l-0.32587,-0.72808c-0.90129,-2.00515 -0.57835,-4.16002 0.86312,-5.79525c0.27009,-0.30826 0.54312,-0.5578 0.60771,-0.5578c0.06165,0 0.2378,0.2789 0.3934,0.61652M574.62007,638.76549c1.44147,1.63524 1.76441,3.79011 0.86312,5.79525l-0.32587,0.72808l-0.58422,-0.63413c-1.1156,-1.21248 -1.6323,-2.88882 -1.36808,-4.43011c0.14092,-0.83083 0.61652,-2.01689 0.80734,-2.01689c0.06459,0 0.33762,0.24954 0.60771,0.5578M554.69779,646.24295c-0.6723,0.21138 -1.28881,0.71046 -1.66459,1.34753c-0.26716,0.45798 -0.31707,0.67523 -0.31707,1.42092c0,0.75156 0.04697,0.96294 0.32587,1.4356c0.17908,0.30239 0.50789,0.69285 0.73395,0.86312c0.76918,0.58716 1.04808,0.62532 4.48882,0.6312l3.20001,0.00587v1.4679v1.4679l-1.84955,0.00587c-2.81836,0.01174 -4.01616,0.4345 -5.38718,1.9112c-1.30349,1.40331 -1.57065,2.32808 -1.57065,5.42241c0,3.1912 0.29651,4.13653 1.74973,5.58975c0.83964,0.83964 1.62056,1.30056 2.67744,1.57358c0.92184,0.24073 7.61544,0.24661 8.2848,0.00881c0.64881,-0.23193 1.21542,-0.70753 1.58239,-1.33285c0.2789,-0.47266 0.32587,-0.68404 0.32587,-1.4356c0,-0.74569 -0.04991,-0.96294 -0.31707,-1.42092c-0.17321,-0.29651 -0.51083,-0.68698 -0.74569,-0.86606c-0.76918,-0.58422 -1.21835,-0.64881 -4.59158,-0.64881h-3.09432v-1.4679v-1.4679h1.85542c2.76552,0 3.80185,-0.34936 5.20222,-1.74973c1.44147,-1.44147 1.74973,-2.42203 1.7468,-5.54865c0,-2.34276 -0.13211,-3.20001 -0.64,-4.20112c-0.39633,-0.78386 -1.42092,-1.86129 -2.24294,-2.3545c-1.21542,-0.73395 -1.77615,-0.81028 -5.74534,-0.81028c-2.5512,0 -3.658,0.04404 -4.00735,0.15266M534.93405,655.17656c0.90129,0.25541 1.72037,0.73395 2.38093,1.39744c1.0011,1.0011 1.55303,2.15487 1.77322,3.69616l0.07046,0.51083l-0.56074,-0.07927c-1.45322,-0.20844 -2.58056,-0.73982 -3.47891,-1.63817c-1.0011,-0.99817 -1.55597,-2.15487 -1.77028,-3.69029l-0.07339,-0.50496l0.56074,0.07633c0.30826,0.04404 0.80147,0.14679 1.09799,0.23193M586.05791,655.38207c-0.21431,1.52661 -0.77211,2.68331 -1.77028,3.68148c-0.89835,0.89835 -2.0257,1.42973 -3.47891,1.63817l-0.56074,0.07927l0.07046,-0.51083c0.41395,-2.91524 2.29579,-4.87341 5.1024,-5.31085c0.71927,-0.11156 0.7134,-0.1145 0.63707,0.42275M544.02619,675.66838l0.30826,0.11743l-0.21431,0.36697c-0.34936,0.60184 -1.49138,1.5501 -2.22827,1.84661c-0.37578,0.15266 -0.98643,0.30532 -1.35927,0.34055c-0.7222,0.06752 -2.08441,-0.1644 -2.08441,-0.35229c0,-0.20844 0.81321,-1.22716 1.23303,-1.5501c0.51083,-0.38752 1.30936,-0.74863 1.96992,-0.88661c0.57248,-0.12037 1.92294,-0.05578 2.37505,0.11743M578.53054,675.78875c0.34936,0.12917 0.86899,0.41982 1.15964,0.64587c0.50789,0.39633 1.26826,1.32991 1.26826,1.55597c0,0.19083 -1.37101,0.41395 -2.11377,0.34642c-0.90716,-0.0822 -2.06093,-0.61945 -2.78607,-1.30056c-0.64294,-0.60477 -1.0334,-1.1978 -0.85725,-1.30643c0.55193,-0.34349 2.34276,-0.31119 3.32919,0.05872" className="SFSymbolsPreviewWireframe"/></g>
 </g>
</svg>