<?xml version="1.0" encoding="UTF-8"?><!--Generator: https://SymbolKit.app--><!DOCTYPE svg PUBLIC "-//W3C//DTD SVG 1.1//EN" "http://www.w3.org/Graphics/SVG/1.1/DTD/svg11.dtd"><svg xmlns="http://www.w3.org/2000/svg" xmlns:xlink="http://www.w3.org/1999/xlink" version="1.1" viewBox="0 0 3300 2200">
 <!--glyph: "100092", point size: 100.0, font version: "20.0d10e1", template writer version: "138.0.0"-->
 <style>.SFSymbolsPreviewWireframe {fill:none;opacity:1.0;stroke:black;stroke-width:0.5}
</style>
 <g id="Notes">
  <rect height="2200" id="artboard" style="fill:white;opacity:1" width="3300" x="0" y="0"/>
  <line style="fill:none;stroke:black;opacity:1;stroke-width:0.5;" x1="263" x2="3036" y1="292" y2="292"/>
  <text style="stroke:none;fill:black;font-family:sans-serif;font-size:13;font-weight:bold;" transform="matrix(1 0 0 1 263 322)">Weight/Scale Variations</text>
  <text style="stroke:none;fill:black;font-family:sans-serif;font-size:13;text-anchor:middle;" transform="matrix(1 0 0 1 559.711 322)">Ultralight</text>
  <text style="stroke:none;fill:black;font-family:sans-serif;font-size:13;text-anchor:middle;" transform="matrix(1 0 0 1 856.422 322)">Thin</text>
  <text style="stroke:none;fill:black;font-family:sans-serif;font-size:13;text-anchor:middle;" transform="matrix(1 0 0 1 1153.13 322)">Light</text>
  <text style="stroke:none;fill:black;font-family:sans-serif;font-size:13;text-anchor:middle;" transform="matrix(1 0 0 1 1449.84 322)">Regular</text>
  <text style="stroke:none;fill:black;font-family:sans-serif;font-size:13;text-anchor:middle;" transform="matrix(1 0 0 1 1746.56 322)">Medium</text>
  <text style="stroke:none;fill:black;font-family:sans-serif;font-size:13;text-anchor:middle;" transform="matrix(1 0 0 1 2043.27 322)">Semibold</text>
  <text style="stroke:none;fill:black;font-family:sans-serif;font-size:13;text-anchor:middle;" transform="matrix(1 0 0 1 2339.98 322)">Bold</text>
  <text style="stroke:none;fill:black;font-family:sans-serif;font-size:13;text-anchor:middle;" transform="matrix(1 0 0 1 2636.69 322)">Heavy</text>
  <text style="stroke:none;fill:black;font-family:sans-serif;font-size:13;text-anchor:middle;" transform="matrix(1 0 0 1 2933.4 322)">Black</text>
  <line style="fill:none;stroke:black;opacity:1;stroke-width:0.5;" x1="263" x2="3036" y1="1903" y2="1903"/>
  <g transform="matrix(0.2 0 0 0.2 263 1933)">
   <path d="m46.2402 4.15039c21.7773 0 39.4531-17.627 39.4531-39.4043s-17.6758-39.4043-39.4531-39.4043c-21.7285 0-39.4043 17.627-39.4043 39.4043s17.6758 39.4043 39.4043 39.4043Zm0-7.42188c-17.6758 0-31.9336-14.3066-31.9336-31.9824s14.2578-31.9824 31.9336-31.9824 31.9824 14.3066 31.9824 31.9824-14.3066 31.9824-31.9824 31.9824Zm-17.9688-31.9824c0 2.14844 1.51367 3.61328 3.75977 3.61328h10.498v10.5957c0 2.19727 1.46484 3.71094 3.61328 3.71094 2.24609 0 3.71094-1.51367 3.71094-3.71094v-10.5957h10.5957c2.19727 0 3.71094-1.46484 3.71094-3.61328 0-2.19727-1.51367-3.71094-3.71094-3.71094h-10.5957v-10.5469c0-2.24609-1.46484-3.75977-3.71094-3.75977-2.14844 0-3.61328 1.51367-3.61328 3.75977v10.5469h-10.498c-2.24609 0-3.75977 1.51367-3.75977 3.71094Z"/>
  </g>
  <g transform="matrix(0.2 0 0 0.2 281.506 1933)">
   <path d="m58.5449 14.5508c27.4902 0 49.8047-22.3145 49.8047-49.8047s-22.3145-49.8047-49.8047-49.8047-49.8047 22.3145-49.8047 49.8047 22.3145 49.8047 49.8047 49.8047Zm0-8.30078c-22.9492 0-41.5039-18.5547-41.5039-41.5039s18.5547-41.5039 41.5039-41.5039 41.5039 18.5547 41.5039 41.5039-18.5547 41.5039-41.5039 41.5039Zm-22.6562-41.5039c0 2.39258 1.66016 4.00391 4.15039 4.00391h14.3555v14.4043c0 2.44141 1.66016 4.15039 4.05273 4.15039 2.44141 0 4.15039-1.66016 4.15039-4.15039v-14.4043h14.4043c2.44141 0 4.15039-1.61133 4.15039-4.00391 0-2.44141-1.70898-4.15039-4.15039-4.15039h-14.4043v-14.3555c0-2.49023-1.70898-4.19922-4.15039-4.19922-2.39258 0-4.05273 1.70898-4.05273 4.19922v14.3555h-14.3555c-2.49023 0-4.15039 1.70898-4.15039 4.15039Z"/>
  </g>
  <g transform="matrix(0.2 0 0 0.2 304.924 1933)">
   <path d="m74.8535 28.3203c35.1074 0 63.623-28.4668 63.623-63.5742s-28.5156-63.623-63.623-63.623-63.5742 28.5156-63.5742 63.623 28.4668 63.5742 63.5742 63.5742Zm0-9.08203c-30.127 0-54.4922-24.3652-54.4922-54.4922s24.3652-54.4922 54.4922-54.4922 54.4922 24.3652 54.4922 54.4922-24.3652 54.4922-54.4922 54.4922Zm-28.8574-54.4922c0 2.58789 1.85547 4.39453 4.58984 4.39453h19.7266v19.7754c0 2.68555 1.85547 4.58984 4.44336 4.58984 2.68555 0 4.54102-1.85547 4.54102-4.58984v-19.7754h19.7754c2.68555 0 4.58984-1.80664 4.58984-4.39453 0-2.73438-1.85547-4.58984-4.58984-4.58984h-19.7754v-19.7266c0-2.73438-1.85547-4.63867-4.54102-4.63867-2.58789 0-4.44336 1.9043-4.44336 4.63867v19.7266h-19.7266c-2.73438 0-4.58984 1.85547-4.58984 4.58984Z"/>
  </g>
  <text style="stroke:none;fill:black;font-family:sans-serif;font-size:13;font-weight:bold;" transform="matrix(1 0 0 1 263 1953)">Design Variations</text>
  <text style="stroke:none;fill:black;font-family:sans-serif;font-size:13;" transform="matrix(1 0 0 1 263 1971)">Symbols are supported in up to nine weights and three scales.</text>
  <text style="stroke:none;fill:black;font-family:sans-serif;font-size:13;" transform="matrix(1 0 0 1 263 1989)">For optimal layout with text and other symbols, vertically align</text>
  <text style="stroke:none;fill:black;font-family:sans-serif;font-size:13;" transform="matrix(1 0 0 1 263 2007)">symbols with the adjacent text.</text>
  <line style="fill:none;stroke:#00AEEF;stroke-width:0.5;opacity:1.0;" x1="776" x2="776" y1="1919" y2="1933"/>
  <g transform="matrix(0.2 0 0 0.2 776 1933)">
   <path d="m16.5527 0.78125c2.58789 0 3.85742-0.976562 4.78516-3.71094l6.29883-17.2363h28.8086l6.29883 17.2363c0.927734 2.73438 2.19727 3.71094 4.73633 3.71094 2.58789 0 4.24805-1.5625 4.24805-4.00391 0-0.830078-0.146484-1.61133-0.537109-2.63672l-22.9004-60.9863c-1.12305-2.97852-3.125-4.49219-6.25-4.49219-3.02734 0-5.07812 1.46484-6.15234 4.44336l-22.9004 61.084c-0.390625 1.02539-0.537109 1.80664-0.537109 2.63672 0 2.44141 1.5625 3.95508 4.10156 3.95508Zm13.4766-28.3691 11.8652-32.8613h0.244141l11.8652 32.8613Z"/>
  </g>
  <line style="fill:none;stroke:#00AEEF;stroke-width:0.5;opacity:1.0;" x1="792.836" x2="792.836" y1="1919" y2="1933"/>
  <text style="stroke:none;fill:black;font-family:sans-serif;font-size:13;font-weight:bold;" transform="matrix(1 0 0 1 776 1953)">Margins</text>
  <text style="stroke:none;fill:black;font-family:sans-serif;font-size:13;" transform="matrix(1 0 0 1 776 1971)">Leading and trailing margins on the left and right side of each symbol</text>
  <text style="stroke:none;fill:black;font-family:sans-serif;font-size:13;" transform="matrix(1 0 0 1 776 1989)">can be adjusted by modifying the x-location of the margin guidelines.</text>
  <text style="stroke:none;fill:black;font-family:sans-serif;font-size:13;" transform="matrix(1 0 0 1 776 2007)">Modifications are automatically applied proportionally to all</text>
  <text style="stroke:none;fill:black;font-family:sans-serif;font-size:13;" transform="matrix(1 0 0 1 776 2025)">scales and weights.</text>
  <g transform="matrix(0.2 0 0 0.2 1289 1933)">
   <path d="m14.209 9.32617 8.49609 8.54492c4.29688 4.3457 9.22852 4.05273 13.8672-1.07422l53.4668-58.9355-4.83398-4.88281-53.0762 58.3984c-1.75781 2.00195-3.41797 2.49023-5.76172 0.146484l-5.85938-5.81055c-2.34375-2.29492-1.80664-4.00391 0.195312-5.81055l57.373-54.0039-4.88281-4.83398-57.959 54.4434c-4.93164 4.58984-5.32227 9.47266-1.02539 13.8184Zm32.0801-90.9668c-2.09961 2.05078-2.24609 4.93164-1.07422 6.88477 1.17188 1.80664 3.4668 2.97852 6.68945 2.14844 7.32422-1.70898 14.9414-2.00195 22.0703 2.68555l-2.92969 7.27539c-1.70898 4.15039-0.830078 7.08008 1.85547 9.81445l11.4746 11.5723c2.44141 2.44141 4.49219 2.53906 7.32422 2.05078l5.32227-0.976562 3.32031 3.36914-0.195312 2.7832c-0.195312 2.49023 0.439453 4.39453 2.88086 6.78711l3.80859 3.71094c2.39258 2.39258 5.46875 2.53906 7.8125 0.195312l14.5508-14.5996c2.34375-2.34375 2.24609-5.32227-0.146484-7.71484l-3.85742-3.80859c-2.39258-2.39258-4.24805-3.17383-6.64062-2.97852l-2.88086 0.244141-3.22266-3.17383 1.2207-5.61523c0.634766-2.83203-0.146484-5.0293-3.07617-7.95898l-10.9863-10.9375c-16.6992-16.6016-38.8672-16.2109-53.3203-1.75781Zm7.4707 1.85547c12.1582-8.88672 28.6133-7.37305 39.7461 3.75977l12.1582 12.0605c1.17188 1.17188 1.36719 2.09961 1.02539 3.80859l-1.61133 7.42188 7.51953 7.42188 4.93164-0.292969c1.26953-0.0488281 1.66016 0.0488281 2.63672 1.02539l2.88086 2.88086-12.207 12.207-2.88086-2.88086c-0.976562-0.976562-1.12305-1.36719-1.07422-2.68555l0.341797-4.88281-7.4707-7.42188-7.61719 1.26953c-1.61133 0.341797-2.34375 0.195312-3.56445-0.976562l-10.0098-10.0098c-1.26953-1.17188-1.41602-2.00195-0.634766-3.85742l4.39453-10.4492c-7.8125-7.27539-17.9688-10.4004-28.125-7.42188-0.78125 0.195312-1.07422-0.439453-0.439453-0.976562Z"/>
  </g>
  <text style="stroke:none;fill:black;font-family:sans-serif;font-size:13;font-weight:bold;" transform="matrix(1 0 0 1 1289 1953)">Exporting</text>
  <text style="stroke:none;fill:black;font-family:sans-serif;font-size:13;" transform="matrix(1 0 0 1 1289 1971)">Symbols should be outlined when exporting to ensure the</text>
  <text style="stroke:none;fill:black;font-family:sans-serif;font-size:13;" transform="matrix(1 0 0 1 1289 1989)">design is preserved when submitting to Xcode.</text>
  <text id="template-version" style="stroke:none;fill:black;font-family:sans-serif;font-size:13;text-anchor:end;" transform="matrix(1 0 0 1 3036 1933)">Template v.6.0</text>
  <text style="stroke:none;fill:black;font-family:sans-serif;font-size:13;text-anchor:end;" transform="matrix(1 0 0 1 3036 1951)">Requires Xcode 16 or greater</text>
  <text id="descriptive-name" style="stroke:none;fill:black;font-family:sans-serif;font-size:13;text-anchor:end;" transform="matrix(1 0 0 1 3036 1969)">Generated from square</text>
  <text style="stroke:none;fill:black;font-family:sans-serif;font-size:13;text-anchor:end;" transform="matrix(1 0 0 1 3036 1987)">Typeset at 100.0 points</text>
  <text style="stroke:none;fill:black;font-family:sans-serif;font-size:13;" transform="matrix(1 0 0 1 263 726)">Small</text>
  <text style="stroke:none;fill:black;font-family:sans-serif;font-size:13;" transform="matrix(1 0 0 1 263 1156)">Medium</text>
  <text style="stroke:none;fill:black;font-family:sans-serif;font-size:13;" transform="matrix(1 0 0 1 263 1586)">Large</text>
 </g>
 <g id="Guides">
  <g id="H-reference" style="fill:#27AAE1;stroke:none;" transform="matrix(1 0 0 1 339 696)">
   <path d="M0.993654 0L3.63775 0L29.3281-67.1323L30.0303-67.1323L30.0303-70.459L28.1226-70.459ZM11.6885-24.4799L46.9815-24.4799L46.2315-26.7285L12.4385-26.7285ZM55.1196 0L57.7637 0L30.6382-70.459L29.4326-70.459L29.4326-67.1323Z"/>
  </g>
  <line id="Baseline-S" style="fill:none;stroke:#27AAE1;opacity:1;stroke-width:0.5;" x1="263" x2="3036" y1="696" y2="696"/>
  <line id="Capline-S" style="fill:none;stroke:#27AAE1;opacity:1;stroke-width:0.5;" x1="263" x2="3036" y1="625.541" y2="625.541"/>
  <g id="H-reference" style="fill:#27AAE1;stroke:none;" transform="matrix(1 0 0 1 339 1126)">
   <path d="M0.993654 0L3.63775 0L29.3281-67.1323L30.0303-67.1323L30.0303-70.459L28.1226-70.459ZM11.6885-24.4799L46.9815-24.4799L46.2315-26.7285L12.4385-26.7285ZM55.1196 0L57.7637 0L30.6382-70.459L29.4326-70.459L29.4326-67.1323Z"/>
  </g>
  <line id="Baseline-M" style="fill:none;stroke:#27AAE1;opacity:1;stroke-width:0.5;" x1="263" x2="3036" y1="1126" y2="1126"/>
  <line id="Capline-M" style="fill:none;stroke:#27AAE1;opacity:1;stroke-width:0.5;" x1="263" x2="3036" y1="1055.54" y2="1055.54"/>
  <g id="H-reference" style="fill:#27AAE1;stroke:none;" transform="matrix(1 0 0 1 339 1556)">
   <path d="M0.993654 0L3.63775 0L29.3281-67.1323L30.0303-67.1323L30.0303-70.459L28.1226-70.459ZM11.6885-24.4799L46.9815-24.4799L46.2315-26.7285L12.4385-26.7285ZM55.1196 0L57.7637 0L30.6382-70.459L29.4326-70.459L29.4326-67.1323Z"/>
  </g>
  <line id="Baseline-L" style="fill:none;stroke:#27AAE1;opacity:1;stroke-width:0.5;" x1="263" x2="3036" y1="1556" y2="1556"/>
  <line id="Capline-L" style="fill:none;stroke:#27AAE1;opacity:1;stroke-width:0.5;" x1="263" x2="3036" y1="1485.54" y2="1485.54"/>
  <line id="right-margin-Black-S" style="fill:none;stroke:#00AEEF;stroke-width:0.5;opacity:1.0;" x1="2981.3" x2="2981.3" y1="600.785" y2="720.121"/>
  <line id="left-margin-Black-S" style="fill:none;stroke:#00AEEF;stroke-width:0.5;opacity:1.0;" x1="2885.5" x2="2885.5" y1="600.785" y2="720.121"/>
  <line id="right-margin-Regular-S" style="fill:none;stroke:#00AEEF;stroke-width:0.5;opacity:1.0;" x1="1495.18" x2="1495.18" y1="600.785" y2="720.121"/>
  <line id="left-margin-Regular-S" style="fill:none;stroke:#00AEEF;stroke-width:0.5;opacity:1.0;" x1="1404.51" x2="1404.51" y1="600.785" y2="720.121"/>
  <line id="right-margin-Ultralight-S" style="fill:none;stroke:#00AEEF;stroke-width:0.5;opacity:1.0;" x1="603.073" x2="603.073" y1="600.785" y2="720.121"/>
  <line id="left-margin-Ultralight-S" style="fill:none;stroke:#00AEEF;stroke-width:0.5;opacity:1.0;" x1="516.35" x2="516.35" y1="600.785" y2="720.121"/>
 </g>
 <g id="Symbols">
  <g id="Black-S"><path d="M2930.72937,631.56854c-5.50167,0.48441 -10.91821,2.64808 -15.50098,6.19158c-2.33395,1.80551 -5.24039,5.07892 -6.84039,7.70939c-4.00442,6.57617 -5.29617,14.57033 -3.55231,21.95972c1.28294,5.43708 3.87818,10.10206 7.80627,14.03895c3.44955,3.45836 7.29544,5.82461 11.82537,7.27489c3.12955,1.00404 5.3725,1.34459 8.90425,1.34753c2.72148,0.00294 3.658,-0.0822 5.90094,-0.53431c1.25358,-0.25541 1.58826,-0.40807 2.10203,-0.9512c1.09211,-1.16257 1.14202,-2.76845 0.11743,-3.93102c-0.89542,-1.01872 -1.68808,-1.16551 -4.01029,-0.74276c-3.62864,0.65762 -7.73875,0.35523 -11.39087,-0.83964c-3.28221,-1.0745 -6.30608,-2.88588 -8.79563,-5.26681c-5.898,-5.64553 -8.43746,-13.63969 -6.87856,-21.6632c0.71046,-3.658 2.53065,-7.45984 4.95268,-10.33986c2.90937,-3.4613 6.59966,-5.98021 10.72738,-7.33067c5.80112,-1.89359 12.1806,-1.45322 17.60887,1.21248c7.47746,3.67267 12.30977,10.70389 13.10244,19.05916c0.13505,1.42092 0.07339,3.70497 -0.13798,5.07011c-0.32294,2.10496 0.12037,3.32038 1.47964,4.04258c0.65762,0.35229 1.92588,0.34936 2.5923,0c1.55597,-0.82202 1.99047,-2.40148 1.98166,-7.19856c-0.00294,-1.92001 -0.06165,-3.01212 -0.21138,-3.99268c-0.81615,-5.29617 -2.77726,-9.86719 -6.04479,-14.0918c-0.98936,-1.27707 -3.54644,-3.83414 -4.83525,-4.83231c-6.06828,-4.69433 -13.36959,-6.85801 -20.90283,-6.19158M2923.72751,652.14843c-0.67817,0.22018 -1.29175,0.71927 -1.66459,1.3534c-0.26716,0.45798 -0.31707,0.67523 -0.31707,1.42092c0,0.7545 0.04697,0.96 0.33174,1.44441c1.52074,2.58937 5.47525,1.54423 5.47525,-1.44441c0,-1.10679 -0.60477,-2.11083 -1.57065,-2.60698c-0.58129,-0.29945 -1.62056,-0.37578 -2.25469,-0.16734M2941.34225,652.14843c-0.67817,0.22018 -1.29175,0.71927 -1.66459,1.3534c-0.26716,0.45798 -0.31707,0.67523 -0.31707,1.42092c0,0.7545 0.04697,0.96 0.33174,1.44441c1.52074,2.58937 5.47525,1.54423 5.47525,-1.44441c0,-1.10679 -0.60477,-2.11083 -1.57065,-2.60698c-0.58129,-0.29945 -1.62056,-0.37578 -2.25469,-0.16734M2932.13855,664.38775c-0.85725,0.10569 -2.3046,0.42569 -2.98864,0.65762c-2.37212,0.80441 -5.23745,2.87414 -5.78057,4.17763c-0.24954,0.5989 -0.22899,1.64991 0.04991,2.27524c0.48147,1.09211 1.4767,1.73799 2.67157,1.73799c0.89835,0 1.40918,-0.24073 2.46606,-1.16257c2.88295,-2.51597 6.86388,-2.51597 9.74683,0c1.05688,0.92184 1.56771,1.16257 2.46606,1.16257c1.19487,0 2.1901,-0.64587 2.67157,-1.73799c0.2789,-0.62532 0.29945,-1.67634 0.04991,-2.27524c-0.54312,-1.30056 -3.41139,-3.37322 -5.7747,-4.17469c-1.52661,-0.51964 -4.17763,-0.83083 -5.578,-0.66055M2953.01789,669.76024c-0.6723,0.24954 -1.08918,0.65175 -3.45543,3.3057c-3.24405,3.64038 -3.47598,3.97213 -4.05433,5.8158c-0.2378,0.7545 -0.27596,1.10973 -0.26716,2.52184c0.00881,1.43267 0.04697,1.76147 0.30826,2.54533c0.9189,2.77726 3.04735,4.90571 5.82755,5.83048c0.80147,0.26422 1.09211,0.29945 2.60405,0.29945c1.53248,-0.00294 1.7967,-0.03229 2.64221,-0.31707c2.74496,-0.91597 4.85873,-3.02974 5.77764,-5.7747c0.27596,-0.82789 0.31413,-1.12734 0.32,-2.52478c0.00587,-1.7879 -0.14973,-2.56882 -0.79854,-3.93396c-0.46973,-0.99523 -0.89248,-1.52368 -3.81946,-4.79121c-1.68808,-1.88478 -2.41028,-2.60992 -2.79194,-2.79194c-0.64881,-0.31413 -1.71744,-0.39927 -2.29285,-0.18495M2955.09937,678.18596c1.3534,1.52368 1.67047,1.99927 1.76735,2.65396c0.24954,1.66459 -0.93652,3.23524 -2.57175,3.40552c-2.15487,0.22018 -3.8224,-1.94056 -3.03854,-3.9369c0.17321,-0.44037 2.53065,-3.30864 2.72148,-3.30864c0.03523,0 0.54019,0.53431 1.12147,1.18606" className="SFSymbolsPreviewWireframe"/></g>
  <g id="Regular-S"><path d="M1447.17432,631.56854c-5.50167,0.48441 -10.91821,2.64808 -15.50098,6.19158c-2.33395,1.80551 -5.24039,5.07892 -6.84039,7.70939c-4.00442,6.57617 -5.29617,14.57033 -3.55231,21.95972c1.28294,5.43708 3.87818,10.10206 7.80627,14.03895c3.44955,3.45836 7.29544,5.82461 11.82537,7.27489c3.12955,1.00404 5.3725,1.34459 8.90425,1.34753c2.72148,0.00294 3.658,-0.0822 5.90094,-0.53431c1.25358,-0.25541 1.58826,-0.40807 2.10203,-0.9512c1.09211,-1.16257 1.14202,-2.76845 0.11743,-3.93102c-0.89542,-1.01872 -1.68808,-1.16551 -4.01029,-0.74276c-3.62864,0.65762 -7.73875,0.35523 -11.39087,-0.83964c-3.28221,-1.0745 -6.30608,-2.88588 -8.79563,-5.26681c-5.898,-5.64553 -8.43746,-13.63969 -6.87856,-21.6632c0.71046,-3.658 2.53065,-7.45984 4.95268,-10.33986c2.90937,-3.4613 6.59966,-5.98021 10.72738,-7.33067c5.80112,-1.89359 12.1806,-1.45322 17.60887,1.21248c7.47746,3.67267 12.30977,10.70389 13.10244,19.05916c0.13505,1.42092 0.07339,3.70497 -0.13798,5.07011c-0.32294,2.10496 0.12037,3.32038 1.47964,4.04258c0.65762,0.35229 1.92588,0.34936 2.5923,0c1.55597,-0.82202 1.99047,-2.40148 1.98166,-7.19856c-0.00294,-1.92001 -0.06165,-3.01212 -0.21138,-3.99268c-0.81615,-5.29617 -2.77726,-9.86719 -6.04479,-14.0918c-0.98936,-1.27707 -3.54644,-3.83414 -4.83525,-4.83231c-6.06828,-4.69433 -13.36959,-6.85801 -20.90283,-6.19158M1440.17246,652.14843c-0.67817,0.22018 -1.29175,0.71927 -1.66459,1.3534c-0.26716,0.45798 -0.31707,0.67523 -0.31707,1.42092c0,0.7545 0.04697,0.96 0.33174,1.44441c1.52074,2.58937 5.47525,1.54423 5.47525,-1.44441c0,-1.10679 -0.60477,-2.11083 -1.57065,-2.60698c-0.58129,-0.29945 -1.62056,-0.37578 -2.25469,-0.16734M1457.7872,652.14843c-0.67817,0.22018 -1.29175,0.71927 -1.66459,1.3534c-0.26716,0.45798 -0.31707,0.67523 -0.31707,1.42092c0,0.7545 0.04697,0.96 0.33174,1.44441c1.52074,2.58937 5.47525,1.54423 5.47525,-1.44441c0,-1.10679 -0.60477,-2.11083 -1.57065,-2.60698c-0.58129,-0.29945 -1.62056,-0.37578 -2.25469,-0.16734M1448.5835,664.38775c-0.85725,0.10569 -2.3046,0.42569 -2.98864,0.65762c-2.37212,0.80441 -5.23745,2.87414 -5.78057,4.17763c-0.24954,0.5989 -0.22899,1.64991 0.04991,2.27524c0.48147,1.09211 1.4767,1.73799 2.67157,1.73799c0.89835,0 1.40918,-0.24073 2.46606,-1.16257c2.88295,-2.51597 6.86388,-2.51597 9.74683,0c1.05688,0.92184 1.56771,1.16257 2.46606,1.16257c1.19487,0 2.1901,-0.64587 2.67157,-1.73799c0.2789,-0.62532 0.29945,-1.67634 0.04991,-2.27524c-0.54312,-1.30056 -3.41139,-3.37322 -5.7747,-4.17469c-1.52661,-0.51964 -4.17763,-0.83083 -5.578,-0.66055M1469.46284,669.76024c-0.6723,0.24954 -1.08918,0.65175 -3.45543,3.3057c-3.24405,3.64038 -3.47598,3.97213 -4.05433,5.8158c-0.2378,0.7545 -0.27596,1.10973 -0.26716,2.52184c0.00881,1.43267 0.04697,1.76147 0.30826,2.54533c0.9189,2.77726 3.04735,4.90571 5.82755,5.83048c0.80147,0.26422 1.09211,0.29945 2.60405,0.29945c1.53248,-0.00294 1.7967,-0.03229 2.64221,-0.31707c2.74496,-0.91597 4.85873,-3.02974 5.77764,-5.7747c0.27596,-0.82789 0.31413,-1.12734 0.32,-2.52478c0.00587,-1.7879 -0.14973,-2.56882 -0.79854,-3.93396c-0.46973,-0.99523 -0.89248,-1.52368 -3.81946,-4.79121c-1.68808,-1.88478 -2.41028,-2.60992 -2.79194,-2.79194c-0.64881,-0.31413 -1.71744,-0.39927 -2.29285,-0.18495M1471.54432,678.18596c1.3534,1.52368 1.67047,1.99927 1.76735,2.65396c0.24954,1.66459 -0.93652,3.23524 -2.57175,3.40552c-2.15487,0.22018 -3.8224,-1.94056 -3.03854,-3.9369c0.17321,-0.44037 2.53065,-3.30864 2.72148,-3.30864c0.03523,0 0.54019,0.53431 1.12147,1.18606" className="SFSymbolsPreviewWireframe"/></g>
  <g id="Ultralight-S"><path d="M557.04073,631.56854c-5.50167,0.48441 -10.91821,2.64808 -15.50098,6.19158c-2.33395,1.80551 -5.24039,5.07892 -6.84039,7.70939c-4.00442,6.57617 -5.29617,14.57033 -3.55231,21.95972c1.28294,5.43708 3.87818,10.10206 7.80627,14.03895c3.44955,3.45836 7.29544,5.82461 11.82537,7.27489c3.12955,1.00404 5.3725,1.34459 8.90425,1.34753c2.72148,0.00294 3.658,-0.0822 5.90094,-0.53431c1.25358,-0.25541 1.58826,-0.40807 2.10203,-0.9512c1.09211,-1.16257 1.14202,-2.76845 0.11743,-3.93102c-0.89542,-1.01872 -1.68808,-1.16551 -4.01029,-0.74276c-3.62864,0.65762 -7.73875,0.35523 -11.39087,-0.83964c-3.28221,-1.0745 -6.30608,-2.88588 -8.79563,-5.26681c-5.898,-5.64553 -8.43746,-13.63969 -6.87856,-21.6632c0.71046,-3.658 2.53065,-7.45984 4.95268,-10.33986c2.90937,-3.4613 6.59966,-5.98021 10.72738,-7.33067c5.80112,-1.89359 12.1806,-1.45322 17.60887,1.21248c7.47746,3.67267 12.30977,10.70389 13.10244,19.05916c0.13505,1.42092 0.07339,3.70497 -0.13798,5.07011c-0.32294,2.10496 0.12037,3.32038 1.47964,4.04258c0.65762,0.35229 1.92588,0.34936 2.5923,0c1.55597,-0.82202 1.99047,-2.40148 1.98166,-7.19856c-0.00294,-1.92001 -0.06165,-3.01212 -0.21138,-3.99268c-0.81615,-5.29617 -2.77726,-9.86719 -6.04479,-14.0918c-0.98936,-1.27707 -3.54644,-3.83414 -4.83525,-4.83231c-6.06828,-4.69433 -13.36959,-6.85801 -20.90283,-6.19158M550.03887,652.14843c-0.67817,0.22018 -1.29175,0.71927 -1.66459,1.3534c-0.26716,0.45798 -0.31707,0.67523 -0.31707,1.42092c0,0.7545 0.04697,0.96 0.33174,1.44441c1.52074,2.58937 5.47525,1.54423 5.47525,-1.44441c0,-1.10679 -0.60477,-2.11083 -1.57065,-2.60698c-0.58129,-0.29945 -1.62056,-0.37578 -2.25469,-0.16734M567.65361,652.14843c-0.67817,0.22018 -1.29175,0.71927 -1.66459,1.3534c-0.26716,0.45798 -0.31707,0.67523 -0.31707,1.42092c0,0.7545 0.04697,0.96 0.33174,1.44441c1.52074,2.58937 5.47525,1.54423 5.47525,-1.44441c0,-1.10679 -0.60477,-2.11083 -1.57065,-2.60698c-0.58129,-0.29945 -1.62056,-0.37578 -2.25469,-0.16734M558.44991,664.38775c-0.85725,0.10569 -2.3046,0.42569 -2.98864,0.65762c-2.37212,0.80441 -5.23745,2.87414 -5.78057,4.17763c-0.24954,0.5989 -0.22899,1.64991 0.04991,2.27524c0.48147,1.09211 1.4767,1.73799 2.67157,1.73799c0.89835,0 1.40918,-0.24073 2.46606,-1.16257c2.88295,-2.51597 6.86388,-2.51597 9.74683,0c1.05688,0.92184 1.56771,1.16257 2.46606,1.16257c1.19487,0 2.1901,-0.64587 2.67157,-1.73799c0.2789,-0.62532 0.29945,-1.67634 0.04991,-2.27524c-0.54312,-1.30056 -3.41139,-3.37322 -5.7747,-4.17469c-1.52661,-0.51964 -4.17763,-0.83083 -5.578,-0.66055M579.32925,669.76024c-0.6723,0.24954 -1.08918,0.65175 -3.45543,3.3057c-3.24405,3.64038 -3.47598,3.97213 -4.05433,5.8158c-0.2378,0.7545 -0.27596,1.10973 -0.26716,2.52184c0.00881,1.43267 0.04697,1.76147 0.30826,2.54533c0.9189,2.77726 3.04735,4.90571 5.82755,5.83048c0.80147,0.26422 1.09211,0.29945 2.60405,0.29945c1.53248,-0.00294 1.7967,-0.03229 2.64221,-0.31707c2.74496,-0.91597 4.85873,-3.02974 5.77764,-5.7747c0.27596,-0.82789 0.31413,-1.12734 0.32,-2.52478c0.00587,-1.7879 -0.14973,-2.56882 -0.79854,-3.93396c-0.46973,-0.99523 -0.89248,-1.52368 -3.81946,-4.79121c-1.68808,-1.88478 -2.41028,-2.60992 -2.79194,-2.79194c-0.64881,-0.31413 -1.71744,-0.39927 -2.29285,-0.18495M581.41073,678.18596c1.3534,1.52368 1.67047,1.99927 1.76735,2.65396c0.24954,1.66459 -0.93652,3.23524 -2.57175,3.40552c-2.15487,0.22018 -3.8224,-1.94056 -3.03854,-3.9369c0.17321,-0.44037 2.53065,-3.30864 2.72148,-3.30864c0.03523,0 0.54019,0.53431 1.12147,1.18606" className="SFSymbolsPreviewWireframe"/></g>
 </g>
</svg>