<?xml version="1.0" encoding="UTF-8"?><!--Generator: https://SymbolKit.app--><!DOCTYPE svg PUBLIC "-//W3C//DTD SVG 1.1//EN" "http://www.w3.org/Graphics/SVG/1.1/DTD/svg11.dtd"><svg xmlns="http://www.w3.org/2000/svg" xmlns:xlink="http://www.w3.org/1999/xlink" version="1.1" viewBox="0 0 3300 2200">
 <!--glyph: "100092", point size: 100.0, font version: "20.0d10e1", template writer version: "138.0.0"-->
 <style>.SFSymbolsPreviewWireframe {fill:none;opacity:1.0;stroke:black;stroke-width:0.5}
</style>
 <g id="Notes">
  <rect height="2200" id="artboard" style="fill:white;opacity:1" width="3300" x="0" y="0"/>
  <line style="fill:none;stroke:black;opacity:1;stroke-width:0.5;" x1="263" x2="3036" y1="292" y2="292"/>
  <text style="stroke:none;fill:black;font-family:sans-serif;font-size:13;font-weight:bold;" transform="matrix(1 0 0 1 263 322)">Weight/Scale Variations</text>
  <text style="stroke:none;fill:black;font-family:sans-serif;font-size:13;text-anchor:middle;" transform="matrix(1 0 0 1 559.711 322)">Ultralight</text>
  <text style="stroke:none;fill:black;font-family:sans-serif;font-size:13;text-anchor:middle;" transform="matrix(1 0 0 1 856.422 322)">Thin</text>
  <text style="stroke:none;fill:black;font-family:sans-serif;font-size:13;text-anchor:middle;" transform="matrix(1 0 0 1 1153.13 322)">Light</text>
  <text style="stroke:none;fill:black;font-family:sans-serif;font-size:13;text-anchor:middle;" transform="matrix(1 0 0 1 1449.84 322)">Regular</text>
  <text style="stroke:none;fill:black;font-family:sans-serif;font-size:13;text-anchor:middle;" transform="matrix(1 0 0 1 1746.56 322)">Medium</text>
  <text style="stroke:none;fill:black;font-family:sans-serif;font-size:13;text-anchor:middle;" transform="matrix(1 0 0 1 2043.27 322)">Semibold</text>
  <text style="stroke:none;fill:black;font-family:sans-serif;font-size:13;text-anchor:middle;" transform="matrix(1 0 0 1 2339.98 322)">Bold</text>
  <text style="stroke:none;fill:black;font-family:sans-serif;font-size:13;text-anchor:middle;" transform="matrix(1 0 0 1 2636.69 322)">Heavy</text>
  <text style="stroke:none;fill:black;font-family:sans-serif;font-size:13;text-anchor:middle;" transform="matrix(1 0 0 1 2933.4 322)">Black</text>
  <line style="fill:none;stroke:black;opacity:1;stroke-width:0.5;" x1="263" x2="3036" y1="1903" y2="1903"/>
  <g transform="matrix(0.2 0 0 0.2 263 1933)">
   <path d="m46.2402 4.15039c21.7773 0 39.4531-17.627 39.4531-39.4043s-17.6758-39.4043-39.4531-39.4043c-21.7285 0-39.4043 17.627-39.4043 39.4043s17.6758 39.4043 39.4043 39.4043Zm0-7.42188c-17.6758 0-31.9336-14.3066-31.9336-31.9824s14.2578-31.9824 31.9336-31.9824 31.9824 14.3066 31.9824 31.9824-14.3066 31.9824-31.9824 31.9824Zm-17.9688-31.9824c0 2.14844 1.51367 3.61328 3.75977 3.61328h10.498v10.5957c0 2.19727 1.46484 3.71094 3.61328 3.71094 2.24609 0 3.71094-1.51367 3.71094-3.71094v-10.5957h10.5957c2.19727 0 3.71094-1.46484 3.71094-3.61328 0-2.19727-1.51367-3.71094-3.71094-3.71094h-10.5957v-10.5469c0-2.24609-1.46484-3.75977-3.71094-3.75977-2.14844 0-3.61328 1.51367-3.61328 3.75977v10.5469h-10.498c-2.24609 0-3.75977 1.51367-3.75977 3.71094Z"/>
  </g>
  <g transform="matrix(0.2 0 0 0.2 281.506 1933)">
   <path d="m58.5449 14.5508c27.4902 0 49.8047-22.3145 49.8047-49.8047s-22.3145-49.8047-49.8047-49.8047-49.8047 22.3145-49.8047 49.8047 22.3145 49.8047 49.8047 49.8047Zm0-8.30078c-22.9492 0-41.5039-18.5547-41.5039-41.5039s18.5547-41.5039 41.5039-41.5039 41.5039 18.5547 41.5039 41.5039-18.5547 41.5039-41.5039 41.5039Zm-22.6562-41.5039c0 2.39258 1.66016 4.00391 4.15039 4.00391h14.3555v14.4043c0 2.44141 1.66016 4.15039 4.05273 4.15039 2.44141 0 4.15039-1.66016 4.15039-4.15039v-14.4043h14.4043c2.44141 0 4.15039-1.61133 4.15039-4.00391 0-2.44141-1.70898-4.15039-4.15039-4.15039h-14.4043v-14.3555c0-2.49023-1.70898-4.19922-4.15039-4.19922-2.39258 0-4.05273 1.70898-4.05273 4.19922v14.3555h-14.3555c-2.49023 0-4.15039 1.70898-4.15039 4.15039Z"/>
  </g>
  <g transform="matrix(0.2 0 0 0.2 304.924 1933)">
   <path d="m74.8535 28.3203c35.1074 0 63.623-28.4668 63.623-63.5742s-28.5156-63.623-63.623-63.623-63.5742 28.5156-63.5742 63.623 28.4668 63.5742 63.5742 63.5742Zm0-9.08203c-30.127 0-54.4922-24.3652-54.4922-54.4922s24.3652-54.4922 54.4922-54.4922 54.4922 24.3652 54.4922 54.4922-24.3652 54.4922-54.4922 54.4922Zm-28.8574-54.4922c0 2.58789 1.85547 4.39453 4.58984 4.39453h19.7266v19.7754c0 2.68555 1.85547 4.58984 4.44336 4.58984 2.68555 0 4.54102-1.85547 4.54102-4.58984v-19.7754h19.7754c2.68555 0 4.58984-1.80664 4.58984-4.39453 0-2.73438-1.85547-4.58984-4.58984-4.58984h-19.7754v-19.7266c0-2.73438-1.85547-4.63867-4.54102-4.63867-2.58789 0-4.44336 1.9043-4.44336 4.63867v19.7266h-19.7266c-2.73438 0-4.58984 1.85547-4.58984 4.58984Z"/>
  </g>
  <text style="stroke:none;fill:black;font-family:sans-serif;font-size:13;font-weight:bold;" transform="matrix(1 0 0 1 263 1953)">Design Variations</text>
  <text style="stroke:none;fill:black;font-family:sans-serif;font-size:13;" transform="matrix(1 0 0 1 263 1971)">Symbols are supported in up to nine weights and three scales.</text>
  <text style="stroke:none;fill:black;font-family:sans-serif;font-size:13;" transform="matrix(1 0 0 1 263 1989)">For optimal layout with text and other symbols, vertically align</text>
  <text style="stroke:none;fill:black;font-family:sans-serif;font-size:13;" transform="matrix(1 0 0 1 263 2007)">symbols with the adjacent text.</text>
  <line style="fill:none;stroke:#00AEEF;stroke-width:0.5;opacity:1.0;" x1="776" x2="776" y1="1919" y2="1933"/>
  <g transform="matrix(0.2 0 0 0.2 776 1933)">
   <path d="m16.5527 0.78125c2.58789 0 3.85742-0.976562 4.78516-3.71094l6.29883-17.2363h28.8086l6.29883 17.2363c0.927734 2.73438 2.19727 3.71094 4.73633 3.71094 2.58789 0 4.24805-1.5625 4.24805-4.00391 0-0.830078-0.146484-1.61133-0.537109-2.63672l-22.9004-60.9863c-1.12305-2.97852-3.125-4.49219-6.25-4.49219-3.02734 0-5.07812 1.46484-6.15234 4.44336l-22.9004 61.084c-0.390625 1.02539-0.537109 1.80664-0.537109 2.63672 0 2.44141 1.5625 3.95508 4.10156 3.95508Zm13.4766-28.3691 11.8652-32.8613h0.244141l11.8652 32.8613Z"/>
  </g>
  <line style="fill:none;stroke:#00AEEF;stroke-width:0.5;opacity:1.0;" x1="792.836" x2="792.836" y1="1919" y2="1933"/>
  <text style="stroke:none;fill:black;font-family:sans-serif;font-size:13;font-weight:bold;" transform="matrix(1 0 0 1 776 1953)">Margins</text>
  <text style="stroke:none;fill:black;font-family:sans-serif;font-size:13;" transform="matrix(1 0 0 1 776 1971)">Leading and trailing margins on the left and right side of each symbol</text>
  <text style="stroke:none;fill:black;font-family:sans-serif;font-size:13;" transform="matrix(1 0 0 1 776 1989)">can be adjusted by modifying the x-location of the margin guidelines.</text>
  <text style="stroke:none;fill:black;font-family:sans-serif;font-size:13;" transform="matrix(1 0 0 1 776 2007)">Modifications are automatically applied proportionally to all</text>
  <text style="stroke:none;fill:black;font-family:sans-serif;font-size:13;" transform="matrix(1 0 0 1 776 2025)">scales and weights.</text>
  <g transform="matrix(0.2 0 0 0.2 1289 1933)">
   <path d="m14.209 9.32617 8.49609 8.54492c4.29688 4.3457 9.22852 4.05273 13.8672-1.07422l53.4668-58.9355-4.83398-4.88281-53.0762 58.3984c-1.75781 2.00195-3.41797 2.49023-5.76172 0.146484l-5.85938-5.81055c-2.34375-2.29492-1.80664-4.00391 0.195312-5.81055l57.373-54.0039-4.88281-4.83398-57.959 54.4434c-4.93164 4.58984-5.32227 9.47266-1.02539 13.8184Zm32.0801-90.9668c-2.09961 2.05078-2.24609 4.93164-1.07422 6.88477 1.17188 1.80664 3.4668 2.97852 6.68945 2.14844 7.32422-1.70898 14.9414-2.00195 22.0703 2.68555l-2.92969 7.27539c-1.70898 4.15039-0.830078 7.08008 1.85547 9.81445l11.4746 11.5723c2.44141 2.44141 4.49219 2.53906 7.32422 2.05078l5.32227-0.976562 3.32031 3.36914-0.195312 2.7832c-0.195312 2.49023 0.439453 4.39453 2.88086 6.78711l3.80859 3.71094c2.39258 2.39258 5.46875 2.53906 7.8125 0.195312l14.5508-14.5996c2.34375-2.34375 2.24609-5.32227-0.146484-7.71484l-3.85742-3.80859c-2.39258-2.39258-4.24805-3.17383-6.64062-2.97852l-2.88086 0.244141-3.22266-3.17383 1.2207-5.61523c0.634766-2.83203-0.146484-5.0293-3.07617-7.95898l-10.9863-10.9375c-16.6992-16.6016-38.8672-16.2109-53.3203-1.75781Zm7.4707 1.85547c12.1582-8.88672 28.6133-7.37305 39.7461 3.75977l12.1582 12.0605c1.17188 1.17188 1.36719 2.09961 1.02539 3.80859l-1.61133 7.42188 7.51953 7.42188 4.93164-0.292969c1.26953-0.0488281 1.66016 0.0488281 2.63672 1.02539l2.88086 2.88086-12.207 12.207-2.88086-2.88086c-0.976562-0.976562-1.12305-1.36719-1.07422-2.68555l0.341797-4.88281-7.4707-7.42188-7.61719 1.26953c-1.61133 0.341797-2.34375 0.195312-3.56445-0.976562l-10.0098-10.0098c-1.26953-1.17188-1.41602-2.00195-0.634766-3.85742l4.39453-10.4492c-7.8125-7.27539-17.9688-10.4004-28.125-7.42188-0.78125 0.195312-1.07422-0.439453-0.439453-0.976562Z"/>
  </g>
  <text style="stroke:none;fill:black;font-family:sans-serif;font-size:13;font-weight:bold;" transform="matrix(1 0 0 1 1289 1953)">Exporting</text>
  <text style="stroke:none;fill:black;font-family:sans-serif;font-size:13;" transform="matrix(1 0 0 1 1289 1971)">Symbols should be outlined when exporting to ensure the</text>
  <text style="stroke:none;fill:black;font-family:sans-serif;font-size:13;" transform="matrix(1 0 0 1 1289 1989)">design is preserved when submitting to Xcode.</text>
  <text id="template-version" style="stroke:none;fill:black;font-family:sans-serif;font-size:13;text-anchor:end;" transform="matrix(1 0 0 1 3036 1933)">Template v.6.0</text>
  <text style="stroke:none;fill:black;font-family:sans-serif;font-size:13;text-anchor:end;" transform="matrix(1 0 0 1 3036 1951)">Requires Xcode 16 or greater</text>
  <text id="descriptive-name" style="stroke:none;fill:black;font-family:sans-serif;font-size:13;text-anchor:end;" transform="matrix(1 0 0 1 3036 1969)">Generated from square</text>
  <text style="stroke:none;fill:black;font-family:sans-serif;font-size:13;text-anchor:end;" transform="matrix(1 0 0 1 3036 1987)">Typeset at 100.0 points</text>
  <text style="stroke:none;fill:black;font-family:sans-serif;font-size:13;" transform="matrix(1 0 0 1 263 726)">Small</text>
  <text style="stroke:none;fill:black;font-family:sans-serif;font-size:13;" transform="matrix(1 0 0 1 263 1156)">Medium</text>
  <text style="stroke:none;fill:black;font-family:sans-serif;font-size:13;" transform="matrix(1 0 0 1 263 1586)">Large</text>
 </g>
 <g id="Guides">
  <g id="H-reference" style="fill:#27AAE1;stroke:none;" transform="matrix(1 0 0 1 339 696)">
   <path d="M0.993654 0L3.63775 0L29.3281-67.1323L30.0303-67.1323L30.0303-70.459L28.1226-70.459ZM11.6885-24.4799L46.9815-24.4799L46.2315-26.7285L12.4385-26.7285ZM55.1196 0L57.7637 0L30.6382-70.459L29.4326-70.459L29.4326-67.1323Z"/>
  </g>
  <line id="Baseline-S" style="fill:none;stroke:#27AAE1;opacity:1;stroke-width:0.5;" x1="263" x2="3036" y1="696" y2="696"/>
  <line id="Capline-S" style="fill:none;stroke:#27AAE1;opacity:1;stroke-width:0.5;" x1="263" x2="3036" y1="625.541" y2="625.541"/>
  <g id="H-reference" style="fill:#27AAE1;stroke:none;" transform="matrix(1 0 0 1 339 1126)">
   <path d="M0.993654 0L3.63775 0L29.3281-67.1323L30.0303-67.1323L30.0303-70.459L28.1226-70.459ZM11.6885-24.4799L46.9815-24.4799L46.2315-26.7285L12.4385-26.7285ZM55.1196 0L57.7637 0L30.6382-70.459L29.4326-70.459L29.4326-67.1323Z"/>
  </g>
  <line id="Baseline-M" style="fill:none;stroke:#27AAE1;opacity:1;stroke-width:0.5;" x1="263" x2="3036" y1="1126" y2="1126"/>
  <line id="Capline-M" style="fill:none;stroke:#27AAE1;opacity:1;stroke-width:0.5;" x1="263" x2="3036" y1="1055.54" y2="1055.54"/>
  <g id="H-reference" style="fill:#27AAE1;stroke:none;" transform="matrix(1 0 0 1 339 1556)">
   <path d="M0.993654 0L3.63775 0L29.3281-67.1323L30.0303-67.1323L30.0303-70.459L28.1226-70.459ZM11.6885-24.4799L46.9815-24.4799L46.2315-26.7285L12.4385-26.7285ZM55.1196 0L57.7637 0L30.6382-70.459L29.4326-70.459L29.4326-67.1323Z"/>
  </g>
  <line id="Baseline-L" style="fill:none;stroke:#27AAE1;opacity:1;stroke-width:0.5;" x1="263" x2="3036" y1="1556" y2="1556"/>
  <line id="Capline-L" style="fill:none;stroke:#27AAE1;opacity:1;stroke-width:0.5;" x1="263" x2="3036" y1="1485.54" y2="1485.54"/>
  <line id="right-margin-Black-S" style="fill:none;stroke:#00AEEF;stroke-width:0.5;opacity:1.0;" x1="2981.3" x2="2981.3" y1="600.785" y2="720.121"/>
  <line id="left-margin-Black-S" style="fill:none;stroke:#00AEEF;stroke-width:0.5;opacity:1.0;" x1="2885.5" x2="2885.5" y1="600.785" y2="720.121"/>
  <line id="right-margin-Regular-S" style="fill:none;stroke:#00AEEF;stroke-width:0.5;opacity:1.0;" x1="1495.18" x2="1495.18" y1="600.785" y2="720.121"/>
  <line id="left-margin-Regular-S" style="fill:none;stroke:#00AEEF;stroke-width:0.5;opacity:1.0;" x1="1404.51" x2="1404.51" y1="600.785" y2="720.121"/>
  <line id="right-margin-Ultralight-S" style="fill:none;stroke:#00AEEF;stroke-width:0.5;opacity:1.0;" x1="603.073" x2="603.073" y1="600.785" y2="720.121"/>
  <line id="left-margin-Ultralight-S" style="fill:none;stroke:#00AEEF;stroke-width:0.5;opacity:1.0;" x1="516.35" x2="516.35" y1="600.785" y2="720.121"/>
 </g>
 <g id="Symbols">
  <g id="Black-S"><path d="M2932.5936,631.54145c-1.33578,0.38459 -2.23414,1.68808 -2.10203,3.05029c0.03523,0.37872 0.28184,1.04221 0.7134,1.92588c1.64698,3.37616 3.55524,6.03305 6.01544,8.38168c5.24919,5.01433 12.06023,7.37471 20.60338,7.14278c1.77615,-0.04991 2.5424,-0.1145 2.92698,-0.25541c2.39561,-0.86312 2.70093,-4.02791 0.5167,-5.30791l-0.54019,-0.31707l-3.59634,-0.01761c-3.1413,-0.01761 -3.76956,-0.04991 -5.00259,-0.27596c-3.88405,-0.71046 -6.52626,-1.7967 -9.15967,-3.76956c-2.56882,-1.92294 -4.55928,-4.41543 -6.4147,-8.02352c-0.90129,-1.74973 -1.27707,-2.17249 -2.20184,-2.48955c-0.58716,-0.19963 -1.16844,-0.21431 -1.75854,-0.04404M2947.10815,631.58549c-0.65175,0.2378 -1.23303,0.72808 -1.5912,1.33578c-0.27009,0.45798 -0.31707,0.6723 -0.31413,1.42092c0,0.62532 0.06459,1.0011 0.21725,1.29175c0.29064,0.54899 6.4558,6.74938 7.08406,7.12223c1.35046,0.79854 3.16772,0.29945 3.98974,-1.09799c0.28477,-0.48441 0.33174,-0.68991 0.33174,-1.44441c0,-0.74276 -0.04991,-0.96294 -0.31413,-1.40918c-0.17028,-0.29064 -1.78203,-1.98753 -3.58167,-3.76956c-2.85652,-2.83304 -3.34093,-3.2646 -3.84589,-3.43488c-0.68991,-0.23193 -1.37395,-0.2378 -1.97579,-0.01468M2916.79317,637.40129c-3.44368,0.4022 -6.5703,1.89359 -8.94536,4.26864c-1.0745,1.07744 -1.81725,2.06093 -2.3457,3.11487c-0.51083,1.01578 -0.34936,2.31927 0.39046,3.18533c0.49321,0.57835 1.14789,0.92477 1.9112,1.01578c1.20367,0.14092 2.21065,-0.44037 3.07084,-1.78203c0.52257,-0.81615 1.4679,-1.82313 2.149,-2.28992c2.56295,-1.76441 6.0536,-2.22533 9.04224,-1.1978c1.41212,0.48734 2.19891,0.98643 3.35561,2.13432c1.189,1.17725 1.76441,2.19891 1.99047,3.53763c0.35523,2.11671 -0.28771,4.07194 -1.88184,5.69837c-1.61762,1.65579 -3.6991,2.56295 -6.16516,2.69506c-1.87891,0.09982 -2.75377,0.56367 -3.3057,1.74973c-0.9101,1.95524 0.5167,4.16295 2.69506,4.16882c0.85138,0 2.24001,0.28184 2.97983,0.60477c1.38863,0.60477 2.95634,1.93762 3.90754,3.32038c0.51964,0.75743 1.25945,2.35157 1.4679,3.16478c0.65762,2.56588 0.48441,5.44883 -0.45798,7.62719c-0.63707,1.4679 -1.10973,2.16955 -2.23707,3.30276c-1.15964,1.16551 -1.94056,1.68221 -3.24992,2.149c-0.76624,0.27303 -1.0334,0.30826 -2.44551,0.30826c-1.41212,0 -1.67927,-0.03523 -2.44551,-0.30826c-1.1156,-0.39633 -1.97872,-0.92184 -2.9035,-1.76441c-3.23524,-2.95341 -4.27451,-7.57141 -2.73029,-12.1072c0.68698,-2.01689 0.63413,-2.89469 -0.23486,-3.85469c-0.6312,-0.69872 -1.22129,-0.95707 -2.19597,-0.96294c-1.84074,-0.01174 -2.6657,1.00991 -3.63745,4.50937c-0.51964,1.87891 -0.66055,4.64442 -0.34349,6.77581c1.05395,7.10461 5.99489,12.43895 12.49473,13.4929c5.62498,0.91303 11.46133,-2.11671 14.48519,-7.51856c1.79964,-3.21469 2.56001,-7.32186 2.01395,-10.87123c-0.09395,-0.61358 -0.17321,-1.17432 -0.17321,-1.24478c-0.00294,-0.0822 0.4433,-0.1556 1.20074,-0.19963c3.97506,-0.23193 7.26608,-2.16661 10.22242,-6.00663c1.52955,-1.99047 2.789,-2.93286 4.34203,-3.25873c0.84844,-0.17908 1.94056,-0.01174 2.88295,0.4433c0.86019,0.41688 2.37799,1.93762 3.05616,3.07084c3.27634,5.44883 2.71267,13.61326 -1.2301,17.8731c-0.93358,1.00698 -1.62936,1.4767 -2.6657,1.79083c-1.49725,0.45505 -3.06203,0.12037 -4.36552,-0.93065c-1.97579,-1.5912 -3.34974,-4.10717 -3.94277,-7.21617c-0.28184,-1.47964 -0.49321,-1.97872 -1.06569,-2.51891c-0.59597,-0.5578 -1.1156,-0.77211 -1.9112,-0.78679c-1.20661,-0.02642 -2.18129,0.54899 -2.70093,1.59413c-0.37578,0.7545 -0.39046,1.43854 -0.06165,3.0679c1.27413,6.29727 5.26387,11.2294 10.15197,12.54757c1.32404,0.35817 3.82534,0.35523 5.14057,-0.00294c5.26094,-1.42973 9.08334,-6.43819 10.37509,-13.58391c0.29945,-1.65872 0.29945,-5.73947 0,-7.39819c-1.29468,-7.17507 -5.18461,-12.23931 -10.42793,-13.58391c-1.36514,-0.34936 -3.64038,-0.34349 -4.97029,0.00881c-2.7068,0.71927 -5.0114,2.39267 -7.22498,5.24332c-1.28294,1.65579 -2.25762,2.53065 -3.43488,3.09139c-2.72148,1.30056 -5.19635,0.84551 -7.67709,-1.41505c-0.59009,-0.53725 -1.08037,-1.01872 -1.08918,-1.07156c-0.00881,-0.04991 0.29358,-0.32587 0.6723,-0.61064c0.37872,-0.28771 1.06276,-0.9101 1.5178,-1.38863c5.74828,-6.0536 4.32736,-15.18391 -3.05616,-19.61402c-2.80368,-1.68221 -6.57324,-2.46313 -9.99343,-2.0668" className="SFSymbolsPreviewWireframe"/></g>
  <g id="Regular-S"><path d="M1449.03855,631.54145c-1.33578,0.38459 -2.23414,1.68808 -2.10203,3.05029c0.03523,0.37872 0.28184,1.04221 0.7134,1.92588c1.64698,3.37616 3.55524,6.03305 6.01544,8.38168c5.24919,5.01433 12.06023,7.37471 20.60338,7.14278c1.77615,-0.04991 2.5424,-0.1145 2.92698,-0.25541c2.39561,-0.86312 2.70093,-4.02791 0.5167,-5.30791l-0.54019,-0.31707l-3.59634,-0.01761c-3.1413,-0.01761 -3.76956,-0.04991 -5.00259,-0.27596c-3.88405,-0.71046 -6.52626,-1.7967 -9.15967,-3.76956c-2.56882,-1.92294 -4.55928,-4.41543 -6.4147,-8.02352c-0.90129,-1.74973 -1.27707,-2.17249 -2.20184,-2.48955c-0.58716,-0.19963 -1.16844,-0.21431 -1.75854,-0.04404M1463.5531,631.58549c-0.65175,0.2378 -1.23303,0.72808 -1.5912,1.33578c-0.27009,0.45798 -0.31707,0.6723 -0.31413,1.42092c0,0.62532 0.06459,1.0011 0.21725,1.29175c0.29064,0.54899 6.4558,6.74938 7.08406,7.12223c1.35046,0.79854 3.16772,0.29945 3.98974,-1.09799c0.28477,-0.48441 0.33174,-0.68991 0.33174,-1.44441c0,-0.74276 -0.04991,-0.96294 -0.31413,-1.40918c-0.17028,-0.29064 -1.78203,-1.98753 -3.58167,-3.76956c-2.85652,-2.83304 -3.34093,-3.2646 -3.84589,-3.43488c-0.68991,-0.23193 -1.37395,-0.2378 -1.97579,-0.01468M1433.23812,637.40129c-3.44368,0.4022 -6.5703,1.89359 -8.94536,4.26864c-1.0745,1.07744 -1.81725,2.06093 -2.3457,3.11487c-0.51083,1.01578 -0.34936,2.31927 0.39046,3.18533c0.49321,0.57835 1.14789,0.92477 1.9112,1.01578c1.20367,0.14092 2.21065,-0.44037 3.07084,-1.78203c0.52257,-0.81615 1.4679,-1.82313 2.149,-2.28992c2.56295,-1.76441 6.0536,-2.22533 9.04224,-1.1978c1.41212,0.48734 2.19891,0.98643 3.35561,2.13432c1.189,1.17725 1.76441,2.19891 1.99047,3.53763c0.35523,2.11671 -0.28771,4.07194 -1.88184,5.69837c-1.61762,1.65579 -3.6991,2.56295 -6.16516,2.69506c-1.87891,0.09982 -2.75377,0.56367 -3.3057,1.74973c-0.9101,1.95524 0.5167,4.16295 2.69506,4.16882c0.85138,0 2.24001,0.28184 2.97983,0.60477c1.38863,0.60477 2.95634,1.93762 3.90754,3.32038c0.51964,0.75743 1.25945,2.35157 1.4679,3.16478c0.65762,2.56588 0.48441,5.44883 -0.45798,7.62719c-0.63707,1.4679 -1.10973,2.16955 -2.23707,3.30276c-1.15964,1.16551 -1.94056,1.68221 -3.24992,2.149c-0.76624,0.27303 -1.0334,0.30826 -2.44551,0.30826c-1.41212,0 -1.67927,-0.03523 -2.44551,-0.30826c-1.1156,-0.39633 -1.97872,-0.92184 -2.9035,-1.76441c-3.23524,-2.95341 -4.27451,-7.57141 -2.73029,-12.1072c0.68698,-2.01689 0.63413,-2.89469 -0.23486,-3.85469c-0.6312,-0.69872 -1.22129,-0.95707 -2.19597,-0.96294c-1.84074,-0.01174 -2.6657,1.00991 -3.63745,4.50937c-0.51964,1.87891 -0.66055,4.64442 -0.34349,6.77581c1.05395,7.10461 5.99489,12.43895 12.49473,13.4929c5.62498,0.91303 11.46133,-2.11671 14.48519,-7.51856c1.79964,-3.21469 2.56001,-7.32186 2.01395,-10.87123c-0.09395,-0.61358 -0.17321,-1.17432 -0.17321,-1.24478c-0.00294,-0.0822 0.4433,-0.1556 1.20074,-0.19963c3.97506,-0.23193 7.26608,-2.16661 10.22242,-6.00663c1.52955,-1.99047 2.789,-2.93286 4.34203,-3.25873c0.84844,-0.17908 1.94056,-0.01174 2.88295,0.4433c0.86019,0.41688 2.37799,1.93762 3.05616,3.07084c3.27634,5.44883 2.71267,13.61326 -1.2301,17.8731c-0.93358,1.00698 -1.62936,1.4767 -2.6657,1.79083c-1.49725,0.45505 -3.06203,0.12037 -4.36552,-0.93065c-1.97579,-1.5912 -3.34974,-4.10717 -3.94277,-7.21617c-0.28184,-1.47964 -0.49321,-1.97872 -1.06569,-2.51891c-0.59597,-0.5578 -1.1156,-0.77211 -1.9112,-0.78679c-1.20661,-0.02642 -2.18129,0.54899 -2.70093,1.59413c-0.37578,0.7545 -0.39046,1.43854 -0.06165,3.0679c1.27413,6.29727 5.26387,11.2294 10.15197,12.54757c1.32404,0.35817 3.82534,0.35523 5.14057,-0.00294c5.26094,-1.42973 9.08334,-6.43819 10.37509,-13.58391c0.29945,-1.65872 0.29945,-5.73947 0,-7.39819c-1.29468,-7.17507 -5.18461,-12.23931 -10.42793,-13.58391c-1.36514,-0.34936 -3.64038,-0.34349 -4.97029,0.00881c-2.7068,0.71927 -5.0114,2.39267 -7.22498,5.24332c-1.28294,1.65579 -2.25762,2.53065 -3.43488,3.09139c-2.72148,1.30056 -5.19635,0.84551 -7.67709,-1.41505c-0.59009,-0.53725 -1.08037,-1.01872 -1.08918,-1.07156c-0.00881,-0.04991 0.29358,-0.32587 0.6723,-0.61064c0.37872,-0.28771 1.06276,-0.9101 1.5178,-1.38863c5.74828,-6.0536 4.32736,-15.18391 -3.05616,-19.61402c-2.80368,-1.68221 -6.57324,-2.46313 -9.99343,-2.0668" className="SFSymbolsPreviewWireframe"/></g>
  <g id="Ultralight-S"><path d="M558.90496,631.54145c-1.33578,0.38459 -2.23414,1.68808 -2.10203,3.05029c0.03523,0.37872 0.28184,1.04221 0.7134,1.92588c1.64698,3.37616 3.55524,6.03305 6.01544,8.38168c5.24919,5.01433 12.06023,7.37471 20.60338,7.14278c1.77615,-0.04991 2.5424,-0.1145 2.92698,-0.25541c2.39561,-0.86312 2.70093,-4.02791 0.5167,-5.30791l-0.54019,-0.31707l-3.59634,-0.01761c-3.1413,-0.01761 -3.76956,-0.04991 -5.00259,-0.27596c-3.88405,-0.71046 -6.52626,-1.7967 -9.15967,-3.76956c-2.56882,-1.92294 -4.55928,-4.41543 -6.4147,-8.02352c-0.90129,-1.74973 -1.27707,-2.17249 -2.20184,-2.48955c-0.58716,-0.19963 -1.16844,-0.21431 -1.75854,-0.04404M573.41951,631.58549c-0.65175,0.2378 -1.23303,0.72808 -1.5912,1.33578c-0.27009,0.45798 -0.31707,0.6723 -0.31413,1.42092c0,0.62532 0.06459,1.0011 0.21725,1.29175c0.29064,0.54899 6.4558,6.74938 7.08406,7.12223c1.35046,0.79854 3.16772,0.29945 3.98974,-1.09799c0.28477,-0.48441 0.33174,-0.68991 0.33174,-1.44441c0,-0.74276 -0.04991,-0.96294 -0.31413,-1.40918c-0.17028,-0.29064 -1.78203,-1.98753 -3.58167,-3.76956c-2.85652,-2.83304 -3.34093,-3.2646 -3.84589,-3.43488c-0.68991,-0.23193 -1.37395,-0.2378 -1.97579,-0.01468M543.10453,637.40129c-3.44368,0.4022 -6.5703,1.89359 -8.94536,4.26864c-1.0745,1.07744 -1.81725,2.06093 -2.3457,3.11487c-0.51083,1.01578 -0.34936,2.31927 0.39046,3.18533c0.49321,0.57835 1.14789,0.92477 1.9112,1.01578c1.20367,0.14092 2.21065,-0.44037 3.07084,-1.78203c0.52257,-0.81615 1.4679,-1.82313 2.149,-2.28992c2.56295,-1.76441 6.0536,-2.22533 9.04224,-1.1978c1.41212,0.48734 2.19891,0.98643 3.35561,2.13432c1.189,1.17725 1.76441,2.19891 1.99047,3.53763c0.35523,2.11671 -0.28771,4.07194 -1.88184,5.69837c-1.61762,1.65579 -3.6991,2.56295 -6.16516,2.69506c-1.87891,0.09982 -2.75377,0.56367 -3.3057,1.74973c-0.9101,1.95524 0.5167,4.16295 2.69506,4.16882c0.85138,0 2.24001,0.28184 2.97983,0.60477c1.38863,0.60477 2.95634,1.93762 3.90754,3.32038c0.51964,0.75743 1.25945,2.35157 1.4679,3.16478c0.65762,2.56588 0.48441,5.44883 -0.45798,7.62719c-0.63707,1.4679 -1.10973,2.16955 -2.23707,3.30276c-1.15964,1.16551 -1.94056,1.68221 -3.24992,2.149c-0.76624,0.27303 -1.0334,0.30826 -2.44551,0.30826c-1.41212,0 -1.67927,-0.03523 -2.44551,-0.30826c-1.1156,-0.39633 -1.97872,-0.92184 -2.9035,-1.76441c-3.23524,-2.95341 -4.27451,-7.57141 -2.73029,-12.1072c0.68698,-2.01689 0.63413,-2.89469 -0.23486,-3.85469c-0.6312,-0.69872 -1.22129,-0.95707 -2.19597,-0.96294c-1.84074,-0.01174 -2.6657,1.00991 -3.63745,4.50937c-0.51964,1.87891 -0.66055,4.64442 -0.34349,6.77581c1.05395,7.10461 5.99489,12.43895 12.49473,13.4929c5.62498,0.91303 11.46133,-2.11671 14.48519,-7.51856c1.79964,-3.21469 2.56001,-7.32186 2.01395,-10.87123c-0.09395,-0.61358 -0.17321,-1.17432 -0.17321,-1.24478c-0.00294,-0.0822 0.4433,-0.1556 1.20074,-0.19963c3.97506,-0.23193 7.26608,-2.16661 10.22242,-6.00663c1.52955,-1.99047 2.789,-2.93286 4.34203,-3.25873c0.84844,-0.17908 1.94056,-0.01174 2.88295,0.4433c0.86019,0.41688 2.37799,1.93762 3.05616,3.07084c3.27634,5.44883 2.71267,13.61326 -1.2301,17.8731c-0.93358,1.00698 -1.62936,1.4767 -2.6657,1.79083c-1.49725,0.45505 -3.06203,0.12037 -4.36552,-0.93065c-1.97579,-1.5912 -3.34974,-4.10717 -3.94277,-7.21617c-0.28184,-1.47964 -0.49321,-1.97872 -1.06569,-2.51891c-0.59597,-0.5578 -1.1156,-0.77211 -1.9112,-0.78679c-1.20661,-0.02642 -2.18129,0.54899 -2.70093,1.59413c-0.37578,0.7545 -0.39046,1.43854 -0.06165,3.0679c1.27413,6.29727 5.26387,11.2294 10.15197,12.54757c1.32404,0.35817 3.82534,0.35523 5.14057,-0.00294c5.26094,-1.42973 9.08334,-6.43819 10.37509,-13.58391c0.29945,-1.65872 0.29945,-5.73947 0,-7.39819c-1.29468,-7.17507 -5.18461,-12.23931 -10.42793,-13.58391c-1.36514,-0.34936 -3.64038,-0.34349 -4.97029,0.00881c-2.7068,0.71927 -5.0114,2.39267 -7.22498,5.24332c-1.28294,1.65579 -2.25762,2.53065 -3.43488,3.09139c-2.72148,1.30056 -5.19635,0.84551 -7.67709,-1.41505c-0.59009,-0.53725 -1.08037,-1.01872 -1.08918,-1.07156c-0.00881,-0.04991 0.29358,-0.32587 0.6723,-0.61064c0.37872,-0.28771 1.06276,-0.9101 1.5178,-1.38863c5.74828,-6.0536 4.32736,-15.18391 -3.05616,-19.61402c-2.80368,-1.68221 -6.57324,-2.46313 -9.99343,-2.0668" className="SFSymbolsPreviewWireframe"/></g>
 </g>
</svg>