<?xml version="1.0" encoding="UTF-8"?><!--Generator: https://SymbolKit.app--><!DOCTYPE svg PUBLIC "-//W3C//DTD SVG 1.1//EN" "http://www.w3.org/Graphics/SVG/1.1/DTD/svg11.dtd"><svg xmlns="http://www.w3.org/2000/svg" xmlns:xlink="http://www.w3.org/1999/xlink" version="1.1" viewBox="0 0 3300 2200">
 <!--glyph: "100092", point size: 100.0, font version: "20.0d10e1", template writer version: "138.0.0"-->
 <style>.SFSymbolsPreviewWireframe {fill:none;opacity:1.0;stroke:black;stroke-width:0.5}
</style>
 <g id="Notes">
  <rect height="2200" id="artboard" style="fill:white;opacity:1" width="3300" x="0" y="0"/>
  <line style="fill:none;stroke:black;opacity:1;stroke-width:0.5;" x1="263" x2="3036" y1="292" y2="292"/>
  <text style="stroke:none;fill:black;font-family:sans-serif;font-size:13;font-weight:bold;" transform="matrix(1 0 0 1 263 322)">Weight/Scale Variations</text>
  <text style="stroke:none;fill:black;font-family:sans-serif;font-size:13;text-anchor:middle;" transform="matrix(1 0 0 1 559.711 322)">Ultralight</text>
  <text style="stroke:none;fill:black;font-family:sans-serif;font-size:13;text-anchor:middle;" transform="matrix(1 0 0 1 856.422 322)">Thin</text>
  <text style="stroke:none;fill:black;font-family:sans-serif;font-size:13;text-anchor:middle;" transform="matrix(1 0 0 1 1153.13 322)">Light</text>
  <text style="stroke:none;fill:black;font-family:sans-serif;font-size:13;text-anchor:middle;" transform="matrix(1 0 0 1 1449.84 322)">Regular</text>
  <text style="stroke:none;fill:black;font-family:sans-serif;font-size:13;text-anchor:middle;" transform="matrix(1 0 0 1 1746.56 322)">Medium</text>
  <text style="stroke:none;fill:black;font-family:sans-serif;font-size:13;text-anchor:middle;" transform="matrix(1 0 0 1 2043.27 322)">Semibold</text>
  <text style="stroke:none;fill:black;font-family:sans-serif;font-size:13;text-anchor:middle;" transform="matrix(1 0 0 1 2339.98 322)">Bold</text>
  <text style="stroke:none;fill:black;font-family:sans-serif;font-size:13;text-anchor:middle;" transform="matrix(1 0 0 1 2636.69 322)">Heavy</text>
  <text style="stroke:none;fill:black;font-family:sans-serif;font-size:13;text-anchor:middle;" transform="matrix(1 0 0 1 2933.4 322)">Black</text>
  <line style="fill:none;stroke:black;opacity:1;stroke-width:0.5;" x1="263" x2="3036" y1="1903" y2="1903"/>
  <g transform="matrix(0.2 0 0 0.2 263 1933)">
   <path d="m46.2402 4.15039c21.7773 0 39.4531-17.627 39.4531-39.4043s-17.6758-39.4043-39.4531-39.4043c-21.7285 0-39.4043 17.627-39.4043 39.4043s17.6758 39.4043 39.4043 39.4043Zm0-7.42188c-17.6758 0-31.9336-14.3066-31.9336-31.9824s14.2578-31.9824 31.9336-31.9824 31.9824 14.3066 31.9824 31.9824-14.3066 31.9824-31.9824 31.9824Zm-17.9688-31.9824c0 2.14844 1.51367 3.61328 3.75977 3.61328h10.498v10.5957c0 2.19727 1.46484 3.71094 3.61328 3.71094 2.24609 0 3.71094-1.51367 3.71094-3.71094v-10.5957h10.5957c2.19727 0 3.71094-1.46484 3.71094-3.61328 0-2.19727-1.51367-3.71094-3.71094-3.71094h-10.5957v-10.5469c0-2.24609-1.46484-3.75977-3.71094-3.75977-2.14844 0-3.61328 1.51367-3.61328 3.75977v10.5469h-10.498c-2.24609 0-3.75977 1.51367-3.75977 3.71094Z"/>
  </g>
  <g transform="matrix(0.2 0 0 0.2 281.506 1933)">
   <path d="m58.5449 14.5508c27.4902 0 49.8047-22.3145 49.8047-49.8047s-22.3145-49.8047-49.8047-49.8047-49.8047 22.3145-49.8047 49.8047 22.3145 49.8047 49.8047 49.8047Zm0-8.30078c-22.9492 0-41.5039-18.5547-41.5039-41.5039s18.5547-41.5039 41.5039-41.5039 41.5039 18.5547 41.5039 41.5039-18.5547 41.5039-41.5039 41.5039Zm-22.6562-41.5039c0 2.39258 1.66016 4.00391 4.15039 4.00391h14.3555v14.4043c0 2.44141 1.66016 4.15039 4.05273 4.15039 2.44141 0 4.15039-1.66016 4.15039-4.15039v-14.4043h14.4043c2.44141 0 4.15039-1.61133 4.15039-4.00391 0-2.44141-1.70898-4.15039-4.15039-4.15039h-14.4043v-14.3555c0-2.49023-1.70898-4.19922-4.15039-4.19922-2.39258 0-4.05273 1.70898-4.05273 4.19922v14.3555h-14.3555c-2.49023 0-4.15039 1.70898-4.15039 4.15039Z"/>
  </g>
  <g transform="matrix(0.2 0 0 0.2 304.924 1933)">
   <path d="m74.8535 28.3203c35.1074 0 63.623-28.4668 63.623-63.5742s-28.5156-63.623-63.623-63.623-63.5742 28.5156-63.5742 63.623 28.4668 63.5742 63.5742 63.5742Zm0-9.08203c-30.127 0-54.4922-24.3652-54.4922-54.4922s24.3652-54.4922 54.4922-54.4922 54.4922 24.3652 54.4922 54.4922-24.3652 54.4922-54.4922 54.4922Zm-28.8574-54.4922c0 2.58789 1.85547 4.39453 4.58984 4.39453h19.7266v19.7754c0 2.68555 1.85547 4.58984 4.44336 4.58984 2.68555 0 4.54102-1.85547 4.54102-4.58984v-19.7754h19.7754c2.68555 0 4.58984-1.80664 4.58984-4.39453 0-2.73438-1.85547-4.58984-4.58984-4.58984h-19.7754v-19.7266c0-2.73438-1.85547-4.63867-4.54102-4.63867-2.58789 0-4.44336 1.9043-4.44336 4.63867v19.7266h-19.7266c-2.73438 0-4.58984 1.85547-4.58984 4.58984Z"/>
  </g>
  <text style="stroke:none;fill:black;font-family:sans-serif;font-size:13;font-weight:bold;" transform="matrix(1 0 0 1 263 1953)">Design Variations</text>
  <text style="stroke:none;fill:black;font-family:sans-serif;font-size:13;" transform="matrix(1 0 0 1 263 1971)">Symbols are supported in up to nine weights and three scales.</text>
  <text style="stroke:none;fill:black;font-family:sans-serif;font-size:13;" transform="matrix(1 0 0 1 263 1989)">For optimal layout with text and other symbols, vertically align</text>
  <text style="stroke:none;fill:black;font-family:sans-serif;font-size:13;" transform="matrix(1 0 0 1 263 2007)">symbols with the adjacent text.</text>
  <line style="fill:none;stroke:#00AEEF;stroke-width:0.5;opacity:1.0;" x1="776" x2="776" y1="1919" y2="1933"/>
  <g transform="matrix(0.2 0 0 0.2 776 1933)">
   <path d="m16.5527 0.78125c2.58789 0 3.85742-0.976562 4.78516-3.71094l6.29883-17.2363h28.8086l6.29883 17.2363c0.927734 2.73438 2.19727 3.71094 4.73633 3.71094 2.58789 0 4.24805-1.5625 4.24805-4.00391 0-0.830078-0.146484-1.61133-0.537109-2.63672l-22.9004-60.9863c-1.12305-2.97852-3.125-4.49219-6.25-4.49219-3.02734 0-5.07812 1.46484-6.15234 4.44336l-22.9004 61.084c-0.390625 1.02539-0.537109 1.80664-0.537109 2.63672 0 2.44141 1.5625 3.95508 4.10156 3.95508Zm13.4766-28.3691 11.8652-32.8613h0.244141l11.8652 32.8613Z"/>
  </g>
  <line style="fill:none;stroke:#00AEEF;stroke-width:0.5;opacity:1.0;" x1="792.836" x2="792.836" y1="1919" y2="1933"/>
  <text style="stroke:none;fill:black;font-family:sans-serif;font-size:13;font-weight:bold;" transform="matrix(1 0 0 1 776 1953)">Margins</text>
  <text style="stroke:none;fill:black;font-family:sans-serif;font-size:13;" transform="matrix(1 0 0 1 776 1971)">Leading and trailing margins on the left and right side of each symbol</text>
  <text style="stroke:none;fill:black;font-family:sans-serif;font-size:13;" transform="matrix(1 0 0 1 776 1989)">can be adjusted by modifying the x-location of the margin guidelines.</text>
  <text style="stroke:none;fill:black;font-family:sans-serif;font-size:13;" transform="matrix(1 0 0 1 776 2007)">Modifications are automatically applied proportionally to all</text>
  <text style="stroke:none;fill:black;font-family:sans-serif;font-size:13;" transform="matrix(1 0 0 1 776 2025)">scales and weights.</text>
  <g transform="matrix(0.2 0 0 0.2 1289 1933)">
   <path d="m14.209 9.32617 8.49609 8.54492c4.29688 4.3457 9.22852 4.05273 13.8672-1.07422l53.4668-58.9355-4.83398-4.88281-53.0762 58.3984c-1.75781 2.00195-3.41797 2.49023-5.76172 0.146484l-5.85938-5.81055c-2.34375-2.29492-1.80664-4.00391 0.195312-5.81055l57.373-54.0039-4.88281-4.83398-57.959 54.4434c-4.93164 4.58984-5.32227 9.47266-1.02539 13.8184Zm32.0801-90.9668c-2.09961 2.05078-2.24609 4.93164-1.07422 6.88477 1.17188 1.80664 3.4668 2.97852 6.68945 2.14844 7.32422-1.70898 14.9414-2.00195 22.0703 2.68555l-2.92969 7.27539c-1.70898 4.15039-0.830078 7.08008 1.85547 9.81445l11.4746 11.5723c2.44141 2.44141 4.49219 2.53906 7.32422 2.05078l5.32227-0.976562 3.32031 3.36914-0.195312 2.7832c-0.195312 2.49023 0.439453 4.39453 2.88086 6.78711l3.80859 3.71094c2.39258 2.39258 5.46875 2.53906 7.8125 0.195312l14.5508-14.5996c2.34375-2.34375 2.24609-5.32227-0.146484-7.71484l-3.85742-3.80859c-2.39258-2.39258-4.24805-3.17383-6.64062-2.97852l-2.88086 0.244141-3.22266-3.17383 1.2207-5.61523c0.634766-2.83203-0.146484-5.0293-3.07617-7.95898l-10.9863-10.9375c-16.6992-16.6016-38.8672-16.2109-53.3203-1.75781Zm7.4707 1.85547c12.1582-8.88672 28.6133-7.37305 39.7461 3.75977l12.1582 12.0605c1.17188 1.17188 1.36719 2.09961 1.02539 3.80859l-1.61133 7.42188 7.51953 7.42188 4.93164-0.292969c1.26953-0.0488281 1.66016 0.0488281 2.63672 1.02539l2.88086 2.88086-12.207 12.207-2.88086-2.88086c-0.976562-0.976562-1.12305-1.36719-1.07422-2.68555l0.341797-4.88281-7.4707-7.42188-7.61719 1.26953c-1.61133 0.341797-2.34375 0.195312-3.56445-0.976562l-10.0098-10.0098c-1.26953-1.17188-1.41602-2.00195-0.634766-3.85742l4.39453-10.4492c-7.8125-7.27539-17.9688-10.4004-28.125-7.42188-0.78125 0.195312-1.07422-0.439453-0.439453-0.976562Z"/>
  </g>
  <text style="stroke:none;fill:black;font-family:sans-serif;font-size:13;font-weight:bold;" transform="matrix(1 0 0 1 1289 1953)">Exporting</text>
  <text style="stroke:none;fill:black;font-family:sans-serif;font-size:13;" transform="matrix(1 0 0 1 1289 1971)">Symbols should be outlined when exporting to ensure the</text>
  <text style="stroke:none;fill:black;font-family:sans-serif;font-size:13;" transform="matrix(1 0 0 1 1289 1989)">design is preserved when submitting to Xcode.</text>
  <text id="template-version" style="stroke:none;fill:black;font-family:sans-serif;font-size:13;text-anchor:end;" transform="matrix(1 0 0 1 3036 1933)">Template v.6.0</text>
  <text style="stroke:none;fill:black;font-family:sans-serif;font-size:13;text-anchor:end;" transform="matrix(1 0 0 1 3036 1951)">Requires Xcode 16 or greater</text>
  <text id="descriptive-name" style="stroke:none;fill:black;font-family:sans-serif;font-size:13;text-anchor:end;" transform="matrix(1 0 0 1 3036 1969)">Generated from square</text>
  <text style="stroke:none;fill:black;font-family:sans-serif;font-size:13;text-anchor:end;" transform="matrix(1 0 0 1 3036 1987)">Typeset at 100.0 points</text>
  <text style="stroke:none;fill:black;font-family:sans-serif;font-size:13;" transform="matrix(1 0 0 1 263 726)">Small</text>
  <text style="stroke:none;fill:black;font-family:sans-serif;font-size:13;" transform="matrix(1 0 0 1 263 1156)">Medium</text>
  <text style="stroke:none;fill:black;font-family:sans-serif;font-size:13;" transform="matrix(1 0 0 1 263 1586)">Large</text>
 </g>
 <g id="Guides">
  <g id="H-reference" style="fill:#27AAE1;stroke:none;" transform="matrix(1 0 0 1 339 696)">
   <path d="M0.993654 0L3.63775 0L29.3281-67.1323L30.0303-67.1323L30.0303-70.459L28.1226-70.459ZM11.6885-24.4799L46.9815-24.4799L46.2315-26.7285L12.4385-26.7285ZM55.1196 0L57.7637 0L30.6382-70.459L29.4326-70.459L29.4326-67.1323Z"/>
  </g>
  <line id="Baseline-S" style="fill:none;stroke:#27AAE1;opacity:1;stroke-width:0.5;" x1="263" x2="3036" y1="696" y2="696"/>
  <line id="Capline-S" style="fill:none;stroke:#27AAE1;opacity:1;stroke-width:0.5;" x1="263" x2="3036" y1="625.541" y2="625.541"/>
  <g id="H-reference" style="fill:#27AAE1;stroke:none;" transform="matrix(1 0 0 1 339 1126)">
   <path d="M0.993654 0L3.63775 0L29.3281-67.1323L30.0303-67.1323L30.0303-70.459L28.1226-70.459ZM11.6885-24.4799L46.9815-24.4799L46.2315-26.7285L12.4385-26.7285ZM55.1196 0L57.7637 0L30.6382-70.459L29.4326-70.459L29.4326-67.1323Z"/>
  </g>
  <line id="Baseline-M" style="fill:none;stroke:#27AAE1;opacity:1;stroke-width:0.5;" x1="263" x2="3036" y1="1126" y2="1126"/>
  <line id="Capline-M" style="fill:none;stroke:#27AAE1;opacity:1;stroke-width:0.5;" x1="263" x2="3036" y1="1055.54" y2="1055.54"/>
  <g id="H-reference" style="fill:#27AAE1;stroke:none;" transform="matrix(1 0 0 1 339 1556)">
   <path d="M0.993654 0L3.63775 0L29.3281-67.1323L30.0303-67.1323L30.0303-70.459L28.1226-70.459ZM11.6885-24.4799L46.9815-24.4799L46.2315-26.7285L12.4385-26.7285ZM55.1196 0L57.7637 0L30.6382-70.459L29.4326-70.459L29.4326-67.1323Z"/>
  </g>
  <line id="Baseline-L" style="fill:none;stroke:#27AAE1;opacity:1;stroke-width:0.5;" x1="263" x2="3036" y1="1556" y2="1556"/>
  <line id="Capline-L" style="fill:none;stroke:#27AAE1;opacity:1;stroke-width:0.5;" x1="263" x2="3036" y1="1485.54" y2="1485.54"/>
  <line id="right-margin-Black-S" style="fill:none;stroke:#00AEEF;stroke-width:0.5;opacity:1.0;" x1="2981.3" x2="2981.3" y1="600.785" y2="720.121"/>
  <line id="left-margin-Black-S" style="fill:none;stroke:#00AEEF;stroke-width:0.5;opacity:1.0;" x1="2885.5" x2="2885.5" y1="600.785" y2="720.121"/>
  <line id="right-margin-Regular-S" style="fill:none;stroke:#00AEEF;stroke-width:0.5;opacity:1.0;" x1="1495.18" x2="1495.18" y1="600.785" y2="720.121"/>
  <line id="left-margin-Regular-S" style="fill:none;stroke:#00AEEF;stroke-width:0.5;opacity:1.0;" x1="1404.51" x2="1404.51" y1="600.785" y2="720.121"/>
  <line id="right-margin-Ultralight-S" style="fill:none;stroke:#00AEEF;stroke-width:0.5;opacity:1.0;" x1="603.073" x2="603.073" y1="600.785" y2="720.121"/>
  <line id="left-margin-Ultralight-S" style="fill:none;stroke:#00AEEF;stroke-width:0.5;opacity:1.0;" x1="516.35" x2="516.35" y1="600.785" y2="720.121"/>
 </g>
 <g id="Symbols">
  <g id="Black-S"><path d="M2905.98579,631.61421c-0.65175,0.2378 -1.23303,0.72808 -1.5912,1.33578c-0.26716,0.45798 -0.31707,0.67523 -0.31707,1.42092c0,0.74569 0.04697,0.96 0.31413,1.40918c0.18202,0.30239 4.98497,5.19341 11.18536,11.39087c5.98021,5.97433 10.87123,10.90059 10.87123,10.94756c0,0.04991 -0.28184,0.45211 -0.62532,0.89542c-0.54899,0.7134 -1.2389,1.83781 -3.35267,5.47525c-0.73101,1.25945 -1.87891,2.38386 -3.65506,3.57873c-3.04148,2.04918 -3.91928,2.76845 -4.86167,3.99855c-0.95707,1.25065 -1.48551,2.42496 -1.78496,3.97506c-0.21138,1.10092 -0.20844,3.48772 0.00587,4.49763c0.82496,3.89579 4.17469,6.6848 8.01471,6.67305c1.6734,-0.00294 3.10607,-0.32294 7.31599,-1.62349c5.64553,-1.7468 6.1769,-1.73799 12.50647,0.22018c3.21469,0.99523 4.41837,1.26826 5.98901,1.36514c2.35157,0.14092 4.35965,-0.54899 5.94498,-2.04331l0.81909,-0.77505l2.6657,2.65102c1.46496,1.45615 2.85065,2.74496 3.07671,2.86533c0.29064,0.15266 0.66642,0.21725 1.29175,0.21725c0.75743,0.00294 0.96,-0.04404 1.44441,-0.32881c1.39744,-0.82202 1.89946,-2.64221 1.09505,-3.98974c-0.16147,-0.27009 -12.33032,-12.52115 -27.04451,-27.22359c-24.72523,-24.70468 -26.7979,-26.74506 -27.33221,-26.9212c-0.69285,-0.22899 -1.37689,-0.23193 -1.97579,-0.01174M2923.60347,634.48541c-1.89359,0.34349 -3.64038,1.52368 -3.96038,2.67157c-0.55486,2.00515 0.78973,3.84295 2.81836,3.84589c0.51083,0 0.81909,-0.08807 1.42679,-0.39927c0.71633,-0.36697 0.80734,-0.38752 1.14202,-0.24661c0.52844,0.21725 1.40037,1.23597 1.7879,2.08148c0.44037,0.96294 0.57248,1.5912 0.67817,3.20588c0.05872,0.87193 0.15853,1.48551 0.28477,1.72625c0.25541,0.49615 0.92771,1.13909 1.46496,1.40331c0.59303,0.28771 1.80845,0.28184 2.41322,-0.01174c0.62239,-0.30532 1.32404,-1.06276 1.52368,-1.64111l0.1644,-0.47853l0.07927,0.46973c0.46973,2.72441 1.37982,4.59158 2.93873,6.01544c2.76845,2.53652 6.70828,2.35744 9.53839,-0.42863c2.40735,-2.37212 3.60809,-5.43415 3.59341,-9.16848c-0.00881,-1.89359 -0.33468,-3.3468 -1.09211,-4.87635c-1.89065,-3.81653 -5.86571,-5.30204 -9.41802,-3.51708c-2.58937,1.30056 -4.72662,4.43304 -5.32259,7.80627c-0.26716,1.509 -0.31119,1.58826 -0.41688,0.73395c-0.21138,-1.70569 -0.9512,-3.71965 -1.89065,-5.16112c-1.2712,-1.94643 -2.92698,-3.29102 -4.75892,-3.86057c-0.69872,-0.21725 -2.25762,-0.30532 -2.99451,-0.17028M2942.63034,640.53314c0.19083,0.16147 0.47266,0.5989 0.62532,0.96881c0.24367,0.59303 0.2789,0.86606 0.2789,2.20478c0,1.25358 -0.04697,1.6734 -0.26129,2.34863c-0.4756,1.50312 -1.70569,2.99451 -2.469,2.99451c-0.39633,0 -0.90129,-0.57248 -1.21835,-1.38569c-0.22018,-0.55486 -0.26422,-0.90129 -0.26716,-2.01982c0,-1.40037 0.24073,-2.52478 0.7545,-3.52295c0.45505,-0.88661 1.5178,-1.87597 2.01395,-1.87891c0.10862,0 0.35229,0.13211 0.54312,0.29064M2909.30911,646.23445c-1.03927,0.22018 -2.22533,0.89542 -3.04735,1.73212c-0.90422,0.92477 -1.40037,1.7967 -1.84661,3.25873c-0.29064,0.96294 -0.32,1.22422 -0.32587,2.99157c-0.00587,2.0756 0.15853,3.00919 0.8367,4.81176c1.72918,4.60626 5.22277,7.6448 8.77214,7.63306c1.61175,-0.00294 3.07671,-0.66642 4.28625,-1.94349c2.69212,-2.83304 2.92405,-7.83269 0.58129,-12.5417c-0.73688,-1.4767 -1.24184,-2.16955 -2.50129,-3.4202c-1.28588,-1.27707 -2.25469,-1.92001 -3.47304,-2.30166c-0.87193,-0.27303 -2.51304,-0.38165 -3.28221,-0.22018M2954.808,646.28729c-1.54716,0.34349 -2.95047,1.20367 -4.35378,2.66863c-1.05688,1.10386 -1.5912,1.86716 -2.29579,3.27928c-1.52661,3.05909 -1.96111,6.35012 -1.21542,9.2037c0.48441,1.84661 1.8701,3.72552 3.32332,4.50057c3.72845,1.98753 8.36994,-0.29945 10.88298,-5.35782c1.15377,-2.32221 1.64991,-4.5035 1.5501,-6.83452c-0.10862,-2.53359 -0.83376,-4.40662 -2.26643,-5.84222c-1.48551,-1.49138 -3.53176,-2.07854 -5.62498,-1.61762M2911.35242,652.35851c1.59413,1.05395 2.88295,3.82827 2.88295,6.19158c-0.00294,1.62643 -0.29064,2.34276 -0.88074,2.19304c-0.45505,-0.11156 -1.80845,-1.50312 -2.26937,-2.33395c-0.54312,-0.97175 -1.06569,-2.62166 -1.15083,-3.6257c-0.11156,-1.35046 0.25248,-2.79781 0.70165,-2.79781c0.08514,0 0.40807,0.16734 0.71633,0.37285M2956.56947,652.51411c0.19083,0.38459 0.23193,0.70165 0.22606,1.76147c-0.00294,1.14496 -0.04697,1.41799 -0.38459,2.40441c-0.51376,1.49432 -0.96881,2.25762 -1.89946,3.19708c-0.86312,0.86606 -1.34166,1.08624 -1.60294,0.73395c-0.26716,-0.36991 -0.39046,-1.00698 -0.39046,-2.06093c0,-1.77028 0.68698,-3.7402 1.80551,-5.16406c0.54312,-0.68991 1.52955,-1.42973 1.83193,-1.37395c0.09688,0.01761 0.28477,0.24367 0.41395,0.50202M2948.30522,680.49807c-0.13798,0.1967 -0.49321,0.47266 -0.78973,0.61652c-0.91303,0.44037 -2.05212,0.24367 -6.42938,-1.11854c-4.03084,-1.25065 -5.46351,-1.52955 -7.82682,-1.5178c-2.11671,0.01174 -3.5846,0.29945 -7.17214,1.40037c-5.59855,1.71744 -6.42057,1.80551 -7.42462,0.80147c-0.5578,-0.55486 -0.78679,-1.2712 -0.78679,-2.44845c0,-2.08148 0.46385,-2.70093 3.66387,-4.90864c3.89579,-2.68625 4.67084,-3.52589 6.96663,-7.52443c0.74569,-1.30056 1.54716,-2.62166 1.77615,-2.93873l0.41982,-0.57248l8.92774,8.92774l8.92774,8.93068l-0.25248,0.35229" className="SFSymbolsPreviewWireframe"/></g>
  <g id="Regular-S"><path d="M1422.43074,631.61421c-0.65175,0.2378 -1.23303,0.72808 -1.5912,1.33578c-0.26716,0.45798 -0.31707,0.67523 -0.31707,1.42092c0,0.74569 0.04697,0.96 0.31413,1.40918c0.18202,0.30239 4.98497,5.19341 11.18536,11.39087c5.98021,5.97433 10.87123,10.90059 10.87123,10.94756c0,0.04991 -0.28184,0.45211 -0.62532,0.89542c-0.54899,0.7134 -1.2389,1.83781 -3.35267,5.47525c-0.73101,1.25945 -1.87891,2.38386 -3.65506,3.57873c-3.04148,2.04918 -3.91928,2.76845 -4.86167,3.99855c-0.95707,1.25065 -1.48551,2.42496 -1.78496,3.97506c-0.21138,1.10092 -0.20844,3.48772 0.00587,4.49763c0.82496,3.89579 4.17469,6.6848 8.01471,6.67305c1.6734,-0.00294 3.10607,-0.32294 7.31599,-1.62349c5.64553,-1.7468 6.1769,-1.73799 12.50647,0.22018c3.21469,0.99523 4.41837,1.26826 5.98901,1.36514c2.35157,0.14092 4.35965,-0.54899 5.94498,-2.04331l0.81909,-0.77505l2.6657,2.65102c1.46496,1.45615 2.85065,2.74496 3.07671,2.86533c0.29064,0.15266 0.66642,0.21725 1.29175,0.21725c0.75743,0.00294 0.96,-0.04404 1.44441,-0.32881c1.39744,-0.82202 1.89946,-2.64221 1.09505,-3.98974c-0.16147,-0.27009 -12.33032,-12.52115 -27.04451,-27.22359c-24.72523,-24.70468 -26.7979,-26.74506 -27.33221,-26.9212c-0.69285,-0.22899 -1.37689,-0.23193 -1.97579,-0.01174M1440.04843,634.48541c-1.89359,0.34349 -3.64038,1.52368 -3.96038,2.67157c-0.55486,2.00515 0.78973,3.84295 2.81836,3.84589c0.51083,0 0.81909,-0.08807 1.42679,-0.39927c0.71633,-0.36697 0.80734,-0.38752 1.14202,-0.24661c0.52844,0.21725 1.40037,1.23597 1.7879,2.08148c0.44037,0.96294 0.57248,1.5912 0.67817,3.20588c0.05872,0.87193 0.15853,1.48551 0.28477,1.72625c0.25541,0.49615 0.92771,1.13909 1.46496,1.40331c0.59303,0.28771 1.80845,0.28184 2.41322,-0.01174c0.62239,-0.30532 1.32404,-1.06276 1.52368,-1.64111l0.1644,-0.47853l0.07927,0.46973c0.46973,2.72441 1.37982,4.59158 2.93873,6.01544c2.76845,2.53652 6.70828,2.35744 9.53839,-0.42863c2.40735,-2.37212 3.60809,-5.43415 3.59341,-9.16848c-0.00881,-1.89359 -0.33468,-3.3468 -1.09211,-4.87635c-1.89065,-3.81653 -5.86571,-5.30204 -9.41802,-3.51708c-2.58937,1.30056 -4.72662,4.43304 -5.32259,7.80627c-0.26716,1.509 -0.31119,1.58826 -0.41688,0.73395c-0.21138,-1.70569 -0.9512,-3.71965 -1.89065,-5.16112c-1.2712,-1.94643 -2.92698,-3.29102 -4.75892,-3.86057c-0.69872,-0.21725 -2.25762,-0.30532 -2.99451,-0.17028M1459.07529,640.53314c0.19083,0.16147 0.47266,0.5989 0.62532,0.96881c0.24367,0.59303 0.2789,0.86606 0.2789,2.20478c0,1.25358 -0.04697,1.6734 -0.26129,2.34863c-0.4756,1.50312 -1.70569,2.99451 -2.469,2.99451c-0.39633,0 -0.90129,-0.57248 -1.21835,-1.38569c-0.22018,-0.55486 -0.26422,-0.90129 -0.26716,-2.01982c0,-1.40037 0.24073,-2.52478 0.7545,-3.52295c0.45505,-0.88661 1.5178,-1.87597 2.01395,-1.87891c0.10862,0 0.35229,0.13211 0.54312,0.29064M1425.75406,646.23445c-1.03927,0.22018 -2.22533,0.89542 -3.04735,1.73212c-0.90422,0.92477 -1.40037,1.7967 -1.84661,3.25873c-0.29064,0.96294 -0.32,1.22422 -0.32587,2.99157c-0.00587,2.0756 0.15853,3.00919 0.8367,4.81176c1.72918,4.60626 5.22277,7.6448 8.77214,7.63306c1.61175,-0.00294 3.07671,-0.66642 4.28625,-1.94349c2.69212,-2.83304 2.92405,-7.83269 0.58129,-12.5417c-0.73688,-1.4767 -1.24184,-2.16955 -2.50129,-3.4202c-1.28588,-1.27707 -2.25469,-1.92001 -3.47304,-2.30166c-0.87193,-0.27303 -2.51304,-0.38165 -3.28221,-0.22018M1471.25295,646.28729c-1.54716,0.34349 -2.95047,1.20367 -4.35378,2.66863c-1.05688,1.10386 -1.5912,1.86716 -2.29579,3.27928c-1.52661,3.05909 -1.96111,6.35012 -1.21542,9.2037c0.48441,1.84661 1.8701,3.72552 3.32332,4.50057c3.72845,1.98753 8.36994,-0.29945 10.88298,-5.35782c1.15377,-2.32221 1.64991,-4.5035 1.5501,-6.83452c-0.10862,-2.53359 -0.83376,-4.40662 -2.26643,-5.84222c-1.48551,-1.49138 -3.53176,-2.07854 -5.62498,-1.61762M1427.79737,652.35851c1.59413,1.05395 2.88295,3.82827 2.88295,6.19158c-0.00294,1.62643 -0.29064,2.34276 -0.88074,2.19304c-0.45505,-0.11156 -1.80845,-1.50312 -2.26937,-2.33395c-0.54312,-0.97175 -1.06569,-2.62166 -1.15083,-3.6257c-0.11156,-1.35046 0.25248,-2.79781 0.70165,-2.79781c0.08514,0 0.40807,0.16734 0.71633,0.37285M1473.01442,652.51411c0.19083,0.38459 0.23193,0.70165 0.22606,1.76147c-0.00294,1.14496 -0.04697,1.41799 -0.38459,2.40441c-0.51376,1.49432 -0.96881,2.25762 -1.89946,3.19708c-0.86312,0.86606 -1.34166,1.08624 -1.60294,0.73395c-0.26716,-0.36991 -0.39046,-1.00698 -0.39046,-2.06093c0,-1.77028 0.68698,-3.7402 1.80551,-5.16406c0.54312,-0.68991 1.52955,-1.42973 1.83193,-1.37395c0.09688,0.01761 0.28477,0.24367 0.41395,0.50202M1464.75017,680.49807c-0.13798,0.1967 -0.49321,0.47266 -0.78973,0.61652c-0.91303,0.44037 -2.05212,0.24367 -6.42938,-1.11854c-4.03084,-1.25065 -5.46351,-1.52955 -7.82682,-1.5178c-2.11671,0.01174 -3.5846,0.29945 -7.17214,1.40037c-5.59855,1.71744 -6.42057,1.80551 -7.42462,0.80147c-0.5578,-0.55486 -0.78679,-1.2712 -0.78679,-2.44845c0,-2.08148 0.46385,-2.70093 3.66387,-4.90864c3.89579,-2.68625 4.67084,-3.52589 6.96663,-7.52443c0.74569,-1.30056 1.54716,-2.62166 1.77615,-2.93873l0.41982,-0.57248l8.92774,8.92774l8.92774,8.93068l-0.25248,0.35229" className="SFSymbolsPreviewWireframe"/></g>
  <g id="Ultralight-S"><path d="M532.29715,631.61421c-0.65175,0.2378 -1.23303,0.72808 -1.5912,1.33578c-0.26716,0.45798 -0.31707,0.67523 -0.31707,1.42092c0,0.74569 0.04697,0.96 0.31413,1.40918c0.18202,0.30239 4.98497,5.19341 11.18536,11.39087c5.98021,5.97433 10.87123,10.90059 10.87123,10.94756c0,0.04991 -0.28184,0.45211 -0.62532,0.89542c-0.54899,0.7134 -1.2389,1.83781 -3.35267,5.47525c-0.73101,1.25945 -1.87891,2.38386 -3.65506,3.57873c-3.04148,2.04918 -3.91928,2.76845 -4.86167,3.99855c-0.95707,1.25065 -1.48551,2.42496 -1.78496,3.97506c-0.21138,1.10092 -0.20844,3.48772 0.00587,4.49763c0.82496,3.89579 4.17469,6.6848 8.01471,6.67305c1.6734,-0.00294 3.10607,-0.32294 7.31599,-1.62349c5.64553,-1.7468 6.1769,-1.73799 12.50647,0.22018c3.21469,0.99523 4.41837,1.26826 5.98901,1.36514c2.35157,0.14092 4.35965,-0.54899 5.94498,-2.04331l0.81909,-0.77505l2.6657,2.65102c1.46496,1.45615 2.85065,2.74496 3.07671,2.86533c0.29064,0.15266 0.66642,0.21725 1.29175,0.21725c0.75743,0.00294 0.96,-0.04404 1.44441,-0.32881c1.39744,-0.82202 1.89946,-2.64221 1.09505,-3.98974c-0.16147,-0.27009 -12.33032,-12.52115 -27.04451,-27.22359c-24.72523,-24.70468 -26.7979,-26.74506 -27.33221,-26.9212c-0.69285,-0.22899 -1.37689,-0.23193 -1.97579,-0.01174M549.91483,634.48541c-1.89359,0.34349 -3.64038,1.52368 -3.96038,2.67157c-0.55486,2.00515 0.78973,3.84295 2.81836,3.84589c0.51083,0 0.81909,-0.08807 1.42679,-0.39927c0.71633,-0.36697 0.80734,-0.38752 1.14202,-0.24661c0.52844,0.21725 1.40037,1.23597 1.7879,2.08148c0.44037,0.96294 0.57248,1.5912 0.67817,3.20588c0.05872,0.87193 0.15853,1.48551 0.28477,1.72625c0.25541,0.49615 0.92771,1.13909 1.46496,1.40331c0.59303,0.28771 1.80845,0.28184 2.41322,-0.01174c0.62239,-0.30532 1.32404,-1.06276 1.52368,-1.64111l0.1644,-0.47853l0.07927,0.46973c0.46973,2.72441 1.37982,4.59158 2.93873,6.01544c2.76845,2.53652 6.70828,2.35744 9.53839,-0.42863c2.40735,-2.37212 3.60809,-5.43415 3.59341,-9.16848c-0.00881,-1.89359 -0.33468,-3.3468 -1.09211,-4.87635c-1.89065,-3.81653 -5.86571,-5.30204 -9.41802,-3.51708c-2.58937,1.30056 -4.72662,4.43304 -5.32259,7.80627c-0.26716,1.509 -0.31119,1.58826 -0.41688,0.73395c-0.21138,-1.70569 -0.9512,-3.71965 -1.89065,-5.16112c-1.2712,-1.94643 -2.92698,-3.29102 -4.75892,-3.86057c-0.69872,-0.21725 -2.25762,-0.30532 -2.99451,-0.17028M568.9417,640.53314c0.19083,0.16147 0.47266,0.5989 0.62532,0.96881c0.24367,0.59303 0.2789,0.86606 0.2789,2.20478c0,1.25358 -0.04697,1.6734 -0.26129,2.34863c-0.4756,1.50312 -1.70569,2.99451 -2.469,2.99451c-0.39633,0 -0.90129,-0.57248 -1.21835,-1.38569c-0.22018,-0.55486 -0.26422,-0.90129 -0.26716,-2.01982c0,-1.40037 0.24073,-2.52478 0.7545,-3.52295c0.45505,-0.88661 1.5178,-1.87597 2.01395,-1.87891c0.10862,0 0.35229,0.13211 0.54312,0.29064M535.62047,646.23445c-1.03927,0.22018 -2.22533,0.89542 -3.04735,1.73212c-0.90422,0.92477 -1.40037,1.7967 -1.84661,3.25873c-0.29064,0.96294 -0.32,1.22422 -0.32587,2.99157c-0.00587,2.0756 0.15853,3.00919 0.8367,4.81176c1.72918,4.60626 5.22277,7.6448 8.77214,7.63306c1.61175,-0.00294 3.07671,-0.66642 4.28625,-1.94349c2.69212,-2.83304 2.92405,-7.83269 0.58129,-12.5417c-0.73688,-1.4767 -1.24184,-2.16955 -2.50129,-3.4202c-1.28588,-1.27707 -2.25469,-1.92001 -3.47304,-2.30166c-0.87193,-0.27303 -2.51304,-0.38165 -3.28221,-0.22018M581.11936,646.28729c-1.54716,0.34349 -2.95047,1.20367 -4.35378,2.66863c-1.05688,1.10386 -1.5912,1.86716 -2.29579,3.27928c-1.52661,3.05909 -1.96111,6.35012 -1.21542,9.2037c0.48441,1.84661 1.8701,3.72552 3.32332,4.50057c3.72845,1.98753 8.36994,-0.29945 10.88298,-5.35782c1.15377,-2.32221 1.64991,-4.5035 1.5501,-6.83452c-0.10862,-2.53359 -0.83376,-4.40662 -2.26643,-5.84222c-1.48551,-1.49138 -3.53176,-2.07854 -5.62498,-1.61762M537.66378,652.35851c1.59413,1.05395 2.88295,3.82827 2.88295,6.19158c-0.00294,1.62643 -0.29064,2.34276 -0.88074,2.19304c-0.45505,-0.11156 -1.80845,-1.50312 -2.26937,-2.33395c-0.54312,-0.97175 -1.06569,-2.62166 -1.15083,-3.6257c-0.11156,-1.35046 0.25248,-2.79781 0.70165,-2.79781c0.08514,0 0.40807,0.16734 0.71633,0.37285M582.88083,652.51411c0.19083,0.38459 0.23193,0.70165 0.22606,1.76147c-0.00294,1.14496 -0.04697,1.41799 -0.38459,2.40441c-0.51376,1.49432 -0.96881,2.25762 -1.89946,3.19708c-0.86312,0.86606 -1.34166,1.08624 -1.60294,0.73395c-0.26716,-0.36991 -0.39046,-1.00698 -0.39046,-2.06093c0,-1.77028 0.68698,-3.7402 1.80551,-5.16406c0.54312,-0.68991 1.52955,-1.42973 1.83193,-1.37395c0.09688,0.01761 0.28477,0.24367 0.41395,0.50202M574.61658,680.49807c-0.13798,0.1967 -0.49321,0.47266 -0.78973,0.61652c-0.91303,0.44037 -2.05212,0.24367 -6.42938,-1.11854c-4.03084,-1.25065 -5.46351,-1.52955 -7.82682,-1.5178c-2.11671,0.01174 -3.5846,0.29945 -7.17214,1.40037c-5.59855,1.71744 -6.42057,1.80551 -7.42462,0.80147c-0.5578,-0.55486 -0.78679,-1.2712 -0.78679,-2.44845c0,-2.08148 0.46385,-2.70093 3.66387,-4.90864c3.89579,-2.68625 4.67084,-3.52589 6.96663,-7.52443c0.74569,-1.30056 1.54716,-2.62166 1.77615,-2.93873l0.41982,-0.57248l8.92774,8.92774l8.92774,8.93068l-0.25248,0.35229" className="SFSymbolsPreviewWireframe"/></g>
 </g>
</svg>