<?xml version="1.0" encoding="UTF-8"?><!--Generator: https://SymbolKit.app--><!DOCTYPE svg PUBLIC "-//W3C//DTD SVG 1.1//EN" "http://www.w3.org/Graphics/SVG/1.1/DTD/svg11.dtd"><svg xmlns="http://www.w3.org/2000/svg" xmlns:xlink="http://www.w3.org/1999/xlink" version="1.1" viewBox="0 0 3300 2200">
 <!--glyph: "100092", point size: 100.0, font version: "20.0d10e1", template writer version: "138.0.0"-->
 <style>.SFSymbolsPreviewWireframe {fill:none;opacity:1.0;stroke:black;stroke-width:0.5}
</style>
 <g id="Notes">
  <rect height="2200" id="artboard" style="fill:white;opacity:1" width="3300" x="0" y="0"/>
  <line style="fill:none;stroke:black;opacity:1;stroke-width:0.5;" x1="263" x2="3036" y1="292" y2="292"/>
  <text style="stroke:none;fill:black;font-family:sans-serif;font-size:13;font-weight:bold;" transform="matrix(1 0 0 1 263 322)">Weight/Scale Variations</text>
  <text style="stroke:none;fill:black;font-family:sans-serif;font-size:13;text-anchor:middle;" transform="matrix(1 0 0 1 559.711 322)">Ultralight</text>
  <text style="stroke:none;fill:black;font-family:sans-serif;font-size:13;text-anchor:middle;" transform="matrix(1 0 0 1 856.422 322)">Thin</text>
  <text style="stroke:none;fill:black;font-family:sans-serif;font-size:13;text-anchor:middle;" transform="matrix(1 0 0 1 1153.13 322)">Light</text>
  <text style="stroke:none;fill:black;font-family:sans-serif;font-size:13;text-anchor:middle;" transform="matrix(1 0 0 1 1449.84 322)">Regular</text>
  <text style="stroke:none;fill:black;font-family:sans-serif;font-size:13;text-anchor:middle;" transform="matrix(1 0 0 1 1746.56 322)">Medium</text>
  <text style="stroke:none;fill:black;font-family:sans-serif;font-size:13;text-anchor:middle;" transform="matrix(1 0 0 1 2043.27 322)">Semibold</text>
  <text style="stroke:none;fill:black;font-family:sans-serif;font-size:13;text-anchor:middle;" transform="matrix(1 0 0 1 2339.98 322)">Bold</text>
  <text style="stroke:none;fill:black;font-family:sans-serif;font-size:13;text-anchor:middle;" transform="matrix(1 0 0 1 2636.69 322)">Heavy</text>
  <text style="stroke:none;fill:black;font-family:sans-serif;font-size:13;text-anchor:middle;" transform="matrix(1 0 0 1 2933.4 322)">Black</text>
  <line style="fill:none;stroke:black;opacity:1;stroke-width:0.5;" x1="263" x2="3036" y1="1903" y2="1903"/>
  <g transform="matrix(0.2 0 0 0.2 263 1933)">
   <path d="m46.2402 4.15039c21.7773 0 39.4531-17.627 39.4531-39.4043s-17.6758-39.4043-39.4531-39.4043c-21.7285 0-39.4043 17.627-39.4043 39.4043s17.6758 39.4043 39.4043 39.4043Zm0-7.42188c-17.6758 0-31.9336-14.3066-31.9336-31.9824s14.2578-31.9824 31.9336-31.9824 31.9824 14.3066 31.9824 31.9824-14.3066 31.9824-31.9824 31.9824Zm-17.9688-31.9824c0 2.14844 1.51367 3.61328 3.75977 3.61328h10.498v10.5957c0 2.19727 1.46484 3.71094 3.61328 3.71094 2.24609 0 3.71094-1.51367 3.71094-3.71094v-10.5957h10.5957c2.19727 0 3.71094-1.46484 3.71094-3.61328 0-2.19727-1.51367-3.71094-3.71094-3.71094h-10.5957v-10.5469c0-2.24609-1.46484-3.75977-3.71094-3.75977-2.14844 0-3.61328 1.51367-3.61328 3.75977v10.5469h-10.498c-2.24609 0-3.75977 1.51367-3.75977 3.71094Z"/>
  </g>
  <g transform="matrix(0.2 0 0 0.2 281.506 1933)">
   <path d="m58.5449 14.5508c27.4902 0 49.8047-22.3145 49.8047-49.8047s-22.3145-49.8047-49.8047-49.8047-49.8047 22.3145-49.8047 49.8047 22.3145 49.8047 49.8047 49.8047Zm0-8.30078c-22.9492 0-41.5039-18.5547-41.5039-41.5039s18.5547-41.5039 41.5039-41.5039 41.5039 18.5547 41.5039 41.5039-18.5547 41.5039-41.5039 41.5039Zm-22.6562-41.5039c0 2.39258 1.66016 4.00391 4.15039 4.00391h14.3555v14.4043c0 2.44141 1.66016 4.15039 4.05273 4.15039 2.44141 0 4.15039-1.66016 4.15039-4.15039v-14.4043h14.4043c2.44141 0 4.15039-1.61133 4.15039-4.00391 0-2.44141-1.70898-4.15039-4.15039-4.15039h-14.4043v-14.3555c0-2.49023-1.70898-4.19922-4.15039-4.19922-2.39258 0-4.05273 1.70898-4.05273 4.19922v14.3555h-14.3555c-2.49023 0-4.15039 1.70898-4.15039 4.15039Z"/>
  </g>
  <g transform="matrix(0.2 0 0 0.2 304.924 1933)">
   <path d="m74.8535 28.3203c35.1074 0 63.623-28.4668 63.623-63.5742s-28.5156-63.623-63.623-63.623-63.5742 28.5156-63.5742 63.623 28.4668 63.5742 63.5742 63.5742Zm0-9.08203c-30.127 0-54.4922-24.3652-54.4922-54.4922s24.3652-54.4922 54.4922-54.4922 54.4922 24.3652 54.4922 54.4922-24.3652 54.4922-54.4922 54.4922Zm-28.8574-54.4922c0 2.58789 1.85547 4.39453 4.58984 4.39453h19.7266v19.7754c0 2.68555 1.85547 4.58984 4.44336 4.58984 2.68555 0 4.54102-1.85547 4.54102-4.58984v-19.7754h19.7754c2.68555 0 4.58984-1.80664 4.58984-4.39453 0-2.73438-1.85547-4.58984-4.58984-4.58984h-19.7754v-19.7266c0-2.73438-1.85547-4.63867-4.54102-4.63867-2.58789 0-4.44336 1.9043-4.44336 4.63867v19.7266h-19.7266c-2.73438 0-4.58984 1.85547-4.58984 4.58984Z"/>
  </g>
  <text style="stroke:none;fill:black;font-family:sans-serif;font-size:13;font-weight:bold;" transform="matrix(1 0 0 1 263 1953)">Design Variations</text>
  <text style="stroke:none;fill:black;font-family:sans-serif;font-size:13;" transform="matrix(1 0 0 1 263 1971)">Symbols are supported in up to nine weights and three scales.</text>
  <text style="stroke:none;fill:black;font-family:sans-serif;font-size:13;" transform="matrix(1 0 0 1 263 1989)">For optimal layout with text and other symbols, vertically align</text>
  <text style="stroke:none;fill:black;font-family:sans-serif;font-size:13;" transform="matrix(1 0 0 1 263 2007)">symbols with the adjacent text.</text>
  <line style="fill:none;stroke:#00AEEF;stroke-width:0.5;opacity:1.0;" x1="776" x2="776" y1="1919" y2="1933"/>
  <g transform="matrix(0.2 0 0 0.2 776 1933)">
   <path d="m16.5527 0.78125c2.58789 0 3.85742-0.976562 4.78516-3.71094l6.29883-17.2363h28.8086l6.29883 17.2363c0.927734 2.73438 2.19727 3.71094 4.73633 3.71094 2.58789 0 4.24805-1.5625 4.24805-4.00391 0-0.830078-0.146484-1.61133-0.537109-2.63672l-22.9004-60.9863c-1.12305-2.97852-3.125-4.49219-6.25-4.49219-3.02734 0-5.07812 1.46484-6.15234 4.44336l-22.9004 61.084c-0.390625 1.02539-0.537109 1.80664-0.537109 2.63672 0 2.44141 1.5625 3.95508 4.10156 3.95508Zm13.4766-28.3691 11.8652-32.8613h0.244141l11.8652 32.8613Z"/>
  </g>
  <line style="fill:none;stroke:#00AEEF;stroke-width:0.5;opacity:1.0;" x1="792.836" x2="792.836" y1="1919" y2="1933"/>
  <text style="stroke:none;fill:black;font-family:sans-serif;font-size:13;font-weight:bold;" transform="matrix(1 0 0 1 776 1953)">Margins</text>
  <text style="stroke:none;fill:black;font-family:sans-serif;font-size:13;" transform="matrix(1 0 0 1 776 1971)">Leading and trailing margins on the left and right side of each symbol</text>
  <text style="stroke:none;fill:black;font-family:sans-serif;font-size:13;" transform="matrix(1 0 0 1 776 1989)">can be adjusted by modifying the x-location of the margin guidelines.</text>
  <text style="stroke:none;fill:black;font-family:sans-serif;font-size:13;" transform="matrix(1 0 0 1 776 2007)">Modifications are automatically applied proportionally to all</text>
  <text style="stroke:none;fill:black;font-family:sans-serif;font-size:13;" transform="matrix(1 0 0 1 776 2025)">scales and weights.</text>
  <g transform="matrix(0.2 0 0 0.2 1289 1933)">
   <path d="m14.209 9.32617 8.49609 8.54492c4.29688 4.3457 9.22852 4.05273 13.8672-1.07422l53.4668-58.9355-4.83398-4.88281-53.0762 58.3984c-1.75781 2.00195-3.41797 2.49023-5.76172 0.146484l-5.85938-5.81055c-2.34375-2.29492-1.80664-4.00391 0.195312-5.81055l57.373-54.0039-4.88281-4.83398-57.959 54.4434c-4.93164 4.58984-5.32227 9.47266-1.02539 13.8184Zm32.0801-90.9668c-2.09961 2.05078-2.24609 4.93164-1.07422 6.88477 1.17188 1.80664 3.4668 2.97852 6.68945 2.14844 7.32422-1.70898 14.9414-2.00195 22.0703 2.68555l-2.92969 7.27539c-1.70898 4.15039-0.830078 7.08008 1.85547 9.81445l11.4746 11.5723c2.44141 2.44141 4.49219 2.53906 7.32422 2.05078l5.32227-0.976562 3.32031 3.36914-0.195312 2.7832c-0.195312 2.49023 0.439453 4.39453 2.88086 6.78711l3.80859 3.71094c2.39258 2.39258 5.46875 2.53906 7.8125 0.195312l14.5508-14.5996c2.34375-2.34375 2.24609-5.32227-0.146484-7.71484l-3.85742-3.80859c-2.39258-2.39258-4.24805-3.17383-6.64062-2.97852l-2.88086 0.244141-3.22266-3.17383 1.2207-5.61523c0.634766-2.83203-0.146484-5.0293-3.07617-7.95898l-10.9863-10.9375c-16.6992-16.6016-38.8672-16.2109-53.3203-1.75781Zm7.4707 1.85547c12.1582-8.88672 28.6133-7.37305 39.7461 3.75977l12.1582 12.0605c1.17188 1.17188 1.36719 2.09961 1.02539 3.80859l-1.61133 7.42188 7.51953 7.42188 4.93164-0.292969c1.26953-0.0488281 1.66016 0.0488281 2.63672 1.02539l2.88086 2.88086-12.207 12.207-2.88086-2.88086c-0.976562-0.976562-1.12305-1.36719-1.07422-2.68555l0.341797-4.88281-7.4707-7.42188-7.61719 1.26953c-1.61133 0.341797-2.34375 0.195312-3.56445-0.976562l-10.0098-10.0098c-1.26953-1.17188-1.41602-2.00195-0.634766-3.85742l4.39453-10.4492c-7.8125-7.27539-17.9688-10.4004-28.125-7.42188-0.78125 0.195312-1.07422-0.439453-0.439453-0.976562Z"/>
  </g>
  <text style="stroke:none;fill:black;font-family:sans-serif;font-size:13;font-weight:bold;" transform="matrix(1 0 0 1 1289 1953)">Exporting</text>
  <text style="stroke:none;fill:black;font-family:sans-serif;font-size:13;" transform="matrix(1 0 0 1 1289 1971)">Symbols should be outlined when exporting to ensure the</text>
  <text style="stroke:none;fill:black;font-family:sans-serif;font-size:13;" transform="matrix(1 0 0 1 1289 1989)">design is preserved when submitting to Xcode.</text>
  <text id="template-version" style="stroke:none;fill:black;font-family:sans-serif;font-size:13;text-anchor:end;" transform="matrix(1 0 0 1 3036 1933)">Template v.6.0</text>
  <text style="stroke:none;fill:black;font-family:sans-serif;font-size:13;text-anchor:end;" transform="matrix(1 0 0 1 3036 1951)">Requires Xcode 16 or greater</text>
  <text id="descriptive-name" style="stroke:none;fill:black;font-family:sans-serif;font-size:13;text-anchor:end;" transform="matrix(1 0 0 1 3036 1969)">Generated from square</text>
  <text style="stroke:none;fill:black;font-family:sans-serif;font-size:13;text-anchor:end;" transform="matrix(1 0 0 1 3036 1987)">Typeset at 100.0 points</text>
  <text style="stroke:none;fill:black;font-family:sans-serif;font-size:13;" transform="matrix(1 0 0 1 263 726)">Small</text>
  <text style="stroke:none;fill:black;font-family:sans-serif;font-size:13;" transform="matrix(1 0 0 1 263 1156)">Medium</text>
  <text style="stroke:none;fill:black;font-family:sans-serif;font-size:13;" transform="matrix(1 0 0 1 263 1586)">Large</text>
 </g>
 <g id="Guides">
  <g id="H-reference" style="fill:#27AAE1;stroke:none;" transform="matrix(1 0 0 1 339 696)">
   <path d="M0.993654 0L3.63775 0L29.3281-67.1323L30.0303-67.1323L30.0303-70.459L28.1226-70.459ZM11.6885-24.4799L46.9815-24.4799L46.2315-26.7285L12.4385-26.7285ZM55.1196 0L57.7637 0L30.6382-70.459L29.4326-70.459L29.4326-67.1323Z"/>
  </g>
  <line id="Baseline-S" style="fill:none;stroke:#27AAE1;opacity:1;stroke-width:0.5;" x1="263" x2="3036" y1="696" y2="696"/>
  <line id="Capline-S" style="fill:none;stroke:#27AAE1;opacity:1;stroke-width:0.5;" x1="263" x2="3036" y1="625.541" y2="625.541"/>
  <g id="H-reference" style="fill:#27AAE1;stroke:none;" transform="matrix(1 0 0 1 339 1126)">
   <path d="M0.993654 0L3.63775 0L29.3281-67.1323L30.0303-67.1323L30.0303-70.459L28.1226-70.459ZM11.6885-24.4799L46.9815-24.4799L46.2315-26.7285L12.4385-26.7285ZM55.1196 0L57.7637 0L30.6382-70.459L29.4326-70.459L29.4326-67.1323Z"/>
  </g>
  <line id="Baseline-M" style="fill:none;stroke:#27AAE1;opacity:1;stroke-width:0.5;" x1="263" x2="3036" y1="1126" y2="1126"/>
  <line id="Capline-M" style="fill:none;stroke:#27AAE1;opacity:1;stroke-width:0.5;" x1="263" x2="3036" y1="1055.54" y2="1055.54"/>
  <g id="H-reference" style="fill:#27AAE1;stroke:none;" transform="matrix(1 0 0 1 339 1556)">
   <path d="M0.993654 0L3.63775 0L29.3281-67.1323L30.0303-67.1323L30.0303-70.459L28.1226-70.459ZM11.6885-24.4799L46.9815-24.4799L46.2315-26.7285L12.4385-26.7285ZM55.1196 0L57.7637 0L30.6382-70.459L29.4326-70.459L29.4326-67.1323Z"/>
  </g>
  <line id="Baseline-L" style="fill:none;stroke:#27AAE1;opacity:1;stroke-width:0.5;" x1="263" x2="3036" y1="1556" y2="1556"/>
  <line id="Capline-L" style="fill:none;stroke:#27AAE1;opacity:1;stroke-width:0.5;" x1="263" x2="3036" y1="1485.54" y2="1485.54"/>
  <line id="right-margin-Black-S" style="fill:none;stroke:#00AEEF;stroke-width:0.5;opacity:1.0;" x1="2981.3" x2="2981.3" y1="600.785" y2="720.121"/>
  <line id="left-margin-Black-S" style="fill:none;stroke:#00AEEF;stroke-width:0.5;opacity:1.0;" x1="2885.5" x2="2885.5" y1="600.785" y2="720.121"/>
  <line id="right-margin-Regular-S" style="fill:none;stroke:#00AEEF;stroke-width:0.5;opacity:1.0;" x1="1495.18" x2="1495.18" y1="600.785" y2="720.121"/>
  <line id="left-margin-Regular-S" style="fill:none;stroke:#00AEEF;stroke-width:0.5;opacity:1.0;" x1="1404.51" x2="1404.51" y1="600.785" y2="720.121"/>
  <line id="right-margin-Ultralight-S" style="fill:none;stroke:#00AEEF;stroke-width:0.5;opacity:1.0;" x1="603.073" x2="603.073" y1="600.785" y2="720.121"/>
  <line id="left-margin-Ultralight-S" style="fill:none;stroke:#00AEEF;stroke-width:0.5;opacity:1.0;" x1="516.35" x2="516.35" y1="600.785" y2="720.121"/>
 </g>
 <g id="Symbols">
  <g id="Black-S"><path d="M2912.44429,630.1288c-4.77653,0.74569 -8.63416,4.47121 -9.61472,9.29471c-0.24073,1.17432 -0.24367,1.45615 -0.24367,19.88411c0,18.42796 0.00294,18.7098 0.24367,19.88411c0.66936,3.28515 2.64808,6.10057 5.49874,7.81801c0.96588,0.58422 2.50717,1.16257 3.77836,1.42386c1.07744,0.21725 1.61175,0.23193 9.28591,0.22606c6.49691,-0.00294 8.23196,-0.03523 8.58425,-0.16147c0.64881,-0.23193 1.21542,-0.70753 1.58239,-1.33285c0.2789,-0.47266 0.32587,-0.68404 0.32587,-1.4356c0,-0.74569 -0.04991,-0.96294 -0.31707,-1.42092c-0.17321,-0.29651 -0.51083,-0.68698 -0.74569,-0.86606c-0.85432,-0.65175 -0.82789,-0.64881 -9.38279,-0.64881c-8.5226,0 -8.54022,0 -9.80261,-0.64294c-0.78386,-0.39633 -1.86129,-1.42092 -2.3545,-2.24294c-0.69285,-1.15083 -0.81028,-1.85542 -0.81909,-4.92332l-0.00587,-2.70386l7.19269,-7.18682c7.80627,-7.79746 7.68884,-7.69764 8.96591,-7.69764c1.12441,0 1.45615,0.24954 5.15525,3.91341c1.87303,1.85248 3.5846,3.4613 3.80185,3.56992c1.32991,0.67523 3.07084,0.13505 3.85176,-1.19193c0.28477,-0.48441 0.33174,-0.68991 0.33174,-1.44441c0,-0.74569 -0.04991,-0.96294 -0.31413,-1.40918c-0.41395,-0.69872 -6.74645,-6.96957 -7.74755,-7.67416c-1.60588,-1.13028 -3.16185,-1.62643 -5.09066,-1.62643c-1.29762,0 -2.37799,0.20844 -3.40258,0.66349c-1.55303,0.68698 -2.22827,1.27413 -7.54792,6.56736l-5.19635,5.17286l0.00587,-11.50243c0.00587,-10.48371 0.02642,-11.57289 0.20844,-12.27748c0.37578,-1.4356 1.37982,-2.73322 2.76258,-3.55818c1.36514,-0.81909 0.2789,-0.77798 20.59164,-0.77211c20.40668,0.00881 19.08558,-0.04404 20.51824,0.81909c0.81321,0.49028 1.76441,1.48551 2.21652,2.31927c0.65175,1.20367 0.66642,1.42092 0.66936,10.83013l0.00294,8.63123l0.27596,0.58716c0.53138,1.11854 1.4679,1.72625 2.65689,1.72625c1.189,0 2.12551,-0.60771 2.65689,-1.72625l0.27596,-0.58716l0.00294,-8.90719c0,-8.42572 -0.01174,-8.96591 -0.23193,-10.04921c-0.86019,-4.21873 -3.76956,-7.52443 -7.85618,-8.92187c-1.75854,-0.60184 -1.62936,-0.5989 -21.38724,-0.58716c-14.68189,0.00881 -18.58062,0.0411 -19.38209,0.16734M2939.85577,644.79014c-0.67817,0.22018 -1.29175,0.71927 -1.66459,1.3534c-0.26716,0.45798 -0.31707,0.67523 -0.31707,1.42092c0,0.7545 0.04697,0.96 0.33174,1.44441c1.52074,2.58937 5.47525,1.54423 5.47525,-1.44441c0,-1.10679 -0.60477,-2.11083 -1.57065,-2.60698c-0.58129,-0.29945 -1.62056,-0.37578 -2.25469,-0.16734M2947.71488,662.4548c-0.76331,0.27303 -1.47377,0.76037 -1.90533,1.30643c-0.18202,0.23193 -0.93945,1.63524 -1.68221,3.12075l-1.3534,2.70386l-3.02974,0.44037c-3.26166,0.47266 -3.83414,0.64294 -4.67965,1.38276c-0.93358,0.82202 -1.43267,2.08148 -1.32698,3.36148c0.10275,1.30056 0.41688,1.75267 2.97102,4.28332c1.79083,1.77322 2.27817,2.32221 2.23414,2.50717c-0.03229,0.12917 -0.2789,1.54716 -0.54899,3.1501l-0.49028,2.9123l0.19083,0.78679c0.49028,2.00221 2.27524,3.32038 4.27745,3.15891c0.78973,-0.06165 1.42973,-0.34642 5.21984,-2.32221l1.37982,-0.71927l1.37982,0.71927c3.79011,1.97579 4.43011,2.26056 5.21984,2.32221c1.98459,0.15853 3.77249,-1.14789 4.27158,-3.12368c0.21431,-0.85138 0.22606,-0.71927 -0.42863,-4.47708l-0.46092,-2.64221l2.28698,-2.2723c2.53946,-2.52184 2.83304,-2.94753 2.95634,-4.2569c0.12037,-1.29468 -0.36991,-2.55414 -1.31817,-3.3879c-0.84551,-0.73982 -1.41799,-0.9101 -4.67965,-1.38276l-3.02974,-0.44037l-1.40037,-2.79781c-1.55303,-3.10313 -1.94056,-3.61983 -3.12368,-4.16295c-0.88367,-0.40514 -2.07854,-0.47266 -2.92992,-0.17028M2949.87856,672.15465c0.46385,0.93065 1.00404,1.87597 1.20074,2.09909c0.53138,0.60771 1.26239,0.86019 3.33212,1.15377l1.85542,0.26422l-1.46202,1.4767c-0.80734,0.81321 -1.54423,1.63524 -1.64111,1.83193c-0.34349,0.68698 -0.34936,1.33285 -0.03229,3.14717c0.16734,0.95413 0.30239,1.81432 0.30239,1.9112c0,0.1233 -0.53725,-0.10275 -1.82313,-0.76918c-1.76735,-0.91597 -1.84661,-0.94532 -2.63928,-0.94532c-0.79266,0 -0.87193,0.02936 -2.63928,0.94532c-1.43267,0.74276 -1.82313,0.90129 -1.82313,0.74276c0,-0.10862 0.13505,-0.96881 0.30239,-1.90826c0.32,-1.7879 0.31119,-2.43671 -0.03229,-3.12368c-0.09688,-0.1967 -0.83376,-1.01872 -1.64111,-1.83193l-1.46202,-1.4767l1.85542,-0.26422c2.06973,-0.29358 2.80074,-0.54606 3.33212,-1.15377c0.1967,-0.22312 0.73688,-1.16844 1.20074,-2.09909c0.46385,-0.93065 0.87193,-1.69102 0.90716,-1.69102c0.03523,0 0.4433,0.76037 0.90716,1.69102" className="SFSymbolsPreviewWireframe"/></g>
  <g id="Regular-S"><path d="M1428.88924,630.1288c-4.77653,0.74569 -8.63416,4.47121 -9.61472,9.29471c-0.24073,1.17432 -0.24367,1.45615 -0.24367,19.88411c0,18.42796 0.00294,18.7098 0.24367,19.88411c0.66936,3.28515 2.64808,6.10057 5.49874,7.81801c0.96588,0.58422 2.50717,1.16257 3.77836,1.42386c1.07744,0.21725 1.61175,0.23193 9.28591,0.22606c6.49691,-0.00294 8.23196,-0.03523 8.58425,-0.16147c0.64881,-0.23193 1.21542,-0.70753 1.58239,-1.33285c0.2789,-0.47266 0.32587,-0.68404 0.32587,-1.4356c0,-0.74569 -0.04991,-0.96294 -0.31707,-1.42092c-0.17321,-0.29651 -0.51083,-0.68698 -0.74569,-0.86606c-0.85432,-0.65175 -0.82789,-0.64881 -9.38279,-0.64881c-8.5226,0 -8.54022,0 -9.80261,-0.64294c-0.78386,-0.39633 -1.86129,-1.42092 -2.3545,-2.24294c-0.69285,-1.15083 -0.81028,-1.85542 -0.81909,-4.92332l-0.00587,-2.70386l7.19269,-7.18682c7.80627,-7.79746 7.68884,-7.69764 8.96591,-7.69764c1.12441,0 1.45615,0.24954 5.15525,3.91341c1.87303,1.85248 3.5846,3.4613 3.80185,3.56992c1.32991,0.67523 3.07084,0.13505 3.85176,-1.19193c0.28477,-0.48441 0.33174,-0.68991 0.33174,-1.44441c0,-0.74569 -0.04991,-0.96294 -0.31413,-1.40918c-0.41395,-0.69872 -6.74645,-6.96957 -7.74755,-7.67416c-1.60588,-1.13028 -3.16185,-1.62643 -5.09066,-1.62643c-1.29762,0 -2.37799,0.20844 -3.40258,0.66349c-1.55303,0.68698 -2.22827,1.27413 -7.54792,6.56736l-5.19635,5.17286l0.00587,-11.50243c0.00587,-10.48371 0.02642,-11.57289 0.20844,-12.27748c0.37578,-1.4356 1.37982,-2.73322 2.76258,-3.55818c1.36514,-0.81909 0.2789,-0.77798 20.59164,-0.77211c20.40668,0.00881 19.08558,-0.04404 20.51824,0.81909c0.81321,0.49028 1.76441,1.48551 2.21652,2.31927c0.65175,1.20367 0.66642,1.42092 0.66936,10.83013l0.00294,8.63123l0.27596,0.58716c0.53138,1.11854 1.4679,1.72625 2.65689,1.72625c1.189,0 2.12551,-0.60771 2.65689,-1.72625l0.27596,-0.58716l0.00294,-8.90719c0,-8.42572 -0.01174,-8.96591 -0.23193,-10.04921c-0.86019,-4.21873 -3.76956,-7.52443 -7.85618,-8.92187c-1.75854,-0.60184 -1.62936,-0.5989 -21.38724,-0.58716c-14.68189,0.00881 -18.58062,0.0411 -19.38209,0.16734M1456.30072,644.79014c-0.67817,0.22018 -1.29175,0.71927 -1.66459,1.3534c-0.26716,0.45798 -0.31707,0.67523 -0.31707,1.42092c0,0.7545 0.04697,0.96 0.33174,1.44441c1.52074,2.58937 5.47525,1.54423 5.47525,-1.44441c0,-1.10679 -0.60477,-2.11083 -1.57065,-2.60698c-0.58129,-0.29945 -1.62056,-0.37578 -2.25469,-0.16734M1464.15983,662.4548c-0.76331,0.27303 -1.47377,0.76037 -1.90533,1.30643c-0.18202,0.23193 -0.93945,1.63524 -1.68221,3.12075l-1.3534,2.70386l-3.02974,0.44037c-3.26166,0.47266 -3.83414,0.64294 -4.67965,1.38276c-0.93358,0.82202 -1.43267,2.08148 -1.32698,3.36148c0.10275,1.30056 0.41688,1.75267 2.97102,4.28332c1.79083,1.77322 2.27817,2.32221 2.23414,2.50717c-0.03229,0.12917 -0.2789,1.54716 -0.54899,3.1501l-0.49028,2.9123l0.19083,0.78679c0.49028,2.00221 2.27524,3.32038 4.27745,3.15891c0.78973,-0.06165 1.42973,-0.34642 5.21984,-2.32221l1.37982,-0.71927l1.37982,0.71927c3.79011,1.97579 4.43011,2.26056 5.21984,2.32221c1.98459,0.15853 3.77249,-1.14789 4.27158,-3.12368c0.21431,-0.85138 0.22606,-0.71927 -0.42863,-4.47708l-0.46092,-2.64221l2.28698,-2.2723c2.53946,-2.52184 2.83304,-2.94753 2.95634,-4.2569c0.12037,-1.29468 -0.36991,-2.55414 -1.31817,-3.3879c-0.84551,-0.73982 -1.41799,-0.9101 -4.67965,-1.38276l-3.02974,-0.44037l-1.40037,-2.79781c-1.55303,-3.10313 -1.94056,-3.61983 -3.12368,-4.16295c-0.88367,-0.40514 -2.07854,-0.47266 -2.92992,-0.17028M1466.32351,672.15465c0.46385,0.93065 1.00404,1.87597 1.20074,2.09909c0.53138,0.60771 1.26239,0.86019 3.33212,1.15377l1.85542,0.26422l-1.46202,1.4767c-0.80734,0.81321 -1.54423,1.63524 -1.64111,1.83193c-0.34349,0.68698 -0.34936,1.33285 -0.03229,3.14717c0.16734,0.95413 0.30239,1.81432 0.30239,1.9112c0,0.1233 -0.53725,-0.10275 -1.82313,-0.76918c-1.76735,-0.91597 -1.84661,-0.94532 -2.63928,-0.94532c-0.79266,0 -0.87193,0.02936 -2.63928,0.94532c-1.43267,0.74276 -1.82313,0.90129 -1.82313,0.74276c0,-0.10862 0.13505,-0.96881 0.30239,-1.90826c0.32,-1.7879 0.31119,-2.43671 -0.03229,-3.12368c-0.09688,-0.1967 -0.83376,-1.01872 -1.64111,-1.83193l-1.46202,-1.4767l1.85542,-0.26422c2.06973,-0.29358 2.80074,-0.54606 3.33212,-1.15377c0.1967,-0.22312 0.73688,-1.16844 1.20074,-2.09909c0.46385,-0.93065 0.87193,-1.69102 0.90716,-1.69102c0.03523,0 0.4433,0.76037 0.90716,1.69102" className="SFSymbolsPreviewWireframe"/></g>
  <g id="Ultralight-S"><path d="M538.75565,630.1288c-4.77653,0.74569 -8.63416,4.47121 -9.61472,9.29471c-0.24073,1.17432 -0.24367,1.45615 -0.24367,19.88411c0,18.42796 0.00294,18.7098 0.24367,19.88411c0.66936,3.28515 2.64808,6.10057 5.49874,7.81801c0.96588,0.58422 2.50717,1.16257 3.77836,1.42386c1.07744,0.21725 1.61175,0.23193 9.28591,0.22606c6.49691,-0.00294 8.23196,-0.03523 8.58425,-0.16147c0.64881,-0.23193 1.21542,-0.70753 1.58239,-1.33285c0.2789,-0.47266 0.32587,-0.68404 0.32587,-1.4356c0,-0.74569 -0.04991,-0.96294 -0.31707,-1.42092c-0.17321,-0.29651 -0.51083,-0.68698 -0.74569,-0.86606c-0.85432,-0.65175 -0.82789,-0.64881 -9.38279,-0.64881c-8.5226,0 -8.54022,0 -9.80261,-0.64294c-0.78386,-0.39633 -1.86129,-1.42092 -2.3545,-2.24294c-0.69285,-1.15083 -0.81028,-1.85542 -0.81909,-4.92332l-0.00587,-2.70386l7.19269,-7.18682c7.80627,-7.79746 7.68884,-7.69764 8.96591,-7.69764c1.12441,0 1.45615,0.24954 5.15525,3.91341c1.87303,1.85248 3.5846,3.4613 3.80185,3.56992c1.32991,0.67523 3.07084,0.13505 3.85176,-1.19193c0.28477,-0.48441 0.33174,-0.68991 0.33174,-1.44441c0,-0.74569 -0.04991,-0.96294 -0.31413,-1.40918c-0.41395,-0.69872 -6.74645,-6.96957 -7.74755,-7.67416c-1.60588,-1.13028 -3.16185,-1.62643 -5.09066,-1.62643c-1.29762,0 -2.37799,0.20844 -3.40258,0.66349c-1.55303,0.68698 -2.22827,1.27413 -7.54792,6.56736l-5.19635,5.17286l0.00587,-11.50243c0.00587,-10.48371 0.02642,-11.57289 0.20844,-12.27748c0.37578,-1.4356 1.37982,-2.73322 2.76258,-3.55818c1.36514,-0.81909 0.2789,-0.77798 20.59164,-0.77211c20.40668,0.00881 19.08558,-0.04404 20.51824,0.81909c0.81321,0.49028 1.76441,1.48551 2.21652,2.31927c0.65175,1.20367 0.66642,1.42092 0.66936,10.83013l0.00294,8.63123l0.27596,0.58716c0.53138,1.11854 1.4679,1.72625 2.65689,1.72625c1.189,0 2.12551,-0.60771 2.65689,-1.72625l0.27596,-0.58716l0.00294,-8.90719c0,-8.42572 -0.01174,-8.96591 -0.23193,-10.04921c-0.86019,-4.21873 -3.76956,-7.52443 -7.85618,-8.92187c-1.75854,-0.60184 -1.62936,-0.5989 -21.38724,-0.58716c-14.68189,0.00881 -18.58062,0.0411 -19.38209,0.16734M566.16713,644.79014c-0.67817,0.22018 -1.29175,0.71927 -1.66459,1.3534c-0.26716,0.45798 -0.31707,0.67523 -0.31707,1.42092c0,0.7545 0.04697,0.96 0.33174,1.44441c1.52074,2.58937 5.47525,1.54423 5.47525,-1.44441c0,-1.10679 -0.60477,-2.11083 -1.57065,-2.60698c-0.58129,-0.29945 -1.62056,-0.37578 -2.25469,-0.16734M574.02624,662.4548c-0.76331,0.27303 -1.47377,0.76037 -1.90533,1.30643c-0.18202,0.23193 -0.93945,1.63524 -1.68221,3.12075l-1.3534,2.70386l-3.02974,0.44037c-3.26166,0.47266 -3.83414,0.64294 -4.67965,1.38276c-0.93358,0.82202 -1.43267,2.08148 -1.32698,3.36148c0.10275,1.30056 0.41688,1.75267 2.97102,4.28332c1.79083,1.77322 2.27817,2.32221 2.23414,2.50717c-0.03229,0.12917 -0.2789,1.54716 -0.54899,3.1501l-0.49028,2.9123l0.19083,0.78679c0.49028,2.00221 2.27524,3.32038 4.27745,3.15891c0.78973,-0.06165 1.42973,-0.34642 5.21984,-2.32221l1.37982,-0.71927l1.37982,0.71927c3.79011,1.97579 4.43011,2.26056 5.21984,2.32221c1.98459,0.15853 3.77249,-1.14789 4.27158,-3.12368c0.21431,-0.85138 0.22606,-0.71927 -0.42863,-4.47708l-0.46092,-2.64221l2.28698,-2.2723c2.53946,-2.52184 2.83304,-2.94753 2.95634,-4.2569c0.12037,-1.29468 -0.36991,-2.55414 -1.31817,-3.3879c-0.84551,-0.73982 -1.41799,-0.9101 -4.67965,-1.38276l-3.02974,-0.44037l-1.40037,-2.79781c-1.55303,-3.10313 -1.94056,-3.61983 -3.12368,-4.16295c-0.88367,-0.40514 -2.07854,-0.47266 -2.92992,-0.17028M576.18992,672.15465c0.46385,0.93065 1.00404,1.87597 1.20074,2.09909c0.53138,0.60771 1.26239,0.86019 3.33212,1.15377l1.85542,0.26422l-1.46202,1.4767c-0.80734,0.81321 -1.54423,1.63524 -1.64111,1.83193c-0.34349,0.68698 -0.34936,1.33285 -0.03229,3.14717c0.16734,0.95413 0.30239,1.81432 0.30239,1.9112c0,0.1233 -0.53725,-0.10275 -1.82313,-0.76918c-1.76735,-0.91597 -1.84661,-0.94532 -2.63928,-0.94532c-0.79266,0 -0.87193,0.02936 -2.63928,0.94532c-1.43267,0.74276 -1.82313,0.90129 -1.82313,0.74276c0,-0.10862 0.13505,-0.96881 0.30239,-1.90826c0.32,-1.7879 0.31119,-2.43671 -0.03229,-3.12368c-0.09688,-0.1967 -0.83376,-1.01872 -1.64111,-1.83193l-1.46202,-1.4767l1.85542,-0.26422c2.06973,-0.29358 2.80074,-0.54606 3.33212,-1.15377c0.1967,-0.22312 0.73688,-1.16844 1.20074,-2.09909c0.46385,-0.93065 0.87193,-1.69102 0.90716,-1.69102c0.03523,0 0.4433,0.76037 0.90716,1.69102" className="SFSymbolsPreviewWireframe"/></g>
 </g>
</svg>