<?xml version="1.0" encoding="UTF-8"?><!--Generator: https://SymbolKit.app--><!DOCTYPE svg PUBLIC "-//W3C//DTD SVG 1.1//EN" "http://www.w3.org/Graphics/SVG/1.1/DTD/svg11.dtd"><svg xmlns="http://www.w3.org/2000/svg" xmlns:xlink="http://www.w3.org/1999/xlink" version="1.1" viewBox="0 0 3300 2200">
 <!--glyph: "100092", point size: 100.0, font version: "20.0d10e1", template writer version: "138.0.0"-->
 <style>.SFSymbolsPreviewWireframe {fill:none;opacity:1.0;stroke:black;stroke-width:0.5}
</style>
 <g id="Notes">
  <rect height="2200" id="artboard" style="fill:white;opacity:1" width="3300" x="0" y="0"/>
  <line style="fill:none;stroke:black;opacity:1;stroke-width:0.5;" x1="263" x2="3036" y1="292" y2="292"/>
  <text style="stroke:none;fill:black;font-family:sans-serif;font-size:13;font-weight:bold;" transform="matrix(1 0 0 1 263 322)">Weight/Scale Variations</text>
  <text style="stroke:none;fill:black;font-family:sans-serif;font-size:13;text-anchor:middle;" transform="matrix(1 0 0 1 559.711 322)">Ultralight</text>
  <text style="stroke:none;fill:black;font-family:sans-serif;font-size:13;text-anchor:middle;" transform="matrix(1 0 0 1 856.422 322)">Thin</text>
  <text style="stroke:none;fill:black;font-family:sans-serif;font-size:13;text-anchor:middle;" transform="matrix(1 0 0 1 1153.13 322)">Light</text>
  <text style="stroke:none;fill:black;font-family:sans-serif;font-size:13;text-anchor:middle;" transform="matrix(1 0 0 1 1449.84 322)">Regular</text>
  <text style="stroke:none;fill:black;font-family:sans-serif;font-size:13;text-anchor:middle;" transform="matrix(1 0 0 1 1746.56 322)">Medium</text>
  <text style="stroke:none;fill:black;font-family:sans-serif;font-size:13;text-anchor:middle;" transform="matrix(1 0 0 1 2043.27 322)">Semibold</text>
  <text style="stroke:none;fill:black;font-family:sans-serif;font-size:13;text-anchor:middle;" transform="matrix(1 0 0 1 2339.98 322)">Bold</text>
  <text style="stroke:none;fill:black;font-family:sans-serif;font-size:13;text-anchor:middle;" transform="matrix(1 0 0 1 2636.69 322)">Heavy</text>
  <text style="stroke:none;fill:black;font-family:sans-serif;font-size:13;text-anchor:middle;" transform="matrix(1 0 0 1 2933.4 322)">Black</text>
  <line style="fill:none;stroke:black;opacity:1;stroke-width:0.5;" x1="263" x2="3036" y1="1903" y2="1903"/>
  <g transform="matrix(0.2 0 0 0.2 263 1933)">
   <path d="m46.2402 4.15039c21.7773 0 39.4531-17.627 39.4531-39.4043s-17.6758-39.4043-39.4531-39.4043c-21.7285 0-39.4043 17.627-39.4043 39.4043s17.6758 39.4043 39.4043 39.4043Zm0-7.42188c-17.6758 0-31.9336-14.3066-31.9336-31.9824s14.2578-31.9824 31.9336-31.9824 31.9824 14.3066 31.9824 31.9824-14.3066 31.9824-31.9824 31.9824Zm-17.9688-31.9824c0 2.14844 1.51367 3.61328 3.75977 3.61328h10.498v10.5957c0 2.19727 1.46484 3.71094 3.61328 3.71094 2.24609 0 3.71094-1.51367 3.71094-3.71094v-10.5957h10.5957c2.19727 0 3.71094-1.46484 3.71094-3.61328 0-2.19727-1.51367-3.71094-3.71094-3.71094h-10.5957v-10.5469c0-2.24609-1.46484-3.75977-3.71094-3.75977-2.14844 0-3.61328 1.51367-3.61328 3.75977v10.5469h-10.498c-2.24609 0-3.75977 1.51367-3.75977 3.71094Z"/>
  </g>
  <g transform="matrix(0.2 0 0 0.2 281.506 1933)">
   <path d="m58.5449 14.5508c27.4902 0 49.8047-22.3145 49.8047-49.8047s-22.3145-49.8047-49.8047-49.8047-49.8047 22.3145-49.8047 49.8047 22.3145 49.8047 49.8047 49.8047Zm0-8.30078c-22.9492 0-41.5039-18.5547-41.5039-41.5039s18.5547-41.5039 41.5039-41.5039 41.5039 18.5547 41.5039 41.5039-18.5547 41.5039-41.5039 41.5039Zm-22.6562-41.5039c0 2.39258 1.66016 4.00391 4.15039 4.00391h14.3555v14.4043c0 2.44141 1.66016 4.15039 4.05273 4.15039 2.44141 0 4.15039-1.66016 4.15039-4.15039v-14.4043h14.4043c2.44141 0 4.15039-1.61133 4.15039-4.00391 0-2.44141-1.70898-4.15039-4.15039-4.15039h-14.4043v-14.3555c0-2.49023-1.70898-4.19922-4.15039-4.19922-2.39258 0-4.05273 1.70898-4.05273 4.19922v14.3555h-14.3555c-2.49023 0-4.15039 1.70898-4.15039 4.15039Z"/>
  </g>
  <g transform="matrix(0.2 0 0 0.2 304.924 1933)">
   <path d="m74.8535 28.3203c35.1074 0 63.623-28.4668 63.623-63.5742s-28.5156-63.623-63.623-63.623-63.5742 28.5156-63.5742 63.623 28.4668 63.5742 63.5742 63.5742Zm0-9.08203c-30.127 0-54.4922-24.3652-54.4922-54.4922s24.3652-54.4922 54.4922-54.4922 54.4922 24.3652 54.4922 54.4922-24.3652 54.4922-54.4922 54.4922Zm-28.8574-54.4922c0 2.58789 1.85547 4.39453 4.58984 4.39453h19.7266v19.7754c0 2.68555 1.85547 4.58984 4.44336 4.58984 2.68555 0 4.54102-1.85547 4.54102-4.58984v-19.7754h19.7754c2.68555 0 4.58984-1.80664 4.58984-4.39453 0-2.73438-1.85547-4.58984-4.58984-4.58984h-19.7754v-19.7266c0-2.73438-1.85547-4.63867-4.54102-4.63867-2.58789 0-4.44336 1.9043-4.44336 4.63867v19.7266h-19.7266c-2.73438 0-4.58984 1.85547-4.58984 4.58984Z"/>
  </g>
  <text style="stroke:none;fill:black;font-family:sans-serif;font-size:13;font-weight:bold;" transform="matrix(1 0 0 1 263 1953)">Design Variations</text>
  <text style="stroke:none;fill:black;font-family:sans-serif;font-size:13;" transform="matrix(1 0 0 1 263 1971)">Symbols are supported in up to nine weights and three scales.</text>
  <text style="stroke:none;fill:black;font-family:sans-serif;font-size:13;" transform="matrix(1 0 0 1 263 1989)">For optimal layout with text and other symbols, vertically align</text>
  <text style="stroke:none;fill:black;font-family:sans-serif;font-size:13;" transform="matrix(1 0 0 1 263 2007)">symbols with the adjacent text.</text>
  <line style="fill:none;stroke:#00AEEF;stroke-width:0.5;opacity:1.0;" x1="776" x2="776" y1="1919" y2="1933"/>
  <g transform="matrix(0.2 0 0 0.2 776 1933)">
   <path d="m16.5527 0.78125c2.58789 0 3.85742-0.976562 4.78516-3.71094l6.29883-17.2363h28.8086l6.29883 17.2363c0.927734 2.73438 2.19727 3.71094 4.73633 3.71094 2.58789 0 4.24805-1.5625 4.24805-4.00391 0-0.830078-0.146484-1.61133-0.537109-2.63672l-22.9004-60.9863c-1.12305-2.97852-3.125-4.49219-6.25-4.49219-3.02734 0-5.07812 1.46484-6.15234 4.44336l-22.9004 61.084c-0.390625 1.02539-0.537109 1.80664-0.537109 2.63672 0 2.44141 1.5625 3.95508 4.10156 3.95508Zm13.4766-28.3691 11.8652-32.8613h0.244141l11.8652 32.8613Z"/>
  </g>
  <line style="fill:none;stroke:#00AEEF;stroke-width:0.5;opacity:1.0;" x1="792.836" x2="792.836" y1="1919" y2="1933"/>
  <text style="stroke:none;fill:black;font-family:sans-serif;font-size:13;font-weight:bold;" transform="matrix(1 0 0 1 776 1953)">Margins</text>
  <text style="stroke:none;fill:black;font-family:sans-serif;font-size:13;" transform="matrix(1 0 0 1 776 1971)">Leading and trailing margins on the left and right side of each symbol</text>
  <text style="stroke:none;fill:black;font-family:sans-serif;font-size:13;" transform="matrix(1 0 0 1 776 1989)">can be adjusted by modifying the x-location of the margin guidelines.</text>
  <text style="stroke:none;fill:black;font-family:sans-serif;font-size:13;" transform="matrix(1 0 0 1 776 2007)">Modifications are automatically applied proportionally to all</text>
  <text style="stroke:none;fill:black;font-family:sans-serif;font-size:13;" transform="matrix(1 0 0 1 776 2025)">scales and weights.</text>
  <g transform="matrix(0.2 0 0 0.2 1289 1933)">
   <path d="m14.209 9.32617 8.49609 8.54492c4.29688 4.3457 9.22852 4.05273 13.8672-1.07422l53.4668-58.9355-4.83398-4.88281-53.0762 58.3984c-1.75781 2.00195-3.41797 2.49023-5.76172 0.146484l-5.85938-5.81055c-2.34375-2.29492-1.80664-4.00391 0.195312-5.81055l57.373-54.0039-4.88281-4.83398-57.959 54.4434c-4.93164 4.58984-5.32227 9.47266-1.02539 13.8184Zm32.0801-90.9668c-2.09961 2.05078-2.24609 4.93164-1.07422 6.88477 1.17188 1.80664 3.4668 2.97852 6.68945 2.14844 7.32422-1.70898 14.9414-2.00195 22.0703 2.68555l-2.92969 7.27539c-1.70898 4.15039-0.830078 7.08008 1.85547 9.81445l11.4746 11.5723c2.44141 2.44141 4.49219 2.53906 7.32422 2.05078l5.32227-0.976562 3.32031 3.36914-0.195312 2.7832c-0.195312 2.49023 0.439453 4.39453 2.88086 6.78711l3.80859 3.71094c2.39258 2.39258 5.46875 2.53906 7.8125 0.195312l14.5508-14.5996c2.34375-2.34375 2.24609-5.32227-0.146484-7.71484l-3.85742-3.80859c-2.39258-2.39258-4.24805-3.17383-6.64062-2.97852l-2.88086 0.244141-3.22266-3.17383 1.2207-5.61523c0.634766-2.83203-0.146484-5.0293-3.07617-7.95898l-10.9863-10.9375c-16.6992-16.6016-38.8672-16.2109-53.3203-1.75781Zm7.4707 1.85547c12.1582-8.88672 28.6133-7.37305 39.7461 3.75977l12.1582 12.0605c1.17188 1.17188 1.36719 2.09961 1.02539 3.80859l-1.61133 7.42188 7.51953 7.42188 4.93164-0.292969c1.26953-0.0488281 1.66016 0.0488281 2.63672 1.02539l2.88086 2.88086-12.207 12.207-2.88086-2.88086c-0.976562-0.976562-1.12305-1.36719-1.07422-2.68555l0.341797-4.88281-7.4707-7.42188-7.61719 1.26953c-1.61133 0.341797-2.34375 0.195312-3.56445-0.976562l-10.0098-10.0098c-1.26953-1.17188-1.41602-2.00195-0.634766-3.85742l4.39453-10.4492c-7.8125-7.27539-17.9688-10.4004-28.125-7.42188-0.78125 0.195312-1.07422-0.439453-0.439453-0.976562Z"/>
  </g>
  <text style="stroke:none;fill:black;font-family:sans-serif;font-size:13;font-weight:bold;" transform="matrix(1 0 0 1 1289 1953)">Exporting</text>
  <text style="stroke:none;fill:black;font-family:sans-serif;font-size:13;" transform="matrix(1 0 0 1 1289 1971)">Symbols should be outlined when exporting to ensure the</text>
  <text style="stroke:none;fill:black;font-family:sans-serif;font-size:13;" transform="matrix(1 0 0 1 1289 1989)">design is preserved when submitting to Xcode.</text>
  <text id="template-version" style="stroke:none;fill:black;font-family:sans-serif;font-size:13;text-anchor:end;" transform="matrix(1 0 0 1 3036 1933)">Template v.6.0</text>
  <text style="stroke:none;fill:black;font-family:sans-serif;font-size:13;text-anchor:end;" transform="matrix(1 0 0 1 3036 1951)">Requires Xcode 16 or greater</text>
  <text id="descriptive-name" style="stroke:none;fill:black;font-family:sans-serif;font-size:13;text-anchor:end;" transform="matrix(1 0 0 1 3036 1969)">Generated from square</text>
  <text style="stroke:none;fill:black;font-family:sans-serif;font-size:13;text-anchor:end;" transform="matrix(1 0 0 1 3036 1987)">Typeset at 100.0 points</text>
  <text style="stroke:none;fill:black;font-family:sans-serif;font-size:13;" transform="matrix(1 0 0 1 263 726)">Small</text>
  <text style="stroke:none;fill:black;font-family:sans-serif;font-size:13;" transform="matrix(1 0 0 1 263 1156)">Medium</text>
  <text style="stroke:none;fill:black;font-family:sans-serif;font-size:13;" transform="matrix(1 0 0 1 263 1586)">Large</text>
 </g>
 <g id="Guides">
  <g id="H-reference" style="fill:#27AAE1;stroke:none;" transform="matrix(1 0 0 1 339 696)">
   <path d="M0.993654 0L3.63775 0L29.3281-67.1323L30.0303-67.1323L30.0303-70.459L28.1226-70.459ZM11.6885-24.4799L46.9815-24.4799L46.2315-26.7285L12.4385-26.7285ZM55.1196 0L57.7637 0L30.6382-70.459L29.4326-70.459L29.4326-67.1323Z"/>
  </g>
  <line id="Baseline-S" style="fill:none;stroke:#27AAE1;opacity:1;stroke-width:0.5;" x1="263" x2="3036" y1="696" y2="696"/>
  <line id="Capline-S" style="fill:none;stroke:#27AAE1;opacity:1;stroke-width:0.5;" x1="263" x2="3036" y1="625.541" y2="625.541"/>
  <g id="H-reference" style="fill:#27AAE1;stroke:none;" transform="matrix(1 0 0 1 339 1126)">
   <path d="M0.993654 0L3.63775 0L29.3281-67.1323L30.0303-67.1323L30.0303-70.459L28.1226-70.459ZM11.6885-24.4799L46.9815-24.4799L46.2315-26.7285L12.4385-26.7285ZM55.1196 0L57.7637 0L30.6382-70.459L29.4326-70.459L29.4326-67.1323Z"/>
  </g>
  <line id="Baseline-M" style="fill:none;stroke:#27AAE1;opacity:1;stroke-width:0.5;" x1="263" x2="3036" y1="1126" y2="1126"/>
  <line id="Capline-M" style="fill:none;stroke:#27AAE1;opacity:1;stroke-width:0.5;" x1="263" x2="3036" y1="1055.54" y2="1055.54"/>
  <g id="H-reference" style="fill:#27AAE1;stroke:none;" transform="matrix(1 0 0 1 339 1556)">
   <path d="M0.993654 0L3.63775 0L29.3281-67.1323L30.0303-67.1323L30.0303-70.459L28.1226-70.459ZM11.6885-24.4799L46.9815-24.4799L46.2315-26.7285L12.4385-26.7285ZM55.1196 0L57.7637 0L30.6382-70.459L29.4326-70.459L29.4326-67.1323Z"/>
  </g>
  <line id="Baseline-L" style="fill:none;stroke:#27AAE1;opacity:1;stroke-width:0.5;" x1="263" x2="3036" y1="1556" y2="1556"/>
  <line id="Capline-L" style="fill:none;stroke:#27AAE1;opacity:1;stroke-width:0.5;" x1="263" x2="3036" y1="1485.54" y2="1485.54"/>
  <line id="right-margin-Black-S" style="fill:none;stroke:#00AEEF;stroke-width:0.5;opacity:1.0;" x1="2981.3" x2="2981.3" y1="600.785" y2="720.121"/>
  <line id="left-margin-Black-S" style="fill:none;stroke:#00AEEF;stroke-width:0.5;opacity:1.0;" x1="2885.5" x2="2885.5" y1="600.785" y2="720.121"/>
  <line id="right-margin-Regular-S" style="fill:none;stroke:#00AEEF;stroke-width:0.5;opacity:1.0;" x1="1495.18" x2="1495.18" y1="600.785" y2="720.121"/>
  <line id="left-margin-Regular-S" style="fill:none;stroke:#00AEEF;stroke-width:0.5;opacity:1.0;" x1="1404.51" x2="1404.51" y1="600.785" y2="720.121"/>
  <line id="right-margin-Ultralight-S" style="fill:none;stroke:#00AEEF;stroke-width:0.5;opacity:1.0;" x1="603.073" x2="603.073" y1="600.785" y2="720.121"/>
  <line id="left-margin-Ultralight-S" style="fill:none;stroke:#00AEEF;stroke-width:0.5;opacity:1.0;" x1="516.35" x2="516.35" y1="600.785" y2="720.121"/>
 </g>
 <g id="Symbols">
  <g id="Black-S"><path d="M2947.02706,634.35929c-7.06058,0.61652 -13.71014,3.81359 -18.67163,8.97765c-2.15487,2.24294 -3.63451,4.34497 -5.0114,7.11929c-0.7222,1.45909 -0.86606,1.6734 -1.10973,1.6734c-0.52257,0 -2.53652,0.48734 -3.73139,0.90129c-1.54716,0.53725 -3.84001,1.72331 -5.23452,2.71267c-1.28881,0.91303 -3.56992,3.12662 -4.42717,4.29506c-1.66166,2.26056 -2.04331,3.30276 -1.64111,4.48295c0.43156,1.26533 1.1978,1.82313 2.89469,2.10496c1.10679,0.18495 2.71854,0.53138 2.80368,0.60477c0.02642,0.02055 -0.26716,0.39633 -0.65175,0.8367c-2.72148,3.10607 -4.42717,6.63782 -5.09066,10.54243c-0.22312,1.32698 -0.24954,1.81725 -0.19963,3.75781c0.06752,2.59818 0.1967,3.11194 0.96294,3.87818c0.76624,0.76624 1.28,0.89542 3.87818,0.96294c1.94056,0.04991 2.43083,0.02349 3.75781,-0.19963c3.91341,-0.66349 7.45397,-2.37505 10.53949,-5.0936c0.43743,-0.38459 0.81321,-0.67817 0.8367,-0.65175c0.07633,0.08807 0.41982,1.67927 0.60771,2.80662c0.21725,1.30056 0.55193,1.96404 1.25358,2.47194c1.08918,0.78973 2.22827,0.76624 3.61983,-0.07339c1.53835,-0.93358 2.46019,-1.67047 3.92809,-3.15598c2.85652,-2.88882 4.71488,-6.36773 5.51635,-10.31637c0.1556,-0.77211 0.29945,-1.41212 0.32,-1.42092c0.02055,-0.01174 0.76037,-0.37872 1.64404,-0.81321c4.83525,-2.38386 9.01288,-6.28846 12.00151,-11.21472c2.33689,-3.85763 3.78717,-8.57545 4.01323,-13.05546c0.06165,-1.23303 0.03523,-1.65872 -0.17028,-2.65396c-0.60771,-2.92992 -2.12845,-5.39892 -4.36552,-7.08406c-2.46313,-1.85542 -5.24039,-2.65983 -8.27306,-2.39561M2949.67808,640.36591c1.46496,0.38165 2.91524,1.54423 3.6668,2.92992c0.46679,0.86312 0.70459,2.11083 0.61064,3.19708c-0.34936,4.00442 -1.57065,7.60076 -3.67561,10.80371c-2.82423,4.298 -6.49691,7.31012 -11.17949,9.1626c-2.09028,0.82496 -2.52184,1.34459 -2.70974,3.24698c-0.30239,3.06203 -1.02166,5.19048 -2.52184,7.44517c-0.56661,0.85138 -1.40918,1.84368 -1.48845,1.75267c-0.02936,-0.03229 -0.1967,-0.48147 -0.37285,-0.99817c-0.46679,-1.35634 -1.80551,-4.04846 -2.65689,-5.34314c-2.16955,-3.29102 -5.19929,-6.20626 -8.57251,-8.2437c-1.30936,-0.79266 -3.71965,-1.92294 -4.84406,-2.27524c-0.37285,-0.11743 -0.65762,-0.26716 -0.63707,-0.33762c0.07339,-0.22312 1.41212,-1.24478 2.41616,-1.84074c2.00808,-1.19487 3.79598,-1.77028 6.33837,-2.04037c2.37212,-0.25248 2.81836,-0.59009 3.66974,-2.77432c2.84772,-7.32773 9.40334,-12.88519 17.01584,-14.42061c2.42496,-0.49028 3.79598,-0.56367 4.94094,-0.26422M2940.73566,646.2375c-1.96992,0.5167 -3.63745,2.20184 -4.16002,4.21286c-0.34936,1.33285 -0.16734,2.88882 0.48441,4.17469c0.39927,0.78973 1.69102,2.08148 2.48074,2.48074c1.72918,0.87487 3.73139,0.87487 5.46057,0c0.78092,-0.39633 2.07854,-1.68808 2.469,-2.46019c0.65468,-1.28881 0.82496,-2.73029 0.49615,-4.13359c-0.24073,-1.01872 -0.64587,-1.76735 -1.3945,-2.57175c-1.14789,-1.23597 -2.65689,-1.90239 -4.30093,-1.90239c-0.41982,0 -1.10973,0.09101 -1.53542,0.19963M2919.95026,670.86585c0.52551,0.42569 1.32111,1.13615 1.76735,1.58239c0.9101,0.9101 2.35157,2.65689 2.35157,2.84478c0,0.43743 -1.90533,2.38386 -3.32038,3.39084c-2.0257,1.44147 -5.51342,2.68625 -7.5303,2.68625h-0.45505l0.0822,-0.90716c0.33174,-3.6668 2.3046,-7.42462 5.11121,-9.74095c0.41688,-0.34349 0.81909,-0.62532 0.89835,-0.62532c0.07633,0 0.56954,0.34642 1.09505,0.76918" className="SFSymbolsPreviewWireframe"/></g>
  <g id="Regular-S"><path d="M1463.47202,634.35929c-7.06058,0.61652 -13.71014,3.81359 -18.67163,8.97765c-2.15487,2.24294 -3.63451,4.34497 -5.0114,7.11929c-0.7222,1.45909 -0.86606,1.6734 -1.10973,1.6734c-0.52257,0 -2.53652,0.48734 -3.73139,0.90129c-1.54716,0.53725 -3.84001,1.72331 -5.23452,2.71267c-1.28881,0.91303 -3.56992,3.12662 -4.42717,4.29506c-1.66166,2.26056 -2.04331,3.30276 -1.64111,4.48295c0.43156,1.26533 1.1978,1.82313 2.89469,2.10496c1.10679,0.18495 2.71854,0.53138 2.80368,0.60477c0.02642,0.02055 -0.26716,0.39633 -0.65175,0.8367c-2.72148,3.10607 -4.42717,6.63782 -5.09066,10.54243c-0.22312,1.32698 -0.24954,1.81725 -0.19963,3.75781c0.06752,2.59818 0.1967,3.11194 0.96294,3.87818c0.76624,0.76624 1.28,0.89542 3.87818,0.96294c1.94056,0.04991 2.43083,0.02349 3.75781,-0.19963c3.91341,-0.66349 7.45397,-2.37505 10.53949,-5.0936c0.43743,-0.38459 0.81321,-0.67817 0.8367,-0.65175c0.07633,0.08807 0.41982,1.67927 0.60771,2.80662c0.21725,1.30056 0.55193,1.96404 1.25358,2.47194c1.08918,0.78973 2.22827,0.76624 3.61983,-0.07339c1.53835,-0.93358 2.46019,-1.67047 3.92809,-3.15598c2.85652,-2.88882 4.71488,-6.36773 5.51635,-10.31637c0.1556,-0.77211 0.29945,-1.41212 0.32,-1.42092c0.02055,-0.01174 0.76037,-0.37872 1.64404,-0.81321c4.83525,-2.38386 9.01288,-6.28846 12.00151,-11.21472c2.33689,-3.85763 3.78717,-8.57545 4.01323,-13.05546c0.06165,-1.23303 0.03523,-1.65872 -0.17028,-2.65396c-0.60771,-2.92992 -2.12845,-5.39892 -4.36552,-7.08406c-2.46313,-1.85542 -5.24039,-2.65983 -8.27306,-2.39561M1466.12303,640.36591c1.46496,0.38165 2.91524,1.54423 3.6668,2.92992c0.46679,0.86312 0.70459,2.11083 0.61064,3.19708c-0.34936,4.00442 -1.57065,7.60076 -3.67561,10.80371c-2.82423,4.298 -6.49691,7.31012 -11.17949,9.1626c-2.09028,0.82496 -2.52184,1.34459 -2.70974,3.24698c-0.30239,3.06203 -1.02166,5.19048 -2.52184,7.44517c-0.56661,0.85138 -1.40918,1.84368 -1.48845,1.75267c-0.02936,-0.03229 -0.1967,-0.48147 -0.37285,-0.99817c-0.46679,-1.35634 -1.80551,-4.04846 -2.65689,-5.34314c-2.16955,-3.29102 -5.19929,-6.20626 -8.57251,-8.2437c-1.30936,-0.79266 -3.71965,-1.92294 -4.84406,-2.27524c-0.37285,-0.11743 -0.65762,-0.26716 -0.63707,-0.33762c0.07339,-0.22312 1.41212,-1.24478 2.41616,-1.84074c2.00808,-1.19487 3.79598,-1.77028 6.33837,-2.04037c2.37212,-0.25248 2.81836,-0.59009 3.66974,-2.77432c2.84772,-7.32773 9.40334,-12.88519 17.01584,-14.42061c2.42496,-0.49028 3.79598,-0.56367 4.94094,-0.26422M1457.18062,646.2375c-1.96992,0.5167 -3.63745,2.20184 -4.16002,4.21286c-0.34936,1.33285 -0.16734,2.88882 0.48441,4.17469c0.39927,0.78973 1.69102,2.08148 2.48074,2.48074c1.72918,0.87487 3.73139,0.87487 5.46057,0c0.78092,-0.39633 2.07854,-1.68808 2.469,-2.46019c0.65468,-1.28881 0.82496,-2.73029 0.49615,-4.13359c-0.24073,-1.01872 -0.64587,-1.76735 -1.3945,-2.57175c-1.14789,-1.23597 -2.65689,-1.90239 -4.30093,-1.90239c-0.41982,0 -1.10973,0.09101 -1.53542,0.19963M1436.39521,670.86585c0.52551,0.42569 1.32111,1.13615 1.76735,1.58239c0.9101,0.9101 2.35157,2.65689 2.35157,2.84478c0,0.43743 -1.90533,2.38386 -3.32038,3.39084c-2.0257,1.44147 -5.51342,2.68625 -7.5303,2.68625h-0.45505l0.0822,-0.90716c0.33174,-3.6668 2.3046,-7.42462 5.11121,-9.74095c0.41688,-0.34349 0.81909,-0.62532 0.89835,-0.62532c0.07633,0 0.56954,0.34642 1.09505,0.76918" className="SFSymbolsPreviewWireframe"/></g>
  <g id="Ultralight-S"><path d="M573.33842,634.35929c-7.06058,0.61652 -13.71014,3.81359 -18.67163,8.97765c-2.15487,2.24294 -3.63451,4.34497 -5.0114,7.11929c-0.7222,1.45909 -0.86606,1.6734 -1.10973,1.6734c-0.52257,0 -2.53652,0.48734 -3.73139,0.90129c-1.54716,0.53725 -3.84001,1.72331 -5.23452,2.71267c-1.28881,0.91303 -3.56992,3.12662 -4.42717,4.29506c-1.66166,2.26056 -2.04331,3.30276 -1.64111,4.48295c0.43156,1.26533 1.1978,1.82313 2.89469,2.10496c1.10679,0.18495 2.71854,0.53138 2.80368,0.60477c0.02642,0.02055 -0.26716,0.39633 -0.65175,0.8367c-2.72148,3.10607 -4.42717,6.63782 -5.09066,10.54243c-0.22312,1.32698 -0.24954,1.81725 -0.19963,3.75781c0.06752,2.59818 0.1967,3.11194 0.96294,3.87818c0.76624,0.76624 1.28,0.89542 3.87818,0.96294c1.94056,0.04991 2.43083,0.02349 3.75781,-0.19963c3.91341,-0.66349 7.45397,-2.37505 10.53949,-5.0936c0.43743,-0.38459 0.81321,-0.67817 0.8367,-0.65175c0.07633,0.08807 0.41982,1.67927 0.60771,2.80662c0.21725,1.30056 0.55193,1.96404 1.25358,2.47194c1.08918,0.78973 2.22827,0.76624 3.61983,-0.07339c1.53835,-0.93358 2.46019,-1.67047 3.92809,-3.15598c2.85652,-2.88882 4.71488,-6.36773 5.51635,-10.31637c0.1556,-0.77211 0.29945,-1.41212 0.32,-1.42092c0.02055,-0.01174 0.76037,-0.37872 1.64404,-0.81321c4.83525,-2.38386 9.01288,-6.28846 12.00151,-11.21472c2.33689,-3.85763 3.78717,-8.57545 4.01323,-13.05546c0.06165,-1.23303 0.03523,-1.65872 -0.17028,-2.65396c-0.60771,-2.92992 -2.12845,-5.39892 -4.36552,-7.08406c-2.46313,-1.85542 -5.24039,-2.65983 -8.27306,-2.39561M575.98944,640.36591c1.46496,0.38165 2.91524,1.54423 3.6668,2.92992c0.46679,0.86312 0.70459,2.11083 0.61064,3.19708c-0.34936,4.00442 -1.57065,7.60076 -3.67561,10.80371c-2.82423,4.298 -6.49691,7.31012 -11.17949,9.1626c-2.09028,0.82496 -2.52184,1.34459 -2.70974,3.24698c-0.30239,3.06203 -1.02166,5.19048 -2.52184,7.44517c-0.56661,0.85138 -1.40918,1.84368 -1.48845,1.75267c-0.02936,-0.03229 -0.1967,-0.48147 -0.37285,-0.99817c-0.46679,-1.35634 -1.80551,-4.04846 -2.65689,-5.34314c-2.16955,-3.29102 -5.19929,-6.20626 -8.57251,-8.2437c-1.30936,-0.79266 -3.71965,-1.92294 -4.84406,-2.27524c-0.37285,-0.11743 -0.65762,-0.26716 -0.63707,-0.33762c0.07339,-0.22312 1.41212,-1.24478 2.41616,-1.84074c2.00808,-1.19487 3.79598,-1.77028 6.33837,-2.04037c2.37212,-0.25248 2.81836,-0.59009 3.66974,-2.77432c2.84772,-7.32773 9.40334,-12.88519 17.01584,-14.42061c2.42496,-0.49028 3.79598,-0.56367 4.94094,-0.26422M567.04702,646.2375c-1.96992,0.5167 -3.63745,2.20184 -4.16002,4.21286c-0.34936,1.33285 -0.16734,2.88882 0.48441,4.17469c0.39927,0.78973 1.69102,2.08148 2.48074,2.48074c1.72918,0.87487 3.73139,0.87487 5.46057,0c0.78092,-0.39633 2.07854,-1.68808 2.469,-2.46019c0.65468,-1.28881 0.82496,-2.73029 0.49615,-4.13359c-0.24073,-1.01872 -0.64587,-1.76735 -1.3945,-2.57175c-1.14789,-1.23597 -2.65689,-1.90239 -4.30093,-1.90239c-0.41982,0 -1.10973,0.09101 -1.53542,0.19963M546.26162,670.86585c0.52551,0.42569 1.32111,1.13615 1.76735,1.58239c0.9101,0.9101 2.35157,2.65689 2.35157,2.84478c0,0.43743 -1.90533,2.38386 -3.32038,3.39084c-2.0257,1.44147 -5.51342,2.68625 -7.5303,2.68625h-0.45505l0.0822,-0.90716c0.33174,-3.6668 2.3046,-7.42462 5.11121,-9.74095c0.41688,-0.34349 0.81909,-0.62532 0.89835,-0.62532c0.07633,0 0.56954,0.34642 1.09505,0.76918" className="SFSymbolsPreviewWireframe"/></g>
 </g>
</svg>