<?xml version="1.0" encoding="UTF-8"?><!--Generator: https://SymbolKit.app--><!DOCTYPE svg PUBLIC "-//W3C//DTD SVG 1.1//EN" "http://www.w3.org/Graphics/SVG/1.1/DTD/svg11.dtd"><svg xmlns="http://www.w3.org/2000/svg" xmlns:xlink="http://www.w3.org/1999/xlink" version="1.1" viewBox="0 0 3300 2200">
 <!--glyph: "100092", point size: 100.0, font version: "20.0d10e1", template writer version: "138.0.0"-->
 <style>.SFSymbolsPreviewWireframe {fill:none;opacity:1.0;stroke:black;stroke-width:0.5}
</style>
 <g id="Notes">
  <rect height="2200" id="artboard" style="fill:white;opacity:1" width="3300" x="0" y="0"/>
  <line style="fill:none;stroke:black;opacity:1;stroke-width:0.5;" x1="263" x2="3036" y1="292" y2="292"/>
  <text style="stroke:none;fill:black;font-family:sans-serif;font-size:13;font-weight:bold;" transform="matrix(1 0 0 1 263 322)">Weight/Scale Variations</text>
  <text style="stroke:none;fill:black;font-family:sans-serif;font-size:13;text-anchor:middle;" transform="matrix(1 0 0 1 559.711 322)">Ultralight</text>
  <text style="stroke:none;fill:black;font-family:sans-serif;font-size:13;text-anchor:middle;" transform="matrix(1 0 0 1 856.422 322)">Thin</text>
  <text style="stroke:none;fill:black;font-family:sans-serif;font-size:13;text-anchor:middle;" transform="matrix(1 0 0 1 1153.13 322)">Light</text>
  <text style="stroke:none;fill:black;font-family:sans-serif;font-size:13;text-anchor:middle;" transform="matrix(1 0 0 1 1449.84 322)">Regular</text>
  <text style="stroke:none;fill:black;font-family:sans-serif;font-size:13;text-anchor:middle;" transform="matrix(1 0 0 1 1746.56 322)">Medium</text>
  <text style="stroke:none;fill:black;font-family:sans-serif;font-size:13;text-anchor:middle;" transform="matrix(1 0 0 1 2043.27 322)">Semibold</text>
  <text style="stroke:none;fill:black;font-family:sans-serif;font-size:13;text-anchor:middle;" transform="matrix(1 0 0 1 2339.98 322)">Bold</text>
  <text style="stroke:none;fill:black;font-family:sans-serif;font-size:13;text-anchor:middle;" transform="matrix(1 0 0 1 2636.69 322)">Heavy</text>
  <text style="stroke:none;fill:black;font-family:sans-serif;font-size:13;text-anchor:middle;" transform="matrix(1 0 0 1 2933.4 322)">Black</text>
  <line style="fill:none;stroke:black;opacity:1;stroke-width:0.5;" x1="263" x2="3036" y1="1903" y2="1903"/>
  <g transform="matrix(0.2 0 0 0.2 263 1933)">
   <path d="m46.2402 4.15039c21.7773 0 39.4531-17.627 39.4531-39.4043s-17.6758-39.4043-39.4531-39.4043c-21.7285 0-39.4043 17.627-39.4043 39.4043s17.6758 39.4043 39.4043 39.4043Zm0-7.42188c-17.6758 0-31.9336-14.3066-31.9336-31.9824s14.2578-31.9824 31.9336-31.9824 31.9824 14.3066 31.9824 31.9824-14.3066 31.9824-31.9824 31.9824Zm-17.9688-31.9824c0 2.14844 1.51367 3.61328 3.75977 3.61328h10.498v10.5957c0 2.19727 1.46484 3.71094 3.61328 3.71094 2.24609 0 3.71094-1.51367 3.71094-3.71094v-10.5957h10.5957c2.19727 0 3.71094-1.46484 3.71094-3.61328 0-2.19727-1.51367-3.71094-3.71094-3.71094h-10.5957v-10.5469c0-2.24609-1.46484-3.75977-3.71094-3.75977-2.14844 0-3.61328 1.51367-3.61328 3.75977v10.5469h-10.498c-2.24609 0-3.75977 1.51367-3.75977 3.71094Z"/>
  </g>
  <g transform="matrix(0.2 0 0 0.2 281.506 1933)">
   <path d="m58.5449 14.5508c27.4902 0 49.8047-22.3145 49.8047-49.8047s-22.3145-49.8047-49.8047-49.8047-49.8047 22.3145-49.8047 49.8047 22.3145 49.8047 49.8047 49.8047Zm0-8.30078c-22.9492 0-41.5039-18.5547-41.5039-41.5039s18.5547-41.5039 41.5039-41.5039 41.5039 18.5547 41.5039 41.5039-18.5547 41.5039-41.5039 41.5039Zm-22.6562-41.5039c0 2.39258 1.66016 4.00391 4.15039 4.00391h14.3555v14.4043c0 2.44141 1.66016 4.15039 4.05273 4.15039 2.44141 0 4.15039-1.66016 4.15039-4.15039v-14.4043h14.4043c2.44141 0 4.15039-1.61133 4.15039-4.00391 0-2.44141-1.70898-4.15039-4.15039-4.15039h-14.4043v-14.3555c0-2.49023-1.70898-4.19922-4.15039-4.19922-2.39258 0-4.05273 1.70898-4.05273 4.19922v14.3555h-14.3555c-2.49023 0-4.15039 1.70898-4.15039 4.15039Z"/>
  </g>
  <g transform="matrix(0.2 0 0 0.2 304.924 1933)">
   <path d="m74.8535 28.3203c35.1074 0 63.623-28.4668 63.623-63.5742s-28.5156-63.623-63.623-63.623-63.5742 28.5156-63.5742 63.623 28.4668 63.5742 63.5742 63.5742Zm0-9.08203c-30.127 0-54.4922-24.3652-54.4922-54.4922s24.3652-54.4922 54.4922-54.4922 54.4922 24.3652 54.4922 54.4922-24.3652 54.4922-54.4922 54.4922Zm-28.8574-54.4922c0 2.58789 1.85547 4.39453 4.58984 4.39453h19.7266v19.7754c0 2.68555 1.85547 4.58984 4.44336 4.58984 2.68555 0 4.54102-1.85547 4.54102-4.58984v-19.7754h19.7754c2.68555 0 4.58984-1.80664 4.58984-4.39453 0-2.73438-1.85547-4.58984-4.58984-4.58984h-19.7754v-19.7266c0-2.73438-1.85547-4.63867-4.54102-4.63867-2.58789 0-4.44336 1.9043-4.44336 4.63867v19.7266h-19.7266c-2.73438 0-4.58984 1.85547-4.58984 4.58984Z"/>
  </g>
  <text style="stroke:none;fill:black;font-family:sans-serif;font-size:13;font-weight:bold;" transform="matrix(1 0 0 1 263 1953)">Design Variations</text>
  <text style="stroke:none;fill:black;font-family:sans-serif;font-size:13;" transform="matrix(1 0 0 1 263 1971)">Symbols are supported in up to nine weights and three scales.</text>
  <text style="stroke:none;fill:black;font-family:sans-serif;font-size:13;" transform="matrix(1 0 0 1 263 1989)">For optimal layout with text and other symbols, vertically align</text>
  <text style="stroke:none;fill:black;font-family:sans-serif;font-size:13;" transform="matrix(1 0 0 1 263 2007)">symbols with the adjacent text.</text>
  <line style="fill:none;stroke:#00AEEF;stroke-width:0.5;opacity:1.0;" x1="776" x2="776" y1="1919" y2="1933"/>
  <g transform="matrix(0.2 0 0 0.2 776 1933)">
   <path d="m16.5527 0.78125c2.58789 0 3.85742-0.976562 4.78516-3.71094l6.29883-17.2363h28.8086l6.29883 17.2363c0.927734 2.73438 2.19727 3.71094 4.73633 3.71094 2.58789 0 4.24805-1.5625 4.24805-4.00391 0-0.830078-0.146484-1.61133-0.537109-2.63672l-22.9004-60.9863c-1.12305-2.97852-3.125-4.49219-6.25-4.49219-3.02734 0-5.07812 1.46484-6.15234 4.44336l-22.9004 61.084c-0.390625 1.02539-0.537109 1.80664-0.537109 2.63672 0 2.44141 1.5625 3.95508 4.10156 3.95508Zm13.4766-28.3691 11.8652-32.8613h0.244141l11.8652 32.8613Z"/>
  </g>
  <line style="fill:none;stroke:#00AEEF;stroke-width:0.5;opacity:1.0;" x1="792.836" x2="792.836" y1="1919" y2="1933"/>
  <text style="stroke:none;fill:black;font-family:sans-serif;font-size:13;font-weight:bold;" transform="matrix(1 0 0 1 776 1953)">Margins</text>
  <text style="stroke:none;fill:black;font-family:sans-serif;font-size:13;" transform="matrix(1 0 0 1 776 1971)">Leading and trailing margins on the left and right side of each symbol</text>
  <text style="stroke:none;fill:black;font-family:sans-serif;font-size:13;" transform="matrix(1 0 0 1 776 1989)">can be adjusted by modifying the x-location of the margin guidelines.</text>
  <text style="stroke:none;fill:black;font-family:sans-serif;font-size:13;" transform="matrix(1 0 0 1 776 2007)">Modifications are automatically applied proportionally to all</text>
  <text style="stroke:none;fill:black;font-family:sans-serif;font-size:13;" transform="matrix(1 0 0 1 776 2025)">scales and weights.</text>
  <g transform="matrix(0.2 0 0 0.2 1289 1933)">
   <path d="m14.209 9.32617 8.49609 8.54492c4.29688 4.3457 9.22852 4.05273 13.8672-1.07422l53.4668-58.9355-4.83398-4.88281-53.0762 58.3984c-1.75781 2.00195-3.41797 2.49023-5.76172 0.146484l-5.85938-5.81055c-2.34375-2.29492-1.80664-4.00391 0.195312-5.81055l57.373-54.0039-4.88281-4.83398-57.959 54.4434c-4.93164 4.58984-5.32227 9.47266-1.02539 13.8184Zm32.0801-90.9668c-2.09961 2.05078-2.24609 4.93164-1.07422 6.88477 1.17188 1.80664 3.4668 2.97852 6.68945 2.14844 7.32422-1.70898 14.9414-2.00195 22.0703 2.68555l-2.92969 7.27539c-1.70898 4.15039-0.830078 7.08008 1.85547 9.81445l11.4746 11.5723c2.44141 2.44141 4.49219 2.53906 7.32422 2.05078l5.32227-0.976562 3.32031 3.36914-0.195312 2.7832c-0.195312 2.49023 0.439453 4.39453 2.88086 6.78711l3.80859 3.71094c2.39258 2.39258 5.46875 2.53906 7.8125 0.195312l14.5508-14.5996c2.34375-2.34375 2.24609-5.32227-0.146484-7.71484l-3.85742-3.80859c-2.39258-2.39258-4.24805-3.17383-6.64062-2.97852l-2.88086 0.244141-3.22266-3.17383 1.2207-5.61523c0.634766-2.83203-0.146484-5.0293-3.07617-7.95898l-10.9863-10.9375c-16.6992-16.6016-38.8672-16.2109-53.3203-1.75781Zm7.4707 1.85547c12.1582-8.88672 28.6133-7.37305 39.7461 3.75977l12.1582 12.0605c1.17188 1.17188 1.36719 2.09961 1.02539 3.80859l-1.61133 7.42188 7.51953 7.42188 4.93164-0.292969c1.26953-0.0488281 1.66016 0.0488281 2.63672 1.02539l2.88086 2.88086-12.207 12.207-2.88086-2.88086c-0.976562-0.976562-1.12305-1.36719-1.07422-2.68555l0.341797-4.88281-7.4707-7.42188-7.61719 1.26953c-1.61133 0.341797-2.34375 0.195312-3.56445-0.976562l-10.0098-10.0098c-1.26953-1.17188-1.41602-2.00195-0.634766-3.85742l4.39453-10.4492c-7.8125-7.27539-17.9688-10.4004-28.125-7.42188-0.78125 0.195312-1.07422-0.439453-0.439453-0.976562Z"/>
  </g>
  <text style="stroke:none;fill:black;font-family:sans-serif;font-size:13;font-weight:bold;" transform="matrix(1 0 0 1 1289 1953)">Exporting</text>
  <text style="stroke:none;fill:black;font-family:sans-serif;font-size:13;" transform="matrix(1 0 0 1 1289 1971)">Symbols should be outlined when exporting to ensure the</text>
  <text style="stroke:none;fill:black;font-family:sans-serif;font-size:13;" transform="matrix(1 0 0 1 1289 1989)">design is preserved when submitting to Xcode.</text>
  <text id="template-version" style="stroke:none;fill:black;font-family:sans-serif;font-size:13;text-anchor:end;" transform="matrix(1 0 0 1 3036 1933)">Template v.6.0</text>
  <text style="stroke:none;fill:black;font-family:sans-serif;font-size:13;text-anchor:end;" transform="matrix(1 0 0 1 3036 1951)">Requires Xcode 16 or greater</text>
  <text id="descriptive-name" style="stroke:none;fill:black;font-family:sans-serif;font-size:13;text-anchor:end;" transform="matrix(1 0 0 1 3036 1969)">Generated from square</text>
  <text style="stroke:none;fill:black;font-family:sans-serif;font-size:13;text-anchor:end;" transform="matrix(1 0 0 1 3036 1987)">Typeset at 100.0 points</text>
  <text style="stroke:none;fill:black;font-family:sans-serif;font-size:13;" transform="matrix(1 0 0 1 263 726)">Small</text>
  <text style="stroke:none;fill:black;font-family:sans-serif;font-size:13;" transform="matrix(1 0 0 1 263 1156)">Medium</text>
  <text style="stroke:none;fill:black;font-family:sans-serif;font-size:13;" transform="matrix(1 0 0 1 263 1586)">Large</text>
 </g>
 <g id="Guides">
  <g id="H-reference" style="fill:#27AAE1;stroke:none;" transform="matrix(1 0 0 1 339 696)">
   <path d="M0.993654 0L3.63775 0L29.3281-67.1323L30.0303-67.1323L30.0303-70.459L28.1226-70.459ZM11.6885-24.4799L46.9815-24.4799L46.2315-26.7285L12.4385-26.7285ZM55.1196 0L57.7637 0L30.6382-70.459L29.4326-70.459L29.4326-67.1323Z"/>
  </g>
  <line id="Baseline-S" style="fill:none;stroke:#27AAE1;opacity:1;stroke-width:0.5;" x1="263" x2="3036" y1="696" y2="696"/>
  <line id="Capline-S" style="fill:none;stroke:#27AAE1;opacity:1;stroke-width:0.5;" x1="263" x2="3036" y1="625.541" y2="625.541"/>
  <g id="H-reference" style="fill:#27AAE1;stroke:none;" transform="matrix(1 0 0 1 339 1126)">
   <path d="M0.993654 0L3.63775 0L29.3281-67.1323L30.0303-67.1323L30.0303-70.459L28.1226-70.459ZM11.6885-24.4799L46.9815-24.4799L46.2315-26.7285L12.4385-26.7285ZM55.1196 0L57.7637 0L30.6382-70.459L29.4326-70.459L29.4326-67.1323Z"/>
  </g>
  <line id="Baseline-M" style="fill:none;stroke:#27AAE1;opacity:1;stroke-width:0.5;" x1="263" x2="3036" y1="1126" y2="1126"/>
  <line id="Capline-M" style="fill:none;stroke:#27AAE1;opacity:1;stroke-width:0.5;" x1="263" x2="3036" y1="1055.54" y2="1055.54"/>
  <g id="H-reference" style="fill:#27AAE1;stroke:none;" transform="matrix(1 0 0 1 339 1556)">
   <path d="M0.993654 0L3.63775 0L29.3281-67.1323L30.0303-67.1323L30.0303-70.459L28.1226-70.459ZM11.6885-24.4799L46.9815-24.4799L46.2315-26.7285L12.4385-26.7285ZM55.1196 0L57.7637 0L30.6382-70.459L29.4326-70.459L29.4326-67.1323Z"/>
  </g>
  <line id="Baseline-L" style="fill:none;stroke:#27AAE1;opacity:1;stroke-width:0.5;" x1="263" x2="3036" y1="1556" y2="1556"/>
  <line id="Capline-L" style="fill:none;stroke:#27AAE1;opacity:1;stroke-width:0.5;" x1="263" x2="3036" y1="1485.54" y2="1485.54"/>
  <line id="right-margin-Black-S" style="fill:none;stroke:#00AEEF;stroke-width:0.5;opacity:1.0;" x1="2981.3" x2="2981.3" y1="600.785" y2="720.121"/>
  <line id="left-margin-Black-S" style="fill:none;stroke:#00AEEF;stroke-width:0.5;opacity:1.0;" x1="2885.5" x2="2885.5" y1="600.785" y2="720.121"/>
  <line id="right-margin-Regular-S" style="fill:none;stroke:#00AEEF;stroke-width:0.5;opacity:1.0;" x1="1495.18" x2="1495.18" y1="600.785" y2="720.121"/>
  <line id="left-margin-Regular-S" style="fill:none;stroke:#00AEEF;stroke-width:0.5;opacity:1.0;" x1="1404.51" x2="1404.51" y1="600.785" y2="720.121"/>
  <line id="right-margin-Ultralight-S" style="fill:none;stroke:#00AEEF;stroke-width:0.5;opacity:1.0;" x1="603.073" x2="603.073" y1="600.785" y2="720.121"/>
  <line id="left-margin-Ultralight-S" style="fill:none;stroke:#00AEEF;stroke-width:0.5;opacity:1.0;" x1="516.35" x2="516.35" y1="600.785" y2="720.121"/>
 </g>
 <g id="Symbols">
  <g id="Black-S"><path d="M2932.32291,631.53528c-2.36625,0.25248 -3.93102,1.10679 -6.36479,3.47891c-1.16257,1.13028 -1.92294,1.77615 -2.29579,1.94937c-0.50496,0.22899 -0.82496,0.26129 -3.31744,0.33174c-2.33983,0.06459 -2.89469,0.1145 -3.64038,0.33174c-3.03561,0.88367 -5.57507,3.42607 -6.46461,6.46755c-0.21725,0.74276 -0.27009,1.30349 -0.33762,3.63745c-0.09982,3.49066 -0.02936,3.31157 -2.21359,5.55452c-2.18129,2.23707 -2.68918,3.00919 -3.25579,4.96442c-0.76037,2.62753 -0.33174,5.37543 1.20367,7.71819c0.28771,0.43743 1.22422,1.52074 2.08148,2.40735c0.85432,0.88367 1.67927,1.84661 1.829,2.13726c0.25835,0.49321 0.28184,0.71046 0.35817,3.3468c0.08514,2.81249 0.13211,3.16772 0.62826,4.52112c0.7222,1.98459 2.70093,4.07488 4.7736,5.04662c1.42679,0.66642 2.36625,0.82789 5.3314,0.92477c2.28111,0.07633 2.76552,0.1233 3.11194,0.30532c0.22606,0.11743 1.1567,0.93652 2.0668,1.82019c0.91303,0.88367 1.96992,1.81138 2.34863,2.06386c2.60698,1.73212 5.86571,2.05799 8.79563,0.88661c1.33578,-0.53725 2.05212,-1.06276 3.89286,-2.85359c2.25469,-2.19891 2.16368,-2.16368 5.50167,-2.24294c2.08148,-0.04991 2.76552,-0.10862 3.52295,-0.30239c3.23231,-0.83376 5.9303,-3.53176 6.76406,-6.76406c0.19376,-0.75743 0.25248,-1.44147 0.30239,-3.52295c0.07927,-3.33799 0.04404,-3.24698 2.24294,-5.50167c1.79083,-1.84074 2.31634,-2.55707 2.85359,-3.89286c1.17138,-2.92992 0.84551,-6.18865 -0.88661,-8.79563c-0.25248,-0.37872 -1.18019,-1.4356 -2.06386,-2.34863c-0.88367,-0.9101 -1.70276,-1.84074 -1.82019,-2.0668c-0.18202,-0.34642 -0.22899,-0.83083 -0.30532,-3.11194c-0.09688,-2.96515 -0.25835,-3.9046 -0.92477,-5.3314c-0.96881,-2.06973 -2.83304,-3.84589 -4.95562,-4.72075c-1.25065,-0.51376 -2.50717,-0.69285 -4.89984,-0.69285c-2.9446,0 -2.93579,0.00294 -4.86461,-1.86129c-2.38093,-2.30753 -3.31744,-2.95047 -5.1347,-3.53176c-0.60771,-0.19376 -2.68331,-0.52257 -2.92405,-0.46092c-0.03229,0.00587 -0.45505,0.05578 -0.93945,0.10862M2934.03448,637.40686c0.38165,0.07046 0.88074,0.24073 1.10679,0.37578c0.22606,0.13798 1.15083,0.96588 2.05505,1.84368c1.74386,1.69395 2.61579,2.34276 3.75781,2.80662c1.38569,0.56074 1.77909,0.61945 4.69727,0.70753c3.1501,0.09395 3.37322,0.14679 4.32442,1.05101c0.88367,0.83964 0.93652,1.04221 1.03633,4.06901c0.09395,2.95634 0.25835,3.9046 0.91597,5.31085c0.54019,1.15377 0.9923,1.73799 2.71267,3.5024c1.97285,2.02276 2.16074,2.34276 2.16368,3.69323c0.00294,0.75743 -0.05284,1.11266 -0.22606,1.4679c-0.12917,0.25835 -0.93065,1.19487 -1.78496,2.08148c-3.20588,3.32919 -3.64038,4.35378 -3.77836,8.9571l-0.07927,2.70093l-0.36404,0.64587c-0.41101,0.73101 -1.23303,1.41799 -1.96698,1.64991c-0.29945,0.09101 -1.53542,0.18202 -3.18827,0.23486c-2.92111,0.08807 -3.44368,0.17615 -4.80295,0.81909c-1.10092,0.51964 -1.94937,1.18312 -3.80185,2.96808c-1.37395,1.32698 -1.73212,1.61175 -2.25469,1.78496c-0.81615,0.27009 -1.97579,0.1967 -2.70386,-0.17321c-0.29651,-0.14973 -1.25358,-0.97762 -2.17249,-1.87597c-2.11964,-2.07267 -2.90056,-2.60111 -4.69727,-3.17946c-0.71633,-0.22899 -1.18606,-0.27303 -3.64038,-0.34349c-2.55414,-0.07633 -2.87414,-0.10862 -3.40552,-0.34349c-0.73982,-0.32881 -1.40037,-0.96 -1.79377,-1.71744c-0.29651,-0.56954 -0.31119,-0.67523 -0.39046,-3.40552c-0.08807,-2.91818 -0.14679,-3.31157 -0.70753,-4.69727c-0.46385,-1.14202 -1.11266,-2.01395 -2.80662,-3.75781c-0.8778,-0.90422 -1.70569,-1.829 -1.84368,-2.05505c-0.51376,-0.85725 -0.55486,-2.38093 -0.08514,-3.3057c0.10862,-0.21725 0.84257,-1.05395 1.62936,-1.86129c1.72918,-1.77322 2.3134,-2.50129 2.83597,-3.53763c0.76331,-1.5178 0.89248,-2.20771 0.98055,-5.26974c0.08807,-3.13542 0.1644,-3.44368 1.06569,-4.34497c0.90129,-0.90129 1.20955,-0.97762 4.34497,-1.06569c3.06203,-0.08807 3.75194,-0.21725 5.26974,-0.98055c1.03633,-0.52257 1.76441,-1.10679 3.53763,-2.83597c1.55597,-1.51487 1.94349,-1.78203 2.80662,-1.92588c0.29651,-0.05284 0.54312,-0.09982 0.54899,-0.10569c0.00294,-0.00881 0.32,0.04404 0.70459,0.11156M2928.90859,646.3023c-2.56882,0.6723 -4.48882,3.25873 -4.30681,5.80406c0.12917,1.7967 1.63817,3.00625 3.4202,2.73909c1.11266,-0.16734 2.20478,-1.25945 2.37212,-2.37212l0.07633,-0.51376h2.92405h2.92111v2.93579v2.93579h-3.09432c-3.37322,0 -3.8224,0.06459 -4.59158,0.64881c-0.23486,0.17908 -0.57248,0.56954 -0.74569,0.86606c-0.26716,0.45798 -0.31707,0.67523 -0.31707,1.42092c0,0.75156 0.04697,0.96294 0.32587,1.4356c0.17908,0.30239 0.50789,0.69285 0.73395,0.86312c0.76918,0.58716 1.04808,0.62532 4.48882,0.6312l3.20001,0.00587v2.93579v2.93579h-2.92111h-2.92111l-0.07927,-0.49908c-0.33468,-2.09322 -2.90056,-3.109 -4.63268,-1.83487c-1.35046,0.99523 -1.56184,3.02386 -0.52844,5.0613c0.39927,0.79266 1.68808,2.08148 2.48074,2.48368c1.20074,0.60771 1.64991,0.66055 5.66608,0.66055c4.01616,0 4.46534,-0.05284 5.66608,-0.66055c0.78092,-0.39633 2.07854,-1.68808 2.469,-2.46019c0.64,-1.25945 0.68991,-1.72625 0.64881,-5.96553c-0.03523,-3.76075 -0.04697,-3.91341 -0.31413,-4.59451c-0.34349,-0.88074 -0.34349,-1.11854 0,-1.99634c0.27009,-0.6811 0.2789,-0.82789 0.31413,-4.5358c0.03817,-4.16882 -0.02642,-4.80002 -0.61652,-5.96553c-0.67817,-1.33578 -2.2312,-2.5835 -3.69616,-2.96515c-1.14202,-0.29651 -7.8004,-0.29651 -8.94242,0" className="SFSymbolsPreviewWireframe"/></g>
  <g id="Regular-S"><path d="M1448.76786,631.53528c-2.36625,0.25248 -3.93102,1.10679 -6.36479,3.47891c-1.16257,1.13028 -1.92294,1.77615 -2.29579,1.94937c-0.50496,0.22899 -0.82496,0.26129 -3.31744,0.33174c-2.33983,0.06459 -2.89469,0.1145 -3.64038,0.33174c-3.03561,0.88367 -5.57507,3.42607 -6.46461,6.46755c-0.21725,0.74276 -0.27009,1.30349 -0.33762,3.63745c-0.09982,3.49066 -0.02936,3.31157 -2.21359,5.55452c-2.18129,2.23707 -2.68918,3.00919 -3.25579,4.96442c-0.76037,2.62753 -0.33174,5.37543 1.20367,7.71819c0.28771,0.43743 1.22422,1.52074 2.08148,2.40735c0.85432,0.88367 1.67927,1.84661 1.829,2.13726c0.25835,0.49321 0.28184,0.71046 0.35817,3.3468c0.08514,2.81249 0.13211,3.16772 0.62826,4.52112c0.7222,1.98459 2.70093,4.07488 4.7736,5.04662c1.42679,0.66642 2.36625,0.82789 5.3314,0.92477c2.28111,0.07633 2.76552,0.1233 3.11194,0.30532c0.22606,0.11743 1.1567,0.93652 2.0668,1.82019c0.91303,0.88367 1.96992,1.81138 2.34863,2.06386c2.60698,1.73212 5.86571,2.05799 8.79563,0.88661c1.33578,-0.53725 2.05212,-1.06276 3.89286,-2.85359c2.25469,-2.19891 2.16368,-2.16368 5.50167,-2.24294c2.08148,-0.04991 2.76552,-0.10862 3.52295,-0.30239c3.23231,-0.83376 5.9303,-3.53176 6.76406,-6.76406c0.19376,-0.75743 0.25248,-1.44147 0.30239,-3.52295c0.07927,-3.33799 0.04404,-3.24698 2.24294,-5.50167c1.79083,-1.84074 2.31634,-2.55707 2.85359,-3.89286c1.17138,-2.92992 0.84551,-6.18865 -0.88661,-8.79563c-0.25248,-0.37872 -1.18019,-1.4356 -2.06386,-2.34863c-0.88367,-0.9101 -1.70276,-1.84074 -1.82019,-2.0668c-0.18202,-0.34642 -0.22899,-0.83083 -0.30532,-3.11194c-0.09688,-2.96515 -0.25835,-3.9046 -0.92477,-5.3314c-0.96881,-2.06973 -2.83304,-3.84589 -4.95562,-4.72075c-1.25065,-0.51376 -2.50717,-0.69285 -4.89984,-0.69285c-2.9446,0 -2.93579,0.00294 -4.86461,-1.86129c-2.38093,-2.30753 -3.31744,-2.95047 -5.1347,-3.53176c-0.60771,-0.19376 -2.68331,-0.52257 -2.92405,-0.46092c-0.03229,0.00587 -0.45505,0.05578 -0.93945,0.10862M1450.47943,637.40686c0.38165,0.07046 0.88074,0.24073 1.10679,0.37578c0.22606,0.13798 1.15083,0.96588 2.05505,1.84368c1.74386,1.69395 2.61579,2.34276 3.75781,2.80662c1.38569,0.56074 1.77909,0.61945 4.69727,0.70753c3.1501,0.09395 3.37322,0.14679 4.32442,1.05101c0.88367,0.83964 0.93652,1.04221 1.03633,4.06901c0.09395,2.95634 0.25835,3.9046 0.91597,5.31085c0.54019,1.15377 0.9923,1.73799 2.71267,3.5024c1.97285,2.02276 2.16074,2.34276 2.16368,3.69323c0.00294,0.75743 -0.05284,1.11266 -0.22606,1.4679c-0.12917,0.25835 -0.93065,1.19487 -1.78496,2.08148c-3.20588,3.32919 -3.64038,4.35378 -3.77836,8.9571l-0.07927,2.70093l-0.36404,0.64587c-0.41101,0.73101 -1.23303,1.41799 -1.96698,1.64991c-0.29945,0.09101 -1.53542,0.18202 -3.18827,0.23486c-2.92111,0.08807 -3.44368,0.17615 -4.80295,0.81909c-1.10092,0.51964 -1.94937,1.18312 -3.80185,2.96808c-1.37395,1.32698 -1.73212,1.61175 -2.25469,1.78496c-0.81615,0.27009 -1.97579,0.1967 -2.70386,-0.17321c-0.29651,-0.14973 -1.25358,-0.97762 -2.17249,-1.87597c-2.11964,-2.07267 -2.90056,-2.60111 -4.69727,-3.17946c-0.71633,-0.22899 -1.18606,-0.27303 -3.64038,-0.34349c-2.55414,-0.07633 -2.87414,-0.10862 -3.40552,-0.34349c-0.73982,-0.32881 -1.40037,-0.96 -1.79377,-1.71744c-0.29651,-0.56954 -0.31119,-0.67523 -0.39046,-3.40552c-0.08807,-2.91818 -0.14679,-3.31157 -0.70753,-4.69727c-0.46385,-1.14202 -1.11266,-2.01395 -2.80662,-3.75781c-0.8778,-0.90422 -1.70569,-1.829 -1.84368,-2.05505c-0.51376,-0.85725 -0.55486,-2.38093 -0.08514,-3.3057c0.10862,-0.21725 0.84257,-1.05395 1.62936,-1.86129c1.72918,-1.77322 2.3134,-2.50129 2.83597,-3.53763c0.76331,-1.5178 0.89248,-2.20771 0.98055,-5.26974c0.08807,-3.13542 0.1644,-3.44368 1.06569,-4.34497c0.90129,-0.90129 1.20955,-0.97762 4.34497,-1.06569c3.06203,-0.08807 3.75194,-0.21725 5.26974,-0.98055c1.03633,-0.52257 1.76441,-1.10679 3.53763,-2.83597c1.55597,-1.51487 1.94349,-1.78203 2.80662,-1.92588c0.29651,-0.05284 0.54312,-0.09982 0.54899,-0.10569c0.00294,-0.00881 0.32,0.04404 0.70459,0.11156M1445.35354,646.3023c-2.56882,0.6723 -4.48882,3.25873 -4.30681,5.80406c0.12917,1.7967 1.63817,3.00625 3.4202,2.73909c1.11266,-0.16734 2.20478,-1.25945 2.37212,-2.37212l0.07633,-0.51376h2.92405h2.92111v2.93579v2.93579h-3.09432c-3.37322,0 -3.8224,0.06459 -4.59158,0.64881c-0.23486,0.17908 -0.57248,0.56954 -0.74569,0.86606c-0.26716,0.45798 -0.31707,0.67523 -0.31707,1.42092c0,0.75156 0.04697,0.96294 0.32587,1.4356c0.17908,0.30239 0.50789,0.69285 0.73395,0.86312c0.76918,0.58716 1.04808,0.62532 4.48882,0.6312l3.20001,0.00587v2.93579v2.93579h-2.92111h-2.92111l-0.07927,-0.49908c-0.33468,-2.09322 -2.90056,-3.109 -4.63268,-1.83487c-1.35046,0.99523 -1.56184,3.02386 -0.52844,5.0613c0.39927,0.79266 1.68808,2.08148 2.48074,2.48368c1.20074,0.60771 1.64991,0.66055 5.66608,0.66055c4.01616,0 4.46534,-0.05284 5.66608,-0.66055c0.78092,-0.39633 2.07854,-1.68808 2.469,-2.46019c0.64,-1.25945 0.68991,-1.72625 0.64881,-5.96553c-0.03523,-3.76075 -0.04697,-3.91341 -0.31413,-4.59451c-0.34349,-0.88074 -0.34349,-1.11854 0,-1.99634c0.27009,-0.6811 0.2789,-0.82789 0.31413,-4.5358c0.03817,-4.16882 -0.02642,-4.80002 -0.61652,-5.96553c-0.67817,-1.33578 -2.2312,-2.5835 -3.69616,-2.96515c-1.14202,-0.29651 -7.8004,-0.29651 -8.94242,0" className="SFSymbolsPreviewWireframe"/></g>
  <g id="Ultralight-S"><path d="M558.63427,631.53528c-2.36625,0.25248 -3.93102,1.10679 -6.36479,3.47891c-1.16257,1.13028 -1.92294,1.77615 -2.29579,1.94937c-0.50496,0.22899 -0.82496,0.26129 -3.31744,0.33174c-2.33983,0.06459 -2.89469,0.1145 -3.64038,0.33174c-3.03561,0.88367 -5.57507,3.42607 -6.46461,6.46755c-0.21725,0.74276 -0.27009,1.30349 -0.33762,3.63745c-0.09982,3.49066 -0.02936,3.31157 -2.21359,5.55452c-2.18129,2.23707 -2.68918,3.00919 -3.25579,4.96442c-0.76037,2.62753 -0.33174,5.37543 1.20367,7.71819c0.28771,0.43743 1.22422,1.52074 2.08148,2.40735c0.85432,0.88367 1.67927,1.84661 1.829,2.13726c0.25835,0.49321 0.28184,0.71046 0.35817,3.3468c0.08514,2.81249 0.13211,3.16772 0.62826,4.52112c0.7222,1.98459 2.70093,4.07488 4.7736,5.04662c1.42679,0.66642 2.36625,0.82789 5.3314,0.92477c2.28111,0.07633 2.76552,0.1233 3.11194,0.30532c0.22606,0.11743 1.1567,0.93652 2.0668,1.82019c0.91303,0.88367 1.96992,1.81138 2.34863,2.06386c2.60698,1.73212 5.86571,2.05799 8.79563,0.88661c1.33578,-0.53725 2.05212,-1.06276 3.89286,-2.85359c2.25469,-2.19891 2.16368,-2.16368 5.50167,-2.24294c2.08148,-0.04991 2.76552,-0.10862 3.52295,-0.30239c3.23231,-0.83376 5.9303,-3.53176 6.76406,-6.76406c0.19376,-0.75743 0.25248,-1.44147 0.30239,-3.52295c0.07927,-3.33799 0.04404,-3.24698 2.24294,-5.50167c1.79083,-1.84074 2.31634,-2.55707 2.85359,-3.89286c1.17138,-2.92992 0.84551,-6.18865 -0.88661,-8.79563c-0.25248,-0.37872 -1.18019,-1.4356 -2.06386,-2.34863c-0.88367,-0.9101 -1.70276,-1.84074 -1.82019,-2.0668c-0.18202,-0.34642 -0.22899,-0.83083 -0.30532,-3.11194c-0.09688,-2.96515 -0.25835,-3.9046 -0.92477,-5.3314c-0.96881,-2.06973 -2.83304,-3.84589 -4.95562,-4.72075c-1.25065,-0.51376 -2.50717,-0.69285 -4.89984,-0.69285c-2.9446,0 -2.93579,0.00294 -4.86461,-1.86129c-2.38093,-2.30753 -3.31744,-2.95047 -5.1347,-3.53176c-0.60771,-0.19376 -2.68331,-0.52257 -2.92405,-0.46092c-0.03229,0.00587 -0.45505,0.05578 -0.93945,0.10862M560.34584,637.40686c0.38165,0.07046 0.88074,0.24073 1.10679,0.37578c0.22606,0.13798 1.15083,0.96588 2.05505,1.84368c1.74386,1.69395 2.61579,2.34276 3.75781,2.80662c1.38569,0.56074 1.77909,0.61945 4.69727,0.70753c3.1501,0.09395 3.37322,0.14679 4.32442,1.05101c0.88367,0.83964 0.93652,1.04221 1.03633,4.06901c0.09395,2.95634 0.25835,3.9046 0.91597,5.31085c0.54019,1.15377 0.9923,1.73799 2.71267,3.5024c1.97285,2.02276 2.16074,2.34276 2.16368,3.69323c0.00294,0.75743 -0.05284,1.11266 -0.22606,1.4679c-0.12917,0.25835 -0.93065,1.19487 -1.78496,2.08148c-3.20588,3.32919 -3.64038,4.35378 -3.77836,8.9571l-0.07927,2.70093l-0.36404,0.64587c-0.41101,0.73101 -1.23303,1.41799 -1.96698,1.64991c-0.29945,0.09101 -1.53542,0.18202 -3.18827,0.23486c-2.92111,0.08807 -3.44368,0.17615 -4.80295,0.81909c-1.10092,0.51964 -1.94937,1.18312 -3.80185,2.96808c-1.37395,1.32698 -1.73212,1.61175 -2.25469,1.78496c-0.81615,0.27009 -1.97579,0.1967 -2.70386,-0.17321c-0.29651,-0.14973 -1.25358,-0.97762 -2.17249,-1.87597c-2.11964,-2.07267 -2.90056,-2.60111 -4.69727,-3.17946c-0.71633,-0.22899 -1.18606,-0.27303 -3.64038,-0.34349c-2.55414,-0.07633 -2.87414,-0.10862 -3.40552,-0.34349c-0.73982,-0.32881 -1.40037,-0.96 -1.79377,-1.71744c-0.29651,-0.56954 -0.31119,-0.67523 -0.39046,-3.40552c-0.08807,-2.91818 -0.14679,-3.31157 -0.70753,-4.69727c-0.46385,-1.14202 -1.11266,-2.01395 -2.80662,-3.75781c-0.8778,-0.90422 -1.70569,-1.829 -1.84368,-2.05505c-0.51376,-0.85725 -0.55486,-2.38093 -0.08514,-3.3057c0.10862,-0.21725 0.84257,-1.05395 1.62936,-1.86129c1.72918,-1.77322 2.3134,-2.50129 2.83597,-3.53763c0.76331,-1.5178 0.89248,-2.20771 0.98055,-5.26974c0.08807,-3.13542 0.1644,-3.44368 1.06569,-4.34497c0.90129,-0.90129 1.20955,-0.97762 4.34497,-1.06569c3.06203,-0.08807 3.75194,-0.21725 5.26974,-0.98055c1.03633,-0.52257 1.76441,-1.10679 3.53763,-2.83597c1.55597,-1.51487 1.94349,-1.78203 2.80662,-1.92588c0.29651,-0.05284 0.54312,-0.09982 0.54899,-0.10569c0.00294,-0.00881 0.32,0.04404 0.70459,0.11156M555.21995,646.3023c-2.56882,0.6723 -4.48882,3.25873 -4.30681,5.80406c0.12917,1.7967 1.63817,3.00625 3.4202,2.73909c1.11266,-0.16734 2.20478,-1.25945 2.37212,-2.37212l0.07633,-0.51376h2.92405h2.92111v2.93579v2.93579h-3.09432c-3.37322,0 -3.8224,0.06459 -4.59158,0.64881c-0.23486,0.17908 -0.57248,0.56954 -0.74569,0.86606c-0.26716,0.45798 -0.31707,0.67523 -0.31707,1.42092c0,0.75156 0.04697,0.96294 0.32587,1.4356c0.17908,0.30239 0.50789,0.69285 0.73395,0.86312c0.76918,0.58716 1.04808,0.62532 4.48882,0.6312l3.20001,0.00587v2.93579v2.93579h-2.92111h-2.92111l-0.07927,-0.49908c-0.33468,-2.09322 -2.90056,-3.109 -4.63268,-1.83487c-1.35046,0.99523 -1.56184,3.02386 -0.52844,5.0613c0.39927,0.79266 1.68808,2.08148 2.48074,2.48368c1.20074,0.60771 1.64991,0.66055 5.66608,0.66055c4.01616,0 4.46534,-0.05284 5.66608,-0.66055c0.78092,-0.39633 2.07854,-1.68808 2.469,-2.46019c0.64,-1.25945 0.68991,-1.72625 0.64881,-5.96553c-0.03523,-3.76075 -0.04697,-3.91341 -0.31413,-4.59451c-0.34349,-0.88074 -0.34349,-1.11854 0,-1.99634c0.27009,-0.6811 0.2789,-0.82789 0.31413,-4.5358c0.03817,-4.16882 -0.02642,-4.80002 -0.61652,-5.96553c-0.67817,-1.33578 -2.2312,-2.5835 -3.69616,-2.96515c-1.14202,-0.29651 -7.8004,-0.29651 -8.94242,0" className="SFSymbolsPreviewWireframe"/></g>
 </g>
</svg>