<?xml version="1.0" encoding="UTF-8"?><!--Generator: https://SymbolKit.app--><!DOCTYPE svg PUBLIC "-//W3C//DTD SVG 1.1//EN" "http://www.w3.org/Graphics/SVG/1.1/DTD/svg11.dtd"><svg xmlns="http://www.w3.org/2000/svg" xmlns:xlink="http://www.w3.org/1999/xlink" version="1.1" viewBox="0 0 3300 2200">
 <!--glyph: "100092", point size: 100.0, font version: "20.0d10e1", template writer version: "138.0.0"-->
 <style>.SFSymbolsPreviewWireframe {fill:none;opacity:1.0;stroke:black;stroke-width:0.5}
</style>
 <g id="Notes">
  <rect height="2200" id="artboard" style="fill:white;opacity:1" width="3300" x="0" y="0"/>
  <line style="fill:none;stroke:black;opacity:1;stroke-width:0.5;" x1="263" x2="3036" y1="292" y2="292"/>
  <text style="stroke:none;fill:black;font-family:sans-serif;font-size:13;font-weight:bold;" transform="matrix(1 0 0 1 263 322)">Weight/Scale Variations</text>
  <text style="stroke:none;fill:black;font-family:sans-serif;font-size:13;text-anchor:middle;" transform="matrix(1 0 0 1 559.711 322)">Ultralight</text>
  <text style="stroke:none;fill:black;font-family:sans-serif;font-size:13;text-anchor:middle;" transform="matrix(1 0 0 1 856.422 322)">Thin</text>
  <text style="stroke:none;fill:black;font-family:sans-serif;font-size:13;text-anchor:middle;" transform="matrix(1 0 0 1 1153.13 322)">Light</text>
  <text style="stroke:none;fill:black;font-family:sans-serif;font-size:13;text-anchor:middle;" transform="matrix(1 0 0 1 1449.84 322)">Regular</text>
  <text style="stroke:none;fill:black;font-family:sans-serif;font-size:13;text-anchor:middle;" transform="matrix(1 0 0 1 1746.56 322)">Medium</text>
  <text style="stroke:none;fill:black;font-family:sans-serif;font-size:13;text-anchor:middle;" transform="matrix(1 0 0 1 2043.27 322)">Semibold</text>
  <text style="stroke:none;fill:black;font-family:sans-serif;font-size:13;text-anchor:middle;" transform="matrix(1 0 0 1 2339.98 322)">Bold</text>
  <text style="stroke:none;fill:black;font-family:sans-serif;font-size:13;text-anchor:middle;" transform="matrix(1 0 0 1 2636.69 322)">Heavy</text>
  <text style="stroke:none;fill:black;font-family:sans-serif;font-size:13;text-anchor:middle;" transform="matrix(1 0 0 1 2933.4 322)">Black</text>
  <line style="fill:none;stroke:black;opacity:1;stroke-width:0.5;" x1="263" x2="3036" y1="1903" y2="1903"/>
  <g transform="matrix(0.2 0 0 0.2 263 1933)">
   <path d="m46.2402 4.15039c21.7773 0 39.4531-17.627 39.4531-39.4043s-17.6758-39.4043-39.4531-39.4043c-21.7285 0-39.4043 17.627-39.4043 39.4043s17.6758 39.4043 39.4043 39.4043Zm0-7.42188c-17.6758 0-31.9336-14.3066-31.9336-31.9824s14.2578-31.9824 31.9336-31.9824 31.9824 14.3066 31.9824 31.9824-14.3066 31.9824-31.9824 31.9824Zm-17.9688-31.9824c0 2.14844 1.51367 3.61328 3.75977 3.61328h10.498v10.5957c0 2.19727 1.46484 3.71094 3.61328 3.71094 2.24609 0 3.71094-1.51367 3.71094-3.71094v-10.5957h10.5957c2.19727 0 3.71094-1.46484 3.71094-3.61328 0-2.19727-1.51367-3.71094-3.71094-3.71094h-10.5957v-10.5469c0-2.24609-1.46484-3.75977-3.71094-3.75977-2.14844 0-3.61328 1.51367-3.61328 3.75977v10.5469h-10.498c-2.24609 0-3.75977 1.51367-3.75977 3.71094Z"/>
  </g>
  <g transform="matrix(0.2 0 0 0.2 281.506 1933)">
   <path d="m58.5449 14.5508c27.4902 0 49.8047-22.3145 49.8047-49.8047s-22.3145-49.8047-49.8047-49.8047-49.8047 22.3145-49.8047 49.8047 22.3145 49.8047 49.8047 49.8047Zm0-8.30078c-22.9492 0-41.5039-18.5547-41.5039-41.5039s18.5547-41.5039 41.5039-41.5039 41.5039 18.5547 41.5039 41.5039-18.5547 41.5039-41.5039 41.5039Zm-22.6562-41.5039c0 2.39258 1.66016 4.00391 4.15039 4.00391h14.3555v14.4043c0 2.44141 1.66016 4.15039 4.05273 4.15039 2.44141 0 4.15039-1.66016 4.15039-4.15039v-14.4043h14.4043c2.44141 0 4.15039-1.61133 4.15039-4.00391 0-2.44141-1.70898-4.15039-4.15039-4.15039h-14.4043v-14.3555c0-2.49023-1.70898-4.19922-4.15039-4.19922-2.39258 0-4.05273 1.70898-4.05273 4.19922v14.3555h-14.3555c-2.49023 0-4.15039 1.70898-4.15039 4.15039Z"/>
  </g>
  <g transform="matrix(0.2 0 0 0.2 304.924 1933)">
   <path d="m74.8535 28.3203c35.1074 0 63.623-28.4668 63.623-63.5742s-28.5156-63.623-63.623-63.623-63.5742 28.5156-63.5742 63.623 28.4668 63.5742 63.5742 63.5742Zm0-9.08203c-30.127 0-54.4922-24.3652-54.4922-54.4922s24.3652-54.4922 54.4922-54.4922 54.4922 24.3652 54.4922 54.4922-24.3652 54.4922-54.4922 54.4922Zm-28.8574-54.4922c0 2.58789 1.85547 4.39453 4.58984 4.39453h19.7266v19.7754c0 2.68555 1.85547 4.58984 4.44336 4.58984 2.68555 0 4.54102-1.85547 4.54102-4.58984v-19.7754h19.7754c2.68555 0 4.58984-1.80664 4.58984-4.39453 0-2.73438-1.85547-4.58984-4.58984-4.58984h-19.7754v-19.7266c0-2.73438-1.85547-4.63867-4.54102-4.63867-2.58789 0-4.44336 1.9043-4.44336 4.63867v19.7266h-19.7266c-2.73438 0-4.58984 1.85547-4.58984 4.58984Z"/>
  </g>
  <text style="stroke:none;fill:black;font-family:sans-serif;font-size:13;font-weight:bold;" transform="matrix(1 0 0 1 263 1953)">Design Variations</text>
  <text style="stroke:none;fill:black;font-family:sans-serif;font-size:13;" transform="matrix(1 0 0 1 263 1971)">Symbols are supported in up to nine weights and three scales.</text>
  <text style="stroke:none;fill:black;font-family:sans-serif;font-size:13;" transform="matrix(1 0 0 1 263 1989)">For optimal layout with text and other symbols, vertically align</text>
  <text style="stroke:none;fill:black;font-family:sans-serif;font-size:13;" transform="matrix(1 0 0 1 263 2007)">symbols with the adjacent text.</text>
  <line style="fill:none;stroke:#00AEEF;stroke-width:0.5;opacity:1.0;" x1="776" x2="776" y1="1919" y2="1933"/>
  <g transform="matrix(0.2 0 0 0.2 776 1933)">
   <path d="m16.5527 0.78125c2.58789 0 3.85742-0.976562 4.78516-3.71094l6.29883-17.2363h28.8086l6.29883 17.2363c0.927734 2.73438 2.19727 3.71094 4.73633 3.71094 2.58789 0 4.24805-1.5625 4.24805-4.00391 0-0.830078-0.146484-1.61133-0.537109-2.63672l-22.9004-60.9863c-1.12305-2.97852-3.125-4.49219-6.25-4.49219-3.02734 0-5.07812 1.46484-6.15234 4.44336l-22.9004 61.084c-0.390625 1.02539-0.537109 1.80664-0.537109 2.63672 0 2.44141 1.5625 3.95508 4.10156 3.95508Zm13.4766-28.3691 11.8652-32.8613h0.244141l11.8652 32.8613Z"/>
  </g>
  <line style="fill:none;stroke:#00AEEF;stroke-width:0.5;opacity:1.0;" x1="792.836" x2="792.836" y1="1919" y2="1933"/>
  <text style="stroke:none;fill:black;font-family:sans-serif;font-size:13;font-weight:bold;" transform="matrix(1 0 0 1 776 1953)">Margins</text>
  <text style="stroke:none;fill:black;font-family:sans-serif;font-size:13;" transform="matrix(1 0 0 1 776 1971)">Leading and trailing margins on the left and right side of each symbol</text>
  <text style="stroke:none;fill:black;font-family:sans-serif;font-size:13;" transform="matrix(1 0 0 1 776 1989)">can be adjusted by modifying the x-location of the margin guidelines.</text>
  <text style="stroke:none;fill:black;font-family:sans-serif;font-size:13;" transform="matrix(1 0 0 1 776 2007)">Modifications are automatically applied proportionally to all</text>
  <text style="stroke:none;fill:black;font-family:sans-serif;font-size:13;" transform="matrix(1 0 0 1 776 2025)">scales and weights.</text>
  <g transform="matrix(0.2 0 0 0.2 1289 1933)">
   <path d="m14.209 9.32617 8.49609 8.54492c4.29688 4.3457 9.22852 4.05273 13.8672-1.07422l53.4668-58.9355-4.83398-4.88281-53.0762 58.3984c-1.75781 2.00195-3.41797 2.49023-5.76172 0.146484l-5.85938-5.81055c-2.34375-2.29492-1.80664-4.00391 0.195312-5.81055l57.373-54.0039-4.88281-4.83398-57.959 54.4434c-4.93164 4.58984-5.32227 9.47266-1.02539 13.8184Zm32.0801-90.9668c-2.09961 2.05078-2.24609 4.93164-1.07422 6.88477 1.17188 1.80664 3.4668 2.97852 6.68945 2.14844 7.32422-1.70898 14.9414-2.00195 22.0703 2.68555l-2.92969 7.27539c-1.70898 4.15039-0.830078 7.08008 1.85547 9.81445l11.4746 11.5723c2.44141 2.44141 4.49219 2.53906 7.32422 2.05078l5.32227-0.976562 3.32031 3.36914-0.195312 2.7832c-0.195312 2.49023 0.439453 4.39453 2.88086 6.78711l3.80859 3.71094c2.39258 2.39258 5.46875 2.53906 7.8125 0.195312l14.5508-14.5996c2.34375-2.34375 2.24609-5.32227-0.146484-7.71484l-3.85742-3.80859c-2.39258-2.39258-4.24805-3.17383-6.64062-2.97852l-2.88086 0.244141-3.22266-3.17383 1.2207-5.61523c0.634766-2.83203-0.146484-5.0293-3.07617-7.95898l-10.9863-10.9375c-16.6992-16.6016-38.8672-16.2109-53.3203-1.75781Zm7.4707 1.85547c12.1582-8.88672 28.6133-7.37305 39.7461 3.75977l12.1582 12.0605c1.17188 1.17188 1.36719 2.09961 1.02539 3.80859l-1.61133 7.42188 7.51953 7.42188 4.93164-0.292969c1.26953-0.0488281 1.66016 0.0488281 2.63672 1.02539l2.88086 2.88086-12.207 12.207-2.88086-2.88086c-0.976562-0.976562-1.12305-1.36719-1.07422-2.68555l0.341797-4.88281-7.4707-7.42188-7.61719 1.26953c-1.61133 0.341797-2.34375 0.195312-3.56445-0.976562l-10.0098-10.0098c-1.26953-1.17188-1.41602-2.00195-0.634766-3.85742l4.39453-10.4492c-7.8125-7.27539-17.9688-10.4004-28.125-7.42188-0.78125 0.195312-1.07422-0.439453-0.439453-0.976562Z"/>
  </g>
  <text style="stroke:none;fill:black;font-family:sans-serif;font-size:13;font-weight:bold;" transform="matrix(1 0 0 1 1289 1953)">Exporting</text>
  <text style="stroke:none;fill:black;font-family:sans-serif;font-size:13;" transform="matrix(1 0 0 1 1289 1971)">Symbols should be outlined when exporting to ensure the</text>
  <text style="stroke:none;fill:black;font-family:sans-serif;font-size:13;" transform="matrix(1 0 0 1 1289 1989)">design is preserved when submitting to Xcode.</text>
  <text id="template-version" style="stroke:none;fill:black;font-family:sans-serif;font-size:13;text-anchor:end;" transform="matrix(1 0 0 1 3036 1933)">Template v.6.0</text>
  <text style="stroke:none;fill:black;font-family:sans-serif;font-size:13;text-anchor:end;" transform="matrix(1 0 0 1 3036 1951)">Requires Xcode 16 or greater</text>
  <text id="descriptive-name" style="stroke:none;fill:black;font-family:sans-serif;font-size:13;text-anchor:end;" transform="matrix(1 0 0 1 3036 1969)">Generated from square</text>
  <text style="stroke:none;fill:black;font-family:sans-serif;font-size:13;text-anchor:end;" transform="matrix(1 0 0 1 3036 1987)">Typeset at 100.0 points</text>
  <text style="stroke:none;fill:black;font-family:sans-serif;font-size:13;" transform="matrix(1 0 0 1 263 726)">Small</text>
  <text style="stroke:none;fill:black;font-family:sans-serif;font-size:13;" transform="matrix(1 0 0 1 263 1156)">Medium</text>
  <text style="stroke:none;fill:black;font-family:sans-serif;font-size:13;" transform="matrix(1 0 0 1 263 1586)">Large</text>
 </g>
 <g id="Guides">
  <g id="H-reference" style="fill:#27AAE1;stroke:none;" transform="matrix(1 0 0 1 339 696)">
   <path d="M0.993654 0L3.63775 0L29.3281-67.1323L30.0303-67.1323L30.0303-70.459L28.1226-70.459ZM11.6885-24.4799L46.9815-24.4799L46.2315-26.7285L12.4385-26.7285ZM55.1196 0L57.7637 0L30.6382-70.459L29.4326-70.459L29.4326-67.1323Z"/>
  </g>
  <line id="Baseline-S" style="fill:none;stroke:#27AAE1;opacity:1;stroke-width:0.5;" x1="263" x2="3036" y1="696" y2="696"/>
  <line id="Capline-S" style="fill:none;stroke:#27AAE1;opacity:1;stroke-width:0.5;" x1="263" x2="3036" y1="625.541" y2="625.541"/>
  <g id="H-reference" style="fill:#27AAE1;stroke:none;" transform="matrix(1 0 0 1 339 1126)">
   <path d="M0.993654 0L3.63775 0L29.3281-67.1323L30.0303-67.1323L30.0303-70.459L28.1226-70.459ZM11.6885-24.4799L46.9815-24.4799L46.2315-26.7285L12.4385-26.7285ZM55.1196 0L57.7637 0L30.6382-70.459L29.4326-70.459L29.4326-67.1323Z"/>
  </g>
  <line id="Baseline-M" style="fill:none;stroke:#27AAE1;opacity:1;stroke-width:0.5;" x1="263" x2="3036" y1="1126" y2="1126"/>
  <line id="Capline-M" style="fill:none;stroke:#27AAE1;opacity:1;stroke-width:0.5;" x1="263" x2="3036" y1="1055.54" y2="1055.54"/>
  <g id="H-reference" style="fill:#27AAE1;stroke:none;" transform="matrix(1 0 0 1 339 1556)">
   <path d="M0.993654 0L3.63775 0L29.3281-67.1323L30.0303-67.1323L30.0303-70.459L28.1226-70.459ZM11.6885-24.4799L46.9815-24.4799L46.2315-26.7285L12.4385-26.7285ZM55.1196 0L57.7637 0L30.6382-70.459L29.4326-70.459L29.4326-67.1323Z"/>
  </g>
  <line id="Baseline-L" style="fill:none;stroke:#27AAE1;opacity:1;stroke-width:0.5;" x1="263" x2="3036" y1="1556" y2="1556"/>
  <line id="Capline-L" style="fill:none;stroke:#27AAE1;opacity:1;stroke-width:0.5;" x1="263" x2="3036" y1="1485.54" y2="1485.54"/>
  <line id="right-margin-Black-S" style="fill:none;stroke:#00AEEF;stroke-width:0.5;opacity:1.0;" x1="2981.3" x2="2981.3" y1="600.785" y2="720.121"/>
  <line id="left-margin-Black-S" style="fill:none;stroke:#00AEEF;stroke-width:0.5;opacity:1.0;" x1="2885.5" x2="2885.5" y1="600.785" y2="720.121"/>
  <line id="right-margin-Regular-S" style="fill:none;stroke:#00AEEF;stroke-width:0.5;opacity:1.0;" x1="1495.18" x2="1495.18" y1="600.785" y2="720.121"/>
  <line id="left-margin-Regular-S" style="fill:none;stroke:#00AEEF;stroke-width:0.5;opacity:1.0;" x1="1404.51" x2="1404.51" y1="600.785" y2="720.121"/>
  <line id="right-margin-Ultralight-S" style="fill:none;stroke:#00AEEF;stroke-width:0.5;opacity:1.0;" x1="603.073" x2="603.073" y1="600.785" y2="720.121"/>
  <line id="left-margin-Ultralight-S" style="fill:none;stroke:#00AEEF;stroke-width:0.5;opacity:1.0;" x1="516.35" x2="516.35" y1="600.785" y2="720.121"/>
 </g>
 <g id="Symbols">
  <g id="Black-S"><path d="M2909.61304,630.09639c-0.29064,0.05872 -0.95707,0.31413 -1.48257,0.57542c-2.08148,1.02459 -3.33212,3.19414 -3.18533,5.51929c0.07633,1.22716 0.38752,1.99634 1.57065,3.90167c0.86899,1.40037 0.99523,1.66459 0.83376,1.75267c-0.10275,0.05872 -0.55193,0.39633 -0.99817,0.75156c-1.86423,1.48551 -3.1501,3.66387 -3.61689,6.12112c-0.43743,2.30166 0.02936,7.62719 1.00991,11.57289c1.45028,5.82461 3.87818,10.79784 7.67416,15.71235c1.22716,1.58826 5.17874,5.53984 6.767,6.767c4.91451,3.79598 9.88187,6.22094 15.71235,7.67416c3.01799,0.75156 5.79232,1.09799 8.88958,1.10973c2.68918,0.00881 3.2235,-0.07339 4.90277,-0.76624c1.58239,-0.65468 3.50827,-2.21065 4.40662,-3.56699l0.34349,-0.51964l1.69102,1.05395c2.01395,1.25652 2.79781,1.54423 4.2158,1.54423c2.72441,0 4.99965,-1.77322 5.6925,-4.43598c0.25248,-0.97175 0.25541,-5.9303 0.00294,-6.89911c-0.55486,-2.13138 -2.36918,-3.87524 -4.48882,-4.31561c-0.90129,-0.18789 -2.39267,-0.0822 -3.20882,0.22899c-0.35817,0.13505 -1.30936,0.65762 -2.11377,1.15964c-0.80441,0.50496 -1.52661,0.95707 -1.60294,1.00404c-0.09101,0.05578 -0.20551,-0.03523 -0.31413,-0.24073c-0.29064,-0.55193 -1.50313,-1.87597 -2.28992,-2.50129c-0.9512,-0.75743 -2.8712,-1.68514 -4.00735,-1.93469c-0.48441,-0.10862 -1.70863,-0.24367 -2.72148,-0.29945c-2.15487,-0.12624 -3.14423,-0.26129 -4.69139,-0.64881c-6.52039,-1.62643 -11.9428,-6.54388 -14.23271,-12.90867c-0.78679,-2.18423 -1.05395,-3.64332 -1.24771,-6.86975c-0.11743,-1.89065 -0.32,-2.88588 -0.86312,-4.20112c-0.6312,-1.53248 -2.09028,-3.32332 -3.4613,-4.25396c-0.33468,-0.22606 -0.60771,-0.44918 -0.61064,-0.49321c-0.00294,-0.04697 0.37578,-0.6811 0.8367,-1.40918c1.1156,-1.76441 1.4767,-2.55707 1.64404,-3.63451c0.37578,-2.43083 -0.93652,-4.90571 -3.18827,-6.00956c-0.48441,-0.2378 -1.16551,-0.48441 -1.51193,-0.54899c-0.76331,-0.14092 -5.6103,-0.13211 -6.35599,0.00881M2914.78003,635.91512c0,0.10275 -1.88478,3.09726 -1.94937,3.09726c-0.04991,0 -0.35523,-0.46385 -1.43854,-2.20184l-0.60771,-0.96881h1.99927c1.09799,0 1.99634,0.03229 1.99634,0.07339M2914.36609,646.41938c1.88478,0.70459 2.8712,2.31047 2.87708,4.68846c0.00881,3.44368 1.06276,7.67709 2.75964,11.09729c2.64515,5.33433 6.75819,9.42976 12.09839,12.04849c3.34974,1.64111 7.60076,2.68331 10.97986,2.69212c1.84661,0.00587 3.1002,0.52551 3.99855,1.66166c0.70165,0.88661 0.96294,1.72037 0.91303,2.91524c-0.05284,1.24184 -0.41395,2.09028 -1.24771,2.92405c-1.12734,1.12734 -2.00515,1.37101 -4.57396,1.26533c-15.13694,-0.62532 -28.16598,-10.91234 -32.38177,-25.56487c-0.98349,-3.41432 -1.57652,-8.41398 -1.2389,-10.41619c0.24954,-1.48257 1.2301,-2.67744 2.68625,-3.27634c0.88954,-0.36697 2.20478,-0.38165 3.12955,-0.03523M2958.30313,683.36631c-0.06165,0.06459 -3.12662,-1.84368 -3.12662,-1.94349c0.00294,-0.0411 0.70165,-0.51083 1.55597,-1.03927l1.55597,-0.96294l0.03229,1.94937c0.01761,1.07156 0.00881,1.96992 -0.01761,1.99634" className="SFSymbolsPreviewWireframe"/></g>
  <g id="Regular-S"><path d="M1426.05799,630.09639c-0.29064,0.05872 -0.95707,0.31413 -1.48257,0.57542c-2.08148,1.02459 -3.33212,3.19414 -3.18533,5.51929c0.07633,1.22716 0.38752,1.99634 1.57065,3.90167c0.86899,1.40037 0.99523,1.66459 0.83376,1.75267c-0.10275,0.05872 -0.55193,0.39633 -0.99817,0.75156c-1.86423,1.48551 -3.1501,3.66387 -3.61689,6.12112c-0.43743,2.30166 0.02936,7.62719 1.00991,11.57289c1.45028,5.82461 3.87818,10.79784 7.67416,15.71235c1.22716,1.58826 5.17874,5.53984 6.767,6.767c4.91451,3.79598 9.88187,6.22094 15.71235,7.67416c3.01799,0.75156 5.79232,1.09799 8.88958,1.10973c2.68918,0.00881 3.2235,-0.07339 4.90277,-0.76624c1.58239,-0.65468 3.50827,-2.21065 4.40662,-3.56699l0.34349,-0.51964l1.69102,1.05395c2.01395,1.25652 2.79781,1.54423 4.2158,1.54423c2.72441,0 4.99965,-1.77322 5.6925,-4.43598c0.25248,-0.97175 0.25541,-5.9303 0.00294,-6.89911c-0.55486,-2.13138 -2.36918,-3.87524 -4.48882,-4.31561c-0.90129,-0.18789 -2.39267,-0.0822 -3.20882,0.22899c-0.35817,0.13505 -1.30936,0.65762 -2.11377,1.15964c-0.80441,0.50496 -1.52661,0.95707 -1.60294,1.00404c-0.09101,0.05578 -0.20551,-0.03523 -0.31413,-0.24073c-0.29064,-0.55193 -1.50312,-1.87597 -2.28992,-2.50129c-0.9512,-0.75743 -2.8712,-1.68514 -4.00735,-1.93469c-0.48441,-0.10862 -1.70863,-0.24367 -2.72148,-0.29945c-2.15487,-0.12624 -3.14423,-0.26129 -4.69139,-0.64881c-6.52039,-1.62643 -11.9428,-6.54388 -14.23271,-12.90867c-0.78679,-2.18423 -1.05395,-3.64332 -1.24771,-6.86975c-0.11743,-1.89065 -0.32,-2.88588 -0.86312,-4.20112c-0.6312,-1.53248 -2.09028,-3.32332 -3.4613,-4.25396c-0.33468,-0.22606 -0.60771,-0.44918 -0.61064,-0.49321c-0.00294,-0.04697 0.37578,-0.6811 0.8367,-1.40918c1.1156,-1.76441 1.4767,-2.55707 1.64404,-3.63451c0.37578,-2.43083 -0.93652,-4.90571 -3.18827,-6.00956c-0.48441,-0.2378 -1.16551,-0.48441 -1.51193,-0.54899c-0.76331,-0.14092 -5.6103,-0.13211 -6.35599,0.00881M1431.22498,635.91512c0,0.10275 -1.88478,3.09726 -1.94937,3.09726c-0.04991,0 -0.35523,-0.46385 -1.43854,-2.20184l-0.60771,-0.96881h1.99927c1.09799,0 1.99634,0.03229 1.99634,0.07339M1430.81104,646.41938c1.88478,0.70459 2.8712,2.31047 2.87708,4.68846c0.00881,3.44368 1.06276,7.67709 2.75964,11.09729c2.64515,5.33433 6.75819,9.42976 12.09839,12.04849c3.34974,1.64111 7.60076,2.68331 10.97986,2.69212c1.84661,0.00587 3.1002,0.52551 3.99855,1.66166c0.70165,0.88661 0.96294,1.72037 0.91303,2.91524c-0.05284,1.24184 -0.41395,2.09028 -1.24771,2.92405c-1.12734,1.12734 -2.00515,1.37101 -4.57396,1.26533c-15.13694,-0.62532 -28.16598,-10.91234 -32.38177,-25.56487c-0.98349,-3.41432 -1.57652,-8.41398 -1.2389,-10.41619c0.24954,-1.48257 1.2301,-2.67744 2.68625,-3.27634c0.88954,-0.36697 2.20478,-0.38165 3.12955,-0.03523M1474.74808,683.36631c-0.06165,0.06459 -3.12662,-1.84368 -3.12662,-1.94349c0.00294,-0.0411 0.70165,-0.51083 1.55597,-1.03927l1.55597,-0.96294l0.03229,1.94937c0.01761,1.07156 0.00881,1.96992 -0.01761,1.99634" className="SFSymbolsPreviewWireframe"/></g>
  <g id="Ultralight-S"><path d="M535.9244,630.09639c-0.29064,0.05872 -0.95707,0.31413 -1.48257,0.57542c-2.08148,1.02459 -3.33212,3.19414 -3.18533,5.51929c0.07633,1.22716 0.38752,1.99634 1.57065,3.90167c0.86899,1.40037 0.99523,1.66459 0.83376,1.75267c-0.10275,0.05872 -0.55193,0.39633 -0.99817,0.75156c-1.86423,1.48551 -3.1501,3.66387 -3.61689,6.12112c-0.43743,2.30166 0.02936,7.62719 1.00991,11.57289c1.45028,5.82461 3.87818,10.79784 7.67416,15.71235c1.22716,1.58826 5.17874,5.53984 6.767,6.767c4.91451,3.79598 9.88187,6.22094 15.71235,7.67416c3.01799,0.75156 5.79232,1.09799 8.88958,1.10973c2.68918,0.00881 3.2235,-0.07339 4.90277,-0.76624c1.58239,-0.65468 3.50827,-2.21065 4.40662,-3.56699l0.34349,-0.51964l1.69102,1.05395c2.01395,1.25652 2.79781,1.54423 4.2158,1.54423c2.72441,0 4.99965,-1.77322 5.6925,-4.43598c0.25248,-0.97175 0.25541,-5.9303 0.00294,-6.89911c-0.55486,-2.13138 -2.36918,-3.87524 -4.48882,-4.31561c-0.90129,-0.18789 -2.39267,-0.0822 -3.20882,0.22899c-0.35817,0.13505 -1.30936,0.65762 -2.11377,1.15964c-0.80441,0.50496 -1.52661,0.95707 -1.60294,1.00404c-0.09101,0.05578 -0.20551,-0.03523 -0.31413,-0.24073c-0.29064,-0.55193 -1.50312,-1.87597 -2.28992,-2.50129c-0.9512,-0.75743 -2.8712,-1.68514 -4.00735,-1.93469c-0.48441,-0.10862 -1.70863,-0.24367 -2.72148,-0.29945c-2.15487,-0.12624 -3.14423,-0.26129 -4.69139,-0.64881c-6.52039,-1.62643 -11.9428,-6.54388 -14.23271,-12.90867c-0.78679,-2.18423 -1.05395,-3.64332 -1.24771,-6.86975c-0.11743,-1.89065 -0.32,-2.88588 -0.86312,-4.20112c-0.6312,-1.53248 -2.09028,-3.32332 -3.4613,-4.25396c-0.33468,-0.22606 -0.60771,-0.44918 -0.61064,-0.49321c-0.00294,-0.04697 0.37578,-0.6811 0.8367,-1.40918c1.1156,-1.76441 1.4767,-2.55707 1.64404,-3.63451c0.37578,-2.43083 -0.93652,-4.90571 -3.18827,-6.00956c-0.48441,-0.2378 -1.16551,-0.48441 -1.51193,-0.54899c-0.76331,-0.14092 -5.6103,-0.13211 -6.35599,0.00881M541.09139,635.91512c0,0.10275 -1.88478,3.09726 -1.94937,3.09726c-0.04991,0 -0.35523,-0.46385 -1.43854,-2.20184l-0.60771,-0.96881h1.99927c1.09799,0 1.99634,0.03229 1.99634,0.07339M540.67745,646.41938c1.88478,0.70459 2.8712,2.31047 2.87708,4.68846c0.00881,3.44368 1.06276,7.67709 2.75964,11.09729c2.64515,5.33433 6.75819,9.42976 12.09839,12.04849c3.34974,1.64111 7.60076,2.68331 10.97986,2.69212c1.84661,0.00587 3.1002,0.52551 3.99855,1.66166c0.70165,0.88661 0.96294,1.72037 0.91303,2.91524c-0.05284,1.24184 -0.41395,2.09028 -1.24771,2.92405c-1.12734,1.12734 -2.00515,1.37101 -4.57396,1.26533c-15.13694,-0.62532 -28.16598,-10.91234 -32.38177,-25.56487c-0.98349,-3.41432 -1.57652,-8.41398 -1.2389,-10.41619c0.24954,-1.48257 1.2301,-2.67744 2.68625,-3.27634c0.88954,-0.36697 2.20478,-0.38165 3.12955,-0.03523M584.61449,683.36631c-0.06165,0.06459 -3.12662,-1.84368 -3.12662,-1.94349c0.00294,-0.0411 0.70165,-0.51083 1.55597,-1.03927l1.55597,-0.96294l0.03229,1.94937c0.01761,1.07156 0.00881,1.96992 -0.01761,1.99634" className="SFSymbolsPreviewWireframe"/></g>
 </g>
</svg>