<?xml version="1.0" encoding="UTF-8"?><!--Generator: https://SymbolKit.app--><!DOCTYPE svg PUBLIC "-//W3C//DTD SVG 1.1//EN" "http://www.w3.org/Graphics/SVG/1.1/DTD/svg11.dtd"><svg xmlns="http://www.w3.org/2000/svg" xmlns:xlink="http://www.w3.org/1999/xlink" version="1.1" viewBox="0 0 3300 2200">
 <!--glyph: "100092", point size: 100.0, font version: "20.0d10e1", template writer version: "138.0.0"-->
 <style>.SFSymbolsPreviewWireframe {fill:none;opacity:1.0;stroke:black;stroke-width:0.5}
</style>
 <g id="Notes">
  <rect height="2200" id="artboard" style="fill:white;opacity:1" width="3300" x="0" y="0"/>
  <line style="fill:none;stroke:black;opacity:1;stroke-width:0.5;" x1="263" x2="3036" y1="292" y2="292"/>
  <text style="stroke:none;fill:black;font-family:sans-serif;font-size:13;font-weight:bold;" transform="matrix(1 0 0 1 263 322)">Weight/Scale Variations</text>
  <text style="stroke:none;fill:black;font-family:sans-serif;font-size:13;text-anchor:middle;" transform="matrix(1 0 0 1 559.711 322)">Ultralight</text>
  <text style="stroke:none;fill:black;font-family:sans-serif;font-size:13;text-anchor:middle;" transform="matrix(1 0 0 1 856.422 322)">Thin</text>
  <text style="stroke:none;fill:black;font-family:sans-serif;font-size:13;text-anchor:middle;" transform="matrix(1 0 0 1 1153.13 322)">Light</text>
  <text style="stroke:none;fill:black;font-family:sans-serif;font-size:13;text-anchor:middle;" transform="matrix(1 0 0 1 1449.84 322)">Regular</text>
  <text style="stroke:none;fill:black;font-family:sans-serif;font-size:13;text-anchor:middle;" transform="matrix(1 0 0 1 1746.56 322)">Medium</text>
  <text style="stroke:none;fill:black;font-family:sans-serif;font-size:13;text-anchor:middle;" transform="matrix(1 0 0 1 2043.27 322)">Semibold</text>
  <text style="stroke:none;fill:black;font-family:sans-serif;font-size:13;text-anchor:middle;" transform="matrix(1 0 0 1 2339.98 322)">Bold</text>
  <text style="stroke:none;fill:black;font-family:sans-serif;font-size:13;text-anchor:middle;" transform="matrix(1 0 0 1 2636.69 322)">Heavy</text>
  <text style="stroke:none;fill:black;font-family:sans-serif;font-size:13;text-anchor:middle;" transform="matrix(1 0 0 1 2933.4 322)">Black</text>
  <line style="fill:none;stroke:black;opacity:1;stroke-width:0.5;" x1="263" x2="3036" y1="1903" y2="1903"/>
  <g transform="matrix(0.2 0 0 0.2 263 1933)">
   <path d="m46.2402 4.15039c21.7773 0 39.4531-17.627 39.4531-39.4043s-17.6758-39.4043-39.4531-39.4043c-21.7285 0-39.4043 17.627-39.4043 39.4043s17.6758 39.4043 39.4043 39.4043Zm0-7.42188c-17.6758 0-31.9336-14.3066-31.9336-31.9824s14.2578-31.9824 31.9336-31.9824 31.9824 14.3066 31.9824 31.9824-14.3066 31.9824-31.9824 31.9824Zm-17.9688-31.9824c0 2.14844 1.51367 3.61328 3.75977 3.61328h10.498v10.5957c0 2.19727 1.46484 3.71094 3.61328 3.71094 2.24609 0 3.71094-1.51367 3.71094-3.71094v-10.5957h10.5957c2.19727 0 3.71094-1.46484 3.71094-3.61328 0-2.19727-1.51367-3.71094-3.71094-3.71094h-10.5957v-10.5469c0-2.24609-1.46484-3.75977-3.71094-3.75977-2.14844 0-3.61328 1.51367-3.61328 3.75977v10.5469h-10.498c-2.24609 0-3.75977 1.51367-3.75977 3.71094Z"/>
  </g>
  <g transform="matrix(0.2 0 0 0.2 281.506 1933)">
   <path d="m58.5449 14.5508c27.4902 0 49.8047-22.3145 49.8047-49.8047s-22.3145-49.8047-49.8047-49.8047-49.8047 22.3145-49.8047 49.8047 22.3145 49.8047 49.8047 49.8047Zm0-8.30078c-22.9492 0-41.5039-18.5547-41.5039-41.5039s18.5547-41.5039 41.5039-41.5039 41.5039 18.5547 41.5039 41.5039-18.5547 41.5039-41.5039 41.5039Zm-22.6562-41.5039c0 2.39258 1.66016 4.00391 4.15039 4.00391h14.3555v14.4043c0 2.44141 1.66016 4.15039 4.05273 4.15039 2.44141 0 4.15039-1.66016 4.15039-4.15039v-14.4043h14.4043c2.44141 0 4.15039-1.61133 4.15039-4.00391 0-2.44141-1.70898-4.15039-4.15039-4.15039h-14.4043v-14.3555c0-2.49023-1.70898-4.19922-4.15039-4.19922-2.39258 0-4.05273 1.70898-4.05273 4.19922v14.3555h-14.3555c-2.49023 0-4.15039 1.70898-4.15039 4.15039Z"/>
  </g>
  <g transform="matrix(0.2 0 0 0.2 304.924 1933)">
   <path d="m74.8535 28.3203c35.1074 0 63.623-28.4668 63.623-63.5742s-28.5156-63.623-63.623-63.623-63.5742 28.5156-63.5742 63.623 28.4668 63.5742 63.5742 63.5742Zm0-9.08203c-30.127 0-54.4922-24.3652-54.4922-54.4922s24.3652-54.4922 54.4922-54.4922 54.4922 24.3652 54.4922 54.4922-24.3652 54.4922-54.4922 54.4922Zm-28.8574-54.4922c0 2.58789 1.85547 4.39453 4.58984 4.39453h19.7266v19.7754c0 2.68555 1.85547 4.58984 4.44336 4.58984 2.68555 0 4.54102-1.85547 4.54102-4.58984v-19.7754h19.7754c2.68555 0 4.58984-1.80664 4.58984-4.39453 0-2.73438-1.85547-4.58984-4.58984-4.58984h-19.7754v-19.7266c0-2.73438-1.85547-4.63867-4.54102-4.63867-2.58789 0-4.44336 1.9043-4.44336 4.63867v19.7266h-19.7266c-2.73438 0-4.58984 1.85547-4.58984 4.58984Z"/>
  </g>
  <text style="stroke:none;fill:black;font-family:sans-serif;font-size:13;font-weight:bold;" transform="matrix(1 0 0 1 263 1953)">Design Variations</text>
  <text style="stroke:none;fill:black;font-family:sans-serif;font-size:13;" transform="matrix(1 0 0 1 263 1971)">Symbols are supported in up to nine weights and three scales.</text>
  <text style="stroke:none;fill:black;font-family:sans-serif;font-size:13;" transform="matrix(1 0 0 1 263 1989)">For optimal layout with text and other symbols, vertically align</text>
  <text style="stroke:none;fill:black;font-family:sans-serif;font-size:13;" transform="matrix(1 0 0 1 263 2007)">symbols with the adjacent text.</text>
  <line style="fill:none;stroke:#00AEEF;stroke-width:0.5;opacity:1.0;" x1="776" x2="776" y1="1919" y2="1933"/>
  <g transform="matrix(0.2 0 0 0.2 776 1933)">
   <path d="m16.5527 0.78125c2.58789 0 3.85742-0.976562 4.78516-3.71094l6.29883-17.2363h28.8086l6.29883 17.2363c0.927734 2.73438 2.19727 3.71094 4.73633 3.71094 2.58789 0 4.24805-1.5625 4.24805-4.00391 0-0.830078-0.146484-1.61133-0.537109-2.63672l-22.9004-60.9863c-1.12305-2.97852-3.125-4.49219-6.25-4.49219-3.02734 0-5.07812 1.46484-6.15234 4.44336l-22.9004 61.084c-0.390625 1.02539-0.537109 1.80664-0.537109 2.63672 0 2.44141 1.5625 3.95508 4.10156 3.95508Zm13.4766-28.3691 11.8652-32.8613h0.244141l11.8652 32.8613Z"/>
  </g>
  <line style="fill:none;stroke:#00AEEF;stroke-width:0.5;opacity:1.0;" x1="792.836" x2="792.836" y1="1919" y2="1933"/>
  <text style="stroke:none;fill:black;font-family:sans-serif;font-size:13;font-weight:bold;" transform="matrix(1 0 0 1 776 1953)">Margins</text>
  <text style="stroke:none;fill:black;font-family:sans-serif;font-size:13;" transform="matrix(1 0 0 1 776 1971)">Leading and trailing margins on the left and right side of each symbol</text>
  <text style="stroke:none;fill:black;font-family:sans-serif;font-size:13;" transform="matrix(1 0 0 1 776 1989)">can be adjusted by modifying the x-location of the margin guidelines.</text>
  <text style="stroke:none;fill:black;font-family:sans-serif;font-size:13;" transform="matrix(1 0 0 1 776 2007)">Modifications are automatically applied proportionally to all</text>
  <text style="stroke:none;fill:black;font-family:sans-serif;font-size:13;" transform="matrix(1 0 0 1 776 2025)">scales and weights.</text>
  <g transform="matrix(0.2 0 0 0.2 1289 1933)">
   <path d="m14.209 9.32617 8.49609 8.54492c4.29688 4.3457 9.22852 4.05273 13.8672-1.07422l53.4668-58.9355-4.83398-4.88281-53.0762 58.3984c-1.75781 2.00195-3.41797 2.49023-5.76172 0.146484l-5.85938-5.81055c-2.34375-2.29492-1.80664-4.00391 0.195312-5.81055l57.373-54.0039-4.88281-4.83398-57.959 54.4434c-4.93164 4.58984-5.32227 9.47266-1.02539 13.8184Zm32.0801-90.9668c-2.09961 2.05078-2.24609 4.93164-1.07422 6.88477 1.17188 1.80664 3.4668 2.97852 6.68945 2.14844 7.32422-1.70898 14.9414-2.00195 22.0703 2.68555l-2.92969 7.27539c-1.70898 4.15039-0.830078 7.08008 1.85547 9.81445l11.4746 11.5723c2.44141 2.44141 4.49219 2.53906 7.32422 2.05078l5.32227-0.976562 3.32031 3.36914-0.195312 2.7832c-0.195312 2.49023 0.439453 4.39453 2.88086 6.78711l3.80859 3.71094c2.39258 2.39258 5.46875 2.53906 7.8125 0.195312l14.5508-14.5996c2.34375-2.34375 2.24609-5.32227-0.146484-7.71484l-3.85742-3.80859c-2.39258-2.39258-4.24805-3.17383-6.64062-2.97852l-2.88086 0.244141-3.22266-3.17383 1.2207-5.61523c0.634766-2.83203-0.146484-5.0293-3.07617-7.95898l-10.9863-10.9375c-16.6992-16.6016-38.8672-16.2109-53.3203-1.75781Zm7.4707 1.85547c12.1582-8.88672 28.6133-7.37305 39.7461 3.75977l12.1582 12.0605c1.17188 1.17188 1.36719 2.09961 1.02539 3.80859l-1.61133 7.42188 7.51953 7.42188 4.93164-0.292969c1.26953-0.0488281 1.66016 0.0488281 2.63672 1.02539l2.88086 2.88086-12.207 12.207-2.88086-2.88086c-0.976562-0.976562-1.12305-1.36719-1.07422-2.68555l0.341797-4.88281-7.4707-7.42188-7.61719 1.26953c-1.61133 0.341797-2.34375 0.195312-3.56445-0.976562l-10.0098-10.0098c-1.26953-1.17188-1.41602-2.00195-0.634766-3.85742l4.39453-10.4492c-7.8125-7.27539-17.9688-10.4004-28.125-7.42188-0.78125 0.195312-1.07422-0.439453-0.439453-0.976562Z"/>
  </g>
  <text style="stroke:none;fill:black;font-family:sans-serif;font-size:13;font-weight:bold;" transform="matrix(1 0 0 1 1289 1953)">Exporting</text>
  <text style="stroke:none;fill:black;font-family:sans-serif;font-size:13;" transform="matrix(1 0 0 1 1289 1971)">Symbols should be outlined when exporting to ensure the</text>
  <text style="stroke:none;fill:black;font-family:sans-serif;font-size:13;" transform="matrix(1 0 0 1 1289 1989)">design is preserved when submitting to Xcode.</text>
  <text id="template-version" style="stroke:none;fill:black;font-family:sans-serif;font-size:13;text-anchor:end;" transform="matrix(1 0 0 1 3036 1933)">Template v.6.0</text>
  <text style="stroke:none;fill:black;font-family:sans-serif;font-size:13;text-anchor:end;" transform="matrix(1 0 0 1 3036 1951)">Requires Xcode 16 or greater</text>
  <text id="descriptive-name" style="stroke:none;fill:black;font-family:sans-serif;font-size:13;text-anchor:end;" transform="matrix(1 0 0 1 3036 1969)">Generated from square</text>
  <text style="stroke:none;fill:black;font-family:sans-serif;font-size:13;text-anchor:end;" transform="matrix(1 0 0 1 3036 1987)">Typeset at 100.0 points</text>
  <text style="stroke:none;fill:black;font-family:sans-serif;font-size:13;" transform="matrix(1 0 0 1 263 726)">Small</text>
  <text style="stroke:none;fill:black;font-family:sans-serif;font-size:13;" transform="matrix(1 0 0 1 263 1156)">Medium</text>
  <text style="stroke:none;fill:black;font-family:sans-serif;font-size:13;" transform="matrix(1 0 0 1 263 1586)">Large</text>
 </g>
 <g id="Guides">
  <g id="H-reference" style="fill:#27AAE1;stroke:none;" transform="matrix(1 0 0 1 339 696)">
   <path d="M0.993654 0L3.63775 0L29.3281-67.1323L30.0303-67.1323L30.0303-70.459L28.1226-70.459ZM11.6885-24.4799L46.9815-24.4799L46.2315-26.7285L12.4385-26.7285ZM55.1196 0L57.7637 0L30.6382-70.459L29.4326-70.459L29.4326-67.1323Z"/>
  </g>
  <line id="Baseline-S" style="fill:none;stroke:#27AAE1;opacity:1;stroke-width:0.5;" x1="263" x2="3036" y1="696" y2="696"/>
  <line id="Capline-S" style="fill:none;stroke:#27AAE1;opacity:1;stroke-width:0.5;" x1="263" x2="3036" y1="625.541" y2="625.541"/>
  <g id="H-reference" style="fill:#27AAE1;stroke:none;" transform="matrix(1 0 0 1 339 1126)">
   <path d="M0.993654 0L3.63775 0L29.3281-67.1323L30.0303-67.1323L30.0303-70.459L28.1226-70.459ZM11.6885-24.4799L46.9815-24.4799L46.2315-26.7285L12.4385-26.7285ZM55.1196 0L57.7637 0L30.6382-70.459L29.4326-70.459L29.4326-67.1323Z"/>
  </g>
  <line id="Baseline-M" style="fill:none;stroke:#27AAE1;opacity:1;stroke-width:0.5;" x1="263" x2="3036" y1="1126" y2="1126"/>
  <line id="Capline-M" style="fill:none;stroke:#27AAE1;opacity:1;stroke-width:0.5;" x1="263" x2="3036" y1="1055.54" y2="1055.54"/>
  <g id="H-reference" style="fill:#27AAE1;stroke:none;" transform="matrix(1 0 0 1 339 1556)">
   <path d="M0.993654 0L3.63775 0L29.3281-67.1323L30.0303-67.1323L30.0303-70.459L28.1226-70.459ZM11.6885-24.4799L46.9815-24.4799L46.2315-26.7285L12.4385-26.7285ZM55.1196 0L57.7637 0L30.6382-70.459L29.4326-70.459L29.4326-67.1323Z"/>
  </g>
  <line id="Baseline-L" style="fill:none;stroke:#27AAE1;opacity:1;stroke-width:0.5;" x1="263" x2="3036" y1="1556" y2="1556"/>
  <line id="Capline-L" style="fill:none;stroke:#27AAE1;opacity:1;stroke-width:0.5;" x1="263" x2="3036" y1="1485.54" y2="1485.54"/>
  <line id="right-margin-Black-S" style="fill:none;stroke:#00AEEF;stroke-width:0.5;opacity:1.0;" x1="2981.3" x2="2981.3" y1="600.785" y2="720.121"/>
  <line id="left-margin-Black-S" style="fill:none;stroke:#00AEEF;stroke-width:0.5;opacity:1.0;" x1="2885.5" x2="2885.5" y1="600.785" y2="720.121"/>
  <line id="right-margin-Regular-S" style="fill:none;stroke:#00AEEF;stroke-width:0.5;opacity:1.0;" x1="1495.18" x2="1495.18" y1="600.785" y2="720.121"/>
  <line id="left-margin-Regular-S" style="fill:none;stroke:#00AEEF;stroke-width:0.5;opacity:1.0;" x1="1404.51" x2="1404.51" y1="600.785" y2="720.121"/>
  <line id="right-margin-Ultralight-S" style="fill:none;stroke:#00AEEF;stroke-width:0.5;opacity:1.0;" x1="603.073" x2="603.073" y1="600.785" y2="720.121"/>
  <line id="left-margin-Ultralight-S" style="fill:none;stroke:#00AEEF;stroke-width:0.5;opacity:1.0;" x1="516.35" x2="516.35" y1="600.785" y2="720.121"/>
 </g>
 <g id="Symbols">
  <g id="Black-S"><path d="M2929.55828,631.57614c-0.6723,0.21138 -1.28881,0.71046 -1.66459,1.34753c-0.31707,0.53725 -0.31707,0.54899 -0.31707,2.89763v2.35744l0.35523,0.57835c1.18019,1.91707 3.8635,1.91707 5.04369,0l0.35523,-0.57835v-2.35744c0,-2.34863 0,-2.36038 -0.31707,-2.89763c-0.71633,-1.21835 -2.11964,-1.76441 -3.45543,-1.34753M2910.69582,639.22094c-0.65175,0.2378 -1.23303,0.72808 -1.5912,1.33578c-0.27009,0.45798 -0.31707,0.6723 -0.31413,1.42092c0.00294,1.14496 0.14679,1.40331 1.62643,2.91818c1.42679,1.45909 1.95817,1.84368 2.72441,1.98166c2.09028,0.36991 3.79304,-1.33285 3.42313,-3.42313c-0.14092,-0.78386 -0.52844,-1.3123 -2.04918,-2.78019c-0.9923,-0.95707 -1.42092,-1.29175 -1.85542,-1.43854c-0.67817,-0.23193 -1.36221,-0.23486 -1.96404,-0.01468M2948.20055,639.24149c-0.56074,0.19963 -2.82717,2.28405 -3.4202,3.14717c-1.47083,2.14313 0.38459,4.938 2.97983,4.49176c0.76037,-0.13211 1.30349,-0.52551 2.73029,-1.98459c1.47964,-1.51487 1.62349,-1.77322 1.62643,-2.91818c0.00294,-0.74863 -0.04404,-0.96294 -0.31413,-1.42092c-0.74569,-1.26826 -2.21652,-1.80551 -3.60222,-1.31523M2928.17846,646.27271c-3.20295,0.49908 -6.04773,2.00515 -8.38462,4.43892c-1.93469,2.01689 -3.12368,4.31268 -3.74901,7.23672c-0.32,1.509 -0.28771,4.50937 0.06459,5.92736c0.93358,3.76662 2.88001,6.70828 5.83048,8.81618c1.20661,0.86019 1.83193,1.13028 2.64221,1.13615c2.39561,0.02349 3.81946,-2.84478 2.31634,-4.66497c-0.19376,-0.23486 -0.76331,-0.71633 -1.26826,-1.07156c-2.85946,-2.00221 -4.31855,-5.20809 -3.86937,-8.49911c0.40514,-2.96221 2.1901,-5.44589 4.84699,-6.74351c1.30349,-0.63707 2.15487,-0.81909 3.84589,-0.82202c1.72331,-0.00294 2.52478,0.17908 3.93396,0.88954c1.48845,0.75156 2.39267,1.55303 3.36735,2.97689c0.95413,1.3945 1.52955,1.80258 2.70093,1.90826c0.60184,0.05578 0.77211,0.01761 1.41799,-0.30826c0.86019,-0.43156 1.30936,-0.96588 1.57358,-1.87303c0.31119,-1.07156 0.09395,-1.76147 -1.08037,-3.42607c-0.73395,-1.04514 -2.52772,-2.82423 -3.52001,-3.49066c-3.16772,-2.12845 -6.99599,-3.00331 -10.66866,-2.43083M2955.9804,649.18208c-0.6811,0.22606 -1.29175,0.72514 -1.66459,1.35634c-0.27009,0.45798 -0.31707,0.67523 -0.31707,1.42973c0,0.78679 0.0411,0.95707 0.35523,1.4679c0.44918,0.72808 1.28588,1.30643 2.0257,1.39744c1.16257,0.14385 1.77615,0.31707 2.18129,0.62532c1.72625,1.29762 1.59413,3.84001 -0.25835,4.92919l-0.54606,0.32l-8.1615,0.05872c-6.17103,0.04404 -8.24077,0.09395 -8.49324,0.20551c-0.58422,0.25835 -1.13909,0.75743 -1.46496,1.30936c-0.26716,0.45798 -0.31707,0.67523 -0.31707,1.42092c0,0.7545 0.04697,0.96 0.33174,1.44441c0.37872,0.64294 1.08331,1.20074 1.74386,1.37982c0.29945,0.07927 3.27928,0.10862 8.81912,0.08514l8.36407,-0.03523l0.82202,-0.27596c2.9035,-0.96588 5.05543,-3.1413 5.94791,-6.00369c0.39633,-1.27413 0.39633,-3.658 0,-4.93213c-0.89542,-2.88001 -3.16478,-5.15525 -5.93911,-5.95966c-1.17432,-0.33762 -2.76258,-0.4433 -3.429,-0.22312M2903.13616,657.99826c-0.6723,0.21138 -1.28881,0.71046 -1.66459,1.34753c-0.26716,0.45798 -0.31707,0.67523 -0.31707,1.42092c0,0.75156 0.04697,0.96294 0.32587,1.4356c0.36697,0.62532 0.93358,1.10092 1.58239,1.33285c0.61064,0.21725 4.26277,0.21725 4.87341,0c0.64881,-0.23193 1.21542,-0.70753 1.58239,-1.33285c0.2789,-0.47266 0.32587,-0.68404 0.32587,-1.4356c0,-0.74569 -0.04991,-0.96294 -0.31707,-1.42092c-0.38752,-0.65468 -0.99523,-1.13909 -1.70863,-1.3534c-0.70459,-0.21138 -3.99855,-0.20844 -4.68259,0.00587M2932.49407,669.73849c-0.67523,0.21431 -1.28881,0.7134 -1.66459,1.35046c-0.26716,0.45798 -0.31707,0.67523 -0.31707,1.42092c0,0.75156 0.04697,0.96294 0.32587,1.4356c0.36697,0.62532 0.93358,1.10092 1.58239,1.33285c0.35229,0.12624 2.26643,0.15853 9.66756,0.16147c10.46903,0.00587 10.03747,-0.02936 10.96224,0.89542c0.80147,0.80441 1.05688,1.80845 0.72808,2.89763c-0.21431,0.70753 -0.69578,1.32111 -1.33578,1.69689c-0.4433,0.25835 -0.71927,0.31707 -1.84955,0.38752c-1.14202,0.07046 -1.40331,0.12624 -1.86423,0.39633c-0.93945,0.55193 -1.48257,1.49432 -1.48257,2.58056c0,1.21835 0.96,2.46313 2.149,2.789c0.75743,0.20551 3.12955,0.06459 4.13359,-0.24954c2.83597,-0.88367 5.05543,-3.11487 5.94791,-5.98608c0.39633,-1.27413 0.39633,-3.658 0,-4.93213c-0.88367,-2.83597 -3.00625,-4.99672 -5.86865,-5.97433l-0.90129,-0.30826l-9.86426,-0.02349c-7.86792,-0.02055 -9.96114,0.00587 -10.34866,0.12917M2912.49546,674.86438c-0.61945,0.28184 -2.9446,2.51891 -3.37322,3.24698c-0.79854,1.3534 -0.29945,3.17065 1.09799,3.98974c0.48441,0.28477 0.68991,0.33174 1.44441,0.33174c0.74276,0 0.96294,-0.04991 1.40918,-0.31413c0.78092,-0.46092 3.00038,-2.76552 3.28515,-3.41139c0.86899,-1.96404 -0.50202,-4.08956 -2.6334,-4.08075c-0.45505,0 -0.89542,0.08807 -1.2301,0.2378M2929.55828,681.48459c-0.6723,0.21138 -1.28881,0.71046 -1.66459,1.34753c-0.31707,0.53725 -0.31707,0.54899 -0.31707,2.89763v2.35744l0.35523,0.57835c1.18019,1.91707 3.8635,1.91707 5.04369,0l0.35523,-0.57835v-2.35744c0,-2.34863 0,-2.36038 -0.31707,-2.89763c-0.71633,-1.21835 -2.11964,-1.76441 -3.45543,-1.34753" className="SFSymbolsPreviewWireframe"/></g>
  <g id="Regular-S"><path d="M1446.00323,631.57614c-0.6723,0.21138 -1.28881,0.71046 -1.66459,1.34753c-0.31707,0.53725 -0.31707,0.54899 -0.31707,2.89763v2.35744l0.35523,0.57835c1.18019,1.91707 3.8635,1.91707 5.04369,0l0.35523,-0.57835v-2.35744c0,-2.34863 0,-2.36038 -0.31707,-2.89763c-0.71633,-1.21835 -2.11964,-1.76441 -3.45543,-1.34753M1427.14077,639.22094c-0.65175,0.2378 -1.23303,0.72808 -1.5912,1.33578c-0.27009,0.45798 -0.31707,0.6723 -0.31413,1.42092c0.00294,1.14496 0.14679,1.40331 1.62643,2.91818c1.42679,1.45909 1.95817,1.84368 2.72441,1.98166c2.09028,0.36991 3.79304,-1.33285 3.42313,-3.42313c-0.14092,-0.78386 -0.52844,-1.3123 -2.04918,-2.78019c-0.9923,-0.95707 -1.42092,-1.29175 -1.85542,-1.43854c-0.67817,-0.23193 -1.36221,-0.23486 -1.96404,-0.01468M1464.64551,639.24149c-0.56074,0.19963 -2.82717,2.28405 -3.4202,3.14717c-1.47083,2.14313 0.38459,4.938 2.97983,4.49176c0.76037,-0.13211 1.30349,-0.52551 2.73029,-1.98459c1.47964,-1.51487 1.62349,-1.77322 1.62643,-2.91818c0.00294,-0.74863 -0.04404,-0.96294 -0.31413,-1.42092c-0.74569,-1.26826 -2.21652,-1.80551 -3.60222,-1.31523M1444.62341,646.27271c-3.20295,0.49908 -6.04773,2.00515 -8.38462,4.43892c-1.93469,2.01689 -3.12368,4.31268 -3.74901,7.23672c-0.32,1.509 -0.28771,4.50937 0.06459,5.92736c0.93358,3.76662 2.88001,6.70828 5.83048,8.81618c1.20661,0.86019 1.83193,1.13028 2.64221,1.13615c2.39561,0.02349 3.81946,-2.84478 2.31634,-4.66497c-0.19376,-0.23486 -0.76331,-0.71633 -1.26826,-1.07156c-2.85946,-2.00221 -4.31855,-5.20809 -3.86937,-8.49911c0.40514,-2.96221 2.1901,-5.44589 4.84699,-6.74351c1.30349,-0.63707 2.15487,-0.81909 3.84589,-0.82202c1.72331,-0.00294 2.52478,0.17908 3.93396,0.88954c1.48845,0.75156 2.39267,1.55303 3.36735,2.97689c0.95413,1.3945 1.52955,1.80258 2.70093,1.90826c0.60184,0.05578 0.77211,0.01761 1.41799,-0.30826c0.86019,-0.43156 1.30936,-0.96588 1.57358,-1.87303c0.31119,-1.07156 0.09395,-1.76147 -1.08037,-3.42607c-0.73395,-1.04514 -2.52772,-2.82423 -3.52001,-3.49066c-3.16772,-2.12845 -6.99599,-3.00331 -10.66866,-2.43083M1472.42535,649.18208c-0.6811,0.22606 -1.29175,0.72514 -1.66459,1.35634c-0.27009,0.45798 -0.31707,0.67523 -0.31707,1.42973c0,0.78679 0.0411,0.95707 0.35523,1.4679c0.44918,0.72808 1.28588,1.30643 2.0257,1.39744c1.16257,0.14385 1.77615,0.31707 2.18129,0.62532c1.72625,1.29762 1.59413,3.84001 -0.25835,4.92919l-0.54606,0.32l-8.1615,0.05872c-6.17103,0.04404 -8.24077,0.09395 -8.49324,0.20551c-0.58422,0.25835 -1.13909,0.75743 -1.46496,1.30936c-0.26716,0.45798 -0.31707,0.67523 -0.31707,1.42092c0,0.7545 0.04697,0.96 0.33174,1.44441c0.37872,0.64294 1.08331,1.20074 1.74386,1.37982c0.29945,0.07927 3.27928,0.10862 8.81912,0.08514l8.36407,-0.03523l0.82202,-0.27596c2.9035,-0.96588 5.05543,-3.1413 5.94791,-6.00369c0.39633,-1.27413 0.39633,-3.658 0,-4.93213c-0.89542,-2.88001 -3.16478,-5.15525 -5.93911,-5.95966c-1.17432,-0.33762 -2.76258,-0.4433 -3.429,-0.22312M1419.58111,657.99826c-0.6723,0.21138 -1.28881,0.71046 -1.66459,1.34753c-0.26716,0.45798 -0.31707,0.67523 -0.31707,1.42092c0,0.75156 0.04697,0.96294 0.32587,1.4356c0.36697,0.62532 0.93358,1.10092 1.58239,1.33285c0.61064,0.21725 4.26277,0.21725 4.87341,0c0.64881,-0.23193 1.21542,-0.70753 1.58239,-1.33285c0.2789,-0.47266 0.32587,-0.68404 0.32587,-1.4356c0,-0.74569 -0.04991,-0.96294 -0.31707,-1.42092c-0.38752,-0.65468 -0.99523,-1.13909 -1.70863,-1.3534c-0.70459,-0.21138 -3.99855,-0.20844 -4.68259,0.00587M1448.93902,669.73849c-0.67523,0.21431 -1.28881,0.7134 -1.66459,1.35046c-0.26716,0.45798 -0.31707,0.67523 -0.31707,1.42092c0,0.75156 0.04697,0.96294 0.32587,1.4356c0.36697,0.62532 0.93358,1.10092 1.58239,1.33285c0.35229,0.12624 2.26643,0.15853 9.66756,0.16147c10.46903,0.00587 10.03747,-0.02936 10.96224,0.89542c0.80147,0.80441 1.05688,1.80845 0.72808,2.89763c-0.21431,0.70753 -0.69578,1.32111 -1.33578,1.69689c-0.4433,0.25835 -0.71927,0.31707 -1.84955,0.38752c-1.14202,0.07046 -1.40331,0.12624 -1.86423,0.39633c-0.93945,0.55193 -1.48257,1.49432 -1.48257,2.58056c0,1.21835 0.96,2.46313 2.149,2.789c0.75743,0.20551 3.12955,0.06459 4.13359,-0.24954c2.83597,-0.88367 5.05543,-3.11487 5.94791,-5.98608c0.39633,-1.27413 0.39633,-3.658 0,-4.93213c-0.88367,-2.83597 -3.00625,-4.99672 -5.86865,-5.97433l-0.90129,-0.30826l-9.86426,-0.02349c-7.86792,-0.02055 -9.96114,0.00587 -10.34866,0.12917M1428.94041,674.86438c-0.61945,0.28184 -2.9446,2.51891 -3.37322,3.24698c-0.79854,1.3534 -0.29945,3.17065 1.09799,3.98974c0.48441,0.28477 0.68991,0.33174 1.44441,0.33174c0.74276,0 0.96294,-0.04991 1.40918,-0.31413c0.78092,-0.46092 3.00038,-2.76552 3.28515,-3.41139c0.86899,-1.96404 -0.50202,-4.08956 -2.6334,-4.08075c-0.45505,0 -0.89542,0.08807 -1.2301,0.2378M1446.00323,681.48459c-0.6723,0.21138 -1.28881,0.71046 -1.66459,1.34753c-0.31707,0.53725 -0.31707,0.54899 -0.31707,2.89763v2.35744l0.35523,0.57835c1.18019,1.91707 3.8635,1.91707 5.04369,0l0.35523,-0.57835v-2.35744c0,-2.34863 0,-2.36038 -0.31707,-2.89763c-0.71633,-1.21835 -2.11964,-1.76441 -3.45543,-1.34753" className="SFSymbolsPreviewWireframe"/></g>
  <g id="Ultralight-S"><path d="M555.86964,631.57614c-0.6723,0.21138 -1.28881,0.71046 -1.66459,1.34753c-0.31707,0.53725 -0.31707,0.54899 -0.31707,2.89763v2.35744l0.35523,0.57835c1.18019,1.91707 3.8635,1.91707 5.04369,0l0.35523,-0.57835v-2.35744c0,-2.34863 0,-2.36038 -0.31707,-2.89763c-0.71633,-1.21835 -2.11964,-1.76441 -3.45543,-1.34753M537.00718,639.22094c-0.65175,0.2378 -1.23303,0.72808 -1.5912,1.33578c-0.27009,0.45798 -0.31707,0.6723 -0.31413,1.42092c0.00294,1.14496 0.14679,1.40331 1.62643,2.91818c1.42679,1.45909 1.95817,1.84368 2.72441,1.98166c2.09028,0.36991 3.79304,-1.33285 3.42313,-3.42313c-0.14092,-0.78386 -0.52844,-1.3123 -2.04918,-2.78019c-0.9923,-0.95707 -1.42092,-1.29175 -1.85542,-1.43854c-0.67817,-0.23193 -1.36221,-0.23486 -1.96404,-0.01468M574.51191,639.24149c-0.56074,0.19963 -2.82717,2.28405 -3.4202,3.14717c-1.47083,2.14313 0.38459,4.938 2.97983,4.49176c0.76037,-0.13211 1.30349,-0.52551 2.73029,-1.98459c1.47964,-1.51487 1.62349,-1.77322 1.62643,-2.91818c0.00294,-0.74863 -0.04404,-0.96294 -0.31413,-1.42092c-0.74569,-1.26826 -2.21652,-1.80551 -3.60222,-1.31523M554.48982,646.27271c-3.20295,0.49908 -6.04773,2.00515 -8.38462,4.43892c-1.93469,2.01689 -3.12368,4.31268 -3.74901,7.23672c-0.32,1.509 -0.28771,4.50937 0.06459,5.92736c0.93358,3.76662 2.88001,6.70828 5.83048,8.81618c1.20661,0.86019 1.83193,1.13028 2.64221,1.13615c2.39561,0.02349 3.81946,-2.84478 2.31634,-4.66497c-0.19376,-0.23486 -0.76331,-0.71633 -1.26826,-1.07156c-2.85946,-2.00221 -4.31855,-5.20809 -3.86937,-8.49911c0.40514,-2.96221 2.1901,-5.44589 4.84699,-6.74351c1.30349,-0.63707 2.15487,-0.81909 3.84589,-0.82202c1.72331,-0.00294 2.52478,0.17908 3.93396,0.88954c1.48845,0.75156 2.39267,1.55303 3.36735,2.97689c0.95413,1.3945 1.52955,1.80258 2.70093,1.90826c0.60184,0.05578 0.77211,0.01761 1.41799,-0.30826c0.86019,-0.43156 1.30936,-0.96588 1.57358,-1.87303c0.31119,-1.07156 0.09395,-1.76147 -1.08037,-3.42607c-0.73395,-1.04514 -2.52772,-2.82423 -3.52001,-3.49066c-3.16772,-2.12845 -6.99599,-3.00331 -10.66866,-2.43083M582.29176,649.18208c-0.6811,0.22606 -1.29175,0.72514 -1.66459,1.35634c-0.27009,0.45798 -0.31707,0.67523 -0.31707,1.42973c0,0.78679 0.0411,0.95707 0.35523,1.4679c0.44918,0.72808 1.28588,1.30643 2.0257,1.39744c1.16257,0.14385 1.77615,0.31707 2.18129,0.62532c1.72625,1.29762 1.59413,3.84001 -0.25835,4.92919l-0.54606,0.32l-8.1615,0.05872c-6.17103,0.04404 -8.24077,0.09395 -8.49324,0.20551c-0.58422,0.25835 -1.13909,0.75743 -1.46496,1.30936c-0.26716,0.45798 -0.31707,0.67523 -0.31707,1.42092c0,0.7545 0.04697,0.96 0.33174,1.44441c0.37872,0.64294 1.08331,1.20074 1.74386,1.37982c0.29945,0.07927 3.27928,0.10862 8.81912,0.08514l8.36407,-0.03523l0.82202,-0.27596c2.9035,-0.96588 5.05543,-3.1413 5.94791,-6.00369c0.39633,-1.27413 0.39633,-3.658 0,-4.93213c-0.89542,-2.88001 -3.16478,-5.15525 -5.93911,-5.95966c-1.17432,-0.33762 -2.76258,-0.4433 -3.429,-0.22312M529.44752,657.99826c-0.6723,0.21138 -1.28881,0.71046 -1.66459,1.34753c-0.26716,0.45798 -0.31707,0.67523 -0.31707,1.42092c0,0.75156 0.04697,0.96294 0.32587,1.4356c0.36697,0.62532 0.93358,1.10092 1.58239,1.33285c0.61064,0.21725 4.26277,0.21725 4.87341,0c0.64881,-0.23193 1.21542,-0.70753 1.58239,-1.33285c0.2789,-0.47266 0.32587,-0.68404 0.32587,-1.4356c0,-0.74569 -0.04991,-0.96294 -0.31707,-1.42092c-0.38752,-0.65468 -0.99523,-1.13909 -1.70863,-1.3534c-0.70459,-0.21138 -3.99855,-0.20844 -4.68259,0.00587M558.80543,669.73849c-0.67523,0.21431 -1.28881,0.7134 -1.66459,1.35046c-0.26716,0.45798 -0.31707,0.67523 -0.31707,1.42092c0,0.75156 0.04697,0.96294 0.32587,1.4356c0.36697,0.62532 0.93358,1.10092 1.58239,1.33285c0.35229,0.12624 2.26643,0.15853 9.66756,0.16147c10.46903,0.00587 10.03747,-0.02936 10.96224,0.89542c0.80147,0.80441 1.05688,1.80845 0.72808,2.89763c-0.21431,0.70753 -0.69578,1.32111 -1.33578,1.69689c-0.4433,0.25835 -0.71927,0.31707 -1.84955,0.38752c-1.14202,0.07046 -1.40331,0.12624 -1.86423,0.39633c-0.93945,0.55193 -1.48257,1.49432 -1.48257,2.58056c0,1.21835 0.96,2.46313 2.149,2.789c0.75743,0.20551 3.12955,0.06459 4.13359,-0.24954c2.83597,-0.88367 5.05543,-3.11487 5.94791,-5.98608c0.39633,-1.27413 0.39633,-3.658 0,-4.93213c-0.88367,-2.83597 -3.00625,-4.99672 -5.86865,-5.97433l-0.90129,-0.30826l-9.86426,-0.02349c-7.86792,-0.02055 -9.96114,0.00587 -10.34866,0.12917M538.80682,674.86438c-0.61945,0.28184 -2.9446,2.51891 -3.37322,3.24698c-0.79854,1.3534 -0.29945,3.17065 1.09799,3.98974c0.48441,0.28477 0.68991,0.33174 1.44441,0.33174c0.74276,0 0.96294,-0.04991 1.40918,-0.31413c0.78092,-0.46092 3.00038,-2.76552 3.28515,-3.41139c0.86899,-1.96404 -0.50202,-4.08956 -2.6334,-4.08075c-0.45505,0 -0.89542,0.08807 -1.2301,0.2378M555.86964,681.48459c-0.6723,0.21138 -1.28881,0.71046 -1.66459,1.34753c-0.31707,0.53725 -0.31707,0.54899 -0.31707,2.89763v2.35744l0.35523,0.57835c1.18019,1.91707 3.8635,1.91707 5.04369,0l0.35523,-0.57835v-2.35744c0,-2.34863 0,-2.36038 -0.31707,-2.89763c-0.71633,-1.21835 -2.11964,-1.76441 -3.45543,-1.34753" className="SFSymbolsPreviewWireframe"/></g>
 </g>
</svg>