<?xml version="1.0" encoding="UTF-8"?><!--Generator: https://SymbolKit.app--><!DOCTYPE svg PUBLIC "-//W3C//DTD SVG 1.1//EN" "http://www.w3.org/Graphics/SVG/1.1/DTD/svg11.dtd"><svg xmlns="http://www.w3.org/2000/svg" xmlns:xlink="http://www.w3.org/1999/xlink" version="1.1" viewBox="0 0 3300 2200">
 <!--glyph: "100092", point size: 100.0, font version: "20.0d10e1", template writer version: "138.0.0"-->
 <style>.SFSymbolsPreviewWireframe {fill:none;opacity:1.0;stroke:black;stroke-width:0.5}
</style>
 <g id="Notes">
  <rect height="2200" id="artboard" style="fill:white;opacity:1" width="3300" x="0" y="0"/>
  <line style="fill:none;stroke:black;opacity:1;stroke-width:0.5;" x1="263" x2="3036" y1="292" y2="292"/>
  <text style="stroke:none;fill:black;font-family:sans-serif;font-size:13;font-weight:bold;" transform="matrix(1 0 0 1 263 322)">Weight/Scale Variations</text>
  <text style="stroke:none;fill:black;font-family:sans-serif;font-size:13;text-anchor:middle;" transform="matrix(1 0 0 1 559.711 322)">Ultralight</text>
  <text style="stroke:none;fill:black;font-family:sans-serif;font-size:13;text-anchor:middle;" transform="matrix(1 0 0 1 856.422 322)">Thin</text>
  <text style="stroke:none;fill:black;font-family:sans-serif;font-size:13;text-anchor:middle;" transform="matrix(1 0 0 1 1153.13 322)">Light</text>
  <text style="stroke:none;fill:black;font-family:sans-serif;font-size:13;text-anchor:middle;" transform="matrix(1 0 0 1 1449.84 322)">Regular</text>
  <text style="stroke:none;fill:black;font-family:sans-serif;font-size:13;text-anchor:middle;" transform="matrix(1 0 0 1 1746.56 322)">Medium</text>
  <text style="stroke:none;fill:black;font-family:sans-serif;font-size:13;text-anchor:middle;" transform="matrix(1 0 0 1 2043.27 322)">Semibold</text>
  <text style="stroke:none;fill:black;font-family:sans-serif;font-size:13;text-anchor:middle;" transform="matrix(1 0 0 1 2339.98 322)">Bold</text>
  <text style="stroke:none;fill:black;font-family:sans-serif;font-size:13;text-anchor:middle;" transform="matrix(1 0 0 1 2636.69 322)">Heavy</text>
  <text style="stroke:none;fill:black;font-family:sans-serif;font-size:13;text-anchor:middle;" transform="matrix(1 0 0 1 2933.4 322)">Black</text>
  <line style="fill:none;stroke:black;opacity:1;stroke-width:0.5;" x1="263" x2="3036" y1="1903" y2="1903"/>
  <g transform="matrix(0.2 0 0 0.2 263 1933)">
   <path d="m46.2402 4.15039c21.7773 0 39.4531-17.627 39.4531-39.4043s-17.6758-39.4043-39.4531-39.4043c-21.7285 0-39.4043 17.627-39.4043 39.4043s17.6758 39.4043 39.4043 39.4043Zm0-7.42188c-17.6758 0-31.9336-14.3066-31.9336-31.9824s14.2578-31.9824 31.9336-31.9824 31.9824 14.3066 31.9824 31.9824-14.3066 31.9824-31.9824 31.9824Zm-17.9688-31.9824c0 2.14844 1.51367 3.61328 3.75977 3.61328h10.498v10.5957c0 2.19727 1.46484 3.71094 3.61328 3.71094 2.24609 0 3.71094-1.51367 3.71094-3.71094v-10.5957h10.5957c2.19727 0 3.71094-1.46484 3.71094-3.61328 0-2.19727-1.51367-3.71094-3.71094-3.71094h-10.5957v-10.5469c0-2.24609-1.46484-3.75977-3.71094-3.75977-2.14844 0-3.61328 1.51367-3.61328 3.75977v10.5469h-10.498c-2.24609 0-3.75977 1.51367-3.75977 3.71094Z"/>
  </g>
  <g transform="matrix(0.2 0 0 0.2 281.506 1933)">
   <path d="m58.5449 14.5508c27.4902 0 49.8047-22.3145 49.8047-49.8047s-22.3145-49.8047-49.8047-49.8047-49.8047 22.3145-49.8047 49.8047 22.3145 49.8047 49.8047 49.8047Zm0-8.30078c-22.9492 0-41.5039-18.5547-41.5039-41.5039s18.5547-41.5039 41.5039-41.5039 41.5039 18.5547 41.5039 41.5039-18.5547 41.5039-41.5039 41.5039Zm-22.6562-41.5039c0 2.39258 1.66016 4.00391 4.15039 4.00391h14.3555v14.4043c0 2.44141 1.66016 4.15039 4.05273 4.15039 2.44141 0 4.15039-1.66016 4.15039-4.15039v-14.4043h14.4043c2.44141 0 4.15039-1.61133 4.15039-4.00391 0-2.44141-1.70898-4.15039-4.15039-4.15039h-14.4043v-14.3555c0-2.49023-1.70898-4.19922-4.15039-4.19922-2.39258 0-4.05273 1.70898-4.05273 4.19922v14.3555h-14.3555c-2.49023 0-4.15039 1.70898-4.15039 4.15039Z"/>
  </g>
  <g transform="matrix(0.2 0 0 0.2 304.924 1933)">
   <path d="m74.8535 28.3203c35.1074 0 63.623-28.4668 63.623-63.5742s-28.5156-63.623-63.623-63.623-63.5742 28.5156-63.5742 63.623 28.4668 63.5742 63.5742 63.5742Zm0-9.08203c-30.127 0-54.4922-24.3652-54.4922-54.4922s24.3652-54.4922 54.4922-54.4922 54.4922 24.3652 54.4922 54.4922-24.3652 54.4922-54.4922 54.4922Zm-28.8574-54.4922c0 2.58789 1.85547 4.39453 4.58984 4.39453h19.7266v19.7754c0 2.68555 1.85547 4.58984 4.44336 4.58984 2.68555 0 4.54102-1.85547 4.54102-4.58984v-19.7754h19.7754c2.68555 0 4.58984-1.80664 4.58984-4.39453 0-2.73438-1.85547-4.58984-4.58984-4.58984h-19.7754v-19.7266c0-2.73438-1.85547-4.63867-4.54102-4.63867-2.58789 0-4.44336 1.9043-4.44336 4.63867v19.7266h-19.7266c-2.73438 0-4.58984 1.85547-4.58984 4.58984Z"/>
  </g>
  <text style="stroke:none;fill:black;font-family:sans-serif;font-size:13;font-weight:bold;" transform="matrix(1 0 0 1 263 1953)">Design Variations</text>
  <text style="stroke:none;fill:black;font-family:sans-serif;font-size:13;" transform="matrix(1 0 0 1 263 1971)">Symbols are supported in up to nine weights and three scales.</text>
  <text style="stroke:none;fill:black;font-family:sans-serif;font-size:13;" transform="matrix(1 0 0 1 263 1989)">For optimal layout with text and other symbols, vertically align</text>
  <text style="stroke:none;fill:black;font-family:sans-serif;font-size:13;" transform="matrix(1 0 0 1 263 2007)">symbols with the adjacent text.</text>
  <line style="fill:none;stroke:#00AEEF;stroke-width:0.5;opacity:1.0;" x1="776" x2="776" y1="1919" y2="1933"/>
  <g transform="matrix(0.2 0 0 0.2 776 1933)">
   <path d="m16.5527 0.78125c2.58789 0 3.85742-0.976562 4.78516-3.71094l6.29883-17.2363h28.8086l6.29883 17.2363c0.927734 2.73438 2.19727 3.71094 4.73633 3.71094 2.58789 0 4.24805-1.5625 4.24805-4.00391 0-0.830078-0.146484-1.61133-0.537109-2.63672l-22.9004-60.9863c-1.12305-2.97852-3.125-4.49219-6.25-4.49219-3.02734 0-5.07812 1.46484-6.15234 4.44336l-22.9004 61.084c-0.390625 1.02539-0.537109 1.80664-0.537109 2.63672 0 2.44141 1.5625 3.95508 4.10156 3.95508Zm13.4766-28.3691 11.8652-32.8613h0.244141l11.8652 32.8613Z"/>
  </g>
  <line style="fill:none;stroke:#00AEEF;stroke-width:0.5;opacity:1.0;" x1="792.836" x2="792.836" y1="1919" y2="1933"/>
  <text style="stroke:none;fill:black;font-family:sans-serif;font-size:13;font-weight:bold;" transform="matrix(1 0 0 1 776 1953)">Margins</text>
  <text style="stroke:none;fill:black;font-family:sans-serif;font-size:13;" transform="matrix(1 0 0 1 776 1971)">Leading and trailing margins on the left and right side of each symbol</text>
  <text style="stroke:none;fill:black;font-family:sans-serif;font-size:13;" transform="matrix(1 0 0 1 776 1989)">can be adjusted by modifying the x-location of the margin guidelines.</text>
  <text style="stroke:none;fill:black;font-family:sans-serif;font-size:13;" transform="matrix(1 0 0 1 776 2007)">Modifications are automatically applied proportionally to all</text>
  <text style="stroke:none;fill:black;font-family:sans-serif;font-size:13;" transform="matrix(1 0 0 1 776 2025)">scales and weights.</text>
  <g transform="matrix(0.2 0 0 0.2 1289 1933)">
   <path d="m14.209 9.32617 8.49609 8.54492c4.29688 4.3457 9.22852 4.05273 13.8672-1.07422l53.4668-58.9355-4.83398-4.88281-53.0762 58.3984c-1.75781 2.00195-3.41797 2.49023-5.76172 0.146484l-5.85938-5.81055c-2.34375-2.29492-1.80664-4.00391 0.195312-5.81055l57.373-54.0039-4.88281-4.83398-57.959 54.4434c-4.93164 4.58984-5.32227 9.47266-1.02539 13.8184Zm32.0801-90.9668c-2.09961 2.05078-2.24609 4.93164-1.07422 6.88477 1.17188 1.80664 3.4668 2.97852 6.68945 2.14844 7.32422-1.70898 14.9414-2.00195 22.0703 2.68555l-2.92969 7.27539c-1.70898 4.15039-0.830078 7.08008 1.85547 9.81445l11.4746 11.5723c2.44141 2.44141 4.49219 2.53906 7.32422 2.05078l5.32227-0.976562 3.32031 3.36914-0.195312 2.7832c-0.195312 2.49023 0.439453 4.39453 2.88086 6.78711l3.80859 3.71094c2.39258 2.39258 5.46875 2.53906 7.8125 0.195312l14.5508-14.5996c2.34375-2.34375 2.24609-5.32227-0.146484-7.71484l-3.85742-3.80859c-2.39258-2.39258-4.24805-3.17383-6.64062-2.97852l-2.88086 0.244141-3.22266-3.17383 1.2207-5.61523c0.634766-2.83203-0.146484-5.0293-3.07617-7.95898l-10.9863-10.9375c-16.6992-16.6016-38.8672-16.2109-53.3203-1.75781Zm7.4707 1.85547c12.1582-8.88672 28.6133-7.37305 39.7461 3.75977l12.1582 12.0605c1.17188 1.17188 1.36719 2.09961 1.02539 3.80859l-1.61133 7.42188 7.51953 7.42188 4.93164-0.292969c1.26953-0.0488281 1.66016 0.0488281 2.63672 1.02539l2.88086 2.88086-12.207 12.207-2.88086-2.88086c-0.976562-0.976562-1.12305-1.36719-1.07422-2.68555l0.341797-4.88281-7.4707-7.42188-7.61719 1.26953c-1.61133 0.341797-2.34375 0.195312-3.56445-0.976562l-10.0098-10.0098c-1.26953-1.17188-1.41602-2.00195-0.634766-3.85742l4.39453-10.4492c-7.8125-7.27539-17.9688-10.4004-28.125-7.42188-0.78125 0.195312-1.07422-0.439453-0.439453-0.976562Z"/>
  </g>
  <text style="stroke:none;fill:black;font-family:sans-serif;font-size:13;font-weight:bold;" transform="matrix(1 0 0 1 1289 1953)">Exporting</text>
  <text style="stroke:none;fill:black;font-family:sans-serif;font-size:13;" transform="matrix(1 0 0 1 1289 1971)">Symbols should be outlined when exporting to ensure the</text>
  <text style="stroke:none;fill:black;font-family:sans-serif;font-size:13;" transform="matrix(1 0 0 1 1289 1989)">design is preserved when submitting to Xcode.</text>
  <text id="template-version" style="stroke:none;fill:black;font-family:sans-serif;font-size:13;text-anchor:end;" transform="matrix(1 0 0 1 3036 1933)">Template v.6.0</text>
  <text style="stroke:none;fill:black;font-family:sans-serif;font-size:13;text-anchor:end;" transform="matrix(1 0 0 1 3036 1951)">Requires Xcode 16 or greater</text>
  <text id="descriptive-name" style="stroke:none;fill:black;font-family:sans-serif;font-size:13;text-anchor:end;" transform="matrix(1 0 0 1 3036 1969)">Generated from square</text>
  <text style="stroke:none;fill:black;font-family:sans-serif;font-size:13;text-anchor:end;" transform="matrix(1 0 0 1 3036 1987)">Typeset at 100.0 points</text>
  <text style="stroke:none;fill:black;font-family:sans-serif;font-size:13;" transform="matrix(1 0 0 1 263 726)">Small</text>
  <text style="stroke:none;fill:black;font-family:sans-serif;font-size:13;" transform="matrix(1 0 0 1 263 1156)">Medium</text>
  <text style="stroke:none;fill:black;font-family:sans-serif;font-size:13;" transform="matrix(1 0 0 1 263 1586)">Large</text>
 </g>
 <g id="Guides">
  <g id="H-reference" style="fill:#27AAE1;stroke:none;" transform="matrix(1 0 0 1 339 696)">
   <path d="M0.993654 0L3.63775 0L29.3281-67.1323L30.0303-67.1323L30.0303-70.459L28.1226-70.459ZM11.6885-24.4799L46.9815-24.4799L46.2315-26.7285L12.4385-26.7285ZM55.1196 0L57.7637 0L30.6382-70.459L29.4326-70.459L29.4326-67.1323Z"/>
  </g>
  <line id="Baseline-S" style="fill:none;stroke:#27AAE1;opacity:1;stroke-width:0.5;" x1="263" x2="3036" y1="696" y2="696"/>
  <line id="Capline-S" style="fill:none;stroke:#27AAE1;opacity:1;stroke-width:0.5;" x1="263" x2="3036" y1="625.541" y2="625.541"/>
  <g id="H-reference" style="fill:#27AAE1;stroke:none;" transform="matrix(1 0 0 1 339 1126)">
   <path d="M0.993654 0L3.63775 0L29.3281-67.1323L30.0303-67.1323L30.0303-70.459L28.1226-70.459ZM11.6885-24.4799L46.9815-24.4799L46.2315-26.7285L12.4385-26.7285ZM55.1196 0L57.7637 0L30.6382-70.459L29.4326-70.459L29.4326-67.1323Z"/>
  </g>
  <line id="Baseline-M" style="fill:none;stroke:#27AAE1;opacity:1;stroke-width:0.5;" x1="263" x2="3036" y1="1126" y2="1126"/>
  <line id="Capline-M" style="fill:none;stroke:#27AAE1;opacity:1;stroke-width:0.5;" x1="263" x2="3036" y1="1055.54" y2="1055.54"/>
  <g id="H-reference" style="fill:#27AAE1;stroke:none;" transform="matrix(1 0 0 1 339 1556)">
   <path d="M0.993654 0L3.63775 0L29.3281-67.1323L30.0303-67.1323L30.0303-70.459L28.1226-70.459ZM11.6885-24.4799L46.9815-24.4799L46.2315-26.7285L12.4385-26.7285ZM55.1196 0L57.7637 0L30.6382-70.459L29.4326-70.459L29.4326-67.1323Z"/>
  </g>
  <line id="Baseline-L" style="fill:none;stroke:#27AAE1;opacity:1;stroke-width:0.5;" x1="263" x2="3036" y1="1556" y2="1556"/>
  <line id="Capline-L" style="fill:none;stroke:#27AAE1;opacity:1;stroke-width:0.5;" x1="263" x2="3036" y1="1485.54" y2="1485.54"/>
  <line id="right-margin-Black-S" style="fill:none;stroke:#00AEEF;stroke-width:0.5;opacity:1.0;" x1="2981.3" x2="2981.3" y1="600.785" y2="720.121"/>
  <line id="left-margin-Black-S" style="fill:none;stroke:#00AEEF;stroke-width:0.5;opacity:1.0;" x1="2885.5" x2="2885.5" y1="600.785" y2="720.121"/>
  <line id="right-margin-Regular-S" style="fill:none;stroke:#00AEEF;stroke-width:0.5;opacity:1.0;" x1="1495.18" x2="1495.18" y1="600.785" y2="720.121"/>
  <line id="left-margin-Regular-S" style="fill:none;stroke:#00AEEF;stroke-width:0.5;opacity:1.0;" x1="1404.51" x2="1404.51" y1="600.785" y2="720.121"/>
  <line id="right-margin-Ultralight-S" style="fill:none;stroke:#00AEEF;stroke-width:0.5;opacity:1.0;" x1="603.073" x2="603.073" y1="600.785" y2="720.121"/>
  <line id="left-margin-Ultralight-S" style="fill:none;stroke:#00AEEF;stroke-width:0.5;opacity:1.0;" x1="516.35" x2="516.35" y1="600.785" y2="720.121"/>
 </g>
 <g id="Symbols">
  <g id="Black-S"><path d="M2906.01806,631.59128c-0.65175,0.2378 -1.23303,0.72808 -1.5912,1.33578c-0.27009,0.45798 -0.31707,0.6723 -0.31413,1.42092c0,0.62239 0.06459,1.0011 0.21725,1.29175c0.11743,0.22606 4.90864,5.11415 10.64518,10.86243l10.43087,10.45142l-0.36697,1.05688c-0.34936,0.99817 -0.36697,1.15083 -0.36404,2.75964c0,1.52955 0.03229,1.79964 0.31707,2.64221c0.91303,2.73909 3.03561,4.86167 5.7747,5.7747c0.84257,0.28477 1.11266,0.31707 2.64221,0.31707c1.60881,0.00294 1.76147,-0.01468 2.75964,-0.36404l1.05688,-0.36991l5.28149,5.27562c5.04956,5.04075 5.26974,5.28149 5.04956,5.4547c-0.88954,0.69578 -2.60992,1.72625 -4.10717,2.46019c-2.23414,1.09799 -2.70386,1.58239 -2.84185,2.93873c-0.16147,1.56184 1.00991,2.97689 2.64515,3.19708c1.12441,0.14973 4.70901,-1.61175 7.57434,-3.72552l1.1567,-0.85138l3.07084,3.05616c1.69102,1.68221 3.25873,3.15304 3.48478,3.27341c0.29064,0.15266 0.66642,0.21725 1.29175,0.21725c0.75743,0.00294 0.96,-0.04404 1.44441,-0.32881c0.65175,-0.38165 1.20074,-1.08331 1.38863,-1.77028c0.15853,-0.59303 0.07046,-1.55597 -0.19376,-2.08148c-0.1967,-0.3934 -8.64297,-8.88664 -38.33849,-38.54987c-14.30024,-14.28556 -15.60667,-15.55676 -16.13804,-15.7329c-0.69285,-0.22899 -1.37689,-0.23193 -1.97579,-0.01174M2932.44017,631.58247c-0.66055,0.25541 -1.23597,0.74276 -1.5912,1.34459c-0.27009,0.45798 -0.31707,0.67523 -0.31707,1.42973c0,0.78679 0.0411,0.95707 0.35523,1.4679c0.4345,0.70753 1.28881,1.30643 1.96698,1.38569c0.27303,0.02936 1.26533,0.11156 2.20478,0.17908c2.26349,0.1644 3.76956,0.4756 6.05947,1.25065c2.11377,0.7134 2.71267,0.78092 3.56405,0.39633c1.13909,-0.5167 1.69102,-1.37101 1.69689,-2.6334c0.01174,-1.75854 -0.80441,-2.52184 -3.73139,-3.47598c-2.66863,-0.87193 -5.3725,-1.35634 -8.12333,-1.45615c-1.2712,-0.04697 -1.74386,-0.02055 -2.08441,0.11156M2922.53482,633.58175c-0.87193,0.24073 -2.5101,1.07156 -2.96808,1.50606c-1.56771,1.48551 -0.91303,4.14827 1.189,4.84699c0.82496,0.27596 1.37689,0.17615 2.93286,-0.52844c1.38863,-0.62532 1.87891,-1.00698 2.27524,-1.77028c0.29945,-0.57542 0.29945,-1.89946 0,-2.50423c-0.62826,-1.26533 -2.0756,-1.92001 -3.429,-1.5501M2951.11181,639.34177c-0.65175,0.2378 -1.23303,0.72808 -1.5912,1.33578c-0.27009,0.45798 -0.31707,0.6723 -0.31413,1.42092c0.00294,1.08624 0.12917,1.33872 1.30643,2.61873c1.77322,1.92294 2.97689,3.71084 4.16882,6.18865c0.76037,1.58239 1.08037,2.00515 1.7879,2.36918c1.80551,0.92771 3.9868,-0.27303 4.2657,-2.34863c0.29064,-2.17249 -5.41653,-10.80665 -7.64774,-11.56702c-0.68698,-0.23486 -1.37101,-0.24073 -1.97579,-0.01761M2907.71201,648.0963c-0.8367,0.41688 -1.07744,0.71633 -1.62643,2.02276c-1.22422,2.89763 -2.16955,7.90609 -2.01102,10.64224c0.0411,0.72514 0.12037,1.03046 0.37578,1.46496c1.2712,2.16955 4.45653,1.86423 5.29323,-0.51083c0.09982,-0.2789 0.17908,-0.80734 0.17908,-1.17432c0,-2.25469 0.4756,-4.88222 1.35634,-7.4804c0.7134,-2.11377 0.78092,-2.71267 0.39633,-3.56405c-0.33468,-0.74276 -0.87193,-1.25358 -1.60294,-1.52661c-0.89835,-0.33468 -1.50313,-0.30239 -2.36038,0.12624M2958.86229,658.0134c-1.15377,0.42275 -1.84955,1.36514 -1.92588,2.61579c-0.23486,3.69616 -0.50202,5.20516 -1.39744,7.85031c-0.7134,2.11377 -0.78092,2.71267 -0.39633,3.56405c0.5167,1.13909 1.37101,1.69102 2.6334,1.69689c1.829,0.01174 2.48955,-0.73982 3.56405,-4.05726c0.90716,-2.80368 1.34459,-5.37543 1.35927,-8.03232c0.00881,-1.71157 0,-1.77615 -0.30826,-2.30166c-0.7222,-1.22716 -2.24882,-1.80551 -3.52882,-1.33578M2907.69733,668.30041c-0.5578,0.2789 -0.81615,0.49908 -1.07744,0.90716c-0.36697,0.58129 -0.56954,1.18019 -0.57248,1.68808c-0.00294,1.12734 2.0668,5.07598 3.96332,7.56847c1.15964,1.52074 2.70093,3.1824 3.25579,3.50533c1.38276,0.81321 3.18827,0.32587 4.01616,-1.08331c0.28477,-0.48441 0.33174,-0.68698 0.32881,-1.44441c-0.00294,-1.08918 -0.12917,-1.34166 -1.3123,-2.61873c-1.73799,-1.87597 -2.97396,-3.71378 -4.16295,-6.18865c-0.81028,-1.68514 -1.189,-2.13726 -2.06386,-2.46606c-0.90129,-0.33762 -1.50019,-0.30239 -2.37505,0.13211M2922.13555,682.50377c-1.01285,0.46092 -1.61469,1.29175 -1.72625,2.39561c-0.07633,0.7222 0.09688,1.32698 0.57248,2.0257c0.41395,0.60771 1.3534,1.08331 3.51414,1.77909c2.57175,0.82789 5.01727,1.26826 7.68003,1.38569c1.75854,0.07633 2.27817,-0.02349 3.01212,-0.58129c0.73395,-0.56074 1.09799,-1.34753 1.09799,-2.37212c0,-0.68404 -0.05284,-0.91597 -0.31707,-1.36514c-0.5989,-1.01578 -1.58239,-1.51487 -2.99451,-1.51487c-2.11377,0 -4.68259,-0.47853 -7.27489,-1.35634c-2.11377,-0.7134 -2.71267,-0.78092 -3.56405,-0.39633" className="SFSymbolsPreviewWireframe"/></g>
  <g id="Regular-S"><path d="M1422.46301,631.59128c-0.65175,0.2378 -1.23303,0.72808 -1.5912,1.33578c-0.27009,0.45798 -0.31707,0.6723 -0.31413,1.42092c0,0.62239 0.06459,1.0011 0.21725,1.29175c0.11743,0.22606 4.90864,5.11415 10.64518,10.86243l10.43087,10.45142l-0.36697,1.05688c-0.34936,0.99817 -0.36697,1.15083 -0.36404,2.75964c0,1.52955 0.03229,1.79964 0.31707,2.64221c0.91303,2.73909 3.03561,4.86167 5.7747,5.7747c0.84257,0.28477 1.11266,0.31707 2.64221,0.31707c1.60881,0.00294 1.76147,-0.01468 2.75964,-0.36404l1.05688,-0.36991l5.28149,5.27562c5.04956,5.04075 5.26974,5.28149 5.04956,5.4547c-0.88954,0.69578 -2.60992,1.72625 -4.10717,2.46019c-2.23414,1.09799 -2.70386,1.58239 -2.84185,2.93873c-0.16147,1.56184 1.00991,2.97689 2.64515,3.19708c1.12441,0.14973 4.70901,-1.61175 7.57434,-3.72552l1.1567,-0.85138l3.07084,3.05616c1.69102,1.68221 3.25873,3.15304 3.48478,3.27341c0.29064,0.15266 0.66642,0.21725 1.29175,0.21725c0.75743,0.00294 0.96,-0.04404 1.44441,-0.32881c0.65175,-0.38165 1.20074,-1.08331 1.38863,-1.77028c0.15853,-0.59303 0.07046,-1.55597 -0.19376,-2.08148c-0.1967,-0.3934 -8.64297,-8.88664 -38.33849,-38.54987c-14.30024,-14.28556 -15.60667,-15.55676 -16.13804,-15.7329c-0.69285,-0.22899 -1.37689,-0.23193 -1.97579,-0.01174M1448.88512,631.58247c-0.66055,0.25541 -1.23597,0.74276 -1.5912,1.34459c-0.27009,0.45798 -0.31707,0.67523 -0.31707,1.42973c0,0.78679 0.0411,0.95707 0.35523,1.4679c0.4345,0.70753 1.28881,1.30643 1.96698,1.38569c0.27303,0.02936 1.26533,0.11156 2.20478,0.17908c2.26349,0.1644 3.76956,0.4756 6.05947,1.25065c2.11377,0.7134 2.71267,0.78092 3.56405,0.39633c1.13909,-0.5167 1.69102,-1.37101 1.69689,-2.6334c0.01174,-1.75854 -0.80441,-2.52184 -3.73139,-3.47598c-2.66863,-0.87193 -5.3725,-1.35634 -8.12333,-1.45615c-1.2712,-0.04697 -1.74386,-0.02055 -2.08441,0.11156M1438.97977,633.58175c-0.87193,0.24073 -2.5101,1.07156 -2.96808,1.50606c-1.56771,1.48551 -0.91303,4.14827 1.189,4.84699c0.82496,0.27596 1.37689,0.17615 2.93286,-0.52844c1.38863,-0.62532 1.87891,-1.00698 2.27524,-1.77028c0.29945,-0.57542 0.29945,-1.89946 0,-2.50423c-0.62826,-1.26533 -2.0756,-1.92001 -3.429,-1.5501M1467.55676,639.34177c-0.65175,0.2378 -1.23303,0.72808 -1.5912,1.33578c-0.27009,0.45798 -0.31707,0.6723 -0.31413,1.42092c0.00294,1.08624 0.12917,1.33872 1.30643,2.61873c1.77322,1.92294 2.97689,3.71084 4.16882,6.18865c0.76037,1.58239 1.08037,2.00515 1.7879,2.36918c1.80551,0.92771 3.9868,-0.27303 4.2657,-2.34863c0.29064,-2.17249 -5.41653,-10.80665 -7.64774,-11.56702c-0.68698,-0.23486 -1.37101,-0.24073 -1.97579,-0.01761M1424.15696,648.0963c-0.8367,0.41688 -1.07744,0.71633 -1.62643,2.02276c-1.22422,2.89763 -2.16955,7.90609 -2.01102,10.64224c0.0411,0.72514 0.12037,1.03046 0.37578,1.46496c1.2712,2.16955 4.45653,1.86423 5.29323,-0.51083c0.09982,-0.2789 0.17908,-0.80734 0.17908,-1.17432c0,-2.25469 0.4756,-4.88222 1.35634,-7.4804c0.7134,-2.11377 0.78092,-2.71267 0.39633,-3.56405c-0.33468,-0.74276 -0.87193,-1.25358 -1.60294,-1.52661c-0.89835,-0.33468 -1.50313,-0.30239 -2.36038,0.12624M1475.30724,658.0134c-1.15377,0.42275 -1.84955,1.36514 -1.92588,2.61579c-0.23486,3.69616 -0.50202,5.20516 -1.39744,7.85031c-0.7134,2.11377 -0.78092,2.71267 -0.39633,3.56405c0.5167,1.13909 1.37101,1.69102 2.6334,1.69689c1.829,0.01174 2.48955,-0.73982 3.56405,-4.05726c0.90716,-2.80368 1.34459,-5.37543 1.35927,-8.03232c0.00881,-1.71157 0,-1.77615 -0.30826,-2.30166c-0.7222,-1.22716 -2.24882,-1.80551 -3.52882,-1.33578M1424.14228,668.30041c-0.5578,0.2789 -0.81615,0.49908 -1.07744,0.90716c-0.36697,0.58129 -0.56954,1.18019 -0.57248,1.68808c-0.00294,1.12734 2.0668,5.07598 3.96332,7.56847c1.15964,1.52074 2.70093,3.1824 3.25579,3.50533c1.38276,0.81321 3.18827,0.32587 4.01616,-1.08331c0.28477,-0.48441 0.33174,-0.68698 0.32881,-1.44441c-0.00294,-1.08918 -0.12917,-1.34166 -1.3123,-2.61873c-1.73799,-1.87597 -2.97396,-3.71378 -4.16295,-6.18865c-0.81028,-1.68514 -1.189,-2.13726 -2.06386,-2.46606c-0.90129,-0.33762 -1.50019,-0.30239 -2.37505,0.13211M1438.5805,682.50377c-1.01285,0.46092 -1.61469,1.29175 -1.72625,2.39561c-0.07633,0.7222 0.09688,1.32698 0.57248,2.0257c0.41395,0.60771 1.3534,1.08331 3.51414,1.77909c2.57175,0.82789 5.01727,1.26826 7.68003,1.38569c1.75854,0.07633 2.27817,-0.02349 3.01212,-0.58129c0.73395,-0.56074 1.09799,-1.34753 1.09799,-2.37212c0,-0.68404 -0.05284,-0.91597 -0.31707,-1.36514c-0.5989,-1.01578 -1.58239,-1.51487 -2.99451,-1.51487c-2.11377,0 -4.68259,-0.47853 -7.27489,-1.35634c-2.11377,-0.7134 -2.71267,-0.78092 -3.56405,-0.39633" className="SFSymbolsPreviewWireframe"/></g>
  <g id="Ultralight-S"><path d="M532.32942,631.59128c-0.65175,0.2378 -1.23303,0.72808 -1.5912,1.33578c-0.27009,0.45798 -0.31707,0.6723 -0.31413,1.42092c0,0.62239 0.06459,1.0011 0.21725,1.29175c0.11743,0.22606 4.90864,5.11415 10.64518,10.86243l10.43087,10.45142l-0.36697,1.05688c-0.34936,0.99817 -0.36697,1.15083 -0.36404,2.75964c0,1.52955 0.03229,1.79964 0.31707,2.64221c0.91303,2.73909 3.03561,4.86167 5.7747,5.7747c0.84257,0.28477 1.11266,0.31707 2.64221,0.31707c1.60881,0.00294 1.76147,-0.01468 2.75964,-0.36404l1.05688,-0.36991l5.28149,5.27562c5.04956,5.04075 5.26974,5.28149 5.04956,5.4547c-0.88954,0.69578 -2.60992,1.72625 -4.10717,2.46019c-2.23414,1.09799 -2.70386,1.58239 -2.84185,2.93873c-0.16147,1.56184 1.00991,2.97689 2.64515,3.19708c1.12441,0.14973 4.70901,-1.61175 7.57434,-3.72552l1.1567,-0.85138l3.07084,3.05616c1.69102,1.68221 3.25873,3.15304 3.48478,3.27341c0.29064,0.15266 0.66642,0.21725 1.29175,0.21725c0.75743,0.00294 0.96,-0.04404 1.44441,-0.32881c0.65175,-0.38165 1.20074,-1.08331 1.38863,-1.77028c0.15853,-0.59303 0.07046,-1.55597 -0.19376,-2.08148c-0.1967,-0.3934 -8.64297,-8.88664 -38.33849,-38.54987c-14.30024,-14.28556 -15.60667,-15.55676 -16.13804,-15.7329c-0.69285,-0.22899 -1.37689,-0.23193 -1.97579,-0.01174M558.75153,631.58247c-0.66055,0.25541 -1.23597,0.74276 -1.5912,1.34459c-0.27009,0.45798 -0.31707,0.67523 -0.31707,1.42973c0,0.78679 0.0411,0.95707 0.35523,1.4679c0.4345,0.70753 1.28881,1.30643 1.96698,1.38569c0.27303,0.02936 1.26533,0.11156 2.20478,0.17908c2.26349,0.1644 3.76956,0.4756 6.05947,1.25065c2.11377,0.7134 2.71267,0.78092 3.56405,0.39633c1.13909,-0.5167 1.69102,-1.37101 1.69689,-2.6334c0.01174,-1.75854 -0.80441,-2.52184 -3.73139,-3.47598c-2.66863,-0.87193 -5.3725,-1.35634 -8.12333,-1.45615c-1.2712,-0.04697 -1.74386,-0.02055 -2.08441,0.11156M548.84618,633.58175c-0.87193,0.24073 -2.5101,1.07156 -2.96808,1.50606c-1.56771,1.48551 -0.91303,4.14827 1.189,4.84699c0.82496,0.27596 1.37689,0.17615 2.93286,-0.52844c1.38863,-0.62532 1.87891,-1.00698 2.27524,-1.77028c0.29945,-0.57542 0.29945,-1.89946 0,-2.50423c-0.62826,-1.26533 -2.0756,-1.92001 -3.429,-1.5501M577.42317,639.34177c-0.65175,0.2378 -1.23303,0.72808 -1.5912,1.33578c-0.27009,0.45798 -0.31707,0.6723 -0.31413,1.42092c0.00294,1.08624 0.12917,1.33872 1.30643,2.61873c1.77322,1.92294 2.97689,3.71084 4.16882,6.18865c0.76037,1.58239 1.08037,2.00515 1.7879,2.36918c1.80551,0.92771 3.9868,-0.27303 4.2657,-2.34863c0.29064,-2.17249 -5.41653,-10.80665 -7.64774,-11.56702c-0.68698,-0.23486 -1.37101,-0.24073 -1.97579,-0.01761M534.02337,648.0963c-0.8367,0.41688 -1.07744,0.71633 -1.62643,2.02276c-1.22422,2.89763 -2.16955,7.90609 -2.01102,10.64224c0.0411,0.72514 0.12037,1.03046 0.37578,1.46496c1.2712,2.16955 4.45653,1.86423 5.29323,-0.51083c0.09982,-0.2789 0.17908,-0.80734 0.17908,-1.17432c0,-2.25469 0.4756,-4.88222 1.35634,-7.4804c0.7134,-2.11377 0.78092,-2.71267 0.39633,-3.56405c-0.33468,-0.74276 -0.87193,-1.25358 -1.60294,-1.52661c-0.89835,-0.33468 -1.50312,-0.30239 -2.36038,0.12624M585.17365,658.0134c-1.15377,0.42275 -1.84955,1.36514 -1.92588,2.61579c-0.23486,3.69616 -0.50202,5.20516 -1.39744,7.85031c-0.7134,2.11377 -0.78092,2.71267 -0.39633,3.56405c0.5167,1.13909 1.37101,1.69102 2.6334,1.69689c1.829,0.01174 2.48955,-0.73982 3.56405,-4.05726c0.90716,-2.80368 1.34459,-5.37543 1.35927,-8.03232c0.00881,-1.71157 0,-1.77615 -0.30826,-2.30166c-0.7222,-1.22716 -2.24882,-1.80551 -3.52882,-1.33578M534.00869,668.30041c-0.5578,0.2789 -0.81615,0.49908 -1.07744,0.90716c-0.36697,0.58129 -0.56954,1.18019 -0.57248,1.68808c-0.00294,1.12734 2.0668,5.07598 3.96332,7.56847c1.15964,1.52074 2.70093,3.1824 3.25579,3.50533c1.38276,0.81321 3.18827,0.32587 4.01616,-1.08331c0.28477,-0.48441 0.33174,-0.68698 0.32881,-1.44441c-0.00294,-1.08918 -0.12917,-1.34166 -1.3123,-2.61873c-1.73799,-1.87597 -2.97396,-3.71378 -4.16295,-6.18865c-0.81028,-1.68514 -1.189,-2.13726 -2.06386,-2.46606c-0.90129,-0.33762 -1.50019,-0.30239 -2.37505,0.13211M548.44691,682.50377c-1.01285,0.46092 -1.61469,1.29175 -1.72625,2.39561c-0.07633,0.7222 0.09688,1.32698 0.57248,2.0257c0.41395,0.60771 1.3534,1.08331 3.51414,1.77909c2.57175,0.82789 5.01727,1.26826 7.68003,1.38569c1.75854,0.07633 2.27817,-0.02349 3.01212,-0.58129c0.73395,-0.56074 1.09799,-1.34753 1.09799,-2.37212c0,-0.68404 -0.05284,-0.91597 -0.31707,-1.36514c-0.5989,-1.01578 -1.58239,-1.51487 -2.99451,-1.51487c-2.11377,0 -4.68259,-0.47853 -7.27489,-1.35634c-2.11377,-0.7134 -2.71267,-0.78092 -3.56405,-0.39633" className="SFSymbolsPreviewWireframe"/></g>
 </g>
</svg>