<?xml version="1.0" encoding="UTF-8"?><!--Generator: https://SymbolKit.app--><!DOCTYPE svg PUBLIC "-//W3C//DTD SVG 1.1//EN" "http://www.w3.org/Graphics/SVG/1.1/DTD/svg11.dtd"><svg xmlns="http://www.w3.org/2000/svg" xmlns:xlink="http://www.w3.org/1999/xlink" version="1.1" viewBox="0 0 3300 2200">
 <!--glyph: "100092", point size: 100.0, font version: "20.0d10e1", template writer version: "138.0.0"-->
 <style>.SFSymbolsPreviewWireframe {fill:none;opacity:1.0;stroke:black;stroke-width:0.5}
</style>
 <g id="Notes">
  <rect height="2200" id="artboard" style="fill:white;opacity:1" width="3300" x="0" y="0"/>
  <line style="fill:none;stroke:black;opacity:1;stroke-width:0.5;" x1="263" x2="3036" y1="292" y2="292"/>
  <text style="stroke:none;fill:black;font-family:sans-serif;font-size:13;font-weight:bold;" transform="matrix(1 0 0 1 263 322)">Weight/Scale Variations</text>
  <text style="stroke:none;fill:black;font-family:sans-serif;font-size:13;text-anchor:middle;" transform="matrix(1 0 0 1 559.711 322)">Ultralight</text>
  <text style="stroke:none;fill:black;font-family:sans-serif;font-size:13;text-anchor:middle;" transform="matrix(1 0 0 1 856.422 322)">Thin</text>
  <text style="stroke:none;fill:black;font-family:sans-serif;font-size:13;text-anchor:middle;" transform="matrix(1 0 0 1 1153.13 322)">Light</text>
  <text style="stroke:none;fill:black;font-family:sans-serif;font-size:13;text-anchor:middle;" transform="matrix(1 0 0 1 1449.84 322)">Regular</text>
  <text style="stroke:none;fill:black;font-family:sans-serif;font-size:13;text-anchor:middle;" transform="matrix(1 0 0 1 1746.56 322)">Medium</text>
  <text style="stroke:none;fill:black;font-family:sans-serif;font-size:13;text-anchor:middle;" transform="matrix(1 0 0 1 2043.27 322)">Semibold</text>
  <text style="stroke:none;fill:black;font-family:sans-serif;font-size:13;text-anchor:middle;" transform="matrix(1 0 0 1 2339.98 322)">Bold</text>
  <text style="stroke:none;fill:black;font-family:sans-serif;font-size:13;text-anchor:middle;" transform="matrix(1 0 0 1 2636.69 322)">Heavy</text>
  <text style="stroke:none;fill:black;font-family:sans-serif;font-size:13;text-anchor:middle;" transform="matrix(1 0 0 1 2933.4 322)">Black</text>
  <line style="fill:none;stroke:black;opacity:1;stroke-width:0.5;" x1="263" x2="3036" y1="1903" y2="1903"/>
  <g transform="matrix(0.2 0 0 0.2 263 1933)">
   <path d="m46.2402 4.15039c21.7773 0 39.4531-17.627 39.4531-39.4043s-17.6758-39.4043-39.4531-39.4043c-21.7285 0-39.4043 17.627-39.4043 39.4043s17.6758 39.4043 39.4043 39.4043Zm0-7.42188c-17.6758 0-31.9336-14.3066-31.9336-31.9824s14.2578-31.9824 31.9336-31.9824 31.9824 14.3066 31.9824 31.9824-14.3066 31.9824-31.9824 31.9824Zm-17.9688-31.9824c0 2.14844 1.51367 3.61328 3.75977 3.61328h10.498v10.5957c0 2.19727 1.46484 3.71094 3.61328 3.71094 2.24609 0 3.71094-1.51367 3.71094-3.71094v-10.5957h10.5957c2.19727 0 3.71094-1.46484 3.71094-3.61328 0-2.19727-1.51367-3.71094-3.71094-3.71094h-10.5957v-10.5469c0-2.24609-1.46484-3.75977-3.71094-3.75977-2.14844 0-3.61328 1.51367-3.61328 3.75977v10.5469h-10.498c-2.24609 0-3.75977 1.51367-3.75977 3.71094Z"/>
  </g>
  <g transform="matrix(0.2 0 0 0.2 281.506 1933)">
   <path d="m58.5449 14.5508c27.4902 0 49.8047-22.3145 49.8047-49.8047s-22.3145-49.8047-49.8047-49.8047-49.8047 22.3145-49.8047 49.8047 22.3145 49.8047 49.8047 49.8047Zm0-8.30078c-22.9492 0-41.5039-18.5547-41.5039-41.5039s18.5547-41.5039 41.5039-41.5039 41.5039 18.5547 41.5039 41.5039-18.5547 41.5039-41.5039 41.5039Zm-22.6562-41.5039c0 2.39258 1.66016 4.00391 4.15039 4.00391h14.3555v14.4043c0 2.44141 1.66016 4.15039 4.05273 4.15039 2.44141 0 4.15039-1.66016 4.15039-4.15039v-14.4043h14.4043c2.44141 0 4.15039-1.61133 4.15039-4.00391 0-2.44141-1.70898-4.15039-4.15039-4.15039h-14.4043v-14.3555c0-2.49023-1.70898-4.19922-4.15039-4.19922-2.39258 0-4.05273 1.70898-4.05273 4.19922v14.3555h-14.3555c-2.49023 0-4.15039 1.70898-4.15039 4.15039Z"/>
  </g>
  <g transform="matrix(0.2 0 0 0.2 304.924 1933)">
   <path d="m74.8535 28.3203c35.1074 0 63.623-28.4668 63.623-63.5742s-28.5156-63.623-63.623-63.623-63.5742 28.5156-63.5742 63.623 28.4668 63.5742 63.5742 63.5742Zm0-9.08203c-30.127 0-54.4922-24.3652-54.4922-54.4922s24.3652-54.4922 54.4922-54.4922 54.4922 24.3652 54.4922 54.4922-24.3652 54.4922-54.4922 54.4922Zm-28.8574-54.4922c0 2.58789 1.85547 4.39453 4.58984 4.39453h19.7266v19.7754c0 2.68555 1.85547 4.58984 4.44336 4.58984 2.68555 0 4.54102-1.85547 4.54102-4.58984v-19.7754h19.7754c2.68555 0 4.58984-1.80664 4.58984-4.39453 0-2.73438-1.85547-4.58984-4.58984-4.58984h-19.7754v-19.7266c0-2.73438-1.85547-4.63867-4.54102-4.63867-2.58789 0-4.44336 1.9043-4.44336 4.63867v19.7266h-19.7266c-2.73438 0-4.58984 1.85547-4.58984 4.58984Z"/>
  </g>
  <text style="stroke:none;fill:black;font-family:sans-serif;font-size:13;font-weight:bold;" transform="matrix(1 0 0 1 263 1953)">Design Variations</text>
  <text style="stroke:none;fill:black;font-family:sans-serif;font-size:13;" transform="matrix(1 0 0 1 263 1971)">Symbols are supported in up to nine weights and three scales.</text>
  <text style="stroke:none;fill:black;font-family:sans-serif;font-size:13;" transform="matrix(1 0 0 1 263 1989)">For optimal layout with text and other symbols, vertically align</text>
  <text style="stroke:none;fill:black;font-family:sans-serif;font-size:13;" transform="matrix(1 0 0 1 263 2007)">symbols with the adjacent text.</text>
  <line style="fill:none;stroke:#00AEEF;stroke-width:0.5;opacity:1.0;" x1="776" x2="776" y1="1919" y2="1933"/>
  <g transform="matrix(0.2 0 0 0.2 776 1933)">
   <path d="m16.5527 0.78125c2.58789 0 3.85742-0.976562 4.78516-3.71094l6.29883-17.2363h28.8086l6.29883 17.2363c0.927734 2.73438 2.19727 3.71094 4.73633 3.71094 2.58789 0 4.24805-1.5625 4.24805-4.00391 0-0.830078-0.146484-1.61133-0.537109-2.63672l-22.9004-60.9863c-1.12305-2.97852-3.125-4.49219-6.25-4.49219-3.02734 0-5.07812 1.46484-6.15234 4.44336l-22.9004 61.084c-0.390625 1.02539-0.537109 1.80664-0.537109 2.63672 0 2.44141 1.5625 3.95508 4.10156 3.95508Zm13.4766-28.3691 11.8652-32.8613h0.244141l11.8652 32.8613Z"/>
  </g>
  <line style="fill:none;stroke:#00AEEF;stroke-width:0.5;opacity:1.0;" x1="792.836" x2="792.836" y1="1919" y2="1933"/>
  <text style="stroke:none;fill:black;font-family:sans-serif;font-size:13;font-weight:bold;" transform="matrix(1 0 0 1 776 1953)">Margins</text>
  <text style="stroke:none;fill:black;font-family:sans-serif;font-size:13;" transform="matrix(1 0 0 1 776 1971)">Leading and trailing margins on the left and right side of each symbol</text>
  <text style="stroke:none;fill:black;font-family:sans-serif;font-size:13;" transform="matrix(1 0 0 1 776 1989)">can be adjusted by modifying the x-location of the margin guidelines.</text>
  <text style="stroke:none;fill:black;font-family:sans-serif;font-size:13;" transform="matrix(1 0 0 1 776 2007)">Modifications are automatically applied proportionally to all</text>
  <text style="stroke:none;fill:black;font-family:sans-serif;font-size:13;" transform="matrix(1 0 0 1 776 2025)">scales and weights.</text>
  <g transform="matrix(0.2 0 0 0.2 1289 1933)">
   <path d="m14.209 9.32617 8.49609 8.54492c4.29688 4.3457 9.22852 4.05273 13.8672-1.07422l53.4668-58.9355-4.83398-4.88281-53.0762 58.3984c-1.75781 2.00195-3.41797 2.49023-5.76172 0.146484l-5.85938-5.81055c-2.34375-2.29492-1.80664-4.00391 0.195312-5.81055l57.373-54.0039-4.88281-4.83398-57.959 54.4434c-4.93164 4.58984-5.32227 9.47266-1.02539 13.8184Zm32.0801-90.9668c-2.09961 2.05078-2.24609 4.93164-1.07422 6.88477 1.17188 1.80664 3.4668 2.97852 6.68945 2.14844 7.32422-1.70898 14.9414-2.00195 22.0703 2.68555l-2.92969 7.27539c-1.70898 4.15039-0.830078 7.08008 1.85547 9.81445l11.4746 11.5723c2.44141 2.44141 4.49219 2.53906 7.32422 2.05078l5.32227-0.976562 3.32031 3.36914-0.195312 2.7832c-0.195312 2.49023 0.439453 4.39453 2.88086 6.78711l3.80859 3.71094c2.39258 2.39258 5.46875 2.53906 7.8125 0.195312l14.5508-14.5996c2.34375-2.34375 2.24609-5.32227-0.146484-7.71484l-3.85742-3.80859c-2.39258-2.39258-4.24805-3.17383-6.64062-2.97852l-2.88086 0.244141-3.22266-3.17383 1.2207-5.61523c0.634766-2.83203-0.146484-5.0293-3.07617-7.95898l-10.9863-10.9375c-16.6992-16.6016-38.8672-16.2109-53.3203-1.75781Zm7.4707 1.85547c12.1582-8.88672 28.6133-7.37305 39.7461 3.75977l12.1582 12.0605c1.17188 1.17188 1.36719 2.09961 1.02539 3.80859l-1.61133 7.42188 7.51953 7.42188 4.93164-0.292969c1.26953-0.0488281 1.66016 0.0488281 2.63672 1.02539l2.88086 2.88086-12.207 12.207-2.88086-2.88086c-0.976562-0.976562-1.12305-1.36719-1.07422-2.68555l0.341797-4.88281-7.4707-7.42188-7.61719 1.26953c-1.61133 0.341797-2.34375 0.195312-3.56445-0.976562l-10.0098-10.0098c-1.26953-1.17188-1.41602-2.00195-0.634766-3.85742l4.39453-10.4492c-7.8125-7.27539-17.9688-10.4004-28.125-7.42188-0.78125 0.195312-1.07422-0.439453-0.439453-0.976562Z"/>
  </g>
  <text style="stroke:none;fill:black;font-family:sans-serif;font-size:13;font-weight:bold;" transform="matrix(1 0 0 1 1289 1953)">Exporting</text>
  <text style="stroke:none;fill:black;font-family:sans-serif;font-size:13;" transform="matrix(1 0 0 1 1289 1971)">Symbols should be outlined when exporting to ensure the</text>
  <text style="stroke:none;fill:black;font-family:sans-serif;font-size:13;" transform="matrix(1 0 0 1 1289 1989)">design is preserved when submitting to Xcode.</text>
  <text id="template-version" style="stroke:none;fill:black;font-family:sans-serif;font-size:13;text-anchor:end;" transform="matrix(1 0 0 1 3036 1933)">Template v.6.0</text>
  <text style="stroke:none;fill:black;font-family:sans-serif;font-size:13;text-anchor:end;" transform="matrix(1 0 0 1 3036 1951)">Requires Xcode 16 or greater</text>
  <text id="descriptive-name" style="stroke:none;fill:black;font-family:sans-serif;font-size:13;text-anchor:end;" transform="matrix(1 0 0 1 3036 1969)">Generated from square</text>
  <text style="stroke:none;fill:black;font-family:sans-serif;font-size:13;text-anchor:end;" transform="matrix(1 0 0 1 3036 1987)">Typeset at 100.0 points</text>
  <text style="stroke:none;fill:black;font-family:sans-serif;font-size:13;" transform="matrix(1 0 0 1 263 726)">Small</text>
  <text style="stroke:none;fill:black;font-family:sans-serif;font-size:13;" transform="matrix(1 0 0 1 263 1156)">Medium</text>
  <text style="stroke:none;fill:black;font-family:sans-serif;font-size:13;" transform="matrix(1 0 0 1 263 1586)">Large</text>
 </g>
 <g id="Guides">
  <g id="H-reference" style="fill:#27AAE1;stroke:none;" transform="matrix(1 0 0 1 339 696)">
   <path d="M0.993654 0L3.63775 0L29.3281-67.1323L30.0303-67.1323L30.0303-70.459L28.1226-70.459ZM11.6885-24.4799L46.9815-24.4799L46.2315-26.7285L12.4385-26.7285ZM55.1196 0L57.7637 0L30.6382-70.459L29.4326-70.459L29.4326-67.1323Z"/>
  </g>
  <line id="Baseline-S" style="fill:none;stroke:#27AAE1;opacity:1;stroke-width:0.5;" x1="263" x2="3036" y1="696" y2="696"/>
  <line id="Capline-S" style="fill:none;stroke:#27AAE1;opacity:1;stroke-width:0.5;" x1="263" x2="3036" y1="625.541" y2="625.541"/>
  <g id="H-reference" style="fill:#27AAE1;stroke:none;" transform="matrix(1 0 0 1 339 1126)">
   <path d="M0.993654 0L3.63775 0L29.3281-67.1323L30.0303-67.1323L30.0303-70.459L28.1226-70.459ZM11.6885-24.4799L46.9815-24.4799L46.2315-26.7285L12.4385-26.7285ZM55.1196 0L57.7637 0L30.6382-70.459L29.4326-70.459L29.4326-67.1323Z"/>
  </g>
  <line id="Baseline-M" style="fill:none;stroke:#27AAE1;opacity:1;stroke-width:0.5;" x1="263" x2="3036" y1="1126" y2="1126"/>
  <line id="Capline-M" style="fill:none;stroke:#27AAE1;opacity:1;stroke-width:0.5;" x1="263" x2="3036" y1="1055.54" y2="1055.54"/>
  <g id="H-reference" style="fill:#27AAE1;stroke:none;" transform="matrix(1 0 0 1 339 1556)">
   <path d="M0.993654 0L3.63775 0L29.3281-67.1323L30.0303-67.1323L30.0303-70.459L28.1226-70.459ZM11.6885-24.4799L46.9815-24.4799L46.2315-26.7285L12.4385-26.7285ZM55.1196 0L57.7637 0L30.6382-70.459L29.4326-70.459L29.4326-67.1323Z"/>
  </g>
  <line id="Baseline-L" style="fill:none;stroke:#27AAE1;opacity:1;stroke-width:0.5;" x1="263" x2="3036" y1="1556" y2="1556"/>
  <line id="Capline-L" style="fill:none;stroke:#27AAE1;opacity:1;stroke-width:0.5;" x1="263" x2="3036" y1="1485.54" y2="1485.54"/>
  <line id="right-margin-Black-S" style="fill:none;stroke:#00AEEF;stroke-width:0.5;opacity:1.0;" x1="2981.3" x2="2981.3" y1="600.785" y2="720.121"/>
  <line id="left-margin-Black-S" style="fill:none;stroke:#00AEEF;stroke-width:0.5;opacity:1.0;" x1="2885.5" x2="2885.5" y1="600.785" y2="720.121"/>
  <line id="right-margin-Regular-S" style="fill:none;stroke:#00AEEF;stroke-width:0.5;opacity:1.0;" x1="1495.18" x2="1495.18" y1="600.785" y2="720.121"/>
  <line id="left-margin-Regular-S" style="fill:none;stroke:#00AEEF;stroke-width:0.5;opacity:1.0;" x1="1404.51" x2="1404.51" y1="600.785" y2="720.121"/>
  <line id="right-margin-Ultralight-S" style="fill:none;stroke:#00AEEF;stroke-width:0.5;opacity:1.0;" x1="603.073" x2="603.073" y1="600.785" y2="720.121"/>
  <line id="left-margin-Ultralight-S" style="fill:none;stroke:#00AEEF;stroke-width:0.5;opacity:1.0;" x1="516.35" x2="516.35" y1="600.785" y2="720.121"/>
 </g>
 <g id="Symbols">
  <g id="Black-S"><path d="M2931.9293,628.59431c-3.33506,0.60477 -5.98314,2.95928 -7.00186,6.22388c-0.23486,0.7545 -0.27596,1.11854 -0.27009,2.52478c0.00587,1.52955 0.03229,1.71744 0.37285,2.70093l0.36697,1.05688l-5.83342,5.84222c-4.13653,4.14534 -5.88333,5.82167 -6.00956,5.76883c-0.09688,-0.04404 -0.5989,-0.21138 -1.1156,-0.37285c-0.81028,-0.25541 -1.15964,-0.29651 -2.52478,-0.29651c-1.34459,0 -1.72625,0.04404 -2.52772,0.28771c-2.8213,0.86019 -5.04956,3.1002 -5.94498,5.97433c-0.39633,1.27413 -0.39633,3.658 0,4.93213c0.90129,2.89469 3.109,5.1024 6.00663,6.00663c0.7545,0.23486 1.11854,0.27596 2.52478,0.27009c1.52955,-0.00587 1.71744,-0.03229 2.70093,-0.37285l1.05688,-0.36991l5.83342,5.83635l5.83635,5.83342l-0.36991,1.05688c-0.34055,0.98349 -0.36697,1.17138 -0.37285,2.70093c-0.00587,1.40624 0.03523,1.77028 0.27009,2.52478c0.90422,2.89763 3.11194,5.10534 6.00663,6.00663c1.27413,0.39633 3.658,0.39633 4.93213,0c2.89469,-0.90129 5.1024,-3.109 6.00663,-6.00663c0.23486,-0.7545 0.27596,-1.11854 0.27009,-2.52478c-0.00587,-1.52955 -0.03229,-1.71744 -0.37285,-2.70093l-0.36991,-1.05688l5.83635,-5.83342l5.83342,-5.83635l1.05688,0.36991c0.98349,0.34055 1.17138,0.36697 2.70093,0.37285c1.40624,0.00587 1.77028,-0.03523 2.52478,-0.27009c2.89763,-0.90422 5.10534,-3.11194 6.00663,-6.00663c0.39633,-1.27413 0.39633,-3.658 0,-4.93213c-0.89542,-2.87414 -3.12368,-5.11415 -5.94498,-5.97433c-0.80147,-0.24367 -1.18312,-0.28771 -2.52772,-0.28771c-1.36514,0 -1.7145,0.0411 -2.52478,0.29651c-0.5167,0.16147 -1.01872,0.32881 -1.1156,0.37285c-0.12624,0.05284 -1.87303,-1.62349 -6.00956,-5.76883l-5.83342,-5.84222l0.36697,-1.05688c0.34055,-0.98349 0.36697,-1.17138 0.37285,-2.70093c0.00587,-1.40624 -0.03523,-1.77028 -0.27009,-2.52478c-0.89835,-2.88295 -3.15891,-5.14644 -5.94498,-5.96259c-1.05982,-0.31119 -3.02093,-0.43743 -3.99855,-0.26129M2934.31023,634.52754c1.10973,0.32881 2.0257,1.57652 2.0257,2.75964c0,0.96881 -0.63413,2.04037 -1.51487,2.55707c-0.45798,0.26716 -0.67523,0.31707 -1.42092,0.31707c-0.74569,0 -0.96294,-0.04991 -1.42092,-0.31707c-1.70569,-1.00404 -2.00515,-3.2235 -0.62239,-4.60626c0.81909,-0.81909 1.7967,-1.05395 2.95341,-0.71046M2930.03865,645.44868l0.42569,0.17615v3.38203v3.38203l-0.96881,0.49321c-1.69982,0.86312 -3.1501,2.31634 -3.9868,3.98387l-0.48441,0.96881h-3.38497h-3.38497l-0.18202,-0.4345l-0.18202,-0.43743l5.84516,-5.84516c3.21763,-3.21763 5.85397,-5.8481 5.86277,-5.8481c0.00881,0 0.20551,0.07927 0.44037,0.17908M2943.06476,651.1177l5.84516,5.84516l-0.18202,0.43743l-0.18202,0.4345h-3.38497h-3.38497l-0.48441,-0.96881c-0.8367,-1.66753 -2.28698,-3.12075 -3.9868,-3.98387l-0.96881,-0.49321v-3.38203v-3.38497l0.38165,-0.16734c0.21138,-0.09101 0.40807,-0.17028 0.44037,-0.17615c0.03229,-0.00587 2.68918,2.62166 5.90681,5.83929M2910.8239,658.01387c1.10973,0.32881 2.0257,1.57652 2.0257,2.75964c0,0.96881 -0.63413,2.04037 -1.51487,2.55707c-0.45798,0.26716 -0.67523,0.31707 -1.42092,0.31707c-0.74569,0 -0.96294,-0.04991 -1.42092,-0.31707c-1.70569,-1.00404 -2.00515,-3.2235 -0.62239,-4.60626c0.81909,-0.81909 1.7967,-1.05395 2.95341,-0.71046M2934.31023,658.01387c1.10973,0.32881 2.0257,1.57652 2.0257,2.75964c0,0.96881 -0.63413,2.04037 -1.51487,2.55707c-0.45798,0.26716 -0.67523,0.31707 -1.42092,0.31707c-0.74569,0 -0.96294,-0.04991 -1.42092,-0.31707c-1.70569,-1.00404 -2.00515,-3.2235 -0.62239,-4.60626c0.81909,-0.81909 1.7967,-1.05395 2.95341,-0.71046M2957.79655,658.01387c1.10973,0.32881 2.0257,1.57652 2.0257,2.75964c0,0.96881 -0.63413,2.04037 -1.51487,2.55707c-0.45798,0.26716 -0.67523,0.31707 -1.42092,0.31707c-0.74569,0 -0.96294,-0.04991 -1.42092,-0.31707c-1.70569,-1.00404 -2.00515,-3.2235 -0.62239,-4.60626c0.81909,-0.81909 1.7967,-1.05395 2.95341,-0.71046M2925.50873,664.67518c0.53431,1.06276 1.29468,2.01395 2.33983,2.91524c0.37285,0.32294 1.1156,0.80441 1.64698,1.07156l0.96881,0.48441v3.38497v3.38497l-0.4345,0.18202l-0.43743,0.18202l-5.85103,-5.85103l-5.85103,-5.85103l0.18202,-0.43743l0.18202,-0.4345h3.38497h3.38497l0.48441,0.96881M2948.7279,664.14086l0.18202,0.43743l-5.85103,5.85103l-5.85103,5.85103l-0.43743,-0.18202l-0.4345,-0.18202v-3.38497v-3.38497l0.96881,-0.48441c0.53431,-0.26716 1.27413,-0.74863 1.64698,-1.07156c1.04514,-0.90129 1.80551,-1.85248 2.33983,-2.91524l0.48441,-0.96881h3.38497h3.38497l0.18202,0.4345M2934.31023,681.5002c1.10973,0.32881 2.0257,1.57652 2.0257,2.75964c0,0.96881 -0.63413,2.04037 -1.51487,2.55707c-0.45798,0.26716 -0.67523,0.31707 -1.42092,0.31707c-0.74569,0 -0.96294,-0.04991 -1.42092,-0.31707c-1.70569,-1.00404 -2.00515,-3.2235 -0.62239,-4.60626c0.81909,-0.81909 1.7967,-1.05395 2.95341,-0.71046" className="SFSymbolsPreviewWireframe"/></g>
  <g id="Regular-S"><path d="M1448.37425,628.59431c-3.33506,0.60477 -5.98314,2.95928 -7.00186,6.22388c-0.23486,0.7545 -0.27596,1.11854 -0.27009,2.52478c0.00587,1.52955 0.03229,1.71744 0.37285,2.70093l0.36697,1.05688l-5.83342,5.84222c-4.13653,4.14534 -5.88333,5.82167 -6.00956,5.76883c-0.09688,-0.04404 -0.5989,-0.21138 -1.1156,-0.37285c-0.81028,-0.25541 -1.15964,-0.29651 -2.52478,-0.29651c-1.34459,0 -1.72625,0.04404 -2.52772,0.28771c-2.8213,0.86019 -5.04956,3.1002 -5.94498,5.97433c-0.39633,1.27413 -0.39633,3.658 0,4.93213c0.90129,2.89469 3.109,5.1024 6.00663,6.00663c0.7545,0.23486 1.11854,0.27596 2.52478,0.27009c1.52955,-0.00587 1.71744,-0.03229 2.70093,-0.37285l1.05688,-0.36991l5.83342,5.83635l5.83635,5.83342l-0.36991,1.05688c-0.34055,0.98349 -0.36697,1.17138 -0.37285,2.70093c-0.00587,1.40624 0.03523,1.77028 0.27009,2.52478c0.90422,2.89763 3.11194,5.10534 6.00663,6.00663c1.27413,0.39633 3.658,0.39633 4.93213,0c2.89469,-0.90129 5.1024,-3.109 6.00663,-6.00663c0.23486,-0.7545 0.27596,-1.11854 0.27009,-2.52478c-0.00587,-1.52955 -0.03229,-1.71744 -0.37285,-2.70093l-0.36991,-1.05688l5.83635,-5.83342l5.83342,-5.83635l1.05688,0.36991c0.98349,0.34055 1.17138,0.36697 2.70093,0.37285c1.40624,0.00587 1.77028,-0.03523 2.52478,-0.27009c2.89763,-0.90422 5.10534,-3.11194 6.00663,-6.00663c0.39633,-1.27413 0.39633,-3.658 0,-4.93213c-0.89542,-2.87414 -3.12368,-5.11415 -5.94498,-5.97433c-0.80147,-0.24367 -1.18312,-0.28771 -2.52772,-0.28771c-1.36514,0 -1.7145,0.0411 -2.52478,0.29651c-0.5167,0.16147 -1.01872,0.32881 -1.1156,0.37285c-0.12624,0.05284 -1.87303,-1.62349 -6.00956,-5.76883l-5.83342,-5.84222l0.36697,-1.05688c0.34055,-0.98349 0.36697,-1.17138 0.37285,-2.70093c0.00587,-1.40624 -0.03523,-1.77028 -0.27009,-2.52478c-0.89835,-2.88295 -3.15891,-5.14644 -5.94498,-5.96259c-1.05982,-0.31119 -3.02093,-0.43743 -3.99855,-0.26129M1450.75518,634.52754c1.10973,0.32881 2.0257,1.57652 2.0257,2.75964c0,0.96881 -0.63413,2.04037 -1.51487,2.55707c-0.45798,0.26716 -0.67523,0.31707 -1.42092,0.31707c-0.74569,0 -0.96294,-0.04991 -1.42092,-0.31707c-1.70569,-1.00404 -2.00515,-3.2235 -0.62239,-4.60626c0.81909,-0.81909 1.7967,-1.05395 2.95341,-0.71046M1446.4836,645.44868l0.42569,0.17615v3.38203v3.38203l-0.96881,0.49321c-1.69982,0.86312 -3.1501,2.31634 -3.9868,3.98387l-0.48441,0.96881h-3.38497h-3.38497l-0.18202,-0.4345l-0.18202,-0.43743l5.84516,-5.84516c3.21763,-3.21763 5.85397,-5.8481 5.86277,-5.8481c0.00881,0 0.20551,0.07927 0.44037,0.17908M1459.50971,651.1177l5.84516,5.84516l-0.18202,0.43743l-0.18202,0.4345h-3.38497h-3.38497l-0.48441,-0.96881c-0.8367,-1.66753 -2.28698,-3.12075 -3.9868,-3.98387l-0.96881,-0.49321v-3.38203v-3.38497l0.38165,-0.16734c0.21138,-0.09101 0.40807,-0.17028 0.44037,-0.17615c0.03229,-0.00587 2.68918,2.62166 5.90681,5.83929M1427.26885,658.01387c1.10973,0.32881 2.0257,1.57652 2.0257,2.75964c0,0.96881 -0.63413,2.04037 -1.51487,2.55707c-0.45798,0.26716 -0.67523,0.31707 -1.42092,0.31707c-0.74569,0 -0.96294,-0.04991 -1.42092,-0.31707c-1.70569,-1.00404 -2.00515,-3.2235 -0.62239,-4.60626c0.81909,-0.81909 1.7967,-1.05395 2.95341,-0.71046M1450.75518,658.01387c1.10973,0.32881 2.0257,1.57652 2.0257,2.75964c0,0.96881 -0.63413,2.04037 -1.51487,2.55707c-0.45798,0.26716 -0.67523,0.31707 -1.42092,0.31707c-0.74569,0 -0.96294,-0.04991 -1.42092,-0.31707c-1.70569,-1.00404 -2.00515,-3.2235 -0.62239,-4.60626c0.81909,-0.81909 1.7967,-1.05395 2.95341,-0.71046M1474.24151,658.01387c1.10973,0.32881 2.0257,1.57652 2.0257,2.75964c0,0.96881 -0.63413,2.04037 -1.51487,2.55707c-0.45798,0.26716 -0.67523,0.31707 -1.42092,0.31707c-0.74569,0 -0.96294,-0.04991 -1.42092,-0.31707c-1.70569,-1.00404 -2.00515,-3.2235 -0.62239,-4.60626c0.81909,-0.81909 1.7967,-1.05395 2.95341,-0.71046M1441.95368,664.67518c0.53431,1.06276 1.29468,2.01395 2.33983,2.91524c0.37285,0.32294 1.1156,0.80441 1.64698,1.07156l0.96881,0.48441v3.38497v3.38497l-0.4345,0.18202l-0.43743,0.18202l-5.85103,-5.85103l-5.85103,-5.85103l0.18202,-0.43743l0.18202,-0.4345h3.38497h3.38497l0.48441,0.96881M1465.17285,664.14086l0.18202,0.43743l-5.85103,5.85103l-5.85103,5.85103l-0.43743,-0.18202l-0.4345,-0.18202v-3.38497v-3.38497l0.96881,-0.48441c0.53431,-0.26716 1.27413,-0.74863 1.64698,-1.07156c1.04514,-0.90129 1.80551,-1.85248 2.33983,-2.91524l0.48441,-0.96881h3.38497h3.38497l0.18202,0.4345M1450.75518,681.5002c1.10973,0.32881 2.0257,1.57652 2.0257,2.75964c0,0.96881 -0.63413,2.04037 -1.51487,2.55707c-0.45798,0.26716 -0.67523,0.31707 -1.42092,0.31707c-0.74569,0 -0.96294,-0.04991 -1.42092,-0.31707c-1.70569,-1.00404 -2.00515,-3.2235 -0.62239,-4.60626c0.81909,-0.81909 1.7967,-1.05395 2.95341,-0.71046" className="SFSymbolsPreviewWireframe"/></g>
  <g id="Ultralight-S"><path d="M558.24066,628.59431c-3.33506,0.60477 -5.98314,2.95928 -7.00186,6.22388c-0.23486,0.7545 -0.27596,1.11854 -0.27009,2.52478c0.00587,1.52955 0.03229,1.71744 0.37285,2.70093l0.36697,1.05688l-5.83342,5.84222c-4.13653,4.14534 -5.88333,5.82167 -6.00956,5.76883c-0.09688,-0.04404 -0.5989,-0.21138 -1.1156,-0.37285c-0.81028,-0.25541 -1.15964,-0.29651 -2.52478,-0.29651c-1.34459,0 -1.72625,0.04404 -2.52772,0.28771c-2.8213,0.86019 -5.04956,3.1002 -5.94498,5.97433c-0.39633,1.27413 -0.39633,3.658 0,4.93213c0.90129,2.89469 3.109,5.1024 6.00663,6.00663c0.7545,0.23486 1.11854,0.27596 2.52478,0.27009c1.52955,-0.00587 1.71744,-0.03229 2.70093,-0.37285l1.05688,-0.36991l5.83342,5.83635l5.83635,5.83342l-0.36991,1.05688c-0.34055,0.98349 -0.36697,1.17138 -0.37285,2.70093c-0.00587,1.40624 0.03523,1.77028 0.27009,2.52478c0.90422,2.89763 3.11194,5.10534 6.00663,6.00663c1.27413,0.39633 3.658,0.39633 4.93213,0c2.89469,-0.90129 5.1024,-3.109 6.00663,-6.00663c0.23486,-0.7545 0.27596,-1.11854 0.27009,-2.52478c-0.00587,-1.52955 -0.03229,-1.71744 -0.37285,-2.70093l-0.36991,-1.05688l5.83635,-5.83342l5.83342,-5.83635l1.05688,0.36991c0.98349,0.34055 1.17138,0.36697 2.70093,0.37285c1.40624,0.00587 1.77028,-0.03523 2.52478,-0.27009c2.89763,-0.90422 5.10534,-3.11194 6.00663,-6.00663c0.39633,-1.27413 0.39633,-3.658 0,-4.93213c-0.89542,-2.87414 -3.12368,-5.11415 -5.94498,-5.97433c-0.80147,-0.24367 -1.18312,-0.28771 -2.52772,-0.28771c-1.36514,0 -1.7145,0.0411 -2.52478,0.29651c-0.5167,0.16147 -1.01872,0.32881 -1.1156,0.37285c-0.12624,0.05284 -1.87303,-1.62349 -6.00956,-5.76883l-5.83342,-5.84222l0.36697,-1.05688c0.34055,-0.98349 0.36697,-1.17138 0.37285,-2.70093c0.00587,-1.40624 -0.03523,-1.77028 -0.27009,-2.52478c-0.89835,-2.88295 -3.15891,-5.14644 -5.94498,-5.96259c-1.05982,-0.31119 -3.02093,-0.43743 -3.99855,-0.26129M560.62159,634.52754c1.10973,0.32881 2.0257,1.57652 2.0257,2.75964c0,0.96881 -0.63413,2.04037 -1.51487,2.55707c-0.45798,0.26716 -0.67523,0.31707 -1.42092,0.31707c-0.74569,0 -0.96294,-0.04991 -1.42092,-0.31707c-1.70569,-1.00404 -2.00515,-3.2235 -0.62239,-4.60626c0.81909,-0.81909 1.7967,-1.05395 2.95341,-0.71046M556.35001,645.44868l0.42569,0.17615v3.38203v3.38203l-0.96881,0.49321c-1.69982,0.86312 -3.1501,2.31634 -3.9868,3.98387l-0.48441,0.96881h-3.38497h-3.38497l-0.18202,-0.4345l-0.18202,-0.43743l5.84516,-5.84516c3.21763,-3.21763 5.85397,-5.8481 5.86277,-5.8481c0.00881,0 0.20551,0.07927 0.44037,0.17908M569.37612,651.1177l5.84516,5.84516l-0.18202,0.43743l-0.18202,0.4345h-3.38497h-3.38497l-0.48441,-0.96881c-0.8367,-1.66753 -2.28698,-3.12075 -3.9868,-3.98387l-0.96881,-0.49321v-3.38203v-3.38497l0.38165,-0.16734c0.21138,-0.09101 0.40807,-0.17028 0.44037,-0.17615c0.03229,-0.00587 2.68918,2.62166 5.90681,5.83929M537.13526,658.01387c1.10973,0.32881 2.0257,1.57652 2.0257,2.75964c0,0.96881 -0.63413,2.04037 -1.51487,2.55707c-0.45798,0.26716 -0.67523,0.31707 -1.42092,0.31707c-0.74569,0 -0.96294,-0.04991 -1.42092,-0.31707c-1.70569,-1.00404 -2.00515,-3.2235 -0.62239,-4.60626c0.81909,-0.81909 1.7967,-1.05395 2.95341,-0.71046M560.62159,658.01387c1.10973,0.32881 2.0257,1.57652 2.0257,2.75964c0,0.96881 -0.63413,2.04037 -1.51487,2.55707c-0.45798,0.26716 -0.67523,0.31707 -1.42092,0.31707c-0.74569,0 -0.96294,-0.04991 -1.42092,-0.31707c-1.70569,-1.00404 -2.00515,-3.2235 -0.62239,-4.60626c0.81909,-0.81909 1.7967,-1.05395 2.95341,-0.71046M584.10791,658.01387c1.10973,0.32881 2.0257,1.57652 2.0257,2.75964c0,0.96881 -0.63413,2.04037 -1.51487,2.55707c-0.45798,0.26716 -0.67523,0.31707 -1.42092,0.31707c-0.74569,0 -0.96294,-0.04991 -1.42092,-0.31707c-1.70569,-1.00404 -2.00515,-3.2235 -0.62239,-4.60626c0.81909,-0.81909 1.7967,-1.05395 2.95341,-0.71046M551.82009,664.67518c0.53431,1.06276 1.29468,2.01395 2.33983,2.91524c0.37285,0.32294 1.1156,0.80441 1.64698,1.07156l0.96881,0.48441v3.38497v3.38497l-0.4345,0.18202l-0.43743,0.18202l-5.85103,-5.85103l-5.85103,-5.85103l0.18202,-0.43743l0.18202,-0.4345h3.38497h3.38497l0.48441,0.96881M575.03926,664.14086l0.18202,0.43743l-5.85103,5.85103l-5.85103,5.85103l-0.43743,-0.18202l-0.4345,-0.18202v-3.38497v-3.38497l0.96881,-0.48441c0.53431,-0.26716 1.27413,-0.74863 1.64698,-1.07156c1.04514,-0.90129 1.80551,-1.85248 2.33983,-2.91524l0.48441,-0.96881h3.38497h3.38497l0.18202,0.4345M560.62159,681.5002c1.10973,0.32881 2.0257,1.57652 2.0257,2.75964c0,0.96881 -0.63413,2.04037 -1.51487,2.55707c-0.45798,0.26716 -0.67523,0.31707 -1.42092,0.31707c-0.74569,0 -0.96294,-0.04991 -1.42092,-0.31707c-1.70569,-1.00404 -2.00515,-3.2235 -0.62239,-4.60626c0.81909,-0.81909 1.7967,-1.05395 2.95341,-0.71046" className="SFSymbolsPreviewWireframe"/></g>
 </g>
</svg>