<?xml version="1.0" encoding="UTF-8"?><!--Generator: https://SymbolKit.app--><!DOCTYPE svg PUBLIC "-//W3C//DTD SVG 1.1//EN" "http://www.w3.org/Graphics/SVG/1.1/DTD/svg11.dtd"><svg xmlns="http://www.w3.org/2000/svg" xmlns:xlink="http://www.w3.org/1999/xlink" version="1.1" viewBox="0 0 3300 2200">
 <!--glyph: "100092", point size: 100.0, font version: "20.0d10e1", template writer version: "138.0.0"-->
 <style>.SFSymbolsPreviewWireframe {fill:none;opacity:1.0;stroke:black;stroke-width:0.5}
</style>
 <g id="Notes">
  <rect height="2200" id="artboard" style="fill:white;opacity:1" width="3300" x="0" y="0"/>
  <line style="fill:none;stroke:black;opacity:1;stroke-width:0.5;" x1="263" x2="3036" y1="292" y2="292"/>
  <text style="stroke:none;fill:black;font-family:sans-serif;font-size:13;font-weight:bold;" transform="matrix(1 0 0 1 263 322)">Weight/Scale Variations</text>
  <text style="stroke:none;fill:black;font-family:sans-serif;font-size:13;text-anchor:middle;" transform="matrix(1 0 0 1 559.711 322)">Ultralight</text>
  <text style="stroke:none;fill:black;font-family:sans-serif;font-size:13;text-anchor:middle;" transform="matrix(1 0 0 1 856.422 322)">Thin</text>
  <text style="stroke:none;fill:black;font-family:sans-serif;font-size:13;text-anchor:middle;" transform="matrix(1 0 0 1 1153.13 322)">Light</text>
  <text style="stroke:none;fill:black;font-family:sans-serif;font-size:13;text-anchor:middle;" transform="matrix(1 0 0 1 1449.84 322)">Regular</text>
  <text style="stroke:none;fill:black;font-family:sans-serif;font-size:13;text-anchor:middle;" transform="matrix(1 0 0 1 1746.56 322)">Medium</text>
  <text style="stroke:none;fill:black;font-family:sans-serif;font-size:13;text-anchor:middle;" transform="matrix(1 0 0 1 2043.27 322)">Semibold</text>
  <text style="stroke:none;fill:black;font-family:sans-serif;font-size:13;text-anchor:middle;" transform="matrix(1 0 0 1 2339.98 322)">Bold</text>
  <text style="stroke:none;fill:black;font-family:sans-serif;font-size:13;text-anchor:middle;" transform="matrix(1 0 0 1 2636.69 322)">Heavy</text>
  <text style="stroke:none;fill:black;font-family:sans-serif;font-size:13;text-anchor:middle;" transform="matrix(1 0 0 1 2933.4 322)">Black</text>
  <line style="fill:none;stroke:black;opacity:1;stroke-width:0.5;" x1="263" x2="3036" y1="1903" y2="1903"/>
  <g transform="matrix(0.2 0 0 0.2 263 1933)">
   <path d="m46.2402 4.15039c21.7773 0 39.4531-17.627 39.4531-39.4043s-17.6758-39.4043-39.4531-39.4043c-21.7285 0-39.4043 17.627-39.4043 39.4043s17.6758 39.4043 39.4043 39.4043Zm0-7.42188c-17.6758 0-31.9336-14.3066-31.9336-31.9824s14.2578-31.9824 31.9336-31.9824 31.9824 14.3066 31.9824 31.9824-14.3066 31.9824-31.9824 31.9824Zm-17.9688-31.9824c0 2.14844 1.51367 3.61328 3.75977 3.61328h10.498v10.5957c0 2.19727 1.46484 3.71094 3.61328 3.71094 2.24609 0 3.71094-1.51367 3.71094-3.71094v-10.5957h10.5957c2.19727 0 3.71094-1.46484 3.71094-3.61328 0-2.19727-1.51367-3.71094-3.71094-3.71094h-10.5957v-10.5469c0-2.24609-1.46484-3.75977-3.71094-3.75977-2.14844 0-3.61328 1.51367-3.61328 3.75977v10.5469h-10.498c-2.24609 0-3.75977 1.51367-3.75977 3.71094Z"/>
  </g>
  <g transform="matrix(0.2 0 0 0.2 281.506 1933)">
   <path d="m58.5449 14.5508c27.4902 0 49.8047-22.3145 49.8047-49.8047s-22.3145-49.8047-49.8047-49.8047-49.8047 22.3145-49.8047 49.8047 22.3145 49.8047 49.8047 49.8047Zm0-8.30078c-22.9492 0-41.5039-18.5547-41.5039-41.5039s18.5547-41.5039 41.5039-41.5039 41.5039 18.5547 41.5039 41.5039-18.5547 41.5039-41.5039 41.5039Zm-22.6562-41.5039c0 2.39258 1.66016 4.00391 4.15039 4.00391h14.3555v14.4043c0 2.44141 1.66016 4.15039 4.05273 4.15039 2.44141 0 4.15039-1.66016 4.15039-4.15039v-14.4043h14.4043c2.44141 0 4.15039-1.61133 4.15039-4.00391 0-2.44141-1.70898-4.15039-4.15039-4.15039h-14.4043v-14.3555c0-2.49023-1.70898-4.19922-4.15039-4.19922-2.39258 0-4.05273 1.70898-4.05273 4.19922v14.3555h-14.3555c-2.49023 0-4.15039 1.70898-4.15039 4.15039Z"/>
  </g>
  <g transform="matrix(0.2 0 0 0.2 304.924 1933)">
   <path d="m74.8535 28.3203c35.1074 0 63.623-28.4668 63.623-63.5742s-28.5156-63.623-63.623-63.623-63.5742 28.5156-63.5742 63.623 28.4668 63.5742 63.5742 63.5742Zm0-9.08203c-30.127 0-54.4922-24.3652-54.4922-54.4922s24.3652-54.4922 54.4922-54.4922 54.4922 24.3652 54.4922 54.4922-24.3652 54.4922-54.4922 54.4922Zm-28.8574-54.4922c0 2.58789 1.85547 4.39453 4.58984 4.39453h19.7266v19.7754c0 2.68555 1.85547 4.58984 4.44336 4.58984 2.68555 0 4.54102-1.85547 4.54102-4.58984v-19.7754h19.7754c2.68555 0 4.58984-1.80664 4.58984-4.39453 0-2.73438-1.85547-4.58984-4.58984-4.58984h-19.7754v-19.7266c0-2.73438-1.85547-4.63867-4.54102-4.63867-2.58789 0-4.44336 1.9043-4.44336 4.63867v19.7266h-19.7266c-2.73438 0-4.58984 1.85547-4.58984 4.58984Z"/>
  </g>
  <text style="stroke:none;fill:black;font-family:sans-serif;font-size:13;font-weight:bold;" transform="matrix(1 0 0 1 263 1953)">Design Variations</text>
  <text style="stroke:none;fill:black;font-family:sans-serif;font-size:13;" transform="matrix(1 0 0 1 263 1971)">Symbols are supported in up to nine weights and three scales.</text>
  <text style="stroke:none;fill:black;font-family:sans-serif;font-size:13;" transform="matrix(1 0 0 1 263 1989)">For optimal layout with text and other symbols, vertically align</text>
  <text style="stroke:none;fill:black;font-family:sans-serif;font-size:13;" transform="matrix(1 0 0 1 263 2007)">symbols with the adjacent text.</text>
  <line style="fill:none;stroke:#00AEEF;stroke-width:0.5;opacity:1.0;" x1="776" x2="776" y1="1919" y2="1933"/>
  <g transform="matrix(0.2 0 0 0.2 776 1933)">
   <path d="m16.5527 0.78125c2.58789 0 3.85742-0.976562 4.78516-3.71094l6.29883-17.2363h28.8086l6.29883 17.2363c0.927734 2.73438 2.19727 3.71094 4.73633 3.71094 2.58789 0 4.24805-1.5625 4.24805-4.00391 0-0.830078-0.146484-1.61133-0.537109-2.63672l-22.9004-60.9863c-1.12305-2.97852-3.125-4.49219-6.25-4.49219-3.02734 0-5.07812 1.46484-6.15234 4.44336l-22.9004 61.084c-0.390625 1.02539-0.537109 1.80664-0.537109 2.63672 0 2.44141 1.5625 3.95508 4.10156 3.95508Zm13.4766-28.3691 11.8652-32.8613h0.244141l11.8652 32.8613Z"/>
  </g>
  <line style="fill:none;stroke:#00AEEF;stroke-width:0.5;opacity:1.0;" x1="792.836" x2="792.836" y1="1919" y2="1933"/>
  <text style="stroke:none;fill:black;font-family:sans-serif;font-size:13;font-weight:bold;" transform="matrix(1 0 0 1 776 1953)">Margins</text>
  <text style="stroke:none;fill:black;font-family:sans-serif;font-size:13;" transform="matrix(1 0 0 1 776 1971)">Leading and trailing margins on the left and right side of each symbol</text>
  <text style="stroke:none;fill:black;font-family:sans-serif;font-size:13;" transform="matrix(1 0 0 1 776 1989)">can be adjusted by modifying the x-location of the margin guidelines.</text>
  <text style="stroke:none;fill:black;font-family:sans-serif;font-size:13;" transform="matrix(1 0 0 1 776 2007)">Modifications are automatically applied proportionally to all</text>
  <text style="stroke:none;fill:black;font-family:sans-serif;font-size:13;" transform="matrix(1 0 0 1 776 2025)">scales and weights.</text>
  <g transform="matrix(0.2 0 0 0.2 1289 1933)">
   <path d="m14.209 9.32617 8.49609 8.54492c4.29688 4.3457 9.22852 4.05273 13.8672-1.07422l53.4668-58.9355-4.83398-4.88281-53.0762 58.3984c-1.75781 2.00195-3.41797 2.49023-5.76172 0.146484l-5.85938-5.81055c-2.34375-2.29492-1.80664-4.00391 0.195312-5.81055l57.373-54.0039-4.88281-4.83398-57.959 54.4434c-4.93164 4.58984-5.32227 9.47266-1.02539 13.8184Zm32.0801-90.9668c-2.09961 2.05078-2.24609 4.93164-1.07422 6.88477 1.17188 1.80664 3.4668 2.97852 6.68945 2.14844 7.32422-1.70898 14.9414-2.00195 22.0703 2.68555l-2.92969 7.27539c-1.70898 4.15039-0.830078 7.08008 1.85547 9.81445l11.4746 11.5723c2.44141 2.44141 4.49219 2.53906 7.32422 2.05078l5.32227-0.976562 3.32031 3.36914-0.195312 2.7832c-0.195312 2.49023 0.439453 4.39453 2.88086 6.78711l3.80859 3.71094c2.39258 2.39258 5.46875 2.53906 7.8125 0.195312l14.5508-14.5996c2.34375-2.34375 2.24609-5.32227-0.146484-7.71484l-3.85742-3.80859c-2.39258-2.39258-4.24805-3.17383-6.64062-2.97852l-2.88086 0.244141-3.22266-3.17383 1.2207-5.61523c0.634766-2.83203-0.146484-5.0293-3.07617-7.95898l-10.9863-10.9375c-16.6992-16.6016-38.8672-16.2109-53.3203-1.75781Zm7.4707 1.85547c12.1582-8.88672 28.6133-7.37305 39.7461 3.75977l12.1582 12.0605c1.17188 1.17188 1.36719 2.09961 1.02539 3.80859l-1.61133 7.42188 7.51953 7.42188 4.93164-0.292969c1.26953-0.0488281 1.66016 0.0488281 2.63672 1.02539l2.88086 2.88086-12.207 12.207-2.88086-2.88086c-0.976562-0.976562-1.12305-1.36719-1.07422-2.68555l0.341797-4.88281-7.4707-7.42188-7.61719 1.26953c-1.61133 0.341797-2.34375 0.195312-3.56445-0.976562l-10.0098-10.0098c-1.26953-1.17188-1.41602-2.00195-0.634766-3.85742l4.39453-10.4492c-7.8125-7.27539-17.9688-10.4004-28.125-7.42188-0.78125 0.195312-1.07422-0.439453-0.439453-0.976562Z"/>
  </g>
  <text style="stroke:none;fill:black;font-family:sans-serif;font-size:13;font-weight:bold;" transform="matrix(1 0 0 1 1289 1953)">Exporting</text>
  <text style="stroke:none;fill:black;font-family:sans-serif;font-size:13;" transform="matrix(1 0 0 1 1289 1971)">Symbols should be outlined when exporting to ensure the</text>
  <text style="stroke:none;fill:black;font-family:sans-serif;font-size:13;" transform="matrix(1 0 0 1 1289 1989)">design is preserved when submitting to Xcode.</text>
  <text id="template-version" style="stroke:none;fill:black;font-family:sans-serif;font-size:13;text-anchor:end;" transform="matrix(1 0 0 1 3036 1933)">Template v.6.0</text>
  <text style="stroke:none;fill:black;font-family:sans-serif;font-size:13;text-anchor:end;" transform="matrix(1 0 0 1 3036 1951)">Requires Xcode 16 or greater</text>
  <text id="descriptive-name" style="stroke:none;fill:black;font-family:sans-serif;font-size:13;text-anchor:end;" transform="matrix(1 0 0 1 3036 1969)">Generated from square</text>
  <text style="stroke:none;fill:black;font-family:sans-serif;font-size:13;text-anchor:end;" transform="matrix(1 0 0 1 3036 1987)">Typeset at 100.0 points</text>
  <text style="stroke:none;fill:black;font-family:sans-serif;font-size:13;" transform="matrix(1 0 0 1 263 726)">Small</text>
  <text style="stroke:none;fill:black;font-family:sans-serif;font-size:13;" transform="matrix(1 0 0 1 263 1156)">Medium</text>
  <text style="stroke:none;fill:black;font-family:sans-serif;font-size:13;" transform="matrix(1 0 0 1 263 1586)">Large</text>
 </g>
 <g id="Guides">
  <g id="H-reference" style="fill:#27AAE1;stroke:none;" transform="matrix(1 0 0 1 339 696)">
   <path d="M0.993654 0L3.63775 0L29.3281-67.1323L30.0303-67.1323L30.0303-70.459L28.1226-70.459ZM11.6885-24.4799L46.9815-24.4799L46.2315-26.7285L12.4385-26.7285ZM55.1196 0L57.7637 0L30.6382-70.459L29.4326-70.459L29.4326-67.1323Z"/>
  </g>
  <line id="Baseline-S" style="fill:none;stroke:#27AAE1;opacity:1;stroke-width:0.5;" x1="263" x2="3036" y1="696" y2="696"/>
  <line id="Capline-S" style="fill:none;stroke:#27AAE1;opacity:1;stroke-width:0.5;" x1="263" x2="3036" y1="625.541" y2="625.541"/>
  <g id="H-reference" style="fill:#27AAE1;stroke:none;" transform="matrix(1 0 0 1 339 1126)">
   <path d="M0.993654 0L3.63775 0L29.3281-67.1323L30.0303-67.1323L30.0303-70.459L28.1226-70.459ZM11.6885-24.4799L46.9815-24.4799L46.2315-26.7285L12.4385-26.7285ZM55.1196 0L57.7637 0L30.6382-70.459L29.4326-70.459L29.4326-67.1323Z"/>
  </g>
  <line id="Baseline-M" style="fill:none;stroke:#27AAE1;opacity:1;stroke-width:0.5;" x1="263" x2="3036" y1="1126" y2="1126"/>
  <line id="Capline-M" style="fill:none;stroke:#27AAE1;opacity:1;stroke-width:0.5;" x1="263" x2="3036" y1="1055.54" y2="1055.54"/>
  <g id="H-reference" style="fill:#27AAE1;stroke:none;" transform="matrix(1 0 0 1 339 1556)">
   <path d="M0.993654 0L3.63775 0L29.3281-67.1323L30.0303-67.1323L30.0303-70.459L28.1226-70.459ZM11.6885-24.4799L46.9815-24.4799L46.2315-26.7285L12.4385-26.7285ZM55.1196 0L57.7637 0L30.6382-70.459L29.4326-70.459L29.4326-67.1323Z"/>
  </g>
  <line id="Baseline-L" style="fill:none;stroke:#27AAE1;opacity:1;stroke-width:0.5;" x1="263" x2="3036" y1="1556" y2="1556"/>
  <line id="Capline-L" style="fill:none;stroke:#27AAE1;opacity:1;stroke-width:0.5;" x1="263" x2="3036" y1="1485.54" y2="1485.54"/>
  <line id="right-margin-Black-S" style="fill:none;stroke:#00AEEF;stroke-width:0.5;opacity:1.0;" x1="2981.3" x2="2981.3" y1="600.785" y2="720.121"/>
  <line id="left-margin-Black-S" style="fill:none;stroke:#00AEEF;stroke-width:0.5;opacity:1.0;" x1="2885.5" x2="2885.5" y1="600.785" y2="720.121"/>
  <line id="right-margin-Regular-S" style="fill:none;stroke:#00AEEF;stroke-width:0.5;opacity:1.0;" x1="1495.18" x2="1495.18" y1="600.785" y2="720.121"/>
  <line id="left-margin-Regular-S" style="fill:none;stroke:#00AEEF;stroke-width:0.5;opacity:1.0;" x1="1404.51" x2="1404.51" y1="600.785" y2="720.121"/>
  <line id="right-margin-Ultralight-S" style="fill:none;stroke:#00AEEF;stroke-width:0.5;opacity:1.0;" x1="603.073" x2="603.073" y1="600.785" y2="720.121"/>
  <line id="left-margin-Ultralight-S" style="fill:none;stroke:#00AEEF;stroke-width:0.5;opacity:1.0;" x1="516.35" x2="516.35" y1="600.785" y2="720.121"/>
 </g>
 <g id="Symbols">
  <g id="Black-S"><path d="M2911.84904,634.51924c-0.90716,0.33468 -1.30056,0.78973 -2.06973,2.3868c-2.79194,5.80993 -4.51525,11.87821 -5.16699,18.21952c-0.19083,1.87597 -0.19376,7.11929 0,9.10095c0.62239,6.40883 2.17836,12.60922 4.91745,19.60815c0.65175,1.66166 0.86019,2.06973 1.26533,2.47487c0.52551,0.52551 1.34753,0.87487 2.05505,0.87487c1.64991,0 3.0679,-1.54129 2.90937,-3.15304c-0.02936,-0.29945 -0.35817,-1.3123 -0.73101,-2.24882c-3.49359,-8.80737 -5.04662,-16.95419 -4.64442,-24.37c0.34055,-6.25323 1.71157,-11.50536 4.70607,-18.01401c0.36404,-0.79266 0.63707,-1.56771 0.66936,-1.89652c0.06752,-0.68404 -0.20844,-1.55597 -0.66349,-2.11083c-0.69872,-0.84551 -2.21652,-1.25358 -3.24698,-0.87193M2952.9736,634.53098c-1.17138,0.3611 -2.05212,1.7145 -1.93175,2.97102c0.03229,0.32881 0.30532,1.10386 0.66936,1.89652c2.69506,5.85984 3.96332,10.32811 4.60038,16.19676c0.17615,1.61762 0.17321,6.36186 -0.00294,8.22021c-0.55193,5.79232 -1.94937,11.34977 -4.47415,17.79089c-0.40514,1.0334 -0.76037,2.12551 -0.79266,2.42496c-0.16147,1.61175 1.25945,3.15304 2.90937,3.15304c0.70753,0 1.52955,-0.34936 2.05505,-0.87487c0.40514,-0.40514 0.61358,-0.81321 1.26533,-2.47487c2.73909,-6.99893 4.29213,-13.19051 4.91745,-19.60815c0.19083,-1.95817 0.19083,-7.20443 0,-9.10095c-0.62826,-6.22975 -2.39267,-12.45069 -5.16699,-18.21952c-0.78386,-1.62643 -1.17138,-2.06386 -2.11671,-2.3868c-0.64587,-0.22018 -1.189,-0.21725 -1.93175,0.01174M2923.69789,649.18058c-0.67817,0.22018 -1.29175,0.71927 -1.66459,1.3534c-0.26716,0.45798 -0.31707,0.67523 -0.31707,1.42092c0,0.75156 0.04697,0.96294 0.32587,1.4356c0.36697,0.62532 0.93358,1.10092 1.58239,1.33285c0.28771,0.10275 1.0334,0.15853 2.15781,0.16147l1.7145,0.00587l0.26129,0.61652c0.14385,0.33762 0.73101,1.90533 1.30643,3.48185l1.04221,2.86827l-0.51083,0.7134c-1.80845,2.53359 -4.00148,4.96442 -5.33433,5.91562c-0.88367,0.6312 -1.91414,1.07744 -2.49836,1.08037c-2.469,0.01761 -3.88405,2.7068 -2.46019,4.67378c0.82202,1.13322 2.21359,1.45615 4.18057,0.96881c2.93873,-0.72808 5.48993,-2.5923 8.70462,-6.36479l0.36697,-0.42863l0.26129,0.7222c1.47083,4.05433 2.66863,5.51635 5.0114,6.127c0.89248,0.23486 4.70314,0.2378 5.34901,0.00881c0.64881,-0.23193 1.21542,-0.70753 1.58239,-1.33285c0.2789,-0.47266 0.32587,-0.68404 0.32587,-1.4356c0,-0.74569 -0.04991,-0.96294 -0.31707,-1.42092c-0.69872,-1.189 -1.52661,-1.51487 -3.86057,-1.51487h-1.61762l-0.46973,-1.20367c-0.25835,-0.66055 -0.81028,-2.15487 -1.2301,-3.31744c-0.41688,-1.16257 -0.79266,-2.19304 -0.83083,-2.29285c-0.12917,-0.30826 2.39561,-3.53176 4.09249,-5.22571c2.06093,-2.05212 2.76552,-2.45139 4.78828,-2.70093c0.73982,-0.09101 1.57652,-0.66936 2.0257,-1.39744c0.31413,-0.51083 0.35523,-0.6811 0.35523,-1.4679c0,-0.75743 -0.04697,-0.97175 -0.32,-1.4356c-0.63707,-1.08037 -1.79083,-1.60881 -3.1824,-1.45909c-3.11781,0.33762 -6.2092,2.26643 -9.21838,5.75121l-1.05395,1.22129l-0.26129,-0.7222c-1.30349,-3.62277 -2.469,-5.19341 -4.4213,-5.95672c-0.61652,-0.24073 -0.91597,-0.27303 -3.03267,-0.30532c-1.73212,-0.02642 -2.47487,0.00587 -2.83304,0.1233" className="SFSymbolsPreviewWireframe"/></g>
  <g id="Regular-S"><path d="M1428.29399,634.51924c-0.90716,0.33468 -1.30056,0.78973 -2.06973,2.3868c-2.79194,5.80993 -4.51525,11.87821 -5.16699,18.21952c-0.19083,1.87597 -0.19376,7.11929 0,9.10095c0.62239,6.40883 2.17836,12.60922 4.91745,19.60815c0.65175,1.66166 0.86019,2.06973 1.26533,2.47487c0.52551,0.52551 1.34753,0.87487 2.05505,0.87487c1.64991,0 3.0679,-1.54129 2.90937,-3.15304c-0.02936,-0.29945 -0.35817,-1.3123 -0.73101,-2.24882c-3.49359,-8.80737 -5.04662,-16.95419 -4.64442,-24.37c0.34055,-6.25323 1.71157,-11.50536 4.70607,-18.01401c0.36404,-0.79266 0.63707,-1.56771 0.66936,-1.89652c0.06752,-0.68404 -0.20844,-1.55597 -0.66349,-2.11083c-0.69872,-0.84551 -2.21652,-1.25358 -3.24698,-0.87193M1469.41855,634.53098c-1.17138,0.3611 -2.05212,1.7145 -1.93175,2.97102c0.03229,0.32881 0.30532,1.10386 0.66936,1.89652c2.69506,5.85984 3.96332,10.32811 4.60038,16.19676c0.17615,1.61762 0.17321,6.36186 -0.00294,8.22021c-0.55193,5.79232 -1.94937,11.34977 -4.47415,17.79089c-0.40514,1.0334 -0.76037,2.12551 -0.79266,2.42496c-0.16147,1.61175 1.25945,3.15304 2.90937,3.15304c0.70753,0 1.52955,-0.34936 2.05505,-0.87487c0.40514,-0.40514 0.61358,-0.81321 1.26533,-2.47487c2.73909,-6.99893 4.29213,-13.19051 4.91745,-19.60815c0.19083,-1.95817 0.19083,-7.20443 0,-9.10095c-0.62826,-6.22975 -2.39267,-12.45069 -5.16699,-18.21952c-0.78386,-1.62643 -1.17138,-2.06386 -2.11671,-2.3868c-0.64587,-0.22018 -1.189,-0.21725 -1.93175,0.01174M1440.14284,649.18058c-0.67817,0.22018 -1.29175,0.71927 -1.66459,1.3534c-0.26716,0.45798 -0.31707,0.67523 -0.31707,1.42092c0,0.75156 0.04697,0.96294 0.32587,1.4356c0.36697,0.62532 0.93358,1.10092 1.58239,1.33285c0.28771,0.10275 1.0334,0.15853 2.15781,0.16147l1.7145,0.00587l0.26129,0.61652c0.14385,0.33762 0.73101,1.90533 1.30643,3.48185l1.04221,2.86827l-0.51083,0.7134c-1.80845,2.53359 -4.00148,4.96442 -5.33433,5.91562c-0.88367,0.6312 -1.91414,1.07744 -2.49836,1.08037c-2.469,0.01761 -3.88405,2.7068 -2.46019,4.67378c0.82202,1.13322 2.21359,1.45615 4.18057,0.96881c2.93873,-0.72808 5.48993,-2.5923 8.70462,-6.36479l0.36697,-0.42863l0.26129,0.7222c1.47083,4.05433 2.66863,5.51635 5.0114,6.127c0.89248,0.23486 4.70314,0.2378 5.34901,0.00881c0.64881,-0.23193 1.21542,-0.70753 1.58239,-1.33285c0.2789,-0.47266 0.32587,-0.68404 0.32587,-1.4356c0,-0.74569 -0.04991,-0.96294 -0.31707,-1.42092c-0.69872,-1.189 -1.52661,-1.51487 -3.86057,-1.51487h-1.61762l-0.46973,-1.20367c-0.25835,-0.66055 -0.81028,-2.15487 -1.2301,-3.31744c-0.41688,-1.16257 -0.79266,-2.19304 -0.83083,-2.29285c-0.12917,-0.30826 2.39561,-3.53176 4.09249,-5.22571c2.06093,-2.05212 2.76552,-2.45139 4.78828,-2.70093c0.73982,-0.09101 1.57652,-0.66936 2.0257,-1.39744c0.31413,-0.51083 0.35523,-0.6811 0.35523,-1.4679c0,-0.75743 -0.04697,-0.97175 -0.32,-1.4356c-0.63707,-1.08037 -1.79083,-1.60881 -3.1824,-1.45909c-3.11781,0.33762 -6.2092,2.26643 -9.21838,5.75121l-1.05395,1.22129l-0.26129,-0.7222c-1.30349,-3.62277 -2.469,-5.19341 -4.4213,-5.95672c-0.61652,-0.24073 -0.91597,-0.27303 -3.03267,-0.30532c-1.73212,-0.02642 -2.47487,0.00587 -2.83304,0.1233" className="SFSymbolsPreviewWireframe"/></g>
  <g id="Ultralight-S"><path d="M538.1604,634.51924c-0.90716,0.33468 -1.30056,0.78973 -2.06973,2.3868c-2.79194,5.80993 -4.51525,11.87821 -5.16699,18.21952c-0.19083,1.87597 -0.19376,7.11929 0,9.10095c0.62239,6.40883 2.17836,12.60922 4.91745,19.60815c0.65175,1.66166 0.86019,2.06973 1.26533,2.47487c0.52551,0.52551 1.34753,0.87487 2.05505,0.87487c1.64991,0 3.0679,-1.54129 2.90937,-3.15304c-0.02936,-0.29945 -0.35817,-1.3123 -0.73101,-2.24882c-3.49359,-8.80737 -5.04662,-16.95419 -4.64442,-24.37c0.34055,-6.25323 1.71157,-11.50536 4.70607,-18.01401c0.36404,-0.79266 0.63707,-1.56771 0.66936,-1.89652c0.06752,-0.68404 -0.20844,-1.55597 -0.66349,-2.11083c-0.69872,-0.84551 -2.21652,-1.25358 -3.24698,-0.87193M579.28496,634.53098c-1.17138,0.3611 -2.05212,1.7145 -1.93175,2.97102c0.03229,0.32881 0.30532,1.10386 0.66936,1.89652c2.69506,5.85984 3.96332,10.32811 4.60038,16.19676c0.17615,1.61762 0.17321,6.36186 -0.00294,8.22021c-0.55193,5.79232 -1.94937,11.34977 -4.47415,17.79089c-0.40514,1.0334 -0.76037,2.12551 -0.79266,2.42496c-0.16147,1.61175 1.25945,3.15304 2.90937,3.15304c0.70753,0 1.52955,-0.34936 2.05505,-0.87487c0.40514,-0.40514 0.61358,-0.81321 1.26533,-2.47487c2.73909,-6.99893 4.29213,-13.19051 4.91745,-19.60815c0.19083,-1.95817 0.19083,-7.20443 0,-9.10095c-0.62826,-6.22975 -2.39267,-12.45069 -5.16699,-18.21952c-0.78386,-1.62643 -1.17138,-2.06386 -2.11671,-2.3868c-0.64587,-0.22018 -1.189,-0.21725 -1.93175,0.01174M550.00925,649.18058c-0.67817,0.22018 -1.29175,0.71927 -1.66459,1.3534c-0.26716,0.45798 -0.31707,0.67523 -0.31707,1.42092c0,0.75156 0.04697,0.96294 0.32587,1.4356c0.36697,0.62532 0.93358,1.10092 1.58239,1.33285c0.28771,0.10275 1.0334,0.15853 2.15781,0.16147l1.7145,0.00587l0.26129,0.61652c0.14385,0.33762 0.73101,1.90533 1.30643,3.48185l1.04221,2.86827l-0.51083,0.7134c-1.80845,2.53359 -4.00148,4.96442 -5.33433,5.91562c-0.88367,0.6312 -1.91414,1.07744 -2.49836,1.08037c-2.469,0.01761 -3.88405,2.7068 -2.46019,4.67378c0.82202,1.13322 2.21359,1.45615 4.18057,0.96881c2.93873,-0.72808 5.48993,-2.5923 8.70462,-6.36479l0.36697,-0.42863l0.26129,0.7222c1.47083,4.05433 2.66863,5.51635 5.0114,6.127c0.89248,0.23486 4.70314,0.2378 5.34901,0.00881c0.64881,-0.23193 1.21542,-0.70753 1.58239,-1.33285c0.2789,-0.47266 0.32587,-0.68404 0.32587,-1.4356c0,-0.74569 -0.04991,-0.96294 -0.31707,-1.42092c-0.69872,-1.189 -1.52661,-1.51487 -3.86057,-1.51487h-1.61762l-0.46973,-1.20367c-0.25835,-0.66055 -0.81028,-2.15487 -1.2301,-3.31744c-0.41688,-1.16257 -0.79266,-2.19304 -0.83083,-2.29285c-0.12917,-0.30826 2.39561,-3.53176 4.09249,-5.22571c2.06093,-2.05212 2.76552,-2.45139 4.78828,-2.70093c0.73982,-0.09101 1.57652,-0.66936 2.0257,-1.39744c0.31413,-0.51083 0.35523,-0.6811 0.35523,-1.4679c0,-0.75743 -0.04697,-0.97175 -0.32,-1.4356c-0.63707,-1.08037 -1.79083,-1.60881 -3.1824,-1.45909c-3.11781,0.33762 -6.2092,2.26643 -9.21838,5.75121l-1.05395,1.22129l-0.26129,-0.7222c-1.30349,-3.62277 -2.469,-5.19341 -4.4213,-5.95672c-0.61652,-0.24073 -0.91597,-0.27303 -3.03267,-0.30532c-1.73212,-0.02642 -2.47487,0.00587 -2.83304,0.1233" className="SFSymbolsPreviewWireframe"/></g>
 </g>
</svg>