<?xml version="1.0" encoding="UTF-8"?><!--Generator: https://SymbolKit.app--><!DOCTYPE svg PUBLIC "-//W3C//DTD SVG 1.1//EN" "http://www.w3.org/Graphics/SVG/1.1/DTD/svg11.dtd"><svg xmlns="http://www.w3.org/2000/svg" xmlns:xlink="http://www.w3.org/1999/xlink" version="1.1" viewBox="0 0 3300 2200">
 <!--glyph: "100092", point size: 100.0, font version: "20.0d10e1", template writer version: "138.0.0"-->
 <style>.SFSymbolsPreviewWireframe {fill:none;opacity:1.0;stroke:black;stroke-width:0.5}
</style>
 <g id="Notes">
  <rect height="2200" id="artboard" style="fill:white;opacity:1" width="3300" x="0" y="0"/>
  <line style="fill:none;stroke:black;opacity:1;stroke-width:0.5;" x1="263" x2="3036" y1="292" y2="292"/>
  <text style="stroke:none;fill:black;font-family:sans-serif;font-size:13;font-weight:bold;" transform="matrix(1 0 0 1 263 322)">Weight/Scale Variations</text>
  <text style="stroke:none;fill:black;font-family:sans-serif;font-size:13;text-anchor:middle;" transform="matrix(1 0 0 1 559.711 322)">Ultralight</text>
  <text style="stroke:none;fill:black;font-family:sans-serif;font-size:13;text-anchor:middle;" transform="matrix(1 0 0 1 856.422 322)">Thin</text>
  <text style="stroke:none;fill:black;font-family:sans-serif;font-size:13;text-anchor:middle;" transform="matrix(1 0 0 1 1153.13 322)">Light</text>
  <text style="stroke:none;fill:black;font-family:sans-serif;font-size:13;text-anchor:middle;" transform="matrix(1 0 0 1 1449.84 322)">Regular</text>
  <text style="stroke:none;fill:black;font-family:sans-serif;font-size:13;text-anchor:middle;" transform="matrix(1 0 0 1 1746.56 322)">Medium</text>
  <text style="stroke:none;fill:black;font-family:sans-serif;font-size:13;text-anchor:middle;" transform="matrix(1 0 0 1 2043.27 322)">Semibold</text>
  <text style="stroke:none;fill:black;font-family:sans-serif;font-size:13;text-anchor:middle;" transform="matrix(1 0 0 1 2339.98 322)">Bold</text>
  <text style="stroke:none;fill:black;font-family:sans-serif;font-size:13;text-anchor:middle;" transform="matrix(1 0 0 1 2636.69 322)">Heavy</text>
  <text style="stroke:none;fill:black;font-family:sans-serif;font-size:13;text-anchor:middle;" transform="matrix(1 0 0 1 2933.4 322)">Black</text>
  <line style="fill:none;stroke:black;opacity:1;stroke-width:0.5;" x1="263" x2="3036" y1="1903" y2="1903"/>
  <g transform="matrix(0.2 0 0 0.2 263 1933)">
   <path d="m46.2402 4.15039c21.7773 0 39.4531-17.627 39.4531-39.4043s-17.6758-39.4043-39.4531-39.4043c-21.7285 0-39.4043 17.627-39.4043 39.4043s17.6758 39.4043 39.4043 39.4043Zm0-7.42188c-17.6758 0-31.9336-14.3066-31.9336-31.9824s14.2578-31.9824 31.9336-31.9824 31.9824 14.3066 31.9824 31.9824-14.3066 31.9824-31.9824 31.9824Zm-17.9688-31.9824c0 2.14844 1.51367 3.61328 3.75977 3.61328h10.498v10.5957c0 2.19727 1.46484 3.71094 3.61328 3.71094 2.24609 0 3.71094-1.51367 3.71094-3.71094v-10.5957h10.5957c2.19727 0 3.71094-1.46484 3.71094-3.61328 0-2.19727-1.51367-3.71094-3.71094-3.71094h-10.5957v-10.5469c0-2.24609-1.46484-3.75977-3.71094-3.75977-2.14844 0-3.61328 1.51367-3.61328 3.75977v10.5469h-10.498c-2.24609 0-3.75977 1.51367-3.75977 3.71094Z"/>
  </g>
  <g transform="matrix(0.2 0 0 0.2 281.506 1933)">
   <path d="m58.5449 14.5508c27.4902 0 49.8047-22.3145 49.8047-49.8047s-22.3145-49.8047-49.8047-49.8047-49.8047 22.3145-49.8047 49.8047 22.3145 49.8047 49.8047 49.8047Zm0-8.30078c-22.9492 0-41.5039-18.5547-41.5039-41.5039s18.5547-41.5039 41.5039-41.5039 41.5039 18.5547 41.5039 41.5039-18.5547 41.5039-41.5039 41.5039Zm-22.6562-41.5039c0 2.39258 1.66016 4.00391 4.15039 4.00391h14.3555v14.4043c0 2.44141 1.66016 4.15039 4.05273 4.15039 2.44141 0 4.15039-1.66016 4.15039-4.15039v-14.4043h14.4043c2.44141 0 4.15039-1.61133 4.15039-4.00391 0-2.44141-1.70898-4.15039-4.15039-4.15039h-14.4043v-14.3555c0-2.49023-1.70898-4.19922-4.15039-4.19922-2.39258 0-4.05273 1.70898-4.05273 4.19922v14.3555h-14.3555c-2.49023 0-4.15039 1.70898-4.15039 4.15039Z"/>
  </g>
  <g transform="matrix(0.2 0 0 0.2 304.924 1933)">
   <path d="m74.8535 28.3203c35.1074 0 63.623-28.4668 63.623-63.5742s-28.5156-63.623-63.623-63.623-63.5742 28.5156-63.5742 63.623 28.4668 63.5742 63.5742 63.5742Zm0-9.08203c-30.127 0-54.4922-24.3652-54.4922-54.4922s24.3652-54.4922 54.4922-54.4922 54.4922 24.3652 54.4922 54.4922-24.3652 54.4922-54.4922 54.4922Zm-28.8574-54.4922c0 2.58789 1.85547 4.39453 4.58984 4.39453h19.7266v19.7754c0 2.68555 1.85547 4.58984 4.44336 4.58984 2.68555 0 4.54102-1.85547 4.54102-4.58984v-19.7754h19.7754c2.68555 0 4.58984-1.80664 4.58984-4.39453 0-2.73438-1.85547-4.58984-4.58984-4.58984h-19.7754v-19.7266c0-2.73438-1.85547-4.63867-4.54102-4.63867-2.58789 0-4.44336 1.9043-4.44336 4.63867v19.7266h-19.7266c-2.73438 0-4.58984 1.85547-4.58984 4.58984Z"/>
  </g>
  <text style="stroke:none;fill:black;font-family:sans-serif;font-size:13;font-weight:bold;" transform="matrix(1 0 0 1 263 1953)">Design Variations</text>
  <text style="stroke:none;fill:black;font-family:sans-serif;font-size:13;" transform="matrix(1 0 0 1 263 1971)">Symbols are supported in up to nine weights and three scales.</text>
  <text style="stroke:none;fill:black;font-family:sans-serif;font-size:13;" transform="matrix(1 0 0 1 263 1989)">For optimal layout with text and other symbols, vertically align</text>
  <text style="stroke:none;fill:black;font-family:sans-serif;font-size:13;" transform="matrix(1 0 0 1 263 2007)">symbols with the adjacent text.</text>
  <line style="fill:none;stroke:#00AEEF;stroke-width:0.5;opacity:1.0;" x1="776" x2="776" y1="1919" y2="1933"/>
  <g transform="matrix(0.2 0 0 0.2 776 1933)">
   <path d="m16.5527 0.78125c2.58789 0 3.85742-0.976562 4.78516-3.71094l6.29883-17.2363h28.8086l6.29883 17.2363c0.927734 2.73438 2.19727 3.71094 4.73633 3.71094 2.58789 0 4.24805-1.5625 4.24805-4.00391 0-0.830078-0.146484-1.61133-0.537109-2.63672l-22.9004-60.9863c-1.12305-2.97852-3.125-4.49219-6.25-4.49219-3.02734 0-5.07812 1.46484-6.15234 4.44336l-22.9004 61.084c-0.390625 1.02539-0.537109 1.80664-0.537109 2.63672 0 2.44141 1.5625 3.95508 4.10156 3.95508Zm13.4766-28.3691 11.8652-32.8613h0.244141l11.8652 32.8613Z"/>
  </g>
  <line style="fill:none;stroke:#00AEEF;stroke-width:0.5;opacity:1.0;" x1="792.836" x2="792.836" y1="1919" y2="1933"/>
  <text style="stroke:none;fill:black;font-family:sans-serif;font-size:13;font-weight:bold;" transform="matrix(1 0 0 1 776 1953)">Margins</text>
  <text style="stroke:none;fill:black;font-family:sans-serif;font-size:13;" transform="matrix(1 0 0 1 776 1971)">Leading and trailing margins on the left and right side of each symbol</text>
  <text style="stroke:none;fill:black;font-family:sans-serif;font-size:13;" transform="matrix(1 0 0 1 776 1989)">can be adjusted by modifying the x-location of the margin guidelines.</text>
  <text style="stroke:none;fill:black;font-family:sans-serif;font-size:13;" transform="matrix(1 0 0 1 776 2007)">Modifications are automatically applied proportionally to all</text>
  <text style="stroke:none;fill:black;font-family:sans-serif;font-size:13;" transform="matrix(1 0 0 1 776 2025)">scales and weights.</text>
  <g transform="matrix(0.2 0 0 0.2 1289 1933)">
   <path d="m14.209 9.32617 8.49609 8.54492c4.29688 4.3457 9.22852 4.05273 13.8672-1.07422l53.4668-58.9355-4.83398-4.88281-53.0762 58.3984c-1.75781 2.00195-3.41797 2.49023-5.76172 0.146484l-5.85938-5.81055c-2.34375-2.29492-1.80664-4.00391 0.195312-5.81055l57.373-54.0039-4.88281-4.83398-57.959 54.4434c-4.93164 4.58984-5.32227 9.47266-1.02539 13.8184Zm32.0801-90.9668c-2.09961 2.05078-2.24609 4.93164-1.07422 6.88477 1.17188 1.80664 3.4668 2.97852 6.68945 2.14844 7.32422-1.70898 14.9414-2.00195 22.0703 2.68555l-2.92969 7.27539c-1.70898 4.15039-0.830078 7.08008 1.85547 9.81445l11.4746 11.5723c2.44141 2.44141 4.49219 2.53906 7.32422 2.05078l5.32227-0.976562 3.32031 3.36914-0.195312 2.7832c-0.195312 2.49023 0.439453 4.39453 2.88086 6.78711l3.80859 3.71094c2.39258 2.39258 5.46875 2.53906 7.8125 0.195312l14.5508-14.5996c2.34375-2.34375 2.24609-5.32227-0.146484-7.71484l-3.85742-3.80859c-2.39258-2.39258-4.24805-3.17383-6.64062-2.97852l-2.88086 0.244141-3.22266-3.17383 1.2207-5.61523c0.634766-2.83203-0.146484-5.0293-3.07617-7.95898l-10.9863-10.9375c-16.6992-16.6016-38.8672-16.2109-53.3203-1.75781Zm7.4707 1.85547c12.1582-8.88672 28.6133-7.37305 39.7461 3.75977l12.1582 12.0605c1.17188 1.17188 1.36719 2.09961 1.02539 3.80859l-1.61133 7.42188 7.51953 7.42188 4.93164-0.292969c1.26953-0.0488281 1.66016 0.0488281 2.63672 1.02539l2.88086 2.88086-12.207 12.207-2.88086-2.88086c-0.976562-0.976562-1.12305-1.36719-1.07422-2.68555l0.341797-4.88281-7.4707-7.42188-7.61719 1.26953c-1.61133 0.341797-2.34375 0.195312-3.56445-0.976562l-10.0098-10.0098c-1.26953-1.17188-1.41602-2.00195-0.634766-3.85742l4.39453-10.4492c-7.8125-7.27539-17.9688-10.4004-28.125-7.42188-0.78125 0.195312-1.07422-0.439453-0.439453-0.976562Z"/>
  </g>
  <text style="stroke:none;fill:black;font-family:sans-serif;font-size:13;font-weight:bold;" transform="matrix(1 0 0 1 1289 1953)">Exporting</text>
  <text style="stroke:none;fill:black;font-family:sans-serif;font-size:13;" transform="matrix(1 0 0 1 1289 1971)">Symbols should be outlined when exporting to ensure the</text>
  <text style="stroke:none;fill:black;font-family:sans-serif;font-size:13;" transform="matrix(1 0 0 1 1289 1989)">design is preserved when submitting to Xcode.</text>
  <text id="template-version" style="stroke:none;fill:black;font-family:sans-serif;font-size:13;text-anchor:end;" transform="matrix(1 0 0 1 3036 1933)">Template v.6.0</text>
  <text style="stroke:none;fill:black;font-family:sans-serif;font-size:13;text-anchor:end;" transform="matrix(1 0 0 1 3036 1951)">Requires Xcode 16 or greater</text>
  <text id="descriptive-name" style="stroke:none;fill:black;font-family:sans-serif;font-size:13;text-anchor:end;" transform="matrix(1 0 0 1 3036 1969)">Generated from square</text>
  <text style="stroke:none;fill:black;font-family:sans-serif;font-size:13;text-anchor:end;" transform="matrix(1 0 0 1 3036 1987)">Typeset at 100.0 points</text>
  <text style="stroke:none;fill:black;font-family:sans-serif;font-size:13;" transform="matrix(1 0 0 1 263 726)">Small</text>
  <text style="stroke:none;fill:black;font-family:sans-serif;font-size:13;" transform="matrix(1 0 0 1 263 1156)">Medium</text>
  <text style="stroke:none;fill:black;font-family:sans-serif;font-size:13;" transform="matrix(1 0 0 1 263 1586)">Large</text>
 </g>
 <g id="Guides">
  <g id="H-reference" style="fill:#27AAE1;stroke:none;" transform="matrix(1 0 0 1 339 696)">
   <path d="M0.993654 0L3.63775 0L29.3281-67.1323L30.0303-67.1323L30.0303-70.459L28.1226-70.459ZM11.6885-24.4799L46.9815-24.4799L46.2315-26.7285L12.4385-26.7285ZM55.1196 0L57.7637 0L30.6382-70.459L29.4326-70.459L29.4326-67.1323Z"/>
  </g>
  <line id="Baseline-S" style="fill:none;stroke:#27AAE1;opacity:1;stroke-width:0.5;" x1="263" x2="3036" y1="696" y2="696"/>
  <line id="Capline-S" style="fill:none;stroke:#27AAE1;opacity:1;stroke-width:0.5;" x1="263" x2="3036" y1="625.541" y2="625.541"/>
  <g id="H-reference" style="fill:#27AAE1;stroke:none;" transform="matrix(1 0 0 1 339 1126)">
   <path d="M0.993654 0L3.63775 0L29.3281-67.1323L30.0303-67.1323L30.0303-70.459L28.1226-70.459ZM11.6885-24.4799L46.9815-24.4799L46.2315-26.7285L12.4385-26.7285ZM55.1196 0L57.7637 0L30.6382-70.459L29.4326-70.459L29.4326-67.1323Z"/>
  </g>
  <line id="Baseline-M" style="fill:none;stroke:#27AAE1;opacity:1;stroke-width:0.5;" x1="263" x2="3036" y1="1126" y2="1126"/>
  <line id="Capline-M" style="fill:none;stroke:#27AAE1;opacity:1;stroke-width:0.5;" x1="263" x2="3036" y1="1055.54" y2="1055.54"/>
  <g id="H-reference" style="fill:#27AAE1;stroke:none;" transform="matrix(1 0 0 1 339 1556)">
   <path d="M0.993654 0L3.63775 0L29.3281-67.1323L30.0303-67.1323L30.0303-70.459L28.1226-70.459ZM11.6885-24.4799L46.9815-24.4799L46.2315-26.7285L12.4385-26.7285ZM55.1196 0L57.7637 0L30.6382-70.459L29.4326-70.459L29.4326-67.1323Z"/>
  </g>
  <line id="Baseline-L" style="fill:none;stroke:#27AAE1;opacity:1;stroke-width:0.5;" x1="263" x2="3036" y1="1556" y2="1556"/>
  <line id="Capline-L" style="fill:none;stroke:#27AAE1;opacity:1;stroke-width:0.5;" x1="263" x2="3036" y1="1485.54" y2="1485.54"/>
  <line id="right-margin-Black-S" style="fill:none;stroke:#00AEEF;stroke-width:0.5;opacity:1.0;" x1="2981.3" x2="2981.3" y1="600.785" y2="720.121"/>
  <line id="left-margin-Black-S" style="fill:none;stroke:#00AEEF;stroke-width:0.5;opacity:1.0;" x1="2885.5" x2="2885.5" y1="600.785" y2="720.121"/>
  <line id="right-margin-Regular-S" style="fill:none;stroke:#00AEEF;stroke-width:0.5;opacity:1.0;" x1="1495.18" x2="1495.18" y1="600.785" y2="720.121"/>
  <line id="left-margin-Regular-S" style="fill:none;stroke:#00AEEF;stroke-width:0.5;opacity:1.0;" x1="1404.51" x2="1404.51" y1="600.785" y2="720.121"/>
  <line id="right-margin-Ultralight-S" style="fill:none;stroke:#00AEEF;stroke-width:0.5;opacity:1.0;" x1="603.073" x2="603.073" y1="600.785" y2="720.121"/>
  <line id="left-margin-Ultralight-S" style="fill:none;stroke:#00AEEF;stroke-width:0.5;opacity:1.0;" x1="516.35" x2="516.35" y1="600.785" y2="720.121"/>
 </g>
 <g id="Symbols">
  <g id="Black-S"><path d="M2930.71409,631.56307c-4.618,0.40807 -9.38572,2.07267 -13.32849,4.65323c-1.86423,1.21835 -3.05616,2.19597 -4.75892,3.89873c-5.77177,5.77764 -8.80737,13.46354 -8.53141,21.61329c0.20844,6.22094 2.16955,11.76665 5.9303,16.79272c1.16551,1.55597 3.73433,4.18057 5.18754,5.30497c4.23341,3.27047 8.76921,5.2169 14.0918,6.04773c1.89946,0.29651 6.32076,0.29651 8.22021,0c6.5703,-1.02753 12.04849,-3.77836 16.62245,-8.35233c4.57396,-4.57396 7.3248,-10.05215 8.35233,-16.62245c0.29651,-1.89946 0.29651,-6.32076 0,-8.22021c-0.83083,-5.32552 -2.78313,-9.87013 -6.04773,-14.0918c-0.98936,-1.27707 -3.54644,-3.83414 -4.83525,-4.83231c-6.06828,-4.69433 -13.36959,-6.85801 -20.90283,-6.19158M2934.70089,637.67832c0.29358,0.14092 0.81909,0.52551 1.16551,0.85138c1.57652,1.48257 2.789,3.57579 3.97213,6.86388l0.39633,1.10092l-0.6811,-0.07046c-2.39267,-0.25835 -6.26204,-0.34936 -8.86902,-0.21431c-1.50019,0.07633 -3.03267,0.17321 -3.40552,0.21431l-0.6723,0.07046l0.2789,-0.80734c1.04221,-3.03267 2.21065,-5.18754 3.65212,-6.7259c1.48257,-1.58533 2.73322,-1.96992 4.16295,-1.28294M2922.36176,641.08971c-0.62532,1.44734 -1.32991,3.48772 -1.83487,5.31378l-0.32587,1.17138l-1.17138,0.32587c-1.829,0.50496 -3.5846,1.1156 -5.18167,1.79377l-1.46496,0.62532l0.49321,-0.90129c1.66166,-3.03561 4.41543,-6.06241 7.30425,-8.02939c0.55486,-0.37872 2.65102,-1.61762 2.73909,-1.62056c0.00881,0 -0.24367,0.59597 -0.5578,1.32111M2946.52919,641.30989c2.96808,1.99927 5.73066,5.01433 7.42462,8.10865l0.49321,0.90129l-1.46496,-0.62532c-1.59707,-0.67817 -3.35267,-1.28881 -5.18167,-1.79377l-1.17138,-0.32587l-0.32587,-1.17138c-0.50496,-1.829 -1.20955,-3.86937 -1.83781,-5.31672l-0.57248,-1.32404l0.89835,0.49028c0.49321,0.27009 1.27413,0.74569 1.73799,1.05688M2936.64438,652.10186c1.72625,0.10862 4.87635,0.43156 4.95268,0.50496c0.09688,0.09982 0.41101,3.44075 0.53138,5.67488c0.10569,2.00515 0.10569,3.1824 0,5.10828c-0.12037,2.15781 -0.43743,5.48406 -0.53138,5.58094c-0.07339,0.07046 -2.97102,0.39927 -4.48295,0.50789c-2.11671,0.14973 -5.44296,0.14973 -7.45691,0c-1.48845,-0.11156 -4.35671,-0.44037 -4.42424,-0.50789c-0.09688,-0.09982 -0.41395,-3.44075 -0.53138,-5.62791c-0.10569,-1.96111 -0.10569,-3.14717 0,-5.10828c0.11743,-2.19891 0.4345,-5.52809 0.53431,-5.62791c0.06459,-0.06459 3.34093,-0.41395 4.70901,-0.49908c2.13138,-0.13798 4.60332,-0.13798 6.69948,-0.00587M2918.97092,655.28426c-0.30532,2.98276 -0.26716,9.00114 0.07633,11.75491l0.07046,0.55486l-0.98349,-0.33762c-3.109,-1.06863 -5.40186,-2.37212 -6.86388,-3.9046c-1.67634,-1.7556 -1.7145,-3.31451 -0.1145,-5.01433c1.47377,-1.56771 3.57286,-2.78607 6.81691,-3.95451c0.58129,-0.21138 1.07156,-0.36697 1.08918,-0.35229c0.01761,0.01761 -0.02349,0.58129 -0.09101,1.25358M2950.8037,655.13747c1.89946,0.7956 3.75781,2.01689 4.87048,3.20001c1.60001,1.69982 1.56184,3.25873 -0.1145,5.01433c-1.46202,1.52955 -3.75488,2.83597 -6.86094,3.9046l-0.98055,0.33468l0.07339,-0.66936c0.39927,-3.72258 0.39927,-8.54902 0,-12.27161l-0.07339,-0.67817l1.09799,0.39633c0.60477,0.21725 1.50019,0.56367 1.98753,0.76918M2916.44614,672.88139c0.77505,0.26129 1.93762,0.61652 2.5835,0.7956l1.17138,0.32587l0.32587,1.17138c0.50496,1.82313 1.20955,3.86644 1.83193,5.30791l0.56954,1.3123l-0.5989,-0.29945c-0.32881,-0.16734 -1.04808,-0.59303 -1.59707,-0.94826c-3.26754,-2.11964 -6.0536,-5.09653 -7.85324,-8.38168l-0.49028,-0.89835l1.32404,0.57248c0.72808,0.31707 1.95817,0.78386 2.73322,1.04221M2953.95968,672.15038c-1.80845,3.30276 -4.59158,6.27379 -7.86205,8.39636c-0.54899,0.35523 -1.26826,0.78092 -1.59707,0.94826l-0.5989,0.29945l0.56954,-1.3123c0.62239,-1.44147 1.32698,-3.48478 1.83193,-5.30791l0.32587,-1.17138l1.17138,-0.32587c1.8701,-0.5167 3.88992,-1.21835 5.28442,-1.83781c0.71046,-0.31413 1.30936,-0.57835 1.33285,-0.58422c0.02055,-0.00881 -0.18495,0.39633 -0.45798,0.89542M2929.53977,675.35333c2.84185,0.20551 7.08406,0.12624 10.01398,-0.18789l0.67817,-0.07339l-0.39633,1.09799c-1.20661,3.34974 -2.41322,5.4136 -4.05726,6.93727c-0.73395,0.6811 -1.69689,1.14789 -2.36331,1.14789c-0.66642,0 -1.62936,-0.46679 -2.36331,-1.14789c-1.64404,-1.52368 -2.85065,-3.58754 -4.05726,-6.93727l-0.39633,-1.09799l0.67817,0.07339c0.37285,0.03817 1.39156,0.1233 2.26349,0.18789" className="SFSymbolsPreviewWireframe"/></g>
  <g id="Regular-S"><path d="M1447.15904,631.56307c-4.618,0.40807 -9.38572,2.07267 -13.32849,4.65323c-1.86423,1.21835 -3.05616,2.19597 -4.75892,3.89873c-5.77177,5.77764 -8.80737,13.46354 -8.53141,21.61329c0.20844,6.22094 2.16955,11.76665 5.9303,16.79272c1.16551,1.55597 3.73433,4.18057 5.18754,5.30497c4.23341,3.27047 8.76921,5.2169 14.0918,6.04773c1.89946,0.29651 6.32076,0.29651 8.22021,0c6.5703,-1.02753 12.04849,-3.77836 16.62245,-8.35233c4.57396,-4.57396 7.3248,-10.05215 8.35233,-16.62245c0.29651,-1.89946 0.29651,-6.32076 0,-8.22021c-0.83083,-5.32552 -2.78313,-9.87013 -6.04773,-14.0918c-0.98936,-1.27707 -3.54644,-3.83414 -4.83525,-4.83231c-6.06828,-4.69433 -13.36959,-6.85801 -20.90283,-6.19158M1451.14584,637.67832c0.29358,0.14092 0.81909,0.52551 1.16551,0.85138c1.57652,1.48257 2.789,3.57579 3.97213,6.86388l0.39633,1.10092l-0.6811,-0.07046c-2.39267,-0.25835 -6.26204,-0.34936 -8.86902,-0.21431c-1.50019,0.07633 -3.03267,0.17321 -3.40552,0.21431l-0.6723,0.07046l0.2789,-0.80734c1.04221,-3.03267 2.21065,-5.18754 3.65212,-6.7259c1.48257,-1.58533 2.73322,-1.96992 4.16295,-1.28294M1438.80671,641.08971c-0.62532,1.44734 -1.32991,3.48772 -1.83487,5.31378l-0.32587,1.17138l-1.17138,0.32587c-1.829,0.50496 -3.5846,1.1156 -5.18167,1.79377l-1.46496,0.62532l0.49321,-0.90129c1.66166,-3.03561 4.41543,-6.06241 7.30425,-8.02939c0.55486,-0.37872 2.65102,-1.61762 2.73909,-1.62056c0.00881,0 -0.24367,0.59597 -0.5578,1.32111M1462.97414,641.30989c2.96808,1.99927 5.73066,5.01433 7.42462,8.10865l0.49321,0.90129l-1.46496,-0.62532c-1.59707,-0.67817 -3.35267,-1.28881 -5.18167,-1.79377l-1.17138,-0.32587l-0.32587,-1.17138c-0.50496,-1.829 -1.20955,-3.86937 -1.83781,-5.31672l-0.57248,-1.32404l0.89835,0.49028c0.49321,0.27009 1.27413,0.74569 1.73799,1.05688M1453.08934,652.10186c1.72625,0.10862 4.87635,0.43156 4.95268,0.50496c0.09688,0.09982 0.41101,3.44075 0.53138,5.67488c0.10569,2.00515 0.10569,3.1824 0,5.10828c-0.12037,2.15781 -0.43743,5.48406 -0.53138,5.58094c-0.07339,0.07046 -2.97102,0.39927 -4.48295,0.50789c-2.11671,0.14973 -5.44296,0.14973 -7.45691,0c-1.48845,-0.11156 -4.35671,-0.44037 -4.42424,-0.50789c-0.09688,-0.09982 -0.41395,-3.44075 -0.53138,-5.62791c-0.10569,-1.96111 -0.10569,-3.14717 0,-5.10828c0.11743,-2.19891 0.4345,-5.52809 0.53431,-5.62791c0.06459,-0.06459 3.34093,-0.41395 4.70901,-0.49908c2.13138,-0.13798 4.60332,-0.13798 6.69948,-0.00587M1435.41587,655.28426c-0.30532,2.98276 -0.26716,9.00114 0.07633,11.75491l0.07046,0.55486l-0.98349,-0.33762c-3.109,-1.06863 -5.40186,-2.37212 -6.86388,-3.9046c-1.67634,-1.7556 -1.7145,-3.31451 -0.1145,-5.01433c1.47377,-1.56771 3.57286,-2.78607 6.81691,-3.95451c0.58129,-0.21138 1.07156,-0.36697 1.08918,-0.35229c0.01761,0.01761 -0.02349,0.58129 -0.09101,1.25358M1467.24866,655.13747c1.89946,0.7956 3.75781,2.01689 4.87048,3.20001c1.60001,1.69982 1.56184,3.25873 -0.1145,5.01433c-1.46202,1.52955 -3.75488,2.83597 -6.86094,3.9046l-0.98055,0.33468l0.07339,-0.66936c0.39927,-3.72258 0.39927,-8.54902 0,-12.27161l-0.07339,-0.67817l1.09799,0.39633c0.60477,0.21725 1.50019,0.56367 1.98753,0.76918M1432.89109,672.88139c0.77505,0.26129 1.93762,0.61652 2.5835,0.7956l1.17138,0.32587l0.32587,1.17138c0.50496,1.82313 1.20955,3.86644 1.83193,5.30791l0.56954,1.3123l-0.5989,-0.29945c-0.32881,-0.16734 -1.04808,-0.59303 -1.59707,-0.94826c-3.26754,-2.11964 -6.0536,-5.09653 -7.85324,-8.38168l-0.49028,-0.89835l1.32404,0.57248c0.72808,0.31707 1.95817,0.78386 2.73322,1.04221M1470.40463,672.15038c-1.80845,3.30276 -4.59158,6.27379 -7.86205,8.39636c-0.54899,0.35523 -1.26826,0.78092 -1.59707,0.94826l-0.5989,0.29945l0.56954,-1.3123c0.62239,-1.44147 1.32698,-3.48478 1.83193,-5.30791l0.32587,-1.17138l1.17138,-0.32587c1.8701,-0.5167 3.88992,-1.21835 5.28442,-1.83781c0.71046,-0.31413 1.30936,-0.57835 1.33285,-0.58422c0.02055,-0.00881 -0.18495,0.39633 -0.45798,0.89542M1445.98472,675.35333c2.84185,0.20551 7.08406,0.12624 10.01398,-0.18789l0.67817,-0.07339l-0.39633,1.09799c-1.20661,3.34974 -2.41322,5.4136 -4.05726,6.93727c-0.73395,0.6811 -1.69689,1.14789 -2.36331,1.14789c-0.66642,0 -1.62936,-0.46679 -2.36331,-1.14789c-1.64404,-1.52368 -2.85065,-3.58754 -4.05726,-6.93727l-0.39633,-1.09799l0.67817,0.07339c0.37285,0.03817 1.39156,0.1233 2.26349,0.18789" className="SFSymbolsPreviewWireframe"/></g>
  <g id="Ultralight-S"><path d="M557.02545,631.56307c-4.618,0.40807 -9.38572,2.07267 -13.32849,4.65323c-1.86423,1.21835 -3.05616,2.19597 -4.75892,3.89873c-5.77177,5.77764 -8.80737,13.46354 -8.53141,21.61329c0.20844,6.22094 2.16955,11.76665 5.9303,16.79272c1.16551,1.55597 3.73433,4.18057 5.18754,5.30497c4.23341,3.27047 8.76921,5.2169 14.0918,6.04773c1.89946,0.29651 6.32076,0.29651 8.22021,0c6.5703,-1.02753 12.04849,-3.77836 16.62245,-8.35233c4.57396,-4.57396 7.3248,-10.05215 8.35233,-16.62245c0.29651,-1.89946 0.29651,-6.32076 0,-8.22021c-0.83083,-5.32552 -2.78313,-9.87013 -6.04773,-14.0918c-0.98936,-1.27707 -3.54644,-3.83414 -4.83525,-4.83231c-6.06828,-4.69433 -13.36959,-6.85801 -20.90283,-6.19158M561.01225,637.67832c0.29358,0.14092 0.81909,0.52551 1.16551,0.85138c1.57652,1.48257 2.789,3.57579 3.97213,6.86388l0.39633,1.10092l-0.6811,-0.07046c-2.39267,-0.25835 -6.26204,-0.34936 -8.86902,-0.21431c-1.50019,0.07633 -3.03267,0.17321 -3.40552,0.21431l-0.6723,0.07046l0.2789,-0.80734c1.04221,-3.03267 2.21065,-5.18754 3.65212,-6.7259c1.48257,-1.58533 2.73322,-1.96992 4.16295,-1.28294M548.67312,641.08971c-0.62532,1.44734 -1.32991,3.48772 -1.83487,5.31378l-0.32587,1.17138l-1.17138,0.32587c-1.829,0.50496 -3.5846,1.1156 -5.18167,1.79377l-1.46496,0.62532l0.49321,-0.90129c1.66166,-3.03561 4.41543,-6.06241 7.30425,-8.02939c0.55486,-0.37872 2.65102,-1.61762 2.73909,-1.62056c0.00881,0 -0.24367,0.59597 -0.5578,1.32111M572.84055,641.30989c2.96808,1.99927 5.73066,5.01433 7.42462,8.10865l0.49321,0.90129l-1.46496,-0.62532c-1.59707,-0.67817 -3.35267,-1.28881 -5.18167,-1.79377l-1.17138,-0.32587l-0.32587,-1.17138c-0.50496,-1.829 -1.20955,-3.86937 -1.83781,-5.31672l-0.57248,-1.32404l0.89835,0.49028c0.49321,0.27009 1.27413,0.74569 1.73799,1.05688M562.95574,652.10186c1.72625,0.10862 4.87635,0.43156 4.95268,0.50496c0.09688,0.09982 0.41101,3.44075 0.53138,5.67488c0.10569,2.00515 0.10569,3.1824 0,5.10828c-0.12037,2.15781 -0.43743,5.48406 -0.53138,5.58094c-0.07339,0.07046 -2.97102,0.39927 -4.48295,0.50789c-2.11671,0.14973 -5.44296,0.14973 -7.45691,0c-1.48845,-0.11156 -4.35671,-0.44037 -4.42424,-0.50789c-0.09688,-0.09982 -0.41395,-3.44075 -0.53138,-5.62791c-0.10569,-1.96111 -0.10569,-3.14717 0,-5.10828c0.11743,-2.19891 0.4345,-5.52809 0.53431,-5.62791c0.06459,-0.06459 3.34093,-0.41395 4.70901,-0.49908c2.13138,-0.13798 4.60332,-0.13798 6.69948,-0.00587M545.28228,655.28426c-0.30532,2.98276 -0.26716,9.00114 0.07633,11.75491l0.07046,0.55486l-0.98349,-0.33762c-3.109,-1.06863 -5.40186,-2.37212 -6.86388,-3.9046c-1.67634,-1.7556 -1.7145,-3.31451 -0.1145,-5.01433c1.47377,-1.56771 3.57286,-2.78607 6.81691,-3.95451c0.58129,-0.21138 1.07156,-0.36697 1.08918,-0.35229c0.01761,0.01761 -0.02349,0.58129 -0.09101,1.25358M577.11507,655.13747c1.89946,0.7956 3.75781,2.01689 4.87048,3.20001c1.60001,1.69982 1.56184,3.25873 -0.1145,5.01433c-1.46202,1.52955 -3.75488,2.83597 -6.86094,3.9046l-0.98055,0.33468l0.07339,-0.66936c0.39927,-3.72258 0.39927,-8.54902 0,-12.27161l-0.07339,-0.67817l1.09799,0.39633c0.60477,0.21725 1.50019,0.56367 1.98753,0.76918M542.7575,672.88139c0.77505,0.26129 1.93762,0.61652 2.5835,0.7956l1.17138,0.32587l0.32587,1.17138c0.50496,1.82313 1.20955,3.86644 1.83193,5.30791l0.56954,1.3123l-0.5989,-0.29945c-0.32881,-0.16734 -1.04808,-0.59303 -1.59707,-0.94826c-3.26754,-2.11964 -6.0536,-5.09653 -7.85324,-8.38168l-0.49028,-0.89835l1.32404,0.57248c0.72808,0.31707 1.95817,0.78386 2.73322,1.04221M580.27104,672.15038c-1.80845,3.30276 -4.59158,6.27379 -7.86205,8.39636c-0.54899,0.35523 -1.26826,0.78092 -1.59707,0.94826l-0.5989,0.29945l0.56954,-1.3123c0.62239,-1.44147 1.32698,-3.48478 1.83193,-5.30791l0.32587,-1.17138l1.17138,-0.32587c1.8701,-0.5167 3.88992,-1.21835 5.28442,-1.83781c0.71046,-0.31413 1.30936,-0.57835 1.33285,-0.58422c0.02055,-0.00881 -0.18495,0.39633 -0.45798,0.89542M555.85113,675.35333c2.84185,0.20551 7.08406,0.12624 10.01398,-0.18789l0.67817,-0.07339l-0.39633,1.09799c-1.20661,3.34974 -2.41322,5.4136 -4.05726,6.93727c-0.73395,0.6811 -1.69689,1.14789 -2.36331,1.14789c-0.66642,0 -1.62936,-0.46679 -2.36331,-1.14789c-1.64404,-1.52368 -2.85065,-3.58754 -4.05726,-6.93727l-0.39633,-1.09799l0.67817,0.07339c0.37285,0.03817 1.39156,0.1233 2.26349,0.18789" className="SFSymbolsPreviewWireframe"/></g>
 </g>
</svg>