<?xml version="1.0" encoding="UTF-8"?><!--Generator: https://SymbolKit.app--><!DOCTYPE svg PUBLIC "-//W3C//DTD SVG 1.1//EN" "http://www.w3.org/Graphics/SVG/1.1/DTD/svg11.dtd"><svg xmlns="http://www.w3.org/2000/svg" xmlns:xlink="http://www.w3.org/1999/xlink" version="1.1" viewBox="0 0 3300 2200">
 <!--glyph: "100092", point size: 100.0, font version: "20.0d10e1", template writer version: "138.0.0"-->
 <style>.SFSymbolsPreviewWireframe {fill:none;opacity:1.0;stroke:black;stroke-width:0.5}
</style>
 <g id="Notes">
  <rect height="2200" id="artboard" style="fill:white;opacity:1" width="3300" x="0" y="0"/>
  <line style="fill:none;stroke:black;opacity:1;stroke-width:0.5;" x1="263" x2="3036" y1="292" y2="292"/>
  <text style="stroke:none;fill:black;font-family:sans-serif;font-size:13;font-weight:bold;" transform="matrix(1 0 0 1 263 322)">Weight/Scale Variations</text>
  <text style="stroke:none;fill:black;font-family:sans-serif;font-size:13;text-anchor:middle;" transform="matrix(1 0 0 1 559.711 322)">Ultralight</text>
  <text style="stroke:none;fill:black;font-family:sans-serif;font-size:13;text-anchor:middle;" transform="matrix(1 0 0 1 856.422 322)">Thin</text>
  <text style="stroke:none;fill:black;font-family:sans-serif;font-size:13;text-anchor:middle;" transform="matrix(1 0 0 1 1153.13 322)">Light</text>
  <text style="stroke:none;fill:black;font-family:sans-serif;font-size:13;text-anchor:middle;" transform="matrix(1 0 0 1 1449.84 322)">Regular</text>
  <text style="stroke:none;fill:black;font-family:sans-serif;font-size:13;text-anchor:middle;" transform="matrix(1 0 0 1 1746.56 322)">Medium</text>
  <text style="stroke:none;fill:black;font-family:sans-serif;font-size:13;text-anchor:middle;" transform="matrix(1 0 0 1 2043.27 322)">Semibold</text>
  <text style="stroke:none;fill:black;font-family:sans-serif;font-size:13;text-anchor:middle;" transform="matrix(1 0 0 1 2339.98 322)">Bold</text>
  <text style="stroke:none;fill:black;font-family:sans-serif;font-size:13;text-anchor:middle;" transform="matrix(1 0 0 1 2636.69 322)">Heavy</text>
  <text style="stroke:none;fill:black;font-family:sans-serif;font-size:13;text-anchor:middle;" transform="matrix(1 0 0 1 2933.4 322)">Black</text>
  <line style="fill:none;stroke:black;opacity:1;stroke-width:0.5;" x1="263" x2="3036" y1="1903" y2="1903"/>
  <g transform="matrix(0.2 0 0 0.2 263 1933)">
   <path d="m46.2402 4.15039c21.7773 0 39.4531-17.627 39.4531-39.4043s-17.6758-39.4043-39.4531-39.4043c-21.7285 0-39.4043 17.627-39.4043 39.4043s17.6758 39.4043 39.4043 39.4043Zm0-7.42188c-17.6758 0-31.9336-14.3066-31.9336-31.9824s14.2578-31.9824 31.9336-31.9824 31.9824 14.3066 31.9824 31.9824-14.3066 31.9824-31.9824 31.9824Zm-17.9688-31.9824c0 2.14844 1.51367 3.61328 3.75977 3.61328h10.498v10.5957c0 2.19727 1.46484 3.71094 3.61328 3.71094 2.24609 0 3.71094-1.51367 3.71094-3.71094v-10.5957h10.5957c2.19727 0 3.71094-1.46484 3.71094-3.61328 0-2.19727-1.51367-3.71094-3.71094-3.71094h-10.5957v-10.5469c0-2.24609-1.46484-3.75977-3.71094-3.75977-2.14844 0-3.61328 1.51367-3.61328 3.75977v10.5469h-10.498c-2.24609 0-3.75977 1.51367-3.75977 3.71094Z"/>
  </g>
  <g transform="matrix(0.2 0 0 0.2 281.506 1933)">
   <path d="m58.5449 14.5508c27.4902 0 49.8047-22.3145 49.8047-49.8047s-22.3145-49.8047-49.8047-49.8047-49.8047 22.3145-49.8047 49.8047 22.3145 49.8047 49.8047 49.8047Zm0-8.30078c-22.9492 0-41.5039-18.5547-41.5039-41.5039s18.5547-41.5039 41.5039-41.5039 41.5039 18.5547 41.5039 41.5039-18.5547 41.5039-41.5039 41.5039Zm-22.6562-41.5039c0 2.39258 1.66016 4.00391 4.15039 4.00391h14.3555v14.4043c0 2.44141 1.66016 4.15039 4.05273 4.15039 2.44141 0 4.15039-1.66016 4.15039-4.15039v-14.4043h14.4043c2.44141 0 4.15039-1.61133 4.15039-4.00391 0-2.44141-1.70898-4.15039-4.15039-4.15039h-14.4043v-14.3555c0-2.49023-1.70898-4.19922-4.15039-4.19922-2.39258 0-4.05273 1.70898-4.05273 4.19922v14.3555h-14.3555c-2.49023 0-4.15039 1.70898-4.15039 4.15039Z"/>
  </g>
  <g transform="matrix(0.2 0 0 0.2 304.924 1933)">
   <path d="m74.8535 28.3203c35.1074 0 63.623-28.4668 63.623-63.5742s-28.5156-63.623-63.623-63.623-63.5742 28.5156-63.5742 63.623 28.4668 63.5742 63.5742 63.5742Zm0-9.08203c-30.127 0-54.4922-24.3652-54.4922-54.4922s24.3652-54.4922 54.4922-54.4922 54.4922 24.3652 54.4922 54.4922-24.3652 54.4922-54.4922 54.4922Zm-28.8574-54.4922c0 2.58789 1.85547 4.39453 4.58984 4.39453h19.7266v19.7754c0 2.68555 1.85547 4.58984 4.44336 4.58984 2.68555 0 4.54102-1.85547 4.54102-4.58984v-19.7754h19.7754c2.68555 0 4.58984-1.80664 4.58984-4.39453 0-2.73438-1.85547-4.58984-4.58984-4.58984h-19.7754v-19.7266c0-2.73438-1.85547-4.63867-4.54102-4.63867-2.58789 0-4.44336 1.9043-4.44336 4.63867v19.7266h-19.7266c-2.73438 0-4.58984 1.85547-4.58984 4.58984Z"/>
  </g>
  <text style="stroke:none;fill:black;font-family:sans-serif;font-size:13;font-weight:bold;" transform="matrix(1 0 0 1 263 1953)">Design Variations</text>
  <text style="stroke:none;fill:black;font-family:sans-serif;font-size:13;" transform="matrix(1 0 0 1 263 1971)">Symbols are supported in up to nine weights and three scales.</text>
  <text style="stroke:none;fill:black;font-family:sans-serif;font-size:13;" transform="matrix(1 0 0 1 263 1989)">For optimal layout with text and other symbols, vertically align</text>
  <text style="stroke:none;fill:black;font-family:sans-serif;font-size:13;" transform="matrix(1 0 0 1 263 2007)">symbols with the adjacent text.</text>
  <line style="fill:none;stroke:#00AEEF;stroke-width:0.5;opacity:1.0;" x1="776" x2="776" y1="1919" y2="1933"/>
  <g transform="matrix(0.2 0 0 0.2 776 1933)">
   <path d="m16.5527 0.78125c2.58789 0 3.85742-0.976562 4.78516-3.71094l6.29883-17.2363h28.8086l6.29883 17.2363c0.927734 2.73438 2.19727 3.71094 4.73633 3.71094 2.58789 0 4.24805-1.5625 4.24805-4.00391 0-0.830078-0.146484-1.61133-0.537109-2.63672l-22.9004-60.9863c-1.12305-2.97852-3.125-4.49219-6.25-4.49219-3.02734 0-5.07812 1.46484-6.15234 4.44336l-22.9004 61.084c-0.390625 1.02539-0.537109 1.80664-0.537109 2.63672 0 2.44141 1.5625 3.95508 4.10156 3.95508Zm13.4766-28.3691 11.8652-32.8613h0.244141l11.8652 32.8613Z"/>
  </g>
  <line style="fill:none;stroke:#00AEEF;stroke-width:0.5;opacity:1.0;" x1="792.836" x2="792.836" y1="1919" y2="1933"/>
  <text style="stroke:none;fill:black;font-family:sans-serif;font-size:13;font-weight:bold;" transform="matrix(1 0 0 1 776 1953)">Margins</text>
  <text style="stroke:none;fill:black;font-family:sans-serif;font-size:13;" transform="matrix(1 0 0 1 776 1971)">Leading and trailing margins on the left and right side of each symbol</text>
  <text style="stroke:none;fill:black;font-family:sans-serif;font-size:13;" transform="matrix(1 0 0 1 776 1989)">can be adjusted by modifying the x-location of the margin guidelines.</text>
  <text style="stroke:none;fill:black;font-family:sans-serif;font-size:13;" transform="matrix(1 0 0 1 776 2007)">Modifications are automatically applied proportionally to all</text>
  <text style="stroke:none;fill:black;font-family:sans-serif;font-size:13;" transform="matrix(1 0 0 1 776 2025)">scales and weights.</text>
  <g transform="matrix(0.2 0 0 0.2 1289 1933)">
   <path d="m14.209 9.32617 8.49609 8.54492c4.29688 4.3457 9.22852 4.05273 13.8672-1.07422l53.4668-58.9355-4.83398-4.88281-53.0762 58.3984c-1.75781 2.00195-3.41797 2.49023-5.76172 0.146484l-5.85938-5.81055c-2.34375-2.29492-1.80664-4.00391 0.195312-5.81055l57.373-54.0039-4.88281-4.83398-57.959 54.4434c-4.93164 4.58984-5.32227 9.47266-1.02539 13.8184Zm32.0801-90.9668c-2.09961 2.05078-2.24609 4.93164-1.07422 6.88477 1.17188 1.80664 3.4668 2.97852 6.68945 2.14844 7.32422-1.70898 14.9414-2.00195 22.0703 2.68555l-2.92969 7.27539c-1.70898 4.15039-0.830078 7.08008 1.85547 9.81445l11.4746 11.5723c2.44141 2.44141 4.49219 2.53906 7.32422 2.05078l5.32227-0.976562 3.32031 3.36914-0.195312 2.7832c-0.195312 2.49023 0.439453 4.39453 2.88086 6.78711l3.80859 3.71094c2.39258 2.39258 5.46875 2.53906 7.8125 0.195312l14.5508-14.5996c2.34375-2.34375 2.24609-5.32227-0.146484-7.71484l-3.85742-3.80859c-2.39258-2.39258-4.24805-3.17383-6.64062-2.97852l-2.88086 0.244141-3.22266-3.17383 1.2207-5.61523c0.634766-2.83203-0.146484-5.0293-3.07617-7.95898l-10.9863-10.9375c-16.6992-16.6016-38.8672-16.2109-53.3203-1.75781Zm7.4707 1.85547c12.1582-8.88672 28.6133-7.37305 39.7461 3.75977l12.1582 12.0605c1.17188 1.17188 1.36719 2.09961 1.02539 3.80859l-1.61133 7.42188 7.51953 7.42188 4.93164-0.292969c1.26953-0.0488281 1.66016 0.0488281 2.63672 1.02539l2.88086 2.88086-12.207 12.207-2.88086-2.88086c-0.976562-0.976562-1.12305-1.36719-1.07422-2.68555l0.341797-4.88281-7.4707-7.42188-7.61719 1.26953c-1.61133 0.341797-2.34375 0.195312-3.56445-0.976562l-10.0098-10.0098c-1.26953-1.17188-1.41602-2.00195-0.634766-3.85742l4.39453-10.4492c-7.8125-7.27539-17.9688-10.4004-28.125-7.42188-0.78125 0.195312-1.07422-0.439453-0.439453-0.976562Z"/>
  </g>
  <text style="stroke:none;fill:black;font-family:sans-serif;font-size:13;font-weight:bold;" transform="matrix(1 0 0 1 1289 1953)">Exporting</text>
  <text style="stroke:none;fill:black;font-family:sans-serif;font-size:13;" transform="matrix(1 0 0 1 1289 1971)">Symbols should be outlined when exporting to ensure the</text>
  <text style="stroke:none;fill:black;font-family:sans-serif;font-size:13;" transform="matrix(1 0 0 1 1289 1989)">design is preserved when submitting to Xcode.</text>
  <text id="template-version" style="stroke:none;fill:black;font-family:sans-serif;font-size:13;text-anchor:end;" transform="matrix(1 0 0 1 3036 1933)">Template v.6.0</text>
  <text style="stroke:none;fill:black;font-family:sans-serif;font-size:13;text-anchor:end;" transform="matrix(1 0 0 1 3036 1951)">Requires Xcode 16 or greater</text>
  <text id="descriptive-name" style="stroke:none;fill:black;font-family:sans-serif;font-size:13;text-anchor:end;" transform="matrix(1 0 0 1 3036 1969)">Generated from square</text>
  <text style="stroke:none;fill:black;font-family:sans-serif;font-size:13;text-anchor:end;" transform="matrix(1 0 0 1 3036 1987)">Typeset at 100.0 points</text>
  <text style="stroke:none;fill:black;font-family:sans-serif;font-size:13;" transform="matrix(1 0 0 1 263 726)">Small</text>
  <text style="stroke:none;fill:black;font-family:sans-serif;font-size:13;" transform="matrix(1 0 0 1 263 1156)">Medium</text>
  <text style="stroke:none;fill:black;font-family:sans-serif;font-size:13;" transform="matrix(1 0 0 1 263 1586)">Large</text>
 </g>
 <g id="Guides">
  <g id="H-reference" style="fill:#27AAE1;stroke:none;" transform="matrix(1 0 0 1 339 696)">
   <path d="M0.993654 0L3.63775 0L29.3281-67.1323L30.0303-67.1323L30.0303-70.459L28.1226-70.459ZM11.6885-24.4799L46.9815-24.4799L46.2315-26.7285L12.4385-26.7285ZM55.1196 0L57.7637 0L30.6382-70.459L29.4326-70.459L29.4326-67.1323Z"/>
  </g>
  <line id="Baseline-S" style="fill:none;stroke:#27AAE1;opacity:1;stroke-width:0.5;" x1="263" x2="3036" y1="696" y2="696"/>
  <line id="Capline-S" style="fill:none;stroke:#27AAE1;opacity:1;stroke-width:0.5;" x1="263" x2="3036" y1="625.541" y2="625.541"/>
  <g id="H-reference" style="fill:#27AAE1;stroke:none;" transform="matrix(1 0 0 1 339 1126)">
   <path d="M0.993654 0L3.63775 0L29.3281-67.1323L30.0303-67.1323L30.0303-70.459L28.1226-70.459ZM11.6885-24.4799L46.9815-24.4799L46.2315-26.7285L12.4385-26.7285ZM55.1196 0L57.7637 0L30.6382-70.459L29.4326-70.459L29.4326-67.1323Z"/>
  </g>
  <line id="Baseline-M" style="fill:none;stroke:#27AAE1;opacity:1;stroke-width:0.5;" x1="263" x2="3036" y1="1126" y2="1126"/>
  <line id="Capline-M" style="fill:none;stroke:#27AAE1;opacity:1;stroke-width:0.5;" x1="263" x2="3036" y1="1055.54" y2="1055.54"/>
  <g id="H-reference" style="fill:#27AAE1;stroke:none;" transform="matrix(1 0 0 1 339 1556)">
   <path d="M0.993654 0L3.63775 0L29.3281-67.1323L30.0303-67.1323L30.0303-70.459L28.1226-70.459ZM11.6885-24.4799L46.9815-24.4799L46.2315-26.7285L12.4385-26.7285ZM55.1196 0L57.7637 0L30.6382-70.459L29.4326-70.459L29.4326-67.1323Z"/>
  </g>
  <line id="Baseline-L" style="fill:none;stroke:#27AAE1;opacity:1;stroke-width:0.5;" x1="263" x2="3036" y1="1556" y2="1556"/>
  <line id="Capline-L" style="fill:none;stroke:#27AAE1;opacity:1;stroke-width:0.5;" x1="263" x2="3036" y1="1485.54" y2="1485.54"/>
  <line id="right-margin-Black-S" style="fill:none;stroke:#00AEEF;stroke-width:0.5;opacity:1.0;" x1="2981.3" x2="2981.3" y1="600.785" y2="720.121"/>
  <line id="left-margin-Black-S" style="fill:none;stroke:#00AEEF;stroke-width:0.5;opacity:1.0;" x1="2885.5" x2="2885.5" y1="600.785" y2="720.121"/>
  <line id="right-margin-Regular-S" style="fill:none;stroke:#00AEEF;stroke-width:0.5;opacity:1.0;" x1="1495.18" x2="1495.18" y1="600.785" y2="720.121"/>
  <line id="left-margin-Regular-S" style="fill:none;stroke:#00AEEF;stroke-width:0.5;opacity:1.0;" x1="1404.51" x2="1404.51" y1="600.785" y2="720.121"/>
  <line id="right-margin-Ultralight-S" style="fill:none;stroke:#00AEEF;stroke-width:0.5;opacity:1.0;" x1="603.073" x2="603.073" y1="600.785" y2="720.121"/>
  <line id="left-margin-Ultralight-S" style="fill:none;stroke:#00AEEF;stroke-width:0.5;opacity:1.0;" x1="516.35" x2="516.35" y1="600.785" y2="720.121"/>
 </g>
 <g id="Symbols">
  <g id="Black-S"><path d="M2905.98909,631.60152c-0.65175,0.2378 -1.23303,0.72808 -1.5912,1.33578c-0.27009,0.45798 -0.31707,0.6723 -0.31413,1.42092c0,0.62532 0.06459,1.0011 0.21725,1.29175c0.12037,0.22606 1.59413,1.7967 3.27928,3.48772l3.06203,3.07964l-0.53725,0.6811c-0.96,1.22422 -2.20478,3.22643 -2.96808,4.78828c-4.18057,8.53141 -4.08956,18.20778 0.24661,26.58359c1.43267,2.77139 2.93873,4.80589 5.31965,7.18682c2.38093,2.38093 4.41543,3.88699 7.18682,5.31965c4.08075,2.11377 8.32884,3.20001 13.02023,3.32625c3.86057,0.10275 8.03526,-0.70753 11.93399,-2.32221c2.09909,-0.86899 4.7002,-2.37799 6.42057,-3.72845l0.67817,-0.53431l3.07964,3.06203c1.69102,1.68514 3.26166,3.15891 3.48772,3.27928c0.29064,0.15266 0.66642,0.21725 1.29175,0.21725c0.75743,0.00294 0.96,-0.04404 1.44441,-0.32881c0.65175,-0.38165 1.20074,-1.08331 1.38863,-1.77028c0.15853,-0.59303 0.07046,-1.55597 -0.19376,-2.08148c-0.10862,-0.21725 -10.45729,-10.66279 -22.99605,-23.2133c-32.41407,-32.43755 -30.79058,-30.83461 -31.48049,-31.06654c-0.68991,-0.23193 -1.37395,-0.2378 -1.97579,-0.01468M2930.15065,631.61033c-3.3791,0.44624 -5.88039,1.13028 -8.73398,2.3868c-1.57946,0.69872 -2.04918,1.05395 -2.43964,1.85836c-0.81615,1.66459 0.03523,3.57873 1.82019,4.09836c0.82202,0.2378 1.32404,0.15266 2.65689,-0.44918c0.58422,-0.26422 1.4767,-0.63413 1.98459,-0.82202c1.07744,-0.39633 1.05688,-0.50496 0.25835,1.29762c-0.75156,1.70276 -1.12441,2.78019 -1.12441,3.24698c0,1.10092 0.93065,2.41909 1.94643,2.76258c0.65468,0.22018 1.55597,0.18202 2.17542,-0.09101c0.86606,-0.38165 1.31817,-0.95413 1.87303,-2.36038c0.60771,-1.54129 2.65983,-5.7747 2.80074,-5.7747c0.14385,0 1.7556,3.19414 2.46606,4.88516c0.84257,2.01689 2.12551,5.81287 2.12551,6.30021c0,0.04697 -0.44037,0.08807 -0.98055,0.08807c-1.64991,0 -2.5923,0.4433 -3.2235,1.51487c-0.26716,0.45798 -0.31707,0.67523 -0.31707,1.42092c0,0.75156 0.04697,0.96294 0.32587,1.4356c0.70459,1.1978 1.42092,1.48845 3.69616,1.49432c1.65579,0.00587 1.6734,0.00881 1.67634,0.27009c0.00587,0.69578 0.34349,3.47304 0.45505,3.76662c0.52844,1.35634 2.14019,2.13138 3.59047,1.72331c0.72808,-0.20257 1.49432,-0.90422 1.82313,-1.66753c0.24661,-0.57542 0.26129,-0.72808 0.18789,-2.00515c-0.0411,-0.76037 -0.10862,-1.53835 -0.14679,-1.73212l-0.07046,-0.34936h5.57507h5.578l0.24954,1.26239c0.63707,3.23524 0.62532,6.42645 -0.03523,9.52077c-0.09982,0.47266 -0.18202,0.88074 -0.18202,0.9101c0,0.02642 -0.57248,0.04991 -1.27413,0.04991c-1.95817,0 -2.85065,0.38459 -3.51708,1.51487c-0.27009,0.45798 -0.31707,0.67523 -0.31707,1.42973c0,0.78679 0.0411,0.95707 0.35523,1.4679c0.44918,0.73101 1.29175,1.30936 2.04918,1.41212c0.54899,0.07339 0.56661,0.08514 0.64,0.54019c0.17028,1.06863 0.88661,1.93762 1.92294,2.32515c0.75156,0.28477 1.10973,0.29358 1.88184,0.04404c0.93358,-0.30239 1.36221,-0.73982 1.97579,-2.01982c1.81138,-3.79011 2.85652,-8.3582 2.85652,-12.4683c0,-12.665 -8.06755,-23.91495 -20.01916,-27.92524c-3.94277,-1.32111 -8.85141,-1.85542 -12.56519,-1.36221M2943.84318,639.76008c2.36918,1.18606 4.44772,2.71267 6.33544,4.65616c1.40331,1.44734 2.79781,3.24111 3.38497,4.35671l0.14092,0.26422h-4.8235c-3.75781,0 -4.83231,-0.03229 -4.86167,-0.14679c-0.02349,-0.07927 -0.21138,-0.80734 -0.42275,-1.61469c-0.53725,-2.08148 -1.55597,-5.0525 -2.42496,-7.087c-0.41101,-0.95707 -0.74569,-1.76147 -0.74569,-1.7879c0,-0.11156 2.31047,0.80734 3.41726,1.35927M2916.17629,647.74544l1.28881,1.29175h-2.20771c-1.73212,0 -2.1901,-0.03229 -2.12258,-0.14679c0.33468,-0.57835 1.61175,-2.43671 1.67634,-2.43671c0.0411,0 0.65762,0.58129 1.36514,1.29175M2921.70732,655.2317c-0.13505,0.64587 -0.30239,3.77543 -0.30532,5.61323c0,1.67634 0.14092,4.36259 0.28477,5.42534l0.05284,0.38459l-5.53103,-0.03229l-5.53397,-0.02936l-0.14679,-0.64881c-0.69285,-3.05616 -0.70165,-7.06645 -0.02055,-10.36041l0.13798,-0.67523h5.56332h5.56332l-0.06459,0.32294M2931.36607,666.62551c-2.01102,0.01468 -3.67267,0.01468 -3.68735,0c-0.10275,-0.10862 -0.30532,-3.00625 -0.36404,-5.19929l-0.06752,-2.5835l3.88992,3.87524l3.88992,3.87524l-3.66093,0.03229M2923.22806,674.46113c0.61064,2.27817 1.59413,5.13763 2.44551,7.11049c0.34936,0.80441 0.62239,1.47377 0.60771,1.49138c-0.07046,0.0822 -1.91707,-0.63707 -3.09432,-1.20367c-3.69029,-1.77615 -6.86388,-4.53873 -9.28884,-8.09398c-0.3934,-0.57835 -0.71633,-1.09505 -0.71633,-1.14789c0,-0.05284 2.14606,-0.0822 4.77066,-0.06459l4.77066,0.02936l0.50496,1.87891M2937.89527,672.90516c-0.21431,0.96881 -1.42092,4.47708 -2.06386,5.98608c-0.78386,1.85248 -2.3134,4.90571 -2.45139,4.90571c-0.13505,0 -1.77615,-3.27047 -2.44551,-4.87341c-0.65762,-1.56771 -1.57358,-4.18057 -1.84955,-5.27562c-0.09982,-0.3934 -0.20551,-0.80734 -0.24073,-0.9189c-0.05578,-0.19376 0.21431,-0.20551 4.5358,-0.20551h4.59745l-0.0822,0.38165M2947.70668,679.35803c0,0.14092 -2.39854,1.67927 -3.49359,2.24001c-1.04514,0.53725 -2.87414,1.29468 -3.47304,1.44147l-0.32881,0.0822l0.19963,-0.45505c1.02459,-2.32515 2.09028,-5.21396 2.64808,-7.18682l0.14385,-0.50496l2.15193,2.149c1.18312,1.18312 2.15193,2.18716 2.15193,2.23414" className="SFSymbolsPreviewWireframe"/></g>
  <g id="Regular-S"><path d="M1422.43404,631.60152c-0.65175,0.2378 -1.23303,0.72808 -1.5912,1.33578c-0.27009,0.45798 -0.31707,0.6723 -0.31413,1.42092c0,0.62532 0.06459,1.0011 0.21725,1.29175c0.12037,0.22606 1.59413,1.7967 3.27928,3.48772l3.06203,3.07964l-0.53725,0.6811c-0.96,1.22422 -2.20478,3.22643 -2.96808,4.78828c-4.18057,8.53141 -4.08956,18.20778 0.24661,26.58359c1.43267,2.77139 2.93873,4.80589 5.31965,7.18682c2.38093,2.38093 4.41543,3.88699 7.18682,5.31965c4.08075,2.11377 8.32884,3.20001 13.02023,3.32625c3.86057,0.10275 8.03526,-0.70753 11.93399,-2.32221c2.09909,-0.86899 4.7002,-2.37799 6.42057,-3.72845l0.67817,-0.53431l3.07964,3.06203c1.69102,1.68514 3.26166,3.15891 3.48772,3.27928c0.29064,0.15266 0.66642,0.21725 1.29175,0.21725c0.75743,0.00294 0.96,-0.04404 1.44441,-0.32881c0.65175,-0.38165 1.20074,-1.08331 1.38863,-1.77028c0.15853,-0.59303 0.07046,-1.55597 -0.19376,-2.08148c-0.10862,-0.21725 -10.45729,-10.66279 -22.99605,-23.2133c-32.41407,-32.43755 -30.79058,-30.83461 -31.48049,-31.06654c-0.68991,-0.23193 -1.37395,-0.2378 -1.97579,-0.01468M1446.5956,631.61033c-3.3791,0.44624 -5.88039,1.13028 -8.73398,2.3868c-1.57946,0.69872 -2.04918,1.05395 -2.43964,1.85836c-0.81615,1.66459 0.03523,3.57873 1.82019,4.09836c0.82202,0.2378 1.32404,0.15266 2.65689,-0.44918c0.58422,-0.26422 1.4767,-0.63413 1.98459,-0.82202c1.07744,-0.39633 1.05688,-0.50496 0.25835,1.29762c-0.75156,1.70276 -1.12441,2.78019 -1.12441,3.24698c0,1.10092 0.93065,2.41909 1.94643,2.76258c0.65468,0.22018 1.55597,0.18202 2.17542,-0.09101c0.86606,-0.38165 1.31817,-0.95413 1.87303,-2.36038c0.60771,-1.54129 2.65983,-5.7747 2.80074,-5.7747c0.14385,0 1.7556,3.19414 2.46606,4.88516c0.84257,2.01689 2.12551,5.81287 2.12551,6.30021c0,0.04697 -0.44037,0.08807 -0.98055,0.08807c-1.64991,0 -2.5923,0.4433 -3.2235,1.51487c-0.26716,0.45798 -0.31707,0.67523 -0.31707,1.42092c0,0.75156 0.04697,0.96294 0.32587,1.4356c0.70459,1.1978 1.42092,1.48845 3.69616,1.49432c1.65579,0.00587 1.6734,0.00881 1.67634,0.27009c0.00587,0.69578 0.34349,3.47304 0.45505,3.76662c0.52844,1.35634 2.14019,2.13138 3.59047,1.72331c0.72808,-0.20257 1.49432,-0.90422 1.82313,-1.66753c0.24661,-0.57542 0.26129,-0.72808 0.18789,-2.00515c-0.0411,-0.76037 -0.10862,-1.53835 -0.14679,-1.73212l-0.07046,-0.34936h5.57507h5.578l0.24954,1.26239c0.63707,3.23524 0.62532,6.42645 -0.03523,9.52077c-0.09982,0.47266 -0.18202,0.88074 -0.18202,0.9101c0,0.02642 -0.57248,0.04991 -1.27413,0.04991c-1.95817,0 -2.85065,0.38459 -3.51708,1.51487c-0.27009,0.45798 -0.31707,0.67523 -0.31707,1.42973c0,0.78679 0.0411,0.95707 0.35523,1.4679c0.44918,0.73101 1.29175,1.30936 2.04918,1.41212c0.54899,0.07339 0.56661,0.08514 0.64,0.54019c0.17028,1.06863 0.88661,1.93762 1.92294,2.32515c0.75156,0.28477 1.10973,0.29358 1.88184,0.04404c0.93358,-0.30239 1.36221,-0.73982 1.97579,-2.01982c1.81138,-3.79011 2.85652,-8.3582 2.85652,-12.4683c0,-12.665 -8.06755,-23.91495 -20.01916,-27.92524c-3.94277,-1.32111 -8.85141,-1.85542 -12.56519,-1.36221M1460.28813,639.76008c2.36918,1.18606 4.44772,2.71267 6.33544,4.65616c1.40331,1.44734 2.79781,3.24111 3.38497,4.35671l0.14092,0.26422h-4.8235c-3.75781,0 -4.83231,-0.03229 -4.86167,-0.14679c-0.02349,-0.07927 -0.21138,-0.80734 -0.42275,-1.61469c-0.53725,-2.08148 -1.55597,-5.0525 -2.42496,-7.087c-0.41101,-0.95707 -0.74569,-1.76147 -0.74569,-1.7879c0,-0.11156 2.31047,0.80734 3.41726,1.35927M1432.62124,647.74544l1.28881,1.29175h-2.20771c-1.73212,0 -2.1901,-0.03229 -2.12258,-0.14679c0.33468,-0.57835 1.61175,-2.43671 1.67634,-2.43671c0.0411,0 0.65762,0.58129 1.36514,1.29175M1438.15227,655.2317c-0.13505,0.64587 -0.30239,3.77543 -0.30532,5.61323c0,1.67634 0.14092,4.36259 0.28477,5.42534l0.05284,0.38459l-5.53103,-0.03229l-5.53397,-0.02936l-0.14679,-0.64881c-0.69285,-3.05616 -0.70165,-7.06645 -0.02055,-10.36041l0.13798,-0.67523h5.56332h5.56332l-0.06459,0.32294M1447.81102,666.62551c-2.01102,0.01468 -3.67267,0.01468 -3.68735,0c-0.10275,-0.10862 -0.30532,-3.00625 -0.36404,-5.19929l-0.06752,-2.5835l3.88992,3.87524l3.88992,3.87524l-3.66093,0.03229M1439.67301,674.46113c0.61064,2.27817 1.59413,5.13763 2.44551,7.11049c0.34936,0.80441 0.62239,1.47377 0.60771,1.49138c-0.07046,0.0822 -1.91707,-0.63707 -3.09432,-1.20367c-3.69029,-1.77615 -6.86388,-4.53873 -9.28884,-8.09398c-0.3934,-0.57835 -0.71633,-1.09505 -0.71633,-1.14789c0,-0.05284 2.14606,-0.0822 4.77066,-0.06459l4.77066,0.02936l0.50496,1.87891M1454.34022,672.90516c-0.21431,0.96881 -1.42092,4.47708 -2.06386,5.98608c-0.78386,1.85248 -2.3134,4.90571 -2.45139,4.90571c-0.13505,0 -1.77615,-3.27047 -2.44551,-4.87341c-0.65762,-1.56771 -1.57358,-4.18057 -1.84955,-5.27562c-0.09982,-0.3934 -0.20551,-0.80734 -0.24073,-0.9189c-0.05578,-0.19376 0.21431,-0.20551 4.5358,-0.20551h4.59745l-0.0822,0.38165M1464.15164,679.35803c0,0.14092 -2.39854,1.67927 -3.49359,2.24001c-1.04514,0.53725 -2.87414,1.29468 -3.47304,1.44147l-0.32881,0.0822l0.19963,-0.45505c1.02459,-2.32515 2.09028,-5.21396 2.64808,-7.18682l0.14385,-0.50496l2.15193,2.149c1.18312,1.18312 2.15193,2.18716 2.15193,2.23414" className="SFSymbolsPreviewWireframe"/></g>
  <g id="Ultralight-S"><path d="M532.30045,631.60152c-0.65175,0.2378 -1.23303,0.72808 -1.5912,1.33578c-0.27009,0.45798 -0.31707,0.6723 -0.31413,1.42092c0,0.62532 0.06459,1.0011 0.21725,1.29175c0.12037,0.22606 1.59413,1.7967 3.27928,3.48772l3.06203,3.07964l-0.53725,0.6811c-0.96,1.22422 -2.20478,3.22643 -2.96808,4.78828c-4.18057,8.53141 -4.08956,18.20778 0.24661,26.58359c1.43267,2.77139 2.93873,4.80589 5.31965,7.18682c2.38093,2.38093 4.41543,3.88699 7.18682,5.31965c4.08075,2.11377 8.32884,3.20001 13.02023,3.32625c3.86057,0.10275 8.03526,-0.70753 11.93399,-2.32221c2.09909,-0.86899 4.7002,-2.37799 6.42057,-3.72845l0.67817,-0.53431l3.07964,3.06203c1.69102,1.68514 3.26166,3.15891 3.48772,3.27928c0.29064,0.15266 0.66642,0.21725 1.29175,0.21725c0.75743,0.00294 0.96,-0.04404 1.44441,-0.32881c0.65175,-0.38165 1.20074,-1.08331 1.38863,-1.77028c0.15853,-0.59303 0.07046,-1.55597 -0.19376,-2.08148c-0.10862,-0.21725 -10.45729,-10.66279 -22.99605,-23.2133c-32.41407,-32.43755 -30.79058,-30.83461 -31.48049,-31.06654c-0.68991,-0.23193 -1.37395,-0.2378 -1.97579,-0.01468M556.46201,631.61033c-3.3791,0.44624 -5.88039,1.13028 -8.73398,2.3868c-1.57946,0.69872 -2.04918,1.05395 -2.43964,1.85836c-0.81615,1.66459 0.03523,3.57873 1.82019,4.09836c0.82202,0.2378 1.32404,0.15266 2.65689,-0.44918c0.58422,-0.26422 1.4767,-0.63413 1.98459,-0.82202c1.07744,-0.39633 1.05688,-0.50496 0.25835,1.29762c-0.75156,1.70276 -1.12441,2.78019 -1.12441,3.24698c0,1.10092 0.93065,2.41909 1.94643,2.76258c0.65468,0.22018 1.55597,0.18202 2.17542,-0.09101c0.86606,-0.38165 1.31817,-0.95413 1.87303,-2.36038c0.60771,-1.54129 2.65983,-5.7747 2.80074,-5.7747c0.14385,0 1.7556,3.19414 2.46606,4.88516c0.84257,2.01689 2.12551,5.81287 2.12551,6.30021c0,0.04697 -0.44037,0.08807 -0.98055,0.08807c-1.64991,0 -2.5923,0.4433 -3.2235,1.51487c-0.26716,0.45798 -0.31707,0.67523 -0.31707,1.42092c0,0.75156 0.04697,0.96294 0.32587,1.4356c0.70459,1.1978 1.42092,1.48845 3.69616,1.49432c1.65579,0.00587 1.6734,0.00881 1.67634,0.27009c0.00587,0.69578 0.34349,3.47304 0.45505,3.76662c0.52844,1.35634 2.14019,2.13138 3.59047,1.72331c0.72808,-0.20257 1.49432,-0.90422 1.82313,-1.66753c0.24661,-0.57542 0.26129,-0.72808 0.18789,-2.00515c-0.0411,-0.76037 -0.10862,-1.53835 -0.14679,-1.73212l-0.07046,-0.34936h5.57507h5.578l0.24954,1.26239c0.63707,3.23524 0.62532,6.42645 -0.03523,9.52077c-0.09982,0.47266 -0.18202,0.88074 -0.18202,0.9101c0,0.02642 -0.57248,0.04991 -1.27413,0.04991c-1.95817,0 -2.85065,0.38459 -3.51708,1.51487c-0.27009,0.45798 -0.31707,0.67523 -0.31707,1.42973c0,0.78679 0.0411,0.95707 0.35523,1.4679c0.44918,0.73101 1.29175,1.30936 2.04918,1.41212c0.54899,0.07339 0.56661,0.08514 0.64,0.54019c0.17028,1.06863 0.88661,1.93762 1.92294,2.32515c0.75156,0.28477 1.10973,0.29358 1.88184,0.04404c0.93358,-0.30239 1.36221,-0.73982 1.97579,-2.01982c1.81138,-3.79011 2.85652,-8.3582 2.85652,-12.4683c0,-12.665 -8.06755,-23.91495 -20.01916,-27.92524c-3.94277,-1.32111 -8.85141,-1.85542 -12.56519,-1.36221M570.15454,639.76008c2.36918,1.18606 4.44772,2.71267 6.33544,4.65616c1.40331,1.44734 2.79781,3.24111 3.38497,4.35671l0.14092,0.26422h-4.8235c-3.75781,0 -4.83231,-0.03229 -4.86167,-0.14679c-0.02349,-0.07927 -0.21138,-0.80734 -0.42275,-1.61469c-0.53725,-2.08148 -1.55597,-5.0525 -2.42496,-7.087c-0.41101,-0.95707 -0.74569,-1.76147 -0.74569,-1.7879c0,-0.11156 2.31047,0.80734 3.41726,1.35927M542.48765,647.74544l1.28881,1.29175h-2.20771c-1.73212,0 -2.1901,-0.03229 -2.12258,-0.14679c0.33468,-0.57835 1.61175,-2.43671 1.67634,-2.43671c0.0411,0 0.65762,0.58129 1.36514,1.29175M548.01868,655.2317c-0.13505,0.64587 -0.30239,3.77543 -0.30532,5.61323c0,1.67634 0.14092,4.36259 0.28477,5.42534l0.05284,0.38459l-5.53103,-0.03229l-5.53397,-0.02936l-0.14679,-0.64881c-0.69285,-3.05616 -0.70165,-7.06645 -0.02055,-10.36041l0.13798,-0.67523h5.56332h5.56332l-0.06459,0.32294M557.67743,666.62551c-2.01102,0.01468 -3.67267,0.01468 -3.68735,0c-0.10275,-0.10862 -0.30532,-3.00625 -0.36404,-5.19929l-0.06752,-2.5835l3.88992,3.87524l3.88992,3.87524l-3.66093,0.03229M549.53942,674.46113c0.61064,2.27817 1.59413,5.13763 2.44551,7.11049c0.34936,0.80441 0.62239,1.47377 0.60771,1.49138c-0.07046,0.0822 -1.91707,-0.63707 -3.09432,-1.20367c-3.69029,-1.77615 -6.86388,-4.53873 -9.28884,-8.09398c-0.3934,-0.57835 -0.71633,-1.09505 -0.71633,-1.14789c0,-0.05284 2.14606,-0.0822 4.77066,-0.06459l4.77066,0.02936l0.50496,1.87891M564.20663,672.90516c-0.21431,0.96881 -1.42092,4.47708 -2.06386,5.98608c-0.78386,1.85248 -2.3134,4.90571 -2.45139,4.90571c-0.13505,0 -1.77615,-3.27047 -2.44551,-4.87341c-0.65762,-1.56771 -1.57358,-4.18057 -1.84955,-5.27562c-0.09982,-0.3934 -0.20551,-0.80734 -0.24073,-0.9189c-0.05578,-0.19376 0.21431,-0.20551 4.5358,-0.20551h4.59745l-0.0822,0.38165M574.01804,679.35803c0,0.14092 -2.39854,1.67927 -3.49359,2.24001c-1.04514,0.53725 -2.87414,1.29468 -3.47304,1.44147l-0.32881,0.0822l0.19963,-0.45505c1.02459,-2.32515 2.09028,-5.21396 2.64808,-7.18682l0.14385,-0.50496l2.15193,2.149c1.18312,1.18312 2.15193,2.18716 2.15193,2.23414" className="SFSymbolsPreviewWireframe"/></g>
 </g>
</svg>