<?xml version="1.0" encoding="UTF-8"?><!--Generator: https://SymbolKit.app--><!DOCTYPE svg PUBLIC "-//W3C//DTD SVG 1.1//EN" "http://www.w3.org/Graphics/SVG/1.1/DTD/svg11.dtd"><svg xmlns="http://www.w3.org/2000/svg" xmlns:xlink="http://www.w3.org/1999/xlink" version="1.1" viewBox="0 0 3300 2200">
 <!--glyph: "100092", point size: 100.0, font version: "20.0d10e1", template writer version: "138.0.0"-->
 <style>.SFSymbolsPreviewWireframe {fill:none;opacity:1.0;stroke:black;stroke-width:0.5}
</style>
 <g id="Notes">
  <rect height="2200" id="artboard" style="fill:white;opacity:1" width="3300" x="0" y="0"/>
  <line style="fill:none;stroke:black;opacity:1;stroke-width:0.5;" x1="263" x2="3036" y1="292" y2="292"/>
  <text style="stroke:none;fill:black;font-family:sans-serif;font-size:13;font-weight:bold;" transform="matrix(1 0 0 1 263 322)">Weight/Scale Variations</text>
  <text style="stroke:none;fill:black;font-family:sans-serif;font-size:13;text-anchor:middle;" transform="matrix(1 0 0 1 559.711 322)">Ultralight</text>
  <text style="stroke:none;fill:black;font-family:sans-serif;font-size:13;text-anchor:middle;" transform="matrix(1 0 0 1 856.422 322)">Thin</text>
  <text style="stroke:none;fill:black;font-family:sans-serif;font-size:13;text-anchor:middle;" transform="matrix(1 0 0 1 1153.13 322)">Light</text>
  <text style="stroke:none;fill:black;font-family:sans-serif;font-size:13;text-anchor:middle;" transform="matrix(1 0 0 1 1449.84 322)">Regular</text>
  <text style="stroke:none;fill:black;font-family:sans-serif;font-size:13;text-anchor:middle;" transform="matrix(1 0 0 1 1746.56 322)">Medium</text>
  <text style="stroke:none;fill:black;font-family:sans-serif;font-size:13;text-anchor:middle;" transform="matrix(1 0 0 1 2043.27 322)">Semibold</text>
  <text style="stroke:none;fill:black;font-family:sans-serif;font-size:13;text-anchor:middle;" transform="matrix(1 0 0 1 2339.98 322)">Bold</text>
  <text style="stroke:none;fill:black;font-family:sans-serif;font-size:13;text-anchor:middle;" transform="matrix(1 0 0 1 2636.69 322)">Heavy</text>
  <text style="stroke:none;fill:black;font-family:sans-serif;font-size:13;text-anchor:middle;" transform="matrix(1 0 0 1 2933.4 322)">Black</text>
  <line style="fill:none;stroke:black;opacity:1;stroke-width:0.5;" x1="263" x2="3036" y1="1903" y2="1903"/>
  <g transform="matrix(0.2 0 0 0.2 263 1933)">
   <path d="m46.2402 4.15039c21.7773 0 39.4531-17.627 39.4531-39.4043s-17.6758-39.4043-39.4531-39.4043c-21.7285 0-39.4043 17.627-39.4043 39.4043s17.6758 39.4043 39.4043 39.4043Zm0-7.42188c-17.6758 0-31.9336-14.3066-31.9336-31.9824s14.2578-31.9824 31.9336-31.9824 31.9824 14.3066 31.9824 31.9824-14.3066 31.9824-31.9824 31.9824Zm-17.9688-31.9824c0 2.14844 1.51367 3.61328 3.75977 3.61328h10.498v10.5957c0 2.19727 1.46484 3.71094 3.61328 3.71094 2.24609 0 3.71094-1.51367 3.71094-3.71094v-10.5957h10.5957c2.19727 0 3.71094-1.46484 3.71094-3.61328 0-2.19727-1.51367-3.71094-3.71094-3.71094h-10.5957v-10.5469c0-2.24609-1.46484-3.75977-3.71094-3.75977-2.14844 0-3.61328 1.51367-3.61328 3.75977v10.5469h-10.498c-2.24609 0-3.75977 1.51367-3.75977 3.71094Z"/>
  </g>
  <g transform="matrix(0.2 0 0 0.2 281.506 1933)">
   <path d="m58.5449 14.5508c27.4902 0 49.8047-22.3145 49.8047-49.8047s-22.3145-49.8047-49.8047-49.8047-49.8047 22.3145-49.8047 49.8047 22.3145 49.8047 49.8047 49.8047Zm0-8.30078c-22.9492 0-41.5039-18.5547-41.5039-41.5039s18.5547-41.5039 41.5039-41.5039 41.5039 18.5547 41.5039 41.5039-18.5547 41.5039-41.5039 41.5039Zm-22.6562-41.5039c0 2.39258 1.66016 4.00391 4.15039 4.00391h14.3555v14.4043c0 2.44141 1.66016 4.15039 4.05273 4.15039 2.44141 0 4.15039-1.66016 4.15039-4.15039v-14.4043h14.4043c2.44141 0 4.15039-1.61133 4.15039-4.00391 0-2.44141-1.70898-4.15039-4.15039-4.15039h-14.4043v-14.3555c0-2.49023-1.70898-4.19922-4.15039-4.19922-2.39258 0-4.05273 1.70898-4.05273 4.19922v14.3555h-14.3555c-2.49023 0-4.15039 1.70898-4.15039 4.15039Z"/>
  </g>
  <g transform="matrix(0.2 0 0 0.2 304.924 1933)">
   <path d="m74.8535 28.3203c35.1074 0 63.623-28.4668 63.623-63.5742s-28.5156-63.623-63.623-63.623-63.5742 28.5156-63.5742 63.623 28.4668 63.5742 63.5742 63.5742Zm0-9.08203c-30.127 0-54.4922-24.3652-54.4922-54.4922s24.3652-54.4922 54.4922-54.4922 54.4922 24.3652 54.4922 54.4922-24.3652 54.4922-54.4922 54.4922Zm-28.8574-54.4922c0 2.58789 1.85547 4.39453 4.58984 4.39453h19.7266v19.7754c0 2.68555 1.85547 4.58984 4.44336 4.58984 2.68555 0 4.54102-1.85547 4.54102-4.58984v-19.7754h19.7754c2.68555 0 4.58984-1.80664 4.58984-4.39453 0-2.73438-1.85547-4.58984-4.58984-4.58984h-19.7754v-19.7266c0-2.73438-1.85547-4.63867-4.54102-4.63867-2.58789 0-4.44336 1.9043-4.44336 4.63867v19.7266h-19.7266c-2.73438 0-4.58984 1.85547-4.58984 4.58984Z"/>
  </g>
  <text style="stroke:none;fill:black;font-family:sans-serif;font-size:13;font-weight:bold;" transform="matrix(1 0 0 1 263 1953)">Design Variations</text>
  <text style="stroke:none;fill:black;font-family:sans-serif;font-size:13;" transform="matrix(1 0 0 1 263 1971)">Symbols are supported in up to nine weights and three scales.</text>
  <text style="stroke:none;fill:black;font-family:sans-serif;font-size:13;" transform="matrix(1 0 0 1 263 1989)">For optimal layout with text and other symbols, vertically align</text>
  <text style="stroke:none;fill:black;font-family:sans-serif;font-size:13;" transform="matrix(1 0 0 1 263 2007)">symbols with the adjacent text.</text>
  <line style="fill:none;stroke:#00AEEF;stroke-width:0.5;opacity:1.0;" x1="776" x2="776" y1="1919" y2="1933"/>
  <g transform="matrix(0.2 0 0 0.2 776 1933)">
   <path d="m16.5527 0.78125c2.58789 0 3.85742-0.976562 4.78516-3.71094l6.29883-17.2363h28.8086l6.29883 17.2363c0.927734 2.73438 2.19727 3.71094 4.73633 3.71094 2.58789 0 4.24805-1.5625 4.24805-4.00391 0-0.830078-0.146484-1.61133-0.537109-2.63672l-22.9004-60.9863c-1.12305-2.97852-3.125-4.49219-6.25-4.49219-3.02734 0-5.07812 1.46484-6.15234 4.44336l-22.9004 61.084c-0.390625 1.02539-0.537109 1.80664-0.537109 2.63672 0 2.44141 1.5625 3.95508 4.10156 3.95508Zm13.4766-28.3691 11.8652-32.8613h0.244141l11.8652 32.8613Z"/>
  </g>
  <line style="fill:none;stroke:#00AEEF;stroke-width:0.5;opacity:1.0;" x1="792.836" x2="792.836" y1="1919" y2="1933"/>
  <text style="stroke:none;fill:black;font-family:sans-serif;font-size:13;font-weight:bold;" transform="matrix(1 0 0 1 776 1953)">Margins</text>
  <text style="stroke:none;fill:black;font-family:sans-serif;font-size:13;" transform="matrix(1 0 0 1 776 1971)">Leading and trailing margins on the left and right side of each symbol</text>
  <text style="stroke:none;fill:black;font-family:sans-serif;font-size:13;" transform="matrix(1 0 0 1 776 1989)">can be adjusted by modifying the x-location of the margin guidelines.</text>
  <text style="stroke:none;fill:black;font-family:sans-serif;font-size:13;" transform="matrix(1 0 0 1 776 2007)">Modifications are automatically applied proportionally to all</text>
  <text style="stroke:none;fill:black;font-family:sans-serif;font-size:13;" transform="matrix(1 0 0 1 776 2025)">scales and weights.</text>
  <g transform="matrix(0.2 0 0 0.2 1289 1933)">
   <path d="m14.209 9.32617 8.49609 8.54492c4.29688 4.3457 9.22852 4.05273 13.8672-1.07422l53.4668-58.9355-4.83398-4.88281-53.0762 58.3984c-1.75781 2.00195-3.41797 2.49023-5.76172 0.146484l-5.85938-5.81055c-2.34375-2.29492-1.80664-4.00391 0.195312-5.81055l57.373-54.0039-4.88281-4.83398-57.959 54.4434c-4.93164 4.58984-5.32227 9.47266-1.02539 13.8184Zm32.0801-90.9668c-2.09961 2.05078-2.24609 4.93164-1.07422 6.88477 1.17188 1.80664 3.4668 2.97852 6.68945 2.14844 7.32422-1.70898 14.9414-2.00195 22.0703 2.68555l-2.92969 7.27539c-1.70898 4.15039-0.830078 7.08008 1.85547 9.81445l11.4746 11.5723c2.44141 2.44141 4.49219 2.53906 7.32422 2.05078l5.32227-0.976562 3.32031 3.36914-0.195312 2.7832c-0.195312 2.49023 0.439453 4.39453 2.88086 6.78711l3.80859 3.71094c2.39258 2.39258 5.46875 2.53906 7.8125 0.195312l14.5508-14.5996c2.34375-2.34375 2.24609-5.32227-0.146484-7.71484l-3.85742-3.80859c-2.39258-2.39258-4.24805-3.17383-6.64062-2.97852l-2.88086 0.244141-3.22266-3.17383 1.2207-5.61523c0.634766-2.83203-0.146484-5.0293-3.07617-7.95898l-10.9863-10.9375c-16.6992-16.6016-38.8672-16.2109-53.3203-1.75781Zm7.4707 1.85547c12.1582-8.88672 28.6133-7.37305 39.7461 3.75977l12.1582 12.0605c1.17188 1.17188 1.36719 2.09961 1.02539 3.80859l-1.61133 7.42188 7.51953 7.42188 4.93164-0.292969c1.26953-0.0488281 1.66016 0.0488281 2.63672 1.02539l2.88086 2.88086-12.207 12.207-2.88086-2.88086c-0.976562-0.976562-1.12305-1.36719-1.07422-2.68555l0.341797-4.88281-7.4707-7.42188-7.61719 1.26953c-1.61133 0.341797-2.34375 0.195312-3.56445-0.976562l-10.0098-10.0098c-1.26953-1.17188-1.41602-2.00195-0.634766-3.85742l4.39453-10.4492c-7.8125-7.27539-17.9688-10.4004-28.125-7.42188-0.78125 0.195312-1.07422-0.439453-0.439453-0.976562Z"/>
  </g>
  <text style="stroke:none;fill:black;font-family:sans-serif;font-size:13;font-weight:bold;" transform="matrix(1 0 0 1 1289 1953)">Exporting</text>
  <text style="stroke:none;fill:black;font-family:sans-serif;font-size:13;" transform="matrix(1 0 0 1 1289 1971)">Symbols should be outlined when exporting to ensure the</text>
  <text style="stroke:none;fill:black;font-family:sans-serif;font-size:13;" transform="matrix(1 0 0 1 1289 1989)">design is preserved when submitting to Xcode.</text>
  <text id="template-version" style="stroke:none;fill:black;font-family:sans-serif;font-size:13;text-anchor:end;" transform="matrix(1 0 0 1 3036 1933)">Template v.6.0</text>
  <text style="stroke:none;fill:black;font-family:sans-serif;font-size:13;text-anchor:end;" transform="matrix(1 0 0 1 3036 1951)">Requires Xcode 16 or greater</text>
  <text id="descriptive-name" style="stroke:none;fill:black;font-family:sans-serif;font-size:13;text-anchor:end;" transform="matrix(1 0 0 1 3036 1969)">Generated from square</text>
  <text style="stroke:none;fill:black;font-family:sans-serif;font-size:13;text-anchor:end;" transform="matrix(1 0 0 1 3036 1987)">Typeset at 100.0 points</text>
  <text style="stroke:none;fill:black;font-family:sans-serif;font-size:13;" transform="matrix(1 0 0 1 263 726)">Small</text>
  <text style="stroke:none;fill:black;font-family:sans-serif;font-size:13;" transform="matrix(1 0 0 1 263 1156)">Medium</text>
  <text style="stroke:none;fill:black;font-family:sans-serif;font-size:13;" transform="matrix(1 0 0 1 263 1586)">Large</text>
 </g>
 <g id="Guides">
  <g id="H-reference" style="fill:#27AAE1;stroke:none;" transform="matrix(1 0 0 1 339 696)">
   <path d="M0.993654 0L3.63775 0L29.3281-67.1323L30.0303-67.1323L30.0303-70.459L28.1226-70.459ZM11.6885-24.4799L46.9815-24.4799L46.2315-26.7285L12.4385-26.7285ZM55.1196 0L57.7637 0L30.6382-70.459L29.4326-70.459L29.4326-67.1323Z"/>
  </g>
  <line id="Baseline-S" style="fill:none;stroke:#27AAE1;opacity:1;stroke-width:0.5;" x1="263" x2="3036" y1="696" y2="696"/>
  <line id="Capline-S" style="fill:none;stroke:#27AAE1;opacity:1;stroke-width:0.5;" x1="263" x2="3036" y1="625.541" y2="625.541"/>
  <g id="H-reference" style="fill:#27AAE1;stroke:none;" transform="matrix(1 0 0 1 339 1126)">
   <path d="M0.993654 0L3.63775 0L29.3281-67.1323L30.0303-67.1323L30.0303-70.459L28.1226-70.459ZM11.6885-24.4799L46.9815-24.4799L46.2315-26.7285L12.4385-26.7285ZM55.1196 0L57.7637 0L30.6382-70.459L29.4326-70.459L29.4326-67.1323Z"/>
  </g>
  <line id="Baseline-M" style="fill:none;stroke:#27AAE1;opacity:1;stroke-width:0.5;" x1="263" x2="3036" y1="1126" y2="1126"/>
  <line id="Capline-M" style="fill:none;stroke:#27AAE1;opacity:1;stroke-width:0.5;" x1="263" x2="3036" y1="1055.54" y2="1055.54"/>
  <g id="H-reference" style="fill:#27AAE1;stroke:none;" transform="matrix(1 0 0 1 339 1556)">
   <path d="M0.993654 0L3.63775 0L29.3281-67.1323L30.0303-67.1323L30.0303-70.459L28.1226-70.459ZM11.6885-24.4799L46.9815-24.4799L46.2315-26.7285L12.4385-26.7285ZM55.1196 0L57.7637 0L30.6382-70.459L29.4326-70.459L29.4326-67.1323Z"/>
  </g>
  <line id="Baseline-L" style="fill:none;stroke:#27AAE1;opacity:1;stroke-width:0.5;" x1="263" x2="3036" y1="1556" y2="1556"/>
  <line id="Capline-L" style="fill:none;stroke:#27AAE1;opacity:1;stroke-width:0.5;" x1="263" x2="3036" y1="1485.54" y2="1485.54"/>
  <line id="right-margin-Black-S" style="fill:none;stroke:#00AEEF;stroke-width:0.5;opacity:1.0;" x1="2981.3" x2="2981.3" y1="600.785" y2="720.121"/>
  <line id="left-margin-Black-S" style="fill:none;stroke:#00AEEF;stroke-width:0.5;opacity:1.0;" x1="2885.5" x2="2885.5" y1="600.785" y2="720.121"/>
  <line id="right-margin-Regular-S" style="fill:none;stroke:#00AEEF;stroke-width:0.5;opacity:1.0;" x1="1495.18" x2="1495.18" y1="600.785" y2="720.121"/>
  <line id="left-margin-Regular-S" style="fill:none;stroke:#00AEEF;stroke-width:0.5;opacity:1.0;" x1="1404.51" x2="1404.51" y1="600.785" y2="720.121"/>
  <line id="right-margin-Ultralight-S" style="fill:none;stroke:#00AEEF;stroke-width:0.5;opacity:1.0;" x1="603.073" x2="603.073" y1="600.785" y2="720.121"/>
  <line id="left-margin-Ultralight-S" style="fill:none;stroke:#00AEEF;stroke-width:0.5;opacity:1.0;" x1="516.35" x2="516.35" y1="600.785" y2="720.121"/>
 </g>
 <g id="Symbols">
  <g id="Black-S"><path d="M2928.57265,630.15937c-4.89396,0.62532 -8.98939,2.13432 -12.9028,4.74717c-7.02241,4.69139 -11.54059,11.84005 -12.84115,20.3098c-0.29064,1.90533 -0.29358,6.34131 0,8.22021c0.81028,5.23745 2.85359,9.98756 6.06828,14.11235c0.96881,1.24184 3.41726,3.71084 4.63855,4.67965c4.70901,3.72552 10.34279,5.9303 16.39052,6.4059c0.88367,0.07046 1.07744,0.04697 1.58533,-0.17615c1.01578,-0.44918 1.61175,-1.17138 1.79964,-2.18423c0.15266,-0.81615 -0.04404,-1.52955 -0.7545,-2.72148c-1.49725,-2.50717 -2.94753,-5.53103 -3.86644,-8.07343c-0.46385,-1.27413 -1.35634,-4.13066 -1.35634,-4.33323c0,-0.0411 0.17028,-0.07633 0.38165,-0.07633c0.51964,-0.00294 1.4767,-0.4756 1.93175,-0.95413c0.51083,-0.53725 0.76331,-1.19487 0.76331,-1.98166c0,-0.78679 -0.25541,-1.44734 -0.76331,-1.97872c-0.63707,-0.66055 -1.18606,-0.8778 -2.3868,-0.93358l-1.0745,-0.04991l-0.06459,-0.54606c-0.03817,-0.29945 -0.13211,-1.61469 -0.21431,-2.92111c-0.13798,-2.26056 -0.04697,-5.55452 0.21431,-7.69177l0.06752,-0.5578h5.73947c4.51231,0 5.73947,0.03229 5.73947,0.14679c0.00294,0.0822 0.07927,1.0011 0.17028,2.04625c0.14092,1.59413 0.21725,1.99634 0.46679,2.48955c1.10092,2.16661 4.2657,2.03744 5.26974,-0.21725c0.21431,-0.47853 0.22606,-0.68698 0.16147,-2.30166c-0.0411,-0.97762 -0.10862,-1.86423 -0.14679,-1.96992c-0.07046,-0.17908 0.37872,-0.19376 5.50461,-0.19376h5.58094l0.13211,0.61652c0.26716,1.24184 0.47853,2.88882 0.57835,4.52405c0.09395,1.55303 0.12624,1.7145 0.4433,2.2312c1.16551,1.89359 3.85763,1.88184 5.02901,-0.02349l0.35523,-0.58129l-0.01174,-1.82606c-0.02055,-3.43781 -0.77505,-6.95782 -2.2312,-10.43674c-4.57983,-10.92701 -15.39235,-18.06099 -27.25295,-17.97878c-1.02166,0.00881 -2.43671,0.08807 -3.14423,0.17908M2932.83248,637.93041c1.00991,1.96698 1.88184,3.97213 2.51304,5.77764c0.4433,1.27413 1.14789,3.59341 1.14789,3.78717c0,0.04697 -2.06093,0.08807 -4.57983,0.08807c-2.51891,0 -4.57983,-0.03817 -4.57983,-0.08807c0,-0.17908 0.93652,-3.17946 1.33872,-4.29213c0.80441,-2.21946 3.00038,-6.89324 3.24111,-6.89324c0.04697,0 0.46092,0.72808 0.9189,1.62056M2924.15428,638.67022c-0.87193,2.06093 -1.96698,5.27268 -2.49542,7.32773l-0.3934,1.52661l-4.84699,0.02936l-4.84699,0.03229l0.2789,-0.46973c1.54423,-2.61579 4.35378,-5.53103 7.11049,-7.38351c1.13028,-0.75743 3.13542,-1.78203 4.55635,-2.32515c0.71046,-0.27009 1.30349,-0.47853 1.32111,-0.46092c0.01761,0.01761 -0.29064,0.79266 -0.68404,1.72331M2942.18885,638.24453c2.67744,1.30349 4.62387,2.73322 6.72883,4.938c1.189,1.24184 2.31047,2.68918 3.02974,3.90167l0.29651,0.49908h-4.81763h-4.81763l-0.12624,-0.49908c-0.76331,-3.0268 -1.77615,-6.07415 -2.84185,-8.53728c-0.32,-0.74569 -0.61358,-1.42386 -0.64587,-1.50606c-0.09395,-0.22899 1.45028,0.35229 3.19414,1.20367M2920.23206,653.71909c-0.11743,0.53138 -0.29651,3.91047 -0.29651,5.60736c0,1.69689 0.17908,5.07598 0.29651,5.60736l0.06165,0.26422h-5.57213h-5.5692l-0.13211,-0.60771c-0.42863,-2.00221 -0.51964,-2.92992 -0.5167,-5.26387c0,-2.32515 0.09688,-3.30864 0.5167,-5.26387l0.13211,-0.60771h5.5692h5.57213l-0.06165,0.26422M2942.77307,665.30666c-3.02093,0.48441 -5.76002,2.54827 -7.02828,5.29323c-0.68404,1.48257 -0.83376,2.20771 -0.82496,3.99268c0.00587,1.44441 0.03817,1.68221 0.36697,2.67451c0.7134,2.149 0.77505,2.22533 6.82278,8.22315c3.01506,2.98864 5.71892,5.578 6.00956,5.75415c0.44918,0.27009 0.66055,0.31707 1.40918,0.31707c0.74569,0 0.96,-0.04697 1.40918,-0.31413c0.29064,-0.17321 3.02093,-2.789 6.06828,-5.81287c5.97433,-5.92736 6.00076,-5.95966 6.66718,-7.86792c0.59303,-1.69395 0.6811,-3.71671 0.24073,-5.3813c-0.45211,-1.69689 -1.60588,-3.49653 -3.02093,-4.71194c-2.84185,-2.44258 -7.09874,-2.94166 -10.41031,-1.21835l-0.91597,0.4756l-0.92771,-0.46679c-1.32698,-0.66936 -2.45139,-0.9512 -3.98387,-1.00698c-0.71046,-0.02349 -1.55597,-0.00294 -1.88184,0.04991M2921.65886,672.65494c0.52844,2.05505 1.62349,5.26681 2.49542,7.32773c0.3934,0.93065 0.70165,1.70863 0.68404,1.72625c-0.07046,0.07046 -2.45432,-0.89542 -3.49359,-1.41799c-3.84295,-1.92588 -7.27489,-5.1024 -9.50022,-8.78095l-0.26716,-0.4433l4.84406,0.03229l4.84406,0.02936l0.3934,1.52661M2945.8762,671.47475c0.32587,0.1644 0.92771,0.61652 1.34166,1.00404c0.8778,0.81909 1.40918,1.0745 2.25175,1.08331c0.9189,0.00587 1.40624,-0.21138 2.32808,-1.04808c1.35634,-1.22716 2.31634,-1.57358 3.66093,-1.32404c2.41028,0.44624 3.63745,3.18827 2.30753,5.15525c-0.17028,0.25248 -2.06973,2.18716 -4.22167,4.30093c-3.3057,3.24992 -3.94277,3.82534 -4.13066,3.73726c-0.1233,-0.05578 -2.00515,-1.8701 -4.18057,-4.02791c-4.44185,-4.40956 -4.45359,-4.4213 -4.44479,-5.88039c0.00587,-0.71927 0.06459,-0.9923 0.32294,-1.49432c0.46679,-0.9101 1.32404,-1.54129 2.48661,-1.83781c0.52257,-0.13505 1.69982,0.03817 2.27817,0.33174" className="SFSymbolsPreviewWireframe"/></g>
  <g id="Regular-S"><path d="M1445.0176,630.15937c-4.89396,0.62532 -8.98939,2.13432 -12.9028,4.74717c-7.02241,4.69139 -11.54059,11.84005 -12.84115,20.3098c-0.29064,1.90533 -0.29358,6.34131 0,8.22021c0.81028,5.23745 2.85359,9.98756 6.06828,14.11235c0.96881,1.24184 3.41726,3.71084 4.63855,4.67965c4.70901,3.72552 10.34279,5.9303 16.39052,6.4059c0.88367,0.07046 1.07744,0.04697 1.58533,-0.17615c1.01578,-0.44918 1.61175,-1.17138 1.79964,-2.18423c0.15266,-0.81615 -0.04404,-1.52955 -0.7545,-2.72148c-1.49725,-2.50717 -2.94753,-5.53103 -3.86644,-8.07343c-0.46385,-1.27413 -1.35634,-4.13066 -1.35634,-4.33323c0,-0.0411 0.17028,-0.07633 0.38165,-0.07633c0.51964,-0.00294 1.4767,-0.4756 1.93175,-0.95413c0.51083,-0.53725 0.76331,-1.19487 0.76331,-1.98166c0,-0.78679 -0.25541,-1.44734 -0.76331,-1.97872c-0.63707,-0.66055 -1.18606,-0.8778 -2.3868,-0.93358l-1.0745,-0.04991l-0.06459,-0.54606c-0.03817,-0.29945 -0.13211,-1.61469 -0.21431,-2.92111c-0.13798,-2.26056 -0.04697,-5.55452 0.21431,-7.69177l0.06752,-0.5578h5.73947c4.51231,0 5.73947,0.03229 5.73947,0.14679c0.00294,0.0822 0.07927,1.0011 0.17028,2.04625c0.14092,1.59413 0.21725,1.99634 0.46679,2.48955c1.10092,2.16661 4.2657,2.03744 5.26974,-0.21725c0.21431,-0.47853 0.22606,-0.68698 0.16147,-2.30166c-0.0411,-0.97762 -0.10862,-1.86423 -0.14679,-1.96992c-0.07046,-0.17908 0.37872,-0.19376 5.50461,-0.19376h5.58094l0.13211,0.61652c0.26716,1.24184 0.47853,2.88882 0.57835,4.52405c0.09395,1.55303 0.12624,1.7145 0.4433,2.2312c1.16551,1.89359 3.85763,1.88184 5.02901,-0.02349l0.35523,-0.58129l-0.01174,-1.82606c-0.02055,-3.43781 -0.77505,-6.95782 -2.2312,-10.43674c-4.57983,-10.92701 -15.39235,-18.06099 -27.25295,-17.97878c-1.02166,0.00881 -2.43671,0.08807 -3.14423,0.17908M1449.27743,637.93041c1.00991,1.96698 1.88184,3.97213 2.51304,5.77764c0.4433,1.27413 1.14789,3.59341 1.14789,3.78717c0,0.04697 -2.06093,0.08807 -4.57983,0.08807c-2.51891,0 -4.57983,-0.03817 -4.57983,-0.08807c0,-0.17908 0.93652,-3.17946 1.33872,-4.29213c0.80441,-2.21946 3.00038,-6.89324 3.24111,-6.89324c0.04697,0 0.46092,0.72808 0.9189,1.62056M1440.59923,638.67022c-0.87193,2.06093 -1.96698,5.27268 -2.49542,7.32773l-0.3934,1.52661l-4.84699,0.02936l-4.84699,0.03229l0.2789,-0.46973c1.54423,-2.61579 4.35378,-5.53103 7.11049,-7.38351c1.13028,-0.75743 3.13542,-1.78203 4.55635,-2.32515c0.71046,-0.27009 1.30349,-0.47853 1.32111,-0.46092c0.01761,0.01761 -0.29064,0.79266 -0.68404,1.72331M1458.6338,638.24453c2.67744,1.30349 4.62387,2.73322 6.72883,4.938c1.189,1.24184 2.31047,2.68918 3.02974,3.90167l0.29651,0.49908h-4.81763h-4.81763l-0.12624,-0.49908c-0.76331,-3.0268 -1.77615,-6.07415 -2.84185,-8.53728c-0.32,-0.74569 -0.61358,-1.42386 -0.64587,-1.50606c-0.09395,-0.22899 1.45028,0.35229 3.19414,1.20367M1436.67701,653.71909c-0.11743,0.53138 -0.29651,3.91047 -0.29651,5.60736c0,1.69689 0.17908,5.07598 0.29651,5.60736l0.06165,0.26422h-5.57213h-5.5692l-0.13211,-0.60771c-0.42863,-2.00221 -0.51964,-2.92992 -0.5167,-5.26387c0,-2.32515 0.09688,-3.30864 0.5167,-5.26387l0.13211,-0.60771h5.5692h5.57213l-0.06165,0.26422M1459.21802,665.30666c-3.02093,0.48441 -5.76002,2.54827 -7.02828,5.29323c-0.68404,1.48257 -0.83376,2.20771 -0.82496,3.99268c0.00587,1.44441 0.03817,1.68221 0.36697,2.67451c0.7134,2.149 0.77505,2.22533 6.82278,8.22315c3.01506,2.98864 5.71892,5.578 6.00956,5.75415c0.44918,0.27009 0.66055,0.31707 1.40918,0.31707c0.74569,0 0.96,-0.04697 1.40918,-0.31413c0.29064,-0.17321 3.02093,-2.789 6.06828,-5.81287c5.97433,-5.92736 6.00076,-5.95966 6.66718,-7.86792c0.59303,-1.69395 0.6811,-3.71671 0.24073,-5.3813c-0.45211,-1.69689 -1.60588,-3.49653 -3.02093,-4.71194c-2.84185,-2.44258 -7.09874,-2.94166 -10.41031,-1.21835l-0.91597,0.4756l-0.92771,-0.46679c-1.32698,-0.66936 -2.45139,-0.9512 -3.98387,-1.00698c-0.71046,-0.02349 -1.55597,-0.00294 -1.88184,0.04991M1438.10381,672.65494c0.52844,2.05505 1.62349,5.26681 2.49542,7.32773c0.3934,0.93065 0.70165,1.70863 0.68404,1.72625c-0.07046,0.07046 -2.45432,-0.89542 -3.49359,-1.41799c-3.84295,-1.92588 -7.27489,-5.1024 -9.50022,-8.78095l-0.26716,-0.4433l4.84406,0.03229l4.84406,0.02936l0.3934,1.52661M1462.32115,671.47475c0.32587,0.1644 0.92771,0.61652 1.34166,1.00404c0.8778,0.81909 1.40918,1.0745 2.25175,1.08331c0.9189,0.00587 1.40624,-0.21138 2.32808,-1.04808c1.35634,-1.22716 2.31634,-1.57358 3.66093,-1.32404c2.41028,0.44624 3.63745,3.18827 2.30753,5.15525c-0.17028,0.25248 -2.06973,2.18716 -4.22167,4.30093c-3.3057,3.24992 -3.94277,3.82534 -4.13066,3.73726c-0.1233,-0.05578 -2.00515,-1.8701 -4.18057,-4.02791c-4.44185,-4.40956 -4.45359,-4.4213 -4.44479,-5.88039c0.00587,-0.71927 0.06459,-0.9923 0.32294,-1.49432c0.46679,-0.9101 1.32404,-1.54129 2.48661,-1.83781c0.52257,-0.13505 1.69982,0.03817 2.27817,0.33174" className="SFSymbolsPreviewWireframe"/></g>
  <g id="Ultralight-S"><path d="M554.88401,630.15937c-4.89396,0.62532 -8.98939,2.13432 -12.9028,4.74717c-7.02241,4.69139 -11.54059,11.84005 -12.84115,20.3098c-0.29064,1.90533 -0.29358,6.34131 0,8.22021c0.81028,5.23745 2.85359,9.98756 6.06828,14.11235c0.96881,1.24184 3.41726,3.71084 4.63855,4.67965c4.70901,3.72552 10.34279,5.9303 16.39052,6.4059c0.88367,0.07046 1.07744,0.04697 1.58533,-0.17615c1.01578,-0.44918 1.61175,-1.17138 1.79964,-2.18423c0.15266,-0.81615 -0.04404,-1.52955 -0.7545,-2.72148c-1.49725,-2.50717 -2.94753,-5.53103 -3.86644,-8.07343c-0.46385,-1.27413 -1.35634,-4.13066 -1.35634,-4.33323c0,-0.0411 0.17028,-0.07633 0.38165,-0.07633c0.51964,-0.00294 1.4767,-0.4756 1.93175,-0.95413c0.51083,-0.53725 0.76331,-1.19487 0.76331,-1.98166c0,-0.78679 -0.25541,-1.44734 -0.76331,-1.97872c-0.63707,-0.66055 -1.18606,-0.8778 -2.3868,-0.93358l-1.0745,-0.04991l-0.06459,-0.54606c-0.03817,-0.29945 -0.13211,-1.61469 -0.21431,-2.92111c-0.13798,-2.26056 -0.04697,-5.55452 0.21431,-7.69177l0.06752,-0.5578h5.73947c4.51231,0 5.73947,0.03229 5.73947,0.14679c0.00294,0.0822 0.07927,1.0011 0.17028,2.04625c0.14092,1.59413 0.21725,1.99634 0.46679,2.48955c1.10092,2.16661 4.2657,2.03744 5.26974,-0.21725c0.21431,-0.47853 0.22606,-0.68698 0.16147,-2.30166c-0.0411,-0.97762 -0.10862,-1.86423 -0.14679,-1.96992c-0.07046,-0.17908 0.37872,-0.19376 5.50461,-0.19376h5.58094l0.13211,0.61652c0.26716,1.24184 0.47853,2.88882 0.57835,4.52405c0.09395,1.55303 0.12624,1.7145 0.4433,2.2312c1.16551,1.89359 3.85763,1.88184 5.02901,-0.02349l0.35523,-0.58129l-0.01174,-1.82606c-0.02055,-3.43781 -0.77505,-6.95782 -2.2312,-10.43674c-4.57983,-10.92701 -15.39235,-18.06099 -27.25295,-17.97878c-1.02166,0.00881 -2.43671,0.08807 -3.14423,0.17908M559.14384,637.93041c1.00991,1.96698 1.88184,3.97213 2.51304,5.77764c0.4433,1.27413 1.14789,3.59341 1.14789,3.78717c0,0.04697 -2.06093,0.08807 -4.57983,0.08807c-2.51891,0 -4.57983,-0.03817 -4.57983,-0.08807c0,-0.17908 0.93652,-3.17946 1.33872,-4.29213c0.80441,-2.21946 3.00038,-6.89324 3.24111,-6.89324c0.04697,0 0.46092,0.72808 0.9189,1.62056M550.46564,638.67022c-0.87193,2.06093 -1.96698,5.27268 -2.49542,7.32773l-0.3934,1.52661l-4.84699,0.02936l-4.84699,0.03229l0.2789,-0.46973c1.54423,-2.61579 4.35378,-5.53103 7.11049,-7.38351c1.13028,-0.75743 3.13542,-1.78203 4.55635,-2.32515c0.71046,-0.27009 1.30349,-0.47853 1.32111,-0.46092c0.01761,0.01761 -0.29064,0.79266 -0.68404,1.72331M568.50021,638.24453c2.67744,1.30349 4.62387,2.73322 6.72883,4.938c1.189,1.24184 2.31047,2.68918 3.02974,3.90167l0.29651,0.49908h-4.81763h-4.81763l-0.12624,-0.49908c-0.76331,-3.0268 -1.77615,-6.07415 -2.84185,-8.53728c-0.32,-0.74569 -0.61358,-1.42386 -0.64587,-1.50606c-0.09395,-0.22899 1.45028,0.35229 3.19414,1.20367M546.54342,653.71909c-0.11743,0.53138 -0.29651,3.91047 -0.29651,5.60736c0,1.69689 0.17908,5.07598 0.29651,5.60736l0.06165,0.26422h-5.57213h-5.5692l-0.13211,-0.60771c-0.42863,-2.00221 -0.51964,-2.92992 -0.5167,-5.26387c0,-2.32515 0.09688,-3.30864 0.5167,-5.26387l0.13211,-0.60771h5.5692h5.57213l-0.06165,0.26422M569.08443,665.30666c-3.02093,0.48441 -5.76002,2.54827 -7.02828,5.29323c-0.68404,1.48257 -0.83376,2.20771 -0.82496,3.99268c0.00587,1.44441 0.03817,1.68221 0.36697,2.67451c0.7134,2.149 0.77505,2.22533 6.82278,8.22315c3.01506,2.98864 5.71892,5.578 6.00956,5.75415c0.44918,0.27009 0.66055,0.31707 1.40918,0.31707c0.74569,0 0.96,-0.04697 1.40918,-0.31413c0.29064,-0.17321 3.02093,-2.789 6.06828,-5.81287c5.97433,-5.92736 6.00076,-5.95966 6.66718,-7.86792c0.59303,-1.69395 0.6811,-3.71671 0.24073,-5.3813c-0.45211,-1.69689 -1.60588,-3.49653 -3.02093,-4.71194c-2.84185,-2.44258 -7.09874,-2.94166 -10.41031,-1.21835l-0.91597,0.4756l-0.92771,-0.46679c-1.32698,-0.66936 -2.45139,-0.9512 -3.98387,-1.00698c-0.71046,-0.02349 -1.55597,-0.00294 -1.88184,0.04991M547.97022,672.65494c0.52844,2.05505 1.62349,5.26681 2.49542,7.32773c0.3934,0.93065 0.70165,1.70863 0.68404,1.72625c-0.07046,0.07046 -2.45432,-0.89542 -3.49359,-1.41799c-3.84295,-1.92588 -7.27489,-5.1024 -9.50022,-8.78095l-0.26716,-0.4433l4.84406,0.03229l4.84406,0.02936l0.3934,1.52661M572.18756,671.47475c0.32587,0.1644 0.92771,0.61652 1.34166,1.00404c0.8778,0.81909 1.40918,1.0745 2.25175,1.08331c0.9189,0.00587 1.40624,-0.21138 2.32808,-1.04808c1.35634,-1.22716 2.31634,-1.57358 3.66093,-1.32404c2.41028,0.44624 3.63745,3.18827 2.30753,5.15525c-0.17028,0.25248 -2.06973,2.18716 -4.22167,4.30093c-3.3057,3.24992 -3.94277,3.82534 -4.13066,3.73726c-0.1233,-0.05578 -2.00515,-1.8701 -4.18057,-4.02791c-4.44185,-4.40956 -4.45359,-4.4213 -4.44479,-5.88039c0.00587,-0.71927 0.06459,-0.9923 0.32294,-1.49432c0.46679,-0.9101 1.32404,-1.54129 2.48661,-1.83781c0.52257,-0.13505 1.69982,0.03817 2.27817,0.33174" className="SFSymbolsPreviewWireframe"/></g>
 </g>
</svg>