<?xml version="1.0" encoding="UTF-8"?><!--Generator: https://SymbolKit.app--><!DOCTYPE svg PUBLIC "-//W3C//DTD SVG 1.1//EN" "http://www.w3.org/Graphics/SVG/1.1/DTD/svg11.dtd"><svg xmlns="http://www.w3.org/2000/svg" xmlns:xlink="http://www.w3.org/1999/xlink" version="1.1" viewBox="0 0 3300 2200">
 <!--glyph: "100092", point size: 100.0, font version: "20.0d10e1", template writer version: "138.0.0"-->
 <style>.SFSymbolsPreviewWireframe {fill:none;opacity:1.0;stroke:black;stroke-width:0.5}
</style>
 <g id="Notes">
  <rect height="2200" id="artboard" style="fill:white;opacity:1" width="3300" x="0" y="0"/>
  <line style="fill:none;stroke:black;opacity:1;stroke-width:0.5;" x1="263" x2="3036" y1="292" y2="292"/>
  <text style="stroke:none;fill:black;font-family:sans-serif;font-size:13;font-weight:bold;" transform="matrix(1 0 0 1 263 322)">Weight/Scale Variations</text>
  <text style="stroke:none;fill:black;font-family:sans-serif;font-size:13;text-anchor:middle;" transform="matrix(1 0 0 1 559.711 322)">Ultralight</text>
  <text style="stroke:none;fill:black;font-family:sans-serif;font-size:13;text-anchor:middle;" transform="matrix(1 0 0 1 856.422 322)">Thin</text>
  <text style="stroke:none;fill:black;font-family:sans-serif;font-size:13;text-anchor:middle;" transform="matrix(1 0 0 1 1153.13 322)">Light</text>
  <text style="stroke:none;fill:black;font-family:sans-serif;font-size:13;text-anchor:middle;" transform="matrix(1 0 0 1 1449.84 322)">Regular</text>
  <text style="stroke:none;fill:black;font-family:sans-serif;font-size:13;text-anchor:middle;" transform="matrix(1 0 0 1 1746.56 322)">Medium</text>
  <text style="stroke:none;fill:black;font-family:sans-serif;font-size:13;text-anchor:middle;" transform="matrix(1 0 0 1 2043.27 322)">Semibold</text>
  <text style="stroke:none;fill:black;font-family:sans-serif;font-size:13;text-anchor:middle;" transform="matrix(1 0 0 1 2339.98 322)">Bold</text>
  <text style="stroke:none;fill:black;font-family:sans-serif;font-size:13;text-anchor:middle;" transform="matrix(1 0 0 1 2636.69 322)">Heavy</text>
  <text style="stroke:none;fill:black;font-family:sans-serif;font-size:13;text-anchor:middle;" transform="matrix(1 0 0 1 2933.4 322)">Black</text>
  <line style="fill:none;stroke:black;opacity:1;stroke-width:0.5;" x1="263" x2="3036" y1="1903" y2="1903"/>
  <g transform="matrix(0.2 0 0 0.2 263 1933)">
   <path d="m46.2402 4.15039c21.7773 0 39.4531-17.627 39.4531-39.4043s-17.6758-39.4043-39.4531-39.4043c-21.7285 0-39.4043 17.627-39.4043 39.4043s17.6758 39.4043 39.4043 39.4043Zm0-7.42188c-17.6758 0-31.9336-14.3066-31.9336-31.9824s14.2578-31.9824 31.9336-31.9824 31.9824 14.3066 31.9824 31.9824-14.3066 31.9824-31.9824 31.9824Zm-17.9688-31.9824c0 2.14844 1.51367 3.61328 3.75977 3.61328h10.498v10.5957c0 2.19727 1.46484 3.71094 3.61328 3.71094 2.24609 0 3.71094-1.51367 3.71094-3.71094v-10.5957h10.5957c2.19727 0 3.71094-1.46484 3.71094-3.61328 0-2.19727-1.51367-3.71094-3.71094-3.71094h-10.5957v-10.5469c0-2.24609-1.46484-3.75977-3.71094-3.75977-2.14844 0-3.61328 1.51367-3.61328 3.75977v10.5469h-10.498c-2.24609 0-3.75977 1.51367-3.75977 3.71094Z"/>
  </g>
  <g transform="matrix(0.2 0 0 0.2 281.506 1933)">
   <path d="m58.5449 14.5508c27.4902 0 49.8047-22.3145 49.8047-49.8047s-22.3145-49.8047-49.8047-49.8047-49.8047 22.3145-49.8047 49.8047 22.3145 49.8047 49.8047 49.8047Zm0-8.30078c-22.9492 0-41.5039-18.5547-41.5039-41.5039s18.5547-41.5039 41.5039-41.5039 41.5039 18.5547 41.5039 41.5039-18.5547 41.5039-41.5039 41.5039Zm-22.6562-41.5039c0 2.39258 1.66016 4.00391 4.15039 4.00391h14.3555v14.4043c0 2.44141 1.66016 4.15039 4.05273 4.15039 2.44141 0 4.15039-1.66016 4.15039-4.15039v-14.4043h14.4043c2.44141 0 4.15039-1.61133 4.15039-4.00391 0-2.44141-1.70898-4.15039-4.15039-4.15039h-14.4043v-14.3555c0-2.49023-1.70898-4.19922-4.15039-4.19922-2.39258 0-4.05273 1.70898-4.05273 4.19922v14.3555h-14.3555c-2.49023 0-4.15039 1.70898-4.15039 4.15039Z"/>
  </g>
  <g transform="matrix(0.2 0 0 0.2 304.924 1933)">
   <path d="m74.8535 28.3203c35.1074 0 63.623-28.4668 63.623-63.5742s-28.5156-63.623-63.623-63.623-63.5742 28.5156-63.5742 63.623 28.4668 63.5742 63.5742 63.5742Zm0-9.08203c-30.127 0-54.4922-24.3652-54.4922-54.4922s24.3652-54.4922 54.4922-54.4922 54.4922 24.3652 54.4922 54.4922-24.3652 54.4922-54.4922 54.4922Zm-28.8574-54.4922c0 2.58789 1.85547 4.39453 4.58984 4.39453h19.7266v19.7754c0 2.68555 1.85547 4.58984 4.44336 4.58984 2.68555 0 4.54102-1.85547 4.54102-4.58984v-19.7754h19.7754c2.68555 0 4.58984-1.80664 4.58984-4.39453 0-2.73438-1.85547-4.58984-4.58984-4.58984h-19.7754v-19.7266c0-2.73438-1.85547-4.63867-4.54102-4.63867-2.58789 0-4.44336 1.9043-4.44336 4.63867v19.7266h-19.7266c-2.73438 0-4.58984 1.85547-4.58984 4.58984Z"/>
  </g>
  <text style="stroke:none;fill:black;font-family:sans-serif;font-size:13;font-weight:bold;" transform="matrix(1 0 0 1 263 1953)">Design Variations</text>
  <text style="stroke:none;fill:black;font-family:sans-serif;font-size:13;" transform="matrix(1 0 0 1 263 1971)">Symbols are supported in up to nine weights and three scales.</text>
  <text style="stroke:none;fill:black;font-family:sans-serif;font-size:13;" transform="matrix(1 0 0 1 263 1989)">For optimal layout with text and other symbols, vertically align</text>
  <text style="stroke:none;fill:black;font-family:sans-serif;font-size:13;" transform="matrix(1 0 0 1 263 2007)">symbols with the adjacent text.</text>
  <line style="fill:none;stroke:#00AEEF;stroke-width:0.5;opacity:1.0;" x1="776" x2="776" y1="1919" y2="1933"/>
  <g transform="matrix(0.2 0 0 0.2 776 1933)">
   <path d="m16.5527 0.78125c2.58789 0 3.85742-0.976562 4.78516-3.71094l6.29883-17.2363h28.8086l6.29883 17.2363c0.927734 2.73438 2.19727 3.71094 4.73633 3.71094 2.58789 0 4.24805-1.5625 4.24805-4.00391 0-0.830078-0.146484-1.61133-0.537109-2.63672l-22.9004-60.9863c-1.12305-2.97852-3.125-4.49219-6.25-4.49219-3.02734 0-5.07812 1.46484-6.15234 4.44336l-22.9004 61.084c-0.390625 1.02539-0.537109 1.80664-0.537109 2.63672 0 2.44141 1.5625 3.95508 4.10156 3.95508Zm13.4766-28.3691 11.8652-32.8613h0.244141l11.8652 32.8613Z"/>
  </g>
  <line style="fill:none;stroke:#00AEEF;stroke-width:0.5;opacity:1.0;" x1="792.836" x2="792.836" y1="1919" y2="1933"/>
  <text style="stroke:none;fill:black;font-family:sans-serif;font-size:13;font-weight:bold;" transform="matrix(1 0 0 1 776 1953)">Margins</text>
  <text style="stroke:none;fill:black;font-family:sans-serif;font-size:13;" transform="matrix(1 0 0 1 776 1971)">Leading and trailing margins on the left and right side of each symbol</text>
  <text style="stroke:none;fill:black;font-family:sans-serif;font-size:13;" transform="matrix(1 0 0 1 776 1989)">can be adjusted by modifying the x-location of the margin guidelines.</text>
  <text style="stroke:none;fill:black;font-family:sans-serif;font-size:13;" transform="matrix(1 0 0 1 776 2007)">Modifications are automatically applied proportionally to all</text>
  <text style="stroke:none;fill:black;font-family:sans-serif;font-size:13;" transform="matrix(1 0 0 1 776 2025)">scales and weights.</text>
  <g transform="matrix(0.2 0 0 0.2 1289 1933)">
   <path d="m14.209 9.32617 8.49609 8.54492c4.29688 4.3457 9.22852 4.05273 13.8672-1.07422l53.4668-58.9355-4.83398-4.88281-53.0762 58.3984c-1.75781 2.00195-3.41797 2.49023-5.76172 0.146484l-5.85938-5.81055c-2.34375-2.29492-1.80664-4.00391 0.195312-5.81055l57.373-54.0039-4.88281-4.83398-57.959 54.4434c-4.93164 4.58984-5.32227 9.47266-1.02539 13.8184Zm32.0801-90.9668c-2.09961 2.05078-2.24609 4.93164-1.07422 6.88477 1.17188 1.80664 3.4668 2.97852 6.68945 2.14844 7.32422-1.70898 14.9414-2.00195 22.0703 2.68555l-2.92969 7.27539c-1.70898 4.15039-0.830078 7.08008 1.85547 9.81445l11.4746 11.5723c2.44141 2.44141 4.49219 2.53906 7.32422 2.05078l5.32227-0.976562 3.32031 3.36914-0.195312 2.7832c-0.195312 2.49023 0.439453 4.39453 2.88086 6.78711l3.80859 3.71094c2.39258 2.39258 5.46875 2.53906 7.8125 0.195312l14.5508-14.5996c2.34375-2.34375 2.24609-5.32227-0.146484-7.71484l-3.85742-3.80859c-2.39258-2.39258-4.24805-3.17383-6.64062-2.97852l-2.88086 0.244141-3.22266-3.17383 1.2207-5.61523c0.634766-2.83203-0.146484-5.0293-3.07617-7.95898l-10.9863-10.9375c-16.6992-16.6016-38.8672-16.2109-53.3203-1.75781Zm7.4707 1.85547c12.1582-8.88672 28.6133-7.37305 39.7461 3.75977l12.1582 12.0605c1.17188 1.17188 1.36719 2.09961 1.02539 3.80859l-1.61133 7.42188 7.51953 7.42188 4.93164-0.292969c1.26953-0.0488281 1.66016 0.0488281 2.63672 1.02539l2.88086 2.88086-12.207 12.207-2.88086-2.88086c-0.976562-0.976562-1.12305-1.36719-1.07422-2.68555l0.341797-4.88281-7.4707-7.42188-7.61719 1.26953c-1.61133 0.341797-2.34375 0.195312-3.56445-0.976562l-10.0098-10.0098c-1.26953-1.17188-1.41602-2.00195-0.634766-3.85742l4.39453-10.4492c-7.8125-7.27539-17.9688-10.4004-28.125-7.42188-0.78125 0.195312-1.07422-0.439453-0.439453-0.976562Z"/>
  </g>
  <text style="stroke:none;fill:black;font-family:sans-serif;font-size:13;font-weight:bold;" transform="matrix(1 0 0 1 1289 1953)">Exporting</text>
  <text style="stroke:none;fill:black;font-family:sans-serif;font-size:13;" transform="matrix(1 0 0 1 1289 1971)">Symbols should be outlined when exporting to ensure the</text>
  <text style="stroke:none;fill:black;font-family:sans-serif;font-size:13;" transform="matrix(1 0 0 1 1289 1989)">design is preserved when submitting to Xcode.</text>
  <text id="template-version" style="stroke:none;fill:black;font-family:sans-serif;font-size:13;text-anchor:end;" transform="matrix(1 0 0 1 3036 1933)">Template v.6.0</text>
  <text style="stroke:none;fill:black;font-family:sans-serif;font-size:13;text-anchor:end;" transform="matrix(1 0 0 1 3036 1951)">Requires Xcode 16 or greater</text>
  <text id="descriptive-name" style="stroke:none;fill:black;font-family:sans-serif;font-size:13;text-anchor:end;" transform="matrix(1 0 0 1 3036 1969)">Generated from square</text>
  <text style="stroke:none;fill:black;font-family:sans-serif;font-size:13;text-anchor:end;" transform="matrix(1 0 0 1 3036 1987)">Typeset at 100.0 points</text>
  <text style="stroke:none;fill:black;font-family:sans-serif;font-size:13;" transform="matrix(1 0 0 1 263 726)">Small</text>
  <text style="stroke:none;fill:black;font-family:sans-serif;font-size:13;" transform="matrix(1 0 0 1 263 1156)">Medium</text>
  <text style="stroke:none;fill:black;font-family:sans-serif;font-size:13;" transform="matrix(1 0 0 1 263 1586)">Large</text>
 </g>
 <g id="Guides">
  <g id="H-reference" style="fill:#27AAE1;stroke:none;" transform="matrix(1 0 0 1 339 696)">
   <path d="M0.993654 0L3.63775 0L29.3281-67.1323L30.0303-67.1323L30.0303-70.459L28.1226-70.459ZM11.6885-24.4799L46.9815-24.4799L46.2315-26.7285L12.4385-26.7285ZM55.1196 0L57.7637 0L30.6382-70.459L29.4326-70.459L29.4326-67.1323Z"/>
  </g>
  <line id="Baseline-S" style="fill:none;stroke:#27AAE1;opacity:1;stroke-width:0.5;" x1="263" x2="3036" y1="696" y2="696"/>
  <line id="Capline-S" style="fill:none;stroke:#27AAE1;opacity:1;stroke-width:0.5;" x1="263" x2="3036" y1="625.541" y2="625.541"/>
  <g id="H-reference" style="fill:#27AAE1;stroke:none;" transform="matrix(1 0 0 1 339 1126)">
   <path d="M0.993654 0L3.63775 0L29.3281-67.1323L30.0303-67.1323L30.0303-70.459L28.1226-70.459ZM11.6885-24.4799L46.9815-24.4799L46.2315-26.7285L12.4385-26.7285ZM55.1196 0L57.7637 0L30.6382-70.459L29.4326-70.459L29.4326-67.1323Z"/>
  </g>
  <line id="Baseline-M" style="fill:none;stroke:#27AAE1;opacity:1;stroke-width:0.5;" x1="263" x2="3036" y1="1126" y2="1126"/>
  <line id="Capline-M" style="fill:none;stroke:#27AAE1;opacity:1;stroke-width:0.5;" x1="263" x2="3036" y1="1055.54" y2="1055.54"/>
  <g id="H-reference" style="fill:#27AAE1;stroke:none;" transform="matrix(1 0 0 1 339 1556)">
   <path d="M0.993654 0L3.63775 0L29.3281-67.1323L30.0303-67.1323L30.0303-70.459L28.1226-70.459ZM11.6885-24.4799L46.9815-24.4799L46.2315-26.7285L12.4385-26.7285ZM55.1196 0L57.7637 0L30.6382-70.459L29.4326-70.459L29.4326-67.1323Z"/>
  </g>
  <line id="Baseline-L" style="fill:none;stroke:#27AAE1;opacity:1;stroke-width:0.5;" x1="263" x2="3036" y1="1556" y2="1556"/>
  <line id="Capline-L" style="fill:none;stroke:#27AAE1;opacity:1;stroke-width:0.5;" x1="263" x2="3036" y1="1485.54" y2="1485.54"/>
  <line id="right-margin-Black-S" style="fill:none;stroke:#00AEEF;stroke-width:0.5;opacity:1.0;" x1="2981.3" x2="2981.3" y1="600.785" y2="720.121"/>
  <line id="left-margin-Black-S" style="fill:none;stroke:#00AEEF;stroke-width:0.5;opacity:1.0;" x1="2885.5" x2="2885.5" y1="600.785" y2="720.121"/>
  <line id="right-margin-Regular-S" style="fill:none;stroke:#00AEEF;stroke-width:0.5;opacity:1.0;" x1="1495.18" x2="1495.18" y1="600.785" y2="720.121"/>
  <line id="left-margin-Regular-S" style="fill:none;stroke:#00AEEF;stroke-width:0.5;opacity:1.0;" x1="1404.51" x2="1404.51" y1="600.785" y2="720.121"/>
  <line id="right-margin-Ultralight-S" style="fill:none;stroke:#00AEEF;stroke-width:0.5;opacity:1.0;" x1="603.073" x2="603.073" y1="600.785" y2="720.121"/>
  <line id="left-margin-Ultralight-S" style="fill:none;stroke:#00AEEF;stroke-width:0.5;opacity:1.0;" x1="516.35" x2="516.35" y1="600.785" y2="720.121"/>
 </g>
 <g id="Symbols">
  <g id="Black-S"><path d="M2928.69199,630.12713c-5.71011,0.73395 -10.47197,2.69212 -14.93437,6.14167c-2.33395,1.80551 -5.24039,5.07892 -6.84039,7.70939c-4.00442,6.57617 -5.29617,14.57033 -3.55231,21.95972c1.28294,5.43708 3.87818,10.10206 7.80627,14.03895c2.93286,2.93873 5.97727,4.9791 9.69105,6.49397c3.31157,1.35046 7.39232,2.19891 10.51013,2.18423c1.67047,-0.00587 2.49542,-0.39927 3.13836,-1.49432c0.2789,-0.47266 0.32587,-0.68404 0.32587,-1.4356c0,-0.74863 -0.04697,-0.96294 -0.32,-1.42679c-0.39927,-0.67523 -1.10973,-1.21248 -1.84368,-1.38863l-0.5578,-0.13505l-0.94826,-1.84074c-1.52955,-2.97396 -2.40148,-5.12296 -3.32625,-8.18499c-0.25248,-0.83964 -0.46092,-1.56478 -0.46092,-1.61469c0,-0.04697 0.83083,-0.08807 1.84955,-0.08807c1.69982,-0.00294 1.89652,-0.02349 2.43671,-0.2789c1.11854,-0.53138 1.72625,-1.4679 1.72625,-2.65689c0,-1.13028 -0.57248,-2.06386 -1.60881,-2.6246c-0.43156,-0.23193 -0.66936,-0.25541 -3.00919,-0.29064l-2.53946,-0.03523l-0.06752,-0.55193c-0.03817,-0.30239 -0.13211,-1.62056 -0.21431,-2.92698c-0.13798,-2.26056 -0.04697,-5.55452 0.21431,-7.69177l0.06752,-0.5578h5.72479h5.72186l0.07633,0.74863c0.0411,0.41101 0.12917,1.58826 0.19376,2.61285c0.14092,2.21065 0.29651,2.76258 0.96881,3.4202c0.62532,0.61358 1.24478,0.87487 2.08148,0.87487c1.49725,0 2.71854,-1.09505 2.89763,-2.59818c0.06459,-0.55193 -0.14679,-4.27451 -0.27596,-4.79415l-0.06459,-0.26422h5.58094h5.58094l0.13211,0.61652c0.26716,1.24184 0.47853,2.88882 0.57835,4.52405c0.09395,1.55303 0.12624,1.7145 0.4433,2.2312c1.16551,1.89359 3.85763,1.88184 5.02901,-0.02349l0.35523,-0.57835l-0.00881,-1.829c-0.03229,-5.94791 -2.26349,-12.11014 -6.25323,-17.27126c-0.98936,-1.27707 -3.54644,-3.83414 -4.83525,-4.83231c-5.39011,-4.16882 -11.75491,-6.35599 -18.37512,-6.31195c-1.0334,0.00881 -2.4279,0.08514 -3.09432,0.17028M2932.93128,638.01853c1.52368,2.99157 2.92698,6.64663 3.53469,9.21838l0.07927,0.32294h-4.58277c-2.52184,0 -4.58277,-0.03817 -4.58277,-0.08807c0,-0.17908 0.93652,-3.17946 1.33872,-4.29213c0.80441,-2.22239 3.00038,-6.89324 3.24111,-6.89324c0.04991,0 0.48734,0.78092 0.97175,1.73212M2924.1973,638.64679c-0.81321,1.92001 -2.17542,5.95672 -2.57175,7.62131c-0.14679,0.61358 -0.30239,1.1567 -0.34642,1.20367c-0.04404,0.04991 -2.23414,0.07633 -4.86754,0.05872l-4.78828,-0.02936l0.69285,-1.05688c2.70386,-4.11304 6.78168,-7.38351 11.3527,-9.10682c0.65175,-0.24661 1.1978,-0.43156 1.21542,-0.41688c0.01761,0.01761 -0.29064,0.7956 -0.68698,1.72625M2942.2348,638.21817c3.81359,1.85836 7.05471,4.70314 9.36811,8.22609l0.69285,1.05688l-4.78828,0.02936c-2.6334,0.01761 -4.8235,-0.00881 -4.86461,-0.05872c-0.04404,-0.04697 -0.22312,-0.66936 -0.4022,-1.37982c-0.49028,-1.95817 -1.53542,-5.07305 -2.38386,-7.10461c-0.41688,-1.0011 -0.78679,-1.88771 -0.81909,-1.96992c-0.09101,-0.22899 1.44734,0.34936 3.19708,1.20074M2920.27802,653.69566c-0.11743,0.53138 -0.29651,3.91047 -0.29651,5.60736c0,1.69689 0.17908,5.07598 0.29651,5.60736l0.06165,0.26422h-5.57213h-5.5692l-0.13211,-0.60771c-0.42275,-1.96698 -0.5167,-2.93579 -0.5167,-5.26387c0,-2.32808 0.09395,-3.29689 0.5167,-5.26387l0.13211,-0.60771h5.5692h5.57213l-0.06165,0.26422M2947.6895,665.35368c-3.31157,0.5167 -6.50278,2.68038 -8.18792,5.55452c-3.6668,6.25323 -0.98643,14.18574 5.70424,16.88373c2.8213,1.13615 5.92149,1.13322 8.75453,-0.00881c0.5578,-0.22312 1.13615,-0.48734 1.28588,-0.58422c0.25835,-0.17028 0.32,-0.1233 2.19891,1.76735c1.06569,1.06863 2.15781,2.07267 2.4279,2.23414c1.34753,0.80441 3.16772,0.30239 3.98974,-1.09505c0.28477,-0.48441 0.33174,-0.68991 0.33174,-1.44441c0,-1.20661 -0.20551,-1.51487 -2.57175,-3.87231c-1.89065,-1.87891 -1.93762,-1.94056 -1.76735,-2.19891c0.36697,-0.56367 1.00404,-2.34863 1.2301,-3.44955c0.43743,-2.15193 0.21431,-4.48295 -0.63413,-6.57911c-1.56478,-3.87231 -5.00259,-6.59672 -9.10095,-7.21617c-1.3534,-0.20257 -2.31634,-0.19963 -3.66093,0.00881M2921.70481,672.63151c0.52844,2.05505 1.62349,5.26681 2.49542,7.32773c0.3934,0.93065 0.70165,1.70863 0.68404,1.72625c-0.01761,0.01468 -0.56074,-0.17028 -1.20367,-0.41395c-3.8224,-1.44441 -7.10461,-3.79011 -9.76151,-6.96663c-0.80147,-0.96 -1.82019,-2.38093 -2.14313,-2.99451l-0.14092,-0.26716l4.83818,0.03229l4.83818,0.02936l0.3934,1.52661M2951.10969,671.26049c2.16955,0.56661 3.89579,2.49836 4.23928,4.74717c0.29358,1.91707 -0.27596,3.64919 -1.65579,5.03195c-1.17725,1.18312 -2.51304,1.74973 -4.11891,1.74973c-1.51193,0 -2.82423,-0.52257 -3.95451,-1.57065c-3.9046,-3.62864 -1.36221,-10.15784 3.95451,-10.15784c0.41982,0 1.10973,0.09101 1.53542,0.19963" className="SFSymbolsPreviewWireframe"/></g>
  <g id="Regular-S"><path d="M1445.13694,630.12713c-5.71011,0.73395 -10.47197,2.69212 -14.93437,6.14167c-2.33395,1.80551 -5.24039,5.07892 -6.84039,7.70939c-4.00442,6.57617 -5.29617,14.57033 -3.55231,21.95972c1.28294,5.43708 3.87818,10.10206 7.80627,14.03895c2.93286,2.93873 5.97727,4.9791 9.69105,6.49397c3.31157,1.35046 7.39232,2.19891 10.51013,2.18423c1.67047,-0.00587 2.49542,-0.39927 3.13836,-1.49432c0.2789,-0.47266 0.32587,-0.68404 0.32587,-1.4356c0,-0.74863 -0.04697,-0.96294 -0.32,-1.42679c-0.39927,-0.67523 -1.10973,-1.21248 -1.84368,-1.38863l-0.5578,-0.13505l-0.94826,-1.84074c-1.52955,-2.97396 -2.40148,-5.12296 -3.32625,-8.18499c-0.25248,-0.83964 -0.46092,-1.56478 -0.46092,-1.61469c0,-0.04697 0.83083,-0.08807 1.84955,-0.08807c1.69982,-0.00294 1.89652,-0.02349 2.43671,-0.2789c1.11854,-0.53138 1.72625,-1.4679 1.72625,-2.65689c0,-1.13028 -0.57248,-2.06386 -1.60881,-2.6246c-0.43156,-0.23193 -0.66936,-0.25541 -3.00919,-0.29064l-2.53946,-0.03523l-0.06752,-0.55193c-0.03817,-0.30239 -0.13211,-1.62056 -0.21431,-2.92698c-0.13798,-2.26056 -0.04697,-5.55452 0.21431,-7.69177l0.06752,-0.5578h5.72479h5.72186l0.07633,0.74863c0.0411,0.41101 0.12917,1.58826 0.19376,2.61285c0.14092,2.21065 0.29651,2.76258 0.96881,3.4202c0.62532,0.61358 1.24478,0.87487 2.08148,0.87487c1.49725,0 2.71854,-1.09505 2.89763,-2.59818c0.06459,-0.55193 -0.14679,-4.27451 -0.27596,-4.79415l-0.06459,-0.26422h5.58094h5.58094l0.13211,0.61652c0.26716,1.24184 0.47853,2.88882 0.57835,4.52405c0.09395,1.55303 0.12624,1.7145 0.4433,2.2312c1.16551,1.89359 3.85763,1.88184 5.02901,-0.02349l0.35523,-0.57835l-0.00881,-1.829c-0.03229,-5.94791 -2.26349,-12.11014 -6.25323,-17.27126c-0.98936,-1.27707 -3.54644,-3.83414 -4.83525,-4.83231c-5.39011,-4.16882 -11.75491,-6.35599 -18.37512,-6.31195c-1.0334,0.00881 -2.4279,0.08514 -3.09432,0.17028M1449.37623,638.01853c1.52368,2.99157 2.92698,6.64663 3.53469,9.21838l0.07927,0.32294h-4.58277c-2.52184,0 -4.58277,-0.03817 -4.58277,-0.08807c0,-0.17908 0.93652,-3.17946 1.33872,-4.29213c0.80441,-2.22239 3.00038,-6.89324 3.24111,-6.89324c0.04991,0 0.48734,0.78092 0.97175,1.73212M1440.64225,638.64679c-0.81321,1.92001 -2.17542,5.95672 -2.57175,7.62131c-0.14679,0.61358 -0.30239,1.1567 -0.34642,1.20367c-0.04404,0.04991 -2.23414,0.07633 -4.86754,0.05872l-4.78828,-0.02936l0.69285,-1.05688c2.70386,-4.11304 6.78168,-7.38351 11.3527,-9.10682c0.65175,-0.24661 1.1978,-0.43156 1.21542,-0.41688c0.01761,0.01761 -0.29064,0.7956 -0.68698,1.72625M1458.67975,638.21817c3.81359,1.85836 7.05471,4.70314 9.36811,8.22609l0.69285,1.05688l-4.78828,0.02936c-2.6334,0.01761 -4.8235,-0.00881 -4.86461,-0.05872c-0.04404,-0.04697 -0.22312,-0.66936 -0.4022,-1.37982c-0.49028,-1.95817 -1.53542,-5.07305 -2.38386,-7.10461c-0.41688,-1.0011 -0.78679,-1.88771 -0.81909,-1.96992c-0.09101,-0.22899 1.44734,0.34936 3.19708,1.20074M1436.72297,653.69566c-0.11743,0.53138 -0.29651,3.91047 -0.29651,5.60736c0,1.69689 0.17908,5.07598 0.29651,5.60736l0.06165,0.26422h-5.57213h-5.5692l-0.13211,-0.60771c-0.42275,-1.96698 -0.5167,-2.93579 -0.5167,-5.26387c0,-2.32808 0.09395,-3.29689 0.5167,-5.26387l0.13211,-0.60771h5.5692h5.57213l-0.06165,0.26422M1464.13445,665.35368c-3.31157,0.5167 -6.50278,2.68038 -8.18792,5.55452c-3.6668,6.25323 -0.98643,14.18574 5.70424,16.88373c2.8213,1.13615 5.92149,1.13322 8.75453,-0.00881c0.5578,-0.22312 1.13615,-0.48734 1.28588,-0.58422c0.25835,-0.17028 0.32,-0.1233 2.19891,1.76735c1.06569,1.06863 2.15781,2.07267 2.4279,2.23414c1.34753,0.80441 3.16772,0.30239 3.98974,-1.09505c0.28477,-0.48441 0.33174,-0.68991 0.33174,-1.44441c0,-1.20661 -0.20551,-1.51487 -2.57175,-3.87231c-1.89065,-1.87891 -1.93762,-1.94056 -1.76735,-2.19891c0.36697,-0.56367 1.00404,-2.34863 1.2301,-3.44955c0.43743,-2.15193 0.21431,-4.48295 -0.63413,-6.57911c-1.56478,-3.87231 -5.00259,-6.59672 -9.10095,-7.21617c-1.3534,-0.20257 -2.31634,-0.19963 -3.66093,0.00881M1438.14976,672.63151c0.52844,2.05505 1.62349,5.26681 2.49542,7.32773c0.3934,0.93065 0.70165,1.70863 0.68404,1.72625c-0.01761,0.01468 -0.56074,-0.17028 -1.20367,-0.41395c-3.8224,-1.44441 -7.10461,-3.79011 -9.76151,-6.96663c-0.80147,-0.96 -1.82019,-2.38093 -2.14313,-2.99451l-0.14092,-0.26716l4.83818,0.03229l4.83818,0.02936l0.3934,1.52661M1467.55465,671.26049c2.16955,0.56661 3.89579,2.49836 4.23928,4.74717c0.29358,1.91707 -0.27596,3.64919 -1.65579,5.03195c-1.17725,1.18312 -2.51304,1.74973 -4.11891,1.74973c-1.51193,0 -2.82423,-0.52257 -3.95451,-1.57065c-3.9046,-3.62864 -1.36221,-10.15784 3.95451,-10.15784c0.41982,0 1.10973,0.09101 1.53542,0.19963" className="SFSymbolsPreviewWireframe"/></g>
  <g id="Ultralight-S"><path d="M555.00335,630.12713c-5.71011,0.73395 -10.47197,2.69212 -14.93437,6.14167c-2.33395,1.80551 -5.24039,5.07892 -6.84039,7.70939c-4.00442,6.57617 -5.29617,14.57033 -3.55231,21.95972c1.28294,5.43708 3.87818,10.10206 7.80627,14.03895c2.93286,2.93873 5.97727,4.9791 9.69105,6.49397c3.31157,1.35046 7.39232,2.19891 10.51013,2.18423c1.67047,-0.00587 2.49542,-0.39927 3.13836,-1.49432c0.2789,-0.47266 0.32587,-0.68404 0.32587,-1.4356c0,-0.74863 -0.04697,-0.96294 -0.32,-1.42679c-0.39927,-0.67523 -1.10973,-1.21248 -1.84368,-1.38863l-0.5578,-0.13505l-0.94826,-1.84074c-1.52955,-2.97396 -2.40148,-5.12296 -3.32625,-8.18499c-0.25248,-0.83964 -0.46092,-1.56478 -0.46092,-1.61469c0,-0.04697 0.83083,-0.08807 1.84955,-0.08807c1.69982,-0.00294 1.89652,-0.02349 2.43671,-0.2789c1.11854,-0.53138 1.72625,-1.4679 1.72625,-2.65689c0,-1.13028 -0.57248,-2.06386 -1.60881,-2.6246c-0.43156,-0.23193 -0.66936,-0.25541 -3.00919,-0.29064l-2.53946,-0.03523l-0.06752,-0.55193c-0.03817,-0.30239 -0.13211,-1.62056 -0.21431,-2.92698c-0.13798,-2.26056 -0.04697,-5.55452 0.21431,-7.69177l0.06752,-0.5578h5.72479h5.72186l0.07633,0.74863c0.0411,0.41101 0.12917,1.58826 0.19376,2.61285c0.14092,2.21065 0.29651,2.76258 0.96881,3.4202c0.62532,0.61358 1.24478,0.87487 2.08148,0.87487c1.49725,0 2.71854,-1.09505 2.89763,-2.59818c0.06459,-0.55193 -0.14679,-4.27451 -0.27596,-4.79415l-0.06459,-0.26422h5.58094h5.58094l0.13211,0.61652c0.26716,1.24184 0.47853,2.88882 0.57835,4.52405c0.09395,1.55303 0.12624,1.7145 0.4433,2.2312c1.16551,1.89359 3.85763,1.88184 5.02901,-0.02349l0.35523,-0.57835l-0.00881,-1.829c-0.03229,-5.94791 -2.26349,-12.11014 -6.25323,-17.27126c-0.98936,-1.27707 -3.54644,-3.83414 -4.83525,-4.83231c-5.39011,-4.16882 -11.75491,-6.35599 -18.37512,-6.31195c-1.0334,0.00881 -2.4279,0.08514 -3.09432,0.17028M559.24264,638.01853c1.52368,2.99157 2.92698,6.64663 3.53469,9.21838l0.07927,0.32294h-4.58277c-2.52184,0 -4.58277,-0.03817 -4.58277,-0.08807c0,-0.17908 0.93652,-3.17946 1.33872,-4.29213c0.80441,-2.22239 3.00038,-6.89324 3.24111,-6.89324c0.04991,0 0.48734,0.78092 0.97175,1.73212M550.50866,638.64679c-0.81321,1.92001 -2.17542,5.95672 -2.57175,7.62131c-0.14679,0.61358 -0.30239,1.1567 -0.34642,1.20367c-0.04404,0.04991 -2.23414,0.07633 -4.86754,0.05872l-4.78828,-0.02936l0.69285,-1.05688c2.70386,-4.11304 6.78168,-7.38351 11.3527,-9.10682c0.65175,-0.24661 1.1978,-0.43156 1.21542,-0.41688c0.01761,0.01761 -0.29064,0.7956 -0.68698,1.72625M568.54616,638.21817c3.81359,1.85836 7.05471,4.70314 9.36811,8.22609l0.69285,1.05688l-4.78828,0.02936c-2.6334,0.01761 -4.8235,-0.00881 -4.86461,-0.05872c-0.04404,-0.04697 -0.22312,-0.66936 -0.4022,-1.37982c-0.49028,-1.95817 -1.53542,-5.07305 -2.38386,-7.10461c-0.41688,-1.0011 -0.78679,-1.88771 -0.81909,-1.96992c-0.09101,-0.22899 1.44734,0.34936 3.19708,1.20074M546.58938,653.69566c-0.11743,0.53138 -0.29651,3.91047 -0.29651,5.60736c0,1.69689 0.17908,5.07598 0.29651,5.60736l0.06165,0.26422h-5.57213h-5.5692l-0.13211,-0.60771c-0.42275,-1.96698 -0.5167,-2.93579 -0.5167,-5.26387c0,-2.32808 0.09395,-3.29689 0.5167,-5.26387l0.13211,-0.60771h5.5692h5.57213l-0.06165,0.26422M574.00086,665.35368c-3.31157,0.5167 -6.50278,2.68038 -8.18792,5.55452c-3.6668,6.25323 -0.98643,14.18574 5.70424,16.88373c2.8213,1.13615 5.92149,1.13322 8.75453,-0.00881c0.5578,-0.22312 1.13615,-0.48734 1.28588,-0.58422c0.25835,-0.17028 0.32,-0.1233 2.19891,1.76735c1.06569,1.06863 2.15781,2.07267 2.4279,2.23414c1.34753,0.80441 3.16772,0.30239 3.98974,-1.09505c0.28477,-0.48441 0.33174,-0.68991 0.33174,-1.44441c0,-1.20661 -0.20551,-1.51487 -2.57175,-3.87231c-1.89065,-1.87891 -1.93762,-1.94056 -1.76735,-2.19891c0.36697,-0.56367 1.00404,-2.34863 1.2301,-3.44955c0.43743,-2.15193 0.21431,-4.48295 -0.63413,-6.57911c-1.56478,-3.87231 -5.00259,-6.59672 -9.10095,-7.21617c-1.3534,-0.20257 -2.31634,-0.19963 -3.66093,0.00881M548.01617,672.63151c0.52844,2.05505 1.62349,5.26681 2.49542,7.32773c0.3934,0.93065 0.70165,1.70863 0.68404,1.72625c-0.01761,0.01468 -0.56074,-0.17028 -1.20367,-0.41395c-3.8224,-1.44441 -7.10461,-3.79011 -9.76151,-6.96663c-0.80147,-0.96 -1.82019,-2.38093 -2.14313,-2.99451l-0.14092,-0.26716l4.83818,0.03229l4.83818,0.02936l0.3934,1.52661M577.42105,671.26049c2.16955,0.56661 3.89579,2.49836 4.23928,4.74717c0.29358,1.91707 -0.27596,3.64919 -1.65579,5.03195c-1.17725,1.18312 -2.51304,1.74973 -4.11891,1.74973c-1.51193,0 -2.82423,-0.52257 -3.95451,-1.57065c-3.9046,-3.62864 -1.36221,-10.15784 3.95451,-10.15784c0.41982,0 1.10973,0.09101 1.53542,0.19963" className="SFSymbolsPreviewWireframe"/></g>
 </g>
</svg>