<?xml version="1.0" encoding="UTF-8"?><!--Generator: https://SymbolKit.app--><!DOCTYPE svg PUBLIC "-//W3C//DTD SVG 1.1//EN" "http://www.w3.org/Graphics/SVG/1.1/DTD/svg11.dtd"><svg xmlns="http://www.w3.org/2000/svg" xmlns:xlink="http://www.w3.org/1999/xlink" version="1.1" viewBox="0 0 3300 2200">
 <!--glyph: "100092", point size: 100.0, font version: "20.0d10e1", template writer version: "138.0.0"-->
 <style>.SFSymbolsPreviewWireframe {fill:none;opacity:1.0;stroke:black;stroke-width:0.5}
</style>
 <g id="Notes">
  <rect height="2200" id="artboard" style="fill:white;opacity:1" width="3300" x="0" y="0"/>
  <line style="fill:none;stroke:black;opacity:1;stroke-width:0.5;" x1="263" x2="3036" y1="292" y2="292"/>
  <text style="stroke:none;fill:black;font-family:sans-serif;font-size:13;font-weight:bold;" transform="matrix(1 0 0 1 263 322)">Weight/Scale Variations</text>
  <text style="stroke:none;fill:black;font-family:sans-serif;font-size:13;text-anchor:middle;" transform="matrix(1 0 0 1 559.711 322)">Ultralight</text>
  <text style="stroke:none;fill:black;font-family:sans-serif;font-size:13;text-anchor:middle;" transform="matrix(1 0 0 1 856.422 322)">Thin</text>
  <text style="stroke:none;fill:black;font-family:sans-serif;font-size:13;text-anchor:middle;" transform="matrix(1 0 0 1 1153.13 322)">Light</text>
  <text style="stroke:none;fill:black;font-family:sans-serif;font-size:13;text-anchor:middle;" transform="matrix(1 0 0 1 1449.84 322)">Regular</text>
  <text style="stroke:none;fill:black;font-family:sans-serif;font-size:13;text-anchor:middle;" transform="matrix(1 0 0 1 1746.56 322)">Medium</text>
  <text style="stroke:none;fill:black;font-family:sans-serif;font-size:13;text-anchor:middle;" transform="matrix(1 0 0 1 2043.27 322)">Semibold</text>
  <text style="stroke:none;fill:black;font-family:sans-serif;font-size:13;text-anchor:middle;" transform="matrix(1 0 0 1 2339.98 322)">Bold</text>
  <text style="stroke:none;fill:black;font-family:sans-serif;font-size:13;text-anchor:middle;" transform="matrix(1 0 0 1 2636.69 322)">Heavy</text>
  <text style="stroke:none;fill:black;font-family:sans-serif;font-size:13;text-anchor:middle;" transform="matrix(1 0 0 1 2933.4 322)">Black</text>
  <line style="fill:none;stroke:black;opacity:1;stroke-width:0.5;" x1="263" x2="3036" y1="1903" y2="1903"/>
  <g transform="matrix(0.2 0 0 0.2 263 1933)">
   <path d="m46.2402 4.15039c21.7773 0 39.4531-17.627 39.4531-39.4043s-17.6758-39.4043-39.4531-39.4043c-21.7285 0-39.4043 17.627-39.4043 39.4043s17.6758 39.4043 39.4043 39.4043Zm0-7.42188c-17.6758 0-31.9336-14.3066-31.9336-31.9824s14.2578-31.9824 31.9336-31.9824 31.9824 14.3066 31.9824 31.9824-14.3066 31.9824-31.9824 31.9824Zm-17.9688-31.9824c0 2.14844 1.51367 3.61328 3.75977 3.61328h10.498v10.5957c0 2.19727 1.46484 3.71094 3.61328 3.71094 2.24609 0 3.71094-1.51367 3.71094-3.71094v-10.5957h10.5957c2.19727 0 3.71094-1.46484 3.71094-3.61328 0-2.19727-1.51367-3.71094-3.71094-3.71094h-10.5957v-10.5469c0-2.24609-1.46484-3.75977-3.71094-3.75977-2.14844 0-3.61328 1.51367-3.61328 3.75977v10.5469h-10.498c-2.24609 0-3.75977 1.51367-3.75977 3.71094Z"/>
  </g>
  <g transform="matrix(0.2 0 0 0.2 281.506 1933)">
   <path d="m58.5449 14.5508c27.4902 0 49.8047-22.3145 49.8047-49.8047s-22.3145-49.8047-49.8047-49.8047-49.8047 22.3145-49.8047 49.8047 22.3145 49.8047 49.8047 49.8047Zm0-8.30078c-22.9492 0-41.5039-18.5547-41.5039-41.5039s18.5547-41.5039 41.5039-41.5039 41.5039 18.5547 41.5039 41.5039-18.5547 41.5039-41.5039 41.5039Zm-22.6562-41.5039c0 2.39258 1.66016 4.00391 4.15039 4.00391h14.3555v14.4043c0 2.44141 1.66016 4.15039 4.05273 4.15039 2.44141 0 4.15039-1.66016 4.15039-4.15039v-14.4043h14.4043c2.44141 0 4.15039-1.61133 4.15039-4.00391 0-2.44141-1.70898-4.15039-4.15039-4.15039h-14.4043v-14.3555c0-2.49023-1.70898-4.19922-4.15039-4.19922-2.39258 0-4.05273 1.70898-4.05273 4.19922v14.3555h-14.3555c-2.49023 0-4.15039 1.70898-4.15039 4.15039Z"/>
  </g>
  <g transform="matrix(0.2 0 0 0.2 304.924 1933)">
   <path d="m74.8535 28.3203c35.1074 0 63.623-28.4668 63.623-63.5742s-28.5156-63.623-63.623-63.623-63.5742 28.5156-63.5742 63.623 28.4668 63.5742 63.5742 63.5742Zm0-9.08203c-30.127 0-54.4922-24.3652-54.4922-54.4922s24.3652-54.4922 54.4922-54.4922 54.4922 24.3652 54.4922 54.4922-24.3652 54.4922-54.4922 54.4922Zm-28.8574-54.4922c0 2.58789 1.85547 4.39453 4.58984 4.39453h19.7266v19.7754c0 2.68555 1.85547 4.58984 4.44336 4.58984 2.68555 0 4.54102-1.85547 4.54102-4.58984v-19.7754h19.7754c2.68555 0 4.58984-1.80664 4.58984-4.39453 0-2.73438-1.85547-4.58984-4.58984-4.58984h-19.7754v-19.7266c0-2.73438-1.85547-4.63867-4.54102-4.63867-2.58789 0-4.44336 1.9043-4.44336 4.63867v19.7266h-19.7266c-2.73438 0-4.58984 1.85547-4.58984 4.58984Z"/>
  </g>
  <text style="stroke:none;fill:black;font-family:sans-serif;font-size:13;font-weight:bold;" transform="matrix(1 0 0 1 263 1953)">Design Variations</text>
  <text style="stroke:none;fill:black;font-family:sans-serif;font-size:13;" transform="matrix(1 0 0 1 263 1971)">Symbols are supported in up to nine weights and three scales.</text>
  <text style="stroke:none;fill:black;font-family:sans-serif;font-size:13;" transform="matrix(1 0 0 1 263 1989)">For optimal layout with text and other symbols, vertically align</text>
  <text style="stroke:none;fill:black;font-family:sans-serif;font-size:13;" transform="matrix(1 0 0 1 263 2007)">symbols with the adjacent text.</text>
  <line style="fill:none;stroke:#00AEEF;stroke-width:0.5;opacity:1.0;" x1="776" x2="776" y1="1919" y2="1933"/>
  <g transform="matrix(0.2 0 0 0.2 776 1933)">
   <path d="m16.5527 0.78125c2.58789 0 3.85742-0.976562 4.78516-3.71094l6.29883-17.2363h28.8086l6.29883 17.2363c0.927734 2.73438 2.19727 3.71094 4.73633 3.71094 2.58789 0 4.24805-1.5625 4.24805-4.00391 0-0.830078-0.146484-1.61133-0.537109-2.63672l-22.9004-60.9863c-1.12305-2.97852-3.125-4.49219-6.25-4.49219-3.02734 0-5.07812 1.46484-6.15234 4.44336l-22.9004 61.084c-0.390625 1.02539-0.537109 1.80664-0.537109 2.63672 0 2.44141 1.5625 3.95508 4.10156 3.95508Zm13.4766-28.3691 11.8652-32.8613h0.244141l11.8652 32.8613Z"/>
  </g>
  <line style="fill:none;stroke:#00AEEF;stroke-width:0.5;opacity:1.0;" x1="792.836" x2="792.836" y1="1919" y2="1933"/>
  <text style="stroke:none;fill:black;font-family:sans-serif;font-size:13;font-weight:bold;" transform="matrix(1 0 0 1 776 1953)">Margins</text>
  <text style="stroke:none;fill:black;font-family:sans-serif;font-size:13;" transform="matrix(1 0 0 1 776 1971)">Leading and trailing margins on the left and right side of each symbol</text>
  <text style="stroke:none;fill:black;font-family:sans-serif;font-size:13;" transform="matrix(1 0 0 1 776 1989)">can be adjusted by modifying the x-location of the margin guidelines.</text>
  <text style="stroke:none;fill:black;font-family:sans-serif;font-size:13;" transform="matrix(1 0 0 1 776 2007)">Modifications are automatically applied proportionally to all</text>
  <text style="stroke:none;fill:black;font-family:sans-serif;font-size:13;" transform="matrix(1 0 0 1 776 2025)">scales and weights.</text>
  <g transform="matrix(0.2 0 0 0.2 1289 1933)">
   <path d="m14.209 9.32617 8.49609 8.54492c4.29688 4.3457 9.22852 4.05273 13.8672-1.07422l53.4668-58.9355-4.83398-4.88281-53.0762 58.3984c-1.75781 2.00195-3.41797 2.49023-5.76172 0.146484l-5.85938-5.81055c-2.34375-2.29492-1.80664-4.00391 0.195312-5.81055l57.373-54.0039-4.88281-4.83398-57.959 54.4434c-4.93164 4.58984-5.32227 9.47266-1.02539 13.8184Zm32.0801-90.9668c-2.09961 2.05078-2.24609 4.93164-1.07422 6.88477 1.17188 1.80664 3.4668 2.97852 6.68945 2.14844 7.32422-1.70898 14.9414-2.00195 22.0703 2.68555l-2.92969 7.27539c-1.70898 4.15039-0.830078 7.08008 1.85547 9.81445l11.4746 11.5723c2.44141 2.44141 4.49219 2.53906 7.32422 2.05078l5.32227-0.976562 3.32031 3.36914-0.195312 2.7832c-0.195312 2.49023 0.439453 4.39453 2.88086 6.78711l3.80859 3.71094c2.39258 2.39258 5.46875 2.53906 7.8125 0.195312l14.5508-14.5996c2.34375-2.34375 2.24609-5.32227-0.146484-7.71484l-3.85742-3.80859c-2.39258-2.39258-4.24805-3.17383-6.64062-2.97852l-2.88086 0.244141-3.22266-3.17383 1.2207-5.61523c0.634766-2.83203-0.146484-5.0293-3.07617-7.95898l-10.9863-10.9375c-16.6992-16.6016-38.8672-16.2109-53.3203-1.75781Zm7.4707 1.85547c12.1582-8.88672 28.6133-7.37305 39.7461 3.75977l12.1582 12.0605c1.17188 1.17188 1.36719 2.09961 1.02539 3.80859l-1.61133 7.42188 7.51953 7.42188 4.93164-0.292969c1.26953-0.0488281 1.66016 0.0488281 2.63672 1.02539l2.88086 2.88086-12.207 12.207-2.88086-2.88086c-0.976562-0.976562-1.12305-1.36719-1.07422-2.68555l0.341797-4.88281-7.4707-7.42188-7.61719 1.26953c-1.61133 0.341797-2.34375 0.195312-3.56445-0.976562l-10.0098-10.0098c-1.26953-1.17188-1.41602-2.00195-0.634766-3.85742l4.39453-10.4492c-7.8125-7.27539-17.9688-10.4004-28.125-7.42188-0.78125 0.195312-1.07422-0.439453-0.439453-0.976562Z"/>
  </g>
  <text style="stroke:none;fill:black;font-family:sans-serif;font-size:13;font-weight:bold;" transform="matrix(1 0 0 1 1289 1953)">Exporting</text>
  <text style="stroke:none;fill:black;font-family:sans-serif;font-size:13;" transform="matrix(1 0 0 1 1289 1971)">Symbols should be outlined when exporting to ensure the</text>
  <text style="stroke:none;fill:black;font-family:sans-serif;font-size:13;" transform="matrix(1 0 0 1 1289 1989)">design is preserved when submitting to Xcode.</text>
  <text id="template-version" style="stroke:none;fill:black;font-family:sans-serif;font-size:13;text-anchor:end;" transform="matrix(1 0 0 1 3036 1933)">Template v.6.0</text>
  <text style="stroke:none;fill:black;font-family:sans-serif;font-size:13;text-anchor:end;" transform="matrix(1 0 0 1 3036 1951)">Requires Xcode 16 or greater</text>
  <text id="descriptive-name" style="stroke:none;fill:black;font-family:sans-serif;font-size:13;text-anchor:end;" transform="matrix(1 0 0 1 3036 1969)">Generated from square</text>
  <text style="stroke:none;fill:black;font-family:sans-serif;font-size:13;text-anchor:end;" transform="matrix(1 0 0 1 3036 1987)">Typeset at 100.0 points</text>
  <text style="stroke:none;fill:black;font-family:sans-serif;font-size:13;" transform="matrix(1 0 0 1 263 726)">Small</text>
  <text style="stroke:none;fill:black;font-family:sans-serif;font-size:13;" transform="matrix(1 0 0 1 263 1156)">Medium</text>
  <text style="stroke:none;fill:black;font-family:sans-serif;font-size:13;" transform="matrix(1 0 0 1 263 1586)">Large</text>
 </g>
 <g id="Guides">
  <g id="H-reference" style="fill:#27AAE1;stroke:none;" transform="matrix(1 0 0 1 339 696)">
   <path d="M0.993654 0L3.63775 0L29.3281-67.1323L30.0303-67.1323L30.0303-70.459L28.1226-70.459ZM11.6885-24.4799L46.9815-24.4799L46.2315-26.7285L12.4385-26.7285ZM55.1196 0L57.7637 0L30.6382-70.459L29.4326-70.459L29.4326-67.1323Z"/>
  </g>
  <line id="Baseline-S" style="fill:none;stroke:#27AAE1;opacity:1;stroke-width:0.5;" x1="263" x2="3036" y1="696" y2="696"/>
  <line id="Capline-S" style="fill:none;stroke:#27AAE1;opacity:1;stroke-width:0.5;" x1="263" x2="3036" y1="625.541" y2="625.541"/>
  <g id="H-reference" style="fill:#27AAE1;stroke:none;" transform="matrix(1 0 0 1 339 1126)">
   <path d="M0.993654 0L3.63775 0L29.3281-67.1323L30.0303-67.1323L30.0303-70.459L28.1226-70.459ZM11.6885-24.4799L46.9815-24.4799L46.2315-26.7285L12.4385-26.7285ZM55.1196 0L57.7637 0L30.6382-70.459L29.4326-70.459L29.4326-67.1323Z"/>
  </g>
  <line id="Baseline-M" style="fill:none;stroke:#27AAE1;opacity:1;stroke-width:0.5;" x1="263" x2="3036" y1="1126" y2="1126"/>
  <line id="Capline-M" style="fill:none;stroke:#27AAE1;opacity:1;stroke-width:0.5;" x1="263" x2="3036" y1="1055.54" y2="1055.54"/>
  <g id="H-reference" style="fill:#27AAE1;stroke:none;" transform="matrix(1 0 0 1 339 1556)">
   <path d="M0.993654 0L3.63775 0L29.3281-67.1323L30.0303-67.1323L30.0303-70.459L28.1226-70.459ZM11.6885-24.4799L46.9815-24.4799L46.2315-26.7285L12.4385-26.7285ZM55.1196 0L57.7637 0L30.6382-70.459L29.4326-70.459L29.4326-67.1323Z"/>
  </g>
  <line id="Baseline-L" style="fill:none;stroke:#27AAE1;opacity:1;stroke-width:0.5;" x1="263" x2="3036" y1="1556" y2="1556"/>
  <line id="Capline-L" style="fill:none;stroke:#27AAE1;opacity:1;stroke-width:0.5;" x1="263" x2="3036" y1="1485.54" y2="1485.54"/>
  <line id="right-margin-Black-S" style="fill:none;stroke:#00AEEF;stroke-width:0.5;opacity:1.0;" x1="2981.3" x2="2981.3" y1="600.785" y2="720.121"/>
  <line id="left-margin-Black-S" style="fill:none;stroke:#00AEEF;stroke-width:0.5;opacity:1.0;" x1="2885.5" x2="2885.5" y1="600.785" y2="720.121"/>
  <line id="right-margin-Regular-S" style="fill:none;stroke:#00AEEF;stroke-width:0.5;opacity:1.0;" x1="1495.18" x2="1495.18" y1="600.785" y2="720.121"/>
  <line id="left-margin-Regular-S" style="fill:none;stroke:#00AEEF;stroke-width:0.5;opacity:1.0;" x1="1404.51" x2="1404.51" y1="600.785" y2="720.121"/>
  <line id="right-margin-Ultralight-S" style="fill:none;stroke:#00AEEF;stroke-width:0.5;opacity:1.0;" x1="603.073" x2="603.073" y1="600.785" y2="720.121"/>
  <line id="left-margin-Ultralight-S" style="fill:none;stroke:#00AEEF;stroke-width:0.5;opacity:1.0;" x1="516.35" x2="516.35" y1="600.785" y2="720.121"/>
 </g>
 <g id="Symbols">
  <g id="Black-S"><path d="M2930.05866,631.59767c-7.03122,0.89542 -13.14647,3.93983 -17.88777,8.90719c-1.36514,1.43267 -2.93579,3.45836 -3.3879,4.37726c-0.25835,0.53138 -0.29651,0.73101 -0.24661,1.35634c0.03229,0.4022 0.17028,0.94826 0.30532,1.21248c0.6312,1.23597 2.16661,1.85248 3.49946,1.40331c0.76331,-0.25835 1.14496,-0.61064 2.16955,-2.00808c2.24588,-3.05616 5.19341,-5.50461 8.61948,-7.16627c1.34753,-0.65175 3.22937,-1.41212 3.22937,-1.30349c0,0.02349 -0.32,0.80147 -0.7134,1.72918c-1.0334,2.44551 -1.98753,5.32846 -1.98753,6.00956c0,2.54533 3.1824,3.84589 4.9791,2.03744c0.41395,-0.41688 0.56954,-0.73688 1.1156,-2.3046c0.34936,-1.0011 0.92477,-2.50717 1.27413,-3.3468c0.70753,-1.68808 2.24001,-4.75598 2.37799,-4.75598c0.04991,0 0.48734,0.78092 0.97468,1.73212c0.93065,1.81725 2.13432,4.69727 2.77726,6.63782c0.20844,0.6312 0.54606,1.39156 0.75156,1.69102c0.64,0.94239 1.95817,1.41212 3.09726,1.10386c1.18606,-0.32 2.14606,-1.55891 2.14606,-2.77139c0,-0.73101 -0.90422,-3.47891 -1.98459,-6.03305c-0.3934,-0.92771 -0.71633,-1.70569 -0.71633,-1.72331c0,-0.12624 2.0345,0.69285 3.37616,1.35927c3.60222,1.79083 6.1681,3.93983 8.596,7.20443c1.189,1.59707 1.6323,1.92294 2.77726,2.04037c1.64404,0.17028 3.12368,-1.20074 3.12368,-2.89469c0,-0.82496 -0.18202,-1.2712 -0.97468,-2.37212c-4.24515,-5.90094 -10.51894,-10.05508 -17.54429,-11.61693c-2.97983,-0.66055 -6.91085,-0.86606 -9.74683,-0.50496M2903.13452,652.12766c-1.08331,0.33762 -1.8701,1.30349 -1.98166,2.43377c-0.05284,0.53138 0.17028,1.55597 1.52661,6.95782c1.7468,6.95782 1.74973,6.96957 2.79487,7.61251c1.28,0.79266 3.04442,0.41395 3.89873,-0.83376c0.16147,-0.2378 0.66936,-1.43267 1.12734,-2.65396c0.45505,-1.22422 0.84844,-2.24294 0.87193,-2.26643c0.02349,-0.02055 0.43156,1.00404 0.9101,2.28111c0.50496,1.35634 1.01285,2.51597 1.21835,2.789c0.70459,0.92477 2.07267,1.32991 3.20882,0.9512c0.67523,-0.22312 1.48257,-0.93652 1.72918,-1.52955c0.09101,-0.21431 0.85725,-3.15598 1.70276,-6.53801c1.71744,-6.8492 1.72625,-6.91379 1.08331,-7.95012c-0.88954,-1.44147 -2.78607,-1.83193 -4.18937,-0.86606c-0.69285,0.47853 -0.97468,1.01285 -1.40037,2.66863c-0.21431,0.83083 -0.41982,1.46202 -0.45505,1.40331c-0.03523,-0.06165 -0.32,-0.79854 -0.63413,-1.63817c-0.84844,-2.26937 -1.55891,-2.92992 -3.15891,-2.92992c-1.60001,0 -2.31047,0.66055 -3.15891,2.92992c-0.31413,0.83964 -0.5989,1.57652 -0.63413,1.63817c-0.03523,0.05872 -0.2378,-0.56661 -0.45211,-1.39156c-0.42275,-1.63817 -0.65762,-2.11671 -1.27413,-2.58643c-0.81909,-0.62532 -1.74973,-0.78973 -2.73322,-0.48147M2925.30268,652.0572c-0.54312,0.17908 -0.99523,0.46092 -1.36514,0.85725c-0.46385,0.49321 -0.5989,0.75743 -0.75156,1.47377c-0.11743,0.53725 -0.03523,0.92771 1.4679,6.94608c0.87487,3.50533 1.66459,6.51452 1.7556,6.68773c0.24954,0.47266 0.88661,1.03633 1.4767,1.30349c0.71633,0.32294 1.55303,0.31119 2.28992,-0.03229c1.02459,-0.47853 1.32404,-0.93652 2.28698,-3.51414c0.4756,-1.27413 0.89835,-2.31634 0.94239,-2.31634c0.04404,0 0.46679,1.04221 0.94532,2.31927c0.97468,2.60992 1.29468,3.09139 2.36918,3.55231c1.1156,0.48147 2.46313,0.14973 3.27928,-0.80734c0.21725,-0.25541 0.46092,-0.64 0.53725,-0.85432c0.07633,-0.21725 0.83083,-3.16478 1.67634,-6.54975c1.48845,-5.9714 1.52955,-6.17984 1.40331,-6.78461c-0.14385,-0.70165 -0.66642,-1.47083 -1.28,-1.88478c-1.12734,-0.75743 -2.58937,-0.61064 -3.6257,0.36404c-0.54019,0.50789 -0.66055,0.77505 -1.05982,2.35744c-0.19083,0.75743 -0.37285,1.40037 -0.39927,1.42973c-0.02936,0.02936 -0.30532,-0.63707 -0.61652,-1.4767c-0.69872,-1.89946 -1.01578,-2.3457 -2.00515,-2.83304c-0.66349,-0.32881 -0.8367,-0.36404 -1.40918,-0.30532c-0.83964,0.08514 -1.65579,0.51083 -2.1079,1.09799c-0.1967,0.25541 -0.61358,1.15964 -0.92771,2.01395c-0.31413,0.85432 -0.59597,1.53248 -0.62532,1.50312c-0.02642,-0.02936 -0.20844,-0.6723 -0.39927,-1.42973c-0.19083,-0.75743 -0.41982,-1.51487 -0.50789,-1.68221c-0.21138,-0.40514 -0.84844,-0.99523 -1.34166,-1.24478c-0.45505,-0.22899 -1.56771,-0.33468 -2.00808,-0.19083M2947.17139,652.12766c-1.08331,0.33762 -1.8701,1.30349 -1.98166,2.43377c-0.05284,0.53138 0.17028,1.55597 1.52661,6.95782c1.7468,6.95782 1.74973,6.96957 2.79487,7.61251c1.28,0.79266 3.04442,0.41395 3.89873,-0.83376c0.16147,-0.2378 0.66936,-1.43267 1.12734,-2.65396c0.45505,-1.22422 0.84844,-2.24294 0.87193,-2.26643c0.02349,-0.02055 0.43156,1.00404 0.9101,2.28111c0.50496,1.35634 1.01285,2.51597 1.21835,2.789c0.70459,0.92477 2.07267,1.32991 3.20882,0.9512c0.67523,-0.22312 1.48257,-0.93652 1.72918,-1.52955c0.09101,-0.21431 0.85725,-3.15598 1.70276,-6.53801c1.71744,-6.8492 1.72625,-6.91379 1.08331,-7.95012c-0.88954,-1.44147 -2.78607,-1.83193 -4.18937,-0.86606c-0.69285,0.47853 -0.97468,1.01285 -1.40037,2.66863c-0.21431,0.83083 -0.41982,1.46202 -0.45505,1.40331c-0.03523,-0.06165 -0.32,-0.79854 -0.63413,-1.63817c-0.84844,-2.26937 -1.55891,-2.92992 -3.15891,-2.92992c-1.60001,0 -2.31047,0.66055 -3.15891,2.92992c-0.31413,0.83964 -0.5989,1.57652 -0.63413,1.63817c-0.03523,0.05872 -0.2378,-0.56661 -0.45211,-1.39156c-0.42275,-1.63817 -0.65762,-2.11671 -1.27413,-2.58643c-0.81909,-0.62532 -1.74973,-0.78973 -2.73322,-0.48147M2910.46226,672.6782c-1.10092,0.3934 -1.82606,1.36221 -1.92294,2.57762c-0.07046,0.89542 0.11743,1.36808 1.08037,2.70093c2.8213,3.91047 6.57324,7.05764 10.92701,9.16848c1.84955,0.89542 2.64221,1.20955 4.40369,1.74092c2.7479,0.83083 5.6103,1.25358 8.45508,1.25358c9.49435,0 18.36924,-4.56516 23.94431,-12.31564c0.78973,-1.09799 0.97468,-1.54716 0.97468,-2.36331c0,-0.78679 -0.25541,-1.44734 -0.76331,-1.97872c-0.62532,-0.64881 -1.20074,-0.89248 -2.13726,-0.89248c-1.28881,0 -1.71744,0.28771 -3.00038,2.00808c-2.34863,3.15891 -5.19048,5.56626 -8.49031,7.19856c-1.13028,0.5578 -3.37029,1.45028 -3.44662,1.37101c-0.02055,-0.02055 0.2789,-0.78092 0.66349,-1.69395c1.09211,-2.5835 2.00221,-5.3402 2.00221,-6.0536c-0.00294,-1.66459 -1.5501,-3.05029 -3.1912,-2.85652c-0.83083,0.09982 -1.7145,0.61945 -2.11083,1.24184c-0.17908,0.28184 -0.49321,1.02166 -0.69872,1.64404c-0.63707,1.92001 -1.84368,4.80589 -2.77139,6.61727c-0.48734,0.95413 -0.92477,1.73212 -0.97175,1.73212c-0.12917,0 -1.53542,-2.77432 -2.23414,-4.40075c-0.32881,-0.77211 -0.9189,-2.30166 -1.30936,-3.40258c-0.3934,-1.10092 -0.83376,-2.16074 -0.98055,-2.35744c-0.35817,-0.47853 -1.32991,-0.98936 -2.0345,-1.0745c-1.62056,-0.19083 -3.1912,1.20367 -3.1912,2.83304c0,0.71633 0.92771,3.53469 1.98753,6.04186c0.3934,0.93065 0.70165,1.70863 0.68404,1.72625c-0.07927,0.07927 -2.51891,-0.92477 -3.60809,-1.48551c-3.26166,-1.6734 -6.04186,-4.05139 -8.31122,-7.09874c-0.52844,-0.71046 -1.13909,-1.40624 -1.35927,-1.54423c-0.78973,-0.50496 -1.76147,-0.63413 -2.58937,-0.33762" className="SFSymbolsPreviewWireframe"/></g>
  <g id="Regular-S"><path d="M1446.50361,631.59767c-7.03122,0.89542 -13.14647,3.93983 -17.88777,8.90719c-1.36514,1.43267 -2.93579,3.45836 -3.3879,4.37726c-0.25835,0.53138 -0.29651,0.73101 -0.24661,1.35634c0.03229,0.4022 0.17028,0.94826 0.30532,1.21248c0.6312,1.23597 2.16661,1.85248 3.49946,1.40331c0.76331,-0.25835 1.14496,-0.61064 2.16955,-2.00808c2.24588,-3.05616 5.19341,-5.50461 8.61948,-7.16627c1.34753,-0.65175 3.22937,-1.41212 3.22937,-1.30349c0,0.02349 -0.32,0.80147 -0.7134,1.72918c-1.0334,2.44551 -1.98753,5.32846 -1.98753,6.00956c0,2.54533 3.1824,3.84589 4.9791,2.03744c0.41395,-0.41688 0.56954,-0.73688 1.1156,-2.3046c0.34936,-1.0011 0.92477,-2.50717 1.27413,-3.3468c0.70753,-1.68808 2.24001,-4.75598 2.37799,-4.75598c0.04991,0 0.48734,0.78092 0.97468,1.73212c0.93065,1.81725 2.13432,4.69727 2.77726,6.63782c0.20844,0.6312 0.54606,1.39156 0.75156,1.69102c0.64,0.94239 1.95817,1.41212 3.09726,1.10386c1.18606,-0.32 2.14606,-1.55891 2.14606,-2.77139c0,-0.73101 -0.90422,-3.47891 -1.98459,-6.03305c-0.3934,-0.92771 -0.71633,-1.70569 -0.71633,-1.72331c0,-0.12624 2.0345,0.69285 3.37616,1.35927c3.60222,1.79083 6.1681,3.93983 8.596,7.20443c1.189,1.59707 1.6323,1.92294 2.77726,2.04037c1.64404,0.17028 3.12368,-1.20074 3.12368,-2.89469c0,-0.82496 -0.18202,-1.2712 -0.97468,-2.37212c-4.24515,-5.90094 -10.51894,-10.05508 -17.54429,-11.61693c-2.97983,-0.66055 -6.91085,-0.86606 -9.74683,-0.50496M1419.57947,652.12766c-1.08331,0.33762 -1.8701,1.30349 -1.98166,2.43377c-0.05284,0.53138 0.17028,1.55597 1.52661,6.95782c1.7468,6.95782 1.74973,6.96957 2.79487,7.61251c1.28,0.79266 3.04442,0.41395 3.89873,-0.83376c0.16147,-0.2378 0.66936,-1.43267 1.12734,-2.65396c0.45505,-1.22422 0.84844,-2.24294 0.87193,-2.26643c0.02349,-0.02055 0.43156,1.00404 0.9101,2.28111c0.50496,1.35634 1.01285,2.51597 1.21835,2.789c0.70459,0.92477 2.07267,1.32991 3.20882,0.9512c0.67523,-0.22312 1.48257,-0.93652 1.72918,-1.52955c0.09101,-0.21431 0.85725,-3.15598 1.70276,-6.53801c1.71744,-6.8492 1.72625,-6.91379 1.08331,-7.95012c-0.88954,-1.44147 -2.78607,-1.83193 -4.18937,-0.86606c-0.69285,0.47853 -0.97468,1.01285 -1.40037,2.66863c-0.21431,0.83083 -0.41982,1.46202 -0.45505,1.40331c-0.03523,-0.06165 -0.32,-0.79854 -0.63413,-1.63817c-0.84844,-2.26937 -1.55891,-2.92992 -3.15891,-2.92992c-1.60001,0 -2.31047,0.66055 -3.15891,2.92992c-0.31413,0.83964 -0.5989,1.57652 -0.63413,1.63817c-0.03523,0.05872 -0.2378,-0.56661 -0.45211,-1.39156c-0.42275,-1.63817 -0.65762,-2.11671 -1.27413,-2.58643c-0.81909,-0.62532 -1.74973,-0.78973 -2.73322,-0.48147M1441.74763,652.0572c-0.54312,0.17908 -0.99523,0.46092 -1.36514,0.85725c-0.46385,0.49321 -0.5989,0.75743 -0.75156,1.47377c-0.11743,0.53725 -0.03523,0.92771 1.4679,6.94608c0.87487,3.50533 1.66459,6.51452 1.7556,6.68773c0.24954,0.47266 0.88661,1.03633 1.4767,1.30349c0.71633,0.32294 1.55303,0.31119 2.28992,-0.03229c1.02459,-0.47853 1.32404,-0.93652 2.28698,-3.51414c0.4756,-1.27413 0.89835,-2.31634 0.94239,-2.31634c0.04404,0 0.46679,1.04221 0.94532,2.31927c0.97468,2.60992 1.29468,3.09139 2.36918,3.55231c1.1156,0.48147 2.46313,0.14973 3.27928,-0.80734c0.21725,-0.25541 0.46092,-0.64 0.53725,-0.85432c0.07633,-0.21725 0.83083,-3.16478 1.67634,-6.54975c1.48845,-5.9714 1.52955,-6.17984 1.40331,-6.78461c-0.14385,-0.70165 -0.66642,-1.47083 -1.28,-1.88478c-1.12734,-0.75743 -2.58937,-0.61064 -3.6257,0.36404c-0.54019,0.50789 -0.66055,0.77505 -1.05982,2.35744c-0.19083,0.75743 -0.37285,1.40037 -0.39927,1.42973c-0.02936,0.02936 -0.30532,-0.63707 -0.61652,-1.4767c-0.69872,-1.89946 -1.01578,-2.3457 -2.00515,-2.83304c-0.66349,-0.32881 -0.8367,-0.36404 -1.40918,-0.30532c-0.83964,0.08514 -1.65579,0.51083 -2.1079,1.09799c-0.1967,0.25541 -0.61358,1.15964 -0.92771,2.01395c-0.31413,0.85432 -0.59597,1.53248 -0.62532,1.50312c-0.02642,-0.02936 -0.20844,-0.6723 -0.39927,-1.42973c-0.19083,-0.75743 -0.41982,-1.51487 -0.50789,-1.68221c-0.21138,-0.40514 -0.84844,-0.99523 -1.34166,-1.24478c-0.45505,-0.22899 -1.56771,-0.33468 -2.00808,-0.19083M1463.61634,652.12766c-1.08331,0.33762 -1.8701,1.30349 -1.98166,2.43377c-0.05284,0.53138 0.17028,1.55597 1.52661,6.95782c1.7468,6.95782 1.74973,6.96957 2.79487,7.61251c1.28,0.79266 3.04442,0.41395 3.89873,-0.83376c0.16147,-0.2378 0.66936,-1.43267 1.12734,-2.65396c0.45505,-1.22422 0.84844,-2.24294 0.87193,-2.26643c0.02349,-0.02055 0.43156,1.00404 0.9101,2.28111c0.50496,1.35634 1.01285,2.51597 1.21835,2.789c0.70459,0.92477 2.07267,1.32991 3.20882,0.9512c0.67523,-0.22312 1.48257,-0.93652 1.72918,-1.52955c0.09101,-0.21431 0.85725,-3.15598 1.70276,-6.53801c1.71744,-6.8492 1.72625,-6.91379 1.08331,-7.95012c-0.88954,-1.44147 -2.78607,-1.83193 -4.18937,-0.86606c-0.69285,0.47853 -0.97468,1.01285 -1.40037,2.66863c-0.21431,0.83083 -0.41982,1.46202 -0.45505,1.40331c-0.03523,-0.06165 -0.32,-0.79854 -0.63413,-1.63817c-0.84844,-2.26937 -1.55891,-2.92992 -3.15891,-2.92992c-1.60001,0 -2.31047,0.66055 -3.15891,2.92992c-0.31413,0.83964 -0.5989,1.57652 -0.63413,1.63817c-0.03523,0.05872 -0.2378,-0.56661 -0.45211,-1.39156c-0.42275,-1.63817 -0.65762,-2.11671 -1.27413,-2.58643c-0.81909,-0.62532 -1.74973,-0.78973 -2.73322,-0.48147M1426.90721,672.6782c-1.10092,0.3934 -1.82606,1.36221 -1.92294,2.57762c-0.07046,0.89542 0.11743,1.36808 1.08037,2.70093c2.8213,3.91047 6.57324,7.05764 10.92701,9.16848c1.84955,0.89542 2.64221,1.20955 4.40369,1.74092c2.7479,0.83083 5.6103,1.25358 8.45508,1.25358c9.49435,0 18.36924,-4.56516 23.94431,-12.31564c0.78973,-1.09799 0.97468,-1.54716 0.97468,-2.36331c0,-0.78679 -0.25541,-1.44734 -0.76331,-1.97872c-0.62532,-0.64881 -1.20074,-0.89248 -2.13726,-0.89248c-1.28881,0 -1.71744,0.28771 -3.00038,2.00808c-2.34863,3.15891 -5.19048,5.56626 -8.49031,7.19856c-1.13028,0.5578 -3.37029,1.45028 -3.44662,1.37101c-0.02055,-0.02055 0.2789,-0.78092 0.66349,-1.69395c1.09211,-2.5835 2.00221,-5.3402 2.00221,-6.0536c-0.00294,-1.66459 -1.5501,-3.05029 -3.1912,-2.85652c-0.83083,0.09982 -1.7145,0.61945 -2.11083,1.24184c-0.17908,0.28184 -0.49321,1.02166 -0.69872,1.64404c-0.63707,1.92001 -1.84368,4.80589 -2.77139,6.61727c-0.48734,0.95413 -0.92477,1.73212 -0.97175,1.73212c-0.12917,0 -1.53542,-2.77432 -2.23414,-4.40075c-0.32881,-0.77211 -0.9189,-2.30166 -1.30936,-3.40258c-0.3934,-1.10092 -0.83376,-2.16074 -0.98055,-2.35744c-0.35817,-0.47853 -1.32991,-0.98936 -2.0345,-1.0745c-1.62056,-0.19083 -3.1912,1.20367 -3.1912,2.83304c0,0.71633 0.92771,3.53469 1.98753,6.04186c0.3934,0.93065 0.70165,1.70863 0.68404,1.72625c-0.07927,0.07927 -2.51891,-0.92477 -3.60809,-1.48551c-3.26166,-1.6734 -6.04186,-4.05139 -8.31122,-7.09874c-0.52844,-0.71046 -1.13909,-1.40624 -1.35927,-1.54423c-0.78973,-0.50496 -1.76147,-0.63413 -2.58937,-0.33762" className="SFSymbolsPreviewWireframe"/></g>
  <g id="Ultralight-S"><path d="M556.37002,631.59767c-7.03122,0.89542 -13.14647,3.93983 -17.88777,8.90719c-1.36514,1.43267 -2.93579,3.45836 -3.3879,4.37726c-0.25835,0.53138 -0.29651,0.73101 -0.24661,1.35634c0.03229,0.4022 0.17028,0.94826 0.30532,1.21248c0.6312,1.23597 2.16661,1.85248 3.49946,1.40331c0.76331,-0.25835 1.14496,-0.61064 2.16955,-2.00808c2.24588,-3.05616 5.19341,-5.50461 8.61948,-7.16627c1.34753,-0.65175 3.22937,-1.41212 3.22937,-1.30349c0,0.02349 -0.32,0.80147 -0.7134,1.72918c-1.0334,2.44551 -1.98753,5.32846 -1.98753,6.00956c0,2.54533 3.1824,3.84589 4.9791,2.03744c0.41395,-0.41688 0.56954,-0.73688 1.1156,-2.3046c0.34936,-1.0011 0.92477,-2.50717 1.27413,-3.3468c0.70753,-1.68808 2.24001,-4.75598 2.37799,-4.75598c0.04991,0 0.48734,0.78092 0.97468,1.73212c0.93065,1.81725 2.13432,4.69727 2.77726,6.63782c0.20844,0.6312 0.54606,1.39156 0.75156,1.69102c0.64,0.94239 1.95817,1.41212 3.09726,1.10386c1.18606,-0.32 2.14606,-1.55891 2.14606,-2.77139c0,-0.73101 -0.90422,-3.47891 -1.98459,-6.03305c-0.3934,-0.92771 -0.71633,-1.70569 -0.71633,-1.72331c0,-0.12624 2.0345,0.69285 3.37616,1.35927c3.60222,1.79083 6.1681,3.93983 8.596,7.20443c1.189,1.59707 1.6323,1.92294 2.77726,2.04037c1.64404,0.17028 3.12368,-1.20074 3.12368,-2.89469c0,-0.82496 -0.18202,-1.2712 -0.97468,-2.37212c-4.24515,-5.90094 -10.51894,-10.05508 -17.54429,-11.61693c-2.97983,-0.66055 -6.91085,-0.86606 -9.74683,-0.50496M529.44588,652.12766c-1.08331,0.33762 -1.8701,1.30349 -1.98166,2.43377c-0.05284,0.53138 0.17028,1.55597 1.52661,6.95782c1.7468,6.95782 1.74973,6.96957 2.79487,7.61251c1.28,0.79266 3.04442,0.41395 3.89873,-0.83376c0.16147,-0.2378 0.66936,-1.43267 1.12734,-2.65396c0.45505,-1.22422 0.84844,-2.24294 0.87193,-2.26643c0.02349,-0.02055 0.43156,1.00404 0.9101,2.28111c0.50496,1.35634 1.01285,2.51597 1.21835,2.789c0.70459,0.92477 2.07267,1.32991 3.20882,0.9512c0.67523,-0.22312 1.48257,-0.93652 1.72918,-1.52955c0.09101,-0.21431 0.85725,-3.15598 1.70276,-6.53801c1.71744,-6.8492 1.72625,-6.91379 1.08331,-7.95012c-0.88954,-1.44147 -2.78607,-1.83193 -4.18937,-0.86606c-0.69285,0.47853 -0.97468,1.01285 -1.40037,2.66863c-0.21431,0.83083 -0.41982,1.46202 -0.45505,1.40331c-0.03523,-0.06165 -0.32,-0.79854 -0.63413,-1.63817c-0.84844,-2.26937 -1.55891,-2.92992 -3.15891,-2.92992c-1.60001,0 -2.31047,0.66055 -3.15891,2.92992c-0.31413,0.83964 -0.5989,1.57652 -0.63413,1.63817c-0.03523,0.05872 -0.2378,-0.56661 -0.45211,-1.39156c-0.42275,-1.63817 -0.65762,-2.11671 -1.27413,-2.58643c-0.81909,-0.62532 -1.74973,-0.78973 -2.73322,-0.48147M551.61404,652.0572c-0.54312,0.17908 -0.99523,0.46092 -1.36514,0.85725c-0.46385,0.49321 -0.5989,0.75743 -0.75156,1.47377c-0.11743,0.53725 -0.03523,0.92771 1.4679,6.94608c0.87487,3.50533 1.66459,6.51452 1.7556,6.68773c0.24954,0.47266 0.88661,1.03633 1.4767,1.30349c0.71633,0.32294 1.55303,0.31119 2.28992,-0.03229c1.02459,-0.47853 1.32404,-0.93652 2.28698,-3.51414c0.4756,-1.27413 0.89835,-2.31634 0.94239,-2.31634c0.04404,0 0.46679,1.04221 0.94532,2.31927c0.97468,2.60992 1.29468,3.09139 2.36918,3.55231c1.1156,0.48147 2.46313,0.14973 3.27928,-0.80734c0.21725,-0.25541 0.46092,-0.64 0.53725,-0.85432c0.07633,-0.21725 0.83083,-3.16478 1.67634,-6.54975c1.48845,-5.9714 1.52955,-6.17984 1.40331,-6.78461c-0.14385,-0.70165 -0.66642,-1.47083 -1.28,-1.88478c-1.12734,-0.75743 -2.58937,-0.61064 -3.6257,0.36404c-0.54019,0.50789 -0.66055,0.77505 -1.05982,2.35744c-0.19083,0.75743 -0.37285,1.40037 -0.39927,1.42973c-0.02936,0.02936 -0.30532,-0.63707 -0.61652,-1.4767c-0.69872,-1.89946 -1.01578,-2.3457 -2.00515,-2.83304c-0.66349,-0.32881 -0.8367,-0.36404 -1.40918,-0.30532c-0.83964,0.08514 -1.65579,0.51083 -2.1079,1.09799c-0.1967,0.25541 -0.61358,1.15964 -0.92771,2.01395c-0.31413,0.85432 -0.59597,1.53248 -0.62532,1.50312c-0.02642,-0.02936 -0.20844,-0.6723 -0.39927,-1.42973c-0.19083,-0.75743 -0.41982,-1.51487 -0.50789,-1.68221c-0.21138,-0.40514 -0.84844,-0.99523 -1.34166,-1.24478c-0.45505,-0.22899 -1.56771,-0.33468 -2.00808,-0.19083M573.48275,652.12766c-1.08331,0.33762 -1.8701,1.30349 -1.98166,2.43377c-0.05284,0.53138 0.17028,1.55597 1.52661,6.95782c1.7468,6.95782 1.74973,6.96957 2.79487,7.61251c1.28,0.79266 3.04442,0.41395 3.89873,-0.83376c0.16147,-0.2378 0.66936,-1.43267 1.12734,-2.65396c0.45505,-1.22422 0.84844,-2.24294 0.87193,-2.26643c0.02349,-0.02055 0.43156,1.00404 0.9101,2.28111c0.50496,1.35634 1.01285,2.51597 1.21835,2.789c0.70459,0.92477 2.07267,1.32991 3.20882,0.9512c0.67523,-0.22312 1.48257,-0.93652 1.72918,-1.52955c0.09101,-0.21431 0.85725,-3.15598 1.70276,-6.53801c1.71744,-6.8492 1.72625,-6.91379 1.08331,-7.95012c-0.88954,-1.44147 -2.78607,-1.83193 -4.18937,-0.86606c-0.69285,0.47853 -0.97468,1.01285 -1.40037,2.66863c-0.21431,0.83083 -0.41982,1.46202 -0.45505,1.40331c-0.03523,-0.06165 -0.32,-0.79854 -0.63413,-1.63817c-0.84844,-2.26937 -1.55891,-2.92992 -3.15891,-2.92992c-1.60001,0 -2.31047,0.66055 -3.15891,2.92992c-0.31413,0.83964 -0.5989,1.57652 -0.63413,1.63817c-0.03523,0.05872 -0.2378,-0.56661 -0.45211,-1.39156c-0.42275,-1.63817 -0.65762,-2.11671 -1.27413,-2.58643c-0.81909,-0.62532 -1.74973,-0.78973 -2.73322,-0.48147M536.77362,672.6782c-1.10092,0.3934 -1.82606,1.36221 -1.92294,2.57762c-0.07046,0.89542 0.11743,1.36808 1.08037,2.70093c2.8213,3.91047 6.57324,7.05764 10.92701,9.16848c1.84955,0.89542 2.64221,1.20955 4.40369,1.74092c2.7479,0.83083 5.6103,1.25358 8.45508,1.25358c9.49435,0 18.36924,-4.56516 23.94431,-12.31564c0.78973,-1.09799 0.97468,-1.54716 0.97468,-2.36331c0,-0.78679 -0.25541,-1.44734 -0.76331,-1.97872c-0.62532,-0.64881 -1.20074,-0.89248 -2.13726,-0.89248c-1.28881,0 -1.71744,0.28771 -3.00038,2.00808c-2.34863,3.15891 -5.19048,5.56626 -8.49031,7.19856c-1.13028,0.5578 -3.37029,1.45028 -3.44662,1.37101c-0.02055,-0.02055 0.2789,-0.78092 0.66349,-1.69395c1.09211,-2.5835 2.00221,-5.3402 2.00221,-6.0536c-0.00294,-1.66459 -1.5501,-3.05029 -3.1912,-2.85652c-0.83083,0.09982 -1.7145,0.61945 -2.11083,1.24184c-0.17908,0.28184 -0.49321,1.02166 -0.69872,1.64404c-0.63707,1.92001 -1.84368,4.80589 -2.77139,6.61727c-0.48734,0.95413 -0.92477,1.73212 -0.97175,1.73212c-0.12917,0 -1.53542,-2.77432 -2.23414,-4.40075c-0.32881,-0.77211 -0.9189,-2.30166 -1.30936,-3.40258c-0.3934,-1.10092 -0.83376,-2.16074 -0.98055,-2.35744c-0.35817,-0.47853 -1.32991,-0.98936 -2.0345,-1.0745c-1.62056,-0.19083 -3.1912,1.20367 -3.1912,2.83304c0,0.71633 0.92771,3.53469 1.98753,6.04186c0.3934,0.93065 0.70165,1.70863 0.68404,1.72625c-0.07927,0.07927 -2.51891,-0.92477 -3.60809,-1.48551c-3.26166,-1.6734 -6.04186,-4.05139 -8.31122,-7.09874c-0.52844,-0.71046 -1.13909,-1.40624 -1.35927,-1.54423c-0.78973,-0.50496 -1.76147,-0.63413 -2.58937,-0.33762" className="SFSymbolsPreviewWireframe"/></g>
 </g>
</svg>