<?xml version="1.0" encoding="UTF-8"?><!--Generator: https://SymbolKit.app--><!DOCTYPE svg PUBLIC "-//W3C//DTD SVG 1.1//EN" "http://www.w3.org/Graphics/SVG/1.1/DTD/svg11.dtd"><svg xmlns="http://www.w3.org/2000/svg" xmlns:xlink="http://www.w3.org/1999/xlink" version="1.1" viewBox="0 0 3300 2200">
 <!--glyph: "100092", point size: 100.0, font version: "20.0d10e1", template writer version: "138.0.0"-->
 <style>.SFSymbolsPreviewWireframe {fill:none;opacity:1.0;stroke:black;stroke-width:0.5}
</style>
 <g id="Notes">
  <rect height="2200" id="artboard" style="fill:white;opacity:1" width="3300" x="0" y="0"/>
  <line style="fill:none;stroke:black;opacity:1;stroke-width:0.5;" x1="263" x2="3036" y1="292" y2="292"/>
  <text style="stroke:none;fill:black;font-family:sans-serif;font-size:13;font-weight:bold;" transform="matrix(1 0 0 1 263 322)">Weight/Scale Variations</text>
  <text style="stroke:none;fill:black;font-family:sans-serif;font-size:13;text-anchor:middle;" transform="matrix(1 0 0 1 559.711 322)">Ultralight</text>
  <text style="stroke:none;fill:black;font-family:sans-serif;font-size:13;text-anchor:middle;" transform="matrix(1 0 0 1 856.422 322)">Thin</text>
  <text style="stroke:none;fill:black;font-family:sans-serif;font-size:13;text-anchor:middle;" transform="matrix(1 0 0 1 1153.13 322)">Light</text>
  <text style="stroke:none;fill:black;font-family:sans-serif;font-size:13;text-anchor:middle;" transform="matrix(1 0 0 1 1449.84 322)">Regular</text>
  <text style="stroke:none;fill:black;font-family:sans-serif;font-size:13;text-anchor:middle;" transform="matrix(1 0 0 1 1746.56 322)">Medium</text>
  <text style="stroke:none;fill:black;font-family:sans-serif;font-size:13;text-anchor:middle;" transform="matrix(1 0 0 1 2043.27 322)">Semibold</text>
  <text style="stroke:none;fill:black;font-family:sans-serif;font-size:13;text-anchor:middle;" transform="matrix(1 0 0 1 2339.98 322)">Bold</text>
  <text style="stroke:none;fill:black;font-family:sans-serif;font-size:13;text-anchor:middle;" transform="matrix(1 0 0 1 2636.69 322)">Heavy</text>
  <text style="stroke:none;fill:black;font-family:sans-serif;font-size:13;text-anchor:middle;" transform="matrix(1 0 0 1 2933.4 322)">Black</text>
  <line style="fill:none;stroke:black;opacity:1;stroke-width:0.5;" x1="263" x2="3036" y1="1903" y2="1903"/>
  <g transform="matrix(0.2 0 0 0.2 263 1933)">
   <path d="m46.2402 4.15039c21.7773 0 39.4531-17.627 39.4531-39.4043s-17.6758-39.4043-39.4531-39.4043c-21.7285 0-39.4043 17.627-39.4043 39.4043s17.6758 39.4043 39.4043 39.4043Zm0-7.42188c-17.6758 0-31.9336-14.3066-31.9336-31.9824s14.2578-31.9824 31.9336-31.9824 31.9824 14.3066 31.9824 31.9824-14.3066 31.9824-31.9824 31.9824Zm-17.9688-31.9824c0 2.14844 1.51367 3.61328 3.75977 3.61328h10.498v10.5957c0 2.19727 1.46484 3.71094 3.61328 3.71094 2.24609 0 3.71094-1.51367 3.71094-3.71094v-10.5957h10.5957c2.19727 0 3.71094-1.46484 3.71094-3.61328 0-2.19727-1.51367-3.71094-3.71094-3.71094h-10.5957v-10.5469c0-2.24609-1.46484-3.75977-3.71094-3.75977-2.14844 0-3.61328 1.51367-3.61328 3.75977v10.5469h-10.498c-2.24609 0-3.75977 1.51367-3.75977 3.71094Z"/>
  </g>
  <g transform="matrix(0.2 0 0 0.2 281.506 1933)">
   <path d="m58.5449 14.5508c27.4902 0 49.8047-22.3145 49.8047-49.8047s-22.3145-49.8047-49.8047-49.8047-49.8047 22.3145-49.8047 49.8047 22.3145 49.8047 49.8047 49.8047Zm0-8.30078c-22.9492 0-41.5039-18.5547-41.5039-41.5039s18.5547-41.5039 41.5039-41.5039 41.5039 18.5547 41.5039 41.5039-18.5547 41.5039-41.5039 41.5039Zm-22.6562-41.5039c0 2.39258 1.66016 4.00391 4.15039 4.00391h14.3555v14.4043c0 2.44141 1.66016 4.15039 4.05273 4.15039 2.44141 0 4.15039-1.66016 4.15039-4.15039v-14.4043h14.4043c2.44141 0 4.15039-1.61133 4.15039-4.00391 0-2.44141-1.70898-4.15039-4.15039-4.15039h-14.4043v-14.3555c0-2.49023-1.70898-4.19922-4.15039-4.19922-2.39258 0-4.05273 1.70898-4.05273 4.19922v14.3555h-14.3555c-2.49023 0-4.15039 1.70898-4.15039 4.15039Z"/>
  </g>
  <g transform="matrix(0.2 0 0 0.2 304.924 1933)">
   <path d="m74.8535 28.3203c35.1074 0 63.623-28.4668 63.623-63.5742s-28.5156-63.623-63.623-63.623-63.5742 28.5156-63.5742 63.623 28.4668 63.5742 63.5742 63.5742Zm0-9.08203c-30.127 0-54.4922-24.3652-54.4922-54.4922s24.3652-54.4922 54.4922-54.4922 54.4922 24.3652 54.4922 54.4922-24.3652 54.4922-54.4922 54.4922Zm-28.8574-54.4922c0 2.58789 1.85547 4.39453 4.58984 4.39453h19.7266v19.7754c0 2.68555 1.85547 4.58984 4.44336 4.58984 2.68555 0 4.54102-1.85547 4.54102-4.58984v-19.7754h19.7754c2.68555 0 4.58984-1.80664 4.58984-4.39453 0-2.73438-1.85547-4.58984-4.58984-4.58984h-19.7754v-19.7266c0-2.73438-1.85547-4.63867-4.54102-4.63867-2.58789 0-4.44336 1.9043-4.44336 4.63867v19.7266h-19.7266c-2.73438 0-4.58984 1.85547-4.58984 4.58984Z"/>
  </g>
  <text style="stroke:none;fill:black;font-family:sans-serif;font-size:13;font-weight:bold;" transform="matrix(1 0 0 1 263 1953)">Design Variations</text>
  <text style="stroke:none;fill:black;font-family:sans-serif;font-size:13;" transform="matrix(1 0 0 1 263 1971)">Symbols are supported in up to nine weights and three scales.</text>
  <text style="stroke:none;fill:black;font-family:sans-serif;font-size:13;" transform="matrix(1 0 0 1 263 1989)">For optimal layout with text and other symbols, vertically align</text>
  <text style="stroke:none;fill:black;font-family:sans-serif;font-size:13;" transform="matrix(1 0 0 1 263 2007)">symbols with the adjacent text.</text>
  <line style="fill:none;stroke:#00AEEF;stroke-width:0.5;opacity:1.0;" x1="776" x2="776" y1="1919" y2="1933"/>
  <g transform="matrix(0.2 0 0 0.2 776 1933)">
   <path d="m16.5527 0.78125c2.58789 0 3.85742-0.976562 4.78516-3.71094l6.29883-17.2363h28.8086l6.29883 17.2363c0.927734 2.73438 2.19727 3.71094 4.73633 3.71094 2.58789 0 4.24805-1.5625 4.24805-4.00391 0-0.830078-0.146484-1.61133-0.537109-2.63672l-22.9004-60.9863c-1.12305-2.97852-3.125-4.49219-6.25-4.49219-3.02734 0-5.07812 1.46484-6.15234 4.44336l-22.9004 61.084c-0.390625 1.02539-0.537109 1.80664-0.537109 2.63672 0 2.44141 1.5625 3.95508 4.10156 3.95508Zm13.4766-28.3691 11.8652-32.8613h0.244141l11.8652 32.8613Z"/>
  </g>
  <line style="fill:none;stroke:#00AEEF;stroke-width:0.5;opacity:1.0;" x1="792.836" x2="792.836" y1="1919" y2="1933"/>
  <text style="stroke:none;fill:black;font-family:sans-serif;font-size:13;font-weight:bold;" transform="matrix(1 0 0 1 776 1953)">Margins</text>
  <text style="stroke:none;fill:black;font-family:sans-serif;font-size:13;" transform="matrix(1 0 0 1 776 1971)">Leading and trailing margins on the left and right side of each symbol</text>
  <text style="stroke:none;fill:black;font-family:sans-serif;font-size:13;" transform="matrix(1 0 0 1 776 1989)">can be adjusted by modifying the x-location of the margin guidelines.</text>
  <text style="stroke:none;fill:black;font-family:sans-serif;font-size:13;" transform="matrix(1 0 0 1 776 2007)">Modifications are automatically applied proportionally to all</text>
  <text style="stroke:none;fill:black;font-family:sans-serif;font-size:13;" transform="matrix(1 0 0 1 776 2025)">scales and weights.</text>
  <g transform="matrix(0.2 0 0 0.2 1289 1933)">
   <path d="m14.209 9.32617 8.49609 8.54492c4.29688 4.3457 9.22852 4.05273 13.8672-1.07422l53.4668-58.9355-4.83398-4.88281-53.0762 58.3984c-1.75781 2.00195-3.41797 2.49023-5.76172 0.146484l-5.85938-5.81055c-2.34375-2.29492-1.80664-4.00391 0.195312-5.81055l57.373-54.0039-4.88281-4.83398-57.959 54.4434c-4.93164 4.58984-5.32227 9.47266-1.02539 13.8184Zm32.0801-90.9668c-2.09961 2.05078-2.24609 4.93164-1.07422 6.88477 1.17188 1.80664 3.4668 2.97852 6.68945 2.14844 7.32422-1.70898 14.9414-2.00195 22.0703 2.68555l-2.92969 7.27539c-1.70898 4.15039-0.830078 7.08008 1.85547 9.81445l11.4746 11.5723c2.44141 2.44141 4.49219 2.53906 7.32422 2.05078l5.32227-0.976562 3.32031 3.36914-0.195312 2.7832c-0.195312 2.49023 0.439453 4.39453 2.88086 6.78711l3.80859 3.71094c2.39258 2.39258 5.46875 2.53906 7.8125 0.195312l14.5508-14.5996c2.34375-2.34375 2.24609-5.32227-0.146484-7.71484l-3.85742-3.80859c-2.39258-2.39258-4.24805-3.17383-6.64062-2.97852l-2.88086 0.244141-3.22266-3.17383 1.2207-5.61523c0.634766-2.83203-0.146484-5.0293-3.07617-7.95898l-10.9863-10.9375c-16.6992-16.6016-38.8672-16.2109-53.3203-1.75781Zm7.4707 1.85547c12.1582-8.88672 28.6133-7.37305 39.7461 3.75977l12.1582 12.0605c1.17188 1.17188 1.36719 2.09961 1.02539 3.80859l-1.61133 7.42188 7.51953 7.42188 4.93164-0.292969c1.26953-0.0488281 1.66016 0.0488281 2.63672 1.02539l2.88086 2.88086-12.207 12.207-2.88086-2.88086c-0.976562-0.976562-1.12305-1.36719-1.07422-2.68555l0.341797-4.88281-7.4707-7.42188-7.61719 1.26953c-1.61133 0.341797-2.34375 0.195312-3.56445-0.976562l-10.0098-10.0098c-1.26953-1.17188-1.41602-2.00195-0.634766-3.85742l4.39453-10.4492c-7.8125-7.27539-17.9688-10.4004-28.125-7.42188-0.78125 0.195312-1.07422-0.439453-0.439453-0.976562Z"/>
  </g>
  <text style="stroke:none;fill:black;font-family:sans-serif;font-size:13;font-weight:bold;" transform="matrix(1 0 0 1 1289 1953)">Exporting</text>
  <text style="stroke:none;fill:black;font-family:sans-serif;font-size:13;" transform="matrix(1 0 0 1 1289 1971)">Symbols should be outlined when exporting to ensure the</text>
  <text style="stroke:none;fill:black;font-family:sans-serif;font-size:13;" transform="matrix(1 0 0 1 1289 1989)">design is preserved when submitting to Xcode.</text>
  <text id="template-version" style="stroke:none;fill:black;font-family:sans-serif;font-size:13;text-anchor:end;" transform="matrix(1 0 0 1 3036 1933)">Template v.6.0</text>
  <text style="stroke:none;fill:black;font-family:sans-serif;font-size:13;text-anchor:end;" transform="matrix(1 0 0 1 3036 1951)">Requires Xcode 16 or greater</text>
  <text id="descriptive-name" style="stroke:none;fill:black;font-family:sans-serif;font-size:13;text-anchor:end;" transform="matrix(1 0 0 1 3036 1969)">Generated from square</text>
  <text style="stroke:none;fill:black;font-family:sans-serif;font-size:13;text-anchor:end;" transform="matrix(1 0 0 1 3036 1987)">Typeset at 100.0 points</text>
  <text style="stroke:none;fill:black;font-family:sans-serif;font-size:13;" transform="matrix(1 0 0 1 263 726)">Small</text>
  <text style="stroke:none;fill:black;font-family:sans-serif;font-size:13;" transform="matrix(1 0 0 1 263 1156)">Medium</text>
  <text style="stroke:none;fill:black;font-family:sans-serif;font-size:13;" transform="matrix(1 0 0 1 263 1586)">Large</text>
 </g>
 <g id="Guides">
  <g id="H-reference" style="fill:#27AAE1;stroke:none;" transform="matrix(1 0 0 1 339 696)">
   <path d="M0.993654 0L3.63775 0L29.3281-67.1323L30.0303-67.1323L30.0303-70.459L28.1226-70.459ZM11.6885-24.4799L46.9815-24.4799L46.2315-26.7285L12.4385-26.7285ZM55.1196 0L57.7637 0L30.6382-70.459L29.4326-70.459L29.4326-67.1323Z"/>
  </g>
  <line id="Baseline-S" style="fill:none;stroke:#27AAE1;opacity:1;stroke-width:0.5;" x1="263" x2="3036" y1="696" y2="696"/>
  <line id="Capline-S" style="fill:none;stroke:#27AAE1;opacity:1;stroke-width:0.5;" x1="263" x2="3036" y1="625.541" y2="625.541"/>
  <g id="H-reference" style="fill:#27AAE1;stroke:none;" transform="matrix(1 0 0 1 339 1126)">
   <path d="M0.993654 0L3.63775 0L29.3281-67.1323L30.0303-67.1323L30.0303-70.459L28.1226-70.459ZM11.6885-24.4799L46.9815-24.4799L46.2315-26.7285L12.4385-26.7285ZM55.1196 0L57.7637 0L30.6382-70.459L29.4326-70.459L29.4326-67.1323Z"/>
  </g>
  <line id="Baseline-M" style="fill:none;stroke:#27AAE1;opacity:1;stroke-width:0.5;" x1="263" x2="3036" y1="1126" y2="1126"/>
  <line id="Capline-M" style="fill:none;stroke:#27AAE1;opacity:1;stroke-width:0.5;" x1="263" x2="3036" y1="1055.54" y2="1055.54"/>
  <g id="H-reference" style="fill:#27AAE1;stroke:none;" transform="matrix(1 0 0 1 339 1556)">
   <path d="M0.993654 0L3.63775 0L29.3281-67.1323L30.0303-67.1323L30.0303-70.459L28.1226-70.459ZM11.6885-24.4799L46.9815-24.4799L46.2315-26.7285L12.4385-26.7285ZM55.1196 0L57.7637 0L30.6382-70.459L29.4326-70.459L29.4326-67.1323Z"/>
  </g>
  <line id="Baseline-L" style="fill:none;stroke:#27AAE1;opacity:1;stroke-width:0.5;" x1="263" x2="3036" y1="1556" y2="1556"/>
  <line id="Capline-L" style="fill:none;stroke:#27AAE1;opacity:1;stroke-width:0.5;" x1="263" x2="3036" y1="1485.54" y2="1485.54"/>
  <line id="right-margin-Black-S" style="fill:none;stroke:#00AEEF;stroke-width:0.5;opacity:1.0;" x1="2981.3" x2="2981.3" y1="600.785" y2="720.121"/>
  <line id="left-margin-Black-S" style="fill:none;stroke:#00AEEF;stroke-width:0.5;opacity:1.0;" x1="2885.5" x2="2885.5" y1="600.785" y2="720.121"/>
  <line id="right-margin-Regular-S" style="fill:none;stroke:#00AEEF;stroke-width:0.5;opacity:1.0;" x1="1495.18" x2="1495.18" y1="600.785" y2="720.121"/>
  <line id="left-margin-Regular-S" style="fill:none;stroke:#00AEEF;stroke-width:0.5;opacity:1.0;" x1="1404.51" x2="1404.51" y1="600.785" y2="720.121"/>
  <line id="right-margin-Ultralight-S" style="fill:none;stroke:#00AEEF;stroke-width:0.5;opacity:1.0;" x1="603.073" x2="603.073" y1="600.785" y2="720.121"/>
  <line id="left-margin-Ultralight-S" style="fill:none;stroke:#00AEEF;stroke-width:0.5;opacity:1.0;" x1="516.35" x2="516.35" y1="600.785" y2="720.121"/>
 </g>
 <g id="Symbols">
  <g id="Black-S"><path d="M2932.69743,633.11387c-1.28588,0.52257 -5.83048,2.65396 -8.46976,3.97506c-7.45984,3.73139 -14.11528,7.63893 -20.84118,12.23931c-2.1901,1.50019 -2.49542,1.80258 -2.68331,2.69506c-0.20551,0.96294 0.54899,2.09909 1.60881,2.4279c0.33762,0.10569 1.77909,0.53725 3.20001,0.96294c1.42092,0.42275 2.62166,0.80734 2.67157,0.85725c0.04697,0.04697 0.01174,0.71927 -0.0822,1.49138c-0.41101,3.37029 -0.81028,8.68994 -0.99523,13.25803c-0.11156,2.75964 -0.03523,3.29396 0.55486,3.85763c0.27303,0.26422 2.85652,1.48845 5.92443,2.80955c0.30826,0.13211 0.5578,0.29064 0.5578,0.35523c0,0.17908 -1.11854,1.96698 -1.61175,2.57175c-0.24367,0.29945 -0.74569,0.90422 -1.11266,1.33872c-0.51964,0.61358 -0.68991,0.9101 -0.75156,1.31523c-0.28477,1.89946 1.7967,3.24405 3.36735,2.17249c0.9512,-0.64587 3.52295,-4.03965 3.9868,-5.26387c0.09982,-0.26129 0.13505,-0.24954 1.89946,0.67523c3.40552,1.7879 8.14388,4.58277 11.46133,6.767c1.52074,1.0011 2.31927,1.09505 3.41139,0.4022c0.30239,-0.19083 1.30936,-0.83376 2.24001,-1.43267c6.21507,-3.98974 12.90867,-7.5215 20.50063,-10.81839c2.19597,-0.9512 2.3046,-1.1978 2.16368,-4.80295c-0.17615,-4.44479 -0.69578,-11.23821 -1.05688,-13.78941c-0.06165,-0.44918 -0.07339,-0.85138 -0.02349,-0.89542c0.12624,-0.1145 1.22716,-0.46385 3.80185,-1.21248c1.1978,-0.34936 2.34276,-0.71927 2.53946,-0.81909c0.48734,-0.25248 0.93652,-0.81321 1.10679,-1.38276c0.16147,-0.54019 0.01468,-1.31817 -0.34349,-1.81432c-0.35229,-0.49321 -6.3325,-4.48589 -10.47784,-6.99893c-5.66314,-3.43194 -12.55931,-7.07232 -18.5542,-9.7938c-2.04331,-0.92771 -2.64808,-1.15377 -3.17065,-1.18312c-0.35523,-0.01761 -0.72514,-0.00294 -0.82202,0.03523M2934.36496,638.04306c4.8558,2.11964 12.3861,6.05947 17.88484,9.35343c2.55707,1.53248 6.55269,4.08369 6.49103,4.1424c-0.02055,0.02055 -0.96294,0.33762 -2.09028,0.70459c-6.62608,2.149 -12.9439,4.72662 -19.58173,7.98242l-3.67267,1.80258l-3.13836,-1.5501c-1.72625,-0.85432 -3.88992,-1.89359 -4.81176,-2.3046c-0.92184,-0.41395 -1.6734,-0.78386 -1.67047,-0.81909c0.00587,-0.14679 5.10534,-2.90937 8.58132,-4.65323c2.58643,-1.29468 2.92992,-1.55891 3.17065,-2.43671c0.25835,-0.94239 -0.26422,-2.06973 -1.15083,-2.49249c-0.83964,-0.4022 -1.40037,-0.29358 -3.30864,0.64294c-3.36148,1.65285 -8.20554,4.28038 -11.20591,6.07709l-1.26826,0.76037l-2.43083,-0.90716c-1.33578,-0.49908 -3.6991,-1.32698 -5.24919,-1.84074c-1.5501,-0.51376 -2.83304,-0.94826 -2.85359,-0.96588c-0.01761,-0.02055 0.61652,-0.45798 1.40918,-0.97175c5.21103,-3.38497 10.62169,-6.47635 16.56373,-9.45912c2.47194,-1.24184 7.11636,-3.44955 7.33361,-3.48772c0.01174,0 0.46092,0.18789 0.99817,0.42275M2914.34874,658.36754l1.43854,0.53138v1.98753v1.99047l-0.7134,0.66055c-0.83376,0.77211 -1.21835,1.46496 -1.40331,2.52478c-0.15266,0.88367 -0.02349,1.83193 0.3611,2.62753c0.29651,0.61064 1.03046,1.45909 1.46496,1.69102l0.32294,0.17321l-0.07633,1.25945c-0.0411,0.68991 -0.10862,1.40918 -0.14385,1.59707l-0.07046,0.34349l-1.72037,-0.78973c-0.94532,-0.4345 -1.84074,-0.82789 -1.98459,-0.87193c-0.24954,-0.07927 -0.26422,-0.14385 -0.26422,-1.20367c0,-1.42386 0.28771,-5.92736 0.58716,-9.19783c0.37872,-4.13066 0.3611,-4.01616 0.57542,-3.92809c0.10275,0.0411 0.83376,0.31413 1.62643,0.60477M2954.34889,658.43213c0.44037,4.19525 0.89542,10.50132 0.89542,12.43601c0,1.08037 -0.01468,1.14496 -0.26422,1.22422c-0.57542,0.18202 -4.5358,2.0345 -7.36884,3.44955c-4.3802,2.1901 -7.83856,4.13066 -12.0661,6.77581l-2.14313,1.34166l-2.14313,-1.34166c-3.47598,-2.17542 -7.28957,-4.35671 -10.28408,-5.88626c-1.2712,-0.64881 -1.32698,-0.69285 -1.25358,-0.98643c0.17615,-0.69285 0.30532,-1.68514 0.41688,-3.22643c0.12037,-1.62056 0.12037,-1.62643 0.49028,-1.93762c1.29175,-1.08331 1.80258,-2.21359 1.71157,-3.77836c-0.07046,-1.20661 -0.46973,-2.04918 -1.38569,-2.93286l-0.70459,-0.67817v-1.07156c0,-0.58716 0.02936,-1.06863 0.06165,-1.06863c0.23486,0 5.36075,2.37505 8.66939,4.01616c3.05029,1.51487 4.08075,1.97285 4.42424,1.97285c0.34349,0 1.28588,-0.41688 4.00735,-1.77322c5.78351,-2.88588 9.64114,-4.57103 15.65951,-6.84626c0.58129,-0.22018 1.08918,-0.40514 1.12734,-0.41101c0.0411,-0.00587 0.10569,0.32 0.14973,0.7222" className="SFSymbolsPreviewWireframe"/></g>
  <g id="Regular-S"><path d="M1449.14238,633.11387c-1.28588,0.52257 -5.83048,2.65396 -8.46976,3.97506c-7.45984,3.73139 -14.11528,7.63893 -20.84118,12.23931c-2.1901,1.50019 -2.49542,1.80258 -2.68331,2.69506c-0.20551,0.96294 0.54899,2.09909 1.60881,2.4279c0.33762,0.10569 1.77909,0.53725 3.20001,0.96294c1.42092,0.42275 2.62166,0.80734 2.67157,0.85725c0.04697,0.04697 0.01174,0.71927 -0.0822,1.49138c-0.41101,3.37029 -0.81028,8.68994 -0.99523,13.25803c-0.11156,2.75964 -0.03523,3.29396 0.55486,3.85763c0.27303,0.26422 2.85652,1.48845 5.92443,2.80955c0.30826,0.13211 0.5578,0.29064 0.5578,0.35523c0,0.17908 -1.11854,1.96698 -1.61175,2.57175c-0.24367,0.29945 -0.74569,0.90422 -1.11266,1.33872c-0.51964,0.61358 -0.68991,0.9101 -0.75156,1.31523c-0.28477,1.89946 1.7967,3.24405 3.36735,2.17249c0.9512,-0.64587 3.52295,-4.03965 3.9868,-5.26387c0.09982,-0.26129 0.13505,-0.24954 1.89946,0.67523c3.40552,1.7879 8.14388,4.58277 11.46133,6.767c1.52074,1.0011 2.31927,1.09505 3.41139,0.4022c0.30239,-0.19083 1.30936,-0.83376 2.24001,-1.43267c6.21507,-3.98974 12.90867,-7.5215 20.50063,-10.81839c2.19597,-0.9512 2.3046,-1.1978 2.16368,-4.80295c-0.17615,-4.44479 -0.69578,-11.23821 -1.05688,-13.78941c-0.06165,-0.44918 -0.07339,-0.85138 -0.02349,-0.89542c0.12624,-0.1145 1.22716,-0.46385 3.80185,-1.21248c1.1978,-0.34936 2.34276,-0.71927 2.53946,-0.81909c0.48734,-0.25248 0.93652,-0.81321 1.10679,-1.38276c0.16147,-0.54019 0.01468,-1.31817 -0.34349,-1.81432c-0.35229,-0.49321 -6.3325,-4.48589 -10.47784,-6.99893c-5.66314,-3.43194 -12.55931,-7.07232 -18.5542,-9.7938c-2.04331,-0.92771 -2.64808,-1.15377 -3.17065,-1.18312c-0.35523,-0.01761 -0.72514,-0.00294 -0.82202,0.03523M1450.80991,638.04306c4.8558,2.11964 12.3861,6.05947 17.88484,9.35343c2.55707,1.53248 6.55269,4.08369 6.49103,4.1424c-0.02055,0.02055 -0.96294,0.33762 -2.09028,0.70459c-6.62608,2.149 -12.9439,4.72662 -19.58173,7.98242l-3.67267,1.80258l-3.13836,-1.5501c-1.72625,-0.85432 -3.88992,-1.89359 -4.81176,-2.3046c-0.92184,-0.41395 -1.6734,-0.78386 -1.67047,-0.81909c0.00587,-0.14679 5.10534,-2.90937 8.58132,-4.65323c2.58643,-1.29468 2.92992,-1.55891 3.17065,-2.43671c0.25835,-0.94239 -0.26422,-2.06973 -1.15083,-2.49249c-0.83964,-0.4022 -1.40037,-0.29358 -3.30864,0.64294c-3.36148,1.65285 -8.20554,4.28038 -11.20591,6.07709l-1.26826,0.76037l-2.43083,-0.90716c-1.33578,-0.49908 -3.6991,-1.32698 -5.24919,-1.84074c-1.5501,-0.51376 -2.83304,-0.94826 -2.85359,-0.96588c-0.01761,-0.02055 0.61652,-0.45798 1.40918,-0.97175c5.21103,-3.38497 10.62169,-6.47635 16.56373,-9.45912c2.47194,-1.24184 7.11636,-3.44955 7.33361,-3.48772c0.01174,0 0.46092,0.18789 0.99817,0.42275M1430.79369,658.36754l1.43854,0.53138v1.98753v1.99047l-0.7134,0.66055c-0.83376,0.77211 -1.21835,1.46496 -1.40331,2.52478c-0.15266,0.88367 -0.02349,1.83193 0.3611,2.62753c0.29651,0.61064 1.03046,1.45909 1.46496,1.69102l0.32294,0.17321l-0.07633,1.25945c-0.0411,0.68991 -0.10862,1.40918 -0.14385,1.59707l-0.07046,0.34349l-1.72037,-0.78973c-0.94532,-0.4345 -1.84074,-0.82789 -1.98459,-0.87193c-0.24954,-0.07927 -0.26422,-0.14385 -0.26422,-1.20367c0,-1.42386 0.28771,-5.92736 0.58716,-9.19783c0.37872,-4.13066 0.3611,-4.01616 0.57542,-3.92809c0.10275,0.0411 0.83376,0.31413 1.62643,0.60477M1470.79384,658.43213c0.44037,4.19525 0.89542,10.50132 0.89542,12.43601c0,1.08037 -0.01468,1.14496 -0.26422,1.22422c-0.57542,0.18202 -4.5358,2.0345 -7.36884,3.44955c-4.3802,2.1901 -7.83856,4.13066 -12.0661,6.77581l-2.14313,1.34166l-2.14313,-1.34166c-3.47598,-2.17542 -7.28957,-4.35671 -10.28408,-5.88626c-1.2712,-0.64881 -1.32698,-0.69285 -1.25358,-0.98643c0.17615,-0.69285 0.30532,-1.68514 0.41688,-3.22643c0.12037,-1.62056 0.12037,-1.62643 0.49028,-1.93762c1.29175,-1.08331 1.80258,-2.21359 1.71157,-3.77836c-0.07046,-1.20661 -0.46973,-2.04918 -1.38569,-2.93286l-0.70459,-0.67817v-1.07156c0,-0.58716 0.02936,-1.06863 0.06165,-1.06863c0.23486,0 5.36075,2.37505 8.66939,4.01616c3.05029,1.51487 4.08075,1.97285 4.42424,1.97285c0.34349,0 1.28588,-0.41688 4.00735,-1.77322c5.78351,-2.88588 9.64114,-4.57103 15.65951,-6.84626c0.58129,-0.22018 1.08918,-0.40514 1.12734,-0.41101c0.0411,-0.00587 0.10569,0.32 0.14973,0.7222" className="SFSymbolsPreviewWireframe"/></g>
  <g id="Ultralight-S"><path d="M559.00879,633.11387c-1.28588,0.52257 -5.83048,2.65396 -8.46976,3.97506c-7.45984,3.73139 -14.11528,7.63893 -20.84118,12.23931c-2.1901,1.50019 -2.49542,1.80258 -2.68331,2.69506c-0.20551,0.96294 0.54899,2.09909 1.60881,2.4279c0.33762,0.10569 1.77909,0.53725 3.20001,0.96294c1.42092,0.42275 2.62166,0.80734 2.67157,0.85725c0.04697,0.04697 0.01174,0.71927 -0.0822,1.49138c-0.41101,3.37029 -0.81028,8.68994 -0.99523,13.25803c-0.11156,2.75964 -0.03523,3.29396 0.55486,3.85763c0.27303,0.26422 2.85652,1.48845 5.92443,2.80955c0.30826,0.13211 0.5578,0.29064 0.5578,0.35523c0,0.17908 -1.11854,1.96698 -1.61175,2.57175c-0.24367,0.29945 -0.74569,0.90422 -1.11266,1.33872c-0.51964,0.61358 -0.68991,0.9101 -0.75156,1.31523c-0.28477,1.89946 1.7967,3.24405 3.36735,2.17249c0.9512,-0.64587 3.52295,-4.03965 3.9868,-5.26387c0.09982,-0.26129 0.13505,-0.24954 1.89946,0.67523c3.40552,1.7879 8.14388,4.58277 11.46133,6.767c1.52074,1.0011 2.31927,1.09505 3.41139,0.4022c0.30239,-0.19083 1.30936,-0.83376 2.24001,-1.43267c6.21507,-3.98974 12.90867,-7.5215 20.50063,-10.81839c2.19597,-0.9512 2.3046,-1.1978 2.16368,-4.80295c-0.17615,-4.44479 -0.69578,-11.23821 -1.05688,-13.78941c-0.06165,-0.44918 -0.07339,-0.85138 -0.02349,-0.89542c0.12624,-0.1145 1.22716,-0.46385 3.80185,-1.21248c1.1978,-0.34936 2.34276,-0.71927 2.53946,-0.81909c0.48734,-0.25248 0.93652,-0.81321 1.10679,-1.38276c0.16147,-0.54019 0.01468,-1.31817 -0.34349,-1.81432c-0.35229,-0.49321 -6.3325,-4.48589 -10.47784,-6.99893c-5.66314,-3.43194 -12.55931,-7.07232 -18.5542,-9.7938c-2.04331,-0.92771 -2.64808,-1.15377 -3.17065,-1.18312c-0.35523,-0.01761 -0.72514,-0.00294 -0.82202,0.03523M560.67632,638.04306c4.8558,2.11964 12.3861,6.05947 17.88484,9.35343c2.55707,1.53248 6.55269,4.08369 6.49103,4.1424c-0.02055,0.02055 -0.96294,0.33762 -2.09028,0.70459c-6.62608,2.149 -12.9439,4.72662 -19.58173,7.98242l-3.67267,1.80258l-3.13836,-1.5501c-1.72625,-0.85432 -3.88992,-1.89359 -4.81176,-2.3046c-0.92184,-0.41395 -1.6734,-0.78386 -1.67047,-0.81909c0.00587,-0.14679 5.10534,-2.90937 8.58132,-4.65323c2.58643,-1.29468 2.92992,-1.55891 3.17065,-2.43671c0.25835,-0.94239 -0.26422,-2.06973 -1.15083,-2.49249c-0.83964,-0.4022 -1.40037,-0.29358 -3.30864,0.64294c-3.36148,1.65285 -8.20554,4.28038 -11.20591,6.07709l-1.26826,0.76037l-2.43083,-0.90716c-1.33578,-0.49908 -3.6991,-1.32698 -5.24919,-1.84074c-1.5501,-0.51376 -2.83304,-0.94826 -2.85359,-0.96588c-0.01761,-0.02055 0.61652,-0.45798 1.40918,-0.97175c5.21103,-3.38497 10.62169,-6.47635 16.56373,-9.45912c2.47194,-1.24184 7.11636,-3.44955 7.33361,-3.48772c0.01174,0 0.46092,0.18789 0.99817,0.42275M540.6601,658.36754l1.43854,0.53138v1.98753v1.99047l-0.7134,0.66055c-0.83376,0.77211 -1.21835,1.46496 -1.40331,2.52478c-0.15266,0.88367 -0.02349,1.83193 0.3611,2.62753c0.29651,0.61064 1.03046,1.45909 1.46496,1.69102l0.32294,0.17321l-0.07633,1.25945c-0.0411,0.68991 -0.10862,1.40918 -0.14385,1.59707l-0.07046,0.34349l-1.72037,-0.78973c-0.94532,-0.4345 -1.84074,-0.82789 -1.98459,-0.87193c-0.24954,-0.07927 -0.26422,-0.14385 -0.26422,-1.20367c0,-1.42386 0.28771,-5.92736 0.58716,-9.19783c0.37872,-4.13066 0.3611,-4.01616 0.57542,-3.92809c0.10275,0.0411 0.83376,0.31413 1.62643,0.60477M580.66025,658.43213c0.44037,4.19525 0.89542,10.50132 0.89542,12.43601c0,1.08037 -0.01468,1.14496 -0.26422,1.22422c-0.57542,0.18202 -4.5358,2.0345 -7.36884,3.44955c-4.3802,2.1901 -7.83856,4.13066 -12.0661,6.77581l-2.14313,1.34166l-2.14313,-1.34166c-3.47598,-2.17542 -7.28957,-4.35671 -10.28408,-5.88626c-1.2712,-0.64881 -1.32698,-0.69285 -1.25358,-0.98643c0.17615,-0.69285 0.30532,-1.68514 0.41688,-3.22643c0.12037,-1.62056 0.12037,-1.62643 0.49028,-1.93762c1.29175,-1.08331 1.80258,-2.21359 1.71157,-3.77836c-0.07046,-1.20661 -0.46973,-2.04918 -1.38569,-2.93286l-0.70459,-0.67817v-1.07156c0,-0.58716 0.02936,-1.06863 0.06165,-1.06863c0.23486,0 5.36075,2.37505 8.66939,4.01616c3.05029,1.51487 4.08075,1.97285 4.42424,1.97285c0.34349,0 1.28588,-0.41688 4.00735,-1.77322c5.78351,-2.88588 9.64114,-4.57103 15.65951,-6.84626c0.58129,-0.22018 1.08918,-0.40514 1.12734,-0.41101c0.0411,-0.00587 0.10569,0.32 0.14973,0.7222" className="SFSymbolsPreviewWireframe"/></g>
 </g>
</svg>