<?xml version="1.0" encoding="UTF-8"?><!--Generator: https://SymbolKit.app--><!DOCTYPE svg PUBLIC "-//W3C//DTD SVG 1.1//EN" "http://www.w3.org/Graphics/SVG/1.1/DTD/svg11.dtd"><svg xmlns="http://www.w3.org/2000/svg" xmlns:xlink="http://www.w3.org/1999/xlink" version="1.1" viewBox="0 0 3300 2200">
 <!--glyph: "100092", point size: 100.0, font version: "20.0d10e1", template writer version: "138.0.0"-->
 <style>.SFSymbolsPreviewWireframe {fill:none;opacity:1.0;stroke:black;stroke-width:0.5}
</style>
 <g id="Notes">
  <rect height="2200" id="artboard" style="fill:white;opacity:1" width="3300" x="0" y="0"/>
  <line style="fill:none;stroke:black;opacity:1;stroke-width:0.5;" x1="263" x2="3036" y1="292" y2="292"/>
  <text style="stroke:none;fill:black;font-family:sans-serif;font-size:13;font-weight:bold;" transform="matrix(1 0 0 1 263 322)">Weight/Scale Variations</text>
  <text style="stroke:none;fill:black;font-family:sans-serif;font-size:13;text-anchor:middle;" transform="matrix(1 0 0 1 559.711 322)">Ultralight</text>
  <text style="stroke:none;fill:black;font-family:sans-serif;font-size:13;text-anchor:middle;" transform="matrix(1 0 0 1 856.422 322)">Thin</text>
  <text style="stroke:none;fill:black;font-family:sans-serif;font-size:13;text-anchor:middle;" transform="matrix(1 0 0 1 1153.13 322)">Light</text>
  <text style="stroke:none;fill:black;font-family:sans-serif;font-size:13;text-anchor:middle;" transform="matrix(1 0 0 1 1449.84 322)">Regular</text>
  <text style="stroke:none;fill:black;font-family:sans-serif;font-size:13;text-anchor:middle;" transform="matrix(1 0 0 1 1746.56 322)">Medium</text>
  <text style="stroke:none;fill:black;font-family:sans-serif;font-size:13;text-anchor:middle;" transform="matrix(1 0 0 1 2043.27 322)">Semibold</text>
  <text style="stroke:none;fill:black;font-family:sans-serif;font-size:13;text-anchor:middle;" transform="matrix(1 0 0 1 2339.98 322)">Bold</text>
  <text style="stroke:none;fill:black;font-family:sans-serif;font-size:13;text-anchor:middle;" transform="matrix(1 0 0 1 2636.69 322)">Heavy</text>
  <text style="stroke:none;fill:black;font-family:sans-serif;font-size:13;text-anchor:middle;" transform="matrix(1 0 0 1 2933.4 322)">Black</text>
  <line style="fill:none;stroke:black;opacity:1;stroke-width:0.5;" x1="263" x2="3036" y1="1903" y2="1903"/>
  <g transform="matrix(0.2 0 0 0.2 263 1933)">
   <path d="m46.2402 4.15039c21.7773 0 39.4531-17.627 39.4531-39.4043s-17.6758-39.4043-39.4531-39.4043c-21.7285 0-39.4043 17.627-39.4043 39.4043s17.6758 39.4043 39.4043 39.4043Zm0-7.42188c-17.6758 0-31.9336-14.3066-31.9336-31.9824s14.2578-31.9824 31.9336-31.9824 31.9824 14.3066 31.9824 31.9824-14.3066 31.9824-31.9824 31.9824Zm-17.9688-31.9824c0 2.14844 1.51367 3.61328 3.75977 3.61328h10.498v10.5957c0 2.19727 1.46484 3.71094 3.61328 3.71094 2.24609 0 3.71094-1.51367 3.71094-3.71094v-10.5957h10.5957c2.19727 0 3.71094-1.46484 3.71094-3.61328 0-2.19727-1.51367-3.71094-3.71094-3.71094h-10.5957v-10.5469c0-2.24609-1.46484-3.75977-3.71094-3.75977-2.14844 0-3.61328 1.51367-3.61328 3.75977v10.5469h-10.498c-2.24609 0-3.75977 1.51367-3.75977 3.71094Z"/>
  </g>
  <g transform="matrix(0.2 0 0 0.2 281.506 1933)">
   <path d="m58.5449 14.5508c27.4902 0 49.8047-22.3145 49.8047-49.8047s-22.3145-49.8047-49.8047-49.8047-49.8047 22.3145-49.8047 49.8047 22.3145 49.8047 49.8047 49.8047Zm0-8.30078c-22.9492 0-41.5039-18.5547-41.5039-41.5039s18.5547-41.5039 41.5039-41.5039 41.5039 18.5547 41.5039 41.5039-18.5547 41.5039-41.5039 41.5039Zm-22.6562-41.5039c0 2.39258 1.66016 4.00391 4.15039 4.00391h14.3555v14.4043c0 2.44141 1.66016 4.15039 4.05273 4.15039 2.44141 0 4.15039-1.66016 4.15039-4.15039v-14.4043h14.4043c2.44141 0 4.15039-1.61133 4.15039-4.00391 0-2.44141-1.70898-4.15039-4.15039-4.15039h-14.4043v-14.3555c0-2.49023-1.70898-4.19922-4.15039-4.19922-2.39258 0-4.05273 1.70898-4.05273 4.19922v14.3555h-14.3555c-2.49023 0-4.15039 1.70898-4.15039 4.15039Z"/>
  </g>
  <g transform="matrix(0.2 0 0 0.2 304.924 1933)">
   <path d="m74.8535 28.3203c35.1074 0 63.623-28.4668 63.623-63.5742s-28.5156-63.623-63.623-63.623-63.5742 28.5156-63.5742 63.623 28.4668 63.5742 63.5742 63.5742Zm0-9.08203c-30.127 0-54.4922-24.3652-54.4922-54.4922s24.3652-54.4922 54.4922-54.4922 54.4922 24.3652 54.4922 54.4922-24.3652 54.4922-54.4922 54.4922Zm-28.8574-54.4922c0 2.58789 1.85547 4.39453 4.58984 4.39453h19.7266v19.7754c0 2.68555 1.85547 4.58984 4.44336 4.58984 2.68555 0 4.54102-1.85547 4.54102-4.58984v-19.7754h19.7754c2.68555 0 4.58984-1.80664 4.58984-4.39453 0-2.73438-1.85547-4.58984-4.58984-4.58984h-19.7754v-19.7266c0-2.73438-1.85547-4.63867-4.54102-4.63867-2.58789 0-4.44336 1.9043-4.44336 4.63867v19.7266h-19.7266c-2.73438 0-4.58984 1.85547-4.58984 4.58984Z"/>
  </g>
  <text style="stroke:none;fill:black;font-family:sans-serif;font-size:13;font-weight:bold;" transform="matrix(1 0 0 1 263 1953)">Design Variations</text>
  <text style="stroke:none;fill:black;font-family:sans-serif;font-size:13;" transform="matrix(1 0 0 1 263 1971)">Symbols are supported in up to nine weights and three scales.</text>
  <text style="stroke:none;fill:black;font-family:sans-serif;font-size:13;" transform="matrix(1 0 0 1 263 1989)">For optimal layout with text and other symbols, vertically align</text>
  <text style="stroke:none;fill:black;font-family:sans-serif;font-size:13;" transform="matrix(1 0 0 1 263 2007)">symbols with the adjacent text.</text>
  <line style="fill:none;stroke:#00AEEF;stroke-width:0.5;opacity:1.0;" x1="776" x2="776" y1="1919" y2="1933"/>
  <g transform="matrix(0.2 0 0 0.2 776 1933)">
   <path d="m16.5527 0.78125c2.58789 0 3.85742-0.976562 4.78516-3.71094l6.29883-17.2363h28.8086l6.29883 17.2363c0.927734 2.73438 2.19727 3.71094 4.73633 3.71094 2.58789 0 4.24805-1.5625 4.24805-4.00391 0-0.830078-0.146484-1.61133-0.537109-2.63672l-22.9004-60.9863c-1.12305-2.97852-3.125-4.49219-6.25-4.49219-3.02734 0-5.07812 1.46484-6.15234 4.44336l-22.9004 61.084c-0.390625 1.02539-0.537109 1.80664-0.537109 2.63672 0 2.44141 1.5625 3.95508 4.10156 3.95508Zm13.4766-28.3691 11.8652-32.8613h0.244141l11.8652 32.8613Z"/>
  </g>
  <line style="fill:none;stroke:#00AEEF;stroke-width:0.5;opacity:1.0;" x1="792.836" x2="792.836" y1="1919" y2="1933"/>
  <text style="stroke:none;fill:black;font-family:sans-serif;font-size:13;font-weight:bold;" transform="matrix(1 0 0 1 776 1953)">Margins</text>
  <text style="stroke:none;fill:black;font-family:sans-serif;font-size:13;" transform="matrix(1 0 0 1 776 1971)">Leading and trailing margins on the left and right side of each symbol</text>
  <text style="stroke:none;fill:black;font-family:sans-serif;font-size:13;" transform="matrix(1 0 0 1 776 1989)">can be adjusted by modifying the x-location of the margin guidelines.</text>
  <text style="stroke:none;fill:black;font-family:sans-serif;font-size:13;" transform="matrix(1 0 0 1 776 2007)">Modifications are automatically applied proportionally to all</text>
  <text style="stroke:none;fill:black;font-family:sans-serif;font-size:13;" transform="matrix(1 0 0 1 776 2025)">scales and weights.</text>
  <g transform="matrix(0.2 0 0 0.2 1289 1933)">
   <path d="m14.209 9.32617 8.49609 8.54492c4.29688 4.3457 9.22852 4.05273 13.8672-1.07422l53.4668-58.9355-4.83398-4.88281-53.0762 58.3984c-1.75781 2.00195-3.41797 2.49023-5.76172 0.146484l-5.85938-5.81055c-2.34375-2.29492-1.80664-4.00391 0.195312-5.81055l57.373-54.0039-4.88281-4.83398-57.959 54.4434c-4.93164 4.58984-5.32227 9.47266-1.02539 13.8184Zm32.0801-90.9668c-2.09961 2.05078-2.24609 4.93164-1.07422 6.88477 1.17188 1.80664 3.4668 2.97852 6.68945 2.14844 7.32422-1.70898 14.9414-2.00195 22.0703 2.68555l-2.92969 7.27539c-1.70898 4.15039-0.830078 7.08008 1.85547 9.81445l11.4746 11.5723c2.44141 2.44141 4.49219 2.53906 7.32422 2.05078l5.32227-0.976562 3.32031 3.36914-0.195312 2.7832c-0.195312 2.49023 0.439453 4.39453 2.88086 6.78711l3.80859 3.71094c2.39258 2.39258 5.46875 2.53906 7.8125 0.195312l14.5508-14.5996c2.34375-2.34375 2.24609-5.32227-0.146484-7.71484l-3.85742-3.80859c-2.39258-2.39258-4.24805-3.17383-6.64062-2.97852l-2.88086 0.244141-3.22266-3.17383 1.2207-5.61523c0.634766-2.83203-0.146484-5.0293-3.07617-7.95898l-10.9863-10.9375c-16.6992-16.6016-38.8672-16.2109-53.3203-1.75781Zm7.4707 1.85547c12.1582-8.88672 28.6133-7.37305 39.7461 3.75977l12.1582 12.0605c1.17188 1.17188 1.36719 2.09961 1.02539 3.80859l-1.61133 7.42188 7.51953 7.42188 4.93164-0.292969c1.26953-0.0488281 1.66016 0.0488281 2.63672 1.02539l2.88086 2.88086-12.207 12.207-2.88086-2.88086c-0.976562-0.976562-1.12305-1.36719-1.07422-2.68555l0.341797-4.88281-7.4707-7.42188-7.61719 1.26953c-1.61133 0.341797-2.34375 0.195312-3.56445-0.976562l-10.0098-10.0098c-1.26953-1.17188-1.41602-2.00195-0.634766-3.85742l4.39453-10.4492c-7.8125-7.27539-17.9688-10.4004-28.125-7.42188-0.78125 0.195312-1.07422-0.439453-0.439453-0.976562Z"/>
  </g>
  <text style="stroke:none;fill:black;font-family:sans-serif;font-size:13;font-weight:bold;" transform="matrix(1 0 0 1 1289 1953)">Exporting</text>
  <text style="stroke:none;fill:black;font-family:sans-serif;font-size:13;" transform="matrix(1 0 0 1 1289 1971)">Symbols should be outlined when exporting to ensure the</text>
  <text style="stroke:none;fill:black;font-family:sans-serif;font-size:13;" transform="matrix(1 0 0 1 1289 1989)">design is preserved when submitting to Xcode.</text>
  <text id="template-version" style="stroke:none;fill:black;font-family:sans-serif;font-size:13;text-anchor:end;" transform="matrix(1 0 0 1 3036 1933)">Template v.6.0</text>
  <text style="stroke:none;fill:black;font-family:sans-serif;font-size:13;text-anchor:end;" transform="matrix(1 0 0 1 3036 1951)">Requires Xcode 16 or greater</text>
  <text id="descriptive-name" style="stroke:none;fill:black;font-family:sans-serif;font-size:13;text-anchor:end;" transform="matrix(1 0 0 1 3036 1969)">Generated from square</text>
  <text style="stroke:none;fill:black;font-family:sans-serif;font-size:13;text-anchor:end;" transform="matrix(1 0 0 1 3036 1987)">Typeset at 100.0 points</text>
  <text style="stroke:none;fill:black;font-family:sans-serif;font-size:13;" transform="matrix(1 0 0 1 263 726)">Small</text>
  <text style="stroke:none;fill:black;font-family:sans-serif;font-size:13;" transform="matrix(1 0 0 1 263 1156)">Medium</text>
  <text style="stroke:none;fill:black;font-family:sans-serif;font-size:13;" transform="matrix(1 0 0 1 263 1586)">Large</text>
 </g>
 <g id="Guides">
  <g id="H-reference" style="fill:#27AAE1;stroke:none;" transform="matrix(1 0 0 1 339 696)">
   <path d="M0.993654 0L3.63775 0L29.3281-67.1323L30.0303-67.1323L30.0303-70.459L28.1226-70.459ZM11.6885-24.4799L46.9815-24.4799L46.2315-26.7285L12.4385-26.7285ZM55.1196 0L57.7637 0L30.6382-70.459L29.4326-70.459L29.4326-67.1323Z"/>
  </g>
  <line id="Baseline-S" style="fill:none;stroke:#27AAE1;opacity:1;stroke-width:0.5;" x1="263" x2="3036" y1="696" y2="696"/>
  <line id="Capline-S" style="fill:none;stroke:#27AAE1;opacity:1;stroke-width:0.5;" x1="263" x2="3036" y1="625.541" y2="625.541"/>
  <g id="H-reference" style="fill:#27AAE1;stroke:none;" transform="matrix(1 0 0 1 339 1126)">
   <path d="M0.993654 0L3.63775 0L29.3281-67.1323L30.0303-67.1323L30.0303-70.459L28.1226-70.459ZM11.6885-24.4799L46.9815-24.4799L46.2315-26.7285L12.4385-26.7285ZM55.1196 0L57.7637 0L30.6382-70.459L29.4326-70.459L29.4326-67.1323Z"/>
  </g>
  <line id="Baseline-M" style="fill:none;stroke:#27AAE1;opacity:1;stroke-width:0.5;" x1="263" x2="3036" y1="1126" y2="1126"/>
  <line id="Capline-M" style="fill:none;stroke:#27AAE1;opacity:1;stroke-width:0.5;" x1="263" x2="3036" y1="1055.54" y2="1055.54"/>
  <g id="H-reference" style="fill:#27AAE1;stroke:none;" transform="matrix(1 0 0 1 339 1556)">
   <path d="M0.993654 0L3.63775 0L29.3281-67.1323L30.0303-67.1323L30.0303-70.459L28.1226-70.459ZM11.6885-24.4799L46.9815-24.4799L46.2315-26.7285L12.4385-26.7285ZM55.1196 0L57.7637 0L30.6382-70.459L29.4326-70.459L29.4326-67.1323Z"/>
  </g>
  <line id="Baseline-L" style="fill:none;stroke:#27AAE1;opacity:1;stroke-width:0.5;" x1="263" x2="3036" y1="1556" y2="1556"/>
  <line id="Capline-L" style="fill:none;stroke:#27AAE1;opacity:1;stroke-width:0.5;" x1="263" x2="3036" y1="1485.54" y2="1485.54"/>
  <line id="right-margin-Black-S" style="fill:none;stroke:#00AEEF;stroke-width:0.5;opacity:1.0;" x1="2981.3" x2="2981.3" y1="600.785" y2="720.121"/>
  <line id="left-margin-Black-S" style="fill:none;stroke:#00AEEF;stroke-width:0.5;opacity:1.0;" x1="2885.5" x2="2885.5" y1="600.785" y2="720.121"/>
  <line id="right-margin-Regular-S" style="fill:none;stroke:#00AEEF;stroke-width:0.5;opacity:1.0;" x1="1495.18" x2="1495.18" y1="600.785" y2="720.121"/>
  <line id="left-margin-Regular-S" style="fill:none;stroke:#00AEEF;stroke-width:0.5;opacity:1.0;" x1="1404.51" x2="1404.51" y1="600.785" y2="720.121"/>
  <line id="right-margin-Ultralight-S" style="fill:none;stroke:#00AEEF;stroke-width:0.5;opacity:1.0;" x1="603.073" x2="603.073" y1="600.785" y2="720.121"/>
  <line id="left-margin-Ultralight-S" style="fill:none;stroke:#00AEEF;stroke-width:0.5;opacity:1.0;" x1="516.35" x2="516.35" y1="600.785" y2="720.121"/>
 </g>
 <g id="Symbols">
  <g id="Black-S"><path d="M2906.69618,634.53822c-1.70863,0.41395 -3.21469,1.81432 -3.84882,3.57873c-0.25541,0.71633 -0.27009,0.91597 -0.27303,3.86644c0,2.89763 0.01761,3.17065 0.26422,3.94864c0.29358,0.94239 1.02459,2.01982 1.75854,2.60111c0.52551,0.41688 1.86129,1.08331 2.16955,1.08331c0.10862,0 0.22899,0.04991 0.26422,0.10862c0.03817,0.05872 0.46385,6.81104 0.94826,15.00189c0.48441,8.19086 0.93065,15.13107 0.98936,15.42171c0.56661,2.81249 2.63634,5.31085 5.28442,6.38828c1.69982,0.68991 0.97468,0.66642 19.55824,0.6312l17.02759,-0.03229l1.17432,-0.41395c3.02093,-1.06863 5.2169,-3.54644 5.81874,-6.57324c0.05872,-0.29064 0.50202,-7.23085 0.98936,-15.42465c0.48441,-8.19086 0.91303,-14.94318 0.94826,-15.00189c0.03817,-0.05872 0.1556,-0.10569 0.26422,-0.10569c0.30826,0 1.64404,-0.66642 2.16955,-1.08331c0.73395,-0.58129 1.46496,-1.65872 1.75854,-2.60111c0.24661,-0.77798 0.26422,-1.05101 0.26422,-3.94864c-0.00294,-2.95047 -0.01761,-3.1501 -0.27303,-3.86644c-0.44624,-1.24184 -1.45615,-2.44258 -2.60698,-3.1002c-1.22129,-0.70165 0.35229,-0.66349 -28.00451,-0.65468c-22.05366,0.00587 -26.05515,0.03229 -26.64524,0.17615M2959.47876,639.11512c0.2789,0.29945 0.28477,0.34349 0.32,2.77726c0.0411,2.78313 -0.01468,3.07377 -0.64,3.33506c-0.57835,0.24073 -50.93891,0.24073 -51.51726,0c-0.62532,-0.26129 -0.6811,-0.55193 -0.64,-3.33506c0.03523,-2.43377 0.0411,-2.47781 0.32,-2.77726l0.28477,-0.30239h25.79386h25.79386l0.28477,0.30239M2955.24242,650.01571c0,0.94239 -1.65579,28.44781 -1.74973,29.05259c-0.30532,1.98166 -1.7879,3.3879 -3.86644,3.67561c-0.47266,0.06752 -7.28663,0.09688 -16.81915,0.07927l-16.02355,-0.03229l-0.67523,-0.27303c-1.41799,-0.57248 -2.40735,-1.69102 -2.72735,-3.08258c-0.1145,-0.49615 -0.45798,-5.6514 -1.0011,-15.02244c-0.45505,-7.84737 -0.82496,-14.36189 -0.82496,-14.47345c0.00294,-0.19376 1.12147,-0.20551 21.84522,-0.20551h21.84229v0.28184M2925.94322,657.64877c-0.77211,0.34055 -1.35046,1.20074 -1.35046,2.00808c0,0.83964 0.29358,1.22422 3.0268,3.96332l2.6657,2.66863l-2.71854,2.73322c-2.97102,2.9857 -3.08552,3.15304 -2.92111,4.25103c0.14092,0.94239 1.17432,1.81725 2.15193,1.82313c0.7956,0.00587 1.21542,-0.32 3.93102,-3.02386l2.67157,-2.66276l2.67157,2.66276c2.71561,2.70386 3.13542,3.02974 3.93102,3.02386c0.97175,-0.00587 2.01395,-0.90129 2.15781,-1.84955c0.15853,-1.06569 0.02936,-1.25358 -2.92698,-4.2246l-2.71561,-2.73029l2.71267,-2.73029c2.91524,-2.93286 3.06203,-3.13836 2.94753,-4.15414c-0.10862,-0.96 -0.93358,-1.78496 -1.89359,-1.89359c-1.01578,-0.1145 -1.22129,0.03229 -4.15414,2.94753l-2.73322,2.71561l-2.66863,-2.6657c-1.73505,-1.73212 -2.82423,-2.73029 -3.109,-2.84772c-0.52844,-0.21725 -1.20074,-0.22312 -1.67634,-0.01468" className="SFSymbolsPreviewWireframe"/></g>
  <g id="Regular-S"><path d="M1423.14113,634.53822c-1.70863,0.41395 -3.21469,1.81432 -3.84882,3.57873c-0.25541,0.71633 -0.27009,0.91597 -0.27303,3.86644c0,2.89763 0.01761,3.17065 0.26422,3.94864c0.29358,0.94239 1.02459,2.01982 1.75854,2.60111c0.52551,0.41688 1.86129,1.08331 2.16955,1.08331c0.10862,0 0.22899,0.04991 0.26422,0.10862c0.03817,0.05872 0.46385,6.81104 0.94826,15.00189c0.48441,8.19086 0.93065,15.13107 0.98936,15.42171c0.56661,2.81249 2.63634,5.31085 5.28442,6.38828c1.69982,0.68991 0.97468,0.66642 19.55824,0.6312l17.02759,-0.03229l1.17432,-0.41395c3.02093,-1.06863 5.2169,-3.54644 5.81874,-6.57324c0.05872,-0.29064 0.50202,-7.23085 0.98936,-15.42465c0.48441,-8.19086 0.91303,-14.94318 0.94826,-15.00189c0.03817,-0.05872 0.1556,-0.10569 0.26422,-0.10569c0.30826,0 1.64404,-0.66642 2.16955,-1.08331c0.73395,-0.58129 1.46496,-1.65872 1.75854,-2.60111c0.24661,-0.77798 0.26422,-1.05101 0.26422,-3.94864c-0.00294,-2.95047 -0.01761,-3.1501 -0.27303,-3.86644c-0.44624,-1.24184 -1.45615,-2.44258 -2.60698,-3.1002c-1.22129,-0.70165 0.35229,-0.66349 -28.00451,-0.65468c-22.05366,0.00587 -26.05515,0.03229 -26.64524,0.17615M1475.92371,639.11512c0.2789,0.29945 0.28477,0.34349 0.32,2.77726c0.0411,2.78313 -0.01468,3.07377 -0.64,3.33506c-0.57835,0.24073 -50.93891,0.24073 -51.51726,0c-0.62532,-0.26129 -0.6811,-0.55193 -0.64,-3.33506c0.03523,-2.43377 0.0411,-2.47781 0.32,-2.77726l0.28477,-0.30239h25.79386h25.79386l0.28477,0.30239M1471.68737,650.01571c0,0.94239 -1.65579,28.44781 -1.74973,29.05259c-0.30532,1.98166 -1.7879,3.3879 -3.86644,3.67561c-0.47266,0.06752 -7.28663,0.09688 -16.81915,0.07927l-16.02355,-0.03229l-0.67523,-0.27303c-1.41799,-0.57248 -2.40735,-1.69102 -2.72735,-3.08258c-0.1145,-0.49615 -0.45798,-5.6514 -1.0011,-15.02244c-0.45505,-7.84737 -0.82496,-14.36189 -0.82496,-14.47345c0.00294,-0.19376 1.12147,-0.20551 21.84522,-0.20551h21.84229v0.28184M1442.38817,657.64877c-0.77211,0.34055 -1.35046,1.20074 -1.35046,2.00808c0,0.83964 0.29358,1.22422 3.0268,3.96332l2.6657,2.66863l-2.71854,2.73322c-2.97102,2.9857 -3.08552,3.15304 -2.92111,4.25103c0.14092,0.94239 1.17432,1.81725 2.15193,1.82313c0.7956,0.00587 1.21542,-0.32 3.93102,-3.02386l2.67157,-2.66276l2.67157,2.66276c2.71561,2.70386 3.13542,3.02974 3.93102,3.02386c0.97175,-0.00587 2.01395,-0.90129 2.15781,-1.84955c0.15853,-1.06569 0.02936,-1.25358 -2.92698,-4.2246l-2.71561,-2.73029l2.71267,-2.73029c2.91524,-2.93286 3.06203,-3.13836 2.94753,-4.15414c-0.10862,-0.96 -0.93358,-1.78496 -1.89359,-1.89359c-1.01578,-0.1145 -1.22129,0.03229 -4.15414,2.94753l-2.73322,2.71561l-2.66863,-2.6657c-1.73505,-1.73212 -2.82423,-2.73029 -3.109,-2.84772c-0.52844,-0.21725 -1.20074,-0.22312 -1.67634,-0.01468" className="SFSymbolsPreviewWireframe"/></g>
  <g id="Ultralight-S"><path d="M533.00754,634.53822c-1.70863,0.41395 -3.21469,1.81432 -3.84882,3.57873c-0.25541,0.71633 -0.27009,0.91597 -0.27303,3.86644c0,2.89763 0.01761,3.17065 0.26422,3.94864c0.29358,0.94239 1.02459,2.01982 1.75854,2.60111c0.52551,0.41688 1.86129,1.08331 2.16955,1.08331c0.10862,0 0.22899,0.04991 0.26422,0.10862c0.03817,0.05872 0.46385,6.81104 0.94826,15.00189c0.48441,8.19086 0.93065,15.13107 0.98936,15.42171c0.56661,2.81249 2.63634,5.31085 5.28442,6.38828c1.69982,0.68991 0.97468,0.66642 19.55824,0.6312l17.02759,-0.03229l1.17432,-0.41395c3.02093,-1.06863 5.2169,-3.54644 5.81874,-6.57324c0.05872,-0.29064 0.50202,-7.23085 0.98936,-15.42465c0.48441,-8.19086 0.91303,-14.94318 0.94826,-15.00189c0.03817,-0.05872 0.1556,-0.10569 0.26422,-0.10569c0.30826,0 1.64404,-0.66642 2.16955,-1.08331c0.73395,-0.58129 1.46496,-1.65872 1.75854,-2.60111c0.24661,-0.77798 0.26422,-1.05101 0.26422,-3.94864c-0.00294,-2.95047 -0.01761,-3.1501 -0.27303,-3.86644c-0.44624,-1.24184 -1.45615,-2.44258 -2.60698,-3.1002c-1.22129,-0.70165 0.35229,-0.66349 -28.00451,-0.65468c-22.05366,0.00587 -26.05515,0.03229 -26.64524,0.17615M585.79012,639.11512c0.2789,0.29945 0.28477,0.34349 0.32,2.77726c0.0411,2.78313 -0.01468,3.07377 -0.64,3.33506c-0.57835,0.24073 -50.93891,0.24073 -51.51726,0c-0.62532,-0.26129 -0.6811,-0.55193 -0.64,-3.33506c0.03523,-2.43377 0.0411,-2.47781 0.32,-2.77726l0.28477,-0.30239h25.79386h25.79386l0.28477,0.30239M581.55378,650.01571c0,0.94239 -1.65579,28.44781 -1.74973,29.05259c-0.30532,1.98166 -1.7879,3.3879 -3.86644,3.67561c-0.47266,0.06752 -7.28663,0.09688 -16.81915,0.07927l-16.02355,-0.03229l-0.67523,-0.27303c-1.41799,-0.57248 -2.40735,-1.69102 -2.72735,-3.08258c-0.1145,-0.49615 -0.45798,-5.6514 -1.0011,-15.02244c-0.45505,-7.84737 -0.82496,-14.36189 -0.82496,-14.47345c0.00294,-0.19376 1.12147,-0.20551 21.84522,-0.20551h21.84229v0.28184M552.25458,657.64877c-0.77211,0.34055 -1.35046,1.20074 -1.35046,2.00808c0,0.83964 0.29358,1.22422 3.0268,3.96332l2.6657,2.66863l-2.71854,2.73322c-2.97102,2.9857 -3.08552,3.15304 -2.92111,4.25103c0.14092,0.94239 1.17432,1.81725 2.15193,1.82313c0.7956,0.00587 1.21542,-0.32 3.93102,-3.02386l2.67157,-2.66276l2.67157,2.66276c2.71561,2.70386 3.13542,3.02974 3.93102,3.02386c0.97175,-0.00587 2.01395,-0.90129 2.15781,-1.84955c0.15853,-1.06569 0.02936,-1.25358 -2.92698,-4.2246l-2.71561,-2.73029l2.71267,-2.73029c2.91524,-2.93286 3.06203,-3.13836 2.94753,-4.15414c-0.10862,-0.96 -0.93358,-1.78496 -1.89359,-1.89359c-1.01578,-0.1145 -1.22129,0.03229 -4.15414,2.94753l-2.73322,2.71561l-2.66863,-2.6657c-1.73505,-1.73212 -2.82423,-2.73029 -3.109,-2.84772c-0.52844,-0.21725 -1.20074,-0.22312 -1.67634,-0.01468" className="SFSymbolsPreviewWireframe"/></g>
 </g>
</svg>