<?xml version="1.0" encoding="UTF-8"?><!--Generator: https://SymbolKit.app--><!DOCTYPE svg PUBLIC "-//W3C//DTD SVG 1.1//EN" "http://www.w3.org/Graphics/SVG/1.1/DTD/svg11.dtd"><svg xmlns="http://www.w3.org/2000/svg" xmlns:xlink="http://www.w3.org/1999/xlink" version="1.1" viewBox="0 0 3300 2200">
 <!--glyph: "100092", point size: 100.0, font version: "20.0d10e1", template writer version: "138.0.0"-->
 <style>.SFSymbolsPreviewWireframe {fill:none;opacity:1.0;stroke:black;stroke-width:0.5}
</style>
 <g id="Notes">
  <rect height="2200" id="artboard" style="fill:white;opacity:1" width="3300" x="0" y="0"/>
  <line style="fill:none;stroke:black;opacity:1;stroke-width:0.5;" x1="263" x2="3036" y1="292" y2="292"/>
  <text style="stroke:none;fill:black;font-family:sans-serif;font-size:13;font-weight:bold;" transform="matrix(1 0 0 1 263 322)">Weight/Scale Variations</text>
  <text style="stroke:none;fill:black;font-family:sans-serif;font-size:13;text-anchor:middle;" transform="matrix(1 0 0 1 559.711 322)">Ultralight</text>
  <text style="stroke:none;fill:black;font-family:sans-serif;font-size:13;text-anchor:middle;" transform="matrix(1 0 0 1 856.422 322)">Thin</text>
  <text style="stroke:none;fill:black;font-family:sans-serif;font-size:13;text-anchor:middle;" transform="matrix(1 0 0 1 1153.13 322)">Light</text>
  <text style="stroke:none;fill:black;font-family:sans-serif;font-size:13;text-anchor:middle;" transform="matrix(1 0 0 1 1449.84 322)">Regular</text>
  <text style="stroke:none;fill:black;font-family:sans-serif;font-size:13;text-anchor:middle;" transform="matrix(1 0 0 1 1746.56 322)">Medium</text>
  <text style="stroke:none;fill:black;font-family:sans-serif;font-size:13;text-anchor:middle;" transform="matrix(1 0 0 1 2043.27 322)">Semibold</text>
  <text style="stroke:none;fill:black;font-family:sans-serif;font-size:13;text-anchor:middle;" transform="matrix(1 0 0 1 2339.98 322)">Bold</text>
  <text style="stroke:none;fill:black;font-family:sans-serif;font-size:13;text-anchor:middle;" transform="matrix(1 0 0 1 2636.69 322)">Heavy</text>
  <text style="stroke:none;fill:black;font-family:sans-serif;font-size:13;text-anchor:middle;" transform="matrix(1 0 0 1 2933.4 322)">Black</text>
  <line style="fill:none;stroke:black;opacity:1;stroke-width:0.5;" x1="263" x2="3036" y1="1903" y2="1903"/>
  <g transform="matrix(0.2 0 0 0.2 263 1933)">
   <path d="m46.2402 4.15039c21.7773 0 39.4531-17.627 39.4531-39.4043s-17.6758-39.4043-39.4531-39.4043c-21.7285 0-39.4043 17.627-39.4043 39.4043s17.6758 39.4043 39.4043 39.4043Zm0-7.42188c-17.6758 0-31.9336-14.3066-31.9336-31.9824s14.2578-31.9824 31.9336-31.9824 31.9824 14.3066 31.9824 31.9824-14.3066 31.9824-31.9824 31.9824Zm-17.9688-31.9824c0 2.14844 1.51367 3.61328 3.75977 3.61328h10.498v10.5957c0 2.19727 1.46484 3.71094 3.61328 3.71094 2.24609 0 3.71094-1.51367 3.71094-3.71094v-10.5957h10.5957c2.19727 0 3.71094-1.46484 3.71094-3.61328 0-2.19727-1.51367-3.71094-3.71094-3.71094h-10.5957v-10.5469c0-2.24609-1.46484-3.75977-3.71094-3.75977-2.14844 0-3.61328 1.51367-3.61328 3.75977v10.5469h-10.498c-2.24609 0-3.75977 1.51367-3.75977 3.71094Z"/>
  </g>
  <g transform="matrix(0.2 0 0 0.2 281.506 1933)">
   <path d="m58.5449 14.5508c27.4902 0 49.8047-22.3145 49.8047-49.8047s-22.3145-49.8047-49.8047-49.8047-49.8047 22.3145-49.8047 49.8047 22.3145 49.8047 49.8047 49.8047Zm0-8.30078c-22.9492 0-41.5039-18.5547-41.5039-41.5039s18.5547-41.5039 41.5039-41.5039 41.5039 18.5547 41.5039 41.5039-18.5547 41.5039-41.5039 41.5039Zm-22.6562-41.5039c0 2.39258 1.66016 4.00391 4.15039 4.00391h14.3555v14.4043c0 2.44141 1.66016 4.15039 4.05273 4.15039 2.44141 0 4.15039-1.66016 4.15039-4.15039v-14.4043h14.4043c2.44141 0 4.15039-1.61133 4.15039-4.00391 0-2.44141-1.70898-4.15039-4.15039-4.15039h-14.4043v-14.3555c0-2.49023-1.70898-4.19922-4.15039-4.19922-2.39258 0-4.05273 1.70898-4.05273 4.19922v14.3555h-14.3555c-2.49023 0-4.15039 1.70898-4.15039 4.15039Z"/>
  </g>
  <g transform="matrix(0.2 0 0 0.2 304.924 1933)">
   <path d="m74.8535 28.3203c35.1074 0 63.623-28.4668 63.623-63.5742s-28.5156-63.623-63.623-63.623-63.5742 28.5156-63.5742 63.623 28.4668 63.5742 63.5742 63.5742Zm0-9.08203c-30.127 0-54.4922-24.3652-54.4922-54.4922s24.3652-54.4922 54.4922-54.4922 54.4922 24.3652 54.4922 54.4922-24.3652 54.4922-54.4922 54.4922Zm-28.8574-54.4922c0 2.58789 1.85547 4.39453 4.58984 4.39453h19.7266v19.7754c0 2.68555 1.85547 4.58984 4.44336 4.58984 2.68555 0 4.54102-1.85547 4.54102-4.58984v-19.7754h19.7754c2.68555 0 4.58984-1.80664 4.58984-4.39453 0-2.73438-1.85547-4.58984-4.58984-4.58984h-19.7754v-19.7266c0-2.73438-1.85547-4.63867-4.54102-4.63867-2.58789 0-4.44336 1.9043-4.44336 4.63867v19.7266h-19.7266c-2.73438 0-4.58984 1.85547-4.58984 4.58984Z"/>
  </g>
  <text style="stroke:none;fill:black;font-family:sans-serif;font-size:13;font-weight:bold;" transform="matrix(1 0 0 1 263 1953)">Design Variations</text>
  <text style="stroke:none;fill:black;font-family:sans-serif;font-size:13;" transform="matrix(1 0 0 1 263 1971)">Symbols are supported in up to nine weights and three scales.</text>
  <text style="stroke:none;fill:black;font-family:sans-serif;font-size:13;" transform="matrix(1 0 0 1 263 1989)">For optimal layout with text and other symbols, vertically align</text>
  <text style="stroke:none;fill:black;font-family:sans-serif;font-size:13;" transform="matrix(1 0 0 1 263 2007)">symbols with the adjacent text.</text>
  <line style="fill:none;stroke:#00AEEF;stroke-width:0.5;opacity:1.0;" x1="776" x2="776" y1="1919" y2="1933"/>
  <g transform="matrix(0.2 0 0 0.2 776 1933)">
   <path d="m16.5527 0.78125c2.58789 0 3.85742-0.976562 4.78516-3.71094l6.29883-17.2363h28.8086l6.29883 17.2363c0.927734 2.73438 2.19727 3.71094 4.73633 3.71094 2.58789 0 4.24805-1.5625 4.24805-4.00391 0-0.830078-0.146484-1.61133-0.537109-2.63672l-22.9004-60.9863c-1.12305-2.97852-3.125-4.49219-6.25-4.49219-3.02734 0-5.07812 1.46484-6.15234 4.44336l-22.9004 61.084c-0.390625 1.02539-0.537109 1.80664-0.537109 2.63672 0 2.44141 1.5625 3.95508 4.10156 3.95508Zm13.4766-28.3691 11.8652-32.8613h0.244141l11.8652 32.8613Z"/>
  </g>
  <line style="fill:none;stroke:#00AEEF;stroke-width:0.5;opacity:1.0;" x1="792.836" x2="792.836" y1="1919" y2="1933"/>
  <text style="stroke:none;fill:black;font-family:sans-serif;font-size:13;font-weight:bold;" transform="matrix(1 0 0 1 776 1953)">Margins</text>
  <text style="stroke:none;fill:black;font-family:sans-serif;font-size:13;" transform="matrix(1 0 0 1 776 1971)">Leading and trailing margins on the left and right side of each symbol</text>
  <text style="stroke:none;fill:black;font-family:sans-serif;font-size:13;" transform="matrix(1 0 0 1 776 1989)">can be adjusted by modifying the x-location of the margin guidelines.</text>
  <text style="stroke:none;fill:black;font-family:sans-serif;font-size:13;" transform="matrix(1 0 0 1 776 2007)">Modifications are automatically applied proportionally to all</text>
  <text style="stroke:none;fill:black;font-family:sans-serif;font-size:13;" transform="matrix(1 0 0 1 776 2025)">scales and weights.</text>
  <g transform="matrix(0.2 0 0 0.2 1289 1933)">
   <path d="m14.209 9.32617 8.49609 8.54492c4.29688 4.3457 9.22852 4.05273 13.8672-1.07422l53.4668-58.9355-4.83398-4.88281-53.0762 58.3984c-1.75781 2.00195-3.41797 2.49023-5.76172 0.146484l-5.85938-5.81055c-2.34375-2.29492-1.80664-4.00391 0.195312-5.81055l57.373-54.0039-4.88281-4.83398-57.959 54.4434c-4.93164 4.58984-5.32227 9.47266-1.02539 13.8184Zm32.0801-90.9668c-2.09961 2.05078-2.24609 4.93164-1.07422 6.88477 1.17188 1.80664 3.4668 2.97852 6.68945 2.14844 7.32422-1.70898 14.9414-2.00195 22.0703 2.68555l-2.92969 7.27539c-1.70898 4.15039-0.830078 7.08008 1.85547 9.81445l11.4746 11.5723c2.44141 2.44141 4.49219 2.53906 7.32422 2.05078l5.32227-0.976562 3.32031 3.36914-0.195312 2.7832c-0.195312 2.49023 0.439453 4.39453 2.88086 6.78711l3.80859 3.71094c2.39258 2.39258 5.46875 2.53906 7.8125 0.195312l14.5508-14.5996c2.34375-2.34375 2.24609-5.32227-0.146484-7.71484l-3.85742-3.80859c-2.39258-2.39258-4.24805-3.17383-6.64062-2.97852l-2.88086 0.244141-3.22266-3.17383 1.2207-5.61523c0.634766-2.83203-0.146484-5.0293-3.07617-7.95898l-10.9863-10.9375c-16.6992-16.6016-38.8672-16.2109-53.3203-1.75781Zm7.4707 1.85547c12.1582-8.88672 28.6133-7.37305 39.7461 3.75977l12.1582 12.0605c1.17188 1.17188 1.36719 2.09961 1.02539 3.80859l-1.61133 7.42188 7.51953 7.42188 4.93164-0.292969c1.26953-0.0488281 1.66016 0.0488281 2.63672 1.02539l2.88086 2.88086-12.207 12.207-2.88086-2.88086c-0.976562-0.976562-1.12305-1.36719-1.07422-2.68555l0.341797-4.88281-7.4707-7.42188-7.61719 1.26953c-1.61133 0.341797-2.34375 0.195312-3.56445-0.976562l-10.0098-10.0098c-1.26953-1.17188-1.41602-2.00195-0.634766-3.85742l4.39453-10.4492c-7.8125-7.27539-17.9688-10.4004-28.125-7.42188-0.78125 0.195312-1.07422-0.439453-0.439453-0.976562Z"/>
  </g>
  <text style="stroke:none;fill:black;font-family:sans-serif;font-size:13;font-weight:bold;" transform="matrix(1 0 0 1 1289 1953)">Exporting</text>
  <text style="stroke:none;fill:black;font-family:sans-serif;font-size:13;" transform="matrix(1 0 0 1 1289 1971)">Symbols should be outlined when exporting to ensure the</text>
  <text style="stroke:none;fill:black;font-family:sans-serif;font-size:13;" transform="matrix(1 0 0 1 1289 1989)">design is preserved when submitting to Xcode.</text>
  <text id="template-version" style="stroke:none;fill:black;font-family:sans-serif;font-size:13;text-anchor:end;" transform="matrix(1 0 0 1 3036 1933)">Template v.6.0</text>
  <text style="stroke:none;fill:black;font-family:sans-serif;font-size:13;text-anchor:end;" transform="matrix(1 0 0 1 3036 1951)">Requires Xcode 16 or greater</text>
  <text id="descriptive-name" style="stroke:none;fill:black;font-family:sans-serif;font-size:13;text-anchor:end;" transform="matrix(1 0 0 1 3036 1969)">Generated from square</text>
  <text style="stroke:none;fill:black;font-family:sans-serif;font-size:13;text-anchor:end;" transform="matrix(1 0 0 1 3036 1987)">Typeset at 100.0 points</text>
  <text style="stroke:none;fill:black;font-family:sans-serif;font-size:13;" transform="matrix(1 0 0 1 263 726)">Small</text>
  <text style="stroke:none;fill:black;font-family:sans-serif;font-size:13;" transform="matrix(1 0 0 1 263 1156)">Medium</text>
  <text style="stroke:none;fill:black;font-family:sans-serif;font-size:13;" transform="matrix(1 0 0 1 263 1586)">Large</text>
 </g>
 <g id="Guides">
  <g id="H-reference" style="fill:#27AAE1;stroke:none;" transform="matrix(1 0 0 1 339 696)">
   <path d="M0.993654 0L3.63775 0L29.3281-67.1323L30.0303-67.1323L30.0303-70.459L28.1226-70.459ZM11.6885-24.4799L46.9815-24.4799L46.2315-26.7285L12.4385-26.7285ZM55.1196 0L57.7637 0L30.6382-70.459L29.4326-70.459L29.4326-67.1323Z"/>
  </g>
  <line id="Baseline-S" style="fill:none;stroke:#27AAE1;opacity:1;stroke-width:0.5;" x1="263" x2="3036" y1="696" y2="696"/>
  <line id="Capline-S" style="fill:none;stroke:#27AAE1;opacity:1;stroke-width:0.5;" x1="263" x2="3036" y1="625.541" y2="625.541"/>
  <g id="H-reference" style="fill:#27AAE1;stroke:none;" transform="matrix(1 0 0 1 339 1126)">
   <path d="M0.993654 0L3.63775 0L29.3281-67.1323L30.0303-67.1323L30.0303-70.459L28.1226-70.459ZM11.6885-24.4799L46.9815-24.4799L46.2315-26.7285L12.4385-26.7285ZM55.1196 0L57.7637 0L30.6382-70.459L29.4326-70.459L29.4326-67.1323Z"/>
  </g>
  <line id="Baseline-M" style="fill:none;stroke:#27AAE1;opacity:1;stroke-width:0.5;" x1="263" x2="3036" y1="1126" y2="1126"/>
  <line id="Capline-M" style="fill:none;stroke:#27AAE1;opacity:1;stroke-width:0.5;" x1="263" x2="3036" y1="1055.54" y2="1055.54"/>
  <g id="H-reference" style="fill:#27AAE1;stroke:none;" transform="matrix(1 0 0 1 339 1556)">
   <path d="M0.993654 0L3.63775 0L29.3281-67.1323L30.0303-67.1323L30.0303-70.459L28.1226-70.459ZM11.6885-24.4799L46.9815-24.4799L46.2315-26.7285L12.4385-26.7285ZM55.1196 0L57.7637 0L30.6382-70.459L29.4326-70.459L29.4326-67.1323Z"/>
  </g>
  <line id="Baseline-L" style="fill:none;stroke:#27AAE1;opacity:1;stroke-width:0.5;" x1="263" x2="3036" y1="1556" y2="1556"/>
  <line id="Capline-L" style="fill:none;stroke:#27AAE1;opacity:1;stroke-width:0.5;" x1="263" x2="3036" y1="1485.54" y2="1485.54"/>
  <line id="right-margin-Black-S" style="fill:none;stroke:#00AEEF;stroke-width:0.5;opacity:1.0;" x1="2981.3" x2="2981.3" y1="600.785" y2="720.121"/>
  <line id="left-margin-Black-S" style="fill:none;stroke:#00AEEF;stroke-width:0.5;opacity:1.0;" x1="2885.5" x2="2885.5" y1="600.785" y2="720.121"/>
  <line id="right-margin-Regular-S" style="fill:none;stroke:#00AEEF;stroke-width:0.5;opacity:1.0;" x1="1495.18" x2="1495.18" y1="600.785" y2="720.121"/>
  <line id="left-margin-Regular-S" style="fill:none;stroke:#00AEEF;stroke-width:0.5;opacity:1.0;" x1="1404.51" x2="1404.51" y1="600.785" y2="720.121"/>
  <line id="right-margin-Ultralight-S" style="fill:none;stroke:#00AEEF;stroke-width:0.5;opacity:1.0;" x1="603.073" x2="603.073" y1="600.785" y2="720.121"/>
  <line id="left-margin-Ultralight-S" style="fill:none;stroke:#00AEEF;stroke-width:0.5;opacity:1.0;" x1="516.35" x2="516.35" y1="600.785" y2="720.121"/>
 </g>
 <g id="Symbols">
  <g id="Black-S"><path d="M2932.45762,632.1867c-6.02424,0.31119 -11.36445,3.1824 -15.04593,8.08223c-1.81138,2.41028 -3.12955,5.63378 -3.6257,8.86609c-0.07339,0.48441 -0.18202,2.41322 -0.2378,4.28625c-0.10569,3.39965 -0.23486,4.63268 -0.68698,6.51746c-0.82789,3.45836 -2.67157,7.06938 -5.02314,9.84077c-1.02166,1.20367 -1.20074,1.72037 -0.93065,2.65102c0.18495,0.63413 0.57248,1.09211 1.18312,1.3945c0.54606,0.27303 4.49763,1.54423 6.45874,2.07854c1.45322,0.39927 5.62791,1.29762 7.35122,1.58239l0.42275,0.07046l0.07046,1.26239c0.22899,4.1013 2.51597,7.60663 6.14167,9.40921c3.08552,1.53248 6.63782,1.53248 9.72334,0c3.63745,-1.80845 5.90681,-5.30497 6.14461,-9.45912l0.06752,-1.21248l0.42275,-0.07046c1.72037,-0.28477 5.898,-1.18312 7.35122,-1.58239c2.11964,-0.57835 5.93617,-1.81725 6.54094,-2.12258c0.53725,-0.27009 0.97175,-0.83083 1.14202,-1.47964c0.21725,-0.81615 0.00587,-1.36808 -0.96881,-2.51891c-2.86533,-3.38497 -4.71194,-7.43049 -5.43708,-11.89876c-0.09395,-0.58129 -0.21725,-2.58937 -0.27596,-4.4624c-0.05578,-1.87303 -0.1644,-3.80185 -0.2378,-4.28625c-0.9923,-6.44993 -4.77947,-11.74316 -10.58353,-14.79052c-2.90056,-1.52074 -6.63489,-2.33102 -9.96701,-2.15781M2935.74571,636.74599c4.8969,0.73395 9.22132,3.91928 11.48188,8.45508c0.51376,1.0334 1.12441,2.83597 1.32111,3.89873c0.06752,0.37285 0.17028,2.24001 0.22899,4.14534c0.12917,4.3391 0.35523,6.10351 1.13615,8.79563c0.7222,2.50129 2.14606,5.64553 3.43488,7.58608c0.38752,0.58129 0.66642,1.09211 0.62239,1.13615c-0.10275,0.09982 -2.51304,0.81028 -4.07488,1.1978c-8.44921,2.1079 -17.60594,2.56001 -26.33992,1.30056c-2.11377,-0.30532 -4.65323,-0.79854 -6.65837,-1.30056c-1.55891,-0.38752 -3.97213,-1.09799 -4.07488,-1.1978c-0.04404,-0.04404 0.14679,-0.42275 0.42569,-0.84257c1.81138,-2.73322 3.13836,-5.79525 3.92809,-9.06866c0.62826,-2.59524 0.8367,-4.56516 0.8367,-7.87086c0,-2.55707 0.18495,-4.02497 0.71927,-5.6925c0.75156,-2.35744 2.01689,-4.4213 3.79891,-6.20039c3.49066,-3.49359 8.31416,-5.07892 13.214,-4.34203M2928.05393,647.77575c-0.43743,0.19376 -0.94239,0.72514 -1.10679,1.16257c-0.34642,0.9101 0.03817,2.10496 0.84844,2.64221c0.47266,0.31119 0.48734,0.31413 3.15598,0.37285l2.68038,0.05872l-3.24405,4.86754c-1.78496,2.67451 -3.31744,5.03782 -3.40552,5.24919c-0.50202,1.20367 0.14679,2.54533 1.41212,2.92111c0.46679,0.13798 1.44147,0.17321 4.89984,0.17321c2.69799,0 4.5446,-0.04991 4.92039,-0.12917c0.69285,-0.14973 1.35927,-0.66642 1.60001,-1.24478c0.39046,-0.93358 0.02349,-2.16074 -0.81615,-2.71561c-0.47266,-0.31119 -0.48734,-0.31413 -3.15598,-0.37285l-2.68038,-0.05872l3.24405,-4.86754c1.78496,-2.67451 3.31744,-5.03782 3.40552,-5.24919c0.45798,-1.09505 -0.09688,-2.44845 -1.16844,-2.85065c-0.52257,-0.19963 -10.13729,-0.16147 -10.5894,0.0411M2933.39707,678.31679c1.77615,0 3.98387,-0.04404 4.90277,-0.09688l1.6734,-0.09688v0.54899c0,0.69872 -0.28771,1.82019 -0.66936,2.59524c-1.57946,3.22643 -5.52222,4.58571 -8.78389,3.02974c-2.01102,-0.95707 -3.50827,-3.1501 -3.67267,-5.3725l-0.05872,-0.80147l1.68808,0.09688c0.93065,0.05284 3.14423,0.09688 4.92039,0.09688" className="SFSymbolsPreviewWireframe"/></g>
  <g id="Regular-S"><path d="M1448.90257,632.1867c-6.02424,0.31119 -11.36445,3.1824 -15.04593,8.08223c-1.81138,2.41028 -3.12955,5.63378 -3.6257,8.86609c-0.07339,0.48441 -0.18202,2.41322 -0.2378,4.28625c-0.10569,3.39965 -0.23486,4.63268 -0.68698,6.51746c-0.82789,3.45836 -2.67157,7.06938 -5.02314,9.84077c-1.02166,1.20367 -1.20074,1.72037 -0.93065,2.65102c0.18495,0.63413 0.57248,1.09211 1.18312,1.3945c0.54606,0.27303 4.49763,1.54423 6.45874,2.07854c1.45322,0.39927 5.62791,1.29762 7.35122,1.58239l0.42275,0.07046l0.07046,1.26239c0.22899,4.1013 2.51597,7.60663 6.14167,9.40921c3.08552,1.53248 6.63782,1.53248 9.72334,0c3.63745,-1.80845 5.90681,-5.30497 6.14461,-9.45912l0.06752,-1.21248l0.42275,-0.07046c1.72037,-0.28477 5.898,-1.18312 7.35122,-1.58239c2.11964,-0.57835 5.93617,-1.81725 6.54094,-2.12258c0.53725,-0.27009 0.97175,-0.83083 1.14202,-1.47964c0.21725,-0.81615 0.00587,-1.36808 -0.96881,-2.51891c-2.86533,-3.38497 -4.71194,-7.43049 -5.43708,-11.89876c-0.09395,-0.58129 -0.21725,-2.58937 -0.27596,-4.4624c-0.05578,-1.87303 -0.1644,-3.80185 -0.2378,-4.28625c-0.9923,-6.44993 -4.77947,-11.74316 -10.58353,-14.79052c-2.90056,-1.52074 -6.63489,-2.33102 -9.96701,-2.15781M1452.19066,636.74599c4.8969,0.73395 9.22132,3.91928 11.48188,8.45508c0.51376,1.0334 1.12441,2.83597 1.32111,3.89873c0.06752,0.37285 0.17028,2.24001 0.22899,4.14534c0.12917,4.3391 0.35523,6.10351 1.13615,8.79563c0.7222,2.50129 2.14606,5.64553 3.43488,7.58608c0.38752,0.58129 0.66642,1.09211 0.62239,1.13615c-0.10275,0.09982 -2.51304,0.81028 -4.07488,1.1978c-8.44921,2.1079 -17.60594,2.56001 -26.33992,1.30056c-2.11377,-0.30532 -4.65323,-0.79854 -6.65837,-1.30056c-1.55891,-0.38752 -3.97213,-1.09799 -4.07488,-1.1978c-0.04404,-0.04404 0.14679,-0.42275 0.42569,-0.84257c1.81138,-2.73322 3.13836,-5.79525 3.92809,-9.06866c0.62826,-2.59524 0.8367,-4.56516 0.8367,-7.87086c0,-2.55707 0.18495,-4.02497 0.71927,-5.6925c0.75156,-2.35744 2.01689,-4.4213 3.79891,-6.20039c3.49066,-3.49359 8.31416,-5.07892 13.214,-4.34203M1444.49888,647.77575c-0.43743,0.19376 -0.94239,0.72514 -1.10679,1.16257c-0.34642,0.9101 0.03817,2.10496 0.84844,2.64221c0.47266,0.31119 0.48734,0.31413 3.15598,0.37285l2.68038,0.05872l-3.24405,4.86754c-1.78496,2.67451 -3.31744,5.03782 -3.40552,5.24919c-0.50202,1.20367 0.14679,2.54533 1.41212,2.92111c0.46679,0.13798 1.44147,0.17321 4.89984,0.17321c2.69799,0 4.5446,-0.04991 4.92039,-0.12917c0.69285,-0.14973 1.35927,-0.66642 1.60001,-1.24478c0.39046,-0.93358 0.02349,-2.16074 -0.81615,-2.71561c-0.47266,-0.31119 -0.48734,-0.31413 -3.15598,-0.37285l-2.68038,-0.05872l3.24405,-4.86754c1.78496,-2.67451 3.31744,-5.03782 3.40552,-5.24919c0.45798,-1.09505 -0.09688,-2.44845 -1.16844,-2.85065c-0.52257,-0.19963 -10.13729,-0.16147 -10.5894,0.0411M1449.84202,678.31679c1.77615,0 3.98387,-0.04404 4.90277,-0.09688l1.6734,-0.09688v0.54899c0,0.69872 -0.28771,1.82019 -0.66936,2.59524c-1.57946,3.22643 -5.52222,4.58571 -8.78389,3.02974c-2.01102,-0.95707 -3.50827,-3.1501 -3.67267,-5.3725l-0.05872,-0.80147l1.68808,0.09688c0.93065,0.05284 3.14423,0.09688 4.92039,0.09688" className="SFSymbolsPreviewWireframe"/></g>
  <g id="Ultralight-S"><path d="M558.76898,632.1867c-6.02424,0.31119 -11.36445,3.1824 -15.04593,8.08223c-1.81138,2.41028 -3.12955,5.63378 -3.6257,8.86609c-0.07339,0.48441 -0.18202,2.41322 -0.2378,4.28625c-0.10569,3.39965 -0.23486,4.63268 -0.68698,6.51746c-0.82789,3.45836 -2.67157,7.06938 -5.02314,9.84077c-1.02166,1.20367 -1.20074,1.72037 -0.93065,2.65102c0.18495,0.63413 0.57248,1.09211 1.18312,1.3945c0.54606,0.27303 4.49763,1.54423 6.45874,2.07854c1.45322,0.39927 5.62791,1.29762 7.35122,1.58239l0.42275,0.07046l0.07046,1.26239c0.22899,4.1013 2.51597,7.60663 6.14167,9.40921c3.08552,1.53248 6.63782,1.53248 9.72334,0c3.63745,-1.80845 5.90681,-5.30497 6.14461,-9.45912l0.06752,-1.21248l0.42275,-0.07046c1.72037,-0.28477 5.898,-1.18312 7.35122,-1.58239c2.11964,-0.57835 5.93617,-1.81725 6.54094,-2.12258c0.53725,-0.27009 0.97175,-0.83083 1.14202,-1.47964c0.21725,-0.81615 0.00587,-1.36808 -0.96881,-2.51891c-2.86533,-3.38497 -4.71194,-7.43049 -5.43708,-11.89876c-0.09395,-0.58129 -0.21725,-2.58937 -0.27596,-4.4624c-0.05578,-1.87303 -0.1644,-3.80185 -0.2378,-4.28625c-0.9923,-6.44993 -4.77947,-11.74316 -10.58353,-14.79052c-2.90056,-1.52074 -6.63489,-2.33102 -9.96701,-2.15781M562.05707,636.74599c4.8969,0.73395 9.22132,3.91928 11.48188,8.45508c0.51376,1.0334 1.12441,2.83597 1.32111,3.89873c0.06752,0.37285 0.17028,2.24001 0.22899,4.14534c0.12917,4.3391 0.35523,6.10351 1.13615,8.79563c0.7222,2.50129 2.14606,5.64553 3.43488,7.58608c0.38752,0.58129 0.66642,1.09211 0.62239,1.13615c-0.10275,0.09982 -2.51304,0.81028 -4.07488,1.1978c-8.44921,2.1079 -17.60594,2.56001 -26.33992,1.30056c-2.11377,-0.30532 -4.65323,-0.79854 -6.65837,-1.30056c-1.55891,-0.38752 -3.97213,-1.09799 -4.07488,-1.1978c-0.04404,-0.04404 0.14679,-0.42275 0.42569,-0.84257c1.81138,-2.73322 3.13836,-5.79525 3.92809,-9.06866c0.62826,-2.59524 0.8367,-4.56516 0.8367,-7.87086c0,-2.55707 0.18495,-4.02497 0.71927,-5.6925c0.75156,-2.35744 2.01689,-4.4213 3.79891,-6.20039c3.49066,-3.49359 8.31416,-5.07892 13.214,-4.34203M554.36529,647.77575c-0.43743,0.19376 -0.94239,0.72514 -1.10679,1.16257c-0.34642,0.9101 0.03817,2.10496 0.84844,2.64221c0.47266,0.31119 0.48734,0.31413 3.15598,0.37285l2.68038,0.05872l-3.24405,4.86754c-1.78496,2.67451 -3.31744,5.03782 -3.40552,5.24919c-0.50202,1.20367 0.14679,2.54533 1.41212,2.92111c0.46679,0.13798 1.44147,0.17321 4.89984,0.17321c2.69799,0 4.5446,-0.04991 4.92039,-0.12917c0.69285,-0.14973 1.35927,-0.66642 1.60001,-1.24478c0.39046,-0.93358 0.02349,-2.16074 -0.81615,-2.71561c-0.47266,-0.31119 -0.48734,-0.31413 -3.15598,-0.37285l-2.68038,-0.05872l3.24405,-4.86754c1.78496,-2.67451 3.31744,-5.03782 3.40552,-5.24919c0.45798,-1.09505 -0.09688,-2.44845 -1.16844,-2.85065c-0.52257,-0.19963 -10.13729,-0.16147 -10.5894,0.0411M559.70843,678.31679c1.77615,0 3.98387,-0.04404 4.90277,-0.09688l1.6734,-0.09688v0.54899c0,0.69872 -0.28771,1.82019 -0.66936,2.59524c-1.57946,3.22643 -5.52222,4.58571 -8.78389,3.02974c-2.01102,-0.95707 -3.50827,-3.1501 -3.67267,-5.3725l-0.05872,-0.80147l1.68808,0.09688c0.93065,0.05284 3.14423,0.09688 4.92039,0.09688" className="SFSymbolsPreviewWireframe"/></g>
 </g>
</svg>