<?xml version="1.0" encoding="UTF-8"?><!--Generator: https://SymbolKit.app--><!DOCTYPE svg PUBLIC "-//W3C//DTD SVG 1.1//EN" "http://www.w3.org/Graphics/SVG/1.1/DTD/svg11.dtd"><svg xmlns="http://www.w3.org/2000/svg" xmlns:xlink="http://www.w3.org/1999/xlink" version="1.1" viewBox="0 0 3300 2200">
 <!--glyph: "100092", point size: 100.0, font version: "20.0d10e1", template writer version: "138.0.0"-->
 <style>.SFSymbolsPreviewWireframe {fill:none;opacity:1.0;stroke:black;stroke-width:0.5}
</style>
 <g id="Notes">
  <rect height="2200" id="artboard" style="fill:white;opacity:1" width="3300" x="0" y="0"/>
  <line style="fill:none;stroke:black;opacity:1;stroke-width:0.5;" x1="263" x2="3036" y1="292" y2="292"/>
  <text style="stroke:none;fill:black;font-family:sans-serif;font-size:13;font-weight:bold;" transform="matrix(1 0 0 1 263 322)">Weight/Scale Variations</text>
  <text style="stroke:none;fill:black;font-family:sans-serif;font-size:13;text-anchor:middle;" transform="matrix(1 0 0 1 559.711 322)">Ultralight</text>
  <text style="stroke:none;fill:black;font-family:sans-serif;font-size:13;text-anchor:middle;" transform="matrix(1 0 0 1 856.422 322)">Thin</text>
  <text style="stroke:none;fill:black;font-family:sans-serif;font-size:13;text-anchor:middle;" transform="matrix(1 0 0 1 1153.13 322)">Light</text>
  <text style="stroke:none;fill:black;font-family:sans-serif;font-size:13;text-anchor:middle;" transform="matrix(1 0 0 1 1449.84 322)">Regular</text>
  <text style="stroke:none;fill:black;font-family:sans-serif;font-size:13;text-anchor:middle;" transform="matrix(1 0 0 1 1746.56 322)">Medium</text>
  <text style="stroke:none;fill:black;font-family:sans-serif;font-size:13;text-anchor:middle;" transform="matrix(1 0 0 1 2043.27 322)">Semibold</text>
  <text style="stroke:none;fill:black;font-family:sans-serif;font-size:13;text-anchor:middle;" transform="matrix(1 0 0 1 2339.98 322)">Bold</text>
  <text style="stroke:none;fill:black;font-family:sans-serif;font-size:13;text-anchor:middle;" transform="matrix(1 0 0 1 2636.69 322)">Heavy</text>
  <text style="stroke:none;fill:black;font-family:sans-serif;font-size:13;text-anchor:middle;" transform="matrix(1 0 0 1 2933.4 322)">Black</text>
  <line style="fill:none;stroke:black;opacity:1;stroke-width:0.5;" x1="263" x2="3036" y1="1903" y2="1903"/>
  <g transform="matrix(0.2 0 0 0.2 263 1933)">
   <path d="m46.2402 4.15039c21.7773 0 39.4531-17.627 39.4531-39.4043s-17.6758-39.4043-39.4531-39.4043c-21.7285 0-39.4043 17.627-39.4043 39.4043s17.6758 39.4043 39.4043 39.4043Zm0-7.42188c-17.6758 0-31.9336-14.3066-31.9336-31.9824s14.2578-31.9824 31.9336-31.9824 31.9824 14.3066 31.9824 31.9824-14.3066 31.9824-31.9824 31.9824Zm-17.9688-31.9824c0 2.14844 1.51367 3.61328 3.75977 3.61328h10.498v10.5957c0 2.19727 1.46484 3.71094 3.61328 3.71094 2.24609 0 3.71094-1.51367 3.71094-3.71094v-10.5957h10.5957c2.19727 0 3.71094-1.46484 3.71094-3.61328 0-2.19727-1.51367-3.71094-3.71094-3.71094h-10.5957v-10.5469c0-2.24609-1.46484-3.75977-3.71094-3.75977-2.14844 0-3.61328 1.51367-3.61328 3.75977v10.5469h-10.498c-2.24609 0-3.75977 1.51367-3.75977 3.71094Z"/>
  </g>
  <g transform="matrix(0.2 0 0 0.2 281.506 1933)">
   <path d="m58.5449 14.5508c27.4902 0 49.8047-22.3145 49.8047-49.8047s-22.3145-49.8047-49.8047-49.8047-49.8047 22.3145-49.8047 49.8047 22.3145 49.8047 49.8047 49.8047Zm0-8.30078c-22.9492 0-41.5039-18.5547-41.5039-41.5039s18.5547-41.5039 41.5039-41.5039 41.5039 18.5547 41.5039 41.5039-18.5547 41.5039-41.5039 41.5039Zm-22.6562-41.5039c0 2.39258 1.66016 4.00391 4.15039 4.00391h14.3555v14.4043c0 2.44141 1.66016 4.15039 4.05273 4.15039 2.44141 0 4.15039-1.66016 4.15039-4.15039v-14.4043h14.4043c2.44141 0 4.15039-1.61133 4.15039-4.00391 0-2.44141-1.70898-4.15039-4.15039-4.15039h-14.4043v-14.3555c0-2.49023-1.70898-4.19922-4.15039-4.19922-2.39258 0-4.05273 1.70898-4.05273 4.19922v14.3555h-14.3555c-2.49023 0-4.15039 1.70898-4.15039 4.15039Z"/>
  </g>
  <g transform="matrix(0.2 0 0 0.2 304.924 1933)">
   <path d="m74.8535 28.3203c35.1074 0 63.623-28.4668 63.623-63.5742s-28.5156-63.623-63.623-63.623-63.5742 28.5156-63.5742 63.623 28.4668 63.5742 63.5742 63.5742Zm0-9.08203c-30.127 0-54.4922-24.3652-54.4922-54.4922s24.3652-54.4922 54.4922-54.4922 54.4922 24.3652 54.4922 54.4922-24.3652 54.4922-54.4922 54.4922Zm-28.8574-54.4922c0 2.58789 1.85547 4.39453 4.58984 4.39453h19.7266v19.7754c0 2.68555 1.85547 4.58984 4.44336 4.58984 2.68555 0 4.54102-1.85547 4.54102-4.58984v-19.7754h19.7754c2.68555 0 4.58984-1.80664 4.58984-4.39453 0-2.73438-1.85547-4.58984-4.58984-4.58984h-19.7754v-19.7266c0-2.73438-1.85547-4.63867-4.54102-4.63867-2.58789 0-4.44336 1.9043-4.44336 4.63867v19.7266h-19.7266c-2.73438 0-4.58984 1.85547-4.58984 4.58984Z"/>
  </g>
  <text style="stroke:none;fill:black;font-family:sans-serif;font-size:13;font-weight:bold;" transform="matrix(1 0 0 1 263 1953)">Design Variations</text>
  <text style="stroke:none;fill:black;font-family:sans-serif;font-size:13;" transform="matrix(1 0 0 1 263 1971)">Symbols are supported in up to nine weights and three scales.</text>
  <text style="stroke:none;fill:black;font-family:sans-serif;font-size:13;" transform="matrix(1 0 0 1 263 1989)">For optimal layout with text and other symbols, vertically align</text>
  <text style="stroke:none;fill:black;font-family:sans-serif;font-size:13;" transform="matrix(1 0 0 1 263 2007)">symbols with the adjacent text.</text>
  <line style="fill:none;stroke:#00AEEF;stroke-width:0.5;opacity:1.0;" x1="776" x2="776" y1="1919" y2="1933"/>
  <g transform="matrix(0.2 0 0 0.2 776 1933)">
   <path d="m16.5527 0.78125c2.58789 0 3.85742-0.976562 4.78516-3.71094l6.29883-17.2363h28.8086l6.29883 17.2363c0.927734 2.73438 2.19727 3.71094 4.73633 3.71094 2.58789 0 4.24805-1.5625 4.24805-4.00391 0-0.830078-0.146484-1.61133-0.537109-2.63672l-22.9004-60.9863c-1.12305-2.97852-3.125-4.49219-6.25-4.49219-3.02734 0-5.07812 1.46484-6.15234 4.44336l-22.9004 61.084c-0.390625 1.02539-0.537109 1.80664-0.537109 2.63672 0 2.44141 1.5625 3.95508 4.10156 3.95508Zm13.4766-28.3691 11.8652-32.8613h0.244141l11.8652 32.8613Z"/>
  </g>
  <line style="fill:none;stroke:#00AEEF;stroke-width:0.5;opacity:1.0;" x1="792.836" x2="792.836" y1="1919" y2="1933"/>
  <text style="stroke:none;fill:black;font-family:sans-serif;font-size:13;font-weight:bold;" transform="matrix(1 0 0 1 776 1953)">Margins</text>
  <text style="stroke:none;fill:black;font-family:sans-serif;font-size:13;" transform="matrix(1 0 0 1 776 1971)">Leading and trailing margins on the left and right side of each symbol</text>
  <text style="stroke:none;fill:black;font-family:sans-serif;font-size:13;" transform="matrix(1 0 0 1 776 1989)">can be adjusted by modifying the x-location of the margin guidelines.</text>
  <text style="stroke:none;fill:black;font-family:sans-serif;font-size:13;" transform="matrix(1 0 0 1 776 2007)">Modifications are automatically applied proportionally to all</text>
  <text style="stroke:none;fill:black;font-family:sans-serif;font-size:13;" transform="matrix(1 0 0 1 776 2025)">scales and weights.</text>
  <g transform="matrix(0.2 0 0 0.2 1289 1933)">
   <path d="m14.209 9.32617 8.49609 8.54492c4.29688 4.3457 9.22852 4.05273 13.8672-1.07422l53.4668-58.9355-4.83398-4.88281-53.0762 58.3984c-1.75781 2.00195-3.41797 2.49023-5.76172 0.146484l-5.85938-5.81055c-2.34375-2.29492-1.80664-4.00391 0.195312-5.81055l57.373-54.0039-4.88281-4.83398-57.959 54.4434c-4.93164 4.58984-5.32227 9.47266-1.02539 13.8184Zm32.0801-90.9668c-2.09961 2.05078-2.24609 4.93164-1.07422 6.88477 1.17188 1.80664 3.4668 2.97852 6.68945 2.14844 7.32422-1.70898 14.9414-2.00195 22.0703 2.68555l-2.92969 7.27539c-1.70898 4.15039-0.830078 7.08008 1.85547 9.81445l11.4746 11.5723c2.44141 2.44141 4.49219 2.53906 7.32422 2.05078l5.32227-0.976562 3.32031 3.36914-0.195312 2.7832c-0.195312 2.49023 0.439453 4.39453 2.88086 6.78711l3.80859 3.71094c2.39258 2.39258 5.46875 2.53906 7.8125 0.195312l14.5508-14.5996c2.34375-2.34375 2.24609-5.32227-0.146484-7.71484l-3.85742-3.80859c-2.39258-2.39258-4.24805-3.17383-6.64062-2.97852l-2.88086 0.244141-3.22266-3.17383 1.2207-5.61523c0.634766-2.83203-0.146484-5.0293-3.07617-7.95898l-10.9863-10.9375c-16.6992-16.6016-38.8672-16.2109-53.3203-1.75781Zm7.4707 1.85547c12.1582-8.88672 28.6133-7.37305 39.7461 3.75977l12.1582 12.0605c1.17188 1.17188 1.36719 2.09961 1.02539 3.80859l-1.61133 7.42188 7.51953 7.42188 4.93164-0.292969c1.26953-0.0488281 1.66016 0.0488281 2.63672 1.02539l2.88086 2.88086-12.207 12.207-2.88086-2.88086c-0.976562-0.976562-1.12305-1.36719-1.07422-2.68555l0.341797-4.88281-7.4707-7.42188-7.61719 1.26953c-1.61133 0.341797-2.34375 0.195312-3.56445-0.976562l-10.0098-10.0098c-1.26953-1.17188-1.41602-2.00195-0.634766-3.85742l4.39453-10.4492c-7.8125-7.27539-17.9688-10.4004-28.125-7.42188-0.78125 0.195312-1.07422-0.439453-0.439453-0.976562Z"/>
  </g>
  <text style="stroke:none;fill:black;font-family:sans-serif;font-size:13;font-weight:bold;" transform="matrix(1 0 0 1 1289 1953)">Exporting</text>
  <text style="stroke:none;fill:black;font-family:sans-serif;font-size:13;" transform="matrix(1 0 0 1 1289 1971)">Symbols should be outlined when exporting to ensure the</text>
  <text style="stroke:none;fill:black;font-family:sans-serif;font-size:13;" transform="matrix(1 0 0 1 1289 1989)">design is preserved when submitting to Xcode.</text>
  <text id="template-version" style="stroke:none;fill:black;font-family:sans-serif;font-size:13;text-anchor:end;" transform="matrix(1 0 0 1 3036 1933)">Template v.6.0</text>
  <text style="stroke:none;fill:black;font-family:sans-serif;font-size:13;text-anchor:end;" transform="matrix(1 0 0 1 3036 1951)">Requires Xcode 16 or greater</text>
  <text id="descriptive-name" style="stroke:none;fill:black;font-family:sans-serif;font-size:13;text-anchor:end;" transform="matrix(1 0 0 1 3036 1969)">Generated from square</text>
  <text style="stroke:none;fill:black;font-family:sans-serif;font-size:13;text-anchor:end;" transform="matrix(1 0 0 1 3036 1987)">Typeset at 100.0 points</text>
  <text style="stroke:none;fill:black;font-family:sans-serif;font-size:13;" transform="matrix(1 0 0 1 263 726)">Small</text>
  <text style="stroke:none;fill:black;font-family:sans-serif;font-size:13;" transform="matrix(1 0 0 1 263 1156)">Medium</text>
  <text style="stroke:none;fill:black;font-family:sans-serif;font-size:13;" transform="matrix(1 0 0 1 263 1586)">Large</text>
 </g>
 <g id="Guides">
  <g id="H-reference" style="fill:#27AAE1;stroke:none;" transform="matrix(1 0 0 1 339 696)">
   <path d="M0.993654 0L3.63775 0L29.3281-67.1323L30.0303-67.1323L30.0303-70.459L28.1226-70.459ZM11.6885-24.4799L46.9815-24.4799L46.2315-26.7285L12.4385-26.7285ZM55.1196 0L57.7637 0L30.6382-70.459L29.4326-70.459L29.4326-67.1323Z"/>
  </g>
  <line id="Baseline-S" style="fill:none;stroke:#27AAE1;opacity:1;stroke-width:0.5;" x1="263" x2="3036" y1="696" y2="696"/>
  <line id="Capline-S" style="fill:none;stroke:#27AAE1;opacity:1;stroke-width:0.5;" x1="263" x2="3036" y1="625.541" y2="625.541"/>
  <g id="H-reference" style="fill:#27AAE1;stroke:none;" transform="matrix(1 0 0 1 339 1126)">
   <path d="M0.993654 0L3.63775 0L29.3281-67.1323L30.0303-67.1323L30.0303-70.459L28.1226-70.459ZM11.6885-24.4799L46.9815-24.4799L46.2315-26.7285L12.4385-26.7285ZM55.1196 0L57.7637 0L30.6382-70.459L29.4326-70.459L29.4326-67.1323Z"/>
  </g>
  <line id="Baseline-M" style="fill:none;stroke:#27AAE1;opacity:1;stroke-width:0.5;" x1="263" x2="3036" y1="1126" y2="1126"/>
  <line id="Capline-M" style="fill:none;stroke:#27AAE1;opacity:1;stroke-width:0.5;" x1="263" x2="3036" y1="1055.54" y2="1055.54"/>
  <g id="H-reference" style="fill:#27AAE1;stroke:none;" transform="matrix(1 0 0 1 339 1556)">
   <path d="M0.993654 0L3.63775 0L29.3281-67.1323L30.0303-67.1323L30.0303-70.459L28.1226-70.459ZM11.6885-24.4799L46.9815-24.4799L46.2315-26.7285L12.4385-26.7285ZM55.1196 0L57.7637 0L30.6382-70.459L29.4326-70.459L29.4326-67.1323Z"/>
  </g>
  <line id="Baseline-L" style="fill:none;stroke:#27AAE1;opacity:1;stroke-width:0.5;" x1="263" x2="3036" y1="1556" y2="1556"/>
  <line id="Capline-L" style="fill:none;stroke:#27AAE1;opacity:1;stroke-width:0.5;" x1="263" x2="3036" y1="1485.54" y2="1485.54"/>
  <line id="right-margin-Black-S" style="fill:none;stroke:#00AEEF;stroke-width:0.5;opacity:1.0;" x1="2981.3" x2="2981.3" y1="600.785" y2="720.121"/>
  <line id="left-margin-Black-S" style="fill:none;stroke:#00AEEF;stroke-width:0.5;opacity:1.0;" x1="2885.5" x2="2885.5" y1="600.785" y2="720.121"/>
  <line id="right-margin-Regular-S" style="fill:none;stroke:#00AEEF;stroke-width:0.5;opacity:1.0;" x1="1495.18" x2="1495.18" y1="600.785" y2="720.121"/>
  <line id="left-margin-Regular-S" style="fill:none;stroke:#00AEEF;stroke-width:0.5;opacity:1.0;" x1="1404.51" x2="1404.51" y1="600.785" y2="720.121"/>
  <line id="right-margin-Ultralight-S" style="fill:none;stroke:#00AEEF;stroke-width:0.5;opacity:1.0;" x1="603.073" x2="603.073" y1="600.785" y2="720.121"/>
  <line id="left-margin-Ultralight-S" style="fill:none;stroke:#00AEEF;stroke-width:0.5;opacity:1.0;" x1="516.35" x2="516.35" y1="600.785" y2="720.121"/>
 </g>
 <g id="Symbols">
  <g id="Black-S"><path d="M2917.13585,632.32617c-0.60184,0.28771 -1.08918,0.81028 -1.23597,1.32111c-0.06165,0.22018 -0.1145,1.4356 -0.1145,2.70093v2.30166l-1.79083,0.07633c-2.08148,0.08514 -3.22937,0.33468 -4.42424,0.96294c-2.19304,1.15083 -3.71965,3.01212 -4.48882,5.46351l-0.27596,0.87487v17.96704v17.96704l0.27009,0.93358c0.71046,2.45139 2.41028,4.48882 4.66204,5.58681c1.93175,0.94239 0.00881,0.86312 22.84045,0.90716c13.59565,0.02642 20.75604,0 21.51935,-0.0822c3.64332,-0.39046 6.60259,-2.87708 7.62719,-6.41177l0.27009,-0.93358v-17.90833v-17.90833l-0.26716,-0.91597c-0.72514,-2.51304 -2.35157,-4.4624 -4.70607,-5.6514c-1.04221,-0.52844 -2.24588,-0.76918 -4.2158,-0.85138l-1.79083,-0.07633v-2.29872c0,-1.26533 -0.05578,-2.49542 -0.12037,-2.73029c-0.14385,-0.51376 -0.85138,-1.189 -1.45909,-1.38863c-0.93945,-0.31119 -2.14606,0.21138 -2.59818,1.12734c-0.19376,0.3934 -0.22899,0.78092 -0.26422,2.89175l-0.0411,2.43671h-13.13179h-13.13179l-0.0411,-2.43671c-0.03523,-2.19891 -0.06165,-2.48368 -0.28477,-2.90643c-0.52551,-1.00991 -1.83193,-1.48257 -2.80662,-1.01872M2955.04278,643.54383c0.86899,0.42569 1.72918,1.28588 2.15487,2.15487c0.32587,0.66642 0.33468,0.73395 0.37578,2.93579l0.03817,2.25762l-0.70459,-0.34349c-0.38752,-0.18789 -1.03927,-0.4345 -1.45028,-0.55193c-0.70165,-0.19963 -1.88478,-0.21138 -21.99788,-0.21138c-20.07787,0 -21.3021,0.01174 -22.07715,0.21138c-0.45211,0.1145 -1.12441,0.35817 -1.49725,0.53725l-0.67523,0.32587v-2.08735c0,-1.82606 0.02936,-2.17249 0.24367,-2.74203c0.46092,-1.23597 1.48257,-2.2312 2.72735,-2.66276c0.58129,-0.19963 1.63524,-0.20844 21.39604,-0.18495l20.7854,0.02642l0.6811,0.33468M2955.15141,654.63231c0.90716,0.44918 1.62056,1.18312 2.0756,2.14019l0.30532,0.64587l0.03523,11.74316c0.02642,8.60774 0,11.91638 -0.09982,12.38904c-0.30532,1.44441 -1.41799,2.67157 -2.88588,3.17653c-0.65175,0.22312 -1.13615,0.22899 -21.18173,0.22899c-19.54356,0 -20.54467,-0.00881 -21.16412,-0.21431c-1.36221,-0.44918 -2.62753,-1.79964 -2.90937,-3.10313c-0.09395,-0.44037 -0.12037,-3.98093 -0.09395,-12.4184l0.03523,-11.80188l0.30826,-0.66055c0.53138,-1.13028 1.4679,-1.97579 2.66863,-2.40441c0.34936,-0.12624 4.33616,-0.14973 21.27568,-0.12917l20.84705,0.02349l0.78386,0.38459M2932.51646,660.92371c-0.83376,0.37872 -1.4356,1.4679 -1.29762,2.34863c0.31119,1.96111 2.93579,2.53065 4.03084,0.87487c0.26422,-0.4022 0.32294,-0.61652 0.32,-1.21248c0,-0.82789 -0.2789,-1.35046 -0.96588,-1.82019c-0.49028,-0.33762 -1.55303,-0.4345 -2.08735,-0.19083M2939.09557,660.95013c-0.4756,0.24661 -0.86606,0.62239 -1.08624,1.04514c-0.23486,0.45211 -0.23193,1.4356 0.00587,1.89652c0.26422,0.51083 0.94826,1.07744 1.40037,1.15964c0.21138,0.03817 2.10496,0.05578 4.20992,0.03523l3.82534,-0.03523l0.4345,-0.32881c0.84551,-0.64881 1.12147,-1.7556 0.67817,-2.72441c-0.25835,-0.5578 -0.51964,-0.81028 -1.10092,-1.05101c-0.64587,-0.27009 -7.84737,-0.26716 -8.367,0.00294M2919.20558,667.59676c-1.0011,0.49321 -1.4679,1.78203 -1.03046,2.83304c0.19083,0.45505 0.89542,1.10092 1.34166,1.22422c0.17615,0.04991 3.49066,0.09101 7.3659,0.09101h7.0459l0.54019,-0.31707c0.62239,-0.36697 0.87193,-0.69578 1.05982,-1.40918c0.25248,-0.96588 -0.2789,-2.01982 -1.24184,-2.45726c-0.4433,-0.19963 -0.93945,-0.21431 -7.5215,-0.21725c-6.99305,-0.00294 -7.04883,0 -7.55966,0.25248M2939.2952,667.47346c-0.21138,0.06165 -0.59009,0.31707 -0.8367,0.56367c-1.38569,1.38569 -0.34349,3.77543 1.63524,3.76368c0.42275,-0.00294 1.18312,-0.38165 1.54716,-0.77505c0.8367,-0.89248 0.75743,-2.24294 -0.17615,-3.06203c-0.63707,-0.56074 -1.35927,-0.7222 -2.16955,-0.49028M2946.03284,667.42061c-0.49615,0.13798 -1.12734,0.6723 -1.35634,1.14496c-0.45211,0.93652 -0.25835,1.94643 0.50496,2.61873c1.09211,0.95707 2.57175,0.71927 3.33799,-0.53431c0.56367,-0.92477 0.20844,-2.37212 -0.72514,-2.95047c-0.40514,-0.25248 -1.33872,-0.39927 -1.76147,-0.2789M2919.95421,673.99972c-0.12917,0.02349 -0.35229,0.07046 -0.49615,0.09982c-0.37872,0.0822 -1.09799,0.74863 -1.28294,1.19193c-0.63413,1.5178 0.58422,3.21763 2.19597,3.06203c1.81138,-0.17321 2.65983,-2.34863 1.42386,-3.65506c-0.50202,-0.53138 -1.24478,-0.81321 -1.84074,-0.69872M2926.33368,674.03202c-0.89835,0.16734 -1.5912,0.92184 -1.69982,1.85248c-0.09395,0.7956 0.10862,1.32991 0.71633,1.89065c1.40037,1.28881 3.60222,0.33762 3.62864,-1.56771c0.01174,-0.80441 -0.33174,-1.44147 -0.9923,-1.83781c-0.59597,-0.35817 -1.04221,-0.44918 -1.65285,-0.33762M2933.10655,673.99972c-0.63707,0.11743 -0.77211,0.17615 -1.12441,0.46973c-0.20551,0.17615 -0.47266,0.53138 -0.59303,0.79266c-0.93065,2.05505 1.62349,4.05139 3.35561,2.6246c0.79854,-0.66055 1.0745,-1.64991 0.70459,-2.53359c-0.4022,-0.96 -1.38569,-1.52955 -2.34276,-1.3534M2939.54768,674.03495c-0.86899,0.19376 -1.55303,0.92477 -1.72331,1.84368c-0.10862,0.58129 0.21431,1.48551 0.67523,1.89065c1.66166,1.45909 4.06901,0.04697 3.658,-2.14313c-0.08807,-0.46973 -0.64294,-1.16844 -1.11266,-1.40331c-0.41101,-0.20844 -1.04514,-0.28771 -1.49725,-0.18789" className="SFSymbolsPreviewWireframe"/></g>
  <g id="Regular-S"><path d="M1433.5808,632.32617c-0.60184,0.28771 -1.08918,0.81028 -1.23597,1.32111c-0.06165,0.22018 -0.1145,1.4356 -0.1145,2.70093v2.30166l-1.79083,0.07633c-2.08148,0.08514 -3.22937,0.33468 -4.42424,0.96294c-2.19304,1.15083 -3.71965,3.01212 -4.48882,5.46351l-0.27596,0.87487v17.96704v17.96704l0.27009,0.93358c0.71046,2.45139 2.41028,4.48882 4.66204,5.58681c1.93175,0.94239 0.00881,0.86312 22.84045,0.90716c13.59565,0.02642 20.75604,0 21.51935,-0.0822c3.64332,-0.39046 6.60259,-2.87708 7.62719,-6.41177l0.27009,-0.93358v-17.90833v-17.90833l-0.26716,-0.91597c-0.72514,-2.51304 -2.35157,-4.4624 -4.70607,-5.6514c-1.04221,-0.52844 -2.24588,-0.76918 -4.2158,-0.85138l-1.79083,-0.07633v-2.29872c0,-1.26533 -0.05578,-2.49542 -0.12037,-2.73029c-0.14385,-0.51376 -0.85138,-1.189 -1.45909,-1.38863c-0.93945,-0.31119 -2.14606,0.21138 -2.59818,1.12734c-0.19376,0.3934 -0.22899,0.78092 -0.26422,2.89175l-0.0411,2.43671h-13.13179h-13.13179l-0.0411,-2.43671c-0.03523,-2.19891 -0.06165,-2.48368 -0.28477,-2.90643c-0.52551,-1.00991 -1.83193,-1.48257 -2.80662,-1.01872M1471.48773,643.54383c0.86899,0.42569 1.72918,1.28588 2.15487,2.15487c0.32587,0.66642 0.33468,0.73395 0.37578,2.93579l0.03817,2.25762l-0.70459,-0.34349c-0.38752,-0.18789 -1.03927,-0.4345 -1.45028,-0.55193c-0.70165,-0.19963 -1.88478,-0.21138 -21.99788,-0.21138c-20.07787,0 -21.3021,0.01174 -22.07715,0.21138c-0.45211,0.1145 -1.12441,0.35817 -1.49725,0.53725l-0.67523,0.32587v-2.08735c0,-1.82606 0.02936,-2.17249 0.24367,-2.74203c0.46092,-1.23597 1.48257,-2.2312 2.72735,-2.66276c0.58129,-0.19963 1.63524,-0.20844 21.39604,-0.18495l20.7854,0.02642l0.6811,0.33468M1471.59636,654.63231c0.90716,0.44918 1.62056,1.18312 2.0756,2.14019l0.30532,0.64587l0.03523,11.74316c0.02642,8.60774 0,11.91638 -0.09982,12.38904c-0.30532,1.44441 -1.41799,2.67157 -2.88588,3.17653c-0.65175,0.22312 -1.13615,0.22899 -21.18173,0.22899c-19.54356,0 -20.54467,-0.00881 -21.16412,-0.21431c-1.36221,-0.44918 -2.62753,-1.79964 -2.90937,-3.10313c-0.09395,-0.44037 -0.12037,-3.98093 -0.09395,-12.4184l0.03523,-11.80188l0.30826,-0.66055c0.53138,-1.13028 1.4679,-1.97579 2.66863,-2.40441c0.34936,-0.12624 4.33616,-0.14973 21.27568,-0.12917l20.84705,0.02349l0.78386,0.38459M1448.96141,660.92371c-0.83376,0.37872 -1.4356,1.4679 -1.29762,2.34863c0.31119,1.96111 2.93579,2.53065 4.03084,0.87487c0.26422,-0.4022 0.32294,-0.61652 0.32,-1.21248c0,-0.82789 -0.2789,-1.35046 -0.96588,-1.82019c-0.49028,-0.33762 -1.55303,-0.4345 -2.08735,-0.19083M1455.54052,660.95013c-0.4756,0.24661 -0.86606,0.62239 -1.08624,1.04514c-0.23486,0.45211 -0.23193,1.4356 0.00587,1.89652c0.26422,0.51083 0.94826,1.07744 1.40037,1.15964c0.21138,0.03817 2.10496,0.05578 4.20992,0.03523l3.82534,-0.03523l0.4345,-0.32881c0.84551,-0.64881 1.12147,-1.7556 0.67817,-2.72441c-0.25835,-0.5578 -0.51964,-0.81028 -1.10092,-1.05101c-0.64587,-0.27009 -7.84737,-0.26716 -8.367,0.00294M1435.65053,667.59676c-1.0011,0.49321 -1.4679,1.78203 -1.03046,2.83304c0.19083,0.45505 0.89542,1.10092 1.34166,1.22422c0.17615,0.04991 3.49066,0.09101 7.3659,0.09101h7.0459l0.54019,-0.31707c0.62239,-0.36697 0.87193,-0.69578 1.05982,-1.40918c0.25248,-0.96588 -0.2789,-2.01982 -1.24184,-2.45726c-0.4433,-0.19963 -0.93945,-0.21431 -7.5215,-0.21725c-6.99305,-0.00294 -7.04883,0 -7.55966,0.25248M1455.74015,667.47346c-0.21138,0.06165 -0.59009,0.31707 -0.8367,0.56367c-1.38569,1.38569 -0.34349,3.77543 1.63524,3.76368c0.42275,-0.00294 1.18312,-0.38165 1.54716,-0.77505c0.8367,-0.89248 0.75743,-2.24294 -0.17615,-3.06203c-0.63707,-0.56074 -1.35927,-0.7222 -2.16955,-0.49028M1462.47779,667.42061c-0.49615,0.13798 -1.12734,0.6723 -1.35634,1.14496c-0.45211,0.93652 -0.25835,1.94643 0.50496,2.61873c1.09211,0.95707 2.57175,0.71927 3.33799,-0.53431c0.56367,-0.92477 0.20844,-2.37212 -0.72514,-2.95047c-0.40514,-0.25248 -1.33872,-0.39927 -1.76147,-0.2789M1436.39916,673.99972c-0.12917,0.02349 -0.35229,0.07046 -0.49615,0.09982c-0.37872,0.0822 -1.09799,0.74863 -1.28294,1.19193c-0.63413,1.5178 0.58422,3.21763 2.19597,3.06203c1.81138,-0.17321 2.65983,-2.34863 1.42386,-3.65506c-0.50202,-0.53138 -1.24478,-0.81321 -1.84074,-0.69872M1442.77863,674.03202c-0.89835,0.16734 -1.5912,0.92184 -1.69982,1.85248c-0.09395,0.7956 0.10862,1.32991 0.71633,1.89065c1.40037,1.28881 3.60222,0.33762 3.62864,-1.56771c0.01174,-0.80441 -0.33174,-1.44147 -0.9923,-1.83781c-0.59597,-0.35817 -1.04221,-0.44918 -1.65285,-0.33762M1449.5515,673.99972c-0.63707,0.11743 -0.77211,0.17615 -1.12441,0.46973c-0.20551,0.17615 -0.47266,0.53138 -0.59303,0.79266c-0.93065,2.05505 1.62349,4.05139 3.35561,2.6246c0.79854,-0.66055 1.0745,-1.64991 0.70459,-2.53359c-0.4022,-0.96 -1.38569,-1.52955 -2.34276,-1.3534M1455.99263,674.03495c-0.86899,0.19376 -1.55303,0.92477 -1.72331,1.84368c-0.10862,0.58129 0.21431,1.48551 0.67523,1.89065c1.66166,1.45909 4.06901,0.04697 3.658,-2.14313c-0.08807,-0.46973 -0.64294,-1.16844 -1.11266,-1.40331c-0.41101,-0.20844 -1.04514,-0.28771 -1.49725,-0.18789" className="SFSymbolsPreviewWireframe"/></g>
  <g id="Ultralight-S"><path d="M543.44721,632.32617c-0.60184,0.28771 -1.08918,0.81028 -1.23597,1.32111c-0.06165,0.22018 -0.1145,1.4356 -0.1145,2.70093v2.30166l-1.79083,0.07633c-2.08148,0.08514 -3.22937,0.33468 -4.42424,0.96294c-2.19304,1.15083 -3.71965,3.01212 -4.48882,5.46351l-0.27596,0.87487v17.96704v17.96704l0.27009,0.93358c0.71046,2.45139 2.41028,4.48882 4.66204,5.58681c1.93175,0.94239 0.00881,0.86312 22.84045,0.90716c13.59565,0.02642 20.75604,0 21.51935,-0.0822c3.64332,-0.39046 6.60259,-2.87708 7.62719,-6.41177l0.27009,-0.93358v-17.90833v-17.90833l-0.26716,-0.91597c-0.72514,-2.51304 -2.35157,-4.4624 -4.70607,-5.6514c-1.04221,-0.52844 -2.24588,-0.76918 -4.2158,-0.85138l-1.79083,-0.07633v-2.29872c0,-1.26533 -0.05578,-2.49542 -0.12037,-2.73029c-0.14385,-0.51376 -0.85138,-1.189 -1.45909,-1.38863c-0.93945,-0.31119 -2.14606,0.21138 -2.59818,1.12734c-0.19376,0.3934 -0.22899,0.78092 -0.26422,2.89175l-0.0411,2.43671h-13.13179h-13.13179l-0.0411,-2.43671c-0.03523,-2.19891 -0.06165,-2.48368 -0.28477,-2.90643c-0.52551,-1.00991 -1.83193,-1.48257 -2.80662,-1.01872M581.35414,643.54383c0.86899,0.42569 1.72918,1.28588 2.15487,2.15487c0.32587,0.66642 0.33468,0.73395 0.37578,2.93579l0.03817,2.25762l-0.70459,-0.34349c-0.38752,-0.18789 -1.03927,-0.4345 -1.45028,-0.55193c-0.70165,-0.19963 -1.88478,-0.21138 -21.99788,-0.21138c-20.07787,0 -21.3021,0.01174 -22.07715,0.21138c-0.45211,0.1145 -1.12441,0.35817 -1.49725,0.53725l-0.67523,0.32587v-2.08735c0,-1.82606 0.02936,-2.17249 0.24367,-2.74203c0.46092,-1.23597 1.48257,-2.2312 2.72735,-2.66276c0.58129,-0.19963 1.63524,-0.20844 21.39604,-0.18495l20.7854,0.02642l0.6811,0.33468M581.46277,654.63231c0.90716,0.44918 1.62056,1.18312 2.0756,2.14019l0.30532,0.64587l0.03523,11.74316c0.02642,8.60774 0,11.91638 -0.09982,12.38904c-0.30532,1.44441 -1.41799,2.67157 -2.88588,3.17653c-0.65175,0.22312 -1.13615,0.22899 -21.18173,0.22899c-19.54356,0 -20.54467,-0.00881 -21.16412,-0.21431c-1.36221,-0.44918 -2.62753,-1.79964 -2.90937,-3.10313c-0.09395,-0.44037 -0.12037,-3.98093 -0.09395,-12.4184l0.03523,-11.80188l0.30826,-0.66055c0.53138,-1.13028 1.4679,-1.97579 2.66863,-2.40441c0.34936,-0.12624 4.33616,-0.14973 21.27568,-0.12917l20.84705,0.02349l0.78386,0.38459M558.82782,660.92371c-0.83376,0.37872 -1.4356,1.4679 -1.29762,2.34863c0.31119,1.96111 2.93579,2.53065 4.03084,0.87487c0.26422,-0.4022 0.32294,-0.61652 0.32,-1.21248c0,-0.82789 -0.2789,-1.35046 -0.96588,-1.82019c-0.49028,-0.33762 -1.55303,-0.4345 -2.08735,-0.19083M565.40693,660.95013c-0.4756,0.24661 -0.86606,0.62239 -1.08624,1.04514c-0.23486,0.45211 -0.23193,1.4356 0.00587,1.89652c0.26422,0.51083 0.94826,1.07744 1.40037,1.15964c0.21138,0.03817 2.10496,0.05578 4.20992,0.03523l3.82534,-0.03523l0.4345,-0.32881c0.84551,-0.64881 1.12147,-1.7556 0.67817,-2.72441c-0.25835,-0.5578 -0.51964,-0.81028 -1.10092,-1.05101c-0.64587,-0.27009 -7.84737,-0.26716 -8.367,0.00294M545.51694,667.59676c-1.0011,0.49321 -1.4679,1.78203 -1.03046,2.83304c0.19083,0.45505 0.89542,1.10092 1.34166,1.22422c0.17615,0.04991 3.49066,0.09101 7.3659,0.09101h7.0459l0.54019,-0.31707c0.62239,-0.36697 0.87193,-0.69578 1.05982,-1.40918c0.25248,-0.96588 -0.2789,-2.01982 -1.24184,-2.45726c-0.4433,-0.19963 -0.93945,-0.21431 -7.5215,-0.21725c-6.99305,-0.00294 -7.04883,0 -7.55966,0.25248M565.60656,667.47346c-0.21138,0.06165 -0.59009,0.31707 -0.8367,0.56367c-1.38569,1.38569 -0.34349,3.77543 1.63524,3.76368c0.42275,-0.00294 1.18312,-0.38165 1.54716,-0.77505c0.8367,-0.89248 0.75743,-2.24294 -0.17615,-3.06203c-0.63707,-0.56074 -1.35927,-0.7222 -2.16955,-0.49028M572.3442,667.42061c-0.49615,0.13798 -1.12734,0.6723 -1.35634,1.14496c-0.45211,0.93652 -0.25835,1.94643 0.50496,2.61873c1.09211,0.95707 2.57175,0.71927 3.33799,-0.53431c0.56367,-0.92477 0.20844,-2.37212 -0.72514,-2.95047c-0.40514,-0.25248 -1.33872,-0.39927 -1.76147,-0.2789M546.26557,673.99972c-0.12917,0.02349 -0.35229,0.07046 -0.49615,0.09982c-0.37872,0.0822 -1.09799,0.74863 -1.28294,1.19193c-0.63413,1.5178 0.58422,3.21763 2.19597,3.06203c1.81138,-0.17321 2.65983,-2.34863 1.42386,-3.65506c-0.50202,-0.53138 -1.24478,-0.81321 -1.84074,-0.69872M552.64504,674.03202c-0.89835,0.16734 -1.5912,0.92184 -1.69982,1.85248c-0.09395,0.7956 0.10862,1.32991 0.71633,1.89065c1.40037,1.28881 3.60222,0.33762 3.62864,-1.56771c0.01174,-0.80441 -0.33174,-1.44147 -0.9923,-1.83781c-0.59597,-0.35817 -1.04221,-0.44918 -1.65285,-0.33762M559.41791,673.99972c-0.63707,0.11743 -0.77211,0.17615 -1.12441,0.46973c-0.20551,0.17615 -0.47266,0.53138 -0.59303,0.79266c-0.93065,2.05505 1.62349,4.05139 3.35561,2.6246c0.79854,-0.66055 1.0745,-1.64991 0.70459,-2.53359c-0.4022,-0.96 -1.38569,-1.52955 -2.34276,-1.3534M565.85904,674.03495c-0.86899,0.19376 -1.55303,0.92477 -1.72331,1.84368c-0.10862,0.58129 0.21431,1.48551 0.67523,1.89065c1.66166,1.45909 4.06901,0.04697 3.658,-2.14313c-0.08807,-0.46973 -0.64294,-1.16844 -1.11266,-1.40331c-0.41101,-0.20844 -1.04514,-0.28771 -1.49725,-0.18789" className="SFSymbolsPreviewWireframe"/></g>
 </g>
</svg>