<?xml version="1.0" encoding="UTF-8"?><!--Generator: https://SymbolKit.app--><!DOCTYPE svg PUBLIC "-//W3C//DTD SVG 1.1//EN" "http://www.w3.org/Graphics/SVG/1.1/DTD/svg11.dtd"><svg xmlns="http://www.w3.org/2000/svg" xmlns:xlink="http://www.w3.org/1999/xlink" version="1.1" viewBox="0 0 3300 2200">
 <!--glyph: "100092", point size: 100.0, font version: "20.0d10e1", template writer version: "138.0.0"-->
 <style>.SFSymbolsPreviewWireframe {fill:none;opacity:1.0;stroke:black;stroke-width:0.5}
</style>
 <g id="Notes">
  <rect height="2200" id="artboard" style="fill:white;opacity:1" width="3300" x="0" y="0"/>
  <line style="fill:none;stroke:black;opacity:1;stroke-width:0.5;" x1="263" x2="3036" y1="292" y2="292"/>
  <text style="stroke:none;fill:black;font-family:sans-serif;font-size:13;font-weight:bold;" transform="matrix(1 0 0 1 263 322)">Weight/Scale Variations</text>
  <text style="stroke:none;fill:black;font-family:sans-serif;font-size:13;text-anchor:middle;" transform="matrix(1 0 0 1 559.711 322)">Ultralight</text>
  <text style="stroke:none;fill:black;font-family:sans-serif;font-size:13;text-anchor:middle;" transform="matrix(1 0 0 1 856.422 322)">Thin</text>
  <text style="stroke:none;fill:black;font-family:sans-serif;font-size:13;text-anchor:middle;" transform="matrix(1 0 0 1 1153.13 322)">Light</text>
  <text style="stroke:none;fill:black;font-family:sans-serif;font-size:13;text-anchor:middle;" transform="matrix(1 0 0 1 1449.84 322)">Regular</text>
  <text style="stroke:none;fill:black;font-family:sans-serif;font-size:13;text-anchor:middle;" transform="matrix(1 0 0 1 1746.56 322)">Medium</text>
  <text style="stroke:none;fill:black;font-family:sans-serif;font-size:13;text-anchor:middle;" transform="matrix(1 0 0 1 2043.27 322)">Semibold</text>
  <text style="stroke:none;fill:black;font-family:sans-serif;font-size:13;text-anchor:middle;" transform="matrix(1 0 0 1 2339.98 322)">Bold</text>
  <text style="stroke:none;fill:black;font-family:sans-serif;font-size:13;text-anchor:middle;" transform="matrix(1 0 0 1 2636.69 322)">Heavy</text>
  <text style="stroke:none;fill:black;font-family:sans-serif;font-size:13;text-anchor:middle;" transform="matrix(1 0 0 1 2933.4 322)">Black</text>
  <line style="fill:none;stroke:black;opacity:1;stroke-width:0.5;" x1="263" x2="3036" y1="1903" y2="1903"/>
  <g transform="matrix(0.2 0 0 0.2 263 1933)">
   <path d="m46.2402 4.15039c21.7773 0 39.4531-17.627 39.4531-39.4043s-17.6758-39.4043-39.4531-39.4043c-21.7285 0-39.4043 17.627-39.4043 39.4043s17.6758 39.4043 39.4043 39.4043Zm0-7.42188c-17.6758 0-31.9336-14.3066-31.9336-31.9824s14.2578-31.9824 31.9336-31.9824 31.9824 14.3066 31.9824 31.9824-14.3066 31.9824-31.9824 31.9824Zm-17.9688-31.9824c0 2.14844 1.51367 3.61328 3.75977 3.61328h10.498v10.5957c0 2.19727 1.46484 3.71094 3.61328 3.71094 2.24609 0 3.71094-1.51367 3.71094-3.71094v-10.5957h10.5957c2.19727 0 3.71094-1.46484 3.71094-3.61328 0-2.19727-1.51367-3.71094-3.71094-3.71094h-10.5957v-10.5469c0-2.24609-1.46484-3.75977-3.71094-3.75977-2.14844 0-3.61328 1.51367-3.61328 3.75977v10.5469h-10.498c-2.24609 0-3.75977 1.51367-3.75977 3.71094Z"/>
  </g>
  <g transform="matrix(0.2 0 0 0.2 281.506 1933)">
   <path d="m58.5449 14.5508c27.4902 0 49.8047-22.3145 49.8047-49.8047s-22.3145-49.8047-49.8047-49.8047-49.8047 22.3145-49.8047 49.8047 22.3145 49.8047 49.8047 49.8047Zm0-8.30078c-22.9492 0-41.5039-18.5547-41.5039-41.5039s18.5547-41.5039 41.5039-41.5039 41.5039 18.5547 41.5039 41.5039-18.5547 41.5039-41.5039 41.5039Zm-22.6562-41.5039c0 2.39258 1.66016 4.00391 4.15039 4.00391h14.3555v14.4043c0 2.44141 1.66016 4.15039 4.05273 4.15039 2.44141 0 4.15039-1.66016 4.15039-4.15039v-14.4043h14.4043c2.44141 0 4.15039-1.61133 4.15039-4.00391 0-2.44141-1.70898-4.15039-4.15039-4.15039h-14.4043v-14.3555c0-2.49023-1.70898-4.19922-4.15039-4.19922-2.39258 0-4.05273 1.70898-4.05273 4.19922v14.3555h-14.3555c-2.49023 0-4.15039 1.70898-4.15039 4.15039Z"/>
  </g>
  <g transform="matrix(0.2 0 0 0.2 304.924 1933)">
   <path d="m74.8535 28.3203c35.1074 0 63.623-28.4668 63.623-63.5742s-28.5156-63.623-63.623-63.623-63.5742 28.5156-63.5742 63.623 28.4668 63.5742 63.5742 63.5742Zm0-9.08203c-30.127 0-54.4922-24.3652-54.4922-54.4922s24.3652-54.4922 54.4922-54.4922 54.4922 24.3652 54.4922 54.4922-24.3652 54.4922-54.4922 54.4922Zm-28.8574-54.4922c0 2.58789 1.85547 4.39453 4.58984 4.39453h19.7266v19.7754c0 2.68555 1.85547 4.58984 4.44336 4.58984 2.68555 0 4.54102-1.85547 4.54102-4.58984v-19.7754h19.7754c2.68555 0 4.58984-1.80664 4.58984-4.39453 0-2.73438-1.85547-4.58984-4.58984-4.58984h-19.7754v-19.7266c0-2.73438-1.85547-4.63867-4.54102-4.63867-2.58789 0-4.44336 1.9043-4.44336 4.63867v19.7266h-19.7266c-2.73438 0-4.58984 1.85547-4.58984 4.58984Z"/>
  </g>
  <text style="stroke:none;fill:black;font-family:sans-serif;font-size:13;font-weight:bold;" transform="matrix(1 0 0 1 263 1953)">Design Variations</text>
  <text style="stroke:none;fill:black;font-family:sans-serif;font-size:13;" transform="matrix(1 0 0 1 263 1971)">Symbols are supported in up to nine weights and three scales.</text>
  <text style="stroke:none;fill:black;font-family:sans-serif;font-size:13;" transform="matrix(1 0 0 1 263 1989)">For optimal layout with text and other symbols, vertically align</text>
  <text style="stroke:none;fill:black;font-family:sans-serif;font-size:13;" transform="matrix(1 0 0 1 263 2007)">symbols with the adjacent text.</text>
  <line style="fill:none;stroke:#00AEEF;stroke-width:0.5;opacity:1.0;" x1="776" x2="776" y1="1919" y2="1933"/>
  <g transform="matrix(0.2 0 0 0.2 776 1933)">
   <path d="m16.5527 0.78125c2.58789 0 3.85742-0.976562 4.78516-3.71094l6.29883-17.2363h28.8086l6.29883 17.2363c0.927734 2.73438 2.19727 3.71094 4.73633 3.71094 2.58789 0 4.24805-1.5625 4.24805-4.00391 0-0.830078-0.146484-1.61133-0.537109-2.63672l-22.9004-60.9863c-1.12305-2.97852-3.125-4.49219-6.25-4.49219-3.02734 0-5.07812 1.46484-6.15234 4.44336l-22.9004 61.084c-0.390625 1.02539-0.537109 1.80664-0.537109 2.63672 0 2.44141 1.5625 3.95508 4.10156 3.95508Zm13.4766-28.3691 11.8652-32.8613h0.244141l11.8652 32.8613Z"/>
  </g>
  <line style="fill:none;stroke:#00AEEF;stroke-width:0.5;opacity:1.0;" x1="792.836" x2="792.836" y1="1919" y2="1933"/>
  <text style="stroke:none;fill:black;font-family:sans-serif;font-size:13;font-weight:bold;" transform="matrix(1 0 0 1 776 1953)">Margins</text>
  <text style="stroke:none;fill:black;font-family:sans-serif;font-size:13;" transform="matrix(1 0 0 1 776 1971)">Leading and trailing margins on the left and right side of each symbol</text>
  <text style="stroke:none;fill:black;font-family:sans-serif;font-size:13;" transform="matrix(1 0 0 1 776 1989)">can be adjusted by modifying the x-location of the margin guidelines.</text>
  <text style="stroke:none;fill:black;font-family:sans-serif;font-size:13;" transform="matrix(1 0 0 1 776 2007)">Modifications are automatically applied proportionally to all</text>
  <text style="stroke:none;fill:black;font-family:sans-serif;font-size:13;" transform="matrix(1 0 0 1 776 2025)">scales and weights.</text>
  <g transform="matrix(0.2 0 0 0.2 1289 1933)">
   <path d="m14.209 9.32617 8.49609 8.54492c4.29688 4.3457 9.22852 4.05273 13.8672-1.07422l53.4668-58.9355-4.83398-4.88281-53.0762 58.3984c-1.75781 2.00195-3.41797 2.49023-5.76172 0.146484l-5.85938-5.81055c-2.34375-2.29492-1.80664-4.00391 0.195312-5.81055l57.373-54.0039-4.88281-4.83398-57.959 54.4434c-4.93164 4.58984-5.32227 9.47266-1.02539 13.8184Zm32.0801-90.9668c-2.09961 2.05078-2.24609 4.93164-1.07422 6.88477 1.17188 1.80664 3.4668 2.97852 6.68945 2.14844 7.32422-1.70898 14.9414-2.00195 22.0703 2.68555l-2.92969 7.27539c-1.70898 4.15039-0.830078 7.08008 1.85547 9.81445l11.4746 11.5723c2.44141 2.44141 4.49219 2.53906 7.32422 2.05078l5.32227-0.976562 3.32031 3.36914-0.195312 2.7832c-0.195312 2.49023 0.439453 4.39453 2.88086 6.78711l3.80859 3.71094c2.39258 2.39258 5.46875 2.53906 7.8125 0.195312l14.5508-14.5996c2.34375-2.34375 2.24609-5.32227-0.146484-7.71484l-3.85742-3.80859c-2.39258-2.39258-4.24805-3.17383-6.64062-2.97852l-2.88086 0.244141-3.22266-3.17383 1.2207-5.61523c0.634766-2.83203-0.146484-5.0293-3.07617-7.95898l-10.9863-10.9375c-16.6992-16.6016-38.8672-16.2109-53.3203-1.75781Zm7.4707 1.85547c12.1582-8.88672 28.6133-7.37305 39.7461 3.75977l12.1582 12.0605c1.17188 1.17188 1.36719 2.09961 1.02539 3.80859l-1.61133 7.42188 7.51953 7.42188 4.93164-0.292969c1.26953-0.0488281 1.66016 0.0488281 2.63672 1.02539l2.88086 2.88086-12.207 12.207-2.88086-2.88086c-0.976562-0.976562-1.12305-1.36719-1.07422-2.68555l0.341797-4.88281-7.4707-7.42188-7.61719 1.26953c-1.61133 0.341797-2.34375 0.195312-3.56445-0.976562l-10.0098-10.0098c-1.26953-1.17188-1.41602-2.00195-0.634766-3.85742l4.39453-10.4492c-7.8125-7.27539-17.9688-10.4004-28.125-7.42188-0.78125 0.195312-1.07422-0.439453-0.439453-0.976562Z"/>
  </g>
  <text style="stroke:none;fill:black;font-family:sans-serif;font-size:13;font-weight:bold;" transform="matrix(1 0 0 1 1289 1953)">Exporting</text>
  <text style="stroke:none;fill:black;font-family:sans-serif;font-size:13;" transform="matrix(1 0 0 1 1289 1971)">Symbols should be outlined when exporting to ensure the</text>
  <text style="stroke:none;fill:black;font-family:sans-serif;font-size:13;" transform="matrix(1 0 0 1 1289 1989)">design is preserved when submitting to Xcode.</text>
  <text id="template-version" style="stroke:none;fill:black;font-family:sans-serif;font-size:13;text-anchor:end;" transform="matrix(1 0 0 1 3036 1933)">Template v.6.0</text>
  <text style="stroke:none;fill:black;font-family:sans-serif;font-size:13;text-anchor:end;" transform="matrix(1 0 0 1 3036 1951)">Requires Xcode 16 or greater</text>
  <text id="descriptive-name" style="stroke:none;fill:black;font-family:sans-serif;font-size:13;text-anchor:end;" transform="matrix(1 0 0 1 3036 1969)">Generated from square</text>
  <text style="stroke:none;fill:black;font-family:sans-serif;font-size:13;text-anchor:end;" transform="matrix(1 0 0 1 3036 1987)">Typeset at 100.0 points</text>
  <text style="stroke:none;fill:black;font-family:sans-serif;font-size:13;" transform="matrix(1 0 0 1 263 726)">Small</text>
  <text style="stroke:none;fill:black;font-family:sans-serif;font-size:13;" transform="matrix(1 0 0 1 263 1156)">Medium</text>
  <text style="stroke:none;fill:black;font-family:sans-serif;font-size:13;" transform="matrix(1 0 0 1 263 1586)">Large</text>
 </g>
 <g id="Guides">
  <g id="H-reference" style="fill:#27AAE1;stroke:none;" transform="matrix(1 0 0 1 339 696)">
   <path d="M0.993654 0L3.63775 0L29.3281-67.1323L30.0303-67.1323L30.0303-70.459L28.1226-70.459ZM11.6885-24.4799L46.9815-24.4799L46.2315-26.7285L12.4385-26.7285ZM55.1196 0L57.7637 0L30.6382-70.459L29.4326-70.459L29.4326-67.1323Z"/>
  </g>
  <line id="Baseline-S" style="fill:none;stroke:#27AAE1;opacity:1;stroke-width:0.5;" x1="263" x2="3036" y1="696" y2="696"/>
  <line id="Capline-S" style="fill:none;stroke:#27AAE1;opacity:1;stroke-width:0.5;" x1="263" x2="3036" y1="625.541" y2="625.541"/>
  <g id="H-reference" style="fill:#27AAE1;stroke:none;" transform="matrix(1 0 0 1 339 1126)">
   <path d="M0.993654 0L3.63775 0L29.3281-67.1323L30.0303-67.1323L30.0303-70.459L28.1226-70.459ZM11.6885-24.4799L46.9815-24.4799L46.2315-26.7285L12.4385-26.7285ZM55.1196 0L57.7637 0L30.6382-70.459L29.4326-70.459L29.4326-67.1323Z"/>
  </g>
  <line id="Baseline-M" style="fill:none;stroke:#27AAE1;opacity:1;stroke-width:0.5;" x1="263" x2="3036" y1="1126" y2="1126"/>
  <line id="Capline-M" style="fill:none;stroke:#27AAE1;opacity:1;stroke-width:0.5;" x1="263" x2="3036" y1="1055.54" y2="1055.54"/>
  <g id="H-reference" style="fill:#27AAE1;stroke:none;" transform="matrix(1 0 0 1 339 1556)">
   <path d="M0.993654 0L3.63775 0L29.3281-67.1323L30.0303-67.1323L30.0303-70.459L28.1226-70.459ZM11.6885-24.4799L46.9815-24.4799L46.2315-26.7285L12.4385-26.7285ZM55.1196 0L57.7637 0L30.6382-70.459L29.4326-70.459L29.4326-67.1323Z"/>
  </g>
  <line id="Baseline-L" style="fill:none;stroke:#27AAE1;opacity:1;stroke-width:0.5;" x1="263" x2="3036" y1="1556" y2="1556"/>
  <line id="Capline-L" style="fill:none;stroke:#27AAE1;opacity:1;stroke-width:0.5;" x1="263" x2="3036" y1="1485.54" y2="1485.54"/>
  <line id="right-margin-Black-S" style="fill:none;stroke:#00AEEF;stroke-width:0.5;opacity:1.0;" x1="2981.3" x2="2981.3" y1="600.785" y2="720.121"/>
  <line id="left-margin-Black-S" style="fill:none;stroke:#00AEEF;stroke-width:0.5;opacity:1.0;" x1="2885.5" x2="2885.5" y1="600.785" y2="720.121"/>
  <line id="right-margin-Regular-S" style="fill:none;stroke:#00AEEF;stroke-width:0.5;opacity:1.0;" x1="1495.18" x2="1495.18" y1="600.785" y2="720.121"/>
  <line id="left-margin-Regular-S" style="fill:none;stroke:#00AEEF;stroke-width:0.5;opacity:1.0;" x1="1404.51" x2="1404.51" y1="600.785" y2="720.121"/>
  <line id="right-margin-Ultralight-S" style="fill:none;stroke:#00AEEF;stroke-width:0.5;opacity:1.0;" x1="603.073" x2="603.073" y1="600.785" y2="720.121"/>
  <line id="left-margin-Ultralight-S" style="fill:none;stroke:#00AEEF;stroke-width:0.5;opacity:1.0;" x1="516.35" x2="516.35" y1="600.785" y2="720.121"/>
 </g>
 <g id="Symbols">
  <g id="Black-S"><path d="M2917.46172,632.23057c-0.51964,0.12624 -0.89542,0.3934 -1.28588,0.90422l-0.33174,0.4345l-0.03817,2.62166l-0.03523,2.62166h-1.73505c-1.35046,0 -1.94056,0.05284 -2.6657,0.23486c-2.99744,0.76037 -5.4136,3.12955 -6.29434,6.17103l-0.27009,0.93358v17.90833v17.90833l0.26422,0.91597c0.89248,3.07671 3.13836,5.32552 6.21801,6.21507l0.91597,0.26716h21.19641h21.19641l0.91597,-0.26716c3.07084,-0.88661 5.32846,-3.14423 6.21507,-6.21507l0.26716,-0.91597v-17.90833v-17.90833l-0.27009,-0.93358c-0.88367,-3.05029 -3.28809,-5.39892 -6.32076,-6.17397c-0.69872,-0.17908 -1.29762,-0.23193 -2.63928,-0.23193h-1.73505l-0.03523,-2.63047l-0.03817,-2.6334l-0.36404,-0.44918c-0.53431,-0.66055 -1.01578,-0.90129 -1.79377,-0.90129c-0.84257,0 -1.53835,0.40807 -1.92001,1.12441c-0.24661,0.46385 -0.26716,0.6723 -0.30532,2.99451l-0.0411,2.49542h-13.13179h-13.13179l-0.0411,-2.49542c-0.03817,-2.45432 -0.04404,-2.50423 -0.34936,-3.02386c-0.48734,-0.83083 -1.52074,-1.28588 -2.41616,-1.06276M2954.91654,643.53043c0.90716,0.42569 1.43267,0.86019 1.92001,1.5912c0.65175,0.97468 0.75156,1.47377 0.7545,3.75488v2.02276l-0.72808,-0.34642c-0.4022,-0.18789 -1.12734,-0.43743 -1.61469,-0.55193c-0.83083,-0.1967 -2.19597,-0.20844 -21.84816,-0.20844c-23.26908,0 -21.74834,-0.04991 -23.47165,0.76624l-0.73688,0.34642l0.03817,-2.25762c0.03817,-2.20478 0.04697,-2.27817 0.36991,-2.93579c0.58716,-1.1978 1.83193,-2.18716 3.05616,-2.43377c0.26716,-0.05284 9.73508,-0.08807 21.03788,-0.07927l20.55054,0.01761l0.6723,0.31413M2955.03398,654.57194c0.86312,0.4022 1.77909,1.31817 2.18129,2.18129l0.31707,0.6723v12.15417v12.15417l-0.31707,0.6723c-0.4022,0.86312 -1.31817,1.77909 -2.18129,2.18129l-0.6723,0.31707h-20.96155h-20.96155l-0.6723,-0.31707c-0.86312,-0.4022 -1.77909,-1.31817 -2.18129,-2.18129l-0.31707,-0.6723v-12.15417v-12.15417l0.26716,-0.57835c0.53725,-1.16551 1.47377,-2.02863 2.64515,-2.43377c0.58129,-0.19963 1.63524,-0.20844 21.39604,-0.18495l20.7854,0.02642l0.6723,0.31707M2932.51352,660.99251c-1.2389,0.56367 -1.69689,2.09909 -0.95413,3.20295c1.34166,1.99047 4.37139,0.76918 4.0191,-1.62056c-0.07046,-0.47266 -0.17908,-0.66055 -0.64294,-1.10973c-0.75743,-0.73101 -1.52074,-0.88074 -2.42203,-0.47266M2939.09557,660.98664c-0.65175,0.31119 -1.00404,0.73395 -1.18019,1.41212c-0.32881,1.26533 0.34642,2.39561 1.6323,2.73909c0.6723,0.17908 1.31817,0.00294 1.91707,-0.52257c1.45322,-1.27707 0.64294,-3.67267 -1.28881,-3.80772c-0.42863,-0.02936 -0.75156,0.02349 -1.08037,0.17908M2945.63357,661.0248c-0.93652,0.46092 -1.42386,1.69102 -1.08331,2.72148c0.17615,0.53431 0.91303,1.1978 1.53542,1.38569c1.2712,0.38165 2.68918,-0.68404 2.71561,-2.04331c0.01468,-0.65468 -0.08807,-0.98643 -0.45798,-1.4767c-0.59597,-0.7956 -1.77615,-1.05101 -2.70974,-0.58716M2919.95421,667.40721c-0.06459,0.02055 -0.26129,0.07046 -0.43743,0.10862c-0.43156,0.09395 -1.14496,0.73688 -1.34166,1.20661c-0.38459,0.92184 -0.02055,2.16074 0.79266,2.69799c1.16257,0.76918 2.80662,0.26422 3.29689,-1.01285c0.3611,-0.93358 -0.07633,-2.19891 -0.9189,-2.6657c-0.44037,-0.24073 -1.15377,-0.41395 -1.39156,-0.33468M2926.26909,667.46006c-0.87193,0.21431 -1.52955,0.96 -1.63524,1.85542c-0.09395,0.7956 0.10862,1.32991 0.71633,1.89065c1.84074,1.69689 4.65323,-0.63413 3.34974,-2.77726c-0.45505,-0.74569 -1.5501,-1.18312 -2.43083,-0.96881M2932.82765,667.46299c-1.21542,0.29651 -1.94056,1.69689 -1.48845,2.88001c0.37872,0.9923 1.40037,1.57652 2.47487,1.41505c0.45211,-0.06752 0.66055,-0.18789 1.11854,-0.64587c0.45798,-0.45798 0.57835,-0.66642 0.64587,-1.11854c0.24367,-1.62349 -1.16257,-2.91524 -2.75084,-2.53065M2939.51538,667.4307c-1.1156,0.22018 -1.89652,1.48257 -1.6323,2.64515c0.44624,1.99634 3.20001,2.33983 4.08662,0.51083c0.6811,-1.40918 -0.15266,-2.95634 -1.69982,-3.15304c-0.25835,-0.03229 -0.59597,-0.03229 -0.7545,-0.00294M2946.37633,667.40721c-0.06459,0.02055 -0.26129,0.07046 -0.43743,0.10862c-0.43156,0.09395 -1.14496,0.73688 -1.34166,1.20661c-0.38459,0.92184 -0.02055,2.16074 0.79266,2.69799c1.16257,0.76918 2.80662,0.26422 3.29689,-1.01285c0.3611,-0.93358 -0.07633,-2.19891 -0.9189,-2.6657c-0.44037,-0.24073 -1.15377,-0.41395 -1.39156,-0.33468M2919.24962,674.20944c-1.76735,0.78679 -1.60001,3.45543 0.25541,4.06607c1.02753,0.34055 2.18423,-0.14092 2.66276,-1.10386c0.24367,-0.49321 0.28184,-1.45028 0.06752,-1.86129c-0.19963,-0.39046 -0.70753,-0.91303 -1.07156,-1.10386c-0.39633,-0.20551 -1.44734,-0.20551 -1.91414,0.00294M2925.82579,674.22706c-1.1978,0.62239 -1.58533,2.09028 -0.84257,3.20882c0.53725,0.81321 1.77615,1.17725 2.69799,0.79266c0.50789,-0.21138 1.09505,-0.90129 1.27413,-1.49432c0.26422,-0.88661 -0.16734,-1.88478 -1.05395,-2.4279c-0.51964,-0.31707 -1.54129,-0.35817 -2.0756,-0.07927M2932.26398,674.33862c-1.20955,0.72514 -1.42092,2.22827 -0.46679,3.31157c1.52955,1.74386 4.45066,0.0822 3.72258,-2.11964c-0.43743,-1.32991 -2.04331,-1.91707 -3.25579,-1.19193M2939.09557,674.18008c-1.01285,0.5578 -1.45322,1.52368 -1.18019,2.58056c0.34349,1.31817 1.69689,1.97872 2.97102,1.44441c0.58129,-0.24073 0.84257,-0.49321 1.10092,-1.05101c0.52844,-1.15083 0.05872,-2.48074 -1.03927,-2.95047c-0.44918,-0.19376 -1.52368,-0.20551 -1.85248,-0.02349" className="SFSymbolsPreviewWireframe"/></g>
  <g id="Regular-S"><path d="M1433.90667,632.23057c-0.51964,0.12624 -0.89542,0.3934 -1.28588,0.90422l-0.33174,0.4345l-0.03817,2.62166l-0.03523,2.62166h-1.73505c-1.35046,0 -1.94056,0.05284 -2.6657,0.23486c-2.99744,0.76037 -5.4136,3.12955 -6.29434,6.17103l-0.27009,0.93358v17.90833v17.90833l0.26422,0.91597c0.89248,3.07671 3.13836,5.32552 6.21801,6.21507l0.91597,0.26716h21.19641h21.19641l0.91597,-0.26716c3.07084,-0.88661 5.32846,-3.14423 6.21507,-6.21507l0.26716,-0.91597v-17.90833v-17.90833l-0.27009,-0.93358c-0.88367,-3.05029 -3.28809,-5.39892 -6.32076,-6.17397c-0.69872,-0.17908 -1.29762,-0.23193 -2.63928,-0.23193h-1.73505l-0.03523,-2.63047l-0.03817,-2.6334l-0.36404,-0.44918c-0.53431,-0.66055 -1.01578,-0.90129 -1.79377,-0.90129c-0.84257,0 -1.53835,0.40807 -1.92001,1.12441c-0.24661,0.46385 -0.26716,0.6723 -0.30532,2.99451l-0.0411,2.49542h-13.13179h-13.13179l-0.0411,-2.49542c-0.03817,-2.45432 -0.04404,-2.50423 -0.34936,-3.02386c-0.48734,-0.83083 -1.52074,-1.28588 -2.41616,-1.06276M1471.36149,643.53043c0.90716,0.42569 1.43267,0.86019 1.92001,1.5912c0.65175,0.97468 0.75156,1.47377 0.7545,3.75488v2.02276l-0.72808,-0.34642c-0.4022,-0.18789 -1.12734,-0.43743 -1.61469,-0.55193c-0.83083,-0.1967 -2.19597,-0.20844 -21.84816,-0.20844c-23.26908,0 -21.74834,-0.04991 -23.47165,0.76624l-0.73688,0.34642l0.03817,-2.25762c0.03817,-2.20478 0.04697,-2.27817 0.36991,-2.93579c0.58716,-1.1978 1.83193,-2.18716 3.05616,-2.43377c0.26716,-0.05284 9.73508,-0.08807 21.03788,-0.07927l20.55054,0.01761l0.6723,0.31413M1471.47893,654.57194c0.86312,0.4022 1.77909,1.31817 2.18129,2.18129l0.31707,0.6723v12.15417v12.15417l-0.31707,0.6723c-0.4022,0.86312 -1.31817,1.77909 -2.18129,2.18129l-0.6723,0.31707h-20.96155h-20.96155l-0.6723,-0.31707c-0.86312,-0.4022 -1.77909,-1.31817 -2.18129,-2.18129l-0.31707,-0.6723v-12.15417v-12.15417l0.26716,-0.57835c0.53725,-1.16551 1.47377,-2.02863 2.64515,-2.43377c0.58129,-0.19963 1.63524,-0.20844 21.39604,-0.18495l20.7854,0.02642l0.6723,0.31707M1448.95847,660.99251c-1.2389,0.56367 -1.69689,2.09909 -0.95413,3.20295c1.34166,1.99047 4.37139,0.76918 4.0191,-1.62056c-0.07046,-0.47266 -0.17908,-0.66055 -0.64294,-1.10973c-0.75743,-0.73101 -1.52074,-0.88074 -2.42203,-0.47266M1455.54052,660.98664c-0.65175,0.31119 -1.00404,0.73395 -1.18019,1.41212c-0.32881,1.26533 0.34642,2.39561 1.6323,2.73909c0.6723,0.17908 1.31817,0.00294 1.91707,-0.52257c1.45322,-1.27707 0.64294,-3.67267 -1.28881,-3.80772c-0.42863,-0.02936 -0.75156,0.02349 -1.08037,0.17908M1462.07852,661.0248c-0.93652,0.46092 -1.42386,1.69102 -1.08331,2.72148c0.17615,0.53431 0.91303,1.1978 1.53542,1.38569c1.2712,0.38165 2.68918,-0.68404 2.71561,-2.04331c0.01468,-0.65468 -0.08807,-0.98643 -0.45798,-1.4767c-0.59597,-0.7956 -1.77615,-1.05101 -2.70974,-0.58716M1436.39916,667.40721c-0.06459,0.02055 -0.26129,0.07046 -0.43743,0.10862c-0.43156,0.09395 -1.14496,0.73688 -1.34166,1.20661c-0.38459,0.92184 -0.02055,2.16074 0.79266,2.69799c1.16257,0.76918 2.80662,0.26422 3.29689,-1.01285c0.3611,-0.93358 -0.07633,-2.19891 -0.9189,-2.6657c-0.44037,-0.24073 -1.15377,-0.41395 -1.39156,-0.33468M1442.71405,667.46006c-0.87193,0.21431 -1.52955,0.96 -1.63524,1.85542c-0.09395,0.7956 0.10862,1.32991 0.71633,1.89065c1.84074,1.69689 4.65323,-0.63413 3.34974,-2.77726c-0.45505,-0.74569 -1.5501,-1.18312 -2.43083,-0.96881M1449.2726,667.46299c-1.21542,0.29651 -1.94056,1.69689 -1.48845,2.88001c0.37872,0.9923 1.40037,1.57652 2.47487,1.41505c0.45211,-0.06752 0.66055,-0.18789 1.11854,-0.64587c0.45798,-0.45798 0.57835,-0.66642 0.64587,-1.11854c0.24367,-1.62349 -1.16257,-2.91524 -2.75084,-2.53065M1455.96033,667.4307c-1.1156,0.22018 -1.89652,1.48257 -1.6323,2.64515c0.44624,1.99634 3.20001,2.33983 4.08662,0.51083c0.6811,-1.40918 -0.15266,-2.95634 -1.69982,-3.15304c-0.25835,-0.03229 -0.59597,-0.03229 -0.7545,-0.00294M1462.82128,667.40721c-0.06459,0.02055 -0.26129,0.07046 -0.43743,0.10862c-0.43156,0.09395 -1.14496,0.73688 -1.34166,1.20661c-0.38459,0.92184 -0.02055,2.16074 0.79266,2.69799c1.16257,0.76918 2.80662,0.26422 3.29689,-1.01285c0.3611,-0.93358 -0.07633,-2.19891 -0.9189,-2.6657c-0.44037,-0.24073 -1.15377,-0.41395 -1.39156,-0.33468M1435.69457,674.20944c-1.76735,0.78679 -1.60001,3.45543 0.25541,4.06607c1.02753,0.34055 2.18423,-0.14092 2.66276,-1.10386c0.24367,-0.49321 0.28184,-1.45028 0.06752,-1.86129c-0.19963,-0.39046 -0.70753,-0.91303 -1.07156,-1.10386c-0.39633,-0.20551 -1.44734,-0.20551 -1.91414,0.00294M1442.27074,674.22706c-1.1978,0.62239 -1.58533,2.09028 -0.84257,3.20882c0.53725,0.81321 1.77615,1.17725 2.69799,0.79266c0.50789,-0.21138 1.09505,-0.90129 1.27413,-1.49432c0.26422,-0.88661 -0.16734,-1.88478 -1.05395,-2.4279c-0.51964,-0.31707 -1.54129,-0.35817 -2.0756,-0.07927M1448.70893,674.33862c-1.20955,0.72514 -1.42092,2.22827 -0.46679,3.31157c1.52955,1.74386 4.45066,0.0822 3.72258,-2.11964c-0.43743,-1.32991 -2.04331,-1.91707 -3.25579,-1.19193M1455.54052,674.18008c-1.01285,0.5578 -1.45322,1.52368 -1.18019,2.58056c0.34349,1.31817 1.69689,1.97872 2.97102,1.44441c0.58129,-0.24073 0.84257,-0.49321 1.10092,-1.05101c0.52844,-1.15083 0.05872,-2.48074 -1.03927,-2.95047c-0.44918,-0.19376 -1.52368,-0.20551 -1.85248,-0.02349" className="SFSymbolsPreviewWireframe"/></g>
  <g id="Ultralight-S"><path d="M543.77308,632.23057c-0.51964,0.12624 -0.89542,0.3934 -1.28588,0.90422l-0.33174,0.4345l-0.03817,2.62166l-0.03523,2.62166h-1.73505c-1.35046,0 -1.94056,0.05284 -2.6657,0.23486c-2.99744,0.76037 -5.4136,3.12955 -6.29434,6.17103l-0.27009,0.93358v17.90833v17.90833l0.26422,0.91597c0.89248,3.07671 3.13836,5.32552 6.21801,6.21507l0.91597,0.26716h21.19641h21.19641l0.91597,-0.26716c3.07084,-0.88661 5.32846,-3.14423 6.21507,-6.21507l0.26716,-0.91597v-17.90833v-17.90833l-0.27009,-0.93358c-0.88367,-3.05029 -3.28809,-5.39892 -6.32076,-6.17397c-0.69872,-0.17908 -1.29762,-0.23193 -2.63928,-0.23193h-1.73505l-0.03523,-2.63047l-0.03817,-2.6334l-0.36404,-0.44918c-0.53431,-0.66055 -1.01578,-0.90129 -1.79377,-0.90129c-0.84257,0 -1.53835,0.40807 -1.92001,1.12441c-0.24661,0.46385 -0.26716,0.6723 -0.30532,2.99451l-0.0411,2.49542h-13.13179h-13.13179l-0.0411,-2.49542c-0.03817,-2.45432 -0.04404,-2.50423 -0.34936,-3.02386c-0.48734,-0.83083 -1.52074,-1.28588 -2.41616,-1.06276M581.2279,643.53043c0.90716,0.42569 1.43267,0.86019 1.92001,1.5912c0.65175,0.97468 0.75156,1.47377 0.7545,3.75488v2.02276l-0.72808,-0.34642c-0.4022,-0.18789 -1.12734,-0.43743 -1.61469,-0.55193c-0.83083,-0.1967 -2.19597,-0.20844 -21.84816,-0.20844c-23.26908,0 -21.74834,-0.04991 -23.47165,0.76624l-0.73688,0.34642l0.03817,-2.25762c0.03817,-2.20478 0.04697,-2.27817 0.36991,-2.93579c0.58716,-1.1978 1.83193,-2.18716 3.05616,-2.43377c0.26716,-0.05284 9.73508,-0.08807 21.03788,-0.07927l20.55054,0.01761l0.6723,0.31413M581.34534,654.57194c0.86312,0.4022 1.77909,1.31817 2.18129,2.18129l0.31707,0.6723v12.15417v12.15417l-0.31707,0.6723c-0.4022,0.86312 -1.31817,1.77909 -2.18129,2.18129l-0.6723,0.31707h-20.96155h-20.96155l-0.6723,-0.31707c-0.86312,-0.4022 -1.77909,-1.31817 -2.18129,-2.18129l-0.31707,-0.6723v-12.15417v-12.15417l0.26716,-0.57835c0.53725,-1.16551 1.47377,-2.02863 2.64515,-2.43377c0.58129,-0.19963 1.63524,-0.20844 21.39604,-0.18495l20.7854,0.02642l0.6723,0.31707M558.82488,660.99251c-1.2389,0.56367 -1.69689,2.09909 -0.95413,3.20295c1.34166,1.99047 4.37139,0.76918 4.0191,-1.62056c-0.07046,-0.47266 -0.17908,-0.66055 -0.64294,-1.10973c-0.75743,-0.73101 -1.52074,-0.88074 -2.42203,-0.47266M565.40693,660.98664c-0.65175,0.31119 -1.00404,0.73395 -1.18019,1.41212c-0.32881,1.26533 0.34642,2.39561 1.6323,2.73909c0.6723,0.17908 1.31817,0.00294 1.91707,-0.52257c1.45322,-1.27707 0.64294,-3.67267 -1.28881,-3.80772c-0.42863,-0.02936 -0.75156,0.02349 -1.08037,0.17908M571.94493,661.0248c-0.93652,0.46092 -1.42386,1.69102 -1.08331,2.72148c0.17615,0.53431 0.91303,1.1978 1.53542,1.38569c1.2712,0.38165 2.68918,-0.68404 2.71561,-2.04331c0.01468,-0.65468 -0.08807,-0.98643 -0.45798,-1.4767c-0.59597,-0.7956 -1.77615,-1.05101 -2.70974,-0.58716M546.26557,667.40721c-0.06459,0.02055 -0.26129,0.07046 -0.43743,0.10862c-0.43156,0.09395 -1.14496,0.73688 -1.34166,1.20661c-0.38459,0.92184 -0.02055,2.16074 0.79266,2.69799c1.16257,0.76918 2.80662,0.26422 3.29689,-1.01285c0.3611,-0.93358 -0.07633,-2.19891 -0.9189,-2.6657c-0.44037,-0.24073 -1.15377,-0.41395 -1.39156,-0.33468M552.58046,667.46006c-0.87193,0.21431 -1.52955,0.96 -1.63524,1.85542c-0.09395,0.7956 0.10862,1.32991 0.71633,1.89065c1.84074,1.69689 4.65323,-0.63413 3.34974,-2.77726c-0.45505,-0.74569 -1.5501,-1.18312 -2.43083,-0.96881M559.13901,667.46299c-1.21542,0.29651 -1.94056,1.69689 -1.48845,2.88001c0.37872,0.9923 1.40037,1.57652 2.47487,1.41505c0.45211,-0.06752 0.66055,-0.18789 1.11854,-0.64587c0.45798,-0.45798 0.57835,-0.66642 0.64587,-1.11854c0.24367,-1.62349 -1.16257,-2.91524 -2.75084,-2.53065M565.82674,667.4307c-1.1156,0.22018 -1.89652,1.48257 -1.6323,2.64515c0.44624,1.99634 3.20001,2.33983 4.08662,0.51083c0.6811,-1.40918 -0.15266,-2.95634 -1.69982,-3.15304c-0.25835,-0.03229 -0.59597,-0.03229 -0.7545,-0.00294M572.68769,667.40721c-0.06459,0.02055 -0.26129,0.07046 -0.43743,0.10862c-0.43156,0.09395 -1.14496,0.73688 -1.34166,1.20661c-0.38459,0.92184 -0.02055,2.16074 0.79266,2.69799c1.16257,0.76918 2.80662,0.26422 3.29689,-1.01285c0.3611,-0.93358 -0.07633,-2.19891 -0.9189,-2.6657c-0.44037,-0.24073 -1.15377,-0.41395 -1.39156,-0.33468M545.56098,674.20944c-1.76735,0.78679 -1.60001,3.45543 0.25541,4.06607c1.02753,0.34055 2.18423,-0.14092 2.66276,-1.10386c0.24367,-0.49321 0.28184,-1.45028 0.06752,-1.86129c-0.19963,-0.39046 -0.70753,-0.91303 -1.07156,-1.10386c-0.39633,-0.20551 -1.44734,-0.20551 -1.91414,0.00294M552.13715,674.22706c-1.1978,0.62239 -1.58533,2.09028 -0.84257,3.20882c0.53725,0.81321 1.77615,1.17725 2.69799,0.79266c0.50789,-0.21138 1.09505,-0.90129 1.27413,-1.49432c0.26422,-0.88661 -0.16734,-1.88478 -1.05395,-2.4279c-0.51964,-0.31707 -1.54129,-0.35817 -2.0756,-0.07927M558.57534,674.33862c-1.20955,0.72514 -1.42092,2.22827 -0.46679,3.31157c1.52955,1.74386 4.45066,0.0822 3.72258,-2.11964c-0.43743,-1.32991 -2.04331,-1.91707 -3.25579,-1.19193M565.40693,674.18008c-1.01285,0.5578 -1.45322,1.52368 -1.18019,2.58056c0.34349,1.31817 1.69689,1.97872 2.97102,1.44441c0.58129,-0.24073 0.84257,-0.49321 1.10092,-1.05101c0.52844,-1.15083 0.05872,-2.48074 -1.03927,-2.95047c-0.44918,-0.19376 -1.52368,-0.20551 -1.85248,-0.02349" className="SFSymbolsPreviewWireframe"/></g>
 </g>
</svg>