<?xml version="1.0" encoding="UTF-8"?><!--Generator: https://SymbolKit.app--><!DOCTYPE svg PUBLIC "-//W3C//DTD SVG 1.1//EN" "http://www.w3.org/Graphics/SVG/1.1/DTD/svg11.dtd"><svg xmlns="http://www.w3.org/2000/svg" xmlns:xlink="http://www.w3.org/1999/xlink" version="1.1" viewBox="0 0 3300 2200">
 <!--glyph: "100092", point size: 100.0, font version: "20.0d10e1", template writer version: "138.0.0"-->
 <style>.SFSymbolsPreviewWireframe {fill:none;opacity:1.0;stroke:black;stroke-width:0.5}
</style>
 <g id="Notes">
  <rect height="2200" id="artboard" style="fill:white;opacity:1" width="3300" x="0" y="0"/>
  <line style="fill:none;stroke:black;opacity:1;stroke-width:0.5;" x1="263" x2="3036" y1="292" y2="292"/>
  <text style="stroke:none;fill:black;font-family:sans-serif;font-size:13;font-weight:bold;" transform="matrix(1 0 0 1 263 322)">Weight/Scale Variations</text>
  <text style="stroke:none;fill:black;font-family:sans-serif;font-size:13;text-anchor:middle;" transform="matrix(1 0 0 1 559.711 322)">Ultralight</text>
  <text style="stroke:none;fill:black;font-family:sans-serif;font-size:13;text-anchor:middle;" transform="matrix(1 0 0 1 856.422 322)">Thin</text>
  <text style="stroke:none;fill:black;font-family:sans-serif;font-size:13;text-anchor:middle;" transform="matrix(1 0 0 1 1153.13 322)">Light</text>
  <text style="stroke:none;fill:black;font-family:sans-serif;font-size:13;text-anchor:middle;" transform="matrix(1 0 0 1 1449.84 322)">Regular</text>
  <text style="stroke:none;fill:black;font-family:sans-serif;font-size:13;text-anchor:middle;" transform="matrix(1 0 0 1 1746.56 322)">Medium</text>
  <text style="stroke:none;fill:black;font-family:sans-serif;font-size:13;text-anchor:middle;" transform="matrix(1 0 0 1 2043.27 322)">Semibold</text>
  <text style="stroke:none;fill:black;font-family:sans-serif;font-size:13;text-anchor:middle;" transform="matrix(1 0 0 1 2339.98 322)">Bold</text>
  <text style="stroke:none;fill:black;font-family:sans-serif;font-size:13;text-anchor:middle;" transform="matrix(1 0 0 1 2636.69 322)">Heavy</text>
  <text style="stroke:none;fill:black;font-family:sans-serif;font-size:13;text-anchor:middle;" transform="matrix(1 0 0 1 2933.4 322)">Black</text>
  <line style="fill:none;stroke:black;opacity:1;stroke-width:0.5;" x1="263" x2="3036" y1="1903" y2="1903"/>
  <g transform="matrix(0.2 0 0 0.2 263 1933)">
   <path d="m46.2402 4.15039c21.7773 0 39.4531-17.627 39.4531-39.4043s-17.6758-39.4043-39.4531-39.4043c-21.7285 0-39.4043 17.627-39.4043 39.4043s17.6758 39.4043 39.4043 39.4043Zm0-7.42188c-17.6758 0-31.9336-14.3066-31.9336-31.9824s14.2578-31.9824 31.9336-31.9824 31.9824 14.3066 31.9824 31.9824-14.3066 31.9824-31.9824 31.9824Zm-17.9688-31.9824c0 2.14844 1.51367 3.61328 3.75977 3.61328h10.498v10.5957c0 2.19727 1.46484 3.71094 3.61328 3.71094 2.24609 0 3.71094-1.51367 3.71094-3.71094v-10.5957h10.5957c2.19727 0 3.71094-1.46484 3.71094-3.61328 0-2.19727-1.51367-3.71094-3.71094-3.71094h-10.5957v-10.5469c0-2.24609-1.46484-3.75977-3.71094-3.75977-2.14844 0-3.61328 1.51367-3.61328 3.75977v10.5469h-10.498c-2.24609 0-3.75977 1.51367-3.75977 3.71094Z"/>
  </g>
  <g transform="matrix(0.2 0 0 0.2 281.506 1933)">
   <path d="m58.5449 14.5508c27.4902 0 49.8047-22.3145 49.8047-49.8047s-22.3145-49.8047-49.8047-49.8047-49.8047 22.3145-49.8047 49.8047 22.3145 49.8047 49.8047 49.8047Zm0-8.30078c-22.9492 0-41.5039-18.5547-41.5039-41.5039s18.5547-41.5039 41.5039-41.5039 41.5039 18.5547 41.5039 41.5039-18.5547 41.5039-41.5039 41.5039Zm-22.6562-41.5039c0 2.39258 1.66016 4.00391 4.15039 4.00391h14.3555v14.4043c0 2.44141 1.66016 4.15039 4.05273 4.15039 2.44141 0 4.15039-1.66016 4.15039-4.15039v-14.4043h14.4043c2.44141 0 4.15039-1.61133 4.15039-4.00391 0-2.44141-1.70898-4.15039-4.15039-4.15039h-14.4043v-14.3555c0-2.49023-1.70898-4.19922-4.15039-4.19922-2.39258 0-4.05273 1.70898-4.05273 4.19922v14.3555h-14.3555c-2.49023 0-4.15039 1.70898-4.15039 4.15039Z"/>
  </g>
  <g transform="matrix(0.2 0 0 0.2 304.924 1933)">
   <path d="m74.8535 28.3203c35.1074 0 63.623-28.4668 63.623-63.5742s-28.5156-63.623-63.623-63.623-63.5742 28.5156-63.5742 63.623 28.4668 63.5742 63.5742 63.5742Zm0-9.08203c-30.127 0-54.4922-24.3652-54.4922-54.4922s24.3652-54.4922 54.4922-54.4922 54.4922 24.3652 54.4922 54.4922-24.3652 54.4922-54.4922 54.4922Zm-28.8574-54.4922c0 2.58789 1.85547 4.39453 4.58984 4.39453h19.7266v19.7754c0 2.68555 1.85547 4.58984 4.44336 4.58984 2.68555 0 4.54102-1.85547 4.54102-4.58984v-19.7754h19.7754c2.68555 0 4.58984-1.80664 4.58984-4.39453 0-2.73438-1.85547-4.58984-4.58984-4.58984h-19.7754v-19.7266c0-2.73438-1.85547-4.63867-4.54102-4.63867-2.58789 0-4.44336 1.9043-4.44336 4.63867v19.7266h-19.7266c-2.73438 0-4.58984 1.85547-4.58984 4.58984Z"/>
  </g>
  <text style="stroke:none;fill:black;font-family:sans-serif;font-size:13;font-weight:bold;" transform="matrix(1 0 0 1 263 1953)">Design Variations</text>
  <text style="stroke:none;fill:black;font-family:sans-serif;font-size:13;" transform="matrix(1 0 0 1 263 1971)">Symbols are supported in up to nine weights and three scales.</text>
  <text style="stroke:none;fill:black;font-family:sans-serif;font-size:13;" transform="matrix(1 0 0 1 263 1989)">For optimal layout with text and other symbols, vertically align</text>
  <text style="stroke:none;fill:black;font-family:sans-serif;font-size:13;" transform="matrix(1 0 0 1 263 2007)">symbols with the adjacent text.</text>
  <line style="fill:none;stroke:#00AEEF;stroke-width:0.5;opacity:1.0;" x1="776" x2="776" y1="1919" y2="1933"/>
  <g transform="matrix(0.2 0 0 0.2 776 1933)">
   <path d="m16.5527 0.78125c2.58789 0 3.85742-0.976562 4.78516-3.71094l6.29883-17.2363h28.8086l6.29883 17.2363c0.927734 2.73438 2.19727 3.71094 4.73633 3.71094 2.58789 0 4.24805-1.5625 4.24805-4.00391 0-0.830078-0.146484-1.61133-0.537109-2.63672l-22.9004-60.9863c-1.12305-2.97852-3.125-4.49219-6.25-4.49219-3.02734 0-5.07812 1.46484-6.15234 4.44336l-22.9004 61.084c-0.390625 1.02539-0.537109 1.80664-0.537109 2.63672 0 2.44141 1.5625 3.95508 4.10156 3.95508Zm13.4766-28.3691 11.8652-32.8613h0.244141l11.8652 32.8613Z"/>
  </g>
  <line style="fill:none;stroke:#00AEEF;stroke-width:0.5;opacity:1.0;" x1="792.836" x2="792.836" y1="1919" y2="1933"/>
  <text style="stroke:none;fill:black;font-family:sans-serif;font-size:13;font-weight:bold;" transform="matrix(1 0 0 1 776 1953)">Margins</text>
  <text style="stroke:none;fill:black;font-family:sans-serif;font-size:13;" transform="matrix(1 0 0 1 776 1971)">Leading and trailing margins on the left and right side of each symbol</text>
  <text style="stroke:none;fill:black;font-family:sans-serif;font-size:13;" transform="matrix(1 0 0 1 776 1989)">can be adjusted by modifying the x-location of the margin guidelines.</text>
  <text style="stroke:none;fill:black;font-family:sans-serif;font-size:13;" transform="matrix(1 0 0 1 776 2007)">Modifications are automatically applied proportionally to all</text>
  <text style="stroke:none;fill:black;font-family:sans-serif;font-size:13;" transform="matrix(1 0 0 1 776 2025)">scales and weights.</text>
  <g transform="matrix(0.2 0 0 0.2 1289 1933)">
   <path d="m14.209 9.32617 8.49609 8.54492c4.29688 4.3457 9.22852 4.05273 13.8672-1.07422l53.4668-58.9355-4.83398-4.88281-53.0762 58.3984c-1.75781 2.00195-3.41797 2.49023-5.76172 0.146484l-5.85938-5.81055c-2.34375-2.29492-1.80664-4.00391 0.195312-5.81055l57.373-54.0039-4.88281-4.83398-57.959 54.4434c-4.93164 4.58984-5.32227 9.47266-1.02539 13.8184Zm32.0801-90.9668c-2.09961 2.05078-2.24609 4.93164-1.07422 6.88477 1.17188 1.80664 3.4668 2.97852 6.68945 2.14844 7.32422-1.70898 14.9414-2.00195 22.0703 2.68555l-2.92969 7.27539c-1.70898 4.15039-0.830078 7.08008 1.85547 9.81445l11.4746 11.5723c2.44141 2.44141 4.49219 2.53906 7.32422 2.05078l5.32227-0.976562 3.32031 3.36914-0.195312 2.7832c-0.195312 2.49023 0.439453 4.39453 2.88086 6.78711l3.80859 3.71094c2.39258 2.39258 5.46875 2.53906 7.8125 0.195312l14.5508-14.5996c2.34375-2.34375 2.24609-5.32227-0.146484-7.71484l-3.85742-3.80859c-2.39258-2.39258-4.24805-3.17383-6.64062-2.97852l-2.88086 0.244141-3.22266-3.17383 1.2207-5.61523c0.634766-2.83203-0.146484-5.0293-3.07617-7.95898l-10.9863-10.9375c-16.6992-16.6016-38.8672-16.2109-53.3203-1.75781Zm7.4707 1.85547c12.1582-8.88672 28.6133-7.37305 39.7461 3.75977l12.1582 12.0605c1.17188 1.17188 1.36719 2.09961 1.02539 3.80859l-1.61133 7.42188 7.51953 7.42188 4.93164-0.292969c1.26953-0.0488281 1.66016 0.0488281 2.63672 1.02539l2.88086 2.88086-12.207 12.207-2.88086-2.88086c-0.976562-0.976562-1.12305-1.36719-1.07422-2.68555l0.341797-4.88281-7.4707-7.42188-7.61719 1.26953c-1.61133 0.341797-2.34375 0.195312-3.56445-0.976562l-10.0098-10.0098c-1.26953-1.17188-1.41602-2.00195-0.634766-3.85742l4.39453-10.4492c-7.8125-7.27539-17.9688-10.4004-28.125-7.42188-0.78125 0.195312-1.07422-0.439453-0.439453-0.976562Z"/>
  </g>
  <text style="stroke:none;fill:black;font-family:sans-serif;font-size:13;font-weight:bold;" transform="matrix(1 0 0 1 1289 1953)">Exporting</text>
  <text style="stroke:none;fill:black;font-family:sans-serif;font-size:13;" transform="matrix(1 0 0 1 1289 1971)">Symbols should be outlined when exporting to ensure the</text>
  <text style="stroke:none;fill:black;font-family:sans-serif;font-size:13;" transform="matrix(1 0 0 1 1289 1989)">design is preserved when submitting to Xcode.</text>
  <text id="template-version" style="stroke:none;fill:black;font-family:sans-serif;font-size:13;text-anchor:end;" transform="matrix(1 0 0 1 3036 1933)">Template v.6.0</text>
  <text style="stroke:none;fill:black;font-family:sans-serif;font-size:13;text-anchor:end;" transform="matrix(1 0 0 1 3036 1951)">Requires Xcode 16 or greater</text>
  <text id="descriptive-name" style="stroke:none;fill:black;font-family:sans-serif;font-size:13;text-anchor:end;" transform="matrix(1 0 0 1 3036 1969)">Generated from square</text>
  <text style="stroke:none;fill:black;font-family:sans-serif;font-size:13;text-anchor:end;" transform="matrix(1 0 0 1 3036 1987)">Typeset at 100.0 points</text>
  <text style="stroke:none;fill:black;font-family:sans-serif;font-size:13;" transform="matrix(1 0 0 1 263 726)">Small</text>
  <text style="stroke:none;fill:black;font-family:sans-serif;font-size:13;" transform="matrix(1 0 0 1 263 1156)">Medium</text>
  <text style="stroke:none;fill:black;font-family:sans-serif;font-size:13;" transform="matrix(1 0 0 1 263 1586)">Large</text>
 </g>
 <g id="Guides">
  <g id="H-reference" style="fill:#27AAE1;stroke:none;" transform="matrix(1 0 0 1 339 696)">
   <path d="M0.993654 0L3.63775 0L29.3281-67.1323L30.0303-67.1323L30.0303-70.459L28.1226-70.459ZM11.6885-24.4799L46.9815-24.4799L46.2315-26.7285L12.4385-26.7285ZM55.1196 0L57.7637 0L30.6382-70.459L29.4326-70.459L29.4326-67.1323Z"/>
  </g>
  <line id="Baseline-S" style="fill:none;stroke:#27AAE1;opacity:1;stroke-width:0.5;" x1="263" x2="3036" y1="696" y2="696"/>
  <line id="Capline-S" style="fill:none;stroke:#27AAE1;opacity:1;stroke-width:0.5;" x1="263" x2="3036" y1="625.541" y2="625.541"/>
  <g id="H-reference" style="fill:#27AAE1;stroke:none;" transform="matrix(1 0 0 1 339 1126)">
   <path d="M0.993654 0L3.63775 0L29.3281-67.1323L30.0303-67.1323L30.0303-70.459L28.1226-70.459ZM11.6885-24.4799L46.9815-24.4799L46.2315-26.7285L12.4385-26.7285ZM55.1196 0L57.7637 0L30.6382-70.459L29.4326-70.459L29.4326-67.1323Z"/>
  </g>
  <line id="Baseline-M" style="fill:none;stroke:#27AAE1;opacity:1;stroke-width:0.5;" x1="263" x2="3036" y1="1126" y2="1126"/>
  <line id="Capline-M" style="fill:none;stroke:#27AAE1;opacity:1;stroke-width:0.5;" x1="263" x2="3036" y1="1055.54" y2="1055.54"/>
  <g id="H-reference" style="fill:#27AAE1;stroke:none;" transform="matrix(1 0 0 1 339 1556)">
   <path d="M0.993654 0L3.63775 0L29.3281-67.1323L30.0303-67.1323L30.0303-70.459L28.1226-70.459ZM11.6885-24.4799L46.9815-24.4799L46.2315-26.7285L12.4385-26.7285ZM55.1196 0L57.7637 0L30.6382-70.459L29.4326-70.459L29.4326-67.1323Z"/>
  </g>
  <line id="Baseline-L" style="fill:none;stroke:#27AAE1;opacity:1;stroke-width:0.5;" x1="263" x2="3036" y1="1556" y2="1556"/>
  <line id="Capline-L" style="fill:none;stroke:#27AAE1;opacity:1;stroke-width:0.5;" x1="263" x2="3036" y1="1485.54" y2="1485.54"/>
  <line id="right-margin-Black-S" style="fill:none;stroke:#00AEEF;stroke-width:0.5;opacity:1.0;" x1="2981.3" x2="2981.3" y1="600.785" y2="720.121"/>
  <line id="left-margin-Black-S" style="fill:none;stroke:#00AEEF;stroke-width:0.5;opacity:1.0;" x1="2885.5" x2="2885.5" y1="600.785" y2="720.121"/>
  <line id="right-margin-Regular-S" style="fill:none;stroke:#00AEEF;stroke-width:0.5;opacity:1.0;" x1="1495.18" x2="1495.18" y1="600.785" y2="720.121"/>
  <line id="left-margin-Regular-S" style="fill:none;stroke:#00AEEF;stroke-width:0.5;opacity:1.0;" x1="1404.51" x2="1404.51" y1="600.785" y2="720.121"/>
  <line id="right-margin-Ultralight-S" style="fill:none;stroke:#00AEEF;stroke-width:0.5;opacity:1.0;" x1="603.073" x2="603.073" y1="600.785" y2="720.121"/>
  <line id="left-margin-Ultralight-S" style="fill:none;stroke:#00AEEF;stroke-width:0.5;opacity:1.0;" x1="516.35" x2="516.35" y1="600.785" y2="720.121"/>
 </g>
 <g id="Symbols">
  <g id="Black-S"><path d="M2931.41676,632.26954c-4.618,0.29358 -8.86902,1.65285 -12.97032,4.14827c-1.86716,1.13615 -3.35267,2.29579 -4.99084,3.88699c-4.72662,4.58864 -7.61544,10.40444 -8.49324,17.0863c-0.21725,1.66166 -0.18202,5.51929 0.06752,7.22205c1.03633,7.13104 4.39781,13.29326 9.75857,17.89658c3.61689,3.10313 7.81214,5.19635 12.50647,6.23856c3.83121,0.84844 8.38168,0.84844 12.21289,0c10.14022,-2.24882 18.19897,-9.6705 21.23751,-19.5553c0.9101,-2.96221 1.23303,-5.14057 1.23597,-8.33765c0.00587,-3.96332 -0.59009,-7.1692 -1.97872,-10.61876c-1.53542,-3.81946 -3.71965,-7.08406 -6.65544,-9.93178c-4.22167,-4.10424 -9.51783,-6.79048 -15.2485,-7.73581c-0.98349,-0.1644 -4.5769,-0.45211 -5.04956,-0.40807c-0.09688,0.00881 -0.83083,0.05872 -1.6323,0.10862M2934.60796,636.77892c1.05982,0.27596 1.94056,0.84551 3.09139,1.99047c1.48551,1.48257 2.5835,3.17946 3.67855,5.67782c0.85432,1.94937 1.71157,4.8147 2.15781,7.21324l0.17028,0.90129l-0.8367,0.25541c-5.91855,1.79964 -12.95858,1.81432 -18.75677,0.0411l-1.01285,-0.30826l0.16734,-0.89835c0.78386,-4.20112 2.26056,-8.05875 4.1835,-10.93582c0.76037,-1.13909 2.53359,-2.9035 3.40258,-3.3879c1.25358,-0.69578 2.48955,-0.8778 3.75488,-0.54899M2923.05856,639.33599c-1.57358,2.65689 -3.11487,6.77287 -3.92515,10.48077c-0.1145,0.5167 -0.22312,0.96 -0.24367,0.98349c-0.12624,0.14385 -4.19231,-2.31927 -5.26387,-3.1912l-0.34349,-0.2789l0.3934,-0.57542c1.5501,-2.27817 4.26864,-4.84406 6.86682,-6.47635c0.50789,-0.32 2.75964,-1.5501 2.85065,-1.55597c0.01761,-0.00294 -0.13211,0.27303 -0.33468,0.61358M2945.9636,640.10517c2.71854,1.64111 5.53397,4.25103 7.16333,6.64957l0.3934,0.57542l-0.34349,0.2789c-1.07156,0.87193 -5.13763,3.33506 -5.26387,3.1912c-0.02055,-0.02349 -0.12917,-0.46679 -0.24367,-0.98349c-0.81028,-3.71084 -2.35157,-7.82388 -3.92809,-10.48371l-0.36697,-0.62239l0.85138,0.43156c0.46973,0.23486 1.25065,0.66936 1.73799,0.96294M2912.26366,652.05384c1.38569,0.95707 3.22937,2.0345 4.67965,2.73029c1.32991,0.64294 1.32991,0.64294 1.26239,1.00698c-0.03817,0.20257 -0.10275,1.84661 -0.14679,3.65506c-0.07927,3.49946 0.03523,5.8481 0.41982,8.57838c0.11743,0.8367 0.19963,1.53835 0.18202,1.55891c-0.05284,0.05872 -1.05395,-0.26422 -2.75671,-0.88954c-1.67927,-0.61652 -3.978,-1.62936 -5.34314,-2.35157l-0.82202,-0.43743l-0.13798,-0.70459c-0.54606,-2.76258 -0.51376,-6.29434 0.08514,-9.25948c0.43743,-2.15781 1.3123,-4.72369 1.56184,-4.5769c0.07339,0.04404 0.53138,0.35523 1.01578,0.68991M2956.18896,652.59109c0.84551,2.29579 1.27413,4.5769 1.37101,7.3248c0.06459,1.86716 -0.06752,3.83708 -0.35523,5.28442l-0.14092,0.70459l-0.82202,0.43743c-1.36514,0.7222 -3.66387,1.73505 -5.34314,2.35157c-1.70569,0.62826 -2.70386,0.94826 -2.75671,0.88954c-0.02055,-0.02055 0.03817,-0.51376 0.12624,-1.09505c0.40514,-2.67157 0.54606,-5.31965 0.47266,-8.86609c-0.0411,-1.90533 -0.10569,-3.62864 -0.14385,-3.83121c-0.07046,-0.36697 -0.06752,-0.36697 1.18606,-0.96588c1.45028,-0.69285 3.58167,-1.94056 4.92919,-2.88295c1.06276,-0.74569 0.94239,-0.79854 1.4767,0.64881M2924.47655,657.50267c2.89763,0.73982 5.65433,1.06276 9.04224,1.05982c3.29396,0 6.00076,-0.33468 9.03343,-1.1156c0.86606,-0.22312 1.60588,-0.37578 1.64404,-0.34055c0.14092,0.14092 0.20551,3.60809 0.10862,5.92149c-0.10569,2.52772 -0.30239,4.35671 -0.70165,6.53214l-0.24073,1.30936l-1.95817,0.29945c-3.0679,0.47266 -4.66204,0.59303 -7.94425,0.59009c-3.33212,0 -5.07305,-0.12917 -8.06168,-0.59009l-1.95817,-0.30239l-0.24073,-1.30643c-0.56954,-3.09139 -0.86312,-7.11342 -0.76037,-10.34866c0.06752,-2.09322 0.09395,-2.21946 0.42863,-2.12551c0.14092,0.0411 0.86606,0.22899 1.60881,0.41688M2915.64569,673.28254c1.01578,0.34642 2.37505,0.77798 3.0268,0.95707l1.18312,0.32587l0.13798,0.5167c0.4756,1.78203 2.04625,5.4547 3.07377,7.19269l0.37578,0.6312l-1.27413,-0.6723c-3.96332,-2.09615 -7.23672,-5.18754 -9.52664,-9.00114c-0.88954,-1.47964 -0.89542,-1.44441 0.20551,-0.98055c0.52551,0.22018 1.78496,0.68698 2.79781,1.03046M2954.2396,673.09465c-2.32808,3.91635 -5.58387,7.01067 -9.60591,9.13912l-1.27413,0.6723l0.37578,-0.6312c1.02753,-1.73799 2.59818,-5.41066 3.07377,-7.19269l0.13798,-0.5167l1.18312,-0.32587c1.52368,-0.41982 4.57983,-1.46496 5.77177,-1.96992c0.51376,-0.21725 0.9512,-0.37872 0.97762,-0.35817c0.02349,0.01761 -0.26422,0.55193 -0.64,1.18312M2927.35069,675.90421c3.31157,0.39927 9.82316,0.32881 13.2551,-0.14679c0.70165,-0.09688 1.30349,-0.15266 1.33285,-0.12037c0.0822,0.0822 -0.83964,2.21065 -1.45909,3.36148c-1.14202,2.13138 -2.70974,4.04846 -4.07488,4.99084c-1.9112,1.31523 -4.09543,1.31523 -6.00663,0c-1.32991,-0.91597 -2.90056,-2.82423 -4.01616,-4.87341c-0.47266,-0.86606 -1.31817,-2.72735 -1.49138,-3.27341c-0.08514,-0.27596 -0.07927,-0.2789 0.48147,-0.19376c0.31119,0.04697 1.20367,0.16147 1.97872,0.25541" className="SFSymbolsPreviewWireframe"/></g>
  <g id="Regular-S"><path d="M1447.86171,632.26954c-4.618,0.29358 -8.86902,1.65285 -12.97032,4.14827c-1.86716,1.13615 -3.35267,2.29579 -4.99084,3.88699c-4.72662,4.58864 -7.61544,10.40444 -8.49324,17.0863c-0.21725,1.66166 -0.18202,5.51929 0.06752,7.22205c1.03633,7.13104 4.39781,13.29326 9.75857,17.89658c3.61689,3.10313 7.81214,5.19635 12.50647,6.23856c3.83121,0.84844 8.38168,0.84844 12.21289,0c10.14022,-2.24882 18.19897,-9.6705 21.23751,-19.5553c0.9101,-2.96221 1.23303,-5.14057 1.23597,-8.33765c0.00587,-3.96332 -0.59009,-7.1692 -1.97872,-10.61876c-1.53542,-3.81946 -3.71965,-7.08406 -6.65544,-9.93178c-4.22167,-4.10424 -9.51783,-6.79048 -15.2485,-7.73581c-0.98349,-0.1644 -4.5769,-0.45211 -5.04956,-0.40807c-0.09688,0.00881 -0.83083,0.05872 -1.6323,0.10862M1451.05291,636.77892c1.05982,0.27596 1.94056,0.84551 3.09139,1.99047c1.48551,1.48257 2.5835,3.17946 3.67855,5.67782c0.85432,1.94937 1.71157,4.8147 2.15781,7.21324l0.17028,0.90129l-0.8367,0.25541c-5.91855,1.79964 -12.95858,1.81432 -18.75677,0.0411l-1.01285,-0.30826l0.16734,-0.89835c0.78386,-4.20112 2.26056,-8.05875 4.1835,-10.93582c0.76037,-1.13909 2.53359,-2.9035 3.40258,-3.3879c1.25358,-0.69578 2.48955,-0.8778 3.75488,-0.54899M1439.50351,639.33599c-1.57358,2.65689 -3.11487,6.77287 -3.92515,10.48077c-0.1145,0.5167 -0.22312,0.96 -0.24367,0.98349c-0.12624,0.14385 -4.19231,-2.31927 -5.26387,-3.1912l-0.34349,-0.2789l0.3934,-0.57542c1.5501,-2.27817 4.26864,-4.84406 6.86682,-6.47635c0.50789,-0.32 2.75964,-1.5501 2.85065,-1.55597c0.01761,-0.00294 -0.13211,0.27303 -0.33468,0.61358M1462.40855,640.10517c2.71854,1.64111 5.53397,4.25103 7.16333,6.64957l0.3934,0.57542l-0.34349,0.2789c-1.07156,0.87193 -5.13763,3.33506 -5.26387,3.1912c-0.02055,-0.02349 -0.12917,-0.46679 -0.24367,-0.98349c-0.81028,-3.71084 -2.35157,-7.82388 -3.92809,-10.48371l-0.36697,-0.62239l0.85138,0.43156c0.46973,0.23486 1.25065,0.66936 1.73799,0.96294M1428.70861,652.05384c1.38569,0.95707 3.22937,2.0345 4.67965,2.73029c1.32991,0.64294 1.32991,0.64294 1.26239,1.00698c-0.03817,0.20257 -0.10275,1.84661 -0.14679,3.65506c-0.07927,3.49946 0.03523,5.8481 0.41982,8.57838c0.11743,0.8367 0.19963,1.53835 0.18202,1.55891c-0.05284,0.05872 -1.05395,-0.26422 -2.75671,-0.88954c-1.67927,-0.61652 -3.978,-1.62936 -5.34314,-2.35157l-0.82202,-0.43743l-0.13798,-0.70459c-0.54606,-2.76258 -0.51376,-6.29434 0.08514,-9.25948c0.43743,-2.15781 1.3123,-4.72369 1.56184,-4.5769c0.07339,0.04404 0.53138,0.35523 1.01578,0.68991M1472.63391,652.59109c0.84551,2.29579 1.27413,4.5769 1.37101,7.3248c0.06459,1.86716 -0.06752,3.83708 -0.35523,5.28442l-0.14092,0.70459l-0.82202,0.43743c-1.36514,0.7222 -3.66387,1.73505 -5.34314,2.35157c-1.70569,0.62826 -2.70386,0.94826 -2.75671,0.88954c-0.02055,-0.02055 0.03817,-0.51376 0.12624,-1.09505c0.40514,-2.67157 0.54606,-5.31965 0.47266,-8.86609c-0.0411,-1.90533 -0.10569,-3.62864 -0.14385,-3.83121c-0.07046,-0.36697 -0.06752,-0.36697 1.18606,-0.96588c1.45028,-0.69285 3.58167,-1.94056 4.92919,-2.88295c1.06276,-0.74569 0.94239,-0.79854 1.4767,0.64881M1440.9215,657.50267c2.89763,0.73982 5.65433,1.06276 9.04224,1.05982c3.29396,0 6.00076,-0.33468 9.03343,-1.1156c0.86606,-0.22312 1.60588,-0.37578 1.64404,-0.34055c0.14092,0.14092 0.20551,3.60809 0.10862,5.92149c-0.10569,2.52772 -0.30239,4.35671 -0.70165,6.53214l-0.24073,1.30936l-1.95817,0.29945c-3.0679,0.47266 -4.66204,0.59303 -7.94425,0.59009c-3.33212,0 -5.07305,-0.12917 -8.06168,-0.59009l-1.95817,-0.30239l-0.24073,-1.30643c-0.56954,-3.09139 -0.86312,-7.11342 -0.76037,-10.34866c0.06752,-2.09322 0.09395,-2.21946 0.42863,-2.12551c0.14092,0.0411 0.86606,0.22899 1.60881,0.41688M1432.09064,673.28254c1.01578,0.34642 2.37505,0.77798 3.0268,0.95707l1.18312,0.32587l0.13798,0.5167c0.4756,1.78203 2.04625,5.4547 3.07377,7.19269l0.37578,0.6312l-1.27413,-0.6723c-3.96332,-2.09615 -7.23672,-5.18754 -9.52664,-9.00114c-0.88954,-1.47964 -0.89542,-1.44441 0.20551,-0.98055c0.52551,0.22018 1.78496,0.68698 2.79781,1.03046M1470.68455,673.09465c-2.32808,3.91635 -5.58387,7.01067 -9.60591,9.13912l-1.27413,0.6723l0.37578,-0.6312c1.02753,-1.73799 2.59818,-5.41066 3.07377,-7.19269l0.13798,-0.5167l1.18312,-0.32587c1.52368,-0.41982 4.57983,-1.46496 5.77177,-1.96992c0.51376,-0.21725 0.9512,-0.37872 0.97762,-0.35817c0.02349,0.01761 -0.26422,0.55193 -0.64,1.18312M1443.79564,675.90421c3.31157,0.39927 9.82316,0.32881 13.2551,-0.14679c0.70165,-0.09688 1.30349,-0.15266 1.33285,-0.12037c0.0822,0.0822 -0.83964,2.21065 -1.45909,3.36148c-1.14202,2.13138 -2.70974,4.04846 -4.07488,4.99084c-1.9112,1.31523 -4.09543,1.31523 -6.00663,0c-1.32991,-0.91597 -2.90056,-2.82423 -4.01616,-4.87341c-0.47266,-0.86606 -1.31817,-2.72735 -1.49138,-3.27341c-0.08514,-0.27596 -0.07927,-0.2789 0.48147,-0.19376c0.31119,0.04697 1.20367,0.16147 1.97872,0.25541" className="SFSymbolsPreviewWireframe"/></g>
  <g id="Ultralight-S"><path d="M557.72812,632.26954c-4.618,0.29358 -8.86902,1.65285 -12.97032,4.14827c-1.86716,1.13615 -3.35267,2.29579 -4.99084,3.88699c-4.72662,4.58864 -7.61544,10.40444 -8.49324,17.0863c-0.21725,1.66166 -0.18202,5.51929 0.06752,7.22205c1.03633,7.13104 4.39781,13.29326 9.75857,17.89658c3.61689,3.10313 7.81214,5.19635 12.50647,6.23856c3.83121,0.84844 8.38168,0.84844 12.21289,0c10.14022,-2.24882 18.19897,-9.6705 21.23751,-19.5553c0.9101,-2.96221 1.23303,-5.14057 1.23597,-8.33765c0.00587,-3.96332 -0.59009,-7.1692 -1.97872,-10.61876c-1.53542,-3.81946 -3.71965,-7.08406 -6.65544,-9.93178c-4.22167,-4.10424 -9.51783,-6.79048 -15.2485,-7.73581c-0.98349,-0.1644 -4.5769,-0.45211 -5.04956,-0.40807c-0.09688,0.00881 -0.83083,0.05872 -1.6323,0.10862M560.91932,636.77892c1.05982,0.27596 1.94056,0.84551 3.09139,1.99047c1.48551,1.48257 2.5835,3.17946 3.67855,5.67782c0.85432,1.94937 1.71157,4.8147 2.15781,7.21324l0.17028,0.90129l-0.8367,0.25541c-5.91855,1.79964 -12.95858,1.81432 -18.75677,0.0411l-1.01285,-0.30826l0.16734,-0.89835c0.78386,-4.20112 2.26056,-8.05875 4.1835,-10.93582c0.76037,-1.13909 2.53359,-2.9035 3.40258,-3.3879c1.25358,-0.69578 2.48955,-0.8778 3.75488,-0.54899M549.36992,639.33599c-1.57358,2.65689 -3.11487,6.77287 -3.92515,10.48077c-0.1145,0.5167 -0.22312,0.96 -0.24367,0.98349c-0.12624,0.14385 -4.19231,-2.31927 -5.26387,-3.1912l-0.34349,-0.2789l0.3934,-0.57542c1.5501,-2.27817 4.26864,-4.84406 6.86682,-6.47635c0.50789,-0.32 2.75964,-1.5501 2.85065,-1.55597c0.01761,-0.00294 -0.13211,0.27303 -0.33468,0.61358M572.27496,640.10517c2.71854,1.64111 5.53397,4.25103 7.16333,6.64957l0.3934,0.57542l-0.34349,0.2789c-1.07156,0.87193 -5.13763,3.33506 -5.26387,3.1912c-0.02055,-0.02349 -0.12917,-0.46679 -0.24367,-0.98349c-0.81028,-3.71084 -2.35157,-7.82388 -3.92809,-10.48371l-0.36697,-0.62239l0.85138,0.43156c0.46973,0.23486 1.25065,0.66936 1.73799,0.96294M538.57502,652.05384c1.38569,0.95707 3.22937,2.0345 4.67965,2.73029c1.32991,0.64294 1.32991,0.64294 1.26239,1.00698c-0.03817,0.20257 -0.10275,1.84661 -0.14679,3.65506c-0.07927,3.49946 0.03523,5.8481 0.41982,8.57838c0.11743,0.8367 0.19963,1.53835 0.18202,1.55891c-0.05284,0.05872 -1.05395,-0.26422 -2.75671,-0.88954c-1.67927,-0.61652 -3.978,-1.62936 -5.34314,-2.35157l-0.82202,-0.43743l-0.13798,-0.70459c-0.54606,-2.76258 -0.51376,-6.29434 0.08514,-9.25948c0.43743,-2.15781 1.3123,-4.72369 1.56184,-4.5769c0.07339,0.04404 0.53138,0.35523 1.01578,0.68991M582.50032,652.59109c0.84551,2.29579 1.27413,4.5769 1.37101,7.3248c0.06459,1.86716 -0.06752,3.83708 -0.35523,5.28442l-0.14092,0.70459l-0.82202,0.43743c-1.36514,0.7222 -3.66387,1.73505 -5.34314,2.35157c-1.70569,0.62826 -2.70386,0.94826 -2.75671,0.88954c-0.02055,-0.02055 0.03817,-0.51376 0.12624,-1.09505c0.40514,-2.67157 0.54606,-5.31965 0.47266,-8.86609c-0.0411,-1.90533 -0.10569,-3.62864 -0.14385,-3.83121c-0.07046,-0.36697 -0.06752,-0.36697 1.18606,-0.96588c1.45028,-0.69285 3.58167,-1.94056 4.92919,-2.88295c1.06276,-0.74569 0.94239,-0.79854 1.4767,0.64881M550.78791,657.50267c2.89763,0.73982 5.65433,1.06276 9.04224,1.05982c3.29396,0 6.00076,-0.33468 9.03343,-1.1156c0.86606,-0.22312 1.60588,-0.37578 1.64404,-0.34055c0.14092,0.14092 0.20551,3.60809 0.10862,5.92149c-0.10569,2.52772 -0.30239,4.35671 -0.70165,6.53214l-0.24073,1.30936l-1.95817,0.29945c-3.0679,0.47266 -4.66204,0.59303 -7.94425,0.59009c-3.33212,0 -5.07305,-0.12917 -8.06168,-0.59009l-1.95817,-0.30239l-0.24073,-1.30643c-0.56954,-3.09139 -0.86312,-7.11342 -0.76037,-10.34866c0.06752,-2.09322 0.09395,-2.21946 0.42863,-2.12551c0.14092,0.0411 0.86606,0.22899 1.60881,0.41688M541.95705,673.28254c1.01578,0.34642 2.37505,0.77798 3.0268,0.95707l1.18312,0.32587l0.13798,0.5167c0.4756,1.78203 2.04625,5.4547 3.07377,7.19269l0.37578,0.6312l-1.27413,-0.6723c-3.96332,-2.09615 -7.23672,-5.18754 -9.52664,-9.00114c-0.88954,-1.47964 -0.89542,-1.44441 0.20551,-0.98055c0.52551,0.22018 1.78496,0.68698 2.79781,1.03046M580.55096,673.09465c-2.32808,3.91635 -5.58387,7.01067 -9.60591,9.13912l-1.27413,0.6723l0.37578,-0.6312c1.02753,-1.73799 2.59818,-5.41066 3.07377,-7.19269l0.13798,-0.5167l1.18312,-0.32587c1.52368,-0.41982 4.57983,-1.46496 5.77177,-1.96992c0.51376,-0.21725 0.9512,-0.37872 0.97762,-0.35817c0.02349,0.01761 -0.26422,0.55193 -0.64,1.18312M553.66205,675.90421c3.31157,0.39927 9.82316,0.32881 13.2551,-0.14679c0.70165,-0.09688 1.30349,-0.15266 1.33285,-0.12037c0.0822,0.0822 -0.83964,2.21065 -1.45909,3.36148c-1.14202,2.13138 -2.70974,4.04846 -4.07488,4.99084c-1.9112,1.31523 -4.09543,1.31523 -6.00663,0c-1.32991,-0.91597 -2.90056,-2.82423 -4.01616,-4.87341c-0.47266,-0.86606 -1.31817,-2.72735 -1.49138,-3.27341c-0.08514,-0.27596 -0.07927,-0.2789 0.48147,-0.19376c0.31119,0.04697 1.20367,0.16147 1.97872,0.25541" className="SFSymbolsPreviewWireframe"/></g>
 </g>
</svg>