<?xml version="1.0" encoding="UTF-8"?><!--Generator: https://SymbolKit.app--><!DOCTYPE svg PUBLIC "-//W3C//DTD SVG 1.1//EN" "http://www.w3.org/Graphics/SVG/1.1/DTD/svg11.dtd"><svg xmlns="http://www.w3.org/2000/svg" xmlns:xlink="http://www.w3.org/1999/xlink" version="1.1" viewBox="0 0 3300 2200">
 <!--glyph: "100092", point size: 100.0, font version: "20.0d10e1", template writer version: "138.0.0"-->
 <style>.SFSymbolsPreviewWireframe {fill:none;opacity:1.0;stroke:black;stroke-width:0.5}
</style>
 <g id="Notes">
  <rect height="2200" id="artboard" style="fill:white;opacity:1" width="3300" x="0" y="0"/>
  <line style="fill:none;stroke:black;opacity:1;stroke-width:0.5;" x1="263" x2="3036" y1="292" y2="292"/>
  <text style="stroke:none;fill:black;font-family:sans-serif;font-size:13;font-weight:bold;" transform="matrix(1 0 0 1 263 322)">Weight/Scale Variations</text>
  <text style="stroke:none;fill:black;font-family:sans-serif;font-size:13;text-anchor:middle;" transform="matrix(1 0 0 1 559.711 322)">Ultralight</text>
  <text style="stroke:none;fill:black;font-family:sans-serif;font-size:13;text-anchor:middle;" transform="matrix(1 0 0 1 856.422 322)">Thin</text>
  <text style="stroke:none;fill:black;font-family:sans-serif;font-size:13;text-anchor:middle;" transform="matrix(1 0 0 1 1153.13 322)">Light</text>
  <text style="stroke:none;fill:black;font-family:sans-serif;font-size:13;text-anchor:middle;" transform="matrix(1 0 0 1 1449.84 322)">Regular</text>
  <text style="stroke:none;fill:black;font-family:sans-serif;font-size:13;text-anchor:middle;" transform="matrix(1 0 0 1 1746.56 322)">Medium</text>
  <text style="stroke:none;fill:black;font-family:sans-serif;font-size:13;text-anchor:middle;" transform="matrix(1 0 0 1 2043.27 322)">Semibold</text>
  <text style="stroke:none;fill:black;font-family:sans-serif;font-size:13;text-anchor:middle;" transform="matrix(1 0 0 1 2339.98 322)">Bold</text>
  <text style="stroke:none;fill:black;font-family:sans-serif;font-size:13;text-anchor:middle;" transform="matrix(1 0 0 1 2636.69 322)">Heavy</text>
  <text style="stroke:none;fill:black;font-family:sans-serif;font-size:13;text-anchor:middle;" transform="matrix(1 0 0 1 2933.4 322)">Black</text>
  <line style="fill:none;stroke:black;opacity:1;stroke-width:0.5;" x1="263" x2="3036" y1="1903" y2="1903"/>
  <g transform="matrix(0.2 0 0 0.2 263 1933)">
   <path d="m46.2402 4.15039c21.7773 0 39.4531-17.627 39.4531-39.4043s-17.6758-39.4043-39.4531-39.4043c-21.7285 0-39.4043 17.627-39.4043 39.4043s17.6758 39.4043 39.4043 39.4043Zm0-7.42188c-17.6758 0-31.9336-14.3066-31.9336-31.9824s14.2578-31.9824 31.9336-31.9824 31.9824 14.3066 31.9824 31.9824-14.3066 31.9824-31.9824 31.9824Zm-17.9688-31.9824c0 2.14844 1.51367 3.61328 3.75977 3.61328h10.498v10.5957c0 2.19727 1.46484 3.71094 3.61328 3.71094 2.24609 0 3.71094-1.51367 3.71094-3.71094v-10.5957h10.5957c2.19727 0 3.71094-1.46484 3.71094-3.61328 0-2.19727-1.51367-3.71094-3.71094-3.71094h-10.5957v-10.5469c0-2.24609-1.46484-3.75977-3.71094-3.75977-2.14844 0-3.61328 1.51367-3.61328 3.75977v10.5469h-10.498c-2.24609 0-3.75977 1.51367-3.75977 3.71094Z"/>
  </g>
  <g transform="matrix(0.2 0 0 0.2 281.506 1933)">
   <path d="m58.5449 14.5508c27.4902 0 49.8047-22.3145 49.8047-49.8047s-22.3145-49.8047-49.8047-49.8047-49.8047 22.3145-49.8047 49.8047 22.3145 49.8047 49.8047 49.8047Zm0-8.30078c-22.9492 0-41.5039-18.5547-41.5039-41.5039s18.5547-41.5039 41.5039-41.5039 41.5039 18.5547 41.5039 41.5039-18.5547 41.5039-41.5039 41.5039Zm-22.6562-41.5039c0 2.39258 1.66016 4.00391 4.15039 4.00391h14.3555v14.4043c0 2.44141 1.66016 4.15039 4.05273 4.15039 2.44141 0 4.15039-1.66016 4.15039-4.15039v-14.4043h14.4043c2.44141 0 4.15039-1.61133 4.15039-4.00391 0-2.44141-1.70898-4.15039-4.15039-4.15039h-14.4043v-14.3555c0-2.49023-1.70898-4.19922-4.15039-4.19922-2.39258 0-4.05273 1.70898-4.05273 4.19922v14.3555h-14.3555c-2.49023 0-4.15039 1.70898-4.15039 4.15039Z"/>
  </g>
  <g transform="matrix(0.2 0 0 0.2 304.924 1933)">
   <path d="m74.8535 28.3203c35.1074 0 63.623-28.4668 63.623-63.5742s-28.5156-63.623-63.623-63.623-63.5742 28.5156-63.5742 63.623 28.4668 63.5742 63.5742 63.5742Zm0-9.08203c-30.127 0-54.4922-24.3652-54.4922-54.4922s24.3652-54.4922 54.4922-54.4922 54.4922 24.3652 54.4922 54.4922-24.3652 54.4922-54.4922 54.4922Zm-28.8574-54.4922c0 2.58789 1.85547 4.39453 4.58984 4.39453h19.7266v19.7754c0 2.68555 1.85547 4.58984 4.44336 4.58984 2.68555 0 4.54102-1.85547 4.54102-4.58984v-19.7754h19.7754c2.68555 0 4.58984-1.80664 4.58984-4.39453 0-2.73438-1.85547-4.58984-4.58984-4.58984h-19.7754v-19.7266c0-2.73438-1.85547-4.63867-4.54102-4.63867-2.58789 0-4.44336 1.9043-4.44336 4.63867v19.7266h-19.7266c-2.73438 0-4.58984 1.85547-4.58984 4.58984Z"/>
  </g>
  <text style="stroke:none;fill:black;font-family:sans-serif;font-size:13;font-weight:bold;" transform="matrix(1 0 0 1 263 1953)">Design Variations</text>
  <text style="stroke:none;fill:black;font-family:sans-serif;font-size:13;" transform="matrix(1 0 0 1 263 1971)">Symbols are supported in up to nine weights and three scales.</text>
  <text style="stroke:none;fill:black;font-family:sans-serif;font-size:13;" transform="matrix(1 0 0 1 263 1989)">For optimal layout with text and other symbols, vertically align</text>
  <text style="stroke:none;fill:black;font-family:sans-serif;font-size:13;" transform="matrix(1 0 0 1 263 2007)">symbols with the adjacent text.</text>
  <line style="fill:none;stroke:#00AEEF;stroke-width:0.5;opacity:1.0;" x1="776" x2="776" y1="1919" y2="1933"/>
  <g transform="matrix(0.2 0 0 0.2 776 1933)">
   <path d="m16.5527 0.78125c2.58789 0 3.85742-0.976562 4.78516-3.71094l6.29883-17.2363h28.8086l6.29883 17.2363c0.927734 2.73438 2.19727 3.71094 4.73633 3.71094 2.58789 0 4.24805-1.5625 4.24805-4.00391 0-0.830078-0.146484-1.61133-0.537109-2.63672l-22.9004-60.9863c-1.12305-2.97852-3.125-4.49219-6.25-4.49219-3.02734 0-5.07812 1.46484-6.15234 4.44336l-22.9004 61.084c-0.390625 1.02539-0.537109 1.80664-0.537109 2.63672 0 2.44141 1.5625 3.95508 4.10156 3.95508Zm13.4766-28.3691 11.8652-32.8613h0.244141l11.8652 32.8613Z"/>
  </g>
  <line style="fill:none;stroke:#00AEEF;stroke-width:0.5;opacity:1.0;" x1="792.836" x2="792.836" y1="1919" y2="1933"/>
  <text style="stroke:none;fill:black;font-family:sans-serif;font-size:13;font-weight:bold;" transform="matrix(1 0 0 1 776 1953)">Margins</text>
  <text style="stroke:none;fill:black;font-family:sans-serif;font-size:13;" transform="matrix(1 0 0 1 776 1971)">Leading and trailing margins on the left and right side of each symbol</text>
  <text style="stroke:none;fill:black;font-family:sans-serif;font-size:13;" transform="matrix(1 0 0 1 776 1989)">can be adjusted by modifying the x-location of the margin guidelines.</text>
  <text style="stroke:none;fill:black;font-family:sans-serif;font-size:13;" transform="matrix(1 0 0 1 776 2007)">Modifications are automatically applied proportionally to all</text>
  <text style="stroke:none;fill:black;font-family:sans-serif;font-size:13;" transform="matrix(1 0 0 1 776 2025)">scales and weights.</text>
  <g transform="matrix(0.2 0 0 0.2 1289 1933)">
   <path d="m14.209 9.32617 8.49609 8.54492c4.29688 4.3457 9.22852 4.05273 13.8672-1.07422l53.4668-58.9355-4.83398-4.88281-53.0762 58.3984c-1.75781 2.00195-3.41797 2.49023-5.76172 0.146484l-5.85938-5.81055c-2.34375-2.29492-1.80664-4.00391 0.195312-5.81055l57.373-54.0039-4.88281-4.83398-57.959 54.4434c-4.93164 4.58984-5.32227 9.47266-1.02539 13.8184Zm32.0801-90.9668c-2.09961 2.05078-2.24609 4.93164-1.07422 6.88477 1.17188 1.80664 3.4668 2.97852 6.68945 2.14844 7.32422-1.70898 14.9414-2.00195 22.0703 2.68555l-2.92969 7.27539c-1.70898 4.15039-0.830078 7.08008 1.85547 9.81445l11.4746 11.5723c2.44141 2.44141 4.49219 2.53906 7.32422 2.05078l5.32227-0.976562 3.32031 3.36914-0.195312 2.7832c-0.195312 2.49023 0.439453 4.39453 2.88086 6.78711l3.80859 3.71094c2.39258 2.39258 5.46875 2.53906 7.8125 0.195312l14.5508-14.5996c2.34375-2.34375 2.24609-5.32227-0.146484-7.71484l-3.85742-3.80859c-2.39258-2.39258-4.24805-3.17383-6.64062-2.97852l-2.88086 0.244141-3.22266-3.17383 1.2207-5.61523c0.634766-2.83203-0.146484-5.0293-3.07617-7.95898l-10.9863-10.9375c-16.6992-16.6016-38.8672-16.2109-53.3203-1.75781Zm7.4707 1.85547c12.1582-8.88672 28.6133-7.37305 39.7461 3.75977l12.1582 12.0605c1.17188 1.17188 1.36719 2.09961 1.02539 3.80859l-1.61133 7.42188 7.51953 7.42188 4.93164-0.292969c1.26953-0.0488281 1.66016 0.0488281 2.63672 1.02539l2.88086 2.88086-12.207 12.207-2.88086-2.88086c-0.976562-0.976562-1.12305-1.36719-1.07422-2.68555l0.341797-4.88281-7.4707-7.42188-7.61719 1.26953c-1.61133 0.341797-2.34375 0.195312-3.56445-0.976562l-10.0098-10.0098c-1.26953-1.17188-1.41602-2.00195-0.634766-3.85742l4.39453-10.4492c-7.8125-7.27539-17.9688-10.4004-28.125-7.42188-0.78125 0.195312-1.07422-0.439453-0.439453-0.976562Z"/>
  </g>
  <text style="stroke:none;fill:black;font-family:sans-serif;font-size:13;font-weight:bold;" transform="matrix(1 0 0 1 1289 1953)">Exporting</text>
  <text style="stroke:none;fill:black;font-family:sans-serif;font-size:13;" transform="matrix(1 0 0 1 1289 1971)">Symbols should be outlined when exporting to ensure the</text>
  <text style="stroke:none;fill:black;font-family:sans-serif;font-size:13;" transform="matrix(1 0 0 1 1289 1989)">design is preserved when submitting to Xcode.</text>
  <text id="template-version" style="stroke:none;fill:black;font-family:sans-serif;font-size:13;text-anchor:end;" transform="matrix(1 0 0 1 3036 1933)">Template v.6.0</text>
  <text style="stroke:none;fill:black;font-family:sans-serif;font-size:13;text-anchor:end;" transform="matrix(1 0 0 1 3036 1951)">Requires Xcode 16 or greater</text>
  <text id="descriptive-name" style="stroke:none;fill:black;font-family:sans-serif;font-size:13;text-anchor:end;" transform="matrix(1 0 0 1 3036 1969)">Generated from square</text>
  <text style="stroke:none;fill:black;font-family:sans-serif;font-size:13;text-anchor:end;" transform="matrix(1 0 0 1 3036 1987)">Typeset at 100.0 points</text>
  <text style="stroke:none;fill:black;font-family:sans-serif;font-size:13;" transform="matrix(1 0 0 1 263 726)">Small</text>
  <text style="stroke:none;fill:black;font-family:sans-serif;font-size:13;" transform="matrix(1 0 0 1 263 1156)">Medium</text>
  <text style="stroke:none;fill:black;font-family:sans-serif;font-size:13;" transform="matrix(1 0 0 1 263 1586)">Large</text>
 </g>
 <g id="Guides">
  <g id="H-reference" style="fill:#27AAE1;stroke:none;" transform="matrix(1 0 0 1 339 696)">
   <path d="M0.993654 0L3.63775 0L29.3281-67.1323L30.0303-67.1323L30.0303-70.459L28.1226-70.459ZM11.6885-24.4799L46.9815-24.4799L46.2315-26.7285L12.4385-26.7285ZM55.1196 0L57.7637 0L30.6382-70.459L29.4326-70.459L29.4326-67.1323Z"/>
  </g>
  <line id="Baseline-S" style="fill:none;stroke:#27AAE1;opacity:1;stroke-width:0.5;" x1="263" x2="3036" y1="696" y2="696"/>
  <line id="Capline-S" style="fill:none;stroke:#27AAE1;opacity:1;stroke-width:0.5;" x1="263" x2="3036" y1="625.541" y2="625.541"/>
  <g id="H-reference" style="fill:#27AAE1;stroke:none;" transform="matrix(1 0 0 1 339 1126)">
   <path d="M0.993654 0L3.63775 0L29.3281-67.1323L30.0303-67.1323L30.0303-70.459L28.1226-70.459ZM11.6885-24.4799L46.9815-24.4799L46.2315-26.7285L12.4385-26.7285ZM55.1196 0L57.7637 0L30.6382-70.459L29.4326-70.459L29.4326-67.1323Z"/>
  </g>
  <line id="Baseline-M" style="fill:none;stroke:#27AAE1;opacity:1;stroke-width:0.5;" x1="263" x2="3036" y1="1126" y2="1126"/>
  <line id="Capline-M" style="fill:none;stroke:#27AAE1;opacity:1;stroke-width:0.5;" x1="263" x2="3036" y1="1055.54" y2="1055.54"/>
  <g id="H-reference" style="fill:#27AAE1;stroke:none;" transform="matrix(1 0 0 1 339 1556)">
   <path d="M0.993654 0L3.63775 0L29.3281-67.1323L30.0303-67.1323L30.0303-70.459L28.1226-70.459ZM11.6885-24.4799L46.9815-24.4799L46.2315-26.7285L12.4385-26.7285ZM55.1196 0L57.7637 0L30.6382-70.459L29.4326-70.459L29.4326-67.1323Z"/>
  </g>
  <line id="Baseline-L" style="fill:none;stroke:#27AAE1;opacity:1;stroke-width:0.5;" x1="263" x2="3036" y1="1556" y2="1556"/>
  <line id="Capline-L" style="fill:none;stroke:#27AAE1;opacity:1;stroke-width:0.5;" x1="263" x2="3036" y1="1485.54" y2="1485.54"/>
  <line id="right-margin-Black-S" style="fill:none;stroke:#00AEEF;stroke-width:0.5;opacity:1.0;" x1="2981.3" x2="2981.3" y1="600.785" y2="720.121"/>
  <line id="left-margin-Black-S" style="fill:none;stroke:#00AEEF;stroke-width:0.5;opacity:1.0;" x1="2885.5" x2="2885.5" y1="600.785" y2="720.121"/>
  <line id="right-margin-Regular-S" style="fill:none;stroke:#00AEEF;stroke-width:0.5;opacity:1.0;" x1="1495.18" x2="1495.18" y1="600.785" y2="720.121"/>
  <line id="left-margin-Regular-S" style="fill:none;stroke:#00AEEF;stroke-width:0.5;opacity:1.0;" x1="1404.51" x2="1404.51" y1="600.785" y2="720.121"/>
  <line id="right-margin-Ultralight-S" style="fill:none;stroke:#00AEEF;stroke-width:0.5;opacity:1.0;" x1="603.073" x2="603.073" y1="600.785" y2="720.121"/>
  <line id="left-margin-Ultralight-S" style="fill:none;stroke:#00AEEF;stroke-width:0.5;opacity:1.0;" x1="516.35" x2="516.35" y1="600.785" y2="720.121"/>
 </g>
 <g id="Symbols">
  <g id="Black-S"><path d="M2919.83678,634.40682c-1.41505,0.20257 -3.00331,0.86899 -4.16295,1.7468c-0.91303,0.69285 -11.19711,12.62684 -11.89876,13.80703c-0.57542,0.96881 -0.98936,2.29579 -1.1567,3.69323c-0.19376,1.65872 -0.06752,8.20554 0.17908,9.17728c0.2378,0.94532 0.78092,2.13726 1.30349,2.8624c0.22606,0.31413 0.41101,0.60477 0.41101,0.64294c0,0.03817 -0.2378,0.33468 -0.52844,0.65762c-0.73688,0.82202 -1.20661,1.86423 -1.36514,3.0268c-0.19963,1.50019 -0.06752,9.47967 0.17615,10.42499c0.68698,2.68038 2.74496,5.07305 5.23158,6.08296c1.64991,0.66936 0.43743,0.64 25.37404,0.64c24.93661,0 23.72413,0.02936 25.37404,-0.64c2.48661,-1.00991 4.5446,-3.40258 5.23158,-6.08296c0.24367,-0.94532 0.37578,-8.9248 0.17615,-10.42499c-0.15853,-1.16257 -0.62826,-2.20478 -1.36514,-3.0268c-0.29064,-0.32294 -0.52844,-0.61945 -0.52844,-0.65762c0,-0.03817 0.18495,-0.32881 0.41101,-0.64294c0.52257,-0.72514 1.06569,-1.91707 1.30349,-2.8624c0.24661,-0.96588 0.36991,-7.33654 0.17908,-9.08921c-0.1556,-1.45028 -0.56661,-2.78607 -1.1567,-3.7813c-0.24367,-0.41101 -2.84772,-3.55524 -5.79232,-6.98718c-5.66314,-6.6114 -6.06828,-7.02241 -7.6859,-7.77397c-1.85836,-0.86606 -0.69872,-0.80441 -15.79456,-0.82496c-7.45984,-0.00881 -13.72189,0.00587 -13.91565,0.03229M2947.83835,639.25675c0.70165,0.38165 1.05982,0.76331 5.03782,5.40186l4.28038,4.99084l-5.27268,0.06752c-4.91158,0.06459 -5.33727,0.08807 -6.19452,0.32294c-2.07267,0.56661 -3.78423,1.83781 -5.24039,3.89286c-0.84844,1.19487 -1.55597,1.7967 -2.58643,2.19891c-0.46679,0.18202 -0.98643,0.20844 -4.4624,0.20844c-3.47598,0 -3.99561,-0.02642 -4.4624,-0.20844c-1.03046,-0.4022 -1.73799,-1.00404 -2.58643,-2.19891c-1.45615,-2.05505 -3.16772,-3.32625 -5.24039,-3.89286c-0.85725,-0.23486 -1.28294,-0.25835 -6.19452,-0.32294l-5.27268,-0.06752l4.28038,-4.99084c3.63745,-4.23928 4.37433,-5.04075 4.90277,-5.32552c0.34055,-0.18495 0.76037,-0.37872 0.93065,-0.43156c0.17321,-0.05284 6.39122,-0.08807 13.81877,-0.07633l13.50464,0.02055l0.75743,0.41101M2920.6588,654.55809c0.78092,0.36404 1.42386,0.92771 1.96698,1.72625c1.58533,2.31927 3.22056,3.55231 5.54865,4.18057c0.73688,0.19963 1.2712,0.22312 5.22571,0.22312c3.98093,0 4.48295,-0.02055 5.22571,-0.22606c2.26643,-0.62239 3.84001,-1.7556 5.28736,-3.81359c0.82496,-1.17725 1.37395,-1.69102 2.22827,-2.09028l0.70459,-0.32881l6.4881,-0.03229l6.4881,-0.03523l-0.00294,3.44075c0,2.37212 -0.04991,3.66387 -0.1556,4.17176c-0.28184,1.33872 -1.34166,2.53359 -2.75964,3.109l-0.66349,0.26716h-22.84045h-22.84045l-0.67523,-0.27303c-1.38276,-0.5578 -2.43377,-1.72625 -2.74496,-3.05322c-0.1145,-0.4756 -0.15853,-1.66166 -0.15853,-4.16295l-0.00294,-3.49946l6.4881,0.03523l6.4881,0.03229l0.70459,0.32881M2921.00229,671.0543c2.59524,4.17176 3.17065,4.88809 4.71488,5.89507c0.47266,0.30826 1.35046,0.72514 2.00221,0.9512l1.15964,0.4022h4.52112h4.52112l1.15964,-0.4022c0.65175,-0.22606 1.52955,-0.64294 2.00221,-0.9512c1.54716,-1.00991 2.11083,-1.7145 4.71488,-5.898l0.93065,-1.49725h6.07122c4.45653,0 6.15342,0.03817 6.37947,0.14092c0.62239,0.28184 0.64294,0.44037 0.64,4.87341c0,2.90643 -0.04697,4.298 -0.1556,4.82057c-0.28184,1.33872 -1.34166,2.53359 -2.75964,3.109l-0.66349,0.26716h-22.84045h-22.84045l-0.67523,-0.27303c-1.38276,-0.5578 -2.43377,-1.72625 -2.74496,-3.05322c-0.22606,-0.9512 -0.22312,-8.87783 0.00294,-9.28591c0.32881,-0.59303 0.28477,-0.59009 6.82278,-0.59303h6.10645l0.93065,1.49432M2941.25337,669.99448c-1.43854,2.36918 -1.98459,3.01212 -2.97396,3.49653c-0.89542,0.43743 -1.69982,0.52551 -4.87928,0.52551c-3.17946,0 -3.98387,-0.08807 -4.87928,-0.52551c-0.98936,-0.48441 -1.53542,-1.12734 -2.97396,-3.49653l-0.27009,-0.44037h8.12333h8.12333l-0.27009,0.44037" className="SFSymbolsPreviewWireframe"/></g>
  <g id="Regular-S"><path d="M1436.28173,634.40682c-1.41505,0.20257 -3.00331,0.86899 -4.16295,1.7468c-0.91303,0.69285 -11.19711,12.62684 -11.89876,13.80703c-0.57542,0.96881 -0.98936,2.29579 -1.1567,3.69323c-0.19376,1.65872 -0.06752,8.20554 0.17908,9.17728c0.2378,0.94532 0.78092,2.13726 1.30349,2.8624c0.22606,0.31413 0.41101,0.60477 0.41101,0.64294c0,0.03817 -0.2378,0.33468 -0.52844,0.65762c-0.73688,0.82202 -1.20661,1.86423 -1.36514,3.0268c-0.19963,1.50019 -0.06752,9.47967 0.17615,10.42499c0.68698,2.68038 2.74496,5.07305 5.23158,6.08296c1.64991,0.66936 0.43743,0.64 25.37404,0.64c24.93661,0 23.72413,0.02936 25.37404,-0.64c2.48661,-1.00991 4.5446,-3.40258 5.23158,-6.08296c0.24367,-0.94532 0.37578,-8.9248 0.17615,-10.42499c-0.15853,-1.16257 -0.62826,-2.20478 -1.36514,-3.0268c-0.29064,-0.32294 -0.52844,-0.61945 -0.52844,-0.65762c0,-0.03817 0.18495,-0.32881 0.41101,-0.64294c0.52257,-0.72514 1.06569,-1.91707 1.30349,-2.8624c0.24661,-0.96588 0.36991,-7.33654 0.17908,-9.08921c-0.1556,-1.45028 -0.56661,-2.78607 -1.1567,-3.7813c-0.24367,-0.41101 -2.84772,-3.55524 -5.79232,-6.98718c-5.66314,-6.6114 -6.06828,-7.02241 -7.6859,-7.77397c-1.85836,-0.86606 -0.69872,-0.80441 -15.79456,-0.82496c-7.45984,-0.00881 -13.72189,0.00587 -13.91565,0.03229M1464.2833,639.25675c0.70165,0.38165 1.05982,0.76331 5.03782,5.40186l4.28038,4.99084l-5.27268,0.06752c-4.91158,0.06459 -5.33727,0.08807 -6.19452,0.32294c-2.07267,0.56661 -3.78423,1.83781 -5.24039,3.89286c-0.84844,1.19487 -1.55597,1.7967 -2.58643,2.19891c-0.46679,0.18202 -0.98643,0.20844 -4.4624,0.20844c-3.47598,0 -3.99561,-0.02642 -4.4624,-0.20844c-1.03046,-0.4022 -1.73799,-1.00404 -2.58643,-2.19891c-1.45615,-2.05505 -3.16772,-3.32625 -5.24039,-3.89286c-0.85725,-0.23486 -1.28294,-0.25835 -6.19452,-0.32294l-5.27268,-0.06752l4.28038,-4.99084c3.63745,-4.23928 4.37433,-5.04075 4.90277,-5.32552c0.34055,-0.18495 0.76037,-0.37872 0.93065,-0.43156c0.17321,-0.05284 6.39122,-0.08807 13.81877,-0.07633l13.50464,0.02055l0.75743,0.41101M1437.10375,654.55809c0.78092,0.36404 1.42386,0.92771 1.96698,1.72625c1.58533,2.31927 3.22056,3.55231 5.54865,4.18057c0.73688,0.19963 1.2712,0.22312 5.22571,0.22312c3.98093,0 4.48295,-0.02055 5.22571,-0.22606c2.26643,-0.62239 3.84001,-1.7556 5.28736,-3.81359c0.82496,-1.17725 1.37395,-1.69102 2.22827,-2.09028l0.70459,-0.32881l6.4881,-0.03229l6.4881,-0.03523l-0.00294,3.44075c0,2.37212 -0.04991,3.66387 -0.1556,4.17176c-0.28184,1.33872 -1.34166,2.53359 -2.75964,3.109l-0.66349,0.26716h-22.84045h-22.84045l-0.67523,-0.27303c-1.38276,-0.5578 -2.43377,-1.72625 -2.74496,-3.05322c-0.1145,-0.4756 -0.15853,-1.66166 -0.15853,-4.16295l-0.00294,-3.49946l6.4881,0.03523l6.4881,0.03229l0.70459,0.32881M1437.44724,671.0543c2.59524,4.17176 3.17065,4.88809 4.71488,5.89507c0.47266,0.30826 1.35046,0.72514 2.00221,0.9512l1.15964,0.4022h4.52112h4.52112l1.15964,-0.4022c0.65175,-0.22606 1.52955,-0.64294 2.00221,-0.9512c1.54716,-1.00991 2.11083,-1.7145 4.71488,-5.898l0.93065,-1.49725h6.07122c4.45653,0 6.15342,0.03817 6.37947,0.14092c0.62239,0.28184 0.64294,0.44037 0.64,4.87341c0,2.90643 -0.04697,4.298 -0.1556,4.82057c-0.28184,1.33872 -1.34166,2.53359 -2.75964,3.109l-0.66349,0.26716h-22.84045h-22.84045l-0.67523,-0.27303c-1.38276,-0.5578 -2.43377,-1.72625 -2.74496,-3.05322c-0.22606,-0.9512 -0.22312,-8.87783 0.00294,-9.28591c0.32881,-0.59303 0.28477,-0.59009 6.82278,-0.59303h6.10645l0.93065,1.49432M1457.69832,669.99448c-1.43854,2.36918 -1.98459,3.01212 -2.97396,3.49653c-0.89542,0.43743 -1.69982,0.52551 -4.87928,0.52551c-3.17946,0 -3.98387,-0.08807 -4.87928,-0.52551c-0.98936,-0.48441 -1.53542,-1.12734 -2.97396,-3.49653l-0.27009,-0.44037h8.12333h8.12333l-0.27009,0.44037" className="SFSymbolsPreviewWireframe"/></g>
  <g id="Ultralight-S"><path d="M546.14814,634.40682c-1.41505,0.20257 -3.00331,0.86899 -4.16295,1.7468c-0.91303,0.69285 -11.19711,12.62684 -11.89876,13.80703c-0.57542,0.96881 -0.98936,2.29579 -1.1567,3.69323c-0.19376,1.65872 -0.06752,8.20554 0.17908,9.17728c0.2378,0.94532 0.78092,2.13726 1.30349,2.8624c0.22606,0.31413 0.41101,0.60477 0.41101,0.64294c0,0.03817 -0.2378,0.33468 -0.52844,0.65762c-0.73688,0.82202 -1.20661,1.86423 -1.36514,3.0268c-0.19963,1.50019 -0.06752,9.47967 0.17615,10.42499c0.68698,2.68038 2.74496,5.07305 5.23158,6.08296c1.64991,0.66936 0.43743,0.64 25.37404,0.64c24.93661,0 23.72413,0.02936 25.37404,-0.64c2.48661,-1.00991 4.5446,-3.40258 5.23158,-6.08296c0.24367,-0.94532 0.37578,-8.9248 0.17615,-10.42499c-0.15853,-1.16257 -0.62826,-2.20478 -1.36514,-3.0268c-0.29064,-0.32294 -0.52844,-0.61945 -0.52844,-0.65762c0,-0.03817 0.18495,-0.32881 0.41101,-0.64294c0.52257,-0.72514 1.06569,-1.91707 1.30349,-2.8624c0.24661,-0.96588 0.36991,-7.33654 0.17908,-9.08921c-0.1556,-1.45028 -0.56661,-2.78607 -1.1567,-3.7813c-0.24367,-0.41101 -2.84772,-3.55524 -5.79232,-6.98718c-5.66314,-6.6114 -6.06828,-7.02241 -7.6859,-7.77397c-1.85836,-0.86606 -0.69872,-0.80441 -15.79456,-0.82496c-7.45984,-0.00881 -13.72189,0.00587 -13.91565,0.03229M574.14971,639.25675c0.70165,0.38165 1.05982,0.76331 5.03782,5.40186l4.28038,4.99084l-5.27268,0.06752c-4.91158,0.06459 -5.33727,0.08807 -6.19452,0.32294c-2.07267,0.56661 -3.78423,1.83781 -5.24039,3.89286c-0.84844,1.19487 -1.55597,1.7967 -2.58643,2.19891c-0.46679,0.18202 -0.98643,0.20844 -4.4624,0.20844c-3.47598,0 -3.99561,-0.02642 -4.4624,-0.20844c-1.03046,-0.4022 -1.73799,-1.00404 -2.58643,-2.19891c-1.45615,-2.05505 -3.16772,-3.32625 -5.24039,-3.89286c-0.85725,-0.23486 -1.28294,-0.25835 -6.19452,-0.32294l-5.27268,-0.06752l4.28038,-4.99084c3.63745,-4.23928 4.37433,-5.04075 4.90277,-5.32552c0.34055,-0.18495 0.76037,-0.37872 0.93065,-0.43156c0.17321,-0.05284 6.39122,-0.08807 13.81877,-0.07633l13.50464,0.02055l0.75743,0.41101M546.97016,654.55809c0.78092,0.36404 1.42386,0.92771 1.96698,1.72625c1.58533,2.31927 3.22056,3.55231 5.54865,4.18057c0.73688,0.19963 1.2712,0.22312 5.22571,0.22312c3.98093,0 4.48295,-0.02055 5.22571,-0.22606c2.26643,-0.62239 3.84001,-1.7556 5.28736,-3.81359c0.82496,-1.17725 1.37395,-1.69102 2.22827,-2.09028l0.70459,-0.32881l6.4881,-0.03229l6.4881,-0.03523l-0.00294,3.44075c0,2.37212 -0.04991,3.66387 -0.1556,4.17176c-0.28184,1.33872 -1.34166,2.53359 -2.75964,3.109l-0.66349,0.26716h-22.84045h-22.84045l-0.67523,-0.27303c-1.38276,-0.5578 -2.43377,-1.72625 -2.74496,-3.05322c-0.1145,-0.4756 -0.15853,-1.66166 -0.15853,-4.16295l-0.00294,-3.49946l6.4881,0.03523l6.4881,0.03229l0.70459,0.32881M547.31365,671.0543c2.59524,4.17176 3.17065,4.88809 4.71488,5.89507c0.47266,0.30826 1.35046,0.72514 2.00221,0.9512l1.15964,0.4022h4.52112h4.52112l1.15964,-0.4022c0.65175,-0.22606 1.52955,-0.64294 2.00221,-0.9512c1.54716,-1.00991 2.11083,-1.7145 4.71488,-5.898l0.93065,-1.49725h6.07122c4.45653,0 6.15342,0.03817 6.37947,0.14092c0.62239,0.28184 0.64294,0.44037 0.64,4.87341c0,2.90643 -0.04697,4.298 -0.1556,4.82057c-0.28184,1.33872 -1.34166,2.53359 -2.75964,3.109l-0.66349,0.26716h-22.84045h-22.84045l-0.67523,-0.27303c-1.38276,-0.5578 -2.43377,-1.72625 -2.74496,-3.05322c-0.22606,-0.9512 -0.22312,-8.87783 0.00294,-9.28591c0.32881,-0.59303 0.28477,-0.59009 6.82278,-0.59303h6.10645l0.93065,1.49432M567.56473,669.99448c-1.43854,2.36918 -1.98459,3.01212 -2.97396,3.49653c-0.89542,0.43743 -1.69982,0.52551 -4.87928,0.52551c-3.17946,0 -3.98387,-0.08807 -4.87928,-0.52551c-0.98936,-0.48441 -1.53542,-1.12734 -2.97396,-3.49653l-0.27009,-0.44037h8.12333h8.12333l-0.27009,0.44037" className="SFSymbolsPreviewWireframe"/></g>
 </g>
</svg>