<?xml version="1.0" encoding="UTF-8"?><!--Generator: https://SymbolKit.app--><!DOCTYPE svg PUBLIC "-//W3C//DTD SVG 1.1//EN" "http://www.w3.org/Graphics/SVG/1.1/DTD/svg11.dtd"><svg xmlns="http://www.w3.org/2000/svg" xmlns:xlink="http://www.w3.org/1999/xlink" version="1.1" viewBox="0 0 3300 2200">
 <!--glyph: "100092", point size: 100.0, font version: "20.0d10e1", template writer version: "138.0.0"-->
 <style>.SFSymbolsPreviewWireframe {fill:none;opacity:1.0;stroke:black;stroke-width:0.5}
</style>
 <g id="Notes">
  <rect height="2200" id="artboard" style="fill:white;opacity:1" width="3300" x="0" y="0"/>
  <line style="fill:none;stroke:black;opacity:1;stroke-width:0.5;" x1="263" x2="3036" y1="292" y2="292"/>
  <text style="stroke:none;fill:black;font-family:sans-serif;font-size:13;font-weight:bold;" transform="matrix(1 0 0 1 263 322)">Weight/Scale Variations</text>
  <text style="stroke:none;fill:black;font-family:sans-serif;font-size:13;text-anchor:middle;" transform="matrix(1 0 0 1 559.711 322)">Ultralight</text>
  <text style="stroke:none;fill:black;font-family:sans-serif;font-size:13;text-anchor:middle;" transform="matrix(1 0 0 1 856.422 322)">Thin</text>
  <text style="stroke:none;fill:black;font-family:sans-serif;font-size:13;text-anchor:middle;" transform="matrix(1 0 0 1 1153.13 322)">Light</text>
  <text style="stroke:none;fill:black;font-family:sans-serif;font-size:13;text-anchor:middle;" transform="matrix(1 0 0 1 1449.84 322)">Regular</text>
  <text style="stroke:none;fill:black;font-family:sans-serif;font-size:13;text-anchor:middle;" transform="matrix(1 0 0 1 1746.56 322)">Medium</text>
  <text style="stroke:none;fill:black;font-family:sans-serif;font-size:13;text-anchor:middle;" transform="matrix(1 0 0 1 2043.27 322)">Semibold</text>
  <text style="stroke:none;fill:black;font-family:sans-serif;font-size:13;text-anchor:middle;" transform="matrix(1 0 0 1 2339.98 322)">Bold</text>
  <text style="stroke:none;fill:black;font-family:sans-serif;font-size:13;text-anchor:middle;" transform="matrix(1 0 0 1 2636.69 322)">Heavy</text>
  <text style="stroke:none;fill:black;font-family:sans-serif;font-size:13;text-anchor:middle;" transform="matrix(1 0 0 1 2933.4 322)">Black</text>
  <line style="fill:none;stroke:black;opacity:1;stroke-width:0.5;" x1="263" x2="3036" y1="1903" y2="1903"/>
  <g transform="matrix(0.2 0 0 0.2 263 1933)">
   <path d="m46.2402 4.15039c21.7773 0 39.4531-17.627 39.4531-39.4043s-17.6758-39.4043-39.4531-39.4043c-21.7285 0-39.4043 17.627-39.4043 39.4043s17.6758 39.4043 39.4043 39.4043Zm0-7.42188c-17.6758 0-31.9336-14.3066-31.9336-31.9824s14.2578-31.9824 31.9336-31.9824 31.9824 14.3066 31.9824 31.9824-14.3066 31.9824-31.9824 31.9824Zm-17.9688-31.9824c0 2.14844 1.51367 3.61328 3.75977 3.61328h10.498v10.5957c0 2.19727 1.46484 3.71094 3.61328 3.71094 2.24609 0 3.71094-1.51367 3.71094-3.71094v-10.5957h10.5957c2.19727 0 3.71094-1.46484 3.71094-3.61328 0-2.19727-1.51367-3.71094-3.71094-3.71094h-10.5957v-10.5469c0-2.24609-1.46484-3.75977-3.71094-3.75977-2.14844 0-3.61328 1.51367-3.61328 3.75977v10.5469h-10.498c-2.24609 0-3.75977 1.51367-3.75977 3.71094Z"/>
  </g>
  <g transform="matrix(0.2 0 0 0.2 281.506 1933)">
   <path d="m58.5449 14.5508c27.4902 0 49.8047-22.3145 49.8047-49.8047s-22.3145-49.8047-49.8047-49.8047-49.8047 22.3145-49.8047 49.8047 22.3145 49.8047 49.8047 49.8047Zm0-8.30078c-22.9492 0-41.5039-18.5547-41.5039-41.5039s18.5547-41.5039 41.5039-41.5039 41.5039 18.5547 41.5039 41.5039-18.5547 41.5039-41.5039 41.5039Zm-22.6562-41.5039c0 2.39258 1.66016 4.00391 4.15039 4.00391h14.3555v14.4043c0 2.44141 1.66016 4.15039 4.05273 4.15039 2.44141 0 4.15039-1.66016 4.15039-4.15039v-14.4043h14.4043c2.44141 0 4.15039-1.61133 4.15039-4.00391 0-2.44141-1.70898-4.15039-4.15039-4.15039h-14.4043v-14.3555c0-2.49023-1.70898-4.19922-4.15039-4.19922-2.39258 0-4.05273 1.70898-4.05273 4.19922v14.3555h-14.3555c-2.49023 0-4.15039 1.70898-4.15039 4.15039Z"/>
  </g>
  <g transform="matrix(0.2 0 0 0.2 304.924 1933)">
   <path d="m74.8535 28.3203c35.1074 0 63.623-28.4668 63.623-63.5742s-28.5156-63.623-63.623-63.623-63.5742 28.5156-63.5742 63.623 28.4668 63.5742 63.5742 63.5742Zm0-9.08203c-30.127 0-54.4922-24.3652-54.4922-54.4922s24.3652-54.4922 54.4922-54.4922 54.4922 24.3652 54.4922 54.4922-24.3652 54.4922-54.4922 54.4922Zm-28.8574-54.4922c0 2.58789 1.85547 4.39453 4.58984 4.39453h19.7266v19.7754c0 2.68555 1.85547 4.58984 4.44336 4.58984 2.68555 0 4.54102-1.85547 4.54102-4.58984v-19.7754h19.7754c2.68555 0 4.58984-1.80664 4.58984-4.39453 0-2.73438-1.85547-4.58984-4.58984-4.58984h-19.7754v-19.7266c0-2.73438-1.85547-4.63867-4.54102-4.63867-2.58789 0-4.44336 1.9043-4.44336 4.63867v19.7266h-19.7266c-2.73438 0-4.58984 1.85547-4.58984 4.58984Z"/>
  </g>
  <text style="stroke:none;fill:black;font-family:sans-serif;font-size:13;font-weight:bold;" transform="matrix(1 0 0 1 263 1953)">Design Variations</text>
  <text style="stroke:none;fill:black;font-family:sans-serif;font-size:13;" transform="matrix(1 0 0 1 263 1971)">Symbols are supported in up to nine weights and three scales.</text>
  <text style="stroke:none;fill:black;font-family:sans-serif;font-size:13;" transform="matrix(1 0 0 1 263 1989)">For optimal layout with text and other symbols, vertically align</text>
  <text style="stroke:none;fill:black;font-family:sans-serif;font-size:13;" transform="matrix(1 0 0 1 263 2007)">symbols with the adjacent text.</text>
  <line style="fill:none;stroke:#00AEEF;stroke-width:0.5;opacity:1.0;" x1="776" x2="776" y1="1919" y2="1933"/>
  <g transform="matrix(0.2 0 0 0.2 776 1933)">
   <path d="m16.5527 0.78125c2.58789 0 3.85742-0.976562 4.78516-3.71094l6.29883-17.2363h28.8086l6.29883 17.2363c0.927734 2.73438 2.19727 3.71094 4.73633 3.71094 2.58789 0 4.24805-1.5625 4.24805-4.00391 0-0.830078-0.146484-1.61133-0.537109-2.63672l-22.9004-60.9863c-1.12305-2.97852-3.125-4.49219-6.25-4.49219-3.02734 0-5.07812 1.46484-6.15234 4.44336l-22.9004 61.084c-0.390625 1.02539-0.537109 1.80664-0.537109 2.63672 0 2.44141 1.5625 3.95508 4.10156 3.95508Zm13.4766-28.3691 11.8652-32.8613h0.244141l11.8652 32.8613Z"/>
  </g>
  <line style="fill:none;stroke:#00AEEF;stroke-width:0.5;opacity:1.0;" x1="792.836" x2="792.836" y1="1919" y2="1933"/>
  <text style="stroke:none;fill:black;font-family:sans-serif;font-size:13;font-weight:bold;" transform="matrix(1 0 0 1 776 1953)">Margins</text>
  <text style="stroke:none;fill:black;font-family:sans-serif;font-size:13;" transform="matrix(1 0 0 1 776 1971)">Leading and trailing margins on the left and right side of each symbol</text>
  <text style="stroke:none;fill:black;font-family:sans-serif;font-size:13;" transform="matrix(1 0 0 1 776 1989)">can be adjusted by modifying the x-location of the margin guidelines.</text>
  <text style="stroke:none;fill:black;font-family:sans-serif;font-size:13;" transform="matrix(1 0 0 1 776 2007)">Modifications are automatically applied proportionally to all</text>
  <text style="stroke:none;fill:black;font-family:sans-serif;font-size:13;" transform="matrix(1 0 0 1 776 2025)">scales and weights.</text>
  <g transform="matrix(0.2 0 0 0.2 1289 1933)">
   <path d="m14.209 9.32617 8.49609 8.54492c4.29688 4.3457 9.22852 4.05273 13.8672-1.07422l53.4668-58.9355-4.83398-4.88281-53.0762 58.3984c-1.75781 2.00195-3.41797 2.49023-5.76172 0.146484l-5.85938-5.81055c-2.34375-2.29492-1.80664-4.00391 0.195312-5.81055l57.373-54.0039-4.88281-4.83398-57.959 54.4434c-4.93164 4.58984-5.32227 9.47266-1.02539 13.8184Zm32.0801-90.9668c-2.09961 2.05078-2.24609 4.93164-1.07422 6.88477 1.17188 1.80664 3.4668 2.97852 6.68945 2.14844 7.32422-1.70898 14.9414-2.00195 22.0703 2.68555l-2.92969 7.27539c-1.70898 4.15039-0.830078 7.08008 1.85547 9.81445l11.4746 11.5723c2.44141 2.44141 4.49219 2.53906 7.32422 2.05078l5.32227-0.976562 3.32031 3.36914-0.195312 2.7832c-0.195312 2.49023 0.439453 4.39453 2.88086 6.78711l3.80859 3.71094c2.39258 2.39258 5.46875 2.53906 7.8125 0.195312l14.5508-14.5996c2.34375-2.34375 2.24609-5.32227-0.146484-7.71484l-3.85742-3.80859c-2.39258-2.39258-4.24805-3.17383-6.64062-2.97852l-2.88086 0.244141-3.22266-3.17383 1.2207-5.61523c0.634766-2.83203-0.146484-5.0293-3.07617-7.95898l-10.9863-10.9375c-16.6992-16.6016-38.8672-16.2109-53.3203-1.75781Zm7.4707 1.85547c12.1582-8.88672 28.6133-7.37305 39.7461 3.75977l12.1582 12.0605c1.17188 1.17188 1.36719 2.09961 1.02539 3.80859l-1.61133 7.42188 7.51953 7.42188 4.93164-0.292969c1.26953-0.0488281 1.66016 0.0488281 2.63672 1.02539l2.88086 2.88086-12.207 12.207-2.88086-2.88086c-0.976562-0.976562-1.12305-1.36719-1.07422-2.68555l0.341797-4.88281-7.4707-7.42188-7.61719 1.26953c-1.61133 0.341797-2.34375 0.195312-3.56445-0.976562l-10.0098-10.0098c-1.26953-1.17188-1.41602-2.00195-0.634766-3.85742l4.39453-10.4492c-7.8125-7.27539-17.9688-10.4004-28.125-7.42188-0.78125 0.195312-1.07422-0.439453-0.439453-0.976562Z"/>
  </g>
  <text style="stroke:none;fill:black;font-family:sans-serif;font-size:13;font-weight:bold;" transform="matrix(1 0 0 1 1289 1953)">Exporting</text>
  <text style="stroke:none;fill:black;font-family:sans-serif;font-size:13;" transform="matrix(1 0 0 1 1289 1971)">Symbols should be outlined when exporting to ensure the</text>
  <text style="stroke:none;fill:black;font-family:sans-serif;font-size:13;" transform="matrix(1 0 0 1 1289 1989)">design is preserved when submitting to Xcode.</text>
  <text id="template-version" style="stroke:none;fill:black;font-family:sans-serif;font-size:13;text-anchor:end;" transform="matrix(1 0 0 1 3036 1933)">Template v.6.0</text>
  <text style="stroke:none;fill:black;font-family:sans-serif;font-size:13;text-anchor:end;" transform="matrix(1 0 0 1 3036 1951)">Requires Xcode 16 or greater</text>
  <text id="descriptive-name" style="stroke:none;fill:black;font-family:sans-serif;font-size:13;text-anchor:end;" transform="matrix(1 0 0 1 3036 1969)">Generated from square</text>
  <text style="stroke:none;fill:black;font-family:sans-serif;font-size:13;text-anchor:end;" transform="matrix(1 0 0 1 3036 1987)">Typeset at 100.0 points</text>
  <text style="stroke:none;fill:black;font-family:sans-serif;font-size:13;" transform="matrix(1 0 0 1 263 726)">Small</text>
  <text style="stroke:none;fill:black;font-family:sans-serif;font-size:13;" transform="matrix(1 0 0 1 263 1156)">Medium</text>
  <text style="stroke:none;fill:black;font-family:sans-serif;font-size:13;" transform="matrix(1 0 0 1 263 1586)">Large</text>
 </g>
 <g id="Guides">
  <g id="H-reference" style="fill:#27AAE1;stroke:none;" transform="matrix(1 0 0 1 339 696)">
   <path d="M0.993654 0L3.63775 0L29.3281-67.1323L30.0303-67.1323L30.0303-70.459L28.1226-70.459ZM11.6885-24.4799L46.9815-24.4799L46.2315-26.7285L12.4385-26.7285ZM55.1196 0L57.7637 0L30.6382-70.459L29.4326-70.459L29.4326-67.1323Z"/>
  </g>
  <line id="Baseline-S" style="fill:none;stroke:#27AAE1;opacity:1;stroke-width:0.5;" x1="263" x2="3036" y1="696" y2="696"/>
  <line id="Capline-S" style="fill:none;stroke:#27AAE1;opacity:1;stroke-width:0.5;" x1="263" x2="3036" y1="625.541" y2="625.541"/>
  <g id="H-reference" style="fill:#27AAE1;stroke:none;" transform="matrix(1 0 0 1 339 1126)">
   <path d="M0.993654 0L3.63775 0L29.3281-67.1323L30.0303-67.1323L30.0303-70.459L28.1226-70.459ZM11.6885-24.4799L46.9815-24.4799L46.2315-26.7285L12.4385-26.7285ZM55.1196 0L57.7637 0L30.6382-70.459L29.4326-70.459L29.4326-67.1323Z"/>
  </g>
  <line id="Baseline-M" style="fill:none;stroke:#27AAE1;opacity:1;stroke-width:0.5;" x1="263" x2="3036" y1="1126" y2="1126"/>
  <line id="Capline-M" style="fill:none;stroke:#27AAE1;opacity:1;stroke-width:0.5;" x1="263" x2="3036" y1="1055.54" y2="1055.54"/>
  <g id="H-reference" style="fill:#27AAE1;stroke:none;" transform="matrix(1 0 0 1 339 1556)">
   <path d="M0.993654 0L3.63775 0L29.3281-67.1323L30.0303-67.1323L30.0303-70.459L28.1226-70.459ZM11.6885-24.4799L46.9815-24.4799L46.2315-26.7285L12.4385-26.7285ZM55.1196 0L57.7637 0L30.6382-70.459L29.4326-70.459L29.4326-67.1323Z"/>
  </g>
  <line id="Baseline-L" style="fill:none;stroke:#27AAE1;opacity:1;stroke-width:0.5;" x1="263" x2="3036" y1="1556" y2="1556"/>
  <line id="Capline-L" style="fill:none;stroke:#27AAE1;opacity:1;stroke-width:0.5;" x1="263" x2="3036" y1="1485.54" y2="1485.54"/>
  <line id="right-margin-Black-S" style="fill:none;stroke:#00AEEF;stroke-width:0.5;opacity:1.0;" x1="2981.3" x2="2981.3" y1="600.785" y2="720.121"/>
  <line id="left-margin-Black-S" style="fill:none;stroke:#00AEEF;stroke-width:0.5;opacity:1.0;" x1="2885.5" x2="2885.5" y1="600.785" y2="720.121"/>
  <line id="right-margin-Regular-S" style="fill:none;stroke:#00AEEF;stroke-width:0.5;opacity:1.0;" x1="1495.18" x2="1495.18" y1="600.785" y2="720.121"/>
  <line id="left-margin-Regular-S" style="fill:none;stroke:#00AEEF;stroke-width:0.5;opacity:1.0;" x1="1404.51" x2="1404.51" y1="600.785" y2="720.121"/>
  <line id="right-margin-Ultralight-S" style="fill:none;stroke:#00AEEF;stroke-width:0.5;opacity:1.0;" x1="603.073" x2="603.073" y1="600.785" y2="720.121"/>
  <line id="left-margin-Ultralight-S" style="fill:none;stroke:#00AEEF;stroke-width:0.5;opacity:1.0;" x1="516.35" x2="516.35" y1="600.785" y2="720.121"/>
 </g>
 <g id="Symbols">
  <g id="Black-S"><path d="M2941.79892,630.08293c-5.71305,0.78092 -11.01509,4.14534 -14.07125,8.93361c-1.20367,1.88478 -2.32221,4.69139 -2.79194,7.0048c-0.34936,1.71744 -0.41688,4.19525 -0.17028,6.28259c0.34055,2.88588 1.56478,1.30936 -10.08738,12.99968c-5.50461,5.52222 -10.16664,10.25178 -10.36334,10.51013c-0.61064,0.80441 -1.06569,1.72037 -1.40037,2.81836l-0.32294,1.05688l-0.00881,5.10828c-0.00587,4.59451 0.01468,5.14644 0.19376,5.47231c0.25835,0.46973 0.94826,1.0745 1.35927,1.189c0.17615,0.04991 2.98864,0.09101 6.2503,0.09101h5.9303l0.54899,-0.32294c0.29945,-0.17615 0.66936,-0.51964 0.82202,-0.76331c0.26129,-0.41982 0.27596,-0.55486 0.31119,-2.99451l0.03817,-2.55414h2.41909c2.79781,0 3.18827,-0.09982 3.76662,-0.97468c0.31413,-0.4756 0.31413,-0.48147 0.34936,-3.03854l0.03523,-2.56295h2.40441c1.90826,0 2.49542,-0.03817 2.84185,-0.18202c0.29358,-0.1233 1.84955,-1.58826 4.72369,-4.45359c4.98791,-4.97029 4.51231,-4.65616 6.6936,-4.39194c2.09909,0.25248 5.30204,0.19376 6.81104,-0.12037c2.37212,-0.49908 4.16882,-1.1567 6.0125,-2.19597c9.19196,-5.18167 12.74133,-16.63126 8.07049,-26.02579c-2.74203,-5.51635 -7.72407,-9.36811 -13.78941,-10.65986c-1.3534,-0.28771 -5.16112,-0.41982 -6.57617,-0.22606M2945.80334,634.41909c5.36956,0.4756 9.9582,3.62864 12.41546,8.52554c3.43488,6.85801 1.10973,15.36006 -5.3813,19.67274c-1.55303,1.03046 -3.98093,1.97285 -6.04773,2.34276c-0.94826,0.17321 -3.54056,0.17321 -4.63855,0.00587c-1.16551,-0.17908 -2.80955,-0.15853 -3.68735,0.04697c-1.70276,0.4022 -2.06093,0.68404 -6.41764,5.00846l-4.00148,3.97213h-3.13836c-3.40258,0 -3.48185,0.01174 -4.08369,0.66349c-0.60771,0.65762 -0.62826,0.76624 -0.66936,3.41139l-0.0411,2.48955l-2.5512,0.03523c-2.50129,0.03523 -2.56295,0.0411 -2.98864,0.32881c-0.24954,0.17028 -0.55486,0.53725 -0.72514,0.87487c-0.28184,0.56074 -0.29064,0.66055 -0.29064,2.96515v2.38386h-3.29689h-3.29689l0.03817,-3.55231l0.03817,-3.55231l0.34349,-0.76331c0.32294,-0.71633 0.98055,-1.40331 10.57472,-11.03857c9.46205,-9.50022 10.26059,-10.33398 10.60114,-11.04738c0.75156,-1.5912 0.92477,-3.05909 0.61945,-5.24039c-0.23486,-1.67927 -0.10275,-4.48882 0.28477,-5.95085c0.75156,-2.84478 2.07267,-5.15525 4.10717,-7.18388c2.42203,-2.41616 5.72479,-4.01323 9.05104,-4.3802c1.32111,-0.14679 1.70569,-0.14973 3.1824,-0.01761M2943.44296,638.94021c-0.53725,0.29358 -0.77505,0.54312 -1.01285,1.05688c-0.41101,0.89542 -0.22899,1.7967 0.49908,2.48955c0.49028,0.46385 0.89835,0.62239 1.60881,0.62532c3.429,0.01174 6.46461,3.04735 6.47635,6.47635c0.00294,0.71046 0.16147,1.11854 0.62532,1.60881c0.69285,0.72808 1.59413,0.9101 2.48955,0.49615c1.05982,-0.48734 1.39156,-1.3123 1.21835,-3.01212c-0.34055,-3.38497 -2.05212,-6.23268 -4.87048,-8.10865c-1.73505,-1.15377 -3.29396,-1.66753 -5.3314,-1.76147c-1.11266,-0.05284 -1.41212,-0.02936 -1.70276,0.12917" className="SFSymbolsPreviewWireframe"/></g>
  <g id="Regular-S"><path d="M1458.24387,630.08293c-5.71305,0.78092 -11.01509,4.14534 -14.07125,8.93361c-1.20367,1.88478 -2.32221,4.69139 -2.79194,7.0048c-0.34936,1.71744 -0.41688,4.19525 -0.17028,6.28259c0.34055,2.88588 1.56478,1.30936 -10.08738,12.99968c-5.50461,5.52222 -10.16664,10.25178 -10.36334,10.51013c-0.61064,0.80441 -1.06569,1.72037 -1.40037,2.81836l-0.32294,1.05688l-0.00881,5.10828c-0.00587,4.59451 0.01468,5.14644 0.19376,5.47231c0.25835,0.46973 0.94826,1.0745 1.35927,1.189c0.17615,0.04991 2.98864,0.09101 6.2503,0.09101h5.9303l0.54899,-0.32294c0.29945,-0.17615 0.66936,-0.51964 0.82202,-0.76331c0.26129,-0.41982 0.27596,-0.55486 0.31119,-2.99451l0.03817,-2.55414h2.41909c2.79781,0 3.18827,-0.09982 3.76662,-0.97468c0.31413,-0.4756 0.31413,-0.48147 0.34936,-3.03854l0.03523,-2.56295h2.40441c1.90826,0 2.49542,-0.03817 2.84185,-0.18202c0.29358,-0.1233 1.84955,-1.58826 4.72369,-4.45359c4.98791,-4.97029 4.51231,-4.65616 6.6936,-4.39194c2.09909,0.25248 5.30204,0.19376 6.81104,-0.12037c2.37212,-0.49908 4.16882,-1.1567 6.0125,-2.19597c9.19196,-5.18167 12.74133,-16.63126 8.07049,-26.02579c-2.74203,-5.51635 -7.72407,-9.36811 -13.78941,-10.65986c-1.3534,-0.28771 -5.16112,-0.41982 -6.57617,-0.22606M1462.24829,634.41909c5.36956,0.4756 9.9582,3.62864 12.41546,8.52554c3.43488,6.85801 1.10973,15.36006 -5.3813,19.67274c-1.55303,1.03046 -3.98093,1.97285 -6.04773,2.34276c-0.94826,0.17321 -3.54056,0.17321 -4.63855,0.00587c-1.16551,-0.17908 -2.80955,-0.15853 -3.68735,0.04697c-1.70276,0.4022 -2.06093,0.68404 -6.41764,5.00846l-4.00148,3.97213h-3.13836c-3.40258,0 -3.48185,0.01174 -4.08369,0.66349c-0.60771,0.65762 -0.62826,0.76624 -0.66936,3.41139l-0.0411,2.48955l-2.5512,0.03523c-2.50129,0.03523 -2.56295,0.0411 -2.98864,0.32881c-0.24954,0.17028 -0.55486,0.53725 -0.72514,0.87487c-0.28184,0.56074 -0.29064,0.66055 -0.29064,2.96515v2.38386h-3.29689h-3.29689l0.03817,-3.55231l0.03817,-3.55231l0.34349,-0.76331c0.32294,-0.71633 0.98055,-1.40331 10.57472,-11.03857c9.46205,-9.50022 10.26059,-10.33398 10.60114,-11.04738c0.75156,-1.5912 0.92477,-3.05909 0.61945,-5.24039c-0.23486,-1.67927 -0.10275,-4.48882 0.28477,-5.95085c0.75156,-2.84478 2.07267,-5.15525 4.10717,-7.18388c2.42203,-2.41616 5.72479,-4.01323 9.05104,-4.3802c1.32111,-0.14679 1.70569,-0.14973 3.1824,-0.01761M1459.88791,638.94021c-0.53725,0.29358 -0.77505,0.54312 -1.01285,1.05688c-0.41101,0.89542 -0.22899,1.7967 0.49908,2.48955c0.49028,0.46385 0.89835,0.62239 1.60881,0.62532c3.429,0.01174 6.46461,3.04735 6.47635,6.47635c0.00294,0.71046 0.16147,1.11854 0.62532,1.60881c0.69285,0.72808 1.59413,0.9101 2.48955,0.49615c1.05982,-0.48734 1.39156,-1.3123 1.21835,-3.01212c-0.34055,-3.38497 -2.05212,-6.23268 -4.87048,-8.10865c-1.73505,-1.15377 -3.29396,-1.66753 -5.3314,-1.76147c-1.11266,-0.05284 -1.41212,-0.02936 -1.70276,0.12917" className="SFSymbolsPreviewWireframe"/></g>
  <g id="Ultralight-S"><path d="M568.11028,630.08293c-5.71305,0.78092 -11.01509,4.14534 -14.07125,8.93361c-1.20367,1.88478 -2.32221,4.69139 -2.79194,7.0048c-0.34936,1.71744 -0.41688,4.19525 -0.17028,6.28259c0.34055,2.88588 1.56478,1.30936 -10.08738,12.99968c-5.50461,5.52222 -10.16664,10.25178 -10.36334,10.51013c-0.61064,0.80441 -1.06569,1.72037 -1.40037,2.81836l-0.32294,1.05688l-0.00881,5.10828c-0.00587,4.59451 0.01468,5.14644 0.19376,5.47231c0.25835,0.46973 0.94826,1.0745 1.35927,1.189c0.17615,0.04991 2.98864,0.09101 6.2503,0.09101h5.9303l0.54899,-0.32294c0.29945,-0.17615 0.66936,-0.51964 0.82202,-0.76331c0.26129,-0.41982 0.27596,-0.55486 0.31119,-2.99451l0.03817,-2.55414h2.41909c2.79781,0 3.18827,-0.09982 3.76662,-0.97468c0.31413,-0.4756 0.31413,-0.48147 0.34936,-3.03854l0.03523,-2.56295h2.40441c1.90826,0 2.49542,-0.03817 2.84185,-0.18202c0.29358,-0.1233 1.84955,-1.58826 4.72369,-4.45359c4.98791,-4.97029 4.51231,-4.65616 6.6936,-4.39194c2.09909,0.25248 5.30204,0.19376 6.81104,-0.12037c2.37212,-0.49908 4.16882,-1.1567 6.0125,-2.19597c9.19196,-5.18167 12.74133,-16.63126 8.07049,-26.02579c-2.74203,-5.51635 -7.72407,-9.36811 -13.78941,-10.65986c-1.3534,-0.28771 -5.16112,-0.41982 -6.57617,-0.22606M572.1147,634.41909c5.36956,0.4756 9.9582,3.62864 12.41546,8.52554c3.43488,6.85801 1.10973,15.36006 -5.3813,19.67274c-1.55303,1.03046 -3.98093,1.97285 -6.04773,2.34276c-0.94826,0.17321 -3.54056,0.17321 -4.63855,0.00587c-1.16551,-0.17908 -2.80955,-0.15853 -3.68735,0.04697c-1.70276,0.4022 -2.06093,0.68404 -6.41764,5.00846l-4.00148,3.97213h-3.13836c-3.40258,0 -3.48185,0.01174 -4.08369,0.66349c-0.60771,0.65762 -0.62826,0.76624 -0.66936,3.41139l-0.0411,2.48955l-2.5512,0.03523c-2.50129,0.03523 -2.56295,0.0411 -2.98864,0.32881c-0.24954,0.17028 -0.55486,0.53725 -0.72514,0.87487c-0.28184,0.56074 -0.29064,0.66055 -0.29064,2.96515v2.38386h-3.29689h-3.29689l0.03817,-3.55231l0.03817,-3.55231l0.34349,-0.76331c0.32294,-0.71633 0.98055,-1.40331 10.57472,-11.03857c9.46205,-9.50022 10.26059,-10.33398 10.60114,-11.04738c0.75156,-1.5912 0.92477,-3.05909 0.61945,-5.24039c-0.23486,-1.67927 -0.10275,-4.48882 0.28477,-5.95085c0.75156,-2.84478 2.07267,-5.15525 4.10717,-7.18388c2.42203,-2.41616 5.72479,-4.01323 9.05104,-4.3802c1.32111,-0.14679 1.70569,-0.14973 3.1824,-0.01761M569.75432,638.94021c-0.53725,0.29358 -0.77505,0.54312 -1.01285,1.05688c-0.41101,0.89542 -0.22899,1.7967 0.49908,2.48955c0.49028,0.46385 0.89835,0.62239 1.60881,0.62532c3.429,0.01174 6.46461,3.04735 6.47635,6.47635c0.00294,0.71046 0.16147,1.11854 0.62532,1.60881c0.69285,0.72808 1.59413,0.9101 2.48955,0.49615c1.05982,-0.48734 1.39156,-1.3123 1.21835,-3.01212c-0.34055,-3.38497 -2.05212,-6.23268 -4.87048,-8.10865c-1.73505,-1.15377 -3.29396,-1.66753 -5.3314,-1.76147c-1.11266,-0.05284 -1.41212,-0.02936 -1.70276,0.12917" className="SFSymbolsPreviewWireframe"/></g>
 </g>
</svg>