<?xml version="1.0" encoding="UTF-8"?><!--Generator: https://SymbolKit.app--><!DOCTYPE svg PUBLIC "-//W3C//DTD SVG 1.1//EN" "http://www.w3.org/Graphics/SVG/1.1/DTD/svg11.dtd"><svg xmlns="http://www.w3.org/2000/svg" xmlns:xlink="http://www.w3.org/1999/xlink" version="1.1" viewBox="0 0 3300 2200">
 <!--glyph: "100092", point size: 100.0, font version: "20.0d10e1", template writer version: "138.0.0"-->
 <style>.SFSymbolsPreviewWireframe {fill:none;opacity:1.0;stroke:black;stroke-width:0.5}
</style>
 <g id="Notes">
  <rect height="2200" id="artboard" style="fill:white;opacity:1" width="3300" x="0" y="0"/>
  <line style="fill:none;stroke:black;opacity:1;stroke-width:0.5;" x1="263" x2="3036" y1="292" y2="292"/>
  <text style="stroke:none;fill:black;font-family:sans-serif;font-size:13;font-weight:bold;" transform="matrix(1 0 0 1 263 322)">Weight/Scale Variations</text>
  <text style="stroke:none;fill:black;font-family:sans-serif;font-size:13;text-anchor:middle;" transform="matrix(1 0 0 1 559.711 322)">Ultralight</text>
  <text style="stroke:none;fill:black;font-family:sans-serif;font-size:13;text-anchor:middle;" transform="matrix(1 0 0 1 856.422 322)">Thin</text>
  <text style="stroke:none;fill:black;font-family:sans-serif;font-size:13;text-anchor:middle;" transform="matrix(1 0 0 1 1153.13 322)">Light</text>
  <text style="stroke:none;fill:black;font-family:sans-serif;font-size:13;text-anchor:middle;" transform="matrix(1 0 0 1 1449.84 322)">Regular</text>
  <text style="stroke:none;fill:black;font-family:sans-serif;font-size:13;text-anchor:middle;" transform="matrix(1 0 0 1 1746.56 322)">Medium</text>
  <text style="stroke:none;fill:black;font-family:sans-serif;font-size:13;text-anchor:middle;" transform="matrix(1 0 0 1 2043.27 322)">Semibold</text>
  <text style="stroke:none;fill:black;font-family:sans-serif;font-size:13;text-anchor:middle;" transform="matrix(1 0 0 1 2339.98 322)">Bold</text>
  <text style="stroke:none;fill:black;font-family:sans-serif;font-size:13;text-anchor:middle;" transform="matrix(1 0 0 1 2636.69 322)">Heavy</text>
  <text style="stroke:none;fill:black;font-family:sans-serif;font-size:13;text-anchor:middle;" transform="matrix(1 0 0 1 2933.4 322)">Black</text>
  <line style="fill:none;stroke:black;opacity:1;stroke-width:0.5;" x1="263" x2="3036" y1="1903" y2="1903"/>
  <g transform="matrix(0.2 0 0 0.2 263 1933)">
   <path d="m46.2402 4.15039c21.7773 0 39.4531-17.627 39.4531-39.4043s-17.6758-39.4043-39.4531-39.4043c-21.7285 0-39.4043 17.627-39.4043 39.4043s17.6758 39.4043 39.4043 39.4043Zm0-7.42188c-17.6758 0-31.9336-14.3066-31.9336-31.9824s14.2578-31.9824 31.9336-31.9824 31.9824 14.3066 31.9824 31.9824-14.3066 31.9824-31.9824 31.9824Zm-17.9688-31.9824c0 2.14844 1.51367 3.61328 3.75977 3.61328h10.498v10.5957c0 2.19727 1.46484 3.71094 3.61328 3.71094 2.24609 0 3.71094-1.51367 3.71094-3.71094v-10.5957h10.5957c2.19727 0 3.71094-1.46484 3.71094-3.61328 0-2.19727-1.51367-3.71094-3.71094-3.71094h-10.5957v-10.5469c0-2.24609-1.46484-3.75977-3.71094-3.75977-2.14844 0-3.61328 1.51367-3.61328 3.75977v10.5469h-10.498c-2.24609 0-3.75977 1.51367-3.75977 3.71094Z"/>
  </g>
  <g transform="matrix(0.2 0 0 0.2 281.506 1933)">
   <path d="m58.5449 14.5508c27.4902 0 49.8047-22.3145 49.8047-49.8047s-22.3145-49.8047-49.8047-49.8047-49.8047 22.3145-49.8047 49.8047 22.3145 49.8047 49.8047 49.8047Zm0-8.30078c-22.9492 0-41.5039-18.5547-41.5039-41.5039s18.5547-41.5039 41.5039-41.5039 41.5039 18.5547 41.5039 41.5039-18.5547 41.5039-41.5039 41.5039Zm-22.6562-41.5039c0 2.39258 1.66016 4.00391 4.15039 4.00391h14.3555v14.4043c0 2.44141 1.66016 4.15039 4.05273 4.15039 2.44141 0 4.15039-1.66016 4.15039-4.15039v-14.4043h14.4043c2.44141 0 4.15039-1.61133 4.15039-4.00391 0-2.44141-1.70898-4.15039-4.15039-4.15039h-14.4043v-14.3555c0-2.49023-1.70898-4.19922-4.15039-4.19922-2.39258 0-4.05273 1.70898-4.05273 4.19922v14.3555h-14.3555c-2.49023 0-4.15039 1.70898-4.15039 4.15039Z"/>
  </g>
  <g transform="matrix(0.2 0 0 0.2 304.924 1933)">
   <path d="m74.8535 28.3203c35.1074 0 63.623-28.4668 63.623-63.5742s-28.5156-63.623-63.623-63.623-63.5742 28.5156-63.5742 63.623 28.4668 63.5742 63.5742 63.5742Zm0-9.08203c-30.127 0-54.4922-24.3652-54.4922-54.4922s24.3652-54.4922 54.4922-54.4922 54.4922 24.3652 54.4922 54.4922-24.3652 54.4922-54.4922 54.4922Zm-28.8574-54.4922c0 2.58789 1.85547 4.39453 4.58984 4.39453h19.7266v19.7754c0 2.68555 1.85547 4.58984 4.44336 4.58984 2.68555 0 4.54102-1.85547 4.54102-4.58984v-19.7754h19.7754c2.68555 0 4.58984-1.80664 4.58984-4.39453 0-2.73438-1.85547-4.58984-4.58984-4.58984h-19.7754v-19.7266c0-2.73438-1.85547-4.63867-4.54102-4.63867-2.58789 0-4.44336 1.9043-4.44336 4.63867v19.7266h-19.7266c-2.73438 0-4.58984 1.85547-4.58984 4.58984Z"/>
  </g>
  <text style="stroke:none;fill:black;font-family:sans-serif;font-size:13;font-weight:bold;" transform="matrix(1 0 0 1 263 1953)">Design Variations</text>
  <text style="stroke:none;fill:black;font-family:sans-serif;font-size:13;" transform="matrix(1 0 0 1 263 1971)">Symbols are supported in up to nine weights and three scales.</text>
  <text style="stroke:none;fill:black;font-family:sans-serif;font-size:13;" transform="matrix(1 0 0 1 263 1989)">For optimal layout with text and other symbols, vertically align</text>
  <text style="stroke:none;fill:black;font-family:sans-serif;font-size:13;" transform="matrix(1 0 0 1 263 2007)">symbols with the adjacent text.</text>
  <line style="fill:none;stroke:#00AEEF;stroke-width:0.5;opacity:1.0;" x1="776" x2="776" y1="1919" y2="1933"/>
  <g transform="matrix(0.2 0 0 0.2 776 1933)">
   <path d="m16.5527 0.78125c2.58789 0 3.85742-0.976562 4.78516-3.71094l6.29883-17.2363h28.8086l6.29883 17.2363c0.927734 2.73438 2.19727 3.71094 4.73633 3.71094 2.58789 0 4.24805-1.5625 4.24805-4.00391 0-0.830078-0.146484-1.61133-0.537109-2.63672l-22.9004-60.9863c-1.12305-2.97852-3.125-4.49219-6.25-4.49219-3.02734 0-5.07812 1.46484-6.15234 4.44336l-22.9004 61.084c-0.390625 1.02539-0.537109 1.80664-0.537109 2.63672 0 2.44141 1.5625 3.95508 4.10156 3.95508Zm13.4766-28.3691 11.8652-32.8613h0.244141l11.8652 32.8613Z"/>
  </g>
  <line style="fill:none;stroke:#00AEEF;stroke-width:0.5;opacity:1.0;" x1="792.836" x2="792.836" y1="1919" y2="1933"/>
  <text style="stroke:none;fill:black;font-family:sans-serif;font-size:13;font-weight:bold;" transform="matrix(1 0 0 1 776 1953)">Margins</text>
  <text style="stroke:none;fill:black;font-family:sans-serif;font-size:13;" transform="matrix(1 0 0 1 776 1971)">Leading and trailing margins on the left and right side of each symbol</text>
  <text style="stroke:none;fill:black;font-family:sans-serif;font-size:13;" transform="matrix(1 0 0 1 776 1989)">can be adjusted by modifying the x-location of the margin guidelines.</text>
  <text style="stroke:none;fill:black;font-family:sans-serif;font-size:13;" transform="matrix(1 0 0 1 776 2007)">Modifications are automatically applied proportionally to all</text>
  <text style="stroke:none;fill:black;font-family:sans-serif;font-size:13;" transform="matrix(1 0 0 1 776 2025)">scales and weights.</text>
  <g transform="matrix(0.2 0 0 0.2 1289 1933)">
   <path d="m14.209 9.32617 8.49609 8.54492c4.29688 4.3457 9.22852 4.05273 13.8672-1.07422l53.4668-58.9355-4.83398-4.88281-53.0762 58.3984c-1.75781 2.00195-3.41797 2.49023-5.76172 0.146484l-5.85938-5.81055c-2.34375-2.29492-1.80664-4.00391 0.195312-5.81055l57.373-54.0039-4.88281-4.83398-57.959 54.4434c-4.93164 4.58984-5.32227 9.47266-1.02539 13.8184Zm32.0801-90.9668c-2.09961 2.05078-2.24609 4.93164-1.07422 6.88477 1.17188 1.80664 3.4668 2.97852 6.68945 2.14844 7.32422-1.70898 14.9414-2.00195 22.0703 2.68555l-2.92969 7.27539c-1.70898 4.15039-0.830078 7.08008 1.85547 9.81445l11.4746 11.5723c2.44141 2.44141 4.49219 2.53906 7.32422 2.05078l5.32227-0.976562 3.32031 3.36914-0.195312 2.7832c-0.195312 2.49023 0.439453 4.39453 2.88086 6.78711l3.80859 3.71094c2.39258 2.39258 5.46875 2.53906 7.8125 0.195312l14.5508-14.5996c2.34375-2.34375 2.24609-5.32227-0.146484-7.71484l-3.85742-3.80859c-2.39258-2.39258-4.24805-3.17383-6.64062-2.97852l-2.88086 0.244141-3.22266-3.17383 1.2207-5.61523c0.634766-2.83203-0.146484-5.0293-3.07617-7.95898l-10.9863-10.9375c-16.6992-16.6016-38.8672-16.2109-53.3203-1.75781Zm7.4707 1.85547c12.1582-8.88672 28.6133-7.37305 39.7461 3.75977l12.1582 12.0605c1.17188 1.17188 1.36719 2.09961 1.02539 3.80859l-1.61133 7.42188 7.51953 7.42188 4.93164-0.292969c1.26953-0.0488281 1.66016 0.0488281 2.63672 1.02539l2.88086 2.88086-12.207 12.207-2.88086-2.88086c-0.976562-0.976562-1.12305-1.36719-1.07422-2.68555l0.341797-4.88281-7.4707-7.42188-7.61719 1.26953c-1.61133 0.341797-2.34375 0.195312-3.56445-0.976562l-10.0098-10.0098c-1.26953-1.17188-1.41602-2.00195-0.634766-3.85742l4.39453-10.4492c-7.8125-7.27539-17.9688-10.4004-28.125-7.42188-0.78125 0.195312-1.07422-0.439453-0.439453-0.976562Z"/>
  </g>
  <text style="stroke:none;fill:black;font-family:sans-serif;font-size:13;font-weight:bold;" transform="matrix(1 0 0 1 1289 1953)">Exporting</text>
  <text style="stroke:none;fill:black;font-family:sans-serif;font-size:13;" transform="matrix(1 0 0 1 1289 1971)">Symbols should be outlined when exporting to ensure the</text>
  <text style="stroke:none;fill:black;font-family:sans-serif;font-size:13;" transform="matrix(1 0 0 1 1289 1989)">design is preserved when submitting to Xcode.</text>
  <text id="template-version" style="stroke:none;fill:black;font-family:sans-serif;font-size:13;text-anchor:end;" transform="matrix(1 0 0 1 3036 1933)">Template v.6.0</text>
  <text style="stroke:none;fill:black;font-family:sans-serif;font-size:13;text-anchor:end;" transform="matrix(1 0 0 1 3036 1951)">Requires Xcode 16 or greater</text>
  <text id="descriptive-name" style="stroke:none;fill:black;font-family:sans-serif;font-size:13;text-anchor:end;" transform="matrix(1 0 0 1 3036 1969)">Generated from square</text>
  <text style="stroke:none;fill:black;font-family:sans-serif;font-size:13;text-anchor:end;" transform="matrix(1 0 0 1 3036 1987)">Typeset at 100.0 points</text>
  <text style="stroke:none;fill:black;font-family:sans-serif;font-size:13;" transform="matrix(1 0 0 1 263 726)">Small</text>
  <text style="stroke:none;fill:black;font-family:sans-serif;font-size:13;" transform="matrix(1 0 0 1 263 1156)">Medium</text>
  <text style="stroke:none;fill:black;font-family:sans-serif;font-size:13;" transform="matrix(1 0 0 1 263 1586)">Large</text>
 </g>
 <g id="Guides">
  <g id="H-reference" style="fill:#27AAE1;stroke:none;" transform="matrix(1 0 0 1 339 696)">
   <path d="M0.993654 0L3.63775 0L29.3281-67.1323L30.0303-67.1323L30.0303-70.459L28.1226-70.459ZM11.6885-24.4799L46.9815-24.4799L46.2315-26.7285L12.4385-26.7285ZM55.1196 0L57.7637 0L30.6382-70.459L29.4326-70.459L29.4326-67.1323Z"/>
  </g>
  <line id="Baseline-S" style="fill:none;stroke:#27AAE1;opacity:1;stroke-width:0.5;" x1="263" x2="3036" y1="696" y2="696"/>
  <line id="Capline-S" style="fill:none;stroke:#27AAE1;opacity:1;stroke-width:0.5;" x1="263" x2="3036" y1="625.541" y2="625.541"/>
  <g id="H-reference" style="fill:#27AAE1;stroke:none;" transform="matrix(1 0 0 1 339 1126)">
   <path d="M0.993654 0L3.63775 0L29.3281-67.1323L30.0303-67.1323L30.0303-70.459L28.1226-70.459ZM11.6885-24.4799L46.9815-24.4799L46.2315-26.7285L12.4385-26.7285ZM55.1196 0L57.7637 0L30.6382-70.459L29.4326-70.459L29.4326-67.1323Z"/>
  </g>
  <line id="Baseline-M" style="fill:none;stroke:#27AAE1;opacity:1;stroke-width:0.5;" x1="263" x2="3036" y1="1126" y2="1126"/>
  <line id="Capline-M" style="fill:none;stroke:#27AAE1;opacity:1;stroke-width:0.5;" x1="263" x2="3036" y1="1055.54" y2="1055.54"/>
  <g id="H-reference" style="fill:#27AAE1;stroke:none;" transform="matrix(1 0 0 1 339 1556)">
   <path d="M0.993654 0L3.63775 0L29.3281-67.1323L30.0303-67.1323L30.0303-70.459L28.1226-70.459ZM11.6885-24.4799L46.9815-24.4799L46.2315-26.7285L12.4385-26.7285ZM55.1196 0L57.7637 0L30.6382-70.459L29.4326-70.459L29.4326-67.1323Z"/>
  </g>
  <line id="Baseline-L" style="fill:none;stroke:#27AAE1;opacity:1;stroke-width:0.5;" x1="263" x2="3036" y1="1556" y2="1556"/>
  <line id="Capline-L" style="fill:none;stroke:#27AAE1;opacity:1;stroke-width:0.5;" x1="263" x2="3036" y1="1485.54" y2="1485.54"/>
  <line id="right-margin-Black-S" style="fill:none;stroke:#00AEEF;stroke-width:0.5;opacity:1.0;" x1="2981.3" x2="2981.3" y1="600.785" y2="720.121"/>
  <line id="left-margin-Black-S" style="fill:none;stroke:#00AEEF;stroke-width:0.5;opacity:1.0;" x1="2885.5" x2="2885.5" y1="600.785" y2="720.121"/>
  <line id="right-margin-Regular-S" style="fill:none;stroke:#00AEEF;stroke-width:0.5;opacity:1.0;" x1="1495.18" x2="1495.18" y1="600.785" y2="720.121"/>
  <line id="left-margin-Regular-S" style="fill:none;stroke:#00AEEF;stroke-width:0.5;opacity:1.0;" x1="1404.51" x2="1404.51" y1="600.785" y2="720.121"/>
  <line id="right-margin-Ultralight-S" style="fill:none;stroke:#00AEEF;stroke-width:0.5;opacity:1.0;" x1="603.073" x2="603.073" y1="600.785" y2="720.121"/>
  <line id="left-margin-Ultralight-S" style="fill:none;stroke:#00AEEF;stroke-width:0.5;opacity:1.0;" x1="516.35" x2="516.35" y1="600.785" y2="720.121"/>
 </g>
 <g id="Symbols">
  <g id="Black-S"><path d="M2919.59898,630.17372c-1.28,0.4433 -2.54827,1.49138 -3.1501,2.59818c-0.62532,1.14496 -0.66349,1.53835 -0.66349,6.66718v4.72662l-0.26422,0.05578c-0.14385,0.03229 -1.10973,0.17028 -2.14313,0.31119c-1.0334,0.14092 -2.27524,0.37872 -2.75964,0.52844c-2.66276,0.83376 -4.76479,3.10313 -5.59562,6.03892c-0.20257,0.71633 -0.21725,1.42973 -0.21725,11.39087v10.62756l0.26422,0.91597c1.09799,3.78717 4.19231,6.25323 8.16443,6.50278l1.14496,0.07339l-0.06459,0.54019c-0.16734,1.43267 -0.40807,4.37433 -0.40514,5.00259c0.00294,2.28698 1.59707,4.44772 3.79598,5.13763l0.83964,0.26422h14.8551h14.8551l0.83964,-0.26422c2.03744,-0.64 3.60515,-2.60992 3.76662,-4.72662c0.04991,-0.65175 -0.17908,-3.91928 -0.38165,-5.47231l-0.06459,-0.48147l1.14789,-0.07339c3.96919,-0.24954 7.06938,-2.72148 8.16443,-6.50278l0.26716,-0.91597v-10.62756c0,-9.90829 -0.01468,-10.68041 -0.21431,-11.39087c-0.51964,-1.86423 -1.72625,-3.67855 -3.16185,-4.75892c-1.43854,-1.08037 -2.49836,-1.44734 -5.25507,-1.82019c-1.0011,-0.13505 -1.93762,-0.27009 -2.08441,-0.29945l-0.26422,-0.05578v-4.72662c0,-5.12883 -0.03817,-5.52222 -0.66349,-6.67012c-0.46973,-0.86312 -1.50606,-1.82313 -2.50129,-2.31634l-0.87487,-0.43156l-13.39308,-0.02642c-12.4683,-0.02349 -13.43418,-0.01174 -13.98317,0.17908M2946.25009,634.6508l0.30239,0.28477v4.38314c0,2.41028 -0.04404,4.38314 -0.09982,4.38314c-0.05578,0 -1.17725,-0.07927 -2.49542,-0.17321c-7.31599,-0.53431 -13.79822,-0.53431 -21.11421,0c-1.31817,0.09395 -2.43964,0.17321 -2.49542,0.17321c-0.05578,0 -0.09982,-1.97285 -0.09982,-4.38314v-4.38314l0.26422,-0.24073c0.14679,-0.13211 0.34349,-0.27009 0.44037,-0.30532c0.09688,-0.03523 5.76002,-0.05578 12.58574,-0.04404l12.40959,0.02055l0.30239,0.28477M2943.02953,647.85599c4.08075,0.31413 8.73104,0.82496 10.836,1.189c1.64698,0.28477 2.65983,1.00404 3.32332,2.3545l0.34349,0.69872v10.3927v10.3927l-0.31707,0.6723c-0.4022,0.86606 -1.32404,1.78203 -2.18129,2.17836c-0.54019,0.24954 -0.89542,0.32 -1.81138,0.35817c-1.12147,0.04697 -1.14202,0.04404 -1.1978,-0.22899c-0.04991,-0.23193 -0.66055,-6.90498 -0.65762,-7.17801c0,-0.04991 0.21138,-0.17321 0.46679,-0.27596c1.3123,-0.52551 1.77909,-2.16074 0.94532,-3.31157c-0.4433,-0.61064 -0.91597,-0.81028 -2.42496,-1.01578c-10.8683,-1.48551 -23.04009,-1.48551 -33.90839,0c-1.509,0.20551 -1.98166,0.40514 -2.42496,1.01578c-0.83376,1.15083 -0.36697,2.78607 0.94532,3.31157c0.25541,0.10275 0.46679,0.22606 0.46679,0.27596c0.00294,0.27303 -0.60771,6.94608 -0.65762,7.17801c-0.05578,0.27303 -0.07633,0.27596 -1.1978,0.22899c-0.91597,-0.03817 -1.2712,-0.10862 -1.81138,-0.35817c-0.85725,-0.39633 -1.77909,-1.3123 -2.18129,-2.17836l-0.31707,-0.6723v-10.3927v-10.3927l0.34349,-0.69872c0.18789,-0.38459 0.5578,-0.91597 0.82496,-1.18019c0.91303,-0.91303 1.55597,-1.10092 5.34901,-1.57358c3.6668,-0.45505 6.54388,-0.69872 11.80188,-0.99817c1.90826,-0.10862 13.31968,0.04404 15.44226,0.20844M2941.32677,654.3206c-1.65285,0.73982 -1.7556,3.04148 -0.17615,3.92809c0.50496,0.28477 1.36514,0.35523 1.88478,0.15266c1.27707,-0.49028 1.78203,-2.13432 1.01285,-3.29689c-0.54019,-0.81615 -1.82313,-1.18606 -2.72148,-0.78386M2950.13414,654.3206c-1.65285,0.73982 -1.7556,3.04148 -0.17615,3.92809c0.50496,0.28477 1.36514,0.35523 1.88478,0.15266c1.27707,-0.49028 1.78203,-2.13432 1.01285,-3.29689c-0.54019,-0.81615 -1.82313,-1.18606 -2.72148,-0.78386M2936.9818,667.42304c4.12185,0.13505 9.69985,0.54312 9.86132,0.72514c0.05872,0.06752 1.59413,17.27419 1.5912,17.84667c-0.00294,0.46679 -0.05578,0.59303 -0.36404,0.85138l-0.3611,0.30532h-14.30905h-14.30905l-0.3611,-0.30532c-0.30826,-0.25835 -0.3611,-0.38459 -0.36404,-0.85138c-0.00294,-0.57248 1.53248,-17.77915 1.5912,-17.84667c0.21431,-0.24073 7.13984,-0.68698 12.79711,-0.82202c0.38752,-0.00881 2.28992,0.03523 4.22754,0.09688" className="SFSymbolsPreviewWireframe"/></g>
  <g id="Regular-S"><path d="M1436.04393,630.17372c-1.28,0.4433 -2.54827,1.49138 -3.1501,2.59818c-0.62532,1.14496 -0.66349,1.53835 -0.66349,6.66718v4.72662l-0.26422,0.05578c-0.14385,0.03229 -1.10973,0.17028 -2.14313,0.31119c-1.0334,0.14092 -2.27524,0.37872 -2.75964,0.52844c-2.66276,0.83376 -4.76479,3.10313 -5.59562,6.03892c-0.20257,0.71633 -0.21725,1.42973 -0.21725,11.39087v10.62756l0.26422,0.91597c1.09799,3.78717 4.19231,6.25323 8.16443,6.50278l1.14496,0.07339l-0.06459,0.54019c-0.16734,1.43267 -0.40807,4.37433 -0.40514,5.00259c0.00294,2.28698 1.59707,4.44772 3.79598,5.13763l0.83964,0.26422h14.8551h14.8551l0.83964,-0.26422c2.03744,-0.64 3.60515,-2.60992 3.76662,-4.72662c0.04991,-0.65175 -0.17908,-3.91928 -0.38165,-5.47231l-0.06459,-0.48147l1.14789,-0.07339c3.96919,-0.24954 7.06938,-2.72148 8.16443,-6.50278l0.26716,-0.91597v-10.62756c0,-9.90829 -0.01468,-10.68041 -0.21431,-11.39087c-0.51964,-1.86423 -1.72625,-3.67855 -3.16185,-4.75892c-1.43854,-1.08037 -2.49836,-1.44734 -5.25507,-1.82019c-1.0011,-0.13505 -1.93762,-0.27009 -2.08441,-0.29945l-0.26422,-0.05578v-4.72662c0,-5.12883 -0.03817,-5.52222 -0.66349,-6.67012c-0.46973,-0.86312 -1.50606,-1.82313 -2.50129,-2.31634l-0.87487,-0.43156l-13.39308,-0.02642c-12.4683,-0.02349 -13.43418,-0.01174 -13.98317,0.17908M1462.69504,634.6508l0.30239,0.28477v4.38314c0,2.41028 -0.04404,4.38314 -0.09982,4.38314c-0.05578,0 -1.17725,-0.07927 -2.49542,-0.17321c-7.31599,-0.53431 -13.79822,-0.53431 -21.11421,0c-1.31817,0.09395 -2.43964,0.17321 -2.49542,0.17321c-0.05578,0 -0.09982,-1.97285 -0.09982,-4.38314v-4.38314l0.26422,-0.24073c0.14679,-0.13211 0.34349,-0.27009 0.44037,-0.30532c0.09688,-0.03523 5.76002,-0.05578 12.58574,-0.04404l12.40959,0.02055l0.30239,0.28477M1459.47448,647.85599c4.08075,0.31413 8.73104,0.82496 10.836,1.189c1.64698,0.28477 2.65983,1.00404 3.32332,2.3545l0.34349,0.69872v10.3927v10.3927l-0.31707,0.6723c-0.4022,0.86606 -1.32404,1.78203 -2.18129,2.17836c-0.54019,0.24954 -0.89542,0.32 -1.81138,0.35817c-1.12147,0.04697 -1.14202,0.04404 -1.1978,-0.22899c-0.04991,-0.23193 -0.66055,-6.90498 -0.65762,-7.17801c0,-0.04991 0.21138,-0.17321 0.46679,-0.27596c1.3123,-0.52551 1.77909,-2.16074 0.94532,-3.31157c-0.4433,-0.61064 -0.91597,-0.81028 -2.42496,-1.01578c-10.8683,-1.48551 -23.04009,-1.48551 -33.90839,0c-1.509,0.20551 -1.98166,0.40514 -2.42496,1.01578c-0.83376,1.15083 -0.36697,2.78607 0.94532,3.31157c0.25541,0.10275 0.46679,0.22606 0.46679,0.27596c0.00294,0.27303 -0.60771,6.94608 -0.65762,7.17801c-0.05578,0.27303 -0.07633,0.27596 -1.1978,0.22899c-0.91597,-0.03817 -1.2712,-0.10862 -1.81138,-0.35817c-0.85725,-0.39633 -1.77909,-1.3123 -2.18129,-2.17836l-0.31707,-0.6723v-10.3927v-10.3927l0.34349,-0.69872c0.18789,-0.38459 0.5578,-0.91597 0.82496,-1.18019c0.91303,-0.91303 1.55597,-1.10092 5.34901,-1.57358c3.6668,-0.45505 6.54388,-0.69872 11.80188,-0.99817c1.90826,-0.10862 13.31968,0.04404 15.44226,0.20844M1457.77172,654.3206c-1.65285,0.73982 -1.7556,3.04148 -0.17615,3.92809c0.50496,0.28477 1.36514,0.35523 1.88478,0.15266c1.27707,-0.49028 1.78203,-2.13432 1.01285,-3.29689c-0.54019,-0.81615 -1.82313,-1.18606 -2.72148,-0.78386M1466.57909,654.3206c-1.65285,0.73982 -1.7556,3.04148 -0.17615,3.92809c0.50496,0.28477 1.36514,0.35523 1.88478,0.15266c1.27707,-0.49028 1.78203,-2.13432 1.01285,-3.29689c-0.54019,-0.81615 -1.82313,-1.18606 -2.72148,-0.78386M1453.42675,667.42304c4.12185,0.13505 9.69985,0.54312 9.86132,0.72514c0.05872,0.06752 1.59413,17.27419 1.5912,17.84667c-0.00294,0.46679 -0.05578,0.59303 -0.36404,0.85138l-0.3611,0.30532h-14.30905h-14.30905l-0.3611,-0.30532c-0.30826,-0.25835 -0.3611,-0.38459 -0.36404,-0.85138c-0.00294,-0.57248 1.53248,-17.77915 1.5912,-17.84667c0.21431,-0.24073 7.13984,-0.68698 12.79711,-0.82202c0.38752,-0.00881 2.28992,0.03523 4.22754,0.09688" className="SFSymbolsPreviewWireframe"/></g>
  <g id="Ultralight-S"><path d="M545.91034,630.17372c-1.28,0.4433 -2.54827,1.49138 -3.1501,2.59818c-0.62532,1.14496 -0.66349,1.53835 -0.66349,6.66718v4.72662l-0.26422,0.05578c-0.14385,0.03229 -1.10973,0.17028 -2.14313,0.31119c-1.0334,0.14092 -2.27524,0.37872 -2.75964,0.52844c-2.66276,0.83376 -4.76479,3.10313 -5.59562,6.03892c-0.20257,0.71633 -0.21725,1.42973 -0.21725,11.39087v10.62756l0.26422,0.91597c1.09799,3.78717 4.19231,6.25323 8.16443,6.50278l1.14496,0.07339l-0.06459,0.54019c-0.16734,1.43267 -0.40807,4.37433 -0.40514,5.00259c0.00294,2.28698 1.59707,4.44772 3.79598,5.13763l0.83964,0.26422h14.8551h14.8551l0.83964,-0.26422c2.03744,-0.64 3.60515,-2.60992 3.76662,-4.72662c0.04991,-0.65175 -0.17908,-3.91928 -0.38165,-5.47231l-0.06459,-0.48147l1.14789,-0.07339c3.96919,-0.24954 7.06938,-2.72148 8.16443,-6.50278l0.26716,-0.91597v-10.62756c0,-9.90829 -0.01468,-10.68041 -0.21431,-11.39087c-0.51964,-1.86423 -1.72625,-3.67855 -3.16185,-4.75892c-1.43854,-1.08037 -2.49836,-1.44734 -5.25507,-1.82019c-1.0011,-0.13505 -1.93762,-0.27009 -2.08441,-0.29945l-0.26422,-0.05578v-4.72662c0,-5.12883 -0.03817,-5.52222 -0.66349,-6.67012c-0.46973,-0.86312 -1.50606,-1.82313 -2.50129,-2.31634l-0.87487,-0.43156l-13.39308,-0.02642c-12.4683,-0.02349 -13.43418,-0.01174 -13.98317,0.17908M572.56145,634.6508l0.30239,0.28477v4.38314c0,2.41028 -0.04404,4.38314 -0.09982,4.38314c-0.05578,0 -1.17725,-0.07927 -2.49542,-0.17321c-7.31599,-0.53431 -13.79822,-0.53431 -21.11421,0c-1.31817,0.09395 -2.43964,0.17321 -2.49542,0.17321c-0.05578,0 -0.09982,-1.97285 -0.09982,-4.38314v-4.38314l0.26422,-0.24073c0.14679,-0.13211 0.34349,-0.27009 0.44037,-0.30532c0.09688,-0.03523 5.76002,-0.05578 12.58574,-0.04404l12.40959,0.02055l0.30239,0.28477M569.34089,647.85599c4.08075,0.31413 8.73104,0.82496 10.836,1.189c1.64698,0.28477 2.65983,1.00404 3.32332,2.3545l0.34349,0.69872v10.3927v10.3927l-0.31707,0.6723c-0.4022,0.86606 -1.32404,1.78203 -2.18129,2.17836c-0.54019,0.24954 -0.89542,0.32 -1.81138,0.35817c-1.12147,0.04697 -1.14202,0.04404 -1.1978,-0.22899c-0.04991,-0.23193 -0.66055,-6.90498 -0.65762,-7.17801c0,-0.04991 0.21138,-0.17321 0.46679,-0.27596c1.3123,-0.52551 1.77909,-2.16074 0.94532,-3.31157c-0.4433,-0.61064 -0.91597,-0.81028 -2.42496,-1.01578c-10.8683,-1.48551 -23.04009,-1.48551 -33.90839,0c-1.509,0.20551 -1.98166,0.40514 -2.42496,1.01578c-0.83376,1.15083 -0.36697,2.78607 0.94532,3.31157c0.25541,0.10275 0.46679,0.22606 0.46679,0.27596c0.00294,0.27303 -0.60771,6.94608 -0.65762,7.17801c-0.05578,0.27303 -0.07633,0.27596 -1.1978,0.22899c-0.91597,-0.03817 -1.2712,-0.10862 -1.81138,-0.35817c-0.85725,-0.39633 -1.77909,-1.3123 -2.18129,-2.17836l-0.31707,-0.6723v-10.3927v-10.3927l0.34349,-0.69872c0.18789,-0.38459 0.5578,-0.91597 0.82496,-1.18019c0.91303,-0.91303 1.55597,-1.10092 5.34901,-1.57358c3.6668,-0.45505 6.54388,-0.69872 11.80188,-0.99817c1.90826,-0.10862 13.31968,0.04404 15.44226,0.20844M567.63813,654.3206c-1.65285,0.73982 -1.7556,3.04148 -0.17615,3.92809c0.50496,0.28477 1.36514,0.35523 1.88478,0.15266c1.27707,-0.49028 1.78203,-2.13432 1.01285,-3.29689c-0.54019,-0.81615 -1.82313,-1.18606 -2.72148,-0.78386M576.4455,654.3206c-1.65285,0.73982 -1.7556,3.04148 -0.17615,3.92809c0.50496,0.28477 1.36514,0.35523 1.88478,0.15266c1.27707,-0.49028 1.78203,-2.13432 1.01285,-3.29689c-0.54019,-0.81615 -1.82313,-1.18606 -2.72148,-0.78386M563.29316,667.42304c4.12185,0.13505 9.69985,0.54312 9.86132,0.72514c0.05872,0.06752 1.59413,17.27419 1.5912,17.84667c-0.00294,0.46679 -0.05578,0.59303 -0.36404,0.85138l-0.3611,0.30532h-14.30905h-14.30905l-0.3611,-0.30532c-0.30826,-0.25835 -0.3611,-0.38459 -0.36404,-0.85138c-0.00294,-0.57248 1.53248,-17.77915 1.5912,-17.84667c0.21431,-0.24073 7.13984,-0.68698 12.79711,-0.82202c0.38752,-0.00881 2.28992,0.03523 4.22754,0.09688" className="SFSymbolsPreviewWireframe"/></g>
 </g>
</svg>