<?xml version="1.0" encoding="UTF-8"?><!--Generator: https://SymbolKit.app--><!DOCTYPE svg PUBLIC "-//W3C//DTD SVG 1.1//EN" "http://www.w3.org/Graphics/SVG/1.1/DTD/svg11.dtd"><svg xmlns="http://www.w3.org/2000/svg" xmlns:xlink="http://www.w3.org/1999/xlink" version="1.1" viewBox="0 0 3300 2200">
 <!--glyph: "100092", point size: 100.0, font version: "20.0d10e1", template writer version: "138.0.0"-->
 <style>.SFSymbolsPreviewWireframe {fill:none;opacity:1.0;stroke:black;stroke-width:0.5}
</style>
 <g id="Notes">
  <rect height="2200" id="artboard" style="fill:white;opacity:1" width="3300" x="0" y="0"/>
  <line style="fill:none;stroke:black;opacity:1;stroke-width:0.5;" x1="263" x2="3036" y1="292" y2="292"/>
  <text style="stroke:none;fill:black;font-family:sans-serif;font-size:13;font-weight:bold;" transform="matrix(1 0 0 1 263 322)">Weight/Scale Variations</text>
  <text style="stroke:none;fill:black;font-family:sans-serif;font-size:13;text-anchor:middle;" transform="matrix(1 0 0 1 559.711 322)">Ultralight</text>
  <text style="stroke:none;fill:black;font-family:sans-serif;font-size:13;text-anchor:middle;" transform="matrix(1 0 0 1 856.422 322)">Thin</text>
  <text style="stroke:none;fill:black;font-family:sans-serif;font-size:13;text-anchor:middle;" transform="matrix(1 0 0 1 1153.13 322)">Light</text>
  <text style="stroke:none;fill:black;font-family:sans-serif;font-size:13;text-anchor:middle;" transform="matrix(1 0 0 1 1449.84 322)">Regular</text>
  <text style="stroke:none;fill:black;font-family:sans-serif;font-size:13;text-anchor:middle;" transform="matrix(1 0 0 1 1746.56 322)">Medium</text>
  <text style="stroke:none;fill:black;font-family:sans-serif;font-size:13;text-anchor:middle;" transform="matrix(1 0 0 1 2043.27 322)">Semibold</text>
  <text style="stroke:none;fill:black;font-family:sans-serif;font-size:13;text-anchor:middle;" transform="matrix(1 0 0 1 2339.98 322)">Bold</text>
  <text style="stroke:none;fill:black;font-family:sans-serif;font-size:13;text-anchor:middle;" transform="matrix(1 0 0 1 2636.69 322)">Heavy</text>
  <text style="stroke:none;fill:black;font-family:sans-serif;font-size:13;text-anchor:middle;" transform="matrix(1 0 0 1 2933.4 322)">Black</text>
  <line style="fill:none;stroke:black;opacity:1;stroke-width:0.5;" x1="263" x2="3036" y1="1903" y2="1903"/>
  <g transform="matrix(0.2 0 0 0.2 263 1933)">
   <path d="m46.2402 4.15039c21.7773 0 39.4531-17.627 39.4531-39.4043s-17.6758-39.4043-39.4531-39.4043c-21.7285 0-39.4043 17.627-39.4043 39.4043s17.6758 39.4043 39.4043 39.4043Zm0-7.42188c-17.6758 0-31.9336-14.3066-31.9336-31.9824s14.2578-31.9824 31.9336-31.9824 31.9824 14.3066 31.9824 31.9824-14.3066 31.9824-31.9824 31.9824Zm-17.9688-31.9824c0 2.14844 1.51367 3.61328 3.75977 3.61328h10.498v10.5957c0 2.19727 1.46484 3.71094 3.61328 3.71094 2.24609 0 3.71094-1.51367 3.71094-3.71094v-10.5957h10.5957c2.19727 0 3.71094-1.46484 3.71094-3.61328 0-2.19727-1.51367-3.71094-3.71094-3.71094h-10.5957v-10.5469c0-2.24609-1.46484-3.75977-3.71094-3.75977-2.14844 0-3.61328 1.51367-3.61328 3.75977v10.5469h-10.498c-2.24609 0-3.75977 1.51367-3.75977 3.71094Z"/>
  </g>
  <g transform="matrix(0.2 0 0 0.2 281.506 1933)">
   <path d="m58.5449 14.5508c27.4902 0 49.8047-22.3145 49.8047-49.8047s-22.3145-49.8047-49.8047-49.8047-49.8047 22.3145-49.8047 49.8047 22.3145 49.8047 49.8047 49.8047Zm0-8.30078c-22.9492 0-41.5039-18.5547-41.5039-41.5039s18.5547-41.5039 41.5039-41.5039 41.5039 18.5547 41.5039 41.5039-18.5547 41.5039-41.5039 41.5039Zm-22.6562-41.5039c0 2.39258 1.66016 4.00391 4.15039 4.00391h14.3555v14.4043c0 2.44141 1.66016 4.15039 4.05273 4.15039 2.44141 0 4.15039-1.66016 4.15039-4.15039v-14.4043h14.4043c2.44141 0 4.15039-1.61133 4.15039-4.00391 0-2.44141-1.70898-4.15039-4.15039-4.15039h-14.4043v-14.3555c0-2.49023-1.70898-4.19922-4.15039-4.19922-2.39258 0-4.05273 1.70898-4.05273 4.19922v14.3555h-14.3555c-2.49023 0-4.15039 1.70898-4.15039 4.15039Z"/>
  </g>
  <g transform="matrix(0.2 0 0 0.2 304.924 1933)">
   <path d="m74.8535 28.3203c35.1074 0 63.623-28.4668 63.623-63.5742s-28.5156-63.623-63.623-63.623-63.5742 28.5156-63.5742 63.623 28.4668 63.5742 63.5742 63.5742Zm0-9.08203c-30.127 0-54.4922-24.3652-54.4922-54.4922s24.3652-54.4922 54.4922-54.4922 54.4922 24.3652 54.4922 54.4922-24.3652 54.4922-54.4922 54.4922Zm-28.8574-54.4922c0 2.58789 1.85547 4.39453 4.58984 4.39453h19.7266v19.7754c0 2.68555 1.85547 4.58984 4.44336 4.58984 2.68555 0 4.54102-1.85547 4.54102-4.58984v-19.7754h19.7754c2.68555 0 4.58984-1.80664 4.58984-4.39453 0-2.73438-1.85547-4.58984-4.58984-4.58984h-19.7754v-19.7266c0-2.73438-1.85547-4.63867-4.54102-4.63867-2.58789 0-4.44336 1.9043-4.44336 4.63867v19.7266h-19.7266c-2.73438 0-4.58984 1.85547-4.58984 4.58984Z"/>
  </g>
  <text style="stroke:none;fill:black;font-family:sans-serif;font-size:13;font-weight:bold;" transform="matrix(1 0 0 1 263 1953)">Design Variations</text>
  <text style="stroke:none;fill:black;font-family:sans-serif;font-size:13;" transform="matrix(1 0 0 1 263 1971)">Symbols are supported in up to nine weights and three scales.</text>
  <text style="stroke:none;fill:black;font-family:sans-serif;font-size:13;" transform="matrix(1 0 0 1 263 1989)">For optimal layout with text and other symbols, vertically align</text>
  <text style="stroke:none;fill:black;font-family:sans-serif;font-size:13;" transform="matrix(1 0 0 1 263 2007)">symbols with the adjacent text.</text>
  <line style="fill:none;stroke:#00AEEF;stroke-width:0.5;opacity:1.0;" x1="776" x2="776" y1="1919" y2="1933"/>
  <g transform="matrix(0.2 0 0 0.2 776 1933)">
   <path d="m16.5527 0.78125c2.58789 0 3.85742-0.976562 4.78516-3.71094l6.29883-17.2363h28.8086l6.29883 17.2363c0.927734 2.73438 2.19727 3.71094 4.73633 3.71094 2.58789 0 4.24805-1.5625 4.24805-4.00391 0-0.830078-0.146484-1.61133-0.537109-2.63672l-22.9004-60.9863c-1.12305-2.97852-3.125-4.49219-6.25-4.49219-3.02734 0-5.07812 1.46484-6.15234 4.44336l-22.9004 61.084c-0.390625 1.02539-0.537109 1.80664-0.537109 2.63672 0 2.44141 1.5625 3.95508 4.10156 3.95508Zm13.4766-28.3691 11.8652-32.8613h0.244141l11.8652 32.8613Z"/>
  </g>
  <line style="fill:none;stroke:#00AEEF;stroke-width:0.5;opacity:1.0;" x1="792.836" x2="792.836" y1="1919" y2="1933"/>
  <text style="stroke:none;fill:black;font-family:sans-serif;font-size:13;font-weight:bold;" transform="matrix(1 0 0 1 776 1953)">Margins</text>
  <text style="stroke:none;fill:black;font-family:sans-serif;font-size:13;" transform="matrix(1 0 0 1 776 1971)">Leading and trailing margins on the left and right side of each symbol</text>
  <text style="stroke:none;fill:black;font-family:sans-serif;font-size:13;" transform="matrix(1 0 0 1 776 1989)">can be adjusted by modifying the x-location of the margin guidelines.</text>
  <text style="stroke:none;fill:black;font-family:sans-serif;font-size:13;" transform="matrix(1 0 0 1 776 2007)">Modifications are automatically applied proportionally to all</text>
  <text style="stroke:none;fill:black;font-family:sans-serif;font-size:13;" transform="matrix(1 0 0 1 776 2025)">scales and weights.</text>
  <g transform="matrix(0.2 0 0 0.2 1289 1933)">
   <path d="m14.209 9.32617 8.49609 8.54492c4.29688 4.3457 9.22852 4.05273 13.8672-1.07422l53.4668-58.9355-4.83398-4.88281-53.0762 58.3984c-1.75781 2.00195-3.41797 2.49023-5.76172 0.146484l-5.85938-5.81055c-2.34375-2.29492-1.80664-4.00391 0.195312-5.81055l57.373-54.0039-4.88281-4.83398-57.959 54.4434c-4.93164 4.58984-5.32227 9.47266-1.02539 13.8184Zm32.0801-90.9668c-2.09961 2.05078-2.24609 4.93164-1.07422 6.88477 1.17188 1.80664 3.4668 2.97852 6.68945 2.14844 7.32422-1.70898 14.9414-2.00195 22.0703 2.68555l-2.92969 7.27539c-1.70898 4.15039-0.830078 7.08008 1.85547 9.81445l11.4746 11.5723c2.44141 2.44141 4.49219 2.53906 7.32422 2.05078l5.32227-0.976562 3.32031 3.36914-0.195312 2.7832c-0.195312 2.49023 0.439453 4.39453 2.88086 6.78711l3.80859 3.71094c2.39258 2.39258 5.46875 2.53906 7.8125 0.195312l14.5508-14.5996c2.34375-2.34375 2.24609-5.32227-0.146484-7.71484l-3.85742-3.80859c-2.39258-2.39258-4.24805-3.17383-6.64062-2.97852l-2.88086 0.244141-3.22266-3.17383 1.2207-5.61523c0.634766-2.83203-0.146484-5.0293-3.07617-7.95898l-10.9863-10.9375c-16.6992-16.6016-38.8672-16.2109-53.3203-1.75781Zm7.4707 1.85547c12.1582-8.88672 28.6133-7.37305 39.7461 3.75977l12.1582 12.0605c1.17188 1.17188 1.36719 2.09961 1.02539 3.80859l-1.61133 7.42188 7.51953 7.42188 4.93164-0.292969c1.26953-0.0488281 1.66016 0.0488281 2.63672 1.02539l2.88086 2.88086-12.207 12.207-2.88086-2.88086c-0.976562-0.976562-1.12305-1.36719-1.07422-2.68555l0.341797-4.88281-7.4707-7.42188-7.61719 1.26953c-1.61133 0.341797-2.34375 0.195312-3.56445-0.976562l-10.0098-10.0098c-1.26953-1.17188-1.41602-2.00195-0.634766-3.85742l4.39453-10.4492c-7.8125-7.27539-17.9688-10.4004-28.125-7.42188-0.78125 0.195312-1.07422-0.439453-0.439453-0.976562Z"/>
  </g>
  <text style="stroke:none;fill:black;font-family:sans-serif;font-size:13;font-weight:bold;" transform="matrix(1 0 0 1 1289 1953)">Exporting</text>
  <text style="stroke:none;fill:black;font-family:sans-serif;font-size:13;" transform="matrix(1 0 0 1 1289 1971)">Symbols should be outlined when exporting to ensure the</text>
  <text style="stroke:none;fill:black;font-family:sans-serif;font-size:13;" transform="matrix(1 0 0 1 1289 1989)">design is preserved when submitting to Xcode.</text>
  <text id="template-version" style="stroke:none;fill:black;font-family:sans-serif;font-size:13;text-anchor:end;" transform="matrix(1 0 0 1 3036 1933)">Template v.6.0</text>
  <text style="stroke:none;fill:black;font-family:sans-serif;font-size:13;text-anchor:end;" transform="matrix(1 0 0 1 3036 1951)">Requires Xcode 16 or greater</text>
  <text id="descriptive-name" style="stroke:none;fill:black;font-family:sans-serif;font-size:13;text-anchor:end;" transform="matrix(1 0 0 1 3036 1969)">Generated from square</text>
  <text style="stroke:none;fill:black;font-family:sans-serif;font-size:13;text-anchor:end;" transform="matrix(1 0 0 1 3036 1987)">Typeset at 100.0 points</text>
  <text style="stroke:none;fill:black;font-family:sans-serif;font-size:13;" transform="matrix(1 0 0 1 263 726)">Small</text>
  <text style="stroke:none;fill:black;font-family:sans-serif;font-size:13;" transform="matrix(1 0 0 1 263 1156)">Medium</text>
  <text style="stroke:none;fill:black;font-family:sans-serif;font-size:13;" transform="matrix(1 0 0 1 263 1586)">Large</text>
 </g>
 <g id="Guides">
  <g id="H-reference" style="fill:#27AAE1;stroke:none;" transform="matrix(1 0 0 1 339 696)">
   <path d="M0.993654 0L3.63775 0L29.3281-67.1323L30.0303-67.1323L30.0303-70.459L28.1226-70.459ZM11.6885-24.4799L46.9815-24.4799L46.2315-26.7285L12.4385-26.7285ZM55.1196 0L57.7637 0L30.6382-70.459L29.4326-70.459L29.4326-67.1323Z"/>
  </g>
  <line id="Baseline-S" style="fill:none;stroke:#27AAE1;opacity:1;stroke-width:0.5;" x1="263" x2="3036" y1="696" y2="696"/>
  <line id="Capline-S" style="fill:none;stroke:#27AAE1;opacity:1;stroke-width:0.5;" x1="263" x2="3036" y1="625.541" y2="625.541"/>
  <g id="H-reference" style="fill:#27AAE1;stroke:none;" transform="matrix(1 0 0 1 339 1126)">
   <path d="M0.993654 0L3.63775 0L29.3281-67.1323L30.0303-67.1323L30.0303-70.459L28.1226-70.459ZM11.6885-24.4799L46.9815-24.4799L46.2315-26.7285L12.4385-26.7285ZM55.1196 0L57.7637 0L30.6382-70.459L29.4326-70.459L29.4326-67.1323Z"/>
  </g>
  <line id="Baseline-M" style="fill:none;stroke:#27AAE1;opacity:1;stroke-width:0.5;" x1="263" x2="3036" y1="1126" y2="1126"/>
  <line id="Capline-M" style="fill:none;stroke:#27AAE1;opacity:1;stroke-width:0.5;" x1="263" x2="3036" y1="1055.54" y2="1055.54"/>
  <g id="H-reference" style="fill:#27AAE1;stroke:none;" transform="matrix(1 0 0 1 339 1556)">
   <path d="M0.993654 0L3.63775 0L29.3281-67.1323L30.0303-67.1323L30.0303-70.459L28.1226-70.459ZM11.6885-24.4799L46.9815-24.4799L46.2315-26.7285L12.4385-26.7285ZM55.1196 0L57.7637 0L30.6382-70.459L29.4326-70.459L29.4326-67.1323Z"/>
  </g>
  <line id="Baseline-L" style="fill:none;stroke:#27AAE1;opacity:1;stroke-width:0.5;" x1="263" x2="3036" y1="1556" y2="1556"/>
  <line id="Capline-L" style="fill:none;stroke:#27AAE1;opacity:1;stroke-width:0.5;" x1="263" x2="3036" y1="1485.54" y2="1485.54"/>
  <line id="right-margin-Black-S" style="fill:none;stroke:#00AEEF;stroke-width:0.5;opacity:1.0;" x1="2981.3" x2="2981.3" y1="600.785" y2="720.121"/>
  <line id="left-margin-Black-S" style="fill:none;stroke:#00AEEF;stroke-width:0.5;opacity:1.0;" x1="2885.5" x2="2885.5" y1="600.785" y2="720.121"/>
  <line id="right-margin-Regular-S" style="fill:none;stroke:#00AEEF;stroke-width:0.5;opacity:1.0;" x1="1495.18" x2="1495.18" y1="600.785" y2="720.121"/>
  <line id="left-margin-Regular-S" style="fill:none;stroke:#00AEEF;stroke-width:0.5;opacity:1.0;" x1="1404.51" x2="1404.51" y1="600.785" y2="720.121"/>
  <line id="right-margin-Ultralight-S" style="fill:none;stroke:#00AEEF;stroke-width:0.5;opacity:1.0;" x1="603.073" x2="603.073" y1="600.785" y2="720.121"/>
  <line id="left-margin-Ultralight-S" style="fill:none;stroke:#00AEEF;stroke-width:0.5;opacity:1.0;" x1="516.35" x2="516.35" y1="600.785" y2="720.121"/>
 </g>
 <g id="Symbols">
  <g id="Black-S"><path d="M2911.33473,634.47316c-1.97872,0.39046 -3.80185,2.19891 -4.2246,4.19525c-0.09101,0.42275 -0.13211,2.94753 -0.13211,7.87379c0,8.00297 0.00294,8.04994 0.73982,9.2771c0.42863,0.71633 1.53542,1.79377 2.17836,2.12258c1.19193,0.60771 1.17432,0.60771 9.48554,0.56954l7.73581,-0.03229l0.88074,-0.43156c1.16844,-0.57248 2.1079,-1.51193 2.68038,-2.68038l0.43156,-0.88074l0.03229,-7.74462c0.03229,-7.45104 0.02642,-7.77691 -0.19963,-8.51673c-0.56074,-1.84368 -2.19304,-3.33799 -4.09543,-3.74607c-0.74569,-0.15853 -14.70244,-0.1644 -15.51272,-0.00587M2939.79428,634.51133c-0.88954,0.21431 -1.63524,0.61652 -2.33983,1.26239c-0.82202,0.75156 -1.30643,1.49725 -1.59707,2.45139c-0.22606,0.73982 -0.23193,1.06569 -0.19963,8.51673l0.03229,7.74462l0.43156,0.88074c0.57248,1.16844 1.51193,2.1079 2.68038,2.68038l0.88074,0.43156l7.73581,0.03229c8.30535,0.03817 8.29655,0.03817 9.47967,-0.56661c0.61652,-0.31413 1.66459,-1.30936 2.1079,-2.00221c0.81028,-1.25945 0.81615,-1.32404 0.81615,-9.40334c0,-4.92332 -0.0411,-7.4481 -0.13211,-7.87086c-0.4345,-2.04625 -2.24588,-3.80772 -4.31855,-4.20112c-0.9512,-0.18202 -14.814,-0.14092 -15.57731,0.04404M2926.41001,639.09116c0.1556,0.15266 0.31413,0.45798 0.35229,0.67523c0.0411,0.21431 0.05578,3.39084 0.03817,7.05471l-0.03523,6.66131l-0.32587,0.32587l-0.32587,0.32587h-7.05177h-7.05471l-0.28184,-0.32881l-0.28477,-0.32881v-7.0459v-7.0459l0.28771,-0.28771l0.28771,-0.28771h7.05764h7.05764l0.2789,0.28184M2955.07214,639.09703l0.28771,0.28771v7.0459v7.0459l-0.28477,0.32881l-0.28184,0.32881h-7.05471h-7.05177l-0.32587,-0.32587l-0.32587,-0.32587l-0.03523,-6.66131c-0.01761,-3.66387 -0.00294,-6.84039 0.03817,-7.05471c0.03817,-0.21725 0.1967,-0.52257 0.35229,-0.67523l0.2789,-0.28184h7.05764h7.05764l0.28771,0.28771M2917.37071,643.25118c-0.47853,0.1644 -0.95707,0.52551 -1.2389,0.93358c-0.27596,0.4022 -0.28771,0.49908 -0.28771,2.25762c0,1.7967 0.00587,1.84661 0.31413,2.3134c0.53138,0.80147 1.05688,0.97468 2.95634,0.97468c2.04331,0 2.51891,-0.1967 3.05616,-1.25652c0.14973,-0.29358 0.19083,-0.73395 0.19083,-1.98753c0,-1.90239 -0.17321,-2.4279 -0.97468,-2.95928c-0.45505,-0.29945 -0.54899,-0.31413 -2.12845,-0.33468c-0.9101,-0.01468 -1.75854,0.01174 -1.88771,0.05872M2945.63357,643.4009c-0.29358,0.14679 -0.64294,0.45798 -0.82202,0.73101c-0.30826,0.46385 -0.31413,0.51083 -0.31413,2.37799v1.90826l0.35523,0.43743c0.62532,0.77505 0.94826,0.87487 2.80662,0.87487c1.92881,0 2.44845,-0.17028 2.98276,-0.97468c0.30826,-0.46679 0.31413,-0.5167 0.31413,-2.32515c0,-2.0668 -0.01761,-2.12258 -0.92771,-2.85946l-0.4433,-0.35817l-1.72331,-0.03523c-1.57652,-0.03229 -1.76147,-0.01174 -2.22827,0.22312M2910.97362,663.18813c-1.74973,0.46973 -3.35854,2.09615 -3.81359,3.85763c-0.1556,0.59597 -0.18202,1.79964 -0.18202,7.95012c0,4.92626 0.0411,7.45104 0.13211,7.87379c0.42275,1.98753 2.20184,3.76662 4.18937,4.18937c0.42275,0.09101 2.94753,0.13211 7.87086,0.13211c8.0793,0 8.14388,-0.00587 9.40334,-0.81615c0.69285,-0.4433 1.68808,-1.49138 2.00221,-2.1079c0.60477,-1.18312 0.60477,-1.17432 0.56661,-9.47967l-0.03229,-7.73581l-0.43156,-0.88074c-0.73982,-1.50606 -2.0345,-2.5923 -3.56405,-2.99157c-1.00698,-0.26129 -15.16336,-0.25248 -16.14098,0.00881M2936.78216,663.24098c-0.2378,0.12624 -0.58129,0.42275 -0.76331,0.66055l-0.32881,0.43156v1.89652c0,1.86129 0.00587,1.90533 0.31413,2.37212c0.52551,0.7956 1.06276,0.97468 2.89763,0.97468c1.7879,0 2.10496,-0.09101 2.74203,-0.7956c0.53431,-0.59597 0.59303,-0.89248 0.54312,-2.80662c-0.03523,-1.42386 -0.05872,-1.55597 -0.35229,-1.99927c-0.53431,-0.80734 -1.05395,-0.97468 -2.98276,-0.96881c-1.38863,0.00294 -1.69982,0.03817 -2.06973,0.23486M2954.39691,663.24098c-0.2378,0.12624 -0.58129,0.42275 -0.76331,0.66055l-0.32881,0.43156v1.89652c0,1.86129 0.00587,1.90533 0.31413,2.37212c0.52551,0.7956 1.06276,0.97468 2.89763,0.97468c1.7879,0 2.10496,-0.09101 2.74203,-0.7956c0.53431,-0.59597 0.59303,-0.89248 0.54312,-2.80662c-0.03523,-1.42386 -0.05872,-1.55597 -0.35229,-1.99927c-0.53431,-0.80734 -1.05395,-0.97468 -2.98276,-0.96881c-1.38863,0.00294 -1.69982,0.03817 -2.06973,0.23486M2926.43937,667.7298l0.32587,0.32587l0.03229,6.80223c0.02936,5.82461 0.00881,6.86388 -0.14092,7.22498c-0.32294,0.77211 -0.23486,0.76331 -7.49214,0.76331c-4.10424,0 -6.6525,-0.04697 -6.92847,-0.1233c-0.8367,-0.23193 -0.7956,0.15266 -0.7956,-7.63893c0,-6.84626 0.00587,-7.00773 0.2378,-7.30425c0.12917,-0.1644 0.35523,-0.32587 0.49908,-0.35229c0.14385,-0.02936 3.33799,-0.04697 7.09874,-0.03817l6.83746,0.01468l0.32587,0.32587M2916.98025,672.06009c-0.29945,0.14679 -0.64,0.44918 -0.82202,0.72514c-0.29358,0.44037 -0.31707,0.57542 -0.35229,1.99634c-0.04991,1.94937 0.00294,2.21652 0.58716,2.84772c0.63413,0.68991 1.00698,0.78092 2.92405,0.73395c1.50019,-0.03523 1.62349,-0.05578 2.06973,-0.35229c0.80147,-0.53138 0.97468,-1.05688 0.97468,-2.95634c0,-2.04331 -0.1967,-2.51891 -1.25652,-3.05616c-0.29358,-0.14973 -0.73395,-0.19083 -1.99634,-0.19083c-1.42092,0 -1.68221,0.03229 -2.12845,0.25248M2945.58954,672.04835c-0.2378,0.12624 -0.58129,0.42275 -0.76331,0.66055l-0.32881,0.43156v1.89652c0,1.86129 0.00587,1.90533 0.31413,2.37212c0.52551,0.7956 1.06276,0.97468 2.89763,0.97468c1.7879,0 2.10496,-0.09101 2.74203,-0.7956c0.53431,-0.59597 0.59303,-0.89248 0.54312,-2.80662c-0.03523,-1.42386 -0.05872,-1.55597 -0.35229,-1.99927c-0.53431,-0.80734 -1.05395,-0.97468 -2.98276,-0.96881c-1.38863,0.00294 -1.69982,0.03817 -2.06973,0.23486M2936.78216,680.85572c-0.2378,0.12624 -0.58129,0.42275 -0.76331,0.66055l-0.32881,0.43156v1.89652c0,1.86129 0.00587,1.90533 0.31413,2.37212c0.52551,0.7956 1.06276,0.97468 2.89763,0.97468c1.7879,0 2.10496,-0.09101 2.74203,-0.7956c0.53431,-0.59597 0.59303,-0.89248 0.54312,-2.80662c-0.03523,-1.42386 -0.05872,-1.55597 -0.35229,-1.99927c-0.53431,-0.80734 -1.05395,-0.97468 -2.98276,-0.96881c-1.38863,0.00294 -1.69982,0.03817 -2.06973,0.23486M2954.39691,680.85572c-0.2378,0.12624 -0.58129,0.42275 -0.76331,0.66055l-0.32881,0.43156v1.89652c0,1.86129 0.00587,1.90533 0.31413,2.37212c0.52551,0.7956 1.06276,0.97468 2.89763,0.97468c1.7879,0 2.10496,-0.09101 2.74203,-0.7956c0.53431,-0.59597 0.59303,-0.89248 0.54312,-2.80662c-0.03523,-1.42386 -0.05872,-1.55597 -0.35229,-1.99927c-0.53431,-0.80734 -1.05395,-0.97468 -2.98276,-0.96881c-1.38863,0.00294 -1.69982,0.03817 -2.06973,0.23486" className="SFSymbolsPreviewWireframe"/></g>
  <g id="Regular-S"><path d="M1427.77968,634.47316c-1.97872,0.39046 -3.80185,2.19891 -4.2246,4.19525c-0.09101,0.42275 -0.13211,2.94753 -0.13211,7.87379c0,8.00297 0.00294,8.04994 0.73982,9.2771c0.42863,0.71633 1.53542,1.79377 2.17836,2.12258c1.19193,0.60771 1.17432,0.60771 9.48554,0.56954l7.73581,-0.03229l0.88074,-0.43156c1.16844,-0.57248 2.1079,-1.51193 2.68038,-2.68038l0.43156,-0.88074l0.03229,-7.74462c0.03229,-7.45104 0.02642,-7.77691 -0.19963,-8.51673c-0.56074,-1.84368 -2.19304,-3.33799 -4.09543,-3.74607c-0.74569,-0.15853 -14.70244,-0.1644 -15.51272,-0.00587M1456.23923,634.51133c-0.88954,0.21431 -1.63524,0.61652 -2.33983,1.26239c-0.82202,0.75156 -1.30643,1.49725 -1.59707,2.45139c-0.22606,0.73982 -0.23193,1.06569 -0.19963,8.51673l0.03229,7.74462l0.43156,0.88074c0.57248,1.16844 1.51193,2.1079 2.68038,2.68038l0.88074,0.43156l7.73581,0.03229c8.30535,0.03817 8.29655,0.03817 9.47967,-0.56661c0.61652,-0.31413 1.66459,-1.30936 2.1079,-2.00221c0.81028,-1.25945 0.81615,-1.32404 0.81615,-9.40334c0,-4.92332 -0.0411,-7.4481 -0.13211,-7.87086c-0.4345,-2.04625 -2.24588,-3.80772 -4.31855,-4.20112c-0.9512,-0.18202 -14.814,-0.14092 -15.57731,0.04404M1442.85496,639.09116c0.1556,0.15266 0.31413,0.45798 0.35229,0.67523c0.0411,0.21431 0.05578,3.39084 0.03817,7.05471l-0.03523,6.66131l-0.32587,0.32587l-0.32587,0.32587h-7.05177h-7.05471l-0.28184,-0.32881l-0.28477,-0.32881v-7.0459v-7.0459l0.28771,-0.28771l0.28771,-0.28771h7.05764h7.05764l0.2789,0.28184M1471.51709,639.09703l0.28771,0.28771v7.0459v7.0459l-0.28477,0.32881l-0.28184,0.32881h-7.05471h-7.05177l-0.32587,-0.32587l-0.32587,-0.32587l-0.03523,-6.66131c-0.01761,-3.66387 -0.00294,-6.84039 0.03817,-7.05471c0.03817,-0.21725 0.1967,-0.52257 0.35229,-0.67523l0.2789,-0.28184h7.05764h7.05764l0.28771,0.28771M1433.81566,643.25118c-0.47853,0.1644 -0.95707,0.52551 -1.2389,0.93358c-0.27596,0.4022 -0.28771,0.49908 -0.28771,2.25762c0,1.7967 0.00587,1.84661 0.31413,2.3134c0.53138,0.80147 1.05688,0.97468 2.95634,0.97468c2.04331,0 2.51891,-0.1967 3.05616,-1.25652c0.14973,-0.29358 0.19083,-0.73395 0.19083,-1.98753c0,-1.90239 -0.17321,-2.4279 -0.97468,-2.95928c-0.45505,-0.29945 -0.54899,-0.31413 -2.12845,-0.33468c-0.9101,-0.01468 -1.75854,0.01174 -1.88771,0.05872M1462.07852,643.4009c-0.29358,0.14679 -0.64294,0.45798 -0.82202,0.73101c-0.30826,0.46385 -0.31413,0.51083 -0.31413,2.37799v1.90826l0.35523,0.43743c0.62532,0.77505 0.94826,0.87487 2.80662,0.87487c1.92881,0 2.44845,-0.17028 2.98276,-0.97468c0.30826,-0.46679 0.31413,-0.5167 0.31413,-2.32515c0,-2.0668 -0.01761,-2.12258 -0.92771,-2.85946l-0.4433,-0.35817l-1.72331,-0.03523c-1.57652,-0.03229 -1.76147,-0.01174 -2.22827,0.22312M1427.41857,663.18813c-1.74973,0.46973 -3.35854,2.09615 -3.81359,3.85763c-0.1556,0.59597 -0.18202,1.79964 -0.18202,7.95012c0,4.92626 0.0411,7.45104 0.13211,7.87379c0.42275,1.98753 2.20184,3.76662 4.18937,4.18937c0.42275,0.09101 2.94753,0.13211 7.87086,0.13211c8.0793,0 8.14388,-0.00587 9.40334,-0.81615c0.69285,-0.4433 1.68808,-1.49138 2.00221,-2.1079c0.60477,-1.18312 0.60477,-1.17432 0.56661,-9.47967l-0.03229,-7.73581l-0.43156,-0.88074c-0.73982,-1.50606 -2.0345,-2.5923 -3.56405,-2.99157c-1.00698,-0.26129 -15.16336,-0.25248 -16.14098,0.00881M1453.22711,663.24098c-0.2378,0.12624 -0.58129,0.42275 -0.76331,0.66055l-0.32881,0.43156v1.89652c0,1.86129 0.00587,1.90533 0.31413,2.37212c0.52551,0.7956 1.06276,0.97468 2.89763,0.97468c1.7879,0 2.10496,-0.09101 2.74203,-0.7956c0.53431,-0.59597 0.59303,-0.89248 0.54312,-2.80662c-0.03523,-1.42386 -0.05872,-1.55597 -0.35229,-1.99927c-0.53431,-0.80734 -1.05395,-0.97468 -2.98276,-0.96881c-1.38863,0.00294 -1.69982,0.03817 -2.06973,0.23486M1470.84186,663.24098c-0.2378,0.12624 -0.58129,0.42275 -0.76331,0.66055l-0.32881,0.43156v1.89652c0,1.86129 0.00587,1.90533 0.31413,2.37212c0.52551,0.7956 1.06276,0.97468 2.89763,0.97468c1.7879,0 2.10496,-0.09101 2.74203,-0.7956c0.53431,-0.59597 0.59303,-0.89248 0.54312,-2.80662c-0.03523,-1.42386 -0.05872,-1.55597 -0.35229,-1.99927c-0.53431,-0.80734 -1.05395,-0.97468 -2.98276,-0.96881c-1.38863,0.00294 -1.69982,0.03817 -2.06973,0.23486M1442.88432,667.7298l0.32587,0.32587l0.03229,6.80223c0.02936,5.82461 0.00881,6.86388 -0.14092,7.22498c-0.32294,0.77211 -0.23486,0.76331 -7.49214,0.76331c-4.10424,0 -6.6525,-0.04697 -6.92847,-0.1233c-0.8367,-0.23193 -0.7956,0.15266 -0.7956,-7.63893c0,-6.84626 0.00587,-7.00773 0.2378,-7.30425c0.12917,-0.1644 0.35523,-0.32587 0.49908,-0.35229c0.14385,-0.02936 3.33799,-0.04697 7.09874,-0.03817l6.83746,0.01468l0.32587,0.32587M1433.4252,672.06009c-0.29945,0.14679 -0.64,0.44918 -0.82202,0.72514c-0.29358,0.44037 -0.31707,0.57542 -0.35229,1.99634c-0.04991,1.94937 0.00294,2.21652 0.58716,2.84772c0.63413,0.68991 1.00698,0.78092 2.92405,0.73395c1.50019,-0.03523 1.62349,-0.05578 2.06973,-0.35229c0.80147,-0.53138 0.97468,-1.05688 0.97468,-2.95634c0,-2.04331 -0.1967,-2.51891 -1.25652,-3.05616c-0.29358,-0.14973 -0.73395,-0.19083 -1.99634,-0.19083c-1.42092,0 -1.68221,0.03229 -2.12845,0.25248M1462.03449,672.04835c-0.2378,0.12624 -0.58129,0.42275 -0.76331,0.66055l-0.32881,0.43156v1.89652c0,1.86129 0.00587,1.90533 0.31413,2.37212c0.52551,0.7956 1.06276,0.97468 2.89763,0.97468c1.7879,0 2.10496,-0.09101 2.74203,-0.7956c0.53431,-0.59597 0.59303,-0.89248 0.54312,-2.80662c-0.03523,-1.42386 -0.05872,-1.55597 -0.35229,-1.99927c-0.53431,-0.80734 -1.05395,-0.97468 -2.98276,-0.96881c-1.38863,0.00294 -1.69982,0.03817 -2.06973,0.23486M1453.22711,680.85572c-0.2378,0.12624 -0.58129,0.42275 -0.76331,0.66055l-0.32881,0.43156v1.89652c0,1.86129 0.00587,1.90533 0.31413,2.37212c0.52551,0.7956 1.06276,0.97468 2.89763,0.97468c1.7879,0 2.10496,-0.09101 2.74203,-0.7956c0.53431,-0.59597 0.59303,-0.89248 0.54312,-2.80662c-0.03523,-1.42386 -0.05872,-1.55597 -0.35229,-1.99927c-0.53431,-0.80734 -1.05395,-0.97468 -2.98276,-0.96881c-1.38863,0.00294 -1.69982,0.03817 -2.06973,0.23486M1470.84186,680.85572c-0.2378,0.12624 -0.58129,0.42275 -0.76331,0.66055l-0.32881,0.43156v1.89652c0,1.86129 0.00587,1.90533 0.31413,2.37212c0.52551,0.7956 1.06276,0.97468 2.89763,0.97468c1.7879,0 2.10496,-0.09101 2.74203,-0.7956c0.53431,-0.59597 0.59303,-0.89248 0.54312,-2.80662c-0.03523,-1.42386 -0.05872,-1.55597 -0.35229,-1.99927c-0.53431,-0.80734 -1.05395,-0.97468 -2.98276,-0.96881c-1.38863,0.00294 -1.69982,0.03817 -2.06973,0.23486" className="SFSymbolsPreviewWireframe"/></g>
  <g id="Ultralight-S"><path d="M537.64609,634.47316c-1.97872,0.39046 -3.80185,2.19891 -4.2246,4.19525c-0.09101,0.42275 -0.13211,2.94753 -0.13211,7.87379c0,8.00297 0.00294,8.04994 0.73982,9.2771c0.42863,0.71633 1.53542,1.79377 2.17836,2.12258c1.19193,0.60771 1.17432,0.60771 9.48554,0.56954l7.73581,-0.03229l0.88074,-0.43156c1.16844,-0.57248 2.1079,-1.51193 2.68038,-2.68038l0.43156,-0.88074l0.03229,-7.74462c0.03229,-7.45104 0.02642,-7.77691 -0.19963,-8.51673c-0.56074,-1.84368 -2.19304,-3.33799 -4.09543,-3.74607c-0.74569,-0.15853 -14.70244,-0.1644 -15.51272,-0.00587M566.10564,634.51133c-0.88954,0.21431 -1.63524,0.61652 -2.33983,1.26239c-0.82202,0.75156 -1.30643,1.49725 -1.59707,2.45139c-0.22606,0.73982 -0.23193,1.06569 -0.19963,8.51673l0.03229,7.74462l0.43156,0.88074c0.57248,1.16844 1.51193,2.1079 2.68038,2.68038l0.88074,0.43156l7.73581,0.03229c8.30535,0.03817 8.29655,0.03817 9.47967,-0.56661c0.61652,-0.31413 1.66459,-1.30936 2.1079,-2.00221c0.81028,-1.25945 0.81615,-1.32404 0.81615,-9.40334c0,-4.92332 -0.0411,-7.4481 -0.13211,-7.87086c-0.4345,-2.04625 -2.24588,-3.80772 -4.31855,-4.20112c-0.9512,-0.18202 -14.814,-0.14092 -15.57731,0.04404M552.72137,639.09116c0.1556,0.15266 0.31413,0.45798 0.35229,0.67523c0.0411,0.21431 0.05578,3.39084 0.03817,7.05471l-0.03523,6.66131l-0.32587,0.32587l-0.32587,0.32587h-7.05177h-7.05471l-0.28184,-0.32881l-0.28477,-0.32881v-7.0459v-7.0459l0.28771,-0.28771l0.28771,-0.28771h7.05764h7.05764l0.2789,0.28184M581.3835,639.09703l0.28771,0.28771v7.0459v7.0459l-0.28477,0.32881l-0.28184,0.32881h-7.05471h-7.05177l-0.32587,-0.32587l-0.32587,-0.32587l-0.03523,-6.66131c-0.01761,-3.66387 -0.00294,-6.84039 0.03817,-7.05471c0.03817,-0.21725 0.1967,-0.52257 0.35229,-0.67523l0.2789,-0.28184h7.05764h7.05764l0.28771,0.28771M543.68207,643.25118c-0.47853,0.1644 -0.95707,0.52551 -1.2389,0.93358c-0.27596,0.4022 -0.28771,0.49908 -0.28771,2.25762c0,1.7967 0.00587,1.84661 0.31413,2.3134c0.53138,0.80147 1.05688,0.97468 2.95634,0.97468c2.04331,0 2.51891,-0.1967 3.05616,-1.25652c0.14973,-0.29358 0.19083,-0.73395 0.19083,-1.98753c0,-1.90239 -0.17321,-2.4279 -0.97468,-2.95928c-0.45505,-0.29945 -0.54899,-0.31413 -2.12845,-0.33468c-0.9101,-0.01468 -1.75854,0.01174 -1.88771,0.05872M571.94493,643.4009c-0.29358,0.14679 -0.64294,0.45798 -0.82202,0.73101c-0.30826,0.46385 -0.31413,0.51083 -0.31413,2.37799v1.90826l0.35523,0.43743c0.62532,0.77505 0.94826,0.87487 2.80662,0.87487c1.92881,0 2.44845,-0.17028 2.98276,-0.97468c0.30826,-0.46679 0.31413,-0.5167 0.31413,-2.32515c0,-2.0668 -0.01761,-2.12258 -0.92771,-2.85946l-0.4433,-0.35817l-1.72331,-0.03523c-1.57652,-0.03229 -1.76147,-0.01174 -2.22827,0.22312M537.28498,663.18813c-1.74973,0.46973 -3.35854,2.09615 -3.81359,3.85763c-0.1556,0.59597 -0.18202,1.79964 -0.18202,7.95012c0,4.92626 0.0411,7.45104 0.13211,7.87379c0.42275,1.98753 2.20184,3.76662 4.18937,4.18937c0.42275,0.09101 2.94753,0.13211 7.87086,0.13211c8.0793,0 8.14388,-0.00587 9.40334,-0.81615c0.69285,-0.4433 1.68808,-1.49138 2.00221,-2.1079c0.60477,-1.18312 0.60477,-1.17432 0.56661,-9.47967l-0.03229,-7.73581l-0.43156,-0.88074c-0.73982,-1.50606 -2.0345,-2.5923 -3.56405,-2.99157c-1.00698,-0.26129 -15.16336,-0.25248 -16.14098,0.00881M563.09352,663.24098c-0.2378,0.12624 -0.58129,0.42275 -0.76331,0.66055l-0.32881,0.43156v1.89652c0,1.86129 0.00587,1.90533 0.31413,2.37212c0.52551,0.7956 1.06276,0.97468 2.89763,0.97468c1.7879,0 2.10496,-0.09101 2.74203,-0.7956c0.53431,-0.59597 0.59303,-0.89248 0.54312,-2.80662c-0.03523,-1.42386 -0.05872,-1.55597 -0.35229,-1.99927c-0.53431,-0.80734 -1.05395,-0.97468 -2.98276,-0.96881c-1.38863,0.00294 -1.69982,0.03817 -2.06973,0.23486M580.70827,663.24098c-0.2378,0.12624 -0.58129,0.42275 -0.76331,0.66055l-0.32881,0.43156v1.89652c0,1.86129 0.00587,1.90533 0.31413,2.37212c0.52551,0.7956 1.06276,0.97468 2.89763,0.97468c1.7879,0 2.10496,-0.09101 2.74203,-0.7956c0.53431,-0.59597 0.59303,-0.89248 0.54312,-2.80662c-0.03523,-1.42386 -0.05872,-1.55597 -0.35229,-1.99927c-0.53431,-0.80734 -1.05395,-0.97468 -2.98276,-0.96881c-1.38863,0.00294 -1.69982,0.03817 -2.06973,0.23486M552.75073,667.7298l0.32587,0.32587l0.03229,6.80223c0.02936,5.82461 0.00881,6.86388 -0.14092,7.22498c-0.32294,0.77211 -0.23486,0.76331 -7.49214,0.76331c-4.10424,0 -6.6525,-0.04697 -6.92847,-0.1233c-0.8367,-0.23193 -0.7956,0.15266 -0.7956,-7.63893c0,-6.84626 0.00587,-7.00773 0.2378,-7.30425c0.12917,-0.1644 0.35523,-0.32587 0.49908,-0.35229c0.14385,-0.02936 3.33799,-0.04697 7.09874,-0.03817l6.83746,0.01468l0.32587,0.32587M543.29161,672.06009c-0.29945,0.14679 -0.64,0.44918 -0.82202,0.72514c-0.29358,0.44037 -0.31707,0.57542 -0.35229,1.99634c-0.04991,1.94937 0.00294,2.21652 0.58716,2.84772c0.63413,0.68991 1.00698,0.78092 2.92405,0.73395c1.50019,-0.03523 1.62349,-0.05578 2.06973,-0.35229c0.80147,-0.53138 0.97468,-1.05688 0.97468,-2.95634c0,-2.04331 -0.1967,-2.51891 -1.25652,-3.05616c-0.29358,-0.14973 -0.73395,-0.19083 -1.99634,-0.19083c-1.42092,0 -1.68221,0.03229 -2.12845,0.25248M571.9009,672.04835c-0.2378,0.12624 -0.58129,0.42275 -0.76331,0.66055l-0.32881,0.43156v1.89652c0,1.86129 0.00587,1.90533 0.31413,2.37212c0.52551,0.7956 1.06276,0.97468 2.89763,0.97468c1.7879,0 2.10496,-0.09101 2.74203,-0.7956c0.53431,-0.59597 0.59303,-0.89248 0.54312,-2.80662c-0.03523,-1.42386 -0.05872,-1.55597 -0.35229,-1.99927c-0.53431,-0.80734 -1.05395,-0.97468 -2.98276,-0.96881c-1.38863,0.00294 -1.69982,0.03817 -2.06973,0.23486M563.09352,680.85572c-0.2378,0.12624 -0.58129,0.42275 -0.76331,0.66055l-0.32881,0.43156v1.89652c0,1.86129 0.00587,1.90533 0.31413,2.37212c0.52551,0.7956 1.06276,0.97468 2.89763,0.97468c1.7879,0 2.10496,-0.09101 2.74203,-0.7956c0.53431,-0.59597 0.59303,-0.89248 0.54312,-2.80662c-0.03523,-1.42386 -0.05872,-1.55597 -0.35229,-1.99927c-0.53431,-0.80734 -1.05395,-0.97468 -2.98276,-0.96881c-1.38863,0.00294 -1.69982,0.03817 -2.06973,0.23486M580.70827,680.85572c-0.2378,0.12624 -0.58129,0.42275 -0.76331,0.66055l-0.32881,0.43156v1.89652c0,1.86129 0.00587,1.90533 0.31413,2.37212c0.52551,0.7956 1.06276,0.97468 2.89763,0.97468c1.7879,0 2.10496,-0.09101 2.74203,-0.7956c0.53431,-0.59597 0.59303,-0.89248 0.54312,-2.80662c-0.03523,-1.42386 -0.05872,-1.55597 -0.35229,-1.99927c-0.53431,-0.80734 -1.05395,-0.97468 -2.98276,-0.96881c-1.38863,0.00294 -1.69982,0.03817 -2.06973,0.23486" className="SFSymbolsPreviewWireframe"/></g>
 </g>
</svg>