<?xml version="1.0" encoding="UTF-8"?><!--Generator: https://SymbolKit.app--><!DOCTYPE svg PUBLIC "-//W3C//DTD SVG 1.1//EN" "http://www.w3.org/Graphics/SVG/1.1/DTD/svg11.dtd"><svg xmlns="http://www.w3.org/2000/svg" xmlns:xlink="http://www.w3.org/1999/xlink" version="1.1" viewBox="0 0 3300 2200">
 <!--glyph: "100092", point size: 100.0, font version: "20.0d10e1", template writer version: "138.0.0"-->
 <style>.SFSymbolsPreviewWireframe {fill:none;opacity:1.0;stroke:black;stroke-width:0.5}
</style>
 <g id="Notes">
  <rect height="2200" id="artboard" style="fill:white;opacity:1" width="3300" x="0" y="0"/>
  <line style="fill:none;stroke:black;opacity:1;stroke-width:0.5;" x1="263" x2="3036" y1="292" y2="292"/>
  <text style="stroke:none;fill:black;font-family:sans-serif;font-size:13;font-weight:bold;" transform="matrix(1 0 0 1 263 322)">Weight/Scale Variations</text>
  <text style="stroke:none;fill:black;font-family:sans-serif;font-size:13;text-anchor:middle;" transform="matrix(1 0 0 1 559.711 322)">Ultralight</text>
  <text style="stroke:none;fill:black;font-family:sans-serif;font-size:13;text-anchor:middle;" transform="matrix(1 0 0 1 856.422 322)">Thin</text>
  <text style="stroke:none;fill:black;font-family:sans-serif;font-size:13;text-anchor:middle;" transform="matrix(1 0 0 1 1153.13 322)">Light</text>
  <text style="stroke:none;fill:black;font-family:sans-serif;font-size:13;text-anchor:middle;" transform="matrix(1 0 0 1 1449.84 322)">Regular</text>
  <text style="stroke:none;fill:black;font-family:sans-serif;font-size:13;text-anchor:middle;" transform="matrix(1 0 0 1 1746.56 322)">Medium</text>
  <text style="stroke:none;fill:black;font-family:sans-serif;font-size:13;text-anchor:middle;" transform="matrix(1 0 0 1 2043.27 322)">Semibold</text>
  <text style="stroke:none;fill:black;font-family:sans-serif;font-size:13;text-anchor:middle;" transform="matrix(1 0 0 1 2339.98 322)">Bold</text>
  <text style="stroke:none;fill:black;font-family:sans-serif;font-size:13;text-anchor:middle;" transform="matrix(1 0 0 1 2636.69 322)">Heavy</text>
  <text style="stroke:none;fill:black;font-family:sans-serif;font-size:13;text-anchor:middle;" transform="matrix(1 0 0 1 2933.4 322)">Black</text>
  <line style="fill:none;stroke:black;opacity:1;stroke-width:0.5;" x1="263" x2="3036" y1="1903" y2="1903"/>
  <g transform="matrix(0.2 0 0 0.2 263 1933)">
   <path d="m46.2402 4.15039c21.7773 0 39.4531-17.627 39.4531-39.4043s-17.6758-39.4043-39.4531-39.4043c-21.7285 0-39.4043 17.627-39.4043 39.4043s17.6758 39.4043 39.4043 39.4043Zm0-7.42188c-17.6758 0-31.9336-14.3066-31.9336-31.9824s14.2578-31.9824 31.9336-31.9824 31.9824 14.3066 31.9824 31.9824-14.3066 31.9824-31.9824 31.9824Zm-17.9688-31.9824c0 2.14844 1.51367 3.61328 3.75977 3.61328h10.498v10.5957c0 2.19727 1.46484 3.71094 3.61328 3.71094 2.24609 0 3.71094-1.51367 3.71094-3.71094v-10.5957h10.5957c2.19727 0 3.71094-1.46484 3.71094-3.61328 0-2.19727-1.51367-3.71094-3.71094-3.71094h-10.5957v-10.5469c0-2.24609-1.46484-3.75977-3.71094-3.75977-2.14844 0-3.61328 1.51367-3.61328 3.75977v10.5469h-10.498c-2.24609 0-3.75977 1.51367-3.75977 3.71094Z"/>
  </g>
  <g transform="matrix(0.2 0 0 0.2 281.506 1933)">
   <path d="m58.5449 14.5508c27.4902 0 49.8047-22.3145 49.8047-49.8047s-22.3145-49.8047-49.8047-49.8047-49.8047 22.3145-49.8047 49.8047 22.3145 49.8047 49.8047 49.8047Zm0-8.30078c-22.9492 0-41.5039-18.5547-41.5039-41.5039s18.5547-41.5039 41.5039-41.5039 41.5039 18.5547 41.5039 41.5039-18.5547 41.5039-41.5039 41.5039Zm-22.6562-41.5039c0 2.39258 1.66016 4.00391 4.15039 4.00391h14.3555v14.4043c0 2.44141 1.66016 4.15039 4.05273 4.15039 2.44141 0 4.15039-1.66016 4.15039-4.15039v-14.4043h14.4043c2.44141 0 4.15039-1.61133 4.15039-4.00391 0-2.44141-1.70898-4.15039-4.15039-4.15039h-14.4043v-14.3555c0-2.49023-1.70898-4.19922-4.15039-4.19922-2.39258 0-4.05273 1.70898-4.05273 4.19922v14.3555h-14.3555c-2.49023 0-4.15039 1.70898-4.15039 4.15039Z"/>
  </g>
  <g transform="matrix(0.2 0 0 0.2 304.924 1933)">
   <path d="m74.8535 28.3203c35.1074 0 63.623-28.4668 63.623-63.5742s-28.5156-63.623-63.623-63.623-63.5742 28.5156-63.5742 63.623 28.4668 63.5742 63.5742 63.5742Zm0-9.08203c-30.127 0-54.4922-24.3652-54.4922-54.4922s24.3652-54.4922 54.4922-54.4922 54.4922 24.3652 54.4922 54.4922-24.3652 54.4922-54.4922 54.4922Zm-28.8574-54.4922c0 2.58789 1.85547 4.39453 4.58984 4.39453h19.7266v19.7754c0 2.68555 1.85547 4.58984 4.44336 4.58984 2.68555 0 4.54102-1.85547 4.54102-4.58984v-19.7754h19.7754c2.68555 0 4.58984-1.80664 4.58984-4.39453 0-2.73438-1.85547-4.58984-4.58984-4.58984h-19.7754v-19.7266c0-2.73438-1.85547-4.63867-4.54102-4.63867-2.58789 0-4.44336 1.9043-4.44336 4.63867v19.7266h-19.7266c-2.73438 0-4.58984 1.85547-4.58984 4.58984Z"/>
  </g>
  <text style="stroke:none;fill:black;font-family:sans-serif;font-size:13;font-weight:bold;" transform="matrix(1 0 0 1 263 1953)">Design Variations</text>
  <text style="stroke:none;fill:black;font-family:sans-serif;font-size:13;" transform="matrix(1 0 0 1 263 1971)">Symbols are supported in up to nine weights and three scales.</text>
  <text style="stroke:none;fill:black;font-family:sans-serif;font-size:13;" transform="matrix(1 0 0 1 263 1989)">For optimal layout with text and other symbols, vertically align</text>
  <text style="stroke:none;fill:black;font-family:sans-serif;font-size:13;" transform="matrix(1 0 0 1 263 2007)">symbols with the adjacent text.</text>
  <line style="fill:none;stroke:#00AEEF;stroke-width:0.5;opacity:1.0;" x1="776" x2="776" y1="1919" y2="1933"/>
  <g transform="matrix(0.2 0 0 0.2 776 1933)">
   <path d="m16.5527 0.78125c2.58789 0 3.85742-0.976562 4.78516-3.71094l6.29883-17.2363h28.8086l6.29883 17.2363c0.927734 2.73438 2.19727 3.71094 4.73633 3.71094 2.58789 0 4.24805-1.5625 4.24805-4.00391 0-0.830078-0.146484-1.61133-0.537109-2.63672l-22.9004-60.9863c-1.12305-2.97852-3.125-4.49219-6.25-4.49219-3.02734 0-5.07812 1.46484-6.15234 4.44336l-22.9004 61.084c-0.390625 1.02539-0.537109 1.80664-0.537109 2.63672 0 2.44141 1.5625 3.95508 4.10156 3.95508Zm13.4766-28.3691 11.8652-32.8613h0.244141l11.8652 32.8613Z"/>
  </g>
  <line style="fill:none;stroke:#00AEEF;stroke-width:0.5;opacity:1.0;" x1="792.836" x2="792.836" y1="1919" y2="1933"/>
  <text style="stroke:none;fill:black;font-family:sans-serif;font-size:13;font-weight:bold;" transform="matrix(1 0 0 1 776 1953)">Margins</text>
  <text style="stroke:none;fill:black;font-family:sans-serif;font-size:13;" transform="matrix(1 0 0 1 776 1971)">Leading and trailing margins on the left and right side of each symbol</text>
  <text style="stroke:none;fill:black;font-family:sans-serif;font-size:13;" transform="matrix(1 0 0 1 776 1989)">can be adjusted by modifying the x-location of the margin guidelines.</text>
  <text style="stroke:none;fill:black;font-family:sans-serif;font-size:13;" transform="matrix(1 0 0 1 776 2007)">Modifications are automatically applied proportionally to all</text>
  <text style="stroke:none;fill:black;font-family:sans-serif;font-size:13;" transform="matrix(1 0 0 1 776 2025)">scales and weights.</text>
  <g transform="matrix(0.2 0 0 0.2 1289 1933)">
   <path d="m14.209 9.32617 8.49609 8.54492c4.29688 4.3457 9.22852 4.05273 13.8672-1.07422l53.4668-58.9355-4.83398-4.88281-53.0762 58.3984c-1.75781 2.00195-3.41797 2.49023-5.76172 0.146484l-5.85938-5.81055c-2.34375-2.29492-1.80664-4.00391 0.195312-5.81055l57.373-54.0039-4.88281-4.83398-57.959 54.4434c-4.93164 4.58984-5.32227 9.47266-1.02539 13.8184Zm32.0801-90.9668c-2.09961 2.05078-2.24609 4.93164-1.07422 6.88477 1.17188 1.80664 3.4668 2.97852 6.68945 2.14844 7.32422-1.70898 14.9414-2.00195 22.0703 2.68555l-2.92969 7.27539c-1.70898 4.15039-0.830078 7.08008 1.85547 9.81445l11.4746 11.5723c2.44141 2.44141 4.49219 2.53906 7.32422 2.05078l5.32227-0.976562 3.32031 3.36914-0.195312 2.7832c-0.195312 2.49023 0.439453 4.39453 2.88086 6.78711l3.80859 3.71094c2.39258 2.39258 5.46875 2.53906 7.8125 0.195312l14.5508-14.5996c2.34375-2.34375 2.24609-5.32227-0.146484-7.71484l-3.85742-3.80859c-2.39258-2.39258-4.24805-3.17383-6.64062-2.97852l-2.88086 0.244141-3.22266-3.17383 1.2207-5.61523c0.634766-2.83203-0.146484-5.0293-3.07617-7.95898l-10.9863-10.9375c-16.6992-16.6016-38.8672-16.2109-53.3203-1.75781Zm7.4707 1.85547c12.1582-8.88672 28.6133-7.37305 39.7461 3.75977l12.1582 12.0605c1.17188 1.17188 1.36719 2.09961 1.02539 3.80859l-1.61133 7.42188 7.51953 7.42188 4.93164-0.292969c1.26953-0.0488281 1.66016 0.0488281 2.63672 1.02539l2.88086 2.88086-12.207 12.207-2.88086-2.88086c-0.976562-0.976562-1.12305-1.36719-1.07422-2.68555l0.341797-4.88281-7.4707-7.42188-7.61719 1.26953c-1.61133 0.341797-2.34375 0.195312-3.56445-0.976562l-10.0098-10.0098c-1.26953-1.17188-1.41602-2.00195-0.634766-3.85742l4.39453-10.4492c-7.8125-7.27539-17.9688-10.4004-28.125-7.42188-0.78125 0.195312-1.07422-0.439453-0.439453-0.976562Z"/>
  </g>
  <text style="stroke:none;fill:black;font-family:sans-serif;font-size:13;font-weight:bold;" transform="matrix(1 0 0 1 1289 1953)">Exporting</text>
  <text style="stroke:none;fill:black;font-family:sans-serif;font-size:13;" transform="matrix(1 0 0 1 1289 1971)">Symbols should be outlined when exporting to ensure the</text>
  <text style="stroke:none;fill:black;font-family:sans-serif;font-size:13;" transform="matrix(1 0 0 1 1289 1989)">design is preserved when submitting to Xcode.</text>
  <text id="template-version" style="stroke:none;fill:black;font-family:sans-serif;font-size:13;text-anchor:end;" transform="matrix(1 0 0 1 3036 1933)">Template v.6.0</text>
  <text style="stroke:none;fill:black;font-family:sans-serif;font-size:13;text-anchor:end;" transform="matrix(1 0 0 1 3036 1951)">Requires Xcode 16 or greater</text>
  <text id="descriptive-name" style="stroke:none;fill:black;font-family:sans-serif;font-size:13;text-anchor:end;" transform="matrix(1 0 0 1 3036 1969)">Generated from square</text>
  <text style="stroke:none;fill:black;font-family:sans-serif;font-size:13;text-anchor:end;" transform="matrix(1 0 0 1 3036 1987)">Typeset at 100.0 points</text>
  <text style="stroke:none;fill:black;font-family:sans-serif;font-size:13;" transform="matrix(1 0 0 1 263 726)">Small</text>
  <text style="stroke:none;fill:black;font-family:sans-serif;font-size:13;" transform="matrix(1 0 0 1 263 1156)">Medium</text>
  <text style="stroke:none;fill:black;font-family:sans-serif;font-size:13;" transform="matrix(1 0 0 1 263 1586)">Large</text>
 </g>
 <g id="Guides">
  <g id="H-reference" style="fill:#27AAE1;stroke:none;" transform="matrix(1 0 0 1 339 696)">
   <path d="M0.993654 0L3.63775 0L29.3281-67.1323L30.0303-67.1323L30.0303-70.459L28.1226-70.459ZM11.6885-24.4799L46.9815-24.4799L46.2315-26.7285L12.4385-26.7285ZM55.1196 0L57.7637 0L30.6382-70.459L29.4326-70.459L29.4326-67.1323Z"/>
  </g>
  <line id="Baseline-S" style="fill:none;stroke:#27AAE1;opacity:1;stroke-width:0.5;" x1="263" x2="3036" y1="696" y2="696"/>
  <line id="Capline-S" style="fill:none;stroke:#27AAE1;opacity:1;stroke-width:0.5;" x1="263" x2="3036" y1="625.541" y2="625.541"/>
  <g id="H-reference" style="fill:#27AAE1;stroke:none;" transform="matrix(1 0 0 1 339 1126)">
   <path d="M0.993654 0L3.63775 0L29.3281-67.1323L30.0303-67.1323L30.0303-70.459L28.1226-70.459ZM11.6885-24.4799L46.9815-24.4799L46.2315-26.7285L12.4385-26.7285ZM55.1196 0L57.7637 0L30.6382-70.459L29.4326-70.459L29.4326-67.1323Z"/>
  </g>
  <line id="Baseline-M" style="fill:none;stroke:#27AAE1;opacity:1;stroke-width:0.5;" x1="263" x2="3036" y1="1126" y2="1126"/>
  <line id="Capline-M" style="fill:none;stroke:#27AAE1;opacity:1;stroke-width:0.5;" x1="263" x2="3036" y1="1055.54" y2="1055.54"/>
  <g id="H-reference" style="fill:#27AAE1;stroke:none;" transform="matrix(1 0 0 1 339 1556)">
   <path d="M0.993654 0L3.63775 0L29.3281-67.1323L30.0303-67.1323L30.0303-70.459L28.1226-70.459ZM11.6885-24.4799L46.9815-24.4799L46.2315-26.7285L12.4385-26.7285ZM55.1196 0L57.7637 0L30.6382-70.459L29.4326-70.459L29.4326-67.1323Z"/>
  </g>
  <line id="Baseline-L" style="fill:none;stroke:#27AAE1;opacity:1;stroke-width:0.5;" x1="263" x2="3036" y1="1556" y2="1556"/>
  <line id="Capline-L" style="fill:none;stroke:#27AAE1;opacity:1;stroke-width:0.5;" x1="263" x2="3036" y1="1485.54" y2="1485.54"/>
  <line id="right-margin-Black-S" style="fill:none;stroke:#00AEEF;stroke-width:0.5;opacity:1.0;" x1="2981.3" x2="2981.3" y1="600.785" y2="720.121"/>
  <line id="left-margin-Black-S" style="fill:none;stroke:#00AEEF;stroke-width:0.5;opacity:1.0;" x1="2885.5" x2="2885.5" y1="600.785" y2="720.121"/>
  <line id="right-margin-Regular-S" style="fill:none;stroke:#00AEEF;stroke-width:0.5;opacity:1.0;" x1="1495.18" x2="1495.18" y1="600.785" y2="720.121"/>
  <line id="left-margin-Regular-S" style="fill:none;stroke:#00AEEF;stroke-width:0.5;opacity:1.0;" x1="1404.51" x2="1404.51" y1="600.785" y2="720.121"/>
  <line id="right-margin-Ultralight-S" style="fill:none;stroke:#00AEEF;stroke-width:0.5;opacity:1.0;" x1="603.073" x2="603.073" y1="600.785" y2="720.121"/>
  <line id="left-margin-Ultralight-S" style="fill:none;stroke:#00AEEF;stroke-width:0.5;opacity:1.0;" x1="516.35" x2="516.35" y1="600.785" y2="720.121"/>
 </g>
 <g id="Symbols">
  <g id="Black-S"><path d="M2957.48021,630.15196c-9.05692,0.90716 -17.40924,4.35084 -24.71936,10.196c-1.45028,1.16257 -5.22864,4.93213 -6.38241,6.37067l-0.85138,1.06569l-0.78679,-0.10862c-1.31817,-0.17908 -4.95268,-0.02936 -6.30608,0.26129c-8.8015,1.89652 -15.11639,9.08627 -15.79162,17.98172c-0.16147,2.12258 0.11743,2.89763 1.2301,3.40845c0.43743,0.20257 0.89542,0.21725 6.75526,0.22018l6.28553,0.00294l0.99523,1.19487c1.27707,1.52955 3.96625,4.21873 5.4958,5.4958l1.19487,0.99523l0.00294,6.28553c0.00294,5.85984 0.01761,6.31782 0.22018,6.75526c0.51083,1.10679 1.28881,1.39156 3.38497,1.2301c3.52882,-0.27009 6.73177,-1.37689 9.64114,-3.32919c5.02607,-3.37616 8.13801,-8.69875 8.71343,-14.90208c0.11743,-1.28 0.00294,-4.25396 -0.17615,-4.5446c-0.03229,-0.05284 0.13798,-0.24367 0.37872,-0.42275c1.78496,-1.33578 5.38424,-4.88222 7.03709,-6.92847c6.54681,-8.10865 10.24297,-18.10796 10.3927,-28.11607c0.02055,-1.37395 -0.01174,-1.77028 -0.1644,-2.05505c-0.20844,-0.3934 -0.7222,-0.90129 -1.10973,-1.10092c-0.33762,-0.17321 -3.51708,-0.14679 -5.44002,0.04404M2959.65856,635.64188c-0.14385,2.07854 -0.57248,4.61506 -1.189,7.05177c-1.14496,4.51525 -3.51708,9.61765 -6.31782,13.58684c-2.60111,3.68442 -6.53214,7.57434 -10.34866,10.2371c-4.04846,2.82717 -8.95416,5.04075 -13.76592,6.2092l-1.55597,0.37872l-0.78973,-0.69285c-1.01285,-0.88661 -3.0679,-2.94166 -3.95451,-3.95157l-0.68698,-0.78973l0.37578,-1.5501c1.17725,-4.85286 3.36148,-9.66462 6.27966,-13.85106c2.66276,-3.81653 6.43525,-7.62719 10.16371,-10.26646c2.98276,-2.11377 7.25434,-4.30093 10.68628,-5.46938c3.26166,-1.11266 7.68003,-1.98166 10.55417,-2.0756l0.6312,-0.02055l-0.0822,1.20367M2940.52601,645.54431c-1.05395,0.25835 -2.04037,0.84257 -2.95047,1.75267c-1.33872,1.33872 -1.93762,2.77139 -1.93762,4.63855c0,1.86716 0.5989,3.29983 1.93762,4.63855c1.33872,1.33872 2.77139,1.93762 4.63855,1.93762c1.86716,0 3.29983,-0.5989 4.63855,-1.93762c1.33872,-1.33872 1.93762,-2.77139 1.93762,-4.63855c0,-1.86716 -0.5989,-3.29983 -1.93762,-4.63855c-0.93065,-0.93065 -1.89652,-1.49432 -3.00625,-1.7556c-0.92771,-0.22018 -2.40441,-0.21725 -3.32038,0.00294M2943.27098,650.00084c0.70459,0.3611 1.09505,1.05395 1.09505,1.93469c0,1.05982 -0.59303,1.85248 -1.58239,2.11964c-1.54423,0.41395 -2.97396,-0.90129 -2.72148,-2.50717c0.22312,-1.42679 1.88478,-2.22827 3.20882,-1.54716M2922.56484,652.0236c-1.55891,2.68038 -2.15193,3.84589 -3.11194,6.0947c-0.70459,1.65872 -1.69689,4.5446 -2.11083,6.14755l-0.22899,0.88074l-4.96149,0.02936l-4.95855,0.03229l0.0822,-0.67817c0.19376,-1.54129 1.25358,-4.13359 2.38093,-5.81287c2.29872,-3.43194 6.35012,-6.01544 10.24591,-6.53507c0.54899,-0.07046 1.13028,-0.14973 1.29175,-0.17321c0.57542,-0.0822 1.42092,-0.07339 1.37101,0.01468M2942.15831,672.63285c-0.42275,5.41653 -3.24405,9.9582 -7.79159,12.52996c-1.38863,0.78679 -3.49946,1.55303 -4.75892,1.72331l-0.54606,0.07633v-5.00846c0,-4.51231 0.01761,-5.00552 0.18789,-5.00552c0.63707,0 5.01727,-1.47377 7.19269,-2.42203c1.55597,-0.67523 4.18644,-2.01982 5.14057,-2.6246c0.30826,-0.1967 0.58129,-0.35523 0.61064,-0.35523c0.02936,0 0.01174,0.49028 -0.03523,1.08624M2911.68187,672.27175c-0.57248,0.16147 -1.46496,0.8778 -2.68038,2.149c-2.03157,2.12551 -3.32625,4.63268 -3.97506,7.69471c-0.28771,1.37101 -0.29064,4.46827 -0.00587,5.41653c0.26422,0.87193 0.86899,1.43267 1.74386,1.62056c1.57946,0.34055 4.13066,0.26129 5.91562,-0.17908c2.7479,-0.6811 5.08479,-1.94643 7.04883,-3.82534c1.94349,-1.85836 2.46606,-2.77432 2.18129,-3.81946c-0.17321,-0.63707 -0.64294,-1.18606 -1.2389,-1.45909c-1.10973,-0.50202 -1.81725,-0.22018 -3.19414,1.27707c-0.57248,0.62239 -1.35634,1.36221 -1.74386,1.64991c-1.56184,1.15083 -3.73433,1.97285 -5.56626,2.10496l-0.98643,0.07046l0.06752,-0.93065c0.13798,-1.85836 0.90422,-3.9457 2.0257,-5.51635c0.28477,-0.4022 1.06863,-1.2389 1.73799,-1.85836c1.25945,-1.16844 1.48845,-1.53835 1.48845,-2.40735c0,-0.81615 -0.76918,-1.76735 -1.61762,-2.00221c-0.51376,-0.14385 -0.65175,-0.14092 -1.20074,0.01468" className="SFSymbolsPreviewWireframe"/></g>
  <g id="Regular-S"><path d="M1473.92516,630.15196c-9.05692,0.90716 -17.40924,4.35084 -24.71936,10.196c-1.45028,1.16257 -5.22864,4.93213 -6.38241,6.37067l-0.85138,1.06569l-0.78679,-0.10862c-1.31817,-0.17908 -4.95268,-0.02936 -6.30608,0.26129c-8.8015,1.89652 -15.11639,9.08627 -15.79162,17.98172c-0.16147,2.12258 0.11743,2.89763 1.2301,3.40845c0.43743,0.20257 0.89542,0.21725 6.75526,0.22018l6.28553,0.00294l0.99523,1.19487c1.27707,1.52955 3.96625,4.21873 5.4958,5.4958l1.19487,0.99523l0.00294,6.28553c0.00294,5.85984 0.01761,6.31782 0.22018,6.75526c0.51083,1.10679 1.28881,1.39156 3.38497,1.2301c3.52882,-0.27009 6.73177,-1.37689 9.64114,-3.32919c5.02607,-3.37616 8.13801,-8.69875 8.71343,-14.90208c0.11743,-1.28 0.00294,-4.25396 -0.17615,-4.5446c-0.03229,-0.05284 0.13798,-0.24367 0.37872,-0.42275c1.78496,-1.33578 5.38424,-4.88222 7.03709,-6.92847c6.54681,-8.10865 10.24297,-18.10796 10.3927,-28.11607c0.02055,-1.37395 -0.01174,-1.77028 -0.1644,-2.05505c-0.20844,-0.3934 -0.7222,-0.90129 -1.10973,-1.10092c-0.33762,-0.17321 -3.51708,-0.14679 -5.44002,0.04404M1476.10351,635.64188c-0.14385,2.07854 -0.57248,4.61506 -1.189,7.05177c-1.14496,4.51525 -3.51708,9.61765 -6.31782,13.58684c-2.60111,3.68442 -6.53214,7.57434 -10.34866,10.2371c-4.04846,2.82717 -8.95416,5.04075 -13.76592,6.2092l-1.55597,0.37872l-0.78973,-0.69285c-1.01285,-0.88661 -3.0679,-2.94166 -3.95451,-3.95157l-0.68698,-0.78973l0.37578,-1.5501c1.17725,-4.85286 3.36148,-9.66462 6.27966,-13.85106c2.66276,-3.81653 6.43525,-7.62719 10.16371,-10.26646c2.98276,-2.11377 7.25434,-4.30093 10.68628,-5.46938c3.26166,-1.11266 7.68003,-1.98166 10.55417,-2.0756l0.6312,-0.02055l-0.0822,1.20367M1456.97096,645.54431c-1.05395,0.25835 -2.04037,0.84257 -2.95047,1.75267c-1.33872,1.33872 -1.93762,2.77139 -1.93762,4.63855c0,1.86716 0.5989,3.29983 1.93762,4.63855c1.33872,1.33872 2.77139,1.93762 4.63855,1.93762c1.86716,0 3.29983,-0.5989 4.63855,-1.93762c1.33872,-1.33872 1.93762,-2.77139 1.93762,-4.63855c0,-1.86716 -0.5989,-3.29983 -1.93762,-4.63855c-0.93065,-0.93065 -1.89652,-1.49432 -3.00625,-1.7556c-0.92771,-0.22018 -2.40441,-0.21725 -3.32038,0.00294M1459.71593,650.00084c0.70459,0.3611 1.09505,1.05395 1.09505,1.93469c0,1.05982 -0.59303,1.85248 -1.58239,2.11964c-1.54423,0.41395 -2.97396,-0.90129 -2.72148,-2.50717c0.22312,-1.42679 1.88478,-2.22827 3.20882,-1.54716M1439.00979,652.0236c-1.55891,2.68038 -2.15193,3.84589 -3.11194,6.0947c-0.70459,1.65872 -1.69689,4.5446 -2.11083,6.14755l-0.22899,0.88074l-4.96149,0.02936l-4.95855,0.03229l0.0822,-0.67817c0.19376,-1.54129 1.25358,-4.13359 2.38093,-5.81287c2.29872,-3.43194 6.35012,-6.01544 10.24591,-6.53507c0.54899,-0.07046 1.13028,-0.14973 1.29175,-0.17321c0.57542,-0.0822 1.42092,-0.07339 1.37101,0.01468M1458.60326,672.63285c-0.42275,5.41653 -3.24405,9.9582 -7.79159,12.52996c-1.38863,0.78679 -3.49946,1.55303 -4.75892,1.72331l-0.54606,0.07633v-5.00846c0,-4.51231 0.01761,-5.00552 0.18789,-5.00552c0.63707,0 5.01727,-1.47377 7.19269,-2.42203c1.55597,-0.67523 4.18644,-2.01982 5.14057,-2.6246c0.30826,-0.1967 0.58129,-0.35523 0.61064,-0.35523c0.02936,0 0.01174,0.49028 -0.03523,1.08624M1428.12682,672.27175c-0.57248,0.16147 -1.46496,0.8778 -2.68038,2.149c-2.03157,2.12551 -3.32625,4.63268 -3.97506,7.69471c-0.28771,1.37101 -0.29064,4.46827 -0.00587,5.41653c0.26422,0.87193 0.86899,1.43267 1.74386,1.62056c1.57946,0.34055 4.13066,0.26129 5.91562,-0.17908c2.7479,-0.6811 5.08479,-1.94643 7.04883,-3.82534c1.94349,-1.85836 2.46606,-2.77432 2.18129,-3.81946c-0.17321,-0.63707 -0.64294,-1.18606 -1.2389,-1.45909c-1.10973,-0.50202 -1.81725,-0.22018 -3.19414,1.27707c-0.57248,0.62239 -1.35634,1.36221 -1.74386,1.64991c-1.56184,1.15083 -3.73433,1.97285 -5.56626,2.10496l-0.98643,0.07046l0.06752,-0.93065c0.13798,-1.85836 0.90422,-3.9457 2.0257,-5.51635c0.28477,-0.4022 1.06863,-1.2389 1.73799,-1.85836c1.25945,-1.16844 1.48845,-1.53835 1.48845,-2.40735c0,-0.81615 -0.76918,-1.76735 -1.61762,-2.00221c-0.51376,-0.14385 -0.65175,-0.14092 -1.20074,0.01468" className="SFSymbolsPreviewWireframe"/></g>
  <g id="Ultralight-S"><path d="M583.79157,630.15196c-9.05692,0.90716 -17.40924,4.35084 -24.71936,10.196c-1.45028,1.16257 -5.22864,4.93213 -6.38241,6.37067l-0.85138,1.06569l-0.78679,-0.10862c-1.31817,-0.17908 -4.95268,-0.02936 -6.30608,0.26129c-8.8015,1.89652 -15.11639,9.08627 -15.79162,17.98172c-0.16147,2.12258 0.11743,2.89763 1.2301,3.40845c0.43743,0.20257 0.89542,0.21725 6.75526,0.22018l6.28553,0.00294l0.99523,1.19487c1.27707,1.52955 3.96625,4.21873 5.4958,5.4958l1.19487,0.99523l0.00294,6.28553c0.00294,5.85984 0.01761,6.31782 0.22018,6.75526c0.51083,1.10679 1.28881,1.39156 3.38497,1.2301c3.52882,-0.27009 6.73177,-1.37689 9.64114,-3.32919c5.02607,-3.37616 8.13801,-8.69875 8.71343,-14.90208c0.11743,-1.28 0.00294,-4.25396 -0.17615,-4.5446c-0.03229,-0.05284 0.13798,-0.24367 0.37872,-0.42275c1.78496,-1.33578 5.38424,-4.88222 7.03709,-6.92847c6.54681,-8.10865 10.24297,-18.10796 10.3927,-28.11607c0.02055,-1.37395 -0.01174,-1.77028 -0.1644,-2.05505c-0.20844,-0.3934 -0.7222,-0.90129 -1.10973,-1.10092c-0.33762,-0.17321 -3.51708,-0.14679 -5.44002,0.04404M585.96992,635.64188c-0.14385,2.07854 -0.57248,4.61506 -1.189,7.05177c-1.14496,4.51525 -3.51708,9.61765 -6.31782,13.58684c-2.60111,3.68442 -6.53214,7.57434 -10.34866,10.2371c-4.04846,2.82717 -8.95416,5.04075 -13.76592,6.2092l-1.55597,0.37872l-0.78973,-0.69285c-1.01285,-0.88661 -3.0679,-2.94166 -3.95451,-3.95157l-0.68698,-0.78973l0.37578,-1.5501c1.17725,-4.85286 3.36148,-9.66462 6.27966,-13.85106c2.66276,-3.81653 6.43525,-7.62719 10.16371,-10.26646c2.98276,-2.11377 7.25434,-4.30093 10.68628,-5.46938c3.26166,-1.11266 7.68003,-1.98166 10.55417,-2.0756l0.6312,-0.02055l-0.0822,1.20367M566.83737,645.54431c-1.05395,0.25835 -2.04037,0.84257 -2.95047,1.75267c-1.33872,1.33872 -1.93762,2.77139 -1.93762,4.63855c0,1.86716 0.5989,3.29983 1.93762,4.63855c1.33872,1.33872 2.77139,1.93762 4.63855,1.93762c1.86716,0 3.29983,-0.5989 4.63855,-1.93762c1.33872,-1.33872 1.93762,-2.77139 1.93762,-4.63855c0,-1.86716 -0.5989,-3.29983 -1.93762,-4.63855c-0.93065,-0.93065 -1.89652,-1.49432 -3.00625,-1.7556c-0.92771,-0.22018 -2.40441,-0.21725 -3.32038,0.00294M569.58234,650.00084c0.70459,0.3611 1.09505,1.05395 1.09505,1.93469c0,1.05982 -0.59303,1.85248 -1.58239,2.11964c-1.54423,0.41395 -2.97396,-0.90129 -2.72148,-2.50717c0.22312,-1.42679 1.88478,-2.22827 3.20882,-1.54716M548.8762,652.0236c-1.55891,2.68038 -2.15193,3.84589 -3.11194,6.0947c-0.70459,1.65872 -1.69689,4.5446 -2.11083,6.14755l-0.22899,0.88074l-4.96149,0.02936l-4.95855,0.03229l0.0822,-0.67817c0.19376,-1.54129 1.25358,-4.13359 2.38093,-5.81287c2.29872,-3.43194 6.35012,-6.01544 10.24591,-6.53507c0.54899,-0.07046 1.13028,-0.14973 1.29175,-0.17321c0.57542,-0.0822 1.42092,-0.07339 1.37101,0.01468M568.46967,672.63285c-0.42275,5.41653 -3.24405,9.9582 -7.79159,12.52996c-1.38863,0.78679 -3.49946,1.55303 -4.75892,1.72331l-0.54606,0.07633v-5.00846c0,-4.51231 0.01761,-5.00552 0.18789,-5.00552c0.63707,0 5.01727,-1.47377 7.19269,-2.42203c1.55597,-0.67523 4.18644,-2.01982 5.14057,-2.6246c0.30826,-0.1967 0.58129,-0.35523 0.61064,-0.35523c0.02936,0 0.01174,0.49028 -0.03523,1.08624M537.99323,672.27175c-0.57248,0.16147 -1.46496,0.8778 -2.68038,2.149c-2.03157,2.12551 -3.32625,4.63268 -3.97506,7.69471c-0.28771,1.37101 -0.29064,4.46827 -0.00587,5.41653c0.26422,0.87193 0.86899,1.43267 1.74386,1.62056c1.57946,0.34055 4.13066,0.26129 5.91562,-0.17908c2.7479,-0.6811 5.08479,-1.94643 7.04883,-3.82534c1.94349,-1.85836 2.46606,-2.77432 2.18129,-3.81946c-0.17321,-0.63707 -0.64294,-1.18606 -1.2389,-1.45909c-1.10973,-0.50202 -1.81725,-0.22018 -3.19414,1.27707c-0.57248,0.62239 -1.35634,1.36221 -1.74386,1.64991c-1.56184,1.15083 -3.73433,1.97285 -5.56626,2.10496l-0.98643,0.07046l0.06752,-0.93065c0.13798,-1.85836 0.90422,-3.9457 2.0257,-5.51635c0.28477,-0.4022 1.06863,-1.2389 1.73799,-1.85836c1.25945,-1.16844 1.48845,-1.53835 1.48845,-2.40735c0,-0.81615 -0.76918,-1.76735 -1.61762,-2.00221c-0.51376,-0.14385 -0.65175,-0.14092 -1.20074,0.01468" className="SFSymbolsPreviewWireframe"/></g>
 </g>
</svg>