<?xml version="1.0" encoding="UTF-8"?><!--Generator: SF Tools--><!DOCTYPE svg PUBLIC "-//W3C//DTD SVG 1.1//EN" "http://www.w3.org/Graphics/SVG/1.1/DTD/svg11.dtd"><svg xmlns="http://www.w3.org/2000/svg" xmlns:xlink="http://www.w3.org/1999/xlink" version="1.1" viewBox="0 0 3300 2200">
 <!--glyph: "100092", point size: 100.0, font version: "20.0d10e1", template writer version: "138.0.0"-->
 <style>.SFSymbolsPreviewWireframe {fill:none;opacity:1.0;stroke:black;stroke-width:0.5}
</style>
 <g id="Notes">
  <rect height="2200" id="artboard" style="fill:white;opacity:1" width="3300" x="0" y="0"/>
  <line style="fill:none;stroke:black;opacity:1;stroke-width:0.5;" x1="263" x2="3036" y1="292" y2="292"/>
  <text style="stroke:none;fill:black;font-family:sans-serif;font-size:13;font-weight:bold;" transform="matrix(1 0 0 1 263 322)">Weight/Scale Variations</text>
  <text style="stroke:none;fill:black;font-family:sans-serif;font-size:13;text-anchor:middle;" transform="matrix(1 0 0 1 559.711 322)">Ultralight</text>
  <text style="stroke:none;fill:black;font-family:sans-serif;font-size:13;text-anchor:middle;" transform="matrix(1 0 0 1 856.422 322)">Thin</text>
  <text style="stroke:none;fill:black;font-family:sans-serif;font-size:13;text-anchor:middle;" transform="matrix(1 0 0 1 1153.13 322)">Light</text>
  <text style="stroke:none;fill:black;font-family:sans-serif;font-size:13;text-anchor:middle;" transform="matrix(1 0 0 1 1449.84 322)">Regular</text>
  <text style="stroke:none;fill:black;font-family:sans-serif;font-size:13;text-anchor:middle;" transform="matrix(1 0 0 1 1746.56 322)">Medium</text>
  <text style="stroke:none;fill:black;font-family:sans-serif;font-size:13;text-anchor:middle;" transform="matrix(1 0 0 1 2043.27 322)">Semibold</text>
  <text style="stroke:none;fill:black;font-family:sans-serif;font-size:13;text-anchor:middle;" transform="matrix(1 0 0 1 2339.98 322)">Bold</text>
  <text style="stroke:none;fill:black;font-family:sans-serif;font-size:13;text-anchor:middle;" transform="matrix(1 0 0 1 2636.69 322)">Heavy</text>
  <text style="stroke:none;fill:black;font-family:sans-serif;font-size:13;text-anchor:middle;" transform="matrix(1 0 0 1 2933.4 322)">Black</text>
  <line style="fill:none;stroke:black;opacity:1;stroke-width:0.5;" x1="263" x2="3036" y1="1903" y2="1903"/>
  <g transform="matrix(0.2 0 0 0.2 263 1933)">
   <path d="m46.2402 4.15039c21.7773 0 39.4531-17.627 39.4531-39.4043s-17.6758-39.4043-39.4531-39.4043c-21.7285 0-39.4043 17.627-39.4043 39.4043s17.6758 39.4043 39.4043 39.4043Zm0-7.42188c-17.6758 0-31.9336-14.3066-31.9336-31.9824s14.2578-31.9824 31.9336-31.9824 31.9824 14.3066 31.9824 31.9824-14.3066 31.9824-31.9824 31.9824Zm-17.9688-31.9824c0 2.14844 1.51367 3.61328 3.75977 3.61328h10.498v10.5957c0 2.19727 1.46484 3.71094 3.61328 3.71094 2.24609 0 3.71094-1.51367 3.71094-3.71094v-10.5957h10.5957c2.19727 0 3.71094-1.46484 3.71094-3.61328 0-2.19727-1.51367-3.71094-3.71094-3.71094h-10.5957v-10.5469c0-2.24609-1.46484-3.75977-3.71094-3.75977-2.14844 0-3.61328 1.51367-3.61328 3.75977v10.5469h-10.498c-2.24609 0-3.75977 1.51367-3.75977 3.71094Z"/>
  </g>
  <g transform="matrix(0.2 0 0 0.2 281.506 1933)">
   <path d="m58.5449 14.5508c27.4902 0 49.8047-22.3145 49.8047-49.8047s-22.3145-49.8047-49.8047-49.8047-49.8047 22.3145-49.8047 49.8047 22.3145 49.8047 49.8047 49.8047Zm0-8.30078c-22.9492 0-41.5039-18.5547-41.5039-41.5039s18.5547-41.5039 41.5039-41.5039 41.5039 18.5547 41.5039 41.5039-18.5547 41.5039-41.5039 41.5039Zm-22.6562-41.5039c0 2.39258 1.66016 4.00391 4.15039 4.00391h14.3555v14.4043c0 2.44141 1.66016 4.15039 4.05273 4.15039 2.44141 0 4.15039-1.66016 4.15039-4.15039v-14.4043h14.4043c2.44141 0 4.15039-1.61133 4.15039-4.00391 0-2.44141-1.70898-4.15039-4.15039-4.15039h-14.4043v-14.3555c0-2.49023-1.70898-4.19922-4.15039-4.19922-2.39258 0-4.05273 1.70898-4.05273 4.19922v14.3555h-14.3555c-2.49023 0-4.15039 1.70898-4.15039 4.15039Z"/>
  </g>
  <g transform="matrix(0.2 0 0 0.2 304.924 1933)">
   <path d="m74.8535 28.3203c35.1074 0 63.623-28.4668 63.623-63.5742s-28.5156-63.623-63.623-63.623-63.5742 28.5156-63.5742 63.623 28.4668 63.5742 63.5742 63.5742Zm0-9.08203c-30.127 0-54.4922-24.3652-54.4922-54.4922s24.3652-54.4922 54.4922-54.4922 54.4922 24.3652 54.4922 54.4922-24.3652 54.4922-54.4922 54.4922Zm-28.8574-54.4922c0 2.58789 1.85547 4.39453 4.58984 4.39453h19.7266v19.7754c0 2.68555 1.85547 4.58984 4.44336 4.58984 2.68555 0 4.54102-1.85547 4.54102-4.58984v-19.7754h19.7754c2.68555 0 4.58984-1.80664 4.58984-4.39453 0-2.73438-1.85547-4.58984-4.58984-4.58984h-19.7754v-19.7266c0-2.73438-1.85547-4.63867-4.54102-4.63867-2.58789 0-4.44336 1.9043-4.44336 4.63867v19.7266h-19.7266c-2.73438 0-4.58984 1.85547-4.58984 4.58984Z"/>
  </g>
  <text style="stroke:none;fill:black;font-family:sans-serif;font-size:13;font-weight:bold;" transform="matrix(1 0 0 1 263 1953)">Design Variations</text>
  <text style="stroke:none;fill:black;font-family:sans-serif;font-size:13;" transform="matrix(1 0 0 1 263 1971)">Symbols are supported in up to nine weights and three scales.</text>
  <text style="stroke:none;fill:black;font-family:sans-serif;font-size:13;" transform="matrix(1 0 0 1 263 1989)">For optimal layout with text and other symbols, vertically align</text>
  <text style="stroke:none;fill:black;font-family:sans-serif;font-size:13;" transform="matrix(1 0 0 1 263 2007)">symbols with the adjacent text.</text>
  <line style="fill:none;stroke:#00AEEF;stroke-width:0.5;opacity:1.0;" x1="776" x2="776" y1="1919" y2="1933"/>
  <g transform="matrix(0.2 0 0 0.2 776 1933)">
   <path d="m16.5527 0.78125c2.58789 0 3.85742-0.976562 4.78516-3.71094l6.29883-17.2363h28.8086l6.29883 17.2363c0.927734 2.73438 2.19727 3.71094 4.73633 3.71094 2.58789 0 4.24805-1.5625 4.24805-4.00391 0-0.830078-0.146484-1.61133-0.537109-2.63672l-22.9004-60.9863c-1.12305-2.97852-3.125-4.49219-6.25-4.49219-3.02734 0-5.07812 1.46484-6.15234 4.44336l-22.9004 61.084c-0.390625 1.02539-0.537109 1.80664-0.537109 2.63672 0 2.44141 1.5625 3.95508 4.10156 3.95508Zm13.4766-28.3691 11.8652-32.8613h0.244141l11.8652 32.8613Z"/>
  </g>
  <line style="fill:none;stroke:#00AEEF;stroke-width:0.5;opacity:1.0;" x1="792.836" x2="792.836" y1="1919" y2="1933"/>
  <text style="stroke:none;fill:black;font-family:sans-serif;font-size:13;font-weight:bold;" transform="matrix(1 0 0 1 776 1953)">Margins</text>
  <text style="stroke:none;fill:black;font-family:sans-serif;font-size:13;" transform="matrix(1 0 0 1 776 1971)">Leading and trailing margins on the left and right side of each symbol</text>
  <text style="stroke:none;fill:black;font-family:sans-serif;font-size:13;" transform="matrix(1 0 0 1 776 1989)">can be adjusted by modifying the x-location of the margin guidelines.</text>
  <text style="stroke:none;fill:black;font-family:sans-serif;font-size:13;" transform="matrix(1 0 0 1 776 2007)">Modifications are automatically applied proportionally to all</text>
  <text style="stroke:none;fill:black;font-family:sans-serif;font-size:13;" transform="matrix(1 0 0 1 776 2025)">scales and weights.</text>
  <g transform="matrix(0.2 0 0 0.2 1289 1933)">
   <path d="m14.209 9.32617 8.49609 8.54492c4.29688 4.3457 9.22852 4.05273 13.8672-1.07422l53.4668-58.9355-4.83398-4.88281-53.0762 58.3984c-1.75781 2.00195-3.41797 2.49023-5.76172 0.146484l-5.85938-5.81055c-2.34375-2.29492-1.80664-4.00391 0.195312-5.81055l57.373-54.0039-4.88281-4.83398-57.959 54.4434c-4.93164 4.58984-5.32227 9.47266-1.02539 13.8184Zm32.0801-90.9668c-2.09961 2.05078-2.24609 4.93164-1.07422 6.88477 1.17188 1.80664 3.4668 2.97852 6.68945 2.14844 7.32422-1.70898 14.9414-2.00195 22.0703 2.68555l-2.92969 7.27539c-1.70898 4.15039-0.830078 7.08008 1.85547 9.81445l11.4746 11.5723c2.44141 2.44141 4.49219 2.53906 7.32422 2.05078l5.32227-0.976562 3.32031 3.36914-0.195312 2.7832c-0.195312 2.49023 0.439453 4.39453 2.88086 6.78711l3.80859 3.71094c2.39258 2.39258 5.46875 2.53906 7.8125 0.195312l14.5508-14.5996c2.34375-2.34375 2.24609-5.32227-0.146484-7.71484l-3.85742-3.80859c-2.39258-2.39258-4.24805-3.17383-6.64062-2.97852l-2.88086 0.244141-3.22266-3.17383 1.2207-5.61523c0.634766-2.83203-0.146484-5.0293-3.07617-7.95898l-10.9863-10.9375c-16.6992-16.6016-38.8672-16.2109-53.3203-1.75781Zm7.4707 1.85547c12.1582-8.88672 28.6133-7.37305 39.7461 3.75977l12.1582 12.0605c1.17188 1.17188 1.36719 2.09961 1.02539 3.80859l-1.61133 7.42188 7.51953 7.42188 4.93164-0.292969c1.26953-0.0488281 1.66016 0.0488281 2.63672 1.02539l2.88086 2.88086-12.207 12.207-2.88086-2.88086c-0.976562-0.976562-1.12305-1.36719-1.07422-2.68555l0.341797-4.88281-7.4707-7.42188-7.61719 1.26953c-1.61133 0.341797-2.34375 0.195312-3.56445-0.976562l-10.0098-10.0098c-1.26953-1.17188-1.41602-2.00195-0.634766-3.85742l4.39453-10.4492c-7.8125-7.27539-17.9688-10.4004-28.125-7.42188-0.78125 0.195312-1.07422-0.439453-0.439453-0.976562Z"/>
  </g>
  <text style="stroke:none;fill:black;font-family:sans-serif;font-size:13;font-weight:bold;" transform="matrix(1 0 0 1 1289 1953)">Exporting</text>
  <text style="stroke:none;fill:black;font-family:sans-serif;font-size:13;" transform="matrix(1 0 0 1 1289 1971)">Symbols should be outlined when exporting to ensure the</text>
  <text style="stroke:none;fill:black;font-family:sans-serif;font-size:13;" transform="matrix(1 0 0 1 1289 1989)">design is preserved when submitting to Xcode.</text>
  <text id="template-version" style="stroke:none;fill:black;font-family:sans-serif;font-size:13;text-anchor:end;" transform="matrix(1 0 0 1 3036 1933)">Template v.6.0</text>
  <text style="stroke:none;fill:black;font-family:sans-serif;font-size:13;text-anchor:end;" transform="matrix(1 0 0 1 3036 1951)">Requires Xcode 16 or greater</text>
  <text id="descriptive-name" style="stroke:none;fill:black;font-family:sans-serif;font-size:13;text-anchor:end;" transform="matrix(1 0 0 1 3036 1969)">Generated from square</text>
  <text style="stroke:none;fill:black;font-family:sans-serif;font-size:13;text-anchor:end;" transform="matrix(1 0 0 1 3036 1987)">Typeset at 100.0 points</text>
  <text style="stroke:none;fill:black;font-family:sans-serif;font-size:13;" transform="matrix(1 0 0 1 263 726)">Small</text>
  <text style="stroke:none;fill:black;font-family:sans-serif;font-size:13;" transform="matrix(1 0 0 1 263 1156)">Medium</text>
  <text style="stroke:none;fill:black;font-family:sans-serif;font-size:13;" transform="matrix(1 0 0 1 263 1586)">Large</text>
 </g>
 <g id="Guides">
  <g id="H-reference" style="fill:#27AAE1;stroke:none;" transform="matrix(1 0 0 1 339 696)">
   <path d="M0.993654 0L3.63775 0L29.3281-67.1323L30.0303-67.1323L30.0303-70.459L28.1226-70.459ZM11.6885-24.4799L46.9815-24.4799L46.2315-26.7285L12.4385-26.7285ZM55.1196 0L57.7637 0L30.6382-70.459L29.4326-70.459L29.4326-67.1323Z"/>
  </g>
  <line id="Baseline-S" style="fill:none;stroke:#27AAE1;opacity:1;stroke-width:0.5;" x1="263" x2="3036" y1="696" y2="696"/>
  <line id="Capline-S" style="fill:none;stroke:#27AAE1;opacity:1;stroke-width:0.5;" x1="263" x2="3036" y1="625.541" y2="625.541"/>
  <g id="H-reference" style="fill:#27AAE1;stroke:none;" transform="matrix(1 0 0 1 339 1126)">
   <path d="M0.993654 0L3.63775 0L29.3281-67.1323L30.0303-67.1323L30.0303-70.459L28.1226-70.459ZM11.6885-24.4799L46.9815-24.4799L46.2315-26.7285L12.4385-26.7285ZM55.1196 0L57.7637 0L30.6382-70.459L29.4326-70.459L29.4326-67.1323Z"/>
  </g>
  <line id="Baseline-M" style="fill:none;stroke:#27AAE1;opacity:1;stroke-width:0.5;" x1="263" x2="3036" y1="1126" y2="1126"/>
  <line id="Capline-M" style="fill:none;stroke:#27AAE1;opacity:1;stroke-width:0.5;" x1="263" x2="3036" y1="1055.54" y2="1055.54"/>
  <g id="H-reference" style="fill:#27AAE1;stroke:none;" transform="matrix(1 0 0 1 339 1556)">
   <path d="M0.993654 0L3.63775 0L29.3281-67.1323L30.0303-67.1323L30.0303-70.459L28.1226-70.459ZM11.6885-24.4799L46.9815-24.4799L46.2315-26.7285L12.4385-26.7285ZM55.1196 0L57.7637 0L30.6382-70.459L29.4326-70.459L29.4326-67.1323Z"/>
  </g>
  <line id="Baseline-L" style="fill:none;stroke:#27AAE1;opacity:1;stroke-width:0.5;" x1="263" x2="3036" y1="1556" y2="1556"/>
  <line id="Capline-L" style="fill:none;stroke:#27AAE1;opacity:1;stroke-width:0.5;" x1="263" x2="3036" y1="1485.54" y2="1485.54"/>
  <line id="right-margin-Black-S" style="fill:none;stroke:#00AEEF;stroke-width:0.5;opacity:1.0;" x1="2981.3" x2="2981.3" y1="600.785" y2="720.121"/>
  <line id="left-margin-Black-S" style="fill:none;stroke:#00AEEF;stroke-width:0.5;opacity:1.0;" x1="2885.5" x2="2885.5" y1="600.785" y2="720.121"/>
  <line id="right-margin-Regular-S" style="fill:none;stroke:#00AEEF;stroke-width:0.5;opacity:1.0;" x1="1495.18" x2="1495.18" y1="600.785" y2="720.121"/>
  <line id="left-margin-Regular-S" style="fill:none;stroke:#00AEEF;stroke-width:0.5;opacity:1.0;" x1="1404.51" x2="1404.51" y1="600.785" y2="720.121"/>
  <line id="right-margin-Ultralight-S" style="fill:none;stroke:#00AEEF;stroke-width:0.5;opacity:1.0;" x1="603.073" x2="603.073" y1="600.785" y2="720.121"/>
  <line id="left-margin-Ultralight-S" style="fill:none;stroke:#00AEEF;stroke-width:0.5;opacity:1.0;" x1="516.35" x2="516.35" y1="600.785" y2="720.121"/>
 </g>
 <g id="Symbols">
  <g id="Black-S"><path d="M2943.26879,665.64869c-3.25021,4.75158 -8.0106,6.99922 -13.5795,6.99922c-6.76439,0 -12.55462,-5.20428 -11.72209,-12.10691c0.9236,-7.65742 6.86808,-10.9525 16.75785,-12.1631c1.7647,-0.21604 2.49542,-0.27676 6.30285,-0.55883c0.14297,-0.01057 0.27773,-0.02064 0.40543,-0.03027c-0.00059,-0.20891 -0.00088,-0.41905 -0.00088,-0.63046c0,-5.27239 -3.13513,-8.87137 -7.33948,-8.87137c-4.21844,0 -7.1645,2.19406 -8.9682,7.41698l-5.55,-1.91648c2.60528,-7.54463 7.74473,-11.37208 14.51819,-11.37208c7.64098,0 13.21106,6.39409 13.21106,14.74296c0,7.77647 0.47941,13.96189 1.41887,16.31581c1.04514,2.61902 1.42621,3.27781 2.59436,4.73455l-4.58042,3.67356c-1.53601,-1.91531 -2.20948,-3.07935 -3.46746,-6.2318zM2959.80023,683.04384c-0.79501,0.58686 -2.17689,0.2378 -1.55127,-1.29322c0.77681,-1.9021 1.605,-4.13271 0.77006,-5.1438c-0.61769,-0.74775 -1.37278,-1.1203 -3.01623,-1.1203c-1.34929,0 -2.02687,0.17439 -2.92082,0.23398c-0.59949,0.04022 -0.86165,-0.87222 -0.26804,-1.29145c0.76859,-0.54283 1.59736,-0.96822 2.55649,-1.25534c3.37499,-1.01109 7.35328,-0.4571 7.83533,0.2422c1.07274,1.55626 -0.58217,7.54263 -3.40552,9.62793zM2956.33071,679.85998c-0.76859,0.75039 -1.60147,1.43501 -2.43436,2.04096c-6.2318,4.74306 -14.30141,7.22469 -21.31003,7.22469c-11.28063,0 -21.37212,-5.26769 -29.02722,-14.07917c-0.65674,-0.67699 -0.11394,-1.66078 0.65468,-1.12822c8.24761,6.09676 18.45926,9.78499 29.02928,9.78499c6.6525,0 13.82258,-1.57652 20.65329,-4.96853c0.47648,-0.22547 1.01109,-0.53255 1.47935,-0.74775c1.07714,-0.61652 2.02393,0.89982 0.95501,1.87303zM2941.46181,653.67448c-3.69469,0.27391 -4.39194,0.33174 -6.02336,0.53138c-7.49449,0.91743 -11.14793,2.94254 -11.64191,7.03827c-0.3695,3.0635 2.37717,5.5322 5.89275,5.5322c5.98608,0 10.32576,-3.60456 11.80775,-13.1042c-0.01174,0.00088 -0.02349,0.00147 -0.03523,0.00235z" className="SFSymbolsPreviewWireframe"/></g>
  <g id="Regular-S"><path d="M1459.71374,665.64869c-3.25021,4.75158 -8.0106,6.99922 -13.5795,6.99922c-6.76439,0 -12.55462,-5.20428 -11.72209,-12.10691c0.9236,-7.65742 6.86808,-10.9525 16.75785,-12.1631c1.7647,-0.21604 2.49542,-0.27676 6.30285,-0.55883c0.14297,-0.01057 0.27773,-0.02064 0.40543,-0.03027c-0.00059,-0.20891 -0.00088,-0.41905 -0.00088,-0.63046c0,-5.27239 -3.13513,-8.87137 -7.33948,-8.87137c-4.21844,0 -7.1645,2.19406 -8.9682,7.41698l-5.55,-1.91648c2.60528,-7.54463 7.74473,-11.37208 14.51819,-11.37208c7.64098,0 13.21106,6.39409 13.21106,14.74296c0,7.77647 0.47941,13.96189 1.41887,16.31581c1.04514,2.61902 1.42621,3.27781 2.59436,4.73455l-4.58042,3.67356c-1.53601,-1.91531 -2.20948,-3.07935 -3.46746,-6.2318zM1476.24518,683.04384c-0.79501,0.58686 -2.17689,0.2378 -1.55127,-1.29322c0.77681,-1.9021 1.605,-4.13271 0.77006,-5.1438c-0.61769,-0.74775 -1.37278,-1.1203 -3.01623,-1.1203c-1.34929,0 -2.02687,0.17439 -2.92082,0.23398c-0.59949,0.04022 -0.86165,-0.87222 -0.26804,-1.29145c0.76859,-0.54283 1.59736,-0.96822 2.55649,-1.25534c3.37499,-1.01109 7.35328,-0.4571 7.83533,0.2422c1.07274,1.55626 -0.58217,7.54263 -3.40552,9.62793zM1472.77566,679.85998c-0.76859,0.75039 -1.60147,1.43501 -2.43436,2.04096c-6.2318,4.74306 -14.30141,7.22469 -21.31003,7.22469c-11.28063,0 -21.37212,-5.26769 -29.02722,-14.07917c-0.65674,-0.67699 -0.11394,-1.66078 0.65468,-1.12822c8.24761,6.09676 18.45926,9.78499 29.02928,9.78499c6.6525,0 13.82258,-1.57652 20.65329,-4.96853c0.47648,-0.22547 1.01109,-0.53255 1.47935,-0.74775c1.07714,-0.61652 2.02393,0.89982 0.95501,1.87303zM1457.90676,653.67448c-3.69469,0.27391 -4.39194,0.33174 -6.02336,0.53138c-7.49449,0.91743 -11.14793,2.94254 -11.64191,7.03827c-0.3695,3.0635 2.37717,5.5322 5.89275,5.5322c5.98608,0 10.32576,-3.60456 11.80775,-13.1042c-0.01174,0.00088 -0.02349,0.00147 -0.03523,0.00235z" className="SFSymbolsPreviewWireframe"/></g>
  <g id="Ultralight-S"><path d="M569.58015,665.64869c-3.25021,4.75158 -8.0106,6.99922 -13.5795,6.99922c-6.76439,0 -12.55462,-5.20428 -11.72209,-12.10691c0.9236,-7.65742 6.86808,-10.9525 16.75785,-12.1631c1.7647,-0.21604 2.49542,-0.27676 6.30285,-0.55883c0.14297,-0.01057 0.27773,-0.02064 0.40543,-0.03027c-0.00059,-0.20891 -0.00088,-0.41905 -0.00088,-0.63046c0,-5.27239 -3.13513,-8.87137 -7.33948,-8.87137c-4.21844,0 -7.1645,2.19406 -8.9682,7.41698l-5.55,-1.91648c2.60528,-7.54463 7.74473,-11.37208 14.51819,-11.37208c7.64098,0 13.21106,6.39409 13.21106,14.74296c0,7.77647 0.47941,13.96189 1.41887,16.31581c1.04514,2.61902 1.42621,3.27781 2.59436,4.73455l-4.58042,3.67356c-1.53601,-1.91531 -2.20948,-3.07935 -3.46746,-6.2318zM586.11159,683.04384c-0.79501,0.58686 -2.17689,0.2378 -1.55127,-1.29322c0.77681,-1.9021 1.605,-4.13271 0.77006,-5.1438c-0.61769,-0.74775 -1.37278,-1.1203 -3.01623,-1.1203c-1.34929,0 -2.02687,0.17439 -2.92082,0.23398c-0.59949,0.04022 -0.86165,-0.87222 -0.26804,-1.29145c0.76859,-0.54283 1.59736,-0.96822 2.55649,-1.25534c3.37499,-1.01109 7.35328,-0.4571 7.83533,0.2422c1.07274,1.55626 -0.58217,7.54263 -3.40552,9.62793zM582.64207,679.85998c-0.76859,0.75039 -1.60147,1.43501 -2.43436,2.04096c-6.2318,4.74306 -14.30141,7.22469 -21.31003,7.22469c-11.28063,0 -21.37212,-5.26769 -29.02722,-14.07917c-0.65674,-0.67699 -0.11394,-1.66078 0.65468,-1.12822c8.24761,6.09676 18.45926,9.78499 29.02928,9.78499c6.6525,0 13.82258,-1.57652 20.65329,-4.96853c0.47648,-0.22547 1.01109,-0.53255 1.47935,-0.74775c1.07714,-0.61652 2.02393,0.89982 0.95501,1.87303zM567.77317,653.67448c-3.69469,0.27391 -4.39194,0.33174 -6.02336,0.53138c-7.49449,0.91743 -11.14793,2.94254 -11.64191,7.03827c-0.3695,3.0635 2.37717,5.5322 5.89275,5.5322c5.98608,0 10.32576,-3.60456 11.80775,-13.1042c-0.01174,0.00088 -0.02349,0.00147 -0.03523,0.00235z" className="SFSymbolsPreviewWireframe"/></g>
 </g>
</svg>