<?xml version="1.0" encoding="UTF-8"?><!--Generator: SF Tools--><!DOCTYPE svg PUBLIC "-//W3C//DTD SVG 1.1//EN" "http://www.w3.org/Graphics/SVG/1.1/DTD/svg11.dtd"><svg xmlns="http://www.w3.org/2000/svg" xmlns:xlink="http://www.w3.org/1999/xlink" version="1.1" viewBox="0 0 3300 2200">
 <!--glyph: "100092", point size: 100.0, font version: "20.0d10e1", template writer version: "138.0.0"-->
 <style>.SFSymbolsPreviewWireframe {fill:none;opacity:1.0;stroke:black;stroke-width:0.5}
</style>
 <g id="Notes">
  <rect height="2200" id="artboard" style="fill:white;opacity:1" width="3300" x="0" y="0"/>
  <line style="fill:none;stroke:black;opacity:1;stroke-width:0.5;" x1="263" x2="3036" y1="292" y2="292"/>
  <text style="stroke:none;fill:black;font-family:sans-serif;font-size:13;font-weight:bold;" transform="matrix(1 0 0 1 263 322)">Weight/Scale Variations</text>
  <text style="stroke:none;fill:black;font-family:sans-serif;font-size:13;text-anchor:middle;" transform="matrix(1 0 0 1 559.711 322)">Ultralight</text>
  <text style="stroke:none;fill:black;font-family:sans-serif;font-size:13;text-anchor:middle;" transform="matrix(1 0 0 1 856.422 322)">Thin</text>
  <text style="stroke:none;fill:black;font-family:sans-serif;font-size:13;text-anchor:middle;" transform="matrix(1 0 0 1 1153.13 322)">Light</text>
  <text style="stroke:none;fill:black;font-family:sans-serif;font-size:13;text-anchor:middle;" transform="matrix(1 0 0 1 1449.84 322)">Regular</text>
  <text style="stroke:none;fill:black;font-family:sans-serif;font-size:13;text-anchor:middle;" transform="matrix(1 0 0 1 1746.56 322)">Medium</text>
  <text style="stroke:none;fill:black;font-family:sans-serif;font-size:13;text-anchor:middle;" transform="matrix(1 0 0 1 2043.27 322)">Semibold</text>
  <text style="stroke:none;fill:black;font-family:sans-serif;font-size:13;text-anchor:middle;" transform="matrix(1 0 0 1 2339.98 322)">Bold</text>
  <text style="stroke:none;fill:black;font-family:sans-serif;font-size:13;text-anchor:middle;" transform="matrix(1 0 0 1 2636.69 322)">Heavy</text>
  <text style="stroke:none;fill:black;font-family:sans-serif;font-size:13;text-anchor:middle;" transform="matrix(1 0 0 1 2933.4 322)">Black</text>
  <line style="fill:none;stroke:black;opacity:1;stroke-width:0.5;" x1="263" x2="3036" y1="1903" y2="1903"/>
  <g transform="matrix(0.2 0 0 0.2 263 1933)">
   <path d="m46.2402 4.15039c21.7773 0 39.4531-17.627 39.4531-39.4043s-17.6758-39.4043-39.4531-39.4043c-21.7285 0-39.4043 17.627-39.4043 39.4043s17.6758 39.4043 39.4043 39.4043Zm0-7.42188c-17.6758 0-31.9336-14.3066-31.9336-31.9824s14.2578-31.9824 31.9336-31.9824 31.9824 14.3066 31.9824 31.9824-14.3066 31.9824-31.9824 31.9824Zm-17.9688-31.9824c0 2.14844 1.51367 3.61328 3.75977 3.61328h10.498v10.5957c0 2.19727 1.46484 3.71094 3.61328 3.71094 2.24609 0 3.71094-1.51367 3.71094-3.71094v-10.5957h10.5957c2.19727 0 3.71094-1.46484 3.71094-3.61328 0-2.19727-1.51367-3.71094-3.71094-3.71094h-10.5957v-10.5469c0-2.24609-1.46484-3.75977-3.71094-3.75977-2.14844 0-3.61328 1.51367-3.61328 3.75977v10.5469h-10.498c-2.24609 0-3.75977 1.51367-3.75977 3.71094Z"/>
  </g>
  <g transform="matrix(0.2 0 0 0.2 281.506 1933)">
   <path d="m58.5449 14.5508c27.4902 0 49.8047-22.3145 49.8047-49.8047s-22.3145-49.8047-49.8047-49.8047-49.8047 22.3145-49.8047 49.8047 22.3145 49.8047 49.8047 49.8047Zm0-8.30078c-22.9492 0-41.5039-18.5547-41.5039-41.5039s18.5547-41.5039 41.5039-41.5039 41.5039 18.5547 41.5039 41.5039-18.5547 41.5039-41.5039 41.5039Zm-22.6562-41.5039c0 2.39258 1.66016 4.00391 4.15039 4.00391h14.3555v14.4043c0 2.44141 1.66016 4.15039 4.05273 4.15039 2.44141 0 4.15039-1.66016 4.15039-4.15039v-14.4043h14.4043c2.44141 0 4.15039-1.61133 4.15039-4.00391 0-2.44141-1.70898-4.15039-4.15039-4.15039h-14.4043v-14.3555c0-2.49023-1.70898-4.19922-4.15039-4.19922-2.39258 0-4.05273 1.70898-4.05273 4.19922v14.3555h-14.3555c-2.49023 0-4.15039 1.70898-4.15039 4.15039Z"/>
  </g>
  <g transform="matrix(0.2 0 0 0.2 304.924 1933)">
   <path d="m74.8535 28.3203c35.1074 0 63.623-28.4668 63.623-63.5742s-28.5156-63.623-63.623-63.623-63.5742 28.5156-63.5742 63.623 28.4668 63.5742 63.5742 63.5742Zm0-9.08203c-30.127 0-54.4922-24.3652-54.4922-54.4922s24.3652-54.4922 54.4922-54.4922 54.4922 24.3652 54.4922 54.4922-24.3652 54.4922-54.4922 54.4922Zm-28.8574-54.4922c0 2.58789 1.85547 4.39453 4.58984 4.39453h19.7266v19.7754c0 2.68555 1.85547 4.58984 4.44336 4.58984 2.68555 0 4.54102-1.85547 4.54102-4.58984v-19.7754h19.7754c2.68555 0 4.58984-1.80664 4.58984-4.39453 0-2.73438-1.85547-4.58984-4.58984-4.58984h-19.7754v-19.7266c0-2.73438-1.85547-4.63867-4.54102-4.63867-2.58789 0-4.44336 1.9043-4.44336 4.63867v19.7266h-19.7266c-2.73438 0-4.58984 1.85547-4.58984 4.58984Z"/>
  </g>
  <text style="stroke:none;fill:black;font-family:sans-serif;font-size:13;font-weight:bold;" transform="matrix(1 0 0 1 263 1953)">Design Variations</text>
  <text style="stroke:none;fill:black;font-family:sans-serif;font-size:13;" transform="matrix(1 0 0 1 263 1971)">Symbols are supported in up to nine weights and three scales.</text>
  <text style="stroke:none;fill:black;font-family:sans-serif;font-size:13;" transform="matrix(1 0 0 1 263 1989)">For optimal layout with text and other symbols, vertically align</text>
  <text style="stroke:none;fill:black;font-family:sans-serif;font-size:13;" transform="matrix(1 0 0 1 263 2007)">symbols with the adjacent text.</text>
  <line style="fill:none;stroke:#00AEEF;stroke-width:0.5;opacity:1.0;" x1="776" x2="776" y1="1919" y2="1933"/>
  <g transform="matrix(0.2 0 0 0.2 776 1933)">
   <path d="m16.5527 0.78125c2.58789 0 3.85742-0.976562 4.78516-3.71094l6.29883-17.2363h28.8086l6.29883 17.2363c0.927734 2.73438 2.19727 3.71094 4.73633 3.71094 2.58789 0 4.24805-1.5625 4.24805-4.00391 0-0.830078-0.146484-1.61133-0.537109-2.63672l-22.9004-60.9863c-1.12305-2.97852-3.125-4.49219-6.25-4.49219-3.02734 0-5.07812 1.46484-6.15234 4.44336l-22.9004 61.084c-0.390625 1.02539-0.537109 1.80664-0.537109 2.63672 0 2.44141 1.5625 3.95508 4.10156 3.95508Zm13.4766-28.3691 11.8652-32.8613h0.244141l11.8652 32.8613Z"/>
  </g>
  <line style="fill:none;stroke:#00AEEF;stroke-width:0.5;opacity:1.0;" x1="792.836" x2="792.836" y1="1919" y2="1933"/>
  <text style="stroke:none;fill:black;font-family:sans-serif;font-size:13;font-weight:bold;" transform="matrix(1 0 0 1 776 1953)">Margins</text>
  <text style="stroke:none;fill:black;font-family:sans-serif;font-size:13;" transform="matrix(1 0 0 1 776 1971)">Leading and trailing margins on the left and right side of each symbol</text>
  <text style="stroke:none;fill:black;font-family:sans-serif;font-size:13;" transform="matrix(1 0 0 1 776 1989)">can be adjusted by modifying the x-location of the margin guidelines.</text>
  <text style="stroke:none;fill:black;font-family:sans-serif;font-size:13;" transform="matrix(1 0 0 1 776 2007)">Modifications are automatically applied proportionally to all</text>
  <text style="stroke:none;fill:black;font-family:sans-serif;font-size:13;" transform="matrix(1 0 0 1 776 2025)">scales and weights.</text>
  <g transform="matrix(0.2 0 0 0.2 1289 1933)">
   <path d="m14.209 9.32617 8.49609 8.54492c4.29688 4.3457 9.22852 4.05273 13.8672-1.07422l53.4668-58.9355-4.83398-4.88281-53.0762 58.3984c-1.75781 2.00195-3.41797 2.49023-5.76172 0.146484l-5.85938-5.81055c-2.34375-2.29492-1.80664-4.00391 0.195312-5.81055l57.373-54.0039-4.88281-4.83398-57.959 54.4434c-4.93164 4.58984-5.32227 9.47266-1.02539 13.8184Zm32.0801-90.9668c-2.09961 2.05078-2.24609 4.93164-1.07422 6.88477 1.17188 1.80664 3.4668 2.97852 6.68945 2.14844 7.32422-1.70898 14.9414-2.00195 22.0703 2.68555l-2.92969 7.27539c-1.70898 4.15039-0.830078 7.08008 1.85547 9.81445l11.4746 11.5723c2.44141 2.44141 4.49219 2.53906 7.32422 2.05078l5.32227-0.976562 3.32031 3.36914-0.195312 2.7832c-0.195312 2.49023 0.439453 4.39453 2.88086 6.78711l3.80859 3.71094c2.39258 2.39258 5.46875 2.53906 7.8125 0.195312l14.5508-14.5996c2.34375-2.34375 2.24609-5.32227-0.146484-7.71484l-3.85742-3.80859c-2.39258-2.39258-4.24805-3.17383-6.64062-2.97852l-2.88086 0.244141-3.22266-3.17383 1.2207-5.61523c0.634766-2.83203-0.146484-5.0293-3.07617-7.95898l-10.9863-10.9375c-16.6992-16.6016-38.8672-16.2109-53.3203-1.75781Zm7.4707 1.85547c12.1582-8.88672 28.6133-7.37305 39.7461 3.75977l12.1582 12.0605c1.17188 1.17188 1.36719 2.09961 1.02539 3.80859l-1.61133 7.42188 7.51953 7.42188 4.93164-0.292969c1.26953-0.0488281 1.66016 0.0488281 2.63672 1.02539l2.88086 2.88086-12.207 12.207-2.88086-2.88086c-0.976562-0.976562-1.12305-1.36719-1.07422-2.68555l0.341797-4.88281-7.4707-7.42188-7.61719 1.26953c-1.61133 0.341797-2.34375 0.195312-3.56445-0.976562l-10.0098-10.0098c-1.26953-1.17188-1.41602-2.00195-0.634766-3.85742l4.39453-10.4492c-7.8125-7.27539-17.9688-10.4004-28.125-7.42188-0.78125 0.195312-1.07422-0.439453-0.439453-0.976562Z"/>
  </g>
  <text style="stroke:none;fill:black;font-family:sans-serif;font-size:13;font-weight:bold;" transform="matrix(1 0 0 1 1289 1953)">Exporting</text>
  <text style="stroke:none;fill:black;font-family:sans-serif;font-size:13;" transform="matrix(1 0 0 1 1289 1971)">Symbols should be outlined when exporting to ensure the</text>
  <text style="stroke:none;fill:black;font-family:sans-serif;font-size:13;" transform="matrix(1 0 0 1 1289 1989)">design is preserved when submitting to Xcode.</text>
  <text id="template-version" style="stroke:none;fill:black;font-family:sans-serif;font-size:13;text-anchor:end;" transform="matrix(1 0 0 1 3036 1933)">Template v.6.0</text>
  <text style="stroke:none;fill:black;font-family:sans-serif;font-size:13;text-anchor:end;" transform="matrix(1 0 0 1 3036 1951)">Requires Xcode 16 or greater</text>
  <text id="descriptive-name" style="stroke:none;fill:black;font-family:sans-serif;font-size:13;text-anchor:end;" transform="matrix(1 0 0 1 3036 1969)">Generated from square</text>
  <text style="stroke:none;fill:black;font-family:sans-serif;font-size:13;text-anchor:end;" transform="matrix(1 0 0 1 3036 1987)">Typeset at 100.0 points</text>
  <text style="stroke:none;fill:black;font-family:sans-serif;font-size:13;" transform="matrix(1 0 0 1 263 726)">Small</text>
  <text style="stroke:none;fill:black;font-family:sans-serif;font-size:13;" transform="matrix(1 0 0 1 263 1156)">Medium</text>
  <text style="stroke:none;fill:black;font-family:sans-serif;font-size:13;" transform="matrix(1 0 0 1 263 1586)">Large</text>
 </g>
 <g id="Guides">
  <g id="H-reference" style="fill:#27AAE1;stroke:none;" transform="matrix(1 0 0 1 339 696)">
   <path d="M0.993654 0L3.63775 0L29.3281-67.1323L30.0303-67.1323L30.0303-70.459L28.1226-70.459ZM11.6885-24.4799L46.9815-24.4799L46.2315-26.7285L12.4385-26.7285ZM55.1196 0L57.7637 0L30.6382-70.459L29.4326-70.459L29.4326-67.1323Z"/>
  </g>
  <line id="Baseline-S" style="fill:none;stroke:#27AAE1;opacity:1;stroke-width:0.5;" x1="263" x2="3036" y1="696" y2="696"/>
  <line id="Capline-S" style="fill:none;stroke:#27AAE1;opacity:1;stroke-width:0.5;" x1="263" x2="3036" y1="625.541" y2="625.541"/>
  <g id="H-reference" style="fill:#27AAE1;stroke:none;" transform="matrix(1 0 0 1 339 1126)">
   <path d="M0.993654 0L3.63775 0L29.3281-67.1323L30.0303-67.1323L30.0303-70.459L28.1226-70.459ZM11.6885-24.4799L46.9815-24.4799L46.2315-26.7285L12.4385-26.7285ZM55.1196 0L57.7637 0L30.6382-70.459L29.4326-70.459L29.4326-67.1323Z"/>
  </g>
  <line id="Baseline-M" style="fill:none;stroke:#27AAE1;opacity:1;stroke-width:0.5;" x1="263" x2="3036" y1="1126" y2="1126"/>
  <line id="Capline-M" style="fill:none;stroke:#27AAE1;opacity:1;stroke-width:0.5;" x1="263" x2="3036" y1="1055.54" y2="1055.54"/>
  <g id="H-reference" style="fill:#27AAE1;stroke:none;" transform="matrix(1 0 0 1 339 1556)">
   <path d="M0.993654 0L3.63775 0L29.3281-67.1323L30.0303-67.1323L30.0303-70.459L28.1226-70.459ZM11.6885-24.4799L46.9815-24.4799L46.2315-26.7285L12.4385-26.7285ZM55.1196 0L57.7637 0L30.6382-70.459L29.4326-70.459L29.4326-67.1323Z"/>
  </g>
  <line id="Baseline-L" style="fill:none;stroke:#27AAE1;opacity:1;stroke-width:0.5;" x1="263" x2="3036" y1="1556" y2="1556"/>
  <line id="Capline-L" style="fill:none;stroke:#27AAE1;opacity:1;stroke-width:0.5;" x1="263" x2="3036" y1="1485.54" y2="1485.54"/>
  <line id="right-margin-Black-S" style="fill:none;stroke:#00AEEF;stroke-width:0.5;opacity:1.0;" x1="2981.3" x2="2981.3" y1="600.785" y2="720.121"/>
  <line id="left-margin-Black-S" style="fill:none;stroke:#00AEEF;stroke-width:0.5;opacity:1.0;" x1="2885.5" x2="2885.5" y1="600.785" y2="720.121"/>
  <line id="right-margin-Regular-S" style="fill:none;stroke:#00AEEF;stroke-width:0.5;opacity:1.0;" x1="1495.18" x2="1495.18" y1="600.785" y2="720.121"/>
  <line id="left-margin-Regular-S" style="fill:none;stroke:#00AEEF;stroke-width:0.5;opacity:1.0;" x1="1404.51" x2="1404.51" y1="600.785" y2="720.121"/>
  <line id="right-margin-Ultralight-S" style="fill:none;stroke:#00AEEF;stroke-width:0.5;opacity:1.0;" x1="603.073" x2="603.073" y1="600.785" y2="720.121"/>
  <line id="left-margin-Ultralight-S" style="fill:none;stroke:#00AEEF;stroke-width:0.5;opacity:1.0;" x1="516.35" x2="516.35" y1="600.785" y2="720.121"/>
 </g>
 <g id="Symbols">
  <g id="Black-S"><path d="M2913.35678,650.63234c-0.01412,-0.28918 -0.02128,-0.58014 -0.02128,-0.87269c0,-9.72836 7.88639,-17.61475 17.6148,-17.61475c3.96214,0 7.6263,1.31162 10.57061,3.52315l-3.52647,4.69471c-1.96228,-1.474 -4.39723,-2.34628 -7.04414,-2.34628c-0.81057,0 -1.60235,0.08214 -2.36683,0.23859c-5.35101,1.09502 -9.37633,5.82972 -9.37633,11.50457c0,5.9687 4.45298,10.89736 10.21802,11.64511c3.00449,-4.13398 7.55819,-6.62834 12.37583,-7.14436c2.00691,-0.21499 4.06079,-0.08584 6.06975,0.40931c1.57681,0.38849 3.12515,1.00275 4.59892,1.85372c8.42513,4.86431 11.3116,15.6372 6.44758,24.06204c-4.86431,8.42513 -15.6372,11.3119 -24.06233,6.44758c-1.47377,-0.85079 -2.77961,-1.88448 -3.9046,-3.05557c-1.1247,1.17109 -2.43083,2.20478 -3.9049,3.05586c-8.42487,4.86402 -19.19787,1.97755 -24.06207,-6.44758c-4.86417,-8.42484 -1.97755,-19.19802 6.44747,-24.06212c1.47371,-0.85082 3.02163,-1.46505 4.59827,-1.85354c-0.36242,-1.25109 -0.58986,-2.55948 -0.66549,-3.90845zM2916.71109,660.13121c-1.4861,0.19406 -2.96048,0.67817 -4.3445,1.47729c-5.61667,3.24287 -7.54108,10.42499 -4.29829,16.04146c3.24279,5.61676 10.42479,7.54117 16.04146,4.29829c1.85586,-1.07127 3.30262,-2.56647 4.29726,-4.29154c1.78848,-3.10225 2.1123,-6.93815 0.67875,-10.37949c-1.12793,-0.1189 -2.22445,-0.34407 -3.27869,-0.66554c-0.13299,-0.04051 -0.2654,-0.08279 -0.39721,-0.12624c-3.52418,-1.16698 -6.55512,-3.41638 -8.69878,-6.35423zM2934.33908,678.92467c0.91127,1.18988 2.06768,2.22445 3.45161,3.02357c5.61676,3.24258 12.79858,1.31817 16.04146,-4.29859c1.46643,-2.53946 1.87626,-5.39921 1.36573,-8.0702c-0.61798,-3.23612 -2.58702,-6.19511 -5.66402,-7.97185c-1.85601,-1.07127 -3.87407,-1.57681 -5.86512,-1.57564c-3.58078,0.00235 -7.06439,1.63993 -9.32818,4.60215c0.32675,0.73365 0.5989,1.47993 0.8185,2.23443v0c0.12859,0.44272 0.23927,0.88808 0.33204,1.3352c0.03963,0.19171 0.07604,0.38341 0.10921,0.57571c0.59655,3.45866 0.13446,6.99452 -1.26122,10.14521zM2950.26017,649.75964c0.84727,0.98061 1.55186,2.0953 2.08206,3.3119l0.72367,1.66072c0.52991,1.2158 2.21153,1.2158 2.74115,0l0.72397,-1.66072c1.29028,-2.96116 3.61425,-5.31877 6.51423,-6.60855l2.23003,-0.99189c1.20602,-0.53634 1.20602,-2.29112 0,-2.82746l-2.10526,-0.93646c-2.97454,-1.32296 -5.3402,-3.76782 -6.60847,-6.82956l-0.74334,-1.79465c-0.51787,-1.25076 -2.24529,-1.25076 -2.76346,0l-0.74334,1.79465c-0.23369,0.56473 -0.50496,1.10847 -0.81057,1.62804c-1.35076,2.2974 -3.37176,4.12258 -5.7976,5.20152l-2.10555,0.93646c-1.20573,0.53634 -1.20573,2.29112 0,2.82746l2.23032,0.99189c1.70834,0.75987 3.21704,1.89041 4.43216,3.29666z" className="SFSymbolsPreviewWireframe"/></g>
  <g id="Regular-S"><path d="M1429.80173,650.63234c-0.01412,-0.28918 -0.02128,-0.58014 -0.02128,-0.87269c0,-9.72836 7.88639,-17.61475 17.6148,-17.61475c3.96214,0 7.6263,1.31162 10.57061,3.52315l-3.52647,4.69471c-1.96228,-1.474 -4.39723,-2.34628 -7.04414,-2.34628c-0.81057,0 -1.60235,0.08214 -2.36683,0.23859c-5.35101,1.09502 -9.37633,5.82972 -9.37633,11.50457c0,5.9687 4.45298,10.89736 10.21802,11.64511c3.00449,-4.13398 7.55819,-6.62834 12.37583,-7.14436c2.00691,-0.21499 4.06079,-0.08584 6.06975,0.40931c1.57681,0.38849 3.12515,1.00275 4.59892,1.85372c8.42513,4.86431 11.3116,15.6372 6.44758,24.06204c-4.86431,8.42513 -15.6372,11.3119 -24.06233,6.44758c-1.47377,-0.85079 -2.77961,-1.88448 -3.9046,-3.05557c-1.1247,1.17109 -2.43083,2.20478 -3.9049,3.05586c-8.42487,4.86402 -19.19787,1.97755 -24.06207,-6.44758c-4.86417,-8.42484 -1.97755,-19.19802 6.44747,-24.06212c1.47371,-0.85082 3.02163,-1.46505 4.59827,-1.85354c-0.36242,-1.25109 -0.58986,-2.55948 -0.66549,-3.90845zM1433.15604,660.13121c-1.4861,0.19406 -2.96048,0.67817 -4.3445,1.47729c-5.61667,3.24287 -7.54108,10.42499 -4.29829,16.04146c3.24279,5.61676 10.42479,7.54117 16.04146,4.29829c1.85586,-1.07127 3.30262,-2.56647 4.29726,-4.29154c1.78848,-3.10225 2.1123,-6.93815 0.67875,-10.37949c-1.12793,-0.1189 -2.22445,-0.34407 -3.27869,-0.66554c-0.13299,-0.04051 -0.2654,-0.08279 -0.39721,-0.12624c-3.52418,-1.16698 -6.55512,-3.41638 -8.69878,-6.35423zM1450.78403,678.92467c0.91127,1.18988 2.06768,2.22445 3.45161,3.02357c5.61676,3.24258 12.79858,1.31817 16.04146,-4.29859c1.46643,-2.53946 1.87626,-5.39921 1.36573,-8.0702c-0.61798,-3.23612 -2.58702,-6.19511 -5.66402,-7.97185c-1.85601,-1.07127 -3.87407,-1.57681 -5.86512,-1.57564c-3.58078,0.00235 -7.06439,1.63993 -9.32818,4.60215c0.32675,0.73365 0.5989,1.47993 0.8185,2.23443v0c0.12859,0.44272 0.23927,0.88808 0.33204,1.3352c0.03963,0.19171 0.07604,0.38341 0.10921,0.57571c0.59655,3.45866 0.13446,6.99452 -1.26122,10.14521zM1466.70512,649.75964c0.84727,0.98061 1.55186,2.0953 2.08206,3.3119l0.72367,1.66072c0.52991,1.2158 2.21153,1.2158 2.74115,0l0.72397,-1.66072c1.29028,-2.96116 3.61425,-5.31877 6.51423,-6.60855l2.23003,-0.99189c1.20602,-0.53634 1.20602,-2.29112 0,-2.82746l-2.10526,-0.93646c-2.97454,-1.32296 -5.3402,-3.76782 -6.60847,-6.82956l-0.74334,-1.79465c-0.51787,-1.25076 -2.24529,-1.25076 -2.76346,0l-0.74334,1.79465c-0.23369,0.56473 -0.50496,1.10847 -0.81057,1.62804c-1.35076,2.2974 -3.37176,4.12258 -5.7976,5.20152l-2.10555,0.93646c-1.20573,0.53634 -1.20573,2.29112 0,2.82746l2.23032,0.99189c1.70834,0.75987 3.21704,1.89041 4.43216,3.29666z" className="SFSymbolsPreviewWireframe"/></g>
  <g id="Ultralight-S"><path d="M539.66814,650.63234c-0.01412,-0.28918 -0.02128,-0.58014 -0.02128,-0.87269c0,-9.72836 7.88639,-17.61475 17.6148,-17.61475c3.96214,0 7.6263,1.31162 10.57061,3.52315l-3.52647,4.69471c-1.96228,-1.474 -4.39723,-2.34628 -7.04414,-2.34628c-0.81057,0 -1.60235,0.08214 -2.36683,0.23859c-5.35101,1.09502 -9.37633,5.82972 -9.37633,11.50457c0,5.9687 4.45298,10.89736 10.21802,11.64511c3.00449,-4.13398 7.55819,-6.62834 12.37583,-7.14436c2.00691,-0.21499 4.06079,-0.08584 6.06975,0.40931c1.57681,0.38849 3.12515,1.00275 4.59892,1.85372c8.42513,4.86431 11.3116,15.6372 6.44758,24.06204c-4.86431,8.42513 -15.6372,11.3119 -24.06233,6.44758c-1.47377,-0.85079 -2.77961,-1.88448 -3.9046,-3.05557c-1.1247,1.17109 -2.43083,2.20478 -3.9049,3.05586c-8.42487,4.86402 -19.19787,1.97755 -24.06207,-6.44758c-4.86417,-8.42484 -1.97755,-19.19802 6.44747,-24.06212c1.47371,-0.85082 3.02163,-1.46505 4.59827,-1.85354c-0.36242,-1.25109 -0.58986,-2.55948 -0.66549,-3.90845zM543.02245,660.13121c-1.4861,0.19406 -2.96048,0.67817 -4.3445,1.47729c-5.61667,3.24287 -7.54108,10.42499 -4.29829,16.04146c3.24279,5.61676 10.42479,7.54117 16.04146,4.29829c1.85586,-1.07127 3.30262,-2.56647 4.29726,-4.29154c1.78848,-3.10225 2.1123,-6.93815 0.67875,-10.37949c-1.12793,-0.1189 -2.22445,-0.34407 -3.27869,-0.66554c-0.13299,-0.04051 -0.2654,-0.08279 -0.39721,-0.12624c-3.52418,-1.16698 -6.55512,-3.41638 -8.69878,-6.35423zM560.65044,678.92467c0.91127,1.18988 2.06768,2.22445 3.45161,3.02357c5.61676,3.24258 12.79858,1.31817 16.04146,-4.29859c1.46643,-2.53946 1.87626,-5.39921 1.36573,-8.0702c-0.61798,-3.23612 -2.58702,-6.19511 -5.66402,-7.97185c-1.85601,-1.07127 -3.87407,-1.57681 -5.86512,-1.57564c-3.58078,0.00235 -7.06439,1.63993 -9.32818,4.60215c0.32675,0.73365 0.5989,1.47993 0.8185,2.23443v0c0.12859,0.44272 0.23927,0.88808 0.33204,1.3352c0.03963,0.19171 0.07604,0.38341 0.10921,0.57571c0.59655,3.45866 0.13446,6.99452 -1.26122,10.14521zM576.57153,649.75964c0.84727,0.98061 1.55186,2.0953 2.08206,3.3119l0.72367,1.66072c0.52991,1.2158 2.21153,1.2158 2.74115,0l0.72397,-1.66072c1.29028,-2.96116 3.61425,-5.31877 6.51423,-6.60855l2.23003,-0.99189c1.20602,-0.53634 1.20602,-2.29112 0,-2.82746l-2.10526,-0.93646c-2.97454,-1.32296 -5.3402,-3.76782 -6.60847,-6.82956l-0.74334,-1.79465c-0.51787,-1.25076 -2.24529,-1.25076 -2.76346,0l-0.74334,1.79465c-0.23369,0.56473 -0.50496,1.10847 -0.81057,1.62804c-1.35076,2.2974 -3.37176,4.12258 -5.7976,5.20152l-2.10555,0.93646c-1.20573,0.53634 -1.20573,2.29112 0,2.82746l2.23032,0.99189c1.70834,0.75987 3.21704,1.89041 4.43216,3.29666z" className="SFSymbolsPreviewWireframe"/></g>
 </g>
</svg>