<?xml version="1.0" encoding="UTF-8"?><!--Generator: SF Tools--><!DOCTYPE svg PUBLIC "-//W3C//DTD SVG 1.1//EN" "http://www.w3.org/Graphics/SVG/1.1/DTD/svg11.dtd"><svg xmlns="http://www.w3.org/2000/svg" xmlns:xlink="http://www.w3.org/1999/xlink" version="1.1" viewBox="0 0 3300 2200">
 <!--glyph: "100092", point size: 100.0, font version: "20.0d10e1", template writer version: "138.0.0"-->
 <style>.SFSymbolsPreviewWireframe {fill:none;opacity:1.0;stroke:black;stroke-width:0.5}
</style>
 <g id="Notes">
  <rect height="2200" id="artboard" style="fill:white;opacity:1" width="3300" x="0" y="0"/>
  <line style="fill:none;stroke:black;opacity:1;stroke-width:0.5;" x1="263" x2="3036" y1="292" y2="292"/>
  <text style="stroke:none;fill:black;font-family:sans-serif;font-size:13;font-weight:bold;" transform="matrix(1 0 0 1 263 322)">Weight/Scale Variations</text>
  <text style="stroke:none;fill:black;font-family:sans-serif;font-size:13;text-anchor:middle;" transform="matrix(1 0 0 1 559.711 322)">Ultralight</text>
  <text style="stroke:none;fill:black;font-family:sans-serif;font-size:13;text-anchor:middle;" transform="matrix(1 0 0 1 856.422 322)">Thin</text>
  <text style="stroke:none;fill:black;font-family:sans-serif;font-size:13;text-anchor:middle;" transform="matrix(1 0 0 1 1153.13 322)">Light</text>
  <text style="stroke:none;fill:black;font-family:sans-serif;font-size:13;text-anchor:middle;" transform="matrix(1 0 0 1 1449.84 322)">Regular</text>
  <text style="stroke:none;fill:black;font-family:sans-serif;font-size:13;text-anchor:middle;" transform="matrix(1 0 0 1 1746.56 322)">Medium</text>
  <text style="stroke:none;fill:black;font-family:sans-serif;font-size:13;text-anchor:middle;" transform="matrix(1 0 0 1 2043.27 322)">Semibold</text>
  <text style="stroke:none;fill:black;font-family:sans-serif;font-size:13;text-anchor:middle;" transform="matrix(1 0 0 1 2339.98 322)">Bold</text>
  <text style="stroke:none;fill:black;font-family:sans-serif;font-size:13;text-anchor:middle;" transform="matrix(1 0 0 1 2636.69 322)">Heavy</text>
  <text style="stroke:none;fill:black;font-family:sans-serif;font-size:13;text-anchor:middle;" transform="matrix(1 0 0 1 2933.4 322)">Black</text>
  <line style="fill:none;stroke:black;opacity:1;stroke-width:0.5;" x1="263" x2="3036" y1="1903" y2="1903"/>
  <g transform="matrix(0.2 0 0 0.2 263 1933)">
   <path d="m46.2402 4.15039c21.7773 0 39.4531-17.627 39.4531-39.4043s-17.6758-39.4043-39.4531-39.4043c-21.7285 0-39.4043 17.627-39.4043 39.4043s17.6758 39.4043 39.4043 39.4043Zm0-7.42188c-17.6758 0-31.9336-14.3066-31.9336-31.9824s14.2578-31.9824 31.9336-31.9824 31.9824 14.3066 31.9824 31.9824-14.3066 31.9824-31.9824 31.9824Zm-17.9688-31.9824c0 2.14844 1.51367 3.61328 3.75977 3.61328h10.498v10.5957c0 2.19727 1.46484 3.71094 3.61328 3.71094 2.24609 0 3.71094-1.51367 3.71094-3.71094v-10.5957h10.5957c2.19727 0 3.71094-1.46484 3.71094-3.61328 0-2.19727-1.51367-3.71094-3.71094-3.71094h-10.5957v-10.5469c0-2.24609-1.46484-3.75977-3.71094-3.75977-2.14844 0-3.61328 1.51367-3.61328 3.75977v10.5469h-10.498c-2.24609 0-3.75977 1.51367-3.75977 3.71094Z"/>
  </g>
  <g transform="matrix(0.2 0 0 0.2 281.506 1933)">
   <path d="m58.5449 14.5508c27.4902 0 49.8047-22.3145 49.8047-49.8047s-22.3145-49.8047-49.8047-49.8047-49.8047 22.3145-49.8047 49.8047 22.3145 49.8047 49.8047 49.8047Zm0-8.30078c-22.9492 0-41.5039-18.5547-41.5039-41.5039s18.5547-41.5039 41.5039-41.5039 41.5039 18.5547 41.5039 41.5039-18.5547 41.5039-41.5039 41.5039Zm-22.6562-41.5039c0 2.39258 1.66016 4.00391 4.15039 4.00391h14.3555v14.4043c0 2.44141 1.66016 4.15039 4.05273 4.15039 2.44141 0 4.15039-1.66016 4.15039-4.15039v-14.4043h14.4043c2.44141 0 4.15039-1.61133 4.15039-4.00391 0-2.44141-1.70898-4.15039-4.15039-4.15039h-14.4043v-14.3555c0-2.49023-1.70898-4.19922-4.15039-4.19922-2.39258 0-4.05273 1.70898-4.05273 4.19922v14.3555h-14.3555c-2.49023 0-4.15039 1.70898-4.15039 4.15039Z"/>
  </g>
  <g transform="matrix(0.2 0 0 0.2 304.924 1933)">
   <path d="m74.8535 28.3203c35.1074 0 63.623-28.4668 63.623-63.5742s-28.5156-63.623-63.623-63.623-63.5742 28.5156-63.5742 63.623 28.4668 63.5742 63.5742 63.5742Zm0-9.08203c-30.127 0-54.4922-24.3652-54.4922-54.4922s24.3652-54.4922 54.4922-54.4922 54.4922 24.3652 54.4922 54.4922-24.3652 54.4922-54.4922 54.4922Zm-28.8574-54.4922c0 2.58789 1.85547 4.39453 4.58984 4.39453h19.7266v19.7754c0 2.68555 1.85547 4.58984 4.44336 4.58984 2.68555 0 4.54102-1.85547 4.54102-4.58984v-19.7754h19.7754c2.68555 0 4.58984-1.80664 4.58984-4.39453 0-2.73438-1.85547-4.58984-4.58984-4.58984h-19.7754v-19.7266c0-2.73438-1.85547-4.63867-4.54102-4.63867-2.58789 0-4.44336 1.9043-4.44336 4.63867v19.7266h-19.7266c-2.73438 0-4.58984 1.85547-4.58984 4.58984Z"/>
  </g>
  <text style="stroke:none;fill:black;font-family:sans-serif;font-size:13;font-weight:bold;" transform="matrix(1 0 0 1 263 1953)">Design Variations</text>
  <text style="stroke:none;fill:black;font-family:sans-serif;font-size:13;" transform="matrix(1 0 0 1 263 1971)">Symbols are supported in up to nine weights and three scales.</text>
  <text style="stroke:none;fill:black;font-family:sans-serif;font-size:13;" transform="matrix(1 0 0 1 263 1989)">For optimal layout with text and other symbols, vertically align</text>
  <text style="stroke:none;fill:black;font-family:sans-serif;font-size:13;" transform="matrix(1 0 0 1 263 2007)">symbols with the adjacent text.</text>
  <line style="fill:none;stroke:#00AEEF;stroke-width:0.5;opacity:1.0;" x1="776" x2="776" y1="1919" y2="1933"/>
  <g transform="matrix(0.2 0 0 0.2 776 1933)">
   <path d="m16.5527 0.78125c2.58789 0 3.85742-0.976562 4.78516-3.71094l6.29883-17.2363h28.8086l6.29883 17.2363c0.927734 2.73438 2.19727 3.71094 4.73633 3.71094 2.58789 0 4.24805-1.5625 4.24805-4.00391 0-0.830078-0.146484-1.61133-0.537109-2.63672l-22.9004-60.9863c-1.12305-2.97852-3.125-4.49219-6.25-4.49219-3.02734 0-5.07812 1.46484-6.15234 4.44336l-22.9004 61.084c-0.390625 1.02539-0.537109 1.80664-0.537109 2.63672 0 2.44141 1.5625 3.95508 4.10156 3.95508Zm13.4766-28.3691 11.8652-32.8613h0.244141l11.8652 32.8613Z"/>
  </g>
  <line style="fill:none;stroke:#00AEEF;stroke-width:0.5;opacity:1.0;" x1="792.836" x2="792.836" y1="1919" y2="1933"/>
  <text style="stroke:none;fill:black;font-family:sans-serif;font-size:13;font-weight:bold;" transform="matrix(1 0 0 1 776 1953)">Margins</text>
  <text style="stroke:none;fill:black;font-family:sans-serif;font-size:13;" transform="matrix(1 0 0 1 776 1971)">Leading and trailing margins on the left and right side of each symbol</text>
  <text style="stroke:none;fill:black;font-family:sans-serif;font-size:13;" transform="matrix(1 0 0 1 776 1989)">can be adjusted by modifying the x-location of the margin guidelines.</text>
  <text style="stroke:none;fill:black;font-family:sans-serif;font-size:13;" transform="matrix(1 0 0 1 776 2007)">Modifications are automatically applied proportionally to all</text>
  <text style="stroke:none;fill:black;font-family:sans-serif;font-size:13;" transform="matrix(1 0 0 1 776 2025)">scales and weights.</text>
  <g transform="matrix(0.2 0 0 0.2 1289 1933)">
   <path d="m14.209 9.32617 8.49609 8.54492c4.29688 4.3457 9.22852 4.05273 13.8672-1.07422l53.4668-58.9355-4.83398-4.88281-53.0762 58.3984c-1.75781 2.00195-3.41797 2.49023-5.76172 0.146484l-5.85938-5.81055c-2.34375-2.29492-1.80664-4.00391 0.195312-5.81055l57.373-54.0039-4.88281-4.83398-57.959 54.4434c-4.93164 4.58984-5.32227 9.47266-1.02539 13.8184Zm32.0801-90.9668c-2.09961 2.05078-2.24609 4.93164-1.07422 6.88477 1.17188 1.80664 3.4668 2.97852 6.68945 2.14844 7.32422-1.70898 14.9414-2.00195 22.0703 2.68555l-2.92969 7.27539c-1.70898 4.15039-0.830078 7.08008 1.85547 9.81445l11.4746 11.5723c2.44141 2.44141 4.49219 2.53906 7.32422 2.05078l5.32227-0.976562 3.32031 3.36914-0.195312 2.7832c-0.195312 2.49023 0.439453 4.39453 2.88086 6.78711l3.80859 3.71094c2.39258 2.39258 5.46875 2.53906 7.8125 0.195312l14.5508-14.5996c2.34375-2.34375 2.24609-5.32227-0.146484-7.71484l-3.85742-3.80859c-2.39258-2.39258-4.24805-3.17383-6.64062-2.97852l-2.88086 0.244141-3.22266-3.17383 1.2207-5.61523c0.634766-2.83203-0.146484-5.0293-3.07617-7.95898l-10.9863-10.9375c-16.6992-16.6016-38.8672-16.2109-53.3203-1.75781Zm7.4707 1.85547c12.1582-8.88672 28.6133-7.37305 39.7461 3.75977l12.1582 12.0605c1.17188 1.17188 1.36719 2.09961 1.02539 3.80859l-1.61133 7.42188 7.51953 7.42188 4.93164-0.292969c1.26953-0.0488281 1.66016 0.0488281 2.63672 1.02539l2.88086 2.88086-12.207 12.207-2.88086-2.88086c-0.976562-0.976562-1.12305-1.36719-1.07422-2.68555l0.341797-4.88281-7.4707-7.42188-7.61719 1.26953c-1.61133 0.341797-2.34375 0.195312-3.56445-0.976562l-10.0098-10.0098c-1.26953-1.17188-1.41602-2.00195-0.634766-3.85742l4.39453-10.4492c-7.8125-7.27539-17.9688-10.4004-28.125-7.42188-0.78125 0.195312-1.07422-0.439453-0.439453-0.976562Z"/>
  </g>
  <text style="stroke:none;fill:black;font-family:sans-serif;font-size:13;font-weight:bold;" transform="matrix(1 0 0 1 1289 1953)">Exporting</text>
  <text style="stroke:none;fill:black;font-family:sans-serif;font-size:13;" transform="matrix(1 0 0 1 1289 1971)">Symbols should be outlined when exporting to ensure the</text>
  <text style="stroke:none;fill:black;font-family:sans-serif;font-size:13;" transform="matrix(1 0 0 1 1289 1989)">design is preserved when submitting to Xcode.</text>
  <text id="template-version" style="stroke:none;fill:black;font-family:sans-serif;font-size:13;text-anchor:end;" transform="matrix(1 0 0 1 3036 1933)">Template v.6.0</text>
  <text style="stroke:none;fill:black;font-family:sans-serif;font-size:13;text-anchor:end;" transform="matrix(1 0 0 1 3036 1951)">Requires Xcode 16 or greater</text>
  <text id="descriptive-name" style="stroke:none;fill:black;font-family:sans-serif;font-size:13;text-anchor:end;" transform="matrix(1 0 0 1 3036 1969)">Generated from square</text>
  <text style="stroke:none;fill:black;font-family:sans-serif;font-size:13;text-anchor:end;" transform="matrix(1 0 0 1 3036 1987)">Typeset at 100.0 points</text>
  <text style="stroke:none;fill:black;font-family:sans-serif;font-size:13;" transform="matrix(1 0 0 1 263 726)">Small</text>
  <text style="stroke:none;fill:black;font-family:sans-serif;font-size:13;" transform="matrix(1 0 0 1 263 1156)">Medium</text>
  <text style="stroke:none;fill:black;font-family:sans-serif;font-size:13;" transform="matrix(1 0 0 1 263 1586)">Large</text>
 </g>
 <g id="Guides">
  <g id="H-reference" style="fill:#27AAE1;stroke:none;" transform="matrix(1 0 0 1 339 696)">
   <path d="M0.993654 0L3.63775 0L29.3281-67.1323L30.0303-67.1323L30.0303-70.459L28.1226-70.459ZM11.6885-24.4799L46.9815-24.4799L46.2315-26.7285L12.4385-26.7285ZM55.1196 0L57.7637 0L30.6382-70.459L29.4326-70.459L29.4326-67.1323Z"/>
  </g>
  <line id="Baseline-S" style="fill:none;stroke:#27AAE1;opacity:1;stroke-width:0.5;" x1="263" x2="3036" y1="696" y2="696"/>
  <line id="Capline-S" style="fill:none;stroke:#27AAE1;opacity:1;stroke-width:0.5;" x1="263" x2="3036" y1="625.541" y2="625.541"/>
  <g id="H-reference" style="fill:#27AAE1;stroke:none;" transform="matrix(1 0 0 1 339 1126)">
   <path d="M0.993654 0L3.63775 0L29.3281-67.1323L30.0303-67.1323L30.0303-70.459L28.1226-70.459ZM11.6885-24.4799L46.9815-24.4799L46.2315-26.7285L12.4385-26.7285ZM55.1196 0L57.7637 0L30.6382-70.459L29.4326-70.459L29.4326-67.1323Z"/>
  </g>
  <line id="Baseline-M" style="fill:none;stroke:#27AAE1;opacity:1;stroke-width:0.5;" x1="263" x2="3036" y1="1126" y2="1126"/>
  <line id="Capline-M" style="fill:none;stroke:#27AAE1;opacity:1;stroke-width:0.5;" x1="263" x2="3036" y1="1055.54" y2="1055.54"/>
  <g id="H-reference" style="fill:#27AAE1;stroke:none;" transform="matrix(1 0 0 1 339 1556)">
   <path d="M0.993654 0L3.63775 0L29.3281-67.1323L30.0303-67.1323L30.0303-70.459L28.1226-70.459ZM11.6885-24.4799L46.9815-24.4799L46.2315-26.7285L12.4385-26.7285ZM55.1196 0L57.7637 0L30.6382-70.459L29.4326-70.459L29.4326-67.1323Z"/>
  </g>
  <line id="Baseline-L" style="fill:none;stroke:#27AAE1;opacity:1;stroke-width:0.5;" x1="263" x2="3036" y1="1556" y2="1556"/>
  <line id="Capline-L" style="fill:none;stroke:#27AAE1;opacity:1;stroke-width:0.5;" x1="263" x2="3036" y1="1485.54" y2="1485.54"/>
  <line id="right-margin-Black-S" style="fill:none;stroke:#00AEEF;stroke-width:0.5;opacity:1.0;" x1="2981.3" x2="2981.3" y1="600.785" y2="720.121"/>
  <line id="left-margin-Black-S" style="fill:none;stroke:#00AEEF;stroke-width:0.5;opacity:1.0;" x1="2885.5" x2="2885.5" y1="600.785" y2="720.121"/>
  <line id="right-margin-Regular-S" style="fill:none;stroke:#00AEEF;stroke-width:0.5;opacity:1.0;" x1="1495.18" x2="1495.18" y1="600.785" y2="720.121"/>
  <line id="left-margin-Regular-S" style="fill:none;stroke:#00AEEF;stroke-width:0.5;opacity:1.0;" x1="1404.51" x2="1404.51" y1="600.785" y2="720.121"/>
  <line id="right-margin-Ultralight-S" style="fill:none;stroke:#00AEEF;stroke-width:0.5;opacity:1.0;" x1="603.073" x2="603.073" y1="600.785" y2="720.121"/>
  <line id="left-margin-Ultralight-S" style="fill:none;stroke:#00AEEF;stroke-width:0.5;opacity:1.0;" x1="516.35" x2="516.35" y1="600.785" y2="720.121"/>
 </g>
 <g id="Symbols">
  <g id="Black-S"><path d="M2945.40142,641.8208l0.16352,0.0935c-2.22357,1.17549 -8.58249,4.95905 -8.58249,9.78141c0,1.62619 0.93065,3.19602 1.80258,4.66741c0.76918,1.2978 1.49314,2.51917 1.49314,3.63477c0,2.8119 -2.73968,4.98967 -4.28684,5.99547l-0.29417,-0.16998c0.5854,-0.71369 1.30437,-1.90768 1.30437,-3.18122c0,-1.75619 -0.89982,-3.15891 -1.81403,-4.58394c-0.94386,-1.47154 -1.90357,-2.96715 -1.90357,-4.90124c0,-6.73095 9.14587,-10.34094 12.11748,-11.33618zM2933.38024,645.38024c3.67678,-3.28876 7.695,-6.88331 7.695,-12.28808c0,-2.44601 -1.00022,-4.00721 -1.49696,-4.63171l-0.15883,0.09145c0.12154,0.48537 0.29534,1.38467 0.29534,2.5581c0,4.92021 -4.17381,8.36982 -8.21464,11.70958c-3.79163,3.13363 -7.46613,6.17056 -7.46613,10.23478c0,5.82558 5.74928,9.41165 8.17571,10.92505c0.06459,0.04022 0.12683,0.07897 0.18642,0.11626l0.14826,-0.08543c-0.1327,-0.14327 -0.27303,-0.2927 -0.41923,-0.4483c-1.86658,-1.98577 -4.7019,-5.00229 -4.7019,-9.6129c0,-3.24009 2.85705,-5.79575 5.95695,-8.56881zM2932.0515,674.46577c5.1802,0 8.80268,-0.74246 10.4109,-1.1981l2.44346,1.41123c-2.32838,1.18136 -7.49008,2.08324 -12.86434,2.08324c-6.32176,0 -13.23182,-1.35722 -13.25436,-3.1642c-0.01306,-0.99582 2.24838,-1.66078 4.68273,-2.09116l0.14667,0.08514c0,0 -0.82422,0.2971 -0.81565,0.97879c0.01295,1.02488 4.16686,1.89505 9.25059,1.89505zM2921.69294,680.84025c0,-1.19633 2.46052,-1.76118 3.58947,-1.98606l0.14655,0.08484c-0.19406,0.14444 -0.29822,0.34202 -0.29822,0.50877c0,0.78503 2.72823,1.50224 6.91575,1.50224c3.75194,0 5.83547,-0.46297 7.07232,-0.75773l2.90761,1.6825c-0.12947,0.09306 -2.99392,1.89241 -9.98697,1.89241c-5.08221,0 -10.34652,-1.26944 -10.34652,-2.92698zM2946.73045,675.76691c3.4657,-1.97461 6.93316,-4.3115 7.12869,-8.06462c0.12859,-2.46195 -2.13315,-4.26952 -4.60831,-3.78512l0.13123,-0.33028l0.00176,-0.00587c0.6218,-0.18936 1.38834,-0.34143 2.24999,-0.34143c2.76728,0 4.88985,1.65931 5.16171,3.98181c0.54547,4.65675 -6.05301,7.68619 -9.75094,8.72664zM2952.52805,684.53846c0.02789,3.20001 -10.85626,5.10417 -20.5843,5.18872c-8.39971,0.07369 -21.94272,-1.51369 -21.97078,-4.71077c-0.01946,-2.21153 5.87331,-3.74313 9.07142,-4.1835l0.33718,0.19259c0,0 -4.77239,1.10533 -4.75484,3.11664c0.01756,2.00603 10.05464,3.74196 17.30059,3.67884c11.22969,-0.09806 18.83075,-1.9294 19.72998,-4.40868l0.15971,-0.0913c0.32822,0.24015 0.70606,0.63736 0.71105,1.21747zM2918.37224,691.05827c3.97174,0.6676 8.69314,0.9876 12.55984,0.95354c18.22715,-0.15912 23.36831,-4.6406 24.16508,-5.61294l0.1374,0.08015c-0.19053,3.54732 -9.82727,6.49485 -21.7134,6.59878c-6.05251,0.05255 -11.56047,-0.64793 -15.51671,-1.80786zM2926.00902,663.80415c-3.1666,0.24367 -9.96763,1.24947 -9.96763,3.04236c0,1.35399 6.23403,3.26577 16.00394,3.26577c8.79064,0 14.34016,-1.65902 15.63279,-2.29197l-1.88742,-1.09828c-1.34929,0.36815 -6.36597,1.48522 -13.74567,1.48522c-4.34518,0 -11.8308,-0.80118 -11.8308,-2.02364c0,-1.09887 4.67284,-1.94643 6.0135,-2.18981c0.02948,-0.00528 0.05734,-0.01028 0.08349,-0.01527z" className="SFSymbolsPreviewWireframe"/></g>
  <g id="Regular-S"><path d="M1461.84637,641.8208l0.16352,0.0935c-2.22357,1.17549 -8.58249,4.95905 -8.58249,9.78141c0,1.62619 0.93065,3.19602 1.80258,4.66741c0.76918,1.2978 1.49314,2.51917 1.49314,3.63477c0,2.8119 -2.73968,4.98967 -4.28684,5.99547l-0.29417,-0.16998c0.5854,-0.71369 1.30437,-1.90768 1.30437,-3.18122c0,-1.75619 -0.89982,-3.15891 -1.81403,-4.58394c-0.94386,-1.47154 -1.90357,-2.96715 -1.90357,-4.90124c0,-6.73095 9.14587,-10.34094 12.11748,-11.33618zM1449.82519,645.38024c3.67678,-3.28876 7.695,-6.88331 7.695,-12.28808c0,-2.44601 -1.00022,-4.00721 -1.49696,-4.63171l-0.15883,0.09145c0.12154,0.48537 0.29534,1.38467 0.29534,2.5581c0,4.92021 -4.17381,8.36982 -8.21464,11.70958c-3.79163,3.13363 -7.46613,6.17056 -7.46613,10.23478c0,5.82558 5.74928,9.41165 8.17571,10.92505c0.06459,0.04022 0.12683,0.07897 0.18642,0.11626l0.14826,-0.08543c-0.1327,-0.14327 -0.27303,-0.2927 -0.41923,-0.4483c-1.86658,-1.98577 -4.7019,-5.00229 -4.7019,-9.6129c0,-3.24009 2.85705,-5.79575 5.95695,-8.56881zM1448.49645,674.46577c5.1802,0 8.80268,-0.74246 10.4109,-1.1981l2.44346,1.41123c-2.32838,1.18136 -7.49008,2.08324 -12.86434,2.08324c-6.32176,0 -13.23182,-1.35722 -13.25436,-3.1642c-0.01306,-0.99582 2.24838,-1.66078 4.68273,-2.09116l0.14667,0.08514c0,0 -0.82422,0.2971 -0.81565,0.97879c0.01295,1.02488 4.16686,1.89505 9.25059,1.89505zM1438.13789,680.84025c0,-1.19633 2.46052,-1.76118 3.58947,-1.98606l0.14655,0.08484c-0.19406,0.14444 -0.29822,0.34202 -0.29822,0.50877c0,0.78503 2.72823,1.50224 6.91575,1.50224c3.75194,0 5.83547,-0.46297 7.07232,-0.75773l2.90761,1.6825c-0.12947,0.09306 -2.99392,1.89241 -9.98697,1.89241c-5.08221,0 -10.34652,-1.26944 -10.34652,-2.92698zM1463.1754,675.76691c3.4657,-1.97461 6.93316,-4.3115 7.12869,-8.06462c0.12859,-2.46195 -2.13315,-4.26952 -4.60831,-3.78512l0.13123,-0.33028l0.00176,-0.00587c0.6218,-0.18936 1.38834,-0.34143 2.24999,-0.34143c2.76728,0 4.88985,1.65931 5.16171,3.98181c0.54547,4.65675 -6.05301,7.68619 -9.75094,8.72664zM1468.973,684.53846c0.02789,3.20001 -10.85626,5.10417 -20.5843,5.18872c-8.39971,0.07369 -21.94272,-1.51369 -21.97078,-4.71077c-0.01946,-2.21153 5.87331,-3.74313 9.07142,-4.1835l0.33718,0.19259c0,0 -4.77239,1.10533 -4.75484,3.11664c0.01756,2.00603 10.05464,3.74196 17.30059,3.67884c11.22969,-0.09806 18.83075,-1.9294 19.72998,-4.40868l0.15971,-0.0913c0.32822,0.24015 0.70606,0.63736 0.71105,1.21747zM1434.81719,691.05827c3.97174,0.6676 8.69314,0.9876 12.55984,0.95354c18.22715,-0.15912 23.36831,-4.6406 24.16508,-5.61294l0.1374,0.08015c-0.19053,3.54732 -9.82727,6.49485 -21.7134,6.59878c-6.05251,0.05255 -11.56047,-0.64793 -15.51671,-1.80786zM1442.45398,663.80415c-3.1666,0.24367 -9.96763,1.24947 -9.96763,3.04236c0,1.35399 6.23403,3.26577 16.00394,3.26577c8.79064,0 14.34016,-1.65902 15.63279,-2.29197l-1.88742,-1.09828c-1.34929,0.36815 -6.36597,1.48522 -13.74567,1.48522c-4.34518,0 -11.8308,-0.80118 -11.8308,-2.02364c0,-1.09887 4.67284,-1.94643 6.0135,-2.18981c0.02948,-0.00528 0.05734,-0.01028 0.08349,-0.01527z" className="SFSymbolsPreviewWireframe"/></g>
  <g id="Ultralight-S"><path d="M571.71278,641.8208l0.16352,0.0935c-2.22357,1.17549 -8.58249,4.95905 -8.58249,9.78141c0,1.62619 0.93065,3.19602 1.80258,4.66741c0.76918,1.2978 1.49314,2.51917 1.49314,3.63477c0,2.8119 -2.73968,4.98967 -4.28684,5.99547l-0.29417,-0.16998c0.5854,-0.71369 1.30437,-1.90768 1.30437,-3.18122c0,-1.75619 -0.89982,-3.15891 -1.81403,-4.58394c-0.94386,-1.47154 -1.90357,-2.96715 -1.90357,-4.90124c0,-6.73095 9.14587,-10.34094 12.11748,-11.33618zM559.6916,645.38024c3.67678,-3.28876 7.695,-6.88331 7.695,-12.28808c0,-2.44601 -1.00022,-4.00721 -1.49696,-4.63171l-0.15883,0.09145c0.12154,0.48537 0.29534,1.38467 0.29534,2.5581c0,4.92021 -4.17381,8.36982 -8.21464,11.70958c-3.79163,3.13363 -7.46613,6.17056 -7.46613,10.23478c0,5.82558 5.74928,9.41165 8.17571,10.92505c0.06459,0.04022 0.12683,0.07897 0.18642,0.11626l0.14826,-0.08543c-0.1327,-0.14327 -0.27303,-0.2927 -0.41923,-0.4483c-1.86658,-1.98577 -4.7019,-5.00229 -4.7019,-9.6129c0,-3.24009 2.85705,-5.79575 5.95695,-8.56881zM558.36286,674.46577c5.1802,0 8.80268,-0.74246 10.4109,-1.1981l2.44346,1.41123c-2.32838,1.18136 -7.49008,2.08324 -12.86434,2.08324c-6.32176,0 -13.23182,-1.35722 -13.25436,-3.1642c-0.01306,-0.99582 2.24838,-1.66078 4.68273,-2.09116l0.14667,0.08514c0,0 -0.82422,0.2971 -0.81565,0.97879c0.01295,1.02488 4.16686,1.89505 9.25059,1.89505zM548.0043,680.84025c0,-1.19633 2.46052,-1.76118 3.58947,-1.98606l0.14655,0.08484c-0.19406,0.14444 -0.29822,0.34202 -0.29822,0.50877c0,0.78503 2.72823,1.50224 6.91575,1.50224c3.75194,0 5.83547,-0.46297 7.07232,-0.75773l2.90761,1.6825c-0.12947,0.09306 -2.99392,1.89241 -9.98697,1.89241c-5.08221,0 -10.34652,-1.26944 -10.34652,-2.92698zM573.04181,675.76691c3.4657,-1.97461 6.93316,-4.3115 7.12869,-8.06462c0.12859,-2.46195 -2.13315,-4.26952 -4.60831,-3.78512l0.13123,-0.33028l0.00176,-0.00587c0.6218,-0.18936 1.38834,-0.34143 2.24999,-0.34143c2.76728,0 4.88985,1.65931 5.16171,3.98181c0.54547,4.65675 -6.05301,7.68619 -9.75094,8.72664zM578.83941,684.53846c0.02789,3.20001 -10.85626,5.10417 -20.5843,5.18872c-8.39971,0.07369 -21.94272,-1.51369 -21.97078,-4.71077c-0.01946,-2.21153 5.87331,-3.74313 9.07142,-4.1835l0.33718,0.19259c0,0 -4.77239,1.10533 -4.75484,3.11664c0.01756,2.00603 10.05464,3.74196 17.30059,3.67884c11.22969,-0.09806 18.83075,-1.9294 19.72998,-4.40868l0.15971,-0.0913c0.32822,0.24015 0.70606,0.63736 0.71105,1.21747zM544.6836,691.05827c3.97174,0.6676 8.69314,0.9876 12.55984,0.95354c18.22715,-0.15912 23.36831,-4.6406 24.16508,-5.61294l0.1374,0.08015c-0.19053,3.54732 -9.82727,6.49485 -21.7134,6.59878c-6.05251,0.05255 -11.56047,-0.64793 -15.51671,-1.80786zM552.32039,663.80415c-3.1666,0.24367 -9.96763,1.24947 -9.96763,3.04236c0,1.35399 6.23403,3.26577 16.00394,3.26577c8.79064,0 14.34016,-1.65902 15.63279,-2.29197l-1.88742,-1.09828c-1.34929,0.36815 -6.36597,1.48522 -13.74567,1.48522c-4.34518,0 -11.8308,-0.80118 -11.8308,-2.02364c0,-1.09887 4.67284,-1.94643 6.0135,-2.18981c0.02948,-0.00528 0.05734,-0.01028 0.08349,-0.01527z" className="SFSymbolsPreviewWireframe"/></g>
 </g>
</svg>