<?xml version="1.0" encoding="UTF-8"?><!--Generator: SF Tools--><!DOCTYPE svg PUBLIC "-//W3C//DTD SVG 1.1//EN" "http://www.w3.org/Graphics/SVG/1.1/DTD/svg11.dtd"><svg xmlns="http://www.w3.org/2000/svg" xmlns:xlink="http://www.w3.org/1999/xlink" version="1.1" viewBox="0 0 3300 2200">
 <!--glyph: "100092", point size: 100.0, font version: "20.0d10e1", template writer version: "138.0.0"-->
 <style>.SFSymbolsPreviewWireframe {fill:none;opacity:1.0;stroke:black;stroke-width:0.5}
</style>
 <g id="Notes">
  <rect height="2200" id="artboard" style="fill:white;opacity:1" width="3300" x="0" y="0"/>
  <line style="fill:none;stroke:black;opacity:1;stroke-width:0.5;" x1="263" x2="3036" y1="292" y2="292"/>
  <text style="stroke:none;fill:black;font-family:sans-serif;font-size:13;font-weight:bold;" transform="matrix(1 0 0 1 263 322)">Weight/Scale Variations</text>
  <text style="stroke:none;fill:black;font-family:sans-serif;font-size:13;text-anchor:middle;" transform="matrix(1 0 0 1 559.711 322)">Ultralight</text>
  <text style="stroke:none;fill:black;font-family:sans-serif;font-size:13;text-anchor:middle;" transform="matrix(1 0 0 1 856.422 322)">Thin</text>
  <text style="stroke:none;fill:black;font-family:sans-serif;font-size:13;text-anchor:middle;" transform="matrix(1 0 0 1 1153.13 322)">Light</text>
  <text style="stroke:none;fill:black;font-family:sans-serif;font-size:13;text-anchor:middle;" transform="matrix(1 0 0 1 1449.84 322)">Regular</text>
  <text style="stroke:none;fill:black;font-family:sans-serif;font-size:13;text-anchor:middle;" transform="matrix(1 0 0 1 1746.56 322)">Medium</text>
  <text style="stroke:none;fill:black;font-family:sans-serif;font-size:13;text-anchor:middle;" transform="matrix(1 0 0 1 2043.27 322)">Semibold</text>
  <text style="stroke:none;fill:black;font-family:sans-serif;font-size:13;text-anchor:middle;" transform="matrix(1 0 0 1 2339.98 322)">Bold</text>
  <text style="stroke:none;fill:black;font-family:sans-serif;font-size:13;text-anchor:middle;" transform="matrix(1 0 0 1 2636.69 322)">Heavy</text>
  <text style="stroke:none;fill:black;font-family:sans-serif;font-size:13;text-anchor:middle;" transform="matrix(1 0 0 1 2933.4 322)">Black</text>
  <line style="fill:none;stroke:black;opacity:1;stroke-width:0.5;" x1="263" x2="3036" y1="1903" y2="1903"/>
  <g transform="matrix(0.2 0 0 0.2 263 1933)">
   <path d="m46.2402 4.15039c21.7773 0 39.4531-17.627 39.4531-39.4043s-17.6758-39.4043-39.4531-39.4043c-21.7285 0-39.4043 17.627-39.4043 39.4043s17.6758 39.4043 39.4043 39.4043Zm0-7.42188c-17.6758 0-31.9336-14.3066-31.9336-31.9824s14.2578-31.9824 31.9336-31.9824 31.9824 14.3066 31.9824 31.9824-14.3066 31.9824-31.9824 31.9824Zm-17.9688-31.9824c0 2.14844 1.51367 3.61328 3.75977 3.61328h10.498v10.5957c0 2.19727 1.46484 3.71094 3.61328 3.71094 2.24609 0 3.71094-1.51367 3.71094-3.71094v-10.5957h10.5957c2.19727 0 3.71094-1.46484 3.71094-3.61328 0-2.19727-1.51367-3.71094-3.71094-3.71094h-10.5957v-10.5469c0-2.24609-1.46484-3.75977-3.71094-3.75977-2.14844 0-3.61328 1.51367-3.61328 3.75977v10.5469h-10.498c-2.24609 0-3.75977 1.51367-3.75977 3.71094Z"/>
  </g>
  <g transform="matrix(0.2 0 0 0.2 281.506 1933)">
   <path d="m58.5449 14.5508c27.4902 0 49.8047-22.3145 49.8047-49.8047s-22.3145-49.8047-49.8047-49.8047-49.8047 22.3145-49.8047 49.8047 22.3145 49.8047 49.8047 49.8047Zm0-8.30078c-22.9492 0-41.5039-18.5547-41.5039-41.5039s18.5547-41.5039 41.5039-41.5039 41.5039 18.5547 41.5039 41.5039-18.5547 41.5039-41.5039 41.5039Zm-22.6562-41.5039c0 2.39258 1.66016 4.00391 4.15039 4.00391h14.3555v14.4043c0 2.44141 1.66016 4.15039 4.05273 4.15039 2.44141 0 4.15039-1.66016 4.15039-4.15039v-14.4043h14.4043c2.44141 0 4.15039-1.61133 4.15039-4.00391 0-2.44141-1.70898-4.15039-4.15039-4.15039h-14.4043v-14.3555c0-2.49023-1.70898-4.19922-4.15039-4.19922-2.39258 0-4.05273 1.70898-4.05273 4.19922v14.3555h-14.3555c-2.49023 0-4.15039 1.70898-4.15039 4.15039Z"/>
  </g>
  <g transform="matrix(0.2 0 0 0.2 304.924 1933)">
   <path d="m74.8535 28.3203c35.1074 0 63.623-28.4668 63.623-63.5742s-28.5156-63.623-63.623-63.623-63.5742 28.5156-63.5742 63.623 28.4668 63.5742 63.5742 63.5742Zm0-9.08203c-30.127 0-54.4922-24.3652-54.4922-54.4922s24.3652-54.4922 54.4922-54.4922 54.4922 24.3652 54.4922 54.4922-24.3652 54.4922-54.4922 54.4922Zm-28.8574-54.4922c0 2.58789 1.85547 4.39453 4.58984 4.39453h19.7266v19.7754c0 2.68555 1.85547 4.58984 4.44336 4.58984 2.68555 0 4.54102-1.85547 4.54102-4.58984v-19.7754h19.7754c2.68555 0 4.58984-1.80664 4.58984-4.39453 0-2.73438-1.85547-4.58984-4.58984-4.58984h-19.7754v-19.7266c0-2.73438-1.85547-4.63867-4.54102-4.63867-2.58789 0-4.44336 1.9043-4.44336 4.63867v19.7266h-19.7266c-2.73438 0-4.58984 1.85547-4.58984 4.58984Z"/>
  </g>
  <text style="stroke:none;fill:black;font-family:sans-serif;font-size:13;font-weight:bold;" transform="matrix(1 0 0 1 263 1953)">Design Variations</text>
  <text style="stroke:none;fill:black;font-family:sans-serif;font-size:13;" transform="matrix(1 0 0 1 263 1971)">Symbols are supported in up to nine weights and three scales.</text>
  <text style="stroke:none;fill:black;font-family:sans-serif;font-size:13;" transform="matrix(1 0 0 1 263 1989)">For optimal layout with text and other symbols, vertically align</text>
  <text style="stroke:none;fill:black;font-family:sans-serif;font-size:13;" transform="matrix(1 0 0 1 263 2007)">symbols with the adjacent text.</text>
  <line style="fill:none;stroke:#00AEEF;stroke-width:0.5;opacity:1.0;" x1="776" x2="776" y1="1919" y2="1933"/>
  <g transform="matrix(0.2 0 0 0.2 776 1933)">
   <path d="m16.5527 0.78125c2.58789 0 3.85742-0.976562 4.78516-3.71094l6.29883-17.2363h28.8086l6.29883 17.2363c0.927734 2.73438 2.19727 3.71094 4.73633 3.71094 2.58789 0 4.24805-1.5625 4.24805-4.00391 0-0.830078-0.146484-1.61133-0.537109-2.63672l-22.9004-60.9863c-1.12305-2.97852-3.125-4.49219-6.25-4.49219-3.02734 0-5.07812 1.46484-6.15234 4.44336l-22.9004 61.084c-0.390625 1.02539-0.537109 1.80664-0.537109 2.63672 0 2.44141 1.5625 3.95508 4.10156 3.95508Zm13.4766-28.3691 11.8652-32.8613h0.244141l11.8652 32.8613Z"/>
  </g>
  <line style="fill:none;stroke:#00AEEF;stroke-width:0.5;opacity:1.0;" x1="792.836" x2="792.836" y1="1919" y2="1933"/>
  <text style="stroke:none;fill:black;font-family:sans-serif;font-size:13;font-weight:bold;" transform="matrix(1 0 0 1 776 1953)">Margins</text>
  <text style="stroke:none;fill:black;font-family:sans-serif;font-size:13;" transform="matrix(1 0 0 1 776 1971)">Leading and trailing margins on the left and right side of each symbol</text>
  <text style="stroke:none;fill:black;font-family:sans-serif;font-size:13;" transform="matrix(1 0 0 1 776 1989)">can be adjusted by modifying the x-location of the margin guidelines.</text>
  <text style="stroke:none;fill:black;font-family:sans-serif;font-size:13;" transform="matrix(1 0 0 1 776 2007)">Modifications are automatically applied proportionally to all</text>
  <text style="stroke:none;fill:black;font-family:sans-serif;font-size:13;" transform="matrix(1 0 0 1 776 2025)">scales and weights.</text>
  <g transform="matrix(0.2 0 0 0.2 1289 1933)">
   <path d="m14.209 9.32617 8.49609 8.54492c4.29688 4.3457 9.22852 4.05273 13.8672-1.07422l53.4668-58.9355-4.83398-4.88281-53.0762 58.3984c-1.75781 2.00195-3.41797 2.49023-5.76172 0.146484l-5.85938-5.81055c-2.34375-2.29492-1.80664-4.00391 0.195312-5.81055l57.373-54.0039-4.88281-4.83398-57.959 54.4434c-4.93164 4.58984-5.32227 9.47266-1.02539 13.8184Zm32.0801-90.9668c-2.09961 2.05078-2.24609 4.93164-1.07422 6.88477 1.17188 1.80664 3.4668 2.97852 6.68945 2.14844 7.32422-1.70898 14.9414-2.00195 22.0703 2.68555l-2.92969 7.27539c-1.70898 4.15039-0.830078 7.08008 1.85547 9.81445l11.4746 11.5723c2.44141 2.44141 4.49219 2.53906 7.32422 2.05078l5.32227-0.976562 3.32031 3.36914-0.195312 2.7832c-0.195312 2.49023 0.439453 4.39453 2.88086 6.78711l3.80859 3.71094c2.39258 2.39258 5.46875 2.53906 7.8125 0.195312l14.5508-14.5996c2.34375-2.34375 2.24609-5.32227-0.146484-7.71484l-3.85742-3.80859c-2.39258-2.39258-4.24805-3.17383-6.64062-2.97852l-2.88086 0.244141-3.22266-3.17383 1.2207-5.61523c0.634766-2.83203-0.146484-5.0293-3.07617-7.95898l-10.9863-10.9375c-16.6992-16.6016-38.8672-16.2109-53.3203-1.75781Zm7.4707 1.85547c12.1582-8.88672 28.6133-7.37305 39.7461 3.75977l12.1582 12.0605c1.17188 1.17188 1.36719 2.09961 1.02539 3.80859l-1.61133 7.42188 7.51953 7.42188 4.93164-0.292969c1.26953-0.0488281 1.66016 0.0488281 2.63672 1.02539l2.88086 2.88086-12.207 12.207-2.88086-2.88086c-0.976562-0.976562-1.12305-1.36719-1.07422-2.68555l0.341797-4.88281-7.4707-7.42188-7.61719 1.26953c-1.61133 0.341797-2.34375 0.195312-3.56445-0.976562l-10.0098-10.0098c-1.26953-1.17188-1.41602-2.00195-0.634766-3.85742l4.39453-10.4492c-7.8125-7.27539-17.9688-10.4004-28.125-7.42188-0.78125 0.195312-1.07422-0.439453-0.439453-0.976562Z"/>
  </g>
  <text style="stroke:none;fill:black;font-family:sans-serif;font-size:13;font-weight:bold;" transform="matrix(1 0 0 1 1289 1953)">Exporting</text>
  <text style="stroke:none;fill:black;font-family:sans-serif;font-size:13;" transform="matrix(1 0 0 1 1289 1971)">Symbols should be outlined when exporting to ensure the</text>
  <text style="stroke:none;fill:black;font-family:sans-serif;font-size:13;" transform="matrix(1 0 0 1 1289 1989)">design is preserved when submitting to Xcode.</text>
  <text id="template-version" style="stroke:none;fill:black;font-family:sans-serif;font-size:13;text-anchor:end;" transform="matrix(1 0 0 1 3036 1933)">Template v.6.0</text>
  <text style="stroke:none;fill:black;font-family:sans-serif;font-size:13;text-anchor:end;" transform="matrix(1 0 0 1 3036 1951)">Requires Xcode 16 or greater</text>
  <text id="descriptive-name" style="stroke:none;fill:black;font-family:sans-serif;font-size:13;text-anchor:end;" transform="matrix(1 0 0 1 3036 1969)">Generated from square</text>
  <text style="stroke:none;fill:black;font-family:sans-serif;font-size:13;text-anchor:end;" transform="matrix(1 0 0 1 3036 1987)">Typeset at 100.0 points</text>
  <text style="stroke:none;fill:black;font-family:sans-serif;font-size:13;" transform="matrix(1 0 0 1 263 726)">Small</text>
  <text style="stroke:none;fill:black;font-family:sans-serif;font-size:13;" transform="matrix(1 0 0 1 263 1156)">Medium</text>
  <text style="stroke:none;fill:black;font-family:sans-serif;font-size:13;" transform="matrix(1 0 0 1 263 1586)">Large</text>
 </g>
 <g id="Guides">
  <g id="H-reference" style="fill:#27AAE1;stroke:none;" transform="matrix(1 0 0 1 339 696)">
   <path d="M0.993654 0L3.63775 0L29.3281-67.1323L30.0303-67.1323L30.0303-70.459L28.1226-70.459ZM11.6885-24.4799L46.9815-24.4799L46.2315-26.7285L12.4385-26.7285ZM55.1196 0L57.7637 0L30.6382-70.459L29.4326-70.459L29.4326-67.1323Z"/>
  </g>
  <line id="Baseline-S" style="fill:none;stroke:#27AAE1;opacity:1;stroke-width:0.5;" x1="263" x2="3036" y1="696" y2="696"/>
  <line id="Capline-S" style="fill:none;stroke:#27AAE1;opacity:1;stroke-width:0.5;" x1="263" x2="3036" y1="625.541" y2="625.541"/>
  <g id="H-reference" style="fill:#27AAE1;stroke:none;" transform="matrix(1 0 0 1 339 1126)">
   <path d="M0.993654 0L3.63775 0L29.3281-67.1323L30.0303-67.1323L30.0303-70.459L28.1226-70.459ZM11.6885-24.4799L46.9815-24.4799L46.2315-26.7285L12.4385-26.7285ZM55.1196 0L57.7637 0L30.6382-70.459L29.4326-70.459L29.4326-67.1323Z"/>
  </g>
  <line id="Baseline-M" style="fill:none;stroke:#27AAE1;opacity:1;stroke-width:0.5;" x1="263" x2="3036" y1="1126" y2="1126"/>
  <line id="Capline-M" style="fill:none;stroke:#27AAE1;opacity:1;stroke-width:0.5;" x1="263" x2="3036" y1="1055.54" y2="1055.54"/>
  <g id="H-reference" style="fill:#27AAE1;stroke:none;" transform="matrix(1 0 0 1 339 1556)">
   <path d="M0.993654 0L3.63775 0L29.3281-67.1323L30.0303-67.1323L30.0303-70.459L28.1226-70.459ZM11.6885-24.4799L46.9815-24.4799L46.2315-26.7285L12.4385-26.7285ZM55.1196 0L57.7637 0L30.6382-70.459L29.4326-70.459L29.4326-67.1323Z"/>
  </g>
  <line id="Baseline-L" style="fill:none;stroke:#27AAE1;opacity:1;stroke-width:0.5;" x1="263" x2="3036" y1="1556" y2="1556"/>
  <line id="Capline-L" style="fill:none;stroke:#27AAE1;opacity:1;stroke-width:0.5;" x1="263" x2="3036" y1="1485.54" y2="1485.54"/>
  <line id="right-margin-Black-S" style="fill:none;stroke:#00AEEF;stroke-width:0.5;opacity:1.0;" x1="2981.3" x2="2981.3" y1="600.785" y2="720.121"/>
  <line id="left-margin-Black-S" style="fill:none;stroke:#00AEEF;stroke-width:0.5;opacity:1.0;" x1="2885.5" x2="2885.5" y1="600.785" y2="720.121"/>
  <line id="right-margin-Regular-S" style="fill:none;stroke:#00AEEF;stroke-width:0.5;opacity:1.0;" x1="1495.18" x2="1495.18" y1="600.785" y2="720.121"/>
  <line id="left-margin-Regular-S" style="fill:none;stroke:#00AEEF;stroke-width:0.5;opacity:1.0;" x1="1404.51" x2="1404.51" y1="600.785" y2="720.121"/>
  <line id="right-margin-Ultralight-S" style="fill:none;stroke:#00AEEF;stroke-width:0.5;opacity:1.0;" x1="603.073" x2="603.073" y1="600.785" y2="720.121"/>
  <line id="left-margin-Ultralight-S" style="fill:none;stroke:#00AEEF;stroke-width:0.5;opacity:1.0;" x1="516.35" x2="516.35" y1="600.785" y2="720.121"/>
 </g>
 <g id="Symbols">
  <g id="Black-S"><path d="M2912.65845,644.19821c0.29719,-0.32831 0.60407,-0.65095 0.92066,-0.96755c1.41919,-1.41919 2.95966,-2.64318 4.58802,-3.67197c-0.92163,-0.25403 -1.75,-0.40449 -2.47608,-0.45928c-1.68027,-0.12671 -2.41613,0.27229 -2.72996,0.58613c-0.31384,0.31384 -0.71284,1.04969 -0.5861,2.72993c0.04066,0.53907 0.13408,1.13457 0.28345,1.78273zM2957.8792,668.40413c0.18084,0.3611 0.35406,0.71927 0.51993,1.07421c1.3989,2.99774 2.32309,5.92384 2.52126,8.55401c0.19758,2.61755 -0.31002,5.34431 -2.28904,7.32333c-1.97931,1.97931 -4.70578,2.48661 -7.32333,2.28933c-2.29168,-0.17292 -4.80794,-0.89659 -7.40054,-2.00544l-0.00763,0.00352c-0.44947,-0.19229 -0.90129,-0.39604 -1.35487,-0.61094c-5.96846,-2.82511 -12.79711,-7.79188 -19.20771,-14.20248c-6.40399,-6.40384 -11.36688,-13.22486 -14.19367,-19.18883c-0.21555,-0.45478 -0.42026,-0.90789 -0.61332,-1.3586l0.00308,-0.00628c-1.11322,-2.59906 -1.84007,-5.12178 -2.01334,-7.41889c-0.19743,-2.61767 0.31008,-5.34423 2.28924,-7.32339c1.97916,-1.97913 4.70569,-2.48664 7.32336,-2.28921c2.6302,0.19837 5.55619,1.12253 8.5539,2.52143c0.36122,0.16857 0.72567,0.34507 1.09305,0.52935c8.72074,-2.198 18.34455,0.11379 25.16616,6.9354c6.82337,6.82357 9.13471,16.45065 6.93346,25.17347zM2954.61196,676.01811c-1.02782,1.62525 -2.2497,3.16243 -3.66622,4.57895c-0.31413,0.31413 -0.63442,0.61886 -0.96,0.91391c0.64088,0.14679 1.2301,0.23868 1.76382,0.2789c1.68015,0.12683 2.41616,-0.27215 2.72999,-0.58598c0.31384,-0.31384 0.71281,-1.04955 0.58598,-2.72999c-0.05431,-0.72074 -0.20286,-1.54217 -0.45358,-2.45579zM2913.57911,680.59706c-6.64554,-6.64546 -9.01106,-15.95015 -7.0966,-24.4889c3.17735,5.81521 7.94123,12.03586 13.74088,17.83552c5.80429,5.80435 12.03046,10.57149 17.85008,13.7489c-8.53992,1.91678 -17.84741,-0.4483 -24.49436,-7.09551z" className="SFSymbolsPreviewWireframe"/></g>
  <g id="Regular-S"><path d="M1429.1034,644.19821c0.29719,-0.32831 0.60407,-0.65095 0.92066,-0.96755c1.41919,-1.41919 2.95966,-2.64318 4.58802,-3.67197c-0.92163,-0.25403 -1.75,-0.40449 -2.47608,-0.45928c-1.68027,-0.12671 -2.41613,0.27229 -2.72996,0.58613c-0.31384,0.31384 -0.71284,1.04969 -0.5861,2.72993c0.04066,0.53907 0.13408,1.13457 0.28345,1.78273zM1474.32415,668.40413c0.18084,0.3611 0.35406,0.71927 0.51993,1.07421c1.3989,2.99774 2.32309,5.92384 2.52126,8.55401c0.19758,2.61755 -0.31002,5.34431 -2.28904,7.32333c-1.97931,1.97931 -4.70578,2.48661 -7.32333,2.28933c-2.29168,-0.17292 -4.80794,-0.89659 -7.40054,-2.00544l-0.00763,0.00352c-0.44947,-0.19229 -0.90129,-0.39604 -1.35487,-0.61094c-5.96846,-2.82511 -12.79711,-7.79188 -19.20771,-14.20248c-6.40399,-6.40384 -11.36688,-13.22486 -14.19367,-19.18883c-0.21555,-0.45478 -0.42026,-0.90789 -0.61332,-1.3586l0.00308,-0.00628c-1.11322,-2.59906 -1.84007,-5.12178 -2.01334,-7.41889c-0.19743,-2.61767 0.31008,-5.34423 2.28924,-7.32339c1.97916,-1.97913 4.70569,-2.48664 7.32336,-2.28921c2.6302,0.19837 5.55619,1.12253 8.5539,2.52143c0.36122,0.16857 0.72567,0.34507 1.09305,0.52935c8.72074,-2.198 18.34455,0.11379 25.16616,6.9354c6.82337,6.82357 9.13471,16.45065 6.93346,25.17347zM1471.05691,676.01811c-1.02782,1.62525 -2.2497,3.16243 -3.66622,4.57895c-0.31413,0.31413 -0.63442,0.61886 -0.96,0.91391c0.64088,0.14679 1.2301,0.23868 1.76382,0.2789c1.68015,0.12683 2.41616,-0.27215 2.72999,-0.58598c0.31384,-0.31384 0.71281,-1.04955 0.58598,-2.72999c-0.05431,-0.72074 -0.20286,-1.54217 -0.45358,-2.45579zM1430.02406,680.59706c-6.64554,-6.64546 -9.01106,-15.95015 -7.0966,-24.4889c3.17735,5.81521 7.94123,12.03586 13.74088,17.83552c5.80429,5.80435 12.03046,10.57149 17.85008,13.7489c-8.53992,1.91678 -17.84741,-0.4483 -24.49436,-7.09551z" className="SFSymbolsPreviewWireframe"/></g>
  <g id="Ultralight-S"><path d="M538.96981,644.19821c0.29719,-0.32831 0.60407,-0.65095 0.92066,-0.96755c1.41919,-1.41919 2.95966,-2.64318 4.58802,-3.67197c-0.92163,-0.25403 -1.75,-0.40449 -2.47608,-0.45928c-1.68027,-0.12671 -2.41613,0.27229 -2.72996,0.58613c-0.31384,0.31384 -0.71284,1.04969 -0.5861,2.72993c0.04066,0.53907 0.13408,1.13457 0.28345,1.78273zM584.19056,668.40413c0.18084,0.3611 0.35406,0.71927 0.51993,1.07421c1.3989,2.99774 2.32309,5.92384 2.52126,8.55401c0.19758,2.61755 -0.31002,5.34431 -2.28904,7.32333c-1.97931,1.97931 -4.70578,2.48661 -7.32333,2.28933c-2.29168,-0.17292 -4.80794,-0.89659 -7.40054,-2.00544l-0.00763,0.00352c-0.44947,-0.19229 -0.90129,-0.39604 -1.35487,-0.61094c-5.96846,-2.82511 -12.79711,-7.79188 -19.20771,-14.20248c-6.40399,-6.40384 -11.36688,-13.22486 -14.19367,-19.18883c-0.21555,-0.45478 -0.42026,-0.90789 -0.61332,-1.3586l0.00308,-0.00628c-1.11322,-2.59906 -1.84007,-5.12178 -2.01334,-7.41889c-0.19743,-2.61767 0.31008,-5.34423 2.28924,-7.32339c1.97916,-1.97913 4.70569,-2.48664 7.32336,-2.28921c2.6302,0.19837 5.55619,1.12253 8.5539,2.52143c0.36122,0.16857 0.72567,0.34507 1.09305,0.52935c8.72074,-2.198 18.34455,0.11379 25.16616,6.9354c6.82337,6.82357 9.13471,16.45065 6.93346,25.17347zM580.92332,676.01811c-1.02782,1.62525 -2.2497,3.16243 -3.66622,4.57895c-0.31413,0.31413 -0.63442,0.61886 -0.96,0.91391c0.64088,0.14679 1.2301,0.23868 1.76382,0.2789c1.68015,0.12683 2.41616,-0.27215 2.72999,-0.58598c0.31384,-0.31384 0.71281,-1.04955 0.58598,-2.72999c-0.05431,-0.72074 -0.20286,-1.54217 -0.45358,-2.45579zM539.89047,680.59706c-6.64554,-6.64546 -9.01106,-15.95015 -7.0966,-24.4889c3.17735,5.81521 7.94123,12.03586 13.74088,17.83552c5.80429,5.80435 12.03046,10.57149 17.85008,13.7489c-8.53992,1.91678 -17.84741,-0.4483 -24.49436,-7.09551z" className="SFSymbolsPreviewWireframe"/></g>
 </g>
</svg>