<?xml version="1.0" encoding="UTF-8"?><!--Generator: SF Tools--><!DOCTYPE svg PUBLIC "-//W3C//DTD SVG 1.1//EN" "http://www.w3.org/Graphics/SVG/1.1/DTD/svg11.dtd"><svg xmlns="http://www.w3.org/2000/svg" xmlns:xlink="http://www.w3.org/1999/xlink" version="1.1" viewBox="0 0 3300 2200">
 <!--glyph: "100092", point size: 100.0, font version: "20.0d10e1", template writer version: "138.0.0"-->
 <style>.SFSymbolsPreviewWireframe {fill:none;opacity:1.0;stroke:black;stroke-width:0.5}
</style>
 <g id="Notes">
  <rect height="2200" id="artboard" style="fill:white;opacity:1" width="3300" x="0" y="0"/>
  <line style="fill:none;stroke:black;opacity:1;stroke-width:0.5;" x1="263" x2="3036" y1="292" y2="292"/>
  <text style="stroke:none;fill:black;font-family:sans-serif;font-size:13;font-weight:bold;" transform="matrix(1 0 0 1 263 322)">Weight/Scale Variations</text>
  <text style="stroke:none;fill:black;font-family:sans-serif;font-size:13;text-anchor:middle;" transform="matrix(1 0 0 1 559.711 322)">Ultralight</text>
  <text style="stroke:none;fill:black;font-family:sans-serif;font-size:13;text-anchor:middle;" transform="matrix(1 0 0 1 856.422 322)">Thin</text>
  <text style="stroke:none;fill:black;font-family:sans-serif;font-size:13;text-anchor:middle;" transform="matrix(1 0 0 1 1153.13 322)">Light</text>
  <text style="stroke:none;fill:black;font-family:sans-serif;font-size:13;text-anchor:middle;" transform="matrix(1 0 0 1 1449.84 322)">Regular</text>
  <text style="stroke:none;fill:black;font-family:sans-serif;font-size:13;text-anchor:middle;" transform="matrix(1 0 0 1 1746.56 322)">Medium</text>
  <text style="stroke:none;fill:black;font-family:sans-serif;font-size:13;text-anchor:middle;" transform="matrix(1 0 0 1 2043.27 322)">Semibold</text>
  <text style="stroke:none;fill:black;font-family:sans-serif;font-size:13;text-anchor:middle;" transform="matrix(1 0 0 1 2339.98 322)">Bold</text>
  <text style="stroke:none;fill:black;font-family:sans-serif;font-size:13;text-anchor:middle;" transform="matrix(1 0 0 1 2636.69 322)">Heavy</text>
  <text style="stroke:none;fill:black;font-family:sans-serif;font-size:13;text-anchor:middle;" transform="matrix(1 0 0 1 2933.4 322)">Black</text>
  <line style="fill:none;stroke:black;opacity:1;stroke-width:0.5;" x1="263" x2="3036" y1="1903" y2="1903"/>
  <g transform="matrix(0.2 0 0 0.2 263 1933)">
   <path d="m46.2402 4.15039c21.7773 0 39.4531-17.627 39.4531-39.4043s-17.6758-39.4043-39.4531-39.4043c-21.7285 0-39.4043 17.627-39.4043 39.4043s17.6758 39.4043 39.4043 39.4043Zm0-7.42188c-17.6758 0-31.9336-14.3066-31.9336-31.9824s14.2578-31.9824 31.9336-31.9824 31.9824 14.3066 31.9824 31.9824-14.3066 31.9824-31.9824 31.9824Zm-17.9688-31.9824c0 2.14844 1.51367 3.61328 3.75977 3.61328h10.498v10.5957c0 2.19727 1.46484 3.71094 3.61328 3.71094 2.24609 0 3.71094-1.51367 3.71094-3.71094v-10.5957h10.5957c2.19727 0 3.71094-1.46484 3.71094-3.61328 0-2.19727-1.51367-3.71094-3.71094-3.71094h-10.5957v-10.5469c0-2.24609-1.46484-3.75977-3.71094-3.75977-2.14844 0-3.61328 1.51367-3.61328 3.75977v10.5469h-10.498c-2.24609 0-3.75977 1.51367-3.75977 3.71094Z"/>
  </g>
  <g transform="matrix(0.2 0 0 0.2 281.506 1933)">
   <path d="m58.5449 14.5508c27.4902 0 49.8047-22.3145 49.8047-49.8047s-22.3145-49.8047-49.8047-49.8047-49.8047 22.3145-49.8047 49.8047 22.3145 49.8047 49.8047 49.8047Zm0-8.30078c-22.9492 0-41.5039-18.5547-41.5039-41.5039s18.5547-41.5039 41.5039-41.5039 41.5039 18.5547 41.5039 41.5039-18.5547 41.5039-41.5039 41.5039Zm-22.6562-41.5039c0 2.39258 1.66016 4.00391 4.15039 4.00391h14.3555v14.4043c0 2.44141 1.66016 4.15039 4.05273 4.15039 2.44141 0 4.15039-1.66016 4.15039-4.15039v-14.4043h14.4043c2.44141 0 4.15039-1.61133 4.15039-4.00391 0-2.44141-1.70898-4.15039-4.15039-4.15039h-14.4043v-14.3555c0-2.49023-1.70898-4.19922-4.15039-4.19922-2.39258 0-4.05273 1.70898-4.05273 4.19922v14.3555h-14.3555c-2.49023 0-4.15039 1.70898-4.15039 4.15039Z"/>
  </g>
  <g transform="matrix(0.2 0 0 0.2 304.924 1933)">
   <path d="m74.8535 28.3203c35.1074 0 63.623-28.4668 63.623-63.5742s-28.5156-63.623-63.623-63.623-63.5742 28.5156-63.5742 63.623 28.4668 63.5742 63.5742 63.5742Zm0-9.08203c-30.127 0-54.4922-24.3652-54.4922-54.4922s24.3652-54.4922 54.4922-54.4922 54.4922 24.3652 54.4922 54.4922-24.3652 54.4922-54.4922 54.4922Zm-28.8574-54.4922c0 2.58789 1.85547 4.39453 4.58984 4.39453h19.7266v19.7754c0 2.68555 1.85547 4.58984 4.44336 4.58984 2.68555 0 4.54102-1.85547 4.54102-4.58984v-19.7754h19.7754c2.68555 0 4.58984-1.80664 4.58984-4.39453 0-2.73438-1.85547-4.58984-4.58984-4.58984h-19.7754v-19.7266c0-2.73438-1.85547-4.63867-4.54102-4.63867-2.58789 0-4.44336 1.9043-4.44336 4.63867v19.7266h-19.7266c-2.73438 0-4.58984 1.85547-4.58984 4.58984Z"/>
  </g>
  <text style="stroke:none;fill:black;font-family:sans-serif;font-size:13;font-weight:bold;" transform="matrix(1 0 0 1 263 1953)">Design Variations</text>
  <text style="stroke:none;fill:black;font-family:sans-serif;font-size:13;" transform="matrix(1 0 0 1 263 1971)">Symbols are supported in up to nine weights and three scales.</text>
  <text style="stroke:none;fill:black;font-family:sans-serif;font-size:13;" transform="matrix(1 0 0 1 263 1989)">For optimal layout with text and other symbols, vertically align</text>
  <text style="stroke:none;fill:black;font-family:sans-serif;font-size:13;" transform="matrix(1 0 0 1 263 2007)">symbols with the adjacent text.</text>
  <line style="fill:none;stroke:#00AEEF;stroke-width:0.5;opacity:1.0;" x1="776" x2="776" y1="1919" y2="1933"/>
  <g transform="matrix(0.2 0 0 0.2 776 1933)">
   <path d="m16.5527 0.78125c2.58789 0 3.85742-0.976562 4.78516-3.71094l6.29883-17.2363h28.8086l6.29883 17.2363c0.927734 2.73438 2.19727 3.71094 4.73633 3.71094 2.58789 0 4.24805-1.5625 4.24805-4.00391 0-0.830078-0.146484-1.61133-0.537109-2.63672l-22.9004-60.9863c-1.12305-2.97852-3.125-4.49219-6.25-4.49219-3.02734 0-5.07812 1.46484-6.15234 4.44336l-22.9004 61.084c-0.390625 1.02539-0.537109 1.80664-0.537109 2.63672 0 2.44141 1.5625 3.95508 4.10156 3.95508Zm13.4766-28.3691 11.8652-32.8613h0.244141l11.8652 32.8613Z"/>
  </g>
  <line style="fill:none;stroke:#00AEEF;stroke-width:0.5;opacity:1.0;" x1="792.836" x2="792.836" y1="1919" y2="1933"/>
  <text style="stroke:none;fill:black;font-family:sans-serif;font-size:13;font-weight:bold;" transform="matrix(1 0 0 1 776 1953)">Margins</text>
  <text style="stroke:none;fill:black;font-family:sans-serif;font-size:13;" transform="matrix(1 0 0 1 776 1971)">Leading and trailing margins on the left and right side of each symbol</text>
  <text style="stroke:none;fill:black;font-family:sans-serif;font-size:13;" transform="matrix(1 0 0 1 776 1989)">can be adjusted by modifying the x-location of the margin guidelines.</text>
  <text style="stroke:none;fill:black;font-family:sans-serif;font-size:13;" transform="matrix(1 0 0 1 776 2007)">Modifications are automatically applied proportionally to all</text>
  <text style="stroke:none;fill:black;font-family:sans-serif;font-size:13;" transform="matrix(1 0 0 1 776 2025)">scales and weights.</text>
  <g transform="matrix(0.2 0 0 0.2 1289 1933)">
   <path d="m14.209 9.32617 8.49609 8.54492c4.29688 4.3457 9.22852 4.05273 13.8672-1.07422l53.4668-58.9355-4.83398-4.88281-53.0762 58.3984c-1.75781 2.00195-3.41797 2.49023-5.76172 0.146484l-5.85938-5.81055c-2.34375-2.29492-1.80664-4.00391 0.195312-5.81055l57.373-54.0039-4.88281-4.83398-57.959 54.4434c-4.93164 4.58984-5.32227 9.47266-1.02539 13.8184Zm32.0801-90.9668c-2.09961 2.05078-2.24609 4.93164-1.07422 6.88477 1.17188 1.80664 3.4668 2.97852 6.68945 2.14844 7.32422-1.70898 14.9414-2.00195 22.0703 2.68555l-2.92969 7.27539c-1.70898 4.15039-0.830078 7.08008 1.85547 9.81445l11.4746 11.5723c2.44141 2.44141 4.49219 2.53906 7.32422 2.05078l5.32227-0.976562 3.32031 3.36914-0.195312 2.7832c-0.195312 2.49023 0.439453 4.39453 2.88086 6.78711l3.80859 3.71094c2.39258 2.39258 5.46875 2.53906 7.8125 0.195312l14.5508-14.5996c2.34375-2.34375 2.24609-5.32227-0.146484-7.71484l-3.85742-3.80859c-2.39258-2.39258-4.24805-3.17383-6.64062-2.97852l-2.88086 0.244141-3.22266-3.17383 1.2207-5.61523c0.634766-2.83203-0.146484-5.0293-3.07617-7.95898l-10.9863-10.9375c-16.6992-16.6016-38.8672-16.2109-53.3203-1.75781Zm7.4707 1.85547c12.1582-8.88672 28.6133-7.37305 39.7461 3.75977l12.1582 12.0605c1.17188 1.17188 1.36719 2.09961 1.02539 3.80859l-1.61133 7.42188 7.51953 7.42188 4.93164-0.292969c1.26953-0.0488281 1.66016 0.0488281 2.63672 1.02539l2.88086 2.88086-12.207 12.207-2.88086-2.88086c-0.976562-0.976562-1.12305-1.36719-1.07422-2.68555l0.341797-4.88281-7.4707-7.42188-7.61719 1.26953c-1.61133 0.341797-2.34375 0.195312-3.56445-0.976562l-10.0098-10.0098c-1.26953-1.17188-1.41602-2.00195-0.634766-3.85742l4.39453-10.4492c-7.8125-7.27539-17.9688-10.4004-28.125-7.42188-0.78125 0.195312-1.07422-0.439453-0.439453-0.976562Z"/>
  </g>
  <text style="stroke:none;fill:black;font-family:sans-serif;font-size:13;font-weight:bold;" transform="matrix(1 0 0 1 1289 1953)">Exporting</text>
  <text style="stroke:none;fill:black;font-family:sans-serif;font-size:13;" transform="matrix(1 0 0 1 1289 1971)">Symbols should be outlined when exporting to ensure the</text>
  <text style="stroke:none;fill:black;font-family:sans-serif;font-size:13;" transform="matrix(1 0 0 1 1289 1989)">design is preserved when submitting to Xcode.</text>
  <text id="template-version" style="stroke:none;fill:black;font-family:sans-serif;font-size:13;text-anchor:end;" transform="matrix(1 0 0 1 3036 1933)">Template v.6.0</text>
  <text style="stroke:none;fill:black;font-family:sans-serif;font-size:13;text-anchor:end;" transform="matrix(1 0 0 1 3036 1951)">Requires Xcode 16 or greater</text>
  <text id="descriptive-name" style="stroke:none;fill:black;font-family:sans-serif;font-size:13;text-anchor:end;" transform="matrix(1 0 0 1 3036 1969)">Generated from square</text>
  <text style="stroke:none;fill:black;font-family:sans-serif;font-size:13;text-anchor:end;" transform="matrix(1 0 0 1 3036 1987)">Typeset at 100.0 points</text>
  <text style="stroke:none;fill:black;font-family:sans-serif;font-size:13;" transform="matrix(1 0 0 1 263 726)">Small</text>
  <text style="stroke:none;fill:black;font-family:sans-serif;font-size:13;" transform="matrix(1 0 0 1 263 1156)">Medium</text>
  <text style="stroke:none;fill:black;font-family:sans-serif;font-size:13;" transform="matrix(1 0 0 1 263 1586)">Large</text>
 </g>
 <g id="Guides">
  <g id="H-reference" style="fill:#27AAE1;stroke:none;" transform="matrix(1 0 0 1 339 696)">
   <path d="M0.993654 0L3.63775 0L29.3281-67.1323L30.0303-67.1323L30.0303-70.459L28.1226-70.459ZM11.6885-24.4799L46.9815-24.4799L46.2315-26.7285L12.4385-26.7285ZM55.1196 0L57.7637 0L30.6382-70.459L29.4326-70.459L29.4326-67.1323Z"/>
  </g>
  <line id="Baseline-S" style="fill:none;stroke:#27AAE1;opacity:1;stroke-width:0.5;" x1="263" x2="3036" y1="696" y2="696"/>
  <line id="Capline-S" style="fill:none;stroke:#27AAE1;opacity:1;stroke-width:0.5;" x1="263" x2="3036" y1="625.541" y2="625.541"/>
  <g id="H-reference" style="fill:#27AAE1;stroke:none;" transform="matrix(1 0 0 1 339 1126)">
   <path d="M0.993654 0L3.63775 0L29.3281-67.1323L30.0303-67.1323L30.0303-70.459L28.1226-70.459ZM11.6885-24.4799L46.9815-24.4799L46.2315-26.7285L12.4385-26.7285ZM55.1196 0L57.7637 0L30.6382-70.459L29.4326-70.459L29.4326-67.1323Z"/>
  </g>
  <line id="Baseline-M" style="fill:none;stroke:#27AAE1;opacity:1;stroke-width:0.5;" x1="263" x2="3036" y1="1126" y2="1126"/>
  <line id="Capline-M" style="fill:none;stroke:#27AAE1;opacity:1;stroke-width:0.5;" x1="263" x2="3036" y1="1055.54" y2="1055.54"/>
  <g id="H-reference" style="fill:#27AAE1;stroke:none;" transform="matrix(1 0 0 1 339 1556)">
   <path d="M0.993654 0L3.63775 0L29.3281-67.1323L30.0303-67.1323L30.0303-70.459L28.1226-70.459ZM11.6885-24.4799L46.9815-24.4799L46.2315-26.7285L12.4385-26.7285ZM55.1196 0L57.7637 0L30.6382-70.459L29.4326-70.459L29.4326-67.1323Z"/>
  </g>
  <line id="Baseline-L" style="fill:none;stroke:#27AAE1;opacity:1;stroke-width:0.5;" x1="263" x2="3036" y1="1556" y2="1556"/>
  <line id="Capline-L" style="fill:none;stroke:#27AAE1;opacity:1;stroke-width:0.5;" x1="263" x2="3036" y1="1485.54" y2="1485.54"/>
  <line id="right-margin-Black-S" style="fill:none;stroke:#00AEEF;stroke-width:0.5;opacity:1.0;" x1="2981.3" x2="2981.3" y1="600.785" y2="720.121"/>
  <line id="left-margin-Black-S" style="fill:none;stroke:#00AEEF;stroke-width:0.5;opacity:1.0;" x1="2885.5" x2="2885.5" y1="600.785" y2="720.121"/>
  <line id="right-margin-Regular-S" style="fill:none;stroke:#00AEEF;stroke-width:0.5;opacity:1.0;" x1="1495.18" x2="1495.18" y1="600.785" y2="720.121"/>
  <line id="left-margin-Regular-S" style="fill:none;stroke:#00AEEF;stroke-width:0.5;opacity:1.0;" x1="1404.51" x2="1404.51" y1="600.785" y2="720.121"/>
  <line id="right-margin-Ultralight-S" style="fill:none;stroke:#00AEEF;stroke-width:0.5;opacity:1.0;" x1="603.073" x2="603.073" y1="600.785" y2="720.121"/>
  <line id="left-margin-Ultralight-S" style="fill:none;stroke:#00AEEF;stroke-width:0.5;opacity:1.0;" x1="516.35" x2="516.35" y1="600.785" y2="720.121"/>
 </g>
 <g id="Symbols">
  <g id="Black-S"><path d="M2908.53479,650.27818c-1.7256,3.5132 -2.69394,7.46478 -2.69394,11.63536c0,14.59235 11.82959,26.42212 26.42212,26.42212c4.17352,0 8.12744,-0.96969 11.64247,-2.6974c2.56236,1.09593 5.04692,1.81461 7.31217,1.99927c2.6475,0.21578 5.41242,-0.28066 7.41405,-2.28228c2.20801,-2.20801 2.58555,-5.33081 2.19039,-8.25544c-0.36022,-2.66834 -1.40859,-5.63349 -2.94137,-8.69346c0.5258,-2.08001 0.80441,-4.25572 0.80441,-6.4928c0,-14.59258 -11.82948,-26.42218 -26.42212,-26.42218c-2.23443,0 -4.4075,0.27799 -6.48507,0.80244c-3.06388,-1.53653 -6.03299,-2.58781 -8.70441,-2.95003c-2.92737,-0.39689 -6.05372,-0.0207 -8.26393,2.18948c-2.00371,2.00371 -2.49895,4.77192 -2.28143,7.42227c0.18619,2.2684 0.90725,4.75639 2.00667,7.32266zM2912.65893,644.1986c-0.14385,-0.62397 -0.23592,-1.19956 -0.2789,-1.72337c-0.14127,-1.72125 0.26384,-2.47264 0.58137,-2.79015c0.34962,-0.34962 1.24049,-0.80532 3.3232,-0.52295c0.57961,0.07859 1.2099,0.21044 1.88657,0.3971c-2.04437,1.29116 -3.89864,2.85468 -5.51224,4.63937zM2954.61139,676.01444c0.18407,0.67112 0.31442,1.29615 0.39193,1.87127c0.28096,2.07913 -0.17439,2.96838 -0.52345,3.31774c-0.31736,0.31707 -1.06745,0.72191 -2.78518,0.58187c-0.51964,-0.04257 -1.09035,-0.13328 -1.70892,-0.27508c1.7788,-1.6094 3.33741,-3.45807 4.62563,-5.4958zM2943.65736,679.01893c-4.92215,-2.57821 -10.6396,-6.82219 -16.16447,-12.34676c-5.5187,-5.5187 -9.75939,-11.2299 -12.33851,-16.14832c2.61626,-3.92113 6.54338,-6.89077 11.14696,-8.28366c1.88322,-0.56984 3.88396,-0.87724 5.96162,-0.87724c11.34977,0 20.55054,9.2008 20.55054,20.5506c0,2.07971 -0.30796,4.08222 -0.87898,5.96729c-1.39303,4.59921 -4.35994,8.52289 -8.27717,11.1381zM2936.9755,681.92184c-1.51223,0.35464 -3.08963,0.54224 -4.71253,0.54224c-11.34974,0 -20.55054,-9.20077 -20.55054,-20.55054c0,-1.62114 0.18722,-3.19708 0.54104,-4.70783c2.83169,4.45271 6.60688,9.13765 11.08751,13.61825c4.48601,4.48589 9.17681,8.26484 13.63452,11.09788z" className="SFSymbolsPreviewWireframe"/></g>
  <g id="Regular-S"><path d="M1424.97974,650.27818c-1.7256,3.5132 -2.69394,7.46478 -2.69394,11.63536c0,14.59235 11.82959,26.42212 26.42212,26.42212c4.17352,0 8.12744,-0.96969 11.64247,-2.6974c2.56236,1.09593 5.04692,1.81461 7.31217,1.99927c2.6475,0.21578 5.41242,-0.28066 7.41405,-2.28228c2.20801,-2.20801 2.58555,-5.33081 2.19039,-8.25544c-0.36022,-2.66834 -1.40859,-5.63349 -2.94137,-8.69346c0.5258,-2.08001 0.80441,-4.25572 0.80441,-6.4928c0,-14.59258 -11.82948,-26.42218 -26.42212,-26.42218c-2.23443,0 -4.4075,0.27799 -6.48507,0.80244c-3.06388,-1.53653 -6.03299,-2.58781 -8.70441,-2.95003c-2.92737,-0.39689 -6.05372,-0.0207 -8.26393,2.18948c-2.00371,2.00371 -2.49895,4.77192 -2.28143,7.42227c0.18619,2.2684 0.90725,4.75639 2.00667,7.32266zM1429.10388,644.1986c-0.14385,-0.62397 -0.23592,-1.19956 -0.2789,-1.72337c-0.14127,-1.72125 0.26384,-2.47264 0.58137,-2.79015c0.34962,-0.34962 1.24049,-0.80532 3.3232,-0.52295c0.57961,0.07859 1.2099,0.21044 1.88657,0.3971c-2.04437,1.29116 -3.89864,2.85468 -5.51224,4.63937zM1471.05634,676.01444c0.18407,0.67112 0.31442,1.29615 0.39193,1.87127c0.28096,2.07913 -0.17439,2.96838 -0.52345,3.31774c-0.31736,0.31707 -1.06745,0.72191 -2.78518,0.58187c-0.51964,-0.04257 -1.09035,-0.13328 -1.70892,-0.27508c1.7788,-1.6094 3.33741,-3.45807 4.62563,-5.4958zM1460.10231,679.01893c-4.92215,-2.57821 -10.6396,-6.82219 -16.16447,-12.34676c-5.5187,-5.5187 -9.75939,-11.2299 -12.33851,-16.14832c2.61626,-3.92113 6.54338,-6.89077 11.14696,-8.28366c1.88322,-0.56984 3.88396,-0.87724 5.96162,-0.87724c11.34977,0 20.55054,9.2008 20.55054,20.5506c0,2.07971 -0.30796,4.08222 -0.87898,5.96729c-1.39303,4.59921 -4.35994,8.52289 -8.27717,11.1381zM1453.42045,681.92184c-1.51223,0.35464 -3.08963,0.54224 -4.71253,0.54224c-11.34974,0 -20.55054,-9.20077 -20.55054,-20.55054c0,-1.62114 0.18722,-3.19708 0.54104,-4.70783c2.83169,4.45271 6.60688,9.13765 11.08751,13.61825c4.48601,4.48589 9.17681,8.26484 13.63452,11.09788z" className="SFSymbolsPreviewWireframe"/></g>
  <g id="Ultralight-S"><path d="M534.84615,650.27818c-1.7256,3.5132 -2.69394,7.46478 -2.69394,11.63536c0,14.59235 11.82959,26.42212 26.42212,26.42212c4.17352,0 8.12744,-0.96969 11.64247,-2.6974c2.56236,1.09593 5.04692,1.81461 7.31217,1.99927c2.6475,0.21578 5.41242,-0.28066 7.41405,-2.28228c2.20801,-2.20801 2.58555,-5.33081 2.19039,-8.25544c-0.36022,-2.66834 -1.40859,-5.63349 -2.94137,-8.69346c0.5258,-2.08001 0.80441,-4.25572 0.80441,-6.4928c0,-14.59258 -11.82948,-26.42218 -26.42212,-26.42218c-2.23443,0 -4.4075,0.27799 -6.48507,0.80244c-3.06388,-1.53653 -6.03299,-2.58781 -8.70441,-2.95003c-2.92737,-0.39689 -6.05372,-0.0207 -8.26393,2.18948c-2.00371,2.00371 -2.49895,4.77192 -2.28143,7.42227c0.18619,2.2684 0.90725,4.75639 2.00667,7.32266zM538.97029,644.1986c-0.14385,-0.62397 -0.23592,-1.19956 -0.2789,-1.72337c-0.14127,-1.72125 0.26384,-2.47264 0.58137,-2.79015c0.34962,-0.34962 1.24049,-0.80532 3.3232,-0.52295c0.57961,0.07859 1.2099,0.21044 1.88657,0.3971c-2.04437,1.29116 -3.89864,2.85468 -5.51224,4.63937zM580.92275,676.01444c0.18407,0.67112 0.31442,1.29615 0.39193,1.87127c0.28096,2.07913 -0.17439,2.96838 -0.52345,3.31774c-0.31736,0.31707 -1.06745,0.72191 -2.78518,0.58187c-0.51964,-0.04257 -1.09035,-0.13328 -1.70892,-0.27508c1.7788,-1.6094 3.33741,-3.45807 4.62563,-5.4958zM569.96872,679.01893c-4.92215,-2.57821 -10.6396,-6.82219 -16.16447,-12.34676c-5.5187,-5.5187 -9.75939,-11.2299 -12.33851,-16.14832c2.61626,-3.92113 6.54338,-6.89077 11.14696,-8.28366c1.88322,-0.56984 3.88396,-0.87724 5.96162,-0.87724c11.34977,0 20.55054,9.2008 20.55054,20.5506c0,2.07971 -0.30796,4.08222 -0.87898,5.96729c-1.39303,4.59921 -4.35994,8.52289 -8.27717,11.1381zM563.28686,681.92184c-1.51223,0.35464 -3.08963,0.54224 -4.71253,0.54224c-11.34974,0 -20.55054,-9.20077 -20.55054,-20.55054c0,-1.62114 0.18722,-3.19708 0.54104,-4.70783c2.83169,4.45271 6.60688,9.13765 11.08751,13.61825c4.48601,4.48589 9.17681,8.26484 13.63452,11.09788z" className="SFSymbolsPreviewWireframe"/></g>
 </g>
</svg>