<?xml version="1.0" encoding="UTF-8"?><!--Generator: SF Tools--><!DOCTYPE svg PUBLIC "-//W3C//DTD SVG 1.1//EN" "http://www.w3.org/Graphics/SVG/1.1/DTD/svg11.dtd"><svg xmlns="http://www.w3.org/2000/svg" xmlns:xlink="http://www.w3.org/1999/xlink" version="1.1" viewBox="0 0 3300 2200">
 <!--glyph: "100092", point size: 100.0, font version: "20.0d10e1", template writer version: "138.0.0"-->
 <style>.SFSymbolsPreviewWireframe {fill:none;opacity:1.0;stroke:black;stroke-width:0.5}
</style>
 <g id="Notes">
  <rect height="2200" id="artboard" style="fill:white;opacity:1" width="3300" x="0" y="0"/>
  <line style="fill:none;stroke:black;opacity:1;stroke-width:0.5;" x1="263" x2="3036" y1="292" y2="292"/>
  <text style="stroke:none;fill:black;font-family:sans-serif;font-size:13;font-weight:bold;" transform="matrix(1 0 0 1 263 322)">Weight/Scale Variations</text>
  <text style="stroke:none;fill:black;font-family:sans-serif;font-size:13;text-anchor:middle;" transform="matrix(1 0 0 1 559.711 322)">Ultralight</text>
  <text style="stroke:none;fill:black;font-family:sans-serif;font-size:13;text-anchor:middle;" transform="matrix(1 0 0 1 856.422 322)">Thin</text>
  <text style="stroke:none;fill:black;font-family:sans-serif;font-size:13;text-anchor:middle;" transform="matrix(1 0 0 1 1153.13 322)">Light</text>
  <text style="stroke:none;fill:black;font-family:sans-serif;font-size:13;text-anchor:middle;" transform="matrix(1 0 0 1 1449.84 322)">Regular</text>
  <text style="stroke:none;fill:black;font-family:sans-serif;font-size:13;text-anchor:middle;" transform="matrix(1 0 0 1 1746.56 322)">Medium</text>
  <text style="stroke:none;fill:black;font-family:sans-serif;font-size:13;text-anchor:middle;" transform="matrix(1 0 0 1 2043.27 322)">Semibold</text>
  <text style="stroke:none;fill:black;font-family:sans-serif;font-size:13;text-anchor:middle;" transform="matrix(1 0 0 1 2339.98 322)">Bold</text>
  <text style="stroke:none;fill:black;font-family:sans-serif;font-size:13;text-anchor:middle;" transform="matrix(1 0 0 1 2636.69 322)">Heavy</text>
  <text style="stroke:none;fill:black;font-family:sans-serif;font-size:13;text-anchor:middle;" transform="matrix(1 0 0 1 2933.4 322)">Black</text>
  <line style="fill:none;stroke:black;opacity:1;stroke-width:0.5;" x1="263" x2="3036" y1="1903" y2="1903"/>
  <g transform="matrix(0.2 0 0 0.2 263 1933)">
   <path d="m46.2402 4.15039c21.7773 0 39.4531-17.627 39.4531-39.4043s-17.6758-39.4043-39.4531-39.4043c-21.7285 0-39.4043 17.627-39.4043 39.4043s17.6758 39.4043 39.4043 39.4043Zm0-7.42188c-17.6758 0-31.9336-14.3066-31.9336-31.9824s14.2578-31.9824 31.9336-31.9824 31.9824 14.3066 31.9824 31.9824-14.3066 31.9824-31.9824 31.9824Zm-17.9688-31.9824c0 2.14844 1.51367 3.61328 3.75977 3.61328h10.498v10.5957c0 2.19727 1.46484 3.71094 3.61328 3.71094 2.24609 0 3.71094-1.51367 3.71094-3.71094v-10.5957h10.5957c2.19727 0 3.71094-1.46484 3.71094-3.61328 0-2.19727-1.51367-3.71094-3.71094-3.71094h-10.5957v-10.5469c0-2.24609-1.46484-3.75977-3.71094-3.75977-2.14844 0-3.61328 1.51367-3.61328 3.75977v10.5469h-10.498c-2.24609 0-3.75977 1.51367-3.75977 3.71094Z"/>
  </g>
  <g transform="matrix(0.2 0 0 0.2 281.506 1933)">
   <path d="m58.5449 14.5508c27.4902 0 49.8047-22.3145 49.8047-49.8047s-22.3145-49.8047-49.8047-49.8047-49.8047 22.3145-49.8047 49.8047 22.3145 49.8047 49.8047 49.8047Zm0-8.30078c-22.9492 0-41.5039-18.5547-41.5039-41.5039s18.5547-41.5039 41.5039-41.5039 41.5039 18.5547 41.5039 41.5039-18.5547 41.5039-41.5039 41.5039Zm-22.6562-41.5039c0 2.39258 1.66016 4.00391 4.15039 4.00391h14.3555v14.4043c0 2.44141 1.66016 4.15039 4.05273 4.15039 2.44141 0 4.15039-1.66016 4.15039-4.15039v-14.4043h14.4043c2.44141 0 4.15039-1.61133 4.15039-4.00391 0-2.44141-1.70898-4.15039-4.15039-4.15039h-14.4043v-14.3555c0-2.49023-1.70898-4.19922-4.15039-4.19922-2.39258 0-4.05273 1.70898-4.05273 4.19922v14.3555h-14.3555c-2.49023 0-4.15039 1.70898-4.15039 4.15039Z"/>
  </g>
  <g transform="matrix(0.2 0 0 0.2 304.924 1933)">
   <path d="m74.8535 28.3203c35.1074 0 63.623-28.4668 63.623-63.5742s-28.5156-63.623-63.623-63.623-63.5742 28.5156-63.5742 63.623 28.4668 63.5742 63.5742 63.5742Zm0-9.08203c-30.127 0-54.4922-24.3652-54.4922-54.4922s24.3652-54.4922 54.4922-54.4922 54.4922 24.3652 54.4922 54.4922-24.3652 54.4922-54.4922 54.4922Zm-28.8574-54.4922c0 2.58789 1.85547 4.39453 4.58984 4.39453h19.7266v19.7754c0 2.68555 1.85547 4.58984 4.44336 4.58984 2.68555 0 4.54102-1.85547 4.54102-4.58984v-19.7754h19.7754c2.68555 0 4.58984-1.80664 4.58984-4.39453 0-2.73438-1.85547-4.58984-4.58984-4.58984h-19.7754v-19.7266c0-2.73438-1.85547-4.63867-4.54102-4.63867-2.58789 0-4.44336 1.9043-4.44336 4.63867v19.7266h-19.7266c-2.73438 0-4.58984 1.85547-4.58984 4.58984Z"/>
  </g>
  <text style="stroke:none;fill:black;font-family:sans-serif;font-size:13;font-weight:bold;" transform="matrix(1 0 0 1 263 1953)">Design Variations</text>
  <text style="stroke:none;fill:black;font-family:sans-serif;font-size:13;" transform="matrix(1 0 0 1 263 1971)">Symbols are supported in up to nine weights and three scales.</text>
  <text style="stroke:none;fill:black;font-family:sans-serif;font-size:13;" transform="matrix(1 0 0 1 263 1989)">For optimal layout with text and other symbols, vertically align</text>
  <text style="stroke:none;fill:black;font-family:sans-serif;font-size:13;" transform="matrix(1 0 0 1 263 2007)">symbols with the adjacent text.</text>
  <line style="fill:none;stroke:#00AEEF;stroke-width:0.5;opacity:1.0;" x1="776" x2="776" y1="1919" y2="1933"/>
  <g transform="matrix(0.2 0 0 0.2 776 1933)">
   <path d="m16.5527 0.78125c2.58789 0 3.85742-0.976562 4.78516-3.71094l6.29883-17.2363h28.8086l6.29883 17.2363c0.927734 2.73438 2.19727 3.71094 4.73633 3.71094 2.58789 0 4.24805-1.5625 4.24805-4.00391 0-0.830078-0.146484-1.61133-0.537109-2.63672l-22.9004-60.9863c-1.12305-2.97852-3.125-4.49219-6.25-4.49219-3.02734 0-5.07812 1.46484-6.15234 4.44336l-22.9004 61.084c-0.390625 1.02539-0.537109 1.80664-0.537109 2.63672 0 2.44141 1.5625 3.95508 4.10156 3.95508Zm13.4766-28.3691 11.8652-32.8613h0.244141l11.8652 32.8613Z"/>
  </g>
  <line style="fill:none;stroke:#00AEEF;stroke-width:0.5;opacity:1.0;" x1="792.836" x2="792.836" y1="1919" y2="1933"/>
  <text style="stroke:none;fill:black;font-family:sans-serif;font-size:13;font-weight:bold;" transform="matrix(1 0 0 1 776 1953)">Margins</text>
  <text style="stroke:none;fill:black;font-family:sans-serif;font-size:13;" transform="matrix(1 0 0 1 776 1971)">Leading and trailing margins on the left and right side of each symbol</text>
  <text style="stroke:none;fill:black;font-family:sans-serif;font-size:13;" transform="matrix(1 0 0 1 776 1989)">can be adjusted by modifying the x-location of the margin guidelines.</text>
  <text style="stroke:none;fill:black;font-family:sans-serif;font-size:13;" transform="matrix(1 0 0 1 776 2007)">Modifications are automatically applied proportionally to all</text>
  <text style="stroke:none;fill:black;font-family:sans-serif;font-size:13;" transform="matrix(1 0 0 1 776 2025)">scales and weights.</text>
  <g transform="matrix(0.2 0 0 0.2 1289 1933)">
   <path d="m14.209 9.32617 8.49609 8.54492c4.29688 4.3457 9.22852 4.05273 13.8672-1.07422l53.4668-58.9355-4.83398-4.88281-53.0762 58.3984c-1.75781 2.00195-3.41797 2.49023-5.76172 0.146484l-5.85938-5.81055c-2.34375-2.29492-1.80664-4.00391 0.195312-5.81055l57.373-54.0039-4.88281-4.83398-57.959 54.4434c-4.93164 4.58984-5.32227 9.47266-1.02539 13.8184Zm32.0801-90.9668c-2.09961 2.05078-2.24609 4.93164-1.07422 6.88477 1.17188 1.80664 3.4668 2.97852 6.68945 2.14844 7.32422-1.70898 14.9414-2.00195 22.0703 2.68555l-2.92969 7.27539c-1.70898 4.15039-0.830078 7.08008 1.85547 9.81445l11.4746 11.5723c2.44141 2.44141 4.49219 2.53906 7.32422 2.05078l5.32227-0.976562 3.32031 3.36914-0.195312 2.7832c-0.195312 2.49023 0.439453 4.39453 2.88086 6.78711l3.80859 3.71094c2.39258 2.39258 5.46875 2.53906 7.8125 0.195312l14.5508-14.5996c2.34375-2.34375 2.24609-5.32227-0.146484-7.71484l-3.85742-3.80859c-2.39258-2.39258-4.24805-3.17383-6.64062-2.97852l-2.88086 0.244141-3.22266-3.17383 1.2207-5.61523c0.634766-2.83203-0.146484-5.0293-3.07617-7.95898l-10.9863-10.9375c-16.6992-16.6016-38.8672-16.2109-53.3203-1.75781Zm7.4707 1.85547c12.1582-8.88672 28.6133-7.37305 39.7461 3.75977l12.1582 12.0605c1.17188 1.17188 1.36719 2.09961 1.02539 3.80859l-1.61133 7.42188 7.51953 7.42188 4.93164-0.292969c1.26953-0.0488281 1.66016 0.0488281 2.63672 1.02539l2.88086 2.88086-12.207 12.207-2.88086-2.88086c-0.976562-0.976562-1.12305-1.36719-1.07422-2.68555l0.341797-4.88281-7.4707-7.42188-7.61719 1.26953c-1.61133 0.341797-2.34375 0.195312-3.56445-0.976562l-10.0098-10.0098c-1.26953-1.17188-1.41602-2.00195-0.634766-3.85742l4.39453-10.4492c-7.8125-7.27539-17.9688-10.4004-28.125-7.42188-0.78125 0.195312-1.07422-0.439453-0.439453-0.976562Z"/>
  </g>
  <text style="stroke:none;fill:black;font-family:sans-serif;font-size:13;font-weight:bold;" transform="matrix(1 0 0 1 1289 1953)">Exporting</text>
  <text style="stroke:none;fill:black;font-family:sans-serif;font-size:13;" transform="matrix(1 0 0 1 1289 1971)">Symbols should be outlined when exporting to ensure the</text>
  <text style="stroke:none;fill:black;font-family:sans-serif;font-size:13;" transform="matrix(1 0 0 1 1289 1989)">design is preserved when submitting to Xcode.</text>
  <text id="template-version" style="stroke:none;fill:black;font-family:sans-serif;font-size:13;text-anchor:end;" transform="matrix(1 0 0 1 3036 1933)">Template v.6.0</text>
  <text style="stroke:none;fill:black;font-family:sans-serif;font-size:13;text-anchor:end;" transform="matrix(1 0 0 1 3036 1951)">Requires Xcode 16 or greater</text>
  <text id="descriptive-name" style="stroke:none;fill:black;font-family:sans-serif;font-size:13;text-anchor:end;" transform="matrix(1 0 0 1 3036 1969)">Generated from square</text>
  <text style="stroke:none;fill:black;font-family:sans-serif;font-size:13;text-anchor:end;" transform="matrix(1 0 0 1 3036 1987)">Typeset at 100.0 points</text>
  <text style="stroke:none;fill:black;font-family:sans-serif;font-size:13;" transform="matrix(1 0 0 1 263 726)">Small</text>
  <text style="stroke:none;fill:black;font-family:sans-serif;font-size:13;" transform="matrix(1 0 0 1 263 1156)">Medium</text>
  <text style="stroke:none;fill:black;font-family:sans-serif;font-size:13;" transform="matrix(1 0 0 1 263 1586)">Large</text>
 </g>
 <g id="Guides">
  <g id="H-reference" style="fill:#27AAE1;stroke:none;" transform="matrix(1 0 0 1 339 696)">
   <path d="M0.993654 0L3.63775 0L29.3281-67.1323L30.0303-67.1323L30.0303-70.459L28.1226-70.459ZM11.6885-24.4799L46.9815-24.4799L46.2315-26.7285L12.4385-26.7285ZM55.1196 0L57.7637 0L30.6382-70.459L29.4326-70.459L29.4326-67.1323Z"/>
  </g>
  <line id="Baseline-S" style="fill:none;stroke:#27AAE1;opacity:1;stroke-width:0.5;" x1="263" x2="3036" y1="696" y2="696"/>
  <line id="Capline-S" style="fill:none;stroke:#27AAE1;opacity:1;stroke-width:0.5;" x1="263" x2="3036" y1="625.541" y2="625.541"/>
  <g id="H-reference" style="fill:#27AAE1;stroke:none;" transform="matrix(1 0 0 1 339 1126)">
   <path d="M0.993654 0L3.63775 0L29.3281-67.1323L30.0303-67.1323L30.0303-70.459L28.1226-70.459ZM11.6885-24.4799L46.9815-24.4799L46.2315-26.7285L12.4385-26.7285ZM55.1196 0L57.7637 0L30.6382-70.459L29.4326-70.459L29.4326-67.1323Z"/>
  </g>
  <line id="Baseline-M" style="fill:none;stroke:#27AAE1;opacity:1;stroke-width:0.5;" x1="263" x2="3036" y1="1126" y2="1126"/>
  <line id="Capline-M" style="fill:none;stroke:#27AAE1;opacity:1;stroke-width:0.5;" x1="263" x2="3036" y1="1055.54" y2="1055.54"/>
  <g id="H-reference" style="fill:#27AAE1;stroke:none;" transform="matrix(1 0 0 1 339 1556)">
   <path d="M0.993654 0L3.63775 0L29.3281-67.1323L30.0303-67.1323L30.0303-70.459L28.1226-70.459ZM11.6885-24.4799L46.9815-24.4799L46.2315-26.7285L12.4385-26.7285ZM55.1196 0L57.7637 0L30.6382-70.459L29.4326-70.459L29.4326-67.1323Z"/>
  </g>
  <line id="Baseline-L" style="fill:none;stroke:#27AAE1;opacity:1;stroke-width:0.5;" x1="263" x2="3036" y1="1556" y2="1556"/>
  <line id="Capline-L" style="fill:none;stroke:#27AAE1;opacity:1;stroke-width:0.5;" x1="263" x2="3036" y1="1485.54" y2="1485.54"/>
  <line id="right-margin-Black-S" style="fill:none;stroke:#00AEEF;stroke-width:0.5;opacity:1.0;" x1="2981.3" x2="2981.3" y1="600.785" y2="720.121"/>
  <line id="left-margin-Black-S" style="fill:none;stroke:#00AEEF;stroke-width:0.5;opacity:1.0;" x1="2885.5" x2="2885.5" y1="600.785" y2="720.121"/>
  <line id="right-margin-Regular-S" style="fill:none;stroke:#00AEEF;stroke-width:0.5;opacity:1.0;" x1="1495.18" x2="1495.18" y1="600.785" y2="720.121"/>
  <line id="left-margin-Regular-S" style="fill:none;stroke:#00AEEF;stroke-width:0.5;opacity:1.0;" x1="1404.51" x2="1404.51" y1="600.785" y2="720.121"/>
  <line id="right-margin-Ultralight-S" style="fill:none;stroke:#00AEEF;stroke-width:0.5;opacity:1.0;" x1="603.073" x2="603.073" y1="600.785" y2="720.121"/>
  <line id="left-margin-Ultralight-S" style="fill:none;stroke:#00AEEF;stroke-width:0.5;opacity:1.0;" x1="516.35" x2="516.35" y1="600.785" y2="720.121"/>
 </g>
 <g id="Symbols">
  <g id="Black-S"><path d="M2922.35014,647.44346c0.99244,3.17074 2.90573,6.14097 4.77671,8.93423l0.43781,0.65233c0.44918,0.66877 0.8916,1.32698 1.31347,1.97549c0,0 -1.63383,-1.25916 -2.37086,-1.83604c-3.30323,-2.58493 -5.65289,-4.42365 -8.62447,-5.00808c-0.66243,-0.13029 -1.35575,-0.19825 -2.09742,-0.19825c-6.48557,0 -11.74316,5.25771 -11.74316,11.74316c0,6.48546 5.25759,11.74316 11.74316,11.74316c1.98545,0 3.97092,-0.53725 5.98543,-1.40801c2.00629,-0.86723 4.04141,-2.06533 6.1341,-3.39348c-0.04668,2.853 -0.39064,5.22512 -0.96787,7.40348c-0.72288,2.72794 -1.81176,5.15114 -3.14162,7.83298c-0.96957,1.95524 0.42933,4.24398 2.61174,4.24398h13.98602c2.18217,0 3.58108,-2.28874 2.61168,-4.24398c-1.32991,-2.68185 -2.4188,-5.10505 -3.14159,-7.83298c-0.57718,-2.17836 -0.92125,-4.55048 -0.96793,-7.40348c2.09263,1.32815 4.12772,2.52625 6.13404,3.39348c2.01454,0.87105 4.00002,1.40801 5.98549,1.40801c6.48546,0 11.74316,-5.25771 11.74316,-11.74316c0,-6.48546 -5.25771,-11.74316 -11.74316,-11.74316c-0.78327,0 -1.51252,0.07577 -2.2083,0.22071c-2.91964,0.608 -5.25154,2.43298 -8.5135,4.98562c-0.73718,0.57688 -2.37094,1.83604 -2.37094,1.83604c0.2284,-0.35141 0.45681,-0.70077 0.68375,-1.04837l0.0044,-0.00646l0.00029,-0.00059l0.00029,-0.00059l0.00059,-0.00059c0.35083,-0.53696 0.69872,-1.06951 1.04074,-1.59824c1.97931,-3.06062 3.75811,-5.99016 4.72516,-8.87598c0.48499,-1.44699 0.76595,-2.88295 0.76595,-4.31893c0,-6.48557 -5.25771,-11.74316 -11.74316,-11.74316c-6.48557,0 -11.74316,5.25759 -11.74316,11.74316c0,1.4691 0.25811,2.89766 0.69317,4.28769zM2937.68169,648.20749c-1.02929,2.00024 -2.37329,4.05911 -3.98152,6.52286l-0.30121,0.46127c-0.38518,-0.58355 -0.75655,-1.13644 -1.1156,-1.67026v-0.00009c-1.11766,-1.66313 -2.11113,-3.14091 -2.99862,-4.78681c-1.20162,-2.22812 -1.75619,-4.01176 -1.75619,-5.57871c0,-3.24279 2.62871,-5.87158 5.87158,-5.87158c3.24287,0 5.87158,2.6288 5.87158,5.87158c0,1.21489 -0.43097,2.79942 -1.59002,5.05173zM2928.98411,664.87621c1.39832,-0.02525 2.78518,-0.54841 3.87701,-1.55656c0.19435,-0.17938 0.37402,-0.36903 0.53901,-0.56808c0.16499,0.19905 0.34466,0.3887 0.53901,0.56808c1.09182,1.00815 2.47869,1.53131 3.87701,1.55656c-0.61916,0.11567 -1.22452,0.33204 -1.79142,0.64969c-1.22775,0.68786 -2.1446,1.77909 -2.6246,3.05352c-0.48,-1.27443 -1.39685,-2.36566 -2.6246,-3.05352c-0.5669,-0.31765 -1.17226,-0.53402 -1.79142,-0.64969zM2931.00834,684.25684c1.07861,-2.60904 1.92999,-5.34842 2.39179,-8.59423c0.4618,3.24581 1.31318,5.9852 2.39179,8.59423zM2939.00368,664.77728c1.59854,-0.29857 2.91612,-1.37043 4.17381,-2.39355c0.24661,-0.20081 0.49086,-0.39956 0.73483,-0.59009c4.34468,-3.39994 5.38453,-3.95891 7.10315,-3.95891c3.24287,0 5.87158,2.62871 5.87158,5.87158c0,3.24287 -2.62871,5.87158 -5.87158,5.87158c-2.05241,0 -4.67994,-1.16257 -8.97295,-3.88728c-0.92683,-0.58833 -1.9799,-0.89395 -3.03884,-0.91332zM2915.78539,657.83472c1.71879,0 2.75862,0.55897 7.10335,3.95891c0.24373,0.19053 0.48808,0.38929 0.73471,0.59009c1.25769,1.02312 2.57513,2.09498 4.17373,2.39355c-1.05879,0.01938 -2.11186,0.32499 -3.03878,0.91332c-4.29283,2.72471 -6.92054,3.88728 -8.97301,3.88728c-3.24279,0 -5.87158,-2.62871 -5.87158,-5.87158c0,-3.24287 2.6288,-5.87158 5.87158,-5.87158z" className="SFSymbolsPreviewWireframe"/></g>
  <g id="Regular-S"><path d="M1438.79509,647.44346c0.99244,3.17074 2.90573,6.14097 4.77671,8.93423l0.43781,0.65233c0.44918,0.66877 0.8916,1.32698 1.31347,1.97549c0,0 -1.63383,-1.25916 -2.37086,-1.83604c-3.30323,-2.58493 -5.65289,-4.42365 -8.62447,-5.00808c-0.66243,-0.13029 -1.35575,-0.19825 -2.09742,-0.19825c-6.48557,0 -11.74316,5.25771 -11.74316,11.74316c0,6.48546 5.25759,11.74316 11.74316,11.74316c1.98545,0 3.97092,-0.53725 5.98543,-1.40801c2.00629,-0.86723 4.04141,-2.06533 6.1341,-3.39348c-0.04668,2.853 -0.39064,5.22512 -0.96787,7.40348c-0.72288,2.72794 -1.81176,5.15114 -3.14162,7.83298c-0.96957,1.95524 0.42933,4.24398 2.61174,4.24398h13.98602c2.18217,0 3.58108,-2.28874 2.61168,-4.24398c-1.32991,-2.68185 -2.4188,-5.10505 -3.14159,-7.83298c-0.57718,-2.17836 -0.92125,-4.55048 -0.96793,-7.40348c2.09263,1.32815 4.12772,2.52625 6.13404,3.39348c2.01454,0.87105 4.00002,1.40801 5.98549,1.40801c6.48546,0 11.74316,-5.25771 11.74316,-11.74316c0,-6.48546 -5.25771,-11.74316 -11.74316,-11.74316c-0.78327,0 -1.51252,0.07577 -2.2083,0.22071c-2.91964,0.608 -5.25154,2.43298 -8.5135,4.98562c-0.73718,0.57688 -2.37094,1.83604 -2.37094,1.83604c0.2284,-0.35141 0.45681,-0.70077 0.68375,-1.04837l0.0044,-0.00646l0.00029,-0.00059l0.00029,-0.00059l0.00059,-0.00059c0.35083,-0.53696 0.69872,-1.06951 1.04074,-1.59824c1.97931,-3.06062 3.75811,-5.99016 4.72516,-8.87598c0.48499,-1.44699 0.76595,-2.88295 0.76595,-4.31893c0,-6.48557 -5.25771,-11.74316 -11.74316,-11.74316c-6.48557,0 -11.74316,5.25759 -11.74316,11.74316c0,1.4691 0.25811,2.89766 0.69317,4.28769zM1454.12664,648.20749c-1.02929,2.00024 -2.37329,4.05911 -3.98152,6.52286l-0.30121,0.46127c-0.38518,-0.58355 -0.75655,-1.13644 -1.1156,-1.67026v-0.00009c-1.11766,-1.66313 -2.11113,-3.14091 -2.99862,-4.78681c-1.20162,-2.22812 -1.75619,-4.01176 -1.75619,-5.57871c0,-3.24279 2.62871,-5.87158 5.87158,-5.87158c3.24287,0 5.87158,2.6288 5.87158,5.87158c0,1.21489 -0.43097,2.79942 -1.59002,5.05173zM1445.42906,664.87621c1.39832,-0.02525 2.78518,-0.54841 3.87701,-1.55656c0.19435,-0.17938 0.37402,-0.36903 0.53901,-0.56808c0.16499,0.19905 0.34466,0.3887 0.53901,0.56808c1.09182,1.00815 2.47869,1.53131 3.87701,1.55656c-0.61916,0.11567 -1.22452,0.33204 -1.79142,0.64969c-1.22775,0.68786 -2.1446,1.77909 -2.6246,3.05352c-0.48,-1.27443 -1.39685,-2.36566 -2.6246,-3.05352c-0.5669,-0.31765 -1.17226,-0.53402 -1.79142,-0.64969zM1447.45329,684.25684c1.07861,-2.60904 1.92999,-5.34842 2.39179,-8.59423c0.4618,3.24581 1.31318,5.9852 2.39179,8.59423zM1455.44863,664.77728c1.59854,-0.29857 2.91612,-1.37043 4.17381,-2.39355c0.24661,-0.20081 0.49086,-0.39956 0.73483,-0.59009c4.34468,-3.39994 5.38453,-3.95891 7.10315,-3.95891c3.24287,0 5.87158,2.62871 5.87158,5.87158c0,3.24287 -2.62871,5.87158 -5.87158,5.87158c-2.05241,0 -4.67994,-1.16257 -8.97295,-3.88728c-0.92683,-0.58833 -1.9799,-0.89395 -3.03884,-0.91332zM1432.23034,657.83472c1.71879,0 2.75862,0.55897 7.10335,3.95891c0.24373,0.19053 0.48808,0.38929 0.73471,0.59009c1.25769,1.02312 2.57513,2.09498 4.17373,2.39355c-1.05879,0.01938 -2.11186,0.32499 -3.03878,0.91332c-4.29283,2.72471 -6.92054,3.88728 -8.97301,3.88728c-3.24279,0 -5.87158,-2.62871 -5.87158,-5.87158c0,-3.24287 2.6288,-5.87158 5.87158,-5.87158z" className="SFSymbolsPreviewWireframe"/></g>
  <g id="Ultralight-S"><path d="M548.6615,647.44346c0.99244,3.17074 2.90573,6.14097 4.77671,8.93423l0.43781,0.65233c0.44918,0.66877 0.8916,1.32698 1.31347,1.97549c0,0 -1.63383,-1.25916 -2.37086,-1.83604c-3.30323,-2.58493 -5.65289,-4.42365 -8.62447,-5.00808c-0.66243,-0.13029 -1.35575,-0.19825 -2.09742,-0.19825c-6.48557,0 -11.74316,5.25771 -11.74316,11.74316c0,6.48546 5.25759,11.74316 11.74316,11.74316c1.98545,0 3.97092,-0.53725 5.98543,-1.40801c2.00629,-0.86723 4.04141,-2.06533 6.1341,-3.39348c-0.04668,2.853 -0.39064,5.22512 -0.96787,7.40348c-0.72288,2.72794 -1.81176,5.15114 -3.14162,7.83298c-0.96957,1.95524 0.42933,4.24398 2.61174,4.24398h13.98602c2.18217,0 3.58108,-2.28874 2.61168,-4.24398c-1.32991,-2.68185 -2.4188,-5.10505 -3.14159,-7.83298c-0.57718,-2.17836 -0.92125,-4.55048 -0.96793,-7.40348c2.09263,1.32815 4.12772,2.52625 6.13404,3.39348c2.01454,0.87105 4.00002,1.40801 5.98549,1.40801c6.48546,0 11.74316,-5.25771 11.74316,-11.74316c0,-6.48546 -5.25771,-11.74316 -11.74316,-11.74316c-0.78327,0 -1.51252,0.07577 -2.2083,0.22071c-2.91964,0.608 -5.25154,2.43298 -8.5135,4.98562c-0.73718,0.57688 -2.37094,1.83604 -2.37094,1.83604c0.2284,-0.35141 0.45681,-0.70077 0.68375,-1.04837l0.0044,-0.00646l0.00029,-0.00059l0.00029,-0.00059l0.00059,-0.00059c0.35083,-0.53696 0.69872,-1.06951 1.04074,-1.59824c1.97931,-3.06062 3.75811,-5.99016 4.72516,-8.87598c0.48499,-1.44699 0.76595,-2.88295 0.76595,-4.31893c0,-6.48557 -5.25771,-11.74316 -11.74316,-11.74316c-6.48557,0 -11.74316,5.25759 -11.74316,11.74316c0,1.4691 0.25811,2.89766 0.69317,4.28769zM563.99305,648.20749c-1.02929,2.00024 -2.37329,4.05911 -3.98152,6.52286l-0.30121,0.46127c-0.38518,-0.58355 -0.75655,-1.13644 -1.1156,-1.67026v-0.00009c-1.11766,-1.66313 -2.11113,-3.14091 -2.99862,-4.78681c-1.20162,-2.22812 -1.75619,-4.01176 -1.75619,-5.57871c0,-3.24279 2.62871,-5.87158 5.87158,-5.87158c3.24287,0 5.87158,2.6288 5.87158,5.87158c0,1.21489 -0.43097,2.79942 -1.59002,5.05173zM555.29547,664.87621c1.39832,-0.02525 2.78518,-0.54841 3.87701,-1.55656c0.19435,-0.17938 0.37402,-0.36903 0.53901,-0.56808c0.16499,0.19905 0.34466,0.3887 0.53901,0.56808c1.09182,1.00815 2.47869,1.53131 3.87701,1.55656c-0.61916,0.11567 -1.22452,0.33204 -1.79142,0.64969c-1.22775,0.68786 -2.1446,1.77909 -2.6246,3.05352c-0.48,-1.27443 -1.39685,-2.36566 -2.6246,-3.05352c-0.5669,-0.31765 -1.17226,-0.53402 -1.79142,-0.64969zM557.3197,684.25684c1.07861,-2.60904 1.92999,-5.34842 2.39179,-8.59423c0.4618,3.24581 1.31318,5.9852 2.39179,8.59423zM565.31504,664.77728c1.59854,-0.29857 2.91612,-1.37043 4.17381,-2.39355c0.24661,-0.20081 0.49086,-0.39956 0.73483,-0.59009c4.34468,-3.39994 5.38453,-3.95891 7.10315,-3.95891c3.24287,0 5.87158,2.62871 5.87158,5.87158c0,3.24287 -2.62871,5.87158 -5.87158,5.87158c-2.05241,0 -4.67994,-1.16257 -8.97295,-3.88728c-0.92683,-0.58833 -1.9799,-0.89395 -3.03884,-0.91332zM542.09675,657.83472c1.71879,0 2.75862,0.55897 7.10335,3.95891c0.24373,0.19053 0.48808,0.38929 0.73471,0.59009c1.25769,1.02312 2.57513,2.09498 4.17373,2.39355c-1.05879,0.01938 -2.11186,0.32499 -3.03878,0.91332c-4.29283,2.72471 -6.92054,3.88728 -8.97301,3.88728c-3.24279,0 -5.87158,-2.62871 -5.87158,-5.87158c0,-3.24287 2.6288,-5.87158 5.87158,-5.87158z" className="SFSymbolsPreviewWireframe"/></g>
 </g>
</svg>