<?xml version="1.0" encoding="UTF-8"?><!--Generator: SF Tools--><!DOCTYPE svg PUBLIC "-//W3C//DTD SVG 1.1//EN" "http://www.w3.org/Graphics/SVG/1.1/DTD/svg11.dtd"><svg xmlns="http://www.w3.org/2000/svg" xmlns:xlink="http://www.w3.org/1999/xlink" version="1.1" viewBox="0 0 3300 2200">
 <!--glyph: "100092", point size: 100.0, font version: "20.0d10e1", template writer version: "138.0.0"-->
 <style>.SFSymbolsPreviewWireframe {fill:none;opacity:1.0;stroke:black;stroke-width:0.5}
</style>
 <g id="Notes">
  <rect height="2200" id="artboard" style="fill:white;opacity:1" width="3300" x="0" y="0"/>
  <line style="fill:none;stroke:black;opacity:1;stroke-width:0.5;" x1="263" x2="3036" y1="292" y2="292"/>
  <text style="stroke:none;fill:black;font-family:sans-serif;font-size:13;font-weight:bold;" transform="matrix(1 0 0 1 263 322)">Weight/Scale Variations</text>
  <text style="stroke:none;fill:black;font-family:sans-serif;font-size:13;text-anchor:middle;" transform="matrix(1 0 0 1 559.711 322)">Ultralight</text>
  <text style="stroke:none;fill:black;font-family:sans-serif;font-size:13;text-anchor:middle;" transform="matrix(1 0 0 1 856.422 322)">Thin</text>
  <text style="stroke:none;fill:black;font-family:sans-serif;font-size:13;text-anchor:middle;" transform="matrix(1 0 0 1 1153.13 322)">Light</text>
  <text style="stroke:none;fill:black;font-family:sans-serif;font-size:13;text-anchor:middle;" transform="matrix(1 0 0 1 1449.84 322)">Regular</text>
  <text style="stroke:none;fill:black;font-family:sans-serif;font-size:13;text-anchor:middle;" transform="matrix(1 0 0 1 1746.56 322)">Medium</text>
  <text style="stroke:none;fill:black;font-family:sans-serif;font-size:13;text-anchor:middle;" transform="matrix(1 0 0 1 2043.27 322)">Semibold</text>
  <text style="stroke:none;fill:black;font-family:sans-serif;font-size:13;text-anchor:middle;" transform="matrix(1 0 0 1 2339.98 322)">Bold</text>
  <text style="stroke:none;fill:black;font-family:sans-serif;font-size:13;text-anchor:middle;" transform="matrix(1 0 0 1 2636.69 322)">Heavy</text>
  <text style="stroke:none;fill:black;font-family:sans-serif;font-size:13;text-anchor:middle;" transform="matrix(1 0 0 1 2933.4 322)">Black</text>
  <line style="fill:none;stroke:black;opacity:1;stroke-width:0.5;" x1="263" x2="3036" y1="1903" y2="1903"/>
  <g transform="matrix(0.2 0 0 0.2 263 1933)">
   <path d="m46.2402 4.15039c21.7773 0 39.4531-17.627 39.4531-39.4043s-17.6758-39.4043-39.4531-39.4043c-21.7285 0-39.4043 17.627-39.4043 39.4043s17.6758 39.4043 39.4043 39.4043Zm0-7.42188c-17.6758 0-31.9336-14.3066-31.9336-31.9824s14.2578-31.9824 31.9336-31.9824 31.9824 14.3066 31.9824 31.9824-14.3066 31.9824-31.9824 31.9824Zm-17.9688-31.9824c0 2.14844 1.51367 3.61328 3.75977 3.61328h10.498v10.5957c0 2.19727 1.46484 3.71094 3.61328 3.71094 2.24609 0 3.71094-1.51367 3.71094-3.71094v-10.5957h10.5957c2.19727 0 3.71094-1.46484 3.71094-3.61328 0-2.19727-1.51367-3.71094-3.71094-3.71094h-10.5957v-10.5469c0-2.24609-1.46484-3.75977-3.71094-3.75977-2.14844 0-3.61328 1.51367-3.61328 3.75977v10.5469h-10.498c-2.24609 0-3.75977 1.51367-3.75977 3.71094Z"/>
  </g>
  <g transform="matrix(0.2 0 0 0.2 281.506 1933)">
   <path d="m58.5449 14.5508c27.4902 0 49.8047-22.3145 49.8047-49.8047s-22.3145-49.8047-49.8047-49.8047-49.8047 22.3145-49.8047 49.8047 22.3145 49.8047 49.8047 49.8047Zm0-8.30078c-22.9492 0-41.5039-18.5547-41.5039-41.5039s18.5547-41.5039 41.5039-41.5039 41.5039 18.5547 41.5039 41.5039-18.5547 41.5039-41.5039 41.5039Zm-22.6562-41.5039c0 2.39258 1.66016 4.00391 4.15039 4.00391h14.3555v14.4043c0 2.44141 1.66016 4.15039 4.05273 4.15039 2.44141 0 4.15039-1.66016 4.15039-4.15039v-14.4043h14.4043c2.44141 0 4.15039-1.61133 4.15039-4.00391 0-2.44141-1.70898-4.15039-4.15039-4.15039h-14.4043v-14.3555c0-2.49023-1.70898-4.19922-4.15039-4.19922-2.39258 0-4.05273 1.70898-4.05273 4.19922v14.3555h-14.3555c-2.49023 0-4.15039 1.70898-4.15039 4.15039Z"/>
  </g>
  <g transform="matrix(0.2 0 0 0.2 304.924 1933)">
   <path d="m74.8535 28.3203c35.1074 0 63.623-28.4668 63.623-63.5742s-28.5156-63.623-63.623-63.623-63.5742 28.5156-63.5742 63.623 28.4668 63.5742 63.5742 63.5742Zm0-9.08203c-30.127 0-54.4922-24.3652-54.4922-54.4922s24.3652-54.4922 54.4922-54.4922 54.4922 24.3652 54.4922 54.4922-24.3652 54.4922-54.4922 54.4922Zm-28.8574-54.4922c0 2.58789 1.85547 4.39453 4.58984 4.39453h19.7266v19.7754c0 2.68555 1.85547 4.58984 4.44336 4.58984 2.68555 0 4.54102-1.85547 4.54102-4.58984v-19.7754h19.7754c2.68555 0 4.58984-1.80664 4.58984-4.39453 0-2.73438-1.85547-4.58984-4.58984-4.58984h-19.7754v-19.7266c0-2.73438-1.85547-4.63867-4.54102-4.63867-2.58789 0-4.44336 1.9043-4.44336 4.63867v19.7266h-19.7266c-2.73438 0-4.58984 1.85547-4.58984 4.58984Z"/>
  </g>
  <text style="stroke:none;fill:black;font-family:sans-serif;font-size:13;font-weight:bold;" transform="matrix(1 0 0 1 263 1953)">Design Variations</text>
  <text style="stroke:none;fill:black;font-family:sans-serif;font-size:13;" transform="matrix(1 0 0 1 263 1971)">Symbols are supported in up to nine weights and three scales.</text>
  <text style="stroke:none;fill:black;font-family:sans-serif;font-size:13;" transform="matrix(1 0 0 1 263 1989)">For optimal layout with text and other symbols, vertically align</text>
  <text style="stroke:none;fill:black;font-family:sans-serif;font-size:13;" transform="matrix(1 0 0 1 263 2007)">symbols with the adjacent text.</text>
  <line style="fill:none;stroke:#00AEEF;stroke-width:0.5;opacity:1.0;" x1="776" x2="776" y1="1919" y2="1933"/>
  <g transform="matrix(0.2 0 0 0.2 776 1933)">
   <path d="m16.5527 0.78125c2.58789 0 3.85742-0.976562 4.78516-3.71094l6.29883-17.2363h28.8086l6.29883 17.2363c0.927734 2.73438 2.19727 3.71094 4.73633 3.71094 2.58789 0 4.24805-1.5625 4.24805-4.00391 0-0.830078-0.146484-1.61133-0.537109-2.63672l-22.9004-60.9863c-1.12305-2.97852-3.125-4.49219-6.25-4.49219-3.02734 0-5.07812 1.46484-6.15234 4.44336l-22.9004 61.084c-0.390625 1.02539-0.537109 1.80664-0.537109 2.63672 0 2.44141 1.5625 3.95508 4.10156 3.95508Zm13.4766-28.3691 11.8652-32.8613h0.244141l11.8652 32.8613Z"/>
  </g>
  <line style="fill:none;stroke:#00AEEF;stroke-width:0.5;opacity:1.0;" x1="792.836" x2="792.836" y1="1919" y2="1933"/>
  <text style="stroke:none;fill:black;font-family:sans-serif;font-size:13;font-weight:bold;" transform="matrix(1 0 0 1 776 1953)">Margins</text>
  <text style="stroke:none;fill:black;font-family:sans-serif;font-size:13;" transform="matrix(1 0 0 1 776 1971)">Leading and trailing margins on the left and right side of each symbol</text>
  <text style="stroke:none;fill:black;font-family:sans-serif;font-size:13;" transform="matrix(1 0 0 1 776 1989)">can be adjusted by modifying the x-location of the margin guidelines.</text>
  <text style="stroke:none;fill:black;font-family:sans-serif;font-size:13;" transform="matrix(1 0 0 1 776 2007)">Modifications are automatically applied proportionally to all</text>
  <text style="stroke:none;fill:black;font-family:sans-serif;font-size:13;" transform="matrix(1 0 0 1 776 2025)">scales and weights.</text>
  <g transform="matrix(0.2 0 0 0.2 1289 1933)">
   <path d="m14.209 9.32617 8.49609 8.54492c4.29688 4.3457 9.22852 4.05273 13.8672-1.07422l53.4668-58.9355-4.83398-4.88281-53.0762 58.3984c-1.75781 2.00195-3.41797 2.49023-5.76172 0.146484l-5.85938-5.81055c-2.34375-2.29492-1.80664-4.00391 0.195312-5.81055l57.373-54.0039-4.88281-4.83398-57.959 54.4434c-4.93164 4.58984-5.32227 9.47266-1.02539 13.8184Zm32.0801-90.9668c-2.09961 2.05078-2.24609 4.93164-1.07422 6.88477 1.17188 1.80664 3.4668 2.97852 6.68945 2.14844 7.32422-1.70898 14.9414-2.00195 22.0703 2.68555l-2.92969 7.27539c-1.70898 4.15039-0.830078 7.08008 1.85547 9.81445l11.4746 11.5723c2.44141 2.44141 4.49219 2.53906 7.32422 2.05078l5.32227-0.976562 3.32031 3.36914-0.195312 2.7832c-0.195312 2.49023 0.439453 4.39453 2.88086 6.78711l3.80859 3.71094c2.39258 2.39258 5.46875 2.53906 7.8125 0.195312l14.5508-14.5996c2.34375-2.34375 2.24609-5.32227-0.146484-7.71484l-3.85742-3.80859c-2.39258-2.39258-4.24805-3.17383-6.64062-2.97852l-2.88086 0.244141-3.22266-3.17383 1.2207-5.61523c0.634766-2.83203-0.146484-5.0293-3.07617-7.95898l-10.9863-10.9375c-16.6992-16.6016-38.8672-16.2109-53.3203-1.75781Zm7.4707 1.85547c12.1582-8.88672 28.6133-7.37305 39.7461 3.75977l12.1582 12.0605c1.17188 1.17188 1.36719 2.09961 1.02539 3.80859l-1.61133 7.42188 7.51953 7.42188 4.93164-0.292969c1.26953-0.0488281 1.66016 0.0488281 2.63672 1.02539l2.88086 2.88086-12.207 12.207-2.88086-2.88086c-0.976562-0.976562-1.12305-1.36719-1.07422-2.68555l0.341797-4.88281-7.4707-7.42188-7.61719 1.26953c-1.61133 0.341797-2.34375 0.195312-3.56445-0.976562l-10.0098-10.0098c-1.26953-1.17188-1.41602-2.00195-0.634766-3.85742l4.39453-10.4492c-7.8125-7.27539-17.9688-10.4004-28.125-7.42188-0.78125 0.195312-1.07422-0.439453-0.439453-0.976562Z"/>
  </g>
  <text style="stroke:none;fill:black;font-family:sans-serif;font-size:13;font-weight:bold;" transform="matrix(1 0 0 1 1289 1953)">Exporting</text>
  <text style="stroke:none;fill:black;font-family:sans-serif;font-size:13;" transform="matrix(1 0 0 1 1289 1971)">Symbols should be outlined when exporting to ensure the</text>
  <text style="stroke:none;fill:black;font-family:sans-serif;font-size:13;" transform="matrix(1 0 0 1 1289 1989)">design is preserved when submitting to Xcode.</text>
  <text id="template-version" style="stroke:none;fill:black;font-family:sans-serif;font-size:13;text-anchor:end;" transform="matrix(1 0 0 1 3036 1933)">Template v.6.0</text>
  <text style="stroke:none;fill:black;font-family:sans-serif;font-size:13;text-anchor:end;" transform="matrix(1 0 0 1 3036 1951)">Requires Xcode 16 or greater</text>
  <text id="descriptive-name" style="stroke:none;fill:black;font-family:sans-serif;font-size:13;text-anchor:end;" transform="matrix(1 0 0 1 3036 1969)">Generated from square</text>
  <text style="stroke:none;fill:black;font-family:sans-serif;font-size:13;text-anchor:end;" transform="matrix(1 0 0 1 3036 1987)">Typeset at 100.0 points</text>
  <text style="stroke:none;fill:black;font-family:sans-serif;font-size:13;" transform="matrix(1 0 0 1 263 726)">Small</text>
  <text style="stroke:none;fill:black;font-family:sans-serif;font-size:13;" transform="matrix(1 0 0 1 263 1156)">Medium</text>
  <text style="stroke:none;fill:black;font-family:sans-serif;font-size:13;" transform="matrix(1 0 0 1 263 1586)">Large</text>
 </g>
 <g id="Guides">
  <g id="H-reference" style="fill:#27AAE1;stroke:none;" transform="matrix(1 0 0 1 339 696)">
   <path d="M0.993654 0L3.63775 0L29.3281-67.1323L30.0303-67.1323L30.0303-70.459L28.1226-70.459ZM11.6885-24.4799L46.9815-24.4799L46.2315-26.7285L12.4385-26.7285ZM55.1196 0L57.7637 0L30.6382-70.459L29.4326-70.459L29.4326-67.1323Z"/>
  </g>
  <line id="Baseline-S" style="fill:none;stroke:#27AAE1;opacity:1;stroke-width:0.5;" x1="263" x2="3036" y1="696" y2="696"/>
  <line id="Capline-S" style="fill:none;stroke:#27AAE1;opacity:1;stroke-width:0.5;" x1="263" x2="3036" y1="625.541" y2="625.541"/>
  <g id="H-reference" style="fill:#27AAE1;stroke:none;" transform="matrix(1 0 0 1 339 1126)">
   <path d="M0.993654 0L3.63775 0L29.3281-67.1323L30.0303-67.1323L30.0303-70.459L28.1226-70.459ZM11.6885-24.4799L46.9815-24.4799L46.2315-26.7285L12.4385-26.7285ZM55.1196 0L57.7637 0L30.6382-70.459L29.4326-70.459L29.4326-67.1323Z"/>
  </g>
  <line id="Baseline-M" style="fill:none;stroke:#27AAE1;opacity:1;stroke-width:0.5;" x1="263" x2="3036" y1="1126" y2="1126"/>
  <line id="Capline-M" style="fill:none;stroke:#27AAE1;opacity:1;stroke-width:0.5;" x1="263" x2="3036" y1="1055.54" y2="1055.54"/>
  <g id="H-reference" style="fill:#27AAE1;stroke:none;" transform="matrix(1 0 0 1 339 1556)">
   <path d="M0.993654 0L3.63775 0L29.3281-67.1323L30.0303-67.1323L30.0303-70.459L28.1226-70.459ZM11.6885-24.4799L46.9815-24.4799L46.2315-26.7285L12.4385-26.7285ZM55.1196 0L57.7637 0L30.6382-70.459L29.4326-70.459L29.4326-67.1323Z"/>
  </g>
  <line id="Baseline-L" style="fill:none;stroke:#27AAE1;opacity:1;stroke-width:0.5;" x1="263" x2="3036" y1="1556" y2="1556"/>
  <line id="Capline-L" style="fill:none;stroke:#27AAE1;opacity:1;stroke-width:0.5;" x1="263" x2="3036" y1="1485.54" y2="1485.54"/>
  <line id="right-margin-Black-S" style="fill:none;stroke:#00AEEF;stroke-width:0.5;opacity:1.0;" x1="2981.3" x2="2981.3" y1="600.785" y2="720.121"/>
  <line id="left-margin-Black-S" style="fill:none;stroke:#00AEEF;stroke-width:0.5;opacity:1.0;" x1="2885.5" x2="2885.5" y1="600.785" y2="720.121"/>
  <line id="right-margin-Regular-S" style="fill:none;stroke:#00AEEF;stroke-width:0.5;opacity:1.0;" x1="1495.18" x2="1495.18" y1="600.785" y2="720.121"/>
  <line id="left-margin-Regular-S" style="fill:none;stroke:#00AEEF;stroke-width:0.5;opacity:1.0;" x1="1404.51" x2="1404.51" y1="600.785" y2="720.121"/>
  <line id="right-margin-Ultralight-S" style="fill:none;stroke:#00AEEF;stroke-width:0.5;opacity:1.0;" x1="603.073" x2="603.073" y1="600.785" y2="720.121"/>
  <line id="left-margin-Ultralight-S" style="fill:none;stroke:#00AEEF;stroke-width:0.5;opacity:1.0;" x1="516.35" x2="516.35" y1="600.785" y2="720.121"/>
 </g>
 <g id="Symbols">
  <g id="Black-S"><path d="M2933.40016,665.17431c-2.4323,0 -4.40369,-1.97168 -4.40369,-4.40369c0,-2.4323 1.97138,-4.40369 4.40369,-4.40369c2.43201,0 4.40369,1.97138 4.40369,4.40369c0,2.43201 -1.97168,4.40369 -4.40369,4.40369zM2931.85094,673.96524c0.51259,0.61798 1.02929,1.21395 1.54922,1.78643c0.51964,-0.57248 1.03663,-1.16844 1.54892,-1.78643c-0.51318,0.01086 -1.02958,0.01644 -1.54892,0.01644c-0.51964,0 -1.03604,-0.00558 -1.54922,-0.01644zM2925.99425,673.59798c-2.355,-0.24896 -4.60338,-0.61387 -6.71031,-1.07978c-0.21831,1.02635 -0.38559,2.02217 -0.49982,2.97983c-0.55442,4.64853 0.222,7.47188 1.40492,8.15475c1.18289,0.68286 4.01602,-0.05637 7.76464,-2.86063c0.77211,-0.57776 1.55098,-1.22041 2.33072,-1.92294c-1.45703,-1.59149 -2.89713,-3.3562 -4.29016,-5.27121zM2947.51632,672.51819c-2.10702,0.46591 -4.35554,0.83083 -6.71034,1.07978c-1.39303,1.91502 -2.83333,3.67972 -4.29036,5.27121c0.78004,0.70253 1.55861,1.34518 2.33102,1.92294c3.74842,2.80427 6.58175,3.5435 7.76458,2.86063c1.18283,-0.68286 1.95935,-3.50622 1.40478,-8.15475c-0.1142,-0.95766 -0.28154,-1.95348 -0.49967,-2.97983zM2951.77469,671.37911c1.69278,7.74755 0.80147,13.91477 -2.96163,16.08725c-3.76339,2.17278 -9.54983,-0.13886 -15.4129,-5.47877c-5.86336,5.33991 -11.64975,7.65155 -15.41296,5.47877c-3.76324,-2.17249 -4.65449,-8.3397 -2.96166,-16.08725c-7.55599,-2.40764 -12.45125,-6.26322 -12.45125,-10.60848c0,-4.34556 4.89526,-8.2009 12.45125,-10.60866c-1.69284,-7.74755 -0.80159,-13.91468 2.96166,-16.08737c3.76321,-2.17269 9.5496,0.13901 15.41296,5.47883c5.86307,-5.33982 11.64951,-7.65152 15.4129,-5.47883c3.7631,2.17269 4.6544,8.33982 2.96163,16.08737c7.55585,2.40776 12.45128,6.2631 12.45128,10.60866c0,4.34526 -4.89543,8.20084 -12.45128,10.60848zM2930.28441,642.6718c-0.77975,-0.70236 -1.55861,-1.34512 -2.33072,-1.92286c-3.74862,-2.80441 -6.58175,-3.54359 -7.76464,-2.86063c-1.18292,0.68295 -1.95935,3.5061 -1.40492,8.15463c0.11423,0.95763 0.28151,1.95348 0.49982,2.98003c2.10693,-0.46597 4.3553,-0.83086 6.71031,-1.07975c1.39303,-1.91502 2.83313,-3.67975 4.29016,-5.27142zM2940.80599,647.94321c2.3548,0.2489 4.60332,0.61379 6.71034,1.07975c0.21813,-1.02656 0.38547,-2.02241 0.49967,-2.98003c0.55457,-4.64853 -0.22195,-7.47168 -1.40478,-8.15463c-1.18283,-0.68295 -4.01616,0.05622 -7.76458,2.86063c-0.77241,0.57773 -1.55098,1.2205 -2.33102,1.92286c1.45703,1.59167 2.89733,3.3564 4.29036,5.27142zM2934.94908,647.57586c-0.5123,-0.61798 -1.02929,-1.21407 -1.54892,-1.78655c-0.51993,0.57248 -1.03663,1.16856 -1.54922,1.78655c0.51318,-0.01089 1.02958,-0.01638 1.54922,-0.01638c0.51934,0 1.03575,0.00549 1.54892,0.01638zM2922.7477,668.7093c-0.26601,-0.4389 -0.529,-0.88338 -0.78873,-1.33314c-0.25973,-0.45006 -0.51318,-0.90011 -0.76031,-1.34988c-0.27899,0.75274 -0.53675,1.49843 -0.77267,2.23472c0.75564,0.16411 1.53031,0.31354 2.32171,0.4483zM2928.42077,669.3948c1.62349,0.12066 3.28867,0.18319 4.9794,0.18319c1.69072,0 3.35561,-0.06253 4.9791,-0.18319c0.91626,-1.34577 1.80287,-2.75641 2.64838,-4.22049c0.84521,-1.46437 1.62379,-2.93755 2.33072,-4.40369c-0.70694,-1.46643 -1.48551,-2.93961 -2.33072,-4.40369c-0.84551,-1.46437 -1.73212,-2.87499 -2.64838,-4.22061c-1.62349,-0.12075 -3.28838,-0.18316 -4.9791,-0.18316c-1.69072,0 -3.3559,0.06241 -4.9794,0.18316c-0.91617,1.34562 -1.80269,2.75624 -2.64808,4.22061c-0.84539,1.46408 -1.62379,2.93726 -2.33096,4.40369c0.70717,1.46613 1.48557,2.93931 2.33096,4.40369c0.84539,1.46408 1.73191,2.87473 2.64808,4.22049zM2945.6016,655.51468c0.2789,-0.75274 0.53666,-1.49843 0.7727,-2.23475c-0.75567,-0.16385 -1.53043,-0.31345 -2.32192,-0.44824c0.26598,0.43896 0.52903,0.88344 0.78885,1.33332c0.25982,0.44985 0.51318,0.89991 0.76037,1.34967zM2916.16833,654.41936c-0.9982,0.3242 -1.94426,0.67726 -2.83069,1.05715c-4.30296,1.84426 -6.35966,3.92809 -6.35966,5.29411c0,1.36573 2.0567,3.44985 6.35966,5.29382c0.88643,0.37989 1.83249,0.73307 2.83069,1.05718c0.64993,-2.0577 1.45812,-4.18732 2.42006,-6.351c-0.96194,-2.16397 -1.77014,-4.29359 -2.42006,-6.35126zM2920.42599,653.27992c0.23592,0.73633 0.49368,1.48202 0.77267,2.23475c0.24713,-0.44976 0.50058,-0.89982 0.76031,-1.34967c0.25973,-0.44988 0.52272,-0.89436 0.78873,-1.33332c-0.7914,0.13478 -1.56607,0.28439 -2.32171,0.44824zM2950.63179,667.12162c0.99817,-0.32411 1.94437,-0.67729 2.83069,-1.05718c4.30299,-1.84397 6.3598,-3.92809 6.3598,-5.29382c0,-1.36602 -2.05682,-3.44985 -6.3598,-5.29411c-0.88632,-0.37989 -1.83252,-0.73295 -2.83069,-1.05715c-0.64998,2.05767 -1.45791,4.18729 -2.41997,6.35126c0.96206,2.16368 1.76999,4.2933 2.41997,6.351zM2946.3743,668.261c-0.23604,-0.7363 -0.4938,-1.48199 -0.7727,-2.23472c-0.24719,0.44976 -0.50055,0.89982 -0.76037,1.34988c-0.25982,0.44976 -0.52286,0.89424 -0.78885,1.33314c0.79149,-0.13475 1.56624,-0.28418 2.32192,-0.4483z" className="SFSymbolsPreviewWireframe"/></g>
  <g id="Regular-S"><path d="M1449.84511,665.17431c-2.4323,0 -4.40369,-1.97168 -4.40369,-4.40369c0,-2.4323 1.97138,-4.40369 4.40369,-4.40369c2.43201,0 4.40369,1.97138 4.40369,4.40369c0,2.43201 -1.97168,4.40369 -4.40369,4.40369zM1448.29589,673.96524c0.51259,0.61798 1.02929,1.21395 1.54922,1.78643c0.51964,-0.57248 1.03663,-1.16844 1.54892,-1.78643c-0.51318,0.01086 -1.02958,0.01644 -1.54892,0.01644c-0.51964,0 -1.03604,-0.00558 -1.54922,-0.01644zM1442.4392,673.59798c-2.355,-0.24896 -4.60338,-0.61387 -6.71031,-1.07978c-0.21831,1.02635 -0.38559,2.02217 -0.49982,2.97983c-0.55442,4.64853 0.222,7.47188 1.40492,8.15475c1.18289,0.68286 4.01602,-0.05637 7.76464,-2.86063c0.77211,-0.57776 1.55098,-1.22041 2.33072,-1.92294c-1.45703,-1.59149 -2.89713,-3.3562 -4.29016,-5.27121zM1463.96128,672.51819c-2.10702,0.46591 -4.35554,0.83083 -6.71034,1.07978c-1.39303,1.91502 -2.83333,3.67972 -4.29036,5.27121c0.78004,0.70253 1.55861,1.34518 2.33102,1.92294c3.74842,2.80427 6.58175,3.5435 7.76458,2.86063c1.18283,-0.68286 1.95935,-3.50622 1.40478,-8.15475c-0.1142,-0.95766 -0.28154,-1.95348 -0.49967,-2.97983zM1468.21964,671.37911c1.69278,7.74755 0.80147,13.91477 -2.96163,16.08725c-3.76339,2.17278 -9.54983,-0.13886 -15.4129,-5.47877c-5.86336,5.33991 -11.64975,7.65155 -15.41296,5.47877c-3.76324,-2.17249 -4.65449,-8.3397 -2.96166,-16.08725c-7.55599,-2.40764 -12.45125,-6.26322 -12.45125,-10.60848c0,-4.34556 4.89526,-8.2009 12.45125,-10.60866c-1.69284,-7.74755 -0.80159,-13.91468 2.96166,-16.08737c3.76321,-2.17269 9.5496,0.13901 15.41296,5.47883c5.86307,-5.33982 11.64951,-7.65152 15.4129,-5.47883c3.7631,2.17269 4.6544,8.33982 2.96163,16.08737c7.55585,2.40776 12.45128,6.2631 12.45128,10.60866c0,4.34526 -4.89543,8.20084 -12.45128,10.60848zM1446.72936,642.6718c-0.77975,-0.70236 -1.55861,-1.34512 -2.33072,-1.92286c-3.74862,-2.80441 -6.58175,-3.54359 -7.76464,-2.86063c-1.18292,0.68295 -1.95935,3.5061 -1.40492,8.15463c0.11423,0.95763 0.28151,1.95348 0.49982,2.98003c2.10693,-0.46597 4.3553,-0.83086 6.71031,-1.07975c1.39303,-1.91502 2.83313,-3.67975 4.29016,-5.27142zM1457.25094,647.94321c2.3548,0.2489 4.60332,0.61379 6.71034,1.07975c0.21813,-1.02656 0.38547,-2.02241 0.49967,-2.98003c0.55457,-4.64853 -0.22195,-7.47168 -1.40478,-8.15463c-1.18283,-0.68295 -4.01616,0.05622 -7.76458,2.86063c-0.77241,0.57773 -1.55098,1.2205 -2.33102,1.92286c1.45703,1.59167 2.89733,3.3564 4.29036,5.27142zM1451.39403,647.57586c-0.5123,-0.61798 -1.02929,-1.21407 -1.54892,-1.78655c-0.51993,0.57248 -1.03663,1.16856 -1.54922,1.78655c0.51318,-0.01089 1.02958,-0.01638 1.54922,-0.01638c0.51934,0 1.03575,0.00549 1.54892,0.01638zM1439.19265,668.7093c-0.26601,-0.4389 -0.529,-0.88338 -0.78873,-1.33314c-0.25973,-0.45006 -0.51318,-0.90011 -0.76031,-1.34988c-0.27899,0.75274 -0.53675,1.49843 -0.77267,2.23472c0.75564,0.16411 1.53031,0.31354 2.32171,0.4483zM1444.86572,669.3948c1.62349,0.12066 3.28867,0.18319 4.9794,0.18319c1.69072,0 3.35561,-0.06253 4.9791,-0.18319c0.91626,-1.34577 1.80287,-2.75641 2.64838,-4.22049c0.84521,-1.46437 1.62379,-2.93755 2.33072,-4.40369c-0.70694,-1.46643 -1.48551,-2.93961 -2.33072,-4.40369c-0.84551,-1.46437 -1.73212,-2.87499 -2.64838,-4.22061c-1.62349,-0.12075 -3.28838,-0.18316 -4.9791,-0.18316c-1.69072,0 -3.3559,0.06241 -4.9794,0.18316c-0.91617,1.34562 -1.80269,2.75624 -2.64808,4.22061c-0.84539,1.46408 -1.62379,2.93726 -2.33096,4.40369c0.70717,1.46613 1.48557,2.93931 2.33096,4.40369c0.84539,1.46408 1.73191,2.87473 2.64808,4.22049zM1462.04655,655.51468c0.2789,-0.75274 0.53666,-1.49843 0.7727,-2.23475c-0.75567,-0.16385 -1.53043,-0.31345 -2.32192,-0.44824c0.26598,0.43896 0.52903,0.88344 0.78885,1.33332c0.25982,0.44985 0.51318,0.89991 0.76037,1.34967zM1432.61328,654.41936c-0.9982,0.3242 -1.94426,0.67726 -2.83069,1.05715c-4.30296,1.84426 -6.35966,3.92809 -6.35966,5.29411c0,1.36573 2.0567,3.44985 6.35966,5.29382c0.88643,0.37989 1.83249,0.73307 2.83069,1.05718c0.64993,-2.0577 1.45812,-4.18732 2.42006,-6.351c-0.96194,-2.16397 -1.77014,-4.29359 -2.42006,-6.35126zM1436.87094,653.27992c0.23592,0.73633 0.49368,1.48202 0.77267,2.23475c0.24713,-0.44976 0.50058,-0.89982 0.76031,-1.34967c0.25973,-0.44988 0.52272,-0.89436 0.78873,-1.33332c-0.7914,0.13478 -1.56607,0.28439 -2.32171,0.44824zM1467.07674,667.12162c0.99817,-0.32411 1.94437,-0.67729 2.83069,-1.05718c4.30299,-1.84397 6.3598,-3.92809 6.3598,-5.29382c0,-1.36602 -2.05682,-3.44985 -6.3598,-5.29411c-0.88632,-0.37989 -1.83252,-0.73295 -2.83069,-1.05715c-0.64998,2.05767 -1.45791,4.18729 -2.41997,6.35126c0.96206,2.16368 1.76999,4.2933 2.41997,6.351zM1462.81925,668.261c-0.23604,-0.7363 -0.4938,-1.48199 -0.7727,-2.23472c-0.24719,0.44976 -0.50055,0.89982 -0.76037,1.34988c-0.25982,0.44976 -0.52286,0.89424 -0.78885,1.33314c0.79149,-0.13475 1.56624,-0.28418 2.32192,-0.4483z" className="SFSymbolsPreviewWireframe"/></g>
  <g id="Ultralight-S"><path d="M559.71152,665.17431c-2.4323,0 -4.40369,-1.97168 -4.40369,-4.40369c0,-2.4323 1.97138,-4.40369 4.40369,-4.40369c2.43201,0 4.40369,1.97138 4.40369,4.40369c0,2.43201 -1.97168,4.40369 -4.40369,4.40369zM558.1623,673.96524c0.51259,0.61798 1.02929,1.21395 1.54922,1.78643c0.51964,-0.57248 1.03663,-1.16844 1.54892,-1.78643c-0.51318,0.01086 -1.02958,0.01644 -1.54892,0.01644c-0.51964,0 -1.03604,-0.00558 -1.54922,-0.01644zM552.30561,673.59798c-2.355,-0.24896 -4.60338,-0.61387 -6.71031,-1.07978c-0.21831,1.02635 -0.38559,2.02217 -0.49982,2.97983c-0.55442,4.64853 0.222,7.47188 1.40492,8.15475c1.18289,0.68286 4.01602,-0.05637 7.76464,-2.86063c0.77211,-0.57776 1.55098,-1.22041 2.33072,-1.92294c-1.45703,-1.59149 -2.89713,-3.3562 -4.29016,-5.27121zM573.82768,672.51819c-2.10702,0.46591 -4.35554,0.83083 -6.71034,1.07978c-1.39303,1.91502 -2.83333,3.67972 -4.29036,5.27121c0.78004,0.70253 1.55861,1.34518 2.33102,1.92294c3.74842,2.80427 6.58175,3.5435 7.76458,2.86063c1.18283,-0.68286 1.95935,-3.50622 1.40478,-8.15475c-0.1142,-0.95766 -0.28154,-1.95348 -0.49967,-2.97983zM578.08605,671.37911c1.69278,7.74755 0.80147,13.91477 -2.96163,16.08725c-3.76339,2.17278 -9.54983,-0.13886 -15.4129,-5.47877c-5.86336,5.33991 -11.64975,7.65155 -15.41296,5.47877c-3.76324,-2.17249 -4.65449,-8.3397 -2.96166,-16.08725c-7.55599,-2.40764 -12.45125,-6.26322 -12.45125,-10.60848c0,-4.34556 4.89526,-8.2009 12.45125,-10.60866c-1.69284,-7.74755 -0.80159,-13.91468 2.96166,-16.08737c3.76321,-2.17269 9.5496,0.13901 15.41296,5.47883c5.86307,-5.33982 11.64951,-7.65152 15.4129,-5.47883c3.7631,2.17269 4.6544,8.33982 2.96163,16.08737c7.55585,2.40776 12.45128,6.2631 12.45128,10.60866c0,4.34526 -4.89543,8.20084 -12.45128,10.60848zM556.59577,642.6718c-0.77975,-0.70236 -1.55861,-1.34512 -2.33072,-1.92286c-3.74862,-2.80441 -6.58175,-3.54359 -7.76464,-2.86063c-1.18292,0.68295 -1.95935,3.5061 -1.40492,8.15463c0.11423,0.95763 0.28151,1.95348 0.49982,2.98003c2.10693,-0.46597 4.3553,-0.83086 6.71031,-1.07975c1.39303,-1.91502 2.83313,-3.67975 4.29016,-5.27142zM567.11735,647.94321c2.3548,0.2489 4.60332,0.61379 6.71034,1.07975c0.21813,-1.02656 0.38547,-2.02241 0.49967,-2.98003c0.55457,-4.64853 -0.22195,-7.47168 -1.40478,-8.15463c-1.18283,-0.68295 -4.01616,0.05622 -7.76458,2.86063c-0.77241,0.57773 -1.55098,1.2205 -2.33102,1.92286c1.45703,1.59167 2.89733,3.3564 4.29036,5.27142zM561.26044,647.57586c-0.5123,-0.61798 -1.02929,-1.21407 -1.54892,-1.78655c-0.51993,0.57248 -1.03663,1.16856 -1.54922,1.78655c0.51318,-0.01089 1.02958,-0.01638 1.54922,-0.01638c0.51934,0 1.03575,0.00549 1.54892,0.01638zM549.05906,668.7093c-0.26601,-0.4389 -0.529,-0.88338 -0.78873,-1.33314c-0.25973,-0.45006 -0.51318,-0.90011 -0.76031,-1.34988c-0.27899,0.75274 -0.53675,1.49843 -0.77267,2.23472c0.75564,0.16411 1.53031,0.31354 2.32171,0.4483zM554.73213,669.3948c1.62349,0.12066 3.28867,0.18319 4.9794,0.18319c1.69072,0 3.35561,-0.06253 4.9791,-0.18319c0.91626,-1.34577 1.80287,-2.75641 2.64838,-4.22049c0.84521,-1.46437 1.62379,-2.93755 2.33072,-4.40369c-0.70694,-1.46643 -1.48551,-2.93961 -2.33072,-4.40369c-0.84551,-1.46437 -1.73212,-2.87499 -2.64838,-4.22061c-1.62349,-0.12075 -3.28838,-0.18316 -4.9791,-0.18316c-1.69072,0 -3.3559,0.06241 -4.9794,0.18316c-0.91617,1.34562 -1.80269,2.75624 -2.64808,4.22061c-0.84539,1.46408 -1.62379,2.93726 -2.33096,4.40369c0.70717,1.46613 1.48557,2.93931 2.33096,4.40369c0.84539,1.46408 1.73191,2.87473 2.64808,4.22049zM571.91296,655.51468c0.2789,-0.75274 0.53666,-1.49843 0.7727,-2.23475c-0.75567,-0.16385 -1.53043,-0.31345 -2.32192,-0.44824c0.26598,0.43896 0.52903,0.88344 0.78885,1.33332c0.25982,0.44985 0.51318,0.89991 0.76037,1.34967zM542.47969,654.41936c-0.9982,0.3242 -1.94426,0.67726 -2.83069,1.05715c-4.30296,1.84426 -6.35966,3.92809 -6.35966,5.29411c0,1.36573 2.0567,3.44985 6.35966,5.29382c0.88643,0.37989 1.83249,0.73307 2.83069,1.05718c0.64993,-2.0577 1.45812,-4.18732 2.42006,-6.351c-0.96194,-2.16397 -1.77014,-4.29359 -2.42006,-6.35126zM546.73735,653.27992c0.23592,0.73633 0.49368,1.48202 0.77267,2.23475c0.24713,-0.44976 0.50058,-0.89982 0.76031,-1.34967c0.25973,-0.44988 0.52272,-0.89436 0.78873,-1.33332c-0.7914,0.13478 -1.56607,0.28439 -2.32171,0.44824zM576.94315,667.12162c0.99817,-0.32411 1.94437,-0.67729 2.83069,-1.05718c4.30299,-1.84397 6.3598,-3.92809 6.3598,-5.29382c0,-1.36602 -2.05682,-3.44985 -6.3598,-5.29411c-0.88632,-0.37989 -1.83252,-0.73295 -2.83069,-1.05715c-0.64998,2.05767 -1.45791,4.18729 -2.41997,6.35126c0.96206,2.16368 1.76999,4.2933 2.41997,6.351zM572.68566,668.261c-0.23604,-0.7363 -0.4938,-1.48199 -0.7727,-2.23472c-0.24719,0.44976 -0.50055,0.89982 -0.76037,1.34988c-0.25982,0.44976 -0.52286,0.89424 -0.78885,1.33314c0.79149,-0.13475 1.56624,-0.28418 2.32192,-0.4483z" className="SFSymbolsPreviewWireframe"/></g>
 </g>
</svg>