<?xml version="1.0" encoding="UTF-8"?><!--Generator: SF Tools--><!DOCTYPE svg PUBLIC "-//W3C//DTD SVG 1.1//EN" "http://www.w3.org/Graphics/SVG/1.1/DTD/svg11.dtd"><svg xmlns="http://www.w3.org/2000/svg" xmlns:xlink="http://www.w3.org/1999/xlink" version="1.1" viewBox="0 0 3300 2200">
 <!--glyph: "100092", point size: 100.0, font version: "20.0d10e1", template writer version: "138.0.0"-->
 <style>.SFSymbolsPreviewWireframe {fill:none;opacity:1.0;stroke:black;stroke-width:0.5}
</style>
 <g id="Notes">
  <rect height="2200" id="artboard" style="fill:white;opacity:1" width="3300" x="0" y="0"/>
  <line style="fill:none;stroke:black;opacity:1;stroke-width:0.5;" x1="263" x2="3036" y1="292" y2="292"/>
  <text style="stroke:none;fill:black;font-family:sans-serif;font-size:13;font-weight:bold;" transform="matrix(1 0 0 1 263 322)">Weight/Scale Variations</text>
  <text style="stroke:none;fill:black;font-family:sans-serif;font-size:13;text-anchor:middle;" transform="matrix(1 0 0 1 559.711 322)">Ultralight</text>
  <text style="stroke:none;fill:black;font-family:sans-serif;font-size:13;text-anchor:middle;" transform="matrix(1 0 0 1 856.422 322)">Thin</text>
  <text style="stroke:none;fill:black;font-family:sans-serif;font-size:13;text-anchor:middle;" transform="matrix(1 0 0 1 1153.13 322)">Light</text>
  <text style="stroke:none;fill:black;font-family:sans-serif;font-size:13;text-anchor:middle;" transform="matrix(1 0 0 1 1449.84 322)">Regular</text>
  <text style="stroke:none;fill:black;font-family:sans-serif;font-size:13;text-anchor:middle;" transform="matrix(1 0 0 1 1746.56 322)">Medium</text>
  <text style="stroke:none;fill:black;font-family:sans-serif;font-size:13;text-anchor:middle;" transform="matrix(1 0 0 1 2043.27 322)">Semibold</text>
  <text style="stroke:none;fill:black;font-family:sans-serif;font-size:13;text-anchor:middle;" transform="matrix(1 0 0 1 2339.98 322)">Bold</text>
  <text style="stroke:none;fill:black;font-family:sans-serif;font-size:13;text-anchor:middle;" transform="matrix(1 0 0 1 2636.69 322)">Heavy</text>
  <text style="stroke:none;fill:black;font-family:sans-serif;font-size:13;text-anchor:middle;" transform="matrix(1 0 0 1 2933.4 322)">Black</text>
  <line style="fill:none;stroke:black;opacity:1;stroke-width:0.5;" x1="263" x2="3036" y1="1903" y2="1903"/>
  <g transform="matrix(0.2 0 0 0.2 263 1933)">
   <path d="m46.2402 4.15039c21.7773 0 39.4531-17.627 39.4531-39.4043s-17.6758-39.4043-39.4531-39.4043c-21.7285 0-39.4043 17.627-39.4043 39.4043s17.6758 39.4043 39.4043 39.4043Zm0-7.42188c-17.6758 0-31.9336-14.3066-31.9336-31.9824s14.2578-31.9824 31.9336-31.9824 31.9824 14.3066 31.9824 31.9824-14.3066 31.9824-31.9824 31.9824Zm-17.9688-31.9824c0 2.14844 1.51367 3.61328 3.75977 3.61328h10.498v10.5957c0 2.19727 1.46484 3.71094 3.61328 3.71094 2.24609 0 3.71094-1.51367 3.71094-3.71094v-10.5957h10.5957c2.19727 0 3.71094-1.46484 3.71094-3.61328 0-2.19727-1.51367-3.71094-3.71094-3.71094h-10.5957v-10.5469c0-2.24609-1.46484-3.75977-3.71094-3.75977-2.14844 0-3.61328 1.51367-3.61328 3.75977v10.5469h-10.498c-2.24609 0-3.75977 1.51367-3.75977 3.71094Z"/>
  </g>
  <g transform="matrix(0.2 0 0 0.2 281.506 1933)">
   <path d="m58.5449 14.5508c27.4902 0 49.8047-22.3145 49.8047-49.8047s-22.3145-49.8047-49.8047-49.8047-49.8047 22.3145-49.8047 49.8047 22.3145 49.8047 49.8047 49.8047Zm0-8.30078c-22.9492 0-41.5039-18.5547-41.5039-41.5039s18.5547-41.5039 41.5039-41.5039 41.5039 18.5547 41.5039 41.5039-18.5547 41.5039-41.5039 41.5039Zm-22.6562-41.5039c0 2.39258 1.66016 4.00391 4.15039 4.00391h14.3555v14.4043c0 2.44141 1.66016 4.15039 4.05273 4.15039 2.44141 0 4.15039-1.66016 4.15039-4.15039v-14.4043h14.4043c2.44141 0 4.15039-1.61133 4.15039-4.00391 0-2.44141-1.70898-4.15039-4.15039-4.15039h-14.4043v-14.3555c0-2.49023-1.70898-4.19922-4.15039-4.19922-2.39258 0-4.05273 1.70898-4.05273 4.19922v14.3555h-14.3555c-2.49023 0-4.15039 1.70898-4.15039 4.15039Z"/>
  </g>
  <g transform="matrix(0.2 0 0 0.2 304.924 1933)">
   <path d="m74.8535 28.3203c35.1074 0 63.623-28.4668 63.623-63.5742s-28.5156-63.623-63.623-63.623-63.5742 28.5156-63.5742 63.623 28.4668 63.5742 63.5742 63.5742Zm0-9.08203c-30.127 0-54.4922-24.3652-54.4922-54.4922s24.3652-54.4922 54.4922-54.4922 54.4922 24.3652 54.4922 54.4922-24.3652 54.4922-54.4922 54.4922Zm-28.8574-54.4922c0 2.58789 1.85547 4.39453 4.58984 4.39453h19.7266v19.7754c0 2.68555 1.85547 4.58984 4.44336 4.58984 2.68555 0 4.54102-1.85547 4.54102-4.58984v-19.7754h19.7754c2.68555 0 4.58984-1.80664 4.58984-4.39453 0-2.73438-1.85547-4.58984-4.58984-4.58984h-19.7754v-19.7266c0-2.73438-1.85547-4.63867-4.54102-4.63867-2.58789 0-4.44336 1.9043-4.44336 4.63867v19.7266h-19.7266c-2.73438 0-4.58984 1.85547-4.58984 4.58984Z"/>
  </g>
  <text style="stroke:none;fill:black;font-family:sans-serif;font-size:13;font-weight:bold;" transform="matrix(1 0 0 1 263 1953)">Design Variations</text>
  <text style="stroke:none;fill:black;font-family:sans-serif;font-size:13;" transform="matrix(1 0 0 1 263 1971)">Symbols are supported in up to nine weights and three scales.</text>
  <text style="stroke:none;fill:black;font-family:sans-serif;font-size:13;" transform="matrix(1 0 0 1 263 1989)">For optimal layout with text and other symbols, vertically align</text>
  <text style="stroke:none;fill:black;font-family:sans-serif;font-size:13;" transform="matrix(1 0 0 1 263 2007)">symbols with the adjacent text.</text>
  <line style="fill:none;stroke:#00AEEF;stroke-width:0.5;opacity:1.0;" x1="776" x2="776" y1="1919" y2="1933"/>
  <g transform="matrix(0.2 0 0 0.2 776 1933)">
   <path d="m16.5527 0.78125c2.58789 0 3.85742-0.976562 4.78516-3.71094l6.29883-17.2363h28.8086l6.29883 17.2363c0.927734 2.73438 2.19727 3.71094 4.73633 3.71094 2.58789 0 4.24805-1.5625 4.24805-4.00391 0-0.830078-0.146484-1.61133-0.537109-2.63672l-22.9004-60.9863c-1.12305-2.97852-3.125-4.49219-6.25-4.49219-3.02734 0-5.07812 1.46484-6.15234 4.44336l-22.9004 61.084c-0.390625 1.02539-0.537109 1.80664-0.537109 2.63672 0 2.44141 1.5625 3.95508 4.10156 3.95508Zm13.4766-28.3691 11.8652-32.8613h0.244141l11.8652 32.8613Z"/>
  </g>
  <line style="fill:none;stroke:#00AEEF;stroke-width:0.5;opacity:1.0;" x1="792.836" x2="792.836" y1="1919" y2="1933"/>
  <text style="stroke:none;fill:black;font-family:sans-serif;font-size:13;font-weight:bold;" transform="matrix(1 0 0 1 776 1953)">Margins</text>
  <text style="stroke:none;fill:black;font-family:sans-serif;font-size:13;" transform="matrix(1 0 0 1 776 1971)">Leading and trailing margins on the left and right side of each symbol</text>
  <text style="stroke:none;fill:black;font-family:sans-serif;font-size:13;" transform="matrix(1 0 0 1 776 1989)">can be adjusted by modifying the x-location of the margin guidelines.</text>
  <text style="stroke:none;fill:black;font-family:sans-serif;font-size:13;" transform="matrix(1 0 0 1 776 2007)">Modifications are automatically applied proportionally to all</text>
  <text style="stroke:none;fill:black;font-family:sans-serif;font-size:13;" transform="matrix(1 0 0 1 776 2025)">scales and weights.</text>
  <g transform="matrix(0.2 0 0 0.2 1289 1933)">
   <path d="m14.209 9.32617 8.49609 8.54492c4.29688 4.3457 9.22852 4.05273 13.8672-1.07422l53.4668-58.9355-4.83398-4.88281-53.0762 58.3984c-1.75781 2.00195-3.41797 2.49023-5.76172 0.146484l-5.85938-5.81055c-2.34375-2.29492-1.80664-4.00391 0.195312-5.81055l57.373-54.0039-4.88281-4.83398-57.959 54.4434c-4.93164 4.58984-5.32227 9.47266-1.02539 13.8184Zm32.0801-90.9668c-2.09961 2.05078-2.24609 4.93164-1.07422 6.88477 1.17188 1.80664 3.4668 2.97852 6.68945 2.14844 7.32422-1.70898 14.9414-2.00195 22.0703 2.68555l-2.92969 7.27539c-1.70898 4.15039-0.830078 7.08008 1.85547 9.81445l11.4746 11.5723c2.44141 2.44141 4.49219 2.53906 7.32422 2.05078l5.32227-0.976562 3.32031 3.36914-0.195312 2.7832c-0.195312 2.49023 0.439453 4.39453 2.88086 6.78711l3.80859 3.71094c2.39258 2.39258 5.46875 2.53906 7.8125 0.195312l14.5508-14.5996c2.34375-2.34375 2.24609-5.32227-0.146484-7.71484l-3.85742-3.80859c-2.39258-2.39258-4.24805-3.17383-6.64062-2.97852l-2.88086 0.244141-3.22266-3.17383 1.2207-5.61523c0.634766-2.83203-0.146484-5.0293-3.07617-7.95898l-10.9863-10.9375c-16.6992-16.6016-38.8672-16.2109-53.3203-1.75781Zm7.4707 1.85547c12.1582-8.88672 28.6133-7.37305 39.7461 3.75977l12.1582 12.0605c1.17188 1.17188 1.36719 2.09961 1.02539 3.80859l-1.61133 7.42188 7.51953 7.42188 4.93164-0.292969c1.26953-0.0488281 1.66016 0.0488281 2.63672 1.02539l2.88086 2.88086-12.207 12.207-2.88086-2.88086c-0.976562-0.976562-1.12305-1.36719-1.07422-2.68555l0.341797-4.88281-7.4707-7.42188-7.61719 1.26953c-1.61133 0.341797-2.34375 0.195312-3.56445-0.976562l-10.0098-10.0098c-1.26953-1.17188-1.41602-2.00195-0.634766-3.85742l4.39453-10.4492c-7.8125-7.27539-17.9688-10.4004-28.125-7.42188-0.78125 0.195312-1.07422-0.439453-0.439453-0.976562Z"/>
  </g>
  <text style="stroke:none;fill:black;font-family:sans-serif;font-size:13;font-weight:bold;" transform="matrix(1 0 0 1 1289 1953)">Exporting</text>
  <text style="stroke:none;fill:black;font-family:sans-serif;font-size:13;" transform="matrix(1 0 0 1 1289 1971)">Symbols should be outlined when exporting to ensure the</text>
  <text style="stroke:none;fill:black;font-family:sans-serif;font-size:13;" transform="matrix(1 0 0 1 1289 1989)">design is preserved when submitting to Xcode.</text>
  <text id="template-version" style="stroke:none;fill:black;font-family:sans-serif;font-size:13;text-anchor:end;" transform="matrix(1 0 0 1 3036 1933)">Template v.6.0</text>
  <text style="stroke:none;fill:black;font-family:sans-serif;font-size:13;text-anchor:end;" transform="matrix(1 0 0 1 3036 1951)">Requires Xcode 16 or greater</text>
  <text id="descriptive-name" style="stroke:none;fill:black;font-family:sans-serif;font-size:13;text-anchor:end;" transform="matrix(1 0 0 1 3036 1969)">Generated from square</text>
  <text style="stroke:none;fill:black;font-family:sans-serif;font-size:13;text-anchor:end;" transform="matrix(1 0 0 1 3036 1987)">Typeset at 100.0 points</text>
  <text style="stroke:none;fill:black;font-family:sans-serif;font-size:13;" transform="matrix(1 0 0 1 263 726)">Small</text>
  <text style="stroke:none;fill:black;font-family:sans-serif;font-size:13;" transform="matrix(1 0 0 1 263 1156)">Medium</text>
  <text style="stroke:none;fill:black;font-family:sans-serif;font-size:13;" transform="matrix(1 0 0 1 263 1586)">Large</text>
 </g>
 <g id="Guides">
  <g id="H-reference" style="fill:#27AAE1;stroke:none;" transform="matrix(1 0 0 1 339 696)">
   <path d="M0.993654 0L3.63775 0L29.3281-67.1323L30.0303-67.1323L30.0303-70.459L28.1226-70.459ZM11.6885-24.4799L46.9815-24.4799L46.2315-26.7285L12.4385-26.7285ZM55.1196 0L57.7637 0L30.6382-70.459L29.4326-70.459L29.4326-67.1323Z"/>
  </g>
  <line id="Baseline-S" style="fill:none;stroke:#27AAE1;opacity:1;stroke-width:0.5;" x1="263" x2="3036" y1="696" y2="696"/>
  <line id="Capline-S" style="fill:none;stroke:#27AAE1;opacity:1;stroke-width:0.5;" x1="263" x2="3036" y1="625.541" y2="625.541"/>
  <g id="H-reference" style="fill:#27AAE1;stroke:none;" transform="matrix(1 0 0 1 339 1126)">
   <path d="M0.993654 0L3.63775 0L29.3281-67.1323L30.0303-67.1323L30.0303-70.459L28.1226-70.459ZM11.6885-24.4799L46.9815-24.4799L46.2315-26.7285L12.4385-26.7285ZM55.1196 0L57.7637 0L30.6382-70.459L29.4326-70.459L29.4326-67.1323Z"/>
  </g>
  <line id="Baseline-M" style="fill:none;stroke:#27AAE1;opacity:1;stroke-width:0.5;" x1="263" x2="3036" y1="1126" y2="1126"/>
  <line id="Capline-M" style="fill:none;stroke:#27AAE1;opacity:1;stroke-width:0.5;" x1="263" x2="3036" y1="1055.54" y2="1055.54"/>
  <g id="H-reference" style="fill:#27AAE1;stroke:none;" transform="matrix(1 0 0 1 339 1556)">
   <path d="M0.993654 0L3.63775 0L29.3281-67.1323L30.0303-67.1323L30.0303-70.459L28.1226-70.459ZM11.6885-24.4799L46.9815-24.4799L46.2315-26.7285L12.4385-26.7285ZM55.1196 0L57.7637 0L30.6382-70.459L29.4326-70.459L29.4326-67.1323Z"/>
  </g>
  <line id="Baseline-L" style="fill:none;stroke:#27AAE1;opacity:1;stroke-width:0.5;" x1="263" x2="3036" y1="1556" y2="1556"/>
  <line id="Capline-L" style="fill:none;stroke:#27AAE1;opacity:1;stroke-width:0.5;" x1="263" x2="3036" y1="1485.54" y2="1485.54"/>
  <line id="right-margin-Black-S" style="fill:none;stroke:#00AEEF;stroke-width:0.5;opacity:1.0;" x1="2981.3" x2="2981.3" y1="600.785" y2="720.121"/>
  <line id="left-margin-Black-S" style="fill:none;stroke:#00AEEF;stroke-width:0.5;opacity:1.0;" x1="2885.5" x2="2885.5" y1="600.785" y2="720.121"/>
  <line id="right-margin-Regular-S" style="fill:none;stroke:#00AEEF;stroke-width:0.5;opacity:1.0;" x1="1495.18" x2="1495.18" y1="600.785" y2="720.121"/>
  <line id="left-margin-Regular-S" style="fill:none;stroke:#00AEEF;stroke-width:0.5;opacity:1.0;" x1="1404.51" x2="1404.51" y1="600.785" y2="720.121"/>
  <line id="right-margin-Ultralight-S" style="fill:none;stroke:#00AEEF;stroke-width:0.5;opacity:1.0;" x1="603.073" x2="603.073" y1="600.785" y2="720.121"/>
  <line id="left-margin-Ultralight-S" style="fill:none;stroke:#00AEEF;stroke-width:0.5;opacity:1.0;" x1="516.35" x2="516.35" y1="600.785" y2="720.121"/>
 </g>
 <g id="Symbols">
  <g id="Black-S"><path d="M2943.32635,655.42208c0.0229,-0.2836 0.04198,-0.51582 0.05842,-0.72837c0.03288,-0.43068 0.064,-0.89336 0.09365,-1.41068c0.09336,-1.6362 0.14943,-3.44633 0.14943,-5.41668c0,-2.55748 -0.864,-4.36335 -2.68419,-6.0588c-1.93557,-1.80278 -4.28214,-2.76484 -7.60106,-2.76484c-3.34034,0 -5.75121,0.98308 -7.37295,2.60598c-2.04058,2.04193 -2.80932,3.57726 -2.80932,6.16625c0,1.5306 0.17902,5.85288 0.28093,7.68728c0.08487,1.52779 -0.42868,2.99069 -1.37598,4.11334c0.1593,0.28947 0.30835,0.59919 0.44715,0.93211c0.88335,2.26349 0.5822,4.52875 -0.44504,6.66777c-1.15236,2.39942 -2.1463,4.08838 -4.13947,6.32193c-0.59673,0.66877 -1.22475,1.29938 -1.88445,1.88771c0.4773,0.45857 0.87956,1.00022 1.18342,1.60793c0.00854,0.01703 0.01691,0.03376 0.0251,0.0502c1.49432,-0.12859 2.99838,-0.08073 4.65267,0.21872c2.37649,0.4298 3.88831,1.27443 6.44239,3.11576l0.0455,0.032c0.3291,0.23428 0.3291,0.23428 0.62679,0.44624c1.81667,1.29028 2.57469,1.60235 4.32325,1.60235c1.7876,0 2.67186,-0.35582 4.47268,-1.62026c0.14268,-0.1004 0.30973,-0.21872 0.608,-0.43009c2.57175,-1.85366 4.13036,-2.72177 6.54916,-3.15744c1.36808,-0.23193 2.91495,-0.33086 4.5766,-0.21813c0.04345,-0.08308 0.09072,-0.17057 0.14327,-0.2651c0.29123,-0.52404 0.65674,-0.99377 1.08096,-1.39802c-0.62826,-0.56573 -1.23098,-1.17079 -1.80845,-1.8108c-1.25857,-1.39479 -2.31458,-2.86915 -3.19062,-4.34879c-0.53314,-0.90011 -0.90422,-1.6367 -1.05835,-1.99105c-1.0651,-2.19861 -1.37747,-4.51877 -0.40162,-6.81397c0.11949,-0.28683 0.24866,-0.55633 0.38694,-0.81057c-0.97263,-1.14966 -1.4861,-2.65396 -1.37483,-4.21198zM2913.04158,655.12381c1.23118,0 1.76467,0.89542 3.57982,0.89542c0.45951,0 0.76586,-0.10217 0.95733,-0.19141c-0.02554,-0.45945 -0.28997,-5.83215 -0.28997,-8.01286c0,-4.9567 2.11069,-7.8981 4.52772,-10.31672c2.41701,-2.41859 6.1821,-4.32709 11.52612,-4.32709c5.34402,0 9.00172,1.91722 11.60283,4.33986c2.60111,2.42264 4.554,5.66796 4.554,10.35536c0,4.56598 -0.29064,7.61679 -0.31618,7.97408c0.16587,0.08954 0.44565,0.19171 0.81674,0.19171c1.8519,0 1.8519,-0.90833 3.90607,-0.90833c2.0116,0 2.88471,1.67105 2.88471,2.41439c0,1.82401 -2.44287,2.84038 -3.90607,3.30599c-1.08066,0.34407 -2.73146,0.8552 -3.15275,1.86364c-0.21695,0.51053 -0.12771,1.17432 0.26804,1.99105c0.01145,0.02319 3.70174,8.46271 11.53913,9.76473c0.68903,0.10217 1.14878,0.70841 1.14878,1.41681c0,0.97674 -1.08507,1.81256 -2.13168,2.29755c-1.30202,0.58716 -3.20383,1.08507 -5.73125,1.48081c-0.12771,0.22958 -0.39486,1.42474 -0.68932,2.60375c-0.39721,1.59091 -2.35216,1.07567 -2.91025,0.95736c-2.44228,-0.51729 -4.51848,-0.26804 -5.27151,-0.14033c-1.41681,0.25541 -2.68067,1.11061 -4.09748,2.13168c-2.09322,1.48052 -4.30005,3.15862 -8.51379,3.15862c-4.21374,0 -6.29278,-1.6781 -8.38612,-3.15862c-1.41684,-1.02107 -2.6561,-1.87098 -4.09734,-2.13168c-2.63801,-0.47736 -4.60899,0.10481 -5.27165,0.16587c-0.66267,0.06106 -2.47053,0.71751 -2.92305,-0.95736c-0.13164,-0.48705 -0.56162,-2.37417 -0.68927,-2.62929c-2.51456,-0.39574 -4.4292,-0.9192 -5.73116,-1.50635c-1.07221,-0.48499 -2.13165,-1.30056 -2.13165,-2.28463c0,-0.69197 0.46377,-1.29204 1.14878,-1.41681c7.7607,-1.41623 11.05372,-8.82029 11.51341,-9.77765c0.38785,-0.80734 0.47228,-1.4679 0.26807,-1.99105c-0.42123,-1.00844 -2.06782,-1.50635 -3.15278,-1.86364c-0.30635,-0.10217 -3.91975,-1.09476 -3.91975,-3.28045c0,-0.70459 0.60011,-1.6825 1.70787,-2.14195c0.47387,-0.1964 1.05245,-0.27244 1.36362,-0.27244z" className="SFSymbolsPreviewWireframe"/></g>
  <g id="Regular-S"><path d="M1459.7713,655.42208c0.0229,-0.2836 0.04198,-0.51582 0.05842,-0.72837c0.03288,-0.43068 0.064,-0.89336 0.09365,-1.41068c0.09336,-1.6362 0.14943,-3.44633 0.14943,-5.41668c0,-2.55748 -0.864,-4.36335 -2.68419,-6.0588c-1.93557,-1.80278 -4.28214,-2.76484 -7.60106,-2.76484c-3.34034,0 -5.75121,0.98308 -7.37295,2.60598c-2.04058,2.04193 -2.80932,3.57726 -2.80932,6.16625c0,1.5306 0.17902,5.85288 0.28093,7.68728c0.08487,1.52779 -0.42868,2.99069 -1.37598,4.11334c0.1593,0.28947 0.30835,0.59919 0.44715,0.93211c0.88335,2.26349 0.5822,4.52875 -0.44504,6.66777c-1.15236,2.39942 -2.1463,4.08838 -4.13947,6.32193c-0.59673,0.66877 -1.22475,1.29938 -1.88445,1.88771c0.4773,0.45857 0.87956,1.00022 1.18342,1.60793c0.00854,0.01703 0.01691,0.03376 0.0251,0.0502c1.49432,-0.12859 2.99838,-0.08073 4.65267,0.21872c2.37649,0.4298 3.88831,1.27443 6.44239,3.11576l0.0455,0.032c0.3291,0.23428 0.3291,0.23428 0.62679,0.44624c1.81667,1.29028 2.57469,1.60235 4.32325,1.60235c1.7876,0 2.67186,-0.35582 4.47268,-1.62026c0.14268,-0.1004 0.30973,-0.21872 0.608,-0.43009c2.57175,-1.85366 4.13036,-2.72177 6.54916,-3.15744c1.36808,-0.23193 2.91495,-0.33086 4.5766,-0.21813c0.04345,-0.08308 0.09072,-0.17057 0.14327,-0.2651c0.29123,-0.52404 0.65674,-0.99377 1.08096,-1.39802c-0.62826,-0.56573 -1.23098,-1.17079 -1.80845,-1.8108c-1.25857,-1.39479 -2.31458,-2.86915 -3.19062,-4.34879c-0.53314,-0.90011 -0.90422,-1.6367 -1.05835,-1.99105c-1.0651,-2.19861 -1.37747,-4.51877 -0.40162,-6.81397c0.11949,-0.28683 0.24866,-0.55633 0.38694,-0.81057c-0.97263,-1.14966 -1.4861,-2.65396 -1.37483,-4.21198zM1429.48653,655.12381c1.23118,0 1.76467,0.89542 3.57982,0.89542c0.45951,0 0.76586,-0.10217 0.95733,-0.19141c-0.02554,-0.45945 -0.28997,-5.83215 -0.28997,-8.01286c0,-4.9567 2.11069,-7.8981 4.52772,-10.31672c2.41701,-2.41859 6.1821,-4.32709 11.52612,-4.32709c5.34402,0 9.00172,1.91722 11.60283,4.33986c2.60111,2.42264 4.554,5.66796 4.554,10.35536c0,4.56598 -0.29064,7.61679 -0.31618,7.97408c0.16587,0.08954 0.44565,0.19171 0.81674,0.19171c1.8519,0 1.8519,-0.90833 3.90607,-0.90833c2.0116,0 2.88471,1.67105 2.88471,2.41439c0,1.82401 -2.44287,2.84038 -3.90607,3.30599c-1.08066,0.34407 -2.73146,0.8552 -3.15275,1.86364c-0.21695,0.51053 -0.12771,1.17432 0.26804,1.99105c0.01145,0.02319 3.70174,8.46271 11.53913,9.76473c0.68903,0.10217 1.14878,0.70841 1.14878,1.41681c0,0.97674 -1.08507,1.81256 -2.13168,2.29755c-1.30202,0.58716 -3.20383,1.08507 -5.73125,1.48081c-0.12771,0.22958 -0.39486,1.42474 -0.68932,2.60375c-0.39721,1.59091 -2.35216,1.07567 -2.91025,0.95736c-2.44228,-0.51729 -4.51848,-0.26804 -5.27151,-0.14033c-1.41681,0.25541 -2.68067,1.11061 -4.09748,2.13168c-2.09322,1.48052 -4.30005,3.15862 -8.51379,3.15862c-4.21374,0 -6.29278,-1.6781 -8.38612,-3.15862c-1.41684,-1.02107 -2.6561,-1.87098 -4.09734,-2.13168c-2.63801,-0.47736 -4.60899,0.10481 -5.27165,0.16587c-0.66267,0.06106 -2.47053,0.71751 -2.92305,-0.95736c-0.13164,-0.48705 -0.56162,-2.37417 -0.68927,-2.62929c-2.51456,-0.39574 -4.4292,-0.9192 -5.73116,-1.50635c-1.07221,-0.48499 -2.13165,-1.30056 -2.13165,-2.28463c0,-0.69197 0.46377,-1.29204 1.14878,-1.41681c7.7607,-1.41623 11.05372,-8.82029 11.51341,-9.77765c0.38785,-0.80734 0.47228,-1.4679 0.26807,-1.99105c-0.42123,-1.00844 -2.06782,-1.50635 -3.15278,-1.86364c-0.30635,-0.10217 -3.91975,-1.09476 -3.91975,-3.28045c0,-0.70459 0.60011,-1.6825 1.70787,-2.14195c0.47387,-0.1964 1.05245,-0.27244 1.36362,-0.27244z" className="SFSymbolsPreviewWireframe"/></g>
  <g id="Ultralight-S"><path d="M569.63771,655.42208c0.0229,-0.2836 0.04198,-0.51582 0.05842,-0.72837c0.03288,-0.43068 0.064,-0.89336 0.09365,-1.41068c0.09336,-1.6362 0.14943,-3.44633 0.14943,-5.41668c0,-2.55748 -0.864,-4.36335 -2.68419,-6.0588c-1.93557,-1.80278 -4.28214,-2.76484 -7.60106,-2.76484c-3.34034,0 -5.75121,0.98308 -7.37295,2.60598c-2.04058,2.04193 -2.80932,3.57726 -2.80932,6.16625c0,1.5306 0.17902,5.85288 0.28093,7.68728c0.08487,1.52779 -0.42868,2.99069 -1.37598,4.11334c0.1593,0.28947 0.30835,0.59919 0.44715,0.93211c0.88335,2.26349 0.5822,4.52875 -0.44504,6.66777c-1.15236,2.39942 -2.1463,4.08838 -4.13947,6.32193c-0.59673,0.66877 -1.22475,1.29938 -1.88445,1.88771c0.4773,0.45857 0.87956,1.00022 1.18342,1.60793c0.00854,0.01703 0.01691,0.03376 0.0251,0.0502c1.49432,-0.12859 2.99838,-0.08073 4.65267,0.21872c2.37649,0.4298 3.88831,1.27443 6.44239,3.11576l0.0455,0.032c0.3291,0.23428 0.3291,0.23428 0.62679,0.44624c1.81667,1.29028 2.57469,1.60235 4.32325,1.60235c1.7876,0 2.67186,-0.35582 4.47268,-1.62026c0.14268,-0.1004 0.30973,-0.21872 0.608,-0.43009c2.57175,-1.85366 4.13036,-2.72177 6.54916,-3.15744c1.36808,-0.23193 2.91495,-0.33086 4.5766,-0.21813c0.04345,-0.08308 0.09072,-0.17057 0.14327,-0.2651c0.29123,-0.52404 0.65674,-0.99377 1.08096,-1.39802c-0.62826,-0.56573 -1.23098,-1.17079 -1.80845,-1.8108c-1.25857,-1.39479 -2.31458,-2.86915 -3.19062,-4.34879c-0.53314,-0.90011 -0.90422,-1.6367 -1.05835,-1.99105c-1.0651,-2.19861 -1.37747,-4.51877 -0.40162,-6.81397c0.11949,-0.28683 0.24866,-0.55633 0.38694,-0.81057c-0.97263,-1.14966 -1.4861,-2.65396 -1.37483,-4.21198zM539.35294,655.12381c1.23118,0 1.76467,0.89542 3.57982,0.89542c0.45951,0 0.76586,-0.10217 0.95733,-0.19141c-0.02554,-0.45945 -0.28997,-5.83215 -0.28997,-8.01286c0,-4.9567 2.11069,-7.8981 4.52772,-10.31672c2.41701,-2.41859 6.1821,-4.32709 11.52612,-4.32709c5.34402,0 9.00172,1.91722 11.60283,4.33986c2.60111,2.42264 4.554,5.66796 4.554,10.35536c0,4.56598 -0.29064,7.61679 -0.31618,7.97408c0.16587,0.08954 0.44565,0.19171 0.81674,0.19171c1.8519,0 1.8519,-0.90833 3.90607,-0.90833c2.0116,0 2.88471,1.67105 2.88471,2.41439c0,1.82401 -2.44287,2.84038 -3.90607,3.30599c-1.08066,0.34407 -2.73146,0.8552 -3.15275,1.86364c-0.21695,0.51053 -0.12771,1.17432 0.26804,1.99105c0.01145,0.02319 3.70174,8.46271 11.53913,9.76473c0.68903,0.10217 1.14878,0.70841 1.14878,1.41681c0,0.97674 -1.08507,1.81256 -2.13168,2.29755c-1.30202,0.58716 -3.20383,1.08507 -5.73125,1.48081c-0.12771,0.22958 -0.39486,1.42474 -0.68932,2.60375c-0.39721,1.59091 -2.35216,1.07567 -2.91025,0.95736c-2.44228,-0.51729 -4.51848,-0.26804 -5.27151,-0.14033c-1.41681,0.25541 -2.68067,1.11061 -4.09748,2.13168c-2.09322,1.48052 -4.30005,3.15862 -8.51379,3.15862c-4.21374,0 -6.29278,-1.6781 -8.38612,-3.15862c-1.41684,-1.02107 -2.6561,-1.87098 -4.09734,-2.13168c-2.63801,-0.47736 -4.60899,0.10481 -5.27165,0.16587c-0.66267,0.06106 -2.47053,0.71751 -2.92305,-0.95736c-0.13164,-0.48705 -0.56162,-2.37417 -0.68927,-2.62929c-2.51456,-0.39574 -4.4292,-0.9192 -5.73116,-1.50635c-1.07221,-0.48499 -2.13165,-1.30056 -2.13165,-2.28463c0,-0.69197 0.46377,-1.29204 1.14878,-1.41681c7.7607,-1.41623 11.05372,-8.82029 11.51341,-9.77765c0.38785,-0.80734 0.47228,-1.4679 0.26807,-1.99105c-0.42123,-1.00844 -2.06782,-1.50635 -3.15278,-1.86364c-0.30635,-0.10217 -3.91975,-1.09476 -3.91975,-3.28045c0,-0.70459 0.60011,-1.6825 1.70787,-2.14195c0.47387,-0.1964 1.05245,-0.27244 1.36362,-0.27244z" className="SFSymbolsPreviewWireframe"/></g>
 </g>
</svg>