<?xml version="1.0" encoding="UTF-8"?><!--Generator: SF Tools--><!DOCTYPE svg PUBLIC "-//W3C//DTD SVG 1.1//EN" "http://www.w3.org/Graphics/SVG/1.1/DTD/svg11.dtd"><svg xmlns="http://www.w3.org/2000/svg" xmlns:xlink="http://www.w3.org/1999/xlink" version="1.1" viewBox="0 0 3300 2200">
 <!--glyph: "100092", point size: 100.0, font version: "20.0d10e1", template writer version: "138.0.0"-->
 <style>.SFSymbolsPreviewWireframe {fill:none;opacity:1.0;stroke:black;stroke-width:0.5}
</style>
 <g id="Notes">
  <rect height="2200" id="artboard" style="fill:white;opacity:1" width="3300" x="0" y="0"/>
  <line style="fill:none;stroke:black;opacity:1;stroke-width:0.5;" x1="263" x2="3036" y1="292" y2="292"/>
  <text style="stroke:none;fill:black;font-family:sans-serif;font-size:13;font-weight:bold;" transform="matrix(1 0 0 1 263 322)">Weight/Scale Variations</text>
  <text style="stroke:none;fill:black;font-family:sans-serif;font-size:13;text-anchor:middle;" transform="matrix(1 0 0 1 559.711 322)">Ultralight</text>
  <text style="stroke:none;fill:black;font-family:sans-serif;font-size:13;text-anchor:middle;" transform="matrix(1 0 0 1 856.422 322)">Thin</text>
  <text style="stroke:none;fill:black;font-family:sans-serif;font-size:13;text-anchor:middle;" transform="matrix(1 0 0 1 1153.13 322)">Light</text>
  <text style="stroke:none;fill:black;font-family:sans-serif;font-size:13;text-anchor:middle;" transform="matrix(1 0 0 1 1449.84 322)">Regular</text>
  <text style="stroke:none;fill:black;font-family:sans-serif;font-size:13;text-anchor:middle;" transform="matrix(1 0 0 1 1746.56 322)">Medium</text>
  <text style="stroke:none;fill:black;font-family:sans-serif;font-size:13;text-anchor:middle;" transform="matrix(1 0 0 1 2043.27 322)">Semibold</text>
  <text style="stroke:none;fill:black;font-family:sans-serif;font-size:13;text-anchor:middle;" transform="matrix(1 0 0 1 2339.98 322)">Bold</text>
  <text style="stroke:none;fill:black;font-family:sans-serif;font-size:13;text-anchor:middle;" transform="matrix(1 0 0 1 2636.69 322)">Heavy</text>
  <text style="stroke:none;fill:black;font-family:sans-serif;font-size:13;text-anchor:middle;" transform="matrix(1 0 0 1 2933.4 322)">Black</text>
  <line style="fill:none;stroke:black;opacity:1;stroke-width:0.5;" x1="263" x2="3036" y1="1903" y2="1903"/>
  <g transform="matrix(0.2 0 0 0.2 263 1933)">
   <path d="m46.2402 4.15039c21.7773 0 39.4531-17.627 39.4531-39.4043s-17.6758-39.4043-39.4531-39.4043c-21.7285 0-39.4043 17.627-39.4043 39.4043s17.6758 39.4043 39.4043 39.4043Zm0-7.42188c-17.6758 0-31.9336-14.3066-31.9336-31.9824s14.2578-31.9824 31.9336-31.9824 31.9824 14.3066 31.9824 31.9824-14.3066 31.9824-31.9824 31.9824Zm-17.9688-31.9824c0 2.14844 1.51367 3.61328 3.75977 3.61328h10.498v10.5957c0 2.19727 1.46484 3.71094 3.61328 3.71094 2.24609 0 3.71094-1.51367 3.71094-3.71094v-10.5957h10.5957c2.19727 0 3.71094-1.46484 3.71094-3.61328 0-2.19727-1.51367-3.71094-3.71094-3.71094h-10.5957v-10.5469c0-2.24609-1.46484-3.75977-3.71094-3.75977-2.14844 0-3.61328 1.51367-3.61328 3.75977v10.5469h-10.498c-2.24609 0-3.75977 1.51367-3.75977 3.71094Z"/>
  </g>
  <g transform="matrix(0.2 0 0 0.2 281.506 1933)">
   <path d="m58.5449 14.5508c27.4902 0 49.8047-22.3145 49.8047-49.8047s-22.3145-49.8047-49.8047-49.8047-49.8047 22.3145-49.8047 49.8047 22.3145 49.8047 49.8047 49.8047Zm0-8.30078c-22.9492 0-41.5039-18.5547-41.5039-41.5039s18.5547-41.5039 41.5039-41.5039 41.5039 18.5547 41.5039 41.5039-18.5547 41.5039-41.5039 41.5039Zm-22.6562-41.5039c0 2.39258 1.66016 4.00391 4.15039 4.00391h14.3555v14.4043c0 2.44141 1.66016 4.15039 4.05273 4.15039 2.44141 0 4.15039-1.66016 4.15039-4.15039v-14.4043h14.4043c2.44141 0 4.15039-1.61133 4.15039-4.00391 0-2.44141-1.70898-4.15039-4.15039-4.15039h-14.4043v-14.3555c0-2.49023-1.70898-4.19922-4.15039-4.19922-2.39258 0-4.05273 1.70898-4.05273 4.19922v14.3555h-14.3555c-2.49023 0-4.15039 1.70898-4.15039 4.15039Z"/>
  </g>
  <g transform="matrix(0.2 0 0 0.2 304.924 1933)">
   <path d="m74.8535 28.3203c35.1074 0 63.623-28.4668 63.623-63.5742s-28.5156-63.623-63.623-63.623-63.5742 28.5156-63.5742 63.623 28.4668 63.5742 63.5742 63.5742Zm0-9.08203c-30.127 0-54.4922-24.3652-54.4922-54.4922s24.3652-54.4922 54.4922-54.4922 54.4922 24.3652 54.4922 54.4922-24.3652 54.4922-54.4922 54.4922Zm-28.8574-54.4922c0 2.58789 1.85547 4.39453 4.58984 4.39453h19.7266v19.7754c0 2.68555 1.85547 4.58984 4.44336 4.58984 2.68555 0 4.54102-1.85547 4.54102-4.58984v-19.7754h19.7754c2.68555 0 4.58984-1.80664 4.58984-4.39453 0-2.73438-1.85547-4.58984-4.58984-4.58984h-19.7754v-19.7266c0-2.73438-1.85547-4.63867-4.54102-4.63867-2.58789 0-4.44336 1.9043-4.44336 4.63867v19.7266h-19.7266c-2.73438 0-4.58984 1.85547-4.58984 4.58984Z"/>
  </g>
  <text style="stroke:none;fill:black;font-family:sans-serif;font-size:13;font-weight:bold;" transform="matrix(1 0 0 1 263 1953)">Design Variations</text>
  <text style="stroke:none;fill:black;font-family:sans-serif;font-size:13;" transform="matrix(1 0 0 1 263 1971)">Symbols are supported in up to nine weights and three scales.</text>
  <text style="stroke:none;fill:black;font-family:sans-serif;font-size:13;" transform="matrix(1 0 0 1 263 1989)">For optimal layout with text and other symbols, vertically align</text>
  <text style="stroke:none;fill:black;font-family:sans-serif;font-size:13;" transform="matrix(1 0 0 1 263 2007)">symbols with the adjacent text.</text>
  <line style="fill:none;stroke:#00AEEF;stroke-width:0.5;opacity:1.0;" x1="776" x2="776" y1="1919" y2="1933"/>
  <g transform="matrix(0.2 0 0 0.2 776 1933)">
   <path d="m16.5527 0.78125c2.58789 0 3.85742-0.976562 4.78516-3.71094l6.29883-17.2363h28.8086l6.29883 17.2363c0.927734 2.73438 2.19727 3.71094 4.73633 3.71094 2.58789 0 4.24805-1.5625 4.24805-4.00391 0-0.830078-0.146484-1.61133-0.537109-2.63672l-22.9004-60.9863c-1.12305-2.97852-3.125-4.49219-6.25-4.49219-3.02734 0-5.07812 1.46484-6.15234 4.44336l-22.9004 61.084c-0.390625 1.02539-0.537109 1.80664-0.537109 2.63672 0 2.44141 1.5625 3.95508 4.10156 3.95508Zm13.4766-28.3691 11.8652-32.8613h0.244141l11.8652 32.8613Z"/>
  </g>
  <line style="fill:none;stroke:#00AEEF;stroke-width:0.5;opacity:1.0;" x1="792.836" x2="792.836" y1="1919" y2="1933"/>
  <text style="stroke:none;fill:black;font-family:sans-serif;font-size:13;font-weight:bold;" transform="matrix(1 0 0 1 776 1953)">Margins</text>
  <text style="stroke:none;fill:black;font-family:sans-serif;font-size:13;" transform="matrix(1 0 0 1 776 1971)">Leading and trailing margins on the left and right side of each symbol</text>
  <text style="stroke:none;fill:black;font-family:sans-serif;font-size:13;" transform="matrix(1 0 0 1 776 1989)">can be adjusted by modifying the x-location of the margin guidelines.</text>
  <text style="stroke:none;fill:black;font-family:sans-serif;font-size:13;" transform="matrix(1 0 0 1 776 2007)">Modifications are automatically applied proportionally to all</text>
  <text style="stroke:none;fill:black;font-family:sans-serif;font-size:13;" transform="matrix(1 0 0 1 776 2025)">scales and weights.</text>
  <g transform="matrix(0.2 0 0 0.2 1289 1933)">
   <path d="m14.209 9.32617 8.49609 8.54492c4.29688 4.3457 9.22852 4.05273 13.8672-1.07422l53.4668-58.9355-4.83398-4.88281-53.0762 58.3984c-1.75781 2.00195-3.41797 2.49023-5.76172 0.146484l-5.85938-5.81055c-2.34375-2.29492-1.80664-4.00391 0.195312-5.81055l57.373-54.0039-4.88281-4.83398-57.959 54.4434c-4.93164 4.58984-5.32227 9.47266-1.02539 13.8184Zm32.0801-90.9668c-2.09961 2.05078-2.24609 4.93164-1.07422 6.88477 1.17188 1.80664 3.4668 2.97852 6.68945 2.14844 7.32422-1.70898 14.9414-2.00195 22.0703 2.68555l-2.92969 7.27539c-1.70898 4.15039-0.830078 7.08008 1.85547 9.81445l11.4746 11.5723c2.44141 2.44141 4.49219 2.53906 7.32422 2.05078l5.32227-0.976562 3.32031 3.36914-0.195312 2.7832c-0.195312 2.49023 0.439453 4.39453 2.88086 6.78711l3.80859 3.71094c2.39258 2.39258 5.46875 2.53906 7.8125 0.195312l14.5508-14.5996c2.34375-2.34375 2.24609-5.32227-0.146484-7.71484l-3.85742-3.80859c-2.39258-2.39258-4.24805-3.17383-6.64062-2.97852l-2.88086 0.244141-3.22266-3.17383 1.2207-5.61523c0.634766-2.83203-0.146484-5.0293-3.07617-7.95898l-10.9863-10.9375c-16.6992-16.6016-38.8672-16.2109-53.3203-1.75781Zm7.4707 1.85547c12.1582-8.88672 28.6133-7.37305 39.7461 3.75977l12.1582 12.0605c1.17188 1.17188 1.36719 2.09961 1.02539 3.80859l-1.61133 7.42188 7.51953 7.42188 4.93164-0.292969c1.26953-0.0488281 1.66016 0.0488281 2.63672 1.02539l2.88086 2.88086-12.207 12.207-2.88086-2.88086c-0.976562-0.976562-1.12305-1.36719-1.07422-2.68555l0.341797-4.88281-7.4707-7.42188-7.61719 1.26953c-1.61133 0.341797-2.34375 0.195312-3.56445-0.976562l-10.0098-10.0098c-1.26953-1.17188-1.41602-2.00195-0.634766-3.85742l4.39453-10.4492c-7.8125-7.27539-17.9688-10.4004-28.125-7.42188-0.78125 0.195312-1.07422-0.439453-0.439453-0.976562Z"/>
  </g>
  <text style="stroke:none;fill:black;font-family:sans-serif;font-size:13;font-weight:bold;" transform="matrix(1 0 0 1 1289 1953)">Exporting</text>
  <text style="stroke:none;fill:black;font-family:sans-serif;font-size:13;" transform="matrix(1 0 0 1 1289 1971)">Symbols should be outlined when exporting to ensure the</text>
  <text style="stroke:none;fill:black;font-family:sans-serif;font-size:13;" transform="matrix(1 0 0 1 1289 1989)">design is preserved when submitting to Xcode.</text>
  <text id="template-version" style="stroke:none;fill:black;font-family:sans-serif;font-size:13;text-anchor:end;" transform="matrix(1 0 0 1 3036 1933)">Template v.6.0</text>
  <text style="stroke:none;fill:black;font-family:sans-serif;font-size:13;text-anchor:end;" transform="matrix(1 0 0 1 3036 1951)">Requires Xcode 16 or greater</text>
  <text id="descriptive-name" style="stroke:none;fill:black;font-family:sans-serif;font-size:13;text-anchor:end;" transform="matrix(1 0 0 1 3036 1969)">Generated from square</text>
  <text style="stroke:none;fill:black;font-family:sans-serif;font-size:13;text-anchor:end;" transform="matrix(1 0 0 1 3036 1987)">Typeset at 100.0 points</text>
  <text style="stroke:none;fill:black;font-family:sans-serif;font-size:13;" transform="matrix(1 0 0 1 263 726)">Small</text>
  <text style="stroke:none;fill:black;font-family:sans-serif;font-size:13;" transform="matrix(1 0 0 1 263 1156)">Medium</text>
  <text style="stroke:none;fill:black;font-family:sans-serif;font-size:13;" transform="matrix(1 0 0 1 263 1586)">Large</text>
 </g>
 <g id="Guides">
  <g id="H-reference" style="fill:#27AAE1;stroke:none;" transform="matrix(1 0 0 1 339 696)">
   <path d="M0.993654 0L3.63775 0L29.3281-67.1323L30.0303-67.1323L30.0303-70.459L28.1226-70.459ZM11.6885-24.4799L46.9815-24.4799L46.2315-26.7285L12.4385-26.7285ZM55.1196 0L57.7637 0L30.6382-70.459L29.4326-70.459L29.4326-67.1323Z"/>
  </g>
  <line id="Baseline-S" style="fill:none;stroke:#27AAE1;opacity:1;stroke-width:0.5;" x1="263" x2="3036" y1="696" y2="696"/>
  <line id="Capline-S" style="fill:none;stroke:#27AAE1;opacity:1;stroke-width:0.5;" x1="263" x2="3036" y1="625.541" y2="625.541"/>
  <g id="H-reference" style="fill:#27AAE1;stroke:none;" transform="matrix(1 0 0 1 339 1126)">
   <path d="M0.993654 0L3.63775 0L29.3281-67.1323L30.0303-67.1323L30.0303-70.459L28.1226-70.459ZM11.6885-24.4799L46.9815-24.4799L46.2315-26.7285L12.4385-26.7285ZM55.1196 0L57.7637 0L30.6382-70.459L29.4326-70.459L29.4326-67.1323Z"/>
  </g>
  <line id="Baseline-M" style="fill:none;stroke:#27AAE1;opacity:1;stroke-width:0.5;" x1="263" x2="3036" y1="1126" y2="1126"/>
  <line id="Capline-M" style="fill:none;stroke:#27AAE1;opacity:1;stroke-width:0.5;" x1="263" x2="3036" y1="1055.54" y2="1055.54"/>
  <g id="H-reference" style="fill:#27AAE1;stroke:none;" transform="matrix(1 0 0 1 339 1556)">
   <path d="M0.993654 0L3.63775 0L29.3281-67.1323L30.0303-67.1323L30.0303-70.459L28.1226-70.459ZM11.6885-24.4799L46.9815-24.4799L46.2315-26.7285L12.4385-26.7285ZM55.1196 0L57.7637 0L30.6382-70.459L29.4326-70.459L29.4326-67.1323Z"/>
  </g>
  <line id="Baseline-L" style="fill:none;stroke:#27AAE1;opacity:1;stroke-width:0.5;" x1="263" x2="3036" y1="1556" y2="1556"/>
  <line id="Capline-L" style="fill:none;stroke:#27AAE1;opacity:1;stroke-width:0.5;" x1="263" x2="3036" y1="1485.54" y2="1485.54"/>
  <line id="right-margin-Black-S" style="fill:none;stroke:#00AEEF;stroke-width:0.5;opacity:1.0;" x1="2981.3" x2="2981.3" y1="600.785" y2="720.121"/>
  <line id="left-margin-Black-S" style="fill:none;stroke:#00AEEF;stroke-width:0.5;opacity:1.0;" x1="2885.5" x2="2885.5" y1="600.785" y2="720.121"/>
  <line id="right-margin-Regular-S" style="fill:none;stroke:#00AEEF;stroke-width:0.5;opacity:1.0;" x1="1495.18" x2="1495.18" y1="600.785" y2="720.121"/>
  <line id="left-margin-Regular-S" style="fill:none;stroke:#00AEEF;stroke-width:0.5;opacity:1.0;" x1="1404.51" x2="1404.51" y1="600.785" y2="720.121"/>
  <line id="right-margin-Ultralight-S" style="fill:none;stroke:#00AEEF;stroke-width:0.5;opacity:1.0;" x1="603.073" x2="603.073" y1="600.785" y2="720.121"/>
  <line id="left-margin-Ultralight-S" style="fill:none;stroke:#00AEEF;stroke-width:0.5;opacity:1.0;" x1="516.35" x2="516.35" y1="600.785" y2="720.121"/>
 </g>
 <g id="Symbols">
  <g id="Black-S"><path d="M2930.43535,631.32925c8.57045,-5.46042 20.4243,-2.9143 26.42593,5.67565c1.42445,1.99355 2.43906,4.25152 2.97895,6.6414c0.5396,2.38985 0.59655,4.86349 0.16734,7.27568c-0.41571,2.3033 -1.2941,4.49863 -2.58173,6.45299c1.87832,3.5846 2.50805,7.69324 1.78907,11.67564c-0.42422,2.36478 -1.33696,4.61477 -2.68008,6.60641c-1.34342,1.99164 -3.08757,3.68119 -5.12119,4.96031l-15.05209,9.59328c-8.56928,5.46233 -20.42377,2.91553 -26.42549,-5.67547c-1.42398,-1.9937 -2.43559,-4.25161 -2.97545,-6.64164c-0.53989,-2.38973 -0.59717,-4.86314 -0.16851,-7.27548c0.41612,-2.30372 1.29504,-4.4991 2.58361,-6.45375c-1.88023,-3.58372 -2.51139,-7.69207 -1.79356,-11.67494c0.42454,-2.36484 1.33799,-4.61506 2.68187,-6.60673c1.34389,-1.9917 3.08863,-3.68098 5.12266,-4.95984zM2921.80095,684.98226c2.29485,0.85079 4.79547,0.97674 7.16415,0.36081c1.08213,-0.28918 2.11377,-0.74246 3.05851,-1.34401l15.05356,-9.59005c1.22276,-0.76947 2.27142,-1.78555 3.07935,-2.98335c0.80793,-1.1978 1.35692,-2.55091 1.61234,-3.97271c0.25776,-1.45057 0.22312,-2.93785 -0.10158,-4.37462c-0.3247,-1.43707 -0.93299,-2.79458 -1.78966,-3.99326c-1.39479,-2.01102 -3.37322,-3.54526 -5.66813,-4.39602c-2.29461,-0.85067 -4.79532,-0.97665 -7.16392,-0.3609c-1.08213,0.28879 -2.11377,0.74193 -3.05851,1.34348l-5.74329,3.65976c-0.28536,0.18084 -0.59685,0.31707 -0.92331,0.40396c-0.7139,0.18525 -1.46743,0.14679 -2.15883,-0.1098c-0.69144,-0.25659 -1.28746,-0.71927 -1.70766,-1.32522c-0.25776,-0.36169 -0.44084,-0.77123 -0.53851,-1.20426c-0.0977,-0.43332 -0.10807,-0.88162 -0.0305,-1.31876c0.07695,-0.42833 0.24238,-0.83582 0.48573,-1.19654c0.24335,-0.36072 0.55927,-0.66669 0.92756,-0.89838l15.05573,-9.59525c0.28536,-0.1809 0.59685,-0.31712 0.92331,-0.40396c0.71369,-0.1856 1.46731,-0.14758 2.15869,0.10889c0.69167,0.25647 1.28764,0.71903 1.70775,1.32519c0.45974,0.6511 0.67494,1.44373 0.60712,2.23795l-0.05196,0.55862l0.55986,0.16966c2.11524,0.63865 4.106,1.634 5.88626,2.94313l0.77094,0.56499l0.2833,-0.86565c0.15178,-0.45966 0.27215,-0.92915 0.36022,-1.40522c0.25747,-1.45043 0.22312,-2.9377 -0.10187,-4.37459c-0.3247,-1.43689 -0.93299,-2.79449 -1.78936,-3.99317c-1.39509,-2.01093 -3.37352,-3.54532 -5.66843,-4.39599c-2.29491,-0.85067 -4.79561,-0.97668 -7.16421,-0.36096c-1.08213,0.28941 -2.11348,0.74267 -3.05851,1.34406l-15.05341,9.59293c-1.22346,0.76859 -2.27307,1.78405 -3.08164,2.98147c-0.80858,1.19742 -1.35833,2.55041 -1.61413,3.97245c-0.25776,1.45052 -0.22327,2.93779 0.10149,4.37456c0.32473,1.43707 0.93317,2.79458 1.78963,3.99326c1.39503,2.01102 3.37358,3.54526 5.66845,4.39605c2.29488,0.85079 4.79553,0.97674 7.16412,0.36081c1.08213,-0.28918 2.11348,-0.74187 3.0588,-1.34224l5.74358,-3.66181c0.28565,-0.18084 0.59685,-0.31707 0.92331,-0.40396c0.71398,-0.18495 1.4676,-0.14679 2.15898,0.1098c0.69138,0.25688 1.28764,0.71927 1.70775,1.32551c0.25776,0.36169 0.44066,0.77094 0.53872,1.20397c0.09776,0.43303 0.10862,0.88132 0.03141,1.31846c-0.0775,0.42833 -0.24308,0.83611 -0.48675,1.19663c-0.24338,0.36081 -0.55927,0.66701 -0.92771,0.89894l-15.05168,9.59446c-0.28542,0.18114 -0.59679,0.31736 -0.92334,0.40396c-0.71378,0.18584 -1.46737,0.14796 -2.15886,-0.10862c-0.6915,-0.25659 -1.28758,-0.71898 -1.70763,-1.32522c-0.46033,-0.65028 -0.67561,-1.44265 -0.60768,-2.23619l0.05138,-0.55868l-0.55921,-0.16969c-2.11533,-0.63883 -4.10606,-1.63435 -5.88629,-2.94313l-0.77158,-0.56631l-0.28333,0.86576c-0.15219,0.45945 -0.27232,0.92918 -0.35955,1.40507c-0.25767,1.45057 -0.22321,2.93785 0.10143,4.37462c0.32464,1.43707 0.93291,2.79458 1.78913,3.99326c1.39506,2.01102 3.37361,3.54526 5.66848,4.39605z" className="SFSymbolsPreviewWireframe"/></g>
  <g id="Regular-S"><path d="M1446.8803,631.32925c8.57045,-5.46042 20.4243,-2.9143 26.42593,5.67565c1.42445,1.99355 2.43906,4.25152 2.97895,6.6414c0.5396,2.38985 0.59655,4.86349 0.16734,7.27568c-0.41571,2.3033 -1.2941,4.49863 -2.58173,6.45299c1.87832,3.5846 2.50805,7.69324 1.78907,11.67564c-0.42422,2.36478 -1.33696,4.61477 -2.68008,6.60641c-1.34342,1.99164 -3.08757,3.68119 -5.12119,4.96031l-15.05209,9.59328c-8.56928,5.46233 -20.42377,2.91553 -26.42549,-5.67547c-1.42398,-1.9937 -2.43559,-4.25161 -2.97545,-6.64164c-0.53989,-2.38973 -0.59717,-4.86314 -0.16851,-7.27548c0.41612,-2.30372 1.29504,-4.4991 2.58361,-6.45375c-1.88023,-3.58372 -2.51139,-7.69207 -1.79356,-11.67494c0.42454,-2.36484 1.33799,-4.61506 2.68187,-6.60673c1.34389,-1.9917 3.08863,-3.68098 5.12266,-4.95984zM1438.2459,684.98226c2.29485,0.85079 4.79547,0.97674 7.16415,0.36081c1.08213,-0.28918 2.11377,-0.74246 3.05851,-1.34401l15.05356,-9.59005c1.22276,-0.76947 2.27142,-1.78555 3.07935,-2.98335c0.80793,-1.1978 1.35692,-2.55091 1.61234,-3.97271c0.25776,-1.45057 0.22312,-2.93785 -0.10158,-4.37462c-0.3247,-1.43707 -0.93299,-2.79458 -1.78966,-3.99326c-1.39479,-2.01102 -3.37322,-3.54526 -5.66813,-4.39602c-2.29461,-0.85067 -4.79532,-0.97665 -7.16392,-0.3609c-1.08213,0.28879 -2.11377,0.74193 -3.05851,1.34348l-5.74329,3.65976c-0.28536,0.18084 -0.59685,0.31707 -0.92331,0.40396c-0.7139,0.18525 -1.46743,0.14679 -2.15883,-0.1098c-0.69144,-0.25659 -1.28746,-0.71927 -1.70766,-1.32522c-0.25776,-0.36169 -0.44084,-0.77123 -0.53851,-1.20426c-0.0977,-0.43332 -0.10807,-0.88162 -0.0305,-1.31876c0.07695,-0.42833 0.24238,-0.83582 0.48573,-1.19654c0.24335,-0.36072 0.55927,-0.66669 0.92756,-0.89838l15.05573,-9.59525c0.28536,-0.1809 0.59685,-0.31712 0.92331,-0.40396c0.71369,-0.1856 1.46731,-0.14758 2.15869,0.10889c0.69167,0.25647 1.28764,0.71903 1.70775,1.32519c0.45974,0.6511 0.67494,1.44373 0.60712,2.23795l-0.05196,0.55862l0.55986,0.16966c2.11524,0.63865 4.106,1.634 5.88626,2.94313l0.77094,0.56499l0.2833,-0.86565c0.15178,-0.45966 0.27215,-0.92915 0.36022,-1.40522c0.25747,-1.45043 0.22312,-2.9377 -0.10187,-4.37459c-0.3247,-1.43689 -0.93299,-2.79449 -1.78936,-3.99317c-1.39509,-2.01093 -3.37352,-3.54532 -5.66843,-4.39599c-2.29491,-0.85067 -4.79561,-0.97668 -7.16421,-0.36096c-1.08213,0.28941 -2.11348,0.74267 -3.05851,1.34406l-15.05341,9.59293c-1.22346,0.76859 -2.27307,1.78405 -3.08164,2.98147c-0.80858,1.19742 -1.35833,2.55041 -1.61413,3.97245c-0.25776,1.45052 -0.22327,2.93779 0.10149,4.37456c0.32473,1.43707 0.93317,2.79458 1.78963,3.99326c1.39503,2.01102 3.37358,3.54526 5.66845,4.39605c2.29488,0.85079 4.79553,0.97674 7.16412,0.36081c1.08213,-0.28918 2.11348,-0.74187 3.0588,-1.34224l5.74358,-3.66181c0.28565,-0.18084 0.59685,-0.31707 0.92331,-0.40396c0.71398,-0.18495 1.4676,-0.14679 2.15898,0.1098c0.69138,0.25688 1.28764,0.71927 1.70775,1.32551c0.25776,0.36169 0.44066,0.77094 0.53872,1.20397c0.09776,0.43303 0.10862,0.88132 0.03141,1.31846c-0.0775,0.42833 -0.24308,0.83611 -0.48675,1.19663c-0.24338,0.36081 -0.55927,0.66701 -0.92771,0.89894l-15.05168,9.59446c-0.28542,0.18114 -0.59679,0.31736 -0.92334,0.40396c-0.71378,0.18584 -1.46737,0.14796 -2.15886,-0.10862c-0.6915,-0.25659 -1.28758,-0.71898 -1.70763,-1.32522c-0.46033,-0.65028 -0.67561,-1.44265 -0.60768,-2.23619l0.05138,-0.55868l-0.55921,-0.16969c-2.11533,-0.63883 -4.10606,-1.63435 -5.88629,-2.94313l-0.77158,-0.56631l-0.28333,0.86576c-0.15219,0.45945 -0.27232,0.92918 -0.35955,1.40507c-0.25767,1.45057 -0.22321,2.93785 0.10143,4.37462c0.32464,1.43707 0.93291,2.79458 1.78913,3.99326c1.39506,2.01102 3.37361,3.54526 5.66848,4.39605z" className="SFSymbolsPreviewWireframe"/></g>
  <g id="Ultralight-S"><path d="M556.74671,631.32925c8.57045,-5.46042 20.4243,-2.9143 26.42593,5.67565c1.42445,1.99355 2.43906,4.25152 2.97895,6.6414c0.5396,2.38985 0.59655,4.86349 0.16734,7.27568c-0.41571,2.3033 -1.2941,4.49863 -2.58173,6.45299c1.87832,3.5846 2.50805,7.69324 1.78907,11.67564c-0.42422,2.36478 -1.33696,4.61477 -2.68008,6.60641c-1.34342,1.99164 -3.08757,3.68119 -5.12119,4.96031l-15.05209,9.59328c-8.56928,5.46233 -20.42377,2.91553 -26.42549,-5.67547c-1.42398,-1.9937 -2.43559,-4.25161 -2.97545,-6.64164c-0.53989,-2.38973 -0.59717,-4.86314 -0.16851,-7.27548c0.41612,-2.30372 1.29504,-4.4991 2.58361,-6.45375c-1.88023,-3.58372 -2.51139,-7.69207 -1.79356,-11.67494c0.42454,-2.36484 1.33799,-4.61506 2.68187,-6.60673c1.34389,-1.9917 3.08863,-3.68098 5.12266,-4.95984zM548.11231,684.98226c2.29485,0.85079 4.79547,0.97674 7.16415,0.36081c1.08213,-0.28918 2.11377,-0.74246 3.05851,-1.34401l15.05356,-9.59005c1.22276,-0.76947 2.27142,-1.78555 3.07935,-2.98335c0.80793,-1.1978 1.35692,-2.55091 1.61234,-3.97271c0.25776,-1.45057 0.22312,-2.93785 -0.10158,-4.37462c-0.3247,-1.43707 -0.93299,-2.79458 -1.78966,-3.99326c-1.39479,-2.01102 -3.37322,-3.54526 -5.66813,-4.39602c-2.29461,-0.85067 -4.79532,-0.97665 -7.16392,-0.3609c-1.08213,0.28879 -2.11377,0.74193 -3.05851,1.34348l-5.74329,3.65976c-0.28536,0.18084 -0.59685,0.31707 -0.92331,0.40396c-0.7139,0.18525 -1.46743,0.14679 -2.15883,-0.1098c-0.69144,-0.25659 -1.28746,-0.71927 -1.70766,-1.32522c-0.25776,-0.36169 -0.44084,-0.77123 -0.53851,-1.20426c-0.0977,-0.43332 -0.10807,-0.88162 -0.0305,-1.31876c0.07695,-0.42833 0.24238,-0.83582 0.48573,-1.19654c0.24335,-0.36072 0.55927,-0.66669 0.92756,-0.89838l15.05573,-9.59525c0.28536,-0.1809 0.59685,-0.31712 0.92331,-0.40396c0.71369,-0.1856 1.46731,-0.14758 2.15869,0.10889c0.69167,0.25647 1.28764,0.71903 1.70775,1.32519c0.45974,0.6511 0.67494,1.44373 0.60712,2.23795l-0.05196,0.55862l0.55986,0.16966c2.11524,0.63865 4.106,1.634 5.88626,2.94313l0.77094,0.56499l0.2833,-0.86565c0.15178,-0.45966 0.27215,-0.92915 0.36022,-1.40522c0.25747,-1.45043 0.22312,-2.9377 -0.10187,-4.37459c-0.3247,-1.43689 -0.93299,-2.79449 -1.78936,-3.99317c-1.39509,-2.01093 -3.37352,-3.54532 -5.66843,-4.39599c-2.29491,-0.85067 -4.79561,-0.97668 -7.16421,-0.36096c-1.08213,0.28941 -2.11348,0.74267 -3.05851,1.34406l-15.05341,9.59293c-1.22346,0.76859 -2.27307,1.78405 -3.08164,2.98147c-0.80858,1.19742 -1.35833,2.55041 -1.61413,3.97245c-0.25776,1.45052 -0.22327,2.93779 0.10149,4.37456c0.32473,1.43707 0.93317,2.79458 1.78963,3.99326c1.39503,2.01102 3.37358,3.54526 5.66845,4.39605c2.29488,0.85079 4.79553,0.97674 7.16412,0.36081c1.08213,-0.28918 2.11348,-0.74187 3.0588,-1.34224l5.74358,-3.66181c0.28565,-0.18084 0.59685,-0.31707 0.92331,-0.40396c0.71398,-0.18495 1.4676,-0.14679 2.15898,0.1098c0.69138,0.25688 1.28764,0.71927 1.70775,1.32551c0.25776,0.36169 0.44066,0.77094 0.53872,1.20397c0.09776,0.43303 0.10862,0.88132 0.03141,1.31846c-0.0775,0.42833 -0.24308,0.83611 -0.48675,1.19663c-0.24338,0.36081 -0.55927,0.66701 -0.92771,0.89894l-15.05168,9.59446c-0.28542,0.18114 -0.59679,0.31736 -0.92334,0.40396c-0.71378,0.18584 -1.46737,0.14796 -2.15886,-0.10862c-0.6915,-0.25659 -1.28758,-0.71898 -1.70763,-1.32522c-0.46033,-0.65028 -0.67561,-1.44265 -0.60768,-2.23619l0.05138,-0.55868l-0.55921,-0.16969c-2.11533,-0.63883 -4.10606,-1.63435 -5.88629,-2.94313l-0.77158,-0.56631l-0.28333,0.86576c-0.15219,0.45945 -0.27232,0.92918 -0.35955,1.40507c-0.25767,1.45057 -0.22321,2.93785 0.10143,4.37462c0.32464,1.43707 0.93291,2.79458 1.78913,3.99326c1.39506,2.01102 3.37361,3.54526 5.66848,4.39605z" className="SFSymbolsPreviewWireframe"/></g>
 </g>
</svg>