<?xml version="1.0" encoding="UTF-8"?><!--Generator: SF Tools--><!DOCTYPE svg PUBLIC "-//W3C//DTD SVG 1.1//EN" "http://www.w3.org/Graphics/SVG/1.1/DTD/svg11.dtd"><svg xmlns="http://www.w3.org/2000/svg" xmlns:xlink="http://www.w3.org/1999/xlink" version="1.1" viewBox="0 0 3300 2200">
 <!--glyph: "100092", point size: 100.0, font version: "20.0d10e1", template writer version: "138.0.0"-->
 <style>.SFSymbolsPreviewWireframe {fill:none;opacity:1.0;stroke:black;stroke-width:0.5}
</style>
 <g id="Notes">
  <rect height="2200" id="artboard" style="fill:white;opacity:1" width="3300" x="0" y="0"/>
  <line style="fill:none;stroke:black;opacity:1;stroke-width:0.5;" x1="263" x2="3036" y1="292" y2="292"/>
  <text style="stroke:none;fill:black;font-family:sans-serif;font-size:13;font-weight:bold;" transform="matrix(1 0 0 1 263 322)">Weight/Scale Variations</text>
  <text style="stroke:none;fill:black;font-family:sans-serif;font-size:13;text-anchor:middle;" transform="matrix(1 0 0 1 559.711 322)">Ultralight</text>
  <text style="stroke:none;fill:black;font-family:sans-serif;font-size:13;text-anchor:middle;" transform="matrix(1 0 0 1 856.422 322)">Thin</text>
  <text style="stroke:none;fill:black;font-family:sans-serif;font-size:13;text-anchor:middle;" transform="matrix(1 0 0 1 1153.13 322)">Light</text>
  <text style="stroke:none;fill:black;font-family:sans-serif;font-size:13;text-anchor:middle;" transform="matrix(1 0 0 1 1449.84 322)">Regular</text>
  <text style="stroke:none;fill:black;font-family:sans-serif;font-size:13;text-anchor:middle;" transform="matrix(1 0 0 1 1746.56 322)">Medium</text>
  <text style="stroke:none;fill:black;font-family:sans-serif;font-size:13;text-anchor:middle;" transform="matrix(1 0 0 1 2043.27 322)">Semibold</text>
  <text style="stroke:none;fill:black;font-family:sans-serif;font-size:13;text-anchor:middle;" transform="matrix(1 0 0 1 2339.98 322)">Bold</text>
  <text style="stroke:none;fill:black;font-family:sans-serif;font-size:13;text-anchor:middle;" transform="matrix(1 0 0 1 2636.69 322)">Heavy</text>
  <text style="stroke:none;fill:black;font-family:sans-serif;font-size:13;text-anchor:middle;" transform="matrix(1 0 0 1 2933.4 322)">Black</text>
  <line style="fill:none;stroke:black;opacity:1;stroke-width:0.5;" x1="263" x2="3036" y1="1903" y2="1903"/>
  <g transform="matrix(0.2 0 0 0.2 263 1933)">
   <path d="m46.2402 4.15039c21.7773 0 39.4531-17.627 39.4531-39.4043s-17.6758-39.4043-39.4531-39.4043c-21.7285 0-39.4043 17.627-39.4043 39.4043s17.6758 39.4043 39.4043 39.4043Zm0-7.42188c-17.6758 0-31.9336-14.3066-31.9336-31.9824s14.2578-31.9824 31.9336-31.9824 31.9824 14.3066 31.9824 31.9824-14.3066 31.9824-31.9824 31.9824Zm-17.9688-31.9824c0 2.14844 1.51367 3.61328 3.75977 3.61328h10.498v10.5957c0 2.19727 1.46484 3.71094 3.61328 3.71094 2.24609 0 3.71094-1.51367 3.71094-3.71094v-10.5957h10.5957c2.19727 0 3.71094-1.46484 3.71094-3.61328 0-2.19727-1.51367-3.71094-3.71094-3.71094h-10.5957v-10.5469c0-2.24609-1.46484-3.75977-3.71094-3.75977-2.14844 0-3.61328 1.51367-3.61328 3.75977v10.5469h-10.498c-2.24609 0-3.75977 1.51367-3.75977 3.71094Z"/>
  </g>
  <g transform="matrix(0.2 0 0 0.2 281.506 1933)">
   <path d="m58.5449 14.5508c27.4902 0 49.8047-22.3145 49.8047-49.8047s-22.3145-49.8047-49.8047-49.8047-49.8047 22.3145-49.8047 49.8047 22.3145 49.8047 49.8047 49.8047Zm0-8.30078c-22.9492 0-41.5039-18.5547-41.5039-41.5039s18.5547-41.5039 41.5039-41.5039 41.5039 18.5547 41.5039 41.5039-18.5547 41.5039-41.5039 41.5039Zm-22.6562-41.5039c0 2.39258 1.66016 4.00391 4.15039 4.00391h14.3555v14.4043c0 2.44141 1.66016 4.15039 4.05273 4.15039 2.44141 0 4.15039-1.66016 4.15039-4.15039v-14.4043h14.4043c2.44141 0 4.15039-1.61133 4.15039-4.00391 0-2.44141-1.70898-4.15039-4.15039-4.15039h-14.4043v-14.3555c0-2.49023-1.70898-4.19922-4.15039-4.19922-2.39258 0-4.05273 1.70898-4.05273 4.19922v14.3555h-14.3555c-2.49023 0-4.15039 1.70898-4.15039 4.15039Z"/>
  </g>
  <g transform="matrix(0.2 0 0 0.2 304.924 1933)">
   <path d="m74.8535 28.3203c35.1074 0 63.623-28.4668 63.623-63.5742s-28.5156-63.623-63.623-63.623-63.5742 28.5156-63.5742 63.623 28.4668 63.5742 63.5742 63.5742Zm0-9.08203c-30.127 0-54.4922-24.3652-54.4922-54.4922s24.3652-54.4922 54.4922-54.4922 54.4922 24.3652 54.4922 54.4922-24.3652 54.4922-54.4922 54.4922Zm-28.8574-54.4922c0 2.58789 1.85547 4.39453 4.58984 4.39453h19.7266v19.7754c0 2.68555 1.85547 4.58984 4.44336 4.58984 2.68555 0 4.54102-1.85547 4.54102-4.58984v-19.7754h19.7754c2.68555 0 4.58984-1.80664 4.58984-4.39453 0-2.73438-1.85547-4.58984-4.58984-4.58984h-19.7754v-19.7266c0-2.73438-1.85547-4.63867-4.54102-4.63867-2.58789 0-4.44336 1.9043-4.44336 4.63867v19.7266h-19.7266c-2.73438 0-4.58984 1.85547-4.58984 4.58984Z"/>
  </g>
  <text style="stroke:none;fill:black;font-family:sans-serif;font-size:13;font-weight:bold;" transform="matrix(1 0 0 1 263 1953)">Design Variations</text>
  <text style="stroke:none;fill:black;font-family:sans-serif;font-size:13;" transform="matrix(1 0 0 1 263 1971)">Symbols are supported in up to nine weights and three scales.</text>
  <text style="stroke:none;fill:black;font-family:sans-serif;font-size:13;" transform="matrix(1 0 0 1 263 1989)">For optimal layout with text and other symbols, vertically align</text>
  <text style="stroke:none;fill:black;font-family:sans-serif;font-size:13;" transform="matrix(1 0 0 1 263 2007)">symbols with the adjacent text.</text>
  <line style="fill:none;stroke:#00AEEF;stroke-width:0.5;opacity:1.0;" x1="776" x2="776" y1="1919" y2="1933"/>
  <g transform="matrix(0.2 0 0 0.2 776 1933)">
   <path d="m16.5527 0.78125c2.58789 0 3.85742-0.976562 4.78516-3.71094l6.29883-17.2363h28.8086l6.29883 17.2363c0.927734 2.73438 2.19727 3.71094 4.73633 3.71094 2.58789 0 4.24805-1.5625 4.24805-4.00391 0-0.830078-0.146484-1.61133-0.537109-2.63672l-22.9004-60.9863c-1.12305-2.97852-3.125-4.49219-6.25-4.49219-3.02734 0-5.07812 1.46484-6.15234 4.44336l-22.9004 61.084c-0.390625 1.02539-0.537109 1.80664-0.537109 2.63672 0 2.44141 1.5625 3.95508 4.10156 3.95508Zm13.4766-28.3691 11.8652-32.8613h0.244141l11.8652 32.8613Z"/>
  </g>
  <line style="fill:none;stroke:#00AEEF;stroke-width:0.5;opacity:1.0;" x1="792.836" x2="792.836" y1="1919" y2="1933"/>
  <text style="stroke:none;fill:black;font-family:sans-serif;font-size:13;font-weight:bold;" transform="matrix(1 0 0 1 776 1953)">Margins</text>
  <text style="stroke:none;fill:black;font-family:sans-serif;font-size:13;" transform="matrix(1 0 0 1 776 1971)">Leading and trailing margins on the left and right side of each symbol</text>
  <text style="stroke:none;fill:black;font-family:sans-serif;font-size:13;" transform="matrix(1 0 0 1 776 1989)">can be adjusted by modifying the x-location of the margin guidelines.</text>
  <text style="stroke:none;fill:black;font-family:sans-serif;font-size:13;" transform="matrix(1 0 0 1 776 2007)">Modifications are automatically applied proportionally to all</text>
  <text style="stroke:none;fill:black;font-family:sans-serif;font-size:13;" transform="matrix(1 0 0 1 776 2025)">scales and weights.</text>
  <g transform="matrix(0.2 0 0 0.2 1289 1933)">
   <path d="m14.209 9.32617 8.49609 8.54492c4.29688 4.3457 9.22852 4.05273 13.8672-1.07422l53.4668-58.9355-4.83398-4.88281-53.0762 58.3984c-1.75781 2.00195-3.41797 2.49023-5.76172 0.146484l-5.85938-5.81055c-2.34375-2.29492-1.80664-4.00391 0.195312-5.81055l57.373-54.0039-4.88281-4.83398-57.959 54.4434c-4.93164 4.58984-5.32227 9.47266-1.02539 13.8184Zm32.0801-90.9668c-2.09961 2.05078-2.24609 4.93164-1.07422 6.88477 1.17188 1.80664 3.4668 2.97852 6.68945 2.14844 7.32422-1.70898 14.9414-2.00195 22.0703 2.68555l-2.92969 7.27539c-1.70898 4.15039-0.830078 7.08008 1.85547 9.81445l11.4746 11.5723c2.44141 2.44141 4.49219 2.53906 7.32422 2.05078l5.32227-0.976562 3.32031 3.36914-0.195312 2.7832c-0.195312 2.49023 0.439453 4.39453 2.88086 6.78711l3.80859 3.71094c2.39258 2.39258 5.46875 2.53906 7.8125 0.195312l14.5508-14.5996c2.34375-2.34375 2.24609-5.32227-0.146484-7.71484l-3.85742-3.80859c-2.39258-2.39258-4.24805-3.17383-6.64062-2.97852l-2.88086 0.244141-3.22266-3.17383 1.2207-5.61523c0.634766-2.83203-0.146484-5.0293-3.07617-7.95898l-10.9863-10.9375c-16.6992-16.6016-38.8672-16.2109-53.3203-1.75781Zm7.4707 1.85547c12.1582-8.88672 28.6133-7.37305 39.7461 3.75977l12.1582 12.0605c1.17188 1.17188 1.36719 2.09961 1.02539 3.80859l-1.61133 7.42188 7.51953 7.42188 4.93164-0.292969c1.26953-0.0488281 1.66016 0.0488281 2.63672 1.02539l2.88086 2.88086-12.207 12.207-2.88086-2.88086c-0.976562-0.976562-1.12305-1.36719-1.07422-2.68555l0.341797-4.88281-7.4707-7.42188-7.61719 1.26953c-1.61133 0.341797-2.34375 0.195312-3.56445-0.976562l-10.0098-10.0098c-1.26953-1.17188-1.41602-2.00195-0.634766-3.85742l4.39453-10.4492c-7.8125-7.27539-17.9688-10.4004-28.125-7.42188-0.78125 0.195312-1.07422-0.439453-0.439453-0.976562Z"/>
  </g>
  <text style="stroke:none;fill:black;font-family:sans-serif;font-size:13;font-weight:bold;" transform="matrix(1 0 0 1 1289 1953)">Exporting</text>
  <text style="stroke:none;fill:black;font-family:sans-serif;font-size:13;" transform="matrix(1 0 0 1 1289 1971)">Symbols should be outlined when exporting to ensure the</text>
  <text style="stroke:none;fill:black;font-family:sans-serif;font-size:13;" transform="matrix(1 0 0 1 1289 1989)">design is preserved when submitting to Xcode.</text>
  <text id="template-version" style="stroke:none;fill:black;font-family:sans-serif;font-size:13;text-anchor:end;" transform="matrix(1 0 0 1 3036 1933)">Template v.6.0</text>
  <text style="stroke:none;fill:black;font-family:sans-serif;font-size:13;text-anchor:end;" transform="matrix(1 0 0 1 3036 1951)">Requires Xcode 16 or greater</text>
  <text id="descriptive-name" style="stroke:none;fill:black;font-family:sans-serif;font-size:13;text-anchor:end;" transform="matrix(1 0 0 1 3036 1969)">Generated from square</text>
  <text style="stroke:none;fill:black;font-family:sans-serif;font-size:13;text-anchor:end;" transform="matrix(1 0 0 1 3036 1987)">Typeset at 100.0 points</text>
  <text style="stroke:none;fill:black;font-family:sans-serif;font-size:13;" transform="matrix(1 0 0 1 263 726)">Small</text>
  <text style="stroke:none;fill:black;font-family:sans-serif;font-size:13;" transform="matrix(1 0 0 1 263 1156)">Medium</text>
  <text style="stroke:none;fill:black;font-family:sans-serif;font-size:13;" transform="matrix(1 0 0 1 263 1586)">Large</text>
 </g>
 <g id="Guides">
  <g id="H-reference" style="fill:#27AAE1;stroke:none;" transform="matrix(1 0 0 1 339 696)">
   <path d="M0.993654 0L3.63775 0L29.3281-67.1323L30.0303-67.1323L30.0303-70.459L28.1226-70.459ZM11.6885-24.4799L46.9815-24.4799L46.2315-26.7285L12.4385-26.7285ZM55.1196 0L57.7637 0L30.6382-70.459L29.4326-70.459L29.4326-67.1323Z"/>
  </g>
  <line id="Baseline-S" style="fill:none;stroke:#27AAE1;opacity:1;stroke-width:0.5;" x1="263" x2="3036" y1="696" y2="696"/>
  <line id="Capline-S" style="fill:none;stroke:#27AAE1;opacity:1;stroke-width:0.5;" x1="263" x2="3036" y1="625.541" y2="625.541"/>
  <g id="H-reference" style="fill:#27AAE1;stroke:none;" transform="matrix(1 0 0 1 339 1126)">
   <path d="M0.993654 0L3.63775 0L29.3281-67.1323L30.0303-67.1323L30.0303-70.459L28.1226-70.459ZM11.6885-24.4799L46.9815-24.4799L46.2315-26.7285L12.4385-26.7285ZM55.1196 0L57.7637 0L30.6382-70.459L29.4326-70.459L29.4326-67.1323Z"/>
  </g>
  <line id="Baseline-M" style="fill:none;stroke:#27AAE1;opacity:1;stroke-width:0.5;" x1="263" x2="3036" y1="1126" y2="1126"/>
  <line id="Capline-M" style="fill:none;stroke:#27AAE1;opacity:1;stroke-width:0.5;" x1="263" x2="3036" y1="1055.54" y2="1055.54"/>
  <g id="H-reference" style="fill:#27AAE1;stroke:none;" transform="matrix(1 0 0 1 339 1556)">
   <path d="M0.993654 0L3.63775 0L29.3281-67.1323L30.0303-67.1323L30.0303-70.459L28.1226-70.459ZM11.6885-24.4799L46.9815-24.4799L46.2315-26.7285L12.4385-26.7285ZM55.1196 0L57.7637 0L30.6382-70.459L29.4326-70.459L29.4326-67.1323Z"/>
  </g>
  <line id="Baseline-L" style="fill:none;stroke:#27AAE1;opacity:1;stroke-width:0.5;" x1="263" x2="3036" y1="1556" y2="1556"/>
  <line id="Capline-L" style="fill:none;stroke:#27AAE1;opacity:1;stroke-width:0.5;" x1="263" x2="3036" y1="1485.54" y2="1485.54"/>
  <line id="right-margin-Black-S" style="fill:none;stroke:#00AEEF;stroke-width:0.5;opacity:1.0;" x1="2981.3" x2="2981.3" y1="600.785" y2="720.121"/>
  <line id="left-margin-Black-S" style="fill:none;stroke:#00AEEF;stroke-width:0.5;opacity:1.0;" x1="2885.5" x2="2885.5" y1="600.785" y2="720.121"/>
  <line id="right-margin-Regular-S" style="fill:none;stroke:#00AEEF;stroke-width:0.5;opacity:1.0;" x1="1495.18" x2="1495.18" y1="600.785" y2="720.121"/>
  <line id="left-margin-Regular-S" style="fill:none;stroke:#00AEEF;stroke-width:0.5;opacity:1.0;" x1="1404.51" x2="1404.51" y1="600.785" y2="720.121"/>
  <line id="right-margin-Ultralight-S" style="fill:none;stroke:#00AEEF;stroke-width:0.5;opacity:1.0;" x1="603.073" x2="603.073" y1="600.785" y2="720.121"/>
  <line id="left-margin-Ultralight-S" style="fill:none;stroke:#00AEEF;stroke-width:0.5;opacity:1.0;" x1="516.35" x2="516.35" y1="600.785" y2="720.121"/>
 </g>
 <g id="Symbols">
  <g id="Black-S"><path d="M2927.82333,668.1939c-0.00088,-0.06048 -0.00117,-0.12095 -0.00117,-0.18173c0,-7.36384 5.92002,-13.55795 13.95352,-15.36264c-1.06716,-6.75875 -8.20172,-12.27445 -17.18295,-12.27445c-9.74862,0 -17.32117,6.49834 -17.32117,14.03117c0,2.84596 1.05785,5.58006 3.05275,7.92311c0.09389,0.11039 0.24546,0.27479 0.448,0.48323c1.73784,1.7879 2.77042,4.11891 2.94178,6.56971c2.09354,-1.21013 4.54281,-1.66812 6.93686,-1.29556c0.48687,0.07574 0.88526,0.13358 1.18938,0.17321c0.90323,0.11773 1.82236,0.17732 2.75239,0.17732c1.10759,0 2.18708,-0.08367 3.2306,-0.24338zM2929.16411,673.92251c-1.47797,0.25336 -3.00657,0.38635 -4.57138,0.38635c-1.1936,0 -2.36613,-0.07721 -3.51118,-0.22635c-0.35778,-0.04668 -0.80232,-0.11127 -1.33361,-0.19406c-1.0974,-0.17086 -2.22054,0.04903 -3.16898,0.62063l-5.59201,3.36941c-0.42865,0.26451 -0.93247,0.38518 -1.43619,0.34378c-1.28937,-0.10628 -2.24749,-1.22481 -2.14007,-2.49865l0.44101,-5.22835c0.11171,-1.32404 -0.35802,-2.63164 -1.28963,-3.59018c-0.28621,-0.29446 -0.52231,-0.55075 -0.70838,-0.76918c-2.80063,-3.28955 -4.45371,-7.34388 -4.45371,-11.72966c0,-10.99198 10.38375,-19.90275 23.19275,-19.90275c11.91673,0 21.73401,7.71244 23.04426,17.63803c9.89978,0.45059 17.7633,7.38387 17.7633,15.87065c0,3.5024 -1.33931,6.74028 -3.60809,9.36693c-0.1509,0.17468 -0.34202,0.3793 -0.57395,0.61446c-0.75479,0.76536 -1.13527,1.80962 -1.04485,2.86709l0.35729,4.17528c0.08719,1.01725 -0.68903,1.91032 -1.73358,1.99516c-0.40807,0.03317 -0.81615,-0.06312 -1.16345,-0.2745l-4.53022,-2.69065c-0.76859,-0.45652 -1.67839,-0.63208 -2.56735,-0.49556c-0.43039,0.06606 -0.79061,0.11743 -1.08037,0.15472c-0.92771,0.11919 -1.87773,0.18114 -2.84449,0.18114c-7.90785,0 -14.67455,-4.13242 -17.44711,-9.98374zM2949.64565,677.76664c1.66547,-0.25541 3.3606,-0.07457 4.92009,0.51288c0.40719,-1.64639 1.253,-3.17271 2.47164,-4.40868c0.14767,-0.14943 0.25365,-0.26305 0.31119,-0.32969c1.43355,-1.6596 2.18012,-3.5617 2.18012,-5.52898c0,-5.29705 -5.58593,-10.0222 -12.91748,-10.0222c-7.33155,0 -12.91748,4.72516 -12.91748,10.0222c0,5.29705 5.58593,10.0225 12.91748,10.0225c0.7087,0 1.40889,-0.04492 2.09615,-0.13328c0.23692,-0.03024 0.55164,-0.07545 0.93828,-0.13475z" className="SFSymbolsPreviewWireframe"/></g>
  <g id="Regular-S"><path d="M1444.26828,668.1939c-0.00088,-0.06048 -0.00117,-0.12095 -0.00117,-0.18173c0,-7.36384 5.92002,-13.55795 13.95352,-15.36264c-1.06716,-6.75875 -8.20172,-12.27445 -17.18295,-12.27445c-9.74862,0 -17.32117,6.49834 -17.32117,14.03117c0,2.84596 1.05785,5.58006 3.05275,7.92311c0.09389,0.11039 0.24546,0.27479 0.448,0.48323c1.73784,1.7879 2.77042,4.11891 2.94178,6.56971c2.09354,-1.21013 4.54281,-1.66812 6.93686,-1.29556c0.48687,0.07574 0.88526,0.13358 1.18938,0.17321c0.90323,0.11773 1.82236,0.17732 2.75239,0.17732c1.10759,0 2.18708,-0.08367 3.2306,-0.24338zM1445.60906,673.92251c-1.47797,0.25336 -3.00657,0.38635 -4.57138,0.38635c-1.1936,0 -2.36613,-0.07721 -3.51118,-0.22635c-0.35778,-0.04668 -0.80232,-0.11127 -1.33361,-0.19406c-1.0974,-0.17086 -2.22054,0.04903 -3.16898,0.62063l-5.59201,3.36941c-0.42865,0.26451 -0.93247,0.38518 -1.43619,0.34378c-1.28937,-0.10628 -2.24749,-1.22481 -2.14007,-2.49865l0.44101,-5.22835c0.11171,-1.32404 -0.35802,-2.63164 -1.28963,-3.59018c-0.28621,-0.29446 -0.52231,-0.55075 -0.70838,-0.76918c-2.80063,-3.28955 -4.45371,-7.34388 -4.45371,-11.72966c0,-10.99198 10.38375,-19.90275 23.19275,-19.90275c11.91673,0 21.73401,7.71244 23.04426,17.63803c9.89978,0.45059 17.7633,7.38387 17.7633,15.87065c0,3.5024 -1.33931,6.74028 -3.60809,9.36693c-0.1509,0.17468 -0.34202,0.3793 -0.57395,0.61446c-0.75479,0.76536 -1.13527,1.80962 -1.04485,2.86709l0.35729,4.17528c0.08719,1.01725 -0.68903,1.91032 -1.73358,1.99516c-0.40807,0.03317 -0.81615,-0.06312 -1.16345,-0.2745l-4.53022,-2.69065c-0.76859,-0.45652 -1.67839,-0.63208 -2.56735,-0.49556c-0.43039,0.06606 -0.79061,0.11743 -1.08037,0.15472c-0.92771,0.11919 -1.87773,0.18114 -2.84449,0.18114c-7.90785,0 -14.67455,-4.13242 -17.44711,-9.98374zM1466.0906,677.76664c1.66547,-0.25541 3.3606,-0.07457 4.92009,0.51288c0.40719,-1.64639 1.253,-3.17271 2.47164,-4.40868c0.14767,-0.14943 0.25365,-0.26305 0.31119,-0.32969c1.43355,-1.6596 2.18012,-3.5617 2.18012,-5.52898c0,-5.29705 -5.58593,-10.0222 -12.91748,-10.0222c-7.33155,0 -12.91748,4.72516 -12.91748,10.0222c0,5.29705 5.58593,10.0225 12.91748,10.0225c0.7087,0 1.40889,-0.04492 2.09615,-0.13328c0.23692,-0.03024 0.55164,-0.07545 0.93828,-0.13475z" className="SFSymbolsPreviewWireframe"/></g>
  <g id="Ultralight-S"><path d="M554.13469,668.1939c-0.00088,-0.06048 -0.00117,-0.12095 -0.00117,-0.18173c0,-7.36384 5.92002,-13.55795 13.95352,-15.36264c-1.06716,-6.75875 -8.20172,-12.27445 -17.18295,-12.27445c-9.74862,0 -17.32117,6.49834 -17.32117,14.03117c0,2.84596 1.05785,5.58006 3.05275,7.92311c0.09389,0.11039 0.24546,0.27479 0.448,0.48323c1.73784,1.7879 2.77042,4.11891 2.94178,6.56971c2.09354,-1.21013 4.54281,-1.66812 6.93686,-1.29556c0.48687,0.07574 0.88526,0.13358 1.18938,0.17321c0.90323,0.11773 1.82236,0.17732 2.75239,0.17732c1.10759,0 2.18708,-0.08367 3.2306,-0.24338zM555.47547,673.92251c-1.47797,0.25336 -3.00657,0.38635 -4.57138,0.38635c-1.1936,0 -2.36613,-0.07721 -3.51118,-0.22635c-0.35778,-0.04668 -0.80232,-0.11127 -1.33361,-0.19406c-1.0974,-0.17086 -2.22054,0.04903 -3.16898,0.62063l-5.59201,3.36941c-0.42865,0.26451 -0.93247,0.38518 -1.43619,0.34378c-1.28937,-0.10628 -2.24749,-1.22481 -2.14007,-2.49865l0.44101,-5.22835c0.11171,-1.32404 -0.35802,-2.63164 -1.28963,-3.59018c-0.28621,-0.29446 -0.52231,-0.55075 -0.70838,-0.76918c-2.80063,-3.28955 -4.45371,-7.34388 -4.45371,-11.72966c0,-10.99198 10.38375,-19.90275 23.19275,-19.90275c11.91673,0 21.73401,7.71244 23.04426,17.63803c9.89978,0.45059 17.7633,7.38387 17.7633,15.87065c0,3.5024 -1.33931,6.74028 -3.60809,9.36693c-0.1509,0.17468 -0.34202,0.3793 -0.57395,0.61446c-0.75479,0.76536 -1.13527,1.80962 -1.04485,2.86709l0.35729,4.17528c0.08719,1.01725 -0.68903,1.91032 -1.73358,1.99516c-0.40807,0.03317 -0.81615,-0.06312 -1.16345,-0.2745l-4.53022,-2.69065c-0.76859,-0.45652 -1.67839,-0.63208 -2.56735,-0.49556c-0.43039,0.06606 -0.79061,0.11743 -1.08037,0.15472c-0.92771,0.11919 -1.87773,0.18114 -2.84449,0.18114c-7.90785,0 -14.67455,-4.13242 -17.44711,-9.98374zM575.95701,677.76664c1.66547,-0.25541 3.3606,-0.07457 4.92009,0.51288c0.40719,-1.64639 1.253,-3.17271 2.47164,-4.40868c0.14767,-0.14943 0.25365,-0.26305 0.31119,-0.32969c1.43355,-1.6596 2.18012,-3.5617 2.18012,-5.52898c0,-5.29705 -5.58593,-10.0222 -12.91748,-10.0222c-7.33155,0 -12.91748,4.72516 -12.91748,10.0222c0,5.29705 5.58593,10.0225 12.91748,10.0225c0.7087,0 1.40889,-0.04492 2.09615,-0.13328c0.23692,-0.03024 0.55164,-0.07545 0.93828,-0.13475z" className="SFSymbolsPreviewWireframe"/></g>
 </g>
</svg>